[{"title": "Unconditional Generation", "description": "Since [Redacted] is an auto-regressive model, it is also possible to generate music from scratch. Below are some examples.", "examples": [{"src": "gen/8b_uncond_5.json", "highlights": [[], [], [], [], [], [], [], []], "caption": "", "sample_id": "1a", "mixer": [9, 6, 8, 8], "json": {"tracks": [{"bars": [{"isFourFour": true, "hasNotes": false, "time": 0}, {"events": [0, 1], "isFourFour": true, "hasNotes": true, "time": 48}, {"events": [2, 3, 4, 5, 6, 7, 8, 9, 10], "isFourFour": true, "hasNotes": true, "time": 96}, {"events": [11, 12, 13, 14, 15, 16, 17, 18, 19], "isFourFour": true, "hasNotes": true, "time": 144}, {"events": [20, 21, 22, 23, 24, 25, 26, 27, 28, 29, 30, 31, 32, 33, 34], "isFourFour": true, "hasNotes": true, "time": 192}, {"events": [35], "isFourFour": true, "hasNotes": true, "time": 240}, {"events": [36, 37, 38, 39, 40, 41, 42, 43, 44], "isFourFour": true, "hasNotes": true, "time": 288}, {"events": [45, 46, 47, 48, 49, 50, 51, 52, 53], "isFourFour": true, "hasNotes": true, "time": 336}], "isDrum": false, "minPitch": 60, "maxPitch": 69, "instrument": 64, "avPolyphony": 1.00636947, "noteDensity": 8, "noteDensityV2": 6}, {"bars": [{"events": [54, 55, 56, 57, 58, 59, 60, 61, 62, 63, 64, 65, 66, 67, 68, 69], "isFourFour": true, "hasNotes": true, "time": 0}, {"events": [70, 71, 72, 73, 74, 75, 76, 77, 78, 79], "isFourFour": true, "hasNotes": true, "time": 48}, {"events": [80, 81, 82, 83, 84, 85, 86, 87, 88, 89, 90, 91, 92, 93, 94, 95, 96, 97], "isFourFour": true, "hasNotes": true, "time": 96}, {"events": [98, 99, 100, 101, 102, 103, 104, 105, 106, 107, 108, 109, 110, 111, 112, 113], "isFourFour": true, "hasNotes": true, "time": 144}, {"events": [114, 115, 116, 117, 118, 119, 120, 121, 122, 123, 124, 125, 126, 127, 128, 129, 130, 131, 132, 133], "isFourFour": true, "hasNotes": true, "time": 192}, {"events": [134, 135, 136, 137, 138, 139, 140, 141, 142, 143, 144, 145, 146, 147, 148], "isFourFour": true, "hasNotes": true, "time": 240}, {"events": [149, 150, 151, 152, 153, 154, 155, 156, 157, 158, 159, 160, 161, 162, 163], "isFourFour": true, "hasNotes": true, "time": 288}, {"events": [164, 165, 166, 167, 168, 169, 170, 171, 172, 173, 174, 175, 176, 177, 178, 179], "isFourFour": true, "hasNotes": true, "time": 336}], "isDrum": false, "minPitch": 36, "maxPitch": 71, "instrument": 26, "avPolyphony": 3.28720617, "noteDensity": 9, "noteDensityV2": 6}, {"bars": [{"events": [180, 181, 182, 183], "isFourFour": true, "hasNotes": true, "time": 0}, {"events": [184, 185, 186], "isFourFour": true, "hasNotes": true, "time": 48}, {"events": [187, 188, 189, 190, 191, 192, 193, 194, 195, 196, 197], "isFourFour": true, "hasNotes": true, "time": 96}, {"events": [198, 199, 200, 201, 202, 203, 204, 205], "isFourFour": true, "hasNotes": true, "time": 144}, {"events": [206, 207, 208, 209, 210, 211, 212, 213], "isFourFour": true, "hasNotes": true, "time": 192}, {"events": [214, 215, 216, 217, 218, 219, 220, 221], "isFourFour": true, "hasNotes": true, "time": 240}, {"events": [222, 223, 224, 225, 226, 227], "isFourFour": true, "hasNotes": true, "time": 288}, {"events": [228, 229, 230, 231, 232, 233, 234, 235], "isFourFour": true, "hasNotes": true, "time": 336}], "isDrum": false, "minPitch": 24, "maxPitch": 40, "instrument": 32, "avPolyphony": 1.024, "noteDensity": 8, "noteDensityV2": 4}, {"bars": [{"events": [236, 237, 238, 239, 240, 241, 242, 243, 244, 245, 246, 247, 248, 249, 250, 251, 252, 253, 254, 255, 256, 257, 258, 259], "isFourFour": true, "hasNotes": true, "time": 0}, {"events": [260, 261, 262, 263, 264, 265, 266, 267, 268, 269, 270, 271, 272, 273, 274, 275, 276, 277, 278, 279, 280, 281, 282, 283, 284, 285, 286, 287, 288, 289, 290, 291], "isFourFour": true, "hasNotes": true, "time": 48}, {"events": [292, 293, 294, 295, 296, 297, 298, 299, 300, 301, 302, 303, 304, 305, 306, 307, 308, 309, 310, 311, 312, 313, 314, 315, 316, 317, 318, 319], "isFourFour": true, "hasNotes": true, "time": 96}, {"events": [320, 321, 322, 323, 324, 325, 326, 327, 328, 329, 330, 331, 332, 333, 334, 335, 336, 337, 338, 339, 340, 341, 342, 343], "isFourFour": true, "hasNotes": true, "time": 144}, {"events": [344, 345, 346, 347, 348, 349, 350, 351, 352, 353, 354, 355, 356, 357, 358, 359, 360, 361, 362, 363, 364, 365, 366, 367, 368, 369, 370, 371, 372, 373, 374, 375], "isFourFour": true, "hasNotes": true, "time": 192}, {"events": [376, 377, 378, 379, 380, 381, 382, 383, 384, 385, 386, 387, 388, 389, 390, 391, 392, 393, 394, 395, 396, 397, 398, 399], "isFourFour": true, "hasNotes": true, "time": 240}, {"events": [400, 401, 402, 403, 404, 405, 406, 407, 408, 409, 410, 411, 412, 413, 414, 415, 416, 417, 418, 419, 420, 421, 422, 423, 424, 425, 426, 427, 428, 429, 430, 431, 432, 433, 434, 435], "isFourFour": true, "hasNotes": true, "time": 288}, {"events": [436, 437, 438, 439, 440, 441, 442, 443, 444, 445, 446, 447, 448, 449, 450, 451, 452, 453, 454, 455, 456, 457, 458, 459], "isFourFour": true, "hasNotes": true, "time": 336}], "isDrum": false, "minPitch": 52, "maxPitch": 67, "instrument": 3, "avPolyphony": 3.33227849, "noteDensity": 9, "noteDensityV2": 7}], "events": [{"time": 90, "velocity": 120, "pitch": 60, "instrument": 64, "track": 0, "qtime": 42, "isDrum": false}, {"time": 92, "velocity": 0, "pitch": 60, "instrument": 64, "track": 0, "qtime": 44, "isDrum": false}, {"time": 96, "velocity": 120, "pitch": 64, "instrument": 64, "track": 0, "qtime": 0, "isDrum": false}, {"time": 107, "velocity": 0, "pitch": 64, "instrument": 64, "track": 0, "qtime": 11, "isDrum": false}, {"time": 108, "velocity": 120, "pitch": 62, "instrument": 64, "track": 0, "qtime": 12, "isDrum": false}, {"time": 114, "velocity": 0, "pitch": 62, "instrument": 64, "track": 0, "qtime": 18, "isDrum": false}, {"time": 115, "velocity": 120, "pitch": 64, "instrument": 64, "track": 0, "qtime": 19, "isDrum": false}, {"time": 121, "velocity": 0, "pitch": 64, "instrument": 64, "track": 0, "qtime": 25, "isDrum": false}, {"time": 131, "velocity": 120, "pitch": 69, "instrument": 64, "track": 0, "qtime": 35, "isDrum": false}, {"time": 134, "velocity": 0, "pitch": 69, "instrument": 64, "track": 0, "qtime": 38, "isDrum": false}, {"time": 138, "velocity": 120, "pitch": 67, "instrument": 64, "track": 0, "qtime": 42, "isDrum": false}, {"time": 145, "velocity": 0, "pitch": 67, "instrument": 64, "track": 0, "qtime": 1, "isDrum": false}, {"time": 150, "velocity": 120, "pitch": 64, "instrument": 64, "track": 0, "qtime": 6, "isDrum": false}, {"time": 162, "velocity": 0, "pitch": 64, "instrument": 64, "track": 0, "qtime": 18, "isDrum": false}, {"time": 162, "velocity": 120, "pitch": 60, "instrument": 64, "track": 0, "qtime": 18, "isDrum": false}, {"time": 164, "velocity": 0, "pitch": 60, "instrument": 64, "track": 0, "qtime": 20, "isDrum": false}, {"time": 169, "velocity": 120, "pitch": 62, "instrument": 64, "track": 0, "qtime": 25, "isDrum": false}, {"time": 177, "velocity": 0, "pitch": 62, "instrument": 64, "track": 0, "qtime": 33, "isDrum": false}, {"time": 186, "velocity": 120, "pitch": 62, "instrument": 64, "track": 0, "qtime": 42, "isDrum": false}, {"time": 188, "velocity": 0, "pitch": 62, "instrument": 64, "track": 0, "qtime": 44, "isDrum": false}, {"time": 192, "velocity": 120, "pitch": 65, "instrument": 64, "track": 0, "qtime": 0, "isDrum": false}, {"time": 203, "velocity": 0, "pitch": 65, "instrument": 64, "track": 0, "qtime": 11, "isDrum": false}, {"time": 204, "velocity": 120, "pitch": 64, "instrument": 64, "track": 0, "qtime": 12, "isDrum": false}, {"time": 210, "velocity": 0, "pitch": 64, "instrument": 64, "track": 0, "qtime": 18, "isDrum": false}, {"time": 217, "velocity": 120, "pitch": 62, "instrument": 64, "track": 0, "qtime": 25, "isDrum": false}, {"time": 218, "velocity": 0, "pitch": 62, "instrument": 64, "track": 0, "qtime": 26, "isDrum": false}, {"time": 218, "velocity": 120, "pitch": 64, "instrument": 64, "track": 0, "qtime": 26, "isDrum": false}, {"time": 219, "velocity": 120, "pitch": 62, "instrument": 64, "track": 0, "qtime": 27, "isDrum": false}, {"time": 220, "velocity": 0, "pitch": 64, "instrument": 64, "track": 0, "qtime": 28, "isDrum": false}, {"time": 221, "velocity": 0, "pitch": 62, "instrument": 64, "track": 0, "qtime": 29, "isDrum": false}, {"time": 221, "velocity": 120, "pitch": 60, "instrument": 64, "track": 0, "qtime": 29, "isDrum": false}, {"time": 226, "velocity": 0, "pitch": 60, "instrument": 64, "track": 0, "qtime": 34, "isDrum": false}, {"time": 227, "velocity": 120, "pitch": 62, "instrument": 64, "track": 0, "qtime": 35, "isDrum": false}, {"time": 229, "velocity": 0, "pitch": 62, "instrument": 64, "track": 0, "qtime": 37, "isDrum": false}, {"time": 232, "velocity": 120, "pitch": 64, "instrument": 64, "track": 0, "qtime": 40, "isDrum": false}, {"time": 245, "velocity": 0, "pitch": 64, "instrument": 64, "track": 0, "qtime": 5, "isDrum": false}, {"time": 288, "velocity": 120, "pitch": 64, "instrument": 64, "track": 0, "qtime": 0, "isDrum": false}, {"time": 299, "velocity": 0, "pitch": 64, "instrument": 64, "track": 0, "qtime": 11, "isDrum": false}, {"time": 300, "velocity": 120, "pitch": 62, "instrument": 64, "track": 0, "qtime": 12, "isDrum": false}, {"time": 306, "velocity": 0, "pitch": 62, "instrument": 64, "track": 0, "qtime": 18, "isDrum": false}, {"time": 307, "velocity": 120, "pitch": 64, "instrument": 64, "track": 0, "qtime": 19, "isDrum": false}, {"time": 313, "velocity": 0, "pitch": 64, "instrument": 64, "track": 0, "qtime": 25, "isDrum": false}, {"time": 323, "velocity": 120, "pitch": 69, "instrument": 64, "track": 0, "qtime": 35, "isDrum": false}, {"time": 326, "velocity": 0, "pitch": 69, "instrument": 64, "track": 0, "qtime": 38, "isDrum": false}, {"time": 330, "velocity": 120, "pitch": 67, "instrument": 64, "track": 0, "qtime": 42, "isDrum": false}, {"time": 337, "velocity": 0, "pitch": 67, "instrument": 64, "track": 0, "qtime": 1, "isDrum": false}, {"time": 342, "velocity": 120, "pitch": 64, "instrument": 64, "track": 0, "qtime": 6, "isDrum": false}, {"time": 354, "velocity": 0, "pitch": 64, "instrument": 64, "track": 0, "qtime": 18, "isDrum": false}, {"time": 354, "velocity": 120, "pitch": 60, "instrument": 64, "track": 0, "qtime": 18, "isDrum": false}, {"time": 356, "velocity": 0, "pitch": 60, "instrument": 64, "track": 0, "qtime": 20, "isDrum": false}, {"time": 361, "velocity": 120, "pitch": 62, "instrument": 64, "track": 0, "qtime": 25, "isDrum": false}, {"time": 369, "velocity": 0, "pitch": 62, "instrument": 64, "track": 0, "qtime": 33, "isDrum": false}, {"time": 378, "velocity": 120, "pitch": 62, "instrument": 64, "track": 0, "qtime": 42, "isDrum": false}, {"time": 380, "velocity": 0, "pitch": 62, "instrument": 64, "track": 0, "qtime": 44, "isDrum": false}, {"time": 0, "velocity": 84, "pitch": 40, "instrument": 26, "track": 1, "qtime": 0, "isDrum": false}, {"time": 12, "velocity": 84, "pitch": 48, "instrument": 26, "track": 1, "qtime": 12, "isDrum": false}, {"time": 12, "velocity": 84, "pitch": 52, "instrument": 26, "track": 1, "qtime": 12, "isDrum": false}, {"time": 12, "velocity": 84, "pitch": 55, "instrument": 26, "track": 1, "qtime": 12, "isDrum": false}, {"time": 24, "velocity": 0, "pitch": 40, "instrument": 26, "track": 1, "qtime": 24, "isDrum": false}, {"time": 24, "velocity": 0, "pitch": 48, "instrument": 26, "track": 1, "qtime": 24, "isDrum": false}, {"time": 24, "velocity": 0, "pitch": 52, "instrument": 26, "track": 1, "qtime": 24, "isDrum": false}, {"time": 24, "velocity": 0, "pitch": 55, "instrument": 26, "track": 1, "qtime": 24, "isDrum": false}, {"time": 25, "velocity": 84, "pitch": 38, "instrument": 26, "track": 1, "qtime": 25, "isDrum": false}, {"time": 36, "velocity": 84, "pitch": 48, "instrument": 26, "track": 1, "qtime": 36, "isDrum": false}, {"time": 36, "velocity": 84, "pitch": 51, "instrument": 26, "track": 1, "qtime": 36, "isDrum": false}, {"time": 36, "velocity": 84, "pitch": 54, "instrument": 26, "track": 1, "qtime": 36, "isDrum": false}, {"time": 48, "velocity": 0, "pitch": 38, "instrument": 26, "track": 1, "qtime": 48, "isDrum": false}, {"time": 48, "velocity": 0, "pitch": 48, "instrument": 26, "track": 1, "qtime": 48, "isDrum": false}, {"time": 48, "velocity": 0, "pitch": 51, "instrument": 26, "track": 1, "qtime": 48, "isDrum": false}, {"time": 48, "velocity": 0, "pitch": 54, "instrument": 26, "track": 1, "qtime": 48, "isDrum": false}, {"time": 48, "velocity": 84, "pitch": 43, "instrument": 26, "track": 1, "qtime": 0, "isDrum": false}, {"time": 48, "velocity": 84, "pitch": 59, "instrument": 26, "track": 1, "qtime": 0, "isDrum": false}, {"time": 48, "velocity": 84, "pitch": 62, "instrument": 26, "track": 1, "qtime": 0, "isDrum": false}, {"time": 48, "velocity": 84, "pitch": 71, "instrument": 26, "track": 1, "qtime": 0, "isDrum": false}, {"time": 66, "velocity": 84, "pitch": 67, "instrument": 26, "track": 1, "qtime": 18, "isDrum": false}, {"time": 96, "velocity": 0, "pitch": 43, "instrument": 26, "track": 1, "qtime": 48, "isDrum": false}, {"time": 96, "velocity": 0, "pitch": 59, "instrument": 26, "track": 1, "qtime": 48, "isDrum": false}, {"time": 96, "velocity": 0, "pitch": 62, "instrument": 26, "track": 1, "qtime": 48, "isDrum": false}, {"time": 96, "velocity": 0, "pitch": 67, "instrument": 26, "track": 1, "qtime": 48, "isDrum": false}, {"time": 96, "velocity": 0, "pitch": 71, "instrument": 26, "track": 1, "qtime": 48, "isDrum": false}, {"time": 96, "velocity": 84, "pitch": 36, "instrument": 26, "track": 1, "qtime": 0, "isDrum": false}, {"time": 108, "velocity": 84, "pitch": 52, "instrument": 26, "track": 1, "qtime": 12, "isDrum": false}, {"time": 108, "velocity": 84, "pitch": 55, "instrument": 26, "track": 1, "qtime": 12, "isDrum": false}, {"time": 108, "velocity": 84, "pitch": 60, "instrument": 26, "track": 1, "qtime": 12, "isDrum": false}, {"time": 120, "velocity": 0, "pitch": 36, "instrument": 26, "track": 1, "qtime": 24, "isDrum": false}, {"time": 120, "velocity": 0, "pitch": 52, "instrument": 26, "track": 1, "qtime": 24, "isDrum": false}, {"time": 120, "velocity": 0, "pitch": 55, "instrument": 26, "track": 1, "qtime": 24, "isDrum": false}, {"time": 120, "velocity": 0, "pitch": 60, "instrument": 26, "track": 1, "qtime": 24, "isDrum": false}, {"time": 120, "velocity": 84, "pitch": 43, "instrument": 26, "track": 1, "qtime": 24, "isDrum": false}, {"time": 120, "velocity": 84, "pitch": 59, "instrument": 26, "track": 1, "qtime": 24, "isDrum": false}, {"time": 120, "velocity": 84, "pitch": 62, "instrument": 26, "track": 1, "qtime": 24, "isDrum": false}, {"time": 120, "velocity": 84, "pitch": 71, "instrument": 26, "track": 1, "qtime": 24, "isDrum": false}, {"time": 132, "velocity": 84, "pitch": 67, "instrument": 26, "track": 1, "qtime": 36, "isDrum": false}, {"time": 144, "velocity": 0, "pitch": 43, "instrument": 26, "track": 1, "qtime": 48, "isDrum": false}, {"time": 144, "velocity": 0, "pitch": 59, "instrument": 26, "track": 1, "qtime": 48, "isDrum": false}, {"time": 144, "velocity": 0, "pitch": 62, "instrument": 26, "track": 1, "qtime": 48, "isDrum": false}, {"time": 144, "velocity": 0, "pitch": 67, "instrument": 26, "track": 1, "qtime": 48, "isDrum": false}, {"time": 144, "velocity": 0, "pitch": 71, "instrument": 26, "track": 1, "qtime": 48, "isDrum": false}, {"time": 144, "velocity": 84, "pitch": 36, "instrument": 26, "track": 1, "qtime": 0, "isDrum": false}, {"time": 144, "velocity": 84, "pitch": 52, "instrument": 26, "track": 1, "qtime": 0, "isDrum": false}, {"time": 144, "velocity": 84, "pitch": 55, "instrument": 26, "track": 1, "qtime": 0, "isDrum": false}, {"time": 156, "velocity": 84, "pitch": 48, "instrument": 26, "track": 1, "qtime": 12, "isDrum": false}, {"time": 168, "velocity": 0, "pitch": 36, "instrument": 26, "track": 1, "qtime": 24, "isDrum": false}, {"time": 168, "velocity": 0, "pitch": 48, "instrument": 26, "track": 1, "qtime": 24, "isDrum": false}, {"time": 168, "velocity": 0, "pitch": 52, "instrument": 26, "track": 1, "qtime": 24, "isDrum": false}, {"time": 168, "velocity": 0, "pitch": 55, "instrument": 26, "track": 1, "qtime": 24, "isDrum": false}, {"time": 168, "velocity": 84, "pitch": 38, "instrument": 26, "track": 1, "qtime": 24, "isDrum": false}, {"time": 168, "velocity": 84, "pitch": 53, "instrument": 26, "track": 1, "qtime": 24, "isDrum": false}, {"time": 168, "velocity": 84, "pitch": 57, "instrument": 26, "track": 1, "qtime": 24, "isDrum": false}, {"time": 180, "velocity": 84, "pitch": 50, "instrument": 26, "track": 1, "qtime": 36, "isDrum": false}, {"time": 192, "velocity": 0, "pitch": 38, "instrument": 26, "track": 1, "qtime": 48, "isDrum": false}, {"time": 192, "velocity": 0, "pitch": 50, "instrument": 26, "track": 1, "qtime": 48, "isDrum": false}, {"time": 192, "velocity": 0, "pitch": 53, "instrument": 26, "track": 1, "qtime": 48, "isDrum": false}, {"time": 192, "velocity": 0, "pitch": 57, "instrument": 26, "track": 1, "qtime": 48, "isDrum": false}, {"time": 192, "velocity": 84, "pitch": 43, "instrument": 26, "track": 1, "qtime": 0, "isDrum": false}, {"time": 204, "velocity": 84, "pitch": 55, "instrument": 26, "track": 1, "qtime": 12, "isDrum": false}, {"time": 204, "velocity": 84, "pitch": 59, "instrument": 26, "track": 1, "qtime": 12, "isDrum": false}, {"time": 204, "velocity": 84, "pitch": 65, "instrument": 26, "track": 1, "qtime": 12, "isDrum": false}, {"time": 206, "velocity": 0, "pitch": 55, "instrument": 26, "track": 1, "qtime": 14, "isDrum": false}, {"time": 206, "velocity": 0, "pitch": 59, "instrument": 26, "track": 1, "qtime": 14, "isDrum": false}, {"time": 206, "velocity": 0, "pitch": 65, "instrument": 26, "track": 1, "qtime": 14, "isDrum": false}, {"time": 210, "velocity": 84, "pitch": 55, "instrument": 26, "track": 1, "qtime": 18, "isDrum": false}, {"time": 210, "velocity": 84, "pitch": 59, "instrument": 26, "track": 1, "qtime": 18, "isDrum": false}, {"time": 210, "velocity": 84, "pitch": 65, "instrument": 26, "track": 1, "qtime": 18, "isDrum": false}, {"time": 220, "velocity": 0, "pitch": 65, "instrument": 26, "track": 1, "qtime": 28, "isDrum": false}, {"time": 221, "velocity": 0, "pitch": 55, "instrument": 26, "track": 1, "qtime": 29, "isDrum": false}, {"time": 221, "velocity": 0, "pitch": 59, "instrument": 26, "track": 1, "qtime": 29, "isDrum": false}, {"time": 222, "velocity": 84, "pitch": 55, "instrument": 26, "track": 1, "qtime": 30, "isDrum": false}, {"time": 222, "velocity": 84, "pitch": 59, "instrument": 26, "track": 1, "qtime": 30, "isDrum": false}, {"time": 222, "velocity": 84, "pitch": 65, "instrument": 26, "track": 1, "qtime": 30, "isDrum": false}, {"time": 239, "velocity": 0, "pitch": 43, "instrument": 26, "track": 1, "qtime": 47, "isDrum": false}, {"time": 240, "velocity": 0, "pitch": 55, "instrument": 26, "track": 1, "qtime": 48, "isDrum": false}, {"time": 240, "velocity": 0, "pitch": 59, "instrument": 26, "track": 1, "qtime": 48, "isDrum": false}, {"time": 240, "velocity": 0, "pitch": 65, "instrument": 26, "track": 1, "qtime": 48, "isDrum": false}, {"time": 240, "velocity": 84, "pitch": 36, "instrument": 26, "track": 1, "qtime": 0, "isDrum": false}, {"time": 252, "velocity": 84, "pitch": 48, "instrument": 26, "track": 1, "qtime": 12, "isDrum": false}, {"time": 252, "velocity": 84, "pitch": 52, "instrument": 26, "track": 1, "qtime": 12, "isDrum": false}, {"time": 252, "velocity": 84, "pitch": 55, "instrument": 26, "track": 1, "qtime": 12, "isDrum": false}, {"time": 256, "velocity": 0, "pitch": 36, "instrument": 26, "track": 1, "qtime": 16, "isDrum": false}, {"time": 258, "velocity": 84, "pitch": 36, "instrument": 26, "track": 1, "qtime": 18, "isDrum": false}, {"time": 269, "velocity": 0, "pitch": 55, "instrument": 26, "track": 1, "qtime": 29, "isDrum": false}, {"time": 270, "velocity": 84, "pitch": 55, "instrument": 26, "track": 1, "qtime": 30, "isDrum": false}, {"time": 270, "velocity": 84, "pitch": 60, "instrument": 26, "track": 1, "qtime": 30, "isDrum": false}, {"time": 276, "velocity": 0, "pitch": 48, "instrument": 26, "track": 1, "qtime": 36, "isDrum": false}, {"time": 279, "velocity": 0, "pitch": 55, "instrument": 26, "track": 1, "qtime": 39, "isDrum": false}, {"time": 281, "velocity": 0, "pitch": 52, "instrument": 26, "track": 1, "qtime": 41, "isDrum": false}, {"time": 282, "velocity": 84, "pitch": 52, "instrument": 26, "track": 1, "qtime": 42, "isDrum": false}, {"time": 282, "velocity": 84, "pitch": 55, "instrument": 26, "track": 1, "qtime": 42, "isDrum": false}, {"time": 285, "velocity": 0, "pitch": 36, "instrument": 26, "track": 1, "qtime": 45, "isDrum": false}, {"time": 288, "velocity": 84, "pitch": 36, "instrument": 26, "track": 1, "qtime": 0, "isDrum": false}, {"time": 298, "velocity": 0, "pitch": 55, "instrument": 26, "track": 1, "qtime": 10, "isDrum": false}, {"time": 298, "velocity": 0, "pitch": 60, "instrument": 26, "track": 1, "qtime": 10, "isDrum": false}, {"time": 299, "velocity": 0, "pitch": 52, "instrument": 26, "track": 1, "qtime": 11, "isDrum": false}, {"time": 300, "velocity": 84, "pitch": 52, "instrument": 26, "track": 1, "qtime": 12, "isDrum": false}, {"time": 300, "velocity": 84, "pitch": 55, "instrument": 26, "track": 1, "qtime": 12, "isDrum": false}, {"time": 300, "velocity": 84, "pitch": 60, "instrument": 26, "track": 1, "qtime": 12, "isDrum": false}, {"time": 312, "velocity": 0, "pitch": 36, "instrument": 26, "track": 1, "qtime": 24, "isDrum": false}, {"time": 312, "velocity": 84, "pitch": 43, "instrument": 26, "track": 1, "qtime": 24, "isDrum": false}, {"time": 320, "velocity": 0, "pitch": 55, "instrument": 26, "track": 1, "qtime": 32, "isDrum": false}, {"time": 324, "velocity": 84, "pitch": 55, "instrument": 26, "track": 1, "qtime": 36, "isDrum": false}, {"time": 335, "velocity": 0, "pitch": 52, "instrument": 26, "track": 1, "qtime": 47, "isDrum": false}, {"time": 335, "velocity": 0, "pitch": 55, "instrument": 26, "track": 1, "qtime": 47, "isDrum": false}, {"time": 335, "velocity": 0, "pitch": 60, "instrument": 26, "track": 1, "qtime": 47, "isDrum": false}, {"time": 336, "velocity": 0, "pitch": 43, "instrument": 26, "track": 1, "qtime": 48, "isDrum": false}, {"time": 336, "velocity": 84, "pitch": 36, "instrument": 26, "track": 1, "qtime": 0, "isDrum": false}, {"time": 348, "velocity": 84, "pitch": 48, "instrument": 26, "track": 1, "qtime": 12, "isDrum": false}, {"time": 348, "velocity": 84, "pitch": 52, "instrument": 26, "track": 1, "qtime": 12, "isDrum": false}, {"time": 348, "velocity": 84, "pitch": 55, "instrument": 26, "track": 1, "qtime": 12, "isDrum": false}, {"time": 351, "velocity": 0, "pitch": 36, "instrument": 26, "track": 1, "qtime": 15, "isDrum": false}, {"time": 360, "velocity": 0, "pitch": 48, "instrument": 26, "track": 1, "qtime": 24, "isDrum": false}, {"time": 360, "velocity": 0, "pitch": 52, "instrument": 26, "track": 1, "qtime": 24, "isDrum": false}, {"time": 360, "velocity": 0, "pitch": 55, "instrument": 26, "track": 1, "qtime": 24, "isDrum": false}, {"time": 360, "velocity": 84, "pitch": 38, "instrument": 26, "track": 1, "qtime": 24, "isDrum": false}, {"time": 372, "velocity": 84, "pitch": 50, "instrument": 26, "track": 1, "qtime": 36, "isDrum": false}, {"time": 372, "velocity": 84, "pitch": 53, "instrument": 26, "track": 1, "qtime": 36, "isDrum": false}, {"time": 372, "velocity": 84, "pitch": 57, "instrument": 26, "track": 1, "qtime": 36, "isDrum": false}, {"time": 384, "velocity": 0, "pitch": 38, "instrument": 26, "track": 1, "qtime": 48, "isDrum": false}, {"time": 384, "velocity": 0, "pitch": 50, "instrument": 26, "track": 1, "qtime": 48, "isDrum": false}, {"time": 384, "velocity": 0, "pitch": 53, "instrument": 26, "track": 1, "qtime": 48, "isDrum": false}, {"time": 384, "velocity": 0, "pitch": 57, "instrument": 26, "track": 1, "qtime": 48, "isDrum": false}, {"time": 0, "velocity": 108, "pitch": 28, "instrument": 32, "track": 2, "qtime": 0, "isDrum": false}, {"time": 24, "velocity": 0, "pitch": 28, "instrument": 32, "track": 2, "qtime": 24, "isDrum": false}, {"time": 24, "velocity": 108, "pitch": 26, "instrument": 32, "track": 2, "qtime": 24, "isDrum": false}, {"time": 48, "velocity": 0, "pitch": 26, "instrument": 32, "track": 2, "qtime": 48, "isDrum": false}, {"time": 48, "velocity": 108, "pitch": 31, "instrument": 32, "track": 2, "qtime": 0, "isDrum": false}, {"time": 72, "velocity": 108, "pitch": 38, "instrument": 32, "track": 2, "qtime": 24, "isDrum": false}, {"time": 73, "velocity": 0, "pitch": 31, "instrument": 32, "track": 2, "qtime": 25, "isDrum": false}, {"time": 96, "velocity": 108, "pitch": 24, "instrument": 32, "track": 2, "qtime": 0, "isDrum": false}, {"time": 99, "velocity": 0, "pitch": 38, "instrument": 32, "track": 2, "qtime": 3, "isDrum": false}, {"time": 108, "velocity": 0, "pitch": 24, "instrument": 32, "track": 2, "qtime": 12, "isDrum": false}, {"time": 108, "velocity": 108, "pitch": 31, "instrument": 32, "track": 2, "qtime": 12, "isDrum": false}, {"time": 120, "velocity": 0, "pitch": 31, "instrument": 32, "track": 2, "qtime": 24, "isDrum": false}, {"time": 120, "velocity": 108, "pitch": 31, "instrument": 32, "track": 2, "qtime": 24, "isDrum": false}, {"time": 126, "velocity": 108, "pitch": 38, "instrument": 32, "track": 2, "qtime": 30, "isDrum": false}, {"time": 128, "velocity": 0, "pitch": 31, "instrument": 32, "track": 2, "qtime": 32, "isDrum": false}, {"time": 132, "velocity": 108, "pitch": 40, "instrument": 32, "track": 2, "qtime": 36, "isDrum": false}, {"time": 135, "velocity": 0, "pitch": 38, "instrument": 32, "track": 2, "qtime": 39, "isDrum": false}, {"time": 144, "velocity": 0, "pitch": 40, "instrument": 32, "track": 2, "qtime": 48, "isDrum": false}, {"time": 144, "velocity": 108, "pitch": 24, "instrument": 32, "track": 2, "qtime": 0, "isDrum": false}, {"time": 161, "velocity": 0, "pitch": 24, "instrument": 32, "track": 2, "qtime": 17, "isDrum": false}, {"time": 162, "velocity": 108, "pitch": 24, "instrument": 32, "track": 2, "qtime": 18, "isDrum": false}, {"time": 168, "velocity": 0, "pitch": 24, "instrument": 32, "track": 2, "qtime": 24, "isDrum": false}, {"time": 168, "velocity": 108, "pitch": 26, "instrument": 32, "track": 2, "qtime": 24, "isDrum": false}, {"time": 185, "velocity": 0, "pitch": 26, "instrument": 32, "track": 2, "qtime": 41, "isDrum": false}, {"time": 186, "velocity": 108, "pitch": 26, "instrument": 32, "track": 2, "qtime": 42, "isDrum": false}, {"time": 192, "velocity": 0, "pitch": 26, "instrument": 32, "track": 2, "qtime": 48, "isDrum": false}, {"time": 192, "velocity": 108, "pitch": 31, "instrument": 32, "track": 2, "qtime": 0, "isDrum": false}, {"time": 209, "velocity": 0, "pitch": 31, "instrument": 32, "track": 2, "qtime": 17, "isDrum": false}, {"time": 210, "velocity": 108, "pitch": 31, "instrument": 32, "track": 2, "qtime": 18, "isDrum": false}, {"time": 216, "velocity": 0, "pitch": 31, "instrument": 32, "track": 2, "qtime": 24, "isDrum": false}, {"time": 217, "velocity": 108, "pitch": 38, "instrument": 32, "track": 2, "qtime": 25, "isDrum": false}, {"time": 228, "velocity": 0, "pitch": 38, "instrument": 32, "track": 2, "qtime": 36, "isDrum": false}, {"time": 228, "velocity": 108, "pitch": 31, "instrument": 32, "track": 2, "qtime": 36, "isDrum": false}, {"time": 240, "velocity": 0, "pitch": 31, "instrument": 32, "track": 2, "qtime": 48, "isDrum": false}, {"time": 240, "velocity": 108, "pitch": 24, "instrument": 32, "track": 2, "qtime": 0, "isDrum": false}, {"time": 257, "velocity": 0, "pitch": 24, "instrument": 32, "track": 2, "qtime": 17, "isDrum": false}, {"time": 258, "velocity": 108, "pitch": 24, "instrument": 32, "track": 2, "qtime": 18, "isDrum": false}, {"time": 264, "velocity": 0, "pitch": 24, "instrument": 32, "track": 2, "qtime": 24, "isDrum": false}, {"time": 264, "velocity": 108, "pitch": 31, "instrument": 32, "track": 2, "qtime": 24, "isDrum": false}, {"time": 281, "velocity": 0, "pitch": 31, "instrument": 32, "track": 2, "qtime": 41, "isDrum": false}, {"time": 282, "velocity": 108, "pitch": 31, "instrument": 32, "track": 2, "qtime": 42, "isDrum": false}, {"time": 288, "velocity": 0, "pitch": 31, "instrument": 32, "track": 2, "qtime": 48, "isDrum": false}, {"time": 288, "velocity": 108, "pitch": 36, "instrument": 32, "track": 2, "qtime": 0, "isDrum": false}, {"time": 312, "velocity": 0, "pitch": 36, "instrument": 32, "track": 2, "qtime": 24, "isDrum": false}, {"time": 312, "velocity": 108, "pitch": 31, "instrument": 32, "track": 2, "qtime": 24, "isDrum": false}, {"time": 332, "velocity": 0, "pitch": 31, "instrument": 32, "track": 2, "qtime": 44, "isDrum": false}, {"time": 333, "velocity": 108, "pitch": 31, "instrument": 32, "track": 2, "qtime": 45, "isDrum": false}, {"time": 336, "velocity": 0, "pitch": 31, "instrument": 32, "track": 2, "qtime": 48, "isDrum": false}, {"time": 336, "velocity": 108, "pitch": 24, "instrument": 32, "track": 2, "qtime": 0, "isDrum": false}, {"time": 353, "velocity": 0, "pitch": 24, "instrument": 32, "track": 2, "qtime": 17, "isDrum": false}, {"time": 354, "velocity": 108, "pitch": 24, "instrument": 32, "track": 2, "qtime": 18, "isDrum": false}, {"time": 360, "velocity": 0, "pitch": 24, "instrument": 32, "track": 2, "qtime": 24, "isDrum": false}, {"time": 360, "velocity": 108, "pitch": 26, "instrument": 32, "track": 2, "qtime": 24, "isDrum": false}, {"time": 377, "velocity": 0, "pitch": 26, "instrument": 32, "track": 2, "qtime": 41, "isDrum": false}, {"time": 378, "velocity": 108, "pitch": 26, "instrument": 32, "track": 2, "qtime": 42, "isDrum": false}, {"time": 384, "velocity": 0, "pitch": 26, "instrument": 32, "track": 2, "qtime": 48, "isDrum": false}, {"time": 0, "velocity": 108, "pitch": 55, "instrument": 3, "track": 3, "qtime": 0, "isDrum": false}, {"time": 0, "velocity": 108, "pitch": 60, "instrument": 3, "track": 3, "qtime": 0, "isDrum": false}, {"time": 0, "velocity": 108, "pitch": 64, "instrument": 3, "track": 3, "qtime": 0, "isDrum": false}, {"time": 15, "velocity": 0, "pitch": 55, "instrument": 3, "track": 3, "qtime": 15, "isDrum": false}, {"time": 15, "velocity": 0, "pitch": 60, "instrument": 3, "track": 3, "qtime": 15, "isDrum": false}, {"time": 15, "velocity": 0, "pitch": 64, "instrument": 3, "track": 3, "qtime": 15, "isDrum": false}, {"time": 18, "velocity": 108, "pitch": 55, "instrument": 3, "track": 3, "qtime": 18, "isDrum": false}, {"time": 18, "velocity": 108, "pitch": 60, "instrument": 3, "track": 3, "qtime": 18, "isDrum": false}, {"time": 18, "velocity": 108, "pitch": 64, "instrument": 3, "track": 3, "qtime": 18, "isDrum": false}, {"time": 22, "velocity": 0, "pitch": 55, "instrument": 3, "track": 3, "qtime": 22, "isDrum": false}, {"time": 22, "velocity": 0, "pitch": 60, "instrument": 3, "track": 3, "qtime": 22, "isDrum": false}, {"time": 22, "velocity": 0, "pitch": 64, "instrument": 3, "track": 3, "qtime": 22, "isDrum": false}, {"time": 24, "velocity": 108, "pitch": 55, "instrument": 3, "track": 3, "qtime": 24, "isDrum": false}, {"time": 24, "velocity": 108, "pitch": 59, "instrument": 3, "track": 3, "qtime": 24, "isDrum": false}, {"time": 24, "velocity": 108, "pitch": 62, "instrument": 3, "track": 3, "qtime": 24, "isDrum": false}, {"time": 39, "velocity": 0, "pitch": 55, "instrument": 3, "track": 3, "qtime": 39, "isDrum": false}, {"time": 39, "velocity": 0, "pitch": 59, "instrument": 3, "track": 3, "qtime": 39, "isDrum": false}, {"time": 39, "velocity": 0, "pitch": 62, "instrument": 3, "track": 3, "qtime": 39, "isDrum": false}, {"time": 42, "velocity": 108, "pitch": 54, "instrument": 3, "track": 3, "qtime": 42, "isDrum": false}, {"time": 42, "velocity": 108, "pitch": 59, "instrument": 3, "track": 3, "qtime": 42, "isDrum": false}, {"time": 42, "velocity": 108, "pitch": 62, "instrument": 3, "track": 3, "qtime": 42, "isDrum": false}, {"time": 46, "velocity": 0, "pitch": 54, "instrument": 3, "track": 3, "qtime": 46, "isDrum": false}, {"time": 46, "velocity": 0, "pitch": 59, "instrument": 3, "track": 3, "qtime": 46, "isDrum": false}, {"time": 46, "velocity": 0, "pitch": 62, "instrument": 3, "track": 3, "qtime": 46, "isDrum": false}, {"time": 48, "velocity": 108, "pitch": 59, "instrument": 3, "track": 3, "qtime": 0, "isDrum": false}, {"time": 48, "velocity": 108, "pitch": 62, "instrument": 3, "track": 3, "qtime": 0, "isDrum": false}, {"time": 48, "velocity": 108, "pitch": 65, "instrument": 3, "track": 3, "qtime": 0, "isDrum": false}, {"time": 48, "velocity": 108, "pitch": 67, "instrument": 3, "track": 3, "qtime": 0, "isDrum": false}, {"time": 63, "velocity": 0, "pitch": 59, "instrument": 3, "track": 3, "qtime": 15, "isDrum": false}, {"time": 63, "velocity": 0, "pitch": 62, "instrument": 3, "track": 3, "qtime": 15, "isDrum": false}, {"time": 63, "velocity": 0, "pitch": 65, "instrument": 3, "track": 3, "qtime": 15, "isDrum": false}, {"time": 63, "velocity": 0, "pitch": 67, "instrument": 3, "track": 3, "qtime": 15, "isDrum": false}, {"time": 66, "velocity": 108, "pitch": 59, "instrument": 3, "track": 3, "qtime": 18, "isDrum": false}, {"time": 66, "velocity": 108, "pitch": 62, "instrument": 3, "track": 3, "qtime": 18, "isDrum": false}, {"time": 66, "velocity": 108, "pitch": 65, "instrument": 3, "track": 3, "qtime": 18, "isDrum": false}, {"time": 66, "velocity": 108, "pitch": 67, "instrument": 3, "track": 3, "qtime": 18, "isDrum": false}, {"time": 70, "velocity": 0, "pitch": 59, "instrument": 3, "track": 3, "qtime": 22, "isDrum": false}, {"time": 70, "velocity": 0, "pitch": 62, "instrument": 3, "track": 3, "qtime": 22, "isDrum": false}, {"time": 70, "velocity": 0, "pitch": 65, "instrument": 3, "track": 3, "qtime": 22, "isDrum": false}, {"time": 70, "velocity": 0, "pitch": 67, "instrument": 3, "track": 3, "qtime": 22, "isDrum": false}, {"time": 72, "velocity": 108, "pitch": 59, "instrument": 3, "track": 3, "qtime": 24, "isDrum": false}, {"time": 72, "velocity": 108, "pitch": 62, "instrument": 3, "track": 3, "qtime": 24, "isDrum": false}, {"time": 72, "velocity": 108, "pitch": 65, "instrument": 3, "track": 3, "qtime": 24, "isDrum": false}, {"time": 72, "velocity": 108, "pitch": 67, "instrument": 3, "track": 3, "qtime": 24, "isDrum": false}, {"time": 84, "velocity": 0, "pitch": 59, "instrument": 3, "track": 3, "qtime": 36, "isDrum": false}, {"time": 84, "velocity": 0, "pitch": 62, "instrument": 3, "track": 3, "qtime": 36, "isDrum": false}, {"time": 84, "velocity": 0, "pitch": 65, "instrument": 3, "track": 3, "qtime": 36, "isDrum": false}, {"time": 84, "velocity": 0, "pitch": 67, "instrument": 3, "track": 3, "qtime": 36, "isDrum": false}, {"time": 84, "velocity": 108, "pitch": 59, "instrument": 3, "track": 3, "qtime": 36, "isDrum": false}, {"time": 84, "velocity": 108, "pitch": 62, "instrument": 3, "track": 3, "qtime": 36, "isDrum": false}, {"time": 84, "velocity": 108, "pitch": 65, "instrument": 3, "track": 3, "qtime": 36, "isDrum": false}, {"time": 84, "velocity": 108, "pitch": 67, "instrument": 3, "track": 3, "qtime": 36, "isDrum": false}, {"time": 96, "velocity": 0, "pitch": 59, "instrument": 3, "track": 3, "qtime": 48, "isDrum": false}, {"time": 96, "velocity": 0, "pitch": 62, "instrument": 3, "track": 3, "qtime": 48, "isDrum": false}, {"time": 96, "velocity": 0, "pitch": 65, "instrument": 3, "track": 3, "qtime": 48, "isDrum": false}, {"time": 96, "velocity": 0, "pitch": 67, "instrument": 3, "track": 3, "qtime": 48, "isDrum": false}, {"time": 96, "velocity": 108, "pitch": 55, "instrument": 3, "track": 3, "qtime": 0, "isDrum": false}, {"time": 96, "velocity": 108, "pitch": 60, "instrument": 3, "track": 3, "qtime": 0, "isDrum": false}, {"time": 96, "velocity": 108, "pitch": 64, "instrument": 3, "track": 3, "qtime": 0, "isDrum": false}, {"time": 108, "velocity": 0, "pitch": 55, "instrument": 3, "track": 3, "qtime": 12, "isDrum": false}, {"time": 108, "velocity": 0, "pitch": 60, "instrument": 3, "track": 3, "qtime": 12, "isDrum": false}, {"time": 108, "velocity": 0, "pitch": 64, "instrument": 3, "track": 3, "qtime": 12, "isDrum": false}, {"time": 108, "velocity": 108, "pitch": 55, "instrument": 3, "track": 3, "qtime": 12, "isDrum": false}, {"time": 108, "velocity": 108, "pitch": 60, "instrument": 3, "track": 3, "qtime": 12, "isDrum": false}, {"time": 108, "velocity": 108, "pitch": 64, "instrument": 3, "track": 3, "qtime": 12, "isDrum": false}, {"time": 120, "velocity": 0, "pitch": 55, "instrument": 3, "track": 3, "qtime": 24, "isDrum": false}, {"time": 120, "velocity": 0, "pitch": 60, "instrument": 3, "track": 3, "qtime": 24, "isDrum": false}, {"time": 120, "velocity": 0, "pitch": 64, "instrument": 3, "track": 3, "qtime": 24, "isDrum": false}, {"time": 120, "velocity": 108, "pitch": 59, "instrument": 3, "track": 3, "qtime": 24, "isDrum": false}, {"time": 120, "velocity": 108, "pitch": 62, "instrument": 3, "track": 3, "qtime": 24, "isDrum": false}, {"time": 120, "velocity": 108, "pitch": 65, "instrument": 3, "track": 3, "qtime": 24, "isDrum": false}, {"time": 120, "velocity": 108, "pitch": 67, "instrument": 3, "track": 3, "qtime": 24, "isDrum": false}, {"time": 135, "velocity": 0, "pitch": 59, "instrument": 3, "track": 3, "qtime": 39, "isDrum": false}, {"time": 135, "velocity": 0, "pitch": 62, "instrument": 3, "track": 3, "qtime": 39, "isDrum": false}, {"time": 135, "velocity": 0, "pitch": 65, "instrument": 3, "track": 3, "qtime": 39, "isDrum": false}, {"time": 135, "velocity": 0, "pitch": 67, "instrument": 3, "track": 3, "qtime": 39, "isDrum": false}, {"time": 138, "velocity": 108, "pitch": 59, "instrument": 3, "track": 3, "qtime": 42, "isDrum": false}, {"time": 138, "velocity": 108, "pitch": 62, "instrument": 3, "track": 3, "qtime": 42, "isDrum": false}, {"time": 138, "velocity": 108, "pitch": 65, "instrument": 3, "track": 3, "qtime": 42, "isDrum": false}, {"time": 138, "velocity": 108, "pitch": 67, "instrument": 3, "track": 3, "qtime": 42, "isDrum": false}, {"time": 142, "velocity": 0, "pitch": 59, "instrument": 3, "track": 3, "qtime": 46, "isDrum": false}, {"time": 142, "velocity": 0, "pitch": 62, "instrument": 3, "track": 3, "qtime": 46, "isDrum": false}, {"time": 142, "velocity": 0, "pitch": 65, "instrument": 3, "track": 3, "qtime": 46, "isDrum": false}, {"time": 142, "velocity": 0, "pitch": 67, "instrument": 3, "track": 3, "qtime": 46, "isDrum": false}, {"time": 144, "velocity": 108, "pitch": 55, "instrument": 3, "track": 3, "qtime": 0, "isDrum": false}, {"time": 144, "velocity": 108, "pitch": 60, "instrument": 3, "track": 3, "qtime": 0, "isDrum": false}, {"time": 144, "velocity": 108, "pitch": 64, "instrument": 3, "track": 3, "qtime": 0, "isDrum": false}, {"time": 159, "velocity": 0, "pitch": 55, "instrument": 3, "track": 3, "qtime": 15, "isDrum": false}, {"time": 159, "velocity": 0, "pitch": 60, "instrument": 3, "track": 3, "qtime": 15, "isDrum": false}, {"time": 159, "velocity": 0, "pitch": 64, "instrument": 3, "track": 3, "qtime": 15, "isDrum": false}, {"time": 162, "velocity": 108, "pitch": 55, "instrument": 3, "track": 3, "qtime": 18, "isDrum": false}, {"time": 162, "velocity": 108, "pitch": 60, "instrument": 3, "track": 3, "qtime": 18, "isDrum": false}, {"time": 162, "velocity": 108, "pitch": 64, "instrument": 3, "track": 3, "qtime": 18, "isDrum": false}, {"time": 166, "velocity": 0, "pitch": 55, "instrument": 3, "track": 3, "qtime": 22, "isDrum": false}, {"time": 166, "velocity": 0, "pitch": 60, "instrument": 3, "track": 3, "qtime": 22, "isDrum": false}, {"time": 166, "velocity": 0, "pitch": 64, "instrument": 3, "track": 3, "qtime": 22, "isDrum": false}, {"time": 168, "velocity": 108, "pitch": 53, "instrument": 3, "track": 3, "qtime": 24, "isDrum": false}, {"time": 168, "velocity": 108, "pitch": 57, "instrument": 3, "track": 3, "qtime": 24, "isDrum": false}, {"time": 168, "velocity": 108, "pitch": 62, "instrument": 3, "track": 3, "qtime": 24, "isDrum": false}, {"time": 183, "velocity": 0, "pitch": 53, "instrument": 3, "track": 3, "qtime": 39, "isDrum": false}, {"time": 183, "velocity": 0, "pitch": 57, "instrument": 3, "track": 3, "qtime": 39, "isDrum": false}, {"time": 183, "velocity": 0, "pitch": 62, "instrument": 3, "track": 3, "qtime": 39, "isDrum": false}, {"time": 186, "velocity": 108, "pitch": 53, "instrument": 3, "track": 3, "qtime": 42, "isDrum": false}, {"time": 186, "velocity": 108, "pitch": 57, "instrument": 3, "track": 3, "qtime": 42, "isDrum": false}, {"time": 186, "velocity": 108, "pitch": 62, "instrument": 3, "track": 3, "qtime": 42, "isDrum": false}, {"time": 190, "velocity": 0, "pitch": 53, "instrument": 3, "track": 3, "qtime": 46, "isDrum": false}, {"time": 190, "velocity": 0, "pitch": 57, "instrument": 3, "track": 3, "qtime": 46, "isDrum": false}, {"time": 190, "velocity": 0, "pitch": 62, "instrument": 3, "track": 3, "qtime": 46, "isDrum": false}, {"time": 192, "velocity": 108, "pitch": 59, "instrument": 3, "track": 3, "qtime": 0, "isDrum": false}, {"time": 192, "velocity": 108, "pitch": 62, "instrument": 3, "track": 3, "qtime": 0, "isDrum": false}, {"time": 192, "velocity": 108, "pitch": 65, "instrument": 3, "track": 3, "qtime": 0, "isDrum": false}, {"time": 192, "velocity": 108, "pitch": 67, "instrument": 3, "track": 3, "qtime": 0, "isDrum": false}, {"time": 207, "velocity": 0, "pitch": 59, "instrument": 3, "track": 3, "qtime": 15, "isDrum": false}, {"time": 207, "velocity": 0, "pitch": 62, "instrument": 3, "track": 3, "qtime": 15, "isDrum": false}, {"time": 207, "velocity": 0, "pitch": 65, "instrument": 3, "track": 3, "qtime": 15, "isDrum": false}, {"time": 207, "velocity": 0, "pitch": 67, "instrument": 3, "track": 3, "qtime": 15, "isDrum": false}, {"time": 210, "velocity": 108, "pitch": 59, "instrument": 3, "track": 3, "qtime": 18, "isDrum": false}, {"time": 210, "velocity": 108, "pitch": 62, "instrument": 3, "track": 3, "qtime": 18, "isDrum": false}, {"time": 210, "velocity": 108, "pitch": 65, "instrument": 3, "track": 3, "qtime": 18, "isDrum": false}, {"time": 210, "velocity": 108, "pitch": 67, "instrument": 3, "track": 3, "qtime": 18, "isDrum": false}, {"time": 214, "velocity": 0, "pitch": 59, "instrument": 3, "track": 3, "qtime": 22, "isDrum": false}, {"time": 214, "velocity": 0, "pitch": 62, "instrument": 3, "track": 3, "qtime": 22, "isDrum": false}, {"time": 214, "velocity": 0, "pitch": 65, "instrument": 3, "track": 3, "qtime": 22, "isDrum": false}, {"time": 214, "velocity": 0, "pitch": 67, "instrument": 3, "track": 3, "qtime": 22, "isDrum": false}, {"time": 216, "velocity": 108, "pitch": 59, "instrument": 3, "track": 3, "qtime": 24, "isDrum": false}, {"time": 216, "velocity": 108, "pitch": 62, "instrument": 3, "track": 3, "qtime": 24, "isDrum": false}, {"time": 216, "velocity": 108, "pitch": 65, "instrument": 3, "track": 3, "qtime": 24, "isDrum": false}, {"time": 216, "velocity": 108, "pitch": 67, "instrument": 3, "track": 3, "qtime": 24, "isDrum": false}, {"time": 228, "velocity": 0, "pitch": 59, "instrument": 3, "track": 3, "qtime": 36, "isDrum": false}, {"time": 228, "velocity": 0, "pitch": 62, "instrument": 3, "track": 3, "qtime": 36, "isDrum": false}, {"time": 228, "velocity": 0, "pitch": 65, "instrument": 3, "track": 3, "qtime": 36, "isDrum": false}, {"time": 228, "velocity": 0, "pitch": 67, "instrument": 3, "track": 3, "qtime": 36, "isDrum": false}, {"time": 228, "velocity": 108, "pitch": 59, "instrument": 3, "track": 3, "qtime": 36, "isDrum": false}, {"time": 228, "velocity": 108, "pitch": 62, "instrument": 3, "track": 3, "qtime": 36, "isDrum": false}, {"time": 228, "velocity": 108, "pitch": 65, "instrument": 3, "track": 3, "qtime": 36, "isDrum": false}, {"time": 228, "velocity": 108, "pitch": 67, "instrument": 3, "track": 3, "qtime": 36, "isDrum": false}, {"time": 240, "velocity": 0, "pitch": 59, "instrument": 3, "track": 3, "qtime": 48, "isDrum": false}, {"time": 240, "velocity": 0, "pitch": 62, "instrument": 3, "track": 3, "qtime": 48, "isDrum": false}, {"time": 240, "velocity": 0, "pitch": 65, "instrument": 3, "track": 3, "qtime": 48, "isDrum": false}, {"time": 240, "velocity": 0, "pitch": 67, "instrument": 3, "track": 3, "qtime": 48, "isDrum": false}, {"time": 240, "velocity": 108, "pitch": 55, "instrument": 3, "track": 3, "qtime": 0, "isDrum": false}, {"time": 240, "velocity": 108, "pitch": 60, "instrument": 3, "track": 3, "qtime": 0, "isDrum": false}, {"time": 240, "velocity": 108, "pitch": 64, "instrument": 3, "track": 3, "qtime": 0, "isDrum": false}, {"time": 255, "velocity": 0, "pitch": 55, "instrument": 3, "track": 3, "qtime": 15, "isDrum": false}, {"time": 255, "velocity": 0, "pitch": 60, "instrument": 3, "track": 3, "qtime": 15, "isDrum": false}, {"time": 255, "velocity": 0, "pitch": 64, "instrument": 3, "track": 3, "qtime": 15, "isDrum": false}, {"time": 258, "velocity": 108, "pitch": 55, "instrument": 3, "track": 3, "qtime": 18, "isDrum": false}, {"time": 258, "velocity": 108, "pitch": 60, "instrument": 3, "track": 3, "qtime": 18, "isDrum": false}, {"time": 258, "velocity": 108, "pitch": 64, "instrument": 3, "track": 3, "qtime": 18, "isDrum": false}, {"time": 262, "velocity": 0, "pitch": 55, "instrument": 3, "track": 3, "qtime": 22, "isDrum": false}, {"time": 262, "velocity": 0, "pitch": 60, "instrument": 3, "track": 3, "qtime": 22, "isDrum": false}, {"time": 262, "velocity": 0, "pitch": 64, "instrument": 3, "track": 3, "qtime": 22, "isDrum": false}, {"time": 264, "velocity": 108, "pitch": 55, "instrument": 3, "track": 3, "qtime": 24, "isDrum": false}, {"time": 264, "velocity": 108, "pitch": 60, "instrument": 3, "track": 3, "qtime": 24, "isDrum": false}, {"time": 264, "velocity": 108, "pitch": 64, "instrument": 3, "track": 3, "qtime": 24, "isDrum": false}, {"time": 279, "velocity": 0, "pitch": 55, "instrument": 3, "track": 3, "qtime": 39, "isDrum": false}, {"time": 279, "velocity": 0, "pitch": 60, "instrument": 3, "track": 3, "qtime": 39, "isDrum": false}, {"time": 279, "velocity": 0, "pitch": 64, "instrument": 3, "track": 3, "qtime": 39, "isDrum": false}, {"time": 282, "velocity": 108, "pitch": 55, "instrument": 3, "track": 3, "qtime": 42, "isDrum": false}, {"time": 282, "velocity": 108, "pitch": 60, "instrument": 3, "track": 3, "qtime": 42, "isDrum": false}, {"time": 282, "velocity": 108, "pitch": 64, "instrument": 3, "track": 3, "qtime": 42, "isDrum": false}, {"time": 286, "velocity": 0, "pitch": 55, "instrument": 3, "track": 3, "qtime": 46, "isDrum": false}, {"time": 286, "velocity": 0, "pitch": 60, "instrument": 3, "track": 3, "qtime": 46, "isDrum": false}, {"time": 286, "velocity": 0, "pitch": 64, "instrument": 3, "track": 3, "qtime": 46, "isDrum": false}, {"time": 288, "velocity": 108, "pitch": 55, "instrument": 3, "track": 3, "qtime": 0, "isDrum": false}, {"time": 288, "velocity": 108, "pitch": 60, "instrument": 3, "track": 3, "qtime": 0, "isDrum": false}, {"time": 288, "velocity": 108, "pitch": 64, "instrument": 3, "track": 3, "qtime": 0, "isDrum": false}, {"time": 303, "velocity": 0, "pitch": 55, "instrument": 3, "track": 3, "qtime": 15, "isDrum": false}, {"time": 303, "velocity": 0, "pitch": 60, "instrument": 3, "track": 3, "qtime": 15, "isDrum": false}, {"time": 303, "velocity": 0, "pitch": 64, "instrument": 3, "track": 3, "qtime": 15, "isDrum": false}, {"time": 306, "velocity": 108, "pitch": 55, "instrument": 3, "track": 3, "qtime": 18, "isDrum": false}, {"time": 306, "velocity": 108, "pitch": 60, "instrument": 3, "track": 3, "qtime": 18, "isDrum": false}, {"time": 306, "velocity": 108, "pitch": 64, "instrument": 3, "track": 3, "qtime": 18, "isDrum": false}, {"time": 310, "velocity": 0, "pitch": 55, "instrument": 3, "track": 3, "qtime": 22, "isDrum": false}, {"time": 310, "velocity": 0, "pitch": 60, "instrument": 3, "track": 3, "qtime": 22, "isDrum": false}, {"time": 310, "velocity": 0, "pitch": 64, "instrument": 3, "track": 3, "qtime": 22, "isDrum": false}, {"time": 312, "velocity": 108, "pitch": 55, "instrument": 3, "track": 3, "qtime": 24, "isDrum": false}, {"time": 312, "velocity": 108, "pitch": 58, "instrument": 3, "track": 3, "qtime": 24, "isDrum": false}, {"time": 312, "velocity": 108, "pitch": 62, "instrument": 3, "track": 3, "qtime": 24, "isDrum": false}, {"time": 316, "velocity": 0, "pitch": 55, "instrument": 3, "track": 3, "qtime": 28, "isDrum": false}, {"time": 316, "velocity": 0, "pitch": 58, "instrument": 3, "track": 3, "qtime": 28, "isDrum": false}, {"time": 316, "velocity": 0, "pitch": 62, "instrument": 3, "track": 3, "qtime": 28, "isDrum": false}, {"time": 318, "velocity": 108, "pitch": 54, "instrument": 3, "track": 3, "qtime": 30, "isDrum": false}, {"time": 318, "velocity": 108, "pitch": 57, "instrument": 3, "track": 3, "qtime": 30, "isDrum": false}, {"time": 318, "velocity": 108, "pitch": 60, "instrument": 3, "track": 3, "qtime": 30, "isDrum": false}, {"time": 322, "velocity": 0, "pitch": 54, "instrument": 3, "track": 3, "qtime": 34, "isDrum": false}, {"time": 322, "velocity": 0, "pitch": 57, "instrument": 3, "track": 3, "qtime": 34, "isDrum": false}, {"time": 322, "velocity": 0, "pitch": 60, "instrument": 3, "track": 3, "qtime": 34, "isDrum": false}, {"time": 324, "velocity": 108, "pitch": 53, "instrument": 3, "track": 3, "qtime": 36, "isDrum": false}, {"time": 324, "velocity": 108, "pitch": 56, "instrument": 3, "track": 3, "qtime": 36, "isDrum": false}, {"time": 324, "velocity": 108, "pitch": 59, "instrument": 3, "track": 3, "qtime": 36, "isDrum": false}, {"time": 328, "velocity": 0, "pitch": 53, "instrument": 3, "track": 3, "qtime": 40, "isDrum": false}, {"time": 328, "velocity": 0, "pitch": 56, "instrument": 3, "track": 3, "qtime": 40, "isDrum": false}, {"time": 328, "velocity": 0, "pitch": 59, "instrument": 3, "track": 3, "qtime": 40, "isDrum": false}, {"time": 330, "velocity": 108, "pitch": 52, "instrument": 3, "track": 3, "qtime": 42, "isDrum": false}, {"time": 330, "velocity": 108, "pitch": 55, "instrument": 3, "track": 3, "qtime": 42, "isDrum": false}, {"time": 330, "velocity": 108, "pitch": 58, "instrument": 3, "track": 3, "qtime": 42, "isDrum": false}, {"time": 334, "velocity": 0, "pitch": 52, "instrument": 3, "track": 3, "qtime": 46, "isDrum": false}, {"time": 334, "velocity": 0, "pitch": 55, "instrument": 3, "track": 3, "qtime": 46, "isDrum": false}, {"time": 334, "velocity": 0, "pitch": 58, "instrument": 3, "track": 3, "qtime": 46, "isDrum": false}, {"time": 336, "velocity": 108, "pitch": 55, "instrument": 3, "track": 3, "qtime": 0, "isDrum": false}, {"time": 336, "velocity": 108, "pitch": 60, "instrument": 3, "track": 3, "qtime": 0, "isDrum": false}, {"time": 336, "velocity": 108, "pitch": 64, "instrument": 3, "track": 3, "qtime": 0, "isDrum": false}, {"time": 351, "velocity": 0, "pitch": 55, "instrument": 3, "track": 3, "qtime": 15, "isDrum": false}, {"time": 351, "velocity": 0, "pitch": 60, "instrument": 3, "track": 3, "qtime": 15, "isDrum": false}, {"time": 351, "velocity": 0, "pitch": 64, "instrument": 3, "track": 3, "qtime": 15, "isDrum": false}, {"time": 354, "velocity": 108, "pitch": 55, "instrument": 3, "track": 3, "qtime": 18, "isDrum": false}, {"time": 354, "velocity": 108, "pitch": 60, "instrument": 3, "track": 3, "qtime": 18, "isDrum": false}, {"time": 354, "velocity": 108, "pitch": 64, "instrument": 3, "track": 3, "qtime": 18, "isDrum": false}, {"time": 358, "velocity": 0, "pitch": 55, "instrument": 3, "track": 3, "qtime": 22, "isDrum": false}, {"time": 358, "velocity": 0, "pitch": 60, "instrument": 3, "track": 3, "qtime": 22, "isDrum": false}, {"time": 358, "velocity": 0, "pitch": 64, "instrument": 3, "track": 3, "qtime": 22, "isDrum": false}, {"time": 360, "velocity": 108, "pitch": 53, "instrument": 3, "track": 3, "qtime": 24, "isDrum": false}, {"time": 360, "velocity": 108, "pitch": 57, "instrument": 3, "track": 3, "qtime": 24, "isDrum": false}, {"time": 360, "velocity": 108, "pitch": 62, "instrument": 3, "track": 3, "qtime": 24, "isDrum": false}, {"time": 375, "velocity": 0, "pitch": 53, "instrument": 3, "track": 3, "qtime": 39, "isDrum": false}, {"time": 375, "velocity": 0, "pitch": 57, "instrument": 3, "track": 3, "qtime": 39, "isDrum": false}, {"time": 375, "velocity": 0, "pitch": 62, "instrument": 3, "track": 3, "qtime": 39, "isDrum": false}, {"time": 378, "velocity": 108, "pitch": 53, "instrument": 3, "track": 3, "qtime": 42, "isDrum": false}, {"time": 378, "velocity": 108, "pitch": 57, "instrument": 3, "track": 3, "qtime": 42, "isDrum": false}, {"time": 378, "velocity": 108, "pitch": 62, "instrument": 3, "track": 3, "qtime": 42, "isDrum": false}, {"time": 382, "velocity": 0, "pitch": 53, "instrument": 3, "track": 3, "qtime": 46, "isDrum": false}, {"time": 382, "velocity": 0, "pitch": 57, "instrument": 3, "track": 3, "qtime": 46, "isDrum": false}, {"time": 382, "velocity": 0, "pitch": 62, "instrument": 3, "track": 3, "qtime": 46, "isDrum": false}], "resolution": 12, "tempo": 120, "minPitch": 24, "maxPitch": 71, "validSegments": [0], "validTracks": [15]}, "audio": "https://www.sfu.ca/~jeffe/examples/8b_uncond_5.mp3"}, {"src": "gen/uncond_0.json", "highlights": [[], [], [], [], [], [], [], []], "caption": "", "sample_id": "2a", "mixer": [8, 8, 8, 8, 8, 8, 8, 8], "json": {"tracks": [{"bars": [{"events": [0, 1, 2, 3, 4, 5, 6, 7, 8, 9, 10, 11, 12, 13, 14, 15, 16], "isFourFour": true, "hasNotes": true, "time": 0}, {"events": [17, 18, 19, 20, 21, 22, 23, 24, 25, 26, 27, 28, 29, 30, 31, 32, 33, 34, 35], "isFourFour": true, "hasNotes": true, "time": 48}, {"events": [36, 37, 38, 39, 40, 41, 42, 43, 44, 45, 46, 47, 48, 49, 50, 51, 52, 53], "isFourFour": true, "hasNotes": true, "time": 96}, {"events": [54, 55, 56, 57, 58, 59, 60, 61, 62, 63, 64, 65, 66, 67], "isFourFour": true, "hasNotes": true, "time": 144}], "isDrum": false, "minPitch": 41, "maxPitch": 74, "instrument": 0, "avPolyphony": 1.35483873, "noteDensity": 9, "noteDensityV2": 6}, {"bars": [{"events": [68, 69, 70, 71, 72, 73, 74, 75, 76, 77, 78, 79, 80, 81, 82, 83], "isFourFour": true, "hasNotes": true, "time": 0}, {"events": [84, 85, 86, 87, 88, 89, 90, 91, 92, 93, 94, 95, 96, 97, 98, 99, 100, 101], "isFourFour": true, "hasNotes": true, "time": 48}, {"events": [102, 103, 104, 105, 106, 107, 108, 109, 110, 111, 112, 113, 114, 115, 116, 117, 118, 119], "isFourFour": true, "hasNotes": true, "time": 96}, {"events": [120, 121, 122, 123, 124, 125, 126, 127, 128, 129, 130, 131, 132, 133, 134, 135, 136, 137], "isFourFour": true, "hasNotes": true, "time": 144}], "isDrum": true, "minPitch": 47, "maxPitch": 70, "instrument": 0, "avPolyphony": 1.45833337, "noteDensity": 9, "noteDensityV2": 4}, {"bars": [{"events": [138, 139, 140, 141, 142, 143, 144, 145, 146, 147, 148, 149, 150, 151, 152, 153, 154, 155], "isFourFour": true, "hasNotes": true, "time": 0}, {"events": [156, 157, 158, 159, 160, 161, 162, 163, 164, 165], "isFourFour": true, "hasNotes": true, "time": 48}, {"events": [166, 167, 168, 169], "isFourFour": true, "hasNotes": true, "time": 96}, {"events": [170, 171, 172, 173, 174, 175, 176, 177, 178], "isFourFour": true, "hasNotes": true, "time": 144}], "isDrum": false, "minPitch": 62, "maxPitch": 86, "instrument": 0, "avPolyphony": 2.625, "noteDensity": 7, "noteDensityV2": 5}, {"bars": [{"events": [179, 180, 181, 182, 183, 184, 185, 186, 187, 188, 189, 190, 191, 192, 193, 194], "isFourFour": true, "hasNotes": true, "time": 0}, {"events": [195, 196, 197, 198, 199, 200, 201, 202], "isFourFour": true, "hasNotes": true, "time": 48}, {"events": [203, 204, 205, 206, 207, 208, 209, 210, 211, 212, 213, 214, 215, 216, 217, 218], "isFourFour": true, "hasNotes": true, "time": 96}, {"events": [219, 220, 221, 222, 223, 224, 225, 226, 227, 228, 229, 230, 231, 232, 233, 234], "isFourFour": true, "hasNotes": true, "time": 144}], "isDrum": false, "minPitch": 43, "maxPitch": 59, "instrument": 0, "avPolyphony": 1, "noteDensity": 8, "noteDensityV2": 5}], "events": [{"time": 0, "velocity": 108, "pitch": 41, "instrument": 0, "track": 0, "qtime": 0, "isDrum": false}, {"time": 6, "velocity": 0, "pitch": 41, "instrument": 0, "track": 0, "qtime": 6, "isDrum": false}, {"time": 6, "velocity": 108, "pitch": 50, "instrument": 0, "track": 0, "qtime": 6, "isDrum": false}, {"time": 12, "velocity": 0, "pitch": 50, "instrument": 0, "track": 0, "qtime": 12, "isDrum": false}, {"time": 12, "velocity": 0, "pitch": 57, "instrument": 0, "track": 0, "qtime": 12, "isDrum": false}, {"time": 12, "velocity": 0, "pitch": 62, "instrument": 0, "track": 0, "qtime": 12, "isDrum": false}, {"time": 12, "velocity": 108, "pitch": 53, "instrument": 0, "track": 0, "qtime": 12, "isDrum": false}, {"time": 18, "velocity": 0, "pitch": 53, "instrument": 0, "track": 0, "qtime": 18, "isDrum": false}, {"time": 18, "velocity": 108, "pitch": 57, "instrument": 0, "track": 0, "qtime": 18, "isDrum": false}, {"time": 24, "velocity": 0, "pitch": 57, "instrument": 0, "track": 0, "qtime": 24, "isDrum": false}, {"time": 24, "velocity": 108, "pitch": 62, "instrument": 0, "track": 0, "qtime": 24, "isDrum": false}, {"time": 30, "velocity": 0, "pitch": 62, "instrument": 0, "track": 0, "qtime": 30, "isDrum": false}, {"time": 30, "velocity": 108, "pitch": 65, "instrument": 0, "track": 0, "qtime": 30, "isDrum": false}, {"time": 36, "velocity": 0, "pitch": 65, "instrument": 0, "track": 0, "qtime": 36, "isDrum": false}, {"time": 36, "velocity": 108, "pitch": 62, "instrument": 0, "track": 0, "qtime": 36, "isDrum": false}, {"time": 42, "velocity": 0, "pitch": 62, "instrument": 0, "track": 0, "qtime": 42, "isDrum": false}, {"time": 42, "velocity": 108, "pitch": 57, "instrument": 0, "track": 0, "qtime": 42, "isDrum": false}, {"time": 48, "velocity": 108, "pitch": 43, "instrument": 0, "track": 0, "qtime": 0, "isDrum": false}, {"time": 54, "velocity": 0, "pitch": 43, "instrument": 0, "track": 0, "qtime": 6, "isDrum": false}, {"time": 54, "velocity": 108, "pitch": 50, "instrument": 0, "track": 0, "qtime": 6, "isDrum": false}, {"time": 60, "velocity": 0, "pitch": 50, "instrument": 0, "track": 0, "qtime": 12, "isDrum": false}, {"time": 60, "velocity": 108, "pitch": 55, "instrument": 0, "track": 0, "qtime": 12, "isDrum": false}, {"time": 66, "velocity": 0, "pitch": 55, "instrument": 0, "track": 0, "qtime": 18, "isDrum": false}, {"time": 66, "velocity": 0, "pitch": 57, "instrument": 0, "track": 0, "qtime": 18, "isDrum": false}, {"time": 66, "velocity": 108, "pitch": 59, "instrument": 0, "track": 0, "qtime": 18, "isDrum": false}, {"time": 72, "velocity": 0, "pitch": 59, "instrument": 0, "track": 0, "qtime": 24, "isDrum": false}, {"time": 72, "velocity": 108, "pitch": 62, "instrument": 0, "track": 0, "qtime": 24, "isDrum": false}, {"time": 72, "velocity": 108, "pitch": 67, "instrument": 0, "track": 0, "qtime": 24, "isDrum": false}, {"time": 78, "velocity": 0, "pitch": 67, "instrument": 0, "track": 0, "qtime": 30, "isDrum": false}, {"time": 78, "velocity": 108, "pitch": 69, "instrument": 0, "track": 0, "qtime": 30, "isDrum": false}, {"time": 84, "velocity": 0, "pitch": 69, "instrument": 0, "track": 0, "qtime": 36, "isDrum": false}, {"time": 84, "velocity": 108, "pitch": 71, "instrument": 0, "track": 0, "qtime": 36, "isDrum": false}, {"time": 90, "velocity": 0, "pitch": 71, "instrument": 0, "track": 0, "qtime": 42, "isDrum": false}, {"time": 90, "velocity": 108, "pitch": 62, "instrument": 0, "track": 0, "qtime": 42, "isDrum": false}, {"time": 90, "velocity": 108, "pitch": 74, "instrument": 0, "track": 0, "qtime": 42, "isDrum": false}, {"time": 96, "velocity": 0, "pitch": 74, "instrument": 0, "track": 0, "qtime": 48, "isDrum": false}, {"time": 96, "velocity": 108, "pitch": 69, "instrument": 0, "track": 0, "qtime": 0, "isDrum": false}, {"time": 102, "velocity": 0, "pitch": 69, "instrument": 0, "track": 0, "qtime": 6, "isDrum": false}, {"time": 102, "velocity": 108, "pitch": 74, "instrument": 0, "track": 0, "qtime": 6, "isDrum": false}, {"time": 108, "velocity": 0, "pitch": 74, "instrument": 0, "track": 0, "qtime": 12, "isDrum": false}, {"time": 108, "velocity": 108, "pitch": 69, "instrument": 0, "track": 0, "qtime": 12, "isDrum": false}, {"time": 114, "velocity": 0, "pitch": 69, "instrument": 0, "track": 0, "qtime": 18, "isDrum": false}, {"time": 114, "velocity": 108, "pitch": 74, "instrument": 0, "track": 0, "qtime": 18, "isDrum": false}, {"time": 120, "velocity": 0, "pitch": 74, "instrument": 0, "track": 0, "qtime": 24, "isDrum": false}, {"time": 120, "velocity": 108, "pitch": 67, "instrument": 0, "track": 0, "qtime": 24, "isDrum": false}, {"time": 126, "velocity": 0, "pitch": 67, "instrument": 0, "track": 0, "qtime": 30, "isDrum": false}, {"time": 126, "velocity": 108, "pitch": 74, "instrument": 0, "track": 0, "qtime": 30, "isDrum": false}, {"time": 132, "velocity": 0, "pitch": 74, "instrument": 0, "track": 0, "qtime": 36, "isDrum": false}, {"time": 132, "velocity": 108, "pitch": 65, "instrument": 0, "track": 0, "qtime": 36, "isDrum": false}, {"time": 138, "velocity": 0, "pitch": 62, "instrument": 0, "track": 0, "qtime": 42, "isDrum": false}, {"time": 138, "velocity": 0, "pitch": 65, "instrument": 0, "track": 0, "qtime": 42, "isDrum": false}, {"time": 138, "velocity": 108, "pitch": 57, "instrument": 0, "track": 0, "qtime": 42, "isDrum": false}, {"time": 138, "velocity": 108, "pitch": 69, "instrument": 0, "track": 0, "qtime": 42, "isDrum": false}, {"time": 144, "velocity": 0, "pitch": 69, "instrument": 0, "track": 0, "qtime": 48, "isDrum": false}, {"time": 150, "velocity": 108, "pitch": 74, "instrument": 0, "track": 0, "qtime": 6, "isDrum": false}, {"time": 156, "velocity": 0, "pitch": 74, "instrument": 0, "track": 0, "qtime": 12, "isDrum": false}, {"time": 156, "velocity": 108, "pitch": 65, "instrument": 0, "track": 0, "qtime": 12, "isDrum": false}, {"time": 162, "velocity": 0, "pitch": 65, "instrument": 0, "track": 0, "qtime": 18, "isDrum": false}, {"time": 162, "velocity": 108, "pitch": 69, "instrument": 0, "track": 0, "qtime": 18, "isDrum": false}, {"time": 168, "velocity": 0, "pitch": 69, "instrument": 0, "track": 0, "qtime": 24, "isDrum": false}, {"time": 168, "velocity": 108, "pitch": 62, "instrument": 0, "track": 0, "qtime": 24, "isDrum": false}, {"time": 174, "velocity": 0, "pitch": 62, "instrument": 0, "track": 0, "qtime": 30, "isDrum": false}, {"time": 174, "velocity": 108, "pitch": 65, "instrument": 0, "track": 0, "qtime": 30, "isDrum": false}, {"time": 180, "velocity": 0, "pitch": 65, "instrument": 0, "track": 0, "qtime": 36, "isDrum": false}, {"time": 180, "velocity": 108, "pitch": 69, "instrument": 0, "track": 0, "qtime": 36, "isDrum": false}, {"time": 186, "velocity": 0, "pitch": 69, "instrument": 0, "track": 0, "qtime": 42, "isDrum": false}, {"time": 186, "velocity": 108, "pitch": 62, "instrument": 0, "track": 0, "qtime": 42, "isDrum": false}, {"time": 192, "velocity": 0, "pitch": 62, "instrument": 0, "track": 0, "qtime": 48, "isDrum": false}, {"time": 0, "velocity": 108, "pitch": 69, "instrument": 0, "track": 9, "qtime": 0, "isDrum": true}, {"time": 6, "velocity": 0, "pitch": 69, "instrument": 0, "track": 9, "qtime": 6, "isDrum": true}, {"time": 12, "velocity": 108, "pitch": 56, "instrument": 0, "track": 9, "qtime": 12, "isDrum": true}, {"time": 12, "velocity": 108, "pitch": 70, "instrument": 0, "track": 9, "qtime": 12, "isDrum": true}, {"time": 18, "velocity": 0, "pitch": 56, "instrument": 0, "track": 9, "qtime": 18, "isDrum": true}, {"time": 18, "velocity": 0, "pitch": 70, "instrument": 0, "track": 9, "qtime": 18, "isDrum": true}, {"time": 18, "velocity": 108, "pitch": 70, "instrument": 0, "track": 9, "qtime": 18, "isDrum": true}, {"time": 24, "velocity": 0, "pitch": 70, "instrument": 0, "track": 9, "qtime": 24, "isDrum": true}, {"time": 24, "velocity": 108, "pitch": 68, "instrument": 0, "track": 9, "qtime": 24, "isDrum": true}, {"time": 30, "velocity": 0, "pitch": 68, "instrument": 0, "track": 9, "qtime": 30, "isDrum": true}, {"time": 36, "velocity": 108, "pitch": 68, "instrument": 0, "track": 9, "qtime": 36, "isDrum": true}, {"time": 42, "velocity": 0, "pitch": 68, "instrument": 0, "track": 9, "qtime": 42, "isDrum": true}, {"time": 42, "velocity": 108, "pitch": 47, "instrument": 0, "track": 9, "qtime": 42, "isDrum": true}, {"time": 42, "velocity": 108, "pitch": 70, "instrument": 0, "track": 9, "qtime": 42, "isDrum": true}, {"time": 48, "velocity": 0, "pitch": 47, "instrument": 0, "track": 9, "qtime": 48, "isDrum": true}, {"time": 48, "velocity": 0, "pitch": 70, "instrument": 0, "track": 9, "qtime": 48, "isDrum": true}, {"time": 48, "velocity": 108, "pitch": 69, "instrument": 0, "track": 9, "qtime": 0, "isDrum": true}, {"time": 54, "velocity": 0, "pitch": 69, "instrument": 0, "track": 9, "qtime": 6, "isDrum": true}, {"time": 60, "velocity": 108, "pitch": 56, "instrument": 0, "track": 9, "qtime": 12, "isDrum": true}, {"time": 60, "velocity": 108, "pitch": 70, "instrument": 0, "track": 9, "qtime": 12, "isDrum": true}, {"time": 66, "velocity": 0, "pitch": 56, "instrument": 0, "track": 9, "qtime": 18, "isDrum": true}, {"time": 66, "velocity": 0, "pitch": 70, "instrument": 0, "track": 9, "qtime": 18, "isDrum": true}, {"time": 66, "velocity": 108, "pitch": 70, "instrument": 0, "track": 9, "qtime": 18, "isDrum": true}, {"time": 72, "velocity": 0, "pitch": 70, "instrument": 0, "track": 9, "qtime": 24, "isDrum": true}, {"time": 72, "velocity": 108, "pitch": 68, "instrument": 0, "track": 9, "qtime": 24, "isDrum": true}, {"time": 78, "velocity": 0, "pitch": 68, "instrument": 0, "track": 9, "qtime": 30, "isDrum": true}, {"time": 84, "velocity": 108, "pitch": 56, "instrument": 0, "track": 9, "qtime": 36, "isDrum": true}, {"time": 84, "velocity": 108, "pitch": 70, "instrument": 0, "track": 9, "qtime": 36, "isDrum": true}, {"time": 90, "velocity": 0, "pitch": 56, "instrument": 0, "track": 9, "qtime": 42, "isDrum": true}, {"time": 90, "velocity": 0, "pitch": 70, "instrument": 0, "track": 9, "qtime": 42, "isDrum": true}, {"time": 90, "velocity": 108, "pitch": 47, "instrument": 0, "track": 9, "qtime": 42, "isDrum": true}, {"time": 90, "velocity": 108, "pitch": 70, "instrument": 0, "track": 9, "qtime": 42, "isDrum": true}, {"time": 96, "velocity": 0, "pitch": 47, "instrument": 0, "track": 9, "qtime": 48, "isDrum": true}, {"time": 96, "velocity": 0, "pitch": 70, "instrument": 0, "track": 9, "qtime": 48, "isDrum": true}, {"time": 96, "velocity": 108, "pitch": 69, "instrument": 0, "track": 9, "qtime": 0, "isDrum": true}, {"time": 102, "velocity": 0, "pitch": 69, "instrument": 0, "track": 9, "qtime": 6, "isDrum": true}, {"time": 108, "velocity": 108, "pitch": 56, "instrument": 0, "track": 9, "qtime": 12, "isDrum": true}, {"time": 108, "velocity": 108, "pitch": 70, "instrument": 0, "track": 9, "qtime": 12, "isDrum": true}, {"time": 114, "velocity": 0, "pitch": 56, "instrument": 0, "track": 9, "qtime": 18, "isDrum": true}, {"time": 114, "velocity": 0, "pitch": 70, "instrument": 0, "track": 9, "qtime": 18, "isDrum": true}, {"time": 114, "velocity": 108, "pitch": 70, "instrument": 0, "track": 9, "qtime": 18, "isDrum": true}, {"time": 120, "velocity": 0, "pitch": 70, "instrument": 0, "track": 9, "qtime": 24, "isDrum": true}, {"time": 120, "velocity": 108, "pitch": 68, "instrument": 0, "track": 9, "qtime": 24, "isDrum": true}, {"time": 126, "velocity": 0, "pitch": 68, "instrument": 0, "track": 9, "qtime": 30, "isDrum": true}, {"time": 132, "velocity": 108, "pitch": 56, "instrument": 0, "track": 9, "qtime": 36, "isDrum": true}, {"time": 132, "velocity": 108, "pitch": 70, "instrument": 0, "track": 9, "qtime": 36, "isDrum": true}, {"time": 138, "velocity": 0, "pitch": 56, "instrument": 0, "track": 9, "qtime": 42, "isDrum": true}, {"time": 138, "velocity": 0, "pitch": 70, "instrument": 0, "track": 9, "qtime": 42, "isDrum": true}, {"time": 138, "velocity": 108, "pitch": 47, "instrument": 0, "track": 9, "qtime": 42, "isDrum": true}, {"time": 138, "velocity": 108, "pitch": 70, "instrument": 0, "track": 9, "qtime": 42, "isDrum": true}, {"time": 144, "velocity": 0, "pitch": 47, "instrument": 0, "track": 9, "qtime": 48, "isDrum": true}, {"time": 144, "velocity": 0, "pitch": 70, "instrument": 0, "track": 9, "qtime": 48, "isDrum": true}, {"time": 144, "velocity": 108, "pitch": 69, "instrument": 0, "track": 9, "qtime": 0, "isDrum": true}, {"time": 150, "velocity": 0, "pitch": 69, "instrument": 0, "track": 9, "qtime": 6, "isDrum": true}, {"time": 156, "velocity": 108, "pitch": 56, "instrument": 0, "track": 9, "qtime": 12, "isDrum": true}, {"time": 156, "velocity": 108, "pitch": 70, "instrument": 0, "track": 9, "qtime": 12, "isDrum": true}, {"time": 162, "velocity": 0, "pitch": 56, "instrument": 0, "track": 9, "qtime": 18, "isDrum": true}, {"time": 162, "velocity": 0, "pitch": 70, "instrument": 0, "track": 9, "qtime": 18, "isDrum": true}, {"time": 162, "velocity": 108, "pitch": 70, "instrument": 0, "track": 9, "qtime": 18, "isDrum": true}, {"time": 168, "velocity": 0, "pitch": 70, "instrument": 0, "track": 9, "qtime": 24, "isDrum": true}, {"time": 168, "velocity": 108, "pitch": 68, "instrument": 0, "track": 9, "qtime": 24, "isDrum": true}, {"time": 174, "velocity": 0, "pitch": 68, "instrument": 0, "track": 9, "qtime": 30, "isDrum": true}, {"time": 180, "velocity": 108, "pitch": 56, "instrument": 0, "track": 9, "qtime": 36, "isDrum": true}, {"time": 180, "velocity": 108, "pitch": 70, "instrument": 0, "track": 9, "qtime": 36, "isDrum": true}, {"time": 186, "velocity": 0, "pitch": 56, "instrument": 0, "track": 9, "qtime": 42, "isDrum": true}, {"time": 186, "velocity": 0, "pitch": 70, "instrument": 0, "track": 9, "qtime": 42, "isDrum": true}, {"time": 186, "velocity": 108, "pitch": 47, "instrument": 0, "track": 9, "qtime": 42, "isDrum": true}, {"time": 186, "velocity": 108, "pitch": 70, "instrument": 0, "track": 9, "qtime": 42, "isDrum": true}, {"time": 192, "velocity": 0, "pitch": 47, "instrument": 0, "track": 9, "qtime": 48, "isDrum": true}, {"time": 192, "velocity": 0, "pitch": 70, "instrument": 0, "track": 9, "qtime": 48, "isDrum": true}, {"time": 0, "velocity": 108, "pitch": 65, "instrument": 0, "track": 2, "qtime": 0, "isDrum": false}, {"time": 0, "velocity": 108, "pitch": 69, "instrument": 0, "track": 2, "qtime": 0, "isDrum": false}, {"time": 0, "velocity": 108, "pitch": 72, "instrument": 0, "track": 2, "qtime": 0, "isDrum": false}, {"time": 12, "velocity": 0, "pitch": 65, "instrument": 0, "track": 2, "qtime": 12, "isDrum": false}, {"time": 12, "velocity": 0, "pitch": 69, "instrument": 0, "track": 2, "qtime": 12, "isDrum": false}, {"time": 12, "velocity": 0, "pitch": 72, "instrument": 0, "track": 2, "qtime": 12, "isDrum": false}, {"time": 12, "velocity": 108, "pitch": 62, "instrument": 0, "track": 2, "qtime": 12, "isDrum": false}, {"time": 12, "velocity": 108, "pitch": 65, "instrument": 0, "track": 2, "qtime": 12, "isDrum": false}, {"time": 12, "velocity": 108, "pitch": 69, "instrument": 0, "track": 2, "qtime": 12, "isDrum": false}, {"time": 36, "velocity": 0, "pitch": 62, "instrument": 0, "track": 2, "qtime": 36, "isDrum": false}, {"time": 36, "velocity": 0, "pitch": 65, "instrument": 0, "track": 2, "qtime": 36, "isDrum": false}, {"time": 36, "velocity": 0, "pitch": 69, "instrument": 0, "track": 2, "qtime": 36, "isDrum": false}, {"time": 36, "velocity": 108, "pitch": 62, "instrument": 0, "track": 2, "qtime": 36, "isDrum": false}, {"time": 36, "velocity": 108, "pitch": 65, "instrument": 0, "track": 2, "qtime": 36, "isDrum": false}, {"time": 36, "velocity": 108, "pitch": 69, "instrument": 0, "track": 2, "qtime": 36, "isDrum": false}, {"time": 48, "velocity": 0, "pitch": 62, "instrument": 0, "track": 2, "qtime": 48, "isDrum": false}, {"time": 48, "velocity": 0, "pitch": 65, "instrument": 0, "track": 2, "qtime": 48, "isDrum": false}, {"time": 48, "velocity": 0, "pitch": 69, "instrument": 0, "track": 2, "qtime": 48, "isDrum": false}, {"time": 48, "velocity": 108, "pitch": 67, "instrument": 0, "track": 2, "qtime": 0, "isDrum": false}, {"time": 48, "velocity": 108, "pitch": 71, "instrument": 0, "track": 2, "qtime": 0, "isDrum": false}, {"time": 60, "velocity": 0, "pitch": 67, "instrument": 0, "track": 2, "qtime": 12, "isDrum": false}, {"time": 60, "velocity": 0, "pitch": 71, "instrument": 0, "track": 2, "qtime": 12, "isDrum": false}, {"time": 60, "velocity": 108, "pitch": 67, "instrument": 0, "track": 2, "qtime": 12, "isDrum": false}, {"time": 72, "velocity": 0, "pitch": 67, "instrument": 0, "track": 2, "qtime": 24, "isDrum": false}, {"time": 90, "velocity": 108, "pitch": 67, "instrument": 0, "track": 2, "qtime": 42, "isDrum": false}, {"time": 90, "velocity": 108, "pitch": 69, "instrument": 0, "track": 2, "qtime": 42, "isDrum": false}, {"time": 90, "velocity": 108, "pitch": 71, "instrument": 0, "track": 2, "qtime": 42, "isDrum": false}, {"time": 90, "velocity": 108, "pitch": 74, "instrument": 0, "track": 2, "qtime": 42, "isDrum": false}, {"time": 132, "velocity": 0, "pitch": 67, "instrument": 0, "track": 2, "qtime": 36, "isDrum": false}, {"time": 132, "velocity": 0, "pitch": 69, "instrument": 0, "track": 2, "qtime": 36, "isDrum": false}, {"time": 132, "velocity": 0, "pitch": 71, "instrument": 0, "track": 2, "qtime": 36, "isDrum": false}, {"time": 132, "velocity": 0, "pitch": 74, "instrument": 0, "track": 2, "qtime": 36, "isDrum": false}, {"time": 156, "velocity": 108, "pitch": 86, "instrument": 0, "track": 2, "qtime": 12, "isDrum": false}, {"time": 168, "velocity": 0, "pitch": 86, "instrument": 0, "track": 2, "qtime": 24, "isDrum": false}, {"time": 168, "velocity": 108, "pitch": 84, "instrument": 0, "track": 2, "qtime": 24, "isDrum": false}, {"time": 174, "velocity": 0, "pitch": 84, "instrument": 0, "track": 2, "qtime": 30, "isDrum": false}, {"time": 174, "velocity": 108, "pitch": 81, "instrument": 0, "track": 2, "qtime": 30, "isDrum": false}, {"time": 186, "velocity": 0, "pitch": 81, "instrument": 0, "track": 2, "qtime": 42, "isDrum": false}, {"time": 186, "velocity": 108, "pitch": 65, "instrument": 0, "track": 2, "qtime": 42, "isDrum": false}, {"time": 186, "velocity": 108, "pitch": 69, "instrument": 0, "track": 2, "qtime": 42, "isDrum": false}, {"time": 186, "velocity": 108, "pitch": 72, "instrument": 0, "track": 2, "qtime": 42, "isDrum": false}, {"time": 0, "velocity": 108, "pitch": 50, "instrument": 0, "track": 3, "qtime": 0, "isDrum": false}, {"time": 6, "velocity": 0, "pitch": 50, "instrument": 0, "track": 3, "qtime": 6, "isDrum": false}, {"time": 6, "velocity": 108, "pitch": 45, "instrument": 0, "track": 3, "qtime": 6, "isDrum": false}, {"time": 12, "velocity": 0, "pitch": 45, "instrument": 0, "track": 3, "qtime": 12, "isDrum": false}, {"time": 12, "velocity": 108, "pitch": 50, "instrument": 0, "track": 3, "qtime": 12, "isDrum": false}, {"time": 18, "velocity": 0, "pitch": 50, "instrument": 0, "track": 3, "qtime": 18, "isDrum": false}, {"time": 18, "velocity": 108, "pitch": 53, "instrument": 0, "track": 3, "qtime": 18, "isDrum": false}, {"time": 24, "velocity": 0, "pitch": 53, "instrument": 0, "track": 3, "qtime": 24, "isDrum": false}, {"time": 24, "velocity": 108, "pitch": 52, "instrument": 0, "track": 3, "qtime": 24, "isDrum": false}, {"time": 30, "velocity": 0, "pitch": 52, "instrument": 0, "track": 3, "qtime": 30, "isDrum": false}, {"time": 30, "velocity": 108, "pitch": 50, "instrument": 0, "track": 3, "qtime": 30, "isDrum": false}, {"time": 36, "velocity": 0, "pitch": 50, "instrument": 0, "track": 3, "qtime": 36, "isDrum": false}, {"time": 36, "velocity": 108, "pitch": 45, "instrument": 0, "track": 3, "qtime": 36, "isDrum": false}, {"time": 42, "velocity": 0, "pitch": 45, "instrument": 0, "track": 3, "qtime": 42, "isDrum": false}, {"time": 42, "velocity": 108, "pitch": 50, "instrument": 0, "track": 3, "qtime": 42, "isDrum": false}, {"time": 48, "velocity": 0, "pitch": 50, "instrument": 0, "track": 3, "qtime": 48, "isDrum": false}, {"time": 48, "velocity": 108, "pitch": 43, "instrument": 0, "track": 3, "qtime": 0, "isDrum": false}, {"time": 54, "velocity": 0, "pitch": 43, "instrument": 0, "track": 3, "qtime": 6, "isDrum": false}, {"time": 54, "velocity": 108, "pitch": 50, "instrument": 0, "track": 3, "qtime": 6, "isDrum": false}, {"time": 60, "velocity": 0, "pitch": 50, "instrument": 0, "track": 3, "qtime": 12, "isDrum": false}, {"time": 60, "velocity": 108, "pitch": 55, "instrument": 0, "track": 3, "qtime": 12, "isDrum": false}, {"time": 66, "velocity": 0, "pitch": 55, "instrument": 0, "track": 3, "qtime": 18, "isDrum": false}, {"time": 66, "velocity": 108, "pitch": 59, "instrument": 0, "track": 3, "qtime": 18, "isDrum": false}, {"time": 72, "velocity": 0, "pitch": 59, "instrument": 0, "track": 3, "qtime": 24, "isDrum": false}, {"time": 96, "velocity": 108, "pitch": 45, "instrument": 0, "track": 3, "qtime": 0, "isDrum": false}, {"time": 102, "velocity": 0, "pitch": 45, "instrument": 0, "track": 3, "qtime": 6, "isDrum": false}, {"time": 102, "velocity": 108, "pitch": 50, "instrument": 0, "track": 3, "qtime": 6, "isDrum": false}, {"time": 108, "velocity": 0, "pitch": 50, "instrument": 0, "track": 3, "qtime": 12, "isDrum": false}, {"time": 108, "velocity": 108, "pitch": 57, "instrument": 0, "track": 3, "qtime": 12, "isDrum": false}, {"time": 114, "velocity": 0, "pitch": 57, "instrument": 0, "track": 3, "qtime": 18, "isDrum": false}, {"time": 114, "velocity": 108, "pitch": 55, "instrument": 0, "track": 3, "qtime": 18, "isDrum": false}, {"time": 120, "velocity": 0, "pitch": 55, "instrument": 0, "track": 3, "qtime": 24, "isDrum": false}, {"time": 120, "velocity": 108, "pitch": 53, "instrument": 0, "track": 3, "qtime": 24, "isDrum": false}, {"time": 126, "velocity": 0, "pitch": 53, "instrument": 0, "track": 3, "qtime": 30, "isDrum": false}, {"time": 126, "velocity": 108, "pitch": 50, "instrument": 0, "track": 3, "qtime": 30, "isDrum": false}, {"time": 132, "velocity": 0, "pitch": 50, "instrument": 0, "track": 3, "qtime": 36, "isDrum": false}, {"time": 132, "velocity": 108, "pitch": 45, "instrument": 0, "track": 3, "qtime": 36, "isDrum": false}, {"time": 138, "velocity": 0, "pitch": 45, "instrument": 0, "track": 3, "qtime": 42, "isDrum": false}, {"time": 138, "velocity": 108, "pitch": 50, "instrument": 0, "track": 3, "qtime": 42, "isDrum": false}, {"time": 144, "velocity": 0, "pitch": 50, "instrument": 0, "track": 3, "qtime": 48, "isDrum": false}, {"time": 144, "velocity": 108, "pitch": 50, "instrument": 0, "track": 3, "qtime": 0, "isDrum": false}, {"time": 150, "velocity": 0, "pitch": 50, "instrument": 0, "track": 3, "qtime": 6, "isDrum": false}, {"time": 150, "velocity": 108, "pitch": 45, "instrument": 0, "track": 3, "qtime": 6, "isDrum": false}, {"time": 156, "velocity": 0, "pitch": 45, "instrument": 0, "track": 3, "qtime": 12, "isDrum": false}, {"time": 156, "velocity": 108, "pitch": 50, "instrument": 0, "track": 3, "qtime": 12, "isDrum": false}, {"time": 162, "velocity": 0, "pitch": 50, "instrument": 0, "track": 3, "qtime": 18, "isDrum": false}, {"time": 162, "velocity": 108, "pitch": 53, "instrument": 0, "track": 3, "qtime": 18, "isDrum": false}, {"time": 168, "velocity": 0, "pitch": 53, "instrument": 0, "track": 3, "qtime": 24, "isDrum": false}, {"time": 168, "velocity": 108, "pitch": 52, "instrument": 0, "track": 3, "qtime": 24, "isDrum": false}, {"time": 174, "velocity": 0, "pitch": 52, "instrument": 0, "track": 3, "qtime": 30, "isDrum": false}, {"time": 174, "velocity": 108, "pitch": 50, "instrument": 0, "track": 3, "qtime": 30, "isDrum": false}, {"time": 180, "velocity": 0, "pitch": 50, "instrument": 0, "track": 3, "qtime": 36, "isDrum": false}, {"time": 180, "velocity": 108, "pitch": 45, "instrument": 0, "track": 3, "qtime": 36, "isDrum": false}, {"time": 186, "velocity": 0, "pitch": 45, "instrument": 0, "track": 3, "qtime": 42, "isDrum": false}, {"time": 186, "velocity": 108, "pitch": 50, "instrument": 0, "track": 3, "qtime": 42, "isDrum": false}, {"time": 192, "velocity": 0, "pitch": 50, "instrument": 0, "track": 3, "qtime": 48, "isDrum": false}], "resolution": 12, "tempo": 120, "minPitch": 41, "maxPitch": 86, "validSegments": [0], "validTracks": [15]}, "audio": "https://www.sfu.ca/~jeffe/examples/uncond_0.mp3"}, {"src": "gen/8b_uncond_1.json", "highlights": [[], [], [], [], [], [], [], []], "caption": "", "sample_id": "3a", "mixer": [8, 8, 8, 8, 8, 8, 8, 8], "json": {"tracks": [{"bars": [{"events": [0, 1, 2, 3, 4, 5, 6, 7, 8, 9], "isFourFour": true, "hasNotes": true, "time": 0}, {"events": [10, 11, 12, 13, 14, 15, 16, 17, 18, 19, 20, 21, 22, 23, 24, 25, 26, 27, 28, 29, 30, 31], "isFourFour": true, "hasNotes": true, "time": 48}, {"events": [32, 33, 34, 35, 36, 37, 38, 39, 40, 41, 42, 43, 44, 45, 46, 47, 48, 49, 50, 51], "isFourFour": true, "hasNotes": true, "time": 96}, {"events": [52, 53, 54, 55, 56, 57, 58, 59, 60, 61, 62, 63, 64, 65, 66, 67, 68, 69], "isFourFour": true, "hasNotes": true, "time": 144}, {"events": [70, 71, 72, 73, 74, 75, 76, 77, 78, 79, 80, 81, 82, 83, 84, 85, 86, 87, 88, 89, 90, 91, 92, 93], "isFourFour": true, "hasNotes": true, "time": 192}, {"events": [94, 95, 96, 97, 98, 99, 100, 101, 102, 103, 104, 105, 106, 107, 108, 109, 110, 111, 112, 113, 114, 115, 116, 117], "isFourFour": true, "hasNotes": true, "time": 240}, {"events": [118, 119, 120, 121, 122, 123, 124, 125], "isFourFour": true, "hasNotes": true, "time": 288}, {"events": [126, 127, 128, 129, 130, 131, 132, 133, 134, 135, 136, 137, 138, 139, 140, 141, 142, 143, 144, 145, 146, 147, 148, 149], "isFourFour": true, "hasNotes": true, "time": 336}], "isDrum": false, "minPitch": 51, "maxPitch": 78, "instrument": 4, "avPolyphony": 3.68804669, "noteDensity": 9, "noteDensityV2": 6}, {"bars": [{"events": [150, 151, 152, 153, 154, 155, 156, 157, 158, 159, 160, 161, 162, 163, 164, 165, 166, 167, 168, 169], "isFourFour": true, "hasNotes": true, "time": 0}, {"events": [170, 171, 172, 173, 174, 175, 176, 177, 178, 179, 180, 181, 182, 183, 184, 185, 186, 187, 188, 189], "isFourFour": true, "hasNotes": true, "time": 48}, {"events": [190, 191, 192, 193, 194, 195, 196, 197, 198, 199, 200, 201, 202, 203, 204, 205, 206, 207, 208, 209], "isFourFour": true, "hasNotes": true, "time": 96}, {"events": [210, 211, 212, 213, 214, 215, 216, 217, 218, 219, 220, 221, 222, 223, 224, 225, 226, 227, 228, 229], "isFourFour": true, "hasNotes": true, "time": 144}, {"events": [230, 231, 232, 233, 234, 235, 236, 237, 238, 239, 240, 241, 242, 243, 244, 245, 246, 247, 248, 249, 250, 251, 252, 253, 254, 255, 256, 257, 258, 259, 260, 261, 262, 263, 264, 265, 266, 267], "isFourFour": true, "hasNotes": true, "time": 192}, {"events": [268, 269, 270, 271, 272, 273, 274, 275, 276, 277, 278, 279, 280, 281, 282, 283, 284, 285, 286, 287, 288, 289, 290, 291, 292, 293], "isFourFour": true, "hasNotes": true, "time": 240}, {"events": [294, 295, 296, 297, 298, 299, 300, 301, 302, 303, 304, 305, 306, 307, 308, 309, 310, 311, 312, 313, 314, 315, 316, 317, 318, 319, 320, 321, 322, 323], "isFourFour": true, "hasNotes": true, "time": 288}, {"events": [324, 325, 326, 327, 328, 329, 330, 331, 332, 333, 334, 335, 336, 337, 338, 339, 340, 341, 342, 343, 344, 345], "isFourFour": true, "hasNotes": true, "time": 336}], "isDrum": false, "minPitch": 34, "maxPitch": 76, "instrument": 25, "avPolyphony": 3.19565225, "noteDensity": 9, "noteDensityV2": 5}, {"bars": [{"events": [346, 347, 348, 349, 350, 351, 352, 353, 354, 355, 356, 357, 358, 359, 360, 361, 362, 363, 364, 365, 366, 367, 368, 369, 370, 371, 372, 373, 374, 375, 376, 377, 378, 379, 380, 381, 382, 383, 384, 385, 386, 387, 388, 389, 390, 391, 392, 393, 394, 395, 396, 397, 398, 399, 400, 401, 402, 403], "isFourFour": true, "hasNotes": true, "time": 0}, {"events": [404, 405, 406, 407, 408, 409, 410, 411, 412, 413, 414, 415, 416, 417, 418, 419, 420, 421, 422, 423, 424, 425, 426, 427, 428, 429, 430, 431, 432, 433, 434, 435, 436, 437, 438, 439, 440, 441, 442, 443, 444, 445, 446, 447, 448, 449, 450, 451, 452, 453, 454, 455, 456, 457, 458, 459, 460, 461], "isFourFour": true, "hasNotes": true, "time": 48}, {"events": [462, 463, 464, 465, 466, 467, 468, 469, 470, 471, 472, 473, 474, 475, 476, 477, 478, 479, 480, 481, 482, 483, 484, 485, 486, 487, 488, 489, 490, 491, 492, 493, 494, 495, 496, 497, 498, 499, 500, 501, 502, 503, 504, 505, 506, 507, 508, 509, 510, 511, 512, 513, 514, 515, 516, 517, 518, 519], "isFourFour": true, "hasNotes": true, "time": 96}, {"events": [520, 521, 522, 523, 524, 525, 526, 527, 528, 529, 530, 531, 532, 533, 534, 535, 536, 537, 538, 539, 540, 541, 542, 543, 544, 545, 546, 547, 548, 549, 550, 551, 552, 553, 554, 555, 556, 557, 558, 559, 560, 561, 562, 563, 564, 565, 566, 567, 568, 569, 570, 571, 572, 573, 574, 575, 576, 577, 578, 579, 580, 581], "isFourFour": true, "hasNotes": true, "time": 144}, {"events": [582, 583, 584, 585, 586, 587, 588, 589, 590, 591, 592, 593, 594, 595, 596, 597, 598, 599, 600, 601, 602, 603, 604, 605, 606, 607, 608, 609, 610, 611, 612, 613, 614, 615, 616, 617, 618, 619, 620, 621, 622, 623, 624, 625, 626, 627, 628, 629, 630, 631, 632, 633, 634, 635, 636, 637, 638, 639, 640, 641], "isFourFour": true, "hasNotes": true, "time": 192}, {"events": [642, 643, 644, 645, 646, 647, 648, 649, 650, 651, 652, 653, 654, 655, 656, 657, 658, 659, 660, 661, 662, 663, 664, 665, 666, 667, 668, 669, 670, 671, 672, 673, 674, 675, 676, 677, 678, 679, 680, 681, 682, 683, 684, 685, 686, 687, 688, 689, 690, 691, 692, 693, 694, 695, 696, 697, 698, 699], "isFourFour": true, "hasNotes": true, "time": 240}, {"events": [700, 701, 702, 703, 704, 705, 706, 707, 708, 709, 710, 711, 712, 713, 714, 715, 716, 717, 718, 719, 720, 721, 722, 723, 724, 725, 726, 727, 728, 729, 730, 731, 732, 733, 734, 735, 736, 737, 738, 739, 740, 741, 742, 743, 744, 745, 746, 747, 748, 749, 750, 751, 752, 753, 754, 755], "isFourFour": true, "hasNotes": true, "time": 288}, {"events": [756, 757, 758, 759, 760, 761, 762, 763, 764, 765, 766, 767, 768, 769, 770, 771, 772, 773, 774, 775, 776, 777, 778, 779, 780, 781, 782, 783, 784, 785, 786, 787, 788, 789, 790, 791, 792, 793, 794, 795, 796, 797, 798, 799, 800, 801, 802, 803, 804, 805, 806, 807, 808, 809, 810, 811, 812, 813], "isFourFour": true, "hasNotes": true, "time": 336}], "isDrum": true, "minPitch": 35, "maxPitch": 70, "instrument": 0, "avPolyphony": 1.84251964, "noteDensity": 9, "noteDensityV2": 9}, {"bars": [{"events": [814, 815, 816, 817], "isFourFour": true, "hasNotes": true, "time": 0}, {"events": [818, 819, 820, 821, 822, 823, 824, 825, 826, 827, 828, 829], "isFourFour": true, "hasNotes": true, "time": 48}, {"events": [830, 831, 832, 833, 834, 835, 836, 837, 838, 839, 840, 841, 842], "isFourFour": true, "hasNotes": true, "time": 96}, {"events": [843, 844, 845, 846, 847, 848, 849, 850, 851, 852, 853, 854, 855, 856, 857], "isFourFour": true, "hasNotes": true, "time": 144}, {"events": [858, 859, 860, 861, 862, 863, 864, 865], "isFourFour": true, "hasNotes": true, "time": 192}, {"events": [866, 867, 868, 869, 870, 871, 872, 873], "isFourFour": true, "hasNotes": true, "time": 240}, {"events": [874, 875, 876, 877, 878, 879], "isFourFour": true, "hasNotes": true, "time": 288}, {"events": [880, 881, 882, 883, 884, 885, 886, 887, 888, 889, 890, 891], "isFourFour": true, "hasNotes": true, "time": 336}], "isDrum": false, "minPitch": 58, "maxPitch": 76, "instrument": 65, "avPolyphony": 1.01246107, "noteDensity": 9, "noteDensityV2": 5}], "events": [{"time": 0, "velocity": 108, "pitch": 56, "instrument": 4, "track": 0, "qtime": 0, "isDrum": false}, {"time": 0, "velocity": 108, "pitch": 59, "instrument": 4, "track": 0, "qtime": 0, "isDrum": false}, {"time": 0, "velocity": 108, "pitch": 63, "instrument": 4, "track": 0, "qtime": 0, "isDrum": false}, {"time": 0, "velocity": 108, "pitch": 66, "instrument": 4, "track": 0, "qtime": 0, "isDrum": false}, {"time": 33, "velocity": 0, "pitch": 59, "instrument": 4, "track": 0, "qtime": 33, "isDrum": false}, {"time": 36, "velocity": 108, "pitch": 59, "instrument": 4, "track": 0, "qtime": 36, "isDrum": false}, {"time": 48, "velocity": 0, "pitch": 56, "instrument": 4, "track": 0, "qtime": 48, "isDrum": false}, {"time": 48, "velocity": 0, "pitch": 59, "instrument": 4, "track": 0, "qtime": 48, "isDrum": false}, {"time": 48, "velocity": 0, "pitch": 63, "instrument": 4, "track": 0, "qtime": 48, "isDrum": false}, {"time": 48, "velocity": 0, "pitch": 66, "instrument": 4, "track": 0, "qtime": 48, "isDrum": false}, {"time": 48, "velocity": 108, "pitch": 51, "instrument": 4, "track": 0, "qtime": 0, "isDrum": false}, {"time": 54, "velocity": 108, "pitch": 59, "instrument": 4, "track": 0, "qtime": 6, "isDrum": false}, {"time": 60, "velocity": 108, "pitch": 63, "instrument": 4, "track": 0, "qtime": 12, "isDrum": false}, {"time": 66, "velocity": 108, "pitch": 66, "instrument": 4, "track": 0, "qtime": 18, "isDrum": false}, {"time": 71, "velocity": 0, "pitch": 59, "instrument": 4, "track": 0, "qtime": 23, "isDrum": false}, {"time": 71, "velocity": 0, "pitch": 63, "instrument": 4, "track": 0, "qtime": 23, "isDrum": false}, {"time": 71, "velocity": 0, "pitch": 66, "instrument": 4, "track": 0, "qtime": 23, "isDrum": false}, {"time": 72, "velocity": 0, "pitch": 51, "instrument": 4, "track": 0, "qtime": 24, "isDrum": false}, {"time": 72, "velocity": 108, "pitch": 51, "instrument": 4, "track": 0, "qtime": 24, "isDrum": false}, {"time": 84, "velocity": 0, "pitch": 51, "instrument": 4, "track": 0, "qtime": 36, "isDrum": false}, {"time": 84, "velocity": 108, "pitch": 56, "instrument": 4, "track": 0, "qtime": 36, "isDrum": false}, {"time": 84, "velocity": 108, "pitch": 59, "instrument": 4, "track": 0, "qtime": 36, "isDrum": false}, {"time": 84, "velocity": 108, "pitch": 63, "instrument": 4, "track": 0, "qtime": 36, "isDrum": false}, {"time": 84, "velocity": 108, "pitch": 66, "instrument": 4, "track": 0, "qtime": 36, "isDrum": false}, {"time": 87, "velocity": 0, "pitch": 56, "instrument": 4, "track": 0, "qtime": 39, "isDrum": false}, {"time": 87, "velocity": 0, "pitch": 59, "instrument": 4, "track": 0, "qtime": 39, "isDrum": false}, {"time": 87, "velocity": 0, "pitch": 63, "instrument": 4, "track": 0, "qtime": 39, "isDrum": false}, {"time": 87, "velocity": 0, "pitch": 66, "instrument": 4, "track": 0, "qtime": 39, "isDrum": false}, {"time": 90, "velocity": 108, "pitch": 54, "instrument": 4, "track": 0, "qtime": 42, "isDrum": false}, {"time": 90, "velocity": 108, "pitch": 58, "instrument": 4, "track": 0, "qtime": 42, "isDrum": false}, {"time": 90, "velocity": 108, "pitch": 61, "instrument": 4, "track": 0, "qtime": 42, "isDrum": false}, {"time": 90, "velocity": 108, "pitch": 66, "instrument": 4, "track": 0, "qtime": 42, "isDrum": false}, {"time": 107, "velocity": 0, "pitch": 58, "instrument": 4, "track": 0, "qtime": 11, "isDrum": false}, {"time": 108, "velocity": 0, "pitch": 54, "instrument": 4, "track": 0, "qtime": 12, "isDrum": false}, {"time": 108, "velocity": 0, "pitch": 61, "instrument": 4, "track": 0, "qtime": 12, "isDrum": false}, {"time": 108, "velocity": 0, "pitch": 66, "instrument": 4, "track": 0, "qtime": 12, "isDrum": false}, {"time": 114, "velocity": 108, "pitch": 54, "instrument": 4, "track": 0, "qtime": 18, "isDrum": false}, {"time": 114, "velocity": 108, "pitch": 58, "instrument": 4, "track": 0, "qtime": 18, "isDrum": false}, {"time": 114, "velocity": 108, "pitch": 61, "instrument": 4, "track": 0, "qtime": 18, "isDrum": false}, {"time": 114, "velocity": 108, "pitch": 66, "instrument": 4, "track": 0, "qtime": 18, "isDrum": false}, {"time": 132, "velocity": 108, "pitch": 70, "instrument": 4, "track": 0, "qtime": 36, "isDrum": false}, {"time": 134, "velocity": 0, "pitch": 66, "instrument": 4, "track": 0, "qtime": 38, "isDrum": false}, {"time": 135, "velocity": 108, "pitch": 73, "instrument": 4, "track": 0, "qtime": 39, "isDrum": false}, {"time": 138, "velocity": 0, "pitch": 70, "instrument": 4, "track": 0, "qtime": 42, "isDrum": false}, {"time": 138, "velocity": 108, "pitch": 78, "instrument": 4, "track": 0, "qtime": 42, "isDrum": false}, {"time": 141, "velocity": 0, "pitch": 73, "instrument": 4, "track": 0, "qtime": 45, "isDrum": false}, {"time": 141, "velocity": 108, "pitch": 73, "instrument": 4, "track": 0, "qtime": 45, "isDrum": false}, {"time": 143, "velocity": 0, "pitch": 78, "instrument": 4, "track": 0, "qtime": 47, "isDrum": false}, {"time": 144, "velocity": 0, "pitch": 54, "instrument": 4, "track": 0, "qtime": 48, "isDrum": false}, {"time": 144, "velocity": 0, "pitch": 58, "instrument": 4, "track": 0, "qtime": 48, "isDrum": false}, {"time": 144, "velocity": 0, "pitch": 61, "instrument": 4, "track": 0, "qtime": 48, "isDrum": false}, {"time": 144, "velocity": 0, "pitch": 73, "instrument": 4, "track": 0, "qtime": 48, "isDrum": false}, {"time": 144, "velocity": 108, "pitch": 52, "instrument": 4, "track": 0, "qtime": 0, "isDrum": false}, {"time": 144, "velocity": 108, "pitch": 56, "instrument": 4, "track": 0, "qtime": 0, "isDrum": false}, {"time": 144, "velocity": 108, "pitch": 59, "instrument": 4, "track": 0, "qtime": 0, "isDrum": false}, {"time": 144, "velocity": 108, "pitch": 64, "instrument": 4, "track": 0, "qtime": 0, "isDrum": false}, {"time": 157, "velocity": 0, "pitch": 52, "instrument": 4, "track": 0, "qtime": 13, "isDrum": false}, {"time": 161, "velocity": 0, "pitch": 56, "instrument": 4, "track": 0, "qtime": 17, "isDrum": false}, {"time": 161, "velocity": 0, "pitch": 59, "instrument": 4, "track": 0, "qtime": 17, "isDrum": false}, {"time": 161, "velocity": 0, "pitch": 64, "instrument": 4, "track": 0, "qtime": 17, "isDrum": false}, {"time": 162, "velocity": 108, "pitch": 52, "instrument": 4, "track": 0, "qtime": 18, "isDrum": false}, {"time": 168, "velocity": 108, "pitch": 59, "instrument": 4, "track": 0, "qtime": 24, "isDrum": false}, {"time": 174, "velocity": 108, "pitch": 64, "instrument": 4, "track": 0, "qtime": 30, "isDrum": false}, {"time": 180, "velocity": 108, "pitch": 68, "instrument": 4, "track": 0, "qtime": 36, "isDrum": false}, {"time": 186, "velocity": 108, "pitch": 71, "instrument": 4, "track": 0, "qtime": 42, "isDrum": false}, {"time": 191, "velocity": 0, "pitch": 59, "instrument": 4, "track": 0, "qtime": 47, "isDrum": false}, {"time": 191, "velocity": 0, "pitch": 64, "instrument": 4, "track": 0, "qtime": 47, "isDrum": false}, {"time": 191, "velocity": 0, "pitch": 68, "instrument": 4, "track": 0, "qtime": 47, "isDrum": false}, {"time": 191, "velocity": 0, "pitch": 71, "instrument": 4, "track": 0, "qtime": 47, "isDrum": false}, {"time": 192, "velocity": 0, "pitch": 52, "instrument": 4, "track": 0, "qtime": 48, "isDrum": false}, {"time": 192, "velocity": 108, "pitch": 56, "instrument": 4, "track": 0, "qtime": 0, "isDrum": false}, {"time": 192, "velocity": 108, "pitch": 59, "instrument": 4, "track": 0, "qtime": 0, "isDrum": false}, {"time": 192, "velocity": 108, "pitch": 63, "instrument": 4, "track": 0, "qtime": 0, "isDrum": false}, {"time": 192, "velocity": 108, "pitch": 66, "instrument": 4, "track": 0, "qtime": 0, "isDrum": false}, {"time": 195, "velocity": 0, "pitch": 56, "instrument": 4, "track": 0, "qtime": 3, "isDrum": false}, {"time": 195, "velocity": 0, "pitch": 59, "instrument": 4, "track": 0, "qtime": 3, "isDrum": false}, {"time": 195, "velocity": 0, "pitch": 63, "instrument": 4, "track": 0, "qtime": 3, "isDrum": false}, {"time": 195, "velocity": 0, "pitch": 66, "instrument": 4, "track": 0, "qtime": 3, "isDrum": false}, {"time": 198, "velocity": 108, "pitch": 56, "instrument": 4, "track": 0, "qtime": 6, "isDrum": false}, {"time": 198, "velocity": 108, "pitch": 59, "instrument": 4, "track": 0, "qtime": 6, "isDrum": false}, {"time": 198, "velocity": 108, "pitch": 63, "instrument": 4, "track": 0, "qtime": 6, "isDrum": false}, {"time": 198, "velocity": 108, "pitch": 66, "instrument": 4, "track": 0, "qtime": 6, "isDrum": false}, {"time": 203, "velocity": 0, "pitch": 56, "instrument": 4, "track": 0, "qtime": 11, "isDrum": false}, {"time": 203, "velocity": 0, "pitch": 59, "instrument": 4, "track": 0, "qtime": 11, "isDrum": false}, {"time": 203, "velocity": 0, "pitch": 63, "instrument": 4, "track": 0, "qtime": 11, "isDrum": false}, {"time": 203, "velocity": 0, "pitch": 66, "instrument": 4, "track": 0, "qtime": 11, "isDrum": false}, {"time": 210, "velocity": 108, "pitch": 56, "instrument": 4, "track": 0, "qtime": 18, "isDrum": false}, {"time": 210, "velocity": 108, "pitch": 59, "instrument": 4, "track": 0, "qtime": 18, "isDrum": false}, {"time": 210, "velocity": 108, "pitch": 63, "instrument": 4, "track": 0, "qtime": 18, "isDrum": false}, {"time": 210, "velocity": 108, "pitch": 66, "instrument": 4, "track": 0, "qtime": 18, "isDrum": false}, {"time": 234, "velocity": 0, "pitch": 56, "instrument": 4, "track": 0, "qtime": 42, "isDrum": false}, {"time": 234, "velocity": 0, "pitch": 59, "instrument": 4, "track": 0, "qtime": 42, "isDrum": false}, {"time": 234, "velocity": 0, "pitch": 63, "instrument": 4, "track": 0, "qtime": 42, "isDrum": false}, {"time": 234, "velocity": 0, "pitch": 66, "instrument": 4, "track": 0, "qtime": 42, "isDrum": false}, {"time": 240, "velocity": 108, "pitch": 52, "instrument": 4, "track": 0, "qtime": 0, "isDrum": false}, {"time": 240, "velocity": 108, "pitch": 56, "instrument": 4, "track": 0, "qtime": 0, "isDrum": false}, {"time": 240, "velocity": 108, "pitch": 59, "instrument": 4, "track": 0, "qtime": 0, "isDrum": false}, {"time": 240, "velocity": 108, "pitch": 64, "instrument": 4, "track": 0, "qtime": 0, "isDrum": false}, {"time": 243, "velocity": 0, "pitch": 52, "instrument": 4, "track": 0, "qtime": 3, "isDrum": false}, {"time": 243, "velocity": 0, "pitch": 56, "instrument": 4, "track": 0, "qtime": 3, "isDrum": false}, {"time": 243, "velocity": 0, "pitch": 59, "instrument": 4, "track": 0, "qtime": 3, "isDrum": false}, {"time": 243, "velocity": 0, "pitch": 64, "instrument": 4, "track": 0, "qtime": 3, "isDrum": false}, {"time": 246, "velocity": 108, "pitch": 52, "instrument": 4, "track": 0, "qtime": 6, "isDrum": false}, {"time": 246, "velocity": 108, "pitch": 56, "instrument": 4, "track": 0, "qtime": 6, "isDrum": false}, {"time": 246, "velocity": 108, "pitch": 59, "instrument": 4, "track": 0, "qtime": 6, "isDrum": false}, {"time": 246, "velocity": 108, "pitch": 64, "instrument": 4, "track": 0, "qtime": 6, "isDrum": false}, {"time": 252, "velocity": 0, "pitch": 52, "instrument": 4, "track": 0, "qtime": 12, "isDrum": false}, {"time": 252, "velocity": 0, "pitch": 56, "instrument": 4, "track": 0, "qtime": 12, "isDrum": false}, {"time": 252, "velocity": 0, "pitch": 59, "instrument": 4, "track": 0, "qtime": 12, "isDrum": false}, {"time": 252, "velocity": 0, "pitch": 64, "instrument": 4, "track": 0, "qtime": 12, "isDrum": false}, {"time": 258, "velocity": 108, "pitch": 52, "instrument": 4, "track": 0, "qtime": 18, "isDrum": false}, {"time": 258, "velocity": 108, "pitch": 56, "instrument": 4, "track": 0, "qtime": 18, "isDrum": false}, {"time": 258, "velocity": 108, "pitch": 59, "instrument": 4, "track": 0, "qtime": 18, "isDrum": false}, {"time": 258, "velocity": 108, "pitch": 64, "instrument": 4, "track": 0, "qtime": 18, "isDrum": false}, {"time": 282, "velocity": 0, "pitch": 52, "instrument": 4, "track": 0, "qtime": 42, "isDrum": false}, {"time": 282, "velocity": 0, "pitch": 56, "instrument": 4, "track": 0, "qtime": 42, "isDrum": false}, {"time": 282, "velocity": 0, "pitch": 59, "instrument": 4, "track": 0, "qtime": 42, "isDrum": false}, {"time": 282, "velocity": 0, "pitch": 64, "instrument": 4, "track": 0, "qtime": 42, "isDrum": false}, {"time": 288, "velocity": 108, "pitch": 52, "instrument": 4, "track": 0, "qtime": 0, "isDrum": false}, {"time": 288, "velocity": 108, "pitch": 56, "instrument": 4, "track": 0, "qtime": 0, "isDrum": false}, {"time": 288, "velocity": 108, "pitch": 59, "instrument": 4, "track": 0, "qtime": 0, "isDrum": false}, {"time": 288, "velocity": 108, "pitch": 64, "instrument": 4, "track": 0, "qtime": 0, "isDrum": false}, {"time": 336, "velocity": 0, "pitch": 52, "instrument": 4, "track": 0, "qtime": 48, "isDrum": false}, {"time": 336, "velocity": 0, "pitch": 56, "instrument": 4, "track": 0, "qtime": 48, "isDrum": false}, {"time": 336, "velocity": 0, "pitch": 59, "instrument": 4, "track": 0, "qtime": 48, "isDrum": false}, {"time": 336, "velocity": 0, "pitch": 64, "instrument": 4, "track": 0, "qtime": 48, "isDrum": false}, {"time": 336, "velocity": 108, "pitch": 54, "instrument": 4, "track": 0, "qtime": 0, "isDrum": false}, {"time": 336, "velocity": 108, "pitch": 58, "instrument": 4, "track": 0, "qtime": 0, "isDrum": false}, {"time": 336, "velocity": 108, "pitch": 61, "instrument": 4, "track": 0, "qtime": 0, "isDrum": false}, {"time": 336, "velocity": 108, "pitch": 65, "instrument": 4, "track": 0, "qtime": 0, "isDrum": false}, {"time": 360, "velocity": 0, "pitch": 54, "instrument": 4, "track": 0, "qtime": 24, "isDrum": false}, {"time": 360, "velocity": 0, "pitch": 58, "instrument": 4, "track": 0, "qtime": 24, "isDrum": false}, {"time": 360, "velocity": 0, "pitch": 61, "instrument": 4, "track": 0, "qtime": 24, "isDrum": false}, {"time": 360, "velocity": 0, "pitch": 65, "instrument": 4, "track": 0, "qtime": 24, "isDrum": false}, {"time": 360, "velocity": 108, "pitch": 56, "instrument": 4, "track": 0, "qtime": 24, "isDrum": false}, {"time": 360, "velocity": 108, "pitch": 60, "instrument": 4, "track": 0, "qtime": 24, "isDrum": false}, {"time": 360, "velocity": 108, "pitch": 63, "instrument": 4, "track": 0, "qtime": 24, "isDrum": false}, {"time": 360, "velocity": 108, "pitch": 66, "instrument": 4, "track": 0, "qtime": 24, "isDrum": false}, {"time": 372, "velocity": 0, "pitch": 56, "instrument": 4, "track": 0, "qtime": 36, "isDrum": false}, {"time": 372, "velocity": 0, "pitch": 60, "instrument": 4, "track": 0, "qtime": 36, "isDrum": false}, {"time": 372, "velocity": 0, "pitch": 63, "instrument": 4, "track": 0, "qtime": 36, "isDrum": false}, {"time": 372, "velocity": 0, "pitch": 66, "instrument": 4, "track": 0, "qtime": 36, "isDrum": false}, {"time": 372, "velocity": 108, "pitch": 56, "instrument": 4, "track": 0, "qtime": 36, "isDrum": false}, {"time": 372, "velocity": 108, "pitch": 61, "instrument": 4, "track": 0, "qtime": 36, "isDrum": false}, {"time": 372, "velocity": 108, "pitch": 63, "instrument": 4, "track": 0, "qtime": 36, "isDrum": false}, {"time": 372, "velocity": 108, "pitch": 66, "instrument": 4, "track": 0, "qtime": 36, "isDrum": false}, {"time": 384, "velocity": 0, "pitch": 56, "instrument": 4, "track": 0, "qtime": 48, "isDrum": false}, {"time": 384, "velocity": 0, "pitch": 61, "instrument": 4, "track": 0, "qtime": 48, "isDrum": false}, {"time": 384, "velocity": 0, "pitch": 63, "instrument": 4, "track": 0, "qtime": 48, "isDrum": false}, {"time": 384, "velocity": 0, "pitch": 66, "instrument": 4, "track": 0, "qtime": 48, "isDrum": false}, {"time": 0, "velocity": 108, "pitch": 56, "instrument": 25, "track": 1, "qtime": 0, "isDrum": false}, {"time": 0, "velocity": 108, "pitch": 59, "instrument": 25, "track": 1, "qtime": 0, "isDrum": false}, {"time": 0, "velocity": 108, "pitch": 63, "instrument": 25, "track": 1, "qtime": 0, "isDrum": false}, {"time": 0, "velocity": 108, "pitch": 66, "instrument": 25, "track": 1, "qtime": 0, "isDrum": false}, {"time": 9, "velocity": 0, "pitch": 59, "instrument": 25, "track": 1, "qtime": 9, "isDrum": false}, {"time": 12, "velocity": 108, "pitch": 59, "instrument": 25, "track": 1, "qtime": 12, "isDrum": false}, {"time": 17, "velocity": 0, "pitch": 63, "instrument": 25, "track": 1, "qtime": 17, "isDrum": false}, {"time": 18, "velocity": 0, "pitch": 56, "instrument": 25, "track": 1, "qtime": 18, "isDrum": false}, {"time": 18, "velocity": 0, "pitch": 59, "instrument": 25, "track": 1, "qtime": 18, "isDrum": false}, {"time": 18, "velocity": 0, "pitch": 66, "instrument": 25, "track": 1, "qtime": 18, "isDrum": false}, {"time": 18, "velocity": 108, "pitch": 51, "instrument": 25, "track": 1, "qtime": 18, "isDrum": false}, {"time": 21, "velocity": 108, "pitch": 54, "instrument": 25, "track": 1, "qtime": 21, "isDrum": false}, {"time": 24, "velocity": 108, "pitch": 59, "instrument": 25, "track": 1, "qtime": 24, "isDrum": false}, {"time": 24, "velocity": 108, "pitch": 63, "instrument": 25, "track": 1, "qtime": 24, "isDrum": false}, {"time": 38, "velocity": 0, "pitch": 54, "instrument": 25, "track": 1, "qtime": 38, "isDrum": false}, {"time": 42, "velocity": 108, "pitch": 54, "instrument": 25, "track": 1, "qtime": 42, "isDrum": false}, {"time": 43, "velocity": 0, "pitch": 59, "instrument": 25, "track": 1, "qtime": 43, "isDrum": false}, {"time": 44, "velocity": 0, "pitch": 63, "instrument": 25, "track": 1, "qtime": 44, "isDrum": false}, {"time": 46, "velocity": 0, "pitch": 54, "instrument": 25, "track": 1, "qtime": 46, "isDrum": false}, {"time": 48, "velocity": 0, "pitch": 51, "instrument": 25, "track": 1, "qtime": 48, "isDrum": false}, {"time": 48, "velocity": 108, "pitch": 47, "instrument": 25, "track": 1, "qtime": 0, "isDrum": false}, {"time": 54, "velocity": 108, "pitch": 59, "instrument": 25, "track": 1, "qtime": 6, "isDrum": false}, {"time": 60, "velocity": 108, "pitch": 54, "instrument": 25, "track": 1, "qtime": 12, "isDrum": false}, {"time": 63, "velocity": 0, "pitch": 59, "instrument": 25, "track": 1, "qtime": 15, "isDrum": false}, {"time": 66, "velocity": 108, "pitch": 63, "instrument": 25, "track": 1, "qtime": 18, "isDrum": false}, {"time": 68, "velocity": 0, "pitch": 54, "instrument": 25, "track": 1, "qtime": 20, "isDrum": false}, {"time": 72, "velocity": 0, "pitch": 47, "instrument": 25, "track": 1, "qtime": 24, "isDrum": false}, {"time": 72, "velocity": 0, "pitch": 63, "instrument": 25, "track": 1, "qtime": 24, "isDrum": false}, {"time": 72, "velocity": 108, "pitch": 51, "instrument": 25, "track": 1, "qtime": 24, "isDrum": false}, {"time": 73, "velocity": 108, "pitch": 39, "instrument": 25, "track": 1, "qtime": 25, "isDrum": false}, {"time": 78, "velocity": 108, "pitch": 56, "instrument": 25, "track": 1, "qtime": 30, "isDrum": false}, {"time": 84, "velocity": 0, "pitch": 39, "instrument": 25, "track": 1, "qtime": 36, "isDrum": false}, {"time": 84, "velocity": 0, "pitch": 51, "instrument": 25, "track": 1, "qtime": 36, "isDrum": false}, {"time": 84, "velocity": 0, "pitch": 56, "instrument": 25, "track": 1, "qtime": 36, "isDrum": false}, {"time": 84, "velocity": 108, "pitch": 51, "instrument": 25, "track": 1, "qtime": 36, "isDrum": false}, {"time": 85, "velocity": 108, "pitch": 47, "instrument": 25, "track": 1, "qtime": 37, "isDrum": false}, {"time": 90, "velocity": 108, "pitch": 54, "instrument": 25, "track": 1, "qtime": 42, "isDrum": false}, {"time": 96, "velocity": 0, "pitch": 47, "instrument": 25, "track": 1, "qtime": 48, "isDrum": false}, {"time": 96, "velocity": 0, "pitch": 51, "instrument": 25, "track": 1, "qtime": 48, "isDrum": false}, {"time": 96, "velocity": 0, "pitch": 54, "instrument": 25, "track": 1, "qtime": 48, "isDrum": false}, {"time": 96, "velocity": 108, "pitch": 58, "instrument": 25, "track": 1, "qtime": 0, "isDrum": false}, {"time": 97, "velocity": 108, "pitch": 49, "instrument": 25, "track": 1, "qtime": 1, "isDrum": false}, {"time": 102, "velocity": 108, "pitch": 54, "instrument": 25, "track": 1, "qtime": 6, "isDrum": false}, {"time": 108, "velocity": 0, "pitch": 49, "instrument": 25, "track": 1, "qtime": 12, "isDrum": false}, {"time": 108, "velocity": 0, "pitch": 54, "instrument": 25, "track": 1, "qtime": 12, "isDrum": false}, {"time": 108, "velocity": 0, "pitch": 58, "instrument": 25, "track": 1, "qtime": 12, "isDrum": false}, {"time": 108, "velocity": 108, "pitch": 58, "instrument": 25, "track": 1, "qtime": 12, "isDrum": false}, {"time": 114, "velocity": 108, "pitch": 54, "instrument": 25, "track": 1, "qtime": 18, "isDrum": false}, {"time": 120, "velocity": 0, "pitch": 54, "instrument": 25, "track": 1, "qtime": 24, "isDrum": false}, {"time": 120, "velocity": 0, "pitch": 58, "instrument": 25, "track": 1, "qtime": 24, "isDrum": false}, {"time": 120, "velocity": 108, "pitch": 56, "instrument": 25, "track": 1, "qtime": 24, "isDrum": false}, {"time": 126, "velocity": 108, "pitch": 52, "instrument": 25, "track": 1, "qtime": 30, "isDrum": false}, {"time": 132, "velocity": 108, "pitch": 47, "instrument": 25, "track": 1, "qtime": 36, "isDrum": false}, {"time": 137, "velocity": 0, "pitch": 52, "instrument": 25, "track": 1, "qtime": 41, "isDrum": false}, {"time": 137, "velocity": 0, "pitch": 56, "instrument": 25, "track": 1, "qtime": 41, "isDrum": false}, {"time": 138, "velocity": 0, "pitch": 47, "instrument": 25, "track": 1, "qtime": 42, "isDrum": false}, {"time": 138, "velocity": 108, "pitch": 52, "instrument": 25, "track": 1, "qtime": 42, "isDrum": false}, {"time": 139, "velocity": 108, "pitch": 47, "instrument": 25, "track": 1, "qtime": 43, "isDrum": false}, {"time": 144, "velocity": 0, "pitch": 47, "instrument": 25, "track": 1, "qtime": 48, "isDrum": false}, {"time": 144, "velocity": 0, "pitch": 52, "instrument": 25, "track": 1, "qtime": 48, "isDrum": false}, {"time": 144, "velocity": 108, "pitch": 56, "instrument": 25, "track": 1, "qtime": 0, "isDrum": false}, {"time": 144, "velocity": 108, "pitch": 59, "instrument": 25, "track": 1, "qtime": 0, "isDrum": false}, {"time": 144, "velocity": 108, "pitch": 64, "instrument": 25, "track": 1, "qtime": 0, "isDrum": false}, {"time": 144, "velocity": 108, "pitch": 68, "instrument": 25, "track": 1, "qtime": 0, "isDrum": false}, {"time": 155, "velocity": 0, "pitch": 59, "instrument": 25, "track": 1, "qtime": 11, "isDrum": false}, {"time": 156, "velocity": 0, "pitch": 56, "instrument": 25, "track": 1, "qtime": 12, "isDrum": false}, {"time": 156, "velocity": 0, "pitch": 64, "instrument": 25, "track": 1, "qtime": 12, "isDrum": false}, {"time": 156, "velocity": 0, "pitch": 68, "instrument": 25, "track": 1, "qtime": 12, "isDrum": false}, {"time": 162, "velocity": 108, "pitch": 56, "instrument": 25, "track": 1, "qtime": 18, "isDrum": false}, {"time": 162, "velocity": 108, "pitch": 59, "instrument": 25, "track": 1, "qtime": 18, "isDrum": false}, {"time": 162, "velocity": 108, "pitch": 64, "instrument": 25, "track": 1, "qtime": 18, "isDrum": false}, {"time": 162, "velocity": 108, "pitch": 68, "instrument": 25, "track": 1, "qtime": 18, "isDrum": false}, {"time": 180, "velocity": 108, "pitch": 71, "instrument": 25, "track": 1, "qtime": 36, "isDrum": false}, {"time": 183, "velocity": 0, "pitch": 68, "instrument": 25, "track": 1, "qtime": 39, "isDrum": false}, {"time": 184, "velocity": 0, "pitch": 56, "instrument": 25, "track": 1, "qtime": 40, "isDrum": false}, {"time": 184, "velocity": 0, "pitch": 59, "instrument": 25, "track": 1, "qtime": 40, "isDrum": false}, {"time": 184, "velocity": 0, "pitch": 64, "instrument": 25, "track": 1, "qtime": 40, "isDrum": false}, {"time": 186, "velocity": 0, "pitch": 71, "instrument": 25, "track": 1, "qtime": 42, "isDrum": false}, {"time": 186, "velocity": 108, "pitch": 76, "instrument": 25, "track": 1, "qtime": 42, "isDrum": false}, {"time": 189, "velocity": 0, "pitch": 76, "instrument": 25, "track": 1, "qtime": 45, "isDrum": false}, {"time": 192, "velocity": 108, "pitch": 56, "instrument": 25, "track": 1, "qtime": 0, "isDrum": false}, {"time": 192, "velocity": 108, "pitch": 59, "instrument": 25, "track": 1, "qtime": 0, "isDrum": false}, {"time": 192, "velocity": 108, "pitch": 63, "instrument": 25, "track": 1, "qtime": 0, "isDrum": false}, {"time": 192, "velocity": 108, "pitch": 66, "instrument": 25, "track": 1, "qtime": 0, "isDrum": false}, {"time": 195, "velocity": 0, "pitch": 56, "instrument": 25, "track": 1, "qtime": 3, "isDrum": false}, {"time": 195, "velocity": 0, "pitch": 59, "instrument": 25, "track": 1, "qtime": 3, "isDrum": false}, {"time": 195, "velocity": 0, "pitch": 63, "instrument": 25, "track": 1, "qtime": 3, "isDrum": false}, {"time": 195, "velocity": 0, "pitch": 66, "instrument": 25, "track": 1, "qtime": 3, "isDrum": false}, {"time": 198, "velocity": 108, "pitch": 56, "instrument": 25, "track": 1, "qtime": 6, "isDrum": false}, {"time": 198, "velocity": 108, "pitch": 59, "instrument": 25, "track": 1, "qtime": 6, "isDrum": false}, {"time": 198, "velocity": 108, "pitch": 63, "instrument": 25, "track": 1, "qtime": 6, "isDrum": false}, {"time": 198, "velocity": 108, "pitch": 66, "instrument": 25, "track": 1, "qtime": 6, "isDrum": false}, {"time": 203, "velocity": 0, "pitch": 56, "instrument": 25, "track": 1, "qtime": 11, "isDrum": false}, {"time": 203, "velocity": 0, "pitch": 59, "instrument": 25, "track": 1, "qtime": 11, "isDrum": false}, {"time": 203, "velocity": 0, "pitch": 63, "instrument": 25, "track": 1, "qtime": 11, "isDrum": false}, {"time": 203, "velocity": 0, "pitch": 66, "instrument": 25, "track": 1, "qtime": 11, "isDrum": false}, {"time": 210, "velocity": 108, "pitch": 44, "instrument": 25, "track": 1, "qtime": 18, "isDrum": false}, {"time": 210, "velocity": 108, "pitch": 56, "instrument": 25, "track": 1, "qtime": 18, "isDrum": false}, {"time": 210, "velocity": 108, "pitch": 59, "instrument": 25, "track": 1, "qtime": 18, "isDrum": false}, {"time": 210, "velocity": 108, "pitch": 63, "instrument": 25, "track": 1, "qtime": 18, "isDrum": false}, {"time": 210, "velocity": 108, "pitch": 66, "instrument": 25, "track": 1, "qtime": 18, "isDrum": false}, {"time": 234, "velocity": 0, "pitch": 44, "instrument": 25, "track": 1, "qtime": 42, "isDrum": false}, {"time": 234, "velocity": 0, "pitch": 56, "instrument": 25, "track": 1, "qtime": 42, "isDrum": false}, {"time": 234, "velocity": 0, "pitch": 59, "instrument": 25, "track": 1, "qtime": 42, "isDrum": false}, {"time": 234, "velocity": 0, "pitch": 63, "instrument": 25, "track": 1, "qtime": 42, "isDrum": false}, {"time": 234, "velocity": 0, "pitch": 66, "instrument": 25, "track": 1, "qtime": 42, "isDrum": false}, {"time": 234, "velocity": 108, "pitch": 52, "instrument": 25, "track": 1, "qtime": 42, "isDrum": false}, {"time": 234, "velocity": 108, "pitch": 56, "instrument": 25, "track": 1, "qtime": 42, "isDrum": false}, {"time": 234, "velocity": 108, "pitch": 59, "instrument": 25, "track": 1, "qtime": 42, "isDrum": false}, {"time": 234, "velocity": 108, "pitch": 64, "instrument": 25, "track": 1, "qtime": 42, "isDrum": false}, {"time": 234, "velocity": 108, "pitch": 71, "instrument": 25, "track": 1, "qtime": 42, "isDrum": false}, {"time": 237, "velocity": 108, "pitch": 68, "instrument": 25, "track": 1, "qtime": 45, "isDrum": false}, {"time": 240, "velocity": 0, "pitch": 52, "instrument": 25, "track": 1, "qtime": 48, "isDrum": false}, {"time": 240, "velocity": 0, "pitch": 56, "instrument": 25, "track": 1, "qtime": 48, "isDrum": false}, {"time": 240, "velocity": 0, "pitch": 59, "instrument": 25, "track": 1, "qtime": 48, "isDrum": false}, {"time": 240, "velocity": 0, "pitch": 64, "instrument": 25, "track": 1, "qtime": 48, "isDrum": false}, {"time": 240, "velocity": 0, "pitch": 68, "instrument": 25, "track": 1, "qtime": 48, "isDrum": false}, {"time": 240, "velocity": 0, "pitch": 71, "instrument": 25, "track": 1, "qtime": 48, "isDrum": false}, {"time": 240, "velocity": 108, "pitch": 52, "instrument": 25, "track": 1, "qtime": 0, "isDrum": false}, {"time": 240, "velocity": 108, "pitch": 56, "instrument": 25, "track": 1, "qtime": 0, "isDrum": false}, {"time": 240, "velocity": 108, "pitch": 59, "instrument": 25, "track": 1, "qtime": 0, "isDrum": false}, {"time": 240, "velocity": 108, "pitch": 64, "instrument": 25, "track": 1, "qtime": 0, "isDrum": false}, {"time": 243, "velocity": 0, "pitch": 52, "instrument": 25, "track": 1, "qtime": 3, "isDrum": false}, {"time": 243, "velocity": 0, "pitch": 56, "instrument": 25, "track": 1, "qtime": 3, "isDrum": false}, {"time": 243, "velocity": 0, "pitch": 59, "instrument": 25, "track": 1, "qtime": 3, "isDrum": false}, {"time": 243, "velocity": 0, "pitch": 64, "instrument": 25, "track": 1, "qtime": 3, "isDrum": false}, {"time": 246, "velocity": 108, "pitch": 52, "instrument": 25, "track": 1, "qtime": 6, "isDrum": false}, {"time": 246, "velocity": 108, "pitch": 56, "instrument": 25, "track": 1, "qtime": 6, "isDrum": false}, {"time": 246, "velocity": 108, "pitch": 59, "instrument": 25, "track": 1, "qtime": 6, "isDrum": false}, {"time": 246, "velocity": 108, "pitch": 64, "instrument": 25, "track": 1, "qtime": 6, "isDrum": false}, {"time": 251, "velocity": 0, "pitch": 56, "instrument": 25, "track": 1, "qtime": 11, "isDrum": false}, {"time": 252, "velocity": 0, "pitch": 52, "instrument": 25, "track": 1, "qtime": 12, "isDrum": false}, {"time": 252, "velocity": 0, "pitch": 59, "instrument": 25, "track": 1, "qtime": 12, "isDrum": false}, {"time": 252, "velocity": 0, "pitch": 64, "instrument": 25, "track": 1, "qtime": 12, "isDrum": false}, {"time": 258, "velocity": 108, "pitch": 40, "instrument": 25, "track": 1, "qtime": 18, "isDrum": false}, {"time": 258, "velocity": 108, "pitch": 52, "instrument": 25, "track": 1, "qtime": 18, "isDrum": false}, {"time": 258, "velocity": 108, "pitch": 56, "instrument": 25, "track": 1, "qtime": 18, "isDrum": false}, {"time": 258, "velocity": 108, "pitch": 59, "instrument": 25, "track": 1, "qtime": 18, "isDrum": false}, {"time": 258, "velocity": 108, "pitch": 64, "instrument": 25, "track": 1, "qtime": 18, "isDrum": false}, {"time": 282, "velocity": 0, "pitch": 40, "instrument": 25, "track": 1, "qtime": 42, "isDrum": false}, {"time": 282, "velocity": 0, "pitch": 52, "instrument": 25, "track": 1, "qtime": 42, "isDrum": false}, {"time": 282, "velocity": 0, "pitch": 56, "instrument": 25, "track": 1, "qtime": 42, "isDrum": false}, {"time": 282, "velocity": 0, "pitch": 59, "instrument": 25, "track": 1, "qtime": 42, "isDrum": false}, {"time": 282, "velocity": 0, "pitch": 64, "instrument": 25, "track": 1, "qtime": 42, "isDrum": false}, {"time": 288, "velocity": 108, "pitch": 52, "instrument": 25, "track": 1, "qtime": 0, "isDrum": false}, {"time": 288, "velocity": 108, "pitch": 56, "instrument": 25, "track": 1, "qtime": 0, "isDrum": false}, {"time": 288, "velocity": 108, "pitch": 59, "instrument": 25, "track": 1, "qtime": 0, "isDrum": false}, {"time": 292, "velocity": 0, "pitch": 52, "instrument": 25, "track": 1, "qtime": 4, "isDrum": false}, {"time": 292, "velocity": 0, "pitch": 56, "instrument": 25, "track": 1, "qtime": 4, "isDrum": false}, {"time": 292, "velocity": 0, "pitch": 59, "instrument": 25, "track": 1, "qtime": 4, "isDrum": false}, {"time": 294, "velocity": 108, "pitch": 52, "instrument": 25, "track": 1, "qtime": 6, "isDrum": false}, {"time": 294, "velocity": 108, "pitch": 56, "instrument": 25, "track": 1, "qtime": 6, "isDrum": false}, {"time": 294, "velocity": 108, "pitch": 59, "instrument": 25, "track": 1, "qtime": 6, "isDrum": false}, {"time": 298, "velocity": 0, "pitch": 52, "instrument": 25, "track": 1, "qtime": 10, "isDrum": false}, {"time": 298, "velocity": 0, "pitch": 56, "instrument": 25, "track": 1, "qtime": 10, "isDrum": false}, {"time": 298, "velocity": 0, "pitch": 59, "instrument": 25, "track": 1, "qtime": 10, "isDrum": false}, {"time": 306, "velocity": 108, "pitch": 52, "instrument": 25, "track": 1, "qtime": 18, "isDrum": false}, {"time": 306, "velocity": 108, "pitch": 56, "instrument": 25, "track": 1, "qtime": 18, "isDrum": false}, {"time": 306, "velocity": 108, "pitch": 59, "instrument": 25, "track": 1, "qtime": 18, "isDrum": false}, {"time": 309, "velocity": 0, "pitch": 52, "instrument": 25, "track": 1, "qtime": 21, "isDrum": false}, {"time": 309, "velocity": 0, "pitch": 56, "instrument": 25, "track": 1, "qtime": 21, "isDrum": false}, {"time": 309, "velocity": 0, "pitch": 59, "instrument": 25, "track": 1, "qtime": 21, "isDrum": false}, {"time": 312, "velocity": 108, "pitch": 52, "instrument": 25, "track": 1, "qtime": 24, "isDrum": false}, {"time": 312, "velocity": 108, "pitch": 56, "instrument": 25, "track": 1, "qtime": 24, "isDrum": false}, {"time": 312, "velocity": 108, "pitch": 59, "instrument": 25, "track": 1, "qtime": 24, "isDrum": false}, {"time": 316, "velocity": 0, "pitch": 52, "instrument": 25, "track": 1, "qtime": 28, "isDrum": false}, {"time": 316, "velocity": 0, "pitch": 56, "instrument": 25, "track": 1, "qtime": 28, "isDrum": false}, {"time": 316, "velocity": 0, "pitch": 59, "instrument": 25, "track": 1, "qtime": 28, "isDrum": false}, {"time": 324, "velocity": 108, "pitch": 52, "instrument": 25, "track": 1, "qtime": 36, "isDrum": false}, {"time": 324, "velocity": 108, "pitch": 56, "instrument": 25, "track": 1, "qtime": 36, "isDrum": false}, {"time": 324, "velocity": 108, "pitch": 59, "instrument": 25, "track": 1, "qtime": 36, "isDrum": false}, {"time": 329, "velocity": 0, "pitch": 52, "instrument": 25, "track": 1, "qtime": 41, "isDrum": false}, {"time": 329, "velocity": 0, "pitch": 56, "instrument": 25, "track": 1, "qtime": 41, "isDrum": false}, {"time": 329, "velocity": 0, "pitch": 59, "instrument": 25, "track": 1, "qtime": 41, "isDrum": false}, {"time": 336, "velocity": 108, "pitch": 34, "instrument": 25, "track": 1, "qtime": 0, "isDrum": false}, {"time": 336, "velocity": 108, "pitch": 49, "instrument": 25, "track": 1, "qtime": 0, "isDrum": false}, {"time": 336, "velocity": 108, "pitch": 54, "instrument": 25, "track": 1, "qtime": 0, "isDrum": false}, {"time": 336, "velocity": 108, "pitch": 58, "instrument": 25, "track": 1, "qtime": 0, "isDrum": false}, {"time": 344, "velocity": 0, "pitch": 49, "instrument": 25, "track": 1, "qtime": 8, "isDrum": false}, {"time": 348, "velocity": 108, "pitch": 49, "instrument": 25, "track": 1, "qtime": 12, "isDrum": false}, {"time": 353, "velocity": 0, "pitch": 54, "instrument": 25, "track": 1, "qtime": 17, "isDrum": false}, {"time": 354, "velocity": 0, "pitch": 49, "instrument": 25, "track": 1, "qtime": 18, "isDrum": false}, {"time": 354, "velocity": 0, "pitch": 58, "instrument": 25, "track": 1, "qtime": 18, "isDrum": false}, {"time": 360, "velocity": 0, "pitch": 34, "instrument": 25, "track": 1, "qtime": 24, "isDrum": false}, {"time": 360, "velocity": 108, "pitch": 51, "instrument": 25, "track": 1, "qtime": 24, "isDrum": false}, {"time": 361, "velocity": 108, "pitch": 44, "instrument": 25, "track": 1, "qtime": 25, "isDrum": false}, {"time": 366, "velocity": 108, "pitch": 56, "instrument": 25, "track": 1, "qtime": 30, "isDrum": false}, {"time": 372, "velocity": 0, "pitch": 44, "instrument": 25, "track": 1, "qtime": 36, "isDrum": false}, {"time": 372, "velocity": 0, "pitch": 51, "instrument": 25, "track": 1, "qtime": 36, "isDrum": false}, {"time": 372, "velocity": 0, "pitch": 56, "instrument": 25, "track": 1, "qtime": 36, "isDrum": false}, {"time": 372, "velocity": 108, "pitch": 47, "instrument": 25, "track": 1, "qtime": 36, "isDrum": false}, {"time": 373, "velocity": 108, "pitch": 44, "instrument": 25, "track": 1, "qtime": 37, "isDrum": false}, {"time": 378, "velocity": 108, "pitch": 51, "instrument": 25, "track": 1, "qtime": 42, "isDrum": false}, {"time": 384, "velocity": 0, "pitch": 44, "instrument": 25, "track": 1, "qtime": 48, "isDrum": false}, {"time": 384, "velocity": 0, "pitch": 47, "instrument": 25, "track": 1, "qtime": 48, "isDrum": false}, {"time": 384, "velocity": 0, "pitch": 51, "instrument": 25, "track": 1, "qtime": 48, "isDrum": false}, {"time": 0, "velocity": 108, "pitch": 35, "instrument": 0, "track": 9, "qtime": 0, "isDrum": true}, {"time": 0, "velocity": 108, "pitch": 42, "instrument": 0, "track": 9, "qtime": 0, "isDrum": true}, {"time": 0, "velocity": 108, "pitch": 70, "instrument": 0, "track": 9, "qtime": 0, "isDrum": true}, {"time": 3, "velocity": 0, "pitch": 35, "instrument": 0, "track": 9, "qtime": 3, "isDrum": true}, {"time": 3, "velocity": 0, "pitch": 42, "instrument": 0, "track": 9, "qtime": 3, "isDrum": true}, {"time": 3, "velocity": 0, "pitch": 70, "instrument": 0, "track": 9, "qtime": 3, "isDrum": true}, {"time": 3, "velocity": 108, "pitch": 70, "instrument": 0, "track": 9, "qtime": 3, "isDrum": true}, {"time": 6, "velocity": 0, "pitch": 70, "instrument": 0, "track": 9, "qtime": 6, "isDrum": true}, {"time": 6, "velocity": 108, "pitch": 42, "instrument": 0, "track": 9, "qtime": 6, "isDrum": true}, {"time": 6, "velocity": 108, "pitch": 70, "instrument": 0, "track": 9, "qtime": 6, "isDrum": true}, {"time": 9, "velocity": 0, "pitch": 42, "instrument": 0, "track": 9, "qtime": 9, "isDrum": true}, {"time": 9, "velocity": 0, "pitch": 70, "instrument": 0, "track": 9, "qtime": 9, "isDrum": true}, {"time": 9, "velocity": 108, "pitch": 70, "instrument": 0, "track": 9, "qtime": 9, "isDrum": true}, {"time": 12, "velocity": 0, "pitch": 70, "instrument": 0, "track": 9, "qtime": 12, "isDrum": true}, {"time": 12, "velocity": 108, "pitch": 42, "instrument": 0, "track": 9, "qtime": 12, "isDrum": true}, {"time": 12, "velocity": 108, "pitch": 62, "instrument": 0, "track": 9, "qtime": 12, "isDrum": true}, {"time": 12, "velocity": 108, "pitch": 70, "instrument": 0, "track": 9, "qtime": 12, "isDrum": true}, {"time": 15, "velocity": 0, "pitch": 42, "instrument": 0, "track": 9, "qtime": 15, "isDrum": true}, {"time": 15, "velocity": 0, "pitch": 62, "instrument": 0, "track": 9, "qtime": 15, "isDrum": true}, {"time": 15, "velocity": 0, "pitch": 70, "instrument": 0, "track": 9, "qtime": 15, "isDrum": true}, {"time": 15, "velocity": 108, "pitch": 70, "instrument": 0, "track": 9, "qtime": 15, "isDrum": true}, {"time": 18, "velocity": 0, "pitch": 70, "instrument": 0, "track": 9, "qtime": 18, "isDrum": true}, {"time": 18, "velocity": 108, "pitch": 42, "instrument": 0, "track": 9, "qtime": 18, "isDrum": true}, {"time": 18, "velocity": 108, "pitch": 62, "instrument": 0, "track": 9, "qtime": 18, "isDrum": true}, {"time": 18, "velocity": 108, "pitch": 70, "instrument": 0, "track": 9, "qtime": 18, "isDrum": true}, {"time": 21, "velocity": 0, "pitch": 42, "instrument": 0, "track": 9, "qtime": 21, "isDrum": true}, {"time": 21, "velocity": 0, "pitch": 62, "instrument": 0, "track": 9, "qtime": 21, "isDrum": true}, {"time": 21, "velocity": 0, "pitch": 70, "instrument": 0, "track": 9, "qtime": 21, "isDrum": true}, {"time": 21, "velocity": 108, "pitch": 70, "instrument": 0, "track": 9, "qtime": 21, "isDrum": true}, {"time": 24, "velocity": 0, "pitch": 70, "instrument": 0, "track": 9, "qtime": 24, "isDrum": true}, {"time": 24, "velocity": 108, "pitch": 35, "instrument": 0, "track": 9, "qtime": 24, "isDrum": true}, {"time": 24, "velocity": 108, "pitch": 42, "instrument": 0, "track": 9, "qtime": 24, "isDrum": true}, {"time": 24, "velocity": 108, "pitch": 70, "instrument": 0, "track": 9, "qtime": 24, "isDrum": true}, {"time": 27, "velocity": 0, "pitch": 35, "instrument": 0, "track": 9, "qtime": 27, "isDrum": true}, {"time": 27, "velocity": 0, "pitch": 42, "instrument": 0, "track": 9, "qtime": 27, "isDrum": true}, {"time": 27, "velocity": 0, "pitch": 70, "instrument": 0, "track": 9, "qtime": 27, "isDrum": true}, {"time": 27, "velocity": 108, "pitch": 70, "instrument": 0, "track": 9, "qtime": 27, "isDrum": true}, {"time": 30, "velocity": 0, "pitch": 70, "instrument": 0, "track": 9, "qtime": 30, "isDrum": true}, {"time": 30, "velocity": 108, "pitch": 42, "instrument": 0, "track": 9, "qtime": 30, "isDrum": true}, {"time": 30, "velocity": 108, "pitch": 70, "instrument": 0, "track": 9, "qtime": 30, "isDrum": true}, {"time": 33, "velocity": 0, "pitch": 42, "instrument": 0, "track": 9, "qtime": 33, "isDrum": true}, {"time": 33, "velocity": 0, "pitch": 70, "instrument": 0, "track": 9, "qtime": 33, "isDrum": true}, {"time": 33, "velocity": 108, "pitch": 70, "instrument": 0, "track": 9, "qtime": 33, "isDrum": true}, {"time": 36, "velocity": 0, "pitch": 70, "instrument": 0, "track": 9, "qtime": 36, "isDrum": true}, {"time": 36, "velocity": 108, "pitch": 42, "instrument": 0, "track": 9, "qtime": 36, "isDrum": true}, {"time": 36, "velocity": 108, "pitch": 63, "instrument": 0, "track": 9, "qtime": 36, "isDrum": true}, {"time": 36, "velocity": 108, "pitch": 70, "instrument": 0, "track": 9, "qtime": 36, "isDrum": true}, {"time": 39, "velocity": 0, "pitch": 42, "instrument": 0, "track": 9, "qtime": 39, "isDrum": true}, {"time": 39, "velocity": 0, "pitch": 63, "instrument": 0, "track": 9, "qtime": 39, "isDrum": true}, {"time": 39, "velocity": 0, "pitch": 70, "instrument": 0, "track": 9, "qtime": 39, "isDrum": true}, {"time": 39, "velocity": 108, "pitch": 70, "instrument": 0, "track": 9, "qtime": 39, "isDrum": true}, {"time": 42, "velocity": 0, "pitch": 70, "instrument": 0, "track": 9, "qtime": 42, "isDrum": true}, {"time": 42, "velocity": 108, "pitch": 42, "instrument": 0, "track": 9, "qtime": 42, "isDrum": true}, {"time": 42, "velocity": 108, "pitch": 70, "instrument": 0, "track": 9, "qtime": 42, "isDrum": true}, {"time": 45, "velocity": 0, "pitch": 42, "instrument": 0, "track": 9, "qtime": 45, "isDrum": true}, {"time": 45, "velocity": 0, "pitch": 70, "instrument": 0, "track": 9, "qtime": 45, "isDrum": true}, {"time": 45, "velocity": 108, "pitch": 70, "instrument": 0, "track": 9, "qtime": 45, "isDrum": true}, {"time": 48, "velocity": 0, "pitch": 70, "instrument": 0, "track": 9, "qtime": 48, "isDrum": true}, {"time": 48, "velocity": 108, "pitch": 35, "instrument": 0, "track": 9, "qtime": 0, "isDrum": true}, {"time": 48, "velocity": 108, "pitch": 42, "instrument": 0, "track": 9, "qtime": 0, "isDrum": true}, {"time": 48, "velocity": 108, "pitch": 70, "instrument": 0, "track": 9, "qtime": 0, "isDrum": true}, {"time": 51, "velocity": 0, "pitch": 35, "instrument": 0, "track": 9, "qtime": 3, "isDrum": true}, {"time": 51, "velocity": 0, "pitch": 42, "instrument": 0, "track": 9, "qtime": 3, "isDrum": true}, {"time": 51, "velocity": 0, "pitch": 70, "instrument": 0, "track": 9, "qtime": 3, "isDrum": true}, {"time": 51, "velocity": 108, "pitch": 70, "instrument": 0, "track": 9, "qtime": 3, "isDrum": true}, {"time": 54, "velocity": 0, "pitch": 70, "instrument": 0, "track": 9, "qtime": 6, "isDrum": true}, {"time": 54, "velocity": 108, "pitch": 42, "instrument": 0, "track": 9, "qtime": 6, "isDrum": true}, {"time": 54, "velocity": 108, "pitch": 70, "instrument": 0, "track": 9, "qtime": 6, "isDrum": true}, {"time": 57, "velocity": 0, "pitch": 42, "instrument": 0, "track": 9, "qtime": 9, "isDrum": true}, {"time": 57, "velocity": 0, "pitch": 70, "instrument": 0, "track": 9, "qtime": 9, "isDrum": true}, {"time": 57, "velocity": 108, "pitch": 70, "instrument": 0, "track": 9, "qtime": 9, "isDrum": true}, {"time": 60, "velocity": 0, "pitch": 70, "instrument": 0, "track": 9, "qtime": 12, "isDrum": true}, {"time": 60, "velocity": 108, "pitch": 42, "instrument": 0, "track": 9, "qtime": 12, "isDrum": true}, {"time": 60, "velocity": 108, "pitch": 62, "instrument": 0, "track": 9, "qtime": 12, "isDrum": true}, {"time": 60, "velocity": 108, "pitch": 70, "instrument": 0, "track": 9, "qtime": 12, "isDrum": true}, {"time": 63, "velocity": 0, "pitch": 42, "instrument": 0, "track": 9, "qtime": 15, "isDrum": true}, {"time": 63, "velocity": 0, "pitch": 62, "instrument": 0, "track": 9, "qtime": 15, "isDrum": true}, {"time": 63, "velocity": 0, "pitch": 70, "instrument": 0, "track": 9, "qtime": 15, "isDrum": true}, {"time": 63, "velocity": 108, "pitch": 70, "instrument": 0, "track": 9, "qtime": 15, "isDrum": true}, {"time": 66, "velocity": 0, "pitch": 70, "instrument": 0, "track": 9, "qtime": 18, "isDrum": true}, {"time": 66, "velocity": 108, "pitch": 42, "instrument": 0, "track": 9, "qtime": 18, "isDrum": true}, {"time": 66, "velocity": 108, "pitch": 62, "instrument": 0, "track": 9, "qtime": 18, "isDrum": true}, {"time": 66, "velocity": 108, "pitch": 70, "instrument": 0, "track": 9, "qtime": 18, "isDrum": true}, {"time": 69, "velocity": 0, "pitch": 42, "instrument": 0, "track": 9, "qtime": 21, "isDrum": true}, {"time": 69, "velocity": 0, "pitch": 62, "instrument": 0, "track": 9, "qtime": 21, "isDrum": true}, {"time": 69, "velocity": 0, "pitch": 70, "instrument": 0, "track": 9, "qtime": 21, "isDrum": true}, {"time": 69, "velocity": 108, "pitch": 70, "instrument": 0, "track": 9, "qtime": 21, "isDrum": true}, {"time": 72, "velocity": 0, "pitch": 70, "instrument": 0, "track": 9, "qtime": 24, "isDrum": true}, {"time": 72, "velocity": 108, "pitch": 35, "instrument": 0, "track": 9, "qtime": 24, "isDrum": true}, {"time": 72, "velocity": 108, "pitch": 42, "instrument": 0, "track": 9, "qtime": 24, "isDrum": true}, {"time": 72, "velocity": 108, "pitch": 70, "instrument": 0, "track": 9, "qtime": 24, "isDrum": true}, {"time": 75, "velocity": 0, "pitch": 35, "instrument": 0, "track": 9, "qtime": 27, "isDrum": true}, {"time": 75, "velocity": 0, "pitch": 42, "instrument": 0, "track": 9, "qtime": 27, "isDrum": true}, {"time": 75, "velocity": 0, "pitch": 70, "instrument": 0, "track": 9, "qtime": 27, "isDrum": true}, {"time": 75, "velocity": 108, "pitch": 70, "instrument": 0, "track": 9, "qtime": 27, "isDrum": true}, {"time": 78, "velocity": 0, "pitch": 70, "instrument": 0, "track": 9, "qtime": 30, "isDrum": true}, {"time": 78, "velocity": 108, "pitch": 42, "instrument": 0, "track": 9, "qtime": 30, "isDrum": true}, {"time": 78, "velocity": 108, "pitch": 70, "instrument": 0, "track": 9, "qtime": 30, "isDrum": true}, {"time": 81, "velocity": 0, "pitch": 42, "instrument": 0, "track": 9, "qtime": 33, "isDrum": true}, {"time": 81, "velocity": 0, "pitch": 70, "instrument": 0, "track": 9, "qtime": 33, "isDrum": true}, {"time": 81, "velocity": 108, "pitch": 70, "instrument": 0, "track": 9, "qtime": 33, "isDrum": true}, {"time": 84, "velocity": 0, "pitch": 70, "instrument": 0, "track": 9, "qtime": 36, "isDrum": true}, {"time": 84, "velocity": 108, "pitch": 42, "instrument": 0, "track": 9, "qtime": 36, "isDrum": true}, {"time": 84, "velocity": 108, "pitch": 62, "instrument": 0, "track": 9, "qtime": 36, "isDrum": true}, {"time": 84, "velocity": 108, "pitch": 70, "instrument": 0, "track": 9, "qtime": 36, "isDrum": true}, {"time": 87, "velocity": 0, "pitch": 42, "instrument": 0, "track": 9, "qtime": 39, "isDrum": true}, {"time": 87, "velocity": 0, "pitch": 62, "instrument": 0, "track": 9, "qtime": 39, "isDrum": true}, {"time": 87, "velocity": 0, "pitch": 70, "instrument": 0, "track": 9, "qtime": 39, "isDrum": true}, {"time": 87, "velocity": 108, "pitch": 70, "instrument": 0, "track": 9, "qtime": 39, "isDrum": true}, {"time": 90, "velocity": 0, "pitch": 70, "instrument": 0, "track": 9, "qtime": 42, "isDrum": true}, {"time": 90, "velocity": 108, "pitch": 42, "instrument": 0, "track": 9, "qtime": 42, "isDrum": true}, {"time": 90, "velocity": 108, "pitch": 70, "instrument": 0, "track": 9, "qtime": 42, "isDrum": true}, {"time": 93, "velocity": 0, "pitch": 42, "instrument": 0, "track": 9, "qtime": 45, "isDrum": true}, {"time": 93, "velocity": 0, "pitch": 70, "instrument": 0, "track": 9, "qtime": 45, "isDrum": true}, {"time": 93, "velocity": 108, "pitch": 70, "instrument": 0, "track": 9, "qtime": 45, "isDrum": true}, {"time": 96, "velocity": 0, "pitch": 70, "instrument": 0, "track": 9, "qtime": 48, "isDrum": true}, {"time": 96, "velocity": 108, "pitch": 35, "instrument": 0, "track": 9, "qtime": 0, "isDrum": true}, {"time": 96, "velocity": 108, "pitch": 42, "instrument": 0, "track": 9, "qtime": 0, "isDrum": true}, {"time": 96, "velocity": 108, "pitch": 70, "instrument": 0, "track": 9, "qtime": 0, "isDrum": true}, {"time": 99, "velocity": 0, "pitch": 35, "instrument": 0, "track": 9, "qtime": 3, "isDrum": true}, {"time": 99, "velocity": 0, "pitch": 42, "instrument": 0, "track": 9, "qtime": 3, "isDrum": true}, {"time": 99, "velocity": 0, "pitch": 70, "instrument": 0, "track": 9, "qtime": 3, "isDrum": true}, {"time": 99, "velocity": 108, "pitch": 70, "instrument": 0, "track": 9, "qtime": 3, "isDrum": true}, {"time": 102, "velocity": 0, "pitch": 70, "instrument": 0, "track": 9, "qtime": 6, "isDrum": true}, {"time": 102, "velocity": 108, "pitch": 42, "instrument": 0, "track": 9, "qtime": 6, "isDrum": true}, {"time": 102, "velocity": 108, "pitch": 70, "instrument": 0, "track": 9, "qtime": 6, "isDrum": true}, {"time": 105, "velocity": 0, "pitch": 42, "instrument": 0, "track": 9, "qtime": 9, "isDrum": true}, {"time": 105, "velocity": 0, "pitch": 70, "instrument": 0, "track": 9, "qtime": 9, "isDrum": true}, {"time": 105, "velocity": 108, "pitch": 70, "instrument": 0, "track": 9, "qtime": 9, "isDrum": true}, {"time": 108, "velocity": 0, "pitch": 70, "instrument": 0, "track": 9, "qtime": 12, "isDrum": true}, {"time": 108, "velocity": 108, "pitch": 42, "instrument": 0, "track": 9, "qtime": 12, "isDrum": true}, {"time": 108, "velocity": 108, "pitch": 62, "instrument": 0, "track": 9, "qtime": 12, "isDrum": true}, {"time": 108, "velocity": 108, "pitch": 70, "instrument": 0, "track": 9, "qtime": 12, "isDrum": true}, {"time": 111, "velocity": 0, "pitch": 42, "instrument": 0, "track": 9, "qtime": 15, "isDrum": true}, {"time": 111, "velocity": 0, "pitch": 62, "instrument": 0, "track": 9, "qtime": 15, "isDrum": true}, {"time": 111, "velocity": 0, "pitch": 70, "instrument": 0, "track": 9, "qtime": 15, "isDrum": true}, {"time": 111, "velocity": 108, "pitch": 70, "instrument": 0, "track": 9, "qtime": 15, "isDrum": true}, {"time": 114, "velocity": 0, "pitch": 70, "instrument": 0, "track": 9, "qtime": 18, "isDrum": true}, {"time": 114, "velocity": 108, "pitch": 42, "instrument": 0, "track": 9, "qtime": 18, "isDrum": true}, {"time": 114, "velocity": 108, "pitch": 70, "instrument": 0, "track": 9, "qtime": 18, "isDrum": true}, {"time": 117, "velocity": 0, "pitch": 42, "instrument": 0, "track": 9, "qtime": 21, "isDrum": true}, {"time": 117, "velocity": 0, "pitch": 70, "instrument": 0, "track": 9, "qtime": 21, "isDrum": true}, {"time": 117, "velocity": 108, "pitch": 70, "instrument": 0, "track": 9, "qtime": 21, "isDrum": true}, {"time": 120, "velocity": 0, "pitch": 70, "instrument": 0, "track": 9, "qtime": 24, "isDrum": true}, {"time": 120, "velocity": 108, "pitch": 35, "instrument": 0, "track": 9, "qtime": 24, "isDrum": true}, {"time": 120, "velocity": 108, "pitch": 42, "instrument": 0, "track": 9, "qtime": 24, "isDrum": true}, {"time": 120, "velocity": 108, "pitch": 70, "instrument": 0, "track": 9, "qtime": 24, "isDrum": true}, {"time": 123, "velocity": 0, "pitch": 35, "instrument": 0, "track": 9, "qtime": 27, "isDrum": true}, {"time": 123, "velocity": 0, "pitch": 42, "instrument": 0, "track": 9, "qtime": 27, "isDrum": true}, {"time": 123, "velocity": 0, "pitch": 70, "instrument": 0, "track": 9, "qtime": 27, "isDrum": true}, {"time": 123, "velocity": 108, "pitch": 70, "instrument": 0, "track": 9, "qtime": 27, "isDrum": true}, {"time": 126, "velocity": 0, "pitch": 70, "instrument": 0, "track": 9, "qtime": 30, "isDrum": true}, {"time": 126, "velocity": 108, "pitch": 42, "instrument": 0, "track": 9, "qtime": 30, "isDrum": true}, {"time": 126, "velocity": 108, "pitch": 70, "instrument": 0, "track": 9, "qtime": 30, "isDrum": true}, {"time": 129, "velocity": 0, "pitch": 42, "instrument": 0, "track": 9, "qtime": 33, "isDrum": true}, {"time": 129, "velocity": 0, "pitch": 70, "instrument": 0, "track": 9, "qtime": 33, "isDrum": true}, {"time": 129, "velocity": 108, "pitch": 70, "instrument": 0, "track": 9, "qtime": 33, "isDrum": true}, {"time": 132, "velocity": 0, "pitch": 70, "instrument": 0, "track": 9, "qtime": 36, "isDrum": true}, {"time": 132, "velocity": 108, "pitch": 42, "instrument": 0, "track": 9, "qtime": 36, "isDrum": true}, {"time": 132, "velocity": 108, "pitch": 48, "instrument": 0, "track": 9, "qtime": 36, "isDrum": true}, {"time": 132, "velocity": 108, "pitch": 62, "instrument": 0, "track": 9, "qtime": 36, "isDrum": true}, {"time": 132, "velocity": 108, "pitch": 70, "instrument": 0, "track": 9, "qtime": 36, "isDrum": true}, {"time": 135, "velocity": 0, "pitch": 42, "instrument": 0, "track": 9, "qtime": 39, "isDrum": true}, {"time": 135, "velocity": 0, "pitch": 48, "instrument": 0, "track": 9, "qtime": 39, "isDrum": true}, {"time": 135, "velocity": 0, "pitch": 62, "instrument": 0, "track": 9, "qtime": 39, "isDrum": true}, {"time": 135, "velocity": 0, "pitch": 70, "instrument": 0, "track": 9, "qtime": 39, "isDrum": true}, {"time": 135, "velocity": 108, "pitch": 70, "instrument": 0, "track": 9, "qtime": 39, "isDrum": true}, {"time": 138, "velocity": 0, "pitch": 70, "instrument": 0, "track": 9, "qtime": 42, "isDrum": true}, {"time": 138, "velocity": 108, "pitch": 42, "instrument": 0, "track": 9, "qtime": 42, "isDrum": true}, {"time": 138, "velocity": 108, "pitch": 70, "instrument": 0, "track": 9, "qtime": 42, "isDrum": true}, {"time": 141, "velocity": 0, "pitch": 42, "instrument": 0, "track": 9, "qtime": 45, "isDrum": true}, {"time": 141, "velocity": 0, "pitch": 70, "instrument": 0, "track": 9, "qtime": 45, "isDrum": true}, {"time": 141, "velocity": 108, "pitch": 70, "instrument": 0, "track": 9, "qtime": 45, "isDrum": true}, {"time": 144, "velocity": 0, "pitch": 70, "instrument": 0, "track": 9, "qtime": 48, "isDrum": true}, {"time": 144, "velocity": 108, "pitch": 35, "instrument": 0, "track": 9, "qtime": 0, "isDrum": true}, {"time": 144, "velocity": 108, "pitch": 42, "instrument": 0, "track": 9, "qtime": 0, "isDrum": true}, {"time": 144, "velocity": 108, "pitch": 70, "instrument": 0, "track": 9, "qtime": 0, "isDrum": true}, {"time": 147, "velocity": 0, "pitch": 35, "instrument": 0, "track": 9, "qtime": 3, "isDrum": true}, {"time": 147, "velocity": 0, "pitch": 42, "instrument": 0, "track": 9, "qtime": 3, "isDrum": true}, {"time": 147, "velocity": 0, "pitch": 70, "instrument": 0, "track": 9, "qtime": 3, "isDrum": true}, {"time": 147, "velocity": 108, "pitch": 70, "instrument": 0, "track": 9, "qtime": 3, "isDrum": true}, {"time": 150, "velocity": 0, "pitch": 70, "instrument": 0, "track": 9, "qtime": 6, "isDrum": true}, {"time": 150, "velocity": 108, "pitch": 42, "instrument": 0, "track": 9, "qtime": 6, "isDrum": true}, {"time": 150, "velocity": 108, "pitch": 70, "instrument": 0, "track": 9, "qtime": 6, "isDrum": true}, {"time": 153, "velocity": 0, "pitch": 42, "instrument": 0, "track": 9, "qtime": 9, "isDrum": true}, {"time": 153, "velocity": 0, "pitch": 70, "instrument": 0, "track": 9, "qtime": 9, "isDrum": true}, {"time": 153, "velocity": 108, "pitch": 70, "instrument": 0, "track": 9, "qtime": 9, "isDrum": true}, {"time": 156, "velocity": 0, "pitch": 70, "instrument": 0, "track": 9, "qtime": 12, "isDrum": true}, {"time": 156, "velocity": 108, "pitch": 38, "instrument": 0, "track": 9, "qtime": 12, "isDrum": true}, {"time": 156, "velocity": 108, "pitch": 42, "instrument": 0, "track": 9, "qtime": 12, "isDrum": true}, {"time": 156, "velocity": 108, "pitch": 62, "instrument": 0, "track": 9, "qtime": 12, "isDrum": true}, {"time": 156, "velocity": 108, "pitch": 70, "instrument": 0, "track": 9, "qtime": 12, "isDrum": true}, {"time": 159, "velocity": 0, "pitch": 38, "instrument": 0, "track": 9, "qtime": 15, "isDrum": true}, {"time": 159, "velocity": 0, "pitch": 42, "instrument": 0, "track": 9, "qtime": 15, "isDrum": true}, {"time": 159, "velocity": 0, "pitch": 62, "instrument": 0, "track": 9, "qtime": 15, "isDrum": true}, {"time": 159, "velocity": 0, "pitch": 70, "instrument": 0, "track": 9, "qtime": 15, "isDrum": true}, {"time": 159, "velocity": 108, "pitch": 70, "instrument": 0, "track": 9, "qtime": 15, "isDrum": true}, {"time": 162, "velocity": 0, "pitch": 70, "instrument": 0, "track": 9, "qtime": 18, "isDrum": true}, {"time": 162, "velocity": 108, "pitch": 35, "instrument": 0, "track": 9, "qtime": 18, "isDrum": true}, {"time": 162, "velocity": 108, "pitch": 42, "instrument": 0, "track": 9, "qtime": 18, "isDrum": true}, {"time": 162, "velocity": 108, "pitch": 70, "instrument": 0, "track": 9, "qtime": 18, "isDrum": true}, {"time": 165, "velocity": 0, "pitch": 35, "instrument": 0, "track": 9, "qtime": 21, "isDrum": true}, {"time": 165, "velocity": 0, "pitch": 42, "instrument": 0, "track": 9, "qtime": 21, "isDrum": true}, {"time": 165, "velocity": 0, "pitch": 70, "instrument": 0, "track": 9, "qtime": 21, "isDrum": true}, {"time": 165, "velocity": 108, "pitch": 70, "instrument": 0, "track": 9, "qtime": 21, "isDrum": true}, {"time": 168, "velocity": 0, "pitch": 70, "instrument": 0, "track": 9, "qtime": 24, "isDrum": true}, {"time": 168, "velocity": 108, "pitch": 35, "instrument": 0, "track": 9, "qtime": 24, "isDrum": true}, {"time": 168, "velocity": 108, "pitch": 42, "instrument": 0, "track": 9, "qtime": 24, "isDrum": true}, {"time": 168, "velocity": 108, "pitch": 70, "instrument": 0, "track": 9, "qtime": 24, "isDrum": true}, {"time": 171, "velocity": 0, "pitch": 35, "instrument": 0, "track": 9, "qtime": 27, "isDrum": true}, {"time": 171, "velocity": 0, "pitch": 42, "instrument": 0, "track": 9, "qtime": 27, "isDrum": true}, {"time": 171, "velocity": 0, "pitch": 70, "instrument": 0, "track": 9, "qtime": 27, "isDrum": true}, {"time": 171, "velocity": 108, "pitch": 70, "instrument": 0, "track": 9, "qtime": 27, "isDrum": true}, {"time": 174, "velocity": 0, "pitch": 70, "instrument": 0, "track": 9, "qtime": 30, "isDrum": true}, {"time": 174, "velocity": 108, "pitch": 42, "instrument": 0, "track": 9, "qtime": 30, "isDrum": true}, {"time": 174, "velocity": 108, "pitch": 70, "instrument": 0, "track": 9, "qtime": 30, "isDrum": true}, {"time": 177, "velocity": 0, "pitch": 42, "instrument": 0, "track": 9, "qtime": 33, "isDrum": true}, {"time": 177, "velocity": 0, "pitch": 70, "instrument": 0, "track": 9, "qtime": 33, "isDrum": true}, {"time": 177, "velocity": 108, "pitch": 70, "instrument": 0, "track": 9, "qtime": 33, "isDrum": true}, {"time": 180, "velocity": 0, "pitch": 70, "instrument": 0, "track": 9, "qtime": 36, "isDrum": true}, {"time": 180, "velocity": 108, "pitch": 38, "instrument": 0, "track": 9, "qtime": 36, "isDrum": true}, {"time": 180, "velocity": 108, "pitch": 42, "instrument": 0, "track": 9, "qtime": 36, "isDrum": true}, {"time": 180, "velocity": 108, "pitch": 62, "instrument": 0, "track": 9, "qtime": 36, "isDrum": true}, {"time": 180, "velocity": 108, "pitch": 70, "instrument": 0, "track": 9, "qtime": 36, "isDrum": true}, {"time": 183, "velocity": 0, "pitch": 38, "instrument": 0, "track": 9, "qtime": 39, "isDrum": true}, {"time": 183, "velocity": 0, "pitch": 42, "instrument": 0, "track": 9, "qtime": 39, "isDrum": true}, {"time": 183, "velocity": 0, "pitch": 62, "instrument": 0, "track": 9, "qtime": 39, "isDrum": true}, {"time": 183, "velocity": 0, "pitch": 70, "instrument": 0, "track": 9, "qtime": 39, "isDrum": true}, {"time": 183, "velocity": 108, "pitch": 70, "instrument": 0, "track": 9, "qtime": 39, "isDrum": true}, {"time": 186, "velocity": 0, "pitch": 70, "instrument": 0, "track": 9, "qtime": 42, "isDrum": true}, {"time": 186, "velocity": 108, "pitch": 42, "instrument": 0, "track": 9, "qtime": 42, "isDrum": true}, {"time": 186, "velocity": 108, "pitch": 70, "instrument": 0, "track": 9, "qtime": 42, "isDrum": true}, {"time": 189, "velocity": 0, "pitch": 42, "instrument": 0, "track": 9, "qtime": 45, "isDrum": true}, {"time": 189, "velocity": 0, "pitch": 70, "instrument": 0, "track": 9, "qtime": 45, "isDrum": true}, {"time": 189, "velocity": 108, "pitch": 70, "instrument": 0, "track": 9, "qtime": 45, "isDrum": true}, {"time": 192, "velocity": 0, "pitch": 70, "instrument": 0, "track": 9, "qtime": 48, "isDrum": true}, {"time": 192, "velocity": 108, "pitch": 35, "instrument": 0, "track": 9, "qtime": 0, "isDrum": true}, {"time": 192, "velocity": 108, "pitch": 42, "instrument": 0, "track": 9, "qtime": 0, "isDrum": true}, {"time": 192, "velocity": 108, "pitch": 70, "instrument": 0, "track": 9, "qtime": 0, "isDrum": true}, {"time": 195, "velocity": 0, "pitch": 35, "instrument": 0, "track": 9, "qtime": 3, "isDrum": true}, {"time": 195, "velocity": 0, "pitch": 42, "instrument": 0, "track": 9, "qtime": 3, "isDrum": true}, {"time": 195, "velocity": 0, "pitch": 70, "instrument": 0, "track": 9, "qtime": 3, "isDrum": true}, {"time": 195, "velocity": 108, "pitch": 70, "instrument": 0, "track": 9, "qtime": 3, "isDrum": true}, {"time": 198, "velocity": 0, "pitch": 70, "instrument": 0, "track": 9, "qtime": 6, "isDrum": true}, {"time": 198, "velocity": 108, "pitch": 42, "instrument": 0, "track": 9, "qtime": 6, "isDrum": true}, {"time": 198, "velocity": 108, "pitch": 70, "instrument": 0, "track": 9, "qtime": 6, "isDrum": true}, {"time": 201, "velocity": 0, "pitch": 42, "instrument": 0, "track": 9, "qtime": 9, "isDrum": true}, {"time": 201, "velocity": 0, "pitch": 70, "instrument": 0, "track": 9, "qtime": 9, "isDrum": true}, {"time": 201, "velocity": 108, "pitch": 70, "instrument": 0, "track": 9, "qtime": 9, "isDrum": true}, {"time": 204, "velocity": 0, "pitch": 70, "instrument": 0, "track": 9, "qtime": 12, "isDrum": true}, {"time": 204, "velocity": 108, "pitch": 42, "instrument": 0, "track": 9, "qtime": 12, "isDrum": true}, {"time": 204, "velocity": 108, "pitch": 62, "instrument": 0, "track": 9, "qtime": 12, "isDrum": true}, {"time": 204, "velocity": 108, "pitch": 70, "instrument": 0, "track": 9, "qtime": 12, "isDrum": true}, {"time": 207, "velocity": 0, "pitch": 42, "instrument": 0, "track": 9, "qtime": 15, "isDrum": true}, {"time": 207, "velocity": 0, "pitch": 62, "instrument": 0, "track": 9, "qtime": 15, "isDrum": true}, {"time": 207, "velocity": 0, "pitch": 70, "instrument": 0, "track": 9, "qtime": 15, "isDrum": true}, {"time": 207, "velocity": 108, "pitch": 70, "instrument": 0, "track": 9, "qtime": 15, "isDrum": true}, {"time": 210, "velocity": 0, "pitch": 70, "instrument": 0, "track": 9, "qtime": 18, "isDrum": true}, {"time": 210, "velocity": 108, "pitch": 35, "instrument": 0, "track": 9, "qtime": 18, "isDrum": true}, {"time": 210, "velocity": 108, "pitch": 42, "instrument": 0, "track": 9, "qtime": 18, "isDrum": true}, {"time": 210, "velocity": 108, "pitch": 70, "instrument": 0, "track": 9, "qtime": 18, "isDrum": true}, {"time": 213, "velocity": 0, "pitch": 35, "instrument": 0, "track": 9, "qtime": 21, "isDrum": true}, {"time": 213, "velocity": 0, "pitch": 42, "instrument": 0, "track": 9, "qtime": 21, "isDrum": true}, {"time": 213, "velocity": 0, "pitch": 70, "instrument": 0, "track": 9, "qtime": 21, "isDrum": true}, {"time": 213, "velocity": 108, "pitch": 70, "instrument": 0, "track": 9, "qtime": 21, "isDrum": true}, {"time": 216, "velocity": 0, "pitch": 70, "instrument": 0, "track": 9, "qtime": 24, "isDrum": true}, {"time": 216, "velocity": 108, "pitch": 35, "instrument": 0, "track": 9, "qtime": 24, "isDrum": true}, {"time": 216, "velocity": 108, "pitch": 42, "instrument": 0, "track": 9, "qtime": 24, "isDrum": true}, {"time": 216, "velocity": 108, "pitch": 70, "instrument": 0, "track": 9, "qtime": 24, "isDrum": true}, {"time": 219, "velocity": 0, "pitch": 35, "instrument": 0, "track": 9, "qtime": 27, "isDrum": true}, {"time": 219, "velocity": 0, "pitch": 42, "instrument": 0, "track": 9, "qtime": 27, "isDrum": true}, {"time": 219, "velocity": 0, "pitch": 70, "instrument": 0, "track": 9, "qtime": 27, "isDrum": true}, {"time": 219, "velocity": 108, "pitch": 70, "instrument": 0, "track": 9, "qtime": 27, "isDrum": true}, {"time": 222, "velocity": 0, "pitch": 70, "instrument": 0, "track": 9, "qtime": 30, "isDrum": true}, {"time": 222, "velocity": 108, "pitch": 42, "instrument": 0, "track": 9, "qtime": 30, "isDrum": true}, {"time": 222, "velocity": 108, "pitch": 70, "instrument": 0, "track": 9, "qtime": 30, "isDrum": true}, {"time": 225, "velocity": 0, "pitch": 42, "instrument": 0, "track": 9, "qtime": 33, "isDrum": true}, {"time": 225, "velocity": 0, "pitch": 70, "instrument": 0, "track": 9, "qtime": 33, "isDrum": true}, {"time": 225, "velocity": 108, "pitch": 70, "instrument": 0, "track": 9, "qtime": 33, "isDrum": true}, {"time": 228, "velocity": 0, "pitch": 70, "instrument": 0, "track": 9, "qtime": 36, "isDrum": true}, {"time": 228, "velocity": 108, "pitch": 42, "instrument": 0, "track": 9, "qtime": 36, "isDrum": true}, {"time": 228, "velocity": 108, "pitch": 48, "instrument": 0, "track": 9, "qtime": 36, "isDrum": true}, {"time": 228, "velocity": 108, "pitch": 62, "instrument": 0, "track": 9, "qtime": 36, "isDrum": true}, {"time": 228, "velocity": 108, "pitch": 70, "instrument": 0, "track": 9, "qtime": 36, "isDrum": true}, {"time": 231, "velocity": 0, "pitch": 42, "instrument": 0, "track": 9, "qtime": 39, "isDrum": true}, {"time": 231, "velocity": 0, "pitch": 48, "instrument": 0, "track": 9, "qtime": 39, "isDrum": true}, {"time": 231, "velocity": 0, "pitch": 62, "instrument": 0, "track": 9, "qtime": 39, "isDrum": true}, {"time": 231, "velocity": 0, "pitch": 70, "instrument": 0, "track": 9, "qtime": 39, "isDrum": true}, {"time": 231, "velocity": 108, "pitch": 70, "instrument": 0, "track": 9, "qtime": 39, "isDrum": true}, {"time": 234, "velocity": 0, "pitch": 70, "instrument": 0, "track": 9, "qtime": 42, "isDrum": true}, {"time": 234, "velocity": 108, "pitch": 42, "instrument": 0, "track": 9, "qtime": 42, "isDrum": true}, {"time": 234, "velocity": 108, "pitch": 70, "instrument": 0, "track": 9, "qtime": 42, "isDrum": true}, {"time": 237, "velocity": 0, "pitch": 42, "instrument": 0, "track": 9, "qtime": 45, "isDrum": true}, {"time": 237, "velocity": 0, "pitch": 70, "instrument": 0, "track": 9, "qtime": 45, "isDrum": true}, {"time": 237, "velocity": 108, "pitch": 70, "instrument": 0, "track": 9, "qtime": 45, "isDrum": true}, {"time": 240, "velocity": 0, "pitch": 70, "instrument": 0, "track": 9, "qtime": 48, "isDrum": true}, {"time": 240, "velocity": 108, "pitch": 35, "instrument": 0, "track": 9, "qtime": 0, "isDrum": true}, {"time": 240, "velocity": 108, "pitch": 42, "instrument": 0, "track": 9, "qtime": 0, "isDrum": true}, {"time": 240, "velocity": 108, "pitch": 70, "instrument": 0, "track": 9, "qtime": 0, "isDrum": true}, {"time": 243, "velocity": 0, "pitch": 35, "instrument": 0, "track": 9, "qtime": 3, "isDrum": true}, {"time": 243, "velocity": 0, "pitch": 42, "instrument": 0, "track": 9, "qtime": 3, "isDrum": true}, {"time": 243, "velocity": 0, "pitch": 70, "instrument": 0, "track": 9, "qtime": 3, "isDrum": true}, {"time": 243, "velocity": 108, "pitch": 70, "instrument": 0, "track": 9, "qtime": 3, "isDrum": true}, {"time": 246, "velocity": 0, "pitch": 70, "instrument": 0, "track": 9, "qtime": 6, "isDrum": true}, {"time": 246, "velocity": 108, "pitch": 42, "instrument": 0, "track": 9, "qtime": 6, "isDrum": true}, {"time": 246, "velocity": 108, "pitch": 70, "instrument": 0, "track": 9, "qtime": 6, "isDrum": true}, {"time": 249, "velocity": 0, "pitch": 42, "instrument": 0, "track": 9, "qtime": 9, "isDrum": true}, {"time": 249, "velocity": 0, "pitch": 70, "instrument": 0, "track": 9, "qtime": 9, "isDrum": true}, {"time": 249, "velocity": 108, "pitch": 70, "instrument": 0, "track": 9, "qtime": 9, "isDrum": true}, {"time": 252, "velocity": 0, "pitch": 70, "instrument": 0, "track": 9, "qtime": 12, "isDrum": true}, {"time": 252, "velocity": 108, "pitch": 42, "instrument": 0, "track": 9, "qtime": 12, "isDrum": true}, {"time": 252, "velocity": 108, "pitch": 62, "instrument": 0, "track": 9, "qtime": 12, "isDrum": true}, {"time": 252, "velocity": 108, "pitch": 70, "instrument": 0, "track": 9, "qtime": 12, "isDrum": true}, {"time": 255, "velocity": 0, "pitch": 42, "instrument": 0, "track": 9, "qtime": 15, "isDrum": true}, {"time": 255, "velocity": 0, "pitch": 62, "instrument": 0, "track": 9, "qtime": 15, "isDrum": true}, {"time": 255, "velocity": 0, "pitch": 70, "instrument": 0, "track": 9, "qtime": 15, "isDrum": true}, {"time": 255, "velocity": 108, "pitch": 70, "instrument": 0, "track": 9, "qtime": 15, "isDrum": true}, {"time": 258, "velocity": 0, "pitch": 70, "instrument": 0, "track": 9, "qtime": 18, "isDrum": true}, {"time": 258, "velocity": 108, "pitch": 35, "instrument": 0, "track": 9, "qtime": 18, "isDrum": true}, {"time": 258, "velocity": 108, "pitch": 42, "instrument": 0, "track": 9, "qtime": 18, "isDrum": true}, {"time": 258, "velocity": 108, "pitch": 70, "instrument": 0, "track": 9, "qtime": 18, "isDrum": true}, {"time": 261, "velocity": 0, "pitch": 35, "instrument": 0, "track": 9, "qtime": 21, "isDrum": true}, {"time": 261, "velocity": 0, "pitch": 42, "instrument": 0, "track": 9, "qtime": 21, "isDrum": true}, {"time": 261, "velocity": 0, "pitch": 70, "instrument": 0, "track": 9, "qtime": 21, "isDrum": true}, {"time": 261, "velocity": 108, "pitch": 70, "instrument": 0, "track": 9, "qtime": 21, "isDrum": true}, {"time": 264, "velocity": 0, "pitch": 70, "instrument": 0, "track": 9, "qtime": 24, "isDrum": true}, {"time": 264, "velocity": 108, "pitch": 35, "instrument": 0, "track": 9, "qtime": 24, "isDrum": true}, {"time": 264, "velocity": 108, "pitch": 42, "instrument": 0, "track": 9, "qtime": 24, "isDrum": true}, {"time": 264, "velocity": 108, "pitch": 70, "instrument": 0, "track": 9, "qtime": 24, "isDrum": true}, {"time": 267, "velocity": 0, "pitch": 35, "instrument": 0, "track": 9, "qtime": 27, "isDrum": true}, {"time": 267, "velocity": 0, "pitch": 42, "instrument": 0, "track": 9, "qtime": 27, "isDrum": true}, {"time": 267, "velocity": 0, "pitch": 70, "instrument": 0, "track": 9, "qtime": 27, "isDrum": true}, {"time": 267, "velocity": 108, "pitch": 70, "instrument": 0, "track": 9, "qtime": 27, "isDrum": true}, {"time": 270, "velocity": 0, "pitch": 70, "instrument": 0, "track": 9, "qtime": 30, "isDrum": true}, {"time": 270, "velocity": 108, "pitch": 42, "instrument": 0, "track": 9, "qtime": 30, "isDrum": true}, {"time": 270, "velocity": 108, "pitch": 70, "instrument": 0, "track": 9, "qtime": 30, "isDrum": true}, {"time": 273, "velocity": 0, "pitch": 42, "instrument": 0, "track": 9, "qtime": 33, "isDrum": true}, {"time": 273, "velocity": 0, "pitch": 70, "instrument": 0, "track": 9, "qtime": 33, "isDrum": true}, {"time": 273, "velocity": 108, "pitch": 70, "instrument": 0, "track": 9, "qtime": 33, "isDrum": true}, {"time": 276, "velocity": 0, "pitch": 70, "instrument": 0, "track": 9, "qtime": 36, "isDrum": true}, {"time": 276, "velocity": 108, "pitch": 42, "instrument": 0, "track": 9, "qtime": 36, "isDrum": true}, {"time": 276, "velocity": 108, "pitch": 48, "instrument": 0, "track": 9, "qtime": 36, "isDrum": true}, {"time": 276, "velocity": 108, "pitch": 70, "instrument": 0, "track": 9, "qtime": 36, "isDrum": true}, {"time": 279, "velocity": 0, "pitch": 42, "instrument": 0, "track": 9, "qtime": 39, "isDrum": true}, {"time": 279, "velocity": 0, "pitch": 48, "instrument": 0, "track": 9, "qtime": 39, "isDrum": true}, {"time": 279, "velocity": 0, "pitch": 70, "instrument": 0, "track": 9, "qtime": 39, "isDrum": true}, {"time": 279, "velocity": 108, "pitch": 70, "instrument": 0, "track": 9, "qtime": 39, "isDrum": true}, {"time": 282, "velocity": 0, "pitch": 70, "instrument": 0, "track": 9, "qtime": 42, "isDrum": true}, {"time": 282, "velocity": 108, "pitch": 42, "instrument": 0, "track": 9, "qtime": 42, "isDrum": true}, {"time": 282, "velocity": 108, "pitch": 70, "instrument": 0, "track": 9, "qtime": 42, "isDrum": true}, {"time": 285, "velocity": 0, "pitch": 42, "instrument": 0, "track": 9, "qtime": 45, "isDrum": true}, {"time": 285, "velocity": 0, "pitch": 70, "instrument": 0, "track": 9, "qtime": 45, "isDrum": true}, {"time": 285, "velocity": 108, "pitch": 70, "instrument": 0, "track": 9, "qtime": 45, "isDrum": true}, {"time": 288, "velocity": 0, "pitch": 70, "instrument": 0, "track": 9, "qtime": 48, "isDrum": true}, {"time": 288, "velocity": 108, "pitch": 35, "instrument": 0, "track": 9, "qtime": 0, "isDrum": true}, {"time": 288, "velocity": 108, "pitch": 42, "instrument": 0, "track": 9, "qtime": 0, "isDrum": true}, {"time": 288, "velocity": 108, "pitch": 70, "instrument": 0, "track": 9, "qtime": 0, "isDrum": true}, {"time": 291, "velocity": 0, "pitch": 35, "instrument": 0, "track": 9, "qtime": 3, "isDrum": true}, {"time": 291, "velocity": 0, "pitch": 42, "instrument": 0, "track": 9, "qtime": 3, "isDrum": true}, {"time": 291, "velocity": 0, "pitch": 70, "instrument": 0, "track": 9, "qtime": 3, "isDrum": true}, {"time": 291, "velocity": 108, "pitch": 70, "instrument": 0, "track": 9, "qtime": 3, "isDrum": true}, {"time": 294, "velocity": 0, "pitch": 70, "instrument": 0, "track": 9, "qtime": 6, "isDrum": true}, {"time": 294, "velocity": 108, "pitch": 42, "instrument": 0, "track": 9, "qtime": 6, "isDrum": true}, {"time": 294, "velocity": 108, "pitch": 70, "instrument": 0, "track": 9, "qtime": 6, "isDrum": true}, {"time": 297, "velocity": 0, "pitch": 42, "instrument": 0, "track": 9, "qtime": 9, "isDrum": true}, {"time": 297, "velocity": 0, "pitch": 70, "instrument": 0, "track": 9, "qtime": 9, "isDrum": true}, {"time": 297, "velocity": 108, "pitch": 70, "instrument": 0, "track": 9, "qtime": 9, "isDrum": true}, {"time": 300, "velocity": 0, "pitch": 70, "instrument": 0, "track": 9, "qtime": 12, "isDrum": true}, {"time": 300, "velocity": 108, "pitch": 42, "instrument": 0, "track": 9, "qtime": 12, "isDrum": true}, {"time": 300, "velocity": 108, "pitch": 62, "instrument": 0, "track": 9, "qtime": 12, "isDrum": true}, {"time": 300, "velocity": 108, "pitch": 70, "instrument": 0, "track": 9, "qtime": 12, "isDrum": true}, {"time": 303, "velocity": 0, "pitch": 42, "instrument": 0, "track": 9, "qtime": 15, "isDrum": true}, {"time": 303, "velocity": 0, "pitch": 62, "instrument": 0, "track": 9, "qtime": 15, "isDrum": true}, {"time": 303, "velocity": 0, "pitch": 70, "instrument": 0, "track": 9, "qtime": 15, "isDrum": true}, {"time": 303, "velocity": 108, "pitch": 70, "instrument": 0, "track": 9, "qtime": 15, "isDrum": true}, {"time": 306, "velocity": 0, "pitch": 70, "instrument": 0, "track": 9, "qtime": 18, "isDrum": true}, {"time": 306, "velocity": 108, "pitch": 42, "instrument": 0, "track": 9, "qtime": 18, "isDrum": true}, {"time": 306, "velocity": 108, "pitch": 70, "instrument": 0, "track": 9, "qtime": 18, "isDrum": true}, {"time": 309, "velocity": 0, "pitch": 42, "instrument": 0, "track": 9, "qtime": 21, "isDrum": true}, {"time": 309, "velocity": 0, "pitch": 70, "instrument": 0, "track": 9, "qtime": 21, "isDrum": true}, {"time": 309, "velocity": 108, "pitch": 70, "instrument": 0, "track": 9, "qtime": 21, "isDrum": true}, {"time": 312, "velocity": 0, "pitch": 70, "instrument": 0, "track": 9, "qtime": 24, "isDrum": true}, {"time": 312, "velocity": 108, "pitch": 35, "instrument": 0, "track": 9, "qtime": 24, "isDrum": true}, {"time": 312, "velocity": 108, "pitch": 42, "instrument": 0, "track": 9, "qtime": 24, "isDrum": true}, {"time": 312, "velocity": 108, "pitch": 70, "instrument": 0, "track": 9, "qtime": 24, "isDrum": true}, {"time": 315, "velocity": 0, "pitch": 35, "instrument": 0, "track": 9, "qtime": 27, "isDrum": true}, {"time": 315, "velocity": 0, "pitch": 42, "instrument": 0, "track": 9, "qtime": 27, "isDrum": true}, {"time": 315, "velocity": 0, "pitch": 70, "instrument": 0, "track": 9, "qtime": 27, "isDrum": true}, {"time": 315, "velocity": 108, "pitch": 70, "instrument": 0, "track": 9, "qtime": 27, "isDrum": true}, {"time": 318, "velocity": 0, "pitch": 70, "instrument": 0, "track": 9, "qtime": 30, "isDrum": true}, {"time": 318, "velocity": 108, "pitch": 42, "instrument": 0, "track": 9, "qtime": 30, "isDrum": true}, {"time": 318, "velocity": 108, "pitch": 70, "instrument": 0, "track": 9, "qtime": 30, "isDrum": true}, {"time": 321, "velocity": 0, "pitch": 42, "instrument": 0, "track": 9, "qtime": 33, "isDrum": true}, {"time": 321, "velocity": 0, "pitch": 70, "instrument": 0, "track": 9, "qtime": 33, "isDrum": true}, {"time": 321, "velocity": 108, "pitch": 70, "instrument": 0, "track": 9, "qtime": 33, "isDrum": true}, {"time": 324, "velocity": 0, "pitch": 70, "instrument": 0, "track": 9, "qtime": 36, "isDrum": true}, {"time": 324, "velocity": 108, "pitch": 42, "instrument": 0, "track": 9, "qtime": 36, "isDrum": true}, {"time": 324, "velocity": 108, "pitch": 62, "instrument": 0, "track": 9, "qtime": 36, "isDrum": true}, {"time": 324, "velocity": 108, "pitch": 70, "instrument": 0, "track": 9, "qtime": 36, "isDrum": true}, {"time": 327, "velocity": 0, "pitch": 42, "instrument": 0, "track": 9, "qtime": 39, "isDrum": true}, {"time": 327, "velocity": 0, "pitch": 62, "instrument": 0, "track": 9, "qtime": 39, "isDrum": true}, {"time": 327, "velocity": 0, "pitch": 70, "instrument": 0, "track": 9, "qtime": 39, "isDrum": true}, {"time": 327, "velocity": 108, "pitch": 70, "instrument": 0, "track": 9, "qtime": 39, "isDrum": true}, {"time": 330, "velocity": 0, "pitch": 70, "instrument": 0, "track": 9, "qtime": 42, "isDrum": true}, {"time": 330, "velocity": 108, "pitch": 42, "instrument": 0, "track": 9, "qtime": 42, "isDrum": true}, {"time": 330, "velocity": 108, "pitch": 70, "instrument": 0, "track": 9, "qtime": 42, "isDrum": true}, {"time": 333, "velocity": 0, "pitch": 42, "instrument": 0, "track": 9, "qtime": 45, "isDrum": true}, {"time": 333, "velocity": 0, "pitch": 70, "instrument": 0, "track": 9, "qtime": 45, "isDrum": true}, {"time": 333, "velocity": 108, "pitch": 70, "instrument": 0, "track": 9, "qtime": 45, "isDrum": true}, {"time": 336, "velocity": 0, "pitch": 70, "instrument": 0, "track": 9, "qtime": 48, "isDrum": true}, {"time": 336, "velocity": 108, "pitch": 35, "instrument": 0, "track": 9, "qtime": 0, "isDrum": true}, {"time": 336, "velocity": 108, "pitch": 42, "instrument": 0, "track": 9, "qtime": 0, "isDrum": true}, {"time": 336, "velocity": 108, "pitch": 70, "instrument": 0, "track": 9, "qtime": 0, "isDrum": true}, {"time": 339, "velocity": 0, "pitch": 35, "instrument": 0, "track": 9, "qtime": 3, "isDrum": true}, {"time": 339, "velocity": 0, "pitch": 42, "instrument": 0, "track": 9, "qtime": 3, "isDrum": true}, {"time": 339, "velocity": 0, "pitch": 70, "instrument": 0, "track": 9, "qtime": 3, "isDrum": true}, {"time": 339, "velocity": 108, "pitch": 70, "instrument": 0, "track": 9, "qtime": 3, "isDrum": true}, {"time": 342, "velocity": 0, "pitch": 70, "instrument": 0, "track": 9, "qtime": 6, "isDrum": true}, {"time": 342, "velocity": 108, "pitch": 42, "instrument": 0, "track": 9, "qtime": 6, "isDrum": true}, {"time": 342, "velocity": 108, "pitch": 70, "instrument": 0, "track": 9, "qtime": 6, "isDrum": true}, {"time": 345, "velocity": 0, "pitch": 42, "instrument": 0, "track": 9, "qtime": 9, "isDrum": true}, {"time": 345, "velocity": 0, "pitch": 70, "instrument": 0, "track": 9, "qtime": 9, "isDrum": true}, {"time": 345, "velocity": 108, "pitch": 70, "instrument": 0, "track": 9, "qtime": 9, "isDrum": true}, {"time": 348, "velocity": 0, "pitch": 70, "instrument": 0, "track": 9, "qtime": 12, "isDrum": true}, {"time": 348, "velocity": 108, "pitch": 42, "instrument": 0, "track": 9, "qtime": 12, "isDrum": true}, {"time": 348, "velocity": 108, "pitch": 62, "instrument": 0, "track": 9, "qtime": 12, "isDrum": true}, {"time": 348, "velocity": 108, "pitch": 70, "instrument": 0, "track": 9, "qtime": 12, "isDrum": true}, {"time": 351, "velocity": 0, "pitch": 42, "instrument": 0, "track": 9, "qtime": 15, "isDrum": true}, {"time": 351, "velocity": 0, "pitch": 62, "instrument": 0, "track": 9, "qtime": 15, "isDrum": true}, {"time": 351, "velocity": 0, "pitch": 70, "instrument": 0, "track": 9, "qtime": 15, "isDrum": true}, {"time": 351, "velocity": 108, "pitch": 70, "instrument": 0, "track": 9, "qtime": 15, "isDrum": true}, {"time": 354, "velocity": 0, "pitch": 70, "instrument": 0, "track": 9, "qtime": 18, "isDrum": true}, {"time": 354, "velocity": 108, "pitch": 35, "instrument": 0, "track": 9, "qtime": 18, "isDrum": true}, {"time": 354, "velocity": 108, "pitch": 42, "instrument": 0, "track": 9, "qtime": 18, "isDrum": true}, {"time": 354, "velocity": 108, "pitch": 70, "instrument": 0, "track": 9, "qtime": 18, "isDrum": true}, {"time": 357, "velocity": 0, "pitch": 35, "instrument": 0, "track": 9, "qtime": 21, "isDrum": true}, {"time": 357, "velocity": 0, "pitch": 42, "instrument": 0, "track": 9, "qtime": 21, "isDrum": true}, {"time": 357, "velocity": 0, "pitch": 70, "instrument": 0, "track": 9, "qtime": 21, "isDrum": true}, {"time": 357, "velocity": 108, "pitch": 70, "instrument": 0, "track": 9, "qtime": 21, "isDrum": true}, {"time": 360, "velocity": 0, "pitch": 70, "instrument": 0, "track": 9, "qtime": 24, "isDrum": true}, {"time": 360, "velocity": 108, "pitch": 35, "instrument": 0, "track": 9, "qtime": 24, "isDrum": true}, {"time": 360, "velocity": 108, "pitch": 42, "instrument": 0, "track": 9, "qtime": 24, "isDrum": true}, {"time": 360, "velocity": 108, "pitch": 70, "instrument": 0, "track": 9, "qtime": 24, "isDrum": true}, {"time": 363, "velocity": 0, "pitch": 35, "instrument": 0, "track": 9, "qtime": 27, "isDrum": true}, {"time": 363, "velocity": 0, "pitch": 42, "instrument": 0, "track": 9, "qtime": 27, "isDrum": true}, {"time": 363, "velocity": 0, "pitch": 70, "instrument": 0, "track": 9, "qtime": 27, "isDrum": true}, {"time": 363, "velocity": 108, "pitch": 70, "instrument": 0, "track": 9, "qtime": 27, "isDrum": true}, {"time": 366, "velocity": 0, "pitch": 70, "instrument": 0, "track": 9, "qtime": 30, "isDrum": true}, {"time": 366, "velocity": 108, "pitch": 42, "instrument": 0, "track": 9, "qtime": 30, "isDrum": true}, {"time": 366, "velocity": 108, "pitch": 70, "instrument": 0, "track": 9, "qtime": 30, "isDrum": true}, {"time": 369, "velocity": 0, "pitch": 42, "instrument": 0, "track": 9, "qtime": 33, "isDrum": true}, {"time": 369, "velocity": 0, "pitch": 70, "instrument": 0, "track": 9, "qtime": 33, "isDrum": true}, {"time": 369, "velocity": 108, "pitch": 69, "instrument": 0, "track": 9, "qtime": 33, "isDrum": true}, {"time": 372, "velocity": 0, "pitch": 69, "instrument": 0, "track": 9, "qtime": 36, "isDrum": true}, {"time": 372, "velocity": 108, "pitch": 37, "instrument": 0, "track": 9, "qtime": 36, "isDrum": true}, {"time": 372, "velocity": 108, "pitch": 42, "instrument": 0, "track": 9, "qtime": 36, "isDrum": true}, {"time": 372, "velocity": 108, "pitch": 62, "instrument": 0, "track": 9, "qtime": 36, "isDrum": true}, {"time": 372, "velocity": 108, "pitch": 70, "instrument": 0, "track": 9, "qtime": 36, "isDrum": true}, {"time": 375, "velocity": 0, "pitch": 37, "instrument": 0, "track": 9, "qtime": 39, "isDrum": true}, {"time": 375, "velocity": 0, "pitch": 42, "instrument": 0, "track": 9, "qtime": 39, "isDrum": true}, {"time": 375, "velocity": 0, "pitch": 62, "instrument": 0, "track": 9, "qtime": 39, "isDrum": true}, {"time": 375, "velocity": 0, "pitch": 70, "instrument": 0, "track": 9, "qtime": 39, "isDrum": true}, {"time": 375, "velocity": 108, "pitch": 70, "instrument": 0, "track": 9, "qtime": 39, "isDrum": true}, {"time": 378, "velocity": 0, "pitch": 70, "instrument": 0, "track": 9, "qtime": 42, "isDrum": true}, {"time": 378, "velocity": 108, "pitch": 42, "instrument": 0, "track": 9, "qtime": 42, "isDrum": true}, {"time": 378, "velocity": 108, "pitch": 70, "instrument": 0, "track": 9, "qtime": 42, "isDrum": true}, {"time": 381, "velocity": 0, "pitch": 42, "instrument": 0, "track": 9, "qtime": 45, "isDrum": true}, {"time": 381, "velocity": 0, "pitch": 70, "instrument": 0, "track": 9, "qtime": 45, "isDrum": true}, {"time": 0, "velocity": 108, "pitch": 63, "instrument": 65, "track": 3, "qtime": 0, "isDrum": false}, {"time": 21, "velocity": 0, "pitch": 63, "instrument": 65, "track": 3, "qtime": 21, "isDrum": false}, {"time": 43, "velocity": 108, "pitch": 66, "instrument": 65, "track": 3, "qtime": 43, "isDrum": false}, {"time": 48, "velocity": 0, "pitch": 66, "instrument": 65, "track": 3, "qtime": 48, "isDrum": false}, {"time": 48, "velocity": 108, "pitch": 66, "instrument": 65, "track": 3, "qtime": 0, "isDrum": false}, {"time": 64, "velocity": 0, "pitch": 66, "instrument": 65, "track": 3, "qtime": 16, "isDrum": false}, {"time": 66, "velocity": 108, "pitch": 68, "instrument": 65, "track": 3, "qtime": 18, "isDrum": false}, {"time": 71, "velocity": 0, "pitch": 68, "instrument": 65, "track": 3, "qtime": 23, "isDrum": false}, {"time": 72, "velocity": 108, "pitch": 66, "instrument": 65, "track": 3, "qtime": 24, "isDrum": false}, {"time": 78, "velocity": 0, "pitch": 66, "instrument": 65, "track": 3, "qtime": 30, "isDrum": false}, {"time": 78, "velocity": 108, "pitch": 63, "instrument": 65, "track": 3, "qtime": 30, "isDrum": false}, {"time": 84, "velocity": 0, "pitch": 63, "instrument": 65, "track": 3, "qtime": 36, "isDrum": false}, {"time": 84, "velocity": 108, "pitch": 66, "instrument": 65, "track": 3, "qtime": 36, "isDrum": false}, {"time": 90, "velocity": 0, "pitch": 66, "instrument": 65, "track": 3, "qtime": 42, "isDrum": false}, {"time": 90, "velocity": 108, "pitch": 63, "instrument": 65, "track": 3, "qtime": 42, "isDrum": false}, {"time": 93, "velocity": 0, "pitch": 63, "instrument": 65, "track": 3, "qtime": 45, "isDrum": false}, {"time": 96, "velocity": 108, "pitch": 70, "instrument": 65, "track": 3, "qtime": 0, "isDrum": false}, {"time": 108, "velocity": 0, "pitch": 70, "instrument": 65, "track": 3, "qtime": 12, "isDrum": false}, {"time": 109, "velocity": 108, "pitch": 70, "instrument": 65, "track": 3, "qtime": 13, "isDrum": false}, {"time": 112, "velocity": 0, "pitch": 70, "instrument": 65, "track": 3, "qtime": 16, "isDrum": false}, {"time": 113, "velocity": 108, "pitch": 70, "instrument": 65, "track": 3, "qtime": 17, "isDrum": false}, {"time": 119, "velocity": 0, "pitch": 70, "instrument": 65, "track": 3, "qtime": 23, "isDrum": false}, {"time": 120, "velocity": 108, "pitch": 71, "instrument": 65, "track": 3, "qtime": 24, "isDrum": false}, {"time": 125, "velocity": 0, "pitch": 71, "instrument": 65, "track": 3, "qtime": 29, "isDrum": false}, {"time": 127, "velocity": 108, "pitch": 70, "instrument": 65, "track": 3, "qtime": 31, "isDrum": false}, {"time": 134, "velocity": 0, "pitch": 70, "instrument": 65, "track": 3, "qtime": 38, "isDrum": false}, {"time": 137, "velocity": 108, "pitch": 66, "instrument": 65, "track": 3, "qtime": 41, "isDrum": false}, {"time": 140, "velocity": 0, "pitch": 66, "instrument": 65, "track": 3, "qtime": 44, "isDrum": false}, {"time": 141, "velocity": 108, "pitch": 66, "instrument": 65, "track": 3, "qtime": 45, "isDrum": false}, {"time": 144, "velocity": 108, "pitch": 68, "instrument": 65, "track": 3, "qtime": 0, "isDrum": false}, {"time": 145, "velocity": 0, "pitch": 66, "instrument": 65, "track": 3, "qtime": 1, "isDrum": false}, {"time": 150, "velocity": 0, "pitch": 68, "instrument": 65, "track": 3, "qtime": 6, "isDrum": false}, {"time": 152, "velocity": 108, "pitch": 66, "instrument": 65, "track": 3, "qtime": 8, "isDrum": false}, {"time": 159, "velocity": 0, "pitch": 66, "instrument": 65, "track": 3, "qtime": 15, "isDrum": false}, {"time": 160, "velocity": 108, "pitch": 63, "instrument": 65, "track": 3, "qtime": 16, "isDrum": false}, {"time": 164, "velocity": 0, "pitch": 63, "instrument": 65, "track": 3, "qtime": 20, "isDrum": false}, {"time": 164, "velocity": 108, "pitch": 58, "instrument": 65, "track": 3, "qtime": 20, "isDrum": false}, {"time": 168, "velocity": 0, "pitch": 58, "instrument": 65, "track": 3, "qtime": 24, "isDrum": false}, {"time": 168, "velocity": 108, "pitch": 61, "instrument": 65, "track": 3, "qtime": 24, "isDrum": false}, {"time": 184, "velocity": 0, "pitch": 61, "instrument": 65, "track": 3, "qtime": 40, "isDrum": false}, {"time": 184, "velocity": 108, "pitch": 59, "instrument": 65, "track": 3, "qtime": 40, "isDrum": false}, {"time": 188, "velocity": 0, "pitch": 59, "instrument": 65, "track": 3, "qtime": 44, "isDrum": false}, {"time": 188, "velocity": 108, "pitch": 66, "instrument": 65, "track": 3, "qtime": 44, "isDrum": false}, {"time": 192, "velocity": 0, "pitch": 66, "instrument": 65, "track": 3, "qtime": 48, "isDrum": false}, {"time": 193, "velocity": 108, "pitch": 66, "instrument": 65, "track": 3, "qtime": 1, "isDrum": false}, {"time": 215, "velocity": 0, "pitch": 66, "instrument": 65, "track": 3, "qtime": 23, "isDrum": false}, {"time": 223, "velocity": 108, "pitch": 63, "instrument": 65, "track": 3, "qtime": 31, "isDrum": false}, {"time": 230, "velocity": 108, "pitch": 66, "instrument": 65, "track": 3, "qtime": 38, "isDrum": false}, {"time": 231, "velocity": 0, "pitch": 63, "instrument": 65, "track": 3, "qtime": 39, "isDrum": false}, {"time": 236, "velocity": 0, "pitch": 66, "instrument": 65, "track": 3, "qtime": 44, "isDrum": false}, {"time": 236, "velocity": 108, "pitch": 71, "instrument": 65, "track": 3, "qtime": 44, "isDrum": false}, {"time": 241, "velocity": 0, "pitch": 71, "instrument": 65, "track": 3, "qtime": 49, "isDrum": false}, {"time": 240, "velocity": 108, "pitch": 71, "instrument": 65, "track": 3, "qtime": 0, "isDrum": false}, {"time": 257, "velocity": 0, "pitch": 71, "instrument": 65, "track": 3, "qtime": 17, "isDrum": false}, {"time": 258, "velocity": 108, "pitch": 71, "instrument": 65, "track": 3, "qtime": 18, "isDrum": false}, {"time": 263, "velocity": 0, "pitch": 71, "instrument": 65, "track": 3, "qtime": 23, "isDrum": false}, {"time": 264, "velocity": 108, "pitch": 71, "instrument": 65, "track": 3, "qtime": 24, "isDrum": false}, {"time": 269, "velocity": 0, "pitch": 71, "instrument": 65, "track": 3, "qtime": 29, "isDrum": false}, {"time": 271, "velocity": 108, "pitch": 76, "instrument": 65, "track": 3, "qtime": 31, "isDrum": false}, {"time": 284, "velocity": 0, "pitch": 76, "instrument": 65, "track": 3, "qtime": 44, "isDrum": false}, {"time": 289, "velocity": 108, "pitch": 71, "instrument": 65, "track": 3, "qtime": 1, "isDrum": false}, {"time": 324, "velocity": 0, "pitch": 71, "instrument": 65, "track": 3, "qtime": 36, "isDrum": false}, {"time": 326, "velocity": 108, "pitch": 68, "instrument": 65, "track": 3, "qtime": 38, "isDrum": false}, {"time": 333, "velocity": 0, "pitch": 68, "instrument": 65, "track": 3, "qtime": 45, "isDrum": false}, {"time": 333, "velocity": 108, "pitch": 70, "instrument": 65, "track": 3, "qtime": 45, "isDrum": false}, {"time": 337, "velocity": 0, "pitch": 70, "instrument": 65, "track": 3, "qtime": 49, "isDrum": false}, {"time": 336, "velocity": 108, "pitch": 68, "instrument": 65, "track": 3, "qtime": 0, "isDrum": false}, {"time": 352, "velocity": 0, "pitch": 68, "instrument": 65, "track": 3, "qtime": 16, "isDrum": false}, {"time": 354, "velocity": 108, "pitch": 70, "instrument": 65, "track": 3, "qtime": 18, "isDrum": false}, {"time": 359, "velocity": 0, "pitch": 70, "instrument": 65, "track": 3, "qtime": 23, "isDrum": false}, {"time": 360, "velocity": 108, "pitch": 68, "instrument": 65, "track": 3, "qtime": 24, "isDrum": false}, {"time": 366, "velocity": 0, "pitch": 68, "instrument": 65, "track": 3, "qtime": 30, "isDrum": false}, {"time": 366, "velocity": 108, "pitch": 66, "instrument": 65, "track": 3, "qtime": 30, "isDrum": false}, {"time": 372, "velocity": 0, "pitch": 66, "instrument": 65, "track": 3, "qtime": 36, "isDrum": false}, {"time": 372, "velocity": 108, "pitch": 63, "instrument": 65, "track": 3, "qtime": 36, "isDrum": false}, {"time": 378, "velocity": 0, "pitch": 63, "instrument": 65, "track": 3, "qtime": 42, "isDrum": false}, {"time": 378, "velocity": 108, "pitch": 61, "instrument": 65, "track": 3, "qtime": 42, "isDrum": false}, {"time": 384, "velocity": 0, "pitch": 61, "instrument": 65, "track": 3, "qtime": 48, "isDrum": false}], "resolution": 12, "tempo": 120, "minPitch": 34, "maxPitch": 78, "validSegments": [0], "validTracks": [15]}, "audio": "https://www.sfu.ca/~jeffe/examples/8b_uncond_1.mp3"}, {"src": "gen/uncond_1.json", "highlights": [[], [], [], [], [], [], [], []], "caption": "", "sample_id": "4a", "mixer": [8, 8, 8, 8, 8, 8, 8, 8], "json": {"tracks": [{"bars": [{"events": [0, 1, 2, 3, 4, 5, 6, 7], "isFourFour": true, "hasNotes": true, "time": 0}, {"events": [8, 9, 10, 11, 12, 13, 14, 15], "isFourFour": true, "hasNotes": true, "time": 48}, {"events": [16, 17, 18, 19, 20, 21, 22, 23], "isFourFour": true, "hasNotes": true, "time": 96}, {"events": [24, 25, 26, 27, 28, 29, 30, 31], "isFourFour": true, "hasNotes": true, "time": 144}], "isDrum": true, "minPitch": 36, "maxPitch": 36, "instrument": 24, "avPolyphony": 1, "noteDensity": 4, "noteDensityV2": 2}, {"bars": [{"events": [32, 33, 34, 35], "isFourFour": true, "hasNotes": true, "time": 0}, {"events": [36, 37, 38, 39], "isFourFour": true, "hasNotes": true, "time": 48}, {"events": [40, 41, 42, 43], "isFourFour": true, "hasNotes": true, "time": 96}, {"events": [44, 45, 46, 47], "isFourFour": true, "hasNotes": true, "time": 144}], "isDrum": true, "minPitch": 38, "maxPitch": 38, "instrument": 24, "avPolyphony": 1, "noteDensity": 1, "noteDensityV2": 0}, {"bars": [{"events": [48, 49, 50, 51, 52, 53, 54, 55], "isFourFour": true, "hasNotes": true, "time": 0}, {"events": [56, 57, 58, 59, 60, 61, 62, 63, 64, 65, 66, 67, 68, 69, 70, 71], "isFourFour": true, "hasNotes": true, "time": 48}, {"events": [72, 73, 74, 75, 76, 77, 78, 79, 80, 81, 82, 83, 84, 85, 86, 87], "isFourFour": true, "hasNotes": true, "time": 96}, {"events": [88, 89, 90, 91, 92, 93, 94, 95, 96, 97, 98, 99, 100, 101, 102, 103], "isFourFour": true, "hasNotes": true, "time": 144}], "isDrum": false, "minPitch": 36, "maxPitch": 46, "instrument": 38, "avPolyphony": 1, "noteDensity": 8, "noteDensityV2": 4}, {"bars": [{"events": [104, 105, 106, 107, 108, 109, 110, 111, 112, 113, 114, 115, 116, 117, 118, 119, 120, 121, 122, 123, 124, 125, 126, 127, 128, 129, 130, 131, 132, 133, 134, 135, 136, 137, 138, 139, 140, 141, 142, 143, 144, 145, 146, 147, 148, 149, 150, 151], "isFourFour": true, "hasNotes": true, "time": 0}, {"events": [152, 153, 154, 155, 156, 157, 158, 159, 160, 161, 162, 163, 164, 165, 166, 167, 168, 169, 170, 171, 172, 173, 174, 175, 176, 177, 178, 179, 180, 181, 182, 183, 184, 185, 186, 187, 188, 189, 190, 191, 192, 193, 194, 195, 196, 197, 198, 199], "isFourFour": true, "hasNotes": true, "time": 48}, {"events": [200, 201, 202, 203, 204, 205, 206, 207, 208, 209, 210, 211, 212, 213, 214, 215, 216, 217, 218, 219, 220, 221, 222, 223, 224, 225, 226, 227, 228, 229, 230, 231, 232, 233, 234, 235, 236, 237, 238, 239, 240, 241, 242, 243, 244, 245, 246, 247], "isFourFour": true, "hasNotes": true, "time": 96}, {"events": [248, 249, 250, 251, 252, 253, 254, 255, 256, 257, 258, 259, 260, 261, 262, 263, 264, 265, 266, 267, 268, 269, 270, 271, 272, 273, 274, 275, 276, 277, 278, 279, 280, 281, 282, 283, 284, 285, 286, 287, 288, 289, 290, 291, 292, 293, 294, 295], "isFourFour": true, "hasNotes": true, "time": 144}], "isDrum": false, "minPitch": 43, "maxPitch": 62, "instrument": 28, "avPolyphony": 3, "noteDensity": 9, "noteDensityV2": 9}], "events": [{"time": 0, "velocity": 108, "pitch": 36, "instrument": 24, "track": 9, "qtime": 0, "isDrum": true}, {"time": 12, "velocity": 0, "pitch": 36, "instrument": 24, "track": 9, "qtime": 12, "isDrum": true}, {"time": 12, "velocity": 108, "pitch": 36, "instrument": 24, "track": 9, "qtime": 12, "isDrum": true}, {"time": 24, "velocity": 0, "pitch": 36, "instrument": 24, "track": 9, "qtime": 24, "isDrum": true}, {"time": 24, "velocity": 108, "pitch": 36, "instrument": 24, "track": 9, "qtime": 24, "isDrum": true}, {"time": 36, "velocity": 0, "pitch": 36, "instrument": 24, "track": 9, "qtime": 36, "isDrum": true}, {"time": 36, "velocity": 108, "pitch": 36, "instrument": 24, "track": 9, "qtime": 36, "isDrum": true}, {"time": 48, "velocity": 0, "pitch": 36, "instrument": 24, "track": 9, "qtime": 48, "isDrum": true}, {"time": 48, "velocity": 108, "pitch": 36, "instrument": 24, "track": 9, "qtime": 0, "isDrum": true}, {"time": 60, "velocity": 0, "pitch": 36, "instrument": 24, "track": 9, "qtime": 12, "isDrum": true}, {"time": 60, "velocity": 108, "pitch": 36, "instrument": 24, "track": 9, "qtime": 12, "isDrum": true}, {"time": 72, "velocity": 0, "pitch": 36, "instrument": 24, "track": 9, "qtime": 24, "isDrum": true}, {"time": 72, "velocity": 108, "pitch": 36, "instrument": 24, "track": 9, "qtime": 24, "isDrum": true}, {"time": 84, "velocity": 0, "pitch": 36, "instrument": 24, "track": 9, "qtime": 36, "isDrum": true}, {"time": 84, "velocity": 108, "pitch": 36, "instrument": 24, "track": 9, "qtime": 36, "isDrum": true}, {"time": 96, "velocity": 0, "pitch": 36, "instrument": 24, "track": 9, "qtime": 48, "isDrum": true}, {"time": 96, "velocity": 108, "pitch": 36, "instrument": 24, "track": 9, "qtime": 0, "isDrum": true}, {"time": 108, "velocity": 0, "pitch": 36, "instrument": 24, "track": 9, "qtime": 12, "isDrum": true}, {"time": 108, "velocity": 108, "pitch": 36, "instrument": 24, "track": 9, "qtime": 12, "isDrum": true}, {"time": 120, "velocity": 0, "pitch": 36, "instrument": 24, "track": 9, "qtime": 24, "isDrum": true}, {"time": 120, "velocity": 108, "pitch": 36, "instrument": 24, "track": 9, "qtime": 24, "isDrum": true}, {"time": 132, "velocity": 0, "pitch": 36, "instrument": 24, "track": 9, "qtime": 36, "isDrum": true}, {"time": 132, "velocity": 108, "pitch": 36, "instrument": 24, "track": 9, "qtime": 36, "isDrum": true}, {"time": 144, "velocity": 0, "pitch": 36, "instrument": 24, "track": 9, "qtime": 48, "isDrum": true}, {"time": 144, "velocity": 108, "pitch": 36, "instrument": 24, "track": 9, "qtime": 0, "isDrum": true}, {"time": 156, "velocity": 0, "pitch": 36, "instrument": 24, "track": 9, "qtime": 12, "isDrum": true}, {"time": 156, "velocity": 108, "pitch": 36, "instrument": 24, "track": 9, "qtime": 12, "isDrum": true}, {"time": 168, "velocity": 0, "pitch": 36, "instrument": 24, "track": 9, "qtime": 24, "isDrum": true}, {"time": 168, "velocity": 108, "pitch": 36, "instrument": 24, "track": 9, "qtime": 24, "isDrum": true}, {"time": 180, "velocity": 0, "pitch": 36, "instrument": 24, "track": 9, "qtime": 36, "isDrum": true}, {"time": 180, "velocity": 108, "pitch": 36, "instrument": 24, "track": 9, "qtime": 36, "isDrum": true}, {"time": 192, "velocity": 0, "pitch": 36, "instrument": 24, "track": 9, "qtime": 48, "isDrum": true}, {"time": 12, "velocity": 108, "pitch": 38, "instrument": 24, "track": 9, "qtime": 12, "isDrum": true}, {"time": 24, "velocity": 0, "pitch": 38, "instrument": 24, "track": 9, "qtime": 24, "isDrum": true}, {"time": 36, "velocity": 108, "pitch": 38, "instrument": 24, "track": 9, "qtime": 36, "isDrum": true}, {"time": 48, "velocity": 0, "pitch": 38, "instrument": 24, "track": 9, "qtime": 48, "isDrum": true}, {"time": 60, "velocity": 108, "pitch": 38, "instrument": 24, "track": 9, "qtime": 12, "isDrum": true}, {"time": 72, "velocity": 0, "pitch": 38, "instrument": 24, "track": 9, "qtime": 24, "isDrum": true}, {"time": 84, "velocity": 108, "pitch": 38, "instrument": 24, "track": 9, "qtime": 36, "isDrum": true}, {"time": 96, "velocity": 0, "pitch": 38, "instrument": 24, "track": 9, "qtime": 48, "isDrum": true}, {"time": 108, "velocity": 108, "pitch": 38, "instrument": 24, "track": 9, "qtime": 12, "isDrum": true}, {"time": 120, "velocity": 0, "pitch": 38, "instrument": 24, "track": 9, "qtime": 24, "isDrum": true}, {"time": 132, "velocity": 108, "pitch": 38, "instrument": 24, "track": 9, "qtime": 36, "isDrum": true}, {"time": 144, "velocity": 0, "pitch": 38, "instrument": 24, "track": 9, "qtime": 48, "isDrum": true}, {"time": 156, "velocity": 108, "pitch": 38, "instrument": 24, "track": 9, "qtime": 12, "isDrum": true}, {"time": 168, "velocity": 0, "pitch": 38, "instrument": 24, "track": 9, "qtime": 24, "isDrum": true}, {"time": 180, "velocity": 108, "pitch": 38, "instrument": 24, "track": 9, "qtime": 36, "isDrum": true}, {"time": 192, "velocity": 0, "pitch": 38, "instrument": 24, "track": 9, "qtime": 48, "isDrum": true}, {"time": 0, "velocity": 108, "pitch": 46, "instrument": 38, "track": 2, "qtime": 0, "isDrum": false}, {"time": 12, "velocity": 0, "pitch": 46, "instrument": 38, "track": 2, "qtime": 12, "isDrum": false}, {"time": 12, "velocity": 108, "pitch": 46, "instrument": 38, "track": 2, "qtime": 12, "isDrum": false}, {"time": 24, "velocity": 0, "pitch": 46, "instrument": 38, "track": 2, "qtime": 24, "isDrum": false}, {"time": 24, "velocity": 108, "pitch": 46, "instrument": 38, "track": 2, "qtime": 24, "isDrum": false}, {"time": 36, "velocity": 0, "pitch": 46, "instrument": 38, "track": 2, "qtime": 36, "isDrum": false}, {"time": 36, "velocity": 108, "pitch": 46, "instrument": 38, "track": 2, "qtime": 36, "isDrum": false}, {"time": 48, "velocity": 0, "pitch": 46, "instrument": 38, "track": 2, "qtime": 48, "isDrum": false}, {"time": 48, "velocity": 108, "pitch": 43, "instrument": 38, "track": 2, "qtime": 0, "isDrum": false}, {"time": 54, "velocity": 0, "pitch": 43, "instrument": 38, "track": 2, "qtime": 6, "isDrum": false}, {"time": 54, "velocity": 108, "pitch": 43, "instrument": 38, "track": 2, "qtime": 6, "isDrum": false}, {"time": 60, "velocity": 0, "pitch": 43, "instrument": 38, "track": 2, "qtime": 12, "isDrum": false}, {"time": 60, "velocity": 108, "pitch": 43, "instrument": 38, "track": 2, "qtime": 12, "isDrum": false}, {"time": 66, "velocity": 0, "pitch": 43, "instrument": 38, "track": 2, "qtime": 18, "isDrum": false}, {"time": 66, "velocity": 108, "pitch": 43, "instrument": 38, "track": 2, "qtime": 18, "isDrum": false}, {"time": 72, "velocity": 0, "pitch": 43, "instrument": 38, "track": 2, "qtime": 24, "isDrum": false}, {"time": 72, "velocity": 108, "pitch": 43, "instrument": 38, "track": 2, "qtime": 24, "isDrum": false}, {"time": 78, "velocity": 0, "pitch": 43, "instrument": 38, "track": 2, "qtime": 30, "isDrum": false}, {"time": 78, "velocity": 108, "pitch": 43, "instrument": 38, "track": 2, "qtime": 30, "isDrum": false}, {"time": 84, "velocity": 0, "pitch": 43, "instrument": 38, "track": 2, "qtime": 36, "isDrum": false}, {"time": 84, "velocity": 108, "pitch": 43, "instrument": 38, "track": 2, "qtime": 36, "isDrum": false}, {"time": 90, "velocity": 0, "pitch": 43, "instrument": 38, "track": 2, "qtime": 42, "isDrum": false}, {"time": 90, "velocity": 108, "pitch": 43, "instrument": 38, "track": 2, "qtime": 42, "isDrum": false}, {"time": 96, "velocity": 0, "pitch": 43, "instrument": 38, "track": 2, "qtime": 48, "isDrum": false}, {"time": 96, "velocity": 108, "pitch": 36, "instrument": 38, "track": 2, "qtime": 0, "isDrum": false}, {"time": 102, "velocity": 0, "pitch": 36, "instrument": 38, "track": 2, "qtime": 6, "isDrum": false}, {"time": 102, "velocity": 108, "pitch": 36, "instrument": 38, "track": 2, "qtime": 6, "isDrum": false}, {"time": 108, "velocity": 0, "pitch": 36, "instrument": 38, "track": 2, "qtime": 12, "isDrum": false}, {"time": 108, "velocity": 108, "pitch": 36, "instrument": 38, "track": 2, "qtime": 12, "isDrum": false}, {"time": 114, "velocity": 0, "pitch": 36, "instrument": 38, "track": 2, "qtime": 18, "isDrum": false}, {"time": 114, "velocity": 108, "pitch": 36, "instrument": 38, "track": 2, "qtime": 18, "isDrum": false}, {"time": 120, "velocity": 0, "pitch": 36, "instrument": 38, "track": 2, "qtime": 24, "isDrum": false}, {"time": 120, "velocity": 108, "pitch": 36, "instrument": 38, "track": 2, "qtime": 24, "isDrum": false}, {"time": 126, "velocity": 0, "pitch": 36, "instrument": 38, "track": 2, "qtime": 30, "isDrum": false}, {"time": 126, "velocity": 108, "pitch": 36, "instrument": 38, "track": 2, "qtime": 30, "isDrum": false}, {"time": 132, "velocity": 0, "pitch": 36, "instrument": 38, "track": 2, "qtime": 36, "isDrum": false}, {"time": 132, "velocity": 108, "pitch": 36, "instrument": 38, "track": 2, "qtime": 36, "isDrum": false}, {"time": 138, "velocity": 0, "pitch": 36, "instrument": 38, "track": 2, "qtime": 42, "isDrum": false}, {"time": 138, "velocity": 108, "pitch": 36, "instrument": 38, "track": 2, "qtime": 42, "isDrum": false}, {"time": 144, "velocity": 0, "pitch": 36, "instrument": 38, "track": 2, "qtime": 48, "isDrum": false}, {"time": 144, "velocity": 108, "pitch": 38, "instrument": 38, "track": 2, "qtime": 0, "isDrum": false}, {"time": 150, "velocity": 0, "pitch": 38, "instrument": 38, "track": 2, "qtime": 6, "isDrum": false}, {"time": 150, "velocity": 108, "pitch": 38, "instrument": 38, "track": 2, "qtime": 6, "isDrum": false}, {"time": 156, "velocity": 0, "pitch": 38, "instrument": 38, "track": 2, "qtime": 12, "isDrum": false}, {"time": 156, "velocity": 108, "pitch": 38, "instrument": 38, "track": 2, "qtime": 12, "isDrum": false}, {"time": 162, "velocity": 0, "pitch": 38, "instrument": 38, "track": 2, "qtime": 18, "isDrum": false}, {"time": 162, "velocity": 108, "pitch": 38, "instrument": 38, "track": 2, "qtime": 18, "isDrum": false}, {"time": 168, "velocity": 0, "pitch": 38, "instrument": 38, "track": 2, "qtime": 24, "isDrum": false}, {"time": 168, "velocity": 108, "pitch": 38, "instrument": 38, "track": 2, "qtime": 24, "isDrum": false}, {"time": 174, "velocity": 0, "pitch": 38, "instrument": 38, "track": 2, "qtime": 30, "isDrum": false}, {"time": 174, "velocity": 108, "pitch": 38, "instrument": 38, "track": 2, "qtime": 30, "isDrum": false}, {"time": 180, "velocity": 0, "pitch": 38, "instrument": 38, "track": 2, "qtime": 36, "isDrum": false}, {"time": 180, "velocity": 108, "pitch": 38, "instrument": 38, "track": 2, "qtime": 36, "isDrum": false}, {"time": 186, "velocity": 0, "pitch": 38, "instrument": 38, "track": 2, "qtime": 42, "isDrum": false}, {"time": 186, "velocity": 108, "pitch": 38, "instrument": 38, "track": 2, "qtime": 42, "isDrum": false}, {"time": 192, "velocity": 0, "pitch": 38, "instrument": 38, "track": 2, "qtime": 48, "isDrum": false}, {"time": 0, "velocity": 108, "pitch": 46, "instrument": 28, "track": 3, "qtime": 0, "isDrum": false}, {"time": 0, "velocity": 108, "pitch": 53, "instrument": 28, "track": 3, "qtime": 0, "isDrum": false}, {"time": 0, "velocity": 108, "pitch": 58, "instrument": 28, "track": 3, "qtime": 0, "isDrum": false}, {"time": 6, "velocity": 0, "pitch": 46, "instrument": 28, "track": 3, "qtime": 6, "isDrum": false}, {"time": 6, "velocity": 0, "pitch": 53, "instrument": 28, "track": 3, "qtime": 6, "isDrum": false}, {"time": 6, "velocity": 0, "pitch": 58, "instrument": 28, "track": 3, "qtime": 6, "isDrum": false}, {"time": 6, "velocity": 108, "pitch": 46, "instrument": 28, "track": 3, "qtime": 6, "isDrum": false}, {"time": 6, "velocity": 108, "pitch": 53, "instrument": 28, "track": 3, "qtime": 6, "isDrum": false}, {"time": 6, "velocity": 108, "pitch": 58, "instrument": 28, "track": 3, "qtime": 6, "isDrum": false}, {"time": 12, "velocity": 0, "pitch": 46, "instrument": 28, "track": 3, "qtime": 12, "isDrum": false}, {"time": 12, "velocity": 0, "pitch": 53, "instrument": 28, "track": 3, "qtime": 12, "isDrum": false}, {"time": 12, "velocity": 0, "pitch": 58, "instrument": 28, "track": 3, "qtime": 12, "isDrum": false}, {"time": 12, "velocity": 108, "pitch": 46, "instrument": 28, "track": 3, "qtime": 12, "isDrum": false}, {"time": 12, "velocity": 108, "pitch": 53, "instrument": 28, "track": 3, "qtime": 12, "isDrum": false}, {"time": 12, "velocity": 108, "pitch": 58, "instrument": 28, "track": 3, "qtime": 12, "isDrum": false}, {"time": 18, "velocity": 0, "pitch": 46, "instrument": 28, "track": 3, "qtime": 18, "isDrum": false}, {"time": 18, "velocity": 0, "pitch": 53, "instrument": 28, "track": 3, "qtime": 18, "isDrum": false}, {"time": 18, "velocity": 0, "pitch": 58, "instrument": 28, "track": 3, "qtime": 18, "isDrum": false}, {"time": 18, "velocity": 108, "pitch": 46, "instrument": 28, "track": 3, "qtime": 18, "isDrum": false}, {"time": 18, "velocity": 108, "pitch": 53, "instrument": 28, "track": 3, "qtime": 18, "isDrum": false}, {"time": 18, "velocity": 108, "pitch": 58, "instrument": 28, "track": 3, "qtime": 18, "isDrum": false}, {"time": 24, "velocity": 0, "pitch": 46, "instrument": 28, "track": 3, "qtime": 24, "isDrum": false}, {"time": 24, "velocity": 0, "pitch": 53, "instrument": 28, "track": 3, "qtime": 24, "isDrum": false}, {"time": 24, "velocity": 0, "pitch": 58, "instrument": 28, "track": 3, "qtime": 24, "isDrum": false}, {"time": 24, "velocity": 108, "pitch": 46, "instrument": 28, "track": 3, "qtime": 24, "isDrum": false}, {"time": 24, "velocity": 108, "pitch": 53, "instrument": 28, "track": 3, "qtime": 24, "isDrum": false}, {"time": 24, "velocity": 108, "pitch": 58, "instrument": 28, "track": 3, "qtime": 24, "isDrum": false}, {"time": 30, "velocity": 0, "pitch": 46, "instrument": 28, "track": 3, "qtime": 30, "isDrum": false}, {"time": 30, "velocity": 0, "pitch": 53, "instrument": 28, "track": 3, "qtime": 30, "isDrum": false}, {"time": 30, "velocity": 0, "pitch": 58, "instrument": 28, "track": 3, "qtime": 30, "isDrum": false}, {"time": 30, "velocity": 108, "pitch": 46, "instrument": 28, "track": 3, "qtime": 30, "isDrum": false}, {"time": 30, "velocity": 108, "pitch": 53, "instrument": 28, "track": 3, "qtime": 30, "isDrum": false}, {"time": 30, "velocity": 108, "pitch": 58, "instrument": 28, "track": 3, "qtime": 30, "isDrum": false}, {"time": 36, "velocity": 0, "pitch": 46, "instrument": 28, "track": 3, "qtime": 36, "isDrum": false}, {"time": 36, "velocity": 0, "pitch": 53, "instrument": 28, "track": 3, "qtime": 36, "isDrum": false}, {"time": 36, "velocity": 0, "pitch": 58, "instrument": 28, "track": 3, "qtime": 36, "isDrum": false}, {"time": 36, "velocity": 108, "pitch": 46, "instrument": 28, "track": 3, "qtime": 36, "isDrum": false}, {"time": 36, "velocity": 108, "pitch": 53, "instrument": 28, "track": 3, "qtime": 36, "isDrum": false}, {"time": 36, "velocity": 108, "pitch": 58, "instrument": 28, "track": 3, "qtime": 36, "isDrum": false}, {"time": 42, "velocity": 0, "pitch": 46, "instrument": 28, "track": 3, "qtime": 42, "isDrum": false}, {"time": 42, "velocity": 0, "pitch": 53, "instrument": 28, "track": 3, "qtime": 42, "isDrum": false}, {"time": 42, "velocity": 0, "pitch": 58, "instrument": 28, "track": 3, "qtime": 42, "isDrum": false}, {"time": 42, "velocity": 108, "pitch": 46, "instrument": 28, "track": 3, "qtime": 42, "isDrum": false}, {"time": 42, "velocity": 108, "pitch": 53, "instrument": 28, "track": 3, "qtime": 42, "isDrum": false}, {"time": 42, "velocity": 108, "pitch": 58, "instrument": 28, "track": 3, "qtime": 42, "isDrum": false}, {"time": 48, "velocity": 0, "pitch": 46, "instrument": 28, "track": 3, "qtime": 48, "isDrum": false}, {"time": 48, "velocity": 0, "pitch": 53, "instrument": 28, "track": 3, "qtime": 48, "isDrum": false}, {"time": 48, "velocity": 0, "pitch": 58, "instrument": 28, "track": 3, "qtime": 48, "isDrum": false}, {"time": 48, "velocity": 108, "pitch": 43, "instrument": 28, "track": 3, "qtime": 0, "isDrum": false}, {"time": 48, "velocity": 108, "pitch": 50, "instrument": 28, "track": 3, "qtime": 0, "isDrum": false}, {"time": 48, "velocity": 108, "pitch": 55, "instrument": 28, "track": 3, "qtime": 0, "isDrum": false}, {"time": 54, "velocity": 0, "pitch": 43, "instrument": 28, "track": 3, "qtime": 6, "isDrum": false}, {"time": 54, "velocity": 0, "pitch": 50, "instrument": 28, "track": 3, "qtime": 6, "isDrum": false}, {"time": 54, "velocity": 0, "pitch": 55, "instrument": 28, "track": 3, "qtime": 6, "isDrum": false}, {"time": 54, "velocity": 108, "pitch": 43, "instrument": 28, "track": 3, "qtime": 6, "isDrum": false}, {"time": 54, "velocity": 108, "pitch": 50, "instrument": 28, "track": 3, "qtime": 6, "isDrum": false}, {"time": 54, "velocity": 108, "pitch": 55, "instrument": 28, "track": 3, "qtime": 6, "isDrum": false}, {"time": 60, "velocity": 0, "pitch": 43, "instrument": 28, "track": 3, "qtime": 12, "isDrum": false}, {"time": 60, "velocity": 0, "pitch": 50, "instrument": 28, "track": 3, "qtime": 12, "isDrum": false}, {"time": 60, "velocity": 0, "pitch": 55, "instrument": 28, "track": 3, "qtime": 12, "isDrum": false}, {"time": 60, "velocity": 108, "pitch": 43, "instrument": 28, "track": 3, "qtime": 12, "isDrum": false}, {"time": 60, "velocity": 108, "pitch": 50, "instrument": 28, "track": 3, "qtime": 12, "isDrum": false}, {"time": 60, "velocity": 108, "pitch": 55, "instrument": 28, "track": 3, "qtime": 12, "isDrum": false}, {"time": 66, "velocity": 0, "pitch": 43, "instrument": 28, "track": 3, "qtime": 18, "isDrum": false}, {"time": 66, "velocity": 0, "pitch": 50, "instrument": 28, "track": 3, "qtime": 18, "isDrum": false}, {"time": 66, "velocity": 0, "pitch": 55, "instrument": 28, "track": 3, "qtime": 18, "isDrum": false}, {"time": 66, "velocity": 108, "pitch": 43, "instrument": 28, "track": 3, "qtime": 18, "isDrum": false}, {"time": 66, "velocity": 108, "pitch": 50, "instrument": 28, "track": 3, "qtime": 18, "isDrum": false}, {"time": 66, "velocity": 108, "pitch": 55, "instrument": 28, "track": 3, "qtime": 18, "isDrum": false}, {"time": 72, "velocity": 0, "pitch": 43, "instrument": 28, "track": 3, "qtime": 24, "isDrum": false}, {"time": 72, "velocity": 0, "pitch": 50, "instrument": 28, "track": 3, "qtime": 24, "isDrum": false}, {"time": 72, "velocity": 0, "pitch": 55, "instrument": 28, "track": 3, "qtime": 24, "isDrum": false}, {"time": 72, "velocity": 108, "pitch": 43, "instrument": 28, "track": 3, "qtime": 24, "isDrum": false}, {"time": 72, "velocity": 108, "pitch": 50, "instrument": 28, "track": 3, "qtime": 24, "isDrum": false}, {"time": 72, "velocity": 108, "pitch": 55, "instrument": 28, "track": 3, "qtime": 24, "isDrum": false}, {"time": 78, "velocity": 0, "pitch": 43, "instrument": 28, "track": 3, "qtime": 30, "isDrum": false}, {"time": 78, "velocity": 0, "pitch": 50, "instrument": 28, "track": 3, "qtime": 30, "isDrum": false}, {"time": 78, "velocity": 0, "pitch": 55, "instrument": 28, "track": 3, "qtime": 30, "isDrum": false}, {"time": 78, "velocity": 108, "pitch": 43, "instrument": 28, "track": 3, "qtime": 30, "isDrum": false}, {"time": 78, "velocity": 108, "pitch": 50, "instrument": 28, "track": 3, "qtime": 30, "isDrum": false}, {"time": 78, "velocity": 108, "pitch": 55, "instrument": 28, "track": 3, "qtime": 30, "isDrum": false}, {"time": 84, "velocity": 0, "pitch": 43, "instrument": 28, "track": 3, "qtime": 36, "isDrum": false}, {"time": 84, "velocity": 0, "pitch": 50, "instrument": 28, "track": 3, "qtime": 36, "isDrum": false}, {"time": 84, "velocity": 0, "pitch": 55, "instrument": 28, "track": 3, "qtime": 36, "isDrum": false}, {"time": 84, "velocity": 108, "pitch": 43, "instrument": 28, "track": 3, "qtime": 36, "isDrum": false}, {"time": 84, "velocity": 108, "pitch": 50, "instrument": 28, "track": 3, "qtime": 36, "isDrum": false}, {"time": 84, "velocity": 108, "pitch": 55, "instrument": 28, "track": 3, "qtime": 36, "isDrum": false}, {"time": 90, "velocity": 0, "pitch": 43, "instrument": 28, "track": 3, "qtime": 42, "isDrum": false}, {"time": 90, "velocity": 0, "pitch": 50, "instrument": 28, "track": 3, "qtime": 42, "isDrum": false}, {"time": 90, "velocity": 0, "pitch": 55, "instrument": 28, "track": 3, "qtime": 42, "isDrum": false}, {"time": 90, "velocity": 108, "pitch": 43, "instrument": 28, "track": 3, "qtime": 42, "isDrum": false}, {"time": 90, "velocity": 108, "pitch": 50, "instrument": 28, "track": 3, "qtime": 42, "isDrum": false}, {"time": 90, "velocity": 108, "pitch": 55, "instrument": 28, "track": 3, "qtime": 42, "isDrum": false}, {"time": 96, "velocity": 0, "pitch": 43, "instrument": 28, "track": 3, "qtime": 48, "isDrum": false}, {"time": 96, "velocity": 0, "pitch": 50, "instrument": 28, "track": 3, "qtime": 48, "isDrum": false}, {"time": 96, "velocity": 0, "pitch": 55, "instrument": 28, "track": 3, "qtime": 48, "isDrum": false}, {"time": 96, "velocity": 108, "pitch": 43, "instrument": 28, "track": 3, "qtime": 0, "isDrum": false}, {"time": 96, "velocity": 108, "pitch": 50, "instrument": 28, "track": 3, "qtime": 0, "isDrum": false}, {"time": 96, "velocity": 108, "pitch": 55, "instrument": 28, "track": 3, "qtime": 0, "isDrum": false}, {"time": 102, "velocity": 0, "pitch": 43, "instrument": 28, "track": 3, "qtime": 6, "isDrum": false}, {"time": 102, "velocity": 0, "pitch": 50, "instrument": 28, "track": 3, "qtime": 6, "isDrum": false}, {"time": 102, "velocity": 0, "pitch": 55, "instrument": 28, "track": 3, "qtime": 6, "isDrum": false}, {"time": 102, "velocity": 108, "pitch": 43, "instrument": 28, "track": 3, "qtime": 6, "isDrum": false}, {"time": 102, "velocity": 108, "pitch": 50, "instrument": 28, "track": 3, "qtime": 6, "isDrum": false}, {"time": 102, "velocity": 108, "pitch": 55, "instrument": 28, "track": 3, "qtime": 6, "isDrum": false}, {"time": 108, "velocity": 0, "pitch": 43, "instrument": 28, "track": 3, "qtime": 12, "isDrum": false}, {"time": 108, "velocity": 0, "pitch": 50, "instrument": 28, "track": 3, "qtime": 12, "isDrum": false}, {"time": 108, "velocity": 0, "pitch": 55, "instrument": 28, "track": 3, "qtime": 12, "isDrum": false}, {"time": 108, "velocity": 108, "pitch": 43, "instrument": 28, "track": 3, "qtime": 12, "isDrum": false}, {"time": 108, "velocity": 108, "pitch": 50, "instrument": 28, "track": 3, "qtime": 12, "isDrum": false}, {"time": 108, "velocity": 108, "pitch": 55, "instrument": 28, "track": 3, "qtime": 12, "isDrum": false}, {"time": 114, "velocity": 0, "pitch": 43, "instrument": 28, "track": 3, "qtime": 18, "isDrum": false}, {"time": 114, "velocity": 0, "pitch": 50, "instrument": 28, "track": 3, "qtime": 18, "isDrum": false}, {"time": 114, "velocity": 0, "pitch": 55, "instrument": 28, "track": 3, "qtime": 18, "isDrum": false}, {"time": 114, "velocity": 108, "pitch": 43, "instrument": 28, "track": 3, "qtime": 18, "isDrum": false}, {"time": 114, "velocity": 108, "pitch": 50, "instrument": 28, "track": 3, "qtime": 18, "isDrum": false}, {"time": 114, "velocity": 108, "pitch": 55, "instrument": 28, "track": 3, "qtime": 18, "isDrum": false}, {"time": 120, "velocity": 0, "pitch": 43, "instrument": 28, "track": 3, "qtime": 24, "isDrum": false}, {"time": 120, "velocity": 0, "pitch": 50, "instrument": 28, "track": 3, "qtime": 24, "isDrum": false}, {"time": 120, "velocity": 0, "pitch": 55, "instrument": 28, "track": 3, "qtime": 24, "isDrum": false}, {"time": 120, "velocity": 108, "pitch": 43, "instrument": 28, "track": 3, "qtime": 24, "isDrum": false}, {"time": 120, "velocity": 108, "pitch": 50, "instrument": 28, "track": 3, "qtime": 24, "isDrum": false}, {"time": 120, "velocity": 108, "pitch": 55, "instrument": 28, "track": 3, "qtime": 24, "isDrum": false}, {"time": 126, "velocity": 0, "pitch": 43, "instrument": 28, "track": 3, "qtime": 30, "isDrum": false}, {"time": 126, "velocity": 0, "pitch": 50, "instrument": 28, "track": 3, "qtime": 30, "isDrum": false}, {"time": 126, "velocity": 0, "pitch": 55, "instrument": 28, "track": 3, "qtime": 30, "isDrum": false}, {"time": 126, "velocity": 108, "pitch": 43, "instrument": 28, "track": 3, "qtime": 30, "isDrum": false}, {"time": 126, "velocity": 108, "pitch": 50, "instrument": 28, "track": 3, "qtime": 30, "isDrum": false}, {"time": 126, "velocity": 108, "pitch": 55, "instrument": 28, "track": 3, "qtime": 30, "isDrum": false}, {"time": 132, "velocity": 0, "pitch": 43, "instrument": 28, "track": 3, "qtime": 36, "isDrum": false}, {"time": 132, "velocity": 0, "pitch": 50, "instrument": 28, "track": 3, "qtime": 36, "isDrum": false}, {"time": 132, "velocity": 0, "pitch": 55, "instrument": 28, "track": 3, "qtime": 36, "isDrum": false}, {"time": 132, "velocity": 108, "pitch": 43, "instrument": 28, "track": 3, "qtime": 36, "isDrum": false}, {"time": 132, "velocity": 108, "pitch": 50, "instrument": 28, "track": 3, "qtime": 36, "isDrum": false}, {"time": 132, "velocity": 108, "pitch": 55, "instrument": 28, "track": 3, "qtime": 36, "isDrum": false}, {"time": 138, "velocity": 0, "pitch": 43, "instrument": 28, "track": 3, "qtime": 42, "isDrum": false}, {"time": 138, "velocity": 0, "pitch": 50, "instrument": 28, "track": 3, "qtime": 42, "isDrum": false}, {"time": 138, "velocity": 0, "pitch": 55, "instrument": 28, "track": 3, "qtime": 42, "isDrum": false}, {"time": 138, "velocity": 108, "pitch": 43, "instrument": 28, "track": 3, "qtime": 42, "isDrum": false}, {"time": 138, "velocity": 108, "pitch": 50, "instrument": 28, "track": 3, "qtime": 42, "isDrum": false}, {"time": 138, "velocity": 108, "pitch": 55, "instrument": 28, "track": 3, "qtime": 42, "isDrum": false}, {"time": 144, "velocity": 0, "pitch": 43, "instrument": 28, "track": 3, "qtime": 48, "isDrum": false}, {"time": 144, "velocity": 0, "pitch": 50, "instrument": 28, "track": 3, "qtime": 48, "isDrum": false}, {"time": 144, "velocity": 0, "pitch": 55, "instrument": 28, "track": 3, "qtime": 48, "isDrum": false}, {"time": 144, "velocity": 108, "pitch": 50, "instrument": 28, "track": 3, "qtime": 0, "isDrum": false}, {"time": 144, "velocity": 108, "pitch": 57, "instrument": 28, "track": 3, "qtime": 0, "isDrum": false}, {"time": 144, "velocity": 108, "pitch": 62, "instrument": 28, "track": 3, "qtime": 0, "isDrum": false}, {"time": 150, "velocity": 0, "pitch": 50, "instrument": 28, "track": 3, "qtime": 6, "isDrum": false}, {"time": 150, "velocity": 0, "pitch": 57, "instrument": 28, "track": 3, "qtime": 6, "isDrum": false}, {"time": 150, "velocity": 0, "pitch": 62, "instrument": 28, "track": 3, "qtime": 6, "isDrum": false}, {"time": 150, "velocity": 108, "pitch": 50, "instrument": 28, "track": 3, "qtime": 6, "isDrum": false}, {"time": 150, "velocity": 108, "pitch": 57, "instrument": 28, "track": 3, "qtime": 6, "isDrum": false}, {"time": 150, "velocity": 108, "pitch": 62, "instrument": 28, "track": 3, "qtime": 6, "isDrum": false}, {"time": 156, "velocity": 0, "pitch": 50, "instrument": 28, "track": 3, "qtime": 12, "isDrum": false}, {"time": 156, "velocity": 0, "pitch": 57, "instrument": 28, "track": 3, "qtime": 12, "isDrum": false}, {"time": 156, "velocity": 0, "pitch": 62, "instrument": 28, "track": 3, "qtime": 12, "isDrum": false}, {"time": 156, "velocity": 108, "pitch": 50, "instrument": 28, "track": 3, "qtime": 12, "isDrum": false}, {"time": 156, "velocity": 108, "pitch": 57, "instrument": 28, "track": 3, "qtime": 12, "isDrum": false}, {"time": 156, "velocity": 108, "pitch": 62, "instrument": 28, "track": 3, "qtime": 12, "isDrum": false}, {"time": 162, "velocity": 0, "pitch": 50, "instrument": 28, "track": 3, "qtime": 18, "isDrum": false}, {"time": 162, "velocity": 0, "pitch": 57, "instrument": 28, "track": 3, "qtime": 18, "isDrum": false}, {"time": 162, "velocity": 0, "pitch": 62, "instrument": 28, "track": 3, "qtime": 18, "isDrum": false}, {"time": 162, "velocity": 108, "pitch": 50, "instrument": 28, "track": 3, "qtime": 18, "isDrum": false}, {"time": 162, "velocity": 108, "pitch": 57, "instrument": 28, "track": 3, "qtime": 18, "isDrum": false}, {"time": 162, "velocity": 108, "pitch": 62, "instrument": 28, "track": 3, "qtime": 18, "isDrum": false}, {"time": 168, "velocity": 0, "pitch": 50, "instrument": 28, "track": 3, "qtime": 24, "isDrum": false}, {"time": 168, "velocity": 0, "pitch": 57, "instrument": 28, "track": 3, "qtime": 24, "isDrum": false}, {"time": 168, "velocity": 0, "pitch": 62, "instrument": 28, "track": 3, "qtime": 24, "isDrum": false}, {"time": 168, "velocity": 108, "pitch": 50, "instrument": 28, "track": 3, "qtime": 24, "isDrum": false}, {"time": 168, "velocity": 108, "pitch": 57, "instrument": 28, "track": 3, "qtime": 24, "isDrum": false}, {"time": 168, "velocity": 108, "pitch": 62, "instrument": 28, "track": 3, "qtime": 24, "isDrum": false}, {"time": 174, "velocity": 0, "pitch": 50, "instrument": 28, "track": 3, "qtime": 30, "isDrum": false}, {"time": 174, "velocity": 0, "pitch": 57, "instrument": 28, "track": 3, "qtime": 30, "isDrum": false}, {"time": 174, "velocity": 0, "pitch": 62, "instrument": 28, "track": 3, "qtime": 30, "isDrum": false}, {"time": 174, "velocity": 108, "pitch": 50, "instrument": 28, "track": 3, "qtime": 30, "isDrum": false}, {"time": 174, "velocity": 108, "pitch": 57, "instrument": 28, "track": 3, "qtime": 30, "isDrum": false}, {"time": 174, "velocity": 108, "pitch": 62, "instrument": 28, "track": 3, "qtime": 30, "isDrum": false}, {"time": 180, "velocity": 0, "pitch": 50, "instrument": 28, "track": 3, "qtime": 36, "isDrum": false}, {"time": 180, "velocity": 0, "pitch": 57, "instrument": 28, "track": 3, "qtime": 36, "isDrum": false}, {"time": 180, "velocity": 0, "pitch": 62, "instrument": 28, "track": 3, "qtime": 36, "isDrum": false}, {"time": 180, "velocity": 108, "pitch": 50, "instrument": 28, "track": 3, "qtime": 36, "isDrum": false}, {"time": 180, "velocity": 108, "pitch": 57, "instrument": 28, "track": 3, "qtime": 36, "isDrum": false}, {"time": 180, "velocity": 108, "pitch": 62, "instrument": 28, "track": 3, "qtime": 36, "isDrum": false}, {"time": 186, "velocity": 0, "pitch": 50, "instrument": 28, "track": 3, "qtime": 42, "isDrum": false}, {"time": 186, "velocity": 0, "pitch": 57, "instrument": 28, "track": 3, "qtime": 42, "isDrum": false}, {"time": 186, "velocity": 0, "pitch": 62, "instrument": 28, "track": 3, "qtime": 42, "isDrum": false}, {"time": 186, "velocity": 108, "pitch": 50, "instrument": 28, "track": 3, "qtime": 42, "isDrum": false}, {"time": 186, "velocity": 108, "pitch": 57, "instrument": 28, "track": 3, "qtime": 42, "isDrum": false}, {"time": 186, "velocity": 108, "pitch": 62, "instrument": 28, "track": 3, "qtime": 42, "isDrum": false}, {"time": 192, "velocity": 0, "pitch": 50, "instrument": 28, "track": 3, "qtime": 48, "isDrum": false}, {"time": 192, "velocity": 0, "pitch": 57, "instrument": 28, "track": 3, "qtime": 48, "isDrum": false}, {"time": 192, "velocity": 0, "pitch": 62, "instrument": 28, "track": 3, "qtime": 48, "isDrum": false}], "resolution": 12, "tempo": 120, "minPitch": 36, "maxPitch": 62, "validSegments": [0], "validTracks": [15]}, "audio": "https://www.sfu.ca/~jeffe/examples/uncond_1.mp3"}, {"src": "gen/8b_uncond_3.json", "highlights": [[], [], [], [], [], [], [], []], "caption": "", "sample_id": "5a", "mixer": [8, 8, 8, 8, 8, 8, 8, 8], "json": {"tracks": [{"bars": [{"events": [0, 1, 2, 3, 4, 5, 6, 7, 8, 9, 10, 11, 12, 13, 14, 15], "isFourFour": true, "hasNotes": true, "time": 0}, {"isFourFour": true, "hasNotes": false, "time": 48}, {"isFourFour": true, "hasNotes": false, "time": 96}, {"events": [16, 17, 18, 19], "isFourFour": true, "hasNotes": true, "time": 144}, {"events": [20, 21], "isFourFour": true, "hasNotes": true, "time": 192}, {"events": [22, 23, 24, 25, 26, 27], "isFourFour": true, "hasNotes": true, "time": 240}, {"events": [28, 29], "isFourFour": true, "hasNotes": true, "time": 288}, {"events": [30, 31, 32, 33, 34, 35, 36, 37, 38, 39, 40, 41], "isFourFour": true, "hasNotes": true, "time": 336}], "isDrum": false, "minPitch": 60, "maxPitch": 77, "instrument": 60, "avPolyphony": 1, "noteDensity": 6, "noteDensityV2": 5}, {"bars": [{"events": [42, 43, 44, 45, 46, 47, 48, 49, 50, 51, 52, 53, 54, 55, 56, 57, 58, 59, 60, 61, 62, 63, 64, 65, 66, 67, 68, 69, 70, 71, 72, 73, 74, 75, 76, 77, 78, 79, 80, 81, 82, 83, 84, 85, 86, 87, 88, 89, 90, 91, 92, 93, 94, 95, 96, 97], "isFourFour": true, "hasNotes": true, "time": 0}, {"events": [98, 99, 100, 101, 102, 103, 104, 105, 106, 107, 108, 109, 110, 111, 112, 113, 114, 115, 116, 117, 118, 119, 120, 121, 122, 123, 124, 125, 126, 127, 128, 129, 130, 131, 132, 133, 134, 135, 136, 137, 138, 139, 140, 141, 142, 143, 144, 145, 146, 147, 148, 149, 150, 151, 152, 153], "isFourFour": true, "hasNotes": true, "time": 48}, {"events": [154, 155, 156, 157, 158, 159, 160, 161, 162, 163, 164, 165, 166, 167, 168, 169, 170, 171, 172, 173, 174, 175, 176, 177, 178, 179, 180, 181, 182, 183, 184, 185, 186, 187, 188, 189, 190, 191, 192, 193, 194, 195, 196, 197, 198, 199, 200, 201, 202, 203, 204, 205, 206, 207, 208, 209], "isFourFour": true, "hasNotes": true, "time": 96}, {"events": [210, 211, 212, 213, 214, 215, 216, 217, 218, 219, 220, 221, 222, 223, 224, 225, 226, 227, 228, 229, 230, 231, 232, 233, 234, 235, 236, 237, 238, 239, 240, 241, 242, 243, 244, 245, 246, 247, 248, 249, 250, 251, 252, 253, 254, 255, 256, 257, 258, 259, 260, 261, 262, 263, 264, 265], "isFourFour": true, "hasNotes": true, "time": 144}, {"events": [266, 267, 268, 269, 270, 271, 272, 273, 274, 275, 276, 277, 278, 279, 280, 281, 282, 283, 284, 285, 286, 287, 288, 289, 290, 291, 292, 293, 294, 295, 296, 297, 298, 299, 300, 301, 302, 303, 304, 305, 306, 307, 308, 309, 310, 311, 312, 313, 314, 315, 316, 317, 318, 319, 320, 321], "isFourFour": true, "hasNotes": true, "time": 192}, {"events": [322, 323, 324, 325, 326, 327, 328, 329, 330, 331, 332, 333, 334, 335, 336, 337, 338, 339, 340, 341, 342, 343, 344, 345, 346, 347, 348, 349, 350, 351, 352, 353, 354, 355, 356, 357, 358, 359, 360, 361, 362, 363, 364, 365, 366, 367, 368, 369, 370, 371, 372, 373], "isFourFour": true, "hasNotes": true, "time": 240}, {"events": [374, 375, 376, 377, 378, 379, 380, 381, 382, 383, 384, 385, 386, 387, 388, 389, 390, 391, 392, 393, 394, 395, 396, 397, 398, 399, 400, 401, 402, 403, 404, 405, 406, 407, 408, 409, 410, 411, 412, 413, 414, 415, 416, 417, 418, 419, 420, 421, 422, 423, 424, 425], "isFourFour": true, "hasNotes": true, "time": 288}, {"events": [426, 427, 428, 429, 430, 431, 432, 433, 434, 435, 436, 437, 438, 439, 440, 441, 442, 443, 444, 445, 446, 447, 448, 449, 450, 451, 452, 453, 454, 455, 456, 457, 458, 459, 460, 461, 462, 463, 464, 465, 466, 467, 468, 469, 470, 471, 472, 473, 474, 475, 476, 477], "isFourFour": true, "hasNotes": true, "time": 336}], "isDrum": true, "minPitch": 35, "maxPitch": 42, "instrument": 0, "avPolyphony": 1.703125, "noteDensity": 9, "noteDensityV2": 9}, {"bars": [{"events": [478, 479, 480, 481, 482, 483, 484, 485, 486, 487, 488, 489, 490, 491], "isFourFour": true, "hasNotes": true, "time": 0}, {"events": [492, 493, 494, 495, 496, 497, 498, 499, 500, 501, 502, 503, 504, 505], "isFourFour": true, "hasNotes": true, "time": 48}, {"events": [506, 507, 508, 509, 510, 511, 512, 513, 514, 515, 516, 517, 518, 519], "isFourFour": true, "hasNotes": true, "time": 96}, {"events": [520, 521, 522, 523, 524, 525, 526, 527, 528, 529, 530, 531, 532, 533], "isFourFour": true, "hasNotes": true, "time": 144}, {"events": [534, 535, 536, 537, 538, 539, 540, 541, 542, 543, 544, 545, 546, 547], "isFourFour": true, "hasNotes": true, "time": 192}, {"events": [548, 549, 550, 551, 552, 553, 554, 555, 556, 557, 558, 559, 560, 561], "isFourFour": true, "hasNotes": true, "time": 240}, {"events": [562, 563, 564, 565, 566, 567, 568, 569, 570, 571, 572, 573, 574, 575], "isFourFour": true, "hasNotes": true, "time": 288}, {"events": [576, 577, 578, 579, 580, 581, 582, 583], "isFourFour": true, "hasNotes": true, "time": 336}], "isDrum": false, "minPitch": 24, "maxPitch": 46, "instrument": 37, "avPolyphony": 1.06276155, "noteDensity": 9, "noteDensityV2": 6}, {"bars": [{"events": [584, 585, 586, 587, 588, 589, 590, 591], "isFourFour": true, "hasNotes": true, "time": 0}, {"events": [592, 593, 594, 595, 596, 597, 598, 599], "isFourFour": true, "hasNotes": true, "time": 48}, {"events": [600, 601, 602, 603, 604, 605, 606, 607], "isFourFour": true, "hasNotes": true, "time": 96}, {"events": [608, 609, 610, 611, 612, 613, 614, 615], "isFourFour": true, "hasNotes": true, "time": 144}, {"events": [616, 617, 618, 619, 620, 621, 622, 623], "isFourFour": true, "hasNotes": true, "time": 192}, {"events": [624, 625, 626, 627, 628, 629, 630, 631], "isFourFour": true, "hasNotes": true, "time": 240}, {"events": [632, 633, 634, 635, 636, 637, 638, 639], "isFourFour": true, "hasNotes": true, "time": 288}, {"events": [640, 641, 642, 643, 644, 645, 646, 647], "isFourFour": true, "hasNotes": true, "time": 336}], "isDrum": false, "minPitch": 58, "maxPitch": 82, "instrument": 56, "avPolyphony": 2, "noteDensity": 8, "noteDensityV2": 4}], "events": [{"time": 0, "velocity": 108, "pitch": 63, "instrument": 60, "track": 0, "qtime": 0, "isDrum": false}, {"time": 6, "velocity": 0, "pitch": 63, "instrument": 60, "track": 0, "qtime": 6, "isDrum": false}, {"time": 9, "velocity": 108, "pitch": 63, "instrument": 60, "track": 0, "qtime": 9, "isDrum": false}, {"time": 11, "velocity": 0, "pitch": 63, "instrument": 60, "track": 0, "qtime": 11, "isDrum": false}, {"time": 12, "velocity": 108, "pitch": 63, "instrument": 60, "track": 0, "qtime": 12, "isDrum": false}, {"time": 16, "velocity": 0, "pitch": 63, "instrument": 60, "track": 0, "qtime": 16, "isDrum": false}, {"time": 18, "velocity": 108, "pitch": 60, "instrument": 60, "track": 0, "qtime": 18, "isDrum": false}, {"time": 22, "velocity": 0, "pitch": 60, "instrument": 60, "track": 0, "qtime": 22, "isDrum": false}, {"time": 24, "velocity": 108, "pitch": 63, "instrument": 60, "track": 0, "qtime": 24, "isDrum": false}, {"time": 28, "velocity": 0, "pitch": 63, "instrument": 60, "track": 0, "qtime": 28, "isDrum": false}, {"time": 30, "velocity": 108, "pitch": 67, "instrument": 60, "track": 0, "qtime": 30, "isDrum": false}, {"time": 34, "velocity": 0, "pitch": 67, "instrument": 60, "track": 0, "qtime": 34, "isDrum": false}, {"time": 36, "velocity": 108, "pitch": 70, "instrument": 60, "track": 0, "qtime": 36, "isDrum": false}, {"time": 40, "velocity": 0, "pitch": 70, "instrument": 60, "track": 0, "qtime": 40, "isDrum": false}, {"time": 42, "velocity": 108, "pitch": 72, "instrument": 60, "track": 0, "qtime": 42, "isDrum": false}, {"time": 46, "velocity": 0, "pitch": 72, "instrument": 60, "track": 0, "qtime": 46, "isDrum": false}, {"time": 144, "velocity": 108, "pitch": 70, "instrument": 60, "track": 0, "qtime": 0, "isDrum": false}, {"time": 162, "velocity": 0, "pitch": 70, "instrument": 60, "track": 0, "qtime": 18, "isDrum": false}, {"time": 168, "velocity": 108, "pitch": 65, "instrument": 60, "track": 0, "qtime": 24, "isDrum": false}, {"time": 187, "velocity": 0, "pitch": 65, "instrument": 60, "track": 0, "qtime": 43, "isDrum": false}, {"time": 192, "velocity": 108, "pitch": 63, "instrument": 60, "track": 0, "qtime": 0, "isDrum": false}, {"time": 234, "velocity": 0, "pitch": 63, "instrument": 60, "track": 0, "qtime": 42, "isDrum": false}, {"time": 240, "velocity": 108, "pitch": 70, "instrument": 60, "track": 0, "qtime": 0, "isDrum": false}, {"time": 258, "velocity": 0, "pitch": 70, "instrument": 60, "track": 0, "qtime": 18, "isDrum": false}, {"time": 264, "velocity": 108, "pitch": 65, "instrument": 60, "track": 0, "qtime": 24, "isDrum": false}, {"time": 282, "velocity": 0, "pitch": 65, "instrument": 60, "track": 0, "qtime": 42, "isDrum": false}, {"time": 285, "velocity": 108, "pitch": 65, "instrument": 60, "track": 0, "qtime": 45, "isDrum": false}, {"time": 288, "velocity": 0, "pitch": 65, "instrument": 60, "track": 0, "qtime": 48, "isDrum": false}, {"time": 288, "velocity": 108, "pitch": 67, "instrument": 60, "track": 0, "qtime": 0, "isDrum": false}, {"time": 328, "velocity": 0, "pitch": 67, "instrument": 60, "track": 0, "qtime": 40, "isDrum": false}, {"time": 336, "velocity": 108, "pitch": 70, "instrument": 60, "track": 0, "qtime": 0, "isDrum": false}, {"time": 344, "velocity": 0, "pitch": 70, "instrument": 60, "track": 0, "qtime": 8, "isDrum": false}, {"time": 348, "velocity": 108, "pitch": 70, "instrument": 60, "track": 0, "qtime": 12, "isDrum": false}, {"time": 356, "velocity": 0, "pitch": 70, "instrument": 60, "track": 0, "qtime": 20, "isDrum": false}, {"time": 360, "velocity": 108, "pitch": 75, "instrument": 60, "track": 0, "qtime": 24, "isDrum": false}, {"time": 364, "velocity": 0, "pitch": 75, "instrument": 60, "track": 0, "qtime": 28, "isDrum": false}, {"time": 366, "velocity": 108, "pitch": 77, "instrument": 60, "track": 0, "qtime": 30, "isDrum": false}, {"time": 370, "velocity": 0, "pitch": 77, "instrument": 60, "track": 0, "qtime": 34, "isDrum": false}, {"time": 372, "velocity": 108, "pitch": 75, "instrument": 60, "track": 0, "qtime": 36, "isDrum": false}, {"time": 376, "velocity": 0, "pitch": 75, "instrument": 60, "track": 0, "qtime": 40, "isDrum": false}, {"time": 378, "velocity": 108, "pitch": 72, "instrument": 60, "track": 0, "qtime": 42, "isDrum": false}, {"time": 382, "velocity": 0, "pitch": 72, "instrument": 60, "track": 0, "qtime": 46, "isDrum": false}, {"time": 0, "velocity": 108, "pitch": 35, "instrument": 0, "track": 9, "qtime": 0, "isDrum": true}, {"time": 0, "velocity": 108, "pitch": 36, "instrument": 0, "track": 9, "qtime": 0, "isDrum": true}, {"time": 0, "velocity": 108, "pitch": 42, "instrument": 0, "track": 9, "qtime": 0, "isDrum": true}, {"time": 2, "velocity": 0, "pitch": 35, "instrument": 0, "track": 9, "qtime": 2, "isDrum": true}, {"time": 2, "velocity": 0, "pitch": 36, "instrument": 0, "track": 9, "qtime": 2, "isDrum": true}, {"time": 2, "velocity": 0, "pitch": 42, "instrument": 0, "track": 9, "qtime": 2, "isDrum": true}, {"time": 3, "velocity": 108, "pitch": 42, "instrument": 0, "track": 9, "qtime": 3, "isDrum": true}, {"time": 5, "velocity": 0, "pitch": 42, "instrument": 0, "track": 9, "qtime": 5, "isDrum": true}, {"time": 6, "velocity": 108, "pitch": 42, "instrument": 0, "track": 9, "qtime": 6, "isDrum": true}, {"time": 8, "velocity": 0, "pitch": 42, "instrument": 0, "track": 9, "qtime": 8, "isDrum": true}, {"time": 9, "velocity": 108, "pitch": 42, "instrument": 0, "track": 9, "qtime": 9, "isDrum": true}, {"time": 11, "velocity": 0, "pitch": 42, "instrument": 0, "track": 9, "qtime": 11, "isDrum": true}, {"time": 12, "velocity": 108, "pitch": 38, "instrument": 0, "track": 9, "qtime": 12, "isDrum": true}, {"time": 12, "velocity": 108, "pitch": 40, "instrument": 0, "track": 9, "qtime": 12, "isDrum": true}, {"time": 12, "velocity": 108, "pitch": 42, "instrument": 0, "track": 9, "qtime": 12, "isDrum": true}, {"time": 14, "velocity": 0, "pitch": 38, "instrument": 0, "track": 9, "qtime": 14, "isDrum": true}, {"time": 14, "velocity": 0, "pitch": 40, "instrument": 0, "track": 9, "qtime": 14, "isDrum": true}, {"time": 14, "velocity": 0, "pitch": 42, "instrument": 0, "track": 9, "qtime": 14, "isDrum": true}, {"time": 15, "velocity": 108, "pitch": 42, "instrument": 0, "track": 9, "qtime": 15, "isDrum": true}, {"time": 17, "velocity": 0, "pitch": 42, "instrument": 0, "track": 9, "qtime": 17, "isDrum": true}, {"time": 18, "velocity": 108, "pitch": 42, "instrument": 0, "track": 9, "qtime": 18, "isDrum": true}, {"time": 20, "velocity": 0, "pitch": 42, "instrument": 0, "track": 9, "qtime": 20, "isDrum": true}, {"time": 21, "velocity": 108, "pitch": 42, "instrument": 0, "track": 9, "qtime": 21, "isDrum": true}, {"time": 23, "velocity": 0, "pitch": 42, "instrument": 0, "track": 9, "qtime": 23, "isDrum": true}, {"time": 24, "velocity": 108, "pitch": 35, "instrument": 0, "track": 9, "qtime": 24, "isDrum": true}, {"time": 24, "velocity": 108, "pitch": 36, "instrument": 0, "track": 9, "qtime": 24, "isDrum": true}, {"time": 24, "velocity": 108, "pitch": 42, "instrument": 0, "track": 9, "qtime": 24, "isDrum": true}, {"time": 26, "velocity": 0, "pitch": 35, "instrument": 0, "track": 9, "qtime": 26, "isDrum": true}, {"time": 26, "velocity": 0, "pitch": 36, "instrument": 0, "track": 9, "qtime": 26, "isDrum": true}, {"time": 26, "velocity": 0, "pitch": 42, "instrument": 0, "track": 9, "qtime": 26, "isDrum": true}, {"time": 27, "velocity": 108, "pitch": 42, "instrument": 0, "track": 9, "qtime": 27, "isDrum": true}, {"time": 29, "velocity": 0, "pitch": 42, "instrument": 0, "track": 9, "qtime": 29, "isDrum": true}, {"time": 30, "velocity": 108, "pitch": 35, "instrument": 0, "track": 9, "qtime": 30, "isDrum": true}, {"time": 30, "velocity": 108, "pitch": 36, "instrument": 0, "track": 9, "qtime": 30, "isDrum": true}, {"time": 30, "velocity": 108, "pitch": 42, "instrument": 0, "track": 9, "qtime": 30, "isDrum": true}, {"time": 32, "velocity": 0, "pitch": 35, "instrument": 0, "track": 9, "qtime": 32, "isDrum": true}, {"time": 32, "velocity": 0, "pitch": 36, "instrument": 0, "track": 9, "qtime": 32, "isDrum": true}, {"time": 32, "velocity": 0, "pitch": 42, "instrument": 0, "track": 9, "qtime": 32, "isDrum": true}, {"time": 33, "velocity": 108, "pitch": 35, "instrument": 0, "track": 9, "qtime": 33, "isDrum": true}, {"time": 33, "velocity": 108, "pitch": 36, "instrument": 0, "track": 9, "qtime": 33, "isDrum": true}, {"time": 33, "velocity": 108, "pitch": 42, "instrument": 0, "track": 9, "qtime": 33, "isDrum": true}, {"time": 35, "velocity": 0, "pitch": 35, "instrument": 0, "track": 9, "qtime": 35, "isDrum": true}, {"time": 35, "velocity": 0, "pitch": 36, "instrument": 0, "track": 9, "qtime": 35, "isDrum": true}, {"time": 35, "velocity": 0, "pitch": 42, "instrument": 0, "track": 9, "qtime": 35, "isDrum": true}, {"time": 36, "velocity": 108, "pitch": 38, "instrument": 0, "track": 9, "qtime": 36, "isDrum": true}, {"time": 36, "velocity": 108, "pitch": 40, "instrument": 0, "track": 9, "qtime": 36, "isDrum": true}, {"time": 36, "velocity": 108, "pitch": 42, "instrument": 0, "track": 9, "qtime": 36, "isDrum": true}, {"time": 38, "velocity": 0, "pitch": 38, "instrument": 0, "track": 9, "qtime": 38, "isDrum": true}, {"time": 38, "velocity": 0, "pitch": 40, "instrument": 0, "track": 9, "qtime": 38, "isDrum": true}, {"time": 38, "velocity": 0, "pitch": 42, "instrument": 0, "track": 9, "qtime": 38, "isDrum": true}, {"time": 39, "velocity": 108, "pitch": 42, "instrument": 0, "track": 9, "qtime": 39, "isDrum": true}, {"time": 41, "velocity": 0, "pitch": 42, "instrument": 0, "track": 9, "qtime": 41, "isDrum": true}, {"time": 42, "velocity": 108, "pitch": 42, "instrument": 0, "track": 9, "qtime": 42, "isDrum": true}, {"time": 44, "velocity": 0, "pitch": 42, "instrument": 0, "track": 9, "qtime": 44, "isDrum": true}, {"time": 45, "velocity": 108, "pitch": 42, "instrument": 0, "track": 9, "qtime": 45, "isDrum": true}, {"time": 47, "velocity": 0, "pitch": 42, "instrument": 0, "track": 9, "qtime": 47, "isDrum": true}, {"time": 48, "velocity": 108, "pitch": 35, "instrument": 0, "track": 9, "qtime": 0, "isDrum": true}, {"time": 48, "velocity": 108, "pitch": 36, "instrument": 0, "track": 9, "qtime": 0, "isDrum": true}, {"time": 48, "velocity": 108, "pitch": 42, "instrument": 0, "track": 9, "qtime": 0, "isDrum": true}, {"time": 50, "velocity": 0, "pitch": 35, "instrument": 0, "track": 9, "qtime": 2, "isDrum": true}, {"time": 50, "velocity": 0, "pitch": 36, "instrument": 0, "track": 9, "qtime": 2, "isDrum": true}, {"time": 50, "velocity": 0, "pitch": 42, "instrument": 0, "track": 9, "qtime": 2, "isDrum": true}, {"time": 51, "velocity": 108, "pitch": 42, "instrument": 0, "track": 9, "qtime": 3, "isDrum": true}, {"time": 53, "velocity": 0, "pitch": 42, "instrument": 0, "track": 9, "qtime": 5, "isDrum": true}, {"time": 54, "velocity": 108, "pitch": 42, "instrument": 0, "track": 9, "qtime": 6, "isDrum": true}, {"time": 56, "velocity": 0, "pitch": 42, "instrument": 0, "track": 9, "qtime": 8, "isDrum": true}, {"time": 57, "velocity": 108, "pitch": 42, "instrument": 0, "track": 9, "qtime": 9, "isDrum": true}, {"time": 59, "velocity": 0, "pitch": 42, "instrument": 0, "track": 9, "qtime": 11, "isDrum": true}, {"time": 60, "velocity": 108, "pitch": 38, "instrument": 0, "track": 9, "qtime": 12, "isDrum": true}, {"time": 60, "velocity": 108, "pitch": 40, "instrument": 0, "track": 9, "qtime": 12, "isDrum": true}, {"time": 60, "velocity": 108, "pitch": 42, "instrument": 0, "track": 9, "qtime": 12, "isDrum": true}, {"time": 62, "velocity": 0, "pitch": 38, "instrument": 0, "track": 9, "qtime": 14, "isDrum": true}, {"time": 62, "velocity": 0, "pitch": 40, "instrument": 0, "track": 9, "qtime": 14, "isDrum": true}, {"time": 62, "velocity": 0, "pitch": 42, "instrument": 0, "track": 9, "qtime": 14, "isDrum": true}, {"time": 63, "velocity": 108, "pitch": 42, "instrument": 0, "track": 9, "qtime": 15, "isDrum": true}, {"time": 65, "velocity": 0, "pitch": 42, "instrument": 0, "track": 9, "qtime": 17, "isDrum": true}, {"time": 66, "velocity": 108, "pitch": 42, "instrument": 0, "track": 9, "qtime": 18, "isDrum": true}, {"time": 68, "velocity": 0, "pitch": 42, "instrument": 0, "track": 9, "qtime": 20, "isDrum": true}, {"time": 69, "velocity": 108, "pitch": 42, "instrument": 0, "track": 9, "qtime": 21, "isDrum": true}, {"time": 71, "velocity": 0, "pitch": 42, "instrument": 0, "track": 9, "qtime": 23, "isDrum": true}, {"time": 72, "velocity": 108, "pitch": 35, "instrument": 0, "track": 9, "qtime": 24, "isDrum": true}, {"time": 72, "velocity": 108, "pitch": 36, "instrument": 0, "track": 9, "qtime": 24, "isDrum": true}, {"time": 72, "velocity": 108, "pitch": 42, "instrument": 0, "track": 9, "qtime": 24, "isDrum": true}, {"time": 74, "velocity": 0, "pitch": 35, "instrument": 0, "track": 9, "qtime": 26, "isDrum": true}, {"time": 74, "velocity": 0, "pitch": 36, "instrument": 0, "track": 9, "qtime": 26, "isDrum": true}, {"time": 74, "velocity": 0, "pitch": 42, "instrument": 0, "track": 9, "qtime": 26, "isDrum": true}, {"time": 75, "velocity": 108, "pitch": 42, "instrument": 0, "track": 9, "qtime": 27, "isDrum": true}, {"time": 77, "velocity": 0, "pitch": 42, "instrument": 0, "track": 9, "qtime": 29, "isDrum": true}, {"time": 78, "velocity": 108, "pitch": 35, "instrument": 0, "track": 9, "qtime": 30, "isDrum": true}, {"time": 78, "velocity": 108, "pitch": 36, "instrument": 0, "track": 9, "qtime": 30, "isDrum": true}, {"time": 78, "velocity": 108, "pitch": 42, "instrument": 0, "track": 9, "qtime": 30, "isDrum": true}, {"time": 80, "velocity": 0, "pitch": 35, "instrument": 0, "track": 9, "qtime": 32, "isDrum": true}, {"time": 80, "velocity": 0, "pitch": 36, "instrument": 0, "track": 9, "qtime": 32, "isDrum": true}, {"time": 80, "velocity": 0, "pitch": 42, "instrument": 0, "track": 9, "qtime": 32, "isDrum": true}, {"time": 81, "velocity": 108, "pitch": 35, "instrument": 0, "track": 9, "qtime": 33, "isDrum": true}, {"time": 81, "velocity": 108, "pitch": 36, "instrument": 0, "track": 9, "qtime": 33, "isDrum": true}, {"time": 81, "velocity": 108, "pitch": 42, "instrument": 0, "track": 9, "qtime": 33, "isDrum": true}, {"time": 83, "velocity": 0, "pitch": 35, "instrument": 0, "track": 9, "qtime": 35, "isDrum": true}, {"time": 83, "velocity": 0, "pitch": 36, "instrument": 0, "track": 9, "qtime": 35, "isDrum": true}, {"time": 83, "velocity": 0, "pitch": 42, "instrument": 0, "track": 9, "qtime": 35, "isDrum": true}, {"time": 84, "velocity": 108, "pitch": 38, "instrument": 0, "track": 9, "qtime": 36, "isDrum": true}, {"time": 84, "velocity": 108, "pitch": 40, "instrument": 0, "track": 9, "qtime": 36, "isDrum": true}, {"time": 84, "velocity": 108, "pitch": 42, "instrument": 0, "track": 9, "qtime": 36, "isDrum": true}, {"time": 86, "velocity": 0, "pitch": 38, "instrument": 0, "track": 9, "qtime": 38, "isDrum": true}, {"time": 86, "velocity": 0, "pitch": 40, "instrument": 0, "track": 9, "qtime": 38, "isDrum": true}, {"time": 86, "velocity": 0, "pitch": 42, "instrument": 0, "track": 9, "qtime": 38, "isDrum": true}, {"time": 87, "velocity": 108, "pitch": 42, "instrument": 0, "track": 9, "qtime": 39, "isDrum": true}, {"time": 89, "velocity": 0, "pitch": 42, "instrument": 0, "track": 9, "qtime": 41, "isDrum": true}, {"time": 90, "velocity": 108, "pitch": 42, "instrument": 0, "track": 9, "qtime": 42, "isDrum": true}, {"time": 92, "velocity": 0, "pitch": 42, "instrument": 0, "track": 9, "qtime": 44, "isDrum": true}, {"time": 93, "velocity": 108, "pitch": 42, "instrument": 0, "track": 9, "qtime": 45, "isDrum": true}, {"time": 95, "velocity": 0, "pitch": 42, "instrument": 0, "track": 9, "qtime": 47, "isDrum": true}, {"time": 96, "velocity": 108, "pitch": 35, "instrument": 0, "track": 9, "qtime": 0, "isDrum": true}, {"time": 96, "velocity": 108, "pitch": 36, "instrument": 0, "track": 9, "qtime": 0, "isDrum": true}, {"time": 96, "velocity": 108, "pitch": 42, "instrument": 0, "track": 9, "qtime": 0, "isDrum": true}, {"time": 98, "velocity": 0, "pitch": 35, "instrument": 0, "track": 9, "qtime": 2, "isDrum": true}, {"time": 98, "velocity": 0, "pitch": 36, "instrument": 0, "track": 9, "qtime": 2, "isDrum": true}, {"time": 98, "velocity": 0, "pitch": 42, "instrument": 0, "track": 9, "qtime": 2, "isDrum": true}, {"time": 99, "velocity": 108, "pitch": 42, "instrument": 0, "track": 9, "qtime": 3, "isDrum": true}, {"time": 101, "velocity": 0, "pitch": 42, "instrument": 0, "track": 9, "qtime": 5, "isDrum": true}, {"time": 102, "velocity": 108, "pitch": 42, "instrument": 0, "track": 9, "qtime": 6, "isDrum": true}, {"time": 104, "velocity": 0, "pitch": 42, "instrument": 0, "track": 9, "qtime": 8, "isDrum": true}, {"time": 105, "velocity": 108, "pitch": 42, "instrument": 0, "track": 9, "qtime": 9, "isDrum": true}, {"time": 107, "velocity": 0, "pitch": 42, "instrument": 0, "track": 9, "qtime": 11, "isDrum": true}, {"time": 108, "velocity": 108, "pitch": 38, "instrument": 0, "track": 9, "qtime": 12, "isDrum": true}, {"time": 108, "velocity": 108, "pitch": 40, "instrument": 0, "track": 9, "qtime": 12, "isDrum": true}, {"time": 108, "velocity": 108, "pitch": 42, "instrument": 0, "track": 9, "qtime": 12, "isDrum": true}, {"time": 110, "velocity": 0, "pitch": 38, "instrument": 0, "track": 9, "qtime": 14, "isDrum": true}, {"time": 110, "velocity": 0, "pitch": 40, "instrument": 0, "track": 9, "qtime": 14, "isDrum": true}, {"time": 110, "velocity": 0, "pitch": 42, "instrument": 0, "track": 9, "qtime": 14, "isDrum": true}, {"time": 111, "velocity": 108, "pitch": 42, "instrument": 0, "track": 9, "qtime": 15, "isDrum": true}, {"time": 113, "velocity": 0, "pitch": 42, "instrument": 0, "track": 9, "qtime": 17, "isDrum": true}, {"time": 114, "velocity": 108, "pitch": 42, "instrument": 0, "track": 9, "qtime": 18, "isDrum": true}, {"time": 116, "velocity": 0, "pitch": 42, "instrument": 0, "track": 9, "qtime": 20, "isDrum": true}, {"time": 117, "velocity": 108, "pitch": 42, "instrument": 0, "track": 9, "qtime": 21, "isDrum": true}, {"time": 119, "velocity": 0, "pitch": 42, "instrument": 0, "track": 9, "qtime": 23, "isDrum": true}, {"time": 120, "velocity": 108, "pitch": 35, "instrument": 0, "track": 9, "qtime": 24, "isDrum": true}, {"time": 120, "velocity": 108, "pitch": 36, "instrument": 0, "track": 9, "qtime": 24, "isDrum": true}, {"time": 120, "velocity": 108, "pitch": 42, "instrument": 0, "track": 9, "qtime": 24, "isDrum": true}, {"time": 122, "velocity": 0, "pitch": 35, "instrument": 0, "track": 9, "qtime": 26, "isDrum": true}, {"time": 122, "velocity": 0, "pitch": 36, "instrument": 0, "track": 9, "qtime": 26, "isDrum": true}, {"time": 122, "velocity": 0, "pitch": 42, "instrument": 0, "track": 9, "qtime": 26, "isDrum": true}, {"time": 123, "velocity": 108, "pitch": 42, "instrument": 0, "track": 9, "qtime": 27, "isDrum": true}, {"time": 125, "velocity": 0, "pitch": 42, "instrument": 0, "track": 9, "qtime": 29, "isDrum": true}, {"time": 126, "velocity": 108, "pitch": 35, "instrument": 0, "track": 9, "qtime": 30, "isDrum": true}, {"time": 126, "velocity": 108, "pitch": 36, "instrument": 0, "track": 9, "qtime": 30, "isDrum": true}, {"time": 126, "velocity": 108, "pitch": 42, "instrument": 0, "track": 9, "qtime": 30, "isDrum": true}, {"time": 128, "velocity": 0, "pitch": 35, "instrument": 0, "track": 9, "qtime": 32, "isDrum": true}, {"time": 128, "velocity": 0, "pitch": 36, "instrument": 0, "track": 9, "qtime": 32, "isDrum": true}, {"time": 128, "velocity": 0, "pitch": 42, "instrument": 0, "track": 9, "qtime": 32, "isDrum": true}, {"time": 129, "velocity": 108, "pitch": 35, "instrument": 0, "track": 9, "qtime": 33, "isDrum": true}, {"time": 129, "velocity": 108, "pitch": 36, "instrument": 0, "track": 9, "qtime": 33, "isDrum": true}, {"time": 129, "velocity": 108, "pitch": 42, "instrument": 0, "track": 9, "qtime": 33, "isDrum": true}, {"time": 131, "velocity": 0, "pitch": 35, "instrument": 0, "track": 9, "qtime": 35, "isDrum": true}, {"time": 131, "velocity": 0, "pitch": 36, "instrument": 0, "track": 9, "qtime": 35, "isDrum": true}, {"time": 131, "velocity": 0, "pitch": 42, "instrument": 0, "track": 9, "qtime": 35, "isDrum": true}, {"time": 132, "velocity": 108, "pitch": 38, "instrument": 0, "track": 9, "qtime": 36, "isDrum": true}, {"time": 132, "velocity": 108, "pitch": 40, "instrument": 0, "track": 9, "qtime": 36, "isDrum": true}, {"time": 132, "velocity": 108, "pitch": 42, "instrument": 0, "track": 9, "qtime": 36, "isDrum": true}, {"time": 134, "velocity": 0, "pitch": 38, "instrument": 0, "track": 9, "qtime": 38, "isDrum": true}, {"time": 134, "velocity": 0, "pitch": 40, "instrument": 0, "track": 9, "qtime": 38, "isDrum": true}, {"time": 134, "velocity": 0, "pitch": 42, "instrument": 0, "track": 9, "qtime": 38, "isDrum": true}, {"time": 135, "velocity": 108, "pitch": 42, "instrument": 0, "track": 9, "qtime": 39, "isDrum": true}, {"time": 137, "velocity": 0, "pitch": 42, "instrument": 0, "track": 9, "qtime": 41, "isDrum": true}, {"time": 138, "velocity": 108, "pitch": 42, "instrument": 0, "track": 9, "qtime": 42, "isDrum": true}, {"time": 140, "velocity": 0, "pitch": 42, "instrument": 0, "track": 9, "qtime": 44, "isDrum": true}, {"time": 141, "velocity": 108, "pitch": 42, "instrument": 0, "track": 9, "qtime": 45, "isDrum": true}, {"time": 143, "velocity": 0, "pitch": 42, "instrument": 0, "track": 9, "qtime": 47, "isDrum": true}, {"time": 144, "velocity": 108, "pitch": 35, "instrument": 0, "track": 9, "qtime": 0, "isDrum": true}, {"time": 144, "velocity": 108, "pitch": 36, "instrument": 0, "track": 9, "qtime": 0, "isDrum": true}, {"time": 144, "velocity": 108, "pitch": 42, "instrument": 0, "track": 9, "qtime": 0, "isDrum": true}, {"time": 146, "velocity": 0, "pitch": 35, "instrument": 0, "track": 9, "qtime": 2, "isDrum": true}, {"time": 146, "velocity": 0, "pitch": 36, "instrument": 0, "track": 9, "qtime": 2, "isDrum": true}, {"time": 146, "velocity": 0, "pitch": 42, "instrument": 0, "track": 9, "qtime": 2, "isDrum": true}, {"time": 147, "velocity": 108, "pitch": 42, "instrument": 0, "track": 9, "qtime": 3, "isDrum": true}, {"time": 149, "velocity": 0, "pitch": 42, "instrument": 0, "track": 9, "qtime": 5, "isDrum": true}, {"time": 150, "velocity": 108, "pitch": 42, "instrument": 0, "track": 9, "qtime": 6, "isDrum": true}, {"time": 152, "velocity": 0, "pitch": 42, "instrument": 0, "track": 9, "qtime": 8, "isDrum": true}, {"time": 153, "velocity": 108, "pitch": 42, "instrument": 0, "track": 9, "qtime": 9, "isDrum": true}, {"time": 155, "velocity": 0, "pitch": 42, "instrument": 0, "track": 9, "qtime": 11, "isDrum": true}, {"time": 156, "velocity": 108, "pitch": 38, "instrument": 0, "track": 9, "qtime": 12, "isDrum": true}, {"time": 156, "velocity": 108, "pitch": 40, "instrument": 0, "track": 9, "qtime": 12, "isDrum": true}, {"time": 156, "velocity": 108, "pitch": 42, "instrument": 0, "track": 9, "qtime": 12, "isDrum": true}, {"time": 158, "velocity": 0, "pitch": 38, "instrument": 0, "track": 9, "qtime": 14, "isDrum": true}, {"time": 158, "velocity": 0, "pitch": 40, "instrument": 0, "track": 9, "qtime": 14, "isDrum": true}, {"time": 158, "velocity": 0, "pitch": 42, "instrument": 0, "track": 9, "qtime": 14, "isDrum": true}, {"time": 159, "velocity": 108, "pitch": 42, "instrument": 0, "track": 9, "qtime": 15, "isDrum": true}, {"time": 161, "velocity": 0, "pitch": 42, "instrument": 0, "track": 9, "qtime": 17, "isDrum": true}, {"time": 162, "velocity": 108, "pitch": 42, "instrument": 0, "track": 9, "qtime": 18, "isDrum": true}, {"time": 164, "velocity": 0, "pitch": 42, "instrument": 0, "track": 9, "qtime": 20, "isDrum": true}, {"time": 165, "velocity": 108, "pitch": 42, "instrument": 0, "track": 9, "qtime": 21, "isDrum": true}, {"time": 167, "velocity": 0, "pitch": 42, "instrument": 0, "track": 9, "qtime": 23, "isDrum": true}, {"time": 168, "velocity": 108, "pitch": 35, "instrument": 0, "track": 9, "qtime": 24, "isDrum": true}, {"time": 168, "velocity": 108, "pitch": 36, "instrument": 0, "track": 9, "qtime": 24, "isDrum": true}, {"time": 168, "velocity": 108, "pitch": 42, "instrument": 0, "track": 9, "qtime": 24, "isDrum": true}, {"time": 170, "velocity": 0, "pitch": 35, "instrument": 0, "track": 9, "qtime": 26, "isDrum": true}, {"time": 170, "velocity": 0, "pitch": 36, "instrument": 0, "track": 9, "qtime": 26, "isDrum": true}, {"time": 170, "velocity": 0, "pitch": 42, "instrument": 0, "track": 9, "qtime": 26, "isDrum": true}, {"time": 171, "velocity": 108, "pitch": 42, "instrument": 0, "track": 9, "qtime": 27, "isDrum": true}, {"time": 173, "velocity": 0, "pitch": 42, "instrument": 0, "track": 9, "qtime": 29, "isDrum": true}, {"time": 174, "velocity": 108, "pitch": 35, "instrument": 0, "track": 9, "qtime": 30, "isDrum": true}, {"time": 174, "velocity": 108, "pitch": 36, "instrument": 0, "track": 9, "qtime": 30, "isDrum": true}, {"time": 174, "velocity": 108, "pitch": 42, "instrument": 0, "track": 9, "qtime": 30, "isDrum": true}, {"time": 176, "velocity": 0, "pitch": 35, "instrument": 0, "track": 9, "qtime": 32, "isDrum": true}, {"time": 176, "velocity": 0, "pitch": 36, "instrument": 0, "track": 9, "qtime": 32, "isDrum": true}, {"time": 176, "velocity": 0, "pitch": 42, "instrument": 0, "track": 9, "qtime": 32, "isDrum": true}, {"time": 177, "velocity": 108, "pitch": 35, "instrument": 0, "track": 9, "qtime": 33, "isDrum": true}, {"time": 177, "velocity": 108, "pitch": 36, "instrument": 0, "track": 9, "qtime": 33, "isDrum": true}, {"time": 177, "velocity": 108, "pitch": 42, "instrument": 0, "track": 9, "qtime": 33, "isDrum": true}, {"time": 179, "velocity": 0, "pitch": 35, "instrument": 0, "track": 9, "qtime": 35, "isDrum": true}, {"time": 179, "velocity": 0, "pitch": 36, "instrument": 0, "track": 9, "qtime": 35, "isDrum": true}, {"time": 179, "velocity": 0, "pitch": 42, "instrument": 0, "track": 9, "qtime": 35, "isDrum": true}, {"time": 180, "velocity": 108, "pitch": 38, "instrument": 0, "track": 9, "qtime": 36, "isDrum": true}, {"time": 180, "velocity": 108, "pitch": 40, "instrument": 0, "track": 9, "qtime": 36, "isDrum": true}, {"time": 180, "velocity": 108, "pitch": 42, "instrument": 0, "track": 9, "qtime": 36, "isDrum": true}, {"time": 182, "velocity": 0, "pitch": 38, "instrument": 0, "track": 9, "qtime": 38, "isDrum": true}, {"time": 182, "velocity": 0, "pitch": 40, "instrument": 0, "track": 9, "qtime": 38, "isDrum": true}, {"time": 182, "velocity": 0, "pitch": 42, "instrument": 0, "track": 9, "qtime": 38, "isDrum": true}, {"time": 183, "velocity": 108, "pitch": 42, "instrument": 0, "track": 9, "qtime": 39, "isDrum": true}, {"time": 185, "velocity": 0, "pitch": 42, "instrument": 0, "track": 9, "qtime": 41, "isDrum": true}, {"time": 186, "velocity": 108, "pitch": 42, "instrument": 0, "track": 9, "qtime": 42, "isDrum": true}, {"time": 188, "velocity": 0, "pitch": 42, "instrument": 0, "track": 9, "qtime": 44, "isDrum": true}, {"time": 189, "velocity": 108, "pitch": 42, "instrument": 0, "track": 9, "qtime": 45, "isDrum": true}, {"time": 191, "velocity": 0, "pitch": 42, "instrument": 0, "track": 9, "qtime": 47, "isDrum": true}, {"time": 192, "velocity": 108, "pitch": 35, "instrument": 0, "track": 9, "qtime": 0, "isDrum": true}, {"time": 192, "velocity": 108, "pitch": 36, "instrument": 0, "track": 9, "qtime": 0, "isDrum": true}, {"time": 192, "velocity": 108, "pitch": 42, "instrument": 0, "track": 9, "qtime": 0, "isDrum": true}, {"time": 194, "velocity": 0, "pitch": 35, "instrument": 0, "track": 9, "qtime": 2, "isDrum": true}, {"time": 194, "velocity": 0, "pitch": 36, "instrument": 0, "track": 9, "qtime": 2, "isDrum": true}, {"time": 194, "velocity": 0, "pitch": 42, "instrument": 0, "track": 9, "qtime": 2, "isDrum": true}, {"time": 195, "velocity": 108, "pitch": 42, "instrument": 0, "track": 9, "qtime": 3, "isDrum": true}, {"time": 197, "velocity": 0, "pitch": 42, "instrument": 0, "track": 9, "qtime": 5, "isDrum": true}, {"time": 198, "velocity": 108, "pitch": 42, "instrument": 0, "track": 9, "qtime": 6, "isDrum": true}, {"time": 200, "velocity": 0, "pitch": 42, "instrument": 0, "track": 9, "qtime": 8, "isDrum": true}, {"time": 201, "velocity": 108, "pitch": 42, "instrument": 0, "track": 9, "qtime": 9, "isDrum": true}, {"time": 203, "velocity": 0, "pitch": 42, "instrument": 0, "track": 9, "qtime": 11, "isDrum": true}, {"time": 204, "velocity": 108, "pitch": 38, "instrument": 0, "track": 9, "qtime": 12, "isDrum": true}, {"time": 204, "velocity": 108, "pitch": 40, "instrument": 0, "track": 9, "qtime": 12, "isDrum": true}, {"time": 204, "velocity": 108, "pitch": 42, "instrument": 0, "track": 9, "qtime": 12, "isDrum": true}, {"time": 206, "velocity": 0, "pitch": 38, "instrument": 0, "track": 9, "qtime": 14, "isDrum": true}, {"time": 206, "velocity": 0, "pitch": 40, "instrument": 0, "track": 9, "qtime": 14, "isDrum": true}, {"time": 206, "velocity": 0, "pitch": 42, "instrument": 0, "track": 9, "qtime": 14, "isDrum": true}, {"time": 207, "velocity": 108, "pitch": 42, "instrument": 0, "track": 9, "qtime": 15, "isDrum": true}, {"time": 209, "velocity": 0, "pitch": 42, "instrument": 0, "track": 9, "qtime": 17, "isDrum": true}, {"time": 210, "velocity": 108, "pitch": 42, "instrument": 0, "track": 9, "qtime": 18, "isDrum": true}, {"time": 212, "velocity": 0, "pitch": 42, "instrument": 0, "track": 9, "qtime": 20, "isDrum": true}, {"time": 213, "velocity": 108, "pitch": 42, "instrument": 0, "track": 9, "qtime": 21, "isDrum": true}, {"time": 215, "velocity": 0, "pitch": 42, "instrument": 0, "track": 9, "qtime": 23, "isDrum": true}, {"time": 216, "velocity": 108, "pitch": 35, "instrument": 0, "track": 9, "qtime": 24, "isDrum": true}, {"time": 216, "velocity": 108, "pitch": 36, "instrument": 0, "track": 9, "qtime": 24, "isDrum": true}, {"time": 216, "velocity": 108, "pitch": 42, "instrument": 0, "track": 9, "qtime": 24, "isDrum": true}, {"time": 218, "velocity": 0, "pitch": 35, "instrument": 0, "track": 9, "qtime": 26, "isDrum": true}, {"time": 218, "velocity": 0, "pitch": 36, "instrument": 0, "track": 9, "qtime": 26, "isDrum": true}, {"time": 218, "velocity": 0, "pitch": 42, "instrument": 0, "track": 9, "qtime": 26, "isDrum": true}, {"time": 219, "velocity": 108, "pitch": 42, "instrument": 0, "track": 9, "qtime": 27, "isDrum": true}, {"time": 221, "velocity": 0, "pitch": 42, "instrument": 0, "track": 9, "qtime": 29, "isDrum": true}, {"time": 222, "velocity": 108, "pitch": 35, "instrument": 0, "track": 9, "qtime": 30, "isDrum": true}, {"time": 222, "velocity": 108, "pitch": 36, "instrument": 0, "track": 9, "qtime": 30, "isDrum": true}, {"time": 222, "velocity": 108, "pitch": 42, "instrument": 0, "track": 9, "qtime": 30, "isDrum": true}, {"time": 224, "velocity": 0, "pitch": 35, "instrument": 0, "track": 9, "qtime": 32, "isDrum": true}, {"time": 224, "velocity": 0, "pitch": 36, "instrument": 0, "track": 9, "qtime": 32, "isDrum": true}, {"time": 224, "velocity": 0, "pitch": 42, "instrument": 0, "track": 9, "qtime": 32, "isDrum": true}, {"time": 225, "velocity": 108, "pitch": 35, "instrument": 0, "track": 9, "qtime": 33, "isDrum": true}, {"time": 225, "velocity": 108, "pitch": 36, "instrument": 0, "track": 9, "qtime": 33, "isDrum": true}, {"time": 225, "velocity": 108, "pitch": 42, "instrument": 0, "track": 9, "qtime": 33, "isDrum": true}, {"time": 227, "velocity": 0, "pitch": 35, "instrument": 0, "track": 9, "qtime": 35, "isDrum": true}, {"time": 227, "velocity": 0, "pitch": 36, "instrument": 0, "track": 9, "qtime": 35, "isDrum": true}, {"time": 227, "velocity": 0, "pitch": 42, "instrument": 0, "track": 9, "qtime": 35, "isDrum": true}, {"time": 228, "velocity": 108, "pitch": 38, "instrument": 0, "track": 9, "qtime": 36, "isDrum": true}, {"time": 228, "velocity": 108, "pitch": 40, "instrument": 0, "track": 9, "qtime": 36, "isDrum": true}, {"time": 228, "velocity": 108, "pitch": 42, "instrument": 0, "track": 9, "qtime": 36, "isDrum": true}, {"time": 230, "velocity": 0, "pitch": 38, "instrument": 0, "track": 9, "qtime": 38, "isDrum": true}, {"time": 230, "velocity": 0, "pitch": 40, "instrument": 0, "track": 9, "qtime": 38, "isDrum": true}, {"time": 230, "velocity": 0, "pitch": 42, "instrument": 0, "track": 9, "qtime": 38, "isDrum": true}, {"time": 231, "velocity": 108, "pitch": 42, "instrument": 0, "track": 9, "qtime": 39, "isDrum": true}, {"time": 233, "velocity": 0, "pitch": 42, "instrument": 0, "track": 9, "qtime": 41, "isDrum": true}, {"time": 234, "velocity": 108, "pitch": 42, "instrument": 0, "track": 9, "qtime": 42, "isDrum": true}, {"time": 236, "velocity": 0, "pitch": 42, "instrument": 0, "track": 9, "qtime": 44, "isDrum": true}, {"time": 237, "velocity": 108, "pitch": 42, "instrument": 0, "track": 9, "qtime": 45, "isDrum": true}, {"time": 239, "velocity": 0, "pitch": 42, "instrument": 0, "track": 9, "qtime": 47, "isDrum": true}, {"time": 240, "velocity": 108, "pitch": 35, "instrument": 0, "track": 9, "qtime": 0, "isDrum": true}, {"time": 240, "velocity": 108, "pitch": 36, "instrument": 0, "track": 9, "qtime": 0, "isDrum": true}, {"time": 240, "velocity": 108, "pitch": 42, "instrument": 0, "track": 9, "qtime": 0, "isDrum": true}, {"time": 242, "velocity": 0, "pitch": 35, "instrument": 0, "track": 9, "qtime": 2, "isDrum": true}, {"time": 242, "velocity": 0, "pitch": 36, "instrument": 0, "track": 9, "qtime": 2, "isDrum": true}, {"time": 242, "velocity": 0, "pitch": 42, "instrument": 0, "track": 9, "qtime": 2, "isDrum": true}, {"time": 243, "velocity": 108, "pitch": 42, "instrument": 0, "track": 9, "qtime": 3, "isDrum": true}, {"time": 245, "velocity": 0, "pitch": 42, "instrument": 0, "track": 9, "qtime": 5, "isDrum": true}, {"time": 246, "velocity": 108, "pitch": 42, "instrument": 0, "track": 9, "qtime": 6, "isDrum": true}, {"time": 248, "velocity": 0, "pitch": 42, "instrument": 0, "track": 9, "qtime": 8, "isDrum": true}, {"time": 249, "velocity": 108, "pitch": 42, "instrument": 0, "track": 9, "qtime": 9, "isDrum": true}, {"time": 251, "velocity": 0, "pitch": 42, "instrument": 0, "track": 9, "qtime": 11, "isDrum": true}, {"time": 252, "velocity": 108, "pitch": 38, "instrument": 0, "track": 9, "qtime": 12, "isDrum": true}, {"time": 252, "velocity": 108, "pitch": 40, "instrument": 0, "track": 9, "qtime": 12, "isDrum": true}, {"time": 252, "velocity": 108, "pitch": 42, "instrument": 0, "track": 9, "qtime": 12, "isDrum": true}, {"time": 254, "velocity": 0, "pitch": 38, "instrument": 0, "track": 9, "qtime": 14, "isDrum": true}, {"time": 254, "velocity": 0, "pitch": 40, "instrument": 0, "track": 9, "qtime": 14, "isDrum": true}, {"time": 254, "velocity": 0, "pitch": 42, "instrument": 0, "track": 9, "qtime": 14, "isDrum": true}, {"time": 255, "velocity": 108, "pitch": 42, "instrument": 0, "track": 9, "qtime": 15, "isDrum": true}, {"time": 257, "velocity": 0, "pitch": 42, "instrument": 0, "track": 9, "qtime": 17, "isDrum": true}, {"time": 258, "velocity": 108, "pitch": 42, "instrument": 0, "track": 9, "qtime": 18, "isDrum": true}, {"time": 260, "velocity": 0, "pitch": 42, "instrument": 0, "track": 9, "qtime": 20, "isDrum": true}, {"time": 261, "velocity": 108, "pitch": 42, "instrument": 0, "track": 9, "qtime": 21, "isDrum": true}, {"time": 263, "velocity": 0, "pitch": 42, "instrument": 0, "track": 9, "qtime": 23, "isDrum": true}, {"time": 264, "velocity": 108, "pitch": 35, "instrument": 0, "track": 9, "qtime": 24, "isDrum": true}, {"time": 264, "velocity": 108, "pitch": 36, "instrument": 0, "track": 9, "qtime": 24, "isDrum": true}, {"time": 264, "velocity": 108, "pitch": 42, "instrument": 0, "track": 9, "qtime": 24, "isDrum": true}, {"time": 266, "velocity": 0, "pitch": 35, "instrument": 0, "track": 9, "qtime": 26, "isDrum": true}, {"time": 266, "velocity": 0, "pitch": 36, "instrument": 0, "track": 9, "qtime": 26, "isDrum": true}, {"time": 266, "velocity": 0, "pitch": 42, "instrument": 0, "track": 9, "qtime": 26, "isDrum": true}, {"time": 267, "velocity": 108, "pitch": 42, "instrument": 0, "track": 9, "qtime": 27, "isDrum": true}, {"time": 269, "velocity": 0, "pitch": 42, "instrument": 0, "track": 9, "qtime": 29, "isDrum": true}, {"time": 270, "velocity": 108, "pitch": 35, "instrument": 0, "track": 9, "qtime": 30, "isDrum": true}, {"time": 270, "velocity": 108, "pitch": 36, "instrument": 0, "track": 9, "qtime": 30, "isDrum": true}, {"time": 270, "velocity": 108, "pitch": 42, "instrument": 0, "track": 9, "qtime": 30, "isDrum": true}, {"time": 272, "velocity": 0, "pitch": 35, "instrument": 0, "track": 9, "qtime": 32, "isDrum": true}, {"time": 272, "velocity": 0, "pitch": 36, "instrument": 0, "track": 9, "qtime": 32, "isDrum": true}, {"time": 272, "velocity": 0, "pitch": 42, "instrument": 0, "track": 9, "qtime": 32, "isDrum": true}, {"time": 273, "velocity": 108, "pitch": 42, "instrument": 0, "track": 9, "qtime": 33, "isDrum": true}, {"time": 275, "velocity": 0, "pitch": 42, "instrument": 0, "track": 9, "qtime": 35, "isDrum": true}, {"time": 276, "velocity": 108, "pitch": 38, "instrument": 0, "track": 9, "qtime": 36, "isDrum": true}, {"time": 276, "velocity": 108, "pitch": 40, "instrument": 0, "track": 9, "qtime": 36, "isDrum": true}, {"time": 276, "velocity": 108, "pitch": 42, "instrument": 0, "track": 9, "qtime": 36, "isDrum": true}, {"time": 278, "velocity": 0, "pitch": 38, "instrument": 0, "track": 9, "qtime": 38, "isDrum": true}, {"time": 278, "velocity": 0, "pitch": 40, "instrument": 0, "track": 9, "qtime": 38, "isDrum": true}, {"time": 278, "velocity": 0, "pitch": 42, "instrument": 0, "track": 9, "qtime": 38, "isDrum": true}, {"time": 279, "velocity": 108, "pitch": 42, "instrument": 0, "track": 9, "qtime": 39, "isDrum": true}, {"time": 281, "velocity": 0, "pitch": 42, "instrument": 0, "track": 9, "qtime": 41, "isDrum": true}, {"time": 282, "velocity": 108, "pitch": 42, "instrument": 0, "track": 9, "qtime": 42, "isDrum": true}, {"time": 284, "velocity": 0, "pitch": 42, "instrument": 0, "track": 9, "qtime": 44, "isDrum": true}, {"time": 285, "velocity": 108, "pitch": 42, "instrument": 0, "track": 9, "qtime": 45, "isDrum": true}, {"time": 287, "velocity": 0, "pitch": 42, "instrument": 0, "track": 9, "qtime": 47, "isDrum": true}, {"time": 288, "velocity": 108, "pitch": 35, "instrument": 0, "track": 9, "qtime": 0, "isDrum": true}, {"time": 288, "velocity": 108, "pitch": 36, "instrument": 0, "track": 9, "qtime": 0, "isDrum": true}, {"time": 288, "velocity": 108, "pitch": 42, "instrument": 0, "track": 9, "qtime": 0, "isDrum": true}, {"time": 290, "velocity": 0, "pitch": 35, "instrument": 0, "track": 9, "qtime": 2, "isDrum": true}, {"time": 290, "velocity": 0, "pitch": 36, "instrument": 0, "track": 9, "qtime": 2, "isDrum": true}, {"time": 290, "velocity": 0, "pitch": 42, "instrument": 0, "track": 9, "qtime": 2, "isDrum": true}, {"time": 291, "velocity": 108, "pitch": 42, "instrument": 0, "track": 9, "qtime": 3, "isDrum": true}, {"time": 293, "velocity": 0, "pitch": 42, "instrument": 0, "track": 9, "qtime": 5, "isDrum": true}, {"time": 294, "velocity": 108, "pitch": 42, "instrument": 0, "track": 9, "qtime": 6, "isDrum": true}, {"time": 296, "velocity": 0, "pitch": 42, "instrument": 0, "track": 9, "qtime": 8, "isDrum": true}, {"time": 297, "velocity": 108, "pitch": 42, "instrument": 0, "track": 9, "qtime": 9, "isDrum": true}, {"time": 299, "velocity": 0, "pitch": 42, "instrument": 0, "track": 9, "qtime": 11, "isDrum": true}, {"time": 300, "velocity": 108, "pitch": 38, "instrument": 0, "track": 9, "qtime": 12, "isDrum": true}, {"time": 300, "velocity": 108, "pitch": 40, "instrument": 0, "track": 9, "qtime": 12, "isDrum": true}, {"time": 300, "velocity": 108, "pitch": 42, "instrument": 0, "track": 9, "qtime": 12, "isDrum": true}, {"time": 302, "velocity": 0, "pitch": 38, "instrument": 0, "track": 9, "qtime": 14, "isDrum": true}, {"time": 302, "velocity": 0, "pitch": 40, "instrument": 0, "track": 9, "qtime": 14, "isDrum": true}, {"time": 302, "velocity": 0, "pitch": 42, "instrument": 0, "track": 9, "qtime": 14, "isDrum": true}, {"time": 303, "velocity": 108, "pitch": 42, "instrument": 0, "track": 9, "qtime": 15, "isDrum": true}, {"time": 305, "velocity": 0, "pitch": 42, "instrument": 0, "track": 9, "qtime": 17, "isDrum": true}, {"time": 306, "velocity": 108, "pitch": 42, "instrument": 0, "track": 9, "qtime": 18, "isDrum": true}, {"time": 308, "velocity": 0, "pitch": 42, "instrument": 0, "track": 9, "qtime": 20, "isDrum": true}, {"time": 309, "velocity": 108, "pitch": 42, "instrument": 0, "track": 9, "qtime": 21, "isDrum": true}, {"time": 311, "velocity": 0, "pitch": 42, "instrument": 0, "track": 9, "qtime": 23, "isDrum": true}, {"time": 312, "velocity": 108, "pitch": 35, "instrument": 0, "track": 9, "qtime": 24, "isDrum": true}, {"time": 312, "velocity": 108, "pitch": 36, "instrument": 0, "track": 9, "qtime": 24, "isDrum": true}, {"time": 312, "velocity": 108, "pitch": 42, "instrument": 0, "track": 9, "qtime": 24, "isDrum": true}, {"time": 314, "velocity": 0, "pitch": 35, "instrument": 0, "track": 9, "qtime": 26, "isDrum": true}, {"time": 314, "velocity": 0, "pitch": 36, "instrument": 0, "track": 9, "qtime": 26, "isDrum": true}, {"time": 314, "velocity": 0, "pitch": 42, "instrument": 0, "track": 9, "qtime": 26, "isDrum": true}, {"time": 315, "velocity": 108, "pitch": 42, "instrument": 0, "track": 9, "qtime": 27, "isDrum": true}, {"time": 317, "velocity": 0, "pitch": 42, "instrument": 0, "track": 9, "qtime": 29, "isDrum": true}, {"time": 318, "velocity": 108, "pitch": 35, "instrument": 0, "track": 9, "qtime": 30, "isDrum": true}, {"time": 318, "velocity": 108, "pitch": 36, "instrument": 0, "track": 9, "qtime": 30, "isDrum": true}, {"time": 318, "velocity": 108, "pitch": 42, "instrument": 0, "track": 9, "qtime": 30, "isDrum": true}, {"time": 320, "velocity": 0, "pitch": 35, "instrument": 0, "track": 9, "qtime": 32, "isDrum": true}, {"time": 320, "velocity": 0, "pitch": 36, "instrument": 0, "track": 9, "qtime": 32, "isDrum": true}, {"time": 320, "velocity": 0, "pitch": 42, "instrument": 0, "track": 9, "qtime": 32, "isDrum": true}, {"time": 321, "velocity": 108, "pitch": 38, "instrument": 0, "track": 9, "qtime": 33, "isDrum": true}, {"time": 321, "velocity": 108, "pitch": 40, "instrument": 0, "track": 9, "qtime": 33, "isDrum": true}, {"time": 321, "velocity": 108, "pitch": 42, "instrument": 0, "track": 9, "qtime": 33, "isDrum": true}, {"time": 323, "velocity": 0, "pitch": 38, "instrument": 0, "track": 9, "qtime": 35, "isDrum": true}, {"time": 323, "velocity": 0, "pitch": 40, "instrument": 0, "track": 9, "qtime": 35, "isDrum": true}, {"time": 323, "velocity": 0, "pitch": 42, "instrument": 0, "track": 9, "qtime": 35, "isDrum": true}, {"time": 324, "velocity": 108, "pitch": 42, "instrument": 0, "track": 9, "qtime": 36, "isDrum": true}, {"time": 326, "velocity": 0, "pitch": 42, "instrument": 0, "track": 9, "qtime": 38, "isDrum": true}, {"time": 327, "velocity": 108, "pitch": 42, "instrument": 0, "track": 9, "qtime": 39, "isDrum": true}, {"time": 329, "velocity": 0, "pitch": 42, "instrument": 0, "track": 9, "qtime": 41, "isDrum": true}, {"time": 330, "velocity": 108, "pitch": 42, "instrument": 0, "track": 9, "qtime": 42, "isDrum": true}, {"time": 332, "velocity": 0, "pitch": 42, "instrument": 0, "track": 9, "qtime": 44, "isDrum": true}, {"time": 333, "velocity": 108, "pitch": 42, "instrument": 0, "track": 9, "qtime": 45, "isDrum": true}, {"time": 335, "velocity": 0, "pitch": 42, "instrument": 0, "track": 9, "qtime": 47, "isDrum": true}, {"time": 336, "velocity": 108, "pitch": 35, "instrument": 0, "track": 9, "qtime": 0, "isDrum": true}, {"time": 336, "velocity": 108, "pitch": 36, "instrument": 0, "track": 9, "qtime": 0, "isDrum": true}, {"time": 336, "velocity": 108, "pitch": 42, "instrument": 0, "track": 9, "qtime": 0, "isDrum": true}, {"time": 338, "velocity": 0, "pitch": 35, "instrument": 0, "track": 9, "qtime": 2, "isDrum": true}, {"time": 338, "velocity": 0, "pitch": 36, "instrument": 0, "track": 9, "qtime": 2, "isDrum": true}, {"time": 338, "velocity": 0, "pitch": 42, "instrument": 0, "track": 9, "qtime": 2, "isDrum": true}, {"time": 339, "velocity": 108, "pitch": 42, "instrument": 0, "track": 9, "qtime": 3, "isDrum": true}, {"time": 341, "velocity": 0, "pitch": 42, "instrument": 0, "track": 9, "qtime": 5, "isDrum": true}, {"time": 342, "velocity": 108, "pitch": 42, "instrument": 0, "track": 9, "qtime": 6, "isDrum": true}, {"time": 344, "velocity": 0, "pitch": 42, "instrument": 0, "track": 9, "qtime": 8, "isDrum": true}, {"time": 345, "velocity": 108, "pitch": 42, "instrument": 0, "track": 9, "qtime": 9, "isDrum": true}, {"time": 347, "velocity": 0, "pitch": 42, "instrument": 0, "track": 9, "qtime": 11, "isDrum": true}, {"time": 348, "velocity": 108, "pitch": 38, "instrument": 0, "track": 9, "qtime": 12, "isDrum": true}, {"time": 348, "velocity": 108, "pitch": 40, "instrument": 0, "track": 9, "qtime": 12, "isDrum": true}, {"time": 348, "velocity": 108, "pitch": 42, "instrument": 0, "track": 9, "qtime": 12, "isDrum": true}, {"time": 350, "velocity": 0, "pitch": 38, "instrument": 0, "track": 9, "qtime": 14, "isDrum": true}, {"time": 350, "velocity": 0, "pitch": 40, "instrument": 0, "track": 9, "qtime": 14, "isDrum": true}, {"time": 350, "velocity": 0, "pitch": 42, "instrument": 0, "track": 9, "qtime": 14, "isDrum": true}, {"time": 351, "velocity": 108, "pitch": 42, "instrument": 0, "track": 9, "qtime": 15, "isDrum": true}, {"time": 353, "velocity": 0, "pitch": 42, "instrument": 0, "track": 9, "qtime": 17, "isDrum": true}, {"time": 354, "velocity": 108, "pitch": 42, "instrument": 0, "track": 9, "qtime": 18, "isDrum": true}, {"time": 356, "velocity": 0, "pitch": 42, "instrument": 0, "track": 9, "qtime": 20, "isDrum": true}, {"time": 357, "velocity": 108, "pitch": 42, "instrument": 0, "track": 9, "qtime": 21, "isDrum": true}, {"time": 359, "velocity": 0, "pitch": 42, "instrument": 0, "track": 9, "qtime": 23, "isDrum": true}, {"time": 360, "velocity": 108, "pitch": 35, "instrument": 0, "track": 9, "qtime": 24, "isDrum": true}, {"time": 360, "velocity": 108, "pitch": 36, "instrument": 0, "track": 9, "qtime": 24, "isDrum": true}, {"time": 360, "velocity": 108, "pitch": 42, "instrument": 0, "track": 9, "qtime": 24, "isDrum": true}, {"time": 362, "velocity": 0, "pitch": 35, "instrument": 0, "track": 9, "qtime": 26, "isDrum": true}, {"time": 362, "velocity": 0, "pitch": 36, "instrument": 0, "track": 9, "qtime": 26, "isDrum": true}, {"time": 362, "velocity": 0, "pitch": 42, "instrument": 0, "track": 9, "qtime": 26, "isDrum": true}, {"time": 363, "velocity": 108, "pitch": 42, "instrument": 0, "track": 9, "qtime": 27, "isDrum": true}, {"time": 365, "velocity": 0, "pitch": 42, "instrument": 0, "track": 9, "qtime": 29, "isDrum": true}, {"time": 366, "velocity": 108, "pitch": 35, "instrument": 0, "track": 9, "qtime": 30, "isDrum": true}, {"time": 366, "velocity": 108, "pitch": 36, "instrument": 0, "track": 9, "qtime": 30, "isDrum": true}, {"time": 366, "velocity": 108, "pitch": 42, "instrument": 0, "track": 9, "qtime": 30, "isDrum": true}, {"time": 368, "velocity": 0, "pitch": 35, "instrument": 0, "track": 9, "qtime": 32, "isDrum": true}, {"time": 368, "velocity": 0, "pitch": 36, "instrument": 0, "track": 9, "qtime": 32, "isDrum": true}, {"time": 368, "velocity": 0, "pitch": 42, "instrument": 0, "track": 9, "qtime": 32, "isDrum": true}, {"time": 369, "velocity": 108, "pitch": 42, "instrument": 0, "track": 9, "qtime": 33, "isDrum": true}, {"time": 371, "velocity": 0, "pitch": 42, "instrument": 0, "track": 9, "qtime": 35, "isDrum": true}, {"time": 372, "velocity": 108, "pitch": 38, "instrument": 0, "track": 9, "qtime": 36, "isDrum": true}, {"time": 372, "velocity": 108, "pitch": 40, "instrument": 0, "track": 9, "qtime": 36, "isDrum": true}, {"time": 372, "velocity": 108, "pitch": 42, "instrument": 0, "track": 9, "qtime": 36, "isDrum": true}, {"time": 374, "velocity": 0, "pitch": 38, "instrument": 0, "track": 9, "qtime": 38, "isDrum": true}, {"time": 374, "velocity": 0, "pitch": 40, "instrument": 0, "track": 9, "qtime": 38, "isDrum": true}, {"time": 374, "velocity": 0, "pitch": 42, "instrument": 0, "track": 9, "qtime": 38, "isDrum": true}, {"time": 375, "velocity": 108, "pitch": 42, "instrument": 0, "track": 9, "qtime": 39, "isDrum": true}, {"time": 377, "velocity": 0, "pitch": 42, "instrument": 0, "track": 9, "qtime": 41, "isDrum": true}, {"time": 378, "velocity": 108, "pitch": 42, "instrument": 0, "track": 9, "qtime": 42, "isDrum": true}, {"time": 380, "velocity": 0, "pitch": 42, "instrument": 0, "track": 9, "qtime": 44, "isDrum": true}, {"time": 381, "velocity": 108, "pitch": 42, "instrument": 0, "track": 9, "qtime": 45, "isDrum": true}, {"time": 383, "velocity": 0, "pitch": 42, "instrument": 0, "track": 9, "qtime": 47, "isDrum": true}, {"time": 0, "velocity": 108, "pitch": 32, "instrument": 37, "track": 2, "qtime": 0, "isDrum": false}, {"time": 4, "velocity": 0, "pitch": 32, "instrument": 37, "track": 2, "qtime": 4, "isDrum": false}, {"time": 6, "velocity": 108, "pitch": 32, "instrument": 37, "track": 2, "qtime": 6, "isDrum": false}, {"time": 9, "velocity": 0, "pitch": 32, "instrument": 37, "track": 2, "qtime": 9, "isDrum": false}, {"time": 24, "velocity": 108, "pitch": 32, "instrument": 37, "track": 2, "qtime": 24, "isDrum": false}, {"time": 28, "velocity": 0, "pitch": 32, "instrument": 37, "track": 2, "qtime": 28, "isDrum": false}, {"time": 30, "velocity": 108, "pitch": 29, "instrument": 37, "track": 2, "qtime": 30, "isDrum": false}, {"time": 32, "velocity": 0, "pitch": 29, "instrument": 37, "track": 2, "qtime": 32, "isDrum": false}, {"time": 33, "velocity": 108, "pitch": 32, "instrument": 37, "track": 2, "qtime": 33, "isDrum": false}, {"time": 42, "velocity": 108, "pitch": 29, "instrument": 37, "track": 2, "qtime": 42, "isDrum": false}, {"time": 44, "velocity": 0, "pitch": 29, "instrument": 37, "track": 2, "qtime": 44, "isDrum": false}, {"time": 45, "velocity": 108, "pitch": 27, "instrument": 37, "track": 2, "qtime": 45, "isDrum": false}, {"time": 47, "velocity": 0, "pitch": 32, "instrument": 37, "track": 2, "qtime": 47, "isDrum": false}, {"time": 49, "velocity": 0, "pitch": 27, "instrument": 37, "track": 2, "qtime": 49, "isDrum": false}, {"time": 48, "velocity": 108, "pitch": 32, "instrument": 37, "track": 2, "qtime": 0, "isDrum": false}, {"time": 53, "velocity": 0, "pitch": 32, "instrument": 37, "track": 2, "qtime": 5, "isDrum": false}, {"time": 54, "velocity": 108, "pitch": 32, "instrument": 37, "track": 2, "qtime": 6, "isDrum": false}, {"time": 57, "velocity": 0, "pitch": 32, "instrument": 37, "track": 2, "qtime": 9, "isDrum": false}, {"time": 72, "velocity": 108, "pitch": 32, "instrument": 37, "track": 2, "qtime": 24, "isDrum": false}, {"time": 76, "velocity": 0, "pitch": 32, "instrument": 37, "track": 2, "qtime": 28, "isDrum": false}, {"time": 78, "velocity": 108, "pitch": 29, "instrument": 37, "track": 2, "qtime": 30, "isDrum": false}, {"time": 80, "velocity": 0, "pitch": 29, "instrument": 37, "track": 2, "qtime": 32, "isDrum": false}, {"time": 81, "velocity": 108, "pitch": 32, "instrument": 37, "track": 2, "qtime": 33, "isDrum": false}, {"time": 90, "velocity": 0, "pitch": 32, "instrument": 37, "track": 2, "qtime": 42, "isDrum": false}, {"time": 90, "velocity": 108, "pitch": 29, "instrument": 37, "track": 2, "qtime": 42, "isDrum": false}, {"time": 92, "velocity": 0, "pitch": 29, "instrument": 37, "track": 2, "qtime": 44, "isDrum": false}, {"time": 93, "velocity": 108, "pitch": 27, "instrument": 37, "track": 2, "qtime": 45, "isDrum": false}, {"time": 97, "velocity": 0, "pitch": 27, "instrument": 37, "track": 2, "qtime": 49, "isDrum": false}, {"time": 96, "velocity": 108, "pitch": 29, "instrument": 37, "track": 2, "qtime": 0, "isDrum": false}, {"time": 101, "velocity": 0, "pitch": 29, "instrument": 37, "track": 2, "qtime": 5, "isDrum": false}, {"time": 102, "velocity": 108, "pitch": 29, "instrument": 37, "track": 2, "qtime": 6, "isDrum": false}, {"time": 105, "velocity": 0, "pitch": 29, "instrument": 37, "track": 2, "qtime": 9, "isDrum": false}, {"time": 120, "velocity": 108, "pitch": 29, "instrument": 37, "track": 2, "qtime": 24, "isDrum": false}, {"time": 124, "velocity": 0, "pitch": 29, "instrument": 37, "track": 2, "qtime": 28, "isDrum": false}, {"time": 126, "velocity": 108, "pitch": 27, "instrument": 37, "track": 2, "qtime": 30, "isDrum": false}, {"time": 128, "velocity": 0, "pitch": 27, "instrument": 37, "track": 2, "qtime": 32, "isDrum": false}, {"time": 129, "velocity": 108, "pitch": 29, "instrument": 37, "track": 2, "qtime": 33, "isDrum": false}, {"time": 138, "velocity": 0, "pitch": 29, "instrument": 37, "track": 2, "qtime": 42, "isDrum": false}, {"time": 138, "velocity": 108, "pitch": 27, "instrument": 37, "track": 2, "qtime": 42, "isDrum": false}, {"time": 140, "velocity": 0, "pitch": 27, "instrument": 37, "track": 2, "qtime": 44, "isDrum": false}, {"time": 141, "velocity": 108, "pitch": 24, "instrument": 37, "track": 2, "qtime": 45, "isDrum": false}, {"time": 145, "velocity": 0, "pitch": 24, "instrument": 37, "track": 2, "qtime": 49, "isDrum": false}, {"time": 144, "velocity": 108, "pitch": 29, "instrument": 37, "track": 2, "qtime": 0, "isDrum": false}, {"time": 149, "velocity": 0, "pitch": 29, "instrument": 37, "track": 2, "qtime": 5, "isDrum": false}, {"time": 150, "velocity": 108, "pitch": 29, "instrument": 37, "track": 2, "qtime": 6, "isDrum": false}, {"time": 153, "velocity": 0, "pitch": 29, "instrument": 37, "track": 2, "qtime": 9, "isDrum": false}, {"time": 168, "velocity": 108, "pitch": 29, "instrument": 37, "track": 2, "qtime": 24, "isDrum": false}, {"time": 172, "velocity": 0, "pitch": 29, "instrument": 37, "track": 2, "qtime": 28, "isDrum": false}, {"time": 174, "velocity": 108, "pitch": 27, "instrument": 37, "track": 2, "qtime": 30, "isDrum": false}, {"time": 176, "velocity": 0, "pitch": 27, "instrument": 37, "track": 2, "qtime": 32, "isDrum": false}, {"time": 177, "velocity": 108, "pitch": 29, "instrument": 37, "track": 2, "qtime": 33, "isDrum": false}, {"time": 186, "velocity": 0, "pitch": 29, "instrument": 37, "track": 2, "qtime": 42, "isDrum": false}, {"time": 186, "velocity": 108, "pitch": 27, "instrument": 37, "track": 2, "qtime": 42, "isDrum": false}, {"time": 188, "velocity": 0, "pitch": 27, "instrument": 37, "track": 2, "qtime": 44, "isDrum": false}, {"time": 189, "velocity": 108, "pitch": 24, "instrument": 37, "track": 2, "qtime": 45, "isDrum": false}, {"time": 193, "velocity": 0, "pitch": 24, "instrument": 37, "track": 2, "qtime": 49, "isDrum": false}, {"time": 192, "velocity": 108, "pitch": 32, "instrument": 37, "track": 2, "qtime": 0, "isDrum": false}, {"time": 196, "velocity": 0, "pitch": 32, "instrument": 37, "track": 2, "qtime": 4, "isDrum": false}, {"time": 198, "velocity": 108, "pitch": 32, "instrument": 37, "track": 2, "qtime": 6, "isDrum": false}, {"time": 201, "velocity": 0, "pitch": 32, "instrument": 37, "track": 2, "qtime": 9, "isDrum": false}, {"time": 216, "velocity": 108, "pitch": 32, "instrument": 37, "track": 2, "qtime": 24, "isDrum": false}, {"time": 220, "velocity": 0, "pitch": 32, "instrument": 37, "track": 2, "qtime": 28, "isDrum": false}, {"time": 222, "velocity": 108, "pitch": 29, "instrument": 37, "track": 2, "qtime": 30, "isDrum": false}, {"time": 224, "velocity": 0, "pitch": 29, "instrument": 37, "track": 2, "qtime": 32, "isDrum": false}, {"time": 225, "velocity": 108, "pitch": 32, "instrument": 37, "track": 2, "qtime": 33, "isDrum": false}, {"time": 234, "velocity": 108, "pitch": 29, "instrument": 37, "track": 2, "qtime": 42, "isDrum": false}, {"time": 236, "velocity": 0, "pitch": 29, "instrument": 37, "track": 2, "qtime": 44, "isDrum": false}, {"time": 237, "velocity": 108, "pitch": 27, "instrument": 37, "track": 2, "qtime": 45, "isDrum": false}, {"time": 239, "velocity": 0, "pitch": 32, "instrument": 37, "track": 2, "qtime": 47, "isDrum": false}, {"time": 241, "velocity": 0, "pitch": 27, "instrument": 37, "track": 2, "qtime": 49, "isDrum": false}, {"time": 240, "velocity": 108, "pitch": 32, "instrument": 37, "track": 2, "qtime": 0, "isDrum": false}, {"time": 245, "velocity": 0, "pitch": 32, "instrument": 37, "track": 2, "qtime": 5, "isDrum": false}, {"time": 246, "velocity": 108, "pitch": 32, "instrument": 37, "track": 2, "qtime": 6, "isDrum": false}, {"time": 249, "velocity": 0, "pitch": 32, "instrument": 37, "track": 2, "qtime": 9, "isDrum": false}, {"time": 264, "velocity": 108, "pitch": 32, "instrument": 37, "track": 2, "qtime": 24, "isDrum": false}, {"time": 268, "velocity": 0, "pitch": 32, "instrument": 37, "track": 2, "qtime": 28, "isDrum": false}, {"time": 270, "velocity": 108, "pitch": 29, "instrument": 37, "track": 2, "qtime": 30, "isDrum": false}, {"time": 272, "velocity": 0, "pitch": 29, "instrument": 37, "track": 2, "qtime": 32, "isDrum": false}, {"time": 273, "velocity": 108, "pitch": 32, "instrument": 37, "track": 2, "qtime": 33, "isDrum": false}, {"time": 282, "velocity": 0, "pitch": 32, "instrument": 37, "track": 2, "qtime": 42, "isDrum": false}, {"time": 282, "velocity": 108, "pitch": 29, "instrument": 37, "track": 2, "qtime": 42, "isDrum": false}, {"time": 284, "velocity": 0, "pitch": 29, "instrument": 37, "track": 2, "qtime": 44, "isDrum": false}, {"time": 285, "velocity": 108, "pitch": 27, "instrument": 37, "track": 2, "qtime": 45, "isDrum": false}, {"time": 289, "velocity": 0, "pitch": 27, "instrument": 37, "track": 2, "qtime": 49, "isDrum": false}, {"time": 288, "velocity": 108, "pitch": 29, "instrument": 37, "track": 2, "qtime": 0, "isDrum": false}, {"time": 293, "velocity": 0, "pitch": 29, "instrument": 37, "track": 2, "qtime": 5, "isDrum": false}, {"time": 294, "velocity": 108, "pitch": 29, "instrument": 37, "track": 2, "qtime": 6, "isDrum": false}, {"time": 297, "velocity": 0, "pitch": 29, "instrument": 37, "track": 2, "qtime": 9, "isDrum": false}, {"time": 312, "velocity": 108, "pitch": 29, "instrument": 37, "track": 2, "qtime": 24, "isDrum": false}, {"time": 316, "velocity": 0, "pitch": 29, "instrument": 37, "track": 2, "qtime": 28, "isDrum": false}, {"time": 318, "velocity": 108, "pitch": 27, "instrument": 37, "track": 2, "qtime": 30, "isDrum": false}, {"time": 320, "velocity": 0, "pitch": 27, "instrument": 37, "track": 2, "qtime": 32, "isDrum": false}, {"time": 321, "velocity": 108, "pitch": 29, "instrument": 37, "track": 2, "qtime": 33, "isDrum": false}, {"time": 329, "velocity": 0, "pitch": 29, "instrument": 37, "track": 2, "qtime": 41, "isDrum": false}, {"time": 330, "velocity": 108, "pitch": 27, "instrument": 37, "track": 2, "qtime": 42, "isDrum": false}, {"time": 332, "velocity": 0, "pitch": 27, "instrument": 37, "track": 2, "qtime": 44, "isDrum": false}, {"time": 333, "velocity": 108, "pitch": 24, "instrument": 37, "track": 2, "qtime": 45, "isDrum": false}, {"time": 337, "velocity": 0, "pitch": 24, "instrument": 37, "track": 2, "qtime": 49, "isDrum": false}, {"time": 336, "velocity": 108, "pitch": 34, "instrument": 37, "track": 2, "qtime": 0, "isDrum": false}, {"time": 341, "velocity": 0, "pitch": 34, "instrument": 37, "track": 2, "qtime": 5, "isDrum": false}, {"time": 342, "velocity": 108, "pitch": 34, "instrument": 37, "track": 2, "qtime": 6, "isDrum": false}, {"time": 345, "velocity": 0, "pitch": 34, "instrument": 37, "track": 2, "qtime": 9, "isDrum": false}, {"time": 348, "velocity": 108, "pitch": 46, "instrument": 37, "track": 2, "qtime": 12, "isDrum": false}, {"time": 372, "velocity": 0, "pitch": 46, "instrument": 37, "track": 2, "qtime": 36, "isDrum": false}, {"time": 372, "velocity": 108, "pitch": 44, "instrument": 37, "track": 2, "qtime": 36, "isDrum": false}, {"time": 384, "velocity": 0, "pitch": 44, "instrument": 37, "track": 2, "qtime": 48, "isDrum": false}, {"time": 12, "velocity": 108, "pitch": 63, "instrument": 56, "track": 3, "qtime": 12, "isDrum": false}, {"time": 12, "velocity": 108, "pitch": 75, "instrument": 56, "track": 3, "qtime": 12, "isDrum": false}, {"time": 16, "velocity": 0, "pitch": 63, "instrument": 56, "track": 3, "qtime": 16, "isDrum": false}, {"time": 16, "velocity": 0, "pitch": 75, "instrument": 56, "track": 3, "qtime": 16, "isDrum": false}, {"time": 36, "velocity": 108, "pitch": 58, "instrument": 56, "track": 3, "qtime": 36, "isDrum": false}, {"time": 36, "velocity": 108, "pitch": 70, "instrument": 56, "track": 3, "qtime": 36, "isDrum": false}, {"time": 40, "velocity": 0, "pitch": 58, "instrument": 56, "track": 3, "qtime": 40, "isDrum": false}, {"time": 40, "velocity": 0, "pitch": 70, "instrument": 56, "track": 3, "qtime": 40, "isDrum": false}, {"time": 60, "velocity": 108, "pitch": 63, "instrument": 56, "track": 3, "qtime": 12, "isDrum": false}, {"time": 60, "velocity": 108, "pitch": 75, "instrument": 56, "track": 3, "qtime": 12, "isDrum": false}, {"time": 64, "velocity": 0, "pitch": 63, "instrument": 56, "track": 3, "qtime": 16, "isDrum": false}, {"time": 64, "velocity": 0, "pitch": 75, "instrument": 56, "track": 3, "qtime": 16, "isDrum": false}, {"time": 84, "velocity": 108, "pitch": 58, "instrument": 56, "track": 3, "qtime": 36, "isDrum": false}, {"time": 84, "velocity": 108, "pitch": 70, "instrument": 56, "track": 3, "qtime": 36, "isDrum": false}, {"time": 88, "velocity": 0, "pitch": 58, "instrument": 56, "track": 3, "qtime": 40, "isDrum": false}, {"time": 88, "velocity": 0, "pitch": 70, "instrument": 56, "track": 3, "qtime": 40, "isDrum": false}, {"time": 108, "velocity": 108, "pitch": 63, "instrument": 56, "track": 3, "qtime": 12, "isDrum": false}, {"time": 108, "velocity": 108, "pitch": 75, "instrument": 56, "track": 3, "qtime": 12, "isDrum": false}, {"time": 112, "velocity": 0, "pitch": 63, "instrument": 56, "track": 3, "qtime": 16, "isDrum": false}, {"time": 112, "velocity": 0, "pitch": 75, "instrument": 56, "track": 3, "qtime": 16, "isDrum": false}, {"time": 132, "velocity": 108, "pitch": 58, "instrument": 56, "track": 3, "qtime": 36, "isDrum": false}, {"time": 132, "velocity": 108, "pitch": 70, "instrument": 56, "track": 3, "qtime": 36, "isDrum": false}, {"time": 136, "velocity": 0, "pitch": 58, "instrument": 56, "track": 3, "qtime": 40, "isDrum": false}, {"time": 136, "velocity": 0, "pitch": 70, "instrument": 56, "track": 3, "qtime": 40, "isDrum": false}, {"time": 156, "velocity": 108, "pitch": 63, "instrument": 56, "track": 3, "qtime": 12, "isDrum": false}, {"time": 156, "velocity": 108, "pitch": 75, "instrument": 56, "track": 3, "qtime": 12, "isDrum": false}, {"time": 160, "velocity": 0, "pitch": 63, "instrument": 56, "track": 3, "qtime": 16, "isDrum": false}, {"time": 160, "velocity": 0, "pitch": 75, "instrument": 56, "track": 3, "qtime": 16, "isDrum": false}, {"time": 180, "velocity": 108, "pitch": 58, "instrument": 56, "track": 3, "qtime": 36, "isDrum": false}, {"time": 180, "velocity": 108, "pitch": 70, "instrument": 56, "track": 3, "qtime": 36, "isDrum": false}, {"time": 184, "velocity": 0, "pitch": 58, "instrument": 56, "track": 3, "qtime": 40, "isDrum": false}, {"time": 184, "velocity": 0, "pitch": 70, "instrument": 56, "track": 3, "qtime": 40, "isDrum": false}, {"time": 204, "velocity": 108, "pitch": 63, "instrument": 56, "track": 3, "qtime": 12, "isDrum": false}, {"time": 204, "velocity": 108, "pitch": 75, "instrument": 56, "track": 3, "qtime": 12, "isDrum": false}, {"time": 208, "velocity": 0, "pitch": 63, "instrument": 56, "track": 3, "qtime": 16, "isDrum": false}, {"time": 208, "velocity": 0, "pitch": 75, "instrument": 56, "track": 3, "qtime": 16, "isDrum": false}, {"time": 228, "velocity": 108, "pitch": 58, "instrument": 56, "track": 3, "qtime": 36, "isDrum": false}, {"time": 228, "velocity": 108, "pitch": 70, "instrument": 56, "track": 3, "qtime": 36, "isDrum": false}, {"time": 232, "velocity": 0, "pitch": 58, "instrument": 56, "track": 3, "qtime": 40, "isDrum": false}, {"time": 232, "velocity": 0, "pitch": 70, "instrument": 56, "track": 3, "qtime": 40, "isDrum": false}, {"time": 252, "velocity": 108, "pitch": 63, "instrument": 56, "track": 3, "qtime": 12, "isDrum": false}, {"time": 252, "velocity": 108, "pitch": 75, "instrument": 56, "track": 3, "qtime": 12, "isDrum": false}, {"time": 256, "velocity": 0, "pitch": 63, "instrument": 56, "track": 3, "qtime": 16, "isDrum": false}, {"time": 256, "velocity": 0, "pitch": 75, "instrument": 56, "track": 3, "qtime": 16, "isDrum": false}, {"time": 276, "velocity": 108, "pitch": 58, "instrument": 56, "track": 3, "qtime": 36, "isDrum": false}, {"time": 276, "velocity": 108, "pitch": 70, "instrument": 56, "track": 3, "qtime": 36, "isDrum": false}, {"time": 280, "velocity": 0, "pitch": 58, "instrument": 56, "track": 3, "qtime": 40, "isDrum": false}, {"time": 280, "velocity": 0, "pitch": 70, "instrument": 56, "track": 3, "qtime": 40, "isDrum": false}, {"time": 300, "velocity": 108, "pitch": 63, "instrument": 56, "track": 3, "qtime": 12, "isDrum": false}, {"time": 300, "velocity": 108, "pitch": 75, "instrument": 56, "track": 3, "qtime": 12, "isDrum": false}, {"time": 304, "velocity": 0, "pitch": 63, "instrument": 56, "track": 3, "qtime": 16, "isDrum": false}, {"time": 304, "velocity": 0, "pitch": 75, "instrument": 56, "track": 3, "qtime": 16, "isDrum": false}, {"time": 324, "velocity": 108, "pitch": 58, "instrument": 56, "track": 3, "qtime": 36, "isDrum": false}, {"time": 324, "velocity": 108, "pitch": 70, "instrument": 56, "track": 3, "qtime": 36, "isDrum": false}, {"time": 328, "velocity": 0, "pitch": 58, "instrument": 56, "track": 3, "qtime": 40, "isDrum": false}, {"time": 328, "velocity": 0, "pitch": 70, "instrument": 56, "track": 3, "qtime": 40, "isDrum": false}, {"time": 348, "velocity": 108, "pitch": 65, "instrument": 56, "track": 3, "qtime": 12, "isDrum": false}, {"time": 348, "velocity": 108, "pitch": 77, "instrument": 56, "track": 3, "qtime": 12, "isDrum": false}, {"time": 352, "velocity": 0, "pitch": 65, "instrument": 56, "track": 3, "qtime": 16, "isDrum": false}, {"time": 352, "velocity": 0, "pitch": 77, "instrument": 56, "track": 3, "qtime": 16, "isDrum": false}, {"time": 372, "velocity": 108, "pitch": 70, "instrument": 56, "track": 3, "qtime": 36, "isDrum": false}, {"time": 372, "velocity": 108, "pitch": 82, "instrument": 56, "track": 3, "qtime": 36, "isDrum": false}, {"time": 376, "velocity": 0, "pitch": 70, "instrument": 56, "track": 3, "qtime": 40, "isDrum": false}, {"time": 376, "velocity": 0, "pitch": 82, "instrument": 56, "track": 3, "qtime": 40, "isDrum": false}], "resolution": 12, "tempo": 120, "minPitch": 24, "maxPitch": 82, "validSegments": [0], "validTracks": [15]}, "audio": "https://www.sfu.ca/~jeffe/examples/8b_uncond_3.mp3"}, {"src": "gen/uncond_2.json", "highlights": [[], [], [], [], [], [], [], []], "caption": "", "sample_id": "6a", "mixer": [8, 8, 8, 8, 8, 8, 8, 8], "json": {"tracks": [{"bars": [{"events": [0, 1, 2, 3, 4, 5, 6, 7, 8, 9, 10, 11, 12, 13, 14, 15], "isFourFour": true, "hasNotes": true, "time": 0}, {"events": [16, 17, 18, 19, 20, 21, 22, 23, 24, 25, 26, 27, 28, 29, 30, 31], "isFourFour": true, "hasNotes": true, "time": 48}, {"events": [32, 33, 34, 35, 36, 37, 38, 39, 40, 41, 42, 43, 44, 45, 46, 47], "isFourFour": true, "hasNotes": true, "time": 96}, {"events": [48, 49, 50, 51, 52, 53, 54, 55, 56, 57, 58, 59, 60, 61, 62, 63, 64, 65, 66, 67, 68, 69], "isFourFour": true, "hasNotes": true, "time": 144}], "isDrum": false, "minPitch": 61, "maxPitch": 73, "instrument": 40, "avPolyphony": 1, "noteDensity": 9, "noteDensityV2": 8}, {"bars": [{"events": [70, 71, 72, 73, 74, 75, 76, 77, 78, 79, 80, 81, 82, 83, 84, 85], "isFourFour": true, "hasNotes": true, "time": 0}, {"events": [86, 87, 88, 89], "isFourFour": true, "hasNotes": true, "time": 48}, {"events": [90, 91, 92, 93, 94, 95, 96, 97, 98, 99, 100, 101, 102, 103, 104, 105], "isFourFour": true, "hasNotes": true, "time": 96}, {"events": [106, 107, 108, 109, 110, 111, 112, 113, 114, 115, 116, 117, 118, 119, 120, 121], "isFourFour": true, "hasNotes": true, "time": 144}], "isDrum": false, "minPitch": 67, "maxPitch": 78, "instrument": 0, "avPolyphony": 1, "noteDensity": 7, "noteDensityV2": 5}, {"bars": [{"events": [122, 123, 124, 125], "isFourFour": true, "hasNotes": true, "time": 0}, {"events": [126, 127, 128, 129], "isFourFour": true, "hasNotes": true, "time": 48}, {"events": [130, 131, 132, 133], "isFourFour": true, "hasNotes": true, "time": 96}, {"events": [134, 135, 136, 137], "isFourFour": true, "hasNotes": true, "time": 144}], "isDrum": false, "minPitch": 44, "maxPitch": 49, "instrument": 32, "avPolyphony": 1, "noteDensity": 1, "noteDensityV2": 1}, {"bars": [{"events": [138, 139, 140, 141, 142, 143, 144, 145, 146, 147, 148, 149, 150, 151, 152, 153, 154, 155, 156, 157], "isFourFour": true, "hasNotes": true, "time": 0}, {"events": [158, 159, 160, 161, 162, 163, 164, 165, 166, 167, 168, 169, 170, 171, 172, 173, 174, 175, 176, 177], "isFourFour": true, "hasNotes": true, "time": 48}, {"events": [178, 179, 180, 181, 182, 183, 184, 185, 186, 187, 188, 189, 190, 191, 192, 193, 194, 195, 196, 197], "isFourFour": true, "hasNotes": true, "time": 96}, {"events": [198, 199, 200, 201, 202, 203, 204, 205, 206, 207, 208, 209, 210, 211, 212, 213, 214, 215, 216, 217], "isFourFour": true, "hasNotes": true, "time": 144}], "isDrum": false, "minPitch": 37, "maxPitch": 58, "instrument": 24, "avPolyphony": 2.5, "noteDensity": 9, "noteDensityV2": 6}, {"bars": [{"events": [218, 219, 220, 221, 222, 223, 224, 225, 226, 227, 228, 229, 230, 231, 232, 233, 234, 235, 236, 237, 238, 239, 240, 241, 242, 243, 244, 245, 246, 247, 248, 249, 250, 251, 252, 253, 254, 255], "isFourFour": true, "hasNotes": true, "time": 0}, {"events": [256, 257, 258, 259, 260, 261, 262, 263, 264, 265, 266, 267, 268, 269, 270, 271, 272, 273, 274, 275, 276, 277, 278, 279, 280, 281, 282, 283, 284, 285, 286, 287, 288, 289, 290, 291, 292, 293], "isFourFour": true, "hasNotes": true, "time": 48}, {"events": [294, 295, 296, 297, 298, 299, 300, 301, 302, 303, 304, 305, 306, 307, 308, 309, 310, 311, 312, 313, 314, 315, 316, 317, 318, 319, 320, 321, 322, 323, 324, 325, 326, 327, 328, 329, 330, 331], "isFourFour": true, "hasNotes": true, "time": 96}, {"events": [332, 333, 334, 335, 336, 337, 338, 339, 340, 341, 342, 343, 344, 345, 346, 347, 348, 349, 350, 351, 352, 353, 354, 355, 356, 357, 358, 359, 360, 361, 362, 363, 364, 365, 366, 367, 368, 369, 370, 371, 372, 373], "isFourFour": true, "hasNotes": true, "time": 144}], "isDrum": true, "minPitch": 36, "maxPitch": 54, "instrument": 0, "avPolyphony": 1.54411769, "noteDensity": 9, "noteDensityV2": 8}, {"bars": [{"events": [374, 375, 376, 377, 378, 379, 380, 381, 382, 383, 384, 385, 386, 387, 388, 389], "isFourFour": true, "hasNotes": true, "time": 0}, {"events": [390, 391, 392, 393], "isFourFour": true, "hasNotes": true, "time": 48}, {"events": [394, 395, 396, 397, 398, 399, 400, 401, 402, 403, 404, 405, 406, 407, 408, 409], "isFourFour": true, "hasNotes": true, "time": 96}, {"events": [410, 411, 412, 413, 414, 415, 416, 417, 418, 419, 420, 421, 422, 423, 424, 425], "isFourFour": true, "hasNotes": true, "time": 144}], "isDrum": false, "minPitch": 67, "maxPitch": 78, "instrument": 105, "avPolyphony": 1, "noteDensity": 7, "noteDensityV2": 3}], "events": [{"time": 0, "velocity": 108, "pitch": 65, "instrument": 40, "track": 0, "qtime": 0, "isDrum": false}, {"time": 5, "velocity": 0, "pitch": 65, "instrument": 40, "track": 0, "qtime": 5, "isDrum": false}, {"time": 6, "velocity": 108, "pitch": 65, "instrument": 40, "track": 0, "qtime": 6, "isDrum": false}, {"time": 11, "velocity": 0, "pitch": 65, "instrument": 40, "track": 0, "qtime": 11, "isDrum": false}, {"time": 12, "velocity": 108, "pitch": 70, "instrument": 40, "track": 0, "qtime": 12, "isDrum": false}, {"time": 17, "velocity": 0, "pitch": 70, "instrument": 40, "track": 0, "qtime": 17, "isDrum": false}, {"time": 18, "velocity": 108, "pitch": 68, "instrument": 40, "track": 0, "qtime": 18, "isDrum": false}, {"time": 23, "velocity": 0, "pitch": 68, "instrument": 40, "track": 0, "qtime": 23, "isDrum": false}, {"time": 24, "velocity": 108, "pitch": 65, "instrument": 40, "track": 0, "qtime": 24, "isDrum": false}, {"time": 29, "velocity": 0, "pitch": 65, "instrument": 40, "track": 0, "qtime": 29, "isDrum": false}, {"time": 30, "velocity": 108, "pitch": 61, "instrument": 40, "track": 0, "qtime": 30, "isDrum": false}, {"time": 35, "velocity": 0, "pitch": 61, "instrument": 40, "track": 0, "qtime": 35, "isDrum": false}, {"time": 36, "velocity": 108, "pitch": 73, "instrument": 40, "track": 0, "qtime": 36, "isDrum": false}, {"time": 41, "velocity": 0, "pitch": 73, "instrument": 40, "track": 0, "qtime": 41, "isDrum": false}, {"time": 42, "velocity": 108, "pitch": 72, "instrument": 40, "track": 0, "qtime": 42, "isDrum": false}, {"time": 47, "velocity": 0, "pitch": 72, "instrument": 40, "track": 0, "qtime": 47, "isDrum": false}, {"time": 48, "velocity": 108, "pitch": 71, "instrument": 40, "track": 0, "qtime": 0, "isDrum": false}, {"time": 53, "velocity": 0, "pitch": 71, "instrument": 40, "track": 0, "qtime": 5, "isDrum": false}, {"time": 54, "velocity": 108, "pitch": 72, "instrument": 40, "track": 0, "qtime": 6, "isDrum": false}, {"time": 59, "velocity": 0, "pitch": 72, "instrument": 40, "track": 0, "qtime": 11, "isDrum": false}, {"time": 60, "velocity": 108, "pitch": 73, "instrument": 40, "track": 0, "qtime": 12, "isDrum": false}, {"time": 65, "velocity": 0, "pitch": 73, "instrument": 40, "track": 0, "qtime": 17, "isDrum": false}, {"time": 66, "velocity": 108, "pitch": 70, "instrument": 40, "track": 0, "qtime": 18, "isDrum": false}, {"time": 71, "velocity": 0, "pitch": 70, "instrument": 40, "track": 0, "qtime": 23, "isDrum": false}, {"time": 72, "velocity": 108, "pitch": 69, "instrument": 40, "track": 0, "qtime": 24, "isDrum": false}, {"time": 77, "velocity": 0, "pitch": 69, "instrument": 40, "track": 0, "qtime": 29, "isDrum": false}, {"time": 78, "velocity": 108, "pitch": 70, "instrument": 40, "track": 0, "qtime": 30, "isDrum": false}, {"time": 83, "velocity": 0, "pitch": 70, "instrument": 40, "track": 0, "qtime": 35, "isDrum": false}, {"time": 84, "velocity": 108, "pitch": 72, "instrument": 40, "track": 0, "qtime": 36, "isDrum": false}, {"time": 89, "velocity": 0, "pitch": 72, "instrument": 40, "track": 0, "qtime": 41, "isDrum": false}, {"time": 90, "velocity": 108, "pitch": 69, "instrument": 40, "track": 0, "qtime": 42, "isDrum": false}, {"time": 95, "velocity": 0, "pitch": 69, "instrument": 40, "track": 0, "qtime": 47, "isDrum": false}, {"time": 96, "velocity": 108, "pitch": 65, "instrument": 40, "track": 0, "qtime": 0, "isDrum": false}, {"time": 101, "velocity": 0, "pitch": 65, "instrument": 40, "track": 0, "qtime": 5, "isDrum": false}, {"time": 102, "velocity": 108, "pitch": 65, "instrument": 40, "track": 0, "qtime": 6, "isDrum": false}, {"time": 107, "velocity": 0, "pitch": 65, "instrument": 40, "track": 0, "qtime": 11, "isDrum": false}, {"time": 108, "velocity": 108, "pitch": 70, "instrument": 40, "track": 0, "qtime": 12, "isDrum": false}, {"time": 113, "velocity": 0, "pitch": 70, "instrument": 40, "track": 0, "qtime": 17, "isDrum": false}, {"time": 114, "velocity": 108, "pitch": 68, "instrument": 40, "track": 0, "qtime": 18, "isDrum": false}, {"time": 119, "velocity": 0, "pitch": 68, "instrument": 40, "track": 0, "qtime": 23, "isDrum": false}, {"time": 120, "velocity": 108, "pitch": 65, "instrument": 40, "track": 0, "qtime": 24, "isDrum": false}, {"time": 125, "velocity": 0, "pitch": 65, "instrument": 40, "track": 0, "qtime": 29, "isDrum": false}, {"time": 126, "velocity": 108, "pitch": 61, "instrument": 40, "track": 0, "qtime": 30, "isDrum": false}, {"time": 131, "velocity": 0, "pitch": 61, "instrument": 40, "track": 0, "qtime": 35, "isDrum": false}, {"time": 132, "velocity": 108, "pitch": 68, "instrument": 40, "track": 0, "qtime": 36, "isDrum": false}, {"time": 137, "velocity": 0, "pitch": 68, "instrument": 40, "track": 0, "qtime": 41, "isDrum": false}, {"time": 138, "velocity": 108, "pitch": 68, "instrument": 40, "track": 0, "qtime": 42, "isDrum": false}, {"time": 143, "velocity": 0, "pitch": 68, "instrument": 40, "track": 0, "qtime": 47, "isDrum": false}, {"time": 144, "velocity": 108, "pitch": 67, "instrument": 40, "track": 0, "qtime": 0, "isDrum": false}, {"time": 149, "velocity": 0, "pitch": 67, "instrument": 40, "track": 0, "qtime": 5, "isDrum": false}, {"time": 150, "velocity": 108, "pitch": 65, "instrument": 40, "track": 0, "qtime": 6, "isDrum": false}, {"time": 155, "velocity": 0, "pitch": 65, "instrument": 40, "track": 0, "qtime": 11, "isDrum": false}, {"time": 156, "velocity": 108, "pitch": 64, "instrument": 40, "track": 0, "qtime": 12, "isDrum": false}, {"time": 161, "velocity": 0, "pitch": 64, "instrument": 40, "track": 0, "qtime": 17, "isDrum": false}, {"time": 162, "velocity": 108, "pitch": 65, "instrument": 40, "track": 0, "qtime": 18, "isDrum": false}, {"time": 167, "velocity": 0, "pitch": 65, "instrument": 40, "track": 0, "qtime": 23, "isDrum": false}, {"time": 168, "velocity": 108, "pitch": 67, "instrument": 40, "track": 0, "qtime": 24, "isDrum": false}, {"time": 171, "velocity": 0, "pitch": 67, "instrument": 40, "track": 0, "qtime": 27, "isDrum": false}, {"time": 171, "velocity": 108, "pitch": 65, "instrument": 40, "track": 0, "qtime": 27, "isDrum": false}, {"time": 174, "velocity": 0, "pitch": 65, "instrument": 40, "track": 0, "qtime": 30, "isDrum": false}, {"time": 174, "velocity": 108, "pitch": 64, "instrument": 40, "track": 0, "qtime": 30, "isDrum": false}, {"time": 177, "velocity": 0, "pitch": 64, "instrument": 40, "track": 0, "qtime": 33, "isDrum": false}, {"time": 177, "velocity": 108, "pitch": 65, "instrument": 40, "track": 0, "qtime": 33, "isDrum": false}, {"time": 180, "velocity": 0, "pitch": 65, "instrument": 40, "track": 0, "qtime": 36, "isDrum": false}, {"time": 180, "velocity": 108, "pitch": 64, "instrument": 40, "track": 0, "qtime": 36, "isDrum": false}, {"time": 183, "velocity": 0, "pitch": 64, "instrument": 40, "track": 0, "qtime": 39, "isDrum": false}, {"time": 183, "velocity": 108, "pitch": 65, "instrument": 40, "track": 0, "qtime": 39, "isDrum": false}, {"time": 186, "velocity": 0, "pitch": 65, "instrument": 40, "track": 0, "qtime": 42, "isDrum": false}, {"time": 186, "velocity": 108, "pitch": 64, "instrument": 40, "track": 0, "qtime": 42, "isDrum": false}, {"time": 189, "velocity": 0, "pitch": 64, "instrument": 40, "track": 0, "qtime": 45, "isDrum": false}, {"time": 0, "velocity": 108, "pitch": 70, "instrument": 0, "track": 1, "qtime": 0, "isDrum": false}, {"time": 19, "velocity": 0, "pitch": 70, "instrument": 0, "track": 1, "qtime": 19, "isDrum": false}, {"time": 24, "velocity": 108, "pitch": 72, "instrument": 0, "track": 1, "qtime": 24, "isDrum": false}, {"time": 29, "velocity": 0, "pitch": 72, "instrument": 0, "track": 1, "qtime": 29, "isDrum": false}, {"time": 30, "velocity": 108, "pitch": 70, "instrument": 0, "track": 1, "qtime": 30, "isDrum": false}, {"time": 32, "velocity": 0, "pitch": 70, "instrument": 0, "track": 1, "qtime": 32, "isDrum": false}, {"time": 33, "velocity": 108, "pitch": 68, "instrument": 0, "track": 1, "qtime": 33, "isDrum": false}, {"time": 35, "velocity": 0, "pitch": 68, "instrument": 0, "track": 1, "qtime": 35, "isDrum": false}, {"time": 36, "velocity": 108, "pitch": 67, "instrument": 0, "track": 1, "qtime": 36, "isDrum": false}, {"time": 38, "velocity": 0, "pitch": 67, "instrument": 0, "track": 1, "qtime": 38, "isDrum": false}, {"time": 39, "velocity": 108, "pitch": 68, "instrument": 0, "track": 1, "qtime": 39, "isDrum": false}, {"time": 41, "velocity": 0, "pitch": 68, "instrument": 0, "track": 1, "qtime": 41, "isDrum": false}, {"time": 42, "velocity": 108, "pitch": 70, "instrument": 0, "track": 1, "qtime": 42, "isDrum": false}, {"time": 44, "velocity": 0, "pitch": 70, "instrument": 0, "track": 1, "qtime": 44, "isDrum": false}, {"time": 45, "velocity": 108, "pitch": 72, "instrument": 0, "track": 1, "qtime": 45, "isDrum": false}, {"time": 47, "velocity": 0, "pitch": 72, "instrument": 0, "track": 1, "qtime": 47, "isDrum": false}, {"time": 48, "velocity": 108, "pitch": 73, "instrument": 0, "track": 1, "qtime": 0, "isDrum": false}, {"time": 77, "velocity": 0, "pitch": 73, "instrument": 0, "track": 1, "qtime": 29, "isDrum": false}, {"time": 84, "velocity": 108, "pitch": 78, "instrument": 0, "track": 1, "qtime": 36, "isDrum": false}, {"time": 94, "velocity": 0, "pitch": 78, "instrument": 0, "track": 1, "qtime": 46, "isDrum": false}, {"time": 96, "velocity": 108, "pitch": 73, "instrument": 0, "track": 1, "qtime": 0, "isDrum": false}, {"time": 115, "velocity": 0, "pitch": 73, "instrument": 0, "track": 1, "qtime": 19, "isDrum": false}, {"time": 120, "velocity": 108, "pitch": 72, "instrument": 0, "track": 1, "qtime": 24, "isDrum": false}, {"time": 125, "velocity": 0, "pitch": 72, "instrument": 0, "track": 1, "qtime": 29, "isDrum": false}, {"time": 126, "velocity": 108, "pitch": 73, "instrument": 0, "track": 1, "qtime": 30, "isDrum": false}, {"time": 128, "velocity": 0, "pitch": 73, "instrument": 0, "track": 1, "qtime": 32, "isDrum": false}, {"time": 129, "velocity": 108, "pitch": 72, "instrument": 0, "track": 1, "qtime": 33, "isDrum": false}, {"time": 131, "velocity": 0, "pitch": 72, "instrument": 0, "track": 1, "qtime": 35, "isDrum": false}, {"time": 132, "velocity": 108, "pitch": 70, "instrument": 0, "track": 1, "qtime": 36, "isDrum": false}, {"time": 134, "velocity": 0, "pitch": 70, "instrument": 0, "track": 1, "qtime": 38, "isDrum": false}, {"time": 135, "velocity": 108, "pitch": 72, "instrument": 0, "track": 1, "qtime": 39, "isDrum": false}, {"time": 137, "velocity": 0, "pitch": 72, "instrument": 0, "track": 1, "qtime": 41, "isDrum": false}, {"time": 138, "velocity": 108, "pitch": 73, "instrument": 0, "track": 1, "qtime": 42, "isDrum": false}, {"time": 140, "velocity": 0, "pitch": 73, "instrument": 0, "track": 1, "qtime": 44, "isDrum": false}, {"time": 141, "velocity": 108, "pitch": 70, "instrument": 0, "track": 1, "qtime": 45, "isDrum": false}, {"time": 143, "velocity": 0, "pitch": 70, "instrument": 0, "track": 1, "qtime": 47, "isDrum": false}, {"time": 144, "velocity": 108, "pitch": 72, "instrument": 0, "track": 1, "qtime": 0, "isDrum": false}, {"time": 163, "velocity": 0, "pitch": 72, "instrument": 0, "track": 1, "qtime": 19, "isDrum": false}, {"time": 168, "velocity": 108, "pitch": 70, "instrument": 0, "track": 1, "qtime": 24, "isDrum": false}, {"time": 173, "velocity": 0, "pitch": 70, "instrument": 0, "track": 1, "qtime": 29, "isDrum": false}, {"time": 174, "velocity": 108, "pitch": 72, "instrument": 0, "track": 1, "qtime": 30, "isDrum": false}, {"time": 176, "velocity": 0, "pitch": 72, "instrument": 0, "track": 1, "qtime": 32, "isDrum": false}, {"time": 177, "velocity": 108, "pitch": 70, "instrument": 0, "track": 1, "qtime": 33, "isDrum": false}, {"time": 179, "velocity": 0, "pitch": 70, "instrument": 0, "track": 1, "qtime": 35, "isDrum": false}, {"time": 180, "velocity": 108, "pitch": 68, "instrument": 0, "track": 1, "qtime": 36, "isDrum": false}, {"time": 182, "velocity": 0, "pitch": 68, "instrument": 0, "track": 1, "qtime": 38, "isDrum": false}, {"time": 183, "velocity": 108, "pitch": 70, "instrument": 0, "track": 1, "qtime": 39, "isDrum": false}, {"time": 185, "velocity": 0, "pitch": 70, "instrument": 0, "track": 1, "qtime": 41, "isDrum": false}, {"time": 186, "velocity": 108, "pitch": 72, "instrument": 0, "track": 1, "qtime": 42, "isDrum": false}, {"time": 188, "velocity": 0, "pitch": 72, "instrument": 0, "track": 1, "qtime": 44, "isDrum": false}, {"time": 189, "velocity": 108, "pitch": 70, "instrument": 0, "track": 1, "qtime": 45, "isDrum": false}, {"time": 191, "velocity": 0, "pitch": 70, "instrument": 0, "track": 1, "qtime": 47, "isDrum": false}, {"time": 0, "velocity": 108, "pitch": 49, "instrument": 32, "track": 2, "qtime": 0, "isDrum": false}, {"time": 19, "velocity": 0, "pitch": 49, "instrument": 32, "track": 2, "qtime": 19, "isDrum": false}, {"time": 24, "velocity": 108, "pitch": 44, "instrument": 32, "track": 2, "qtime": 24, "isDrum": false}, {"time": 43, "velocity": 0, "pitch": 44, "instrument": 32, "track": 2, "qtime": 43, "isDrum": false}, {"time": 48, "velocity": 108, "pitch": 49, "instrument": 32, "track": 2, "qtime": 0, "isDrum": false}, {"time": 67, "velocity": 0, "pitch": 49, "instrument": 32, "track": 2, "qtime": 19, "isDrum": false}, {"time": 72, "velocity": 108, "pitch": 44, "instrument": 32, "track": 2, "qtime": 24, "isDrum": false}, {"time": 91, "velocity": 0, "pitch": 44, "instrument": 32, "track": 2, "qtime": 43, "isDrum": false}, {"time": 96, "velocity": 108, "pitch": 49, "instrument": 32, "track": 2, "qtime": 0, "isDrum": false}, {"time": 115, "velocity": 0, "pitch": 49, "instrument": 32, "track": 2, "qtime": 19, "isDrum": false}, {"time": 120, "velocity": 108, "pitch": 44, "instrument": 32, "track": 2, "qtime": 24, "isDrum": false}, {"time": 139, "velocity": 0, "pitch": 44, "instrument": 32, "track": 2, "qtime": 43, "isDrum": false}, {"time": 144, "velocity": 108, "pitch": 49, "instrument": 32, "track": 2, "qtime": 0, "isDrum": false}, {"time": 163, "velocity": 0, "pitch": 49, "instrument": 32, "track": 2, "qtime": 19, "isDrum": false}, {"time": 168, "velocity": 108, "pitch": 46, "instrument": 32, "track": 2, "qtime": 24, "isDrum": false}, {"time": 187, "velocity": 0, "pitch": 46, "instrument": 32, "track": 2, "qtime": 43, "isDrum": false}, {"time": 0, "velocity": 108, "pitch": 37, "instrument": 24, "track": 3, "qtime": 0, "isDrum": false}, {"time": 12, "velocity": 0, "pitch": 37, "instrument": 24, "track": 3, "qtime": 12, "isDrum": false}, {"time": 12, "velocity": 108, "pitch": 49, "instrument": 24, "track": 3, "qtime": 12, "isDrum": false}, {"time": 12, "velocity": 108, "pitch": 53, "instrument": 24, "track": 3, "qtime": 12, "isDrum": false}, {"time": 12, "velocity": 108, "pitch": 56, "instrument": 24, "track": 3, "qtime": 12, "isDrum": false}, {"time": 12, "velocity": 108, "pitch": 58, "instrument": 24, "track": 3, "qtime": 12, "isDrum": false}, {"time": 24, "velocity": 0, "pitch": 49, "instrument": 24, "track": 3, "qtime": 24, "isDrum": false}, {"time": 24, "velocity": 0, "pitch": 53, "instrument": 24, "track": 3, "qtime": 24, "isDrum": false}, {"time": 24, "velocity": 0, "pitch": 56, "instrument": 24, "track": 3, "qtime": 24, "isDrum": false}, {"time": 24, "velocity": 0, "pitch": 58, "instrument": 24, "track": 3, "qtime": 24, "isDrum": false}, {"time": 24, "velocity": 108, "pitch": 44, "instrument": 24, "track": 3, "qtime": 24, "isDrum": false}, {"time": 36, "velocity": 0, "pitch": 44, "instrument": 24, "track": 3, "qtime": 36, "isDrum": false}, {"time": 36, "velocity": 108, "pitch": 49, "instrument": 24, "track": 3, "qtime": 36, "isDrum": false}, {"time": 36, "velocity": 108, "pitch": 53, "instrument": 24, "track": 3, "qtime": 36, "isDrum": false}, {"time": 36, "velocity": 108, "pitch": 56, "instrument": 24, "track": 3, "qtime": 36, "isDrum": false}, {"time": 36, "velocity": 108, "pitch": 58, "instrument": 24, "track": 3, "qtime": 36, "isDrum": false}, {"time": 48, "velocity": 0, "pitch": 49, "instrument": 24, "track": 3, "qtime": 48, "isDrum": false}, {"time": 48, "velocity": 0, "pitch": 53, "instrument": 24, "track": 3, "qtime": 48, "isDrum": false}, {"time": 48, "velocity": 0, "pitch": 56, "instrument": 24, "track": 3, "qtime": 48, "isDrum": false}, {"time": 48, "velocity": 0, "pitch": 58, "instrument": 24, "track": 3, "qtime": 48, "isDrum": false}, {"time": 48, "velocity": 108, "pitch": 37, "instrument": 24, "track": 3, "qtime": 0, "isDrum": false}, {"time": 60, "velocity": 0, "pitch": 37, "instrument": 24, "track": 3, "qtime": 12, "isDrum": false}, {"time": 60, "velocity": 108, "pitch": 49, "instrument": 24, "track": 3, "qtime": 12, "isDrum": false}, {"time": 60, "velocity": 108, "pitch": 53, "instrument": 24, "track": 3, "qtime": 12, "isDrum": false}, {"time": 60, "velocity": 108, "pitch": 56, "instrument": 24, "track": 3, "qtime": 12, "isDrum": false}, {"time": 60, "velocity": 108, "pitch": 58, "instrument": 24, "track": 3, "qtime": 12, "isDrum": false}, {"time": 72, "velocity": 0, "pitch": 49, "instrument": 24, "track": 3, "qtime": 24, "isDrum": false}, {"time": 72, "velocity": 0, "pitch": 53, "instrument": 24, "track": 3, "qtime": 24, "isDrum": false}, {"time": 72, "velocity": 0, "pitch": 56, "instrument": 24, "track": 3, "qtime": 24, "isDrum": false}, {"time": 72, "velocity": 0, "pitch": 58, "instrument": 24, "track": 3, "qtime": 24, "isDrum": false}, {"time": 72, "velocity": 108, "pitch": 44, "instrument": 24, "track": 3, "qtime": 24, "isDrum": false}, {"time": 84, "velocity": 0, "pitch": 44, "instrument": 24, "track": 3, "qtime": 36, "isDrum": false}, {"time": 84, "velocity": 108, "pitch": 49, "instrument": 24, "track": 3, "qtime": 36, "isDrum": false}, {"time": 84, "velocity": 108, "pitch": 53, "instrument": 24, "track": 3, "qtime": 36, "isDrum": false}, {"time": 84, "velocity": 108, "pitch": 56, "instrument": 24, "track": 3, "qtime": 36, "isDrum": false}, {"time": 84, "velocity": 108, "pitch": 58, "instrument": 24, "track": 3, "qtime": 36, "isDrum": false}, {"time": 96, "velocity": 0, "pitch": 49, "instrument": 24, "track": 3, "qtime": 48, "isDrum": false}, {"time": 96, "velocity": 0, "pitch": 53, "instrument": 24, "track": 3, "qtime": 48, "isDrum": false}, {"time": 96, "velocity": 0, "pitch": 56, "instrument": 24, "track": 3, "qtime": 48, "isDrum": false}, {"time": 96, "velocity": 0, "pitch": 58, "instrument": 24, "track": 3, "qtime": 48, "isDrum": false}, {"time": 96, "velocity": 108, "pitch": 37, "instrument": 24, "track": 3, "qtime": 0, "isDrum": false}, {"time": 108, "velocity": 0, "pitch": 37, "instrument": 24, "track": 3, "qtime": 12, "isDrum": false}, {"time": 108, "velocity": 108, "pitch": 49, "instrument": 24, "track": 3, "qtime": 12, "isDrum": false}, {"time": 108, "velocity": 108, "pitch": 53, "instrument": 24, "track": 3, "qtime": 12, "isDrum": false}, {"time": 108, "velocity": 108, "pitch": 56, "instrument": 24, "track": 3, "qtime": 12, "isDrum": false}, {"time": 108, "velocity": 108, "pitch": 58, "instrument": 24, "track": 3, "qtime": 12, "isDrum": false}, {"time": 120, "velocity": 0, "pitch": 49, "instrument": 24, "track": 3, "qtime": 24, "isDrum": false}, {"time": 120, "velocity": 0, "pitch": 53, "instrument": 24, "track": 3, "qtime": 24, "isDrum": false}, {"time": 120, "velocity": 0, "pitch": 56, "instrument": 24, "track": 3, "qtime": 24, "isDrum": false}, {"time": 120, "velocity": 0, "pitch": 58, "instrument": 24, "track": 3, "qtime": 24, "isDrum": false}, {"time": 120, "velocity": 108, "pitch": 44, "instrument": 24, "track": 3, "qtime": 24, "isDrum": false}, {"time": 132, "velocity": 0, "pitch": 44, "instrument": 24, "track": 3, "qtime": 36, "isDrum": false}, {"time": 132, "velocity": 108, "pitch": 49, "instrument": 24, "track": 3, "qtime": 36, "isDrum": false}, {"time": 132, "velocity": 108, "pitch": 53, "instrument": 24, "track": 3, "qtime": 36, "isDrum": false}, {"time": 132, "velocity": 108, "pitch": 56, "instrument": 24, "track": 3, "qtime": 36, "isDrum": false}, {"time": 132, "velocity": 108, "pitch": 58, "instrument": 24, "track": 3, "qtime": 36, "isDrum": false}, {"time": 144, "velocity": 0, "pitch": 49, "instrument": 24, "track": 3, "qtime": 48, "isDrum": false}, {"time": 144, "velocity": 0, "pitch": 53, "instrument": 24, "track": 3, "qtime": 48, "isDrum": false}, {"time": 144, "velocity": 0, "pitch": 56, "instrument": 24, "track": 3, "qtime": 48, "isDrum": false}, {"time": 144, "velocity": 0, "pitch": 58, "instrument": 24, "track": 3, "qtime": 48, "isDrum": false}, {"time": 144, "velocity": 108, "pitch": 37, "instrument": 24, "track": 3, "qtime": 0, "isDrum": false}, {"time": 156, "velocity": 0, "pitch": 37, "instrument": 24, "track": 3, "qtime": 12, "isDrum": false}, {"time": 156, "velocity": 108, "pitch": 49, "instrument": 24, "track": 3, "qtime": 12, "isDrum": false}, {"time": 156, "velocity": 108, "pitch": 53, "instrument": 24, "track": 3, "qtime": 12, "isDrum": false}, {"time": 156, "velocity": 108, "pitch": 56, "instrument": 24, "track": 3, "qtime": 12, "isDrum": false}, {"time": 156, "velocity": 108, "pitch": 58, "instrument": 24, "track": 3, "qtime": 12, "isDrum": false}, {"time": 168, "velocity": 0, "pitch": 49, "instrument": 24, "track": 3, "qtime": 24, "isDrum": false}, {"time": 168, "velocity": 0, "pitch": 53, "instrument": 24, "track": 3, "qtime": 24, "isDrum": false}, {"time": 168, "velocity": 0, "pitch": 56, "instrument": 24, "track": 3, "qtime": 24, "isDrum": false}, {"time": 168, "velocity": 0, "pitch": 58, "instrument": 24, "track": 3, "qtime": 24, "isDrum": false}, {"time": 168, "velocity": 108, "pitch": 46, "instrument": 24, "track": 3, "qtime": 24, "isDrum": false}, {"time": 180, "velocity": 0, "pitch": 46, "instrument": 24, "track": 3, "qtime": 36, "isDrum": false}, {"time": 180, "velocity": 108, "pitch": 49, "instrument": 24, "track": 3, "qtime": 36, "isDrum": false}, {"time": 180, "velocity": 108, "pitch": 53, "instrument": 24, "track": 3, "qtime": 36, "isDrum": false}, {"time": 180, "velocity": 108, "pitch": 56, "instrument": 24, "track": 3, "qtime": 36, "isDrum": false}, {"time": 180, "velocity": 108, "pitch": 58, "instrument": 24, "track": 3, "qtime": 36, "isDrum": false}, {"time": 192, "velocity": 0, "pitch": 49, "instrument": 24, "track": 3, "qtime": 48, "isDrum": false}, {"time": 192, "velocity": 0, "pitch": 53, "instrument": 24, "track": 3, "qtime": 48, "isDrum": false}, {"time": 192, "velocity": 0, "pitch": 56, "instrument": 24, "track": 3, "qtime": 48, "isDrum": false}, {"time": 192, "velocity": 0, "pitch": 58, "instrument": 24, "track": 3, "qtime": 48, "isDrum": false}, {"time": 0, "velocity": 108, "pitch": 36, "instrument": 0, "track": 9, "qtime": 0, "isDrum": true}, {"time": 0, "velocity": 108, "pitch": 54, "instrument": 0, "track": 9, "qtime": 0, "isDrum": true}, {"time": 5, "velocity": 0, "pitch": 36, "instrument": 0, "track": 9, "qtime": 5, "isDrum": true}, {"time": 5, "velocity": 0, "pitch": 54, "instrument": 0, "track": 9, "qtime": 5, "isDrum": true}, {"time": 6, "velocity": 108, "pitch": 54, "instrument": 0, "track": 9, "qtime": 6, "isDrum": true}, {"time": 8, "velocity": 0, "pitch": 54, "instrument": 0, "track": 9, "qtime": 8, "isDrum": true}, {"time": 9, "velocity": 108, "pitch": 54, "instrument": 0, "track": 9, "qtime": 9, "isDrum": true}, {"time": 11, "velocity": 0, "pitch": 54, "instrument": 0, "track": 9, "qtime": 11, "isDrum": true}, {"time": 12, "velocity": 108, "pitch": 38, "instrument": 0, "track": 9, "qtime": 12, "isDrum": true}, {"time": 12, "velocity": 108, "pitch": 54, "instrument": 0, "track": 9, "qtime": 12, "isDrum": true}, {"time": 14, "velocity": 0, "pitch": 38, "instrument": 0, "track": 9, "qtime": 14, "isDrum": true}, {"time": 14, "velocity": 0, "pitch": 54, "instrument": 0, "track": 9, "qtime": 14, "isDrum": true}, {"time": 15, "velocity": 108, "pitch": 54, "instrument": 0, "track": 9, "qtime": 15, "isDrum": true}, {"time": 17, "velocity": 0, "pitch": 54, "instrument": 0, "track": 9, "qtime": 17, "isDrum": true}, {"time": 18, "velocity": 108, "pitch": 36, "instrument": 0, "track": 9, "qtime": 18, "isDrum": true}, {"time": 18, "velocity": 108, "pitch": 54, "instrument": 0, "track": 9, "qtime": 18, "isDrum": true}, {"time": 20, "velocity": 0, "pitch": 36, "instrument": 0, "track": 9, "qtime": 20, "isDrum": true}, {"time": 20, "velocity": 0, "pitch": 54, "instrument": 0, "track": 9, "qtime": 20, "isDrum": true}, {"time": 21, "velocity": 108, "pitch": 54, "instrument": 0, "track": 9, "qtime": 21, "isDrum": true}, {"time": 23, "velocity": 0, "pitch": 54, "instrument": 0, "track": 9, "qtime": 23, "isDrum": true}, {"time": 24, "velocity": 108, "pitch": 36, "instrument": 0, "track": 9, "qtime": 24, "isDrum": true}, {"time": 24, "velocity": 108, "pitch": 54, "instrument": 0, "track": 9, "qtime": 24, "isDrum": true}, {"time": 29, "velocity": 0, "pitch": 36, "instrument": 0, "track": 9, "qtime": 29, "isDrum": true}, {"time": 29, "velocity": 0, "pitch": 54, "instrument": 0, "track": 9, "qtime": 29, "isDrum": true}, {"time": 30, "velocity": 108, "pitch": 54, "instrument": 0, "track": 9, "qtime": 30, "isDrum": true}, {"time": 32, "velocity": 0, "pitch": 54, "instrument": 0, "track": 9, "qtime": 32, "isDrum": true}, {"time": 33, "velocity": 108, "pitch": 54, "instrument": 0, "track": 9, "qtime": 33, "isDrum": true}, {"time": 35, "velocity": 0, "pitch": 54, "instrument": 0, "track": 9, "qtime": 35, "isDrum": true}, {"time": 36, "velocity": 108, "pitch": 38, "instrument": 0, "track": 9, "qtime": 36, "isDrum": true}, {"time": 36, "velocity": 108, "pitch": 54, "instrument": 0, "track": 9, "qtime": 36, "isDrum": true}, {"time": 38, "velocity": 0, "pitch": 38, "instrument": 0, "track": 9, "qtime": 38, "isDrum": true}, {"time": 38, "velocity": 0, "pitch": 54, "instrument": 0, "track": 9, "qtime": 38, "isDrum": true}, {"time": 39, "velocity": 108, "pitch": 54, "instrument": 0, "track": 9, "qtime": 39, "isDrum": true}, {"time": 41, "velocity": 0, "pitch": 54, "instrument": 0, "track": 9, "qtime": 41, "isDrum": true}, {"time": 42, "velocity": 108, "pitch": 54, "instrument": 0, "track": 9, "qtime": 42, "isDrum": true}, {"time": 44, "velocity": 0, "pitch": 54, "instrument": 0, "track": 9, "qtime": 44, "isDrum": true}, {"time": 45, "velocity": 108, "pitch": 54, "instrument": 0, "track": 9, "qtime": 45, "isDrum": true}, {"time": 47, "velocity": 0, "pitch": 54, "instrument": 0, "track": 9, "qtime": 47, "isDrum": true}, {"time": 48, "velocity": 108, "pitch": 36, "instrument": 0, "track": 9, "qtime": 0, "isDrum": true}, {"time": 48, "velocity": 108, "pitch": 54, "instrument": 0, "track": 9, "qtime": 0, "isDrum": true}, {"time": 53, "velocity": 0, "pitch": 36, "instrument": 0, "track": 9, "qtime": 5, "isDrum": true}, {"time": 53, "velocity": 0, "pitch": 54, "instrument": 0, "track": 9, "qtime": 5, "isDrum": true}, {"time": 54, "velocity": 108, "pitch": 54, "instrument": 0, "track": 9, "qtime": 6, "isDrum": true}, {"time": 56, "velocity": 0, "pitch": 54, "instrument": 0, "track": 9, "qtime": 8, "isDrum": true}, {"time": 57, "velocity": 108, "pitch": 54, "instrument": 0, "track": 9, "qtime": 9, "isDrum": true}, {"time": 59, "velocity": 0, "pitch": 54, "instrument": 0, "track": 9, "qtime": 11, "isDrum": true}, {"time": 60, "velocity": 108, "pitch": 38, "instrument": 0, "track": 9, "qtime": 12, "isDrum": true}, {"time": 60, "velocity": 108, "pitch": 54, "instrument": 0, "track": 9, "qtime": 12, "isDrum": true}, {"time": 62, "velocity": 0, "pitch": 38, "instrument": 0, "track": 9, "qtime": 14, "isDrum": true}, {"time": 62, "velocity": 0, "pitch": 54, "instrument": 0, "track": 9, "qtime": 14, "isDrum": true}, {"time": 63, "velocity": 108, "pitch": 54, "instrument": 0, "track": 9, "qtime": 15, "isDrum": true}, {"time": 65, "velocity": 0, "pitch": 54, "instrument": 0, "track": 9, "qtime": 17, "isDrum": true}, {"time": 66, "velocity": 108, "pitch": 36, "instrument": 0, "track": 9, "qtime": 18, "isDrum": true}, {"time": 66, "velocity": 108, "pitch": 54, "instrument": 0, "track": 9, "qtime": 18, "isDrum": true}, {"time": 68, "velocity": 0, "pitch": 36, "instrument": 0, "track": 9, "qtime": 20, "isDrum": true}, {"time": 68, "velocity": 0, "pitch": 54, "instrument": 0, "track": 9, "qtime": 20, "isDrum": true}, {"time": 69, "velocity": 108, "pitch": 54, "instrument": 0, "track": 9, "qtime": 21, "isDrum": true}, {"time": 71, "velocity": 0, "pitch": 54, "instrument": 0, "track": 9, "qtime": 23, "isDrum": true}, {"time": 72, "velocity": 108, "pitch": 36, "instrument": 0, "track": 9, "qtime": 24, "isDrum": true}, {"time": 72, "velocity": 108, "pitch": 54, "instrument": 0, "track": 9, "qtime": 24, "isDrum": true}, {"time": 77, "velocity": 0, "pitch": 36, "instrument": 0, "track": 9, "qtime": 29, "isDrum": true}, {"time": 77, "velocity": 0, "pitch": 54, "instrument": 0, "track": 9, "qtime": 29, "isDrum": true}, {"time": 78, "velocity": 108, "pitch": 54, "instrument": 0, "track": 9, "qtime": 30, "isDrum": true}, {"time": 80, "velocity": 0, "pitch": 54, "instrument": 0, "track": 9, "qtime": 32, "isDrum": true}, {"time": 81, "velocity": 108, "pitch": 54, "instrument": 0, "track": 9, "qtime": 33, "isDrum": true}, {"time": 83, "velocity": 0, "pitch": 54, "instrument": 0, "track": 9, "qtime": 35, "isDrum": true}, {"time": 84, "velocity": 108, "pitch": 38, "instrument": 0, "track": 9, "qtime": 36, "isDrum": true}, {"time": 84, "velocity": 108, "pitch": 54, "instrument": 0, "track": 9, "qtime": 36, "isDrum": true}, {"time": 86, "velocity": 0, "pitch": 38, "instrument": 0, "track": 9, "qtime": 38, "isDrum": true}, {"time": 86, "velocity": 0, "pitch": 54, "instrument": 0, "track": 9, "qtime": 38, "isDrum": true}, {"time": 87, "velocity": 108, "pitch": 54, "instrument": 0, "track": 9, "qtime": 39, "isDrum": true}, {"time": 89, "velocity": 0, "pitch": 54, "instrument": 0, "track": 9, "qtime": 41, "isDrum": true}, {"time": 90, "velocity": 108, "pitch": 54, "instrument": 0, "track": 9, "qtime": 42, "isDrum": true}, {"time": 92, "velocity": 0, "pitch": 54, "instrument": 0, "track": 9, "qtime": 44, "isDrum": true}, {"time": 93, "velocity": 108, "pitch": 54, "instrument": 0, "track": 9, "qtime": 45, "isDrum": true}, {"time": 95, "velocity": 0, "pitch": 54, "instrument": 0, "track": 9, "qtime": 47, "isDrum": true}, {"time": 96, "velocity": 108, "pitch": 36, "instrument": 0, "track": 9, "qtime": 0, "isDrum": true}, {"time": 96, "velocity": 108, "pitch": 54, "instrument": 0, "track": 9, "qtime": 0, "isDrum": true}, {"time": 101, "velocity": 0, "pitch": 36, "instrument": 0, "track": 9, "qtime": 5, "isDrum": true}, {"time": 101, "velocity": 0, "pitch": 54, "instrument": 0, "track": 9, "qtime": 5, "isDrum": true}, {"time": 102, "velocity": 108, "pitch": 54, "instrument": 0, "track": 9, "qtime": 6, "isDrum": true}, {"time": 104, "velocity": 0, "pitch": 54, "instrument": 0, "track": 9, "qtime": 8, "isDrum": true}, {"time": 105, "velocity": 108, "pitch": 54, "instrument": 0, "track": 9, "qtime": 9, "isDrum": true}, {"time": 107, "velocity": 0, "pitch": 54, "instrument": 0, "track": 9, "qtime": 11, "isDrum": true}, {"time": 108, "velocity": 108, "pitch": 38, "instrument": 0, "track": 9, "qtime": 12, "isDrum": true}, {"time": 108, "velocity": 108, "pitch": 54, "instrument": 0, "track": 9, "qtime": 12, "isDrum": true}, {"time": 110, "velocity": 0, "pitch": 38, "instrument": 0, "track": 9, "qtime": 14, "isDrum": true}, {"time": 110, "velocity": 0, "pitch": 54, "instrument": 0, "track": 9, "qtime": 14, "isDrum": true}, {"time": 111, "velocity": 108, "pitch": 54, "instrument": 0, "track": 9, "qtime": 15, "isDrum": true}, {"time": 113, "velocity": 0, "pitch": 54, "instrument": 0, "track": 9, "qtime": 17, "isDrum": true}, {"time": 114, "velocity": 108, "pitch": 36, "instrument": 0, "track": 9, "qtime": 18, "isDrum": true}, {"time": 114, "velocity": 108, "pitch": 54, "instrument": 0, "track": 9, "qtime": 18, "isDrum": true}, {"time": 116, "velocity": 0, "pitch": 36, "instrument": 0, "track": 9, "qtime": 20, "isDrum": true}, {"time": 116, "velocity": 0, "pitch": 54, "instrument": 0, "track": 9, "qtime": 20, "isDrum": true}, {"time": 117, "velocity": 108, "pitch": 54, "instrument": 0, "track": 9, "qtime": 21, "isDrum": true}, {"time": 119, "velocity": 0, "pitch": 54, "instrument": 0, "track": 9, "qtime": 23, "isDrum": true}, {"time": 120, "velocity": 108, "pitch": 36, "instrument": 0, "track": 9, "qtime": 24, "isDrum": true}, {"time": 120, "velocity": 108, "pitch": 54, "instrument": 0, "track": 9, "qtime": 24, "isDrum": true}, {"time": 125, "velocity": 0, "pitch": 36, "instrument": 0, "track": 9, "qtime": 29, "isDrum": true}, {"time": 125, "velocity": 0, "pitch": 54, "instrument": 0, "track": 9, "qtime": 29, "isDrum": true}, {"time": 126, "velocity": 108, "pitch": 54, "instrument": 0, "track": 9, "qtime": 30, "isDrum": true}, {"time": 128, "velocity": 0, "pitch": 54, "instrument": 0, "track": 9, "qtime": 32, "isDrum": true}, {"time": 129, "velocity": 108, "pitch": 54, "instrument": 0, "track": 9, "qtime": 33, "isDrum": true}, {"time": 131, "velocity": 0, "pitch": 54, "instrument": 0, "track": 9, "qtime": 35, "isDrum": true}, {"time": 132, "velocity": 108, "pitch": 38, "instrument": 0, "track": 9, "qtime": 36, "isDrum": true}, {"time": 132, "velocity": 108, "pitch": 54, "instrument": 0, "track": 9, "qtime": 36, "isDrum": true}, {"time": 134, "velocity": 0, "pitch": 38, "instrument": 0, "track": 9, "qtime": 38, "isDrum": true}, {"time": 134, "velocity": 0, "pitch": 54, "instrument": 0, "track": 9, "qtime": 38, "isDrum": true}, {"time": 135, "velocity": 108, "pitch": 54, "instrument": 0, "track": 9, "qtime": 39, "isDrum": true}, {"time": 137, "velocity": 0, "pitch": 54, "instrument": 0, "track": 9, "qtime": 41, "isDrum": true}, {"time": 138, "velocity": 108, "pitch": 54, "instrument": 0, "track": 9, "qtime": 42, "isDrum": true}, {"time": 140, "velocity": 0, "pitch": 54, "instrument": 0, "track": 9, "qtime": 44, "isDrum": true}, {"time": 141, "velocity": 108, "pitch": 54, "instrument": 0, "track": 9, "qtime": 45, "isDrum": true}, {"time": 143, "velocity": 0, "pitch": 54, "instrument": 0, "track": 9, "qtime": 47, "isDrum": true}, {"time": 144, "velocity": 108, "pitch": 36, "instrument": 0, "track": 9, "qtime": 0, "isDrum": true}, {"time": 144, "velocity": 108, "pitch": 46, "instrument": 0, "track": 9, "qtime": 0, "isDrum": true}, {"time": 144, "velocity": 108, "pitch": 54, "instrument": 0, "track": 9, "qtime": 0, "isDrum": true}, {"time": 149, "velocity": 0, "pitch": 36, "instrument": 0, "track": 9, "qtime": 5, "isDrum": true}, {"time": 149, "velocity": 0, "pitch": 46, "instrument": 0, "track": 9, "qtime": 5, "isDrum": true}, {"time": 149, "velocity": 0, "pitch": 54, "instrument": 0, "track": 9, "qtime": 5, "isDrum": true}, {"time": 150, "velocity": 108, "pitch": 54, "instrument": 0, "track": 9, "qtime": 6, "isDrum": true}, {"time": 152, "velocity": 0, "pitch": 54, "instrument": 0, "track": 9, "qtime": 8, "isDrum": true}, {"time": 153, "velocity": 108, "pitch": 54, "instrument": 0, "track": 9, "qtime": 9, "isDrum": true}, {"time": 155, "velocity": 0, "pitch": 54, "instrument": 0, "track": 9, "qtime": 11, "isDrum": true}, {"time": 156, "velocity": 108, "pitch": 38, "instrument": 0, "track": 9, "qtime": 12, "isDrum": true}, {"time": 156, "velocity": 108, "pitch": 54, "instrument": 0, "track": 9, "qtime": 12, "isDrum": true}, {"time": 158, "velocity": 0, "pitch": 38, "instrument": 0, "track": 9, "qtime": 14, "isDrum": true}, {"time": 158, "velocity": 0, "pitch": 54, "instrument": 0, "track": 9, "qtime": 14, "isDrum": true}, {"time": 159, "velocity": 108, "pitch": 54, "instrument": 0, "track": 9, "qtime": 15, "isDrum": true}, {"time": 161, "velocity": 0, "pitch": 54, "instrument": 0, "track": 9, "qtime": 17, "isDrum": true}, {"time": 162, "velocity": 108, "pitch": 36, "instrument": 0, "track": 9, "qtime": 18, "isDrum": true}, {"time": 162, "velocity": 108, "pitch": 54, "instrument": 0, "track": 9, "qtime": 18, "isDrum": true}, {"time": 164, "velocity": 0, "pitch": 36, "instrument": 0, "track": 9, "qtime": 20, "isDrum": true}, {"time": 164, "velocity": 0, "pitch": 54, "instrument": 0, "track": 9, "qtime": 20, "isDrum": true}, {"time": 165, "velocity": 108, "pitch": 54, "instrument": 0, "track": 9, "qtime": 21, "isDrum": true}, {"time": 167, "velocity": 0, "pitch": 54, "instrument": 0, "track": 9, "qtime": 23, "isDrum": true}, {"time": 168, "velocity": 108, "pitch": 36, "instrument": 0, "track": 9, "qtime": 24, "isDrum": true}, {"time": 168, "velocity": 108, "pitch": 46, "instrument": 0, "track": 9, "qtime": 24, "isDrum": true}, {"time": 168, "velocity": 108, "pitch": 54, "instrument": 0, "track": 9, "qtime": 24, "isDrum": true}, {"time": 173, "velocity": 0, "pitch": 36, "instrument": 0, "track": 9, "qtime": 29, "isDrum": true}, {"time": 173, "velocity": 0, "pitch": 46, "instrument": 0, "track": 9, "qtime": 29, "isDrum": true}, {"time": 173, "velocity": 0, "pitch": 54, "instrument": 0, "track": 9, "qtime": 29, "isDrum": true}, {"time": 174, "velocity": 108, "pitch": 54, "instrument": 0, "track": 9, "qtime": 30, "isDrum": true}, {"time": 176, "velocity": 0, "pitch": 54, "instrument": 0, "track": 9, "qtime": 32, "isDrum": true}, {"time": 177, "velocity": 108, "pitch": 54, "instrument": 0, "track": 9, "qtime": 33, "isDrum": true}, {"time": 179, "velocity": 0, "pitch": 54, "instrument": 0, "track": 9, "qtime": 35, "isDrum": true}, {"time": 180, "velocity": 108, "pitch": 38, "instrument": 0, "track": 9, "qtime": 36, "isDrum": true}, {"time": 180, "velocity": 108, "pitch": 54, "instrument": 0, "track": 9, "qtime": 36, "isDrum": true}, {"time": 182, "velocity": 0, "pitch": 38, "instrument": 0, "track": 9, "qtime": 38, "isDrum": true}, {"time": 182, "velocity": 0, "pitch": 54, "instrument": 0, "track": 9, "qtime": 38, "isDrum": true}, {"time": 183, "velocity": 108, "pitch": 54, "instrument": 0, "track": 9, "qtime": 39, "isDrum": true}, {"time": 185, "velocity": 0, "pitch": 54, "instrument": 0, "track": 9, "qtime": 41, "isDrum": true}, {"time": 186, "velocity": 108, "pitch": 54, "instrument": 0, "track": 9, "qtime": 42, "isDrum": true}, {"time": 188, "velocity": 0, "pitch": 54, "instrument": 0, "track": 9, "qtime": 44, "isDrum": true}, {"time": 189, "velocity": 108, "pitch": 54, "instrument": 0, "track": 9, "qtime": 45, "isDrum": true}, {"time": 191, "velocity": 0, "pitch": 54, "instrument": 0, "track": 9, "qtime": 47, "isDrum": true}, {"time": 0, "velocity": 108, "pitch": 70, "instrument": 105, "track": 5, "qtime": 0, "isDrum": false}, {"time": 19, "velocity": 0, "pitch": 70, "instrument": 105, "track": 5, "qtime": 19, "isDrum": false}, {"time": 24, "velocity": 108, "pitch": 72, "instrument": 105, "track": 5, "qtime": 24, "isDrum": false}, {"time": 29, "velocity": 0, "pitch": 72, "instrument": 105, "track": 5, "qtime": 29, "isDrum": false}, {"time": 30, "velocity": 108, "pitch": 70, "instrument": 105, "track": 5, "qtime": 30, "isDrum": false}, {"time": 32, "velocity": 0, "pitch": 70, "instrument": 105, "track": 5, "qtime": 32, "isDrum": false}, {"time": 33, "velocity": 108, "pitch": 68, "instrument": 105, "track": 5, "qtime": 33, "isDrum": false}, {"time": 35, "velocity": 0, "pitch": 68, "instrument": 105, "track": 5, "qtime": 35, "isDrum": false}, {"time": 36, "velocity": 108, "pitch": 67, "instrument": 105, "track": 5, "qtime": 36, "isDrum": false}, {"time": 38, "velocity": 0, "pitch": 67, "instrument": 105, "track": 5, "qtime": 38, "isDrum": false}, {"time": 39, "velocity": 108, "pitch": 68, "instrument": 105, "track": 5, "qtime": 39, "isDrum": false}, {"time": 41, "velocity": 0, "pitch": 68, "instrument": 105, "track": 5, "qtime": 41, "isDrum": false}, {"time": 42, "velocity": 108, "pitch": 70, "instrument": 105, "track": 5, "qtime": 42, "isDrum": false}, {"time": 44, "velocity": 0, "pitch": 70, "instrument": 105, "track": 5, "qtime": 44, "isDrum": false}, {"time": 45, "velocity": 108, "pitch": 72, "instrument": 105, "track": 5, "qtime": 45, "isDrum": false}, {"time": 47, "velocity": 0, "pitch": 72, "instrument": 105, "track": 5, "qtime": 47, "isDrum": false}, {"time": 48, "velocity": 108, "pitch": 73, "instrument": 105, "track": 5, "qtime": 0, "isDrum": false}, {"time": 77, "velocity": 0, "pitch": 73, "instrument": 105, "track": 5, "qtime": 29, "isDrum": false}, {"time": 84, "velocity": 108, "pitch": 78, "instrument": 105, "track": 5, "qtime": 36, "isDrum": false}, {"time": 94, "velocity": 0, "pitch": 78, "instrument": 105, "track": 5, "qtime": 46, "isDrum": false}, {"time": 96, "velocity": 108, "pitch": 73, "instrument": 105, "track": 5, "qtime": 0, "isDrum": false}, {"time": 115, "velocity": 0, "pitch": 73, "instrument": 105, "track": 5, "qtime": 19, "isDrum": false}, {"time": 120, "velocity": 108, "pitch": 72, "instrument": 105, "track": 5, "qtime": 24, "isDrum": false}, {"time": 125, "velocity": 0, "pitch": 72, "instrument": 105, "track": 5, "qtime": 29, "isDrum": false}, {"time": 126, "velocity": 108, "pitch": 73, "instrument": 105, "track": 5, "qtime": 30, "isDrum": false}, {"time": 128, "velocity": 0, "pitch": 73, "instrument": 105, "track": 5, "qtime": 32, "isDrum": false}, {"time": 129, "velocity": 108, "pitch": 72, "instrument": 105, "track": 5, "qtime": 33, "isDrum": false}, {"time": 131, "velocity": 0, "pitch": 72, "instrument": 105, "track": 5, "qtime": 35, "isDrum": false}, {"time": 132, "velocity": 108, "pitch": 70, "instrument": 105, "track": 5, "qtime": 36, "isDrum": false}, {"time": 134, "velocity": 0, "pitch": 70, "instrument": 105, "track": 5, "qtime": 38, "isDrum": false}, {"time": 135, "velocity": 108, "pitch": 72, "instrument": 105, "track": 5, "qtime": 39, "isDrum": false}, {"time": 137, "velocity": 0, "pitch": 72, "instrument": 105, "track": 5, "qtime": 41, "isDrum": false}, {"time": 138, "velocity": 108, "pitch": 73, "instrument": 105, "track": 5, "qtime": 42, "isDrum": false}, {"time": 140, "velocity": 0, "pitch": 73, "instrument": 105, "track": 5, "qtime": 44, "isDrum": false}, {"time": 141, "velocity": 108, "pitch": 70, "instrument": 105, "track": 5, "qtime": 45, "isDrum": false}, {"time": 143, "velocity": 0, "pitch": 70, "instrument": 105, "track": 5, "qtime": 47, "isDrum": false}, {"time": 144, "velocity": 108, "pitch": 72, "instrument": 105, "track": 5, "qtime": 0, "isDrum": false}, {"time": 163, "velocity": 0, "pitch": 72, "instrument": 105, "track": 5, "qtime": 19, "isDrum": false}, {"time": 168, "velocity": 108, "pitch": 70, "instrument": 105, "track": 5, "qtime": 24, "isDrum": false}, {"time": 173, "velocity": 0, "pitch": 70, "instrument": 105, "track": 5, "qtime": 29, "isDrum": false}, {"time": 174, "velocity": 108, "pitch": 72, "instrument": 105, "track": 5, "qtime": 30, "isDrum": false}, {"time": 176, "velocity": 0, "pitch": 72, "instrument": 105, "track": 5, "qtime": 32, "isDrum": false}, {"time": 177, "velocity": 108, "pitch": 70, "instrument": 105, "track": 5, "qtime": 33, "isDrum": false}, {"time": 179, "velocity": 0, "pitch": 70, "instrument": 105, "track": 5, "qtime": 35, "isDrum": false}, {"time": 180, "velocity": 108, "pitch": 68, "instrument": 105, "track": 5, "qtime": 36, "isDrum": false}, {"time": 182, "velocity": 0, "pitch": 68, "instrument": 105, "track": 5, "qtime": 38, "isDrum": false}, {"time": 183, "velocity": 108, "pitch": 70, "instrument": 105, "track": 5, "qtime": 39, "isDrum": false}, {"time": 185, "velocity": 0, "pitch": 70, "instrument": 105, "track": 5, "qtime": 41, "isDrum": false}, {"time": 186, "velocity": 108, "pitch": 72, "instrument": 105, "track": 5, "qtime": 42, "isDrum": false}, {"time": 188, "velocity": 0, "pitch": 72, "instrument": 105, "track": 5, "qtime": 44, "isDrum": false}, {"time": 189, "velocity": 108, "pitch": 70, "instrument": 105, "track": 5, "qtime": 45, "isDrum": false}, {"time": 191, "velocity": 0, "pitch": 70, "instrument": 105, "track": 5, "qtime": 47, "isDrum": false}], "resolution": 12, "tempo": 120, "minPitch": 36, "maxPitch": 78, "validSegments": [0], "validTracks": [63]}, "audio": "https://www.sfu.ca/~jeffe/examples/uncond_2.mp3"}, {"src": "gen/8b_uncond_4.json", "highlights": [[], [], [], [], [], [], [], []], "caption": "", "sample_id": "7a", "mixer": [8, 8, 8, 8, 8, 8, 8, 8], "json": {"tracks": [{"bars": [{"events": [0, 1, 2, 3, 4, 5, 6, 7, 8, 9, 10, 11, 12, 13, 14, 15], "isFourFour": true, "hasNotes": true, "time": 0}, {"events": [16, 17, 18, 19, 20, 21, 22, 23, 24, 25], "isFourFour": true, "hasNotes": true, "time": 48}, {"events": [26, 27], "isFourFour": true, "hasNotes": true, "time": 96}, {"events": [28, 29, 30, 31, 32, 33, 34, 35, 36, 37, 38, 39, 40, 41, 42, 43], "isFourFour": true, "hasNotes": true, "time": 144}, {"events": [44, 45, 46, 47, 48, 49, 50, 51], "isFourFour": true, "hasNotes": true, "time": 192}, {"events": [52, 53, 54, 55, 56, 57, 58, 59], "isFourFour": true, "hasNotes": true, "time": 240}, {"events": [60, 61], "isFourFour": true, "hasNotes": true, "time": 288}, {"events": [62, 63, 64, 65, 66, 67], "isFourFour": true, "hasNotes": true, "time": 336}], "isDrum": false, "minPitch": 44, "maxPitch": 61, "instrument": 38, "avPolyphony": 1, "noteDensity": 9, "noteDensityV2": 1}, {"bars": [{"events": [68, 69, 70, 71, 72, 73, 74, 75, 76, 77], "isFourFour": true, "hasNotes": true, "time": 0}, {"events": [78, 79, 80, 81, 82, 83, 84, 85, 86, 87], "isFourFour": true, "hasNotes": true, "time": 48}, {"events": [88, 89, 90, 91, 92, 93, 94, 95], "isFourFour": true, "hasNotes": true, "time": 96}, {"events": [96, 97, 98, 99, 100, 101, 102, 103, 104, 105], "isFourFour": true, "hasNotes": true, "time": 144}, {"events": [106, 107, 108, 109, 110, 111, 112, 113], "isFourFour": true, "hasNotes": true, "time": 192}, {"events": [114, 115, 116, 117, 118, 119, 120, 121], "isFourFour": true, "hasNotes": true, "time": 240}, {"events": [122, 123, 124, 125, 126, 127, 128, 129], "isFourFour": true, "hasNotes": true, "time": 288}, {"events": [130, 131, 132, 133, 134, 135, 136, 137], "isFourFour": true, "hasNotes": true, "time": 336}], "isDrum": true, "minPitch": 36, "maxPitch": 38, "instrument": 0, "avPolyphony": 1, "noteDensity": 9, "noteDensityV2": 2}, {"bars": [{"events": [138, 139, 140, 141, 142, 143, 144, 145, 146, 147, 148, 149, 150, 151, 152, 153], "isFourFour": true, "hasNotes": true, "time": 0}, {"events": [154, 155, 156, 157, 158, 159, 160, 161, 162, 163], "isFourFour": true, "hasNotes": true, "time": 48}, {"events": [164, 165], "isFourFour": true, "hasNotes": true, "time": 96}, {"events": [166, 167, 168, 169, 170, 171, 172, 173, 174, 175, 176, 177, 178, 179, 180, 181], "isFourFour": true, "hasNotes": true, "time": 144}, {"events": [182, 183, 184, 185, 186, 187, 188, 189], "isFourFour": true, "hasNotes": true, "time": 192}, {"events": [190, 191, 192, 193, 194, 195, 196, 197], "isFourFour": true, "hasNotes": true, "time": 240}, {"events": [198, 199], "isFourFour": true, "hasNotes": true, "time": 288}, {"events": [200, 201, 202, 203, 204, 205], "isFourFour": true, "hasNotes": true, "time": 336}], "isDrum": false, "minPitch": 61, "maxPitch": 78, "instrument": 8, "avPolyphony": 1, "noteDensity": 9, "noteDensityV2": 3}, {"bars": [{"events": [206, 207, 208, 209, 210, 211, 212, 213, 214, 215, 216, 217, 218, 219, 220, 221, 222, 223, 224, 225, 226, 227, 228, 229, 230, 231, 232, 233, 234, 235, 236, 237], "isFourFour": true, "hasNotes": true, "time": 0}, {"events": [238, 239, 240, 241, 242, 243, 244, 245, 246, 247, 248, 249, 250, 251, 252, 253, 254, 255, 256, 257], "isFourFour": true, "hasNotes": true, "time": 48}, {"events": [258, 259, 260, 261], "isFourFour": true, "hasNotes": true, "time": 96}, {"events": [262, 263, 264, 265, 266, 267, 268, 269, 270, 271, 272, 273, 274, 275, 276, 277, 278, 279, 280, 281, 282, 283, 284, 285, 286, 287, 288, 289, 290, 291, 292, 293], "isFourFour": true, "hasNotes": true, "time": 144}, {"events": [294, 295, 296, 297, 298, 299, 300, 301, 302, 303], "isFourFour": true, "hasNotes": true, "time": 192}, {"events": [304, 305, 306, 307, 308, 309, 310, 311], "isFourFour": true, "hasNotes": true, "time": 240}, {"events": [312, 313], "isFourFour": true, "hasNotes": true, "time": 288}, {"events": [314, 315, 316, 317, 318, 319, 320, 321, 322, 323, 324, 325], "isFourFour": true, "hasNotes": true, "time": 336}], "isDrum": false, "minPitch": 52, "maxPitch": 78, "instrument": 32, "avPolyphony": 1.69354844, "noteDensity": 9, "noteDensityV2": 9}], "events": [{"time": 0, "velocity": 108, "pitch": 49, "instrument": 38, "track": 0, "qtime": 0, "isDrum": false}, {"time": 4, "velocity": 0, "pitch": 49, "instrument": 38, "track": 0, "qtime": 4, "isDrum": false}, {"time": 6, "velocity": 108, "pitch": 47, "instrument": 38, "track": 0, "qtime": 6, "isDrum": false}, {"time": 10, "velocity": 0, "pitch": 47, "instrument": 38, "track": 0, "qtime": 10, "isDrum": false}, {"time": 12, "velocity": 108, "pitch": 45, "instrument": 38, "track": 0, "qtime": 12, "isDrum": false}, {"time": 16, "velocity": 0, "pitch": 45, "instrument": 38, "track": 0, "qtime": 16, "isDrum": false}, {"time": 18, "velocity": 108, "pitch": 47, "instrument": 38, "track": 0, "qtime": 18, "isDrum": false}, {"time": 22, "velocity": 0, "pitch": 47, "instrument": 38, "track": 0, "qtime": 22, "isDrum": false}, {"time": 24, "velocity": 108, "pitch": 49, "instrument": 38, "track": 0, "qtime": 24, "isDrum": false}, {"time": 28, "velocity": 0, "pitch": 49, "instrument": 38, "track": 0, "qtime": 28, "isDrum": false}, {"time": 30, "velocity": 108, "pitch": 47, "instrument": 38, "track": 0, "qtime": 30, "isDrum": false}, {"time": 34, "velocity": 0, "pitch": 47, "instrument": 38, "track": 0, "qtime": 34, "isDrum": false}, {"time": 36, "velocity": 108, "pitch": 45, "instrument": 38, "track": 0, "qtime": 36, "isDrum": false}, {"time": 40, "velocity": 0, "pitch": 45, "instrument": 38, "track": 0, "qtime": 40, "isDrum": false}, {"time": 42, "velocity": 108, "pitch": 52, "instrument": 38, "track": 0, "qtime": 42, "isDrum": false}, {"time": 46, "velocity": 0, "pitch": 52, "instrument": 38, "track": 0, "qtime": 46, "isDrum": false}, {"time": 48, "velocity": 108, "pitch": 50, "instrument": 38, "track": 0, "qtime": 0, "isDrum": false}, {"time": 52, "velocity": 0, "pitch": 50, "instrument": 38, "track": 0, "qtime": 4, "isDrum": false}, {"time": 54, "velocity": 108, "pitch": 50, "instrument": 38, "track": 0, "qtime": 6, "isDrum": false}, {"time": 58, "velocity": 0, "pitch": 50, "instrument": 38, "track": 0, "qtime": 10, "isDrum": false}, {"time": 60, "velocity": 108, "pitch": 45, "instrument": 38, "track": 0, "qtime": 12, "isDrum": false}, {"time": 64, "velocity": 0, "pitch": 45, "instrument": 38, "track": 0, "qtime": 16, "isDrum": false}, {"time": 66, "velocity": 108, "pitch": 50, "instrument": 38, "track": 0, "qtime": 18, "isDrum": false}, {"time": 74, "velocity": 0, "pitch": 50, "instrument": 38, "track": 0, "qtime": 26, "isDrum": false}, {"time": 90, "velocity": 108, "pitch": 54, "instrument": 38, "track": 0, "qtime": 42, "isDrum": false}, {"time": 94, "velocity": 0, "pitch": 54, "instrument": 38, "track": 0, "qtime": 46, "isDrum": false}, {"time": 96, "velocity": 108, "pitch": 50, "instrument": 38, "track": 0, "qtime": 0, "isDrum": false}, {"time": 128, "velocity": 0, "pitch": 50, "instrument": 38, "track": 0, "qtime": 32, "isDrum": false}, {"time": 144, "velocity": 108, "pitch": 50, "instrument": 38, "track": 0, "qtime": 0, "isDrum": false}, {"time": 148, "velocity": 0, "pitch": 50, "instrument": 38, "track": 0, "qtime": 4, "isDrum": false}, {"time": 150, "velocity": 108, "pitch": 49, "instrument": 38, "track": 0, "qtime": 6, "isDrum": false}, {"time": 154, "velocity": 0, "pitch": 49, "instrument": 38, "track": 0, "qtime": 10, "isDrum": false}, {"time": 156, "velocity": 108, "pitch": 47, "instrument": 38, "track": 0, "qtime": 12, "isDrum": false}, {"time": 160, "velocity": 0, "pitch": 47, "instrument": 38, "track": 0, "qtime": 16, "isDrum": false}, {"time": 162, "velocity": 108, "pitch": 49, "instrument": 38, "track": 0, "qtime": 18, "isDrum": false}, {"time": 166, "velocity": 0, "pitch": 49, "instrument": 38, "track": 0, "qtime": 22, "isDrum": false}, {"time": 168, "velocity": 108, "pitch": 50, "instrument": 38, "track": 0, "qtime": 24, "isDrum": false}, {"time": 172, "velocity": 0, "pitch": 50, "instrument": 38, "track": 0, "qtime": 28, "isDrum": false}, {"time": 174, "velocity": 108, "pitch": 49, "instrument": 38, "track": 0, "qtime": 30, "isDrum": false}, {"time": 178, "velocity": 0, "pitch": 49, "instrument": 38, "track": 0, "qtime": 34, "isDrum": false}, {"time": 180, "velocity": 108, "pitch": 47, "instrument": 38, "track": 0, "qtime": 36, "isDrum": false}, {"time": 184, "velocity": 0, "pitch": 47, "instrument": 38, "track": 0, "qtime": 40, "isDrum": false}, {"time": 186, "velocity": 108, "pitch": 45, "instrument": 38, "track": 0, "qtime": 42, "isDrum": false}, {"time": 190, "velocity": 0, "pitch": 45, "instrument": 38, "track": 0, "qtime": 46, "isDrum": false}, {"time": 192, "velocity": 108, "pitch": 44, "instrument": 38, "track": 0, "qtime": 0, "isDrum": false}, {"time": 208, "velocity": 0, "pitch": 44, "instrument": 38, "track": 0, "qtime": 16, "isDrum": false}, {"time": 222, "velocity": 108, "pitch": 61, "instrument": 38, "track": 0, "qtime": 30, "isDrum": false}, {"time": 226, "velocity": 0, "pitch": 61, "instrument": 38, "track": 0, "qtime": 34, "isDrum": false}, {"time": 228, "velocity": 108, "pitch": 59, "instrument": 38, "track": 0, "qtime": 36, "isDrum": false}, {"time": 232, "velocity": 0, "pitch": 59, "instrument": 38, "track": 0, "qtime": 40, "isDrum": false}, {"time": 234, "velocity": 108, "pitch": 57, "instrument": 38, "track": 0, "qtime": 42, "isDrum": false}, {"time": 238, "velocity": 0, "pitch": 57, "instrument": 38, "track": 0, "qtime": 46, "isDrum": false}, {"time": 240, "velocity": 108, "pitch": 56, "instrument": 38, "track": 0, "qtime": 0, "isDrum": false}, {"time": 252, "velocity": 0, "pitch": 56, "instrument": 38, "track": 0, "qtime": 12, "isDrum": false}, {"time": 258, "velocity": 108, "pitch": 54, "instrument": 38, "track": 0, "qtime": 18, "isDrum": false}, {"time": 270, "velocity": 0, "pitch": 54, "instrument": 38, "track": 0, "qtime": 30, "isDrum": false}, {"time": 276, "velocity": 108, "pitch": 52, "instrument": 38, "track": 0, "qtime": 36, "isDrum": false}, {"time": 280, "velocity": 0, "pitch": 52, "instrument": 38, "track": 0, "qtime": 40, "isDrum": false}, {"time": 282, "velocity": 108, "pitch": 50, "instrument": 38, "track": 0, "qtime": 42, "isDrum": false}, {"time": 286, "velocity": 0, "pitch": 50, "instrument": 38, "track": 0, "qtime": 46, "isDrum": false}, {"time": 288, "velocity": 108, "pitch": 49, "instrument": 38, "track": 0, "qtime": 0, "isDrum": false}, {"time": 320, "velocity": 0, "pitch": 49, "instrument": 38, "track": 0, "qtime": 32, "isDrum": false}, {"time": 336, "velocity": 108, "pitch": 49, "instrument": 38, "track": 0, "qtime": 0, "isDrum": false}, {"time": 344, "velocity": 0, "pitch": 49, "instrument": 38, "track": 0, "qtime": 8, "isDrum": false}, {"time": 348, "velocity": 108, "pitch": 52, "instrument": 38, "track": 0, "qtime": 12, "isDrum": false}, {"time": 372, "velocity": 0, "pitch": 52, "instrument": 38, "track": 0, "qtime": 36, "isDrum": false}, {"time": 378, "velocity": 108, "pitch": 49, "instrument": 38, "track": 0, "qtime": 42, "isDrum": false}, {"time": 382, "velocity": 0, "pitch": 49, "instrument": 38, "track": 0, "qtime": 46, "isDrum": false}, {"time": 0, "velocity": 108, "pitch": 36, "instrument": 0, "track": 9, "qtime": 0, "isDrum": true}, {"time": 8, "velocity": 0, "pitch": 36, "instrument": 0, "track": 9, "qtime": 8, "isDrum": true}, {"time": 12, "velocity": 108, "pitch": 38, "instrument": 0, "track": 9, "qtime": 12, "isDrum": true}, {"time": 20, "velocity": 0, "pitch": 38, "instrument": 0, "track": 9, "qtime": 20, "isDrum": true}, {"time": 24, "velocity": 108, "pitch": 36, "instrument": 0, "track": 9, "qtime": 24, "isDrum": true}, {"time": 28, "velocity": 0, "pitch": 36, "instrument": 0, "track": 9, "qtime": 28, "isDrum": true}, {"time": 30, "velocity": 108, "pitch": 36, "instrument": 0, "track": 9, "qtime": 30, "isDrum": true}, {"time": 34, "velocity": 0, "pitch": 36, "instrument": 0, "track": 9, "qtime": 34, "isDrum": true}, {"time": 36, "velocity": 108, "pitch": 38, "instrument": 0, "track": 9, "qtime": 36, "isDrum": true}, {"time": 44, "velocity": 0, "pitch": 38, "instrument": 0, "track": 9, "qtime": 44, "isDrum": true}, {"time": 48, "velocity": 108, "pitch": 36, "instrument": 0, "track": 9, "qtime": 0, "isDrum": true}, {"time": 56, "velocity": 0, "pitch": 36, "instrument": 0, "track": 9, "qtime": 8, "isDrum": true}, {"time": 60, "velocity": 108, "pitch": 38, "instrument": 0, "track": 9, "qtime": 12, "isDrum": true}, {"time": 68, "velocity": 0, "pitch": 38, "instrument": 0, "track": 9, "qtime": 20, "isDrum": true}, {"time": 72, "velocity": 108, "pitch": 36, "instrument": 0, "track": 9, "qtime": 24, "isDrum": true}, {"time": 76, "velocity": 0, "pitch": 36, "instrument": 0, "track": 9, "qtime": 28, "isDrum": true}, {"time": 78, "velocity": 108, "pitch": 36, "instrument": 0, "track": 9, "qtime": 30, "isDrum": true}, {"time": 82, "velocity": 0, "pitch": 36, "instrument": 0, "track": 9, "qtime": 34, "isDrum": true}, {"time": 84, "velocity": 108, "pitch": 38, "instrument": 0, "track": 9, "qtime": 36, "isDrum": true}, {"time": 92, "velocity": 0, "pitch": 38, "instrument": 0, "track": 9, "qtime": 44, "isDrum": true}, {"time": 96, "velocity": 108, "pitch": 36, "instrument": 0, "track": 9, "qtime": 0, "isDrum": true}, {"time": 104, "velocity": 0, "pitch": 36, "instrument": 0, "track": 9, "qtime": 8, "isDrum": true}, {"time": 108, "velocity": 108, "pitch": 38, "instrument": 0, "track": 9, "qtime": 12, "isDrum": true}, {"time": 116, "velocity": 0, "pitch": 38, "instrument": 0, "track": 9, "qtime": 20, "isDrum": true}, {"time": 120, "velocity": 108, "pitch": 36, "instrument": 0, "track": 9, "qtime": 24, "isDrum": true}, {"time": 128, "velocity": 0, "pitch": 36, "instrument": 0, "track": 9, "qtime": 32, "isDrum": true}, {"time": 132, "velocity": 108, "pitch": 38, "instrument": 0, "track": 9, "qtime": 36, "isDrum": true}, {"time": 140, "velocity": 0, "pitch": 38, "instrument": 0, "track": 9, "qtime": 44, "isDrum": true}, {"time": 144, "velocity": 108, "pitch": 36, "instrument": 0, "track": 9, "qtime": 0, "isDrum": true}, {"time": 152, "velocity": 0, "pitch": 36, "instrument": 0, "track": 9, "qtime": 8, "isDrum": true}, {"time": 156, "velocity": 108, "pitch": 38, "instrument": 0, "track": 9, "qtime": 12, "isDrum": true}, {"time": 164, "velocity": 0, "pitch": 38, "instrument": 0, "track": 9, "qtime": 20, "isDrum": true}, {"time": 168, "velocity": 108, "pitch": 36, "instrument": 0, "track": 9, "qtime": 24, "isDrum": true}, {"time": 172, "velocity": 0, "pitch": 36, "instrument": 0, "track": 9, "qtime": 28, "isDrum": true}, {"time": 174, "velocity": 108, "pitch": 36, "instrument": 0, "track": 9, "qtime": 30, "isDrum": true}, {"time": 178, "velocity": 0, "pitch": 36, "instrument": 0, "track": 9, "qtime": 34, "isDrum": true}, {"time": 180, "velocity": 108, "pitch": 38, "instrument": 0, "track": 9, "qtime": 36, "isDrum": true}, {"time": 188, "velocity": 0, "pitch": 38, "instrument": 0, "track": 9, "qtime": 44, "isDrum": true}, {"time": 192, "velocity": 108, "pitch": 36, "instrument": 0, "track": 9, "qtime": 0, "isDrum": true}, {"time": 200, "velocity": 0, "pitch": 36, "instrument": 0, "track": 9, "qtime": 8, "isDrum": true}, {"time": 204, "velocity": 108, "pitch": 38, "instrument": 0, "track": 9, "qtime": 12, "isDrum": true}, {"time": 212, "velocity": 0, "pitch": 38, "instrument": 0, "track": 9, "qtime": 20, "isDrum": true}, {"time": 216, "velocity": 108, "pitch": 36, "instrument": 0, "track": 9, "qtime": 24, "isDrum": true}, {"time": 224, "velocity": 0, "pitch": 36, "instrument": 0, "track": 9, "qtime": 32, "isDrum": true}, {"time": 228, "velocity": 108, "pitch": 38, "instrument": 0, "track": 9, "qtime": 36, "isDrum": true}, {"time": 236, "velocity": 0, "pitch": 38, "instrument": 0, "track": 9, "qtime": 44, "isDrum": true}, {"time": 240, "velocity": 108, "pitch": 36, "instrument": 0, "track": 9, "qtime": 0, "isDrum": true}, {"time": 248, "velocity": 0, "pitch": 36, "instrument": 0, "track": 9, "qtime": 8, "isDrum": true}, {"time": 252, "velocity": 108, "pitch": 38, "instrument": 0, "track": 9, "qtime": 12, "isDrum": true}, {"time": 260, "velocity": 0, "pitch": 38, "instrument": 0, "track": 9, "qtime": 20, "isDrum": true}, {"time": 264, "velocity": 108, "pitch": 36, "instrument": 0, "track": 9, "qtime": 24, "isDrum": true}, {"time": 272, "velocity": 0, "pitch": 36, "instrument": 0, "track": 9, "qtime": 32, "isDrum": true}, {"time": 276, "velocity": 108, "pitch": 38, "instrument": 0, "track": 9, "qtime": 36, "isDrum": true}, {"time": 284, "velocity": 0, "pitch": 38, "instrument": 0, "track": 9, "qtime": 44, "isDrum": true}, {"time": 288, "velocity": 108, "pitch": 36, "instrument": 0, "track": 9, "qtime": 0, "isDrum": true}, {"time": 296, "velocity": 0, "pitch": 36, "instrument": 0, "track": 9, "qtime": 8, "isDrum": true}, {"time": 300, "velocity": 108, "pitch": 38, "instrument": 0, "track": 9, "qtime": 12, "isDrum": true}, {"time": 308, "velocity": 0, "pitch": 38, "instrument": 0, "track": 9, "qtime": 20, "isDrum": true}, {"time": 312, "velocity": 108, "pitch": 36, "instrument": 0, "track": 9, "qtime": 24, "isDrum": true}, {"time": 320, "velocity": 0, "pitch": 36, "instrument": 0, "track": 9, "qtime": 32, "isDrum": true}, {"time": 324, "velocity": 108, "pitch": 38, "instrument": 0, "track": 9, "qtime": 36, "isDrum": true}, {"time": 332, "velocity": 0, "pitch": 38, "instrument": 0, "track": 9, "qtime": 44, "isDrum": true}, {"time": 336, "velocity": 108, "pitch": 36, "instrument": 0, "track": 9, "qtime": 0, "isDrum": true}, {"time": 344, "velocity": 0, "pitch": 36, "instrument": 0, "track": 9, "qtime": 8, "isDrum": true}, {"time": 348, "velocity": 108, "pitch": 38, "instrument": 0, "track": 9, "qtime": 12, "isDrum": true}, {"time": 356, "velocity": 0, "pitch": 38, "instrument": 0, "track": 9, "qtime": 20, "isDrum": true}, {"time": 360, "velocity": 108, "pitch": 36, "instrument": 0, "track": 9, "qtime": 24, "isDrum": true}, {"time": 368, "velocity": 0, "pitch": 36, "instrument": 0, "track": 9, "qtime": 32, "isDrum": true}, {"time": 372, "velocity": 108, "pitch": 38, "instrument": 0, "track": 9, "qtime": 36, "isDrum": true}, {"time": 380, "velocity": 0, "pitch": 38, "instrument": 0, "track": 9, "qtime": 44, "isDrum": true}, {"time": 0, "velocity": 108, "pitch": 73, "instrument": 8, "track": 2, "qtime": 0, "isDrum": false}, {"time": 4, "velocity": 0, "pitch": 73, "instrument": 8, "track": 2, "qtime": 4, "isDrum": false}, {"time": 6, "velocity": 108, "pitch": 71, "instrument": 8, "track": 2, "qtime": 6, "isDrum": false}, {"time": 10, "velocity": 0, "pitch": 71, "instrument": 8, "track": 2, "qtime": 10, "isDrum": false}, {"time": 12, "velocity": 108, "pitch": 69, "instrument": 8, "track": 2, "qtime": 12, "isDrum": false}, {"time": 16, "velocity": 0, "pitch": 69, "instrument": 8, "track": 2, "qtime": 16, "isDrum": false}, {"time": 18, "velocity": 108, "pitch": 71, "instrument": 8, "track": 2, "qtime": 18, "isDrum": false}, {"time": 22, "velocity": 0, "pitch": 71, "instrument": 8, "track": 2, "qtime": 22, "isDrum": false}, {"time": 24, "velocity": 108, "pitch": 73, "instrument": 8, "track": 2, "qtime": 24, "isDrum": false}, {"time": 28, "velocity": 0, "pitch": 73, "instrument": 8, "track": 2, "qtime": 28, "isDrum": false}, {"time": 30, "velocity": 108, "pitch": 71, "instrument": 8, "track": 2, "qtime": 30, "isDrum": false}, {"time": 34, "velocity": 0, "pitch": 71, "instrument": 8, "track": 2, "qtime": 34, "isDrum": false}, {"time": 36, "velocity": 108, "pitch": 69, "instrument": 8, "track": 2, "qtime": 36, "isDrum": false}, {"time": 40, "velocity": 0, "pitch": 69, "instrument": 8, "track": 2, "qtime": 40, "isDrum": false}, {"time": 42, "velocity": 108, "pitch": 76, "instrument": 8, "track": 2, "qtime": 42, "isDrum": false}, {"time": 46, "velocity": 0, "pitch": 76, "instrument": 8, "track": 2, "qtime": 46, "isDrum": false}, {"time": 48, "velocity": 108, "pitch": 74, "instrument": 8, "track": 2, "qtime": 0, "isDrum": false}, {"time": 52, "velocity": 0, "pitch": 74, "instrument": 8, "track": 2, "qtime": 4, "isDrum": false}, {"time": 54, "velocity": 108, "pitch": 74, "instrument": 8, "track": 2, "qtime": 6, "isDrum": false}, {"time": 58, "velocity": 0, "pitch": 74, "instrument": 8, "track": 2, "qtime": 10, "isDrum": false}, {"time": 60, "velocity": 108, "pitch": 69, "instrument": 8, "track": 2, "qtime": 12, "isDrum": false}, {"time": 64, "velocity": 0, "pitch": 69, "instrument": 8, "track": 2, "qtime": 16, "isDrum": false}, {"time": 66, "velocity": 108, "pitch": 74, "instrument": 8, "track": 2, "qtime": 18, "isDrum": false}, {"time": 74, "velocity": 0, "pitch": 74, "instrument": 8, "track": 2, "qtime": 26, "isDrum": false}, {"time": 90, "velocity": 108, "pitch": 78, "instrument": 8, "track": 2, "qtime": 42, "isDrum": false}, {"time": 94, "velocity": 0, "pitch": 78, "instrument": 8, "track": 2, "qtime": 46, "isDrum": false}, {"time": 96, "velocity": 108, "pitch": 74, "instrument": 8, "track": 2, "qtime": 0, "isDrum": false}, {"time": 128, "velocity": 0, "pitch": 74, "instrument": 8, "track": 2, "qtime": 32, "isDrum": false}, {"time": 144, "velocity": 108, "pitch": 74, "instrument": 8, "track": 2, "qtime": 0, "isDrum": false}, {"time": 148, "velocity": 0, "pitch": 74, "instrument": 8, "track": 2, "qtime": 4, "isDrum": false}, {"time": 150, "velocity": 108, "pitch": 73, "instrument": 8, "track": 2, "qtime": 6, "isDrum": false}, {"time": 154, "velocity": 0, "pitch": 73, "instrument": 8, "track": 2, "qtime": 10, "isDrum": false}, {"time": 156, "velocity": 108, "pitch": 71, "instrument": 8, "track": 2, "qtime": 12, "isDrum": false}, {"time": 160, "velocity": 0, "pitch": 71, "instrument": 8, "track": 2, "qtime": 16, "isDrum": false}, {"time": 162, "velocity": 108, "pitch": 73, "instrument": 8, "track": 2, "qtime": 18, "isDrum": false}, {"time": 166, "velocity": 0, "pitch": 73, "instrument": 8, "track": 2, "qtime": 22, "isDrum": false}, {"time": 168, "velocity": 108, "pitch": 74, "instrument": 8, "track": 2, "qtime": 24, "isDrum": false}, {"time": 172, "velocity": 0, "pitch": 74, "instrument": 8, "track": 2, "qtime": 28, "isDrum": false}, {"time": 174, "velocity": 108, "pitch": 73, "instrument": 8, "track": 2, "qtime": 30, "isDrum": false}, {"time": 178, "velocity": 0, "pitch": 73, "instrument": 8, "track": 2, "qtime": 34, "isDrum": false}, {"time": 180, "velocity": 108, "pitch": 71, "instrument": 8, "track": 2, "qtime": 36, "isDrum": false}, {"time": 184, "velocity": 0, "pitch": 71, "instrument": 8, "track": 2, "qtime": 40, "isDrum": false}, {"time": 186, "velocity": 108, "pitch": 69, "instrument": 8, "track": 2, "qtime": 42, "isDrum": false}, {"time": 190, "velocity": 0, "pitch": 69, "instrument": 8, "track": 2, "qtime": 46, "isDrum": false}, {"time": 192, "velocity": 108, "pitch": 68, "instrument": 8, "track": 2, "qtime": 0, "isDrum": false}, {"time": 208, "velocity": 0, "pitch": 68, "instrument": 8, "track": 2, "qtime": 16, "isDrum": false}, {"time": 222, "velocity": 108, "pitch": 73, "instrument": 8, "track": 2, "qtime": 30, "isDrum": false}, {"time": 226, "velocity": 0, "pitch": 73, "instrument": 8, "track": 2, "qtime": 34, "isDrum": false}, {"time": 228, "velocity": 108, "pitch": 71, "instrument": 8, "track": 2, "qtime": 36, "isDrum": false}, {"time": 232, "velocity": 0, "pitch": 71, "instrument": 8, "track": 2, "qtime": 40, "isDrum": false}, {"time": 234, "velocity": 108, "pitch": 69, "instrument": 8, "track": 2, "qtime": 42, "isDrum": false}, {"time": 238, "velocity": 0, "pitch": 69, "instrument": 8, "track": 2, "qtime": 46, "isDrum": false}, {"time": 240, "velocity": 108, "pitch": 68, "instrument": 8, "track": 2, "qtime": 0, "isDrum": false}, {"time": 252, "velocity": 0, "pitch": 68, "instrument": 8, "track": 2, "qtime": 12, "isDrum": false}, {"time": 258, "velocity": 108, "pitch": 66, "instrument": 8, "track": 2, "qtime": 18, "isDrum": false}, {"time": 270, "velocity": 0, "pitch": 66, "instrument": 8, "track": 2, "qtime": 30, "isDrum": false}, {"time": 276, "velocity": 108, "pitch": 64, "instrument": 8, "track": 2, "qtime": 36, "isDrum": false}, {"time": 280, "velocity": 0, "pitch": 64, "instrument": 8, "track": 2, "qtime": 40, "isDrum": false}, {"time": 282, "velocity": 108, "pitch": 62, "instrument": 8, "track": 2, "qtime": 42, "isDrum": false}, {"time": 286, "velocity": 0, "pitch": 62, "instrument": 8, "track": 2, "qtime": 46, "isDrum": false}, {"time": 288, "velocity": 108, "pitch": 61, "instrument": 8, "track": 2, "qtime": 0, "isDrum": false}, {"time": 320, "velocity": 0, "pitch": 61, "instrument": 8, "track": 2, "qtime": 32, "isDrum": false}, {"time": 336, "velocity": 108, "pitch": 73, "instrument": 8, "track": 2, "qtime": 0, "isDrum": false}, {"time": 344, "velocity": 0, "pitch": 73, "instrument": 8, "track": 2, "qtime": 8, "isDrum": false}, {"time": 348, "velocity": 108, "pitch": 76, "instrument": 8, "track": 2, "qtime": 12, "isDrum": false}, {"time": 372, "velocity": 0, "pitch": 76, "instrument": 8, "track": 2, "qtime": 36, "isDrum": false}, {"time": 378, "velocity": 108, "pitch": 73, "instrument": 8, "track": 2, "qtime": 42, "isDrum": false}, {"time": 382, "velocity": 0, "pitch": 73, "instrument": 8, "track": 2, "qtime": 46, "isDrum": false}, {"time": 0, "velocity": 108, "pitch": 57, "instrument": 32, "track": 3, "qtime": 0, "isDrum": false}, {"time": 0, "velocity": 108, "pitch": 69, "instrument": 32, "track": 3, "qtime": 0, "isDrum": false}, {"time": 4, "velocity": 0, "pitch": 57, "instrument": 32, "track": 3, "qtime": 4, "isDrum": false}, {"time": 4, "velocity": 0, "pitch": 69, "instrument": 32, "track": 3, "qtime": 4, "isDrum": false}, {"time": 6, "velocity": 108, "pitch": 52, "instrument": 32, "track": 3, "qtime": 6, "isDrum": false}, {"time": 6, "velocity": 108, "pitch": 64, "instrument": 32, "track": 3, "qtime": 6, "isDrum": false}, {"time": 10, "velocity": 0, "pitch": 52, "instrument": 32, "track": 3, "qtime": 10, "isDrum": false}, {"time": 10, "velocity": 0, "pitch": 64, "instrument": 32, "track": 3, "qtime": 10, "isDrum": false}, {"time": 12, "velocity": 108, "pitch": 57, "instrument": 32, "track": 3, "qtime": 12, "isDrum": false}, {"time": 12, "velocity": 108, "pitch": 69, "instrument": 32, "track": 3, "qtime": 12, "isDrum": false}, {"time": 16, "velocity": 0, "pitch": 57, "instrument": 32, "track": 3, "qtime": 16, "isDrum": false}, {"time": 16, "velocity": 0, "pitch": 69, "instrument": 32, "track": 3, "qtime": 16, "isDrum": false}, {"time": 18, "velocity": 108, "pitch": 59, "instrument": 32, "track": 3, "qtime": 18, "isDrum": false}, {"time": 18, "velocity": 108, "pitch": 71, "instrument": 32, "track": 3, "qtime": 18, "isDrum": false}, {"time": 22, "velocity": 0, "pitch": 59, "instrument": 32, "track": 3, "qtime": 22, "isDrum": false}, {"time": 22, "velocity": 0, "pitch": 71, "instrument": 32, "track": 3, "qtime": 22, "isDrum": false}, {"time": 24, "velocity": 108, "pitch": 61, "instrument": 32, "track": 3, "qtime": 24, "isDrum": false}, {"time": 24, "velocity": 108, "pitch": 73, "instrument": 32, "track": 3, "qtime": 24, "isDrum": false}, {"time": 28, "velocity": 0, "pitch": 61, "instrument": 32, "track": 3, "qtime": 28, "isDrum": false}, {"time": 28, "velocity": 0, "pitch": 73, "instrument": 32, "track": 3, "qtime": 28, "isDrum": false}, {"time": 30, "velocity": 108, "pitch": 59, "instrument": 32, "track": 3, "qtime": 30, "isDrum": false}, {"time": 30, "velocity": 108, "pitch": 71, "instrument": 32, "track": 3, "qtime": 30, "isDrum": false}, {"time": 34, "velocity": 0, "pitch": 59, "instrument": 32, "track": 3, "qtime": 34, "isDrum": false}, {"time": 34, "velocity": 0, "pitch": 71, "instrument": 32, "track": 3, "qtime": 34, "isDrum": false}, {"time": 36, "velocity": 108, "pitch": 57, "instrument": 32, "track": 3, "qtime": 36, "isDrum": false}, {"time": 36, "velocity": 108, "pitch": 69, "instrument": 32, "track": 3, "qtime": 36, "isDrum": false}, {"time": 40, "velocity": 0, "pitch": 57, "instrument": 32, "track": 3, "qtime": 40, "isDrum": false}, {"time": 40, "velocity": 0, "pitch": 69, "instrument": 32, "track": 3, "qtime": 40, "isDrum": false}, {"time": 42, "velocity": 108, "pitch": 59, "instrument": 32, "track": 3, "qtime": 42, "isDrum": false}, {"time": 42, "velocity": 108, "pitch": 71, "instrument": 32, "track": 3, "qtime": 42, "isDrum": false}, {"time": 46, "velocity": 0, "pitch": 59, "instrument": 32, "track": 3, "qtime": 46, "isDrum": false}, {"time": 46, "velocity": 0, "pitch": 71, "instrument": 32, "track": 3, "qtime": 46, "isDrum": false}, {"time": 48, "velocity": 108, "pitch": 62, "instrument": 32, "track": 3, "qtime": 0, "isDrum": false}, {"time": 48, "velocity": 108, "pitch": 74, "instrument": 32, "track": 3, "qtime": 0, "isDrum": false}, {"time": 52, "velocity": 0, "pitch": 62, "instrument": 32, "track": 3, "qtime": 4, "isDrum": false}, {"time": 52, "velocity": 0, "pitch": 74, "instrument": 32, "track": 3, "qtime": 4, "isDrum": false}, {"time": 54, "velocity": 108, "pitch": 62, "instrument": 32, "track": 3, "qtime": 6, "isDrum": false}, {"time": 54, "velocity": 108, "pitch": 74, "instrument": 32, "track": 3, "qtime": 6, "isDrum": false}, {"time": 58, "velocity": 0, "pitch": 62, "instrument": 32, "track": 3, "qtime": 10, "isDrum": false}, {"time": 58, "velocity": 0, "pitch": 74, "instrument": 32, "track": 3, "qtime": 10, "isDrum": false}, {"time": 60, "velocity": 108, "pitch": 57, "instrument": 32, "track": 3, "qtime": 12, "isDrum": false}, {"time": 60, "velocity": 108, "pitch": 69, "instrument": 32, "track": 3, "qtime": 12, "isDrum": false}, {"time": 64, "velocity": 0, "pitch": 57, "instrument": 32, "track": 3, "qtime": 16, "isDrum": false}, {"time": 64, "velocity": 0, "pitch": 69, "instrument": 32, "track": 3, "qtime": 16, "isDrum": false}, {"time": 66, "velocity": 108, "pitch": 62, "instrument": 32, "track": 3, "qtime": 18, "isDrum": false}, {"time": 66, "velocity": 108, "pitch": 74, "instrument": 32, "track": 3, "qtime": 18, "isDrum": false}, {"time": 74, "velocity": 0, "pitch": 62, "instrument": 32, "track": 3, "qtime": 26, "isDrum": false}, {"time": 74, "velocity": 0, "pitch": 74, "instrument": 32, "track": 3, "qtime": 26, "isDrum": false}, {"time": 90, "velocity": 108, "pitch": 66, "instrument": 32, "track": 3, "qtime": 42, "isDrum": false}, {"time": 90, "velocity": 108, "pitch": 78, "instrument": 32, "track": 3, "qtime": 42, "isDrum": false}, {"time": 94, "velocity": 0, "pitch": 66, "instrument": 32, "track": 3, "qtime": 46, "isDrum": false}, {"time": 94, "velocity": 0, "pitch": 78, "instrument": 32, "track": 3, "qtime": 46, "isDrum": false}, {"time": 96, "velocity": 108, "pitch": 62, "instrument": 32, "track": 3, "qtime": 0, "isDrum": false}, {"time": 96, "velocity": 108, "pitch": 74, "instrument": 32, "track": 3, "qtime": 0, "isDrum": false}, {"time": 128, "velocity": 0, "pitch": 62, "instrument": 32, "track": 3, "qtime": 32, "isDrum": false}, {"time": 128, "velocity": 0, "pitch": 74, "instrument": 32, "track": 3, "qtime": 32, "isDrum": false}, {"time": 144, "velocity": 108, "pitch": 62, "instrument": 32, "track": 3, "qtime": 0, "isDrum": false}, {"time": 144, "velocity": 108, "pitch": 74, "instrument": 32, "track": 3, "qtime": 0, "isDrum": false}, {"time": 148, "velocity": 0, "pitch": 62, "instrument": 32, "track": 3, "qtime": 4, "isDrum": false}, {"time": 148, "velocity": 0, "pitch": 74, "instrument": 32, "track": 3, "qtime": 4, "isDrum": false}, {"time": 150, "velocity": 108, "pitch": 61, "instrument": 32, "track": 3, "qtime": 6, "isDrum": false}, {"time": 150, "velocity": 108, "pitch": 73, "instrument": 32, "track": 3, "qtime": 6, "isDrum": false}, {"time": 154, "velocity": 0, "pitch": 61, "instrument": 32, "track": 3, "qtime": 10, "isDrum": false}, {"time": 154, "velocity": 0, "pitch": 73, "instrument": 32, "track": 3, "qtime": 10, "isDrum": false}, {"time": 156, "velocity": 108, "pitch": 59, "instrument": 32, "track": 3, "qtime": 12, "isDrum": false}, {"time": 156, "velocity": 108, "pitch": 71, "instrument": 32, "track": 3, "qtime": 12, "isDrum": false}, {"time": 160, "velocity": 0, "pitch": 59, "instrument": 32, "track": 3, "qtime": 16, "isDrum": false}, {"time": 160, "velocity": 0, "pitch": 71, "instrument": 32, "track": 3, "qtime": 16, "isDrum": false}, {"time": 162, "velocity": 108, "pitch": 61, "instrument": 32, "track": 3, "qtime": 18, "isDrum": false}, {"time": 162, "velocity": 108, "pitch": 73, "instrument": 32, "track": 3, "qtime": 18, "isDrum": false}, {"time": 166, "velocity": 0, "pitch": 61, "instrument": 32, "track": 3, "qtime": 22, "isDrum": false}, {"time": 166, "velocity": 0, "pitch": 73, "instrument": 32, "track": 3, "qtime": 22, "isDrum": false}, {"time": 168, "velocity": 108, "pitch": 62, "instrument": 32, "track": 3, "qtime": 24, "isDrum": false}, {"time": 168, "velocity": 108, "pitch": 74, "instrument": 32, "track": 3, "qtime": 24, "isDrum": false}, {"time": 172, "velocity": 0, "pitch": 62, "instrument": 32, "track": 3, "qtime": 28, "isDrum": false}, {"time": 172, "velocity": 0, "pitch": 74, "instrument": 32, "track": 3, "qtime": 28, "isDrum": false}, {"time": 174, "velocity": 108, "pitch": 61, "instrument": 32, "track": 3, "qtime": 30, "isDrum": false}, {"time": 174, "velocity": 108, "pitch": 73, "instrument": 32, "track": 3, "qtime": 30, "isDrum": false}, {"time": 178, "velocity": 0, "pitch": 61, "instrument": 32, "track": 3, "qtime": 34, "isDrum": false}, {"time": 178, "velocity": 0, "pitch": 73, "instrument": 32, "track": 3, "qtime": 34, "isDrum": false}, {"time": 180, "velocity": 108, "pitch": 59, "instrument": 32, "track": 3, "qtime": 36, "isDrum": false}, {"time": 180, "velocity": 108, "pitch": 71, "instrument": 32, "track": 3, "qtime": 36, "isDrum": false}, {"time": 184, "velocity": 0, "pitch": 59, "instrument": 32, "track": 3, "qtime": 40, "isDrum": false}, {"time": 184, "velocity": 0, "pitch": 71, "instrument": 32, "track": 3, "qtime": 40, "isDrum": false}, {"time": 186, "velocity": 108, "pitch": 57, "instrument": 32, "track": 3, "qtime": 42, "isDrum": false}, {"time": 186, "velocity": 108, "pitch": 69, "instrument": 32, "track": 3, "qtime": 42, "isDrum": false}, {"time": 190, "velocity": 0, "pitch": 57, "instrument": 32, "track": 3, "qtime": 46, "isDrum": false}, {"time": 190, "velocity": 0, "pitch": 69, "instrument": 32, "track": 3, "qtime": 46, "isDrum": false}, {"time": 192, "velocity": 108, "pitch": 56, "instrument": 32, "track": 3, "qtime": 0, "isDrum": false}, {"time": 192, "velocity": 108, "pitch": 68, "instrument": 32, "track": 3, "qtime": 0, "isDrum": false}, {"time": 208, "velocity": 0, "pitch": 56, "instrument": 32, "track": 3, "qtime": 16, "isDrum": false}, {"time": 208, "velocity": 0, "pitch": 68, "instrument": 32, "track": 3, "qtime": 16, "isDrum": false}, {"time": 222, "velocity": 108, "pitch": 73, "instrument": 32, "track": 3, "qtime": 30, "isDrum": false}, {"time": 226, "velocity": 0, "pitch": 73, "instrument": 32, "track": 3, "qtime": 34, "isDrum": false}, {"time": 228, "velocity": 108, "pitch": 71, "instrument": 32, "track": 3, "qtime": 36, "isDrum": false}, {"time": 232, "velocity": 0, "pitch": 71, "instrument": 32, "track": 3, "qtime": 40, "isDrum": false}, {"time": 234, "velocity": 108, "pitch": 69, "instrument": 32, "track": 3, "qtime": 42, "isDrum": false}, {"time": 238, "velocity": 0, "pitch": 69, "instrument": 32, "track": 3, "qtime": 46, "isDrum": false}, {"time": 240, "velocity": 108, "pitch": 68, "instrument": 32, "track": 3, "qtime": 0, "isDrum": false}, {"time": 252, "velocity": 0, "pitch": 68, "instrument": 32, "track": 3, "qtime": 12, "isDrum": false}, {"time": 258, "velocity": 108, "pitch": 66, "instrument": 32, "track": 3, "qtime": 18, "isDrum": false}, {"time": 270, "velocity": 0, "pitch": 66, "instrument": 32, "track": 3, "qtime": 30, "isDrum": false}, {"time": 276, "velocity": 108, "pitch": 64, "instrument": 32, "track": 3, "qtime": 36, "isDrum": false}, {"time": 280, "velocity": 0, "pitch": 64, "instrument": 32, "track": 3, "qtime": 40, "isDrum": false}, {"time": 282, "velocity": 108, "pitch": 62, "instrument": 32, "track": 3, "qtime": 42, "isDrum": false}, {"time": 286, "velocity": 0, "pitch": 62, "instrument": 32, "track": 3, "qtime": 46, "isDrum": false}, {"time": 288, "velocity": 108, "pitch": 61, "instrument": 32, "track": 3, "qtime": 0, "isDrum": false}, {"time": 320, "velocity": 0, "pitch": 61, "instrument": 32, "track": 3, "qtime": 32, "isDrum": false}, {"time": 336, "velocity": 108, "pitch": 61, "instrument": 32, "track": 3, "qtime": 0, "isDrum": false}, {"time": 336, "velocity": 108, "pitch": 73, "instrument": 32, "track": 3, "qtime": 0, "isDrum": false}, {"time": 344, "velocity": 0, "pitch": 61, "instrument": 32, "track": 3, "qtime": 8, "isDrum": false}, {"time": 344, "velocity": 0, "pitch": 73, "instrument": 32, "track": 3, "qtime": 8, "isDrum": false}, {"time": 348, "velocity": 108, "pitch": 64, "instrument": 32, "track": 3, "qtime": 12, "isDrum": false}, {"time": 348, "velocity": 108, "pitch": 76, "instrument": 32, "track": 3, "qtime": 12, "isDrum": false}, {"time": 372, "velocity": 0, "pitch": 64, "instrument": 32, "track": 3, "qtime": 36, "isDrum": false}, {"time": 372, "velocity": 0, "pitch": 76, "instrument": 32, "track": 3, "qtime": 36, "isDrum": false}, {"time": 378, "velocity": 108, "pitch": 61, "instrument": 32, "track": 3, "qtime": 42, "isDrum": false}, {"time": 378, "velocity": 108, "pitch": 73, "instrument": 32, "track": 3, "qtime": 42, "isDrum": false}, {"time": 382, "velocity": 0, "pitch": 61, "instrument": 32, "track": 3, "qtime": 46, "isDrum": false}, {"time": 382, "velocity": 0, "pitch": 73, "instrument": 32, "track": 3, "qtime": 46, "isDrum": false}], "resolution": 12, "tempo": 120, "minPitch": 36, "maxPitch": 78, "validSegments": [0], "validTracks": [15]}, "audio": "https://www.sfu.ca/~jeffe/examples/8b_uncond_4.mp3"}, {"src": "gen/uncond_3.json", "highlights": [[], [], [], [], [], [], [], []], "caption": "", "sample_id": "8a", "mixer": [8, 8, 8, 8, 8, 8, 8, 8], "json": {"tracks": [{"bars": [{"events": [0, 1], "isFourFour": true, "hasNotes": true, "time": 0}, {"events": [2, 3, 4, 5, 6, 7], "isFourFour": true, "hasNotes": true, "time": 48}, {"events": [8, 9, 10, 11, 12, 13], "isFourFour": true, "hasNotes": true, "time": 96}, {"events": [14, 15, 16, 17, 18, 19], "isFourFour": true, "hasNotes": true, "time": 144}], "isDrum": false, "minPitch": 47, "maxPitch": 50, "instrument": 32, "avPolyphony": 1, "noteDensity": 1, "noteDensityV2": 3}, {"bars": [{"isFourFour": true, "hasNotes": false, "time": 0}, {"events": [20, 21, 22, 23, 24, 25], "isFourFour": true, "hasNotes": true, "time": 48}, {"events": [26, 27, 28, 29, 30, 31], "isFourFour": true, "hasNotes": true, "time": 96}, {"events": [32, 33, 34, 35, 36, 37], "isFourFour": true, "hasNotes": true, "time": 144}], "isDrum": false, "minPitch": 83, "maxPitch": 93, "instrument": 16, "avPolyphony": 2.97058821, "noteDensity": 1, "noteDensityV2": 1}, {"bars": [{"events": [38, 39, 40, 41, 42, 43], "isFourFour": true, "hasNotes": true, "time": 0}, {"events": [44, 45, 46, 47, 48, 49, 50, 51, 52, 53, 54, 55, 56, 57, 58, 59], "isFourFour": true, "hasNotes": true, "time": 48}, {"events": [60, 61, 62, 63, 64, 65, 66, 67, 68, 69, 70, 71, 72, 73, 74, 75], "isFourFour": true, "hasNotes": true, "time": 96}, {"events": [76, 77, 78, 79, 80, 81, 82, 83, 84, 85, 86, 87], "isFourFour": true, "hasNotes": true, "time": 144}], "isDrum": false, "minPitch": 62, "maxPitch": 72, "instrument": 24, "avPolyphony": 1.0078125, "noteDensity": 7, "noteDensityV2": 3}], "events": [{"time": 45, "velocity": 108, "pitch": 48, "instrument": 32, "track": 0, "qtime": 45, "isDrum": false}, {"time": 48, "velocity": 0, "pitch": 48, "instrument": 32, "track": 0, "qtime": 48, "isDrum": false}, {"time": 48, "velocity": 108, "pitch": 50, "instrument": 32, "track": 0, "qtime": 0, "isDrum": false}, {"time": 61, "velocity": 0, "pitch": 50, "instrument": 32, "track": 0, "qtime": 13, "isDrum": false}, {"time": 66, "velocity": 108, "pitch": 50, "instrument": 32, "track": 0, "qtime": 18, "isDrum": false}, {"time": 71, "velocity": 0, "pitch": 50, "instrument": 32, "track": 0, "qtime": 23, "isDrum": false}, {"time": 72, "velocity": 108, "pitch": 50, "instrument": 32, "track": 0, "qtime": 24, "isDrum": false}, {"time": 86, "velocity": 0, "pitch": 50, "instrument": 32, "track": 0, "qtime": 38, "isDrum": false}, {"time": 96, "velocity": 108, "pitch": 48, "instrument": 32, "track": 0, "qtime": 0, "isDrum": false}, {"time": 108, "velocity": 0, "pitch": 48, "instrument": 32, "track": 0, "qtime": 12, "isDrum": false}, {"time": 114, "velocity": 108, "pitch": 48, "instrument": 32, "track": 0, "qtime": 18, "isDrum": false}, {"time": 116, "velocity": 0, "pitch": 48, "instrument": 32, "track": 0, "qtime": 20, "isDrum": false}, {"time": 120, "velocity": 108, "pitch": 48, "instrument": 32, "track": 0, "qtime": 24, "isDrum": false}, {"time": 134, "velocity": 0, "pitch": 48, "instrument": 32, "track": 0, "qtime": 38, "isDrum": false}, {"time": 144, "velocity": 108, "pitch": 47, "instrument": 32, "track": 0, "qtime": 0, "isDrum": false}, {"time": 158, "velocity": 0, "pitch": 47, "instrument": 32, "track": 0, "qtime": 14, "isDrum": false}, {"time": 162, "velocity": 108, "pitch": 47, "instrument": 32, "track": 0, "qtime": 18, "isDrum": false}, {"time": 164, "velocity": 0, "pitch": 47, "instrument": 32, "track": 0, "qtime": 20, "isDrum": false}, {"time": 168, "velocity": 108, "pitch": 47, "instrument": 32, "track": 0, "qtime": 24, "isDrum": false}, {"time": 181, "velocity": 0, "pitch": 47, "instrument": 32, "track": 0, "qtime": 37, "isDrum": false}, {"time": 48, "velocity": 108, "pitch": 86, "instrument": 16, "track": 1, "qtime": 0, "isDrum": false}, {"time": 48, "velocity": 108, "pitch": 90, "instrument": 16, "track": 1, "qtime": 0, "isDrum": false}, {"time": 48, "velocity": 108, "pitch": 93, "instrument": 16, "track": 1, "qtime": 0, "isDrum": false}, {"time": 93, "velocity": 0, "pitch": 90, "instrument": 16, "track": 1, "qtime": 45, "isDrum": false}, {"time": 94, "velocity": 0, "pitch": 86, "instrument": 16, "track": 1, "qtime": 46, "isDrum": false}, {"time": 94, "velocity": 0, "pitch": 93, "instrument": 16, "track": 1, "qtime": 46, "isDrum": false}, {"time": 96, "velocity": 108, "pitch": 84, "instrument": 16, "track": 1, "qtime": 0, "isDrum": false}, {"time": 96, "velocity": 108, "pitch": 88, "instrument": 16, "track": 1, "qtime": 0, "isDrum": false}, {"time": 96, "velocity": 108, "pitch": 91, "instrument": 16, "track": 1, "qtime": 0, "isDrum": false}, {"time": 140, "velocity": 0, "pitch": 88, "instrument": 16, "track": 1, "qtime": 44, "isDrum": false}, {"time": 141, "velocity": 0, "pitch": 84, "instrument": 16, "track": 1, "qtime": 45, "isDrum": false}, {"time": 141, "velocity": 0, "pitch": 91, "instrument": 16, "track": 1, "qtime": 45, "isDrum": false}, {"time": 144, "velocity": 108, "pitch": 83, "instrument": 16, "track": 1, "qtime": 0, "isDrum": false}, {"time": 144, "velocity": 108, "pitch": 86, "instrument": 16, "track": 1, "qtime": 0, "isDrum": false}, {"time": 144, "velocity": 108, "pitch": 90, "instrument": 16, "track": 1, "qtime": 0, "isDrum": false}, {"time": 188, "velocity": 0, "pitch": 83, "instrument": 16, "track": 1, "qtime": 44, "isDrum": false}, {"time": 188, "velocity": 0, "pitch": 90, "instrument": 16, "track": 1, "qtime": 44, "isDrum": false}, {"time": 189, "velocity": 0, "pitch": 86, "instrument": 16, "track": 1, "qtime": 45, "isDrum": false}, {"time": 30, "velocity": 108, "pitch": 64, "instrument": 24, "track": 2, "qtime": 30, "isDrum": false}, {"time": 35, "velocity": 0, "pitch": 64, "instrument": 24, "track": 2, "qtime": 35, "isDrum": false}, {"time": 36, "velocity": 108, "pitch": 67, "instrument": 24, "track": 2, "qtime": 36, "isDrum": false}, {"time": 41, "velocity": 0, "pitch": 67, "instrument": 24, "track": 2, "qtime": 41, "isDrum": false}, {"time": 42, "velocity": 108, "pitch": 72, "instrument": 24, "track": 2, "qtime": 42, "isDrum": false}, {"time": 47, "velocity": 0, "pitch": 72, "instrument": 24, "track": 2, "qtime": 47, "isDrum": false}, {"time": 48, "velocity": 108, "pitch": 71, "instrument": 24, "track": 2, "qtime": 0, "isDrum": false}, {"time": 53, "velocity": 0, "pitch": 71, "instrument": 24, "track": 2, "qtime": 5, "isDrum": false}, {"time": 54, "velocity": 108, "pitch": 71, "instrument": 24, "track": 2, "qtime": 6, "isDrum": false}, {"time": 58, "velocity": 0, "pitch": 71, "instrument": 24, "track": 2, "qtime": 10, "isDrum": false}, {"time": 60, "velocity": 108, "pitch": 71, "instrument": 24, "track": 2, "qtime": 12, "isDrum": false}, {"time": 65, "velocity": 0, "pitch": 71, "instrument": 24, "track": 2, "qtime": 17, "isDrum": false}, {"time": 66, "velocity": 108, "pitch": 72, "instrument": 24, "track": 2, "qtime": 18, "isDrum": false}, {"time": 72, "velocity": 0, "pitch": 72, "instrument": 24, "track": 2, "qtime": 24, "isDrum": false}, {"time": 72, "velocity": 108, "pitch": 69, "instrument": 24, "track": 2, "qtime": 24, "isDrum": false}, {"time": 76, "velocity": 0, "pitch": 69, "instrument": 24, "track": 2, "qtime": 28, "isDrum": false}, {"time": 78, "velocity": 108, "pitch": 69, "instrument": 24, "track": 2, "qtime": 30, "isDrum": false}, {"time": 82, "velocity": 0, "pitch": 69, "instrument": 24, "track": 2, "qtime": 34, "isDrum": false}, {"time": 84, "velocity": 108, "pitch": 69, "instrument": 24, "track": 2, "qtime": 36, "isDrum": false}, {"time": 88, "velocity": 0, "pitch": 69, "instrument": 24, "track": 2, "qtime": 40, "isDrum": false}, {"time": 90, "velocity": 108, "pitch": 69, "instrument": 24, "track": 2, "qtime": 42, "isDrum": false}, {"time": 95, "velocity": 0, "pitch": 69, "instrument": 24, "track": 2, "qtime": 47, "isDrum": false}, {"time": 96, "velocity": 108, "pitch": 71, "instrument": 24, "track": 2, "qtime": 0, "isDrum": false}, {"time": 102, "velocity": 0, "pitch": 71, "instrument": 24, "track": 2, "qtime": 6, "isDrum": false}, {"time": 102, "velocity": 108, "pitch": 67, "instrument": 24, "track": 2, "qtime": 6, "isDrum": false}, {"time": 106, "velocity": 0, "pitch": 67, "instrument": 24, "track": 2, "qtime": 10, "isDrum": false}, {"time": 108, "velocity": 108, "pitch": 67, "instrument": 24, "track": 2, "qtime": 12, "isDrum": false}, {"time": 111, "velocity": 0, "pitch": 67, "instrument": 24, "track": 2, "qtime": 15, "isDrum": false}, {"time": 114, "velocity": 108, "pitch": 67, "instrument": 24, "track": 2, "qtime": 18, "isDrum": false}, {"time": 120, "velocity": 108, "pitch": 69, "instrument": 24, "track": 2, "qtime": 24, "isDrum": false}, {"time": 121, "velocity": 0, "pitch": 67, "instrument": 24, "track": 2, "qtime": 25, "isDrum": false}, {"time": 125, "velocity": 0, "pitch": 69, "instrument": 24, "track": 2, "qtime": 29, "isDrum": false}, {"time": 126, "velocity": 108, "pitch": 67, "instrument": 24, "track": 2, "qtime": 30, "isDrum": false}, {"time": 135, "velocity": 0, "pitch": 67, "instrument": 24, "track": 2, "qtime": 39, "isDrum": false}, {"time": 135, "velocity": 108, "pitch": 71, "instrument": 24, "track": 2, "qtime": 39, "isDrum": false}, {"time": 137, "velocity": 0, "pitch": 71, "instrument": 24, "track": 2, "qtime": 41, "isDrum": false}, {"time": 138, "velocity": 108, "pitch": 69, "instrument": 24, "track": 2, "qtime": 42, "isDrum": false}, {"time": 143, "velocity": 0, "pitch": 69, "instrument": 24, "track": 2, "qtime": 47, "isDrum": false}, {"time": 144, "velocity": 108, "pitch": 67, "instrument": 24, "track": 2, "qtime": 0, "isDrum": false}, {"time": 148, "velocity": 0, "pitch": 67, "instrument": 24, "track": 2, "qtime": 4, "isDrum": false}, {"time": 150, "velocity": 108, "pitch": 67, "instrument": 24, "track": 2, "qtime": 6, "isDrum": false}, {"time": 154, "velocity": 0, "pitch": 67, "instrument": 24, "track": 2, "qtime": 10, "isDrum": false}, {"time": 156, "velocity": 108, "pitch": 67, "instrument": 24, "track": 2, "qtime": 12, "isDrum": false}, {"time": 159, "velocity": 0, "pitch": 67, "instrument": 24, "track": 2, "qtime": 15, "isDrum": false}, {"time": 159, "velocity": 108, "pitch": 66, "instrument": 24, "track": 2, "qtime": 15, "isDrum": false}, {"time": 168, "velocity": 0, "pitch": 66, "instrument": 24, "track": 2, "qtime": 24, "isDrum": false}, {"time": 168, "velocity": 108, "pitch": 64, "instrument": 24, "track": 2, "qtime": 24, "isDrum": false}, {"time": 173, "velocity": 0, "pitch": 64, "instrument": 24, "track": 2, "qtime": 29, "isDrum": false}, {"time": 174, "velocity": 108, "pitch": 62, "instrument": 24, "track": 2, "qtime": 30, "isDrum": false}, {"time": 185, "velocity": 0, "pitch": 62, "instrument": 24, "track": 2, "qtime": 41, "isDrum": false}], "resolution": 12, "tempo": 120, "minPitch": 47, "maxPitch": 93, "validSegments": [0], "validTracks": [7]}, "audio": "https://www.sfu.ca/~jeffe/examples/uncond_3.mp3"}, {"src": "gen/uncond_4.json", "highlights": [[], [], [], [], [], [], [], []], "caption": "", "sample_id": "9a", "mixer": [8, 8, 8, 8, 8, 8, 8, 8], "json": {"tracks": [{"bars": [{"events": [0, 1, 2, 3, 4, 5, 6, 7, 8, 9, 10, 11, 12, 13, 14, 15, 16, 17, 18, 19, 20, 21, 22, 23, 24, 25, 26, 27, 28, 29, 30, 31, 32, 33, 34, 35, 36, 37, 38, 39, 40, 41, 42, 43, 44, 45, 46, 47, 48, 49, 50, 51, 52, 53, 54, 55, 56, 57, 58, 59], "isFourFour": true, "hasNotes": true, "time": 0}, {"events": [60, 61, 62, 63, 64, 65, 66, 67, 68, 69, 70, 71, 72, 73, 74, 75, 76, 77, 78, 79, 80, 81, 82, 83, 84, 85, 86, 87, 88, 89, 90, 91, 92, 93, 94, 95, 96, 97, 98, 99, 100, 101, 102, 103, 104, 105, 106, 107, 108, 109, 110, 111, 112, 113, 114, 115, 116, 117, 118, 119], "isFourFour": true, "hasNotes": true, "time": 48}, {"events": [120, 121, 122, 123, 124, 125, 126, 127, 128, 129, 130, 131, 132, 133, 134, 135, 136, 137, 138, 139, 140, 141, 142, 143, 144, 145, 146, 147, 148, 149, 150, 151, 152, 153, 154, 155, 156, 157, 158, 159, 160, 161, 162, 163, 164, 165, 166, 167, 168, 169, 170, 171, 172, 173, 174, 175, 176, 177, 178, 179], "isFourFour": true, "hasNotes": true, "time": 96}, {"events": [180, 181, 182, 183, 184, 185, 186, 187, 188, 189, 190, 191, 192, 193, 194, 195, 196, 197, 198, 199, 200, 201, 202, 203, 204, 205, 206, 207, 208, 209, 210, 211, 212, 213, 214, 215, 216, 217, 218, 219, 220, 221, 222, 223, 224, 225, 226, 227, 228, 229, 230, 231, 232, 233, 234, 235, 236, 237, 238, 239], "isFourFour": true, "hasNotes": true, "time": 144}], "isDrum": true, "minPitch": 36, "maxPitch": 46, "instrument": 0, "avPolyphony": 1.875, "noteDensity": 9, "noteDensityV2": 9}, {"bars": [{"isFourFour": true, "hasNotes": false, "time": 0}, {"events": [240, 241, 242, 243, 244, 245, 246, 247, 248, 249, 250, 251, 252, 253, 254, 255, 256, 257, 258, 259, 260, 261, 262, 263], "isFourFour": true, "hasNotes": true, "time": 48}, {"events": [264, 265, 266, 267, 268, 269, 270, 271, 272, 273, 274, 275, 276, 277, 278, 279, 280, 281, 282, 283, 284, 285, 286, 287], "isFourFour": true, "hasNotes": true, "time": 96}, {"events": [288, 289, 290, 291, 292, 293, 294, 295, 296, 297, 298, 299, 300, 301, 302, 303, 304, 305, 306, 307, 308, 309, 310, 311], "isFourFour": true, "hasNotes": true, "time": 144}], "isDrum": false, "minPitch": 71, "maxPitch": 83, "instrument": 30, "avPolyphony": 1, "noteDensity": 9, "noteDensityV2": 6}, {"bars": [{"events": [312, 313, 314, 315, 316], "isFourFour": true, "hasNotes": true, "time": 0}, {"events": [317], "isFourFour": true, "hasNotes": true, "time": 48}, {"events": [318, 319, 320, 321, 322], "isFourFour": true, "hasNotes": true, "time": 96}, {"events": [323], "isFourFour": true, "hasNotes": true, "time": 144}], "isDrum": false, "minPitch": 75, "maxPitch": 79, "instrument": 77, "avPolyphony": 1, "noteDensity": 0, "noteDensityV2": 1}], "events": [{"time": 0, "velocity": 108, "pitch": 36, "instrument": 0, "track": 9, "qtime": 0, "isDrum": true}, {"time": 0, "velocity": 108, "pitch": 42, "instrument": 0, "track": 9, "qtime": 0, "isDrum": true}, {"time": 1, "velocity": 0, "pitch": 36, "instrument": 0, "track": 9, "qtime": 1, "isDrum": true}, {"time": 1, "velocity": 0, "pitch": 42, "instrument": 0, "track": 9, "qtime": 1, "isDrum": true}, {"time": 3, "velocity": 108, "pitch": 42, "instrument": 0, "track": 9, "qtime": 3, "isDrum": true}, {"time": 4, "velocity": 0, "pitch": 42, "instrument": 0, "track": 9, "qtime": 4, "isDrum": true}, {"time": 6, "velocity": 108, "pitch": 39, "instrument": 0, "track": 9, "qtime": 6, "isDrum": true}, {"time": 6, "velocity": 108, "pitch": 42, "instrument": 0, "track": 9, "qtime": 6, "isDrum": true}, {"time": 7, "velocity": 0, "pitch": 39, "instrument": 0, "track": 9, "qtime": 7, "isDrum": true}, {"time": 7, "velocity": 0, "pitch": 42, "instrument": 0, "track": 9, "qtime": 7, "isDrum": true}, {"time": 9, "velocity": 108, "pitch": 42, "instrument": 0, "track": 9, "qtime": 9, "isDrum": true}, {"time": 10, "velocity": 0, "pitch": 42, "instrument": 0, "track": 9, "qtime": 10, "isDrum": true}, {"time": 12, "velocity": 108, "pitch": 36, "instrument": 0, "track": 9, "qtime": 12, "isDrum": true}, {"time": 12, "velocity": 108, "pitch": 38, "instrument": 0, "track": 9, "qtime": 12, "isDrum": true}, {"time": 12, "velocity": 108, "pitch": 42, "instrument": 0, "track": 9, "qtime": 12, "isDrum": true}, {"time": 13, "velocity": 0, "pitch": 36, "instrument": 0, "track": 9, "qtime": 13, "isDrum": true}, {"time": 13, "velocity": 0, "pitch": 38, "instrument": 0, "track": 9, "qtime": 13, "isDrum": true}, {"time": 13, "velocity": 0, "pitch": 42, "instrument": 0, "track": 9, "qtime": 13, "isDrum": true}, {"time": 15, "velocity": 108, "pitch": 42, "instrument": 0, "track": 9, "qtime": 15, "isDrum": true}, {"time": 16, "velocity": 0, "pitch": 42, "instrument": 0, "track": 9, "qtime": 16, "isDrum": true}, {"time": 18, "velocity": 108, "pitch": 39, "instrument": 0, "track": 9, "qtime": 18, "isDrum": true}, {"time": 18, "velocity": 108, "pitch": 42, "instrument": 0, "track": 9, "qtime": 18, "isDrum": true}, {"time": 19, "velocity": 0, "pitch": 39, "instrument": 0, "track": 9, "qtime": 19, "isDrum": true}, {"time": 19, "velocity": 0, "pitch": 42, "instrument": 0, "track": 9, "qtime": 19, "isDrum": true}, {"time": 21, "velocity": 108, "pitch": 39, "instrument": 0, "track": 9, "qtime": 21, "isDrum": true}, {"time": 21, "velocity": 108, "pitch": 42, "instrument": 0, "track": 9, "qtime": 21, "isDrum": true}, {"time": 22, "velocity": 0, "pitch": 39, "instrument": 0, "track": 9, "qtime": 22, "isDrum": true}, {"time": 22, "velocity": 0, "pitch": 42, "instrument": 0, "track": 9, "qtime": 22, "isDrum": true}, {"time": 24, "velocity": 108, "pitch": 36, "instrument": 0, "track": 9, "qtime": 24, "isDrum": true}, {"time": 24, "velocity": 108, "pitch": 42, "instrument": 0, "track": 9, "qtime": 24, "isDrum": true}, {"time": 25, "velocity": 0, "pitch": 36, "instrument": 0, "track": 9, "qtime": 25, "isDrum": true}, {"time": 25, "velocity": 0, "pitch": 42, "instrument": 0, "track": 9, "qtime": 25, "isDrum": true}, {"time": 27, "velocity": 108, "pitch": 39, "instrument": 0, "track": 9, "qtime": 27, "isDrum": true}, {"time": 27, "velocity": 108, "pitch": 42, "instrument": 0, "track": 9, "qtime": 27, "isDrum": true}, {"time": 28, "velocity": 0, "pitch": 39, "instrument": 0, "track": 9, "qtime": 28, "isDrum": true}, {"time": 28, "velocity": 0, "pitch": 42, "instrument": 0, "track": 9, "qtime": 28, "isDrum": true}, {"time": 30, "velocity": 108, "pitch": 39, "instrument": 0, "track": 9, "qtime": 30, "isDrum": true}, {"time": 30, "velocity": 108, "pitch": 42, "instrument": 0, "track": 9, "qtime": 30, "isDrum": true}, {"time": 31, "velocity": 0, "pitch": 39, "instrument": 0, "track": 9, "qtime": 31, "isDrum": true}, {"time": 31, "velocity": 0, "pitch": 42, "instrument": 0, "track": 9, "qtime": 31, "isDrum": true}, {"time": 33, "velocity": 108, "pitch": 39, "instrument": 0, "track": 9, "qtime": 33, "isDrum": true}, {"time": 33, "velocity": 108, "pitch": 42, "instrument": 0, "track": 9, "qtime": 33, "isDrum": true}, {"time": 34, "velocity": 0, "pitch": 39, "instrument": 0, "track": 9, "qtime": 34, "isDrum": true}, {"time": 34, "velocity": 0, "pitch": 42, "instrument": 0, "track": 9, "qtime": 34, "isDrum": true}, {"time": 36, "velocity": 108, "pitch": 36, "instrument": 0, "track": 9, "qtime": 36, "isDrum": true}, {"time": 36, "velocity": 108, "pitch": 38, "instrument": 0, "track": 9, "qtime": 36, "isDrum": true}, {"time": 36, "velocity": 108, "pitch": 42, "instrument": 0, "track": 9, "qtime": 36, "isDrum": true}, {"time": 37, "velocity": 0, "pitch": 36, "instrument": 0, "track": 9, "qtime": 37, "isDrum": true}, {"time": 37, "velocity": 0, "pitch": 38, "instrument": 0, "track": 9, "qtime": 37, "isDrum": true}, {"time": 37, "velocity": 0, "pitch": 42, "instrument": 0, "track": 9, "qtime": 37, "isDrum": true}, {"time": 39, "velocity": 108, "pitch": 39, "instrument": 0, "track": 9, "qtime": 39, "isDrum": true}, {"time": 39, "velocity": 108, "pitch": 42, "instrument": 0, "track": 9, "qtime": 39, "isDrum": true}, {"time": 40, "velocity": 0, "pitch": 39, "instrument": 0, "track": 9, "qtime": 40, "isDrum": true}, {"time": 40, "velocity": 0, "pitch": 42, "instrument": 0, "track": 9, "qtime": 40, "isDrum": true}, {"time": 42, "velocity": 108, "pitch": 39, "instrument": 0, "track": 9, "qtime": 42, "isDrum": true}, {"time": 42, "velocity": 108, "pitch": 46, "instrument": 0, "track": 9, "qtime": 42, "isDrum": true}, {"time": 43, "velocity": 0, "pitch": 39, "instrument": 0, "track": 9, "qtime": 43, "isDrum": true}, {"time": 43, "velocity": 0, "pitch": 46, "instrument": 0, "track": 9, "qtime": 43, "isDrum": true}, {"time": 45, "velocity": 108, "pitch": 39, "instrument": 0, "track": 9, "qtime": 45, "isDrum": true}, {"time": 46, "velocity": 0, "pitch": 39, "instrument": 0, "track": 9, "qtime": 46, "isDrum": true}, {"time": 48, "velocity": 108, "pitch": 36, "instrument": 0, "track": 9, "qtime": 0, "isDrum": true}, {"time": 48, "velocity": 108, "pitch": 42, "instrument": 0, "track": 9, "qtime": 0, "isDrum": true}, {"time": 49, "velocity": 0, "pitch": 36, "instrument": 0, "track": 9, "qtime": 1, "isDrum": true}, {"time": 49, "velocity": 0, "pitch": 42, "instrument": 0, "track": 9, "qtime": 1, "isDrum": true}, {"time": 51, "velocity": 108, "pitch": 42, "instrument": 0, "track": 9, "qtime": 3, "isDrum": true}, {"time": 52, "velocity": 0, "pitch": 42, "instrument": 0, "track": 9, "qtime": 4, "isDrum": true}, {"time": 54, "velocity": 108, "pitch": 39, "instrument": 0, "track": 9, "qtime": 6, "isDrum": true}, {"time": 54, "velocity": 108, "pitch": 42, "instrument": 0, "track": 9, "qtime": 6, "isDrum": true}, {"time": 55, "velocity": 0, "pitch": 39, "instrument": 0, "track": 9, "qtime": 7, "isDrum": true}, {"time": 55, "velocity": 0, "pitch": 42, "instrument": 0, "track": 9, "qtime": 7, "isDrum": true}, {"time": 57, "velocity": 108, "pitch": 42, "instrument": 0, "track": 9, "qtime": 9, "isDrum": true}, {"time": 58, "velocity": 0, "pitch": 42, "instrument": 0, "track": 9, "qtime": 10, "isDrum": true}, {"time": 60, "velocity": 108, "pitch": 36, "instrument": 0, "track": 9, "qtime": 12, "isDrum": true}, {"time": 60, "velocity": 108, "pitch": 38, "instrument": 0, "track": 9, "qtime": 12, "isDrum": true}, {"time": 60, "velocity": 108, "pitch": 42, "instrument": 0, "track": 9, "qtime": 12, "isDrum": true}, {"time": 61, "velocity": 0, "pitch": 36, "instrument": 0, "track": 9, "qtime": 13, "isDrum": true}, {"time": 61, "velocity": 0, "pitch": 38, "instrument": 0, "track": 9, "qtime": 13, "isDrum": true}, {"time": 61, "velocity": 0, "pitch": 42, "instrument": 0, "track": 9, "qtime": 13, "isDrum": true}, {"time": 63, "velocity": 108, "pitch": 42, "instrument": 0, "track": 9, "qtime": 15, "isDrum": true}, {"time": 64, "velocity": 0, "pitch": 42, "instrument": 0, "track": 9, "qtime": 16, "isDrum": true}, {"time": 66, "velocity": 108, "pitch": 39, "instrument": 0, "track": 9, "qtime": 18, "isDrum": true}, {"time": 66, "velocity": 108, "pitch": 42, "instrument": 0, "track": 9, "qtime": 18, "isDrum": true}, {"time": 67, "velocity": 0, "pitch": 39, "instrument": 0, "track": 9, "qtime": 19, "isDrum": true}, {"time": 67, "velocity": 0, "pitch": 42, "instrument": 0, "track": 9, "qtime": 19, "isDrum": true}, {"time": 69, "velocity": 108, "pitch": 39, "instrument": 0, "track": 9, "qtime": 21, "isDrum": true}, {"time": 69, "velocity": 108, "pitch": 42, "instrument": 0, "track": 9, "qtime": 21, "isDrum": true}, {"time": 70, "velocity": 0, "pitch": 39, "instrument": 0, "track": 9, "qtime": 22, "isDrum": true}, {"time": 70, "velocity": 0, "pitch": 42, "instrument": 0, "track": 9, "qtime": 22, "isDrum": true}, {"time": 72, "velocity": 108, "pitch": 36, "instrument": 0, "track": 9, "qtime": 24, "isDrum": true}, {"time": 72, "velocity": 108, "pitch": 42, "instrument": 0, "track": 9, "qtime": 24, "isDrum": true}, {"time": 73, "velocity": 0, "pitch": 36, "instrument": 0, "track": 9, "qtime": 25, "isDrum": true}, {"time": 73, "velocity": 0, "pitch": 42, "instrument": 0, "track": 9, "qtime": 25, "isDrum": true}, {"time": 75, "velocity": 108, "pitch": 39, "instrument": 0, "track": 9, "qtime": 27, "isDrum": true}, {"time": 75, "velocity": 108, "pitch": 42, "instrument": 0, "track": 9, "qtime": 27, "isDrum": true}, {"time": 76, "velocity": 0, "pitch": 39, "instrument": 0, "track": 9, "qtime": 28, "isDrum": true}, {"time": 76, "velocity": 0, "pitch": 42, "instrument": 0, "track": 9, "qtime": 28, "isDrum": true}, {"time": 78, "velocity": 108, "pitch": 39, "instrument": 0, "track": 9, "qtime": 30, "isDrum": true}, {"time": 78, "velocity": 108, "pitch": 42, "instrument": 0, "track": 9, "qtime": 30, "isDrum": true}, {"time": 79, "velocity": 0, "pitch": 39, "instrument": 0, "track": 9, "qtime": 31, "isDrum": true}, {"time": 79, "velocity": 0, "pitch": 42, "instrument": 0, "track": 9, "qtime": 31, "isDrum": true}, {"time": 81, "velocity": 108, "pitch": 39, "instrument": 0, "track": 9, "qtime": 33, "isDrum": true}, {"time": 81, "velocity": 108, "pitch": 42, "instrument": 0, "track": 9, "qtime": 33, "isDrum": true}, {"time": 82, "velocity": 0, "pitch": 39, "instrument": 0, "track": 9, "qtime": 34, "isDrum": true}, {"time": 82, "velocity": 0, "pitch": 42, "instrument": 0, "track": 9, "qtime": 34, "isDrum": true}, {"time": 84, "velocity": 108, "pitch": 36, "instrument": 0, "track": 9, "qtime": 36, "isDrum": true}, {"time": 84, "velocity": 108, "pitch": 38, "instrument": 0, "track": 9, "qtime": 36, "isDrum": true}, {"time": 84, "velocity": 108, "pitch": 42, "instrument": 0, "track": 9, "qtime": 36, "isDrum": true}, {"time": 85, "velocity": 0, "pitch": 36, "instrument": 0, "track": 9, "qtime": 37, "isDrum": true}, {"time": 85, "velocity": 0, "pitch": 38, "instrument": 0, "track": 9, "qtime": 37, "isDrum": true}, {"time": 85, "velocity": 0, "pitch": 42, "instrument": 0, "track": 9, "qtime": 37, "isDrum": true}, {"time": 87, "velocity": 108, "pitch": 39, "instrument": 0, "track": 9, "qtime": 39, "isDrum": true}, {"time": 87, "velocity": 108, "pitch": 42, "instrument": 0, "track": 9, "qtime": 39, "isDrum": true}, {"time": 88, "velocity": 0, "pitch": 39, "instrument": 0, "track": 9, "qtime": 40, "isDrum": true}, {"time": 88, "velocity": 0, "pitch": 42, "instrument": 0, "track": 9, "qtime": 40, "isDrum": true}, {"time": 90, "velocity": 108, "pitch": 39, "instrument": 0, "track": 9, "qtime": 42, "isDrum": true}, {"time": 90, "velocity": 108, "pitch": 46, "instrument": 0, "track": 9, "qtime": 42, "isDrum": true}, {"time": 91, "velocity": 0, "pitch": 39, "instrument": 0, "track": 9, "qtime": 43, "isDrum": true}, {"time": 91, "velocity": 0, "pitch": 46, "instrument": 0, "track": 9, "qtime": 43, "isDrum": true}, {"time": 93, "velocity": 108, "pitch": 39, "instrument": 0, "track": 9, "qtime": 45, "isDrum": true}, {"time": 94, "velocity": 0, "pitch": 39, "instrument": 0, "track": 9, "qtime": 46, "isDrum": true}, {"time": 96, "velocity": 108, "pitch": 36, "instrument": 0, "track": 9, "qtime": 0, "isDrum": true}, {"time": 96, "velocity": 108, "pitch": 42, "instrument": 0, "track": 9, "qtime": 0, "isDrum": true}, {"time": 97, "velocity": 0, "pitch": 36, "instrument": 0, "track": 9, "qtime": 1, "isDrum": true}, {"time": 97, "velocity": 0, "pitch": 42, "instrument": 0, "track": 9, "qtime": 1, "isDrum": true}, {"time": 99, "velocity": 108, "pitch": 42, "instrument": 0, "track": 9, "qtime": 3, "isDrum": true}, {"time": 100, "velocity": 0, "pitch": 42, "instrument": 0, "track": 9, "qtime": 4, "isDrum": true}, {"time": 102, "velocity": 108, "pitch": 39, "instrument": 0, "track": 9, "qtime": 6, "isDrum": true}, {"time": 102, "velocity": 108, "pitch": 42, "instrument": 0, "track": 9, "qtime": 6, "isDrum": true}, {"time": 103, "velocity": 0, "pitch": 39, "instrument": 0, "track": 9, "qtime": 7, "isDrum": true}, {"time": 103, "velocity": 0, "pitch": 42, "instrument": 0, "track": 9, "qtime": 7, "isDrum": true}, {"time": 105, "velocity": 108, "pitch": 42, "instrument": 0, "track": 9, "qtime": 9, "isDrum": true}, {"time": 106, "velocity": 0, "pitch": 42, "instrument": 0, "track": 9, "qtime": 10, "isDrum": true}, {"time": 108, "velocity": 108, "pitch": 36, "instrument": 0, "track": 9, "qtime": 12, "isDrum": true}, {"time": 108, "velocity": 108, "pitch": 38, "instrument": 0, "track": 9, "qtime": 12, "isDrum": true}, {"time": 108, "velocity": 108, "pitch": 42, "instrument": 0, "track": 9, "qtime": 12, "isDrum": true}, {"time": 109, "velocity": 0, "pitch": 36, "instrument": 0, "track": 9, "qtime": 13, "isDrum": true}, {"time": 109, "velocity": 0, "pitch": 38, "instrument": 0, "track": 9, "qtime": 13, "isDrum": true}, {"time": 109, "velocity": 0, "pitch": 42, "instrument": 0, "track": 9, "qtime": 13, "isDrum": true}, {"time": 111, "velocity": 108, "pitch": 42, "instrument": 0, "track": 9, "qtime": 15, "isDrum": true}, {"time": 112, "velocity": 0, "pitch": 42, "instrument": 0, "track": 9, "qtime": 16, "isDrum": true}, {"time": 114, "velocity": 108, "pitch": 39, "instrument": 0, "track": 9, "qtime": 18, "isDrum": true}, {"time": 114, "velocity": 108, "pitch": 42, "instrument": 0, "track": 9, "qtime": 18, "isDrum": true}, {"time": 115, "velocity": 0, "pitch": 39, "instrument": 0, "track": 9, "qtime": 19, "isDrum": true}, {"time": 115, "velocity": 0, "pitch": 42, "instrument": 0, "track": 9, "qtime": 19, "isDrum": true}, {"time": 117, "velocity": 108, "pitch": 39, "instrument": 0, "track": 9, "qtime": 21, "isDrum": true}, {"time": 117, "velocity": 108, "pitch": 42, "instrument": 0, "track": 9, "qtime": 21, "isDrum": true}, {"time": 118, "velocity": 0, "pitch": 39, "instrument": 0, "track": 9, "qtime": 22, "isDrum": true}, {"time": 118, "velocity": 0, "pitch": 42, "instrument": 0, "track": 9, "qtime": 22, "isDrum": true}, {"time": 120, "velocity": 108, "pitch": 36, "instrument": 0, "track": 9, "qtime": 24, "isDrum": true}, {"time": 120, "velocity": 108, "pitch": 42, "instrument": 0, "track": 9, "qtime": 24, "isDrum": true}, {"time": 121, "velocity": 0, "pitch": 36, "instrument": 0, "track": 9, "qtime": 25, "isDrum": true}, {"time": 121, "velocity": 0, "pitch": 42, "instrument": 0, "track": 9, "qtime": 25, "isDrum": true}, {"time": 123, "velocity": 108, "pitch": 39, "instrument": 0, "track": 9, "qtime": 27, "isDrum": true}, {"time": 123, "velocity": 108, "pitch": 42, "instrument": 0, "track": 9, "qtime": 27, "isDrum": true}, {"time": 124, "velocity": 0, "pitch": 39, "instrument": 0, "track": 9, "qtime": 28, "isDrum": true}, {"time": 124, "velocity": 0, "pitch": 42, "instrument": 0, "track": 9, "qtime": 28, "isDrum": true}, {"time": 126, "velocity": 108, "pitch": 39, "instrument": 0, "track": 9, "qtime": 30, "isDrum": true}, {"time": 126, "velocity": 108, "pitch": 42, "instrument": 0, "track": 9, "qtime": 30, "isDrum": true}, {"time": 127, "velocity": 0, "pitch": 39, "instrument": 0, "track": 9, "qtime": 31, "isDrum": true}, {"time": 127, "velocity": 0, "pitch": 42, "instrument": 0, "track": 9, "qtime": 31, "isDrum": true}, {"time": 129, "velocity": 108, "pitch": 39, "instrument": 0, "track": 9, "qtime": 33, "isDrum": true}, {"time": 129, "velocity": 108, "pitch": 42, "instrument": 0, "track": 9, "qtime": 33, "isDrum": true}, {"time": 130, "velocity": 0, "pitch": 39, "instrument": 0, "track": 9, "qtime": 34, "isDrum": true}, {"time": 130, "velocity": 0, "pitch": 42, "instrument": 0, "track": 9, "qtime": 34, "isDrum": true}, {"time": 132, "velocity": 108, "pitch": 36, "instrument": 0, "track": 9, "qtime": 36, "isDrum": true}, {"time": 132, "velocity": 108, "pitch": 38, "instrument": 0, "track": 9, "qtime": 36, "isDrum": true}, {"time": 132, "velocity": 108, "pitch": 42, "instrument": 0, "track": 9, "qtime": 36, "isDrum": true}, {"time": 133, "velocity": 0, "pitch": 36, "instrument": 0, "track": 9, "qtime": 37, "isDrum": true}, {"time": 133, "velocity": 0, "pitch": 38, "instrument": 0, "track": 9, "qtime": 37, "isDrum": true}, {"time": 133, "velocity": 0, "pitch": 42, "instrument": 0, "track": 9, "qtime": 37, "isDrum": true}, {"time": 135, "velocity": 108, "pitch": 39, "instrument": 0, "track": 9, "qtime": 39, "isDrum": true}, {"time": 135, "velocity": 108, "pitch": 42, "instrument": 0, "track": 9, "qtime": 39, "isDrum": true}, {"time": 136, "velocity": 0, "pitch": 39, "instrument": 0, "track": 9, "qtime": 40, "isDrum": true}, {"time": 136, "velocity": 0, "pitch": 42, "instrument": 0, "track": 9, "qtime": 40, "isDrum": true}, {"time": 138, "velocity": 108, "pitch": 39, "instrument": 0, "track": 9, "qtime": 42, "isDrum": true}, {"time": 138, "velocity": 108, "pitch": 46, "instrument": 0, "track": 9, "qtime": 42, "isDrum": true}, {"time": 139, "velocity": 0, "pitch": 39, "instrument": 0, "track": 9, "qtime": 43, "isDrum": true}, {"time": 139, "velocity": 0, "pitch": 46, "instrument": 0, "track": 9, "qtime": 43, "isDrum": true}, {"time": 141, "velocity": 108, "pitch": 39, "instrument": 0, "track": 9, "qtime": 45, "isDrum": true}, {"time": 142, "velocity": 0, "pitch": 39, "instrument": 0, "track": 9, "qtime": 46, "isDrum": true}, {"time": 144, "velocity": 108, "pitch": 36, "instrument": 0, "track": 9, "qtime": 0, "isDrum": true}, {"time": 144, "velocity": 108, "pitch": 42, "instrument": 0, "track": 9, "qtime": 0, "isDrum": true}, {"time": 145, "velocity": 0, "pitch": 36, "instrument": 0, "track": 9, "qtime": 1, "isDrum": true}, {"time": 145, "velocity": 0, "pitch": 42, "instrument": 0, "track": 9, "qtime": 1, "isDrum": true}, {"time": 147, "velocity": 108, "pitch": 42, "instrument": 0, "track": 9, "qtime": 3, "isDrum": true}, {"time": 148, "velocity": 0, "pitch": 42, "instrument": 0, "track": 9, "qtime": 4, "isDrum": true}, {"time": 150, "velocity": 108, "pitch": 39, "instrument": 0, "track": 9, "qtime": 6, "isDrum": true}, {"time": 150, "velocity": 108, "pitch": 42, "instrument": 0, "track": 9, "qtime": 6, "isDrum": true}, {"time": 151, "velocity": 0, "pitch": 39, "instrument": 0, "track": 9, "qtime": 7, "isDrum": true}, {"time": 151, "velocity": 0, "pitch": 42, "instrument": 0, "track": 9, "qtime": 7, "isDrum": true}, {"time": 153, "velocity": 108, "pitch": 42, "instrument": 0, "track": 9, "qtime": 9, "isDrum": true}, {"time": 154, "velocity": 0, "pitch": 42, "instrument": 0, "track": 9, "qtime": 10, "isDrum": true}, {"time": 156, "velocity": 108, "pitch": 36, "instrument": 0, "track": 9, "qtime": 12, "isDrum": true}, {"time": 156, "velocity": 108, "pitch": 38, "instrument": 0, "track": 9, "qtime": 12, "isDrum": true}, {"time": 156, "velocity": 108, "pitch": 42, "instrument": 0, "track": 9, "qtime": 12, "isDrum": true}, {"time": 157, "velocity": 0, "pitch": 36, "instrument": 0, "track": 9, "qtime": 13, "isDrum": true}, {"time": 157, "velocity": 0, "pitch": 38, "instrument": 0, "track": 9, "qtime": 13, "isDrum": true}, {"time": 157, "velocity": 0, "pitch": 42, "instrument": 0, "track": 9, "qtime": 13, "isDrum": true}, {"time": 159, "velocity": 108, "pitch": 42, "instrument": 0, "track": 9, "qtime": 15, "isDrum": true}, {"time": 160, "velocity": 0, "pitch": 42, "instrument": 0, "track": 9, "qtime": 16, "isDrum": true}, {"time": 162, "velocity": 108, "pitch": 39, "instrument": 0, "track": 9, "qtime": 18, "isDrum": true}, {"time": 162, "velocity": 108, "pitch": 42, "instrument": 0, "track": 9, "qtime": 18, "isDrum": true}, {"time": 163, "velocity": 0, "pitch": 39, "instrument": 0, "track": 9, "qtime": 19, "isDrum": true}, {"time": 163, "velocity": 0, "pitch": 42, "instrument": 0, "track": 9, "qtime": 19, "isDrum": true}, {"time": 165, "velocity": 108, "pitch": 39, "instrument": 0, "track": 9, "qtime": 21, "isDrum": true}, {"time": 165, "velocity": 108, "pitch": 42, "instrument": 0, "track": 9, "qtime": 21, "isDrum": true}, {"time": 166, "velocity": 0, "pitch": 39, "instrument": 0, "track": 9, "qtime": 22, "isDrum": true}, {"time": 166, "velocity": 0, "pitch": 42, "instrument": 0, "track": 9, "qtime": 22, "isDrum": true}, {"time": 168, "velocity": 108, "pitch": 36, "instrument": 0, "track": 9, "qtime": 24, "isDrum": true}, {"time": 168, "velocity": 108, "pitch": 42, "instrument": 0, "track": 9, "qtime": 24, "isDrum": true}, {"time": 169, "velocity": 0, "pitch": 36, "instrument": 0, "track": 9, "qtime": 25, "isDrum": true}, {"time": 169, "velocity": 0, "pitch": 42, "instrument": 0, "track": 9, "qtime": 25, "isDrum": true}, {"time": 171, "velocity": 108, "pitch": 39, "instrument": 0, "track": 9, "qtime": 27, "isDrum": true}, {"time": 171, "velocity": 108, "pitch": 42, "instrument": 0, "track": 9, "qtime": 27, "isDrum": true}, {"time": 172, "velocity": 0, "pitch": 39, "instrument": 0, "track": 9, "qtime": 28, "isDrum": true}, {"time": 172, "velocity": 0, "pitch": 42, "instrument": 0, "track": 9, "qtime": 28, "isDrum": true}, {"time": 174, "velocity": 108, "pitch": 39, "instrument": 0, "track": 9, "qtime": 30, "isDrum": true}, {"time": 174, "velocity": 108, "pitch": 42, "instrument": 0, "track": 9, "qtime": 30, "isDrum": true}, {"time": 175, "velocity": 0, "pitch": 39, "instrument": 0, "track": 9, "qtime": 31, "isDrum": true}, {"time": 175, "velocity": 0, "pitch": 42, "instrument": 0, "track": 9, "qtime": 31, "isDrum": true}, {"time": 177, "velocity": 108, "pitch": 39, "instrument": 0, "track": 9, "qtime": 33, "isDrum": true}, {"time": 177, "velocity": 108, "pitch": 42, "instrument": 0, "track": 9, "qtime": 33, "isDrum": true}, {"time": 178, "velocity": 0, "pitch": 39, "instrument": 0, "track": 9, "qtime": 34, "isDrum": true}, {"time": 178, "velocity": 0, "pitch": 42, "instrument": 0, "track": 9, "qtime": 34, "isDrum": true}, {"time": 180, "velocity": 108, "pitch": 36, "instrument": 0, "track": 9, "qtime": 36, "isDrum": true}, {"time": 180, "velocity": 108, "pitch": 38, "instrument": 0, "track": 9, "qtime": 36, "isDrum": true}, {"time": 180, "velocity": 108, "pitch": 42, "instrument": 0, "track": 9, "qtime": 36, "isDrum": true}, {"time": 181, "velocity": 0, "pitch": 36, "instrument": 0, "track": 9, "qtime": 37, "isDrum": true}, {"time": 181, "velocity": 0, "pitch": 38, "instrument": 0, "track": 9, "qtime": 37, "isDrum": true}, {"time": 181, "velocity": 0, "pitch": 42, "instrument": 0, "track": 9, "qtime": 37, "isDrum": true}, {"time": 183, "velocity": 108, "pitch": 39, "instrument": 0, "track": 9, "qtime": 39, "isDrum": true}, {"time": 183, "velocity": 108, "pitch": 42, "instrument": 0, "track": 9, "qtime": 39, "isDrum": true}, {"time": 184, "velocity": 0, "pitch": 39, "instrument": 0, "track": 9, "qtime": 40, "isDrum": true}, {"time": 184, "velocity": 0, "pitch": 42, "instrument": 0, "track": 9, "qtime": 40, "isDrum": true}, {"time": 186, "velocity": 108, "pitch": 39, "instrument": 0, "track": 9, "qtime": 42, "isDrum": true}, {"time": 186, "velocity": 108, "pitch": 46, "instrument": 0, "track": 9, "qtime": 42, "isDrum": true}, {"time": 187, "velocity": 0, "pitch": 39, "instrument": 0, "track": 9, "qtime": 43, "isDrum": true}, {"time": 187, "velocity": 0, "pitch": 46, "instrument": 0, "track": 9, "qtime": 43, "isDrum": true}, {"time": 189, "velocity": 108, "pitch": 39, "instrument": 0, "track": 9, "qtime": 45, "isDrum": true}, {"time": 190, "velocity": 0, "pitch": 39, "instrument": 0, "track": 9, "qtime": 46, "isDrum": true}, {"time": 48, "velocity": 108, "pitch": 71, "instrument": 30, "track": 1, "qtime": 0, "isDrum": false}, {"time": 50, "velocity": 0, "pitch": 71, "instrument": 30, "track": 1, "qtime": 2, "isDrum": false}, {"time": 54, "velocity": 108, "pitch": 83, "instrument": 30, "track": 1, "qtime": 6, "isDrum": false}, {"time": 56, "velocity": 0, "pitch": 83, "instrument": 30, "track": 1, "qtime": 8, "isDrum": false}, {"time": 57, "velocity": 108, "pitch": 83, "instrument": 30, "track": 1, "qtime": 9, "isDrum": false}, {"time": 59, "velocity": 0, "pitch": 83, "instrument": 30, "track": 1, "qtime": 11, "isDrum": false}, {"time": 60, "velocity": 108, "pitch": 71, "instrument": 30, "track": 1, "qtime": 12, "isDrum": false}, {"time": 62, "velocity": 0, "pitch": 71, "instrument": 30, "track": 1, "qtime": 14, "isDrum": false}, {"time": 66, "velocity": 108, "pitch": 83, "instrument": 30, "track": 1, "qtime": 18, "isDrum": false}, {"time": 68, "velocity": 0, "pitch": 83, "instrument": 30, "track": 1, "qtime": 20, "isDrum": false}, {"time": 69, "velocity": 108, "pitch": 83, "instrument": 30, "track": 1, "qtime": 21, "isDrum": false}, {"time": 71, "velocity": 0, "pitch": 83, "instrument": 30, "track": 1, "qtime": 23, "isDrum": false}, {"time": 72, "velocity": 108, "pitch": 71, "instrument": 30, "track": 1, "qtime": 24, "isDrum": false}, {"time": 74, "velocity": 0, "pitch": 71, "instrument": 30, "track": 1, "qtime": 26, "isDrum": false}, {"time": 78, "velocity": 108, "pitch": 83, "instrument": 30, "track": 1, "qtime": 30, "isDrum": false}, {"time": 80, "velocity": 0, "pitch": 83, "instrument": 30, "track": 1, "qtime": 32, "isDrum": false}, {"time": 81, "velocity": 108, "pitch": 83, "instrument": 30, "track": 1, "qtime": 33, "isDrum": false}, {"time": 83, "velocity": 0, "pitch": 83, "instrument": 30, "track": 1, "qtime": 35, "isDrum": false}, {"time": 84, "velocity": 108, "pitch": 71, "instrument": 30, "track": 1, "qtime": 36, "isDrum": false}, {"time": 86, "velocity": 0, "pitch": 71, "instrument": 30, "track": 1, "qtime": 38, "isDrum": false}, {"time": 90, "velocity": 108, "pitch": 83, "instrument": 30, "track": 1, "qtime": 42, "isDrum": false}, {"time": 92, "velocity": 0, "pitch": 83, "instrument": 30, "track": 1, "qtime": 44, "isDrum": false}, {"time": 93, "velocity": 108, "pitch": 83, "instrument": 30, "track": 1, "qtime": 45, "isDrum": false}, {"time": 95, "velocity": 0, "pitch": 83, "instrument": 30, "track": 1, "qtime": 47, "isDrum": false}, {"time": 96, "velocity": 108, "pitch": 71, "instrument": 30, "track": 1, "qtime": 0, "isDrum": false}, {"time": 98, "velocity": 0, "pitch": 71, "instrument": 30, "track": 1, "qtime": 2, "isDrum": false}, {"time": 102, "velocity": 108, "pitch": 83, "instrument": 30, "track": 1, "qtime": 6, "isDrum": false}, {"time": 104, "velocity": 0, "pitch": 83, "instrument": 30, "track": 1, "qtime": 8, "isDrum": false}, {"time": 105, "velocity": 108, "pitch": 83, "instrument": 30, "track": 1, "qtime": 9, "isDrum": false}, {"time": 107, "velocity": 0, "pitch": 83, "instrument": 30, "track": 1, "qtime": 11, "isDrum": false}, {"time": 108, "velocity": 108, "pitch": 71, "instrument": 30, "track": 1, "qtime": 12, "isDrum": false}, {"time": 110, "velocity": 0, "pitch": 71, "instrument": 30, "track": 1, "qtime": 14, "isDrum": false}, {"time": 114, "velocity": 108, "pitch": 83, "instrument": 30, "track": 1, "qtime": 18, "isDrum": false}, {"time": 116, "velocity": 0, "pitch": 83, "instrument": 30, "track": 1, "qtime": 20, "isDrum": false}, {"time": 117, "velocity": 108, "pitch": 83, "instrument": 30, "track": 1, "qtime": 21, "isDrum": false}, {"time": 119, "velocity": 0, "pitch": 83, "instrument": 30, "track": 1, "qtime": 23, "isDrum": false}, {"time": 120, "velocity": 108, "pitch": 71, "instrument": 30, "track": 1, "qtime": 24, "isDrum": false}, {"time": 122, "velocity": 0, "pitch": 71, "instrument": 30, "track": 1, "qtime": 26, "isDrum": false}, {"time": 126, "velocity": 108, "pitch": 83, "instrument": 30, "track": 1, "qtime": 30, "isDrum": false}, {"time": 128, "velocity": 0, "pitch": 83, "instrument": 30, "track": 1, "qtime": 32, "isDrum": false}, {"time": 129, "velocity": 108, "pitch": 83, "instrument": 30, "track": 1, "qtime": 33, "isDrum": false}, {"time": 131, "velocity": 0, "pitch": 83, "instrument": 30, "track": 1, "qtime": 35, "isDrum": false}, {"time": 132, "velocity": 108, "pitch": 71, "instrument": 30, "track": 1, "qtime": 36, "isDrum": false}, {"time": 134, "velocity": 0, "pitch": 71, "instrument": 30, "track": 1, "qtime": 38, "isDrum": false}, {"time": 138, "velocity": 108, "pitch": 83, "instrument": 30, "track": 1, "qtime": 42, "isDrum": false}, {"time": 140, "velocity": 0, "pitch": 83, "instrument": 30, "track": 1, "qtime": 44, "isDrum": false}, {"time": 141, "velocity": 108, "pitch": 83, "instrument": 30, "track": 1, "qtime": 45, "isDrum": false}, {"time": 143, "velocity": 0, "pitch": 83, "instrument": 30, "track": 1, "qtime": 47, "isDrum": false}, {"time": 144, "velocity": 108, "pitch": 71, "instrument": 30, "track": 1, "qtime": 0, "isDrum": false}, {"time": 146, "velocity": 0, "pitch": 71, "instrument": 30, "track": 1, "qtime": 2, "isDrum": false}, {"time": 150, "velocity": 108, "pitch": 83, "instrument": 30, "track": 1, "qtime": 6, "isDrum": false}, {"time": 152, "velocity": 0, "pitch": 83, "instrument": 30, "track": 1, "qtime": 8, "isDrum": false}, {"time": 153, "velocity": 108, "pitch": 83, "instrument": 30, "track": 1, "qtime": 9, "isDrum": false}, {"time": 155, "velocity": 0, "pitch": 83, "instrument": 30, "track": 1, "qtime": 11, "isDrum": false}, {"time": 156, "velocity": 108, "pitch": 71, "instrument": 30, "track": 1, "qtime": 12, "isDrum": false}, {"time": 158, "velocity": 0, "pitch": 71, "instrument": 30, "track": 1, "qtime": 14, "isDrum": false}, {"time": 162, "velocity": 108, "pitch": 83, "instrument": 30, "track": 1, "qtime": 18, "isDrum": false}, {"time": 164, "velocity": 0, "pitch": 83, "instrument": 30, "track": 1, "qtime": 20, "isDrum": false}, {"time": 165, "velocity": 108, "pitch": 83, "instrument": 30, "track": 1, "qtime": 21, "isDrum": false}, {"time": 167, "velocity": 0, "pitch": 83, "instrument": 30, "track": 1, "qtime": 23, "isDrum": false}, {"time": 168, "velocity": 108, "pitch": 71, "instrument": 30, "track": 1, "qtime": 24, "isDrum": false}, {"time": 170, "velocity": 0, "pitch": 71, "instrument": 30, "track": 1, "qtime": 26, "isDrum": false}, {"time": 174, "velocity": 108, "pitch": 83, "instrument": 30, "track": 1, "qtime": 30, "isDrum": false}, {"time": 176, "velocity": 0, "pitch": 83, "instrument": 30, "track": 1, "qtime": 32, "isDrum": false}, {"time": 177, "velocity": 108, "pitch": 83, "instrument": 30, "track": 1, "qtime": 33, "isDrum": false}, {"time": 179, "velocity": 0, "pitch": 83, "instrument": 30, "track": 1, "qtime": 35, "isDrum": false}, {"time": 180, "velocity": 108, "pitch": 71, "instrument": 30, "track": 1, "qtime": 36, "isDrum": false}, {"time": 182, "velocity": 0, "pitch": 71, "instrument": 30, "track": 1, "qtime": 38, "isDrum": false}, {"time": 186, "velocity": 108, "pitch": 83, "instrument": 30, "track": 1, "qtime": 42, "isDrum": false}, {"time": 188, "velocity": 0, "pitch": 83, "instrument": 30, "track": 1, "qtime": 44, "isDrum": false}, {"time": 189, "velocity": 108, "pitch": 83, "instrument": 30, "track": 1, "qtime": 45, "isDrum": false}, {"time": 191, "velocity": 0, "pitch": 83, "instrument": 30, "track": 1, "qtime": 47, "isDrum": false}, {"time": 22, "velocity": 0, "pitch": 75, "instrument": 77, "track": 2, "qtime": 22, "isDrum": false}, {"time": 24, "velocity": 108, "pitch": 76, "instrument": 77, "track": 2, "qtime": 24, "isDrum": false}, {"time": 34, "velocity": 0, "pitch": 76, "instrument": 77, "track": 2, "qtime": 34, "isDrum": false}, {"time": 36, "velocity": 108, "pitch": 78, "instrument": 77, "track": 2, "qtime": 36, "isDrum": false}, {"time": 46, "velocity": 0, "pitch": 78, "instrument": 77, "track": 2, "qtime": 46, "isDrum": false}, {"time": 48, "velocity": 108, "pitch": 75, "instrument": 77, "track": 2, "qtime": 0, "isDrum": false}, {"time": 116, "velocity": 0, "pitch": 75, "instrument": 77, "track": 2, "qtime": 20, "isDrum": false}, {"time": 120, "velocity": 108, "pitch": 76, "instrument": 77, "track": 2, "qtime": 24, "isDrum": false}, {"time": 131, "velocity": 0, "pitch": 76, "instrument": 77, "track": 2, "qtime": 35, "isDrum": false}, {"time": 132, "velocity": 108, "pitch": 78, "instrument": 77, "track": 2, "qtime": 36, "isDrum": false}, {"time": 143, "velocity": 0, "pitch": 78, "instrument": 77, "track": 2, "qtime": 47, "isDrum": false}, {"time": 144, "velocity": 108, "pitch": 79, "instrument": 77, "track": 2, "qtime": 0, "isDrum": false}], "resolution": 12, "tempo": 120, "minPitch": 36, "maxPitch": 83, "validSegments": [0], "validTracks": [7]}, "audio": "https://www.sfu.ca/~jeffe/examples/uncond_4.mp3"}, {"src": "gen/8b_uncond_2.json", "highlights": [[], [], [], [], [], [], [], []], "caption": "", "sample_id": "10a", "mixer": [8, 8, 8, 8, 8, 8, 8, 8], "json": {"tracks": [{"bars": [{"events": [0, 1, 2, 3, 4, 5, 6, 7, 8, 9, 10, 11, 12, 13, 14, 15, 16, 17, 18, 19, 20, 21, 22, 23, 24, 25, 26, 27, 28, 29, 30, 31], "isFourFour": true, "hasNotes": true, "time": 0}, {"events": [32, 33, 34, 35, 36, 37, 38, 39, 40, 41, 42, 43, 44, 45, 46, 47, 48, 49], "isFourFour": true, "hasNotes": true, "time": 48}, {"events": [50, 51, 52, 53, 54, 55, 56, 57, 58, 59, 60, 61, 62, 63, 64, 65, 66, 67, 68, 69, 70, 71, 72, 73, 74, 75, 76, 77, 78, 79, 80, 81, 82, 83, 84, 85, 86, 87, 88, 89, 90, 91, 92, 93, 94], "isFourFour": true, "hasNotes": true, "time": 96}, {"events": [95, 96, 97, 98, 99, 100, 101, 102, 103, 104, 105, 106, 107, 108, 109, 110, 111, 112, 113, 114, 115, 116, 117, 118, 119], "isFourFour": true, "hasNotes": true, "time": 144}, {"events": [120, 121, 122, 123, 124, 125, 126, 127, 128, 129, 130, 131, 132, 133, 134, 135, 136, 137, 138, 139, 140, 141, 142, 143, 144, 145, 146, 147, 148, 149, 150, 151], "isFourFour": true, "hasNotes": true, "time": 192}, {"events": [152, 153, 154, 155, 156, 157, 158, 159, 160, 161, 162, 163, 164, 165, 166, 167, 168, 169, 170, 171, 172, 173, 174, 175, 176, 177, 178, 179, 180, 181, 182, 183], "isFourFour": true, "hasNotes": true, "time": 240}, {"events": [184, 185, 186, 187, 188, 189, 190, 191, 192, 193, 194, 195, 196, 197, 198, 199, 200, 201, 202, 203, 204, 205, 206, 207, 208, 209, 210, 211, 212, 213, 214, 215, 216], "isFourFour": true, "hasNotes": true, "time": 288}, {"events": [217, 218, 219, 220, 221, 222, 223, 224, 225, 226, 227, 228, 229, 230, 231, 232, 233], "isFourFour": true, "hasNotes": true, "time": 336}], "isDrum": false, "minPitch": 38, "maxPitch": 63, "instrument": 4, "avPolyphony": 3.89592767, "noteDensity": 9, "noteDensityV2": 8}, {"bars": [{"events": [234, 235, 236, 237, 238, 239, 240, 241], "isFourFour": true, "hasNotes": true, "time": 0}, {"events": [242, 243, 244, 245, 246, 247, 248, 249], "isFourFour": true, "hasNotes": true, "time": 48}, {"events": [250, 251, 252, 253, 254, 255, 256, 257], "isFourFour": true, "hasNotes": true, "time": 96}, {"events": [258, 259, 260, 261, 262, 263, 264, 265], "isFourFour": true, "hasNotes": true, "time": 144}, {"events": [266, 267, 268, 269, 270, 271, 272, 273], "isFourFour": true, "hasNotes": true, "time": 192}, {"events": [274, 275, 276, 277, 278, 279, 280, 281], "isFourFour": true, "hasNotes": true, "time": 240}, {"events": [282, 283, 284, 285, 286, 287, 288, 289, 290], "isFourFour": true, "hasNotes": true, "time": 288}, {"events": [291, 292, 293, 294, 295, 296, 297, 298, 299, 300, 301], "isFourFour": true, "hasNotes": true, "time": 336}], "isDrum": false, "minPitch": 33, "maxPitch": 41, "instrument": 35, "avPolyphony": 1, "noteDensity": 9, "noteDensityV2": 3}, {"bars": [{"events": [302, 303, 304, 305, 306, 307, 308, 309, 310, 311, 312], "isFourFour": true, "hasNotes": true, "time": 0}, {"events": [313], "isFourFour": true, "hasNotes": true, "time": 48}, {"events": [314, 315, 316, 317, 318, 319, 320, 321, 322, 323, 324], "isFourFour": true, "hasNotes": true, "time": 96}, {"events": [325, 326, 327, 328, 329, 330, 331, 332, 333, 334], "isFourFour": true, "hasNotes": true, "time": 144}, {"events": [335, 336, 337], "isFourFour": true, "hasNotes": true, "time": 192}, {"events": [338, 339, 340, 341, 342, 343, 344, 345], "isFourFour": true, "hasNotes": true, "time": 240}, {"events": [346, 347, 348, 349, 350, 351, 352, 353, 354, 355], "isFourFour": true, "hasNotes": true, "time": 288}, {"events": [356, 357, 358, 359, 360, 361, 362, 363, 364, 365], "isFourFour": true, "hasNotes": true, "time": 336}], "isDrum": false, "minPitch": 43, "maxPitch": 55, "instrument": 65, "avPolyphony": 1.01219511, "noteDensity": 8, "noteDensityV2": 5}, {"bars": [{"events": [366, 367, 368, 369, 370, 371, 372, 373, 374, 375, 376, 377, 378, 379, 380, 381, 382, 383, 384, 385, 386, 387], "isFourFour": true, "hasNotes": true, "time": 0}, {"events": [388, 389, 390, 391, 392, 393, 394, 395, 396, 397, 398, 399, 400, 401, 402, 403, 404, 405, 406, 407, 408, 409, 410, 411, 412, 413], "isFourFour": true, "hasNotes": true, "time": 48}, {"events": [414, 415, 416, 417, 418, 419, 420, 421, 422, 423, 424, 425, 426, 427, 428, 429, 430, 431, 432, 433, 434, 435, 436, 437], "isFourFour": true, "hasNotes": true, "time": 96}, {"events": [438, 439, 440, 441, 442, 443, 444, 445, 446, 447, 448, 449, 450, 451, 452, 453, 454, 455, 456, 457, 458, 459, 460, 461, 462, 463, 464, 465], "isFourFour": true, "hasNotes": true, "time": 144}, {"events": [466, 467, 468, 469, 470, 471, 472, 473, 474, 475, 476, 477, 478, 479, 480, 481, 482, 483, 484, 485, 486, 487, 488, 489, 490, 491], "isFourFour": true, "hasNotes": true, "time": 192}, {"events": [492, 493, 494, 495, 496, 497, 498, 499, 500, 501, 502, 503, 504, 505, 506, 507, 508, 509, 510, 511, 512, 513, 514, 515, 516, 517], "isFourFour": true, "hasNotes": true, "time": 240}, {"events": [518, 519, 520, 521, 522, 523, 524, 525, 526, 527, 528, 529, 530, 531, 532, 533, 534, 535, 536, 537, 538, 539, 540, 541], "isFourFour": true, "hasNotes": true, "time": 288}, {"events": [542, 543, 544, 545, 546, 547, 548, 549, 550, 551, 552, 553, 554, 555, 556, 557, 558, 559, 560, 561, 562, 563], "isFourFour": true, "hasNotes": true, "time": 336}], "isDrum": true, "minPitch": 36, "maxPitch": 50, "instrument": 0, "avPolyphony": 2.13043475, "noteDensity": 9, "noteDensityV2": 5}], "events": [{"time": 1, "velocity": 108, "pitch": 43, "instrument": 4, "track": 0, "qtime": 1, "isDrum": false}, {"time": 1, "velocity": 108, "pitch": 52, "instrument": 4, "track": 0, "qtime": 1, "isDrum": false}, {"time": 1, "velocity": 108, "pitch": 58, "instrument": 4, "track": 0, "qtime": 1, "isDrum": false}, {"time": 1, "velocity": 108, "pitch": 62, "instrument": 4, "track": 0, "qtime": 1, "isDrum": false}, {"time": 5, "velocity": 0, "pitch": 58, "instrument": 4, "track": 0, "qtime": 5, "isDrum": false}, {"time": 6, "velocity": 0, "pitch": 43, "instrument": 4, "track": 0, "qtime": 6, "isDrum": false}, {"time": 6, "velocity": 0, "pitch": 52, "instrument": 4, "track": 0, "qtime": 6, "isDrum": false}, {"time": 6, "velocity": 0, "pitch": 62, "instrument": 4, "track": 0, "qtime": 6, "isDrum": false}, {"time": 14, "velocity": 108, "pitch": 43, "instrument": 4, "track": 0, "qtime": 14, "isDrum": false}, {"time": 14, "velocity": 108, "pitch": 52, "instrument": 4, "track": 0, "qtime": 14, "isDrum": false}, {"time": 14, "velocity": 108, "pitch": 58, "instrument": 4, "track": 0, "qtime": 14, "isDrum": false}, {"time": 14, "velocity": 108, "pitch": 62, "instrument": 4, "track": 0, "qtime": 14, "isDrum": false}, {"time": 16, "velocity": 0, "pitch": 43, "instrument": 4, "track": 0, "qtime": 16, "isDrum": false}, {"time": 16, "velocity": 0, "pitch": 52, "instrument": 4, "track": 0, "qtime": 16, "isDrum": false}, {"time": 16, "velocity": 0, "pitch": 58, "instrument": 4, "track": 0, "qtime": 16, "isDrum": false}, {"time": 16, "velocity": 0, "pitch": 62, "instrument": 4, "track": 0, "qtime": 16, "isDrum": false}, {"time": 25, "velocity": 108, "pitch": 43, "instrument": 4, "track": 0, "qtime": 25, "isDrum": false}, {"time": 25, "velocity": 108, "pitch": 52, "instrument": 4, "track": 0, "qtime": 25, "isDrum": false}, {"time": 25, "velocity": 108, "pitch": 58, "instrument": 4, "track": 0, "qtime": 25, "isDrum": false}, {"time": 26, "velocity": 108, "pitch": 62, "instrument": 4, "track": 0, "qtime": 26, "isDrum": false}, {"time": 27, "velocity": 0, "pitch": 58, "instrument": 4, "track": 0, "qtime": 27, "isDrum": false}, {"time": 28, "velocity": 0, "pitch": 43, "instrument": 4, "track": 0, "qtime": 28, "isDrum": false}, {"time": 28, "velocity": 0, "pitch": 52, "instrument": 4, "track": 0, "qtime": 28, "isDrum": false}, {"time": 28, "velocity": 0, "pitch": 62, "instrument": 4, "track": 0, "qtime": 28, "isDrum": false}, {"time": 37, "velocity": 108, "pitch": 43, "instrument": 4, "track": 0, "qtime": 37, "isDrum": false}, {"time": 37, "velocity": 108, "pitch": 52, "instrument": 4, "track": 0, "qtime": 37, "isDrum": false}, {"time": 37, "velocity": 108, "pitch": 58, "instrument": 4, "track": 0, "qtime": 37, "isDrum": false}, {"time": 38, "velocity": 108, "pitch": 62, "instrument": 4, "track": 0, "qtime": 38, "isDrum": false}, {"time": 39, "velocity": 0, "pitch": 58, "instrument": 4, "track": 0, "qtime": 39, "isDrum": false}, {"time": 40, "velocity": 0, "pitch": 43, "instrument": 4, "track": 0, "qtime": 40, "isDrum": false}, {"time": 40, "velocity": 0, "pitch": 52, "instrument": 4, "track": 0, "qtime": 40, "isDrum": false}, {"time": 40, "velocity": 0, "pitch": 62, "instrument": 4, "track": 0, "qtime": 40, "isDrum": false}, {"time": 49, "velocity": 108, "pitch": 43, "instrument": 4, "track": 0, "qtime": 1, "isDrum": false}, {"time": 52, "velocity": 0, "pitch": 43, "instrument": 4, "track": 0, "qtime": 4, "isDrum": false}, {"time": 54, "velocity": 108, "pitch": 52, "instrument": 4, "track": 0, "qtime": 6, "isDrum": false}, {"time": 55, "velocity": 108, "pitch": 43, "instrument": 4, "track": 0, "qtime": 7, "isDrum": false}, {"time": 55, "velocity": 108, "pitch": 58, "instrument": 4, "track": 0, "qtime": 7, "isDrum": false}, {"time": 55, "velocity": 108, "pitch": 62, "instrument": 4, "track": 0, "qtime": 7, "isDrum": false}, {"time": 56, "velocity": 0, "pitch": 43, "instrument": 4, "track": 0, "qtime": 8, "isDrum": false}, {"time": 56, "velocity": 0, "pitch": 58, "instrument": 4, "track": 0, "qtime": 8, "isDrum": false}, {"time": 57, "velocity": 0, "pitch": 52, "instrument": 4, "track": 0, "qtime": 9, "isDrum": false}, {"time": 57, "velocity": 0, "pitch": 62, "instrument": 4, "track": 0, "qtime": 9, "isDrum": false}, {"time": 67, "velocity": 108, "pitch": 43, "instrument": 4, "track": 0, "qtime": 19, "isDrum": false}, {"time": 67, "velocity": 108, "pitch": 52, "instrument": 4, "track": 0, "qtime": 19, "isDrum": false}, {"time": 67, "velocity": 108, "pitch": 58, "instrument": 4, "track": 0, "qtime": 19, "isDrum": false}, {"time": 67, "velocity": 108, "pitch": 62, "instrument": 4, "track": 0, "qtime": 19, "isDrum": false}, {"time": 96, "velocity": 0, "pitch": 43, "instrument": 4, "track": 0, "qtime": 48, "isDrum": false}, {"time": 96, "velocity": 0, "pitch": 52, "instrument": 4, "track": 0, "qtime": 48, "isDrum": false}, {"time": 96, "velocity": 0, "pitch": 58, "instrument": 4, "track": 0, "qtime": 48, "isDrum": false}, {"time": 96, "velocity": 0, "pitch": 62, "instrument": 4, "track": 0, "qtime": 48, "isDrum": false}, {"time": 96, "velocity": 108, "pitch": 38, "instrument": 4, "track": 0, "qtime": 0, "isDrum": false}, {"time": 96, "velocity": 108, "pitch": 48, "instrument": 4, "track": 0, "qtime": 0, "isDrum": false}, {"time": 96, "velocity": 108, "pitch": 54, "instrument": 4, "track": 0, "qtime": 0, "isDrum": false}, {"time": 96, "velocity": 108, "pitch": 60, "instrument": 4, "track": 0, "qtime": 0, "isDrum": false}, {"time": 96, "velocity": 108, "pitch": 63, "instrument": 4, "track": 0, "qtime": 0, "isDrum": false}, {"time": 99, "velocity": 0, "pitch": 38, "instrument": 4, "track": 0, "qtime": 3, "isDrum": false}, {"time": 99, "velocity": 0, "pitch": 48, "instrument": 4, "track": 0, "qtime": 3, "isDrum": false}, {"time": 100, "velocity": 0, "pitch": 54, "instrument": 4, "track": 0, "qtime": 4, "isDrum": false}, {"time": 100, "velocity": 0, "pitch": 60, "instrument": 4, "track": 0, "qtime": 4, "isDrum": false}, {"time": 100, "velocity": 0, "pitch": 63, "instrument": 4, "track": 0, "qtime": 4, "isDrum": false}, {"time": 102, "velocity": 108, "pitch": 38, "instrument": 4, "track": 0, "qtime": 6, "isDrum": false}, {"time": 102, "velocity": 108, "pitch": 48, "instrument": 4, "track": 0, "qtime": 6, "isDrum": false}, {"time": 102, "velocity": 108, "pitch": 54, "instrument": 4, "track": 0, "qtime": 6, "isDrum": false}, {"time": 102, "velocity": 108, "pitch": 60, "instrument": 4, "track": 0, "qtime": 6, "isDrum": false}, {"time": 102, "velocity": 108, "pitch": 63, "instrument": 4, "track": 0, "qtime": 6, "isDrum": false}, {"time": 105, "velocity": 0, "pitch": 38, "instrument": 4, "track": 0, "qtime": 9, "isDrum": false}, {"time": 105, "velocity": 0, "pitch": 48, "instrument": 4, "track": 0, "qtime": 9, "isDrum": false}, {"time": 106, "velocity": 0, "pitch": 54, "instrument": 4, "track": 0, "qtime": 10, "isDrum": false}, {"time": 106, "velocity": 0, "pitch": 60, "instrument": 4, "track": 0, "qtime": 10, "isDrum": false}, {"time": 106, "velocity": 0, "pitch": 63, "instrument": 4, "track": 0, "qtime": 10, "isDrum": false}, {"time": 114, "velocity": 108, "pitch": 38, "instrument": 4, "track": 0, "qtime": 18, "isDrum": false}, {"time": 114, "velocity": 108, "pitch": 48, "instrument": 4, "track": 0, "qtime": 18, "isDrum": false}, {"time": 114, "velocity": 108, "pitch": 54, "instrument": 4, "track": 0, "qtime": 18, "isDrum": false}, {"time": 114, "velocity": 108, "pitch": 60, "instrument": 4, "track": 0, "qtime": 18, "isDrum": false}, {"time": 114, "velocity": 108, "pitch": 63, "instrument": 4, "track": 0, "qtime": 18, "isDrum": false}, {"time": 117, "velocity": 0, "pitch": 38, "instrument": 4, "track": 0, "qtime": 21, "isDrum": false}, {"time": 117, "velocity": 0, "pitch": 48, "instrument": 4, "track": 0, "qtime": 21, "isDrum": false}, {"time": 117, "velocity": 0, "pitch": 54, "instrument": 4, "track": 0, "qtime": 21, "isDrum": false}, {"time": 117, "velocity": 0, "pitch": 60, "instrument": 4, "track": 0, "qtime": 21, "isDrum": false}, {"time": 117, "velocity": 0, "pitch": 63, "instrument": 4, "track": 0, "qtime": 21, "isDrum": false}, {"time": 126, "velocity": 108, "pitch": 38, "instrument": 4, "track": 0, "qtime": 30, "isDrum": false}, {"time": 126, "velocity": 108, "pitch": 48, "instrument": 4, "track": 0, "qtime": 30, "isDrum": false}, {"time": 126, "velocity": 108, "pitch": 54, "instrument": 4, "track": 0, "qtime": 30, "isDrum": false}, {"time": 126, "velocity": 108, "pitch": 60, "instrument": 4, "track": 0, "qtime": 30, "isDrum": false}, {"time": 126, "velocity": 108, "pitch": 63, "instrument": 4, "track": 0, "qtime": 30, "isDrum": false}, {"time": 129, "velocity": 0, "pitch": 38, "instrument": 4, "track": 0, "qtime": 33, "isDrum": false}, {"time": 129, "velocity": 0, "pitch": 48, "instrument": 4, "track": 0, "qtime": 33, "isDrum": false}, {"time": 129, "velocity": 0, "pitch": 54, "instrument": 4, "track": 0, "qtime": 33, "isDrum": false}, {"time": 129, "velocity": 0, "pitch": 60, "instrument": 4, "track": 0, "qtime": 33, "isDrum": false}, {"time": 129, "velocity": 0, "pitch": 63, "instrument": 4, "track": 0, "qtime": 33, "isDrum": false}, {"time": 138, "velocity": 108, "pitch": 48, "instrument": 4, "track": 0, "qtime": 42, "isDrum": false}, {"time": 139, "velocity": 108, "pitch": 38, "instrument": 4, "track": 0, "qtime": 43, "isDrum": false}, {"time": 139, "velocity": 108, "pitch": 54, "instrument": 4, "track": 0, "qtime": 43, "isDrum": false}, {"time": 139, "velocity": 108, "pitch": 60, "instrument": 4, "track": 0, "qtime": 43, "isDrum": false}, {"time": 139, "velocity": 108, "pitch": 63, "instrument": 4, "track": 0, "qtime": 43, "isDrum": false}, {"time": 149, "velocity": 0, "pitch": 38, "instrument": 4, "track": 0, "qtime": 5, "isDrum": false}, {"time": 149, "velocity": 0, "pitch": 48, "instrument": 4, "track": 0, "qtime": 5, "isDrum": false}, {"time": 149, "velocity": 0, "pitch": 54, "instrument": 4, "track": 0, "qtime": 5, "isDrum": false}, {"time": 149, "velocity": 0, "pitch": 60, "instrument": 4, "track": 0, "qtime": 5, "isDrum": false}, {"time": 149, "velocity": 0, "pitch": 63, "instrument": 4, "track": 0, "qtime": 5, "isDrum": false}, {"time": 150, "velocity": 108, "pitch": 38, "instrument": 4, "track": 0, "qtime": 6, "isDrum": false}, {"time": 150, "velocity": 108, "pitch": 48, "instrument": 4, "track": 0, "qtime": 6, "isDrum": false}, {"time": 150, "velocity": 108, "pitch": 54, "instrument": 4, "track": 0, "qtime": 6, "isDrum": false}, {"time": 151, "velocity": 108, "pitch": 60, "instrument": 4, "track": 0, "qtime": 7, "isDrum": false}, {"time": 151, "velocity": 108, "pitch": 63, "instrument": 4, "track": 0, "qtime": 7, "isDrum": false}, {"time": 160, "velocity": 0, "pitch": 38, "instrument": 4, "track": 0, "qtime": 16, "isDrum": false}, {"time": 160, "velocity": 0, "pitch": 48, "instrument": 4, "track": 0, "qtime": 16, "isDrum": false}, {"time": 160, "velocity": 0, "pitch": 54, "instrument": 4, "track": 0, "qtime": 16, "isDrum": false}, {"time": 160, "velocity": 0, "pitch": 60, "instrument": 4, "track": 0, "qtime": 16, "isDrum": false}, {"time": 160, "velocity": 0, "pitch": 63, "instrument": 4, "track": 0, "qtime": 16, "isDrum": false}, {"time": 162, "velocity": 108, "pitch": 38, "instrument": 4, "track": 0, "qtime": 18, "isDrum": false}, {"time": 162, "velocity": 108, "pitch": 48, "instrument": 4, "track": 0, "qtime": 18, "isDrum": false}, {"time": 162, "velocity": 108, "pitch": 54, "instrument": 4, "track": 0, "qtime": 18, "isDrum": false}, {"time": 162, "velocity": 108, "pitch": 60, "instrument": 4, "track": 0, "qtime": 18, "isDrum": false}, {"time": 162, "velocity": 108, "pitch": 63, "instrument": 4, "track": 0, "qtime": 18, "isDrum": false}, {"time": 166, "velocity": 0, "pitch": 38, "instrument": 4, "track": 0, "qtime": 22, "isDrum": false}, {"time": 166, "velocity": 0, "pitch": 48, "instrument": 4, "track": 0, "qtime": 22, "isDrum": false}, {"time": 166, "velocity": 0, "pitch": 54, "instrument": 4, "track": 0, "qtime": 22, "isDrum": false}, {"time": 166, "velocity": 0, "pitch": 60, "instrument": 4, "track": 0, "qtime": 22, "isDrum": false}, {"time": 166, "velocity": 0, "pitch": 63, "instrument": 4, "track": 0, "qtime": 22, "isDrum": false}, {"time": 192, "velocity": 108, "pitch": 43, "instrument": 4, "track": 0, "qtime": 0, "isDrum": false}, {"time": 192, "velocity": 108, "pitch": 52, "instrument": 4, "track": 0, "qtime": 0, "isDrum": false}, {"time": 192, "velocity": 108, "pitch": 58, "instrument": 4, "track": 0, "qtime": 0, "isDrum": false}, {"time": 193, "velocity": 108, "pitch": 62, "instrument": 4, "track": 0, "qtime": 1, "isDrum": false}, {"time": 195, "velocity": 0, "pitch": 43, "instrument": 4, "track": 0, "qtime": 3, "isDrum": false}, {"time": 198, "velocity": 0, "pitch": 52, "instrument": 4, "track": 0, "qtime": 6, "isDrum": false}, {"time": 198, "velocity": 0, "pitch": 58, "instrument": 4, "track": 0, "qtime": 6, "isDrum": false}, {"time": 198, "velocity": 0, "pitch": 62, "instrument": 4, "track": 0, "qtime": 6, "isDrum": false}, {"time": 198, "velocity": 108, "pitch": 43, "instrument": 4, "track": 0, "qtime": 6, "isDrum": false}, {"time": 198, "velocity": 108, "pitch": 52, "instrument": 4, "track": 0, "qtime": 6, "isDrum": false}, {"time": 198, "velocity": 108, "pitch": 58, "instrument": 4, "track": 0, "qtime": 6, "isDrum": false}, {"time": 199, "velocity": 108, "pitch": 62, "instrument": 4, "track": 0, "qtime": 7, "isDrum": false}, {"time": 203, "velocity": 0, "pitch": 43, "instrument": 4, "track": 0, "qtime": 11, "isDrum": false}, {"time": 203, "velocity": 0, "pitch": 52, "instrument": 4, "track": 0, "qtime": 11, "isDrum": false}, {"time": 203, "velocity": 0, "pitch": 58, "instrument": 4, "track": 0, "qtime": 11, "isDrum": false}, {"time": 203, "velocity": 0, "pitch": 62, "instrument": 4, "track": 0, "qtime": 11, "isDrum": false}, {"time": 212, "velocity": 108, "pitch": 43, "instrument": 4, "track": 0, "qtime": 20, "isDrum": false}, {"time": 212, "velocity": 108, "pitch": 52, "instrument": 4, "track": 0, "qtime": 20, "isDrum": false}, {"time": 212, "velocity": 108, "pitch": 58, "instrument": 4, "track": 0, "qtime": 20, "isDrum": false}, {"time": 212, "velocity": 108, "pitch": 62, "instrument": 4, "track": 0, "qtime": 20, "isDrum": false}, {"time": 226, "velocity": 0, "pitch": 43, "instrument": 4, "track": 0, "qtime": 34, "isDrum": false}, {"time": 226, "velocity": 0, "pitch": 52, "instrument": 4, "track": 0, "qtime": 34, "isDrum": false}, {"time": 226, "velocity": 0, "pitch": 58, "instrument": 4, "track": 0, "qtime": 34, "isDrum": false}, {"time": 226, "velocity": 0, "pitch": 62, "instrument": 4, "track": 0, "qtime": 34, "isDrum": false}, {"time": 229, "velocity": 108, "pitch": 43, "instrument": 4, "track": 0, "qtime": 37, "isDrum": false}, {"time": 230, "velocity": 108, "pitch": 52, "instrument": 4, "track": 0, "qtime": 38, "isDrum": false}, {"time": 230, "velocity": 108, "pitch": 58, "instrument": 4, "track": 0, "qtime": 38, "isDrum": false}, {"time": 230, "velocity": 108, "pitch": 62, "instrument": 4, "track": 0, "qtime": 38, "isDrum": false}, {"time": 235, "velocity": 0, "pitch": 43, "instrument": 4, "track": 0, "qtime": 43, "isDrum": false}, {"time": 235, "velocity": 0, "pitch": 52, "instrument": 4, "track": 0, "qtime": 43, "isDrum": false}, {"time": 235, "velocity": 0, "pitch": 58, "instrument": 4, "track": 0, "qtime": 43, "isDrum": false}, {"time": 236, "velocity": 0, "pitch": 62, "instrument": 4, "track": 0, "qtime": 44, "isDrum": false}, {"time": 240, "velocity": 108, "pitch": 41, "instrument": 4, "track": 0, "qtime": 0, "isDrum": false}, {"time": 240, "velocity": 108, "pitch": 51, "instrument": 4, "track": 0, "qtime": 0, "isDrum": false}, {"time": 240, "velocity": 108, "pitch": 57, "instrument": 4, "track": 0, "qtime": 0, "isDrum": false}, {"time": 240, "velocity": 108, "pitch": 63, "instrument": 4, "track": 0, "qtime": 0, "isDrum": false}, {"time": 243, "velocity": 0, "pitch": 41, "instrument": 4, "track": 0, "qtime": 3, "isDrum": false}, {"time": 246, "velocity": 0, "pitch": 51, "instrument": 4, "track": 0, "qtime": 6, "isDrum": false}, {"time": 246, "velocity": 0, "pitch": 57, "instrument": 4, "track": 0, "qtime": 6, "isDrum": false}, {"time": 246, "velocity": 0, "pitch": 63, "instrument": 4, "track": 0, "qtime": 6, "isDrum": false}, {"time": 246, "velocity": 108, "pitch": 41, "instrument": 4, "track": 0, "qtime": 6, "isDrum": false}, {"time": 246, "velocity": 108, "pitch": 51, "instrument": 4, "track": 0, "qtime": 6, "isDrum": false}, {"time": 246, "velocity": 108, "pitch": 57, "instrument": 4, "track": 0, "qtime": 6, "isDrum": false}, {"time": 247, "velocity": 108, "pitch": 63, "instrument": 4, "track": 0, "qtime": 7, "isDrum": false}, {"time": 251, "velocity": 0, "pitch": 41, "instrument": 4, "track": 0, "qtime": 11, "isDrum": false}, {"time": 251, "velocity": 0, "pitch": 51, "instrument": 4, "track": 0, "qtime": 11, "isDrum": false}, {"time": 251, "velocity": 0, "pitch": 57, "instrument": 4, "track": 0, "qtime": 11, "isDrum": false}, {"time": 251, "velocity": 0, "pitch": 63, "instrument": 4, "track": 0, "qtime": 11, "isDrum": false}, {"time": 259, "velocity": 108, "pitch": 41, "instrument": 4, "track": 0, "qtime": 19, "isDrum": false}, {"time": 259, "velocity": 108, "pitch": 51, "instrument": 4, "track": 0, "qtime": 19, "isDrum": false}, {"time": 259, "velocity": 108, "pitch": 57, "instrument": 4, "track": 0, "qtime": 19, "isDrum": false}, {"time": 259, "velocity": 108, "pitch": 63, "instrument": 4, "track": 0, "qtime": 19, "isDrum": false}, {"time": 273, "velocity": 0, "pitch": 41, "instrument": 4, "track": 0, "qtime": 33, "isDrum": false}, {"time": 273, "velocity": 0, "pitch": 51, "instrument": 4, "track": 0, "qtime": 33, "isDrum": false}, {"time": 273, "velocity": 0, "pitch": 57, "instrument": 4, "track": 0, "qtime": 33, "isDrum": false}, {"time": 273, "velocity": 0, "pitch": 63, "instrument": 4, "track": 0, "qtime": 33, "isDrum": false}, {"time": 277, "velocity": 108, "pitch": 41, "instrument": 4, "track": 0, "qtime": 37, "isDrum": false}, {"time": 277, "velocity": 108, "pitch": 51, "instrument": 4, "track": 0, "qtime": 37, "isDrum": false}, {"time": 277, "velocity": 108, "pitch": 57, "instrument": 4, "track": 0, "qtime": 37, "isDrum": false}, {"time": 277, "velocity": 108, "pitch": 63, "instrument": 4, "track": 0, "qtime": 37, "isDrum": false}, {"time": 282, "velocity": 0, "pitch": 41, "instrument": 4, "track": 0, "qtime": 42, "isDrum": false}, {"time": 282, "velocity": 0, "pitch": 51, "instrument": 4, "track": 0, "qtime": 42, "isDrum": false}, {"time": 282, "velocity": 0, "pitch": 57, "instrument": 4, "track": 0, "qtime": 42, "isDrum": false}, {"time": 282, "velocity": 0, "pitch": 63, "instrument": 4, "track": 0, "qtime": 42, "isDrum": false}, {"time": 288, "velocity": 108, "pitch": 41, "instrument": 4, "track": 0, "qtime": 0, "isDrum": false}, {"time": 288, "velocity": 108, "pitch": 51, "instrument": 4, "track": 0, "qtime": 0, "isDrum": false}, {"time": 289, "velocity": 108, "pitch": 57, "instrument": 4, "track": 0, "qtime": 1, "isDrum": false}, {"time": 289, "velocity": 108, "pitch": 63, "instrument": 4, "track": 0, "qtime": 1, "isDrum": false}, {"time": 294, "velocity": 0, "pitch": 57, "instrument": 4, "track": 0, "qtime": 6, "isDrum": false}, {"time": 294, "velocity": 0, "pitch": 63, "instrument": 4, "track": 0, "qtime": 6, "isDrum": false}, {"time": 295, "velocity": 0, "pitch": 41, "instrument": 4, "track": 0, "qtime": 7, "isDrum": false}, {"time": 295, "velocity": 0, "pitch": 51, "instrument": 4, "track": 0, "qtime": 7, "isDrum": false}, {"time": 300, "velocity": 108, "pitch": 41, "instrument": 4, "track": 0, "qtime": 12, "isDrum": false}, {"time": 301, "velocity": 108, "pitch": 51, "instrument": 4, "track": 0, "qtime": 13, "isDrum": false}, {"time": 301, "velocity": 108, "pitch": 57, "instrument": 4, "track": 0, "qtime": 13, "isDrum": false}, {"time": 301, "velocity": 108, "pitch": 63, "instrument": 4, "track": 0, "qtime": 13, "isDrum": false}, {"time": 306, "velocity": 0, "pitch": 41, "instrument": 4, "track": 0, "qtime": 18, "isDrum": false}, {"time": 306, "velocity": 0, "pitch": 51, "instrument": 4, "track": 0, "qtime": 18, "isDrum": false}, {"time": 306, "velocity": 0, "pitch": 63, "instrument": 4, "track": 0, "qtime": 18, "isDrum": false}, {"time": 307, "velocity": 0, "pitch": 57, "instrument": 4, "track": 0, "qtime": 19, "isDrum": false}, {"time": 313, "velocity": 108, "pitch": 41, "instrument": 4, "track": 0, "qtime": 25, "isDrum": false}, {"time": 313, "velocity": 108, "pitch": 51, "instrument": 4, "track": 0, "qtime": 25, "isDrum": false}, {"time": 314, "velocity": 108, "pitch": 57, "instrument": 4, "track": 0, "qtime": 26, "isDrum": false}, {"time": 314, "velocity": 108, "pitch": 63, "instrument": 4, "track": 0, "qtime": 26, "isDrum": false}, {"time": 320, "velocity": 0, "pitch": 41, "instrument": 4, "track": 0, "qtime": 32, "isDrum": false}, {"time": 320, "velocity": 0, "pitch": 51, "instrument": 4, "track": 0, "qtime": 32, "isDrum": false}, {"time": 320, "velocity": 0, "pitch": 57, "instrument": 4, "track": 0, "qtime": 32, "isDrum": false}, {"time": 320, "velocity": 0, "pitch": 63, "instrument": 4, "track": 0, "qtime": 32, "isDrum": false}, {"time": 326, "velocity": 108, "pitch": 41, "instrument": 4, "track": 0, "qtime": 38, "isDrum": false}, {"time": 326, "velocity": 108, "pitch": 51, "instrument": 4, "track": 0, "qtime": 38, "isDrum": false}, {"time": 326, "velocity": 108, "pitch": 57, "instrument": 4, "track": 0, "qtime": 38, "isDrum": false}, {"time": 326, "velocity": 108, "pitch": 63, "instrument": 4, "track": 0, "qtime": 38, "isDrum": false}, {"time": 330, "velocity": 0, "pitch": 57, "instrument": 4, "track": 0, "qtime": 42, "isDrum": false}, {"time": 331, "velocity": 0, "pitch": 41, "instrument": 4, "track": 0, "qtime": 43, "isDrum": false}, {"time": 331, "velocity": 0, "pitch": 51, "instrument": 4, "track": 0, "qtime": 43, "isDrum": false}, {"time": 331, "velocity": 0, "pitch": 63, "instrument": 4, "track": 0, "qtime": 43, "isDrum": false}, {"time": 335, "velocity": 108, "pitch": 40, "instrument": 4, "track": 0, "qtime": 47, "isDrum": false}, {"time": 336, "velocity": 108, "pitch": 50, "instrument": 4, "track": 0, "qtime": 0, "isDrum": false}, {"time": 336, "velocity": 108, "pitch": 56, "instrument": 4, "track": 0, "qtime": 0, "isDrum": false}, {"time": 337, "velocity": 108, "pitch": 62, "instrument": 4, "track": 0, "qtime": 1, "isDrum": false}, {"time": 339, "velocity": 0, "pitch": 62, "instrument": 4, "track": 0, "qtime": 3, "isDrum": false}, {"time": 340, "velocity": 108, "pitch": 60, "instrument": 4, "track": 0, "qtime": 4, "isDrum": false}, {"time": 342, "velocity": 0, "pitch": 40, "instrument": 4, "track": 0, "qtime": 6, "isDrum": false}, {"time": 342, "velocity": 0, "pitch": 50, "instrument": 4, "track": 0, "qtime": 6, "isDrum": false}, {"time": 342, "velocity": 0, "pitch": 56, "instrument": 4, "track": 0, "qtime": 6, "isDrum": false}, {"time": 342, "velocity": 0, "pitch": 60, "instrument": 4, "track": 0, "qtime": 6, "isDrum": false}, {"time": 343, "velocity": 108, "pitch": 40, "instrument": 4, "track": 0, "qtime": 7, "isDrum": false}, {"time": 343, "velocity": 108, "pitch": 50, "instrument": 4, "track": 0, "qtime": 7, "isDrum": false}, {"time": 343, "velocity": 108, "pitch": 56, "instrument": 4, "track": 0, "qtime": 7, "isDrum": false}, {"time": 343, "velocity": 108, "pitch": 60, "instrument": 4, "track": 0, "qtime": 7, "isDrum": false}, {"time": 382, "velocity": 0, "pitch": 40, "instrument": 4, "track": 0, "qtime": 46, "isDrum": false}, {"time": 382, "velocity": 0, "pitch": 50, "instrument": 4, "track": 0, "qtime": 46, "isDrum": false}, {"time": 382, "velocity": 0, "pitch": 56, "instrument": 4, "track": 0, "qtime": 46, "isDrum": false}, {"time": 382, "velocity": 0, "pitch": 60, "instrument": 4, "track": 0, "qtime": 46, "isDrum": false}, {"time": 1, "velocity": 108, "pitch": 36, "instrument": 35, "track": 1, "qtime": 1, "isDrum": false}, {"time": 8, "velocity": 0, "pitch": 36, "instrument": 35, "track": 1, "qtime": 8, "isDrum": false}, {"time": 13, "velocity": 108, "pitch": 36, "instrument": 35, "track": 1, "qtime": 13, "isDrum": false}, {"time": 20, "velocity": 0, "pitch": 36, "instrument": 35, "track": 1, "qtime": 20, "isDrum": false}, {"time": 25, "velocity": 108, "pitch": 36, "instrument": 35, "track": 1, "qtime": 25, "isDrum": false}, {"time": 32, "velocity": 0, "pitch": 36, "instrument": 35, "track": 1, "qtime": 32, "isDrum": false}, {"time": 37, "velocity": 108, "pitch": 36, "instrument": 35, "track": 1, "qtime": 37, "isDrum": false}, {"time": 44, "velocity": 0, "pitch": 36, "instrument": 35, "track": 1, "qtime": 44, "isDrum": false}, {"time": 49, "velocity": 108, "pitch": 36, "instrument": 35, "track": 1, "qtime": 1, "isDrum": false}, {"time": 55, "velocity": 0, "pitch": 36, "instrument": 35, "track": 1, "qtime": 7, "isDrum": false}, {"time": 61, "velocity": 108, "pitch": 36, "instrument": 35, "track": 1, "qtime": 13, "isDrum": false}, {"time": 67, "velocity": 0, "pitch": 36, "instrument": 35, "track": 1, "qtime": 19, "isDrum": false}, {"time": 74, "velocity": 108, "pitch": 36, "instrument": 35, "track": 1, "qtime": 26, "isDrum": false}, {"time": 81, "velocity": 0, "pitch": 36, "instrument": 35, "track": 1, "qtime": 33, "isDrum": false}, {"time": 85, "velocity": 108, "pitch": 36, "instrument": 35, "track": 1, "qtime": 37, "isDrum": false}, {"time": 95, "velocity": 0, "pitch": 36, "instrument": 35, "track": 1, "qtime": 47, "isDrum": false}, {"time": 98, "velocity": 108, "pitch": 38, "instrument": 35, "track": 1, "qtime": 2, "isDrum": false}, {"time": 104, "velocity": 0, "pitch": 38, "instrument": 35, "track": 1, "qtime": 8, "isDrum": false}, {"time": 111, "velocity": 108, "pitch": 38, "instrument": 35, "track": 1, "qtime": 15, "isDrum": false}, {"time": 117, "velocity": 0, "pitch": 38, "instrument": 35, "track": 1, "qtime": 21, "isDrum": false}, {"time": 123, "velocity": 108, "pitch": 38, "instrument": 35, "track": 1, "qtime": 27, "isDrum": false}, {"time": 130, "velocity": 0, "pitch": 38, "instrument": 35, "track": 1, "qtime": 34, "isDrum": false}, {"time": 135, "velocity": 108, "pitch": 38, "instrument": 35, "track": 1, "qtime": 39, "isDrum": false}, {"time": 141, "velocity": 0, "pitch": 38, "instrument": 35, "track": 1, "qtime": 45, "isDrum": false}, {"time": 145, "velocity": 108, "pitch": 38, "instrument": 35, "track": 1, "qtime": 1, "isDrum": false}, {"time": 152, "velocity": 0, "pitch": 38, "instrument": 35, "track": 1, "qtime": 8, "isDrum": false}, {"time": 157, "velocity": 108, "pitch": 38, "instrument": 35, "track": 1, "qtime": 13, "isDrum": false}, {"time": 165, "velocity": 0, "pitch": 38, "instrument": 35, "track": 1, "qtime": 21, "isDrum": false}, {"time": 169, "velocity": 108, "pitch": 38, "instrument": 35, "track": 1, "qtime": 25, "isDrum": false}, {"time": 175, "velocity": 0, "pitch": 38, "instrument": 35, "track": 1, "qtime": 31, "isDrum": false}, {"time": 181, "velocity": 108, "pitch": 38, "instrument": 35, "track": 1, "qtime": 37, "isDrum": false}, {"time": 189, "velocity": 0, "pitch": 38, "instrument": 35, "track": 1, "qtime": 45, "isDrum": false}, {"time": 193, "velocity": 108, "pitch": 36, "instrument": 35, "track": 1, "qtime": 1, "isDrum": false}, {"time": 201, "velocity": 0, "pitch": 36, "instrument": 35, "track": 1, "qtime": 9, "isDrum": false}, {"time": 205, "velocity": 108, "pitch": 36, "instrument": 35, "track": 1, "qtime": 13, "isDrum": false}, {"time": 213, "velocity": 0, "pitch": 36, "instrument": 35, "track": 1, "qtime": 21, "isDrum": false}, {"time": 218, "velocity": 108, "pitch": 36, "instrument": 35, "track": 1, "qtime": 26, "isDrum": false}, {"time": 224, "velocity": 0, "pitch": 36, "instrument": 35, "track": 1, "qtime": 32, "isDrum": false}, {"time": 230, "velocity": 108, "pitch": 36, "instrument": 35, "track": 1, "qtime": 38, "isDrum": false}, {"time": 235, "velocity": 0, "pitch": 36, "instrument": 35, "track": 1, "qtime": 43, "isDrum": false}, {"time": 241, "velocity": 108, "pitch": 41, "instrument": 35, "track": 1, "qtime": 1, "isDrum": false}, {"time": 248, "velocity": 0, "pitch": 41, "instrument": 35, "track": 1, "qtime": 8, "isDrum": false}, {"time": 253, "velocity": 108, "pitch": 41, "instrument": 35, "track": 1, "qtime": 13, "isDrum": false}, {"time": 260, "velocity": 0, "pitch": 41, "instrument": 35, "track": 1, "qtime": 20, "isDrum": false}, {"time": 266, "velocity": 108, "pitch": 41, "instrument": 35, "track": 1, "qtime": 26, "isDrum": false}, {"time": 272, "velocity": 0, "pitch": 41, "instrument": 35, "track": 1, "qtime": 32, "isDrum": false}, {"time": 278, "velocity": 108, "pitch": 41, "instrument": 35, "track": 1, "qtime": 38, "isDrum": false}, {"time": 284, "velocity": 0, "pitch": 41, "instrument": 35, "track": 1, "qtime": 44, "isDrum": false}, {"time": 289, "velocity": 108, "pitch": 41, "instrument": 35, "track": 1, "qtime": 1, "isDrum": false}, {"time": 295, "velocity": 0, "pitch": 41, "instrument": 35, "track": 1, "qtime": 7, "isDrum": false}, {"time": 302, "velocity": 108, "pitch": 41, "instrument": 35, "track": 1, "qtime": 14, "isDrum": false}, {"time": 308, "velocity": 0, "pitch": 41, "instrument": 35, "track": 1, "qtime": 20, "isDrum": false}, {"time": 314, "velocity": 108, "pitch": 41, "instrument": 35, "track": 1, "qtime": 26, "isDrum": false}, {"time": 321, "velocity": 0, "pitch": 41, "instrument": 35, "track": 1, "qtime": 33, "isDrum": false}, {"time": 325, "velocity": 108, "pitch": 41, "instrument": 35, "track": 1, "qtime": 37, "isDrum": false}, {"time": 330, "velocity": 0, "pitch": 41, "instrument": 35, "track": 1, "qtime": 42, "isDrum": false}, {"time": 332, "velocity": 108, "pitch": 40, "instrument": 35, "track": 1, "qtime": 44, "isDrum": false}, {"time": 337, "velocity": 0, "pitch": 40, "instrument": 35, "track": 1, "qtime": 1, "isDrum": false}, {"time": 337, "velocity": 108, "pitch": 40, "instrument": 35, "track": 1, "qtime": 1, "isDrum": false}, {"time": 349, "velocity": 0, "pitch": 40, "instrument": 35, "track": 1, "qtime": 13, "isDrum": false}, {"time": 349, "velocity": 108, "pitch": 33, "instrument": 35, "track": 1, "qtime": 13, "isDrum": false}, {"time": 361, "velocity": 0, "pitch": 33, "instrument": 35, "track": 1, "qtime": 25, "isDrum": false}, {"time": 361, "velocity": 108, "pitch": 41, "instrument": 35, "track": 1, "qtime": 25, "isDrum": false}, {"time": 366, "velocity": 0, "pitch": 41, "instrument": 35, "track": 1, "qtime": 30, "isDrum": false}, {"time": 368, "velocity": 108, "pitch": 40, "instrument": 35, "track": 1, "qtime": 32, "isDrum": false}, {"time": 371, "velocity": 0, "pitch": 40, "instrument": 35, "track": 1, "qtime": 35, "isDrum": false}, {"time": 372, "velocity": 108, "pitch": 38, "instrument": 35, "track": 1, "qtime": 36, "isDrum": false}, {"time": 377, "velocity": 0, "pitch": 38, "instrument": 35, "track": 1, "qtime": 41, "isDrum": false}, {"time": 1, "velocity": 108, "pitch": 48, "instrument": 65, "track": 2, "qtime": 1, "isDrum": false}, {"time": 5, "velocity": 0, "pitch": 48, "instrument": 65, "track": 2, "qtime": 5, "isDrum": false}, {"time": 12, "velocity": 108, "pitch": 48, "instrument": 65, "track": 2, "qtime": 12, "isDrum": false}, {"time": 17, "velocity": 0, "pitch": 48, "instrument": 65, "track": 2, "qtime": 17, "isDrum": false}, {"time": 24, "velocity": 108, "pitch": 48, "instrument": 65, "track": 2, "qtime": 24, "isDrum": false}, {"time": 30, "velocity": 0, "pitch": 48, "instrument": 65, "track": 2, "qtime": 30, "isDrum": false}, {"time": 31, "velocity": 108, "pitch": 43, "instrument": 65, "track": 2, "qtime": 31, "isDrum": false}, {"time": 36, "velocity": 0, "pitch": 43, "instrument": 65, "track": 2, "qtime": 36, "isDrum": false}, {"time": 37, "velocity": 108, "pitch": 45, "instrument": 65, "track": 2, "qtime": 37, "isDrum": false}, {"time": 42, "velocity": 0, "pitch": 45, "instrument": 65, "track": 2, "qtime": 42, "isDrum": false}, {"time": 43, "velocity": 108, "pitch": 43, "instrument": 65, "track": 2, "qtime": 43, "isDrum": false}, {"time": 76, "velocity": 0, "pitch": 43, "instrument": 65, "track": 2, "qtime": 28, "isDrum": false}, {"time": 96, "velocity": 108, "pitch": 54, "instrument": 65, "track": 2, "qtime": 0, "isDrum": false}, {"time": 100, "velocity": 0, "pitch": 54, "instrument": 65, "track": 2, "qtime": 4, "isDrum": false}, {"time": 109, "velocity": 108, "pitch": 54, "instrument": 65, "track": 2, "qtime": 13, "isDrum": false}, {"time": 114, "velocity": 0, "pitch": 54, "instrument": 65, "track": 2, "qtime": 18, "isDrum": false}, {"time": 120, "velocity": 108, "pitch": 50, "instrument": 65, "track": 2, "qtime": 24, "isDrum": false}, {"time": 124, "velocity": 0, "pitch": 50, "instrument": 65, "track": 2, "qtime": 28, "isDrum": false}, {"time": 127, "velocity": 108, "pitch": 50, "instrument": 65, "track": 2, "qtime": 31, "isDrum": false}, {"time": 131, "velocity": 0, "pitch": 50, "instrument": 65, "track": 2, "qtime": 35, "isDrum": false}, {"time": 133, "velocity": 108, "pitch": 48, "instrument": 65, "track": 2, "qtime": 37, "isDrum": false}, {"time": 137, "velocity": 0, "pitch": 48, "instrument": 65, "track": 2, "qtime": 41, "isDrum": false}, {"time": 139, "velocity": 108, "pitch": 50, "instrument": 65, "track": 2, "qtime": 43, "isDrum": false}, {"time": 154, "velocity": 0, "pitch": 50, "instrument": 65, "track": 2, "qtime": 10, "isDrum": false}, {"time": 156, "velocity": 108, "pitch": 54, "instrument": 65, "track": 2, "qtime": 12, "isDrum": false}, {"time": 160, "velocity": 0, "pitch": 54, "instrument": 65, "track": 2, "qtime": 16, "isDrum": false}, {"time": 168, "velocity": 108, "pitch": 50, "instrument": 65, "track": 2, "qtime": 24, "isDrum": false}, {"time": 172, "velocity": 0, "pitch": 50, "instrument": 65, "track": 2, "qtime": 28, "isDrum": false}, {"time": 174, "velocity": 108, "pitch": 50, "instrument": 65, "track": 2, "qtime": 30, "isDrum": false}, {"time": 178, "velocity": 0, "pitch": 50, "instrument": 65, "track": 2, "qtime": 34, "isDrum": false}, {"time": 180, "velocity": 108, "pitch": 55, "instrument": 65, "track": 2, "qtime": 36, "isDrum": false}, {"time": 184, "velocity": 0, "pitch": 55, "instrument": 65, "track": 2, "qtime": 40, "isDrum": false}, {"time": 186, "velocity": 108, "pitch": 53, "instrument": 65, "track": 2, "qtime": 42, "isDrum": false}, {"time": 211, "velocity": 0, "pitch": 53, "instrument": 65, "track": 2, "qtime": 19, "isDrum": false}, {"time": 211, "velocity": 108, "pitch": 50, "instrument": 65, "track": 2, "qtime": 19, "isDrum": false}, {"time": 236, "velocity": 0, "pitch": 50, "instrument": 65, "track": 2, "qtime": 44, "isDrum": false}, {"time": 242, "velocity": 108, "pitch": 45, "instrument": 65, "track": 2, "qtime": 2, "isDrum": false}, {"time": 246, "velocity": 0, "pitch": 45, "instrument": 65, "track": 2, "qtime": 6, "isDrum": false}, {"time": 253, "velocity": 108, "pitch": 45, "instrument": 65, "track": 2, "qtime": 13, "isDrum": false}, {"time": 257, "velocity": 0, "pitch": 45, "instrument": 65, "track": 2, "qtime": 17, "isDrum": false}, {"time": 264, "velocity": 108, "pitch": 45, "instrument": 65, "track": 2, "qtime": 24, "isDrum": false}, {"time": 268, "velocity": 0, "pitch": 45, "instrument": 65, "track": 2, "qtime": 28, "isDrum": false}, {"time": 276, "velocity": 108, "pitch": 45, "instrument": 65, "track": 2, "qtime": 36, "isDrum": false}, {"time": 283, "velocity": 0, "pitch": 45, "instrument": 65, "track": 2, "qtime": 43, "isDrum": false}, {"time": 289, "velocity": 108, "pitch": 45, "instrument": 65, "track": 2, "qtime": 1, "isDrum": false}, {"time": 295, "velocity": 0, "pitch": 45, "instrument": 65, "track": 2, "qtime": 7, "isDrum": false}, {"time": 300, "velocity": 108, "pitch": 45, "instrument": 65, "track": 2, "qtime": 12, "isDrum": false}, {"time": 304, "velocity": 0, "pitch": 45, "instrument": 65, "track": 2, "qtime": 16, "isDrum": false}, {"time": 306, "velocity": 108, "pitch": 45, "instrument": 65, "track": 2, "qtime": 18, "isDrum": false}, {"time": 310, "velocity": 0, "pitch": 45, "instrument": 65, "track": 2, "qtime": 22, "isDrum": false}, {"time": 313, "velocity": 108, "pitch": 45, "instrument": 65, "track": 2, "qtime": 25, "isDrum": false}, {"time": 318, "velocity": 0, "pitch": 45, "instrument": 65, "track": 2, "qtime": 30, "isDrum": false}, {"time": 324, "velocity": 108, "pitch": 45, "instrument": 65, "track": 2, "qtime": 36, "isDrum": false}, {"time": 333, "velocity": 0, "pitch": 45, "instrument": 65, "track": 2, "qtime": 45, "isDrum": false}, {"time": 337, "velocity": 108, "pitch": 47, "instrument": 65, "track": 2, "qtime": 1, "isDrum": false}, {"time": 349, "velocity": 0, "pitch": 47, "instrument": 65, "track": 2, "qtime": 13, "isDrum": false}, {"time": 349, "velocity": 108, "pitch": 45, "instrument": 65, "track": 2, "qtime": 13, "isDrum": false}, {"time": 360, "velocity": 0, "pitch": 45, "instrument": 65, "track": 2, "qtime": 24, "isDrum": false}, {"time": 361, "velocity": 108, "pitch": 50, "instrument": 65, "track": 2, "qtime": 25, "isDrum": false}, {"time": 363, "velocity": 108, "pitch": 48, "instrument": 65, "track": 2, "qtime": 27, "isDrum": false}, {"time": 366, "velocity": 0, "pitch": 50, "instrument": 65, "track": 2, "qtime": 30, "isDrum": false}, {"time": 368, "velocity": 0, "pitch": 48, "instrument": 65, "track": 2, "qtime": 32, "isDrum": false}, {"time": 368, "velocity": 108, "pitch": 47, "instrument": 65, "track": 2, "qtime": 32, "isDrum": false}, {"time": 377, "velocity": 0, "pitch": 47, "instrument": 65, "track": 2, "qtime": 41, "isDrum": false}, {"time": 0, "velocity": 108, "pitch": 36, "instrument": 0, "track": 9, "qtime": 0, "isDrum": true}, {"time": 0, "velocity": 108, "pitch": 44, "instrument": 0, "track": 9, "qtime": 0, "isDrum": true}, {"time": 4, "velocity": 0, "pitch": 36, "instrument": 0, "track": 9, "qtime": 4, "isDrum": true}, {"time": 4, "velocity": 0, "pitch": 44, "instrument": 0, "track": 9, "qtime": 4, "isDrum": true}, {"time": 12, "velocity": 108, "pitch": 36, "instrument": 0, "track": 9, "qtime": 12, "isDrum": true}, {"time": 12, "velocity": 108, "pitch": 38, "instrument": 0, "track": 9, "qtime": 12, "isDrum": true}, {"time": 12, "velocity": 108, "pitch": 44, "instrument": 0, "track": 9, "qtime": 12, "isDrum": true}, {"time": 16, "velocity": 0, "pitch": 36, "instrument": 0, "track": 9, "qtime": 16, "isDrum": true}, {"time": 16, "velocity": 0, "pitch": 38, "instrument": 0, "track": 9, "qtime": 16, "isDrum": true}, {"time": 16, "velocity": 0, "pitch": 44, "instrument": 0, "track": 9, "qtime": 16, "isDrum": true}, {"time": 24, "velocity": 108, "pitch": 36, "instrument": 0, "track": 9, "qtime": 24, "isDrum": true}, {"time": 24, "velocity": 108, "pitch": 44, "instrument": 0, "track": 9, "qtime": 24, "isDrum": true}, {"time": 28, "velocity": 0, "pitch": 36, "instrument": 0, "track": 9, "qtime": 28, "isDrum": true}, {"time": 28, "velocity": 0, "pitch": 44, "instrument": 0, "track": 9, "qtime": 28, "isDrum": true}, {"time": 36, "velocity": 108, "pitch": 36, "instrument": 0, "track": 9, "qtime": 36, "isDrum": true}, {"time": 36, "velocity": 108, "pitch": 38, "instrument": 0, "track": 9, "qtime": 36, "isDrum": true}, {"time": 36, "velocity": 108, "pitch": 44, "instrument": 0, "track": 9, "qtime": 36, "isDrum": true}, {"time": 39, "velocity": 0, "pitch": 36, "instrument": 0, "track": 9, "qtime": 39, "isDrum": true}, {"time": 40, "velocity": 0, "pitch": 38, "instrument": 0, "track": 9, "qtime": 40, "isDrum": true}, {"time": 40, "velocity": 0, "pitch": 44, "instrument": 0, "track": 9, "qtime": 40, "isDrum": true}, {"time": 42, "velocity": 108, "pitch": 46, "instrument": 0, "track": 9, "qtime": 42, "isDrum": true}, {"time": 47, "velocity": 0, "pitch": 46, "instrument": 0, "track": 9, "qtime": 47, "isDrum": true}, {"time": 48, "velocity": 108, "pitch": 36, "instrument": 0, "track": 9, "qtime": 0, "isDrum": true}, {"time": 48, "velocity": 108, "pitch": 44, "instrument": 0, "track": 9, "qtime": 0, "isDrum": true}, {"time": 52, "velocity": 0, "pitch": 36, "instrument": 0, "track": 9, "qtime": 4, "isDrum": true}, {"time": 52, "velocity": 0, "pitch": 44, "instrument": 0, "track": 9, "qtime": 4, "isDrum": true}, {"time": 60, "velocity": 108, "pitch": 36, "instrument": 0, "track": 9, "qtime": 12, "isDrum": true}, {"time": 60, "velocity": 108, "pitch": 38, "instrument": 0, "track": 9, "qtime": 12, "isDrum": true}, {"time": 60, "velocity": 108, "pitch": 44, "instrument": 0, "track": 9, "qtime": 12, "isDrum": true}, {"time": 64, "velocity": 0, "pitch": 36, "instrument": 0, "track": 9, "qtime": 16, "isDrum": true}, {"time": 64, "velocity": 0, "pitch": 38, "instrument": 0, "track": 9, "qtime": 16, "isDrum": true}, {"time": 64, "velocity": 0, "pitch": 44, "instrument": 0, "track": 9, "qtime": 16, "isDrum": true}, {"time": 72, "velocity": 108, "pitch": 36, "instrument": 0, "track": 9, "qtime": 24, "isDrum": true}, {"time": 72, "velocity": 108, "pitch": 44, "instrument": 0, "track": 9, "qtime": 24, "isDrum": true}, {"time": 76, "velocity": 0, "pitch": 36, "instrument": 0, "track": 9, "qtime": 28, "isDrum": true}, {"time": 76, "velocity": 0, "pitch": 44, "instrument": 0, "track": 9, "qtime": 28, "isDrum": true}, {"time": 84, "velocity": 108, "pitch": 38, "instrument": 0, "track": 9, "qtime": 36, "isDrum": true}, {"time": 84, "velocity": 108, "pitch": 44, "instrument": 0, "track": 9, "qtime": 36, "isDrum": true}, {"time": 85, "velocity": 108, "pitch": 38, "instrument": 0, "track": 9, "qtime": 37, "isDrum": true}, {"time": 85, "velocity": 108, "pitch": 44, "instrument": 0, "track": 9, "qtime": 37, "isDrum": true}, {"time": 86, "velocity": 108, "pitch": 50, "instrument": 0, "track": 9, "qtime": 38, "isDrum": true}, {"time": 87, "velocity": 0, "pitch": 38, "instrument": 0, "track": 9, "qtime": 39, "isDrum": true}, {"time": 87, "velocity": 0, "pitch": 44, "instrument": 0, "track": 9, "qtime": 39, "isDrum": true}, {"time": 87, "velocity": 0, "pitch": 50, "instrument": 0, "track": 9, "qtime": 39, "isDrum": true}, {"time": 88, "velocity": 0, "pitch": 38, "instrument": 0, "track": 9, "qtime": 40, "isDrum": true}, {"time": 89, "velocity": 0, "pitch": 44, "instrument": 0, "track": 9, "qtime": 41, "isDrum": true}, {"time": 90, "velocity": 108, "pitch": 38, "instrument": 0, "track": 9, "qtime": 42, "isDrum": true}, {"time": 93, "velocity": 0, "pitch": 38, "instrument": 0, "track": 9, "qtime": 45, "isDrum": true}, {"time": 96, "velocity": 108, "pitch": 44, "instrument": 0, "track": 9, "qtime": 0, "isDrum": true}, {"time": 100, "velocity": 0, "pitch": 44, "instrument": 0, "track": 9, "qtime": 4, "isDrum": true}, {"time": 108, "velocity": 108, "pitch": 36, "instrument": 0, "track": 9, "qtime": 12, "isDrum": true}, {"time": 108, "velocity": 108, "pitch": 38, "instrument": 0, "track": 9, "qtime": 12, "isDrum": true}, {"time": 108, "velocity": 108, "pitch": 39, "instrument": 0, "track": 9, "qtime": 12, "isDrum": true}, {"time": 108, "velocity": 108, "pitch": 44, "instrument": 0, "track": 9, "qtime": 12, "isDrum": true}, {"time": 112, "velocity": 0, "pitch": 36, "instrument": 0, "track": 9, "qtime": 16, "isDrum": true}, {"time": 112, "velocity": 0, "pitch": 38, "instrument": 0, "track": 9, "qtime": 16, "isDrum": true}, {"time": 112, "velocity": 0, "pitch": 39, "instrument": 0, "track": 9, "qtime": 16, "isDrum": true}, {"time": 112, "velocity": 0, "pitch": 44, "instrument": 0, "track": 9, "qtime": 16, "isDrum": true}, {"time": 120, "velocity": 108, "pitch": 36, "instrument": 0, "track": 9, "qtime": 24, "isDrum": true}, {"time": 120, "velocity": 108, "pitch": 44, "instrument": 0, "track": 9, "qtime": 24, "isDrum": true}, {"time": 124, "velocity": 0, "pitch": 36, "instrument": 0, "track": 9, "qtime": 28, "isDrum": true}, {"time": 124, "velocity": 0, "pitch": 44, "instrument": 0, "track": 9, "qtime": 28, "isDrum": true}, {"time": 132, "velocity": 108, "pitch": 36, "instrument": 0, "track": 9, "qtime": 36, "isDrum": true}, {"time": 132, "velocity": 108, "pitch": 38, "instrument": 0, "track": 9, "qtime": 36, "isDrum": true}, {"time": 132, "velocity": 108, "pitch": 39, "instrument": 0, "track": 9, "qtime": 36, "isDrum": true}, {"time": 133, "velocity": 108, "pitch": 44, "instrument": 0, "track": 9, "qtime": 37, "isDrum": true}, {"time": 136, "velocity": 0, "pitch": 36, "instrument": 0, "track": 9, "qtime": 40, "isDrum": true}, {"time": 136, "velocity": 0, "pitch": 38, "instrument": 0, "track": 9, "qtime": 40, "isDrum": true}, {"time": 136, "velocity": 0, "pitch": 39, "instrument": 0, "track": 9, "qtime": 40, "isDrum": true}, {"time": 136, "velocity": 0, "pitch": 44, "instrument": 0, "track": 9, "qtime": 40, "isDrum": true}, {"time": 138, "velocity": 108, "pitch": 46, "instrument": 0, "track": 9, "qtime": 42, "isDrum": true}, {"time": 144, "velocity": 0, "pitch": 46, "instrument": 0, "track": 9, "qtime": 48, "isDrum": true}, {"time": 144, "velocity": 108, "pitch": 36, "instrument": 0, "track": 9, "qtime": 0, "isDrum": true}, {"time": 144, "velocity": 108, "pitch": 38, "instrument": 0, "track": 9, "qtime": 0, "isDrum": true}, {"time": 144, "velocity": 108, "pitch": 44, "instrument": 0, "track": 9, "qtime": 0, "isDrum": true}, {"time": 148, "velocity": 0, "pitch": 36, "instrument": 0, "track": 9, "qtime": 4, "isDrum": true}, {"time": 148, "velocity": 0, "pitch": 44, "instrument": 0, "track": 9, "qtime": 4, "isDrum": true}, {"time": 156, "velocity": 0, "pitch": 38, "instrument": 0, "track": 9, "qtime": 12, "isDrum": true}, {"time": 156, "velocity": 108, "pitch": 36, "instrument": 0, "track": 9, "qtime": 12, "isDrum": true}, {"time": 156, "velocity": 108, "pitch": 38, "instrument": 0, "track": 9, "qtime": 12, "isDrum": true}, {"time": 156, "velocity": 108, "pitch": 39, "instrument": 0, "track": 9, "qtime": 12, "isDrum": true}, {"time": 157, "velocity": 108, "pitch": 44, "instrument": 0, "track": 9, "qtime": 13, "isDrum": true}, {"time": 160, "velocity": 0, "pitch": 36, "instrument": 0, "track": 9, "qtime": 16, "isDrum": true}, {"time": 160, "velocity": 0, "pitch": 39, "instrument": 0, "track": 9, "qtime": 16, "isDrum": true}, {"time": 160, "velocity": 0, "pitch": 44, "instrument": 0, "track": 9, "qtime": 16, "isDrum": true}, {"time": 164, "velocity": 0, "pitch": 38, "instrument": 0, "track": 9, "qtime": 20, "isDrum": true}, {"time": 168, "velocity": 108, "pitch": 36, "instrument": 0, "track": 9, "qtime": 24, "isDrum": true}, {"time": 168, "velocity": 108, "pitch": 44, "instrument": 0, "track": 9, "qtime": 24, "isDrum": true}, {"time": 172, "velocity": 0, "pitch": 36, "instrument": 0, "track": 9, "qtime": 28, "isDrum": true}, {"time": 172, "velocity": 0, "pitch": 44, "instrument": 0, "track": 9, "qtime": 28, "isDrum": true}, {"time": 180, "velocity": 108, "pitch": 36, "instrument": 0, "track": 9, "qtime": 36, "isDrum": true}, {"time": 180, "velocity": 108, "pitch": 38, "instrument": 0, "track": 9, "qtime": 36, "isDrum": true}, {"time": 180, "velocity": 108, "pitch": 39, "instrument": 0, "track": 9, "qtime": 36, "isDrum": true}, {"time": 181, "velocity": 108, "pitch": 44, "instrument": 0, "track": 9, "qtime": 37, "isDrum": true}, {"time": 184, "velocity": 0, "pitch": 36, "instrument": 0, "track": 9, "qtime": 40, "isDrum": true}, {"time": 184, "velocity": 0, "pitch": 38, "instrument": 0, "track": 9, "qtime": 40, "isDrum": true}, {"time": 184, "velocity": 0, "pitch": 39, "instrument": 0, "track": 9, "qtime": 40, "isDrum": true}, {"time": 184, "velocity": 0, "pitch": 44, "instrument": 0, "track": 9, "qtime": 40, "isDrum": true}, {"time": 186, "velocity": 108, "pitch": 46, "instrument": 0, "track": 9, "qtime": 42, "isDrum": true}, {"time": 191, "velocity": 0, "pitch": 46, "instrument": 0, "track": 9, "qtime": 47, "isDrum": true}, {"time": 192, "velocity": 108, "pitch": 36, "instrument": 0, "track": 9, "qtime": 0, "isDrum": true}, {"time": 192, "velocity": 108, "pitch": 44, "instrument": 0, "track": 9, "qtime": 0, "isDrum": true}, {"time": 196, "velocity": 0, "pitch": 36, "instrument": 0, "track": 9, "qtime": 4, "isDrum": true}, {"time": 196, "velocity": 0, "pitch": 44, "instrument": 0, "track": 9, "qtime": 4, "isDrum": true}, {"time": 204, "velocity": 108, "pitch": 36, "instrument": 0, "track": 9, "qtime": 12, "isDrum": true}, {"time": 204, "velocity": 108, "pitch": 38, "instrument": 0, "track": 9, "qtime": 12, "isDrum": true}, {"time": 204, "velocity": 108, "pitch": 39, "instrument": 0, "track": 9, "qtime": 12, "isDrum": true}, {"time": 205, "velocity": 108, "pitch": 44, "instrument": 0, "track": 9, "qtime": 13, "isDrum": true}, {"time": 208, "velocity": 0, "pitch": 36, "instrument": 0, "track": 9, "qtime": 16, "isDrum": true}, {"time": 208, "velocity": 0, "pitch": 38, "instrument": 0, "track": 9, "qtime": 16, "isDrum": true}, {"time": 208, "velocity": 0, "pitch": 39, "instrument": 0, "track": 9, "qtime": 16, "isDrum": true}, {"time": 208, "velocity": 0, "pitch": 44, "instrument": 0, "track": 9, "qtime": 16, "isDrum": true}, {"time": 216, "velocity": 108, "pitch": 36, "instrument": 0, "track": 9, "qtime": 24, "isDrum": true}, {"time": 216, "velocity": 108, "pitch": 44, "instrument": 0, "track": 9, "qtime": 24, "isDrum": true}, {"time": 220, "velocity": 0, "pitch": 36, "instrument": 0, "track": 9, "qtime": 28, "isDrum": true}, {"time": 220, "velocity": 0, "pitch": 44, "instrument": 0, "track": 9, "qtime": 28, "isDrum": true}, {"time": 228, "velocity": 108, "pitch": 36, "instrument": 0, "track": 9, "qtime": 36, "isDrum": true}, {"time": 228, "velocity": 108, "pitch": 38, "instrument": 0, "track": 9, "qtime": 36, "isDrum": true}, {"time": 228, "velocity": 108, "pitch": 39, "instrument": 0, "track": 9, "qtime": 36, "isDrum": true}, {"time": 229, "velocity": 108, "pitch": 44, "instrument": 0, "track": 9, "qtime": 37, "isDrum": true}, {"time": 232, "velocity": 0, "pitch": 36, "instrument": 0, "track": 9, "qtime": 40, "isDrum": true}, {"time": 232, "velocity": 0, "pitch": 38, "instrument": 0, "track": 9, "qtime": 40, "isDrum": true}, {"time": 232, "velocity": 0, "pitch": 39, "instrument": 0, "track": 9, "qtime": 40, "isDrum": true}, {"time": 232, "velocity": 0, "pitch": 44, "instrument": 0, "track": 9, "qtime": 40, "isDrum": true}, {"time": 234, "velocity": 108, "pitch": 46, "instrument": 0, "track": 9, "qtime": 42, "isDrum": true}, {"time": 240, "velocity": 0, "pitch": 46, "instrument": 0, "track": 9, "qtime": 48, "isDrum": true}, {"time": 240, "velocity": 108, "pitch": 36, "instrument": 0, "track": 9, "qtime": 0, "isDrum": true}, {"time": 240, "velocity": 108, "pitch": 44, "instrument": 0, "track": 9, "qtime": 0, "isDrum": true}, {"time": 244, "velocity": 0, "pitch": 36, "instrument": 0, "track": 9, "qtime": 4, "isDrum": true}, {"time": 244, "velocity": 0, "pitch": 44, "instrument": 0, "track": 9, "qtime": 4, "isDrum": true}, {"time": 252, "velocity": 108, "pitch": 36, "instrument": 0, "track": 9, "qtime": 12, "isDrum": true}, {"time": 252, "velocity": 108, "pitch": 38, "instrument": 0, "track": 9, "qtime": 12, "isDrum": true}, {"time": 252, "velocity": 108, "pitch": 39, "instrument": 0, "track": 9, "qtime": 12, "isDrum": true}, {"time": 253, "velocity": 108, "pitch": 44, "instrument": 0, "track": 9, "qtime": 13, "isDrum": true}, {"time": 256, "velocity": 0, "pitch": 36, "instrument": 0, "track": 9, "qtime": 16, "isDrum": true}, {"time": 256, "velocity": 0, "pitch": 38, "instrument": 0, "track": 9, "qtime": 16, "isDrum": true}, {"time": 256, "velocity": 0, "pitch": 39, "instrument": 0, "track": 9, "qtime": 16, "isDrum": true}, {"time": 256, "velocity": 0, "pitch": 44, "instrument": 0, "track": 9, "qtime": 16, "isDrum": true}, {"time": 264, "velocity": 108, "pitch": 36, "instrument": 0, "track": 9, "qtime": 24, "isDrum": true}, {"time": 264, "velocity": 108, "pitch": 44, "instrument": 0, "track": 9, "qtime": 24, "isDrum": true}, {"time": 267, "velocity": 0, "pitch": 36, "instrument": 0, "track": 9, "qtime": 27, "isDrum": true}, {"time": 268, "velocity": 0, "pitch": 44, "instrument": 0, "track": 9, "qtime": 28, "isDrum": true}, {"time": 276, "velocity": 108, "pitch": 36, "instrument": 0, "track": 9, "qtime": 36, "isDrum": true}, {"time": 276, "velocity": 108, "pitch": 38, "instrument": 0, "track": 9, "qtime": 36, "isDrum": true}, {"time": 276, "velocity": 108, "pitch": 39, "instrument": 0, "track": 9, "qtime": 36, "isDrum": true}, {"time": 277, "velocity": 108, "pitch": 44, "instrument": 0, "track": 9, "qtime": 37, "isDrum": true}, {"time": 280, "velocity": 0, "pitch": 36, "instrument": 0, "track": 9, "qtime": 40, "isDrum": true}, {"time": 280, "velocity": 0, "pitch": 38, "instrument": 0, "track": 9, "qtime": 40, "isDrum": true}, {"time": 280, "velocity": 0, "pitch": 39, "instrument": 0, "track": 9, "qtime": 40, "isDrum": true}, {"time": 280, "velocity": 0, "pitch": 44, "instrument": 0, "track": 9, "qtime": 40, "isDrum": true}, {"time": 282, "velocity": 108, "pitch": 46, "instrument": 0, "track": 9, "qtime": 42, "isDrum": true}, {"time": 288, "velocity": 0, "pitch": 46, "instrument": 0, "track": 9, "qtime": 48, "isDrum": true}, {"time": 289, "velocity": 108, "pitch": 44, "instrument": 0, "track": 9, "qtime": 1, "isDrum": true}, {"time": 292, "velocity": 0, "pitch": 44, "instrument": 0, "track": 9, "qtime": 4, "isDrum": true}, {"time": 301, "velocity": 108, "pitch": 36, "instrument": 0, "track": 9, "qtime": 13, "isDrum": true}, {"time": 301, "velocity": 108, "pitch": 38, "instrument": 0, "track": 9, "qtime": 13, "isDrum": true}, {"time": 301, "velocity": 108, "pitch": 39, "instrument": 0, "track": 9, "qtime": 13, "isDrum": true}, {"time": 302, "velocity": 108, "pitch": 44, "instrument": 0, "track": 9, "qtime": 14, "isDrum": true}, {"time": 305, "velocity": 0, "pitch": 36, "instrument": 0, "track": 9, "qtime": 17, "isDrum": true}, {"time": 305, "velocity": 0, "pitch": 38, "instrument": 0, "track": 9, "qtime": 17, "isDrum": true}, {"time": 305, "velocity": 0, "pitch": 39, "instrument": 0, "track": 9, "qtime": 17, "isDrum": true}, {"time": 305, "velocity": 0, "pitch": 44, "instrument": 0, "track": 9, "qtime": 17, "isDrum": true}, {"time": 313, "velocity": 108, "pitch": 36, "instrument": 0, "track": 9, "qtime": 25, "isDrum": true}, {"time": 313, "velocity": 108, "pitch": 44, "instrument": 0, "track": 9, "qtime": 25, "isDrum": true}, {"time": 316, "velocity": 0, "pitch": 44, "instrument": 0, "track": 9, "qtime": 28, "isDrum": true}, {"time": 317, "velocity": 0, "pitch": 36, "instrument": 0, "track": 9, "qtime": 29, "isDrum": true}, {"time": 325, "velocity": 108, "pitch": 36, "instrument": 0, "track": 9, "qtime": 37, "isDrum": true}, {"time": 325, "velocity": 108, "pitch": 38, "instrument": 0, "track": 9, "qtime": 37, "isDrum": true}, {"time": 325, "velocity": 108, "pitch": 39, "instrument": 0, "track": 9, "qtime": 37, "isDrum": true}, {"time": 326, "velocity": 108, "pitch": 44, "instrument": 0, "track": 9, "qtime": 38, "isDrum": true}, {"time": 329, "velocity": 0, "pitch": 36, "instrument": 0, "track": 9, "qtime": 41, "isDrum": true}, {"time": 329, "velocity": 0, "pitch": 38, "instrument": 0, "track": 9, "qtime": 41, "isDrum": true}, {"time": 329, "velocity": 0, "pitch": 39, "instrument": 0, "track": 9, "qtime": 41, "isDrum": true}, {"time": 329, "velocity": 0, "pitch": 44, "instrument": 0, "track": 9, "qtime": 41, "isDrum": true}, {"time": 331, "velocity": 108, "pitch": 46, "instrument": 0, "track": 9, "qtime": 43, "isDrum": true}, {"time": 337, "velocity": 0, "pitch": 46, "instrument": 0, "track": 9, "qtime": 49, "isDrum": true}, {"time": 336, "velocity": 108, "pitch": 36, "instrument": 0, "track": 9, "qtime": 0, "isDrum": true}, {"time": 336, "velocity": 108, "pitch": 48, "instrument": 0, "track": 9, "qtime": 0, "isDrum": true}, {"time": 337, "velocity": 108, "pitch": 44, "instrument": 0, "track": 9, "qtime": 1, "isDrum": true}, {"time": 340, "velocity": 0, "pitch": 36, "instrument": 0, "track": 9, "qtime": 4, "isDrum": true}, {"time": 340, "velocity": 0, "pitch": 44, "instrument": 0, "track": 9, "qtime": 4, "isDrum": true}, {"time": 345, "velocity": 0, "pitch": 48, "instrument": 0, "track": 9, "qtime": 9, "isDrum": true}, {"time": 349, "velocity": 108, "pitch": 36, "instrument": 0, "track": 9, "qtime": 13, "isDrum": true}, {"time": 349, "velocity": 108, "pitch": 44, "instrument": 0, "track": 9, "qtime": 13, "isDrum": true}, {"time": 352, "velocity": 0, "pitch": 36, "instrument": 0, "track": 9, "qtime": 16, "isDrum": true}, {"time": 353, "velocity": 0, "pitch": 44, "instrument": 0, "track": 9, "qtime": 17, "isDrum": true}, {"time": 354, "velocity": 108, "pitch": 46, "instrument": 0, "track": 9, "qtime": 18, "isDrum": true}, {"time": 360, "velocity": 0, "pitch": 46, "instrument": 0, "track": 9, "qtime": 24, "isDrum": true}, {"time": 360, "velocity": 108, "pitch": 36, "instrument": 0, "track": 9, "qtime": 24, "isDrum": true}, {"time": 361, "velocity": 108, "pitch": 44, "instrument": 0, "track": 9, "qtime": 25, "isDrum": true}, {"time": 364, "velocity": 0, "pitch": 36, "instrument": 0, "track": 9, "qtime": 28, "isDrum": true}, {"time": 364, "velocity": 0, "pitch": 44, "instrument": 0, "track": 9, "qtime": 28, "isDrum": true}, {"time": 372, "velocity": 108, "pitch": 38, "instrument": 0, "track": 9, "qtime": 36, "isDrum": true}, {"time": 372, "velocity": 108, "pitch": 44, "instrument": 0, "track": 9, "qtime": 36, "isDrum": true}, {"time": 373, "velocity": 108, "pitch": 39, "instrument": 0, "track": 9, "qtime": 37, "isDrum": true}, {"time": 376, "velocity": 0, "pitch": 38, "instrument": 0, "track": 9, "qtime": 40, "isDrum": true}, {"time": 376, "velocity": 0, "pitch": 39, "instrument": 0, "track": 9, "qtime": 40, "isDrum": true}, {"time": 376, "velocity": 0, "pitch": 44, "instrument": 0, "track": 9, "qtime": 40, "isDrum": true}], "resolution": 12, "tempo": 120, "minPitch": 33, "maxPitch": 63, "validSegments": [0], "validTracks": [15]}, "audio": "https://www.sfu.ca/~jeffe/examples/8b_uncond_2.mp3"}, {"src": "gen/uncond_5.json", "highlights": [[], [], [], [], [], [], [], []], "caption": "", "sample_id": "11a", "mixer": [8, 8, 8, 8, 8, 8, 8, 8], "json": {"tracks": [{"bars": [{"events": [0, 1, 2, 3, 4, 5, 6, 7, 8, 9, 10, 11, 12, 13, 14, 15, 16, 17, 18, 19], "isFourFour": true, "hasNotes": true, "time": 0}, {"events": [20, 21, 22, 23, 24, 25, 26, 27, 28, 29, 30, 31, 32, 33, 34, 35, 36, 37, 38, 39], "isFourFour": true, "hasNotes": true, "time": 48}, {"events": [40, 41, 42, 43, 44, 45, 46, 47, 48, 49, 50, 51, 52, 53, 54, 55, 56, 57], "isFourFour": true, "hasNotes": true, "time": 96}, {"events": [58, 59, 60, 61, 62, 63, 64, 65, 66, 67, 68, 69, 70, 71, 72, 73, 74, 75, 76, 77], "isFourFour": true, "hasNotes": true, "time": 144}], "isDrum": false, "minPitch": 36, "maxPitch": 49, "instrument": 33, "avPolyphony": 1, "noteDensity": 9, "noteDensityV2": 9}, {"bars": [{"events": [78, 79, 80, 81, 82, 83, 84, 85, 86, 87, 88, 89, 90, 91, 92, 93, 94, 95, 96, 97, 98, 99, 100, 101, 102, 103, 104, 105], "isFourFour": true, "hasNotes": true, "time": 0}, {"events": [106, 107, 108, 109, 110, 111, 112, 113, 114, 115, 116, 117, 118, 119, 120, 121, 122, 123, 124, 125, 126, 127, 128, 129, 130, 131, 132, 133], "isFourFour": true, "hasNotes": true, "time": 48}, {"events": [134, 135, 136, 137, 138, 139, 140, 141, 142, 143, 144, 145, 146, 147, 148, 149, 150, 151, 152, 153, 154, 155, 156, 157, 158, 159, 160, 161], "isFourFour": true, "hasNotes": true, "time": 96}, {"events": [162, 163, 164, 165, 166, 167, 168, 169, 170, 171, 172, 173, 174, 175, 176, 177, 178, 179, 180, 181, 182, 183, 184, 185, 186, 187, 188, 189], "isFourFour": true, "hasNotes": true, "time": 144}], "isDrum": true, "minPitch": 36, "maxPitch": 42, "instrument": 0, "avPolyphony": 1.875, "noteDensity": 9, "noteDensityV2": 6}, {"bars": [{"events": [190, 191, 192, 193, 194, 195, 196, 197, 198, 199, 200, 201, 202, 203, 204, 205, 206, 207, 208, 209, 210, 211, 212, 213, 214, 215, 216, 217, 218, 219, 220, 221, 222, 223, 224, 225], "isFourFour": true, "hasNotes": true, "time": 0}, {"events": [226, 227, 228, 229, 230, 231, 232, 233, 234, 235, 236, 237, 238, 239, 240, 241, 242, 243, 244, 245, 246, 247, 248, 249, 250, 251, 252, 253, 254, 255, 256, 257, 258, 259, 260, 261], "isFourFour": true, "hasNotes": true, "time": 48}, {"events": [262, 263, 264, 265, 266, 267, 268, 269, 270, 271, 272, 273, 274, 275, 276, 277, 278, 279, 280, 281, 282, 283, 284, 285, 286, 287, 288, 289, 290, 291, 292, 293, 294, 295, 296, 297, 298, 299, 300, 301], "isFourFour": true, "hasNotes": true, "time": 96}, {"events": [302, 303, 304, 305, 306, 307, 308, 309, 310, 311, 312, 313, 314, 315, 316, 317, 318, 319, 320, 321, 322, 323, 324, 325, 326, 327, 328, 329, 330, 331, 332, 333, 334, 335, 336, 337], "isFourFour": true, "hasNotes": true, "time": 144}], "isDrum": false, "minPitch": 60, "maxPitch": 73, "instrument": 30, "avPolyphony": 2.56896544, "noteDensity": 9, "noteDensityV2": 8}], "events": [{"time": 0, "velocity": 108, "pitch": 37, "instrument": 33, "track": 0, "qtime": 0, "isDrum": false}, {"time": 6, "velocity": 0, "pitch": 37, "instrument": 33, "track": 0, "qtime": 6, "isDrum": false}, {"time": 9, "velocity": 108, "pitch": 44, "instrument": 33, "track": 0, "qtime": 9, "isDrum": false}, {"time": 11, "velocity": 0, "pitch": 44, "instrument": 33, "track": 0, "qtime": 11, "isDrum": false}, {"time": 12, "velocity": 108, "pitch": 49, "instrument": 33, "track": 0, "qtime": 12, "isDrum": false}, {"time": 14, "velocity": 0, "pitch": 49, "instrument": 33, "track": 0, "qtime": 14, "isDrum": false}, {"time": 15, "velocity": 108, "pitch": 44, "instrument": 33, "track": 0, "qtime": 15, "isDrum": false}, {"time": 17, "velocity": 0, "pitch": 44, "instrument": 33, "track": 0, "qtime": 17, "isDrum": false}, {"time": 18, "velocity": 108, "pitch": 37, "instrument": 33, "track": 0, "qtime": 18, "isDrum": false}, {"time": 22, "velocity": 0, "pitch": 37, "instrument": 33, "track": 0, "qtime": 22, "isDrum": false}, {"time": 24, "velocity": 108, "pitch": 44, "instrument": 33, "track": 0, "qtime": 24, "isDrum": false}, {"time": 28, "velocity": 0, "pitch": 44, "instrument": 33, "track": 0, "qtime": 28, "isDrum": false}, {"time": 30, "velocity": 108, "pitch": 37, "instrument": 33, "track": 0, "qtime": 30, "isDrum": false}, {"time": 32, "velocity": 0, "pitch": 37, "instrument": 33, "track": 0, "qtime": 32, "isDrum": false}, {"time": 33, "velocity": 108, "pitch": 49, "instrument": 33, "track": 0, "qtime": 33, "isDrum": false}, {"time": 35, "velocity": 0, "pitch": 49, "instrument": 33, "track": 0, "qtime": 35, "isDrum": false}, {"time": 36, "velocity": 108, "pitch": 36, "instrument": 33, "track": 0, "qtime": 36, "isDrum": false}, {"time": 40, "velocity": 0, "pitch": 36, "instrument": 33, "track": 0, "qtime": 40, "isDrum": false}, {"time": 42, "velocity": 108, "pitch": 48, "instrument": 33, "track": 0, "qtime": 42, "isDrum": false}, {"time": 46, "velocity": 0, "pitch": 48, "instrument": 33, "track": 0, "qtime": 46, "isDrum": false}, {"time": 48, "velocity": 108, "pitch": 37, "instrument": 33, "track": 0, "qtime": 0, "isDrum": false}, {"time": 54, "velocity": 0, "pitch": 37, "instrument": 33, "track": 0, "qtime": 6, "isDrum": false}, {"time": 57, "velocity": 108, "pitch": 37, "instrument": 33, "track": 0, "qtime": 9, "isDrum": false}, {"time": 59, "velocity": 0, "pitch": 37, "instrument": 33, "track": 0, "qtime": 11, "isDrum": false}, {"time": 60, "velocity": 108, "pitch": 49, "instrument": 33, "track": 0, "qtime": 12, "isDrum": false}, {"time": 62, "velocity": 0, "pitch": 49, "instrument": 33, "track": 0, "qtime": 14, "isDrum": false}, {"time": 63, "velocity": 108, "pitch": 37, "instrument": 33, "track": 0, "qtime": 15, "isDrum": false}, {"time": 65, "velocity": 0, "pitch": 37, "instrument": 33, "track": 0, "qtime": 17, "isDrum": false}, {"time": 66, "velocity": 108, "pitch": 49, "instrument": 33, "track": 0, "qtime": 18, "isDrum": false}, {"time": 70, "velocity": 0, "pitch": 49, "instrument": 33, "track": 0, "qtime": 22, "isDrum": false}, {"time": 72, "velocity": 108, "pitch": 44, "instrument": 33, "track": 0, "qtime": 24, "isDrum": false}, {"time": 76, "velocity": 0, "pitch": 44, "instrument": 33, "track": 0, "qtime": 28, "isDrum": false}, {"time": 78, "velocity": 108, "pitch": 44, "instrument": 33, "track": 0, "qtime": 30, "isDrum": false}, {"time": 80, "velocity": 0, "pitch": 44, "instrument": 33, "track": 0, "qtime": 32, "isDrum": false}, {"time": 81, "velocity": 108, "pitch": 49, "instrument": 33, "track": 0, "qtime": 33, "isDrum": false}, {"time": 83, "velocity": 0, "pitch": 49, "instrument": 33, "track": 0, "qtime": 35, "isDrum": false}, {"time": 84, "velocity": 108, "pitch": 48, "instrument": 33, "track": 0, "qtime": 36, "isDrum": false}, {"time": 88, "velocity": 0, "pitch": 48, "instrument": 33, "track": 0, "qtime": 40, "isDrum": false}, {"time": 90, "velocity": 108, "pitch": 48, "instrument": 33, "track": 0, "qtime": 42, "isDrum": false}, {"time": 94, "velocity": 0, "pitch": 48, "instrument": 33, "track": 0, "qtime": 46, "isDrum": false}, {"time": 96, "velocity": 108, "pitch": 49, "instrument": 33, "track": 0, "qtime": 0, "isDrum": false}, {"time": 100, "velocity": 0, "pitch": 49, "instrument": 33, "track": 0, "qtime": 4, "isDrum": false}, {"time": 102, "velocity": 108, "pitch": 49, "instrument": 33, "track": 0, "qtime": 6, "isDrum": false}, {"time": 104, "velocity": 0, "pitch": 49, "instrument": 33, "track": 0, "qtime": 8, "isDrum": false}, {"time": 105, "velocity": 108, "pitch": 37, "instrument": 33, "track": 0, "qtime": 9, "isDrum": false}, {"time": 107, "velocity": 0, "pitch": 37, "instrument": 33, "track": 0, "qtime": 11, "isDrum": false}, {"time": 108, "velocity": 108, "pitch": 49, "instrument": 33, "track": 0, "qtime": 12, "isDrum": false}, {"time": 112, "velocity": 0, "pitch": 49, "instrument": 33, "track": 0, "qtime": 16, "isDrum": false}, {"time": 114, "velocity": 108, "pitch": 37, "instrument": 33, "track": 0, "qtime": 18, "isDrum": false}, {"time": 118, "velocity": 0, "pitch": 37, "instrument": 33, "track": 0, "qtime": 22, "isDrum": false}, {"time": 120, "velocity": 108, "pitch": 49, "instrument": 33, "track": 0, "qtime": 24, "isDrum": false}, {"time": 126, "velocity": 0, "pitch": 49, "instrument": 33, "track": 0, "qtime": 30, "isDrum": false}, {"time": 126, "velocity": 108, "pitch": 37, "instrument": 33, "track": 0, "qtime": 30, "isDrum": false}, {"time": 130, "velocity": 0, "pitch": 37, "instrument": 33, "track": 0, "qtime": 34, "isDrum": false}, {"time": 132, "velocity": 108, "pitch": 36, "instrument": 33, "track": 0, "qtime": 36, "isDrum": false}, {"time": 136, "velocity": 0, "pitch": 36, "instrument": 33, "track": 0, "qtime": 40, "isDrum": false}, {"time": 138, "velocity": 108, "pitch": 48, "instrument": 33, "track": 0, "qtime": 42, "isDrum": false}, {"time": 142, "velocity": 0, "pitch": 48, "instrument": 33, "track": 0, "qtime": 46, "isDrum": false}, {"time": 144, "velocity": 108, "pitch": 37, "instrument": 33, "track": 0, "qtime": 0, "isDrum": false}, {"time": 150, "velocity": 0, "pitch": 37, "instrument": 33, "track": 0, "qtime": 6, "isDrum": false}, {"time": 153, "velocity": 108, "pitch": 37, "instrument": 33, "track": 0, "qtime": 9, "isDrum": false}, {"time": 155, "velocity": 0, "pitch": 37, "instrument": 33, "track": 0, "qtime": 11, "isDrum": false}, {"time": 156, "velocity": 108, "pitch": 49, "instrument": 33, "track": 0, "qtime": 12, "isDrum": false}, {"time": 158, "velocity": 0, "pitch": 49, "instrument": 33, "track": 0, "qtime": 14, "isDrum": false}, {"time": 159, "velocity": 108, "pitch": 37, "instrument": 33, "track": 0, "qtime": 15, "isDrum": false}, {"time": 161, "velocity": 0, "pitch": 37, "instrument": 33, "track": 0, "qtime": 17, "isDrum": false}, {"time": 162, "velocity": 108, "pitch": 49, "instrument": 33, "track": 0, "qtime": 18, "isDrum": false}, {"time": 166, "velocity": 0, "pitch": 49, "instrument": 33, "track": 0, "qtime": 22, "isDrum": false}, {"time": 168, "velocity": 108, "pitch": 44, "instrument": 33, "track": 0, "qtime": 24, "isDrum": false}, {"time": 172, "velocity": 0, "pitch": 44, "instrument": 33, "track": 0, "qtime": 28, "isDrum": false}, {"time": 174, "velocity": 108, "pitch": 37, "instrument": 33, "track": 0, "qtime": 30, "isDrum": false}, {"time": 176, "velocity": 0, "pitch": 37, "instrument": 33, "track": 0, "qtime": 32, "isDrum": false}, {"time": 177, "velocity": 108, "pitch": 49, "instrument": 33, "track": 0, "qtime": 33, "isDrum": false}, {"time": 179, "velocity": 0, "pitch": 49, "instrument": 33, "track": 0, "qtime": 35, "isDrum": false}, {"time": 180, "velocity": 108, "pitch": 36, "instrument": 33, "track": 0, "qtime": 36, "isDrum": false}, {"time": 184, "velocity": 0, "pitch": 36, "instrument": 33, "track": 0, "qtime": 40, "isDrum": false}, {"time": 186, "velocity": 108, "pitch": 48, "instrument": 33, "track": 0, "qtime": 42, "isDrum": false}, {"time": 190, "velocity": 0, "pitch": 48, "instrument": 33, "track": 0, "qtime": 46, "isDrum": false}, {"time": 0, "velocity": 108, "pitch": 36, "instrument": 0, "track": 9, "qtime": 0, "isDrum": true}, {"time": 0, "velocity": 108, "pitch": 42, "instrument": 0, "track": 9, "qtime": 0, "isDrum": true}, {"time": 6, "velocity": 0, "pitch": 42, "instrument": 0, "track": 9, "qtime": 6, "isDrum": true}, {"time": 6, "velocity": 108, "pitch": 42, "instrument": 0, "track": 9, "qtime": 6, "isDrum": true}, {"time": 7, "velocity": 0, "pitch": 36, "instrument": 0, "track": 9, "qtime": 7, "isDrum": true}, {"time": 12, "velocity": 0, "pitch": 42, "instrument": 0, "track": 9, "qtime": 12, "isDrum": true}, {"time": 12, "velocity": 108, "pitch": 36, "instrument": 0, "track": 9, "qtime": 12, "isDrum": true}, {"time": 12, "velocity": 108, "pitch": 40, "instrument": 0, "track": 9, "qtime": 12, "isDrum": true}, {"time": 12, "velocity": 108, "pitch": 42, "instrument": 0, "track": 9, "qtime": 12, "isDrum": true}, {"time": 18, "velocity": 0, "pitch": 42, "instrument": 0, "track": 9, "qtime": 18, "isDrum": true}, {"time": 18, "velocity": 108, "pitch": 42, "instrument": 0, "track": 9, "qtime": 18, "isDrum": true}, {"time": 19, "velocity": 0, "pitch": 36, "instrument": 0, "track": 9, "qtime": 19, "isDrum": true}, {"time": 19, "velocity": 0, "pitch": 40, "instrument": 0, "track": 9, "qtime": 19, "isDrum": true}, {"time": 24, "velocity": 0, "pitch": 42, "instrument": 0, "track": 9, "qtime": 24, "isDrum": true}, {"time": 24, "velocity": 108, "pitch": 36, "instrument": 0, "track": 9, "qtime": 24, "isDrum": true}, {"time": 24, "velocity": 108, "pitch": 42, "instrument": 0, "track": 9, "qtime": 24, "isDrum": true}, {"time": 30, "velocity": 0, "pitch": 42, "instrument": 0, "track": 9, "qtime": 30, "isDrum": true}, {"time": 30, "velocity": 108, "pitch": 42, "instrument": 0, "track": 9, "qtime": 30, "isDrum": true}, {"time": 31, "velocity": 0, "pitch": 36, "instrument": 0, "track": 9, "qtime": 31, "isDrum": true}, {"time": 36, "velocity": 0, "pitch": 42, "instrument": 0, "track": 9, "qtime": 36, "isDrum": true}, {"time": 36, "velocity": 108, "pitch": 36, "instrument": 0, "track": 9, "qtime": 36, "isDrum": true}, {"time": 36, "velocity": 108, "pitch": 40, "instrument": 0, "track": 9, "qtime": 36, "isDrum": true}, {"time": 36, "velocity": 108, "pitch": 42, "instrument": 0, "track": 9, "qtime": 36, "isDrum": true}, {"time": 42, "velocity": 0, "pitch": 42, "instrument": 0, "track": 9, "qtime": 42, "isDrum": true}, {"time": 42, "velocity": 108, "pitch": 42, "instrument": 0, "track": 9, "qtime": 42, "isDrum": true}, {"time": 43, "velocity": 0, "pitch": 36, "instrument": 0, "track": 9, "qtime": 43, "isDrum": true}, {"time": 43, "velocity": 0, "pitch": 40, "instrument": 0, "track": 9, "qtime": 43, "isDrum": true}, {"time": 48, "velocity": 0, "pitch": 42, "instrument": 0, "track": 9, "qtime": 48, "isDrum": true}, {"time": 48, "velocity": 108, "pitch": 36, "instrument": 0, "track": 9, "qtime": 0, "isDrum": true}, {"time": 48, "velocity": 108, "pitch": 42, "instrument": 0, "track": 9, "qtime": 0, "isDrum": true}, {"time": 54, "velocity": 0, "pitch": 42, "instrument": 0, "track": 9, "qtime": 6, "isDrum": true}, {"time": 54, "velocity": 108, "pitch": 42, "instrument": 0, "track": 9, "qtime": 6, "isDrum": true}, {"time": 55, "velocity": 0, "pitch": 36, "instrument": 0, "track": 9, "qtime": 7, "isDrum": true}, {"time": 60, "velocity": 0, "pitch": 42, "instrument": 0, "track": 9, "qtime": 12, "isDrum": true}, {"time": 60, "velocity": 108, "pitch": 36, "instrument": 0, "track": 9, "qtime": 12, "isDrum": true}, {"time": 60, "velocity": 108, "pitch": 40, "instrument": 0, "track": 9, "qtime": 12, "isDrum": true}, {"time": 60, "velocity": 108, "pitch": 42, "instrument": 0, "track": 9, "qtime": 12, "isDrum": true}, {"time": 66, "velocity": 0, "pitch": 42, "instrument": 0, "track": 9, "qtime": 18, "isDrum": true}, {"time": 66, "velocity": 108, "pitch": 42, "instrument": 0, "track": 9, "qtime": 18, "isDrum": true}, {"time": 67, "velocity": 0, "pitch": 36, "instrument": 0, "track": 9, "qtime": 19, "isDrum": true}, {"time": 67, "velocity": 0, "pitch": 40, "instrument": 0, "track": 9, "qtime": 19, "isDrum": true}, {"time": 72, "velocity": 0, "pitch": 42, "instrument": 0, "track": 9, "qtime": 24, "isDrum": true}, {"time": 72, "velocity": 108, "pitch": 36, "instrument": 0, "track": 9, "qtime": 24, "isDrum": true}, {"time": 72, "velocity": 108, "pitch": 42, "instrument": 0, "track": 9, "qtime": 24, "isDrum": true}, {"time": 78, "velocity": 0, "pitch": 42, "instrument": 0, "track": 9, "qtime": 30, "isDrum": true}, {"time": 78, "velocity": 108, "pitch": 42, "instrument": 0, "track": 9, "qtime": 30, "isDrum": true}, {"time": 79, "velocity": 0, "pitch": 36, "instrument": 0, "track": 9, "qtime": 31, "isDrum": true}, {"time": 84, "velocity": 0, "pitch": 42, "instrument": 0, "track": 9, "qtime": 36, "isDrum": true}, {"time": 84, "velocity": 108, "pitch": 36, "instrument": 0, "track": 9, "qtime": 36, "isDrum": true}, {"time": 84, "velocity": 108, "pitch": 40, "instrument": 0, "track": 9, "qtime": 36, "isDrum": true}, {"time": 84, "velocity": 108, "pitch": 42, "instrument": 0, "track": 9, "qtime": 36, "isDrum": true}, {"time": 90, "velocity": 0, "pitch": 42, "instrument": 0, "track": 9, "qtime": 42, "isDrum": true}, {"time": 90, "velocity": 108, "pitch": 42, "instrument": 0, "track": 9, "qtime": 42, "isDrum": true}, {"time": 91, "velocity": 0, "pitch": 36, "instrument": 0, "track": 9, "qtime": 43, "isDrum": true}, {"time": 91, "velocity": 0, "pitch": 40, "instrument": 0, "track": 9, "qtime": 43, "isDrum": true}, {"time": 96, "velocity": 0, "pitch": 42, "instrument": 0, "track": 9, "qtime": 48, "isDrum": true}, {"time": 96, "velocity": 108, "pitch": 36, "instrument": 0, "track": 9, "qtime": 0, "isDrum": true}, {"time": 96, "velocity": 108, "pitch": 42, "instrument": 0, "track": 9, "qtime": 0, "isDrum": true}, {"time": 102, "velocity": 0, "pitch": 42, "instrument": 0, "track": 9, "qtime": 6, "isDrum": true}, {"time": 102, "velocity": 108, "pitch": 42, "instrument": 0, "track": 9, "qtime": 6, "isDrum": true}, {"time": 103, "velocity": 0, "pitch": 36, "instrument": 0, "track": 9, "qtime": 7, "isDrum": true}, {"time": 108, "velocity": 0, "pitch": 42, "instrument": 0, "track": 9, "qtime": 12, "isDrum": true}, {"time": 108, "velocity": 108, "pitch": 36, "instrument": 0, "track": 9, "qtime": 12, "isDrum": true}, {"time": 108, "velocity": 108, "pitch": 40, "instrument": 0, "track": 9, "qtime": 12, "isDrum": true}, {"time": 108, "velocity": 108, "pitch": 42, "instrument": 0, "track": 9, "qtime": 12, "isDrum": true}, {"time": 114, "velocity": 0, "pitch": 42, "instrument": 0, "track": 9, "qtime": 18, "isDrum": true}, {"time": 114, "velocity": 108, "pitch": 42, "instrument": 0, "track": 9, "qtime": 18, "isDrum": true}, {"time": 115, "velocity": 0, "pitch": 36, "instrument": 0, "track": 9, "qtime": 19, "isDrum": true}, {"time": 115, "velocity": 0, "pitch": 40, "instrument": 0, "track": 9, "qtime": 19, "isDrum": true}, {"time": 120, "velocity": 0, "pitch": 42, "instrument": 0, "track": 9, "qtime": 24, "isDrum": true}, {"time": 120, "velocity": 108, "pitch": 36, "instrument": 0, "track": 9, "qtime": 24, "isDrum": true}, {"time": 120, "velocity": 108, "pitch": 42, "instrument": 0, "track": 9, "qtime": 24, "isDrum": true}, {"time": 126, "velocity": 0, "pitch": 42, "instrument": 0, "track": 9, "qtime": 30, "isDrum": true}, {"time": 126, "velocity": 108, "pitch": 42, "instrument": 0, "track": 9, "qtime": 30, "isDrum": true}, {"time": 127, "velocity": 0, "pitch": 36, "instrument": 0, "track": 9, "qtime": 31, "isDrum": true}, {"time": 132, "velocity": 0, "pitch": 42, "instrument": 0, "track": 9, "qtime": 36, "isDrum": true}, {"time": 132, "velocity": 108, "pitch": 36, "instrument": 0, "track": 9, "qtime": 36, "isDrum": true}, {"time": 132, "velocity": 108, "pitch": 40, "instrument": 0, "track": 9, "qtime": 36, "isDrum": true}, {"time": 132, "velocity": 108, "pitch": 42, "instrument": 0, "track": 9, "qtime": 36, "isDrum": true}, {"time": 138, "velocity": 0, "pitch": 42, "instrument": 0, "track": 9, "qtime": 42, "isDrum": true}, {"time": 138, "velocity": 108, "pitch": 42, "instrument": 0, "track": 9, "qtime": 42, "isDrum": true}, {"time": 139, "velocity": 0, "pitch": 36, "instrument": 0, "track": 9, "qtime": 43, "isDrum": true}, {"time": 139, "velocity": 0, "pitch": 40, "instrument": 0, "track": 9, "qtime": 43, "isDrum": true}, {"time": 144, "velocity": 0, "pitch": 42, "instrument": 0, "track": 9, "qtime": 48, "isDrum": true}, {"time": 144, "velocity": 108, "pitch": 36, "instrument": 0, "track": 9, "qtime": 0, "isDrum": true}, {"time": 144, "velocity": 108, "pitch": 42, "instrument": 0, "track": 9, "qtime": 0, "isDrum": true}, {"time": 150, "velocity": 0, "pitch": 42, "instrument": 0, "track": 9, "qtime": 6, "isDrum": true}, {"time": 150, "velocity": 108, "pitch": 42, "instrument": 0, "track": 9, "qtime": 6, "isDrum": true}, {"time": 151, "velocity": 0, "pitch": 36, "instrument": 0, "track": 9, "qtime": 7, "isDrum": true}, {"time": 156, "velocity": 0, "pitch": 42, "instrument": 0, "track": 9, "qtime": 12, "isDrum": true}, {"time": 156, "velocity": 108, "pitch": 36, "instrument": 0, "track": 9, "qtime": 12, "isDrum": true}, {"time": 156, "velocity": 108, "pitch": 40, "instrument": 0, "track": 9, "qtime": 12, "isDrum": true}, {"time": 156, "velocity": 108, "pitch": 42, "instrument": 0, "track": 9, "qtime": 12, "isDrum": true}, {"time": 162, "velocity": 0, "pitch": 42, "instrument": 0, "track": 9, "qtime": 18, "isDrum": true}, {"time": 162, "velocity": 108, "pitch": 42, "instrument": 0, "track": 9, "qtime": 18, "isDrum": true}, {"time": 163, "velocity": 0, "pitch": 36, "instrument": 0, "track": 9, "qtime": 19, "isDrum": true}, {"time": 163, "velocity": 0, "pitch": 40, "instrument": 0, "track": 9, "qtime": 19, "isDrum": true}, {"time": 168, "velocity": 0, "pitch": 42, "instrument": 0, "track": 9, "qtime": 24, "isDrum": true}, {"time": 168, "velocity": 108, "pitch": 36, "instrument": 0, "track": 9, "qtime": 24, "isDrum": true}, {"time": 168, "velocity": 108, "pitch": 42, "instrument": 0, "track": 9, "qtime": 24, "isDrum": true}, {"time": 174, "velocity": 0, "pitch": 42, "instrument": 0, "track": 9, "qtime": 30, "isDrum": true}, {"time": 174, "velocity": 108, "pitch": 42, "instrument": 0, "track": 9, "qtime": 30, "isDrum": true}, {"time": 175, "velocity": 0, "pitch": 36, "instrument": 0, "track": 9, "qtime": 31, "isDrum": true}, {"time": 180, "velocity": 0, "pitch": 42, "instrument": 0, "track": 9, "qtime": 36, "isDrum": true}, {"time": 180, "velocity": 108, "pitch": 36, "instrument": 0, "track": 9, "qtime": 36, "isDrum": true}, {"time": 180, "velocity": 108, "pitch": 40, "instrument": 0, "track": 9, "qtime": 36, "isDrum": true}, {"time": 180, "velocity": 108, "pitch": 42, "instrument": 0, "track": 9, "qtime": 36, "isDrum": true}, {"time": 186, "velocity": 0, "pitch": 42, "instrument": 0, "track": 9, "qtime": 42, "isDrum": true}, {"time": 186, "velocity": 108, "pitch": 42, "instrument": 0, "track": 9, "qtime": 42, "isDrum": true}, {"time": 187, "velocity": 0, "pitch": 36, "instrument": 0, "track": 9, "qtime": 43, "isDrum": true}, {"time": 187, "velocity": 0, "pitch": 40, "instrument": 0, "track": 9, "qtime": 43, "isDrum": true}, {"time": 192, "velocity": 0, "pitch": 42, "instrument": 0, "track": 9, "qtime": 48, "isDrum": true}, {"time": 0, "velocity": 108, "pitch": 61, "instrument": 30, "track": 2, "qtime": 0, "isDrum": false}, {"time": 0, "velocity": 108, "pitch": 68, "instrument": 30, "track": 2, "qtime": 0, "isDrum": false}, {"time": 0, "velocity": 108, "pitch": 73, "instrument": 30, "track": 2, "qtime": 0, "isDrum": false}, {"time": 6, "velocity": 0, "pitch": 61, "instrument": 30, "track": 2, "qtime": 6, "isDrum": false}, {"time": 6, "velocity": 0, "pitch": 68, "instrument": 30, "track": 2, "qtime": 6, "isDrum": false}, {"time": 6, "velocity": 0, "pitch": 73, "instrument": 30, "track": 2, "qtime": 6, "isDrum": false}, {"time": 9, "velocity": 108, "pitch": 61, "instrument": 30, "track": 2, "qtime": 9, "isDrum": false}, {"time": 9, "velocity": 108, "pitch": 68, "instrument": 30, "track": 2, "qtime": 9, "isDrum": false}, {"time": 9, "velocity": 108, "pitch": 73, "instrument": 30, "track": 2, "qtime": 9, "isDrum": false}, {"time": 11, "velocity": 0, "pitch": 61, "instrument": 30, "track": 2, "qtime": 11, "isDrum": false}, {"time": 11, "velocity": 0, "pitch": 68, "instrument": 30, "track": 2, "qtime": 11, "isDrum": false}, {"time": 11, "velocity": 0, "pitch": 73, "instrument": 30, "track": 2, "qtime": 11, "isDrum": false}, {"time": 18, "velocity": 108, "pitch": 61, "instrument": 30, "track": 2, "qtime": 18, "isDrum": false}, {"time": 18, "velocity": 108, "pitch": 68, "instrument": 30, "track": 2, "qtime": 18, "isDrum": false}, {"time": 18, "velocity": 108, "pitch": 73, "instrument": 30, "track": 2, "qtime": 18, "isDrum": false}, {"time": 24, "velocity": 0, "pitch": 61, "instrument": 30, "track": 2, "qtime": 24, "isDrum": false}, {"time": 24, "velocity": 0, "pitch": 68, "instrument": 30, "track": 2, "qtime": 24, "isDrum": false}, {"time": 24, "velocity": 0, "pitch": 73, "instrument": 30, "track": 2, "qtime": 24, "isDrum": false}, {"time": 30, "velocity": 108, "pitch": 68, "instrument": 30, "track": 2, "qtime": 30, "isDrum": false}, {"time": 30, "velocity": 108, "pitch": 73, "instrument": 30, "track": 2, "qtime": 30, "isDrum": false}, {"time": 30, "velocity": 108, "pitch": 73, "instrument": 30, "track": 2, "qtime": 30, "isDrum": false}, {"time": 34, "velocity": 0, "pitch": 68, "instrument": 30, "track": 2, "qtime": 34, "isDrum": false}, {"time": 34, "velocity": 0, "pitch": 73, "instrument": 30, "track": 2, "qtime": 34, "isDrum": false}, {"time": 36, "velocity": 108, "pitch": 60, "instrument": 30, "track": 2, "qtime": 36, "isDrum": false}, {"time": 36, "velocity": 108, "pitch": 67, "instrument": 30, "track": 2, "qtime": 36, "isDrum": false}, {"time": 36, "velocity": 108, "pitch": 72, "instrument": 30, "track": 2, "qtime": 36, "isDrum": false}, {"time": 38, "velocity": 0, "pitch": 73, "instrument": 30, "track": 2, "qtime": 38, "isDrum": false}, {"time": 42, "velocity": 0, "pitch": 60, "instrument": 30, "track": 2, "qtime": 42, "isDrum": false}, {"time": 42, "velocity": 0, "pitch": 67, "instrument": 30, "track": 2, "qtime": 42, "isDrum": false}, {"time": 42, "velocity": 0, "pitch": 72, "instrument": 30, "track": 2, "qtime": 42, "isDrum": false}, {"time": 45, "velocity": 108, "pitch": 61, "instrument": 30, "track": 2, "qtime": 45, "isDrum": false}, {"time": 45, "velocity": 108, "pitch": 68, "instrument": 30, "track": 2, "qtime": 45, "isDrum": false}, {"time": 45, "velocity": 108, "pitch": 73, "instrument": 30, "track": 2, "qtime": 45, "isDrum": false}, {"time": 47, "velocity": 0, "pitch": 61, "instrument": 30, "track": 2, "qtime": 47, "isDrum": false}, {"time": 47, "velocity": 0, "pitch": 68, "instrument": 30, "track": 2, "qtime": 47, "isDrum": false}, {"time": 47, "velocity": 0, "pitch": 73, "instrument": 30, "track": 2, "qtime": 47, "isDrum": false}, {"time": 48, "velocity": 108, "pitch": 61, "instrument": 30, "track": 2, "qtime": 0, "isDrum": false}, {"time": 48, "velocity": 108, "pitch": 68, "instrument": 30, "track": 2, "qtime": 0, "isDrum": false}, {"time": 48, "velocity": 108, "pitch": 73, "instrument": 30, "track": 2, "qtime": 0, "isDrum": false}, {"time": 56, "velocity": 0, "pitch": 61, "instrument": 30, "track": 2, "qtime": 8, "isDrum": false}, {"time": 56, "velocity": 0, "pitch": 68, "instrument": 30, "track": 2, "qtime": 8, "isDrum": false}, {"time": 56, "velocity": 0, "pitch": 73, "instrument": 30, "track": 2, "qtime": 8, "isDrum": false}, {"time": 57, "velocity": 108, "pitch": 61, "instrument": 30, "track": 2, "qtime": 9, "isDrum": false}, {"time": 57, "velocity": 108, "pitch": 68, "instrument": 30, "track": 2, "qtime": 9, "isDrum": false}, {"time": 57, "velocity": 108, "pitch": 73, "instrument": 30, "track": 2, "qtime": 9, "isDrum": false}, {"time": 59, "velocity": 0, "pitch": 61, "instrument": 30, "track": 2, "qtime": 11, "isDrum": false}, {"time": 59, "velocity": 0, "pitch": 68, "instrument": 30, "track": 2, "qtime": 11, "isDrum": false}, {"time": 59, "velocity": 0, "pitch": 73, "instrument": 30, "track": 2, "qtime": 11, "isDrum": false}, {"time": 66, "velocity": 108, "pitch": 61, "instrument": 30, "track": 2, "qtime": 18, "isDrum": false}, {"time": 66, "velocity": 108, "pitch": 68, "instrument": 30, "track": 2, "qtime": 18, "isDrum": false}, {"time": 66, "velocity": 108, "pitch": 73, "instrument": 30, "track": 2, "qtime": 18, "isDrum": false}, {"time": 70, "velocity": 0, "pitch": 61, "instrument": 30, "track": 2, "qtime": 22, "isDrum": false}, {"time": 70, "velocity": 0, "pitch": 68, "instrument": 30, "track": 2, "qtime": 22, "isDrum": false}, {"time": 70, "velocity": 0, "pitch": 73, "instrument": 30, "track": 2, "qtime": 22, "isDrum": false}, {"time": 78, "velocity": 108, "pitch": 68, "instrument": 30, "track": 2, "qtime": 30, "isDrum": false}, {"time": 78, "velocity": 108, "pitch": 73, "instrument": 30, "track": 2, "qtime": 30, "isDrum": false}, {"time": 78, "velocity": 108, "pitch": 73, "instrument": 30, "track": 2, "qtime": 30, "isDrum": false}, {"time": 82, "velocity": 0, "pitch": 68, "instrument": 30, "track": 2, "qtime": 34, "isDrum": false}, {"time": 82, "velocity": 0, "pitch": 73, "instrument": 30, "track": 2, "qtime": 34, "isDrum": false}, {"time": 84, "velocity": 108, "pitch": 60, "instrument": 30, "track": 2, "qtime": 36, "isDrum": false}, {"time": 84, "velocity": 108, "pitch": 67, "instrument": 30, "track": 2, "qtime": 36, "isDrum": false}, {"time": 84, "velocity": 108, "pitch": 72, "instrument": 30, "track": 2, "qtime": 36, "isDrum": false}, {"time": 86, "velocity": 0, "pitch": 73, "instrument": 30, "track": 2, "qtime": 38, "isDrum": false}, {"time": 90, "velocity": 0, "pitch": 60, "instrument": 30, "track": 2, "qtime": 42, "isDrum": false}, {"time": 90, "velocity": 0, "pitch": 67, "instrument": 30, "track": 2, "qtime": 42, "isDrum": false}, {"time": 90, "velocity": 0, "pitch": 72, "instrument": 30, "track": 2, "qtime": 42, "isDrum": false}, {"time": 93, "velocity": 108, "pitch": 61, "instrument": 30, "track": 2, "qtime": 45, "isDrum": false}, {"time": 93, "velocity": 108, "pitch": 68, "instrument": 30, "track": 2, "qtime": 45, "isDrum": false}, {"time": 93, "velocity": 108, "pitch": 73, "instrument": 30, "track": 2, "qtime": 45, "isDrum": false}, {"time": 95, "velocity": 0, "pitch": 61, "instrument": 30, "track": 2, "qtime": 47, "isDrum": false}, {"time": 95, "velocity": 0, "pitch": 68, "instrument": 30, "track": 2, "qtime": 47, "isDrum": false}, {"time": 95, "velocity": 0, "pitch": 73, "instrument": 30, "track": 2, "qtime": 47, "isDrum": false}, {"time": 96, "velocity": 108, "pitch": 61, "instrument": 30, "track": 2, "qtime": 0, "isDrum": false}, {"time": 96, "velocity": 108, "pitch": 68, "instrument": 30, "track": 2, "qtime": 0, "isDrum": false}, {"time": 96, "velocity": 108, "pitch": 73, "instrument": 30, "track": 2, "qtime": 0, "isDrum": false}, {"time": 102, "velocity": 0, "pitch": 61, "instrument": 30, "track": 2, "qtime": 6, "isDrum": false}, {"time": 102, "velocity": 0, "pitch": 68, "instrument": 30, "track": 2, "qtime": 6, "isDrum": false}, {"time": 102, "velocity": 0, "pitch": 73, "instrument": 30, "track": 2, "qtime": 6, "isDrum": false}, {"time": 102, "velocity": 108, "pitch": 61, "instrument": 30, "track": 2, "qtime": 6, "isDrum": false}, {"time": 104, "velocity": 0, "pitch": 61, "instrument": 30, "track": 2, "qtime": 8, "isDrum": false}, {"time": 105, "velocity": 108, "pitch": 61, "instrument": 30, "track": 2, "qtime": 9, "isDrum": false}, {"time": 107, "velocity": 0, "pitch": 61, "instrument": 30, "track": 2, "qtime": 11, "isDrum": false}, {"time": 108, "velocity": 108, "pitch": 61, "instrument": 30, "track": 2, "qtime": 12, "isDrum": false}, {"time": 108, "velocity": 108, "pitch": 61, "instrument": 30, "track": 2, "qtime": 12, "isDrum": false}, {"time": 108, "velocity": 108, "pitch": 68, "instrument": 30, "track": 2, "qtime": 12, "isDrum": false}, {"time": 108, "velocity": 108, "pitch": 73, "instrument": 30, "track": 2, "qtime": 12, "isDrum": false}, {"time": 112, "velocity": 0, "pitch": 61, "instrument": 30, "track": 2, "qtime": 16, "isDrum": false}, {"time": 114, "velocity": 0, "pitch": 61, "instrument": 30, "track": 2, "qtime": 18, "isDrum": false}, {"time": 114, "velocity": 0, "pitch": 68, "instrument": 30, "track": 2, "qtime": 18, "isDrum": false}, {"time": 114, "velocity": 0, "pitch": 73, "instrument": 30, "track": 2, "qtime": 18, "isDrum": false}, {"time": 117, "velocity": 108, "pitch": 61, "instrument": 30, "track": 2, "qtime": 21, "isDrum": false}, {"time": 119, "velocity": 0, "pitch": 61, "instrument": 30, "track": 2, "qtime": 23, "isDrum": false}, {"time": 120, "velocity": 108, "pitch": 61, "instrument": 30, "track": 2, "qtime": 24, "isDrum": false}, {"time": 124, "velocity": 0, "pitch": 61, "instrument": 30, "track": 2, "qtime": 28, "isDrum": false}, {"time": 126, "velocity": 108, "pitch": 68, "instrument": 30, "track": 2, "qtime": 30, "isDrum": false}, {"time": 126, "velocity": 108, "pitch": 73, "instrument": 30, "track": 2, "qtime": 30, "isDrum": false}, {"time": 126, "velocity": 108, "pitch": 73, "instrument": 30, "track": 2, "qtime": 30, "isDrum": false}, {"time": 130, "velocity": 0, "pitch": 68, "instrument": 30, "track": 2, "qtime": 34, "isDrum": false}, {"time": 132, "velocity": 0, "pitch": 73, "instrument": 30, "track": 2, "qtime": 36, "isDrum": false}, {"time": 132, "velocity": 0, "pitch": 73, "instrument": 30, "track": 2, "qtime": 36, "isDrum": false}, {"time": 132, "velocity": 108, "pitch": 60, "instrument": 30, "track": 2, "qtime": 36, "isDrum": false}, {"time": 132, "velocity": 108, "pitch": 67, "instrument": 30, "track": 2, "qtime": 36, "isDrum": false}, {"time": 132, "velocity": 108, "pitch": 72, "instrument": 30, "track": 2, "qtime": 36, "isDrum": false}, {"time": 136, "velocity": 0, "pitch": 60, "instrument": 30, "track": 2, "qtime": 40, "isDrum": false}, {"time": 138, "velocity": 0, "pitch": 67, "instrument": 30, "track": 2, "qtime": 42, "isDrum": false}, {"time": 138, "velocity": 0, "pitch": 72, "instrument": 30, "track": 2, "qtime": 42, "isDrum": false}, {"time": 141, "velocity": 108, "pitch": 61, "instrument": 30, "track": 2, "qtime": 45, "isDrum": false}, {"time": 141, "velocity": 108, "pitch": 68, "instrument": 30, "track": 2, "qtime": 45, "isDrum": false}, {"time": 141, "velocity": 108, "pitch": 73, "instrument": 30, "track": 2, "qtime": 45, "isDrum": false}, {"time": 143, "velocity": 0, "pitch": 61, "instrument": 30, "track": 2, "qtime": 47, "isDrum": false}, {"time": 143, "velocity": 0, "pitch": 68, "instrument": 30, "track": 2, "qtime": 47, "isDrum": false}, {"time": 143, "velocity": 0, "pitch": 73, "instrument": 30, "track": 2, "qtime": 47, "isDrum": false}, {"time": 144, "velocity": 108, "pitch": 61, "instrument": 30, "track": 2, "qtime": 0, "isDrum": false}, {"time": 144, "velocity": 108, "pitch": 68, "instrument": 30, "track": 2, "qtime": 0, "isDrum": false}, {"time": 144, "velocity": 108, "pitch": 73, "instrument": 30, "track": 2, "qtime": 0, "isDrum": false}, {"time": 152, "velocity": 0, "pitch": 61, "instrument": 30, "track": 2, "qtime": 8, "isDrum": false}, {"time": 152, "velocity": 0, "pitch": 68, "instrument": 30, "track": 2, "qtime": 8, "isDrum": false}, {"time": 152, "velocity": 0, "pitch": 73, "instrument": 30, "track": 2, "qtime": 8, "isDrum": false}, {"time": 153, "velocity": 108, "pitch": 61, "instrument": 30, "track": 2, "qtime": 9, "isDrum": false}, {"time": 153, "velocity": 108, "pitch": 68, "instrument": 30, "track": 2, "qtime": 9, "isDrum": false}, {"time": 153, "velocity": 108, "pitch": 73, "instrument": 30, "track": 2, "qtime": 9, "isDrum": false}, {"time": 155, "velocity": 0, "pitch": 61, "instrument": 30, "track": 2, "qtime": 11, "isDrum": false}, {"time": 155, "velocity": 0, "pitch": 68, "instrument": 30, "track": 2, "qtime": 11, "isDrum": false}, {"time": 155, "velocity": 0, "pitch": 73, "instrument": 30, "track": 2, "qtime": 11, "isDrum": false}, {"time": 162, "velocity": 108, "pitch": 61, "instrument": 30, "track": 2, "qtime": 18, "isDrum": false}, {"time": 162, "velocity": 108, "pitch": 68, "instrument": 30, "track": 2, "qtime": 18, "isDrum": false}, {"time": 162, "velocity": 108, "pitch": 73, "instrument": 30, "track": 2, "qtime": 18, "isDrum": false}, {"time": 166, "velocity": 0, "pitch": 61, "instrument": 30, "track": 2, "qtime": 22, "isDrum": false}, {"time": 166, "velocity": 0, "pitch": 68, "instrument": 30, "track": 2, "qtime": 22, "isDrum": false}, {"time": 166, "velocity": 0, "pitch": 73, "instrument": 30, "track": 2, "qtime": 22, "isDrum": false}, {"time": 174, "velocity": 108, "pitch": 68, "instrument": 30, "track": 2, "qtime": 30, "isDrum": false}, {"time": 174, "velocity": 108, "pitch": 73, "instrument": 30, "track": 2, "qtime": 30, "isDrum": false}, {"time": 174, "velocity": 108, "pitch": 73, "instrument": 30, "track": 2, "qtime": 30, "isDrum": false}, {"time": 178, "velocity": 0, "pitch": 68, "instrument": 30, "track": 2, "qtime": 34, "isDrum": false}, {"time": 180, "velocity": 0, "pitch": 73, "instrument": 30, "track": 2, "qtime": 36, "isDrum": false}, {"time": 180, "velocity": 0, "pitch": 73, "instrument": 30, "track": 2, "qtime": 36, "isDrum": false}, {"time": 180, "velocity": 108, "pitch": 60, "instrument": 30, "track": 2, "qtime": 36, "isDrum": false}, {"time": 180, "velocity": 108, "pitch": 67, "instrument": 30, "track": 2, "qtime": 36, "isDrum": false}, {"time": 180, "velocity": 108, "pitch": 72, "instrument": 30, "track": 2, "qtime": 36, "isDrum": false}, {"time": 184, "velocity": 0, "pitch": 60, "instrument": 30, "track": 2, "qtime": 40, "isDrum": false}, {"time": 186, "velocity": 0, "pitch": 67, "instrument": 30, "track": 2, "qtime": 42, "isDrum": false}, {"time": 186, "velocity": 0, "pitch": 72, "instrument": 30, "track": 2, "qtime": 42, "isDrum": false}, {"time": 189, "velocity": 108, "pitch": 61, "instrument": 30, "track": 2, "qtime": 45, "isDrum": false}, {"time": 189, "velocity": 108, "pitch": 68, "instrument": 30, "track": 2, "qtime": 45, "isDrum": false}, {"time": 189, "velocity": 108, "pitch": 73, "instrument": 30, "track": 2, "qtime": 45, "isDrum": false}, {"time": 191, "velocity": 0, "pitch": 61, "instrument": 30, "track": 2, "qtime": 47, "isDrum": false}, {"time": 191, "velocity": 0, "pitch": 68, "instrument": 30, "track": 2, "qtime": 47, "isDrum": false}, {"time": 191, "velocity": 0, "pitch": 73, "instrument": 30, "track": 2, "qtime": 47, "isDrum": false}], "resolution": 12, "tempo": 120, "minPitch": 36, "maxPitch": 73, "validSegments": [0], "validTracks": [7]}, "audio": "https://www.sfu.ca/~jeffe/examples/uncond_5.mp3"}]}, {"title": "Track-Level Inpainting", "description": "Using [Redacted], we can generate resample one or more tracks conditioned on the remaining tracks.", "examples": [{"src": "gen/8b_gibbs_orig_3.json", "highlights": [[], [], [], [], [], [], [], []], "caption": "An original sample from the dataset.", "mixer": [8, 8, 8, 8, 8, 8, 8, 8], "sample_id": "12a", "json": {"tracks": [{"bars": [{"events": [0, 1, 2, 3, 4, 5, 6, 7, 8, 9, 10, 11, 12, 13, 14, 15], "isFourFour": true, "hasNotes": true, "time": 0, "beatLength": 4}, {"events": [16, 17, 18, 19, 20, 21, 22, 23, 24, 25, 26, 27, 28, 29, 30], "isFourFour": true, "hasNotes": true, "time": 48, "beatLength": 4}, {"events": [31, 32, 33, 34, 35, 36, 37, 38, 39, 40, 41, 42, 43, 44, 45, 46, 47], "isFourFour": true, "hasNotes": true, "time": 96, "beatLength": 4}, {"events": [48, 49, 50, 51, 52, 53, 54, 55, 56, 57, 58, 59, 60, 61, 62, 63], "isFourFour": true, "hasNotes": true, "time": 144, "beatLength": 4}, {"events": [64, 65, 66, 67, 68, 69, 70, 71, 72, 73, 74, 75, 76, 77, 78, 79], "isFourFour": true, "hasNotes": true, "time": 192, "beatLength": 4}, {"events": [80, 81, 82, 83, 84, 85, 86, 87, 88, 89, 90, 91, 92, 93, 94, 95], "isFourFour": true, "hasNotes": true, "time": 240, "beatLength": 4}, {"events": [96, 97, 98, 99, 100, 101, 102, 103, 104, 105, 106, 107, 108, 109, 110, 111], "isFourFour": true, "hasNotes": true, "time": 288, "beatLength": 4}, {"events": [112, 113, 114, 115, 116, 117, 118, 119, 120, 121, 122, 123, 124, 125, 126, 127], "isFourFour": true, "hasNotes": true, "time": 336, "beatLength": 4}], "isDrum": false, "minPitch": 32, "maxPitch": 48, "instrument": 32, "avPolyphony": 1.01596451, "noteDensity": 9, "noteDensityV2": 8}, {"bars": [{"events": [128, 129, 130, 131, 132, 133, 134, 135, 136, 137, 138, 139, 140, 141, 142, 143], "isFourFour": true, "hasNotes": true, "time": 0, "beatLength": 4}, {"events": [144, 145, 146, 147, 148, 149, 150, 151, 152, 153, 154, 155, 156, 157, 158, 159], "isFourFour": true, "hasNotes": true, "time": 48, "beatLength": 4}, {"events": [160, 161, 162, 163, 164, 165, 166, 167, 168, 169, 170, 171, 172, 173, 174, 175, 176, 177, 178, 179, 180, 181, 182, 183, 184, 185, 186, 187, 188, 189, 190, 191], "isFourFour": true, "hasNotes": true, "time": 96, "beatLength": 4}, {"events": [192, 193, 194, 195, 196, 197, 198, 199, 200, 201, 202, 203, 204, 205, 206, 207], "isFourFour": true, "hasNotes": true, "time": 144, "beatLength": 4}, {"events": [208, 209, 210, 211, 212, 213, 214, 215, 216, 217, 218, 219, 220, 221, 222, 223, 224, 225, 226, 227, 228, 229, 230, 231, 232, 233, 234, 235, 236, 237, 238, 239], "isFourFour": true, "hasNotes": true, "time": 192, "beatLength": 4}, {"events": [240, 241, 242, 243, 244, 245, 246, 247, 248, 249, 250, 251, 252, 253, 254, 255, 256, 257, 258, 259, 260, 261, 262, 263, 264, 265, 266, 267, 268, 269, 270, 271], "isFourFour": true, "hasNotes": true, "time": 240, "beatLength": 4}, {"events": [272, 273, 274, 275, 276, 277, 278, 279, 280, 281, 282, 283, 284, 285, 286, 287, 288, 289, 290, 291, 292, 293, 294, 295, 296, 297, 298, 299, 300, 301, 302, 303], "isFourFour": true, "hasNotes": true, "time": 288, "beatLength": 4}, {"events": [304, 305, 306, 307, 308, 309, 310, 311, 312, 313, 314, 315, 316, 317, 318, 319, 320, 321, 322, 323, 324, 325, 326, 327, 328, 329, 330, 331, 332, 333, 334, 335], "isFourFour": true, "hasNotes": true, "time": 336, "beatLength": 4}], "isDrum": false, "minPitch": 44, "maxPitch": 80, "instrument": 28, "avPolyphony": 1.89027858, "noteDensity": 9, "noteDensityV2": 6}, {"bars": [{"events": [336, 337, 338, 339, 340, 341, 342, 343, 344, 345, 346, 347, 348, 349, 350, 351, 352, 353, 354, 355, 356, 357, 358, 359, 360, 361, 362, 363, 364, 365, 366, 367, 368, 369, 370, 371, 372, 373, 374, 375, 376, 377, 378, 379, 380, 381, 382, 383, 384, 385, 386, 387, 388, 389, 390, 391, 392, 393, 394, 395, 396, 397, 398, 399, 400, 401, 402, 403, 404, 405, 406, 407, 408, 409, 410, 411, 412, 413, 414, 415], "isFourFour": true, "hasNotes": true, "time": 0, "beatLength": 4}, {"events": [416, 417, 418, 419, 420, 421, 422, 423, 424, 425, 426, 427, 428, 429, 430, 431, 432, 433, 434, 435, 436, 437, 438, 439, 440, 441, 442, 443, 444, 445, 446, 447, 448, 449, 450, 451, 452, 453, 454, 455, 456, 457, 458, 459, 460, 461, 462, 463, 464, 465, 466, 467, 468, 469, 470, 471, 472, 473, 474, 475, 476, 477, 478, 479, 480, 481, 482, 483, 484, 485, 486, 487, 488, 489, 490, 491, 492, 493, 494, 495], "isFourFour": true, "hasNotes": true, "time": 48, "beatLength": 4}, {"events": [496, 497, 498, 499, 500, 501, 502, 503, 504, 505, 506, 507, 508, 509, 510, 511, 512, 513, 514, 515, 516, 517, 518, 519, 520, 521, 522, 523, 524, 525, 526, 527, 528, 529, 530, 531, 532, 533, 534, 535, 536, 537, 538, 539, 540, 541, 542, 543, 544, 545, 546, 547, 548, 549, 550, 551, 552, 553, 554, 555, 556, 557, 558, 559, 560, 561, 562, 563, 564, 565, 566, 567, 568, 569, 570, 571, 572, 573, 574, 575], "isFourFour": true, "hasNotes": true, "time": 96, "beatLength": 4}, {"events": [576, 577, 578, 579, 580, 581, 582, 583, 584, 585, 586, 587, 588, 589, 590, 591, 592, 593, 594, 595, 596, 597, 598, 599, 600, 601, 602, 603, 604, 605, 606, 607, 608, 609, 610, 611, 612, 613, 614, 615, 616, 617, 618, 619, 620, 621, 622, 623, 624, 625, 626, 627, 628, 629, 630, 631, 632, 633, 634, 635, 636, 637, 638, 639, 640, 641, 642, 643, 644, 645, 646, 647, 648, 649, 650, 651, 652, 653, 654, 655], "isFourFour": true, "hasNotes": true, "time": 144, "beatLength": 4}, {"events": [656, 657, 658, 659, 660, 661, 662, 663, 664, 665, 666, 667, 668, 669, 670, 671, 672, 673, 674, 675, 676, 677, 678, 679, 680, 681, 682, 683, 684, 685, 686, 687, 688, 689, 690, 691, 692, 693, 694, 695, 696, 697, 698, 699, 700, 701, 702, 703, 704, 705, 706, 707, 708, 709, 710, 711, 712, 713, 714, 715, 716, 717, 718, 719, 720, 721, 722, 723, 724, 725, 726, 727, 728, 729, 730, 731, 732, 733, 734, 735], "isFourFour": true, "hasNotes": true, "time": 192, "beatLength": 4}, {"events": [736, 737, 738, 739, 740, 741, 742, 743, 744, 745, 746, 747, 748, 749, 750, 751, 752, 753, 754, 755, 756, 757, 758, 759, 760, 761, 762, 763, 764, 765, 766, 767, 768, 769, 770, 771, 772, 773, 774, 775, 776, 777, 778, 779, 780, 781, 782, 783, 784, 785, 786, 787, 788, 789, 790, 791, 792, 793, 794, 795, 796, 797, 798, 799, 800, 801, 802, 803, 804, 805, 806, 807, 808, 809, 810, 811, 812, 813, 814, 815], "isFourFour": true, "hasNotes": true, "time": 240, "beatLength": 4}, {"events": [816, 817, 818, 819, 820, 821, 822, 823, 824, 825, 826, 827, 828, 829, 830, 831, 832, 833, 834, 835, 836, 837, 838, 839, 840, 841, 842, 843, 844, 845, 846, 847, 848, 849, 850, 851, 852, 853, 854, 855, 856, 857, 858, 859, 860, 861, 862, 863, 864, 865, 866, 867, 868, 869, 870, 871, 872, 873, 874, 875, 876, 877, 878, 879, 880, 881, 882, 883], "isFourFour": true, "hasNotes": true, "time": 288, "beatLength": 4}, {"events": [884, 885, 886, 887, 888, 889, 890, 891, 892, 893, 894, 895, 896, 897, 898, 899, 900, 901, 902, 903, 904, 905, 906, 907, 908, 909, 910, 911, 912, 913, 914, 915, 916, 917, 918, 919, 920, 921, 922, 923, 924, 925, 926, 927, 928, 929, 930, 931, 932, 933, 934, 935, 936, 937, 938, 939, 940, 941, 942, 943, 944, 945, 946, 947, 948, 949, 950, 951, 952, 953, 954, 955, 956, 957, 958, 959, 960, 961], "isFourFour": true, "hasNotes": true, "time": 336, "beatLength": 4}], "isDrum": false, "minPitch": 39, "maxPitch": 104, "instrument": 1, "avPolyphony": 3.74969316, "noteDensity": 9, "noteDensityV2": 9}, {"bars": [{"events": [962, 963, 964, 965, 966, 967, 968, 969], "isFourFour": true, "hasNotes": true, "time": 0, "beatLength": 4}, {"events": [970, 971, 972, 973, 974, 975, 976, 977], "isFourFour": true, "hasNotes": true, "time": 48, "beatLength": 4}, {"events": [978, 979, 980, 981, 982, 983, 984, 985], "isFourFour": true, "hasNotes": true, "time": 96, "beatLength": 4}, {"events": [986, 987, 988, 989, 990, 991, 992, 993], "isFourFour": true, "hasNotes": true, "time": 144, "beatLength": 4}, {"events": [994, 995, 996, 997, 998, 999, 1000, 1001], "isFourFour": true, "hasNotes": true, "time": 192, "beatLength": 4}, {"events": [1002, 1003, 1004, 1005, 1006, 1007, 1008, 1009], "isFourFour": true, "hasNotes": true, "time": 240, "beatLength": 4}, {"events": [1010, 1011, 1012, 1013, 1014, 1015, 1016, 1017], "isFourFour": true, "hasNotes": true, "time": 288, "beatLength": 4}, {"events": [1018, 1019, 1020, 1021, 1022, 1023, 1024, 1025], "isFourFour": true, "hasNotes": true, "time": 336, "beatLength": 4}], "isDrum": true, "minPitch": 35, "maxPitch": 35, "instrument": 0, "avPolyphony": 1, "noteDensity": 9, "noteDensityV2": 2}], "events": [{"time": 0, "velocity": 108, "pitch": 34, "instrument": 32, "track": 2, "qtime": 0, "bar": 0, "isDrum": false}, {"time": 3, "velocity": 0, "pitch": 34, "instrument": 32, "track": 2, "qtime": 3, "bar": 0, "isDrum": false}, {"time": 6, "velocity": 108, "pitch": 34, "instrument": 32, "track": 2, "qtime": 6, "bar": 0, "isDrum": false}, {"time": 11, "velocity": 0, "pitch": 34, "instrument": 32, "track": 2, "qtime": 11, "bar": 0, "isDrum": false}, {"time": 12, "velocity": 108, "pitch": 38, "instrument": 32, "track": 2, "qtime": 12, "bar": 0, "isDrum": false}, {"time": 15, "velocity": 0, "pitch": 38, "instrument": 32, "track": 2, "qtime": 15, "bar": 0, "isDrum": false}, {"time": 18, "velocity": 108, "pitch": 38, "instrument": 32, "track": 2, "qtime": 18, "bar": 0, "isDrum": false}, {"time": 22, "velocity": 0, "pitch": 38, "instrument": 32, "track": 2, "qtime": 22, "bar": 0, "isDrum": false}, {"time": 24, "velocity": 108, "pitch": 41, "instrument": 32, "track": 2, "qtime": 24, "bar": 0, "isDrum": false}, {"time": 27, "velocity": 0, "pitch": 41, "instrument": 32, "track": 2, "qtime": 27, "bar": 0, "isDrum": false}, {"time": 30, "velocity": 108, "pitch": 41, "instrument": 32, "track": 2, "qtime": 30, "bar": 0, "isDrum": false}, {"time": 36, "velocity": 0, "pitch": 41, "instrument": 32, "track": 2, "qtime": 36, "bar": 0, "isDrum": false}, {"time": 36, "velocity": 108, "pitch": 43, "instrument": 32, "track": 2, "qtime": 36, "bar": 0, "isDrum": false}, {"time": 42, "velocity": 0, "pitch": 43, "instrument": 32, "track": 2, "qtime": 42, "bar": 0, "isDrum": false}, {"time": 42, "velocity": 108, "pitch": 41, "instrument": 32, "track": 2, "qtime": 42, "bar": 0, "isDrum": false}, {"time": 44, "velocity": 0, "pitch": 41, "instrument": 32, "track": 2, "qtime": 44, "bar": 0, "isDrum": false}, {"time": 48, "velocity": 108, "pitch": 34, "instrument": 32, "track": 2, "qtime": 0, "bar": 1, "isDrum": false}, {"time": 50, "velocity": 0, "pitch": 34, "instrument": 32, "track": 2, "qtime": 2, "bar": 1, "isDrum": false}, {"time": 54, "velocity": 108, "pitch": 34, "instrument": 32, "track": 2, "qtime": 6, "bar": 1, "isDrum": false}, {"time": 60, "velocity": 0, "pitch": 34, "instrument": 32, "track": 2, "qtime": 12, "bar": 1, "isDrum": false}, {"time": 60, "velocity": 108, "pitch": 38, "instrument": 32, "track": 2, "qtime": 12, "bar": 1, "isDrum": false}, {"time": 63, "velocity": 0, "pitch": 38, "instrument": 32, "track": 2, "qtime": 15, "bar": 1, "isDrum": false}, {"time": 66, "velocity": 108, "pitch": 38, "instrument": 32, "track": 2, "qtime": 18, "bar": 1, "isDrum": false}, {"time": 70, "velocity": 0, "pitch": 38, "instrument": 32, "track": 2, "qtime": 22, "bar": 1, "isDrum": false}, {"time": 72, "velocity": 108, "pitch": 41, "instrument": 32, "track": 2, "qtime": 24, "bar": 1, "isDrum": false}, {"time": 75, "velocity": 0, "pitch": 41, "instrument": 32, "track": 2, "qtime": 27, "bar": 1, "isDrum": false}, {"time": 78, "velocity": 108, "pitch": 41, "instrument": 32, "track": 2, "qtime": 30, "bar": 1, "isDrum": false}, {"time": 84, "velocity": 0, "pitch": 41, "instrument": 32, "track": 2, "qtime": 36, "bar": 1, "isDrum": false}, {"time": 84, "velocity": 108, "pitch": 43, "instrument": 32, "track": 2, "qtime": 36, "bar": 1, "isDrum": false}, {"time": 89, "velocity": 0, "pitch": 43, "instrument": 32, "track": 2, "qtime": 41, "bar": 1, "isDrum": false}, {"time": 90, "velocity": 108, "pitch": 41, "instrument": 32, "track": 2, "qtime": 42, "bar": 1, "isDrum": false}, {"time": 96, "velocity": 108, "pitch": 39, "instrument": 32, "track": 2, "qtime": 0, "bar": 2, "isDrum": false}, {"time": 97, "velocity": 0, "pitch": 41, "instrument": 32, "track": 2, "qtime": 1, "bar": 2, "isDrum": false}, {"time": 100, "velocity": 0, "pitch": 39, "instrument": 32, "track": 2, "qtime": 4, "bar": 2, "isDrum": false}, {"time": 102, "velocity": 108, "pitch": 39, "instrument": 32, "track": 2, "qtime": 6, "bar": 2, "isDrum": false}, {"time": 107, "velocity": 0, "pitch": 39, "instrument": 32, "track": 2, "qtime": 11, "bar": 2, "isDrum": false}, {"time": 108, "velocity": 108, "pitch": 43, "instrument": 32, "track": 2, "qtime": 12, "bar": 2, "isDrum": false}, {"time": 111, "velocity": 0, "pitch": 43, "instrument": 32, "track": 2, "qtime": 15, "bar": 2, "isDrum": false}, {"time": 114, "velocity": 108, "pitch": 43, "instrument": 32, "track": 2, "qtime": 18, "bar": 2, "isDrum": false}, {"time": 119, "velocity": 0, "pitch": 43, "instrument": 32, "track": 2, "qtime": 23, "bar": 2, "isDrum": false}, {"time": 120, "velocity": 108, "pitch": 46, "instrument": 32, "track": 2, "qtime": 24, "bar": 2, "isDrum": false}, {"time": 124, "velocity": 0, "pitch": 46, "instrument": 32, "track": 2, "qtime": 28, "bar": 2, "isDrum": false}, {"time": 126, "velocity": 108, "pitch": 46, "instrument": 32, "track": 2, "qtime": 30, "bar": 2, "isDrum": false}, {"time": 132, "velocity": 0, "pitch": 46, "instrument": 32, "track": 2, "qtime": 36, "bar": 2, "isDrum": false}, {"time": 132, "velocity": 108, "pitch": 48, "instrument": 32, "track": 2, "qtime": 36, "bar": 2, "isDrum": false}, {"time": 137, "velocity": 0, "pitch": 48, "instrument": 32, "track": 2, "qtime": 41, "bar": 2, "isDrum": false}, {"time": 138, "velocity": 108, "pitch": 46, "instrument": 32, "track": 2, "qtime": 42, "bar": 2, "isDrum": false}, {"time": 144, "velocity": 0, "pitch": 46, "instrument": 32, "track": 2, "qtime": 48, "bar": 2, "isDrum": false}, {"time": 144, "velocity": 108, "pitch": 39, "instrument": 32, "track": 2, "qtime": 0, "bar": 3, "isDrum": false}, {"time": 147, "velocity": 0, "pitch": 39, "instrument": 32, "track": 2, "qtime": 3, "bar": 3, "isDrum": false}, {"time": 150, "velocity": 108, "pitch": 39, "instrument": 32, "track": 2, "qtime": 6, "bar": 3, "isDrum": false}, {"time": 156, "velocity": 0, "pitch": 39, "instrument": 32, "track": 2, "qtime": 12, "bar": 3, "isDrum": false}, {"time": 156, "velocity": 108, "pitch": 43, "instrument": 32, "track": 2, "qtime": 12, "bar": 3, "isDrum": false}, {"time": 158, "velocity": 0, "pitch": 43, "instrument": 32, "track": 2, "qtime": 14, "bar": 3, "isDrum": false}, {"time": 162, "velocity": 108, "pitch": 43, "instrument": 32, "track": 2, "qtime": 18, "bar": 3, "isDrum": false}, {"time": 168, "velocity": 0, "pitch": 43, "instrument": 32, "track": 2, "qtime": 24, "bar": 3, "isDrum": false}, {"time": 168, "velocity": 108, "pitch": 46, "instrument": 32, "track": 2, "qtime": 24, "bar": 3, "isDrum": false}, {"time": 172, "velocity": 0, "pitch": 46, "instrument": 32, "track": 2, "qtime": 28, "bar": 3, "isDrum": false}, {"time": 174, "velocity": 108, "pitch": 46, "instrument": 32, "track": 2, "qtime": 30, "bar": 3, "isDrum": false}, {"time": 180, "velocity": 108, "pitch": 48, "instrument": 32, "track": 2, "qtime": 36, "bar": 3, "isDrum": false}, {"time": 181, "velocity": 0, "pitch": 46, "instrument": 32, "track": 2, "qtime": 37, "bar": 3, "isDrum": false}, {"time": 186, "velocity": 108, "pitch": 46, "instrument": 32, "track": 2, "qtime": 42, "bar": 3, "isDrum": false}, {"time": 188, "velocity": 0, "pitch": 46, "instrument": 32, "track": 2, "qtime": 44, "bar": 3, "isDrum": false}, {"time": 188, "velocity": 0, "pitch": 48, "instrument": 32, "track": 2, "qtime": 44, "bar": 3, "isDrum": false}, {"time": 192, "velocity": 108, "pitch": 32, "instrument": 32, "track": 2, "qtime": 0, "bar": 4, "isDrum": false}, {"time": 195, "velocity": 0, "pitch": 32, "instrument": 32, "track": 2, "qtime": 3, "bar": 4, "isDrum": false}, {"time": 198, "velocity": 108, "pitch": 32, "instrument": 32, "track": 2, "qtime": 6, "bar": 4, "isDrum": false}, {"time": 204, "velocity": 0, "pitch": 32, "instrument": 32, "track": 2, "qtime": 12, "bar": 4, "isDrum": false}, {"time": 204, "velocity": 108, "pitch": 36, "instrument": 32, "track": 2, "qtime": 12, "bar": 4, "isDrum": false}, {"time": 207, "velocity": 0, "pitch": 36, "instrument": 32, "track": 2, "qtime": 15, "bar": 4, "isDrum": false}, {"time": 210, "velocity": 108, "pitch": 36, "instrument": 32, "track": 2, "qtime": 18, "bar": 4, "isDrum": false}, {"time": 213, "velocity": 0, "pitch": 36, "instrument": 32, "track": 2, "qtime": 21, "bar": 4, "isDrum": false}, {"time": 216, "velocity": 108, "pitch": 39, "instrument": 32, "track": 2, "qtime": 24, "bar": 4, "isDrum": false}, {"time": 219, "velocity": 0, "pitch": 39, "instrument": 32, "track": 2, "qtime": 27, "bar": 4, "isDrum": false}, {"time": 222, "velocity": 108, "pitch": 39, "instrument": 32, "track": 2, "qtime": 30, "bar": 4, "isDrum": false}, {"time": 228, "velocity": 0, "pitch": 39, "instrument": 32, "track": 2, "qtime": 36, "bar": 4, "isDrum": false}, {"time": 228, "velocity": 108, "pitch": 41, "instrument": 32, "track": 2, "qtime": 36, "bar": 4, "isDrum": false}, {"time": 234, "velocity": 0, "pitch": 41, "instrument": 32, "track": 2, "qtime": 42, "bar": 4, "isDrum": false}, {"time": 234, "velocity": 108, "pitch": 39, "instrument": 32, "track": 2, "qtime": 42, "bar": 4, "isDrum": false}, {"time": 239, "velocity": 0, "pitch": 39, "instrument": 32, "track": 2, "qtime": 47, "bar": 4, "isDrum": false}, {"time": 240, "velocity": 108, "pitch": 32, "instrument": 32, "track": 2, "qtime": 0, "bar": 5, "isDrum": false}, {"time": 243, "velocity": 0, "pitch": 32, "instrument": 32, "track": 2, "qtime": 3, "bar": 5, "isDrum": false}, {"time": 246, "velocity": 108, "pitch": 32, "instrument": 32, "track": 2, "qtime": 6, "bar": 5, "isDrum": false}, {"time": 252, "velocity": 0, "pitch": 32, "instrument": 32, "track": 2, "qtime": 12, "bar": 5, "isDrum": false}, {"time": 252, "velocity": 108, "pitch": 36, "instrument": 32, "track": 2, "qtime": 12, "bar": 5, "isDrum": false}, {"time": 256, "velocity": 0, "pitch": 36, "instrument": 32, "track": 2, "qtime": 16, "bar": 5, "isDrum": false}, {"time": 258, "velocity": 108, "pitch": 36, "instrument": 32, "track": 2, "qtime": 18, "bar": 5, "isDrum": false}, {"time": 261, "velocity": 0, "pitch": 36, "instrument": 32, "track": 2, "qtime": 21, "bar": 5, "isDrum": false}, {"time": 264, "velocity": 108, "pitch": 39, "instrument": 32, "track": 2, "qtime": 24, "bar": 5, "isDrum": false}, {"time": 267, "velocity": 0, "pitch": 39, "instrument": 32, "track": 2, "qtime": 27, "bar": 5, "isDrum": false}, {"time": 270, "velocity": 108, "pitch": 39, "instrument": 32, "track": 2, "qtime": 30, "bar": 5, "isDrum": false}, {"time": 276, "velocity": 108, "pitch": 41, "instrument": 32, "track": 2, "qtime": 36, "bar": 5, "isDrum": false}, {"time": 277, "velocity": 0, "pitch": 39, "instrument": 32, "track": 2, "qtime": 37, "bar": 5, "isDrum": false}, {"time": 282, "velocity": 0, "pitch": 41, "instrument": 32, "track": 2, "qtime": 42, "bar": 5, "isDrum": false}, {"time": 282, "velocity": 108, "pitch": 39, "instrument": 32, "track": 2, "qtime": 42, "bar": 5, "isDrum": false}, {"time": 286, "velocity": 0, "pitch": 39, "instrument": 32, "track": 2, "qtime": 46, "bar": 5, "isDrum": false}, {"time": 288, "velocity": 108, "pitch": 39, "instrument": 32, "track": 2, "qtime": 0, "bar": 6, "isDrum": false}, {"time": 291, "velocity": 0, "pitch": 39, "instrument": 32, "track": 2, "qtime": 3, "bar": 6, "isDrum": false}, {"time": 294, "velocity": 108, "pitch": 39, "instrument": 32, "track": 2, "qtime": 6, "bar": 6, "isDrum": false}, {"time": 300, "velocity": 0, "pitch": 39, "instrument": 32, "track": 2, "qtime": 12, "bar": 6, "isDrum": false}, {"time": 300, "velocity": 108, "pitch": 43, "instrument": 32, "track": 2, "qtime": 12, "bar": 6, "isDrum": false}, {"time": 303, "velocity": 0, "pitch": 43, "instrument": 32, "track": 2, "qtime": 15, "bar": 6, "isDrum": false}, {"time": 306, "velocity": 108, "pitch": 43, "instrument": 32, "track": 2, "qtime": 18, "bar": 6, "isDrum": false}, {"time": 310, "velocity": 0, "pitch": 43, "instrument": 32, "track": 2, "qtime": 22, "bar": 6, "isDrum": false}, {"time": 312, "velocity": 108, "pitch": 46, "instrument": 32, "track": 2, "qtime": 24, "bar": 6, "isDrum": false}, {"time": 316, "velocity": 0, "pitch": 46, "instrument": 32, "track": 2, "qtime": 28, "bar": 6, "isDrum": false}, {"time": 318, "velocity": 108, "pitch": 46, "instrument": 32, "track": 2, "qtime": 30, "bar": 6, "isDrum": false}, {"time": 324, "velocity": 0, "pitch": 46, "instrument": 32, "track": 2, "qtime": 36, "bar": 6, "isDrum": false}, {"time": 324, "velocity": 108, "pitch": 48, "instrument": 32, "track": 2, "qtime": 36, "bar": 6, "isDrum": false}, {"time": 330, "velocity": 0, "pitch": 48, "instrument": 32, "track": 2, "qtime": 42, "bar": 6, "isDrum": false}, {"time": 330, "velocity": 108, "pitch": 46, "instrument": 32, "track": 2, "qtime": 42, "bar": 6, "isDrum": false}, {"time": 336, "velocity": 0, "pitch": 46, "instrument": 32, "track": 2, "qtime": 48, "bar": 6, "isDrum": false}, {"time": 336, "velocity": 108, "pitch": 39, "instrument": 32, "track": 2, "qtime": 0, "bar": 7, "isDrum": false}, {"time": 339, "velocity": 0, "pitch": 39, "instrument": 32, "track": 2, "qtime": 3, "bar": 7, "isDrum": false}, {"time": 342, "velocity": 108, "pitch": 39, "instrument": 32, "track": 2, "qtime": 6, "bar": 7, "isDrum": false}, {"time": 348, "velocity": 0, "pitch": 39, "instrument": 32, "track": 2, "qtime": 12, "bar": 7, "isDrum": false}, {"time": 348, "velocity": 108, "pitch": 43, "instrument": 32, "track": 2, "qtime": 12, "bar": 7, "isDrum": false}, {"time": 351, "velocity": 0, "pitch": 43, "instrument": 32, "track": 2, "qtime": 15, "bar": 7, "isDrum": false}, {"time": 354, "velocity": 108, "pitch": 43, "instrument": 32, "track": 2, "qtime": 18, "bar": 7, "isDrum": false}, {"time": 360, "velocity": 0, "pitch": 43, "instrument": 32, "track": 2, "qtime": 24, "bar": 7, "isDrum": false}, {"time": 360, "velocity": 108, "pitch": 46, "instrument": 32, "track": 2, "qtime": 24, "bar": 7, "isDrum": false}, {"time": 363, "velocity": 0, "pitch": 46, "instrument": 32, "track": 2, "qtime": 27, "bar": 7, "isDrum": false}, {"time": 366, "velocity": 108, "pitch": 46, "instrument": 32, "track": 2, "qtime": 30, "bar": 7, "isDrum": false}, {"time": 372, "velocity": 108, "pitch": 48, "instrument": 32, "track": 2, "qtime": 36, "bar": 7, "isDrum": false}, {"time": 373, "velocity": 0, "pitch": 46, "instrument": 32, "track": 2, "qtime": 37, "bar": 7, "isDrum": false}, {"time": 378, "velocity": 0, "pitch": 48, "instrument": 32, "track": 2, "qtime": 42, "bar": 7, "isDrum": false}, {"time": 378, "velocity": 108, "pitch": 46, "instrument": 32, "track": 2, "qtime": 42, "bar": 7, "isDrum": false}, {"time": 380, "velocity": 0, "pitch": 46, "instrument": 32, "track": 2, "qtime": 44, "bar": 7, "isDrum": false}, {"time": 0, "velocity": 108, "pitch": 46, "instrument": 28, "track": 3, "qtime": 0, "bar": 0, "isDrum": false}, {"time": 0, "velocity": 108, "pitch": 53, "instrument": 28, "track": 3, "qtime": 0, "bar": 0, "isDrum": false}, {"time": 2, "velocity": 0, "pitch": 46, "instrument": 28, "track": 3, "qtime": 2, "bar": 0, "isDrum": false}, {"time": 2, "velocity": 0, "pitch": 53, "instrument": 28, "track": 3, "qtime": 2, "bar": 0, "isDrum": false}, {"time": 12, "velocity": 108, "pitch": 46, "instrument": 28, "track": 3, "qtime": 12, "bar": 0, "isDrum": false}, {"time": 12, "velocity": 108, "pitch": 55, "instrument": 28, "track": 3, "qtime": 12, "bar": 0, "isDrum": false}, {"time": 15, "velocity": 0, "pitch": 46, "instrument": 28, "track": 3, "qtime": 15, "bar": 0, "isDrum": false}, {"time": 15, "velocity": 0, "pitch": 55, "instrument": 28, "track": 3, "qtime": 15, "bar": 0, "isDrum": false}, {"time": 24, "velocity": 108, "pitch": 46, "instrument": 28, "track": 3, "qtime": 24, "bar": 0, "isDrum": false}, {"time": 24, "velocity": 108, "pitch": 53, "instrument": 28, "track": 3, "qtime": 24, "bar": 0, "isDrum": false}, {"time": 26, "velocity": 0, "pitch": 53, "instrument": 28, "track": 3, "qtime": 26, "bar": 0, "isDrum": false}, {"time": 27, "velocity": 0, "pitch": 46, "instrument": 28, "track": 3, "qtime": 27, "bar": 0, "isDrum": false}, {"time": 36, "velocity": 108, "pitch": 46, "instrument": 28, "track": 3, "qtime": 36, "bar": 0, "isDrum": false}, {"time": 36, "velocity": 108, "pitch": 55, "instrument": 28, "track": 3, "qtime": 36, "bar": 0, "isDrum": false}, {"time": 39, "velocity": 0, "pitch": 46, "instrument": 28, "track": 3, "qtime": 39, "bar": 0, "isDrum": false}, {"time": 39, "velocity": 0, "pitch": 55, "instrument": 28, "track": 3, "qtime": 39, "bar": 0, "isDrum": false}, {"time": 48, "velocity": 108, "pitch": 46, "instrument": 28, "track": 3, "qtime": 0, "bar": 1, "isDrum": false}, {"time": 48, "velocity": 108, "pitch": 53, "instrument": 28, "track": 3, "qtime": 0, "bar": 1, "isDrum": false}, {"time": 50, "velocity": 0, "pitch": 53, "instrument": 28, "track": 3, "qtime": 2, "bar": 1, "isDrum": false}, {"time": 51, "velocity": 0, "pitch": 46, "instrument": 28, "track": 3, "qtime": 3, "bar": 1, "isDrum": false}, {"time": 60, "velocity": 108, "pitch": 46, "instrument": 28, "track": 3, "qtime": 12, "bar": 1, "isDrum": false}, {"time": 60, "velocity": 108, "pitch": 55, "instrument": 28, "track": 3, "qtime": 12, "bar": 1, "isDrum": false}, {"time": 63, "velocity": 0, "pitch": 46, "instrument": 28, "track": 3, "qtime": 15, "bar": 1, "isDrum": false}, {"time": 63, "velocity": 0, "pitch": 55, "instrument": 28, "track": 3, "qtime": 15, "bar": 1, "isDrum": false}, {"time": 72, "velocity": 108, "pitch": 46, "instrument": 28, "track": 3, "qtime": 24, "bar": 1, "isDrum": false}, {"time": 72, "velocity": 108, "pitch": 53, "instrument": 28, "track": 3, "qtime": 24, "bar": 1, "isDrum": false}, {"time": 75, "velocity": 0, "pitch": 46, "instrument": 28, "track": 3, "qtime": 27, "bar": 1, "isDrum": false}, {"time": 75, "velocity": 0, "pitch": 53, "instrument": 28, "track": 3, "qtime": 27, "bar": 1, "isDrum": false}, {"time": 84, "velocity": 108, "pitch": 46, "instrument": 28, "track": 3, "qtime": 36, "bar": 1, "isDrum": false}, {"time": 84, "velocity": 108, "pitch": 55, "instrument": 28, "track": 3, "qtime": 36, "bar": 1, "isDrum": false}, {"time": 87, "velocity": 0, "pitch": 46, "instrument": 28, "track": 3, "qtime": 39, "bar": 1, "isDrum": false}, {"time": 87, "velocity": 0, "pitch": 55, "instrument": 28, "track": 3, "qtime": 39, "bar": 1, "isDrum": false}, {"time": 96, "velocity": 108, "pitch": 51, "instrument": 28, "track": 3, "qtime": 0, "bar": 2, "isDrum": false}, {"time": 96, "velocity": 108, "pitch": 58, "instrument": 28, "track": 3, "qtime": 0, "bar": 2, "isDrum": false}, {"time": 98, "velocity": 0, "pitch": 58, "instrument": 28, "track": 3, "qtime": 2, "bar": 2, "isDrum": false}, {"time": 99, "velocity": 0, "pitch": 51, "instrument": 28, "track": 3, "qtime": 3, "bar": 2, "isDrum": false}, {"time": 102, "velocity": 108, "pitch": 51, "instrument": 28, "track": 3, "qtime": 6, "bar": 2, "isDrum": false}, {"time": 102, "velocity": 108, "pitch": 58, "instrument": 28, "track": 3, "qtime": 6, "bar": 2, "isDrum": false}, {"time": 105, "velocity": 0, "pitch": 51, "instrument": 28, "track": 3, "qtime": 9, "bar": 2, "isDrum": false}, {"time": 105, "velocity": 0, "pitch": 58, "instrument": 28, "track": 3, "qtime": 9, "bar": 2, "isDrum": false}, {"time": 108, "velocity": 108, "pitch": 51, "instrument": 28, "track": 3, "qtime": 12, "bar": 2, "isDrum": false}, {"time": 108, "velocity": 108, "pitch": 60, "instrument": 28, "track": 3, "qtime": 12, "bar": 2, "isDrum": false}, {"time": 111, "velocity": 0, "pitch": 60, "instrument": 28, "track": 3, "qtime": 15, "bar": 2, "isDrum": false}, {"time": 112, "velocity": 0, "pitch": 51, "instrument": 28, "track": 3, "qtime": 16, "bar": 2, "isDrum": false}, {"time": 114, "velocity": 108, "pitch": 51, "instrument": 28, "track": 3, "qtime": 18, "bar": 2, "isDrum": false}, {"time": 114, "velocity": 108, "pitch": 58, "instrument": 28, "track": 3, "qtime": 18, "bar": 2, "isDrum": false}, {"time": 116, "velocity": 0, "pitch": 51, "instrument": 28, "track": 3, "qtime": 20, "bar": 2, "isDrum": false}, {"time": 116, "velocity": 0, "pitch": 58, "instrument": 28, "track": 3, "qtime": 20, "bar": 2, "isDrum": false}, {"time": 120, "velocity": 108, "pitch": 51, "instrument": 28, "track": 3, "qtime": 24, "bar": 2, "isDrum": false}, {"time": 120, "velocity": 108, "pitch": 58, "instrument": 28, "track": 3, "qtime": 24, "bar": 2, "isDrum": false}, {"time": 122, "velocity": 0, "pitch": 58, "instrument": 28, "track": 3, "qtime": 26, "bar": 2, "isDrum": false}, {"time": 123, "velocity": 0, "pitch": 51, "instrument": 28, "track": 3, "qtime": 27, "bar": 2, "isDrum": false}, {"time": 126, "velocity": 108, "pitch": 51, "instrument": 28, "track": 3, "qtime": 30, "bar": 2, "isDrum": false}, {"time": 126, "velocity": 108, "pitch": 58, "instrument": 28, "track": 3, "qtime": 30, "bar": 2, "isDrum": false}, {"time": 128, "velocity": 0, "pitch": 51, "instrument": 28, "track": 3, "qtime": 32, "bar": 2, "isDrum": false}, {"time": 128, "velocity": 0, "pitch": 58, "instrument": 28, "track": 3, "qtime": 32, "bar": 2, "isDrum": false}, {"time": 132, "velocity": 108, "pitch": 51, "instrument": 28, "track": 3, "qtime": 36, "bar": 2, "isDrum": false}, {"time": 132, "velocity": 108, "pitch": 60, "instrument": 28, "track": 3, "qtime": 36, "bar": 2, "isDrum": false}, {"time": 134, "velocity": 0, "pitch": 60, "instrument": 28, "track": 3, "qtime": 38, "bar": 2, "isDrum": false}, {"time": 135, "velocity": 0, "pitch": 51, "instrument": 28, "track": 3, "qtime": 39, "bar": 2, "isDrum": false}, {"time": 138, "velocity": 108, "pitch": 51, "instrument": 28, "track": 3, "qtime": 42, "bar": 2, "isDrum": false}, {"time": 138, "velocity": 108, "pitch": 58, "instrument": 28, "track": 3, "qtime": 42, "bar": 2, "isDrum": false}, {"time": 140, "velocity": 0, "pitch": 51, "instrument": 28, "track": 3, "qtime": 44, "bar": 2, "isDrum": false}, {"time": 140, "velocity": 0, "pitch": 58, "instrument": 28, "track": 3, "qtime": 44, "bar": 2, "isDrum": false}, {"time": 144, "velocity": 108, "pitch": 51, "instrument": 28, "track": 3, "qtime": 0, "bar": 3, "isDrum": false}, {"time": 144, "velocity": 108, "pitch": 58, "instrument": 28, "track": 3, "qtime": 0, "bar": 3, "isDrum": false}, {"time": 147, "velocity": 0, "pitch": 51, "instrument": 28, "track": 3, "qtime": 3, "bar": 3, "isDrum": false}, {"time": 147, "velocity": 0, "pitch": 58, "instrument": 28, "track": 3, "qtime": 3, "bar": 3, "isDrum": false}, {"time": 156, "velocity": 108, "pitch": 51, "instrument": 28, "track": 3, "qtime": 12, "bar": 3, "isDrum": false}, {"time": 156, "velocity": 108, "pitch": 60, "instrument": 28, "track": 3, "qtime": 12, "bar": 3, "isDrum": false}, {"time": 159, "velocity": 0, "pitch": 51, "instrument": 28, "track": 3, "qtime": 15, "bar": 3, "isDrum": false}, {"time": 159, "velocity": 0, "pitch": 60, "instrument": 28, "track": 3, "qtime": 15, "bar": 3, "isDrum": false}, {"time": 168, "velocity": 108, "pitch": 51, "instrument": 28, "track": 3, "qtime": 24, "bar": 3, "isDrum": false}, {"time": 168, "velocity": 108, "pitch": 58, "instrument": 28, "track": 3, "qtime": 24, "bar": 3, "isDrum": false}, {"time": 170, "velocity": 0, "pitch": 58, "instrument": 28, "track": 3, "qtime": 26, "bar": 3, "isDrum": false}, {"time": 171, "velocity": 0, "pitch": 51, "instrument": 28, "track": 3, "qtime": 27, "bar": 3, "isDrum": false}, {"time": 180, "velocity": 108, "pitch": 51, "instrument": 28, "track": 3, "qtime": 36, "bar": 3, "isDrum": false}, {"time": 180, "velocity": 108, "pitch": 60, "instrument": 28, "track": 3, "qtime": 36, "bar": 3, "isDrum": false}, {"time": 182, "velocity": 0, "pitch": 60, "instrument": 28, "track": 3, "qtime": 38, "bar": 3, "isDrum": false}, {"time": 183, "velocity": 0, "pitch": 51, "instrument": 28, "track": 3, "qtime": 39, "bar": 3, "isDrum": false}, {"time": 192, "velocity": 108, "pitch": 74, "instrument": 28, "track": 3, "qtime": 0, "bar": 4, "isDrum": false}, {"time": 192, "velocity": 108, "pitch": 79, "instrument": 28, "track": 3, "qtime": 0, "bar": 4, "isDrum": false}, {"time": 198, "velocity": 0, "pitch": 74, "instrument": 28, "track": 3, "qtime": 6, "bar": 4, "isDrum": false}, {"time": 198, "velocity": 108, "pitch": 75, "instrument": 28, "track": 3, "qtime": 6, "bar": 4, "isDrum": false}, {"time": 198, "velocity": 108, "pitch": 80, "instrument": 28, "track": 3, "qtime": 6, "bar": 4, "isDrum": false}, {"time": 199, "velocity": 0, "pitch": 79, "instrument": 28, "track": 3, "qtime": 7, "bar": 4, "isDrum": false}, {"time": 201, "velocity": 0, "pitch": 80, "instrument": 28, "track": 3, "qtime": 9, "bar": 4, "isDrum": false}, {"time": 202, "velocity": 0, "pitch": 75, "instrument": 28, "track": 3, "qtime": 10, "bar": 4, "isDrum": false}, {"time": 204, "velocity": 108, "pitch": 75, "instrument": 28, "track": 3, "qtime": 12, "bar": 4, "isDrum": false}, {"time": 204, "velocity": 108, "pitch": 80, "instrument": 28, "track": 3, "qtime": 12, "bar": 4, "isDrum": false}, {"time": 208, "velocity": 0, "pitch": 75, "instrument": 28, "track": 3, "qtime": 16, "bar": 4, "isDrum": false}, {"time": 208, "velocity": 0, "pitch": 80, "instrument": 28, "track": 3, "qtime": 16, "bar": 4, "isDrum": false}, {"time": 210, "velocity": 108, "pitch": 75, "instrument": 28, "track": 3, "qtime": 18, "bar": 4, "isDrum": false}, {"time": 210, "velocity": 108, "pitch": 80, "instrument": 28, "track": 3, "qtime": 18, "bar": 4, "isDrum": false}, {"time": 214, "velocity": 0, "pitch": 75, "instrument": 28, "track": 3, "qtime": 22, "bar": 4, "isDrum": false}, {"time": 214, "velocity": 0, "pitch": 80, "instrument": 28, "track": 3, "qtime": 22, "bar": 4, "isDrum": false}, {"time": 216, "velocity": 108, "pitch": 75, "instrument": 28, "track": 3, "qtime": 24, "bar": 4, "isDrum": false}, {"time": 216, "velocity": 108, "pitch": 80, "instrument": 28, "track": 3, "qtime": 24, "bar": 4, "isDrum": false}, {"time": 220, "velocity": 0, "pitch": 75, "instrument": 28, "track": 3, "qtime": 28, "bar": 4, "isDrum": false}, {"time": 220, "velocity": 0, "pitch": 80, "instrument": 28, "track": 3, "qtime": 28, "bar": 4, "isDrum": false}, {"time": 222, "velocity": 108, "pitch": 75, "instrument": 28, "track": 3, "qtime": 30, "bar": 4, "isDrum": false}, {"time": 222, "velocity": 108, "pitch": 80, "instrument": 28, "track": 3, "qtime": 30, "bar": 4, "isDrum": false}, {"time": 225, "velocity": 0, "pitch": 75, "instrument": 28, "track": 3, "qtime": 33, "bar": 4, "isDrum": false}, {"time": 225, "velocity": 0, "pitch": 80, "instrument": 28, "track": 3, "qtime": 33, "bar": 4, "isDrum": false}, {"time": 228, "velocity": 108, "pitch": 75, "instrument": 28, "track": 3, "qtime": 36, "bar": 4, "isDrum": false}, {"time": 228, "velocity": 108, "pitch": 80, "instrument": 28, "track": 3, "qtime": 36, "bar": 4, "isDrum": false}, {"time": 231, "velocity": 0, "pitch": 75, "instrument": 28, "track": 3, "qtime": 39, "bar": 4, "isDrum": false}, {"time": 231, "velocity": 0, "pitch": 80, "instrument": 28, "track": 3, "qtime": 39, "bar": 4, "isDrum": false}, {"time": 234, "velocity": 108, "pitch": 75, "instrument": 28, "track": 3, "qtime": 42, "bar": 4, "isDrum": false}, {"time": 234, "velocity": 108, "pitch": 80, "instrument": 28, "track": 3, "qtime": 42, "bar": 4, "isDrum": false}, {"time": 238, "velocity": 0, "pitch": 75, "instrument": 28, "track": 3, "qtime": 46, "bar": 4, "isDrum": false}, {"time": 240, "velocity": 0, "pitch": 80, "instrument": 28, "track": 3, "qtime": 48, "bar": 4, "isDrum": false}, {"time": 240, "velocity": 108, "pitch": 74, "instrument": 28, "track": 3, "qtime": 0, "bar": 5, "isDrum": false}, {"time": 240, "velocity": 108, "pitch": 79, "instrument": 28, "track": 3, "qtime": 0, "bar": 5, "isDrum": false}, {"time": 245, "velocity": 0, "pitch": 74, "instrument": 28, "track": 3, "qtime": 5, "bar": 5, "isDrum": false}, {"time": 246, "velocity": 0, "pitch": 79, "instrument": 28, "track": 3, "qtime": 6, "bar": 5, "isDrum": false}, {"time": 246, "velocity": 108, "pitch": 75, "instrument": 28, "track": 3, "qtime": 6, "bar": 5, "isDrum": false}, {"time": 246, "velocity": 108, "pitch": 80, "instrument": 28, "track": 3, "qtime": 6, "bar": 5, "isDrum": false}, {"time": 249, "velocity": 0, "pitch": 75, "instrument": 28, "track": 3, "qtime": 9, "bar": 5, "isDrum": false}, {"time": 249, "velocity": 0, "pitch": 80, "instrument": 28, "track": 3, "qtime": 9, "bar": 5, "isDrum": false}, {"time": 252, "velocity": 108, "pitch": 75, "instrument": 28, "track": 3, "qtime": 12, "bar": 5, "isDrum": false}, {"time": 252, "velocity": 108, "pitch": 80, "instrument": 28, "track": 3, "qtime": 12, "bar": 5, "isDrum": false}, {"time": 255, "velocity": 0, "pitch": 80, "instrument": 28, "track": 3, "qtime": 15, "bar": 5, "isDrum": false}, {"time": 256, "velocity": 0, "pitch": 75, "instrument": 28, "track": 3, "qtime": 16, "bar": 5, "isDrum": false}, {"time": 258, "velocity": 108, "pitch": 75, "instrument": 28, "track": 3, "qtime": 18, "bar": 5, "isDrum": false}, {"time": 258, "velocity": 108, "pitch": 80, "instrument": 28, "track": 3, "qtime": 18, "bar": 5, "isDrum": false}, {"time": 261, "velocity": 0, "pitch": 75, "instrument": 28, "track": 3, "qtime": 21, "bar": 5, "isDrum": false}, {"time": 262, "velocity": 0, "pitch": 80, "instrument": 28, "track": 3, "qtime": 22, "bar": 5, "isDrum": false}, {"time": 264, "velocity": 108, "pitch": 75, "instrument": 28, "track": 3, "qtime": 24, "bar": 5, "isDrum": false}, {"time": 264, "velocity": 108, "pitch": 80, "instrument": 28, "track": 3, "qtime": 24, "bar": 5, "isDrum": false}, {"time": 268, "velocity": 0, "pitch": 75, "instrument": 28, "track": 3, "qtime": 28, "bar": 5, "isDrum": false}, {"time": 268, "velocity": 0, "pitch": 80, "instrument": 28, "track": 3, "qtime": 28, "bar": 5, "isDrum": false}, {"time": 270, "velocity": 108, "pitch": 75, "instrument": 28, "track": 3, "qtime": 30, "bar": 5, "isDrum": false}, {"time": 270, "velocity": 108, "pitch": 80, "instrument": 28, "track": 3, "qtime": 30, "bar": 5, "isDrum": false}, {"time": 273, "velocity": 0, "pitch": 80, "instrument": 28, "track": 3, "qtime": 33, "bar": 5, "isDrum": false}, {"time": 274, "velocity": 0, "pitch": 75, "instrument": 28, "track": 3, "qtime": 34, "bar": 5, "isDrum": false}, {"time": 276, "velocity": 108, "pitch": 75, "instrument": 28, "track": 3, "qtime": 36, "bar": 5, "isDrum": false}, {"time": 276, "velocity": 108, "pitch": 80, "instrument": 28, "track": 3, "qtime": 36, "bar": 5, "isDrum": false}, {"time": 279, "velocity": 0, "pitch": 75, "instrument": 28, "track": 3, "qtime": 39, "bar": 5, "isDrum": false}, {"time": 279, "velocity": 0, "pitch": 80, "instrument": 28, "track": 3, "qtime": 39, "bar": 5, "isDrum": false}, {"time": 282, "velocity": 108, "pitch": 75, "instrument": 28, "track": 3, "qtime": 42, "bar": 5, "isDrum": false}, {"time": 282, "velocity": 108, "pitch": 80, "instrument": 28, "track": 3, "qtime": 42, "bar": 5, "isDrum": false}, {"time": 285, "velocity": 0, "pitch": 75, "instrument": 28, "track": 3, "qtime": 45, "bar": 5, "isDrum": false}, {"time": 285, "velocity": 0, "pitch": 80, "instrument": 28, "track": 3, "qtime": 45, "bar": 5, "isDrum": false}, {"time": 288, "velocity": 108, "pitch": 69, "instrument": 28, "track": 3, "qtime": 0, "bar": 6, "isDrum": false}, {"time": 288, "velocity": 108, "pitch": 74, "instrument": 28, "track": 3, "qtime": 0, "bar": 6, "isDrum": false}, {"time": 294, "velocity": 0, "pitch": 69, "instrument": 28, "track": 3, "qtime": 6, "bar": 6, "isDrum": false}, {"time": 294, "velocity": 108, "pitch": 70, "instrument": 28, "track": 3, "qtime": 6, "bar": 6, "isDrum": false}, {"time": 294, "velocity": 108, "pitch": 75, "instrument": 28, "track": 3, "qtime": 6, "bar": 6, "isDrum": false}, {"time": 295, "velocity": 0, "pitch": 74, "instrument": 28, "track": 3, "qtime": 7, "bar": 6, "isDrum": false}, {"time": 297, "velocity": 0, "pitch": 70, "instrument": 28, "track": 3, "qtime": 9, "bar": 6, "isDrum": false}, {"time": 298, "velocity": 0, "pitch": 75, "instrument": 28, "track": 3, "qtime": 10, "bar": 6, "isDrum": false}, {"time": 300, "velocity": 108, "pitch": 70, "instrument": 28, "track": 3, "qtime": 12, "bar": 6, "isDrum": false}, {"time": 300, "velocity": 108, "pitch": 75, "instrument": 28, "track": 3, "qtime": 12, "bar": 6, "isDrum": false}, {"time": 303, "velocity": 0, "pitch": 70, "instrument": 28, "track": 3, "qtime": 15, "bar": 6, "isDrum": false}, {"time": 304, "velocity": 0, "pitch": 75, "instrument": 28, "track": 3, "qtime": 16, "bar": 6, "isDrum": false}, {"time": 306, "velocity": 108, "pitch": 70, "instrument": 28, "track": 3, "qtime": 18, "bar": 6, "isDrum": false}, {"time": 306, "velocity": 108, "pitch": 75, "instrument": 28, "track": 3, "qtime": 18, "bar": 6, "isDrum": false}, {"time": 309, "velocity": 0, "pitch": 70, "instrument": 28, "track": 3, "qtime": 21, "bar": 6, "isDrum": false}, {"time": 310, "velocity": 0, "pitch": 75, "instrument": 28, "track": 3, "qtime": 22, "bar": 6, "isDrum": false}, {"time": 312, "velocity": 108, "pitch": 70, "instrument": 28, "track": 3, "qtime": 24, "bar": 6, "isDrum": false}, {"time": 312, "velocity": 108, "pitch": 75, "instrument": 28, "track": 3, "qtime": 24, "bar": 6, "isDrum": false}, {"time": 315, "velocity": 0, "pitch": 70, "instrument": 28, "track": 3, "qtime": 27, "bar": 6, "isDrum": false}, {"time": 316, "velocity": 0, "pitch": 75, "instrument": 28, "track": 3, "qtime": 28, "bar": 6, "isDrum": false}, {"time": 318, "velocity": 108, "pitch": 70, "instrument": 28, "track": 3, "qtime": 30, "bar": 6, "isDrum": false}, {"time": 318, "velocity": 108, "pitch": 75, "instrument": 28, "track": 3, "qtime": 30, "bar": 6, "isDrum": false}, {"time": 321, "velocity": 0, "pitch": 70, "instrument": 28, "track": 3, "qtime": 33, "bar": 6, "isDrum": false}, {"time": 322, "velocity": 0, "pitch": 75, "instrument": 28, "track": 3, "qtime": 34, "bar": 6, "isDrum": false}, {"time": 324, "velocity": 108, "pitch": 70, "instrument": 28, "track": 3, "qtime": 36, "bar": 6, "isDrum": false}, {"time": 324, "velocity": 108, "pitch": 75, "instrument": 28, "track": 3, "qtime": 36, "bar": 6, "isDrum": false}, {"time": 327, "velocity": 0, "pitch": 70, "instrument": 28, "track": 3, "qtime": 39, "bar": 6, "isDrum": false}, {"time": 328, "velocity": 0, "pitch": 75, "instrument": 28, "track": 3, "qtime": 40, "bar": 6, "isDrum": false}, {"time": 330, "velocity": 108, "pitch": 70, "instrument": 28, "track": 3, "qtime": 42, "bar": 6, "isDrum": false}, {"time": 330, "velocity": 108, "pitch": 75, "instrument": 28, "track": 3, "qtime": 42, "bar": 6, "isDrum": false}, {"time": 334, "velocity": 0, "pitch": 70, "instrument": 28, "track": 3, "qtime": 46, "bar": 6, "isDrum": false}, {"time": 335, "velocity": 0, "pitch": 75, "instrument": 28, "track": 3, "qtime": 47, "bar": 6, "isDrum": false}, {"time": 336, "velocity": 108, "pitch": 69, "instrument": 28, "track": 3, "qtime": 0, "bar": 7, "isDrum": false}, {"time": 336, "velocity": 108, "pitch": 74, "instrument": 28, "track": 3, "qtime": 0, "bar": 7, "isDrum": false}, {"time": 341, "velocity": 0, "pitch": 69, "instrument": 28, "track": 3, "qtime": 5, "bar": 7, "isDrum": false}, {"time": 341, "velocity": 0, "pitch": 74, "instrument": 28, "track": 3, "qtime": 5, "bar": 7, "isDrum": false}, {"time": 342, "velocity": 108, "pitch": 70, "instrument": 28, "track": 3, "qtime": 6, "bar": 7, "isDrum": false}, {"time": 342, "velocity": 108, "pitch": 75, "instrument": 28, "track": 3, "qtime": 6, "bar": 7, "isDrum": false}, {"time": 345, "velocity": 0, "pitch": 70, "instrument": 28, "track": 3, "qtime": 9, "bar": 7, "isDrum": false}, {"time": 346, "velocity": 0, "pitch": 75, "instrument": 28, "track": 3, "qtime": 10, "bar": 7, "isDrum": false}, {"time": 348, "velocity": 108, "pitch": 70, "instrument": 28, "track": 3, "qtime": 12, "bar": 7, "isDrum": false}, {"time": 348, "velocity": 108, "pitch": 75, "instrument": 28, "track": 3, "qtime": 12, "bar": 7, "isDrum": false}, {"time": 351, "velocity": 0, "pitch": 70, "instrument": 28, "track": 3, "qtime": 15, "bar": 7, "isDrum": false}, {"time": 352, "velocity": 0, "pitch": 75, "instrument": 28, "track": 3, "qtime": 16, "bar": 7, "isDrum": false}, {"time": 354, "velocity": 108, "pitch": 70, "instrument": 28, "track": 3, "qtime": 18, "bar": 7, "isDrum": false}, {"time": 354, "velocity": 108, "pitch": 75, "instrument": 28, "track": 3, "qtime": 18, "bar": 7, "isDrum": false}, {"time": 357, "velocity": 0, "pitch": 70, "instrument": 28, "track": 3, "qtime": 21, "bar": 7, "isDrum": false}, {"time": 357, "velocity": 0, "pitch": 75, "instrument": 28, "track": 3, "qtime": 21, "bar": 7, "isDrum": false}, {"time": 360, "velocity": 108, "pitch": 70, "instrument": 28, "track": 3, "qtime": 24, "bar": 7, "isDrum": false}, {"time": 360, "velocity": 108, "pitch": 75, "instrument": 28, "track": 3, "qtime": 24, "bar": 7, "isDrum": false}, {"time": 363, "velocity": 0, "pitch": 70, "instrument": 28, "track": 3, "qtime": 27, "bar": 7, "isDrum": false}, {"time": 364, "velocity": 0, "pitch": 75, "instrument": 28, "track": 3, "qtime": 28, "bar": 7, "isDrum": false}, {"time": 366, "velocity": 108, "pitch": 70, "instrument": 28, "track": 3, "qtime": 30, "bar": 7, "isDrum": false}, {"time": 366, "velocity": 108, "pitch": 75, "instrument": 28, "track": 3, "qtime": 30, "bar": 7, "isDrum": false}, {"time": 369, "velocity": 0, "pitch": 70, "instrument": 28, "track": 3, "qtime": 33, "bar": 7, "isDrum": false}, {"time": 370, "velocity": 0, "pitch": 75, "instrument": 28, "track": 3, "qtime": 34, "bar": 7, "isDrum": false}, {"time": 372, "velocity": 108, "pitch": 70, "instrument": 28, "track": 3, "qtime": 36, "bar": 7, "isDrum": false}, {"time": 372, "velocity": 108, "pitch": 75, "instrument": 28, "track": 3, "qtime": 36, "bar": 7, "isDrum": false}, {"time": 375, "velocity": 0, "pitch": 70, "instrument": 28, "track": 3, "qtime": 39, "bar": 7, "isDrum": false}, {"time": 376, "velocity": 0, "pitch": 75, "instrument": 28, "track": 3, "qtime": 40, "bar": 7, "isDrum": false}, {"time": 378, "velocity": 108, "pitch": 70, "instrument": 28, "track": 3, "qtime": 42, "bar": 7, "isDrum": false}, {"time": 378, "velocity": 108, "pitch": 75, "instrument": 28, "track": 3, "qtime": 42, "bar": 7, "isDrum": false}, {"time": 382, "velocity": 0, "pitch": 70, "instrument": 28, "track": 3, "qtime": 46, "bar": 7, "isDrum": false}, {"time": 382, "velocity": 0, "pitch": 75, "instrument": 28, "track": 3, "qtime": 46, "bar": 7, "isDrum": false}, {"time": 0, "velocity": 108, "pitch": 46, "instrument": 1, "track": 5, "qtime": 0, "bar": 0, "isDrum": false}, {"time": 0, "velocity": 108, "pitch": 53, "instrument": 1, "track": 5, "qtime": 0, "bar": 0, "isDrum": false}, {"time": 0, "velocity": 108, "pitch": 74, "instrument": 1, "track": 5, "qtime": 0, "bar": 0, "isDrum": false}, {"time": 0, "velocity": 108, "pitch": 77, "instrument": 1, "track": 5, "qtime": 0, "bar": 0, "isDrum": false}, {"time": 0, "velocity": 108, "pitch": 82, "instrument": 1, "track": 5, "qtime": 0, "bar": 0, "isDrum": false}, {"time": 2, "velocity": 0, "pitch": 46, "instrument": 1, "track": 5, "qtime": 2, "bar": 0, "isDrum": false}, {"time": 2, "velocity": 0, "pitch": 53, "instrument": 1, "track": 5, "qtime": 2, "bar": 0, "isDrum": false}, {"time": 2, "velocity": 0, "pitch": 74, "instrument": 1, "track": 5, "qtime": 2, "bar": 0, "isDrum": false}, {"time": 2, "velocity": 0, "pitch": 77, "instrument": 1, "track": 5, "qtime": 2, "bar": 0, "isDrum": false}, {"time": 2, "velocity": 0, "pitch": 82, "instrument": 1, "track": 5, "qtime": 2, "bar": 0, "isDrum": false}, {"time": 6, "velocity": 108, "pitch": 46, "instrument": 1, "track": 5, "qtime": 6, "bar": 0, "isDrum": false}, {"time": 6, "velocity": 108, "pitch": 53, "instrument": 1, "track": 5, "qtime": 6, "bar": 0, "isDrum": false}, {"time": 6, "velocity": 108, "pitch": 74, "instrument": 1, "track": 5, "qtime": 6, "bar": 0, "isDrum": false}, {"time": 6, "velocity": 108, "pitch": 77, "instrument": 1, "track": 5, "qtime": 6, "bar": 0, "isDrum": false}, {"time": 6, "velocity": 108, "pitch": 82, "instrument": 1, "track": 5, "qtime": 6, "bar": 0, "isDrum": false}, {"time": 8, "velocity": 0, "pitch": 46, "instrument": 1, "track": 5, "qtime": 8, "bar": 0, "isDrum": false}, {"time": 8, "velocity": 0, "pitch": 53, "instrument": 1, "track": 5, "qtime": 8, "bar": 0, "isDrum": false}, {"time": 8, "velocity": 0, "pitch": 74, "instrument": 1, "track": 5, "qtime": 8, "bar": 0, "isDrum": false}, {"time": 8, "velocity": 0, "pitch": 77, "instrument": 1, "track": 5, "qtime": 8, "bar": 0, "isDrum": false}, {"time": 8, "velocity": 0, "pitch": 82, "instrument": 1, "track": 5, "qtime": 8, "bar": 0, "isDrum": false}, {"time": 12, "velocity": 108, "pitch": 46, "instrument": 1, "track": 5, "qtime": 12, "bar": 0, "isDrum": false}, {"time": 12, "velocity": 108, "pitch": 55, "instrument": 1, "track": 5, "qtime": 12, "bar": 0, "isDrum": false}, {"time": 12, "velocity": 108, "pitch": 74, "instrument": 1, "track": 5, "qtime": 12, "bar": 0, "isDrum": false}, {"time": 12, "velocity": 108, "pitch": 77, "instrument": 1, "track": 5, "qtime": 12, "bar": 0, "isDrum": false}, {"time": 12, "velocity": 108, "pitch": 82, "instrument": 1, "track": 5, "qtime": 12, "bar": 0, "isDrum": false}, {"time": 14, "velocity": 0, "pitch": 46, "instrument": 1, "track": 5, "qtime": 14, "bar": 0, "isDrum": false}, {"time": 14, "velocity": 0, "pitch": 55, "instrument": 1, "track": 5, "qtime": 14, "bar": 0, "isDrum": false}, {"time": 14, "velocity": 0, "pitch": 74, "instrument": 1, "track": 5, "qtime": 14, "bar": 0, "isDrum": false}, {"time": 14, "velocity": 0, "pitch": 77, "instrument": 1, "track": 5, "qtime": 14, "bar": 0, "isDrum": false}, {"time": 14, "velocity": 0, "pitch": 82, "instrument": 1, "track": 5, "qtime": 14, "bar": 0, "isDrum": false}, {"time": 18, "velocity": 108, "pitch": 46, "instrument": 1, "track": 5, "qtime": 18, "bar": 0, "isDrum": false}, {"time": 18, "velocity": 108, "pitch": 53, "instrument": 1, "track": 5, "qtime": 18, "bar": 0, "isDrum": false}, {"time": 18, "velocity": 108, "pitch": 74, "instrument": 1, "track": 5, "qtime": 18, "bar": 0, "isDrum": false}, {"time": 18, "velocity": 108, "pitch": 77, "instrument": 1, "track": 5, "qtime": 18, "bar": 0, "isDrum": false}, {"time": 18, "velocity": 108, "pitch": 82, "instrument": 1, "track": 5, "qtime": 18, "bar": 0, "isDrum": false}, {"time": 19, "velocity": 0, "pitch": 53, "instrument": 1, "track": 5, "qtime": 19, "bar": 0, "isDrum": false}, {"time": 20, "velocity": 0, "pitch": 46, "instrument": 1, "track": 5, "qtime": 20, "bar": 0, "isDrum": false}, {"time": 20, "velocity": 0, "pitch": 74, "instrument": 1, "track": 5, "qtime": 20, "bar": 0, "isDrum": false}, {"time": 20, "velocity": 0, "pitch": 77, "instrument": 1, "track": 5, "qtime": 20, "bar": 0, "isDrum": false}, {"time": 20, "velocity": 0, "pitch": 82, "instrument": 1, "track": 5, "qtime": 20, "bar": 0, "isDrum": false}, {"time": 24, "velocity": 108, "pitch": 46, "instrument": 1, "track": 5, "qtime": 24, "bar": 0, "isDrum": false}, {"time": 24, "velocity": 108, "pitch": 53, "instrument": 1, "track": 5, "qtime": 24, "bar": 0, "isDrum": false}, {"time": 24, "velocity": 108, "pitch": 74, "instrument": 1, "track": 5, "qtime": 24, "bar": 0, "isDrum": false}, {"time": 24, "velocity": 108, "pitch": 77, "instrument": 1, "track": 5, "qtime": 24, "bar": 0, "isDrum": false}, {"time": 24, "velocity": 108, "pitch": 82, "instrument": 1, "track": 5, "qtime": 24, "bar": 0, "isDrum": false}, {"time": 26, "velocity": 0, "pitch": 46, "instrument": 1, "track": 5, "qtime": 26, "bar": 0, "isDrum": false}, {"time": 26, "velocity": 0, "pitch": 53, "instrument": 1, "track": 5, "qtime": 26, "bar": 0, "isDrum": false}, {"time": 26, "velocity": 0, "pitch": 74, "instrument": 1, "track": 5, "qtime": 26, "bar": 0, "isDrum": false}, {"time": 26, "velocity": 0, "pitch": 77, "instrument": 1, "track": 5, "qtime": 26, "bar": 0, "isDrum": false}, {"time": 26, "velocity": 0, "pitch": 82, "instrument": 1, "track": 5, "qtime": 26, "bar": 0, "isDrum": false}, {"time": 30, "velocity": 108, "pitch": 46, "instrument": 1, "track": 5, "qtime": 30, "bar": 0, "isDrum": false}, {"time": 30, "velocity": 108, "pitch": 53, "instrument": 1, "track": 5, "qtime": 30, "bar": 0, "isDrum": false}, {"time": 30, "velocity": 108, "pitch": 74, "instrument": 1, "track": 5, "qtime": 30, "bar": 0, "isDrum": false}, {"time": 30, "velocity": 108, "pitch": 77, "instrument": 1, "track": 5, "qtime": 30, "bar": 0, "isDrum": false}, {"time": 30, "velocity": 108, "pitch": 82, "instrument": 1, "track": 5, "qtime": 30, "bar": 0, "isDrum": false}, {"time": 32, "velocity": 0, "pitch": 53, "instrument": 1, "track": 5, "qtime": 32, "bar": 0, "isDrum": false}, {"time": 32, "velocity": 0, "pitch": 74, "instrument": 1, "track": 5, "qtime": 32, "bar": 0, "isDrum": false}, {"time": 32, "velocity": 0, "pitch": 77, "instrument": 1, "track": 5, "qtime": 32, "bar": 0, "isDrum": false}, {"time": 32, "velocity": 0, "pitch": 82, "instrument": 1, "track": 5, "qtime": 32, "bar": 0, "isDrum": false}, {"time": 33, "velocity": 0, "pitch": 46, "instrument": 1, "track": 5, "qtime": 33, "bar": 0, "isDrum": false}, {"time": 36, "velocity": 108, "pitch": 46, "instrument": 1, "track": 5, "qtime": 36, "bar": 0, "isDrum": false}, {"time": 36, "velocity": 108, "pitch": 55, "instrument": 1, "track": 5, "qtime": 36, "bar": 0, "isDrum": false}, {"time": 36, "velocity": 108, "pitch": 74, "instrument": 1, "track": 5, "qtime": 36, "bar": 0, "isDrum": false}, {"time": 36, "velocity": 108, "pitch": 77, "instrument": 1, "track": 5, "qtime": 36, "bar": 0, "isDrum": false}, {"time": 36, "velocity": 108, "pitch": 82, "instrument": 1, "track": 5, "qtime": 36, "bar": 0, "isDrum": false}, {"time": 38, "velocity": 0, "pitch": 46, "instrument": 1, "track": 5, "qtime": 38, "bar": 0, "isDrum": false}, {"time": 38, "velocity": 0, "pitch": 55, "instrument": 1, "track": 5, "qtime": 38, "bar": 0, "isDrum": false}, {"time": 38, "velocity": 0, "pitch": 74, "instrument": 1, "track": 5, "qtime": 38, "bar": 0, "isDrum": false}, {"time": 38, "velocity": 0, "pitch": 77, "instrument": 1, "track": 5, "qtime": 38, "bar": 0, "isDrum": false}, {"time": 38, "velocity": 0, "pitch": 82, "instrument": 1, "track": 5, "qtime": 38, "bar": 0, "isDrum": false}, {"time": 42, "velocity": 108, "pitch": 46, "instrument": 1, "track": 5, "qtime": 42, "bar": 0, "isDrum": false}, {"time": 42, "velocity": 108, "pitch": 53, "instrument": 1, "track": 5, "qtime": 42, "bar": 0, "isDrum": false}, {"time": 42, "velocity": 108, "pitch": 74, "instrument": 1, "track": 5, "qtime": 42, "bar": 0, "isDrum": false}, {"time": 42, "velocity": 108, "pitch": 77, "instrument": 1, "track": 5, "qtime": 42, "bar": 0, "isDrum": false}, {"time": 42, "velocity": 108, "pitch": 82, "instrument": 1, "track": 5, "qtime": 42, "bar": 0, "isDrum": false}, {"time": 44, "velocity": 0, "pitch": 46, "instrument": 1, "track": 5, "qtime": 44, "bar": 0, "isDrum": false}, {"time": 44, "velocity": 0, "pitch": 53, "instrument": 1, "track": 5, "qtime": 44, "bar": 0, "isDrum": false}, {"time": 44, "velocity": 0, "pitch": 74, "instrument": 1, "track": 5, "qtime": 44, "bar": 0, "isDrum": false}, {"time": 44, "velocity": 0, "pitch": 77, "instrument": 1, "track": 5, "qtime": 44, "bar": 0, "isDrum": false}, {"time": 44, "velocity": 0, "pitch": 82, "instrument": 1, "track": 5, "qtime": 44, "bar": 0, "isDrum": false}, {"time": 48, "velocity": 108, "pitch": 46, "instrument": 1, "track": 5, "qtime": 0, "bar": 1, "isDrum": false}, {"time": 48, "velocity": 108, "pitch": 53, "instrument": 1, "track": 5, "qtime": 0, "bar": 1, "isDrum": false}, {"time": 48, "velocity": 108, "pitch": 74, "instrument": 1, "track": 5, "qtime": 0, "bar": 1, "isDrum": false}, {"time": 48, "velocity": 108, "pitch": 77, "instrument": 1, "track": 5, "qtime": 0, "bar": 1, "isDrum": false}, {"time": 48, "velocity": 108, "pitch": 82, "instrument": 1, "track": 5, "qtime": 0, "bar": 1, "isDrum": false}, {"time": 49, "velocity": 0, "pitch": 53, "instrument": 1, "track": 5, "qtime": 1, "bar": 1, "isDrum": false}, {"time": 50, "velocity": 0, "pitch": 46, "instrument": 1, "track": 5, "qtime": 2, "bar": 1, "isDrum": false}, {"time": 50, "velocity": 0, "pitch": 74, "instrument": 1, "track": 5, "qtime": 2, "bar": 1, "isDrum": false}, {"time": 50, "velocity": 0, "pitch": 77, "instrument": 1, "track": 5, "qtime": 2, "bar": 1, "isDrum": false}, {"time": 50, "velocity": 0, "pitch": 82, "instrument": 1, "track": 5, "qtime": 2, "bar": 1, "isDrum": false}, {"time": 54, "velocity": 108, "pitch": 46, "instrument": 1, "track": 5, "qtime": 6, "bar": 1, "isDrum": false}, {"time": 54, "velocity": 108, "pitch": 53, "instrument": 1, "track": 5, "qtime": 6, "bar": 1, "isDrum": false}, {"time": 54, "velocity": 108, "pitch": 74, "instrument": 1, "track": 5, "qtime": 6, "bar": 1, "isDrum": false}, {"time": 54, "velocity": 108, "pitch": 77, "instrument": 1, "track": 5, "qtime": 6, "bar": 1, "isDrum": false}, {"time": 54, "velocity": 108, "pitch": 82, "instrument": 1, "track": 5, "qtime": 6, "bar": 1, "isDrum": false}, {"time": 56, "velocity": 0, "pitch": 46, "instrument": 1, "track": 5, "qtime": 8, "bar": 1, "isDrum": false}, {"time": 56, "velocity": 0, "pitch": 53, "instrument": 1, "track": 5, "qtime": 8, "bar": 1, "isDrum": false}, {"time": 56, "velocity": 0, "pitch": 74, "instrument": 1, "track": 5, "qtime": 8, "bar": 1, "isDrum": false}, {"time": 56, "velocity": 0, "pitch": 77, "instrument": 1, "track": 5, "qtime": 8, "bar": 1, "isDrum": false}, {"time": 56, "velocity": 0, "pitch": 82, "instrument": 1, "track": 5, "qtime": 8, "bar": 1, "isDrum": false}, {"time": 60, "velocity": 108, "pitch": 46, "instrument": 1, "track": 5, "qtime": 12, "bar": 1, "isDrum": false}, {"time": 60, "velocity": 108, "pitch": 55, "instrument": 1, "track": 5, "qtime": 12, "bar": 1, "isDrum": false}, {"time": 60, "velocity": 108, "pitch": 74, "instrument": 1, "track": 5, "qtime": 12, "bar": 1, "isDrum": false}, {"time": 60, "velocity": 108, "pitch": 77, "instrument": 1, "track": 5, "qtime": 12, "bar": 1, "isDrum": false}, {"time": 60, "velocity": 108, "pitch": 82, "instrument": 1, "track": 5, "qtime": 12, "bar": 1, "isDrum": false}, {"time": 62, "velocity": 0, "pitch": 46, "instrument": 1, "track": 5, "qtime": 14, "bar": 1, "isDrum": false}, {"time": 62, "velocity": 0, "pitch": 55, "instrument": 1, "track": 5, "qtime": 14, "bar": 1, "isDrum": false}, {"time": 62, "velocity": 0, "pitch": 74, "instrument": 1, "track": 5, "qtime": 14, "bar": 1, "isDrum": false}, {"time": 62, "velocity": 0, "pitch": 77, "instrument": 1, "track": 5, "qtime": 14, "bar": 1, "isDrum": false}, {"time": 62, "velocity": 0, "pitch": 82, "instrument": 1, "track": 5, "qtime": 14, "bar": 1, "isDrum": false}, {"time": 66, "velocity": 108, "pitch": 46, "instrument": 1, "track": 5, "qtime": 18, "bar": 1, "isDrum": false}, {"time": 66, "velocity": 108, "pitch": 53, "instrument": 1, "track": 5, "qtime": 18, "bar": 1, "isDrum": false}, {"time": 66, "velocity": 108, "pitch": 74, "instrument": 1, "track": 5, "qtime": 18, "bar": 1, "isDrum": false}, {"time": 66, "velocity": 108, "pitch": 77, "instrument": 1, "track": 5, "qtime": 18, "bar": 1, "isDrum": false}, {"time": 66, "velocity": 108, "pitch": 82, "instrument": 1, "track": 5, "qtime": 18, "bar": 1, "isDrum": false}, {"time": 68, "velocity": 0, "pitch": 46, "instrument": 1, "track": 5, "qtime": 20, "bar": 1, "isDrum": false}, {"time": 68, "velocity": 0, "pitch": 53, "instrument": 1, "track": 5, "qtime": 20, "bar": 1, "isDrum": false}, {"time": 68, "velocity": 0, "pitch": 74, "instrument": 1, "track": 5, "qtime": 20, "bar": 1, "isDrum": false}, {"time": 68, "velocity": 0, "pitch": 77, "instrument": 1, "track": 5, "qtime": 20, "bar": 1, "isDrum": false}, {"time": 68, "velocity": 0, "pitch": 82, "instrument": 1, "track": 5, "qtime": 20, "bar": 1, "isDrum": false}, {"time": 72, "velocity": 108, "pitch": 46, "instrument": 1, "track": 5, "qtime": 24, "bar": 1, "isDrum": false}, {"time": 72, "velocity": 108, "pitch": 53, "instrument": 1, "track": 5, "qtime": 24, "bar": 1, "isDrum": false}, {"time": 72, "velocity": 108, "pitch": 74, "instrument": 1, "track": 5, "qtime": 24, "bar": 1, "isDrum": false}, {"time": 72, "velocity": 108, "pitch": 77, "instrument": 1, "track": 5, "qtime": 24, "bar": 1, "isDrum": false}, {"time": 72, "velocity": 108, "pitch": 82, "instrument": 1, "track": 5, "qtime": 24, "bar": 1, "isDrum": false}, {"time": 74, "velocity": 0, "pitch": 46, "instrument": 1, "track": 5, "qtime": 26, "bar": 1, "isDrum": false}, {"time": 74, "velocity": 0, "pitch": 53, "instrument": 1, "track": 5, "qtime": 26, "bar": 1, "isDrum": false}, {"time": 74, "velocity": 0, "pitch": 74, "instrument": 1, "track": 5, "qtime": 26, "bar": 1, "isDrum": false}, {"time": 74, "velocity": 0, "pitch": 77, "instrument": 1, "track": 5, "qtime": 26, "bar": 1, "isDrum": false}, {"time": 74, "velocity": 0, "pitch": 82, "instrument": 1, "track": 5, "qtime": 26, "bar": 1, "isDrum": false}, {"time": 78, "velocity": 108, "pitch": 46, "instrument": 1, "track": 5, "qtime": 30, "bar": 1, "isDrum": false}, {"time": 78, "velocity": 108, "pitch": 53, "instrument": 1, "track": 5, "qtime": 30, "bar": 1, "isDrum": false}, {"time": 78, "velocity": 108, "pitch": 74, "instrument": 1, "track": 5, "qtime": 30, "bar": 1, "isDrum": false}, {"time": 78, "velocity": 108, "pitch": 77, "instrument": 1, "track": 5, "qtime": 30, "bar": 1, "isDrum": false}, {"time": 78, "velocity": 108, "pitch": 82, "instrument": 1, "track": 5, "qtime": 30, "bar": 1, "isDrum": false}, {"time": 80, "velocity": 0, "pitch": 53, "instrument": 1, "track": 5, "qtime": 32, "bar": 1, "isDrum": false}, {"time": 80, "velocity": 0, "pitch": 74, "instrument": 1, "track": 5, "qtime": 32, "bar": 1, "isDrum": false}, {"time": 80, "velocity": 0, "pitch": 77, "instrument": 1, "track": 5, "qtime": 32, "bar": 1, "isDrum": false}, {"time": 80, "velocity": 0, "pitch": 82, "instrument": 1, "track": 5, "qtime": 32, "bar": 1, "isDrum": false}, {"time": 81, "velocity": 0, "pitch": 46, "instrument": 1, "track": 5, "qtime": 33, "bar": 1, "isDrum": false}, {"time": 84, "velocity": 108, "pitch": 46, "instrument": 1, "track": 5, "qtime": 36, "bar": 1, "isDrum": false}, {"time": 84, "velocity": 108, "pitch": 55, "instrument": 1, "track": 5, "qtime": 36, "bar": 1, "isDrum": false}, {"time": 84, "velocity": 108, "pitch": 74, "instrument": 1, "track": 5, "qtime": 36, "bar": 1, "isDrum": false}, {"time": 84, "velocity": 108, "pitch": 77, "instrument": 1, "track": 5, "qtime": 36, "bar": 1, "isDrum": false}, {"time": 84, "velocity": 108, "pitch": 82, "instrument": 1, "track": 5, "qtime": 36, "bar": 1, "isDrum": false}, {"time": 86, "velocity": 0, "pitch": 55, "instrument": 1, "track": 5, "qtime": 38, "bar": 1, "isDrum": false}, {"time": 86, "velocity": 0, "pitch": 74, "instrument": 1, "track": 5, "qtime": 38, "bar": 1, "isDrum": false}, {"time": 86, "velocity": 0, "pitch": 77, "instrument": 1, "track": 5, "qtime": 38, "bar": 1, "isDrum": false}, {"time": 86, "velocity": 0, "pitch": 82, "instrument": 1, "track": 5, "qtime": 38, "bar": 1, "isDrum": false}, {"time": 87, "velocity": 0, "pitch": 46, "instrument": 1, "track": 5, "qtime": 39, "bar": 1, "isDrum": false}, {"time": 90, "velocity": 108, "pitch": 46, "instrument": 1, "track": 5, "qtime": 42, "bar": 1, "isDrum": false}, {"time": 90, "velocity": 108, "pitch": 53, "instrument": 1, "track": 5, "qtime": 42, "bar": 1, "isDrum": false}, {"time": 90, "velocity": 108, "pitch": 74, "instrument": 1, "track": 5, "qtime": 42, "bar": 1, "isDrum": false}, {"time": 90, "velocity": 108, "pitch": 77, "instrument": 1, "track": 5, "qtime": 42, "bar": 1, "isDrum": false}, {"time": 90, "velocity": 108, "pitch": 82, "instrument": 1, "track": 5, "qtime": 42, "bar": 1, "isDrum": false}, {"time": 92, "velocity": 0, "pitch": 46, "instrument": 1, "track": 5, "qtime": 44, "bar": 1, "isDrum": false}, {"time": 92, "velocity": 0, "pitch": 53, "instrument": 1, "track": 5, "qtime": 44, "bar": 1, "isDrum": false}, {"time": 92, "velocity": 0, "pitch": 74, "instrument": 1, "track": 5, "qtime": 44, "bar": 1, "isDrum": false}, {"time": 92, "velocity": 0, "pitch": 77, "instrument": 1, "track": 5, "qtime": 44, "bar": 1, "isDrum": false}, {"time": 94, "velocity": 0, "pitch": 82, "instrument": 1, "track": 5, "qtime": 46, "bar": 1, "isDrum": false}, {"time": 96, "velocity": 108, "pitch": 39, "instrument": 1, "track": 5, "qtime": 0, "bar": 2, "isDrum": false}, {"time": 96, "velocity": 108, "pitch": 46, "instrument": 1, "track": 5, "qtime": 0, "bar": 2, "isDrum": false}, {"time": 96, "velocity": 108, "pitch": 75, "instrument": 1, "track": 5, "qtime": 0, "bar": 2, "isDrum": false}, {"time": 96, "velocity": 108, "pitch": 79, "instrument": 1, "track": 5, "qtime": 0, "bar": 2, "isDrum": false}, {"time": 96, "velocity": 108, "pitch": 82, "instrument": 1, "track": 5, "qtime": 0, "bar": 2, "isDrum": false}, {"time": 98, "velocity": 0, "pitch": 75, "instrument": 1, "track": 5, "qtime": 2, "bar": 2, "isDrum": false}, {"time": 98, "velocity": 0, "pitch": 79, "instrument": 1, "track": 5, "qtime": 2, "bar": 2, "isDrum": false}, {"time": 99, "velocity": 0, "pitch": 39, "instrument": 1, "track": 5, "qtime": 3, "bar": 2, "isDrum": false}, {"time": 99, "velocity": 0, "pitch": 46, "instrument": 1, "track": 5, "qtime": 3, "bar": 2, "isDrum": false}, {"time": 99, "velocity": 0, "pitch": 82, "instrument": 1, "track": 5, "qtime": 3, "bar": 2, "isDrum": false}, {"time": 102, "velocity": 108, "pitch": 39, "instrument": 1, "track": 5, "qtime": 6, "bar": 2, "isDrum": false}, {"time": 102, "velocity": 108, "pitch": 46, "instrument": 1, "track": 5, "qtime": 6, "bar": 2, "isDrum": false}, {"time": 102, "velocity": 108, "pitch": 75, "instrument": 1, "track": 5, "qtime": 6, "bar": 2, "isDrum": false}, {"time": 102, "velocity": 108, "pitch": 79, "instrument": 1, "track": 5, "qtime": 6, "bar": 2, "isDrum": false}, {"time": 102, "velocity": 108, "pitch": 82, "instrument": 1, "track": 5, "qtime": 6, "bar": 2, "isDrum": false}, {"time": 103, "velocity": 0, "pitch": 79, "instrument": 1, "track": 5, "qtime": 7, "bar": 2, "isDrum": false}, {"time": 104, "velocity": 0, "pitch": 39, "instrument": 1, "track": 5, "qtime": 8, "bar": 2, "isDrum": false}, {"time": 104, "velocity": 0, "pitch": 75, "instrument": 1, "track": 5, "qtime": 8, "bar": 2, "isDrum": false}, {"time": 104, "velocity": 0, "pitch": 82, "instrument": 1, "track": 5, "qtime": 8, "bar": 2, "isDrum": false}, {"time": 105, "velocity": 0, "pitch": 46, "instrument": 1, "track": 5, "qtime": 9, "bar": 2, "isDrum": false}, {"time": 108, "velocity": 108, "pitch": 39, "instrument": 1, "track": 5, "qtime": 12, "bar": 2, "isDrum": false}, {"time": 108, "velocity": 108, "pitch": 48, "instrument": 1, "track": 5, "qtime": 12, "bar": 2, "isDrum": false}, {"time": 108, "velocity": 108, "pitch": 75, "instrument": 1, "track": 5, "qtime": 12, "bar": 2, "isDrum": false}, {"time": 108, "velocity": 108, "pitch": 79, "instrument": 1, "track": 5, "qtime": 12, "bar": 2, "isDrum": false}, {"time": 108, "velocity": 108, "pitch": 82, "instrument": 1, "track": 5, "qtime": 12, "bar": 2, "isDrum": false}, {"time": 109, "velocity": 0, "pitch": 79, "instrument": 1, "track": 5, "qtime": 13, "bar": 2, "isDrum": false}, {"time": 110, "velocity": 0, "pitch": 39, "instrument": 1, "track": 5, "qtime": 14, "bar": 2, "isDrum": false}, {"time": 110, "velocity": 0, "pitch": 48, "instrument": 1, "track": 5, "qtime": 14, "bar": 2, "isDrum": false}, {"time": 110, "velocity": 0, "pitch": 75, "instrument": 1, "track": 5, "qtime": 14, "bar": 2, "isDrum": false}, {"time": 110, "velocity": 0, "pitch": 82, "instrument": 1, "track": 5, "qtime": 14, "bar": 2, "isDrum": false}, {"time": 114, "velocity": 108, "pitch": 39, "instrument": 1, "track": 5, "qtime": 18, "bar": 2, "isDrum": false}, {"time": 114, "velocity": 108, "pitch": 46, "instrument": 1, "track": 5, "qtime": 18, "bar": 2, "isDrum": false}, {"time": 114, "velocity": 108, "pitch": 75, "instrument": 1, "track": 5, "qtime": 18, "bar": 2, "isDrum": false}, {"time": 114, "velocity": 108, "pitch": 79, "instrument": 1, "track": 5, "qtime": 18, "bar": 2, "isDrum": false}, {"time": 114, "velocity": 108, "pitch": 82, "instrument": 1, "track": 5, "qtime": 18, "bar": 2, "isDrum": false}, {"time": 115, "velocity": 0, "pitch": 79, "instrument": 1, "track": 5, "qtime": 19, "bar": 2, "isDrum": false}, {"time": 116, "velocity": 0, "pitch": 39, "instrument": 1, "track": 5, "qtime": 20, "bar": 2, "isDrum": false}, {"time": 116, "velocity": 0, "pitch": 46, "instrument": 1, "track": 5, "qtime": 20, "bar": 2, "isDrum": false}, {"time": 116, "velocity": 0, "pitch": 75, "instrument": 1, "track": 5, "qtime": 20, "bar": 2, "isDrum": false}, {"time": 116, "velocity": 0, "pitch": 82, "instrument": 1, "track": 5, "qtime": 20, "bar": 2, "isDrum": false}, {"time": 120, "velocity": 108, "pitch": 39, "instrument": 1, "track": 5, "qtime": 24, "bar": 2, "isDrum": false}, {"time": 120, "velocity": 108, "pitch": 46, "instrument": 1, "track": 5, "qtime": 24, "bar": 2, "isDrum": false}, {"time": 120, "velocity": 108, "pitch": 75, "instrument": 1, "track": 5, "qtime": 24, "bar": 2, "isDrum": false}, {"time": 120, "velocity": 108, "pitch": 79, "instrument": 1, "track": 5, "qtime": 24, "bar": 2, "isDrum": false}, {"time": 120, "velocity": 108, "pitch": 82, "instrument": 1, "track": 5, "qtime": 24, "bar": 2, "isDrum": false}, {"time": 122, "velocity": 0, "pitch": 39, "instrument": 1, "track": 5, "qtime": 26, "bar": 2, "isDrum": false}, {"time": 122, "velocity": 0, "pitch": 46, "instrument": 1, "track": 5, "qtime": 26, "bar": 2, "isDrum": false}, {"time": 122, "velocity": 0, "pitch": 75, "instrument": 1, "track": 5, "qtime": 26, "bar": 2, "isDrum": false}, {"time": 122, "velocity": 0, "pitch": 79, "instrument": 1, "track": 5, "qtime": 26, "bar": 2, "isDrum": false}, {"time": 122, "velocity": 0, "pitch": 82, "instrument": 1, "track": 5, "qtime": 26, "bar": 2, "isDrum": false}, {"time": 126, "velocity": 108, "pitch": 39, "instrument": 1, "track": 5, "qtime": 30, "bar": 2, "isDrum": false}, {"time": 126, "velocity": 108, "pitch": 46, "instrument": 1, "track": 5, "qtime": 30, "bar": 2, "isDrum": false}, {"time": 126, "velocity": 108, "pitch": 75, "instrument": 1, "track": 5, "qtime": 30, "bar": 2, "isDrum": false}, {"time": 126, "velocity": 108, "pitch": 79, "instrument": 1, "track": 5, "qtime": 30, "bar": 2, "isDrum": false}, {"time": 126, "velocity": 108, "pitch": 82, "instrument": 1, "track": 5, "qtime": 30, "bar": 2, "isDrum": false}, {"time": 128, "velocity": 0, "pitch": 75, "instrument": 1, "track": 5, "qtime": 32, "bar": 2, "isDrum": false}, {"time": 128, "velocity": 0, "pitch": 79, "instrument": 1, "track": 5, "qtime": 32, "bar": 2, "isDrum": false}, {"time": 129, "velocity": 0, "pitch": 39, "instrument": 1, "track": 5, "qtime": 33, "bar": 2, "isDrum": false}, {"time": 129, "velocity": 0, "pitch": 46, "instrument": 1, "track": 5, "qtime": 33, "bar": 2, "isDrum": false}, {"time": 129, "velocity": 0, "pitch": 82, "instrument": 1, "track": 5, "qtime": 33, "bar": 2, "isDrum": false}, {"time": 132, "velocity": 108, "pitch": 39, "instrument": 1, "track": 5, "qtime": 36, "bar": 2, "isDrum": false}, {"time": 132, "velocity": 108, "pitch": 48, "instrument": 1, "track": 5, "qtime": 36, "bar": 2, "isDrum": false}, {"time": 132, "velocity": 108, "pitch": 75, "instrument": 1, "track": 5, "qtime": 36, "bar": 2, "isDrum": false}, {"time": 132, "velocity": 108, "pitch": 79, "instrument": 1, "track": 5, "qtime": 36, "bar": 2, "isDrum": false}, {"time": 132, "velocity": 108, "pitch": 82, "instrument": 1, "track": 5, "qtime": 36, "bar": 2, "isDrum": false}, {"time": 134, "velocity": 0, "pitch": 39, "instrument": 1, "track": 5, "qtime": 38, "bar": 2, "isDrum": false}, {"time": 134, "velocity": 0, "pitch": 48, "instrument": 1, "track": 5, "qtime": 38, "bar": 2, "isDrum": false}, {"time": 134, "velocity": 0, "pitch": 75, "instrument": 1, "track": 5, "qtime": 38, "bar": 2, "isDrum": false}, {"time": 134, "velocity": 0, "pitch": 79, "instrument": 1, "track": 5, "qtime": 38, "bar": 2, "isDrum": false}, {"time": 134, "velocity": 0, "pitch": 82, "instrument": 1, "track": 5, "qtime": 38, "bar": 2, "isDrum": false}, {"time": 138, "velocity": 108, "pitch": 39, "instrument": 1, "track": 5, "qtime": 42, "bar": 2, "isDrum": false}, {"time": 138, "velocity": 108, "pitch": 46, "instrument": 1, "track": 5, "qtime": 42, "bar": 2, "isDrum": false}, {"time": 138, "velocity": 108, "pitch": 75, "instrument": 1, "track": 5, "qtime": 42, "bar": 2, "isDrum": false}, {"time": 138, "velocity": 108, "pitch": 79, "instrument": 1, "track": 5, "qtime": 42, "bar": 2, "isDrum": false}, {"time": 138, "velocity": 108, "pitch": 82, "instrument": 1, "track": 5, "qtime": 42, "bar": 2, "isDrum": false}, {"time": 139, "velocity": 0, "pitch": 79, "instrument": 1, "track": 5, "qtime": 43, "bar": 2, "isDrum": false}, {"time": 140, "velocity": 0, "pitch": 39, "instrument": 1, "track": 5, "qtime": 44, "bar": 2, "isDrum": false}, {"time": 140, "velocity": 0, "pitch": 46, "instrument": 1, "track": 5, "qtime": 44, "bar": 2, "isDrum": false}, {"time": 140, "velocity": 0, "pitch": 75, "instrument": 1, "track": 5, "qtime": 44, "bar": 2, "isDrum": false}, {"time": 140, "velocity": 0, "pitch": 82, "instrument": 1, "track": 5, "qtime": 44, "bar": 2, "isDrum": false}, {"time": 144, "velocity": 108, "pitch": 39, "instrument": 1, "track": 5, "qtime": 0, "bar": 3, "isDrum": false}, {"time": 144, "velocity": 108, "pitch": 46, "instrument": 1, "track": 5, "qtime": 0, "bar": 3, "isDrum": false}, {"time": 144, "velocity": 108, "pitch": 75, "instrument": 1, "track": 5, "qtime": 0, "bar": 3, "isDrum": false}, {"time": 144, "velocity": 108, "pitch": 79, "instrument": 1, "track": 5, "qtime": 0, "bar": 3, "isDrum": false}, {"time": 144, "velocity": 108, "pitch": 82, "instrument": 1, "track": 5, "qtime": 0, "bar": 3, "isDrum": false}, {"time": 146, "velocity": 0, "pitch": 39, "instrument": 1, "track": 5, "qtime": 2, "bar": 3, "isDrum": false}, {"time": 146, "velocity": 0, "pitch": 46, "instrument": 1, "track": 5, "qtime": 2, "bar": 3, "isDrum": false}, {"time": 146, "velocity": 0, "pitch": 75, "instrument": 1, "track": 5, "qtime": 2, "bar": 3, "isDrum": false}, {"time": 146, "velocity": 0, "pitch": 79, "instrument": 1, "track": 5, "qtime": 2, "bar": 3, "isDrum": false}, {"time": 146, "velocity": 0, "pitch": 82, "instrument": 1, "track": 5, "qtime": 2, "bar": 3, "isDrum": false}, {"time": 150, "velocity": 108, "pitch": 39, "instrument": 1, "track": 5, "qtime": 6, "bar": 3, "isDrum": false}, {"time": 150, "velocity": 108, "pitch": 46, "instrument": 1, "track": 5, "qtime": 6, "bar": 3, "isDrum": false}, {"time": 150, "velocity": 108, "pitch": 75, "instrument": 1, "track": 5, "qtime": 6, "bar": 3, "isDrum": false}, {"time": 150, "velocity": 108, "pitch": 79, "instrument": 1, "track": 5, "qtime": 6, "bar": 3, "isDrum": false}, {"time": 150, "velocity": 108, "pitch": 82, "instrument": 1, "track": 5, "qtime": 6, "bar": 3, "isDrum": false}, {"time": 152, "velocity": 0, "pitch": 75, "instrument": 1, "track": 5, "qtime": 8, "bar": 3, "isDrum": false}, {"time": 152, "velocity": 0, "pitch": 79, "instrument": 1, "track": 5, "qtime": 8, "bar": 3, "isDrum": false}, {"time": 153, "velocity": 0, "pitch": 39, "instrument": 1, "track": 5, "qtime": 9, "bar": 3, "isDrum": false}, {"time": 153, "velocity": 0, "pitch": 82, "instrument": 1, "track": 5, "qtime": 9, "bar": 3, "isDrum": false}, {"time": 154, "velocity": 0, "pitch": 46, "instrument": 1, "track": 5, "qtime": 10, "bar": 3, "isDrum": false}, {"time": 156, "velocity": 108, "pitch": 39, "instrument": 1, "track": 5, "qtime": 12, "bar": 3, "isDrum": false}, {"time": 156, "velocity": 108, "pitch": 48, "instrument": 1, "track": 5, "qtime": 12, "bar": 3, "isDrum": false}, {"time": 156, "velocity": 108, "pitch": 75, "instrument": 1, "track": 5, "qtime": 12, "bar": 3, "isDrum": false}, {"time": 156, "velocity": 108, "pitch": 79, "instrument": 1, "track": 5, "qtime": 12, "bar": 3, "isDrum": false}, {"time": 156, "velocity": 108, "pitch": 82, "instrument": 1, "track": 5, "qtime": 12, "bar": 3, "isDrum": false}, {"time": 158, "velocity": 0, "pitch": 39, "instrument": 1, "track": 5, "qtime": 14, "bar": 3, "isDrum": false}, {"time": 158, "velocity": 0, "pitch": 48, "instrument": 1, "track": 5, "qtime": 14, "bar": 3, "isDrum": false}, {"time": 158, "velocity": 0, "pitch": 75, "instrument": 1, "track": 5, "qtime": 14, "bar": 3, "isDrum": false}, {"time": 158, "velocity": 0, "pitch": 79, "instrument": 1, "track": 5, "qtime": 14, "bar": 3, "isDrum": false}, {"time": 159, "velocity": 0, "pitch": 82, "instrument": 1, "track": 5, "qtime": 15, "bar": 3, "isDrum": false}, {"time": 162, "velocity": 108, "pitch": 39, "instrument": 1, "track": 5, "qtime": 18, "bar": 3, "isDrum": false}, {"time": 162, "velocity": 108, "pitch": 46, "instrument": 1, "track": 5, "qtime": 18, "bar": 3, "isDrum": false}, {"time": 162, "velocity": 108, "pitch": 75, "instrument": 1, "track": 5, "qtime": 18, "bar": 3, "isDrum": false}, {"time": 162, "velocity": 108, "pitch": 79, "instrument": 1, "track": 5, "qtime": 18, "bar": 3, "isDrum": false}, {"time": 162, "velocity": 108, "pitch": 82, "instrument": 1, "track": 5, "qtime": 18, "bar": 3, "isDrum": false}, {"time": 164, "velocity": 0, "pitch": 39, "instrument": 1, "track": 5, "qtime": 20, "bar": 3, "isDrum": false}, {"time": 164, "velocity": 0, "pitch": 75, "instrument": 1, "track": 5, "qtime": 20, "bar": 3, "isDrum": false}, {"time": 164, "velocity": 0, "pitch": 79, "instrument": 1, "track": 5, "qtime": 20, "bar": 3, "isDrum": false}, {"time": 165, "velocity": 0, "pitch": 46, "instrument": 1, "track": 5, "qtime": 21, "bar": 3, "isDrum": false}, {"time": 165, "velocity": 0, "pitch": 82, "instrument": 1, "track": 5, "qtime": 21, "bar": 3, "isDrum": false}, {"time": 168, "velocity": 108, "pitch": 39, "instrument": 1, "track": 5, "qtime": 24, "bar": 3, "isDrum": false}, {"time": 168, "velocity": 108, "pitch": 46, "instrument": 1, "track": 5, "qtime": 24, "bar": 3, "isDrum": false}, {"time": 168, "velocity": 108, "pitch": 75, "instrument": 1, "track": 5, "qtime": 24, "bar": 3, "isDrum": false}, {"time": 168, "velocity": 108, "pitch": 79, "instrument": 1, "track": 5, "qtime": 24, "bar": 3, "isDrum": false}, {"time": 168, "velocity": 108, "pitch": 82, "instrument": 1, "track": 5, "qtime": 24, "bar": 3, "isDrum": false}, {"time": 170, "velocity": 0, "pitch": 39, "instrument": 1, "track": 5, "qtime": 26, "bar": 3, "isDrum": false}, {"time": 170, "velocity": 0, "pitch": 46, "instrument": 1, "track": 5, "qtime": 26, "bar": 3, "isDrum": false}, {"time": 170, "velocity": 0, "pitch": 75, "instrument": 1, "track": 5, "qtime": 26, "bar": 3, "isDrum": false}, {"time": 170, "velocity": 0, "pitch": 79, "instrument": 1, "track": 5, "qtime": 26, "bar": 3, "isDrum": false}, {"time": 171, "velocity": 0, "pitch": 82, "instrument": 1, "track": 5, "qtime": 27, "bar": 3, "isDrum": false}, {"time": 174, "velocity": 108, "pitch": 39, "instrument": 1, "track": 5, "qtime": 30, "bar": 3, "isDrum": false}, {"time": 174, "velocity": 108, "pitch": 46, "instrument": 1, "track": 5, "qtime": 30, "bar": 3, "isDrum": false}, {"time": 174, "velocity": 108, "pitch": 75, "instrument": 1, "track": 5, "qtime": 30, "bar": 3, "isDrum": false}, {"time": 174, "velocity": 108, "pitch": 79, "instrument": 1, "track": 5, "qtime": 30, "bar": 3, "isDrum": false}, {"time": 174, "velocity": 108, "pitch": 82, "instrument": 1, "track": 5, "qtime": 30, "bar": 3, "isDrum": false}, {"time": 176, "velocity": 0, "pitch": 75, "instrument": 1, "track": 5, "qtime": 32, "bar": 3, "isDrum": false}, {"time": 176, "velocity": 0, "pitch": 79, "instrument": 1, "track": 5, "qtime": 32, "bar": 3, "isDrum": false}, {"time": 177, "velocity": 0, "pitch": 39, "instrument": 1, "track": 5, "qtime": 33, "bar": 3, "isDrum": false}, {"time": 177, "velocity": 0, "pitch": 46, "instrument": 1, "track": 5, "qtime": 33, "bar": 3, "isDrum": false}, {"time": 177, "velocity": 0, "pitch": 82, "instrument": 1, "track": 5, "qtime": 33, "bar": 3, "isDrum": false}, {"time": 180, "velocity": 108, "pitch": 39, "instrument": 1, "track": 5, "qtime": 36, "bar": 3, "isDrum": false}, {"time": 180, "velocity": 108, "pitch": 48, "instrument": 1, "track": 5, "qtime": 36, "bar": 3, "isDrum": false}, {"time": 180, "velocity": 108, "pitch": 75, "instrument": 1, "track": 5, "qtime": 36, "bar": 3, "isDrum": false}, {"time": 180, "velocity": 108, "pitch": 79, "instrument": 1, "track": 5, "qtime": 36, "bar": 3, "isDrum": false}, {"time": 180, "velocity": 108, "pitch": 82, "instrument": 1, "track": 5, "qtime": 36, "bar": 3, "isDrum": false}, {"time": 182, "velocity": 0, "pitch": 79, "instrument": 1, "track": 5, "qtime": 38, "bar": 3, "isDrum": false}, {"time": 183, "velocity": 0, "pitch": 39, "instrument": 1, "track": 5, "qtime": 39, "bar": 3, "isDrum": false}, {"time": 183, "velocity": 0, "pitch": 48, "instrument": 1, "track": 5, "qtime": 39, "bar": 3, "isDrum": false}, {"time": 183, "velocity": 0, "pitch": 75, "instrument": 1, "track": 5, "qtime": 39, "bar": 3, "isDrum": false}, {"time": 183, "velocity": 0, "pitch": 82, "instrument": 1, "track": 5, "qtime": 39, "bar": 3, "isDrum": false}, {"time": 186, "velocity": 108, "pitch": 39, "instrument": 1, "track": 5, "qtime": 42, "bar": 3, "isDrum": false}, {"time": 186, "velocity": 108, "pitch": 46, "instrument": 1, "track": 5, "qtime": 42, "bar": 3, "isDrum": false}, {"time": 186, "velocity": 108, "pitch": 75, "instrument": 1, "track": 5, "qtime": 42, "bar": 3, "isDrum": false}, {"time": 186, "velocity": 108, "pitch": 79, "instrument": 1, "track": 5, "qtime": 42, "bar": 3, "isDrum": false}, {"time": 186, "velocity": 108, "pitch": 82, "instrument": 1, "track": 5, "qtime": 42, "bar": 3, "isDrum": false}, {"time": 188, "velocity": 0, "pitch": 39, "instrument": 1, "track": 5, "qtime": 44, "bar": 3, "isDrum": false}, {"time": 188, "velocity": 0, "pitch": 75, "instrument": 1, "track": 5, "qtime": 44, "bar": 3, "isDrum": false}, {"time": 188, "velocity": 0, "pitch": 79, "instrument": 1, "track": 5, "qtime": 44, "bar": 3, "isDrum": false}, {"time": 189, "velocity": 0, "pitch": 46, "instrument": 1, "track": 5, "qtime": 45, "bar": 3, "isDrum": false}, {"time": 189, "velocity": 0, "pitch": 82, "instrument": 1, "track": 5, "qtime": 45, "bar": 3, "isDrum": false}, {"time": 192, "velocity": 108, "pitch": 44, "instrument": 1, "track": 5, "qtime": 0, "bar": 4, "isDrum": false}, {"time": 192, "velocity": 108, "pitch": 51, "instrument": 1, "track": 5, "qtime": 0, "bar": 4, "isDrum": false}, {"time": 192, "velocity": 108, "pitch": 72, "instrument": 1, "track": 5, "qtime": 0, "bar": 4, "isDrum": false}, {"time": 192, "velocity": 108, "pitch": 75, "instrument": 1, "track": 5, "qtime": 0, "bar": 4, "isDrum": false}, {"time": 192, "velocity": 108, "pitch": 80, "instrument": 1, "track": 5, "qtime": 0, "bar": 4, "isDrum": false}, {"time": 194, "velocity": 0, "pitch": 44, "instrument": 1, "track": 5, "qtime": 2, "bar": 4, "isDrum": false}, {"time": 194, "velocity": 0, "pitch": 51, "instrument": 1, "track": 5, "qtime": 2, "bar": 4, "isDrum": false}, {"time": 194, "velocity": 0, "pitch": 72, "instrument": 1, "track": 5, "qtime": 2, "bar": 4, "isDrum": false}, {"time": 194, "velocity": 0, "pitch": 75, "instrument": 1, "track": 5, "qtime": 2, "bar": 4, "isDrum": false}, {"time": 194, "velocity": 0, "pitch": 80, "instrument": 1, "track": 5, "qtime": 2, "bar": 4, "isDrum": false}, {"time": 198, "velocity": 108, "pitch": 44, "instrument": 1, "track": 5, "qtime": 6, "bar": 4, "isDrum": false}, {"time": 198, "velocity": 108, "pitch": 51, "instrument": 1, "track": 5, "qtime": 6, "bar": 4, "isDrum": false}, {"time": 198, "velocity": 108, "pitch": 72, "instrument": 1, "track": 5, "qtime": 6, "bar": 4, "isDrum": false}, {"time": 198, "velocity": 108, "pitch": 75, "instrument": 1, "track": 5, "qtime": 6, "bar": 4, "isDrum": false}, {"time": 198, "velocity": 108, "pitch": 80, "instrument": 1, "track": 5, "qtime": 6, "bar": 4, "isDrum": false}, {"time": 200, "velocity": 0, "pitch": 44, "instrument": 1, "track": 5, "qtime": 8, "bar": 4, "isDrum": false}, {"time": 200, "velocity": 0, "pitch": 72, "instrument": 1, "track": 5, "qtime": 8, "bar": 4, "isDrum": false}, {"time": 200, "velocity": 0, "pitch": 75, "instrument": 1, "track": 5, "qtime": 8, "bar": 4, "isDrum": false}, {"time": 200, "velocity": 0, "pitch": 80, "instrument": 1, "track": 5, "qtime": 8, "bar": 4, "isDrum": false}, {"time": 201, "velocity": 0, "pitch": 51, "instrument": 1, "track": 5, "qtime": 9, "bar": 4, "isDrum": false}, {"time": 204, "velocity": 108, "pitch": 44, "instrument": 1, "track": 5, "qtime": 12, "bar": 4, "isDrum": false}, {"time": 204, "velocity": 108, "pitch": 53, "instrument": 1, "track": 5, "qtime": 12, "bar": 4, "isDrum": false}, {"time": 204, "velocity": 108, "pitch": 72, "instrument": 1, "track": 5, "qtime": 12, "bar": 4, "isDrum": false}, {"time": 204, "velocity": 108, "pitch": 75, "instrument": 1, "track": 5, "qtime": 12, "bar": 4, "isDrum": false}, {"time": 204, "velocity": 108, "pitch": 80, "instrument": 1, "track": 5, "qtime": 12, "bar": 4, "isDrum": false}, {"time": 206, "velocity": 0, "pitch": 44, "instrument": 1, "track": 5, "qtime": 14, "bar": 4, "isDrum": false}, {"time": 206, "velocity": 0, "pitch": 53, "instrument": 1, "track": 5, "qtime": 14, "bar": 4, "isDrum": false}, {"time": 206, "velocity": 0, "pitch": 72, "instrument": 1, "track": 5, "qtime": 14, "bar": 4, "isDrum": false}, {"time": 206, "velocity": 0, "pitch": 75, "instrument": 1, "track": 5, "qtime": 14, "bar": 4, "isDrum": false}, {"time": 206, "velocity": 0, "pitch": 80, "instrument": 1, "track": 5, "qtime": 14, "bar": 4, "isDrum": false}, {"time": 210, "velocity": 108, "pitch": 44, "instrument": 1, "track": 5, "qtime": 18, "bar": 4, "isDrum": false}, {"time": 210, "velocity": 108, "pitch": 51, "instrument": 1, "track": 5, "qtime": 18, "bar": 4, "isDrum": false}, {"time": 210, "velocity": 108, "pitch": 72, "instrument": 1, "track": 5, "qtime": 18, "bar": 4, "isDrum": false}, {"time": 210, "velocity": 108, "pitch": 75, "instrument": 1, "track": 5, "qtime": 18, "bar": 4, "isDrum": false}, {"time": 210, "velocity": 108, "pitch": 80, "instrument": 1, "track": 5, "qtime": 18, "bar": 4, "isDrum": false}, {"time": 212, "velocity": 0, "pitch": 44, "instrument": 1, "track": 5, "qtime": 20, "bar": 4, "isDrum": false}, {"time": 212, "velocity": 0, "pitch": 51, "instrument": 1, "track": 5, "qtime": 20, "bar": 4, "isDrum": false}, {"time": 212, "velocity": 0, "pitch": 72, "instrument": 1, "track": 5, "qtime": 20, "bar": 4, "isDrum": false}, {"time": 212, "velocity": 0, "pitch": 75, "instrument": 1, "track": 5, "qtime": 20, "bar": 4, "isDrum": false}, {"time": 212, "velocity": 0, "pitch": 80, "instrument": 1, "track": 5, "qtime": 20, "bar": 4, "isDrum": false}, {"time": 216, "velocity": 108, "pitch": 44, "instrument": 1, "track": 5, "qtime": 24, "bar": 4, "isDrum": false}, {"time": 216, "velocity": 108, "pitch": 51, "instrument": 1, "track": 5, "qtime": 24, "bar": 4, "isDrum": false}, {"time": 216, "velocity": 108, "pitch": 72, "instrument": 1, "track": 5, "qtime": 24, "bar": 4, "isDrum": false}, {"time": 216, "velocity": 108, "pitch": 75, "instrument": 1, "track": 5, "qtime": 24, "bar": 4, "isDrum": false}, {"time": 216, "velocity": 108, "pitch": 80, "instrument": 1, "track": 5, "qtime": 24, "bar": 4, "isDrum": false}, {"time": 218, "velocity": 0, "pitch": 44, "instrument": 1, "track": 5, "qtime": 26, "bar": 4, "isDrum": false}, {"time": 218, "velocity": 0, "pitch": 51, "instrument": 1, "track": 5, "qtime": 26, "bar": 4, "isDrum": false}, {"time": 218, "velocity": 0, "pitch": 72, "instrument": 1, "track": 5, "qtime": 26, "bar": 4, "isDrum": false}, {"time": 218, "velocity": 0, "pitch": 75, "instrument": 1, "track": 5, "qtime": 26, "bar": 4, "isDrum": false}, {"time": 218, "velocity": 0, "pitch": 80, "instrument": 1, "track": 5, "qtime": 26, "bar": 4, "isDrum": false}, {"time": 222, "velocity": 108, "pitch": 44, "instrument": 1, "track": 5, "qtime": 30, "bar": 4, "isDrum": false}, {"time": 222, "velocity": 108, "pitch": 51, "instrument": 1, "track": 5, "qtime": 30, "bar": 4, "isDrum": false}, {"time": 222, "velocity": 108, "pitch": 72, "instrument": 1, "track": 5, "qtime": 30, "bar": 4, "isDrum": false}, {"time": 222, "velocity": 108, "pitch": 75, "instrument": 1, "track": 5, "qtime": 30, "bar": 4, "isDrum": false}, {"time": 222, "velocity": 108, "pitch": 80, "instrument": 1, "track": 5, "qtime": 30, "bar": 4, "isDrum": false}, {"time": 224, "velocity": 0, "pitch": 44, "instrument": 1, "track": 5, "qtime": 32, "bar": 4, "isDrum": false}, {"time": 224, "velocity": 0, "pitch": 51, "instrument": 1, "track": 5, "qtime": 32, "bar": 4, "isDrum": false}, {"time": 224, "velocity": 0, "pitch": 72, "instrument": 1, "track": 5, "qtime": 32, "bar": 4, "isDrum": false}, {"time": 224, "velocity": 0, "pitch": 75, "instrument": 1, "track": 5, "qtime": 32, "bar": 4, "isDrum": false}, {"time": 224, "velocity": 0, "pitch": 80, "instrument": 1, "track": 5, "qtime": 32, "bar": 4, "isDrum": false}, {"time": 228, "velocity": 108, "pitch": 44, "instrument": 1, "track": 5, "qtime": 36, "bar": 4, "isDrum": false}, {"time": 228, "velocity": 108, "pitch": 53, "instrument": 1, "track": 5, "qtime": 36, "bar": 4, "isDrum": false}, {"time": 228, "velocity": 108, "pitch": 72, "instrument": 1, "track": 5, "qtime": 36, "bar": 4, "isDrum": false}, {"time": 228, "velocity": 108, "pitch": 75, "instrument": 1, "track": 5, "qtime": 36, "bar": 4, "isDrum": false}, {"time": 228, "velocity": 108, "pitch": 80, "instrument": 1, "track": 5, "qtime": 36, "bar": 4, "isDrum": false}, {"time": 230, "velocity": 0, "pitch": 44, "instrument": 1, "track": 5, "qtime": 38, "bar": 4, "isDrum": false}, {"time": 230, "velocity": 0, "pitch": 53, "instrument": 1, "track": 5, "qtime": 38, "bar": 4, "isDrum": false}, {"time": 230, "velocity": 0, "pitch": 72, "instrument": 1, "track": 5, "qtime": 38, "bar": 4, "isDrum": false}, {"time": 230, "velocity": 0, "pitch": 75, "instrument": 1, "track": 5, "qtime": 38, "bar": 4, "isDrum": false}, {"time": 230, "velocity": 0, "pitch": 80, "instrument": 1, "track": 5, "qtime": 38, "bar": 4, "isDrum": false}, {"time": 234, "velocity": 108, "pitch": 44, "instrument": 1, "track": 5, "qtime": 42, "bar": 4, "isDrum": false}, {"time": 234, "velocity": 108, "pitch": 51, "instrument": 1, "track": 5, "qtime": 42, "bar": 4, "isDrum": false}, {"time": 234, "velocity": 108, "pitch": 72, "instrument": 1, "track": 5, "qtime": 42, "bar": 4, "isDrum": false}, {"time": 234, "velocity": 108, "pitch": 75, "instrument": 1, "track": 5, "qtime": 42, "bar": 4, "isDrum": false}, {"time": 234, "velocity": 108, "pitch": 80, "instrument": 1, "track": 5, "qtime": 42, "bar": 4, "isDrum": false}, {"time": 236, "velocity": 0, "pitch": 51, "instrument": 1, "track": 5, "qtime": 44, "bar": 4, "isDrum": false}, {"time": 236, "velocity": 0, "pitch": 72, "instrument": 1, "track": 5, "qtime": 44, "bar": 4, "isDrum": false}, {"time": 236, "velocity": 0, "pitch": 75, "instrument": 1, "track": 5, "qtime": 44, "bar": 4, "isDrum": false}, {"time": 236, "velocity": 0, "pitch": 80, "instrument": 1, "track": 5, "qtime": 44, "bar": 4, "isDrum": false}, {"time": 237, "velocity": 0, "pitch": 44, "instrument": 1, "track": 5, "qtime": 45, "bar": 4, "isDrum": false}, {"time": 240, "velocity": 108, "pitch": 44, "instrument": 1, "track": 5, "qtime": 0, "bar": 5, "isDrum": false}, {"time": 240, "velocity": 108, "pitch": 51, "instrument": 1, "track": 5, "qtime": 0, "bar": 5, "isDrum": false}, {"time": 240, "velocity": 108, "pitch": 72, "instrument": 1, "track": 5, "qtime": 0, "bar": 5, "isDrum": false}, {"time": 240, "velocity": 108, "pitch": 75, "instrument": 1, "track": 5, "qtime": 0, "bar": 5, "isDrum": false}, {"time": 240, "velocity": 108, "pitch": 80, "instrument": 1, "track": 5, "qtime": 0, "bar": 5, "isDrum": false}, {"time": 242, "velocity": 0, "pitch": 44, "instrument": 1, "track": 5, "qtime": 2, "bar": 5, "isDrum": false}, {"time": 242, "velocity": 0, "pitch": 51, "instrument": 1, "track": 5, "qtime": 2, "bar": 5, "isDrum": false}, {"time": 242, "velocity": 0, "pitch": 72, "instrument": 1, "track": 5, "qtime": 2, "bar": 5, "isDrum": false}, {"time": 242, "velocity": 0, "pitch": 75, "instrument": 1, "track": 5, "qtime": 2, "bar": 5, "isDrum": false}, {"time": 242, "velocity": 0, "pitch": 80, "instrument": 1, "track": 5, "qtime": 2, "bar": 5, "isDrum": false}, {"time": 246, "velocity": 108, "pitch": 44, "instrument": 1, "track": 5, "qtime": 6, "bar": 5, "isDrum": false}, {"time": 246, "velocity": 108, "pitch": 51, "instrument": 1, "track": 5, "qtime": 6, "bar": 5, "isDrum": false}, {"time": 246, "velocity": 108, "pitch": 72, "instrument": 1, "track": 5, "qtime": 6, "bar": 5, "isDrum": false}, {"time": 246, "velocity": 108, "pitch": 75, "instrument": 1, "track": 5, "qtime": 6, "bar": 5, "isDrum": false}, {"time": 246, "velocity": 108, "pitch": 80, "instrument": 1, "track": 5, "qtime": 6, "bar": 5, "isDrum": false}, {"time": 248, "velocity": 0, "pitch": 44, "instrument": 1, "track": 5, "qtime": 8, "bar": 5, "isDrum": false}, {"time": 248, "velocity": 0, "pitch": 72, "instrument": 1, "track": 5, "qtime": 8, "bar": 5, "isDrum": false}, {"time": 248, "velocity": 0, "pitch": 80, "instrument": 1, "track": 5, "qtime": 8, "bar": 5, "isDrum": false}, {"time": 249, "velocity": 0, "pitch": 51, "instrument": 1, "track": 5, "qtime": 9, "bar": 5, "isDrum": false}, {"time": 249, "velocity": 0, "pitch": 75, "instrument": 1, "track": 5, "qtime": 9, "bar": 5, "isDrum": false}, {"time": 252, "velocity": 108, "pitch": 44, "instrument": 1, "track": 5, "qtime": 12, "bar": 5, "isDrum": false}, {"time": 252, "velocity": 108, "pitch": 53, "instrument": 1, "track": 5, "qtime": 12, "bar": 5, "isDrum": false}, {"time": 252, "velocity": 108, "pitch": 72, "instrument": 1, "track": 5, "qtime": 12, "bar": 5, "isDrum": false}, {"time": 252, "velocity": 108, "pitch": 75, "instrument": 1, "track": 5, "qtime": 12, "bar": 5, "isDrum": false}, {"time": 252, "velocity": 108, "pitch": 80, "instrument": 1, "track": 5, "qtime": 12, "bar": 5, "isDrum": false}, {"time": 254, "velocity": 0, "pitch": 44, "instrument": 1, "track": 5, "qtime": 14, "bar": 5, "isDrum": false}, {"time": 254, "velocity": 0, "pitch": 53, "instrument": 1, "track": 5, "qtime": 14, "bar": 5, "isDrum": false}, {"time": 254, "velocity": 0, "pitch": 72, "instrument": 1, "track": 5, "qtime": 14, "bar": 5, "isDrum": false}, {"time": 254, "velocity": 0, "pitch": 75, "instrument": 1, "track": 5, "qtime": 14, "bar": 5, "isDrum": false}, {"time": 254, "velocity": 0, "pitch": 80, "instrument": 1, "track": 5, "qtime": 14, "bar": 5, "isDrum": false}, {"time": 258, "velocity": 108, "pitch": 44, "instrument": 1, "track": 5, "qtime": 18, "bar": 5, "isDrum": false}, {"time": 258, "velocity": 108, "pitch": 51, "instrument": 1, "track": 5, "qtime": 18, "bar": 5, "isDrum": false}, {"time": 258, "velocity": 108, "pitch": 72, "instrument": 1, "track": 5, "qtime": 18, "bar": 5, "isDrum": false}, {"time": 258, "velocity": 108, "pitch": 75, "instrument": 1, "track": 5, "qtime": 18, "bar": 5, "isDrum": false}, {"time": 258, "velocity": 108, "pitch": 80, "instrument": 1, "track": 5, "qtime": 18, "bar": 5, "isDrum": false}, {"time": 260, "velocity": 0, "pitch": 44, "instrument": 1, "track": 5, "qtime": 20, "bar": 5, "isDrum": false}, {"time": 260, "velocity": 0, "pitch": 51, "instrument": 1, "track": 5, "qtime": 20, "bar": 5, "isDrum": false}, {"time": 260, "velocity": 0, "pitch": 72, "instrument": 1, "track": 5, "qtime": 20, "bar": 5, "isDrum": false}, {"time": 260, "velocity": 0, "pitch": 75, "instrument": 1, "track": 5, "qtime": 20, "bar": 5, "isDrum": false}, {"time": 260, "velocity": 0, "pitch": 80, "instrument": 1, "track": 5, "qtime": 20, "bar": 5, "isDrum": false}, {"time": 264, "velocity": 108, "pitch": 44, "instrument": 1, "track": 5, "qtime": 24, "bar": 5, "isDrum": false}, {"time": 264, "velocity": 108, "pitch": 51, "instrument": 1, "track": 5, "qtime": 24, "bar": 5, "isDrum": false}, {"time": 264, "velocity": 108, "pitch": 72, "instrument": 1, "track": 5, "qtime": 24, "bar": 5, "isDrum": false}, {"time": 264, "velocity": 108, "pitch": 75, "instrument": 1, "track": 5, "qtime": 24, "bar": 5, "isDrum": false}, {"time": 264, "velocity": 108, "pitch": 80, "instrument": 1, "track": 5, "qtime": 24, "bar": 5, "isDrum": false}, {"time": 266, "velocity": 0, "pitch": 44, "instrument": 1, "track": 5, "qtime": 26, "bar": 5, "isDrum": false}, {"time": 266, "velocity": 0, "pitch": 51, "instrument": 1, "track": 5, "qtime": 26, "bar": 5, "isDrum": false}, {"time": 266, "velocity": 0, "pitch": 72, "instrument": 1, "track": 5, "qtime": 26, "bar": 5, "isDrum": false}, {"time": 266, "velocity": 0, "pitch": 75, "instrument": 1, "track": 5, "qtime": 26, "bar": 5, "isDrum": false}, {"time": 266, "velocity": 0, "pitch": 80, "instrument": 1, "track": 5, "qtime": 26, "bar": 5, "isDrum": false}, {"time": 270, "velocity": 108, "pitch": 44, "instrument": 1, "track": 5, "qtime": 30, "bar": 5, "isDrum": false}, {"time": 270, "velocity": 108, "pitch": 51, "instrument": 1, "track": 5, "qtime": 30, "bar": 5, "isDrum": false}, {"time": 270, "velocity": 108, "pitch": 72, "instrument": 1, "track": 5, "qtime": 30, "bar": 5, "isDrum": false}, {"time": 270, "velocity": 108, "pitch": 75, "instrument": 1, "track": 5, "qtime": 30, "bar": 5, "isDrum": false}, {"time": 270, "velocity": 108, "pitch": 80, "instrument": 1, "track": 5, "qtime": 30, "bar": 5, "isDrum": false}, {"time": 272, "velocity": 0, "pitch": 72, "instrument": 1, "track": 5, "qtime": 32, "bar": 5, "isDrum": false}, {"time": 272, "velocity": 0, "pitch": 75, "instrument": 1, "track": 5, "qtime": 32, "bar": 5, "isDrum": false}, {"time": 272, "velocity": 0, "pitch": 80, "instrument": 1, "track": 5, "qtime": 32, "bar": 5, "isDrum": false}, {"time": 273, "velocity": 0, "pitch": 44, "instrument": 1, "track": 5, "qtime": 33, "bar": 5, "isDrum": false}, {"time": 274, "velocity": 0, "pitch": 51, "instrument": 1, "track": 5, "qtime": 34, "bar": 5, "isDrum": false}, {"time": 276, "velocity": 108, "pitch": 44, "instrument": 1, "track": 5, "qtime": 36, "bar": 5, "isDrum": false}, {"time": 276, "velocity": 108, "pitch": 53, "instrument": 1, "track": 5, "qtime": 36, "bar": 5, "isDrum": false}, {"time": 276, "velocity": 108, "pitch": 72, "instrument": 1, "track": 5, "qtime": 36, "bar": 5, "isDrum": false}, {"time": 276, "velocity": 108, "pitch": 75, "instrument": 1, "track": 5, "qtime": 36, "bar": 5, "isDrum": false}, {"time": 276, "velocity": 108, "pitch": 80, "instrument": 1, "track": 5, "qtime": 36, "bar": 5, "isDrum": false}, {"time": 278, "velocity": 0, "pitch": 72, "instrument": 1, "track": 5, "qtime": 38, "bar": 5, "isDrum": false}, {"time": 278, "velocity": 0, "pitch": 75, "instrument": 1, "track": 5, "qtime": 38, "bar": 5, "isDrum": false}, {"time": 278, "velocity": 0, "pitch": 80, "instrument": 1, "track": 5, "qtime": 38, "bar": 5, "isDrum": false}, {"time": 279, "velocity": 0, "pitch": 44, "instrument": 1, "track": 5, "qtime": 39, "bar": 5, "isDrum": false}, {"time": 279, "velocity": 0, "pitch": 53, "instrument": 1, "track": 5, "qtime": 39, "bar": 5, "isDrum": false}, {"time": 282, "velocity": 108, "pitch": 44, "instrument": 1, "track": 5, "qtime": 42, "bar": 5, "isDrum": false}, {"time": 282, "velocity": 108, "pitch": 51, "instrument": 1, "track": 5, "qtime": 42, "bar": 5, "isDrum": false}, {"time": 282, "velocity": 108, "pitch": 72, "instrument": 1, "track": 5, "qtime": 42, "bar": 5, "isDrum": false}, {"time": 282, "velocity": 108, "pitch": 75, "instrument": 1, "track": 5, "qtime": 42, "bar": 5, "isDrum": false}, {"time": 282, "velocity": 108, "pitch": 80, "instrument": 1, "track": 5, "qtime": 42, "bar": 5, "isDrum": false}, {"time": 284, "velocity": 0, "pitch": 51, "instrument": 1, "track": 5, "qtime": 44, "bar": 5, "isDrum": false}, {"time": 285, "velocity": 0, "pitch": 44, "instrument": 1, "track": 5, "qtime": 45, "bar": 5, "isDrum": false}, {"time": 285, "velocity": 0, "pitch": 75, "instrument": 1, "track": 5, "qtime": 45, "bar": 5, "isDrum": false}, {"time": 285, "velocity": 0, "pitch": 80, "instrument": 1, "track": 5, "qtime": 45, "bar": 5, "isDrum": false}, {"time": 286, "velocity": 0, "pitch": 72, "instrument": 1, "track": 5, "qtime": 46, "bar": 5, "isDrum": false}, {"time": 288, "velocity": 108, "pitch": 39, "instrument": 1, "track": 5, "qtime": 0, "bar": 6, "isDrum": false}, {"time": 288, "velocity": 108, "pitch": 46, "instrument": 1, "track": 5, "qtime": 0, "bar": 6, "isDrum": false}, {"time": 288, "velocity": 108, "pitch": 75, "instrument": 1, "track": 5, "qtime": 0, "bar": 6, "isDrum": false}, {"time": 288, "velocity": 108, "pitch": 79, "instrument": 1, "track": 5, "qtime": 0, "bar": 6, "isDrum": false}, {"time": 290, "velocity": 0, "pitch": 46, "instrument": 1, "track": 5, "qtime": 2, "bar": 6, "isDrum": false}, {"time": 291, "velocity": 0, "pitch": 39, "instrument": 1, "track": 5, "qtime": 3, "bar": 6, "isDrum": false}, {"time": 291, "velocity": 0, "pitch": 75, "instrument": 1, "track": 5, "qtime": 3, "bar": 6, "isDrum": false}, {"time": 291, "velocity": 0, "pitch": 79, "instrument": 1, "track": 5, "qtime": 3, "bar": 6, "isDrum": false}, {"time": 294, "velocity": 108, "pitch": 39, "instrument": 1, "track": 5, "qtime": 6, "bar": 6, "isDrum": false}, {"time": 294, "velocity": 108, "pitch": 46, "instrument": 1, "track": 5, "qtime": 6, "bar": 6, "isDrum": false}, {"time": 294, "velocity": 108, "pitch": 75, "instrument": 1, "track": 5, "qtime": 6, "bar": 6, "isDrum": false}, {"time": 294, "velocity": 108, "pitch": 79, "instrument": 1, "track": 5, "qtime": 6, "bar": 6, "isDrum": false}, {"time": 297, "velocity": 0, "pitch": 39, "instrument": 1, "track": 5, "qtime": 9, "bar": 6, "isDrum": false}, {"time": 297, "velocity": 0, "pitch": 75, "instrument": 1, "track": 5, "qtime": 9, "bar": 6, "isDrum": false}, {"time": 297, "velocity": 0, "pitch": 79, "instrument": 1, "track": 5, "qtime": 9, "bar": 6, "isDrum": false}, {"time": 298, "velocity": 0, "pitch": 46, "instrument": 1, "track": 5, "qtime": 10, "bar": 6, "isDrum": false}, {"time": 300, "velocity": 108, "pitch": 39, "instrument": 1, "track": 5, "qtime": 12, "bar": 6, "isDrum": false}, {"time": 300, "velocity": 108, "pitch": 48, "instrument": 1, "track": 5, "qtime": 12, "bar": 6, "isDrum": false}, {"time": 300, "velocity": 108, "pitch": 75, "instrument": 1, "track": 5, "qtime": 12, "bar": 6, "isDrum": false}, {"time": 300, "velocity": 108, "pitch": 79, "instrument": 1, "track": 5, "qtime": 12, "bar": 6, "isDrum": false}, {"time": 302, "velocity": 0, "pitch": 48, "instrument": 1, "track": 5, "qtime": 14, "bar": 6, "isDrum": false}, {"time": 302, "velocity": 0, "pitch": 75, "instrument": 1, "track": 5, "qtime": 14, "bar": 6, "isDrum": false}, {"time": 302, "velocity": 0, "pitch": 79, "instrument": 1, "track": 5, "qtime": 14, "bar": 6, "isDrum": false}, {"time": 303, "velocity": 0, "pitch": 39, "instrument": 1, "track": 5, "qtime": 15, "bar": 6, "isDrum": false}, {"time": 306, "velocity": 108, "pitch": 39, "instrument": 1, "track": 5, "qtime": 18, "bar": 6, "isDrum": false}, {"time": 306, "velocity": 108, "pitch": 46, "instrument": 1, "track": 5, "qtime": 18, "bar": 6, "isDrum": false}, {"time": 306, "velocity": 108, "pitch": 75, "instrument": 1, "track": 5, "qtime": 18, "bar": 6, "isDrum": false}, {"time": 306, "velocity": 108, "pitch": 79, "instrument": 1, "track": 5, "qtime": 18, "bar": 6, "isDrum": false}, {"time": 308, "velocity": 0, "pitch": 39, "instrument": 1, "track": 5, "qtime": 20, "bar": 6, "isDrum": false}, {"time": 309, "velocity": 0, "pitch": 46, "instrument": 1, "track": 5, "qtime": 21, "bar": 6, "isDrum": false}, {"time": 309, "velocity": 0, "pitch": 75, "instrument": 1, "track": 5, "qtime": 21, "bar": 6, "isDrum": false}, {"time": 309, "velocity": 0, "pitch": 79, "instrument": 1, "track": 5, "qtime": 21, "bar": 6, "isDrum": false}, {"time": 312, "velocity": 108, "pitch": 39, "instrument": 1, "track": 5, "qtime": 24, "bar": 6, "isDrum": false}, {"time": 312, "velocity": 108, "pitch": 46, "instrument": 1, "track": 5, "qtime": 24, "bar": 6, "isDrum": false}, {"time": 312, "velocity": 108, "pitch": 75, "instrument": 1, "track": 5, "qtime": 24, "bar": 6, "isDrum": false}, {"time": 312, "velocity": 108, "pitch": 79, "instrument": 1, "track": 5, "qtime": 24, "bar": 6, "isDrum": false}, {"time": 314, "velocity": 0, "pitch": 46, "instrument": 1, "track": 5, "qtime": 26, "bar": 6, "isDrum": false}, {"time": 314, "velocity": 0, "pitch": 75, "instrument": 1, "track": 5, "qtime": 26, "bar": 6, "isDrum": false}, {"time": 314, "velocity": 0, "pitch": 79, "instrument": 1, "track": 5, "qtime": 26, "bar": 6, "isDrum": false}, {"time": 315, "velocity": 0, "pitch": 39, "instrument": 1, "track": 5, "qtime": 27, "bar": 6, "isDrum": false}, {"time": 318, "velocity": 108, "pitch": 39, "instrument": 1, "track": 5, "qtime": 30, "bar": 6, "isDrum": false}, {"time": 318, "velocity": 108, "pitch": 46, "instrument": 1, "track": 5, "qtime": 30, "bar": 6, "isDrum": false}, {"time": 318, "velocity": 108, "pitch": 75, "instrument": 1, "track": 5, "qtime": 30, "bar": 6, "isDrum": false}, {"time": 318, "velocity": 108, "pitch": 79, "instrument": 1, "track": 5, "qtime": 30, "bar": 6, "isDrum": false}, {"time": 320, "velocity": 0, "pitch": 75, "instrument": 1, "track": 5, "qtime": 32, "bar": 6, "isDrum": false}, {"time": 321, "velocity": 0, "pitch": 79, "instrument": 1, "track": 5, "qtime": 33, "bar": 6, "isDrum": false}, {"time": 322, "velocity": 0, "pitch": 39, "instrument": 1, "track": 5, "qtime": 34, "bar": 6, "isDrum": false}, {"time": 323, "velocity": 0, "pitch": 46, "instrument": 1, "track": 5, "qtime": 35, "bar": 6, "isDrum": false}, {"time": 324, "velocity": 108, "pitch": 39, "instrument": 1, "track": 5, "qtime": 36, "bar": 6, "isDrum": false}, {"time": 324, "velocity": 108, "pitch": 48, "instrument": 1, "track": 5, "qtime": 36, "bar": 6, "isDrum": false}, {"time": 324, "velocity": 108, "pitch": 70, "instrument": 1, "track": 5, "qtime": 36, "bar": 6, "isDrum": false}, {"time": 324, "velocity": 108, "pitch": 75, "instrument": 1, "track": 5, "qtime": 36, "bar": 6, "isDrum": false}, {"time": 324, "velocity": 108, "pitch": 79, "instrument": 1, "track": 5, "qtime": 36, "bar": 6, "isDrum": false}, {"time": 326, "velocity": 0, "pitch": 70, "instrument": 1, "track": 5, "qtime": 38, "bar": 6, "isDrum": false}, {"time": 326, "velocity": 0, "pitch": 75, "instrument": 1, "track": 5, "qtime": 38, "bar": 6, "isDrum": false}, {"time": 327, "velocity": 0, "pitch": 39, "instrument": 1, "track": 5, "qtime": 39, "bar": 6, "isDrum": false}, {"time": 327, "velocity": 0, "pitch": 48, "instrument": 1, "track": 5, "qtime": 39, "bar": 6, "isDrum": false}, {"time": 327, "velocity": 0, "pitch": 79, "instrument": 1, "track": 5, "qtime": 39, "bar": 6, "isDrum": false}, {"time": 330, "velocity": 108, "pitch": 39, "instrument": 1, "track": 5, "qtime": 42, "bar": 6, "isDrum": false}, {"time": 330, "velocity": 108, "pitch": 46, "instrument": 1, "track": 5, "qtime": 42, "bar": 6, "isDrum": false}, {"time": 330, "velocity": 108, "pitch": 70, "instrument": 1, "track": 5, "qtime": 42, "bar": 6, "isDrum": false}, {"time": 330, "velocity": 108, "pitch": 75, "instrument": 1, "track": 5, "qtime": 42, "bar": 6, "isDrum": false}, {"time": 330, "velocity": 108, "pitch": 79, "instrument": 1, "track": 5, "qtime": 42, "bar": 6, "isDrum": false}, {"time": 332, "velocity": 0, "pitch": 39, "instrument": 1, "track": 5, "qtime": 44, "bar": 6, "isDrum": false}, {"time": 333, "velocity": 0, "pitch": 46, "instrument": 1, "track": 5, "qtime": 45, "bar": 6, "isDrum": false}, {"time": 333, "velocity": 0, "pitch": 70, "instrument": 1, "track": 5, "qtime": 45, "bar": 6, "isDrum": false}, {"time": 333, "velocity": 0, "pitch": 75, "instrument": 1, "track": 5, "qtime": 45, "bar": 6, "isDrum": false}, {"time": 334, "velocity": 0, "pitch": 79, "instrument": 1, "track": 5, "qtime": 46, "bar": 6, "isDrum": false}, {"time": 336, "velocity": 108, "pitch": 39, "instrument": 1, "track": 5, "qtime": 0, "bar": 7, "isDrum": false}, {"time": 336, "velocity": 108, "pitch": 46, "instrument": 1, "track": 5, "qtime": 0, "bar": 7, "isDrum": false}, {"time": 336, "velocity": 108, "pitch": 70, "instrument": 1, "track": 5, "qtime": 0, "bar": 7, "isDrum": false}, {"time": 336, "velocity": 108, "pitch": 75, "instrument": 1, "track": 5, "qtime": 0, "bar": 7, "isDrum": false}, {"time": 336, "velocity": 108, "pitch": 79, "instrument": 1, "track": 5, "qtime": 0, "bar": 7, "isDrum": false}, {"time": 338, "velocity": 0, "pitch": 39, "instrument": 1, "track": 5, "qtime": 2, "bar": 7, "isDrum": false}, {"time": 338, "velocity": 0, "pitch": 46, "instrument": 1, "track": 5, "qtime": 2, "bar": 7, "isDrum": false}, {"time": 338, "velocity": 0, "pitch": 70, "instrument": 1, "track": 5, "qtime": 2, "bar": 7, "isDrum": false}, {"time": 339, "velocity": 0, "pitch": 75, "instrument": 1, "track": 5, "qtime": 3, "bar": 7, "isDrum": false}, {"time": 339, "velocity": 0, "pitch": 79, "instrument": 1, "track": 5, "qtime": 3, "bar": 7, "isDrum": false}, {"time": 342, "velocity": 108, "pitch": 39, "instrument": 1, "track": 5, "qtime": 6, "bar": 7, "isDrum": false}, {"time": 342, "velocity": 108, "pitch": 46, "instrument": 1, "track": 5, "qtime": 6, "bar": 7, "isDrum": false}, {"time": 342, "velocity": 108, "pitch": 70, "instrument": 1, "track": 5, "qtime": 6, "bar": 7, "isDrum": false}, {"time": 342, "velocity": 108, "pitch": 75, "instrument": 1, "track": 5, "qtime": 6, "bar": 7, "isDrum": false}, {"time": 342, "velocity": 108, "pitch": 79, "instrument": 1, "track": 5, "qtime": 6, "bar": 7, "isDrum": false}, {"time": 344, "velocity": 0, "pitch": 70, "instrument": 1, "track": 5, "qtime": 8, "bar": 7, "isDrum": false}, {"time": 345, "velocity": 0, "pitch": 39, "instrument": 1, "track": 5, "qtime": 9, "bar": 7, "isDrum": false}, {"time": 345, "velocity": 0, "pitch": 46, "instrument": 1, "track": 5, "qtime": 9, "bar": 7, "isDrum": false}, {"time": 345, "velocity": 0, "pitch": 75, "instrument": 1, "track": 5, "qtime": 9, "bar": 7, "isDrum": false}, {"time": 346, "velocity": 0, "pitch": 79, "instrument": 1, "track": 5, "qtime": 10, "bar": 7, "isDrum": false}, {"time": 348, "velocity": 108, "pitch": 39, "instrument": 1, "track": 5, "qtime": 12, "bar": 7, "isDrum": false}, {"time": 348, "velocity": 108, "pitch": 48, "instrument": 1, "track": 5, "qtime": 12, "bar": 7, "isDrum": false}, {"time": 348, "velocity": 108, "pitch": 70, "instrument": 1, "track": 5, "qtime": 12, "bar": 7, "isDrum": false}, {"time": 348, "velocity": 108, "pitch": 75, "instrument": 1, "track": 5, "qtime": 12, "bar": 7, "isDrum": false}, {"time": 348, "velocity": 108, "pitch": 79, "instrument": 1, "track": 5, "qtime": 12, "bar": 7, "isDrum": false}, {"time": 350, "velocity": 0, "pitch": 39, "instrument": 1, "track": 5, "qtime": 14, "bar": 7, "isDrum": false}, {"time": 350, "velocity": 0, "pitch": 48, "instrument": 1, "track": 5, "qtime": 14, "bar": 7, "isDrum": false}, {"time": 350, "velocity": 0, "pitch": 70, "instrument": 1, "track": 5, "qtime": 14, "bar": 7, "isDrum": false}, {"time": 351, "velocity": 0, "pitch": 75, "instrument": 1, "track": 5, "qtime": 15, "bar": 7, "isDrum": false}, {"time": 351, "velocity": 0, "pitch": 79, "instrument": 1, "track": 5, "qtime": 15, "bar": 7, "isDrum": false}, {"time": 354, "velocity": 108, "pitch": 39, "instrument": 1, "track": 5, "qtime": 18, "bar": 7, "isDrum": false}, {"time": 354, "velocity": 108, "pitch": 46, "instrument": 1, "track": 5, "qtime": 18, "bar": 7, "isDrum": false}, {"time": 354, "velocity": 108, "pitch": 70, "instrument": 1, "track": 5, "qtime": 18, "bar": 7, "isDrum": false}, {"time": 354, "velocity": 108, "pitch": 75, "instrument": 1, "track": 5, "qtime": 18, "bar": 7, "isDrum": false}, {"time": 354, "velocity": 108, "pitch": 79, "instrument": 1, "track": 5, "qtime": 18, "bar": 7, "isDrum": false}, {"time": 356, "velocity": 0, "pitch": 39, "instrument": 1, "track": 5, "qtime": 20, "bar": 7, "isDrum": false}, {"time": 356, "velocity": 0, "pitch": 46, "instrument": 1, "track": 5, "qtime": 20, "bar": 7, "isDrum": false}, {"time": 356, "velocity": 0, "pitch": 70, "instrument": 1, "track": 5, "qtime": 20, "bar": 7, "isDrum": false}, {"time": 357, "velocity": 0, "pitch": 75, "instrument": 1, "track": 5, "qtime": 21, "bar": 7, "isDrum": false}, {"time": 357, "velocity": 0, "pitch": 79, "instrument": 1, "track": 5, "qtime": 21, "bar": 7, "isDrum": false}, {"time": 360, "velocity": 108, "pitch": 39, "instrument": 1, "track": 5, "qtime": 24, "bar": 7, "isDrum": false}, {"time": 360, "velocity": 108, "pitch": 46, "instrument": 1, "track": 5, "qtime": 24, "bar": 7, "isDrum": false}, {"time": 360, "velocity": 108, "pitch": 70, "instrument": 1, "track": 5, "qtime": 24, "bar": 7, "isDrum": false}, {"time": 360, "velocity": 108, "pitch": 75, "instrument": 1, "track": 5, "qtime": 24, "bar": 7, "isDrum": false}, {"time": 360, "velocity": 108, "pitch": 79, "instrument": 1, "track": 5, "qtime": 24, "bar": 7, "isDrum": false}, {"time": 362, "velocity": 0, "pitch": 39, "instrument": 1, "track": 5, "qtime": 26, "bar": 7, "isDrum": false}, {"time": 362, "velocity": 0, "pitch": 70, "instrument": 1, "track": 5, "qtime": 26, "bar": 7, "isDrum": false}, {"time": 363, "velocity": 0, "pitch": 46, "instrument": 1, "track": 5, "qtime": 27, "bar": 7, "isDrum": false}, {"time": 363, "velocity": 0, "pitch": 75, "instrument": 1, "track": 5, "qtime": 27, "bar": 7, "isDrum": false}, {"time": 363, "velocity": 0, "pitch": 79, "instrument": 1, "track": 5, "qtime": 27, "bar": 7, "isDrum": false}, {"time": 366, "velocity": 108, "pitch": 39, "instrument": 1, "track": 5, "qtime": 30, "bar": 7, "isDrum": false}, {"time": 366, "velocity": 108, "pitch": 46, "instrument": 1, "track": 5, "qtime": 30, "bar": 7, "isDrum": false}, {"time": 366, "velocity": 108, "pitch": 70, "instrument": 1, "track": 5, "qtime": 30, "bar": 7, "isDrum": false}, {"time": 366, "velocity": 108, "pitch": 75, "instrument": 1, "track": 5, "qtime": 30, "bar": 7, "isDrum": false}, {"time": 366, "velocity": 108, "pitch": 79, "instrument": 1, "track": 5, "qtime": 30, "bar": 7, "isDrum": false}, {"time": 367, "velocity": 0, "pitch": 70, "instrument": 1, "track": 5, "qtime": 31, "bar": 7, "isDrum": false}, {"time": 369, "velocity": 0, "pitch": 75, "instrument": 1, "track": 5, "qtime": 33, "bar": 7, "isDrum": false}, {"time": 369, "velocity": 0, "pitch": 79, "instrument": 1, "track": 5, "qtime": 33, "bar": 7, "isDrum": false}, {"time": 370, "velocity": 0, "pitch": 39, "instrument": 1, "track": 5, "qtime": 34, "bar": 7, "isDrum": false}, {"time": 370, "velocity": 0, "pitch": 46, "instrument": 1, "track": 5, "qtime": 34, "bar": 7, "isDrum": false}, {"time": 372, "velocity": 108, "pitch": 39, "instrument": 1, "track": 5, "qtime": 36, "bar": 7, "isDrum": false}, {"time": 372, "velocity": 108, "pitch": 48, "instrument": 1, "track": 5, "qtime": 36, "bar": 7, "isDrum": false}, {"time": 372, "velocity": 108, "pitch": 70, "instrument": 1, "track": 5, "qtime": 36, "bar": 7, "isDrum": false}, {"time": 372, "velocity": 108, "pitch": 75, "instrument": 1, "track": 5, "qtime": 36, "bar": 7, "isDrum": false}, {"time": 372, "velocity": 108, "pitch": 79, "instrument": 1, "track": 5, "qtime": 36, "bar": 7, "isDrum": false}, {"time": 373, "velocity": 0, "pitch": 75, "instrument": 1, "track": 5, "qtime": 37, "bar": 7, "isDrum": false}, {"time": 375, "velocity": 0, "pitch": 70, "instrument": 1, "track": 5, "qtime": 39, "bar": 7, "isDrum": false}, {"time": 375, "velocity": 0, "pitch": 79, "instrument": 1, "track": 5, "qtime": 39, "bar": 7, "isDrum": false}, {"time": 376, "velocity": 0, "pitch": 48, "instrument": 1, "track": 5, "qtime": 40, "bar": 7, "isDrum": false}, {"time": 377, "velocity": 0, "pitch": 39, "instrument": 1, "track": 5, "qtime": 41, "bar": 7, "isDrum": false}, {"time": 378, "velocity": 108, "pitch": 39, "instrument": 1, "track": 5, "qtime": 42, "bar": 7, "isDrum": false}, {"time": 378, "velocity": 108, "pitch": 46, "instrument": 1, "track": 5, "qtime": 42, "bar": 7, "isDrum": false}, {"time": 378, "velocity": 108, "pitch": 75, "instrument": 1, "track": 5, "qtime": 42, "bar": 7, "isDrum": false}, {"time": 378, "velocity": 108, "pitch": 79, "instrument": 1, "track": 5, "qtime": 42, "bar": 7, "isDrum": false}, {"time": 380, "velocity": 0, "pitch": 39, "instrument": 1, "track": 5, "qtime": 44, "bar": 7, "isDrum": false}, {"time": 380, "velocity": 0, "pitch": 46, "instrument": 1, "track": 5, "qtime": 44, "bar": 7, "isDrum": false}, {"time": 380, "velocity": 0, "pitch": 75, "instrument": 1, "track": 5, "qtime": 44, "bar": 7, "isDrum": false}, {"time": 381, "velocity": 0, "pitch": 79, "instrument": 1, "track": 5, "qtime": 45, "bar": 7, "isDrum": false}, {"time": 0, "velocity": 108, "pitch": 35, "instrument": 0, "track": 6, "qtime": 0, "bar": 0, "isDrum": true}, {"time": 4, "velocity": 0, "pitch": 35, "instrument": 0, "track": 6, "qtime": 4, "bar": 0, "isDrum": true}, {"time": 12, "velocity": 108, "pitch": 35, "instrument": 0, "track": 6, "qtime": 12, "bar": 0, "isDrum": true}, {"time": 16, "velocity": 0, "pitch": 35, "instrument": 0, "track": 6, "qtime": 16, "bar": 0, "isDrum": true}, {"time": 24, "velocity": 108, "pitch": 35, "instrument": 0, "track": 6, "qtime": 24, "bar": 0, "isDrum": true}, {"time": 28, "velocity": 0, "pitch": 35, "instrument": 0, "track": 6, "qtime": 28, "bar": 0, "isDrum": true}, {"time": 36, "velocity": 108, "pitch": 35, "instrument": 0, "track": 6, "qtime": 36, "bar": 0, "isDrum": true}, {"time": 40, "velocity": 0, "pitch": 35, "instrument": 0, "track": 6, "qtime": 40, "bar": 0, "isDrum": true}, {"time": 48, "velocity": 108, "pitch": 35, "instrument": 0, "track": 6, "qtime": 0, "bar": 1, "isDrum": true}, {"time": 52, "velocity": 0, "pitch": 35, "instrument": 0, "track": 6, "qtime": 4, "bar": 1, "isDrum": true}, {"time": 60, "velocity": 108, "pitch": 35, "instrument": 0, "track": 6, "qtime": 12, "bar": 1, "isDrum": true}, {"time": 64, "velocity": 0, "pitch": 35, "instrument": 0, "track": 6, "qtime": 16, "bar": 1, "isDrum": true}, {"time": 72, "velocity": 108, "pitch": 35, "instrument": 0, "track": 6, "qtime": 24, "bar": 1, "isDrum": true}, {"time": 76, "velocity": 0, "pitch": 35, "instrument": 0, "track": 6, "qtime": 28, "bar": 1, "isDrum": true}, {"time": 84, "velocity": 108, "pitch": 35, "instrument": 0, "track": 6, "qtime": 36, "bar": 1, "isDrum": true}, {"time": 88, "velocity": 0, "pitch": 35, "instrument": 0, "track": 6, "qtime": 40, "bar": 1, "isDrum": true}, {"time": 96, "velocity": 108, "pitch": 35, "instrument": 0, "track": 6, "qtime": 0, "bar": 2, "isDrum": true}, {"time": 100, "velocity": 0, "pitch": 35, "instrument": 0, "track": 6, "qtime": 4, "bar": 2, "isDrum": true}, {"time": 108, "velocity": 108, "pitch": 35, "instrument": 0, "track": 6, "qtime": 12, "bar": 2, "isDrum": true}, {"time": 112, "velocity": 0, "pitch": 35, "instrument": 0, "track": 6, "qtime": 16, "bar": 2, "isDrum": true}, {"time": 120, "velocity": 108, "pitch": 35, "instrument": 0, "track": 6, "qtime": 24, "bar": 2, "isDrum": true}, {"time": 124, "velocity": 0, "pitch": 35, "instrument": 0, "track": 6, "qtime": 28, "bar": 2, "isDrum": true}, {"time": 132, "velocity": 108, "pitch": 35, "instrument": 0, "track": 6, "qtime": 36, "bar": 2, "isDrum": true}, {"time": 136, "velocity": 0, "pitch": 35, "instrument": 0, "track": 6, "qtime": 40, "bar": 2, "isDrum": true}, {"time": 144, "velocity": 108, "pitch": 35, "instrument": 0, "track": 6, "qtime": 0, "bar": 3, "isDrum": true}, {"time": 148, "velocity": 0, "pitch": 35, "instrument": 0, "track": 6, "qtime": 4, "bar": 3, "isDrum": true}, {"time": 156, "velocity": 108, "pitch": 35, "instrument": 0, "track": 6, "qtime": 12, "bar": 3, "isDrum": true}, {"time": 160, "velocity": 0, "pitch": 35, "instrument": 0, "track": 6, "qtime": 16, "bar": 3, "isDrum": true}, {"time": 168, "velocity": 108, "pitch": 35, "instrument": 0, "track": 6, "qtime": 24, "bar": 3, "isDrum": true}, {"time": 172, "velocity": 0, "pitch": 35, "instrument": 0, "track": 6, "qtime": 28, "bar": 3, "isDrum": true}, {"time": 180, "velocity": 108, "pitch": 35, "instrument": 0, "track": 6, "qtime": 36, "bar": 3, "isDrum": true}, {"time": 184, "velocity": 0, "pitch": 35, "instrument": 0, "track": 6, "qtime": 40, "bar": 3, "isDrum": true}, {"time": 192, "velocity": 108, "pitch": 35, "instrument": 0, "track": 6, "qtime": 0, "bar": 4, "isDrum": true}, {"time": 196, "velocity": 0, "pitch": 35, "instrument": 0, "track": 6, "qtime": 4, "bar": 4, "isDrum": true}, {"time": 204, "velocity": 108, "pitch": 35, "instrument": 0, "track": 6, "qtime": 12, "bar": 4, "isDrum": true}, {"time": 208, "velocity": 0, "pitch": 35, "instrument": 0, "track": 6, "qtime": 16, "bar": 4, "isDrum": true}, {"time": 216, "velocity": 108, "pitch": 35, "instrument": 0, "track": 6, "qtime": 24, "bar": 4, "isDrum": true}, {"time": 220, "velocity": 0, "pitch": 35, "instrument": 0, "track": 6, "qtime": 28, "bar": 4, "isDrum": true}, {"time": 228, "velocity": 108, "pitch": 35, "instrument": 0, "track": 6, "qtime": 36, "bar": 4, "isDrum": true}, {"time": 232, "velocity": 0, "pitch": 35, "instrument": 0, "track": 6, "qtime": 40, "bar": 4, "isDrum": true}, {"time": 240, "velocity": 108, "pitch": 35, "instrument": 0, "track": 6, "qtime": 0, "bar": 5, "isDrum": true}, {"time": 244, "velocity": 0, "pitch": 35, "instrument": 0, "track": 6, "qtime": 4, "bar": 5, "isDrum": true}, {"time": 252, "velocity": 108, "pitch": 35, "instrument": 0, "track": 6, "qtime": 12, "bar": 5, "isDrum": true}, {"time": 256, "velocity": 0, "pitch": 35, "instrument": 0, "track": 6, "qtime": 16, "bar": 5, "isDrum": true}, {"time": 264, "velocity": 108, "pitch": 35, "instrument": 0, "track": 6, "qtime": 24, "bar": 5, "isDrum": true}, {"time": 268, "velocity": 0, "pitch": 35, "instrument": 0, "track": 6, "qtime": 28, "bar": 5, "isDrum": true}, {"time": 276, "velocity": 108, "pitch": 35, "instrument": 0, "track": 6, "qtime": 36, "bar": 5, "isDrum": true}, {"time": 280, "velocity": 0, "pitch": 35, "instrument": 0, "track": 6, "qtime": 40, "bar": 5, "isDrum": true}, {"time": 288, "velocity": 108, "pitch": 35, "instrument": 0, "track": 6, "qtime": 0, "bar": 6, "isDrum": true}, {"time": 292, "velocity": 0, "pitch": 35, "instrument": 0, "track": 6, "qtime": 4, "bar": 6, "isDrum": true}, {"time": 300, "velocity": 108, "pitch": 35, "instrument": 0, "track": 6, "qtime": 12, "bar": 6, "isDrum": true}, {"time": 304, "velocity": 0, "pitch": 35, "instrument": 0, "track": 6, "qtime": 16, "bar": 6, "isDrum": true}, {"time": 312, "velocity": 108, "pitch": 35, "instrument": 0, "track": 6, "qtime": 24, "bar": 6, "isDrum": true}, {"time": 316, "velocity": 0, "pitch": 35, "instrument": 0, "track": 6, "qtime": 28, "bar": 6, "isDrum": true}, {"time": 324, "velocity": 108, "pitch": 35, "instrument": 0, "track": 6, "qtime": 36, "bar": 6, "isDrum": true}, {"time": 328, "velocity": 0, "pitch": 35, "instrument": 0, "track": 6, "qtime": 40, "bar": 6, "isDrum": true}, {"time": 336, "velocity": 108, "pitch": 35, "instrument": 0, "track": 6, "qtime": 0, "bar": 7, "isDrum": true}, {"time": 340, "velocity": 0, "pitch": 35, "instrument": 0, "track": 6, "qtime": 4, "bar": 7, "isDrum": true}, {"time": 348, "velocity": 108, "pitch": 35, "instrument": 0, "track": 6, "qtime": 12, "bar": 7, "isDrum": true}, {"time": 352, "velocity": 0, "pitch": 35, "instrument": 0, "track": 6, "qtime": 16, "bar": 7, "isDrum": true}, {"time": 360, "velocity": 108, "pitch": 35, "instrument": 0, "track": 6, "qtime": 24, "bar": 7, "isDrum": true}, {"time": 364, "velocity": 0, "pitch": 35, "instrument": 0, "track": 6, "qtime": 28, "bar": 7, "isDrum": true}, {"time": 372, "velocity": 108, "pitch": 35, "instrument": 0, "track": 6, "qtime": 36, "bar": 7, "isDrum": true}, {"time": 376, "velocity": 0, "pitch": 35, "instrument": 0, "track": 6, "qtime": 40, "bar": 7, "isDrum": true}], "resolution": 12, "tempo": 164, "minPitch": 32, "maxPitch": 104, "validSegments": [0], "validTracks": [15], "segmentLength": 8}, "audio": "https://www.sfu.ca/~jeffe/examples/8b_gibbs_orig_3.mp3"}, {"src": "gen/8b_gibbs_gen_3.json", "highlights": [[], [], [0, 1, 2, 3, 4, 5, 6, 7], [], [], [], [], []], "caption": "We resample the piano track from 12a", "mixer": [8, 8, 8, 8, 8, 8, 8, 8], "sample_id": "12b", "json": {"tracks": [{"bars": [{"events": [0, 1, 2, 3, 4, 5, 6, 7, 8, 9, 10, 11, 12, 13, 14, 15], "isFourFour": true, "hasNotes": true, "time": 0}, {"events": [16, 17, 18, 19, 20, 21, 22, 23, 24, 25, 26, 27, 28, 29, 30], "isFourFour": true, "hasNotes": true, "time": 48}, {"events": [31, 32, 33, 34, 35, 36, 37, 38, 39, 40, 41, 42, 43, 44, 45, 46, 47], "isFourFour": true, "hasNotes": true, "time": 96}, {"events": [48, 49, 50, 51, 52, 53, 54, 55, 56, 57, 58, 59, 60, 61, 62, 63], "isFourFour": true, "hasNotes": true, "time": 144}, {"events": [64, 65, 66, 67, 68, 69, 70, 71, 72, 73, 74, 75, 76, 77, 78, 79], "isFourFour": true, "hasNotes": true, "time": 192}, {"events": [80, 81, 82, 83, 84, 85, 86, 87, 88, 89, 90, 91, 92, 93, 94, 95], "isFourFour": true, "hasNotes": true, "time": 240}, {"events": [96, 97, 98, 99, 100, 101, 102, 103, 104, 105, 106, 107, 108, 109, 110, 111], "isFourFour": true, "hasNotes": true, "time": 288}, {"events": [112, 113, 114, 115, 116, 117, 118, 119, 120, 121, 122, 123, 124, 125, 126, 127], "isFourFour": true, "hasNotes": true, "time": 336}], "isDrum": false, "minPitch": 32, "maxPitch": 48, "instrument": 32, "avPolyphony": 1.02120137, "noteDensity": 9, "noteDensityV2": 9}, {"bars": [{"events": [128, 129, 130, 131, 132, 133, 134, 135, 136, 137, 138, 139, 140, 141, 142, 143], "isFourFour": true, "hasNotes": true, "time": 0}, {"events": [144, 145, 146, 147, 148, 149, 150, 151, 152, 153, 154, 155, 156, 157, 158, 159], "isFourFour": true, "hasNotes": true, "time": 48}, {"events": [160, 161, 162, 163, 164, 165, 166, 167, 168, 169, 170, 171, 172, 173, 174, 175, 176, 177, 178, 179, 180, 181, 182, 183, 184, 185, 186, 187, 188, 189, 190, 191], "isFourFour": true, "hasNotes": true, "time": 96}, {"events": [192, 193, 194, 195, 196, 197, 198, 199, 200, 201, 202, 203, 204, 205, 206, 207], "isFourFour": true, "hasNotes": true, "time": 144}, {"events": [208, 209, 210, 211, 212, 213, 214, 215, 216, 217, 218, 219, 220, 221, 222, 223, 224, 225, 226, 227, 228, 229, 230, 231, 232, 233, 234, 235, 236, 237, 238, 239], "isFourFour": true, "hasNotes": true, "time": 192}, {"events": [240, 241, 242, 243, 244, 245, 246, 247, 248, 249, 250, 251, 252, 253, 254, 255, 256, 257, 258, 259, 260, 261, 262, 263, 264, 265, 266, 267, 268, 269, 270, 271], "isFourFour": true, "hasNotes": true, "time": 240}, {"events": [272, 273, 274, 275, 276, 277, 278, 279, 280, 281, 282, 283, 284, 285, 286, 287, 288, 289, 290, 291, 292, 293, 294, 295, 296, 297, 298, 299, 300, 301, 302, 303], "isFourFour": true, "hasNotes": true, "time": 288}, {"events": [304, 305, 306, 307, 308, 309, 310, 311, 312, 313, 314, 315, 316, 317, 318, 319, 320, 321, 322, 323, 324, 325, 326, 327, 328, 329, 330, 331, 332, 333, 334, 335], "isFourFour": true, "hasNotes": true, "time": 336}], "isDrum": false, "minPitch": 46, "maxPitch": 80, "instrument": 28, "avPolyphony": 1.8677249, "noteDensity": 9, "noteDensityV2": 7}, {"bars": [{"events": [400, 401, 402, 403, 404, 405, 406, 407, 408, 409, 410, 411, 412, 413, 414, 415, 416, 417, 418, 419, 420, 421, 422, 423, 424, 425, 426, 427, 428, 429, 430, 431, 432, 433, 434, 435, 436, 437, 438, 439, 440, 441, 442, 443, 444, 445, 446, 447, 448, 449, 450, 451, 452, 453, 454, 455, 456, 457, 458, 459, 460, 461, 462, 463, 464, 465, 466, 467, 468, 469, 470, 471, 472, 473, 474, 475, 476, 477, 478, 479], "isFourFour": true, "hasNotes": true, "time": 0}, {"events": [480, 481, 482, 483, 484, 485, 486, 487, 488, 489, 490, 491, 492, 493, 494, 495, 496, 497, 498, 499, 500, 501, 502, 503, 504, 505, 506, 507, 508, 509, 510, 511, 512, 513, 514, 515, 516, 517, 518, 519, 520, 521, 522, 523, 524, 525, 526, 527, 528, 529, 530, 531, 532, 533, 534, 535, 536, 537, 538, 539, 540, 541, 542, 543, 544, 545, 546, 547, 548, 549, 550, 551, 552, 553, 554, 555, 556, 557, 558, 559, 560, 561, 562, 563, 564, 565], "isFourFour": true, "hasNotes": true, "time": 48}, {"events": [566, 567, 568, 569, 570, 571, 572, 573, 574, 575, 576, 577, 578, 579, 580, 581, 582, 583, 584, 585, 586, 587, 588, 589, 590, 591, 592, 593, 594, 595, 596, 597, 598, 599, 600, 601, 602, 603, 604, 605, 606, 607, 608, 609, 610, 611, 612, 613, 614, 615, 616, 617, 618, 619, 620, 621, 622, 623, 624, 625, 626, 627, 628, 629, 630, 631, 632, 633, 634, 635], "isFourFour": true, "hasNotes": true, "time": 96}, {"events": [636, 637, 638, 639, 640, 641, 642, 643, 644, 645, 646, 647, 648, 649, 650, 651, 652, 653, 654, 655, 656, 657, 658, 659, 660, 661, 662, 663, 664, 665, 666, 667, 668, 669, 670, 671, 672, 673, 674, 675, 676, 677, 678, 679, 680, 681, 682, 683, 684, 685, 686, 687, 688, 689, 690, 691, 692, 693, 694, 695, 696, 697, 698, 699, 700, 701, 702, 703, 704, 705, 706, 707, 708, 709, 710, 711, 712, 713, 714, 715, 716], "isFourFour": true, "hasNotes": true, "time": 144}, {"events": [717, 718, 719, 720, 721, 722, 723, 724, 725, 726, 727, 728, 729, 730, 731, 732, 733, 734, 735, 736, 737, 738, 739, 740, 741, 742, 743, 744, 745, 746, 747, 748, 749, 750, 751, 752, 753, 754, 755, 756, 757, 758, 759, 760, 761, 762, 763, 764, 765, 766, 767, 768, 769, 770, 771, 772, 773, 774, 775, 776, 777, 778, 779, 780, 781, 782, 783, 784, 785, 786, 787, 788, 789, 790, 791, 792, 793, 794, 795, 796], "isFourFour": true, "hasNotes": true, "time": 192}, {"events": [797, 798, 799, 800, 801, 802, 803, 804, 805, 806, 807, 808, 809, 810, 811, 812, 813, 814, 815, 816, 817, 818, 819, 820, 821, 822, 823, 824, 825, 826, 827, 828, 829, 830, 831, 832, 833, 834, 835, 836, 837, 838, 839, 840, 841, 842, 843, 844, 845, 846, 847, 848, 849, 850, 851, 852, 853, 854, 855, 856, 857, 858, 859, 860, 861, 862, 863, 864, 865, 866, 867, 868, 869, 870, 871, 872, 873, 874, 875, 876], "isFourFour": true, "hasNotes": true, "time": 240}, {"events": [877, 878, 879, 880, 881, 882, 883, 884, 885, 886, 887, 888, 889, 890, 891, 892, 893, 894, 895, 896, 897, 898, 899, 900, 901, 902, 903, 904, 905, 906, 907, 908, 909, 910, 911, 912, 913, 914, 915, 916, 917, 918, 919, 920, 921, 922, 923, 924, 925, 926, 927, 928, 929, 930, 931, 932, 933, 934, 935, 936, 937, 938, 939, 940, 941, 942, 943, 944, 945, 946, 947, 948, 949, 950, 951, 952, 953, 954, 955, 956], "isFourFour": true, "hasNotes": true, "time": 288}, {"events": [957, 958, 959, 960, 961, 962, 963, 964, 965, 966, 967, 968, 969, 970, 971, 972, 973, 974, 975, 976, 977, 978, 979, 980, 981, 982, 983, 984, 985, 986, 987, 988, 989, 990, 991, 992, 993, 994, 995, 996, 997, 998, 999, 1000, 1001, 1002, 1003, 1004, 1005, 1006, 1007, 1008, 1009, 1010, 1011, 1012, 1013, 1014, 1015, 1016, 1017, 1018, 1019, 1020, 1021, 1022, 1023, 1024, 1025, 1026, 1027, 1028, 1029, 1030, 1031, 1032, 1033, 1034, 1035, 1036], "isFourFour": true, "hasNotes": true, "time": 336}], "isDrum": false, "minPitch": 34, "maxPitch": 94, "instrument": 1, "avPolyphony": 3.92387533, "noteDensity": 9, "noteDensityV2": 9}, {"bars": [{"events": [336, 337, 338, 339, 340, 341, 342, 343], "isFourFour": true, "hasNotes": true, "time": 0}, {"events": [344, 345, 346, 347, 348, 349, 350, 351], "isFourFour": true, "hasNotes": true, "time": 48}, {"events": [352, 353, 354, 355, 356, 357, 358, 359], "isFourFour": true, "hasNotes": true, "time": 96}, {"events": [360, 361, 362, 363, 364, 365, 366, 367], "isFourFour": true, "hasNotes": true, "time": 144}, {"events": [368, 369, 370, 371, 372, 373, 374, 375], "isFourFour": true, "hasNotes": true, "time": 192}, {"events": [376, 377, 378, 379, 380, 381, 382, 383], "isFourFour": true, "hasNotes": true, "time": 240}, {"events": [384, 385, 386, 387, 388, 389, 390, 391], "isFourFour": true, "hasNotes": true, "time": 288}, {"events": [392, 393, 394, 395, 396, 397, 398, 399], "isFourFour": true, "hasNotes": true, "time": 336}], "isDrum": true, "minPitch": 35, "maxPitch": 35, "instrument": 0, "avPolyphony": 1, "noteDensity": 8, "noteDensityV2": 2}], "events": [{"time": 0, "velocity": 108, "pitch": 34, "instrument": 32, "track": 0, "qtime": 0, "isDrum": false}, {"time": 3, "velocity": 0, "pitch": 34, "instrument": 32, "track": 0, "qtime": 3, "isDrum": false}, {"time": 6, "velocity": 108, "pitch": 34, "instrument": 32, "track": 0, "qtime": 6, "isDrum": false}, {"time": 11, "velocity": 0, "pitch": 34, "instrument": 32, "track": 0, "qtime": 11, "isDrum": false}, {"time": 12, "velocity": 108, "pitch": 38, "instrument": 32, "track": 0, "qtime": 12, "isDrum": false}, {"time": 15, "velocity": 0, "pitch": 38, "instrument": 32, "track": 0, "qtime": 15, "isDrum": false}, {"time": 18, "velocity": 108, "pitch": 38, "instrument": 32, "track": 0, "qtime": 18, "isDrum": false}, {"time": 22, "velocity": 0, "pitch": 38, "instrument": 32, "track": 0, "qtime": 22, "isDrum": false}, {"time": 24, "velocity": 108, "pitch": 41, "instrument": 32, "track": 0, "qtime": 24, "isDrum": false}, {"time": 27, "velocity": 0, "pitch": 41, "instrument": 32, "track": 0, "qtime": 27, "isDrum": false}, {"time": 30, "velocity": 108, "pitch": 41, "instrument": 32, "track": 0, "qtime": 30, "isDrum": false}, {"time": 36, "velocity": 0, "pitch": 41, "instrument": 32, "track": 0, "qtime": 36, "isDrum": false}, {"time": 36, "velocity": 108, "pitch": 43, "instrument": 32, "track": 0, "qtime": 36, "isDrum": false}, {"time": 42, "velocity": 0, "pitch": 43, "instrument": 32, "track": 0, "qtime": 42, "isDrum": false}, {"time": 42, "velocity": 108, "pitch": 41, "instrument": 32, "track": 0, "qtime": 42, "isDrum": false}, {"time": 44, "velocity": 0, "pitch": 41, "instrument": 32, "track": 0, "qtime": 44, "isDrum": false}, {"time": 48, "velocity": 108, "pitch": 34, "instrument": 32, "track": 0, "qtime": 0, "isDrum": false}, {"time": 50, "velocity": 0, "pitch": 34, "instrument": 32, "track": 0, "qtime": 2, "isDrum": false}, {"time": 54, "velocity": 108, "pitch": 34, "instrument": 32, "track": 0, "qtime": 6, "isDrum": false}, {"time": 60, "velocity": 0, "pitch": 34, "instrument": 32, "track": 0, "qtime": 12, "isDrum": false}, {"time": 60, "velocity": 108, "pitch": 38, "instrument": 32, "track": 0, "qtime": 12, "isDrum": false}, {"time": 63, "velocity": 0, "pitch": 38, "instrument": 32, "track": 0, "qtime": 15, "isDrum": false}, {"time": 66, "velocity": 108, "pitch": 38, "instrument": 32, "track": 0, "qtime": 18, "isDrum": false}, {"time": 70, "velocity": 0, "pitch": 38, "instrument": 32, "track": 0, "qtime": 22, "isDrum": false}, {"time": 72, "velocity": 108, "pitch": 41, "instrument": 32, "track": 0, "qtime": 24, "isDrum": false}, {"time": 75, "velocity": 0, "pitch": 41, "instrument": 32, "track": 0, "qtime": 27, "isDrum": false}, {"time": 78, "velocity": 108, "pitch": 41, "instrument": 32, "track": 0, "qtime": 30, "isDrum": false}, {"time": 84, "velocity": 0, "pitch": 41, "instrument": 32, "track": 0, "qtime": 36, "isDrum": false}, {"time": 84, "velocity": 108, "pitch": 43, "instrument": 32, "track": 0, "qtime": 36, "isDrum": false}, {"time": 89, "velocity": 0, "pitch": 43, "instrument": 32, "track": 0, "qtime": 41, "isDrum": false}, {"time": 90, "velocity": 108, "pitch": 41, "instrument": 32, "track": 0, "qtime": 42, "isDrum": false}, {"time": 96, "velocity": 108, "pitch": 39, "instrument": 32, "track": 0, "qtime": 0, "isDrum": false}, {"time": 97, "velocity": 0, "pitch": 41, "instrument": 32, "track": 0, "qtime": 1, "isDrum": false}, {"time": 100, "velocity": 0, "pitch": 39, "instrument": 32, "track": 0, "qtime": 4, "isDrum": false}, {"time": 102, "velocity": 108, "pitch": 39, "instrument": 32, "track": 0, "qtime": 6, "isDrum": false}, {"time": 107, "velocity": 0, "pitch": 39, "instrument": 32, "track": 0, "qtime": 11, "isDrum": false}, {"time": 108, "velocity": 108, "pitch": 43, "instrument": 32, "track": 0, "qtime": 12, "isDrum": false}, {"time": 111, "velocity": 0, "pitch": 43, "instrument": 32, "track": 0, "qtime": 15, "isDrum": false}, {"time": 114, "velocity": 108, "pitch": 43, "instrument": 32, "track": 0, "qtime": 18, "isDrum": false}, {"time": 119, "velocity": 0, "pitch": 43, "instrument": 32, "track": 0, "qtime": 23, "isDrum": false}, {"time": 120, "velocity": 108, "pitch": 46, "instrument": 32, "track": 0, "qtime": 24, "isDrum": false}, {"time": 124, "velocity": 0, "pitch": 46, "instrument": 32, "track": 0, "qtime": 28, "isDrum": false}, {"time": 126, "velocity": 108, "pitch": 46, "instrument": 32, "track": 0, "qtime": 30, "isDrum": false}, {"time": 132, "velocity": 0, "pitch": 46, "instrument": 32, "track": 0, "qtime": 36, "isDrum": false}, {"time": 132, "velocity": 108, "pitch": 48, "instrument": 32, "track": 0, "qtime": 36, "isDrum": false}, {"time": 137, "velocity": 0, "pitch": 48, "instrument": 32, "track": 0, "qtime": 41, "isDrum": false}, {"time": 138, "velocity": 108, "pitch": 46, "instrument": 32, "track": 0, "qtime": 42, "isDrum": false}, {"time": 144, "velocity": 0, "pitch": 46, "instrument": 32, "track": 0, "qtime": 48, "isDrum": false}, {"time": 144, "velocity": 108, "pitch": 39, "instrument": 32, "track": 0, "qtime": 0, "isDrum": false}, {"time": 147, "velocity": 0, "pitch": 39, "instrument": 32, "track": 0, "qtime": 3, "isDrum": false}, {"time": 150, "velocity": 108, "pitch": 39, "instrument": 32, "track": 0, "qtime": 6, "isDrum": false}, {"time": 156, "velocity": 0, "pitch": 39, "instrument": 32, "track": 0, "qtime": 12, "isDrum": false}, {"time": 156, "velocity": 108, "pitch": 43, "instrument": 32, "track": 0, "qtime": 12, "isDrum": false}, {"time": 158, "velocity": 0, "pitch": 43, "instrument": 32, "track": 0, "qtime": 14, "isDrum": false}, {"time": 162, "velocity": 108, "pitch": 43, "instrument": 32, "track": 0, "qtime": 18, "isDrum": false}, {"time": 168, "velocity": 0, "pitch": 43, "instrument": 32, "track": 0, "qtime": 24, "isDrum": false}, {"time": 168, "velocity": 108, "pitch": 46, "instrument": 32, "track": 0, "qtime": 24, "isDrum": false}, {"time": 172, "velocity": 0, "pitch": 46, "instrument": 32, "track": 0, "qtime": 28, "isDrum": false}, {"time": 174, "velocity": 108, "pitch": 46, "instrument": 32, "track": 0, "qtime": 30, "isDrum": false}, {"time": 180, "velocity": 108, "pitch": 48, "instrument": 32, "track": 0, "qtime": 36, "isDrum": false}, {"time": 181, "velocity": 0, "pitch": 46, "instrument": 32, "track": 0, "qtime": 37, "isDrum": false}, {"time": 186, "velocity": 108, "pitch": 46, "instrument": 32, "track": 0, "qtime": 42, "isDrum": false}, {"time": 188, "velocity": 0, "pitch": 46, "instrument": 32, "track": 0, "qtime": 44, "isDrum": false}, {"time": 188, "velocity": 0, "pitch": 48, "instrument": 32, "track": 0, "qtime": 44, "isDrum": false}, {"time": 192, "velocity": 108, "pitch": 32, "instrument": 32, "track": 0, "qtime": 0, "isDrum": false}, {"time": 195, "velocity": 0, "pitch": 32, "instrument": 32, "track": 0, "qtime": 3, "isDrum": false}, {"time": 198, "velocity": 108, "pitch": 32, "instrument": 32, "track": 0, "qtime": 6, "isDrum": false}, {"time": 204, "velocity": 0, "pitch": 32, "instrument": 32, "track": 0, "qtime": 12, "isDrum": false}, {"time": 204, "velocity": 108, "pitch": 36, "instrument": 32, "track": 0, "qtime": 12, "isDrum": false}, {"time": 207, "velocity": 0, "pitch": 36, "instrument": 32, "track": 0, "qtime": 15, "isDrum": false}, {"time": 210, "velocity": 108, "pitch": 36, "instrument": 32, "track": 0, "qtime": 18, "isDrum": false}, {"time": 213, "velocity": 0, "pitch": 36, "instrument": 32, "track": 0, "qtime": 21, "isDrum": false}, {"time": 216, "velocity": 108, "pitch": 39, "instrument": 32, "track": 0, "qtime": 24, "isDrum": false}, {"time": 219, "velocity": 0, "pitch": 39, "instrument": 32, "track": 0, "qtime": 27, "isDrum": false}, {"time": 222, "velocity": 108, "pitch": 39, "instrument": 32, "track": 0, "qtime": 30, "isDrum": false}, {"time": 228, "velocity": 0, "pitch": 39, "instrument": 32, "track": 0, "qtime": 36, "isDrum": false}, {"time": 228, "velocity": 108, "pitch": 41, "instrument": 32, "track": 0, "qtime": 36, "isDrum": false}, {"time": 234, "velocity": 0, "pitch": 41, "instrument": 32, "track": 0, "qtime": 42, "isDrum": false}, {"time": 234, "velocity": 108, "pitch": 39, "instrument": 32, "track": 0, "qtime": 42, "isDrum": false}, {"time": 239, "velocity": 0, "pitch": 39, "instrument": 32, "track": 0, "qtime": 47, "isDrum": false}, {"time": 240, "velocity": 108, "pitch": 32, "instrument": 32, "track": 0, "qtime": 0, "isDrum": false}, {"time": 243, "velocity": 0, "pitch": 32, "instrument": 32, "track": 0, "qtime": 3, "isDrum": false}, {"time": 246, "velocity": 108, "pitch": 32, "instrument": 32, "track": 0, "qtime": 6, "isDrum": false}, {"time": 252, "velocity": 0, "pitch": 32, "instrument": 32, "track": 0, "qtime": 12, "isDrum": false}, {"time": 252, "velocity": 108, "pitch": 36, "instrument": 32, "track": 0, "qtime": 12, "isDrum": false}, {"time": 256, "velocity": 0, "pitch": 36, "instrument": 32, "track": 0, "qtime": 16, "isDrum": false}, {"time": 258, "velocity": 108, "pitch": 36, "instrument": 32, "track": 0, "qtime": 18, "isDrum": false}, {"time": 261, "velocity": 0, "pitch": 36, "instrument": 32, "track": 0, "qtime": 21, "isDrum": false}, {"time": 264, "velocity": 108, "pitch": 39, "instrument": 32, "track": 0, "qtime": 24, "isDrum": false}, {"time": 267, "velocity": 0, "pitch": 39, "instrument": 32, "track": 0, "qtime": 27, "isDrum": false}, {"time": 270, "velocity": 108, "pitch": 39, "instrument": 32, "track": 0, "qtime": 30, "isDrum": false}, {"time": 276, "velocity": 108, "pitch": 41, "instrument": 32, "track": 0, "qtime": 36, "isDrum": false}, {"time": 277, "velocity": 0, "pitch": 39, "instrument": 32, "track": 0, "qtime": 37, "isDrum": false}, {"time": 282, "velocity": 0, "pitch": 41, "instrument": 32, "track": 0, "qtime": 42, "isDrum": false}, {"time": 282, "velocity": 108, "pitch": 39, "instrument": 32, "track": 0, "qtime": 42, "isDrum": false}, {"time": 286, "velocity": 0, "pitch": 39, "instrument": 32, "track": 0, "qtime": 46, "isDrum": false}, {"time": 288, "velocity": 108, "pitch": 39, "instrument": 32, "track": 0, "qtime": 0, "isDrum": false}, {"time": 291, "velocity": 0, "pitch": 39, "instrument": 32, "track": 0, "qtime": 3, "isDrum": false}, {"time": 294, "velocity": 108, "pitch": 39, "instrument": 32, "track": 0, "qtime": 6, "isDrum": false}, {"time": 300, "velocity": 0, "pitch": 39, "instrument": 32, "track": 0, "qtime": 12, "isDrum": false}, {"time": 300, "velocity": 108, "pitch": 43, "instrument": 32, "track": 0, "qtime": 12, "isDrum": false}, {"time": 303, "velocity": 0, "pitch": 43, "instrument": 32, "track": 0, "qtime": 15, "isDrum": false}, {"time": 306, "velocity": 108, "pitch": 43, "instrument": 32, "track": 0, "qtime": 18, "isDrum": false}, {"time": 310, "velocity": 0, "pitch": 43, "instrument": 32, "track": 0, "qtime": 22, "isDrum": false}, {"time": 312, "velocity": 108, "pitch": 46, "instrument": 32, "track": 0, "qtime": 24, "isDrum": false}, {"time": 316, "velocity": 0, "pitch": 46, "instrument": 32, "track": 0, "qtime": 28, "isDrum": false}, {"time": 318, "velocity": 108, "pitch": 46, "instrument": 32, "track": 0, "qtime": 30, "isDrum": false}, {"time": 324, "velocity": 0, "pitch": 46, "instrument": 32, "track": 0, "qtime": 36, "isDrum": false}, {"time": 324, "velocity": 108, "pitch": 48, "instrument": 32, "track": 0, "qtime": 36, "isDrum": false}, {"time": 330, "velocity": 0, "pitch": 48, "instrument": 32, "track": 0, "qtime": 42, "isDrum": false}, {"time": 330, "velocity": 108, "pitch": 46, "instrument": 32, "track": 0, "qtime": 42, "isDrum": false}, {"time": 336, "velocity": 0, "pitch": 46, "instrument": 32, "track": 0, "qtime": 48, "isDrum": false}, {"time": 336, "velocity": 108, "pitch": 39, "instrument": 32, "track": 0, "qtime": 0, "isDrum": false}, {"time": 339, "velocity": 0, "pitch": 39, "instrument": 32, "track": 0, "qtime": 3, "isDrum": false}, {"time": 342, "velocity": 108, "pitch": 39, "instrument": 32, "track": 0, "qtime": 6, "isDrum": false}, {"time": 348, "velocity": 0, "pitch": 39, "instrument": 32, "track": 0, "qtime": 12, "isDrum": false}, {"time": 348, "velocity": 108, "pitch": 43, "instrument": 32, "track": 0, "qtime": 12, "isDrum": false}, {"time": 351, "velocity": 0, "pitch": 43, "instrument": 32, "track": 0, "qtime": 15, "isDrum": false}, {"time": 354, "velocity": 108, "pitch": 43, "instrument": 32, "track": 0, "qtime": 18, "isDrum": false}, {"time": 360, "velocity": 0, "pitch": 43, "instrument": 32, "track": 0, "qtime": 24, "isDrum": false}, {"time": 360, "velocity": 108, "pitch": 46, "instrument": 32, "track": 0, "qtime": 24, "isDrum": false}, {"time": 363, "velocity": 0, "pitch": 46, "instrument": 32, "track": 0, "qtime": 27, "isDrum": false}, {"time": 366, "velocity": 108, "pitch": 46, "instrument": 32, "track": 0, "qtime": 30, "isDrum": false}, {"time": 372, "velocity": 108, "pitch": 48, "instrument": 32, "track": 0, "qtime": 36, "isDrum": false}, {"time": 373, "velocity": 0, "pitch": 46, "instrument": 32, "track": 0, "qtime": 37, "isDrum": false}, {"time": 378, "velocity": 0, "pitch": 48, "instrument": 32, "track": 0, "qtime": 42, "isDrum": false}, {"time": 378, "velocity": 108, "pitch": 46, "instrument": 32, "track": 0, "qtime": 42, "isDrum": false}, {"time": 380, "velocity": 0, "pitch": 46, "instrument": 32, "track": 0, "qtime": 44, "isDrum": false}, {"time": 0, "velocity": 108, "pitch": 46, "instrument": 28, "track": 1, "qtime": 0, "isDrum": false}, {"time": 0, "velocity": 108, "pitch": 53, "instrument": 28, "track": 1, "qtime": 0, "isDrum": false}, {"time": 2, "velocity": 0, "pitch": 46, "instrument": 28, "track": 1, "qtime": 2, "isDrum": false}, {"time": 2, "velocity": 0, "pitch": 53, "instrument": 28, "track": 1, "qtime": 2, "isDrum": false}, {"time": 12, "velocity": 108, "pitch": 46, "instrument": 28, "track": 1, "qtime": 12, "isDrum": false}, {"time": 12, "velocity": 108, "pitch": 55, "instrument": 28, "track": 1, "qtime": 12, "isDrum": false}, {"time": 15, "velocity": 0, "pitch": 46, "instrument": 28, "track": 1, "qtime": 15, "isDrum": false}, {"time": 15, "velocity": 0, "pitch": 55, "instrument": 28, "track": 1, "qtime": 15, "isDrum": false}, {"time": 24, "velocity": 108, "pitch": 46, "instrument": 28, "track": 1, "qtime": 24, "isDrum": false}, {"time": 24, "velocity": 108, "pitch": 53, "instrument": 28, "track": 1, "qtime": 24, "isDrum": false}, {"time": 26, "velocity": 0, "pitch": 53, "instrument": 28, "track": 1, "qtime": 26, "isDrum": false}, {"time": 27, "velocity": 0, "pitch": 46, "instrument": 28, "track": 1, "qtime": 27, "isDrum": false}, {"time": 36, "velocity": 108, "pitch": 46, "instrument": 28, "track": 1, "qtime": 36, "isDrum": false}, {"time": 36, "velocity": 108, "pitch": 55, "instrument": 28, "track": 1, "qtime": 36, "isDrum": false}, {"time": 39, "velocity": 0, "pitch": 46, "instrument": 28, "track": 1, "qtime": 39, "isDrum": false}, {"time": 39, "velocity": 0, "pitch": 55, "instrument": 28, "track": 1, "qtime": 39, "isDrum": false}, {"time": 48, "velocity": 108, "pitch": 46, "instrument": 28, "track": 1, "qtime": 0, "isDrum": false}, {"time": 48, "velocity": 108, "pitch": 53, "instrument": 28, "track": 1, "qtime": 0, "isDrum": false}, {"time": 50, "velocity": 0, "pitch": 53, "instrument": 28, "track": 1, "qtime": 2, "isDrum": false}, {"time": 51, "velocity": 0, "pitch": 46, "instrument": 28, "track": 1, "qtime": 3, "isDrum": false}, {"time": 60, "velocity": 108, "pitch": 46, "instrument": 28, "track": 1, "qtime": 12, "isDrum": false}, {"time": 60, "velocity": 108, "pitch": 55, "instrument": 28, "track": 1, "qtime": 12, "isDrum": false}, {"time": 63, "velocity": 0, "pitch": 46, "instrument": 28, "track": 1, "qtime": 15, "isDrum": false}, {"time": 63, "velocity": 0, "pitch": 55, "instrument": 28, "track": 1, "qtime": 15, "isDrum": false}, {"time": 72, "velocity": 108, "pitch": 46, "instrument": 28, "track": 1, "qtime": 24, "isDrum": false}, {"time": 72, "velocity": 108, "pitch": 53, "instrument": 28, "track": 1, "qtime": 24, "isDrum": false}, {"time": 75, "velocity": 0, "pitch": 46, "instrument": 28, "track": 1, "qtime": 27, "isDrum": false}, {"time": 75, "velocity": 0, "pitch": 53, "instrument": 28, "track": 1, "qtime": 27, "isDrum": false}, {"time": 84, "velocity": 108, "pitch": 46, "instrument": 28, "track": 1, "qtime": 36, "isDrum": false}, {"time": 84, "velocity": 108, "pitch": 55, "instrument": 28, "track": 1, "qtime": 36, "isDrum": false}, {"time": 87, "velocity": 0, "pitch": 46, "instrument": 28, "track": 1, "qtime": 39, "isDrum": false}, {"time": 87, "velocity": 0, "pitch": 55, "instrument": 28, "track": 1, "qtime": 39, "isDrum": false}, {"time": 96, "velocity": 108, "pitch": 51, "instrument": 28, "track": 1, "qtime": 0, "isDrum": false}, {"time": 96, "velocity": 108, "pitch": 58, "instrument": 28, "track": 1, "qtime": 0, "isDrum": false}, {"time": 98, "velocity": 0, "pitch": 58, "instrument": 28, "track": 1, "qtime": 2, "isDrum": false}, {"time": 99, "velocity": 0, "pitch": 51, "instrument": 28, "track": 1, "qtime": 3, "isDrum": false}, {"time": 102, "velocity": 108, "pitch": 51, "instrument": 28, "track": 1, "qtime": 6, "isDrum": false}, {"time": 102, "velocity": 108, "pitch": 58, "instrument": 28, "track": 1, "qtime": 6, "isDrum": false}, {"time": 105, "velocity": 0, "pitch": 51, "instrument": 28, "track": 1, "qtime": 9, "isDrum": false}, {"time": 105, "velocity": 0, "pitch": 58, "instrument": 28, "track": 1, "qtime": 9, "isDrum": false}, {"time": 108, "velocity": 108, "pitch": 51, "instrument": 28, "track": 1, "qtime": 12, "isDrum": false}, {"time": 108, "velocity": 108, "pitch": 60, "instrument": 28, "track": 1, "qtime": 12, "isDrum": false}, {"time": 111, "velocity": 0, "pitch": 60, "instrument": 28, "track": 1, "qtime": 15, "isDrum": false}, {"time": 112, "velocity": 0, "pitch": 51, "instrument": 28, "track": 1, "qtime": 16, "isDrum": false}, {"time": 114, "velocity": 108, "pitch": 51, "instrument": 28, "track": 1, "qtime": 18, "isDrum": false}, {"time": 114, "velocity": 108, "pitch": 58, "instrument": 28, "track": 1, "qtime": 18, "isDrum": false}, {"time": 116, "velocity": 0, "pitch": 51, "instrument": 28, "track": 1, "qtime": 20, "isDrum": false}, {"time": 116, "velocity": 0, "pitch": 58, "instrument": 28, "track": 1, "qtime": 20, "isDrum": false}, {"time": 120, "velocity": 108, "pitch": 51, "instrument": 28, "track": 1, "qtime": 24, "isDrum": false}, {"time": 120, "velocity": 108, "pitch": 58, "instrument": 28, "track": 1, "qtime": 24, "isDrum": false}, {"time": 122, "velocity": 0, "pitch": 58, "instrument": 28, "track": 1, "qtime": 26, "isDrum": false}, {"time": 123, "velocity": 0, "pitch": 51, "instrument": 28, "track": 1, "qtime": 27, "isDrum": false}, {"time": 126, "velocity": 108, "pitch": 51, "instrument": 28, "track": 1, "qtime": 30, "isDrum": false}, {"time": 126, "velocity": 108, "pitch": 58, "instrument": 28, "track": 1, "qtime": 30, "isDrum": false}, {"time": 128, "velocity": 0, "pitch": 51, "instrument": 28, "track": 1, "qtime": 32, "isDrum": false}, {"time": 128, "velocity": 0, "pitch": 58, "instrument": 28, "track": 1, "qtime": 32, "isDrum": false}, {"time": 132, "velocity": 108, "pitch": 51, "instrument": 28, "track": 1, "qtime": 36, "isDrum": false}, {"time": 132, "velocity": 108, "pitch": 60, "instrument": 28, "track": 1, "qtime": 36, "isDrum": false}, {"time": 134, "velocity": 0, "pitch": 60, "instrument": 28, "track": 1, "qtime": 38, "isDrum": false}, {"time": 135, "velocity": 0, "pitch": 51, "instrument": 28, "track": 1, "qtime": 39, "isDrum": false}, {"time": 138, "velocity": 108, "pitch": 51, "instrument": 28, "track": 1, "qtime": 42, "isDrum": false}, {"time": 138, "velocity": 108, "pitch": 58, "instrument": 28, "track": 1, "qtime": 42, "isDrum": false}, {"time": 140, "velocity": 0, "pitch": 51, "instrument": 28, "track": 1, "qtime": 44, "isDrum": false}, {"time": 140, "velocity": 0, "pitch": 58, "instrument": 28, "track": 1, "qtime": 44, "isDrum": false}, {"time": 144, "velocity": 108, "pitch": 51, "instrument": 28, "track": 1, "qtime": 0, "isDrum": false}, {"time": 144, "velocity": 108, "pitch": 58, "instrument": 28, "track": 1, "qtime": 0, "isDrum": false}, {"time": 147, "velocity": 0, "pitch": 51, "instrument": 28, "track": 1, "qtime": 3, "isDrum": false}, {"time": 147, "velocity": 0, "pitch": 58, "instrument": 28, "track": 1, "qtime": 3, "isDrum": false}, {"time": 156, "velocity": 108, "pitch": 51, "instrument": 28, "track": 1, "qtime": 12, "isDrum": false}, {"time": 156, "velocity": 108, "pitch": 60, "instrument": 28, "track": 1, "qtime": 12, "isDrum": false}, {"time": 159, "velocity": 0, "pitch": 51, "instrument": 28, "track": 1, "qtime": 15, "isDrum": false}, {"time": 159, "velocity": 0, "pitch": 60, "instrument": 28, "track": 1, "qtime": 15, "isDrum": false}, {"time": 168, "velocity": 108, "pitch": 51, "instrument": 28, "track": 1, "qtime": 24, "isDrum": false}, {"time": 168, "velocity": 108, "pitch": 58, "instrument": 28, "track": 1, "qtime": 24, "isDrum": false}, {"time": 170, "velocity": 0, "pitch": 58, "instrument": 28, "track": 1, "qtime": 26, "isDrum": false}, {"time": 171, "velocity": 0, "pitch": 51, "instrument": 28, "track": 1, "qtime": 27, "isDrum": false}, {"time": 180, "velocity": 108, "pitch": 51, "instrument": 28, "track": 1, "qtime": 36, "isDrum": false}, {"time": 180, "velocity": 108, "pitch": 60, "instrument": 28, "track": 1, "qtime": 36, "isDrum": false}, {"time": 182, "velocity": 0, "pitch": 60, "instrument": 28, "track": 1, "qtime": 38, "isDrum": false}, {"time": 183, "velocity": 0, "pitch": 51, "instrument": 28, "track": 1, "qtime": 39, "isDrum": false}, {"time": 192, "velocity": 108, "pitch": 74, "instrument": 28, "track": 1, "qtime": 0, "isDrum": false}, {"time": 192, "velocity": 108, "pitch": 79, "instrument": 28, "track": 1, "qtime": 0, "isDrum": false}, {"time": 198, "velocity": 0, "pitch": 74, "instrument": 28, "track": 1, "qtime": 6, "isDrum": false}, {"time": 198, "velocity": 108, "pitch": 75, "instrument": 28, "track": 1, "qtime": 6, "isDrum": false}, {"time": 198, "velocity": 108, "pitch": 80, "instrument": 28, "track": 1, "qtime": 6, "isDrum": false}, {"time": 199, "velocity": 0, "pitch": 79, "instrument": 28, "track": 1, "qtime": 7, "isDrum": false}, {"time": 201, "velocity": 0, "pitch": 80, "instrument": 28, "track": 1, "qtime": 9, "isDrum": false}, {"time": 202, "velocity": 0, "pitch": 75, "instrument": 28, "track": 1, "qtime": 10, "isDrum": false}, {"time": 204, "velocity": 108, "pitch": 75, "instrument": 28, "track": 1, "qtime": 12, "isDrum": false}, {"time": 204, "velocity": 108, "pitch": 80, "instrument": 28, "track": 1, "qtime": 12, "isDrum": false}, {"time": 208, "velocity": 0, "pitch": 75, "instrument": 28, "track": 1, "qtime": 16, "isDrum": false}, {"time": 208, "velocity": 0, "pitch": 80, "instrument": 28, "track": 1, "qtime": 16, "isDrum": false}, {"time": 210, "velocity": 108, "pitch": 75, "instrument": 28, "track": 1, "qtime": 18, "isDrum": false}, {"time": 210, "velocity": 108, "pitch": 80, "instrument": 28, "track": 1, "qtime": 18, "isDrum": false}, {"time": 214, "velocity": 0, "pitch": 75, "instrument": 28, "track": 1, "qtime": 22, "isDrum": false}, {"time": 214, "velocity": 0, "pitch": 80, "instrument": 28, "track": 1, "qtime": 22, "isDrum": false}, {"time": 216, "velocity": 108, "pitch": 75, "instrument": 28, "track": 1, "qtime": 24, "isDrum": false}, {"time": 216, "velocity": 108, "pitch": 80, "instrument": 28, "track": 1, "qtime": 24, "isDrum": false}, {"time": 220, "velocity": 0, "pitch": 75, "instrument": 28, "track": 1, "qtime": 28, "isDrum": false}, {"time": 220, "velocity": 0, "pitch": 80, "instrument": 28, "track": 1, "qtime": 28, "isDrum": false}, {"time": 222, "velocity": 108, "pitch": 75, "instrument": 28, "track": 1, "qtime": 30, "isDrum": false}, {"time": 222, "velocity": 108, "pitch": 80, "instrument": 28, "track": 1, "qtime": 30, "isDrum": false}, {"time": 225, "velocity": 0, "pitch": 75, "instrument": 28, "track": 1, "qtime": 33, "isDrum": false}, {"time": 225, "velocity": 0, "pitch": 80, "instrument": 28, "track": 1, "qtime": 33, "isDrum": false}, {"time": 228, "velocity": 108, "pitch": 75, "instrument": 28, "track": 1, "qtime": 36, "isDrum": false}, {"time": 228, "velocity": 108, "pitch": 80, "instrument": 28, "track": 1, "qtime": 36, "isDrum": false}, {"time": 231, "velocity": 0, "pitch": 75, "instrument": 28, "track": 1, "qtime": 39, "isDrum": false}, {"time": 231, "velocity": 0, "pitch": 80, "instrument": 28, "track": 1, "qtime": 39, "isDrum": false}, {"time": 234, "velocity": 108, "pitch": 75, "instrument": 28, "track": 1, "qtime": 42, "isDrum": false}, {"time": 234, "velocity": 108, "pitch": 80, "instrument": 28, "track": 1, "qtime": 42, "isDrum": false}, {"time": 238, "velocity": 0, "pitch": 75, "instrument": 28, "track": 1, "qtime": 46, "isDrum": false}, {"time": 240, "velocity": 0, "pitch": 80, "instrument": 28, "track": 1, "qtime": 48, "isDrum": false}, {"time": 240, "velocity": 108, "pitch": 74, "instrument": 28, "track": 1, "qtime": 0, "isDrum": false}, {"time": 240, "velocity": 108, "pitch": 79, "instrument": 28, "track": 1, "qtime": 0, "isDrum": false}, {"time": 245, "velocity": 0, "pitch": 74, "instrument": 28, "track": 1, "qtime": 5, "isDrum": false}, {"time": 246, "velocity": 0, "pitch": 79, "instrument": 28, "track": 1, "qtime": 6, "isDrum": false}, {"time": 246, "velocity": 108, "pitch": 75, "instrument": 28, "track": 1, "qtime": 6, "isDrum": false}, {"time": 246, "velocity": 108, "pitch": 80, "instrument": 28, "track": 1, "qtime": 6, "isDrum": false}, {"time": 249, "velocity": 0, "pitch": 75, "instrument": 28, "track": 1, "qtime": 9, "isDrum": false}, {"time": 249, "velocity": 0, "pitch": 80, "instrument": 28, "track": 1, "qtime": 9, "isDrum": false}, {"time": 252, "velocity": 108, "pitch": 75, "instrument": 28, "track": 1, "qtime": 12, "isDrum": false}, {"time": 252, "velocity": 108, "pitch": 80, "instrument": 28, "track": 1, "qtime": 12, "isDrum": false}, {"time": 255, "velocity": 0, "pitch": 80, "instrument": 28, "track": 1, "qtime": 15, "isDrum": false}, {"time": 256, "velocity": 0, "pitch": 75, "instrument": 28, "track": 1, "qtime": 16, "isDrum": false}, {"time": 258, "velocity": 108, "pitch": 75, "instrument": 28, "track": 1, "qtime": 18, "isDrum": false}, {"time": 258, "velocity": 108, "pitch": 80, "instrument": 28, "track": 1, "qtime": 18, "isDrum": false}, {"time": 261, "velocity": 0, "pitch": 75, "instrument": 28, "track": 1, "qtime": 21, "isDrum": false}, {"time": 262, "velocity": 0, "pitch": 80, "instrument": 28, "track": 1, "qtime": 22, "isDrum": false}, {"time": 264, "velocity": 108, "pitch": 75, "instrument": 28, "track": 1, "qtime": 24, "isDrum": false}, {"time": 264, "velocity": 108, "pitch": 80, "instrument": 28, "track": 1, "qtime": 24, "isDrum": false}, {"time": 268, "velocity": 0, "pitch": 75, "instrument": 28, "track": 1, "qtime": 28, "isDrum": false}, {"time": 268, "velocity": 0, "pitch": 80, "instrument": 28, "track": 1, "qtime": 28, "isDrum": false}, {"time": 270, "velocity": 108, "pitch": 75, "instrument": 28, "track": 1, "qtime": 30, "isDrum": false}, {"time": 270, "velocity": 108, "pitch": 80, "instrument": 28, "track": 1, "qtime": 30, "isDrum": false}, {"time": 273, "velocity": 0, "pitch": 80, "instrument": 28, "track": 1, "qtime": 33, "isDrum": false}, {"time": 274, "velocity": 0, "pitch": 75, "instrument": 28, "track": 1, "qtime": 34, "isDrum": false}, {"time": 276, "velocity": 108, "pitch": 75, "instrument": 28, "track": 1, "qtime": 36, "isDrum": false}, {"time": 276, "velocity": 108, "pitch": 80, "instrument": 28, "track": 1, "qtime": 36, "isDrum": false}, {"time": 279, "velocity": 0, "pitch": 75, "instrument": 28, "track": 1, "qtime": 39, "isDrum": false}, {"time": 279, "velocity": 0, "pitch": 80, "instrument": 28, "track": 1, "qtime": 39, "isDrum": false}, {"time": 282, "velocity": 108, "pitch": 75, "instrument": 28, "track": 1, "qtime": 42, "isDrum": false}, {"time": 282, "velocity": 108, "pitch": 80, "instrument": 28, "track": 1, "qtime": 42, "isDrum": false}, {"time": 285, "velocity": 0, "pitch": 75, "instrument": 28, "track": 1, "qtime": 45, "isDrum": false}, {"time": 285, "velocity": 0, "pitch": 80, "instrument": 28, "track": 1, "qtime": 45, "isDrum": false}, {"time": 288, "velocity": 108, "pitch": 69, "instrument": 28, "track": 1, "qtime": 0, "isDrum": false}, {"time": 288, "velocity": 108, "pitch": 74, "instrument": 28, "track": 1, "qtime": 0, "isDrum": false}, {"time": 294, "velocity": 0, "pitch": 69, "instrument": 28, "track": 1, "qtime": 6, "isDrum": false}, {"time": 294, "velocity": 108, "pitch": 70, "instrument": 28, "track": 1, "qtime": 6, "isDrum": false}, {"time": 294, "velocity": 108, "pitch": 75, "instrument": 28, "track": 1, "qtime": 6, "isDrum": false}, {"time": 295, "velocity": 0, "pitch": 74, "instrument": 28, "track": 1, "qtime": 7, "isDrum": false}, {"time": 297, "velocity": 0, "pitch": 70, "instrument": 28, "track": 1, "qtime": 9, "isDrum": false}, {"time": 298, "velocity": 0, "pitch": 75, "instrument": 28, "track": 1, "qtime": 10, "isDrum": false}, {"time": 300, "velocity": 108, "pitch": 70, "instrument": 28, "track": 1, "qtime": 12, "isDrum": false}, {"time": 300, "velocity": 108, "pitch": 75, "instrument": 28, "track": 1, "qtime": 12, "isDrum": false}, {"time": 303, "velocity": 0, "pitch": 70, "instrument": 28, "track": 1, "qtime": 15, "isDrum": false}, {"time": 304, "velocity": 0, "pitch": 75, "instrument": 28, "track": 1, "qtime": 16, "isDrum": false}, {"time": 306, "velocity": 108, "pitch": 70, "instrument": 28, "track": 1, "qtime": 18, "isDrum": false}, {"time": 306, "velocity": 108, "pitch": 75, "instrument": 28, "track": 1, "qtime": 18, "isDrum": false}, {"time": 309, "velocity": 0, "pitch": 70, "instrument": 28, "track": 1, "qtime": 21, "isDrum": false}, {"time": 310, "velocity": 0, "pitch": 75, "instrument": 28, "track": 1, "qtime": 22, "isDrum": false}, {"time": 312, "velocity": 108, "pitch": 70, "instrument": 28, "track": 1, "qtime": 24, "isDrum": false}, {"time": 312, "velocity": 108, "pitch": 75, "instrument": 28, "track": 1, "qtime": 24, "isDrum": false}, {"time": 315, "velocity": 0, "pitch": 70, "instrument": 28, "track": 1, "qtime": 27, "isDrum": false}, {"time": 316, "velocity": 0, "pitch": 75, "instrument": 28, "track": 1, "qtime": 28, "isDrum": false}, {"time": 318, "velocity": 108, "pitch": 70, "instrument": 28, "track": 1, "qtime": 30, "isDrum": false}, {"time": 318, "velocity": 108, "pitch": 75, "instrument": 28, "track": 1, "qtime": 30, "isDrum": false}, {"time": 321, "velocity": 0, "pitch": 70, "instrument": 28, "track": 1, "qtime": 33, "isDrum": false}, {"time": 322, "velocity": 0, "pitch": 75, "instrument": 28, "track": 1, "qtime": 34, "isDrum": false}, {"time": 324, "velocity": 108, "pitch": 70, "instrument": 28, "track": 1, "qtime": 36, "isDrum": false}, {"time": 324, "velocity": 108, "pitch": 75, "instrument": 28, "track": 1, "qtime": 36, "isDrum": false}, {"time": 327, "velocity": 0, "pitch": 70, "instrument": 28, "track": 1, "qtime": 39, "isDrum": false}, {"time": 328, "velocity": 0, "pitch": 75, "instrument": 28, "track": 1, "qtime": 40, "isDrum": false}, {"time": 330, "velocity": 108, "pitch": 70, "instrument": 28, "track": 1, "qtime": 42, "isDrum": false}, {"time": 330, "velocity": 108, "pitch": 75, "instrument": 28, "track": 1, "qtime": 42, "isDrum": false}, {"time": 334, "velocity": 0, "pitch": 70, "instrument": 28, "track": 1, "qtime": 46, "isDrum": false}, {"time": 335, "velocity": 0, "pitch": 75, "instrument": 28, "track": 1, "qtime": 47, "isDrum": false}, {"time": 336, "velocity": 108, "pitch": 69, "instrument": 28, "track": 1, "qtime": 0, "isDrum": false}, {"time": 336, "velocity": 108, "pitch": 74, "instrument": 28, "track": 1, "qtime": 0, "isDrum": false}, {"time": 341, "velocity": 0, "pitch": 69, "instrument": 28, "track": 1, "qtime": 5, "isDrum": false}, {"time": 341, "velocity": 0, "pitch": 74, "instrument": 28, "track": 1, "qtime": 5, "isDrum": false}, {"time": 342, "velocity": 108, "pitch": 70, "instrument": 28, "track": 1, "qtime": 6, "isDrum": false}, {"time": 342, "velocity": 108, "pitch": 75, "instrument": 28, "track": 1, "qtime": 6, "isDrum": false}, {"time": 345, "velocity": 0, "pitch": 70, "instrument": 28, "track": 1, "qtime": 9, "isDrum": false}, {"time": 346, "velocity": 0, "pitch": 75, "instrument": 28, "track": 1, "qtime": 10, "isDrum": false}, {"time": 348, "velocity": 108, "pitch": 70, "instrument": 28, "track": 1, "qtime": 12, "isDrum": false}, {"time": 348, "velocity": 108, "pitch": 75, "instrument": 28, "track": 1, "qtime": 12, "isDrum": false}, {"time": 351, "velocity": 0, "pitch": 70, "instrument": 28, "track": 1, "qtime": 15, "isDrum": false}, {"time": 352, "velocity": 0, "pitch": 75, "instrument": 28, "track": 1, "qtime": 16, "isDrum": false}, {"time": 354, "velocity": 108, "pitch": 70, "instrument": 28, "track": 1, "qtime": 18, "isDrum": false}, {"time": 354, "velocity": 108, "pitch": 75, "instrument": 28, "track": 1, "qtime": 18, "isDrum": false}, {"time": 357, "velocity": 0, "pitch": 70, "instrument": 28, "track": 1, "qtime": 21, "isDrum": false}, {"time": 357, "velocity": 0, "pitch": 75, "instrument": 28, "track": 1, "qtime": 21, "isDrum": false}, {"time": 360, "velocity": 108, "pitch": 70, "instrument": 28, "track": 1, "qtime": 24, "isDrum": false}, {"time": 360, "velocity": 108, "pitch": 75, "instrument": 28, "track": 1, "qtime": 24, "isDrum": false}, {"time": 363, "velocity": 0, "pitch": 70, "instrument": 28, "track": 1, "qtime": 27, "isDrum": false}, {"time": 364, "velocity": 0, "pitch": 75, "instrument": 28, "track": 1, "qtime": 28, "isDrum": false}, {"time": 366, "velocity": 108, "pitch": 70, "instrument": 28, "track": 1, "qtime": 30, "isDrum": false}, {"time": 366, "velocity": 108, "pitch": 75, "instrument": 28, "track": 1, "qtime": 30, "isDrum": false}, {"time": 369, "velocity": 0, "pitch": 70, "instrument": 28, "track": 1, "qtime": 33, "isDrum": false}, {"time": 370, "velocity": 0, "pitch": 75, "instrument": 28, "track": 1, "qtime": 34, "isDrum": false}, {"time": 372, "velocity": 108, "pitch": 70, "instrument": 28, "track": 1, "qtime": 36, "isDrum": false}, {"time": 372, "velocity": 108, "pitch": 75, "instrument": 28, "track": 1, "qtime": 36, "isDrum": false}, {"time": 375, "velocity": 0, "pitch": 70, "instrument": 28, "track": 1, "qtime": 39, "isDrum": false}, {"time": 376, "velocity": 0, "pitch": 75, "instrument": 28, "track": 1, "qtime": 40, "isDrum": false}, {"time": 378, "velocity": 108, "pitch": 70, "instrument": 28, "track": 1, "qtime": 42, "isDrum": false}, {"time": 378, "velocity": 108, "pitch": 75, "instrument": 28, "track": 1, "qtime": 42, "isDrum": false}, {"time": 382, "velocity": 0, "pitch": 70, "instrument": 28, "track": 1, "qtime": 46, "isDrum": false}, {"time": 382, "velocity": 0, "pitch": 75, "instrument": 28, "track": 1, "qtime": 46, "isDrum": false}, {"time": 0, "velocity": 108, "pitch": 35, "instrument": 0, "track": 9, "qtime": 0, "isDrum": true}, {"time": 4, "velocity": 0, "pitch": 35, "instrument": 0, "track": 9, "qtime": 4, "isDrum": true}, {"time": 12, "velocity": 108, "pitch": 35, "instrument": 0, "track": 9, "qtime": 12, "isDrum": true}, {"time": 16, "velocity": 0, "pitch": 35, "instrument": 0, "track": 9, "qtime": 16, "isDrum": true}, {"time": 24, "velocity": 108, "pitch": 35, "instrument": 0, "track": 9, "qtime": 24, "isDrum": true}, {"time": 28, "velocity": 0, "pitch": 35, "instrument": 0, "track": 9, "qtime": 28, "isDrum": true}, {"time": 36, "velocity": 108, "pitch": 35, "instrument": 0, "track": 9, "qtime": 36, "isDrum": true}, {"time": 40, "velocity": 0, "pitch": 35, "instrument": 0, "track": 9, "qtime": 40, "isDrum": true}, {"time": 48, "velocity": 108, "pitch": 35, "instrument": 0, "track": 9, "qtime": 0, "isDrum": true}, {"time": 52, "velocity": 0, "pitch": 35, "instrument": 0, "track": 9, "qtime": 4, "isDrum": true}, {"time": 60, "velocity": 108, "pitch": 35, "instrument": 0, "track": 9, "qtime": 12, "isDrum": true}, {"time": 64, "velocity": 0, "pitch": 35, "instrument": 0, "track": 9, "qtime": 16, "isDrum": true}, {"time": 72, "velocity": 108, "pitch": 35, "instrument": 0, "track": 9, "qtime": 24, "isDrum": true}, {"time": 76, "velocity": 0, "pitch": 35, "instrument": 0, "track": 9, "qtime": 28, "isDrum": true}, {"time": 84, "velocity": 108, "pitch": 35, "instrument": 0, "track": 9, "qtime": 36, "isDrum": true}, {"time": 88, "velocity": 0, "pitch": 35, "instrument": 0, "track": 9, "qtime": 40, "isDrum": true}, {"time": 96, "velocity": 108, "pitch": 35, "instrument": 0, "track": 9, "qtime": 0, "isDrum": true}, {"time": 100, "velocity": 0, "pitch": 35, "instrument": 0, "track": 9, "qtime": 4, "isDrum": true}, {"time": 108, "velocity": 108, "pitch": 35, "instrument": 0, "track": 9, "qtime": 12, "isDrum": true}, {"time": 112, "velocity": 0, "pitch": 35, "instrument": 0, "track": 9, "qtime": 16, "isDrum": true}, {"time": 120, "velocity": 108, "pitch": 35, "instrument": 0, "track": 9, "qtime": 24, "isDrum": true}, {"time": 124, "velocity": 0, "pitch": 35, "instrument": 0, "track": 9, "qtime": 28, "isDrum": true}, {"time": 132, "velocity": 108, "pitch": 35, "instrument": 0, "track": 9, "qtime": 36, "isDrum": true}, {"time": 136, "velocity": 0, "pitch": 35, "instrument": 0, "track": 9, "qtime": 40, "isDrum": true}, {"time": 144, "velocity": 108, "pitch": 35, "instrument": 0, "track": 9, "qtime": 0, "isDrum": true}, {"time": 148, "velocity": 0, "pitch": 35, "instrument": 0, "track": 9, "qtime": 4, "isDrum": true}, {"time": 156, "velocity": 108, "pitch": 35, "instrument": 0, "track": 9, "qtime": 12, "isDrum": true}, {"time": 160, "velocity": 0, "pitch": 35, "instrument": 0, "track": 9, "qtime": 16, "isDrum": true}, {"time": 168, "velocity": 108, "pitch": 35, "instrument": 0, "track": 9, "qtime": 24, "isDrum": true}, {"time": 172, "velocity": 0, "pitch": 35, "instrument": 0, "track": 9, "qtime": 28, "isDrum": true}, {"time": 180, "velocity": 108, "pitch": 35, "instrument": 0, "track": 9, "qtime": 36, "isDrum": true}, {"time": 184, "velocity": 0, "pitch": 35, "instrument": 0, "track": 9, "qtime": 40, "isDrum": true}, {"time": 192, "velocity": 108, "pitch": 35, "instrument": 0, "track": 9, "qtime": 0, "isDrum": true}, {"time": 196, "velocity": 0, "pitch": 35, "instrument": 0, "track": 9, "qtime": 4, "isDrum": true}, {"time": 204, "velocity": 108, "pitch": 35, "instrument": 0, "track": 9, "qtime": 12, "isDrum": true}, {"time": 208, "velocity": 0, "pitch": 35, "instrument": 0, "track": 9, "qtime": 16, "isDrum": true}, {"time": 216, "velocity": 108, "pitch": 35, "instrument": 0, "track": 9, "qtime": 24, "isDrum": true}, {"time": 220, "velocity": 0, "pitch": 35, "instrument": 0, "track": 9, "qtime": 28, "isDrum": true}, {"time": 228, "velocity": 108, "pitch": 35, "instrument": 0, "track": 9, "qtime": 36, "isDrum": true}, {"time": 232, "velocity": 0, "pitch": 35, "instrument": 0, "track": 9, "qtime": 40, "isDrum": true}, {"time": 240, "velocity": 108, "pitch": 35, "instrument": 0, "track": 9, "qtime": 0, "isDrum": true}, {"time": 244, "velocity": 0, "pitch": 35, "instrument": 0, "track": 9, "qtime": 4, "isDrum": true}, {"time": 252, "velocity": 108, "pitch": 35, "instrument": 0, "track": 9, "qtime": 12, "isDrum": true}, {"time": 256, "velocity": 0, "pitch": 35, "instrument": 0, "track": 9, "qtime": 16, "isDrum": true}, {"time": 264, "velocity": 108, "pitch": 35, "instrument": 0, "track": 9, "qtime": 24, "isDrum": true}, {"time": 268, "velocity": 0, "pitch": 35, "instrument": 0, "track": 9, "qtime": 28, "isDrum": true}, {"time": 276, "velocity": 108, "pitch": 35, "instrument": 0, "track": 9, "qtime": 36, "isDrum": true}, {"time": 280, "velocity": 0, "pitch": 35, "instrument": 0, "track": 9, "qtime": 40, "isDrum": true}, {"time": 288, "velocity": 108, "pitch": 35, "instrument": 0, "track": 9, "qtime": 0, "isDrum": true}, {"time": 292, "velocity": 0, "pitch": 35, "instrument": 0, "track": 9, "qtime": 4, "isDrum": true}, {"time": 300, "velocity": 108, "pitch": 35, "instrument": 0, "track": 9, "qtime": 12, "isDrum": true}, {"time": 304, "velocity": 0, "pitch": 35, "instrument": 0, "track": 9, "qtime": 16, "isDrum": true}, {"time": 312, "velocity": 108, "pitch": 35, "instrument": 0, "track": 9, "qtime": 24, "isDrum": true}, {"time": 316, "velocity": 0, "pitch": 35, "instrument": 0, "track": 9, "qtime": 28, "isDrum": true}, {"time": 324, "velocity": 108, "pitch": 35, "instrument": 0, "track": 9, "qtime": 36, "isDrum": true}, {"time": 328, "velocity": 0, "pitch": 35, "instrument": 0, "track": 9, "qtime": 40, "isDrum": true}, {"time": 336, "velocity": 108, "pitch": 35, "instrument": 0, "track": 9, "qtime": 0, "isDrum": true}, {"time": 340, "velocity": 0, "pitch": 35, "instrument": 0, "track": 9, "qtime": 4, "isDrum": true}, {"time": 348, "velocity": 108, "pitch": 35, "instrument": 0, "track": 9, "qtime": 12, "isDrum": true}, {"time": 352, "velocity": 0, "pitch": 35, "instrument": 0, "track": 9, "qtime": 16, "isDrum": true}, {"time": 360, "velocity": 108, "pitch": 35, "instrument": 0, "track": 9, "qtime": 24, "isDrum": true}, {"time": 364, "velocity": 0, "pitch": 35, "instrument": 0, "track": 9, "qtime": 28, "isDrum": true}, {"time": 372, "velocity": 108, "pitch": 35, "instrument": 0, "track": 9, "qtime": 36, "isDrum": true}, {"time": 376, "velocity": 0, "pitch": 35, "instrument": 0, "track": 9, "qtime": 40, "isDrum": true}, {"time": 0, "velocity": 108, "pitch": 34, "instrument": 1, "track": 3, "qtime": 0, "isDrum": false}, {"time": 0, "velocity": 108, "pitch": 82, "instrument": 1, "track": 3, "qtime": 0, "isDrum": false}, {"time": 0, "velocity": 108, "pitch": 86, "instrument": 1, "track": 3, "qtime": 0, "isDrum": false}, {"time": 0, "velocity": 108, "pitch": 89, "instrument": 1, "track": 3, "qtime": 0, "isDrum": false}, {"time": 0, "velocity": 108, "pitch": 94, "instrument": 1, "track": 3, "qtime": 0, "isDrum": false}, {"time": 3, "velocity": 0, "pitch": 82, "instrument": 1, "track": 3, "qtime": 3, "isDrum": false}, {"time": 3, "velocity": 0, "pitch": 86, "instrument": 1, "track": 3, "qtime": 3, "isDrum": false}, {"time": 3, "velocity": 0, "pitch": 89, "instrument": 1, "track": 3, "qtime": 3, "isDrum": false}, {"time": 4, "velocity": 0, "pitch": 94, "instrument": 1, "track": 3, "qtime": 4, "isDrum": false}, {"time": 5, "velocity": 0, "pitch": 34, "instrument": 1, "track": 3, "qtime": 5, "isDrum": false}, {"time": 6, "velocity": 108, "pitch": 46, "instrument": 1, "track": 3, "qtime": 6, "isDrum": false}, {"time": 6, "velocity": 108, "pitch": 82, "instrument": 1, "track": 3, "qtime": 6, "isDrum": false}, {"time": 6, "velocity": 108, "pitch": 86, "instrument": 1, "track": 3, "qtime": 6, "isDrum": false}, {"time": 6, "velocity": 108, "pitch": 89, "instrument": 1, "track": 3, "qtime": 6, "isDrum": false}, {"time": 6, "velocity": 108, "pitch": 94, "instrument": 1, "track": 3, "qtime": 6, "isDrum": false}, {"time": 9, "velocity": 0, "pitch": 46, "instrument": 1, "track": 3, "qtime": 9, "isDrum": false}, {"time": 10, "velocity": 0, "pitch": 82, "instrument": 1, "track": 3, "qtime": 10, "isDrum": false}, {"time": 10, "velocity": 0, "pitch": 86, "instrument": 1, "track": 3, "qtime": 10, "isDrum": false}, {"time": 10, "velocity": 0, "pitch": 89, "instrument": 1, "track": 3, "qtime": 10, "isDrum": false}, {"time": 11, "velocity": 0, "pitch": 94, "instrument": 1, "track": 3, "qtime": 11, "isDrum": false}, {"time": 12, "velocity": 108, "pitch": 38, "instrument": 1, "track": 3, "qtime": 12, "isDrum": false}, {"time": 12, "velocity": 108, "pitch": 82, "instrument": 1, "track": 3, "qtime": 12, "isDrum": false}, {"time": 12, "velocity": 108, "pitch": 86, "instrument": 1, "track": 3, "qtime": 12, "isDrum": false}, {"time": 12, "velocity": 108, "pitch": 89, "instrument": 1, "track": 3, "qtime": 12, "isDrum": false}, {"time": 12, "velocity": 108, "pitch": 94, "instrument": 1, "track": 3, "qtime": 12, "isDrum": false}, {"time": 15, "velocity": 0, "pitch": 82, "instrument": 1, "track": 3, "qtime": 15, "isDrum": false}, {"time": 15, "velocity": 0, "pitch": 86, "instrument": 1, "track": 3, "qtime": 15, "isDrum": false}, {"time": 15, "velocity": 0, "pitch": 89, "instrument": 1, "track": 3, "qtime": 15, "isDrum": false}, {"time": 15, "velocity": 0, "pitch": 94, "instrument": 1, "track": 3, "qtime": 15, "isDrum": false}, {"time": 17, "velocity": 0, "pitch": 38, "instrument": 1, "track": 3, "qtime": 17, "isDrum": false}, {"time": 18, "velocity": 108, "pitch": 50, "instrument": 1, "track": 3, "qtime": 18, "isDrum": false}, {"time": 18, "velocity": 108, "pitch": 82, "instrument": 1, "track": 3, "qtime": 18, "isDrum": false}, {"time": 18, "velocity": 108, "pitch": 86, "instrument": 1, "track": 3, "qtime": 18, "isDrum": false}, {"time": 18, "velocity": 108, "pitch": 89, "instrument": 1, "track": 3, "qtime": 18, "isDrum": false}, {"time": 18, "velocity": 108, "pitch": 94, "instrument": 1, "track": 3, "qtime": 18, "isDrum": false}, {"time": 21, "velocity": 0, "pitch": 50, "instrument": 1, "track": 3, "qtime": 21, "isDrum": false}, {"time": 22, "velocity": 0, "pitch": 82, "instrument": 1, "track": 3, "qtime": 22, "isDrum": false}, {"time": 22, "velocity": 0, "pitch": 86, "instrument": 1, "track": 3, "qtime": 22, "isDrum": false}, {"time": 22, "velocity": 0, "pitch": 89, "instrument": 1, "track": 3, "qtime": 22, "isDrum": false}, {"time": 22, "velocity": 0, "pitch": 94, "instrument": 1, "track": 3, "qtime": 22, "isDrum": false}, {"time": 24, "velocity": 108, "pitch": 41, "instrument": 1, "track": 3, "qtime": 24, "isDrum": false}, {"time": 24, "velocity": 108, "pitch": 82, "instrument": 1, "track": 3, "qtime": 24, "isDrum": false}, {"time": 24, "velocity": 108, "pitch": 86, "instrument": 1, "track": 3, "qtime": 24, "isDrum": false}, {"time": 24, "velocity": 108, "pitch": 89, "instrument": 1, "track": 3, "qtime": 24, "isDrum": false}, {"time": 24, "velocity": 108, "pitch": 94, "instrument": 1, "track": 3, "qtime": 24, "isDrum": false}, {"time": 27, "velocity": 0, "pitch": 82, "instrument": 1, "track": 3, "qtime": 27, "isDrum": false}, {"time": 27, "velocity": 0, "pitch": 86, "instrument": 1, "track": 3, "qtime": 27, "isDrum": false}, {"time": 27, "velocity": 0, "pitch": 89, "instrument": 1, "track": 3, "qtime": 27, "isDrum": false}, {"time": 27, "velocity": 0, "pitch": 94, "instrument": 1, "track": 3, "qtime": 27, "isDrum": false}, {"time": 30, "velocity": 0, "pitch": 41, "instrument": 1, "track": 3, "qtime": 30, "isDrum": false}, {"time": 30, "velocity": 108, "pitch": 50, "instrument": 1, "track": 3, "qtime": 30, "isDrum": false}, {"time": 30, "velocity": 108, "pitch": 82, "instrument": 1, "track": 3, "qtime": 30, "isDrum": false}, {"time": 30, "velocity": 108, "pitch": 86, "instrument": 1, "track": 3, "qtime": 30, "isDrum": false}, {"time": 30, "velocity": 108, "pitch": 89, "instrument": 1, "track": 3, "qtime": 30, "isDrum": false}, {"time": 30, "velocity": 108, "pitch": 94, "instrument": 1, "track": 3, "qtime": 30, "isDrum": false}, {"time": 33, "velocity": 0, "pitch": 50, "instrument": 1, "track": 3, "qtime": 33, "isDrum": false}, {"time": 34, "velocity": 0, "pitch": 82, "instrument": 1, "track": 3, "qtime": 34, "isDrum": false}, {"time": 34, "velocity": 0, "pitch": 86, "instrument": 1, "track": 3, "qtime": 34, "isDrum": false}, {"time": 34, "velocity": 0, "pitch": 89, "instrument": 1, "track": 3, "qtime": 34, "isDrum": false}, {"time": 35, "velocity": 0, "pitch": 94, "instrument": 1, "track": 3, "qtime": 35, "isDrum": false}, {"time": 36, "velocity": 108, "pitch": 43, "instrument": 1, "track": 3, "qtime": 36, "isDrum": false}, {"time": 36, "velocity": 108, "pitch": 82, "instrument": 1, "track": 3, "qtime": 36, "isDrum": false}, {"time": 36, "velocity": 108, "pitch": 86, "instrument": 1, "track": 3, "qtime": 36, "isDrum": false}, {"time": 36, "velocity": 108, "pitch": 89, "instrument": 1, "track": 3, "qtime": 36, "isDrum": false}, {"time": 36, "velocity": 108, "pitch": 94, "instrument": 1, "track": 3, "qtime": 36, "isDrum": false}, {"time": 39, "velocity": 0, "pitch": 82, "instrument": 1, "track": 3, "qtime": 39, "isDrum": false}, {"time": 39, "velocity": 0, "pitch": 86, "instrument": 1, "track": 3, "qtime": 39, "isDrum": false}, {"time": 39, "velocity": 0, "pitch": 89, "instrument": 1, "track": 3, "qtime": 39, "isDrum": false}, {"time": 39, "velocity": 0, "pitch": 94, "instrument": 1, "track": 3, "qtime": 39, "isDrum": false}, {"time": 41, "velocity": 0, "pitch": 43, "instrument": 1, "track": 3, "qtime": 41, "isDrum": false}, {"time": 42, "velocity": 108, "pitch": 44, "instrument": 1, "track": 3, "qtime": 42, "isDrum": false}, {"time": 42, "velocity": 108, "pitch": 82, "instrument": 1, "track": 3, "qtime": 42, "isDrum": false}, {"time": 42, "velocity": 108, "pitch": 86, "instrument": 1, "track": 3, "qtime": 42, "isDrum": false}, {"time": 42, "velocity": 108, "pitch": 89, "instrument": 1, "track": 3, "qtime": 42, "isDrum": false}, {"time": 42, "velocity": 108, "pitch": 94, "instrument": 1, "track": 3, "qtime": 42, "isDrum": false}, {"time": 45, "velocity": 0, "pitch": 82, "instrument": 1, "track": 3, "qtime": 45, "isDrum": false}, {"time": 45, "velocity": 0, "pitch": 86, "instrument": 1, "track": 3, "qtime": 45, "isDrum": false}, {"time": 45, "velocity": 0, "pitch": 89, "instrument": 1, "track": 3, "qtime": 45, "isDrum": false}, {"time": 45, "velocity": 0, "pitch": 94, "instrument": 1, "track": 3, "qtime": 45, "isDrum": false}, {"time": 46, "velocity": 0, "pitch": 44, "instrument": 1, "track": 3, "qtime": 46, "isDrum": false}, {"time": 48, "velocity": 108, "pitch": 46, "instrument": 1, "track": 3, "qtime": 0, "isDrum": false}, {"time": 48, "velocity": 108, "pitch": 82, "instrument": 1, "track": 3, "qtime": 0, "isDrum": false}, {"time": 48, "velocity": 108, "pitch": 86, "instrument": 1, "track": 3, "qtime": 0, "isDrum": false}, {"time": 48, "velocity": 108, "pitch": 89, "instrument": 1, "track": 3, "qtime": 0, "isDrum": false}, {"time": 48, "velocity": 108, "pitch": 94, "instrument": 1, "track": 3, "qtime": 0, "isDrum": false}, {"time": 51, "velocity": 0, "pitch": 82, "instrument": 1, "track": 3, "qtime": 3, "isDrum": false}, {"time": 51, "velocity": 0, "pitch": 86, "instrument": 1, "track": 3, "qtime": 3, "isDrum": false}, {"time": 51, "velocity": 0, "pitch": 89, "instrument": 1, "track": 3, "qtime": 3, "isDrum": false}, {"time": 51, "velocity": 0, "pitch": 94, "instrument": 1, "track": 3, "qtime": 3, "isDrum": false}, {"time": 54, "velocity": 0, "pitch": 46, "instrument": 1, "track": 3, "qtime": 6, "isDrum": false}, {"time": 54, "velocity": 108, "pitch": 77, "instrument": 1, "track": 3, "qtime": 6, "isDrum": false}, {"time": 54, "velocity": 108, "pitch": 82, "instrument": 1, "track": 3, "qtime": 6, "isDrum": false}, {"time": 54, "velocity": 108, "pitch": 86, "instrument": 1, "track": 3, "qtime": 6, "isDrum": false}, {"time": 54, "velocity": 108, "pitch": 89, "instrument": 1, "track": 3, "qtime": 6, "isDrum": false}, {"time": 54, "velocity": 108, "pitch": 92, "instrument": 1, "track": 3, "qtime": 6, "isDrum": false}, {"time": 54, "velocity": 108, "pitch": 94, "instrument": 1, "track": 3, "qtime": 6, "isDrum": false}, {"time": 55, "velocity": 0, "pitch": 92, "instrument": 1, "track": 3, "qtime": 7, "isDrum": false}, {"time": 57, "velocity": 0, "pitch": 77, "instrument": 1, "track": 3, "qtime": 9, "isDrum": false}, {"time": 58, "velocity": 0, "pitch": 82, "instrument": 1, "track": 3, "qtime": 10, "isDrum": false}, {"time": 58, "velocity": 0, "pitch": 86, "instrument": 1, "track": 3, "qtime": 10, "isDrum": false}, {"time": 58, "velocity": 0, "pitch": 89, "instrument": 1, "track": 3, "qtime": 10, "isDrum": false}, {"time": 58, "velocity": 0, "pitch": 94, "instrument": 1, "track": 3, "qtime": 10, "isDrum": false}, {"time": 60, "velocity": 108, "pitch": 38, "instrument": 1, "track": 3, "qtime": 12, "isDrum": false}, {"time": 60, "velocity": 108, "pitch": 77, "instrument": 1, "track": 3, "qtime": 12, "isDrum": false}, {"time": 60, "velocity": 108, "pitch": 82, "instrument": 1, "track": 3, "qtime": 12, "isDrum": false}, {"time": 60, "velocity": 108, "pitch": 86, "instrument": 1, "track": 3, "qtime": 12, "isDrum": false}, {"time": 60, "velocity": 108, "pitch": 89, "instrument": 1, "track": 3, "qtime": 12, "isDrum": false}, {"time": 60, "velocity": 108, "pitch": 92, "instrument": 1, "track": 3, "qtime": 12, "isDrum": false}, {"time": 60, "velocity": 108, "pitch": 94, "instrument": 1, "track": 3, "qtime": 12, "isDrum": false}, {"time": 61, "velocity": 0, "pitch": 92, "instrument": 1, "track": 3, "qtime": 13, "isDrum": false}, {"time": 63, "velocity": 0, "pitch": 77, "instrument": 1, "track": 3, "qtime": 15, "isDrum": false}, {"time": 63, "velocity": 0, "pitch": 82, "instrument": 1, "track": 3, "qtime": 15, "isDrum": false}, {"time": 63, "velocity": 0, "pitch": 86, "instrument": 1, "track": 3, "qtime": 15, "isDrum": false}, {"time": 63, "velocity": 0, "pitch": 89, "instrument": 1, "track": 3, "qtime": 15, "isDrum": false}, {"time": 63, "velocity": 0, "pitch": 94, "instrument": 1, "track": 3, "qtime": 15, "isDrum": false}, {"time": 65, "velocity": 0, "pitch": 38, "instrument": 1, "track": 3, "qtime": 17, "isDrum": false}, {"time": 66, "velocity": 108, "pitch": 50, "instrument": 1, "track": 3, "qtime": 18, "isDrum": false}, {"time": 66, "velocity": 108, "pitch": 82, "instrument": 1, "track": 3, "qtime": 18, "isDrum": false}, {"time": 66, "velocity": 108, "pitch": 86, "instrument": 1, "track": 3, "qtime": 18, "isDrum": false}, {"time": 66, "velocity": 108, "pitch": 89, "instrument": 1, "track": 3, "qtime": 18, "isDrum": false}, {"time": 66, "velocity": 108, "pitch": 94, "instrument": 1, "track": 3, "qtime": 18, "isDrum": false}, {"time": 69, "velocity": 0, "pitch": 50, "instrument": 1, "track": 3, "qtime": 21, "isDrum": false}, {"time": 70, "velocity": 0, "pitch": 82, "instrument": 1, "track": 3, "qtime": 22, "isDrum": false}, {"time": 70, "velocity": 0, "pitch": 86, "instrument": 1, "track": 3, "qtime": 22, "isDrum": false}, {"time": 70, "velocity": 0, "pitch": 89, "instrument": 1, "track": 3, "qtime": 22, "isDrum": false}, {"time": 70, "velocity": 0, "pitch": 94, "instrument": 1, "track": 3, "qtime": 22, "isDrum": false}, {"time": 72, "velocity": 108, "pitch": 41, "instrument": 1, "track": 3, "qtime": 24, "isDrum": false}, {"time": 72, "velocity": 108, "pitch": 82, "instrument": 1, "track": 3, "qtime": 24, "isDrum": false}, {"time": 72, "velocity": 108, "pitch": 86, "instrument": 1, "track": 3, "qtime": 24, "isDrum": false}, {"time": 72, "velocity": 108, "pitch": 89, "instrument": 1, "track": 3, "qtime": 24, "isDrum": false}, {"time": 72, "velocity": 108, "pitch": 94, "instrument": 1, "track": 3, "qtime": 24, "isDrum": false}, {"time": 75, "velocity": 0, "pitch": 77, "instrument": 1, "track": 3, "qtime": 27, "isDrum": false}, {"time": 75, "velocity": 0, "pitch": 86, "instrument": 1, "track": 3, "qtime": 27, "isDrum": false}, {"time": 75, "velocity": 0, "pitch": 89, "instrument": 1, "track": 3, "qtime": 27, "isDrum": false}, {"time": 75, "velocity": 0, "pitch": 94, "instrument": 1, "track": 3, "qtime": 27, "isDrum": false}, {"time": 78, "velocity": 108, "pitch": 50, "instrument": 1, "track": 3, "qtime": 30, "isDrum": false}, {"time": 78, "velocity": 108, "pitch": 82, "instrument": 1, "track": 3, "qtime": 30, "isDrum": false}, {"time": 78, "velocity": 108, "pitch": 86, "instrument": 1, "track": 3, "qtime": 30, "isDrum": false}, {"time": 78, "velocity": 108, "pitch": 89, "instrument": 1, "track": 3, "qtime": 30, "isDrum": false}, {"time": 78, "velocity": 108, "pitch": 94, "instrument": 1, "track": 3, "qtime": 30, "isDrum": false}, {"time": 79, "velocity": 0, "pitch": 41, "instrument": 1, "track": 3, "qtime": 31, "isDrum": false}, {"time": 81, "velocity": 0, "pitch": 50, "instrument": 1, "track": 3, "qtime": 33, "isDrum": false}, {"time": 82, "velocity": 0, "pitch": 82, "instrument": 1, "track": 3, "qtime": 34, "isDrum": false}, {"time": 82, "velocity": 0, "pitch": 86, "instrument": 1, "track": 3, "qtime": 34, "isDrum": false}, {"time": 82, "velocity": 0, "pitch": 89, "instrument": 1, "track": 3, "qtime": 34, "isDrum": false}, {"time": 83, "velocity": 0, "pitch": 94, "instrument": 1, "track": 3, "qtime": 35, "isDrum": false}, {"time": 84, "velocity": 108, "pitch": 43, "instrument": 1, "track": 3, "qtime": 36, "isDrum": false}, {"time": 84, "velocity": 108, "pitch": 82, "instrument": 1, "track": 3, "qtime": 36, "isDrum": false}, {"time": 84, "velocity": 108, "pitch": 86, "instrument": 1, "track": 3, "qtime": 36, "isDrum": false}, {"time": 84, "velocity": 108, "pitch": 89, "instrument": 1, "track": 3, "qtime": 36, "isDrum": false}, {"time": 84, "velocity": 108, "pitch": 94, "instrument": 1, "track": 3, "qtime": 36, "isDrum": false}, {"time": 87, "velocity": 0, "pitch": 82, "instrument": 1, "track": 3, "qtime": 39, "isDrum": false}, {"time": 87, "velocity": 0, "pitch": 86, "instrument": 1, "track": 3, "qtime": 39, "isDrum": false}, {"time": 87, "velocity": 0, "pitch": 89, "instrument": 1, "track": 3, "qtime": 39, "isDrum": false}, {"time": 88, "velocity": 0, "pitch": 94, "instrument": 1, "track": 3, "qtime": 40, "isDrum": false}, {"time": 89, "velocity": 0, "pitch": 43, "instrument": 1, "track": 3, "qtime": 41, "isDrum": false}, {"time": 90, "velocity": 108, "pitch": 44, "instrument": 1, "track": 3, "qtime": 42, "isDrum": false}, {"time": 90, "velocity": 108, "pitch": 82, "instrument": 1, "track": 3, "qtime": 42, "isDrum": false}, {"time": 90, "velocity": 108, "pitch": 86, "instrument": 1, "track": 3, "qtime": 42, "isDrum": false}, {"time": 90, "velocity": 108, "pitch": 89, "instrument": 1, "track": 3, "qtime": 42, "isDrum": false}, {"time": 90, "velocity": 108, "pitch": 94, "instrument": 1, "track": 3, "qtime": 42, "isDrum": false}, {"time": 92, "velocity": 0, "pitch": 82, "instrument": 1, "track": 3, "qtime": 44, "isDrum": false}, {"time": 93, "velocity": 0, "pitch": 86, "instrument": 1, "track": 3, "qtime": 45, "isDrum": false}, {"time": 93, "velocity": 0, "pitch": 89, "instrument": 1, "track": 3, "qtime": 45, "isDrum": false}, {"time": 93, "velocity": 0, "pitch": 94, "instrument": 1, "track": 3, "qtime": 45, "isDrum": false}, {"time": 94, "velocity": 0, "pitch": 44, "instrument": 1, "track": 3, "qtime": 46, "isDrum": false}, {"time": 96, "velocity": 108, "pitch": 39, "instrument": 1, "track": 3, "qtime": 0, "isDrum": false}, {"time": 102, "velocity": 108, "pitch": 51, "instrument": 1, "track": 3, "qtime": 6, "isDrum": false}, {"time": 102, "velocity": 108, "pitch": 75, "instrument": 1, "track": 3, "qtime": 6, "isDrum": false}, {"time": 102, "velocity": 108, "pitch": 79, "instrument": 1, "track": 3, "qtime": 6, "isDrum": false}, {"time": 102, "velocity": 108, "pitch": 82, "instrument": 1, "track": 3, "qtime": 6, "isDrum": false}, {"time": 102, "velocity": 108, "pitch": 87, "instrument": 1, "track": 3, "qtime": 6, "isDrum": false}, {"time": 106, "velocity": 0, "pitch": 39, "instrument": 1, "track": 3, "qtime": 10, "isDrum": false}, {"time": 106, "velocity": 0, "pitch": 51, "instrument": 1, "track": 3, "qtime": 10, "isDrum": false}, {"time": 106, "velocity": 0, "pitch": 75, "instrument": 1, "track": 3, "qtime": 10, "isDrum": false}, {"time": 106, "velocity": 0, "pitch": 79, "instrument": 1, "track": 3, "qtime": 10, "isDrum": false}, {"time": 106, "velocity": 0, "pitch": 82, "instrument": 1, "track": 3, "qtime": 10, "isDrum": false}, {"time": 106, "velocity": 0, "pitch": 87, "instrument": 1, "track": 3, "qtime": 10, "isDrum": false}, {"time": 108, "velocity": 108, "pitch": 43, "instrument": 1, "track": 3, "qtime": 12, "isDrum": false}, {"time": 108, "velocity": 108, "pitch": 75, "instrument": 1, "track": 3, "qtime": 12, "isDrum": false}, {"time": 108, "velocity": 108, "pitch": 79, "instrument": 1, "track": 3, "qtime": 12, "isDrum": false}, {"time": 108, "velocity": 108, "pitch": 82, "instrument": 1, "track": 3, "qtime": 12, "isDrum": false}, {"time": 108, "velocity": 108, "pitch": 87, "instrument": 1, "track": 3, "qtime": 12, "isDrum": false}, {"time": 111, "velocity": 0, "pitch": 75, "instrument": 1, "track": 3, "qtime": 15, "isDrum": false}, {"time": 111, "velocity": 0, "pitch": 79, "instrument": 1, "track": 3, "qtime": 15, "isDrum": false}, {"time": 111, "velocity": 0, "pitch": 82, "instrument": 1, "track": 3, "qtime": 15, "isDrum": false}, {"time": 111, "velocity": 0, "pitch": 87, "instrument": 1, "track": 3, "qtime": 15, "isDrum": false}, {"time": 114, "velocity": 0, "pitch": 43, "instrument": 1, "track": 3, "qtime": 18, "isDrum": false}, {"time": 114, "velocity": 108, "pitch": 46, "instrument": 1, "track": 3, "qtime": 18, "isDrum": false}, {"time": 114, "velocity": 108, "pitch": 75, "instrument": 1, "track": 3, "qtime": 18, "isDrum": false}, {"time": 114, "velocity": 108, "pitch": 79, "instrument": 1, "track": 3, "qtime": 18, "isDrum": false}, {"time": 114, "velocity": 108, "pitch": 82, "instrument": 1, "track": 3, "qtime": 18, "isDrum": false}, {"time": 114, "velocity": 108, "pitch": 87, "instrument": 1, "track": 3, "qtime": 18, "isDrum": false}, {"time": 118, "velocity": 0, "pitch": 75, "instrument": 1, "track": 3, "qtime": 22, "isDrum": false}, {"time": 118, "velocity": 0, "pitch": 79, "instrument": 1, "track": 3, "qtime": 22, "isDrum": false}, {"time": 118, "velocity": 0, "pitch": 82, "instrument": 1, "track": 3, "qtime": 22, "isDrum": false}, {"time": 118, "velocity": 0, "pitch": 87, "instrument": 1, "track": 3, "qtime": 22, "isDrum": false}, {"time": 119, "velocity": 0, "pitch": 46, "instrument": 1, "track": 3, "qtime": 23, "isDrum": false}, {"time": 120, "velocity": 108, "pitch": 49, "instrument": 1, "track": 3, "qtime": 24, "isDrum": false}, {"time": 120, "velocity": 108, "pitch": 75, "instrument": 1, "track": 3, "qtime": 24, "isDrum": false}, {"time": 120, "velocity": 108, "pitch": 79, "instrument": 1, "track": 3, "qtime": 24, "isDrum": false}, {"time": 120, "velocity": 108, "pitch": 82, "instrument": 1, "track": 3, "qtime": 24, "isDrum": false}, {"time": 120, "velocity": 108, "pitch": 87, "instrument": 1, "track": 3, "qtime": 24, "isDrum": false}, {"time": 123, "velocity": 0, "pitch": 75, "instrument": 1, "track": 3, "qtime": 27, "isDrum": false}, {"time": 123, "velocity": 0, "pitch": 79, "instrument": 1, "track": 3, "qtime": 27, "isDrum": false}, {"time": 123, "velocity": 0, "pitch": 82, "instrument": 1, "track": 3, "qtime": 27, "isDrum": false}, {"time": 123, "velocity": 0, "pitch": 87, "instrument": 1, "track": 3, "qtime": 27, "isDrum": false}, {"time": 126, "velocity": 108, "pitch": 75, "instrument": 1, "track": 3, "qtime": 30, "isDrum": false}, {"time": 126, "velocity": 108, "pitch": 79, "instrument": 1, "track": 3, "qtime": 30, "isDrum": false}, {"time": 126, "velocity": 108, "pitch": 82, "instrument": 1, "track": 3, "qtime": 30, "isDrum": false}, {"time": 126, "velocity": 108, "pitch": 87, "instrument": 1, "track": 3, "qtime": 30, "isDrum": false}, {"time": 129, "velocity": 0, "pitch": 75, "instrument": 1, "track": 3, "qtime": 33, "isDrum": false}, {"time": 129, "velocity": 0, "pitch": 79, "instrument": 1, "track": 3, "qtime": 33, "isDrum": false}, {"time": 129, "velocity": 0, "pitch": 82, "instrument": 1, "track": 3, "qtime": 33, "isDrum": false}, {"time": 129, "velocity": 0, "pitch": 87, "instrument": 1, "track": 3, "qtime": 33, "isDrum": false}, {"time": 132, "velocity": 0, "pitch": 49, "instrument": 1, "track": 3, "qtime": 36, "isDrum": false}, {"time": 132, "velocity": 108, "pitch": 48, "instrument": 1, "track": 3, "qtime": 36, "isDrum": false}, {"time": 132, "velocity": 108, "pitch": 75, "instrument": 1, "track": 3, "qtime": 36, "isDrum": false}, {"time": 132, "velocity": 108, "pitch": 79, "instrument": 1, "track": 3, "qtime": 36, "isDrum": false}, {"time": 132, "velocity": 108, "pitch": 82, "instrument": 1, "track": 3, "qtime": 36, "isDrum": false}, {"time": 132, "velocity": 108, "pitch": 87, "instrument": 1, "track": 3, "qtime": 36, "isDrum": false}, {"time": 135, "velocity": 0, "pitch": 75, "instrument": 1, "track": 3, "qtime": 39, "isDrum": false}, {"time": 135, "velocity": 0, "pitch": 79, "instrument": 1, "track": 3, "qtime": 39, "isDrum": false}, {"time": 135, "velocity": 0, "pitch": 82, "instrument": 1, "track": 3, "qtime": 39, "isDrum": false}, {"time": 135, "velocity": 0, "pitch": 87, "instrument": 1, "track": 3, "qtime": 39, "isDrum": false}, {"time": 136, "velocity": 0, "pitch": 48, "instrument": 1, "track": 3, "qtime": 40, "isDrum": false}, {"time": 138, "velocity": 108, "pitch": 46, "instrument": 1, "track": 3, "qtime": 42, "isDrum": false}, {"time": 138, "velocity": 108, "pitch": 75, "instrument": 1, "track": 3, "qtime": 42, "isDrum": false}, {"time": 138, "velocity": 108, "pitch": 79, "instrument": 1, "track": 3, "qtime": 42, "isDrum": false}, {"time": 138, "velocity": 108, "pitch": 82, "instrument": 1, "track": 3, "qtime": 42, "isDrum": false}, {"time": 138, "velocity": 108, "pitch": 87, "instrument": 1, "track": 3, "qtime": 42, "isDrum": false}, {"time": 141, "velocity": 0, "pitch": 75, "instrument": 1, "track": 3, "qtime": 45, "isDrum": false}, {"time": 141, "velocity": 0, "pitch": 79, "instrument": 1, "track": 3, "qtime": 45, "isDrum": false}, {"time": 141, "velocity": 0, "pitch": 82, "instrument": 1, "track": 3, "qtime": 45, "isDrum": false}, {"time": 141, "velocity": 0, "pitch": 87, "instrument": 1, "track": 3, "qtime": 45, "isDrum": false}, {"time": 142, "velocity": 0, "pitch": 46, "instrument": 1, "track": 3, "qtime": 46, "isDrum": false}, {"time": 144, "velocity": 108, "pitch": 39, "instrument": 1, "track": 3, "qtime": 0, "isDrum": false}, {"time": 144, "velocity": 108, "pitch": 75, "instrument": 1, "track": 3, "qtime": 0, "isDrum": false}, {"time": 144, "velocity": 108, "pitch": 79, "instrument": 1, "track": 3, "qtime": 0, "isDrum": false}, {"time": 144, "velocity": 108, "pitch": 82, "instrument": 1, "track": 3, "qtime": 0, "isDrum": false}, {"time": 144, "velocity": 108, "pitch": 87, "instrument": 1, "track": 3, "qtime": 0, "isDrum": false}, {"time": 147, "velocity": 0, "pitch": 75, "instrument": 1, "track": 3, "qtime": 3, "isDrum": false}, {"time": 147, "velocity": 0, "pitch": 79, "instrument": 1, "track": 3, "qtime": 3, "isDrum": false}, {"time": 147, "velocity": 0, "pitch": 82, "instrument": 1, "track": 3, "qtime": 3, "isDrum": false}, {"time": 147, "velocity": 0, "pitch": 87, "instrument": 1, "track": 3, "qtime": 3, "isDrum": false}, {"time": 150, "velocity": 0, "pitch": 39, "instrument": 1, "track": 3, "qtime": 6, "isDrum": false}, {"time": 150, "velocity": 108, "pitch": 51, "instrument": 1, "track": 3, "qtime": 6, "isDrum": false}, {"time": 150, "velocity": 108, "pitch": 75, "instrument": 1, "track": 3, "qtime": 6, "isDrum": false}, {"time": 150, "velocity": 108, "pitch": 79, "instrument": 1, "track": 3, "qtime": 6, "isDrum": false}, {"time": 150, "velocity": 108, "pitch": 82, "instrument": 1, "track": 3, "qtime": 6, "isDrum": false}, {"time": 150, "velocity": 108, "pitch": 87, "instrument": 1, "track": 3, "qtime": 6, "isDrum": false}, {"time": 153, "velocity": 0, "pitch": 51, "instrument": 1, "track": 3, "qtime": 9, "isDrum": false}, {"time": 153, "velocity": 0, "pitch": 75, "instrument": 1, "track": 3, "qtime": 9, "isDrum": false}, {"time": 153, "velocity": 0, "pitch": 79, "instrument": 1, "track": 3, "qtime": 9, "isDrum": false}, {"time": 153, "velocity": 0, "pitch": 82, "instrument": 1, "track": 3, "qtime": 9, "isDrum": false}, {"time": 153, "velocity": 0, "pitch": 87, "instrument": 1, "track": 3, "qtime": 9, "isDrum": false}, {"time": 156, "velocity": 108, "pitch": 43, "instrument": 1, "track": 3, "qtime": 12, "isDrum": false}, {"time": 156, "velocity": 108, "pitch": 75, "instrument": 1, "track": 3, "qtime": 12, "isDrum": false}, {"time": 156, "velocity": 108, "pitch": 79, "instrument": 1, "track": 3, "qtime": 12, "isDrum": false}, {"time": 156, "velocity": 108, "pitch": 82, "instrument": 1, "track": 3, "qtime": 12, "isDrum": false}, {"time": 156, "velocity": 108, "pitch": 87, "instrument": 1, "track": 3, "qtime": 12, "isDrum": false}, {"time": 159, "velocity": 0, "pitch": 75, "instrument": 1, "track": 3, "qtime": 15, "isDrum": false}, {"time": 159, "velocity": 0, "pitch": 79, "instrument": 1, "track": 3, "qtime": 15, "isDrum": false}, {"time": 159, "velocity": 0, "pitch": 82, "instrument": 1, "track": 3, "qtime": 15, "isDrum": false}, {"time": 159, "velocity": 0, "pitch": 87, "instrument": 1, "track": 3, "qtime": 15, "isDrum": false}, {"time": 162, "velocity": 0, "pitch": 43, "instrument": 1, "track": 3, "qtime": 18, "isDrum": false}, {"time": 162, "velocity": 108, "pitch": 46, "instrument": 1, "track": 3, "qtime": 18, "isDrum": false}, {"time": 162, "velocity": 108, "pitch": 75, "instrument": 1, "track": 3, "qtime": 18, "isDrum": false}, {"time": 162, "velocity": 108, "pitch": 79, "instrument": 1, "track": 3, "qtime": 18, "isDrum": false}, {"time": 162, "velocity": 108, "pitch": 82, "instrument": 1, "track": 3, "qtime": 18, "isDrum": false}, {"time": 162, "velocity": 108, "pitch": 87, "instrument": 1, "track": 3, "qtime": 18, "isDrum": false}, {"time": 165, "velocity": 0, "pitch": 46, "instrument": 1, "track": 3, "qtime": 21, "isDrum": false}, {"time": 165, "velocity": 0, "pitch": 79, "instrument": 1, "track": 3, "qtime": 21, "isDrum": false}, {"time": 166, "velocity": 0, "pitch": 75, "instrument": 1, "track": 3, "qtime": 22, "isDrum": false}, {"time": 166, "velocity": 0, "pitch": 82, "instrument": 1, "track": 3, "qtime": 22, "isDrum": false}, {"time": 166, "velocity": 0, "pitch": 87, "instrument": 1, "track": 3, "qtime": 22, "isDrum": false}, {"time": 168, "velocity": 108, "pitch": 49, "instrument": 1, "track": 3, "qtime": 24, "isDrum": false}, {"time": 168, "velocity": 108, "pitch": 75, "instrument": 1, "track": 3, "qtime": 24, "isDrum": false}, {"time": 168, "velocity": 108, "pitch": 79, "instrument": 1, "track": 3, "qtime": 24, "isDrum": false}, {"time": 168, "velocity": 108, "pitch": 82, "instrument": 1, "track": 3, "qtime": 24, "isDrum": false}, {"time": 168, "velocity": 108, "pitch": 87, "instrument": 1, "track": 3, "qtime": 24, "isDrum": false}, {"time": 171, "velocity": 0, "pitch": 49, "instrument": 1, "track": 3, "qtime": 27, "isDrum": false}, {"time": 171, "velocity": 0, "pitch": 75, "instrument": 1, "track": 3, "qtime": 27, "isDrum": false}, {"time": 171, "velocity": 0, "pitch": 79, "instrument": 1, "track": 3, "qtime": 27, "isDrum": false}, {"time": 171, "velocity": 0, "pitch": 82, "instrument": 1, "track": 3, "qtime": 27, "isDrum": false}, {"time": 171, "velocity": 0, "pitch": 87, "instrument": 1, "track": 3, "qtime": 27, "isDrum": false}, {"time": 174, "velocity": 108, "pitch": 49, "instrument": 1, "track": 3, "qtime": 30, "isDrum": false}, {"time": 174, "velocity": 108, "pitch": 75, "instrument": 1, "track": 3, "qtime": 30, "isDrum": false}, {"time": 174, "velocity": 108, "pitch": 79, "instrument": 1, "track": 3, "qtime": 30, "isDrum": false}, {"time": 174, "velocity": 108, "pitch": 82, "instrument": 1, "track": 3, "qtime": 30, "isDrum": false}, {"time": 174, "velocity": 108, "pitch": 87, "instrument": 1, "track": 3, "qtime": 30, "isDrum": false}, {"time": 177, "velocity": 0, "pitch": 49, "instrument": 1, "track": 3, "qtime": 33, "isDrum": false}, {"time": 178, "velocity": 0, "pitch": 75, "instrument": 1, "track": 3, "qtime": 34, "isDrum": false}, {"time": 178, "velocity": 0, "pitch": 79, "instrument": 1, "track": 3, "qtime": 34, "isDrum": false}, {"time": 178, "velocity": 0, "pitch": 82, "instrument": 1, "track": 3, "qtime": 34, "isDrum": false}, {"time": 178, "velocity": 0, "pitch": 87, "instrument": 1, "track": 3, "qtime": 34, "isDrum": false}, {"time": 180, "velocity": 108, "pitch": 48, "instrument": 1, "track": 3, "qtime": 36, "isDrum": false}, {"time": 180, "velocity": 108, "pitch": 75, "instrument": 1, "track": 3, "qtime": 36, "isDrum": false}, {"time": 180, "velocity": 108, "pitch": 79, "instrument": 1, "track": 3, "qtime": 36, "isDrum": false}, {"time": 180, "velocity": 108, "pitch": 82, "instrument": 1, "track": 3, "qtime": 36, "isDrum": false}, {"time": 180, "velocity": 108, "pitch": 87, "instrument": 1, "track": 3, "qtime": 36, "isDrum": false}, {"time": 183, "velocity": 0, "pitch": 48, "instrument": 1, "track": 3, "qtime": 39, "isDrum": false}, {"time": 183, "velocity": 0, "pitch": 75, "instrument": 1, "track": 3, "qtime": 39, "isDrum": false}, {"time": 184, "velocity": 0, "pitch": 75, "instrument": 1, "track": 3, "qtime": 40, "isDrum": false}, {"time": 184, "velocity": 0, "pitch": 79, "instrument": 1, "track": 3, "qtime": 40, "isDrum": false}, {"time": 184, "velocity": 0, "pitch": 82, "instrument": 1, "track": 3, "qtime": 40, "isDrum": false}, {"time": 184, "velocity": 0, "pitch": 87, "instrument": 1, "track": 3, "qtime": 40, "isDrum": false}, {"time": 186, "velocity": 108, "pitch": 46, "instrument": 1, "track": 3, "qtime": 42, "isDrum": false}, {"time": 186, "velocity": 108, "pitch": 75, "instrument": 1, "track": 3, "qtime": 42, "isDrum": false}, {"time": 186, "velocity": 108, "pitch": 79, "instrument": 1, "track": 3, "qtime": 42, "isDrum": false}, {"time": 186, "velocity": 108, "pitch": 82, "instrument": 1, "track": 3, "qtime": 42, "isDrum": false}, {"time": 186, "velocity": 108, "pitch": 87, "instrument": 1, "track": 3, "qtime": 42, "isDrum": false}, {"time": 189, "velocity": 0, "pitch": 46, "instrument": 1, "track": 3, "qtime": 45, "isDrum": false}, {"time": 189, "velocity": 0, "pitch": 79, "instrument": 1, "track": 3, "qtime": 45, "isDrum": false}, {"time": 190, "velocity": 0, "pitch": 75, "instrument": 1, "track": 3, "qtime": 46, "isDrum": false}, {"time": 190, "velocity": 0, "pitch": 82, "instrument": 1, "track": 3, "qtime": 46, "isDrum": false}, {"time": 190, "velocity": 0, "pitch": 87, "instrument": 1, "track": 3, "qtime": 46, "isDrum": false}, {"time": 192, "velocity": 108, "pitch": 44, "instrument": 1, "track": 3, "qtime": 0, "isDrum": false}, {"time": 192, "velocity": 108, "pitch": 75, "instrument": 1, "track": 3, "qtime": 0, "isDrum": false}, {"time": 192, "velocity": 108, "pitch": 80, "instrument": 1, "track": 3, "qtime": 0, "isDrum": false}, {"time": 192, "velocity": 108, "pitch": 84, "instrument": 1, "track": 3, "qtime": 0, "isDrum": false}, {"time": 192, "velocity": 108, "pitch": 87, "instrument": 1, "track": 3, "qtime": 0, "isDrum": false}, {"time": 195, "velocity": 0, "pitch": 80, "instrument": 1, "track": 3, "qtime": 3, "isDrum": false}, {"time": 195, "velocity": 0, "pitch": 84, "instrument": 1, "track": 3, "qtime": 3, "isDrum": false}, {"time": 195, "velocity": 0, "pitch": 87, "instrument": 1, "track": 3, "qtime": 3, "isDrum": false}, {"time": 198, "velocity": 0, "pitch": 44, "instrument": 1, "track": 3, "qtime": 6, "isDrum": false}, {"time": 198, "velocity": 0, "pitch": 75, "instrument": 1, "track": 3, "qtime": 6, "isDrum": false}, {"time": 198, "velocity": 108, "pitch": 56, "instrument": 1, "track": 3, "qtime": 6, "isDrum": false}, {"time": 198, "velocity": 108, "pitch": 75, "instrument": 1, "track": 3, "qtime": 6, "isDrum": false}, {"time": 198, "velocity": 108, "pitch": 80, "instrument": 1, "track": 3, "qtime": 6, "isDrum": false}, {"time": 198, "velocity": 108, "pitch": 84, "instrument": 1, "track": 3, "qtime": 6, "isDrum": false}, {"time": 198, "velocity": 108, "pitch": 87, "instrument": 1, "track": 3, "qtime": 6, "isDrum": false}, {"time": 201, "velocity": 0, "pitch": 80, "instrument": 1, "track": 3, "qtime": 9, "isDrum": false}, {"time": 202, "velocity": 0, "pitch": 75, "instrument": 1, "track": 3, "qtime": 10, "isDrum": false}, {"time": 202, "velocity": 0, "pitch": 84, "instrument": 1, "track": 3, "qtime": 10, "isDrum": false}, {"time": 202, "velocity": 0, "pitch": 87, "instrument": 1, "track": 3, "qtime": 10, "isDrum": false}, {"time": 203, "velocity": 0, "pitch": 56, "instrument": 1, "track": 3, "qtime": 11, "isDrum": false}, {"time": 204, "velocity": 108, "pitch": 48, "instrument": 1, "track": 3, "qtime": 12, "isDrum": false}, {"time": 204, "velocity": 108, "pitch": 75, "instrument": 1, "track": 3, "qtime": 12, "isDrum": false}, {"time": 204, "velocity": 108, "pitch": 80, "instrument": 1, "track": 3, "qtime": 12, "isDrum": false}, {"time": 204, "velocity": 108, "pitch": 84, "instrument": 1, "track": 3, "qtime": 12, "isDrum": false}, {"time": 204, "velocity": 108, "pitch": 87, "instrument": 1, "track": 3, "qtime": 12, "isDrum": false}, {"time": 207, "velocity": 0, "pitch": 75, "instrument": 1, "track": 3, "qtime": 15, "isDrum": false}, {"time": 207, "velocity": 0, "pitch": 80, "instrument": 1, "track": 3, "qtime": 15, "isDrum": false}, {"time": 207, "velocity": 0, "pitch": 84, "instrument": 1, "track": 3, "qtime": 15, "isDrum": false}, {"time": 207, "velocity": 0, "pitch": 87, "instrument": 1, "track": 3, "qtime": 15, "isDrum": false}, {"time": 209, "velocity": 0, "pitch": 48, "instrument": 1, "track": 3, "qtime": 17, "isDrum": false}, {"time": 210, "velocity": 108, "pitch": 51, "instrument": 1, "track": 3, "qtime": 18, "isDrum": false}, {"time": 210, "velocity": 108, "pitch": 75, "instrument": 1, "track": 3, "qtime": 18, "isDrum": false}, {"time": 210, "velocity": 108, "pitch": 80, "instrument": 1, "track": 3, "qtime": 18, "isDrum": false}, {"time": 210, "velocity": 108, "pitch": 84, "instrument": 1, "track": 3, "qtime": 18, "isDrum": false}, {"time": 210, "velocity": 108, "pitch": 87, "instrument": 1, "track": 3, "qtime": 18, "isDrum": false}, {"time": 213, "velocity": 0, "pitch": 51, "instrument": 1, "track": 3, "qtime": 21, "isDrum": false}, {"time": 214, "velocity": 0, "pitch": 75, "instrument": 1, "track": 3, "qtime": 22, "isDrum": false}, {"time": 214, "velocity": 0, "pitch": 80, "instrument": 1, "track": 3, "qtime": 22, "isDrum": false}, {"time": 214, "velocity": 0, "pitch": 84, "instrument": 1, "track": 3, "qtime": 22, "isDrum": false}, {"time": 214, "velocity": 0, "pitch": 87, "instrument": 1, "track": 3, "qtime": 22, "isDrum": false}, {"time": 216, "velocity": 108, "pitch": 53, "instrument": 1, "track": 3, "qtime": 24, "isDrum": false}, {"time": 216, "velocity": 108, "pitch": 75, "instrument": 1, "track": 3, "qtime": 24, "isDrum": false}, {"time": 216, "velocity": 108, "pitch": 80, "instrument": 1, "track": 3, "qtime": 24, "isDrum": false}, {"time": 216, "velocity": 108, "pitch": 84, "instrument": 1, "track": 3, "qtime": 24, "isDrum": false}, {"time": 216, "velocity": 108, "pitch": 87, "instrument": 1, "track": 3, "qtime": 24, "isDrum": false}, {"time": 219, "velocity": 0, "pitch": 53, "instrument": 1, "track": 3, "qtime": 27, "isDrum": false}, {"time": 219, "velocity": 0, "pitch": 75, "instrument": 1, "track": 3, "qtime": 27, "isDrum": false}, {"time": 219, "velocity": 0, "pitch": 80, "instrument": 1, "track": 3, "qtime": 27, "isDrum": false}, {"time": 219, "velocity": 0, "pitch": 84, "instrument": 1, "track": 3, "qtime": 27, "isDrum": false}, {"time": 220, "velocity": 0, "pitch": 87, "instrument": 1, "track": 3, "qtime": 28, "isDrum": false}, {"time": 222, "velocity": 108, "pitch": 53, "instrument": 1, "track": 3, "qtime": 30, "isDrum": false}, {"time": 222, "velocity": 108, "pitch": 75, "instrument": 1, "track": 3, "qtime": 30, "isDrum": false}, {"time": 222, "velocity": 108, "pitch": 80, "instrument": 1, "track": 3, "qtime": 30, "isDrum": false}, {"time": 222, "velocity": 108, "pitch": 84, "instrument": 1, "track": 3, "qtime": 30, "isDrum": false}, {"time": 222, "velocity": 108, "pitch": 87, "instrument": 1, "track": 3, "qtime": 30, "isDrum": false}, {"time": 225, "velocity": 0, "pitch": 53, "instrument": 1, "track": 3, "qtime": 33, "isDrum": false}, {"time": 226, "velocity": 0, "pitch": 75, "instrument": 1, "track": 3, "qtime": 34, "isDrum": false}, {"time": 226, "velocity": 0, "pitch": 80, "instrument": 1, "track": 3, "qtime": 34, "isDrum": false}, {"time": 226, "velocity": 0, "pitch": 84, "instrument": 1, "track": 3, "qtime": 34, "isDrum": false}, {"time": 226, "velocity": 0, "pitch": 87, "instrument": 1, "track": 3, "qtime": 34, "isDrum": false}, {"time": 228, "velocity": 108, "pitch": 51, "instrument": 1, "track": 3, "qtime": 36, "isDrum": false}, {"time": 228, "velocity": 108, "pitch": 75, "instrument": 1, "track": 3, "qtime": 36, "isDrum": false}, {"time": 228, "velocity": 108, "pitch": 80, "instrument": 1, "track": 3, "qtime": 36, "isDrum": false}, {"time": 228, "velocity": 108, "pitch": 84, "instrument": 1, "track": 3, "qtime": 36, "isDrum": false}, {"time": 228, "velocity": 108, "pitch": 87, "instrument": 1, "track": 3, "qtime": 36, "isDrum": false}, {"time": 231, "velocity": 0, "pitch": 51, "instrument": 1, "track": 3, "qtime": 39, "isDrum": false}, {"time": 231, "velocity": 0, "pitch": 75, "instrument": 1, "track": 3, "qtime": 39, "isDrum": false}, {"time": 231, "velocity": 0, "pitch": 80, "instrument": 1, "track": 3, "qtime": 39, "isDrum": false}, {"time": 231, "velocity": 0, "pitch": 84, "instrument": 1, "track": 3, "qtime": 39, "isDrum": false}, {"time": 231, "velocity": 0, "pitch": 87, "instrument": 1, "track": 3, "qtime": 39, "isDrum": false}, {"time": 234, "velocity": 108, "pitch": 51, "instrument": 1, "track": 3, "qtime": 42, "isDrum": false}, {"time": 234, "velocity": 108, "pitch": 75, "instrument": 1, "track": 3, "qtime": 42, "isDrum": false}, {"time": 234, "velocity": 108, "pitch": 80, "instrument": 1, "track": 3, "qtime": 42, "isDrum": false}, {"time": 234, "velocity": 108, "pitch": 84, "instrument": 1, "track": 3, "qtime": 42, "isDrum": false}, {"time": 234, "velocity": 108, "pitch": 87, "instrument": 1, "track": 3, "qtime": 42, "isDrum": false}, {"time": 237, "velocity": 0, "pitch": 51, "instrument": 1, "track": 3, "qtime": 45, "isDrum": false}, {"time": 238, "velocity": 0, "pitch": 75, "instrument": 1, "track": 3, "qtime": 46, "isDrum": false}, {"time": 238, "velocity": 0, "pitch": 80, "instrument": 1, "track": 3, "qtime": 46, "isDrum": false}, {"time": 238, "velocity": 0, "pitch": 84, "instrument": 1, "track": 3, "qtime": 46, "isDrum": false}, {"time": 238, "velocity": 0, "pitch": 87, "instrument": 1, "track": 3, "qtime": 46, "isDrum": false}, {"time": 240, "velocity": 108, "pitch": 44, "instrument": 1, "track": 3, "qtime": 0, "isDrum": false}, {"time": 240, "velocity": 108, "pitch": 75, "instrument": 1, "track": 3, "qtime": 0, "isDrum": false}, {"time": 240, "velocity": 108, "pitch": 80, "instrument": 1, "track": 3, "qtime": 0, "isDrum": false}, {"time": 240, "velocity": 108, "pitch": 84, "instrument": 1, "track": 3, "qtime": 0, "isDrum": false}, {"time": 240, "velocity": 108, "pitch": 87, "instrument": 1, "track": 3, "qtime": 0, "isDrum": false}, {"time": 243, "velocity": 0, "pitch": 80, "instrument": 1, "track": 3, "qtime": 3, "isDrum": false}, {"time": 243, "velocity": 0, "pitch": 84, "instrument": 1, "track": 3, "qtime": 3, "isDrum": false}, {"time": 243, "velocity": 0, "pitch": 87, "instrument": 1, "track": 3, "qtime": 3, "isDrum": false}, {"time": 246, "velocity": 0, "pitch": 44, "instrument": 1, "track": 3, "qtime": 6, "isDrum": false}, {"time": 246, "velocity": 0, "pitch": 75, "instrument": 1, "track": 3, "qtime": 6, "isDrum": false}, {"time": 246, "velocity": 108, "pitch": 56, "instrument": 1, "track": 3, "qtime": 6, "isDrum": false}, {"time": 246, "velocity": 108, "pitch": 75, "instrument": 1, "track": 3, "qtime": 6, "isDrum": false}, {"time": 246, "velocity": 108, "pitch": 80, "instrument": 1, "track": 3, "qtime": 6, "isDrum": false}, {"time": 246, "velocity": 108, "pitch": 84, "instrument": 1, "track": 3, "qtime": 6, "isDrum": false}, {"time": 246, "velocity": 108, "pitch": 87, "instrument": 1, "track": 3, "qtime": 6, "isDrum": false}, {"time": 249, "velocity": 0, "pitch": 56, "instrument": 1, "track": 3, "qtime": 9, "isDrum": false}, {"time": 250, "velocity": 0, "pitch": 75, "instrument": 1, "track": 3, "qtime": 10, "isDrum": false}, {"time": 250, "velocity": 0, "pitch": 80, "instrument": 1, "track": 3, "qtime": 10, "isDrum": false}, {"time": 250, "velocity": 0, "pitch": 84, "instrument": 1, "track": 3, "qtime": 10, "isDrum": false}, {"time": 250, "velocity": 0, "pitch": 87, "instrument": 1, "track": 3, "qtime": 10, "isDrum": false}, {"time": 252, "velocity": 108, "pitch": 48, "instrument": 1, "track": 3, "qtime": 12, "isDrum": false}, {"time": 252, "velocity": 108, "pitch": 75, "instrument": 1, "track": 3, "qtime": 12, "isDrum": false}, {"time": 252, "velocity": 108, "pitch": 80, "instrument": 1, "track": 3, "qtime": 12, "isDrum": false}, {"time": 252, "velocity": 108, "pitch": 84, "instrument": 1, "track": 3, "qtime": 12, "isDrum": false}, {"time": 252, "velocity": 108, "pitch": 87, "instrument": 1, "track": 3, "qtime": 12, "isDrum": false}, {"time": 255, "velocity": 0, "pitch": 75, "instrument": 1, "track": 3, "qtime": 15, "isDrum": false}, {"time": 255, "velocity": 0, "pitch": 80, "instrument": 1, "track": 3, "qtime": 15, "isDrum": false}, {"time": 255, "velocity": 0, "pitch": 84, "instrument": 1, "track": 3, "qtime": 15, "isDrum": false}, {"time": 255, "velocity": 0, "pitch": 87, "instrument": 1, "track": 3, "qtime": 15, "isDrum": false}, {"time": 257, "velocity": 0, "pitch": 48, "instrument": 1, "track": 3, "qtime": 17, "isDrum": false}, {"time": 258, "velocity": 108, "pitch": 50, "instrument": 1, "track": 3, "qtime": 18, "isDrum": false}, {"time": 258, "velocity": 108, "pitch": 75, "instrument": 1, "track": 3, "qtime": 18, "isDrum": false}, {"time": 258, "velocity": 108, "pitch": 80, "instrument": 1, "track": 3, "qtime": 18, "isDrum": false}, {"time": 258, "velocity": 108, "pitch": 84, "instrument": 1, "track": 3, "qtime": 18, "isDrum": false}, {"time": 258, "velocity": 108, "pitch": 87, "instrument": 1, "track": 3, "qtime": 18, "isDrum": false}, {"time": 261, "velocity": 0, "pitch": 50, "instrument": 1, "track": 3, "qtime": 21, "isDrum": false}, {"time": 262, "velocity": 0, "pitch": 75, "instrument": 1, "track": 3, "qtime": 22, "isDrum": false}, {"time": 262, "velocity": 0, "pitch": 80, "instrument": 1, "track": 3, "qtime": 22, "isDrum": false}, {"time": 262, "velocity": 0, "pitch": 84, "instrument": 1, "track": 3, "qtime": 22, "isDrum": false}, {"time": 262, "velocity": 0, "pitch": 87, "instrument": 1, "track": 3, "qtime": 22, "isDrum": false}, {"time": 264, "velocity": 108, "pitch": 51, "instrument": 1, "track": 3, "qtime": 24, "isDrum": false}, {"time": 264, "velocity": 108, "pitch": 75, "instrument": 1, "track": 3, "qtime": 24, "isDrum": false}, {"time": 264, "velocity": 108, "pitch": 80, "instrument": 1, "track": 3, "qtime": 24, "isDrum": false}, {"time": 264, "velocity": 108, "pitch": 84, "instrument": 1, "track": 3, "qtime": 24, "isDrum": false}, {"time": 264, "velocity": 108, "pitch": 87, "instrument": 1, "track": 3, "qtime": 24, "isDrum": false}, {"time": 267, "velocity": 0, "pitch": 51, "instrument": 1, "track": 3, "qtime": 27, "isDrum": false}, {"time": 267, "velocity": 0, "pitch": 75, "instrument": 1, "track": 3, "qtime": 27, "isDrum": false}, {"time": 267, "velocity": 0, "pitch": 80, "instrument": 1, "track": 3, "qtime": 27, "isDrum": false}, {"time": 267, "velocity": 0, "pitch": 84, "instrument": 1, "track": 3, "qtime": 27, "isDrum": false}, {"time": 267, "velocity": 0, "pitch": 87, "instrument": 1, "track": 3, "qtime": 27, "isDrum": false}, {"time": 270, "velocity": 108, "pitch": 51, "instrument": 1, "track": 3, "qtime": 30, "isDrum": false}, {"time": 270, "velocity": 108, "pitch": 75, "instrument": 1, "track": 3, "qtime": 30, "isDrum": false}, {"time": 270, "velocity": 108, "pitch": 80, "instrument": 1, "track": 3, "qtime": 30, "isDrum": false}, {"time": 270, "velocity": 108, "pitch": 84, "instrument": 1, "track": 3, "qtime": 30, "isDrum": false}, {"time": 270, "velocity": 108, "pitch": 87, "instrument": 1, "track": 3, "qtime": 30, "isDrum": false}, {"time": 273, "velocity": 0, "pitch": 51, "instrument": 1, "track": 3, "qtime": 33, "isDrum": false}, {"time": 274, "velocity": 0, "pitch": 75, "instrument": 1, "track": 3, "qtime": 34, "isDrum": false}, {"time": 274, "velocity": 0, "pitch": 80, "instrument": 1, "track": 3, "qtime": 34, "isDrum": false}, {"time": 274, "velocity": 0, "pitch": 84, "instrument": 1, "track": 3, "qtime": 34, "isDrum": false}, {"time": 274, "velocity": 0, "pitch": 87, "instrument": 1, "track": 3, "qtime": 34, "isDrum": false}, {"time": 276, "velocity": 108, "pitch": 48, "instrument": 1, "track": 3, "qtime": 36, "isDrum": false}, {"time": 276, "velocity": 108, "pitch": 75, "instrument": 1, "track": 3, "qtime": 36, "isDrum": false}, {"time": 276, "velocity": 108, "pitch": 80, "instrument": 1, "track": 3, "qtime": 36, "isDrum": false}, {"time": 276, "velocity": 108, "pitch": 84, "instrument": 1, "track": 3, "qtime": 36, "isDrum": false}, {"time": 276, "velocity": 108, "pitch": 87, "instrument": 1, "track": 3, "qtime": 36, "isDrum": false}, {"time": 279, "velocity": 0, "pitch": 48, "instrument": 1, "track": 3, "qtime": 39, "isDrum": false}, {"time": 279, "velocity": 0, "pitch": 75, "instrument": 1, "track": 3, "qtime": 39, "isDrum": false}, {"time": 279, "velocity": 0, "pitch": 80, "instrument": 1, "track": 3, "qtime": 39, "isDrum": false}, {"time": 279, "velocity": 0, "pitch": 84, "instrument": 1, "track": 3, "qtime": 39, "isDrum": false}, {"time": 279, "velocity": 0, "pitch": 87, "instrument": 1, "track": 3, "qtime": 39, "isDrum": false}, {"time": 282, "velocity": 108, "pitch": 56, "instrument": 1, "track": 3, "qtime": 42, "isDrum": false}, {"time": 282, "velocity": 108, "pitch": 75, "instrument": 1, "track": 3, "qtime": 42, "isDrum": false}, {"time": 282, "velocity": 108, "pitch": 80, "instrument": 1, "track": 3, "qtime": 42, "isDrum": false}, {"time": 282, "velocity": 108, "pitch": 84, "instrument": 1, "track": 3, "qtime": 42, "isDrum": false}, {"time": 282, "velocity": 108, "pitch": 87, "instrument": 1, "track": 3, "qtime": 42, "isDrum": false}, {"time": 285, "velocity": 0, "pitch": 56, "instrument": 1, "track": 3, "qtime": 45, "isDrum": false}, {"time": 285, "velocity": 0, "pitch": 75, "instrument": 1, "track": 3, "qtime": 45, "isDrum": false}, {"time": 285, "velocity": 0, "pitch": 80, "instrument": 1, "track": 3, "qtime": 45, "isDrum": false}, {"time": 285, "velocity": 0, "pitch": 84, "instrument": 1, "track": 3, "qtime": 45, "isDrum": false}, {"time": 285, "velocity": 0, "pitch": 87, "instrument": 1, "track": 3, "qtime": 45, "isDrum": false}, {"time": 288, "velocity": 108, "pitch": 39, "instrument": 1, "track": 3, "qtime": 0, "isDrum": false}, {"time": 288, "velocity": 108, "pitch": 82, "instrument": 1, "track": 3, "qtime": 0, "isDrum": false}, {"time": 288, "velocity": 108, "pitch": 87, "instrument": 1, "track": 3, "qtime": 0, "isDrum": false}, {"time": 288, "velocity": 108, "pitch": 91, "instrument": 1, "track": 3, "qtime": 0, "isDrum": false}, {"time": 288, "velocity": 108, "pitch": 94, "instrument": 1, "track": 3, "qtime": 0, "isDrum": false}, {"time": 291, "velocity": 0, "pitch": 82, "instrument": 1, "track": 3, "qtime": 3, "isDrum": false}, {"time": 291, "velocity": 0, "pitch": 87, "instrument": 1, "track": 3, "qtime": 3, "isDrum": false}, {"time": 291, "velocity": 0, "pitch": 91, "instrument": 1, "track": 3, "qtime": 3, "isDrum": false}, {"time": 292, "velocity": 0, "pitch": 94, "instrument": 1, "track": 3, "qtime": 4, "isDrum": false}, {"time": 293, "velocity": 0, "pitch": 39, "instrument": 1, "track": 3, "qtime": 5, "isDrum": false}, {"time": 294, "velocity": 108, "pitch": 51, "instrument": 1, "track": 3, "qtime": 6, "isDrum": false}, {"time": 294, "velocity": 108, "pitch": 82, "instrument": 1, "track": 3, "qtime": 6, "isDrum": false}, {"time": 294, "velocity": 108, "pitch": 87, "instrument": 1, "track": 3, "qtime": 6, "isDrum": false}, {"time": 294, "velocity": 108, "pitch": 91, "instrument": 1, "track": 3, "qtime": 6, "isDrum": false}, {"time": 294, "velocity": 108, "pitch": 94, "instrument": 1, "track": 3, "qtime": 6, "isDrum": false}, {"time": 297, "velocity": 0, "pitch": 51, "instrument": 1, "track": 3, "qtime": 9, "isDrum": false}, {"time": 298, "velocity": 0, "pitch": 82, "instrument": 1, "track": 3, "qtime": 10, "isDrum": false}, {"time": 298, "velocity": 0, "pitch": 87, "instrument": 1, "track": 3, "qtime": 10, "isDrum": false}, {"time": 298, "velocity": 0, "pitch": 91, "instrument": 1, "track": 3, "qtime": 10, "isDrum": false}, {"time": 299, "velocity": 0, "pitch": 94, "instrument": 1, "track": 3, "qtime": 11, "isDrum": false}, {"time": 300, "velocity": 108, "pitch": 43, "instrument": 1, "track": 3, "qtime": 12, "isDrum": false}, {"time": 300, "velocity": 108, "pitch": 82, "instrument": 1, "track": 3, "qtime": 12, "isDrum": false}, {"time": 300, "velocity": 108, "pitch": 87, "instrument": 1, "track": 3, "qtime": 12, "isDrum": false}, {"time": 300, "velocity": 108, "pitch": 91, "instrument": 1, "track": 3, "qtime": 12, "isDrum": false}, {"time": 300, "velocity": 108, "pitch": 94, "instrument": 1, "track": 3, "qtime": 12, "isDrum": false}, {"time": 303, "velocity": 0, "pitch": 82, "instrument": 1, "track": 3, "qtime": 15, "isDrum": false}, {"time": 303, "velocity": 0, "pitch": 87, "instrument": 1, "track": 3, "qtime": 15, "isDrum": false}, {"time": 303, "velocity": 0, "pitch": 91, "instrument": 1, "track": 3, "qtime": 15, "isDrum": false}, {"time": 303, "velocity": 0, "pitch": 94, "instrument": 1, "track": 3, "qtime": 15, "isDrum": false}, {"time": 306, "velocity": 0, "pitch": 43, "instrument": 1, "track": 3, "qtime": 18, "isDrum": false}, {"time": 306, "velocity": 108, "pitch": 46, "instrument": 1, "track": 3, "qtime": 18, "isDrum": false}, {"time": 306, "velocity": 108, "pitch": 82, "instrument": 1, "track": 3, "qtime": 18, "isDrum": false}, {"time": 306, "velocity": 108, "pitch": 87, "instrument": 1, "track": 3, "qtime": 18, "isDrum": false}, {"time": 306, "velocity": 108, "pitch": 91, "instrument": 1, "track": 3, "qtime": 18, "isDrum": false}, {"time": 306, "velocity": 108, "pitch": 94, "instrument": 1, "track": 3, "qtime": 18, "isDrum": false}, {"time": 309, "velocity": 0, "pitch": 46, "instrument": 1, "track": 3, "qtime": 21, "isDrum": false}, {"time": 310, "velocity": 0, "pitch": 82, "instrument": 1, "track": 3, "qtime": 22, "isDrum": false}, {"time": 310, "velocity": 0, "pitch": 87, "instrument": 1, "track": 3, "qtime": 22, "isDrum": false}, {"time": 310, "velocity": 0, "pitch": 91, "instrument": 1, "track": 3, "qtime": 22, "isDrum": false}, {"time": 310, "velocity": 0, "pitch": 94, "instrument": 1, "track": 3, "qtime": 22, "isDrum": false}, {"time": 312, "velocity": 108, "pitch": 49, "instrument": 1, "track": 3, "qtime": 24, "isDrum": false}, {"time": 312, "velocity": 108, "pitch": 82, "instrument": 1, "track": 3, "qtime": 24, "isDrum": false}, {"time": 312, "velocity": 108, "pitch": 87, "instrument": 1, "track": 3, "qtime": 24, "isDrum": false}, {"time": 312, "velocity": 108, "pitch": 91, "instrument": 1, "track": 3, "qtime": 24, "isDrum": false}, {"time": 312, "velocity": 108, "pitch": 94, "instrument": 1, "track": 3, "qtime": 24, "isDrum": false}, {"time": 315, "velocity": 0, "pitch": 49, "instrument": 1, "track": 3, "qtime": 27, "isDrum": false}, {"time": 315, "velocity": 0, "pitch": 82, "instrument": 1, "track": 3, "qtime": 27, "isDrum": false}, {"time": 315, "velocity": 0, "pitch": 87, "instrument": 1, "track": 3, "qtime": 27, "isDrum": false}, {"time": 315, "velocity": 0, "pitch": 91, "instrument": 1, "track": 3, "qtime": 27, "isDrum": false}, {"time": 315, "velocity": 0, "pitch": 94, "instrument": 1, "track": 3, "qtime": 27, "isDrum": false}, {"time": 318, "velocity": 108, "pitch": 49, "instrument": 1, "track": 3, "qtime": 30, "isDrum": false}, {"time": 318, "velocity": 108, "pitch": 82, "instrument": 1, "track": 3, "qtime": 30, "isDrum": false}, {"time": 318, "velocity": 108, "pitch": 87, "instrument": 1, "track": 3, "qtime": 30, "isDrum": false}, {"time": 318, "velocity": 108, "pitch": 91, "instrument": 1, "track": 3, "qtime": 30, "isDrum": false}, {"time": 318, "velocity": 108, "pitch": 94, "instrument": 1, "track": 3, "qtime": 30, "isDrum": false}, {"time": 321, "velocity": 0, "pitch": 49, "instrument": 1, "track": 3, "qtime": 33, "isDrum": false}, {"time": 322, "velocity": 0, "pitch": 82, "instrument": 1, "track": 3, "qtime": 34, "isDrum": false}, {"time": 322, "velocity": 0, "pitch": 87, "instrument": 1, "track": 3, "qtime": 34, "isDrum": false}, {"time": 322, "velocity": 0, "pitch": 91, "instrument": 1, "track": 3, "qtime": 34, "isDrum": false}, {"time": 323, "velocity": 0, "pitch": 94, "instrument": 1, "track": 3, "qtime": 35, "isDrum": false}, {"time": 324, "velocity": 108, "pitch": 48, "instrument": 1, "track": 3, "qtime": 36, "isDrum": false}, {"time": 324, "velocity": 108, "pitch": 82, "instrument": 1, "track": 3, "qtime": 36, "isDrum": false}, {"time": 324, "velocity": 108, "pitch": 87, "instrument": 1, "track": 3, "qtime": 36, "isDrum": false}, {"time": 324, "velocity": 108, "pitch": 91, "instrument": 1, "track": 3, "qtime": 36, "isDrum": false}, {"time": 324, "velocity": 108, "pitch": 94, "instrument": 1, "track": 3, "qtime": 36, "isDrum": false}, {"time": 327, "velocity": 0, "pitch": 48, "instrument": 1, "track": 3, "qtime": 39, "isDrum": false}, {"time": 327, "velocity": 0, "pitch": 82, "instrument": 1, "track": 3, "qtime": 39, "isDrum": false}, {"time": 327, "velocity": 0, "pitch": 87, "instrument": 1, "track": 3, "qtime": 39, "isDrum": false}, {"time": 327, "velocity": 0, "pitch": 91, "instrument": 1, "track": 3, "qtime": 39, "isDrum": false}, {"time": 327, "velocity": 0, "pitch": 94, "instrument": 1, "track": 3, "qtime": 39, "isDrum": false}, {"time": 330, "velocity": 108, "pitch": 46, "instrument": 1, "track": 3, "qtime": 42, "isDrum": false}, {"time": 330, "velocity": 108, "pitch": 82, "instrument": 1, "track": 3, "qtime": 42, "isDrum": false}, {"time": 330, "velocity": 108, "pitch": 87, "instrument": 1, "track": 3, "qtime": 42, "isDrum": false}, {"time": 330, "velocity": 108, "pitch": 91, "instrument": 1, "track": 3, "qtime": 42, "isDrum": false}, {"time": 330, "velocity": 108, "pitch": 94, "instrument": 1, "track": 3, "qtime": 42, "isDrum": false}, {"time": 333, "velocity": 0, "pitch": 46, "instrument": 1, "track": 3, "qtime": 45, "isDrum": false}, {"time": 333, "velocity": 0, "pitch": 82, "instrument": 1, "track": 3, "qtime": 45, "isDrum": false}, {"time": 333, "velocity": 0, "pitch": 87, "instrument": 1, "track": 3, "qtime": 45, "isDrum": false}, {"time": 333, "velocity": 0, "pitch": 91, "instrument": 1, "track": 3, "qtime": 45, "isDrum": false}, {"time": 333, "velocity": 0, "pitch": 94, "instrument": 1, "track": 3, "qtime": 45, "isDrum": false}, {"time": 336, "velocity": 108, "pitch": 39, "instrument": 1, "track": 3, "qtime": 0, "isDrum": false}, {"time": 336, "velocity": 108, "pitch": 82, "instrument": 1, "track": 3, "qtime": 0, "isDrum": false}, {"time": 336, "velocity": 108, "pitch": 87, "instrument": 1, "track": 3, "qtime": 0, "isDrum": false}, {"time": 336, "velocity": 108, "pitch": 91, "instrument": 1, "track": 3, "qtime": 0, "isDrum": false}, {"time": 336, "velocity": 108, "pitch": 94, "instrument": 1, "track": 3, "qtime": 0, "isDrum": false}, {"time": 339, "velocity": 0, "pitch": 82, "instrument": 1, "track": 3, "qtime": 3, "isDrum": false}, {"time": 339, "velocity": 0, "pitch": 87, "instrument": 1, "track": 3, "qtime": 3, "isDrum": false}, {"time": 339, "velocity": 0, "pitch": 91, "instrument": 1, "track": 3, "qtime": 3, "isDrum": false}, {"time": 339, "velocity": 0, "pitch": 94, "instrument": 1, "track": 3, "qtime": 3, "isDrum": false}, {"time": 342, "velocity": 0, "pitch": 39, "instrument": 1, "track": 3, "qtime": 6, "isDrum": false}, {"time": 342, "velocity": 108, "pitch": 51, "instrument": 1, "track": 3, "qtime": 6, "isDrum": false}, {"time": 342, "velocity": 108, "pitch": 82, "instrument": 1, "track": 3, "qtime": 6, "isDrum": false}, {"time": 342, "velocity": 108, "pitch": 87, "instrument": 1, "track": 3, "qtime": 6, "isDrum": false}, {"time": 342, "velocity": 108, "pitch": 91, "instrument": 1, "track": 3, "qtime": 6, "isDrum": false}, {"time": 342, "velocity": 108, "pitch": 94, "instrument": 1, "track": 3, "qtime": 6, "isDrum": false}, {"time": 345, "velocity": 0, "pitch": 51, "instrument": 1, "track": 3, "qtime": 9, "isDrum": false}, {"time": 346, "velocity": 0, "pitch": 82, "instrument": 1, "track": 3, "qtime": 10, "isDrum": false}, {"time": 346, "velocity": 0, "pitch": 87, "instrument": 1, "track": 3, "qtime": 10, "isDrum": false}, {"time": 346, "velocity": 0, "pitch": 91, "instrument": 1, "track": 3, "qtime": 10, "isDrum": false}, {"time": 347, "velocity": 0, "pitch": 94, "instrument": 1, "track": 3, "qtime": 11, "isDrum": false}, {"time": 348, "velocity": 108, "pitch": 43, "instrument": 1, "track": 3, "qtime": 12, "isDrum": false}, {"time": 348, "velocity": 108, "pitch": 82, "instrument": 1, "track": 3, "qtime": 12, "isDrum": false}, {"time": 348, "velocity": 108, "pitch": 87, "instrument": 1, "track": 3, "qtime": 12, "isDrum": false}, {"time": 348, "velocity": 108, "pitch": 91, "instrument": 1, "track": 3, "qtime": 12, "isDrum": false}, {"time": 348, "velocity": 108, "pitch": 94, "instrument": 1, "track": 3, "qtime": 12, "isDrum": false}, {"time": 351, "velocity": 0, "pitch": 82, "instrument": 1, "track": 3, "qtime": 15, "isDrum": false}, {"time": 351, "velocity": 0, "pitch": 87, "instrument": 1, "track": 3, "qtime": 15, "isDrum": false}, {"time": 351, "velocity": 0, "pitch": 91, "instrument": 1, "track": 3, "qtime": 15, "isDrum": false}, {"time": 351, "velocity": 0, "pitch": 94, "instrument": 1, "track": 3, "qtime": 15, "isDrum": false}, {"time": 354, "velocity": 0, "pitch": 43, "instrument": 1, "track": 3, "qtime": 18, "isDrum": false}, {"time": 354, "velocity": 108, "pitch": 46, "instrument": 1, "track": 3, "qtime": 18, "isDrum": false}, {"time": 354, "velocity": 108, "pitch": 82, "instrument": 1, "track": 3, "qtime": 18, "isDrum": false}, {"time": 354, "velocity": 108, "pitch": 87, "instrument": 1, "track": 3, "qtime": 18, "isDrum": false}, {"time": 354, "velocity": 108, "pitch": 91, "instrument": 1, "track": 3, "qtime": 18, "isDrum": false}, {"time": 354, "velocity": 108, "pitch": 94, "instrument": 1, "track": 3, "qtime": 18, "isDrum": false}, {"time": 357, "velocity": 0, "pitch": 46, "instrument": 1, "track": 3, "qtime": 21, "isDrum": false}, {"time": 358, "velocity": 0, "pitch": 82, "instrument": 1, "track": 3, "qtime": 22, "isDrum": false}, {"time": 358, "velocity": 0, "pitch": 87, "instrument": 1, "track": 3, "qtime": 22, "isDrum": false}, {"time": 358, "velocity": 0, "pitch": 91, "instrument": 1, "track": 3, "qtime": 22, "isDrum": false}, {"time": 358, "velocity": 0, "pitch": 94, "instrument": 1, "track": 3, "qtime": 22, "isDrum": false}, {"time": 360, "velocity": 108, "pitch": 49, "instrument": 1, "track": 3, "qtime": 24, "isDrum": false}, {"time": 360, "velocity": 108, "pitch": 82, "instrument": 1, "track": 3, "qtime": 24, "isDrum": false}, {"time": 360, "velocity": 108, "pitch": 87, "instrument": 1, "track": 3, "qtime": 24, "isDrum": false}, {"time": 360, "velocity": 108, "pitch": 91, "instrument": 1, "track": 3, "qtime": 24, "isDrum": false}, {"time": 360, "velocity": 108, "pitch": 94, "instrument": 1, "track": 3, "qtime": 24, "isDrum": false}, {"time": 363, "velocity": 0, "pitch": 49, "instrument": 1, "track": 3, "qtime": 27, "isDrum": false}, {"time": 363, "velocity": 0, "pitch": 82, "instrument": 1, "track": 3, "qtime": 27, "isDrum": false}, {"time": 363, "velocity": 0, "pitch": 87, "instrument": 1, "track": 3, "qtime": 27, "isDrum": false}, {"time": 363, "velocity": 0, "pitch": 91, "instrument": 1, "track": 3, "qtime": 27, "isDrum": false}, {"time": 363, "velocity": 0, "pitch": 94, "instrument": 1, "track": 3, "qtime": 27, "isDrum": false}, {"time": 366, "velocity": 108, "pitch": 49, "instrument": 1, "track": 3, "qtime": 30, "isDrum": false}, {"time": 366, "velocity": 108, "pitch": 82, "instrument": 1, "track": 3, "qtime": 30, "isDrum": false}, {"time": 366, "velocity": 108, "pitch": 87, "instrument": 1, "track": 3, "qtime": 30, "isDrum": false}, {"time": 366, "velocity": 108, "pitch": 91, "instrument": 1, "track": 3, "qtime": 30, "isDrum": false}, {"time": 366, "velocity": 108, "pitch": 94, "instrument": 1, "track": 3, "qtime": 30, "isDrum": false}, {"time": 369, "velocity": 0, "pitch": 49, "instrument": 1, "track": 3, "qtime": 33, "isDrum": false}, {"time": 370, "velocity": 0, "pitch": 82, "instrument": 1, "track": 3, "qtime": 34, "isDrum": false}, {"time": 370, "velocity": 0, "pitch": 87, "instrument": 1, "track": 3, "qtime": 34, "isDrum": false}, {"time": 370, "velocity": 0, "pitch": 91, "instrument": 1, "track": 3, "qtime": 34, "isDrum": false}, {"time": 371, "velocity": 0, "pitch": 94, "instrument": 1, "track": 3, "qtime": 35, "isDrum": false}, {"time": 372, "velocity": 108, "pitch": 48, "instrument": 1, "track": 3, "qtime": 36, "isDrum": false}, {"time": 372, "velocity": 108, "pitch": 82, "instrument": 1, "track": 3, "qtime": 36, "isDrum": false}, {"time": 372, "velocity": 108, "pitch": 87, "instrument": 1, "track": 3, "qtime": 36, "isDrum": false}, {"time": 372, "velocity": 108, "pitch": 91, "instrument": 1, "track": 3, "qtime": 36, "isDrum": false}, {"time": 372, "velocity": 108, "pitch": 94, "instrument": 1, "track": 3, "qtime": 36, "isDrum": false}, {"time": 375, "velocity": 0, "pitch": 48, "instrument": 1, "track": 3, "qtime": 39, "isDrum": false}, {"time": 375, "velocity": 0, "pitch": 82, "instrument": 1, "track": 3, "qtime": 39, "isDrum": false}, {"time": 375, "velocity": 0, "pitch": 87, "instrument": 1, "track": 3, "qtime": 39, "isDrum": false}, {"time": 375, "velocity": 0, "pitch": 91, "instrument": 1, "track": 3, "qtime": 39, "isDrum": false}, {"time": 375, "velocity": 0, "pitch": 94, "instrument": 1, "track": 3, "qtime": 39, "isDrum": false}, {"time": 378, "velocity": 108, "pitch": 46, "instrument": 1, "track": 3, "qtime": 42, "isDrum": false}, {"time": 378, "velocity": 108, "pitch": 82, "instrument": 1, "track": 3, "qtime": 42, "isDrum": false}, {"time": 378, "velocity": 108, "pitch": 87, "instrument": 1, "track": 3, "qtime": 42, "isDrum": false}, {"time": 378, "velocity": 108, "pitch": 91, "instrument": 1, "track": 3, "qtime": 42, "isDrum": false}, {"time": 378, "velocity": 108, "pitch": 94, "instrument": 1, "track": 3, "qtime": 42, "isDrum": false}, {"time": 381, "velocity": 0, "pitch": 46, "instrument": 1, "track": 3, "qtime": 45, "isDrum": false}, {"time": 381, "velocity": 0, "pitch": 82, "instrument": 1, "track": 3, "qtime": 45, "isDrum": false}, {"time": 381, "velocity": 0, "pitch": 87, "instrument": 1, "track": 3, "qtime": 45, "isDrum": false}, {"time": 381, "velocity": 0, "pitch": 91, "instrument": 1, "track": 3, "qtime": 45, "isDrum": false}, {"time": 381, "velocity": 0, "pitch": 94, "instrument": 1, "track": 3, "qtime": 45, "isDrum": false}], "resolution": 12, "tempo": 164, "minPitch": 32, "maxPitch": 94, "validSegments": [0], "validTracks": [15]}, "audio": "https://www.sfu.ca/~jeffe/examples/8b_gibbs_gen_3.mp3"}, {"src": "gen/8b_gibbs_orig_6.json", "highlights": [[], [], [], [], [], [], [], []], "caption": "An original sample from the dataset.", "mixer": [8, 8, 8, 8, 8, 8, 8, 8], "sample_id": "13a", "json": {"tracks": [{"bars": [{"events": [0, 1, 2, 3, 4, 5, 6, 7, 8, 9, 10, 11, 12, 13, 14, 15, 16, 17, 18, 19, 20, 21, 22, 23, 24, 25, 26, 27], "isFourFour": true, "hasNotes": true, "time": 0, "beatLength": 4}, {"events": [28, 29, 30, 31, 32, 33, 34, 35, 36, 37, 38, 39, 40, 41], "isFourFour": true, "hasNotes": true, "time": 48, "beatLength": 4}, {"events": [42, 43, 44, 45, 46, 47, 48, 49, 50, 51, 52, 53], "isFourFour": true, "hasNotes": true, "time": 96, "beatLength": 4}, {"events": [54, 55, 56, 57, 58, 59], "isFourFour": true, "hasNotes": true, "time": 144, "beatLength": 4}, {"events": [60, 61, 62, 63, 64, 65, 66, 67, 68, 69, 70, 71, 72], "isFourFour": true, "hasNotes": true, "time": 192, "beatLength": 4}, {"events": [73, 74, 75, 76, 77, 78, 79, 80, 81, 82, 83, 84, 85], "isFourFour": true, "hasNotes": true, "time": 240, "beatLength": 4}, {"events": [86, 87], "isFourFour": true, "hasNotes": true, "time": 288, "beatLength": 4}, {"events": [88, 89, 90, 91], "isFourFour": true, "hasNotes": true, "time": 336, "beatLength": 4}], "isDrum": false, "minPitch": 45, "maxPitch": 76, "instrument": 24, "avPolyphony": 1.10052598, "noteDensity": 9, "noteDensityV2": 4}, {"bars": [{"events": [92, 93, 94, 95, 96, 97, 98, 99, 100, 101, 102, 103, 104, 105, 106, 107, 108, 109, 110, 111, 112, 113, 114, 115, 116, 117, 118, 119, 120, 121, 122, 123, 124, 125, 126, 127, 128, 129, 130, 131, 132, 133, 134, 135, 136, 137, 138, 139, 140, 141, 142, 143, 144, 145, 146, 147, 148, 149, 150, 151, 152, 153, 154, 155, 156, 157, 158, 159, 160, 161, 162, 163, 164, 165, 166, 167, 168, 169, 170, 171, 172, 173, 174, 175, 176, 177, 178, 179], "isFourFour": true, "hasNotes": true, "time": 0, "beatLength": 4}, {"events": [180, 181, 182, 183, 184, 185, 186, 187, 188, 189, 190, 191, 192, 193, 194, 195, 196, 197, 198, 199, 200, 201, 202, 203, 204, 205, 206, 207, 208, 209, 210, 211, 212, 213, 214, 215, 216, 217, 218, 219, 220, 221, 222, 223, 224, 225, 226, 227, 228, 229, 230, 231, 232, 233, 234, 235, 236, 237, 238, 239, 240, 241, 242, 243, 244, 245, 246, 247, 248, 249, 250, 251, 252, 253, 254, 255, 256, 257, 258, 259, 260, 261, 262, 263, 264, 265], "isFourFour": true, "hasNotes": true, "time": 48, "beatLength": 4}, {"events": [266, 267, 268, 269, 270, 271, 272, 273, 274, 275, 276, 277, 278, 279, 280, 281, 282, 283, 284, 285, 286, 287, 288, 289, 290, 291, 292, 293, 294, 295, 296, 297, 298, 299, 300, 301, 302, 303, 304, 305, 306, 307, 308, 309, 310, 311, 312, 313, 314, 315, 316, 317, 318, 319, 320, 321, 322, 323, 324, 325, 326, 327, 328, 329, 330, 331, 332, 333, 334, 335, 336, 337, 338, 339, 340, 341, 342, 343, 344, 345, 346, 347, 348, 349, 350, 351, 352, 353], "isFourFour": true, "hasNotes": true, "time": 96, "beatLength": 4}, {"events": [354, 355, 356, 357, 358, 359, 360, 361, 362, 363, 364, 365, 366, 367, 368, 369, 370, 371, 372, 373, 374, 375, 376, 377, 378, 379, 380, 381, 382, 383, 384, 385, 386, 387, 388, 389, 390, 391, 392, 393, 394, 395, 396, 397, 398, 399, 400, 401, 402, 403, 404, 405, 406, 407, 408, 409, 410, 411, 412, 413, 414, 415, 416, 417, 418, 419, 420, 421, 422, 423, 424, 425, 426, 427, 428, 429, 430, 431, 432, 433, 434, 435, 436, 437, 438, 439, 440, 441, 442, 443, 444, 445, 446, 447, 448, 449], "isFourFour": true, "hasNotes": true, "time": 144, "beatLength": 4}, {"events": [450, 451, 452, 453, 454, 455, 456, 457, 458, 459, 460, 461, 462, 463, 464, 465, 466, 467, 468, 469, 470, 471, 472, 473, 474, 475, 476, 477, 478, 479, 480, 481, 482, 483, 484, 485, 486, 487, 488, 489, 490, 491, 492, 493, 494, 495, 496, 497, 498, 499, 500, 501, 502, 503, 504, 505, 506, 507, 508, 509, 510, 511, 512, 513, 514, 515, 516, 517, 518, 519, 520, 521, 522, 523, 524, 525, 526, 527, 528, 529, 530, 531, 532, 533, 534, 535, 536, 537, 538, 539, 540, 541, 542, 543, 544, 545, 546, 547, 548, 549], "isFourFour": true, "hasNotes": true, "time": 192, "beatLength": 4}, {"events": [550, 551, 552, 553, 554, 555, 556, 557, 558, 559, 560, 561, 562, 563, 564, 565, 566, 567, 568, 569, 570, 571, 572, 573, 574, 575, 576, 577, 578, 579, 580, 581, 582, 583, 584, 585, 586, 587, 588, 589, 590, 591, 592, 593, 594, 595, 596, 597, 598, 599, 600, 601, 602, 603, 604, 605, 606, 607, 608, 609, 610, 611, 612, 613, 614, 615, 616, 617, 618, 619, 620, 621, 622, 623, 624, 625, 626, 627, 628, 629, 630, 631, 632, 633, 634, 635, 636, 637, 638, 639, 640, 641, 642, 643, 644, 645, 646, 647, 648, 649, 650, 651, 652, 653, 654, 655, 656, 657], "isFourFour": true, "hasNotes": true, "time": 240, "beatLength": 4}, {"events": [658, 659, 660, 661, 662, 663, 664, 665, 666, 667, 668, 669, 670, 671, 672, 673, 674, 675, 676, 677, 678, 679, 680, 681, 682, 683, 684, 685, 686, 687, 688, 689, 690, 691, 692, 693, 694, 695, 696, 697, 698, 699, 700, 701, 702, 703, 704, 705, 706, 707, 708, 709, 710, 711, 712, 713, 714, 715, 716, 717, 718, 719, 720, 721, 722, 723, 724, 725, 726, 727, 728, 729, 730, 731, 732, 733, 734, 735, 736, 737, 738, 739, 740, 741, 742, 743, 744, 745, 746, 747, 748, 749, 750, 751, 752, 753, 754, 755, 756, 757], "isFourFour": true, "hasNotes": true, "time": 288, "beatLength": 4}, {"events": [758, 759, 760, 761, 762, 763, 764, 765, 766, 767, 768, 769, 770, 771, 772, 773, 774, 775, 776, 777, 778, 779, 780, 781, 782, 783, 784, 785, 786, 787, 788, 789, 790, 791, 792, 793, 794, 795, 796, 797, 798, 799, 800, 801, 802, 803, 804, 805, 806, 807, 808, 809, 810, 811, 812, 813, 814, 815, 816, 817, 818, 819, 820, 821, 822, 823, 824, 825, 826, 827, 828, 829, 830, 831, 832, 833, 834, 835, 836, 837, 838, 839, 840, 841, 842, 843, 844, 845, 846, 847, 848, 849, 850, 851, 852, 853, 854, 855, 856, 857, 858, 859, 860, 861, 862, 863, 864, 865], "isFourFour": true, "hasNotes": true, "time": 336, "beatLength": 4}], "isDrum": true, "minPitch": 35, "maxPitch": 85, "instrument": 0, "avPolyphony": 3.07520413, "noteDensity": 9, "noteDensityV2": 9}, {"bars": [{"events": [866, 867, 868, 869, 870, 871, 872, 873, 874, 875, 876, 877], "isFourFour": true, "hasNotes": true, "time": 0, "beatLength": 4}, {"events": [878, 879, 880, 881, 882, 883, 884, 885, 886, 887, 888, 889], "isFourFour": true, "hasNotes": true, "time": 48, "beatLength": 4}, {"events": [890, 891, 892, 893, 894, 895, 896, 897, 898, 899, 900, 901], "isFourFour": true, "hasNotes": true, "time": 96, "beatLength": 4}, {"events": [902, 903, 904, 905, 906, 907, 908, 909, 910, 911, 912, 913], "isFourFour": true, "hasNotes": true, "time": 144, "beatLength": 4}, {"events": [914, 915, 916, 917, 918, 919, 920, 921, 922, 923, 924, 925], "isFourFour": true, "hasNotes": true, "time": 192, "beatLength": 4}, {"events": [926, 927, 928, 929, 930, 931, 932, 933, 934, 935, 936, 937], "isFourFour": true, "hasNotes": true, "time": 240, "beatLength": 4}, {"events": [938, 939, 940, 941, 942, 943, 944, 945, 946, 947, 948, 949], "isFourFour": true, "hasNotes": true, "time": 288, "beatLength": 4}, {"events": [950, 951, 952, 953, 954, 955, 956, 957, 958, 959, 960, 961], "isFourFour": true, "hasNotes": true, "time": 336, "beatLength": 4}], "isDrum": false, "minPitch": 23, "maxPitch": 45, "instrument": 33, "avPolyphony": 1, "noteDensity": 9, "noteDensityV2": 6}, {"bars": [{"events": [962, 963], "isFourFour": true, "hasNotes": true, "time": 0, "beatLength": 4}, {"events": [964, 965, 966, 967, 968, 969, 970, 971, 972], "isFourFour": true, "hasNotes": true, "time": 48, "beatLength": 4}, {"events": [973, 974, 975, 976, 977, 978], "isFourFour": true, "hasNotes": true, "time": 96, "beatLength": 4}, {"events": [979, 980, 981], "isFourFour": true, "hasNotes": true, "time": 144, "beatLength": 4}, {"events": [982, 983, 984, 985, 986, 987, 988, 989, 990], "isFourFour": true, "hasNotes": true, "time": 192, "beatLength": 4}, {"events": [991, 992, 993, 994, 995, 996, 997, 998, 999], "isFourFour": true, "hasNotes": true, "time": 240, "beatLength": 4}, {"events": [1000, 1001, 1002, 1003, 1004, 1005, 1006, 1007, 1008], "isFourFour": true, "hasNotes": true, "time": 288, "beatLength": 4}, {"events": [1009, 1010, 1011, 1012, 1013, 1014, 1015, 1016, 1017], "isFourFour": true, "hasNotes": true, "time": 336, "beatLength": 4}], "isDrum": false, "minPitch": 40, "maxPitch": 83, "instrument": 48, "avPolyphony": 2.76036716, "noteDensity": 9, "noteDensityV2": 4}], "events": [{"time": 9, "velocity": 0, "pitch": 57, "instrument": 24, "track": 0, "qtime": 9, "bar": 0, "isDrum": false}, {"time": 9, "velocity": 0, "pitch": 60, "instrument": 24, "track": 0, "qtime": 9, "bar": 0, "isDrum": false}, {"time": 9, "velocity": 108, "pitch": 59, "instrument": 24, "track": 0, "qtime": 9, "bar": 0, "isDrum": false}, {"time": 9, "velocity": 108, "pitch": 62, "instrument": 24, "track": 0, "qtime": 9, "bar": 0, "isDrum": false}, {"time": 15, "velocity": 0, "pitch": 59, "instrument": 24, "track": 0, "qtime": 15, "bar": 0, "isDrum": false}, {"time": 15, "velocity": 0, "pitch": 62, "instrument": 24, "track": 0, "qtime": 15, "bar": 0, "isDrum": false}, {"time": 15, "velocity": 108, "pitch": 60, "instrument": 24, "track": 0, "qtime": 15, "bar": 0, "isDrum": false}, {"time": 15, "velocity": 108, "pitch": 64, "instrument": 24, "track": 0, "qtime": 15, "bar": 0, "isDrum": false}, {"time": 21, "velocity": 0, "pitch": 60, "instrument": 24, "track": 0, "qtime": 21, "bar": 0, "isDrum": false}, {"time": 21, "velocity": 0, "pitch": 64, "instrument": 24, "track": 0, "qtime": 21, "bar": 0, "isDrum": false}, {"time": 21, "velocity": 108, "pitch": 59, "instrument": 24, "track": 0, "qtime": 21, "bar": 0, "isDrum": false}, {"time": 21, "velocity": 108, "pitch": 62, "instrument": 24, "track": 0, "qtime": 21, "bar": 0, "isDrum": false}, {"time": 24, "velocity": 0, "pitch": 59, "instrument": 24, "track": 0, "qtime": 24, "bar": 0, "isDrum": false}, {"time": 24, "velocity": 0, "pitch": 62, "instrument": 24, "track": 0, "qtime": 24, "bar": 0, "isDrum": false}, {"time": 24, "velocity": 108, "pitch": 59, "instrument": 24, "track": 0, "qtime": 24, "bar": 0, "isDrum": false}, {"time": 24, "velocity": 108, "pitch": 62, "instrument": 24, "track": 0, "qtime": 24, "bar": 0, "isDrum": false}, {"time": 33, "velocity": 0, "pitch": 59, "instrument": 24, "track": 0, "qtime": 33, "bar": 0, "isDrum": false}, {"time": 33, "velocity": 0, "pitch": 62, "instrument": 24, "track": 0, "qtime": 33, "bar": 0, "isDrum": false}, {"time": 33, "velocity": 108, "pitch": 57, "instrument": 24, "track": 0, "qtime": 33, "bar": 0, "isDrum": false}, {"time": 33, "velocity": 108, "pitch": 60, "instrument": 24, "track": 0, "qtime": 33, "bar": 0, "isDrum": false}, {"time": 39, "velocity": 0, "pitch": 57, "instrument": 24, "track": 0, "qtime": 39, "bar": 0, "isDrum": false}, {"time": 39, "velocity": 0, "pitch": 60, "instrument": 24, "track": 0, "qtime": 39, "bar": 0, "isDrum": false}, {"time": 39, "velocity": 108, "pitch": 55, "instrument": 24, "track": 0, "qtime": 39, "bar": 0, "isDrum": false}, {"time": 39, "velocity": 108, "pitch": 59, "instrument": 24, "track": 0, "qtime": 39, "bar": 0, "isDrum": false}, {"time": 45, "velocity": 0, "pitch": 55, "instrument": 24, "track": 0, "qtime": 45, "bar": 0, "isDrum": false}, {"time": 45, "velocity": 0, "pitch": 59, "instrument": 24, "track": 0, "qtime": 45, "bar": 0, "isDrum": false}, {"time": 45, "velocity": 108, "pitch": 57, "instrument": 24, "track": 0, "qtime": 45, "bar": 0, "isDrum": false}, {"time": 45, "velocity": 108, "pitch": 60, "instrument": 24, "track": 0, "qtime": 45, "bar": 0, "isDrum": false}, {"time": 58, "velocity": 0, "pitch": 57, "instrument": 24, "track": 0, "qtime": 10, "bar": 1, "isDrum": false}, {"time": 58, "velocity": 0, "pitch": 60, "instrument": 24, "track": 0, "qtime": 10, "bar": 1, "isDrum": false}, {"time": 59, "velocity": 108, "pitch": 59, "instrument": 24, "track": 0, "qtime": 11, "bar": 1, "isDrum": false}, {"time": 60, "velocity": 0, "pitch": 59, "instrument": 24, "track": 0, "qtime": 12, "bar": 1, "isDrum": false}, {"time": 65, "velocity": 108, "pitch": 60, "instrument": 24, "track": 0, "qtime": 17, "bar": 1, "isDrum": false}, {"time": 67, "velocity": 0, "pitch": 60, "instrument": 24, "track": 0, "qtime": 19, "bar": 1, "isDrum": false}, {"time": 68, "velocity": 108, "pitch": 59, "instrument": 24, "track": 0, "qtime": 20, "bar": 1, "isDrum": false}, {"time": 70, "velocity": 0, "pitch": 59, "instrument": 24, "track": 0, "qtime": 22, "bar": 1, "isDrum": false}, {"time": 71, "velocity": 108, "pitch": 55, "instrument": 24, "track": 0, "qtime": 23, "bar": 1, "isDrum": false}, {"time": 72, "velocity": 0, "pitch": 55, "instrument": 24, "track": 0, "qtime": 24, "bar": 1, "isDrum": false}, {"time": 72, "velocity": 108, "pitch": 60, "instrument": 24, "track": 0, "qtime": 24, "bar": 1, "isDrum": false}, {"time": 73, "velocity": 0, "pitch": 60, "instrument": 24, "track": 0, "qtime": 25, "bar": 1, "isDrum": false}, {"time": 74, "velocity": 108, "pitch": 64, "instrument": 24, "track": 0, "qtime": 26, "bar": 1, "isDrum": false}, {"time": 94, "velocity": 0, "pitch": 64, "instrument": 24, "track": 0, "qtime": 46, "bar": 1, "isDrum": false}, {"time": 120, "velocity": 108, "pitch": 68, "instrument": 24, "track": 0, "qtime": 24, "bar": 2, "isDrum": false}, {"time": 123, "velocity": 0, "pitch": 68, "instrument": 24, "track": 0, "qtime": 27, "bar": 2, "isDrum": false}, {"time": 123, "velocity": 108, "pitch": 59, "instrument": 24, "track": 0, "qtime": 27, "bar": 2, "isDrum": false}, {"time": 126, "velocity": 0, "pitch": 59, "instrument": 24, "track": 0, "qtime": 30, "bar": 2, "isDrum": false}, {"time": 126, "velocity": 108, "pitch": 64, "instrument": 24, "track": 0, "qtime": 30, "bar": 2, "isDrum": false}, {"time": 130, "velocity": 0, "pitch": 64, "instrument": 24, "track": 0, "qtime": 34, "bar": 2, "isDrum": false}, {"time": 131, "velocity": 108, "pitch": 68, "instrument": 24, "track": 0, "qtime": 35, "bar": 2, "isDrum": false}, {"time": 135, "velocity": 0, "pitch": 68, "instrument": 24, "track": 0, "qtime": 39, "bar": 2, "isDrum": false}, {"time": 135, "velocity": 108, "pitch": 64, "instrument": 24, "track": 0, "qtime": 39, "bar": 2, "isDrum": false}, {"time": 138, "velocity": 0, "pitch": 64, "instrument": 24, "track": 0, "qtime": 42, "bar": 2, "isDrum": false}, {"time": 138, "velocity": 108, "pitch": 57, "instrument": 24, "track": 0, "qtime": 42, "bar": 2, "isDrum": false}, {"time": 144, "velocity": 0, "pitch": 57, "instrument": 24, "track": 0, "qtime": 48, "bar": 2, "isDrum": false}, {"time": 146, "velocity": 108, "pitch": 59, "instrument": 24, "track": 0, "qtime": 2, "bar": 3, "isDrum": false}, {"time": 154, "velocity": 0, "pitch": 59, "instrument": 24, "track": 0, "qtime": 10, "bar": 3, "isDrum": false}, {"time": 155, "velocity": 108, "pitch": 57, "instrument": 24, "track": 0, "qtime": 11, "bar": 3, "isDrum": false}, {"time": 162, "velocity": 0, "pitch": 57, "instrument": 24, "track": 0, "qtime": 18, "bar": 3, "isDrum": false}, {"time": 162, "velocity": 108, "pitch": 56, "instrument": 24, "track": 0, "qtime": 18, "bar": 3, "isDrum": false}, {"time": 168, "velocity": 0, "pitch": 56, "instrument": 24, "track": 0, "qtime": 24, "bar": 3, "isDrum": false}, {"time": 212, "velocity": 108, "pitch": 59, "instrument": 24, "track": 0, "qtime": 20, "bar": 4, "isDrum": false}, {"time": 213, "velocity": 0, "pitch": 59, "instrument": 24, "track": 0, "qtime": 21, "bar": 4, "isDrum": false}, {"time": 213, "velocity": 108, "pitch": 60, "instrument": 24, "track": 0, "qtime": 21, "bar": 4, "isDrum": false}, {"time": 216, "velocity": 0, "pitch": 60, "instrument": 24, "track": 0, "qtime": 24, "bar": 4, "isDrum": false}, {"time": 216, "velocity": 108, "pitch": 62, "instrument": 24, "track": 0, "qtime": 24, "bar": 4, "isDrum": false}, {"time": 219, "velocity": 0, "pitch": 62, "instrument": 24, "track": 0, "qtime": 27, "bar": 4, "isDrum": false}, {"time": 219, "velocity": 108, "pitch": 62, "instrument": 24, "track": 0, "qtime": 27, "bar": 4, "isDrum": false}, {"time": 225, "velocity": 0, "pitch": 62, "instrument": 24, "track": 0, "qtime": 33, "bar": 4, "isDrum": false}, {"time": 225, "velocity": 108, "pitch": 67, "instrument": 24, "track": 0, "qtime": 33, "bar": 4, "isDrum": false}, {"time": 231, "velocity": 0, "pitch": 67, "instrument": 24, "track": 0, "qtime": 39, "bar": 4, "isDrum": false}, {"time": 231, "velocity": 108, "pitch": 67, "instrument": 24, "track": 0, "qtime": 39, "bar": 4, "isDrum": false}, {"time": 237, "velocity": 0, "pitch": 67, "instrument": 24, "track": 0, "qtime": 45, "bar": 4, "isDrum": false}, {"time": 237, "velocity": 108, "pitch": 67, "instrument": 24, "track": 0, "qtime": 45, "bar": 4, "isDrum": false}, {"time": 243, "velocity": 0, "pitch": 67, "instrument": 24, "track": 0, "qtime": 3, "bar": 5, "isDrum": false}, {"time": 243, "velocity": 108, "pitch": 65, "instrument": 24, "track": 0, "qtime": 3, "bar": 5, "isDrum": false}, {"time": 250, "velocity": 0, "pitch": 65, "instrument": 24, "track": 0, "qtime": 10, "bar": 5, "isDrum": false}, {"time": 251, "velocity": 108, "pitch": 64, "instrument": 24, "track": 0, "qtime": 11, "bar": 5, "isDrum": false}, {"time": 256, "velocity": 0, "pitch": 64, "instrument": 24, "track": 0, "qtime": 16, "bar": 5, "isDrum": false}, {"time": 257, "velocity": 108, "pitch": 62, "instrument": 24, "track": 0, "qtime": 17, "bar": 5, "isDrum": false}, {"time": 262, "velocity": 0, "pitch": 62, "instrument": 24, "track": 0, "qtime": 22, "bar": 5, "isDrum": false}, {"time": 263, "velocity": 108, "pitch": 64, "instrument": 24, "track": 0, "qtime": 23, "bar": 5, "isDrum": false}, {"time": 274, "velocity": 0, "pitch": 64, "instrument": 24, "track": 0, "qtime": 34, "bar": 5, "isDrum": false}, {"time": 282, "velocity": 108, "pitch": 57, "instrument": 24, "track": 0, "qtime": 42, "bar": 5, "isDrum": false}, {"time": 285, "velocity": 0, "pitch": 57, "instrument": 24, "track": 0, "qtime": 45, "bar": 5, "isDrum": false}, {"time": 285, "velocity": 108, "pitch": 55, "instrument": 24, "track": 0, "qtime": 45, "bar": 5, "isDrum": false}, {"time": 288, "velocity": 0, "pitch": 55, "instrument": 24, "track": 0, "qtime": 48, "bar": 5, "isDrum": false}, {"time": 288, "velocity": 108, "pitch": 57, "instrument": 24, "track": 0, "qtime": 0, "bar": 6, "isDrum": false}, {"time": 309, "velocity": 0, "pitch": 57, "instrument": 24, "track": 0, "qtime": 21, "bar": 6, "isDrum": false}, {"time": 377, "velocity": 108, "pitch": 57, "instrument": 24, "track": 0, "qtime": 41, "bar": 7, "isDrum": false}, {"time": 381, "velocity": 0, "pitch": 57, "instrument": 24, "track": 0, "qtime": 45, "bar": 7, "isDrum": false}, {"time": 381, "velocity": 108, "pitch": 60, "instrument": 24, "track": 0, "qtime": 45, "bar": 7, "isDrum": false}, {"time": 384, "velocity": 0, "pitch": 60, "instrument": 24, "track": 0, "qtime": 48, "bar": 7, "isDrum": false}, {"time": 0, "velocity": 108, "pitch": 35, "instrument": 0, "track": 1, "qtime": 0, "bar": 0, "isDrum": true}, {"time": 0, "velocity": 108, "pitch": 54, "instrument": 0, "track": 1, "qtime": 0, "bar": 0, "isDrum": true}, {"time": 0, "velocity": 108, "pitch": 69, "instrument": 0, "track": 1, "qtime": 0, "bar": 0, "isDrum": true}, {"time": 3, "velocity": 0, "pitch": 35, "instrument": 0, "track": 1, "qtime": 3, "bar": 0, "isDrum": true}, {"time": 3, "velocity": 0, "pitch": 54, "instrument": 0, "track": 1, "qtime": 3, "bar": 0, "isDrum": true}, {"time": 3, "velocity": 0, "pitch": 69, "instrument": 0, "track": 1, "qtime": 3, "bar": 0, "isDrum": true}, {"time": 3, "velocity": 108, "pitch": 54, "instrument": 0, "track": 1, "qtime": 3, "bar": 0, "isDrum": true}, {"time": 3, "velocity": 108, "pitch": 60, "instrument": 0, "track": 1, "qtime": 3, "bar": 0, "isDrum": true}, {"time": 6, "velocity": 0, "pitch": 54, "instrument": 0, "track": 1, "qtime": 6, "bar": 0, "isDrum": true}, {"time": 6, "velocity": 0, "pitch": 60, "instrument": 0, "track": 1, "qtime": 6, "bar": 0, "isDrum": true}, {"time": 6, "velocity": 108, "pitch": 54, "instrument": 0, "track": 1, "qtime": 6, "bar": 0, "isDrum": true}, {"time": 6, "velocity": 108, "pitch": 61, "instrument": 0, "track": 1, "qtime": 6, "bar": 0, "isDrum": true}, {"time": 6, "velocity": 108, "pitch": 82, "instrument": 0, "track": 1, "qtime": 6, "bar": 0, "isDrum": true}, {"time": 9, "velocity": 0, "pitch": 54, "instrument": 0, "track": 1, "qtime": 9, "bar": 0, "isDrum": true}, {"time": 9, "velocity": 0, "pitch": 61, "instrument": 0, "track": 1, "qtime": 9, "bar": 0, "isDrum": true}, {"time": 9, "velocity": 0, "pitch": 82, "instrument": 0, "track": 1, "qtime": 9, "bar": 0, "isDrum": true}, {"time": 9, "velocity": 108, "pitch": 35, "instrument": 0, "track": 1, "qtime": 9, "bar": 0, "isDrum": true}, {"time": 9, "velocity": 108, "pitch": 54, "instrument": 0, "track": 1, "qtime": 9, "bar": 0, "isDrum": true}, {"time": 9, "velocity": 108, "pitch": 63, "instrument": 0, "track": 1, "qtime": 9, "bar": 0, "isDrum": true}, {"time": 10, "velocity": 0, "pitch": 63, "instrument": 0, "track": 1, "qtime": 10, "bar": 0, "isDrum": true}, {"time": 11, "velocity": 108, "pitch": 69, "instrument": 0, "track": 1, "qtime": 11, "bar": 0, "isDrum": true}, {"time": 12, "velocity": 0, "pitch": 35, "instrument": 0, "track": 1, "qtime": 12, "bar": 0, "isDrum": true}, {"time": 12, "velocity": 0, "pitch": 54, "instrument": 0, "track": 1, "qtime": 12, "bar": 0, "isDrum": true}, {"time": 12, "velocity": 0, "pitch": 69, "instrument": 0, "track": 1, "qtime": 12, "bar": 0, "isDrum": true}, {"time": 12, "velocity": 108, "pitch": 39, "instrument": 0, "track": 1, "qtime": 12, "bar": 0, "isDrum": true}, {"time": 12, "velocity": 108, "pitch": 40, "instrument": 0, "track": 1, "qtime": 12, "bar": 0, "isDrum": true}, {"time": 12, "velocity": 108, "pitch": 54, "instrument": 0, "track": 1, "qtime": 12, "bar": 0, "isDrum": true}, {"time": 12, "velocity": 108, "pitch": 63, "instrument": 0, "track": 1, "qtime": 12, "bar": 0, "isDrum": true}, {"time": 12, "velocity": 108, "pitch": 69, "instrument": 0, "track": 1, "qtime": 12, "bar": 0, "isDrum": true}, {"time": 15, "velocity": 0, "pitch": 39, "instrument": 0, "track": 1, "qtime": 15, "bar": 0, "isDrum": true}, {"time": 15, "velocity": 0, "pitch": 40, "instrument": 0, "track": 1, "qtime": 15, "bar": 0, "isDrum": true}, {"time": 15, "velocity": 0, "pitch": 54, "instrument": 0, "track": 1, "qtime": 15, "bar": 0, "isDrum": true}, {"time": 15, "velocity": 0, "pitch": 63, "instrument": 0, "track": 1, "qtime": 15, "bar": 0, "isDrum": true}, {"time": 15, "velocity": 0, "pitch": 69, "instrument": 0, "track": 1, "qtime": 15, "bar": 0, "isDrum": true}, {"time": 15, "velocity": 108, "pitch": 54, "instrument": 0, "track": 1, "qtime": 15, "bar": 0, "isDrum": true}, {"time": 15, "velocity": 108, "pitch": 61, "instrument": 0, "track": 1, "qtime": 15, "bar": 0, "isDrum": true}, {"time": 18, "velocity": 0, "pitch": 54, "instrument": 0, "track": 1, "qtime": 18, "bar": 0, "isDrum": true}, {"time": 18, "velocity": 0, "pitch": 61, "instrument": 0, "track": 1, "qtime": 18, "bar": 0, "isDrum": true}, {"time": 18, "velocity": 108, "pitch": 35, "instrument": 0, "track": 1, "qtime": 18, "bar": 0, "isDrum": true}, {"time": 18, "velocity": 108, "pitch": 54, "instrument": 0, "track": 1, "qtime": 18, "bar": 0, "isDrum": true}, {"time": 18, "velocity": 108, "pitch": 61, "instrument": 0, "track": 1, "qtime": 18, "bar": 0, "isDrum": true}, {"time": 18, "velocity": 108, "pitch": 82, "instrument": 0, "track": 1, "qtime": 18, "bar": 0, "isDrum": true}, {"time": 21, "velocity": 0, "pitch": 35, "instrument": 0, "track": 1, "qtime": 21, "bar": 0, "isDrum": true}, {"time": 21, "velocity": 0, "pitch": 54, "instrument": 0, "track": 1, "qtime": 21, "bar": 0, "isDrum": true}, {"time": 21, "velocity": 0, "pitch": 61, "instrument": 0, "track": 1, "qtime": 21, "bar": 0, "isDrum": true}, {"time": 21, "velocity": 0, "pitch": 82, "instrument": 0, "track": 1, "qtime": 21, "bar": 0, "isDrum": true}, {"time": 21, "velocity": 108, "pitch": 54, "instrument": 0, "track": 1, "qtime": 21, "bar": 0, "isDrum": true}, {"time": 21, "velocity": 108, "pitch": 69, "instrument": 0, "track": 1, "qtime": 21, "bar": 0, "isDrum": true}, {"time": 24, "velocity": 0, "pitch": 54, "instrument": 0, "track": 1, "qtime": 24, "bar": 0, "isDrum": true}, {"time": 24, "velocity": 0, "pitch": 69, "instrument": 0, "track": 1, "qtime": 24, "bar": 0, "isDrum": true}, {"time": 24, "velocity": 108, "pitch": 35, "instrument": 0, "track": 1, "qtime": 24, "bar": 0, "isDrum": true}, {"time": 24, "velocity": 108, "pitch": 54, "instrument": 0, "track": 1, "qtime": 24, "bar": 0, "isDrum": true}, {"time": 24, "velocity": 108, "pitch": 69, "instrument": 0, "track": 1, "qtime": 24, "bar": 0, "isDrum": true}, {"time": 27, "velocity": 0, "pitch": 35, "instrument": 0, "track": 1, "qtime": 27, "bar": 0, "isDrum": true}, {"time": 27, "velocity": 0, "pitch": 54, "instrument": 0, "track": 1, "qtime": 27, "bar": 0, "isDrum": true}, {"time": 27, "velocity": 108, "pitch": 54, "instrument": 0, "track": 1, "qtime": 27, "bar": 0, "isDrum": true}, {"time": 30, "velocity": 0, "pitch": 54, "instrument": 0, "track": 1, "qtime": 30, "bar": 0, "isDrum": true}, {"time": 30, "velocity": 0, "pitch": 69, "instrument": 0, "track": 1, "qtime": 30, "bar": 0, "isDrum": true}, {"time": 30, "velocity": 108, "pitch": 54, "instrument": 0, "track": 1, "qtime": 30, "bar": 0, "isDrum": true}, {"time": 30, "velocity": 108, "pitch": 82, "instrument": 0, "track": 1, "qtime": 30, "bar": 0, "isDrum": true}, {"time": 33, "velocity": 0, "pitch": 54, "instrument": 0, "track": 1, "qtime": 33, "bar": 0, "isDrum": true}, {"time": 33, "velocity": 0, "pitch": 82, "instrument": 0, "track": 1, "qtime": 33, "bar": 0, "isDrum": true}, {"time": 33, "velocity": 108, "pitch": 35, "instrument": 0, "track": 1, "qtime": 33, "bar": 0, "isDrum": true}, {"time": 33, "velocity": 108, "pitch": 54, "instrument": 0, "track": 1, "qtime": 33, "bar": 0, "isDrum": true}, {"time": 33, "velocity": 108, "pitch": 69, "instrument": 0, "track": 1, "qtime": 33, "bar": 0, "isDrum": true}, {"time": 36, "velocity": 0, "pitch": 35, "instrument": 0, "track": 1, "qtime": 36, "bar": 0, "isDrum": true}, {"time": 36, "velocity": 0, "pitch": 54, "instrument": 0, "track": 1, "qtime": 36, "bar": 0, "isDrum": true}, {"time": 36, "velocity": 0, "pitch": 69, "instrument": 0, "track": 1, "qtime": 36, "bar": 0, "isDrum": true}, {"time": 36, "velocity": 108, "pitch": 39, "instrument": 0, "track": 1, "qtime": 36, "bar": 0, "isDrum": true}, {"time": 36, "velocity": 108, "pitch": 40, "instrument": 0, "track": 1, "qtime": 36, "bar": 0, "isDrum": true}, {"time": 36, "velocity": 108, "pitch": 54, "instrument": 0, "track": 1, "qtime": 36, "bar": 0, "isDrum": true}, {"time": 36, "velocity": 108, "pitch": 69, "instrument": 0, "track": 1, "qtime": 36, "bar": 0, "isDrum": true}, {"time": 39, "velocity": 0, "pitch": 39, "instrument": 0, "track": 1, "qtime": 39, "bar": 0, "isDrum": true}, {"time": 39, "velocity": 0, "pitch": 40, "instrument": 0, "track": 1, "qtime": 39, "bar": 0, "isDrum": true}, {"time": 39, "velocity": 0, "pitch": 54, "instrument": 0, "track": 1, "qtime": 39, "bar": 0, "isDrum": true}, {"time": 39, "velocity": 108, "pitch": 54, "instrument": 0, "track": 1, "qtime": 39, "bar": 0, "isDrum": true}, {"time": 42, "velocity": 0, "pitch": 54, "instrument": 0, "track": 1, "qtime": 42, "bar": 0, "isDrum": true}, {"time": 42, "velocity": 0, "pitch": 69, "instrument": 0, "track": 1, "qtime": 42, "bar": 0, "isDrum": true}, {"time": 42, "velocity": 108, "pitch": 35, "instrument": 0, "track": 1, "qtime": 42, "bar": 0, "isDrum": true}, {"time": 42, "velocity": 108, "pitch": 54, "instrument": 0, "track": 1, "qtime": 42, "bar": 0, "isDrum": true}, {"time": 42, "velocity": 108, "pitch": 82, "instrument": 0, "track": 1, "qtime": 42, "bar": 0, "isDrum": true}, {"time": 45, "velocity": 0, "pitch": 35, "instrument": 0, "track": 1, "qtime": 45, "bar": 0, "isDrum": true}, {"time": 45, "velocity": 0, "pitch": 54, "instrument": 0, "track": 1, "qtime": 45, "bar": 0, "isDrum": true}, {"time": 45, "velocity": 108, "pitch": 54, "instrument": 0, "track": 1, "qtime": 45, "bar": 0, "isDrum": true}, {"time": 46, "velocity": 0, "pitch": 82, "instrument": 0, "track": 1, "qtime": 46, "bar": 0, "isDrum": true}, {"time": 47, "velocity": 108, "pitch": 69, "instrument": 0, "track": 1, "qtime": 47, "bar": 0, "isDrum": true}, {"time": 48, "velocity": 0, "pitch": 54, "instrument": 0, "track": 1, "qtime": 48, "bar": 0, "isDrum": true}, {"time": 48, "velocity": 0, "pitch": 69, "instrument": 0, "track": 1, "qtime": 48, "bar": 0, "isDrum": true}, {"time": 48, "velocity": 108, "pitch": 35, "instrument": 0, "track": 1, "qtime": 0, "bar": 1, "isDrum": true}, {"time": 48, "velocity": 108, "pitch": 54, "instrument": 0, "track": 1, "qtime": 0, "bar": 1, "isDrum": true}, {"time": 48, "velocity": 108, "pitch": 69, "instrument": 0, "track": 1, "qtime": 0, "bar": 1, "isDrum": true}, {"time": 51, "velocity": 0, "pitch": 35, "instrument": 0, "track": 1, "qtime": 3, "bar": 1, "isDrum": true}, {"time": 51, "velocity": 0, "pitch": 54, "instrument": 0, "track": 1, "qtime": 3, "bar": 1, "isDrum": true}, {"time": 51, "velocity": 108, "pitch": 54, "instrument": 0, "track": 1, "qtime": 3, "bar": 1, "isDrum": true}, {"time": 54, "velocity": 0, "pitch": 54, "instrument": 0, "track": 1, "qtime": 6, "bar": 1, "isDrum": true}, {"time": 54, "velocity": 0, "pitch": 69, "instrument": 0, "track": 1, "qtime": 6, "bar": 1, "isDrum": true}, {"time": 54, "velocity": 108, "pitch": 54, "instrument": 0, "track": 1, "qtime": 6, "bar": 1, "isDrum": true}, {"time": 54, "velocity": 108, "pitch": 61, "instrument": 0, "track": 1, "qtime": 6, "bar": 1, "isDrum": true}, {"time": 54, "velocity": 108, "pitch": 82, "instrument": 0, "track": 1, "qtime": 6, "bar": 1, "isDrum": true}, {"time": 57, "velocity": 0, "pitch": 54, "instrument": 0, "track": 1, "qtime": 9, "bar": 1, "isDrum": true}, {"time": 57, "velocity": 0, "pitch": 61, "instrument": 0, "track": 1, "qtime": 9, "bar": 1, "isDrum": true}, {"time": 57, "velocity": 0, "pitch": 82, "instrument": 0, "track": 1, "qtime": 9, "bar": 1, "isDrum": true}, {"time": 57, "velocity": 108, "pitch": 35, "instrument": 0, "track": 1, "qtime": 9, "bar": 1, "isDrum": true}, {"time": 57, "velocity": 108, "pitch": 54, "instrument": 0, "track": 1, "qtime": 9, "bar": 1, "isDrum": true}, {"time": 57, "velocity": 108, "pitch": 63, "instrument": 0, "track": 1, "qtime": 9, "bar": 1, "isDrum": true}, {"time": 58, "velocity": 0, "pitch": 63, "instrument": 0, "track": 1, "qtime": 10, "bar": 1, "isDrum": true}, {"time": 59, "velocity": 108, "pitch": 69, "instrument": 0, "track": 1, "qtime": 11, "bar": 1, "isDrum": true}, {"time": 60, "velocity": 0, "pitch": 35, "instrument": 0, "track": 1, "qtime": 12, "bar": 1, "isDrum": true}, {"time": 60, "velocity": 0, "pitch": 54, "instrument": 0, "track": 1, "qtime": 12, "bar": 1, "isDrum": true}, {"time": 60, "velocity": 0, "pitch": 69, "instrument": 0, "track": 1, "qtime": 12, "bar": 1, "isDrum": true}, {"time": 60, "velocity": 108, "pitch": 39, "instrument": 0, "track": 1, "qtime": 12, "bar": 1, "isDrum": true}, {"time": 60, "velocity": 108, "pitch": 40, "instrument": 0, "track": 1, "qtime": 12, "bar": 1, "isDrum": true}, {"time": 60, "velocity": 108, "pitch": 54, "instrument": 0, "track": 1, "qtime": 12, "bar": 1, "isDrum": true}, {"time": 60, "velocity": 108, "pitch": 63, "instrument": 0, "track": 1, "qtime": 12, "bar": 1, "isDrum": true}, {"time": 60, "velocity": 108, "pitch": 69, "instrument": 0, "track": 1, "qtime": 12, "bar": 1, "isDrum": true}, {"time": 63, "velocity": 0, "pitch": 39, "instrument": 0, "track": 1, "qtime": 15, "bar": 1, "isDrum": true}, {"time": 63, "velocity": 0, "pitch": 40, "instrument": 0, "track": 1, "qtime": 15, "bar": 1, "isDrum": true}, {"time": 63, "velocity": 0, "pitch": 54, "instrument": 0, "track": 1, "qtime": 15, "bar": 1, "isDrum": true}, {"time": 63, "velocity": 0, "pitch": 63, "instrument": 0, "track": 1, "qtime": 15, "bar": 1, "isDrum": true}, {"time": 63, "velocity": 0, "pitch": 69, "instrument": 0, "track": 1, "qtime": 15, "bar": 1, "isDrum": true}, {"time": 63, "velocity": 108, "pitch": 54, "instrument": 0, "track": 1, "qtime": 15, "bar": 1, "isDrum": true}, {"time": 63, "velocity": 108, "pitch": 61, "instrument": 0, "track": 1, "qtime": 15, "bar": 1, "isDrum": true}, {"time": 66, "velocity": 0, "pitch": 54, "instrument": 0, "track": 1, "qtime": 18, "bar": 1, "isDrum": true}, {"time": 66, "velocity": 0, "pitch": 61, "instrument": 0, "track": 1, "qtime": 18, "bar": 1, "isDrum": true}, {"time": 66, "velocity": 108, "pitch": 35, "instrument": 0, "track": 1, "qtime": 18, "bar": 1, "isDrum": true}, {"time": 66, "velocity": 108, "pitch": 54, "instrument": 0, "track": 1, "qtime": 18, "bar": 1, "isDrum": true}, {"time": 66, "velocity": 108, "pitch": 61, "instrument": 0, "track": 1, "qtime": 18, "bar": 1, "isDrum": true}, {"time": 66, "velocity": 108, "pitch": 82, "instrument": 0, "track": 1, "qtime": 18, "bar": 1, "isDrum": true}, {"time": 69, "velocity": 0, "pitch": 35, "instrument": 0, "track": 1, "qtime": 21, "bar": 1, "isDrum": true}, {"time": 69, "velocity": 0, "pitch": 54, "instrument": 0, "track": 1, "qtime": 21, "bar": 1, "isDrum": true}, {"time": 69, "velocity": 0, "pitch": 61, "instrument": 0, "track": 1, "qtime": 21, "bar": 1, "isDrum": true}, {"time": 69, "velocity": 0, "pitch": 82, "instrument": 0, "track": 1, "qtime": 21, "bar": 1, "isDrum": true}, {"time": 69, "velocity": 108, "pitch": 54, "instrument": 0, "track": 1, "qtime": 21, "bar": 1, "isDrum": true}, {"time": 69, "velocity": 108, "pitch": 69, "instrument": 0, "track": 1, "qtime": 21, "bar": 1, "isDrum": true}, {"time": 72, "velocity": 0, "pitch": 54, "instrument": 0, "track": 1, "qtime": 24, "bar": 1, "isDrum": true}, {"time": 72, "velocity": 0, "pitch": 69, "instrument": 0, "track": 1, "qtime": 24, "bar": 1, "isDrum": true}, {"time": 72, "velocity": 108, "pitch": 35, "instrument": 0, "track": 1, "qtime": 24, "bar": 1, "isDrum": true}, {"time": 72, "velocity": 108, "pitch": 54, "instrument": 0, "track": 1, "qtime": 24, "bar": 1, "isDrum": true}, {"time": 72, "velocity": 108, "pitch": 69, "instrument": 0, "track": 1, "qtime": 24, "bar": 1, "isDrum": true}, {"time": 75, "velocity": 0, "pitch": 35, "instrument": 0, "track": 1, "qtime": 27, "bar": 1, "isDrum": true}, {"time": 75, "velocity": 0, "pitch": 54, "instrument": 0, "track": 1, "qtime": 27, "bar": 1, "isDrum": true}, {"time": 75, "velocity": 108, "pitch": 54, "instrument": 0, "track": 1, "qtime": 27, "bar": 1, "isDrum": true}, {"time": 78, "velocity": 0, "pitch": 54, "instrument": 0, "track": 1, "qtime": 30, "bar": 1, "isDrum": true}, {"time": 78, "velocity": 0, "pitch": 69, "instrument": 0, "track": 1, "qtime": 30, "bar": 1, "isDrum": true}, {"time": 78, "velocity": 108, "pitch": 54, "instrument": 0, "track": 1, "qtime": 30, "bar": 1, "isDrum": true}, {"time": 78, "velocity": 108, "pitch": 82, "instrument": 0, "track": 1, "qtime": 30, "bar": 1, "isDrum": true}, {"time": 81, "velocity": 0, "pitch": 54, "instrument": 0, "track": 1, "qtime": 33, "bar": 1, "isDrum": true}, {"time": 81, "velocity": 0, "pitch": 82, "instrument": 0, "track": 1, "qtime": 33, "bar": 1, "isDrum": true}, {"time": 81, "velocity": 108, "pitch": 35, "instrument": 0, "track": 1, "qtime": 33, "bar": 1, "isDrum": true}, {"time": 81, "velocity": 108, "pitch": 54, "instrument": 0, "track": 1, "qtime": 33, "bar": 1, "isDrum": true}, {"time": 81, "velocity": 108, "pitch": 69, "instrument": 0, "track": 1, "qtime": 33, "bar": 1, "isDrum": true}, {"time": 84, "velocity": 0, "pitch": 35, "instrument": 0, "track": 1, "qtime": 36, "bar": 1, "isDrum": true}, {"time": 84, "velocity": 0, "pitch": 54, "instrument": 0, "track": 1, "qtime": 36, "bar": 1, "isDrum": true}, {"time": 84, "velocity": 0, "pitch": 69, "instrument": 0, "track": 1, "qtime": 36, "bar": 1, "isDrum": true}, {"time": 84, "velocity": 108, "pitch": 39, "instrument": 0, "track": 1, "qtime": 36, "bar": 1, "isDrum": true}, {"time": 84, "velocity": 108, "pitch": 40, "instrument": 0, "track": 1, "qtime": 36, "bar": 1, "isDrum": true}, {"time": 84, "velocity": 108, "pitch": 54, "instrument": 0, "track": 1, "qtime": 36, "bar": 1, "isDrum": true}, {"time": 84, "velocity": 108, "pitch": 69, "instrument": 0, "track": 1, "qtime": 36, "bar": 1, "isDrum": true}, {"time": 87, "velocity": 0, "pitch": 39, "instrument": 0, "track": 1, "qtime": 39, "bar": 1, "isDrum": true}, {"time": 87, "velocity": 0, "pitch": 40, "instrument": 0, "track": 1, "qtime": 39, "bar": 1, "isDrum": true}, {"time": 87, "velocity": 0, "pitch": 54, "instrument": 0, "track": 1, "qtime": 39, "bar": 1, "isDrum": true}, {"time": 87, "velocity": 108, "pitch": 54, "instrument": 0, "track": 1, "qtime": 39, "bar": 1, "isDrum": true}, {"time": 90, "velocity": 0, "pitch": 54, "instrument": 0, "track": 1, "qtime": 42, "bar": 1, "isDrum": true}, {"time": 90, "velocity": 0, "pitch": 69, "instrument": 0, "track": 1, "qtime": 42, "bar": 1, "isDrum": true}, {"time": 90, "velocity": 108, "pitch": 35, "instrument": 0, "track": 1, "qtime": 42, "bar": 1, "isDrum": true}, {"time": 90, "velocity": 108, "pitch": 54, "instrument": 0, "track": 1, "qtime": 42, "bar": 1, "isDrum": true}, {"time": 90, "velocity": 108, "pitch": 82, "instrument": 0, "track": 1, "qtime": 42, "bar": 1, "isDrum": true}, {"time": 93, "velocity": 0, "pitch": 35, "instrument": 0, "track": 1, "qtime": 45, "bar": 1, "isDrum": true}, {"time": 93, "velocity": 0, "pitch": 54, "instrument": 0, "track": 1, "qtime": 45, "bar": 1, "isDrum": true}, {"time": 93, "velocity": 108, "pitch": 54, "instrument": 0, "track": 1, "qtime": 45, "bar": 1, "isDrum": true}, {"time": 94, "velocity": 0, "pitch": 82, "instrument": 0, "track": 1, "qtime": 46, "bar": 1, "isDrum": true}, {"time": 95, "velocity": 108, "pitch": 69, "instrument": 0, "track": 1, "qtime": 47, "bar": 1, "isDrum": true}, {"time": 96, "velocity": 0, "pitch": 54, "instrument": 0, "track": 1, "qtime": 48, "bar": 1, "isDrum": true}, {"time": 96, "velocity": 0, "pitch": 69, "instrument": 0, "track": 1, "qtime": 48, "bar": 1, "isDrum": true}, {"time": 96, "velocity": 108, "pitch": 35, "instrument": 0, "track": 1, "qtime": 0, "bar": 2, "isDrum": true}, {"time": 96, "velocity": 108, "pitch": 54, "instrument": 0, "track": 1, "qtime": 0, "bar": 2, "isDrum": true}, {"time": 96, "velocity": 108, "pitch": 69, "instrument": 0, "track": 1, "qtime": 0, "bar": 2, "isDrum": true}, {"time": 99, "velocity": 0, "pitch": 35, "instrument": 0, "track": 1, "qtime": 3, "bar": 2, "isDrum": true}, {"time": 99, "velocity": 0, "pitch": 54, "instrument": 0, "track": 1, "qtime": 3, "bar": 2, "isDrum": true}, {"time": 99, "velocity": 0, "pitch": 69, "instrument": 0, "track": 1, "qtime": 3, "bar": 2, "isDrum": true}, {"time": 99, "velocity": 108, "pitch": 54, "instrument": 0, "track": 1, "qtime": 3, "bar": 2, "isDrum": true}, {"time": 99, "velocity": 108, "pitch": 60, "instrument": 0, "track": 1, "qtime": 3, "bar": 2, "isDrum": true}, {"time": 102, "velocity": 0, "pitch": 54, "instrument": 0, "track": 1, "qtime": 6, "bar": 2, "isDrum": true}, {"time": 102, "velocity": 0, "pitch": 60, "instrument": 0, "track": 1, "qtime": 6, "bar": 2, "isDrum": true}, {"time": 102, "velocity": 108, "pitch": 54, "instrument": 0, "track": 1, "qtime": 6, "bar": 2, "isDrum": true}, {"time": 102, "velocity": 108, "pitch": 61, "instrument": 0, "track": 1, "qtime": 6, "bar": 2, "isDrum": true}, {"time": 102, "velocity": 108, "pitch": 82, "instrument": 0, "track": 1, "qtime": 6, "bar": 2, "isDrum": true}, {"time": 105, "velocity": 0, "pitch": 54, "instrument": 0, "track": 1, "qtime": 9, "bar": 2, "isDrum": true}, {"time": 105, "velocity": 0, "pitch": 61, "instrument": 0, "track": 1, "qtime": 9, "bar": 2, "isDrum": true}, {"time": 105, "velocity": 0, "pitch": 82, "instrument": 0, "track": 1, "qtime": 9, "bar": 2, "isDrum": true}, {"time": 105, "velocity": 108, "pitch": 35, "instrument": 0, "track": 1, "qtime": 9, "bar": 2, "isDrum": true}, {"time": 105, "velocity": 108, "pitch": 54, "instrument": 0, "track": 1, "qtime": 9, "bar": 2, "isDrum": true}, {"time": 105, "velocity": 108, "pitch": 63, "instrument": 0, "track": 1, "qtime": 9, "bar": 2, "isDrum": true}, {"time": 106, "velocity": 0, "pitch": 63, "instrument": 0, "track": 1, "qtime": 10, "bar": 2, "isDrum": true}, {"time": 107, "velocity": 108, "pitch": 69, "instrument": 0, "track": 1, "qtime": 11, "bar": 2, "isDrum": true}, {"time": 108, "velocity": 0, "pitch": 35, "instrument": 0, "track": 1, "qtime": 12, "bar": 2, "isDrum": true}, {"time": 108, "velocity": 0, "pitch": 54, "instrument": 0, "track": 1, "qtime": 12, "bar": 2, "isDrum": true}, {"time": 108, "velocity": 0, "pitch": 69, "instrument": 0, "track": 1, "qtime": 12, "bar": 2, "isDrum": true}, {"time": 108, "velocity": 108, "pitch": 39, "instrument": 0, "track": 1, "qtime": 12, "bar": 2, "isDrum": true}, {"time": 108, "velocity": 108, "pitch": 40, "instrument": 0, "track": 1, "qtime": 12, "bar": 2, "isDrum": true}, {"time": 108, "velocity": 108, "pitch": 54, "instrument": 0, "track": 1, "qtime": 12, "bar": 2, "isDrum": true}, {"time": 108, "velocity": 108, "pitch": 63, "instrument": 0, "track": 1, "qtime": 12, "bar": 2, "isDrum": true}, {"time": 108, "velocity": 108, "pitch": 69, "instrument": 0, "track": 1, "qtime": 12, "bar": 2, "isDrum": true}, {"time": 111, "velocity": 0, "pitch": 39, "instrument": 0, "track": 1, "qtime": 15, "bar": 2, "isDrum": true}, {"time": 111, "velocity": 0, "pitch": 40, "instrument": 0, "track": 1, "qtime": 15, "bar": 2, "isDrum": true}, {"time": 111, "velocity": 0, "pitch": 54, "instrument": 0, "track": 1, "qtime": 15, "bar": 2, "isDrum": true}, {"time": 111, "velocity": 0, "pitch": 63, "instrument": 0, "track": 1, "qtime": 15, "bar": 2, "isDrum": true}, {"time": 111, "velocity": 0, "pitch": 69, "instrument": 0, "track": 1, "qtime": 15, "bar": 2, "isDrum": true}, {"time": 111, "velocity": 108, "pitch": 54, "instrument": 0, "track": 1, "qtime": 15, "bar": 2, "isDrum": true}, {"time": 111, "velocity": 108, "pitch": 61, "instrument": 0, "track": 1, "qtime": 15, "bar": 2, "isDrum": true}, {"time": 114, "velocity": 0, "pitch": 54, "instrument": 0, "track": 1, "qtime": 18, "bar": 2, "isDrum": true}, {"time": 114, "velocity": 0, "pitch": 61, "instrument": 0, "track": 1, "qtime": 18, "bar": 2, "isDrum": true}, {"time": 114, "velocity": 108, "pitch": 35, "instrument": 0, "track": 1, "qtime": 18, "bar": 2, "isDrum": true}, {"time": 114, "velocity": 108, "pitch": 54, "instrument": 0, "track": 1, "qtime": 18, "bar": 2, "isDrum": true}, {"time": 114, "velocity": 108, "pitch": 61, "instrument": 0, "track": 1, "qtime": 18, "bar": 2, "isDrum": true}, {"time": 114, "velocity": 108, "pitch": 82, "instrument": 0, "track": 1, "qtime": 18, "bar": 2, "isDrum": true}, {"time": 117, "velocity": 0, "pitch": 35, "instrument": 0, "track": 1, "qtime": 21, "bar": 2, "isDrum": true}, {"time": 117, "velocity": 0, "pitch": 54, "instrument": 0, "track": 1, "qtime": 21, "bar": 2, "isDrum": true}, {"time": 117, "velocity": 0, "pitch": 61, "instrument": 0, "track": 1, "qtime": 21, "bar": 2, "isDrum": true}, {"time": 117, "velocity": 0, "pitch": 82, "instrument": 0, "track": 1, "qtime": 21, "bar": 2, "isDrum": true}, {"time": 117, "velocity": 108, "pitch": 54, "instrument": 0, "track": 1, "qtime": 21, "bar": 2, "isDrum": true}, {"time": 117, "velocity": 108, "pitch": 69, "instrument": 0, "track": 1, "qtime": 21, "bar": 2, "isDrum": true}, {"time": 120, "velocity": 0, "pitch": 54, "instrument": 0, "track": 1, "qtime": 24, "bar": 2, "isDrum": true}, {"time": 120, "velocity": 0, "pitch": 69, "instrument": 0, "track": 1, "qtime": 24, "bar": 2, "isDrum": true}, {"time": 120, "velocity": 108, "pitch": 35, "instrument": 0, "track": 1, "qtime": 24, "bar": 2, "isDrum": true}, {"time": 120, "velocity": 108, "pitch": 54, "instrument": 0, "track": 1, "qtime": 24, "bar": 2, "isDrum": true}, {"time": 120, "velocity": 108, "pitch": 69, "instrument": 0, "track": 1, "qtime": 24, "bar": 2, "isDrum": true}, {"time": 123, "velocity": 0, "pitch": 35, "instrument": 0, "track": 1, "qtime": 27, "bar": 2, "isDrum": true}, {"time": 123, "velocity": 0, "pitch": 54, "instrument": 0, "track": 1, "qtime": 27, "bar": 2, "isDrum": true}, {"time": 123, "velocity": 108, "pitch": 54, "instrument": 0, "track": 1, "qtime": 27, "bar": 2, "isDrum": true}, {"time": 126, "velocity": 0, "pitch": 54, "instrument": 0, "track": 1, "qtime": 30, "bar": 2, "isDrum": true}, {"time": 126, "velocity": 0, "pitch": 69, "instrument": 0, "track": 1, "qtime": 30, "bar": 2, "isDrum": true}, {"time": 126, "velocity": 108, "pitch": 54, "instrument": 0, "track": 1, "qtime": 30, "bar": 2, "isDrum": true}, {"time": 126, "velocity": 108, "pitch": 82, "instrument": 0, "track": 1, "qtime": 30, "bar": 2, "isDrum": true}, {"time": 129, "velocity": 0, "pitch": 54, "instrument": 0, "track": 1, "qtime": 33, "bar": 2, "isDrum": true}, {"time": 129, "velocity": 0, "pitch": 82, "instrument": 0, "track": 1, "qtime": 33, "bar": 2, "isDrum": true}, {"time": 129, "velocity": 108, "pitch": 35, "instrument": 0, "track": 1, "qtime": 33, "bar": 2, "isDrum": true}, {"time": 129, "velocity": 108, "pitch": 54, "instrument": 0, "track": 1, "qtime": 33, "bar": 2, "isDrum": true}, {"time": 129, "velocity": 108, "pitch": 69, "instrument": 0, "track": 1, "qtime": 33, "bar": 2, "isDrum": true}, {"time": 132, "velocity": 0, "pitch": 35, "instrument": 0, "track": 1, "qtime": 36, "bar": 2, "isDrum": true}, {"time": 132, "velocity": 0, "pitch": 54, "instrument": 0, "track": 1, "qtime": 36, "bar": 2, "isDrum": true}, {"time": 132, "velocity": 0, "pitch": 69, "instrument": 0, "track": 1, "qtime": 36, "bar": 2, "isDrum": true}, {"time": 132, "velocity": 108, "pitch": 39, "instrument": 0, "track": 1, "qtime": 36, "bar": 2, "isDrum": true}, {"time": 132, "velocity": 108, "pitch": 40, "instrument": 0, "track": 1, "qtime": 36, "bar": 2, "isDrum": true}, {"time": 132, "velocity": 108, "pitch": 54, "instrument": 0, "track": 1, "qtime": 36, "bar": 2, "isDrum": true}, {"time": 132, "velocity": 108, "pitch": 69, "instrument": 0, "track": 1, "qtime": 36, "bar": 2, "isDrum": true}, {"time": 135, "velocity": 0, "pitch": 39, "instrument": 0, "track": 1, "qtime": 39, "bar": 2, "isDrum": true}, {"time": 135, "velocity": 0, "pitch": 40, "instrument": 0, "track": 1, "qtime": 39, "bar": 2, "isDrum": true}, {"time": 135, "velocity": 0, "pitch": 54, "instrument": 0, "track": 1, "qtime": 39, "bar": 2, "isDrum": true}, {"time": 135, "velocity": 108, "pitch": 54, "instrument": 0, "track": 1, "qtime": 39, "bar": 2, "isDrum": true}, {"time": 138, "velocity": 0, "pitch": 54, "instrument": 0, "track": 1, "qtime": 42, "bar": 2, "isDrum": true}, {"time": 138, "velocity": 0, "pitch": 69, "instrument": 0, "track": 1, "qtime": 42, "bar": 2, "isDrum": true}, {"time": 138, "velocity": 108, "pitch": 35, "instrument": 0, "track": 1, "qtime": 42, "bar": 2, "isDrum": true}, {"time": 138, "velocity": 108, "pitch": 54, "instrument": 0, "track": 1, "qtime": 42, "bar": 2, "isDrum": true}, {"time": 138, "velocity": 108, "pitch": 82, "instrument": 0, "track": 1, "qtime": 42, "bar": 2, "isDrum": true}, {"time": 141, "velocity": 0, "pitch": 35, "instrument": 0, "track": 1, "qtime": 45, "bar": 2, "isDrum": true}, {"time": 141, "velocity": 0, "pitch": 54, "instrument": 0, "track": 1, "qtime": 45, "bar": 2, "isDrum": true}, {"time": 141, "velocity": 108, "pitch": 54, "instrument": 0, "track": 1, "qtime": 45, "bar": 2, "isDrum": true}, {"time": 142, "velocity": 0, "pitch": 82, "instrument": 0, "track": 1, "qtime": 46, "bar": 2, "isDrum": true}, {"time": 143, "velocity": 108, "pitch": 69, "instrument": 0, "track": 1, "qtime": 47, "bar": 2, "isDrum": true}, {"time": 144, "velocity": 0, "pitch": 54, "instrument": 0, "track": 1, "qtime": 48, "bar": 2, "isDrum": true}, {"time": 144, "velocity": 0, "pitch": 69, "instrument": 0, "track": 1, "qtime": 48, "bar": 2, "isDrum": true}, {"time": 144, "velocity": 108, "pitch": 38, "instrument": 0, "track": 1, "qtime": 0, "bar": 3, "isDrum": true}, {"time": 144, "velocity": 108, "pitch": 54, "instrument": 0, "track": 1, "qtime": 0, "bar": 3, "isDrum": true}, {"time": 144, "velocity": 108, "pitch": 69, "instrument": 0, "track": 1, "qtime": 0, "bar": 3, "isDrum": true}, {"time": 147, "velocity": 0, "pitch": 38, "instrument": 0, "track": 1, "qtime": 3, "bar": 3, "isDrum": true}, {"time": 147, "velocity": 0, "pitch": 54, "instrument": 0, "track": 1, "qtime": 3, "bar": 3, "isDrum": true}, {"time": 147, "velocity": 108, "pitch": 54, "instrument": 0, "track": 1, "qtime": 3, "bar": 3, "isDrum": true}, {"time": 150, "velocity": 0, "pitch": 54, "instrument": 0, "track": 1, "qtime": 6, "bar": 3, "isDrum": true}, {"time": 150, "velocity": 0, "pitch": 69, "instrument": 0, "track": 1, "qtime": 6, "bar": 3, "isDrum": true}, {"time": 150, "velocity": 108, "pitch": 54, "instrument": 0, "track": 1, "qtime": 6, "bar": 3, "isDrum": true}, {"time": 150, "velocity": 108, "pitch": 61, "instrument": 0, "track": 1, "qtime": 6, "bar": 3, "isDrum": true}, {"time": 150, "velocity": 108, "pitch": 82, "instrument": 0, "track": 1, "qtime": 6, "bar": 3, "isDrum": true}, {"time": 153, "velocity": 0, "pitch": 54, "instrument": 0, "track": 1, "qtime": 9, "bar": 3, "isDrum": true}, {"time": 153, "velocity": 0, "pitch": 61, "instrument": 0, "track": 1, "qtime": 9, "bar": 3, "isDrum": true}, {"time": 153, "velocity": 0, "pitch": 82, "instrument": 0, "track": 1, "qtime": 9, "bar": 3, "isDrum": true}, {"time": 153, "velocity": 108, "pitch": 38, "instrument": 0, "track": 1, "qtime": 9, "bar": 3, "isDrum": true}, {"time": 153, "velocity": 108, "pitch": 54, "instrument": 0, "track": 1, "qtime": 9, "bar": 3, "isDrum": true}, {"time": 153, "velocity": 108, "pitch": 63, "instrument": 0, "track": 1, "qtime": 9, "bar": 3, "isDrum": true}, {"time": 154, "velocity": 0, "pitch": 63, "instrument": 0, "track": 1, "qtime": 10, "bar": 3, "isDrum": true}, {"time": 155, "velocity": 108, "pitch": 69, "instrument": 0, "track": 1, "qtime": 11, "bar": 3, "isDrum": true}, {"time": 156, "velocity": 0, "pitch": 38, "instrument": 0, "track": 1, "qtime": 12, "bar": 3, "isDrum": true}, {"time": 156, "velocity": 0, "pitch": 54, "instrument": 0, "track": 1, "qtime": 12, "bar": 3, "isDrum": true}, {"time": 156, "velocity": 0, "pitch": 69, "instrument": 0, "track": 1, "qtime": 12, "bar": 3, "isDrum": true}, {"time": 156, "velocity": 108, "pitch": 38, "instrument": 0, "track": 1, "qtime": 12, "bar": 3, "isDrum": true}, {"time": 156, "velocity": 108, "pitch": 54, "instrument": 0, "track": 1, "qtime": 12, "bar": 3, "isDrum": true}, {"time": 156, "velocity": 108, "pitch": 63, "instrument": 0, "track": 1, "qtime": 12, "bar": 3, "isDrum": true}, {"time": 156, "velocity": 108, "pitch": 69, "instrument": 0, "track": 1, "qtime": 12, "bar": 3, "isDrum": true}, {"time": 159, "velocity": 0, "pitch": 38, "instrument": 0, "track": 1, "qtime": 15, "bar": 3, "isDrum": true}, {"time": 159, "velocity": 0, "pitch": 54, "instrument": 0, "track": 1, "qtime": 15, "bar": 3, "isDrum": true}, {"time": 159, "velocity": 0, "pitch": 63, "instrument": 0, "track": 1, "qtime": 15, "bar": 3, "isDrum": true}, {"time": 159, "velocity": 0, "pitch": 69, "instrument": 0, "track": 1, "qtime": 15, "bar": 3, "isDrum": true}, {"time": 159, "velocity": 108, "pitch": 54, "instrument": 0, "track": 1, "qtime": 15, "bar": 3, "isDrum": true}, {"time": 159, "velocity": 108, "pitch": 61, "instrument": 0, "track": 1, "qtime": 15, "bar": 3, "isDrum": true}, {"time": 162, "velocity": 0, "pitch": 54, "instrument": 0, "track": 1, "qtime": 18, "bar": 3, "isDrum": true}, {"time": 162, "velocity": 0, "pitch": 61, "instrument": 0, "track": 1, "qtime": 18, "bar": 3, "isDrum": true}, {"time": 162, "velocity": 108, "pitch": 38, "instrument": 0, "track": 1, "qtime": 18, "bar": 3, "isDrum": true}, {"time": 162, "velocity": 108, "pitch": 54, "instrument": 0, "track": 1, "qtime": 18, "bar": 3, "isDrum": true}, {"time": 162, "velocity": 108, "pitch": 61, "instrument": 0, "track": 1, "qtime": 18, "bar": 3, "isDrum": true}, {"time": 162, "velocity": 108, "pitch": 82, "instrument": 0, "track": 1, "qtime": 18, "bar": 3, "isDrum": true}, {"time": 165, "velocity": 0, "pitch": 38, "instrument": 0, "track": 1, "qtime": 21, "bar": 3, "isDrum": true}, {"time": 165, "velocity": 0, "pitch": 54, "instrument": 0, "track": 1, "qtime": 21, "bar": 3, "isDrum": true}, {"time": 165, "velocity": 0, "pitch": 61, "instrument": 0, "track": 1, "qtime": 21, "bar": 3, "isDrum": true}, {"time": 165, "velocity": 0, "pitch": 82, "instrument": 0, "track": 1, "qtime": 21, "bar": 3, "isDrum": true}, {"time": 165, "velocity": 108, "pitch": 38, "instrument": 0, "track": 1, "qtime": 21, "bar": 3, "isDrum": true}, {"time": 165, "velocity": 108, "pitch": 54, "instrument": 0, "track": 1, "qtime": 21, "bar": 3, "isDrum": true}, {"time": 165, "velocity": 108, "pitch": 69, "instrument": 0, "track": 1, "qtime": 21, "bar": 3, "isDrum": true}, {"time": 168, "velocity": 0, "pitch": 38, "instrument": 0, "track": 1, "qtime": 24, "bar": 3, "isDrum": true}, {"time": 168, "velocity": 0, "pitch": 54, "instrument": 0, "track": 1, "qtime": 24, "bar": 3, "isDrum": true}, {"time": 168, "velocity": 0, "pitch": 69, "instrument": 0, "track": 1, "qtime": 24, "bar": 3, "isDrum": true}, {"time": 168, "velocity": 108, "pitch": 35, "instrument": 0, "track": 1, "qtime": 24, "bar": 3, "isDrum": true}, {"time": 168, "velocity": 108, "pitch": 57, "instrument": 0, "track": 1, "qtime": 24, "bar": 3, "isDrum": true}, {"time": 168, "velocity": 108, "pitch": 69, "instrument": 0, "track": 1, "qtime": 24, "bar": 3, "isDrum": true}, {"time": 171, "velocity": 0, "pitch": 35, "instrument": 0, "track": 1, "qtime": 27, "bar": 3, "isDrum": true}, {"time": 171, "velocity": 0, "pitch": 57, "instrument": 0, "track": 1, "qtime": 27, "bar": 3, "isDrum": true}, {"time": 171, "velocity": 108, "pitch": 54, "instrument": 0, "track": 1, "qtime": 27, "bar": 3, "isDrum": true}, {"time": 174, "velocity": 0, "pitch": 54, "instrument": 0, "track": 1, "qtime": 30, "bar": 3, "isDrum": true}, {"time": 174, "velocity": 0, "pitch": 69, "instrument": 0, "track": 1, "qtime": 30, "bar": 3, "isDrum": true}, {"time": 174, "velocity": 108, "pitch": 54, "instrument": 0, "track": 1, "qtime": 30, "bar": 3, "isDrum": true}, {"time": 174, "velocity": 108, "pitch": 59, "instrument": 0, "track": 1, "qtime": 30, "bar": 3, "isDrum": true}, {"time": 174, "velocity": 108, "pitch": 82, "instrument": 0, "track": 1, "qtime": 30, "bar": 3, "isDrum": true}, {"time": 177, "velocity": 0, "pitch": 54, "instrument": 0, "track": 1, "qtime": 33, "bar": 3, "isDrum": true}, {"time": 177, "velocity": 0, "pitch": 59, "instrument": 0, "track": 1, "qtime": 33, "bar": 3, "isDrum": true}, {"time": 177, "velocity": 0, "pitch": 82, "instrument": 0, "track": 1, "qtime": 33, "bar": 3, "isDrum": true}, {"time": 177, "velocity": 108, "pitch": 35, "instrument": 0, "track": 1, "qtime": 33, "bar": 3, "isDrum": true}, {"time": 177, "velocity": 108, "pitch": 54, "instrument": 0, "track": 1, "qtime": 33, "bar": 3, "isDrum": true}, {"time": 177, "velocity": 108, "pitch": 59, "instrument": 0, "track": 1, "qtime": 33, "bar": 3, "isDrum": true}, {"time": 177, "velocity": 108, "pitch": 69, "instrument": 0, "track": 1, "qtime": 33, "bar": 3, "isDrum": true}, {"time": 180, "velocity": 0, "pitch": 35, "instrument": 0, "track": 1, "qtime": 36, "bar": 3, "isDrum": true}, {"time": 180, "velocity": 0, "pitch": 54, "instrument": 0, "track": 1, "qtime": 36, "bar": 3, "isDrum": true}, {"time": 180, "velocity": 0, "pitch": 59, "instrument": 0, "track": 1, "qtime": 36, "bar": 3, "isDrum": true}, {"time": 180, "velocity": 0, "pitch": 69, "instrument": 0, "track": 1, "qtime": 36, "bar": 3, "isDrum": true}, {"time": 180, "velocity": 108, "pitch": 39, "instrument": 0, "track": 1, "qtime": 36, "bar": 3, "isDrum": true}, {"time": 180, "velocity": 108, "pitch": 40, "instrument": 0, "track": 1, "qtime": 36, "bar": 3, "isDrum": true}, {"time": 180, "velocity": 108, "pitch": 54, "instrument": 0, "track": 1, "qtime": 36, "bar": 3, "isDrum": true}, {"time": 180, "velocity": 108, "pitch": 59, "instrument": 0, "track": 1, "qtime": 36, "bar": 3, "isDrum": true}, {"time": 180, "velocity": 108, "pitch": 69, "instrument": 0, "track": 1, "qtime": 36, "bar": 3, "isDrum": true}, {"time": 183, "velocity": 0, "pitch": 39, "instrument": 0, "track": 1, "qtime": 39, "bar": 3, "isDrum": true}, {"time": 183, "velocity": 0, "pitch": 40, "instrument": 0, "track": 1, "qtime": 39, "bar": 3, "isDrum": true}, {"time": 183, "velocity": 0, "pitch": 54, "instrument": 0, "track": 1, "qtime": 39, "bar": 3, "isDrum": true}, {"time": 183, "velocity": 0, "pitch": 59, "instrument": 0, "track": 1, "qtime": 39, "bar": 3, "isDrum": true}, {"time": 183, "velocity": 108, "pitch": 54, "instrument": 0, "track": 1, "qtime": 39, "bar": 3, "isDrum": true}, {"time": 186, "velocity": 0, "pitch": 54, "instrument": 0, "track": 1, "qtime": 42, "bar": 3, "isDrum": true}, {"time": 186, "velocity": 0, "pitch": 69, "instrument": 0, "track": 1, "qtime": 42, "bar": 3, "isDrum": true}, {"time": 186, "velocity": 108, "pitch": 35, "instrument": 0, "track": 1, "qtime": 42, "bar": 3, "isDrum": true}, {"time": 186, "velocity": 108, "pitch": 54, "instrument": 0, "track": 1, "qtime": 42, "bar": 3, "isDrum": true}, {"time": 186, "velocity": 108, "pitch": 59, "instrument": 0, "track": 1, "qtime": 42, "bar": 3, "isDrum": true}, {"time": 186, "velocity": 108, "pitch": 82, "instrument": 0, "track": 1, "qtime": 42, "bar": 3, "isDrum": true}, {"time": 189, "velocity": 0, "pitch": 35, "instrument": 0, "track": 1, "qtime": 45, "bar": 3, "isDrum": true}, {"time": 189, "velocity": 0, "pitch": 54, "instrument": 0, "track": 1, "qtime": 45, "bar": 3, "isDrum": true}, {"time": 189, "velocity": 0, "pitch": 59, "instrument": 0, "track": 1, "qtime": 45, "bar": 3, "isDrum": true}, {"time": 189, "velocity": 108, "pitch": 54, "instrument": 0, "track": 1, "qtime": 45, "bar": 3, "isDrum": true}, {"time": 189, "velocity": 108, "pitch": 59, "instrument": 0, "track": 1, "qtime": 45, "bar": 3, "isDrum": true}, {"time": 190, "velocity": 0, "pitch": 82, "instrument": 0, "track": 1, "qtime": 46, "bar": 3, "isDrum": true}, {"time": 191, "velocity": 108, "pitch": 69, "instrument": 0, "track": 1, "qtime": 47, "bar": 3, "isDrum": true}, {"time": 192, "velocity": 0, "pitch": 54, "instrument": 0, "track": 1, "qtime": 48, "bar": 3, "isDrum": true}, {"time": 192, "velocity": 0, "pitch": 59, "instrument": 0, "track": 1, "qtime": 48, "bar": 3, "isDrum": true}, {"time": 192, "velocity": 0, "pitch": 69, "instrument": 0, "track": 1, "qtime": 48, "bar": 3, "isDrum": true}, {"time": 192, "velocity": 108, "pitch": 35, "instrument": 0, "track": 1, "qtime": 0, "bar": 4, "isDrum": true}, {"time": 192, "velocity": 108, "pitch": 54, "instrument": 0, "track": 1, "qtime": 0, "bar": 4, "isDrum": true}, {"time": 192, "velocity": 108, "pitch": 59, "instrument": 0, "track": 1, "qtime": 0, "bar": 4, "isDrum": true}, {"time": 192, "velocity": 108, "pitch": 69, "instrument": 0, "track": 1, "qtime": 0, "bar": 4, "isDrum": true}, {"time": 195, "velocity": 0, "pitch": 35, "instrument": 0, "track": 1, "qtime": 3, "bar": 4, "isDrum": true}, {"time": 195, "velocity": 0, "pitch": 54, "instrument": 0, "track": 1, "qtime": 3, "bar": 4, "isDrum": true}, {"time": 195, "velocity": 0, "pitch": 59, "instrument": 0, "track": 1, "qtime": 3, "bar": 4, "isDrum": true}, {"time": 195, "velocity": 108, "pitch": 54, "instrument": 0, "track": 1, "qtime": 3, "bar": 4, "isDrum": true}, {"time": 198, "velocity": 0, "pitch": 54, "instrument": 0, "track": 1, "qtime": 6, "bar": 4, "isDrum": true}, {"time": 198, "velocity": 0, "pitch": 69, "instrument": 0, "track": 1, "qtime": 6, "bar": 4, "isDrum": true}, {"time": 198, "velocity": 108, "pitch": 54, "instrument": 0, "track": 1, "qtime": 6, "bar": 4, "isDrum": true}, {"time": 198, "velocity": 108, "pitch": 59, "instrument": 0, "track": 1, "qtime": 6, "bar": 4, "isDrum": true}, {"time": 198, "velocity": 108, "pitch": 82, "instrument": 0, "track": 1, "qtime": 6, "bar": 4, "isDrum": true}, {"time": 201, "velocity": 0, "pitch": 54, "instrument": 0, "track": 1, "qtime": 9, "bar": 4, "isDrum": true}, {"time": 201, "velocity": 0, "pitch": 59, "instrument": 0, "track": 1, "qtime": 9, "bar": 4, "isDrum": true}, {"time": 201, "velocity": 108, "pitch": 35, "instrument": 0, "track": 1, "qtime": 9, "bar": 4, "isDrum": true}, {"time": 201, "velocity": 108, "pitch": 54, "instrument": 0, "track": 1, "qtime": 9, "bar": 4, "isDrum": true}, {"time": 201, "velocity": 108, "pitch": 59, "instrument": 0, "track": 1, "qtime": 9, "bar": 4, "isDrum": true}, {"time": 202, "velocity": 0, "pitch": 82, "instrument": 0, "track": 1, "qtime": 10, "bar": 4, "isDrum": true}, {"time": 203, "velocity": 108, "pitch": 69, "instrument": 0, "track": 1, "qtime": 11, "bar": 4, "isDrum": true}, {"time": 204, "velocity": 0, "pitch": 35, "instrument": 0, "track": 1, "qtime": 12, "bar": 4, "isDrum": true}, {"time": 204, "velocity": 0, "pitch": 54, "instrument": 0, "track": 1, "qtime": 12, "bar": 4, "isDrum": true}, {"time": 204, "velocity": 0, "pitch": 59, "instrument": 0, "track": 1, "qtime": 12, "bar": 4, "isDrum": true}, {"time": 204, "velocity": 0, "pitch": 69, "instrument": 0, "track": 1, "qtime": 12, "bar": 4, "isDrum": true}, {"time": 204, "velocity": 108, "pitch": 39, "instrument": 0, "track": 1, "qtime": 12, "bar": 4, "isDrum": true}, {"time": 204, "velocity": 108, "pitch": 40, "instrument": 0, "track": 1, "qtime": 12, "bar": 4, "isDrum": true}, {"time": 204, "velocity": 108, "pitch": 54, "instrument": 0, "track": 1, "qtime": 12, "bar": 4, "isDrum": true}, {"time": 204, "velocity": 108, "pitch": 59, "instrument": 0, "track": 1, "qtime": 12, "bar": 4, "isDrum": true}, {"time": 204, "velocity": 108, "pitch": 69, "instrument": 0, "track": 1, "qtime": 12, "bar": 4, "isDrum": true}, {"time": 207, "velocity": 0, "pitch": 39, "instrument": 0, "track": 1, "qtime": 15, "bar": 4, "isDrum": true}, {"time": 207, "velocity": 0, "pitch": 40, "instrument": 0, "track": 1, "qtime": 15, "bar": 4, "isDrum": true}, {"time": 207, "velocity": 0, "pitch": 54, "instrument": 0, "track": 1, "qtime": 15, "bar": 4, "isDrum": true}, {"time": 207, "velocity": 0, "pitch": 59, "instrument": 0, "track": 1, "qtime": 15, "bar": 4, "isDrum": true}, {"time": 207, "velocity": 108, "pitch": 54, "instrument": 0, "track": 1, "qtime": 15, "bar": 4, "isDrum": true}, {"time": 210, "velocity": 0, "pitch": 54, "instrument": 0, "track": 1, "qtime": 18, "bar": 4, "isDrum": true}, {"time": 210, "velocity": 0, "pitch": 69, "instrument": 0, "track": 1, "qtime": 18, "bar": 4, "isDrum": true}, {"time": 210, "velocity": 108, "pitch": 35, "instrument": 0, "track": 1, "qtime": 18, "bar": 4, "isDrum": true}, {"time": 210, "velocity": 108, "pitch": 54, "instrument": 0, "track": 1, "qtime": 18, "bar": 4, "isDrum": true}, {"time": 210, "velocity": 108, "pitch": 59, "instrument": 0, "track": 1, "qtime": 18, "bar": 4, "isDrum": true}, {"time": 210, "velocity": 108, "pitch": 82, "instrument": 0, "track": 1, "qtime": 18, "bar": 4, "isDrum": true}, {"time": 213, "velocity": 0, "pitch": 35, "instrument": 0, "track": 1, "qtime": 21, "bar": 4, "isDrum": true}, {"time": 213, "velocity": 0, "pitch": 54, "instrument": 0, "track": 1, "qtime": 21, "bar": 4, "isDrum": true}, {"time": 213, "velocity": 0, "pitch": 59, "instrument": 0, "track": 1, "qtime": 21, "bar": 4, "isDrum": true}, {"time": 213, "velocity": 0, "pitch": 82, "instrument": 0, "track": 1, "qtime": 21, "bar": 4, "isDrum": true}, {"time": 213, "velocity": 108, "pitch": 54, "instrument": 0, "track": 1, "qtime": 21, "bar": 4, "isDrum": true}, {"time": 213, "velocity": 108, "pitch": 59, "instrument": 0, "track": 1, "qtime": 21, "bar": 4, "isDrum": true}, {"time": 213, "velocity": 108, "pitch": 69, "instrument": 0, "track": 1, "qtime": 21, "bar": 4, "isDrum": true}, {"time": 216, "velocity": 0, "pitch": 54, "instrument": 0, "track": 1, "qtime": 24, "bar": 4, "isDrum": true}, {"time": 216, "velocity": 0, "pitch": 59, "instrument": 0, "track": 1, "qtime": 24, "bar": 4, "isDrum": true}, {"time": 216, "velocity": 0, "pitch": 69, "instrument": 0, "track": 1, "qtime": 24, "bar": 4, "isDrum": true}, {"time": 216, "velocity": 108, "pitch": 35, "instrument": 0, "track": 1, "qtime": 24, "bar": 4, "isDrum": true}, {"time": 216, "velocity": 108, "pitch": 54, "instrument": 0, "track": 1, "qtime": 24, "bar": 4, "isDrum": true}, {"time": 216, "velocity": 108, "pitch": 59, "instrument": 0, "track": 1, "qtime": 24, "bar": 4, "isDrum": true}, {"time": 216, "velocity": 108, "pitch": 69, "instrument": 0, "track": 1, "qtime": 24, "bar": 4, "isDrum": true}, {"time": 219, "velocity": 0, "pitch": 35, "instrument": 0, "track": 1, "qtime": 27, "bar": 4, "isDrum": true}, {"time": 219, "velocity": 0, "pitch": 54, "instrument": 0, "track": 1, "qtime": 27, "bar": 4, "isDrum": true}, {"time": 219, "velocity": 0, "pitch": 59, "instrument": 0, "track": 1, "qtime": 27, "bar": 4, "isDrum": true}, {"time": 219, "velocity": 108, "pitch": 54, "instrument": 0, "track": 1, "qtime": 27, "bar": 4, "isDrum": true}, {"time": 222, "velocity": 0, "pitch": 54, "instrument": 0, "track": 1, "qtime": 30, "bar": 4, "isDrum": true}, {"time": 222, "velocity": 0, "pitch": 69, "instrument": 0, "track": 1, "qtime": 30, "bar": 4, "isDrum": true}, {"time": 222, "velocity": 108, "pitch": 54, "instrument": 0, "track": 1, "qtime": 30, "bar": 4, "isDrum": true}, {"time": 222, "velocity": 108, "pitch": 59, "instrument": 0, "track": 1, "qtime": 30, "bar": 4, "isDrum": true}, {"time": 222, "velocity": 108, "pitch": 82, "instrument": 0, "track": 1, "qtime": 30, "bar": 4, "isDrum": true}, {"time": 225, "velocity": 0, "pitch": 54, "instrument": 0, "track": 1, "qtime": 33, "bar": 4, "isDrum": true}, {"time": 225, "velocity": 0, "pitch": 59, "instrument": 0, "track": 1, "qtime": 33, "bar": 4, "isDrum": true}, {"time": 225, "velocity": 0, "pitch": 82, "instrument": 0, "track": 1, "qtime": 33, "bar": 4, "isDrum": true}, {"time": 225, "velocity": 108, "pitch": 35, "instrument": 0, "track": 1, "qtime": 33, "bar": 4, "isDrum": true}, {"time": 225, "velocity": 108, "pitch": 54, "instrument": 0, "track": 1, "qtime": 33, "bar": 4, "isDrum": true}, {"time": 225, "velocity": 108, "pitch": 59, "instrument": 0, "track": 1, "qtime": 33, "bar": 4, "isDrum": true}, {"time": 225, "velocity": 108, "pitch": 69, "instrument": 0, "track": 1, "qtime": 33, "bar": 4, "isDrum": true}, {"time": 228, "velocity": 0, "pitch": 35, "instrument": 0, "track": 1, "qtime": 36, "bar": 4, "isDrum": true}, {"time": 228, "velocity": 0, "pitch": 54, "instrument": 0, "track": 1, "qtime": 36, "bar": 4, "isDrum": true}, {"time": 228, "velocity": 0, "pitch": 59, "instrument": 0, "track": 1, "qtime": 36, "bar": 4, "isDrum": true}, {"time": 228, "velocity": 0, "pitch": 69, "instrument": 0, "track": 1, "qtime": 36, "bar": 4, "isDrum": true}, {"time": 228, "velocity": 108, "pitch": 39, "instrument": 0, "track": 1, "qtime": 36, "bar": 4, "isDrum": true}, {"time": 228, "velocity": 108, "pitch": 40, "instrument": 0, "track": 1, "qtime": 36, "bar": 4, "isDrum": true}, {"time": 228, "velocity": 108, "pitch": 54, "instrument": 0, "track": 1, "qtime": 36, "bar": 4, "isDrum": true}, {"time": 228, "velocity": 108, "pitch": 59, "instrument": 0, "track": 1, "qtime": 36, "bar": 4, "isDrum": true}, {"time": 228, "velocity": 108, "pitch": 69, "instrument": 0, "track": 1, "qtime": 36, "bar": 4, "isDrum": true}, {"time": 231, "velocity": 0, "pitch": 39, "instrument": 0, "track": 1, "qtime": 39, "bar": 4, "isDrum": true}, {"time": 231, "velocity": 0, "pitch": 40, "instrument": 0, "track": 1, "qtime": 39, "bar": 4, "isDrum": true}, {"time": 231, "velocity": 0, "pitch": 54, "instrument": 0, "track": 1, "qtime": 39, "bar": 4, "isDrum": true}, {"time": 231, "velocity": 0, "pitch": 59, "instrument": 0, "track": 1, "qtime": 39, "bar": 4, "isDrum": true}, {"time": 231, "velocity": 108, "pitch": 54, "instrument": 0, "track": 1, "qtime": 39, "bar": 4, "isDrum": true}, {"time": 234, "velocity": 0, "pitch": 54, "instrument": 0, "track": 1, "qtime": 42, "bar": 4, "isDrum": true}, {"time": 234, "velocity": 0, "pitch": 69, "instrument": 0, "track": 1, "qtime": 42, "bar": 4, "isDrum": true}, {"time": 234, "velocity": 108, "pitch": 35, "instrument": 0, "track": 1, "qtime": 42, "bar": 4, "isDrum": true}, {"time": 234, "velocity": 108, "pitch": 54, "instrument": 0, "track": 1, "qtime": 42, "bar": 4, "isDrum": true}, {"time": 234, "velocity": 108, "pitch": 59, "instrument": 0, "track": 1, "qtime": 42, "bar": 4, "isDrum": true}, {"time": 234, "velocity": 108, "pitch": 82, "instrument": 0, "track": 1, "qtime": 42, "bar": 4, "isDrum": true}, {"time": 237, "velocity": 0, "pitch": 35, "instrument": 0, "track": 1, "qtime": 45, "bar": 4, "isDrum": true}, {"time": 237, "velocity": 0, "pitch": 54, "instrument": 0, "track": 1, "qtime": 45, "bar": 4, "isDrum": true}, {"time": 237, "velocity": 0, "pitch": 59, "instrument": 0, "track": 1, "qtime": 45, "bar": 4, "isDrum": true}, {"time": 237, "velocity": 108, "pitch": 54, "instrument": 0, "track": 1, "qtime": 45, "bar": 4, "isDrum": true}, {"time": 237, "velocity": 108, "pitch": 59, "instrument": 0, "track": 1, "qtime": 45, "bar": 4, "isDrum": true}, {"time": 238, "velocity": 0, "pitch": 82, "instrument": 0, "track": 1, "qtime": 46, "bar": 4, "isDrum": true}, {"time": 239, "velocity": 108, "pitch": 69, "instrument": 0, "track": 1, "qtime": 47, "bar": 4, "isDrum": true}, {"time": 240, "velocity": 0, "pitch": 54, "instrument": 0, "track": 1, "qtime": 48, "bar": 4, "isDrum": true}, {"time": 240, "velocity": 0, "pitch": 59, "instrument": 0, "track": 1, "qtime": 48, "bar": 4, "isDrum": true}, {"time": 240, "velocity": 0, "pitch": 69, "instrument": 0, "track": 1, "qtime": 48, "bar": 4, "isDrum": true}, {"time": 240, "velocity": 108, "pitch": 35, "instrument": 0, "track": 1, "qtime": 0, "bar": 5, "isDrum": true}, {"time": 240, "velocity": 108, "pitch": 54, "instrument": 0, "track": 1, "qtime": 0, "bar": 5, "isDrum": true}, {"time": 240, "velocity": 108, "pitch": 59, "instrument": 0, "track": 1, "qtime": 0, "bar": 5, "isDrum": true}, {"time": 240, "velocity": 108, "pitch": 69, "instrument": 0, "track": 1, "qtime": 0, "bar": 5, "isDrum": true}, {"time": 243, "velocity": 0, "pitch": 35, "instrument": 0, "track": 1, "qtime": 3, "bar": 5, "isDrum": true}, {"time": 243, "velocity": 0, "pitch": 54, "instrument": 0, "track": 1, "qtime": 3, "bar": 5, "isDrum": true}, {"time": 243, "velocity": 0, "pitch": 59, "instrument": 0, "track": 1, "qtime": 3, "bar": 5, "isDrum": true}, {"time": 243, "velocity": 108, "pitch": 54, "instrument": 0, "track": 1, "qtime": 3, "bar": 5, "isDrum": true}, {"time": 246, "velocity": 0, "pitch": 54, "instrument": 0, "track": 1, "qtime": 6, "bar": 5, "isDrum": true}, {"time": 246, "velocity": 0, "pitch": 69, "instrument": 0, "track": 1, "qtime": 6, "bar": 5, "isDrum": true}, {"time": 246, "velocity": 108, "pitch": 54, "instrument": 0, "track": 1, "qtime": 6, "bar": 5, "isDrum": true}, {"time": 246, "velocity": 108, "pitch": 59, "instrument": 0, "track": 1, "qtime": 6, "bar": 5, "isDrum": true}, {"time": 246, "velocity": 108, "pitch": 82, "instrument": 0, "track": 1, "qtime": 6, "bar": 5, "isDrum": true}, {"time": 249, "velocity": 0, "pitch": 54, "instrument": 0, "track": 1, "qtime": 9, "bar": 5, "isDrum": true}, {"time": 249, "velocity": 0, "pitch": 59, "instrument": 0, "track": 1, "qtime": 9, "bar": 5, "isDrum": true}, {"time": 249, "velocity": 108, "pitch": 35, "instrument": 0, "track": 1, "qtime": 9, "bar": 5, "isDrum": true}, {"time": 249, "velocity": 108, "pitch": 54, "instrument": 0, "track": 1, "qtime": 9, "bar": 5, "isDrum": true}, {"time": 249, "velocity": 108, "pitch": 59, "instrument": 0, "track": 1, "qtime": 9, "bar": 5, "isDrum": true}, {"time": 250, "velocity": 0, "pitch": 82, "instrument": 0, "track": 1, "qtime": 10, "bar": 5, "isDrum": true}, {"time": 251, "velocity": 108, "pitch": 69, "instrument": 0, "track": 1, "qtime": 11, "bar": 5, "isDrum": true}, {"time": 252, "velocity": 0, "pitch": 35, "instrument": 0, "track": 1, "qtime": 12, "bar": 5, "isDrum": true}, {"time": 252, "velocity": 0, "pitch": 54, "instrument": 0, "track": 1, "qtime": 12, "bar": 5, "isDrum": true}, {"time": 252, "velocity": 0, "pitch": 59, "instrument": 0, "track": 1, "qtime": 12, "bar": 5, "isDrum": true}, {"time": 252, "velocity": 0, "pitch": 69, "instrument": 0, "track": 1, "qtime": 12, "bar": 5, "isDrum": true}, {"time": 252, "velocity": 108, "pitch": 39, "instrument": 0, "track": 1, "qtime": 12, "bar": 5, "isDrum": true}, {"time": 252, "velocity": 108, "pitch": 40, "instrument": 0, "track": 1, "qtime": 12, "bar": 5, "isDrum": true}, {"time": 252, "velocity": 108, "pitch": 54, "instrument": 0, "track": 1, "qtime": 12, "bar": 5, "isDrum": true}, {"time": 252, "velocity": 108, "pitch": 59, "instrument": 0, "track": 1, "qtime": 12, "bar": 5, "isDrum": true}, {"time": 252, "velocity": 108, "pitch": 85, "instrument": 0, "track": 1, "qtime": 12, "bar": 5, "isDrum": true}, {"time": 253, "velocity": 0, "pitch": 85, "instrument": 0, "track": 1, "qtime": 13, "bar": 5, "isDrum": true}, {"time": 254, "velocity": 108, "pitch": 85, "instrument": 0, "track": 1, "qtime": 14, "bar": 5, "isDrum": true}, {"time": 255, "velocity": 0, "pitch": 39, "instrument": 0, "track": 1, "qtime": 15, "bar": 5, "isDrum": true}, {"time": 255, "velocity": 0, "pitch": 40, "instrument": 0, "track": 1, "qtime": 15, "bar": 5, "isDrum": true}, {"time": 255, "velocity": 0, "pitch": 54, "instrument": 0, "track": 1, "qtime": 15, "bar": 5, "isDrum": true}, {"time": 255, "velocity": 0, "pitch": 59, "instrument": 0, "track": 1, "qtime": 15, "bar": 5, "isDrum": true}, {"time": 255, "velocity": 0, "pitch": 85, "instrument": 0, "track": 1, "qtime": 15, "bar": 5, "isDrum": true}, {"time": 255, "velocity": 108, "pitch": 54, "instrument": 0, "track": 1, "qtime": 15, "bar": 5, "isDrum": true}, {"time": 255, "velocity": 108, "pitch": 69, "instrument": 0, "track": 1, "qtime": 15, "bar": 5, "isDrum": true}, {"time": 255, "velocity": 108, "pitch": 85, "instrument": 0, "track": 1, "qtime": 15, "bar": 5, "isDrum": true}, {"time": 258, "velocity": 0, "pitch": 54, "instrument": 0, "track": 1, "qtime": 18, "bar": 5, "isDrum": true}, {"time": 258, "velocity": 0, "pitch": 69, "instrument": 0, "track": 1, "qtime": 18, "bar": 5, "isDrum": true}, {"time": 258, "velocity": 0, "pitch": 85, "instrument": 0, "track": 1, "qtime": 18, "bar": 5, "isDrum": true}, {"time": 258, "velocity": 108, "pitch": 35, "instrument": 0, "track": 1, "qtime": 18, "bar": 5, "isDrum": true}, {"time": 258, "velocity": 108, "pitch": 54, "instrument": 0, "track": 1, "qtime": 18, "bar": 5, "isDrum": true}, {"time": 258, "velocity": 108, "pitch": 82, "instrument": 0, "track": 1, "qtime": 18, "bar": 5, "isDrum": true}, {"time": 258, "velocity": 108, "pitch": 85, "instrument": 0, "track": 1, "qtime": 18, "bar": 5, "isDrum": true}, {"time": 259, "velocity": 0, "pitch": 35, "instrument": 0, "track": 1, "qtime": 19, "bar": 5, "isDrum": true}, {"time": 259, "velocity": 0, "pitch": 54, "instrument": 0, "track": 1, "qtime": 19, "bar": 5, "isDrum": true}, {"time": 260, "velocity": 108, "pitch": 59, "instrument": 0, "track": 1, "qtime": 20, "bar": 5, "isDrum": true}, {"time": 261, "velocity": 0, "pitch": 59, "instrument": 0, "track": 1, "qtime": 21, "bar": 5, "isDrum": true}, {"time": 261, "velocity": 0, "pitch": 82, "instrument": 0, "track": 1, "qtime": 21, "bar": 5, "isDrum": true}, {"time": 261, "velocity": 0, "pitch": 85, "instrument": 0, "track": 1, "qtime": 21, "bar": 5, "isDrum": true}, {"time": 261, "velocity": 108, "pitch": 54, "instrument": 0, "track": 1, "qtime": 21, "bar": 5, "isDrum": true}, {"time": 261, "velocity": 108, "pitch": 59, "instrument": 0, "track": 1, "qtime": 21, "bar": 5, "isDrum": true}, {"time": 261, "velocity": 108, "pitch": 69, "instrument": 0, "track": 1, "qtime": 21, "bar": 5, "isDrum": true}, {"time": 264, "velocity": 0, "pitch": 54, "instrument": 0, "track": 1, "qtime": 24, "bar": 5, "isDrum": true}, {"time": 264, "velocity": 0, "pitch": 59, "instrument": 0, "track": 1, "qtime": 24, "bar": 5, "isDrum": true}, {"time": 264, "velocity": 0, "pitch": 69, "instrument": 0, "track": 1, "qtime": 24, "bar": 5, "isDrum": true}, {"time": 264, "velocity": 108, "pitch": 35, "instrument": 0, "track": 1, "qtime": 24, "bar": 5, "isDrum": true}, {"time": 264, "velocity": 108, "pitch": 54, "instrument": 0, "track": 1, "qtime": 24, "bar": 5, "isDrum": true}, {"time": 264, "velocity": 108, "pitch": 59, "instrument": 0, "track": 1, "qtime": 24, "bar": 5, "isDrum": true}, {"time": 264, "velocity": 108, "pitch": 69, "instrument": 0, "track": 1, "qtime": 24, "bar": 5, "isDrum": true}, {"time": 267, "velocity": 0, "pitch": 35, "instrument": 0, "track": 1, "qtime": 27, "bar": 5, "isDrum": true}, {"time": 267, "velocity": 0, "pitch": 54, "instrument": 0, "track": 1, "qtime": 27, "bar": 5, "isDrum": true}, {"time": 267, "velocity": 0, "pitch": 59, "instrument": 0, "track": 1, "qtime": 27, "bar": 5, "isDrum": true}, {"time": 267, "velocity": 108, "pitch": 54, "instrument": 0, "track": 1, "qtime": 27, "bar": 5, "isDrum": true}, {"time": 270, "velocity": 0, "pitch": 54, "instrument": 0, "track": 1, "qtime": 30, "bar": 5, "isDrum": true}, {"time": 270, "velocity": 0, "pitch": 69, "instrument": 0, "track": 1, "qtime": 30, "bar": 5, "isDrum": true}, {"time": 270, "velocity": 108, "pitch": 54, "instrument": 0, "track": 1, "qtime": 30, "bar": 5, "isDrum": true}, {"time": 270, "velocity": 108, "pitch": 59, "instrument": 0, "track": 1, "qtime": 30, "bar": 5, "isDrum": true}, {"time": 270, "velocity": 108, "pitch": 82, "instrument": 0, "track": 1, "qtime": 30, "bar": 5, "isDrum": true}, {"time": 273, "velocity": 0, "pitch": 54, "instrument": 0, "track": 1, "qtime": 33, "bar": 5, "isDrum": true}, {"time": 273, "velocity": 0, "pitch": 59, "instrument": 0, "track": 1, "qtime": 33, "bar": 5, "isDrum": true}, {"time": 273, "velocity": 0, "pitch": 82, "instrument": 0, "track": 1, "qtime": 33, "bar": 5, "isDrum": true}, {"time": 273, "velocity": 108, "pitch": 35, "instrument": 0, "track": 1, "qtime": 33, "bar": 5, "isDrum": true}, {"time": 273, "velocity": 108, "pitch": 54, "instrument": 0, "track": 1, "qtime": 33, "bar": 5, "isDrum": true}, {"time": 273, "velocity": 108, "pitch": 59, "instrument": 0, "track": 1, "qtime": 33, "bar": 5, "isDrum": true}, {"time": 273, "velocity": 108, "pitch": 69, "instrument": 0, "track": 1, "qtime": 33, "bar": 5, "isDrum": true}, {"time": 276, "velocity": 0, "pitch": 35, "instrument": 0, "track": 1, "qtime": 36, "bar": 5, "isDrum": true}, {"time": 276, "velocity": 0, "pitch": 54, "instrument": 0, "track": 1, "qtime": 36, "bar": 5, "isDrum": true}, {"time": 276, "velocity": 0, "pitch": 59, "instrument": 0, "track": 1, "qtime": 36, "bar": 5, "isDrum": true}, {"time": 276, "velocity": 0, "pitch": 69, "instrument": 0, "track": 1, "qtime": 36, "bar": 5, "isDrum": true}, {"time": 276, "velocity": 108, "pitch": 39, "instrument": 0, "track": 1, "qtime": 36, "bar": 5, "isDrum": true}, {"time": 276, "velocity": 108, "pitch": 40, "instrument": 0, "track": 1, "qtime": 36, "bar": 5, "isDrum": true}, {"time": 276, "velocity": 108, "pitch": 54, "instrument": 0, "track": 1, "qtime": 36, "bar": 5, "isDrum": true}, {"time": 276, "velocity": 108, "pitch": 59, "instrument": 0, "track": 1, "qtime": 36, "bar": 5, "isDrum": true}, {"time": 276, "velocity": 108, "pitch": 69, "instrument": 0, "track": 1, "qtime": 36, "bar": 5, "isDrum": true}, {"time": 279, "velocity": 0, "pitch": 39, "instrument": 0, "track": 1, "qtime": 39, "bar": 5, "isDrum": true}, {"time": 279, "velocity": 0, "pitch": 40, "instrument": 0, "track": 1, "qtime": 39, "bar": 5, "isDrum": true}, {"time": 279, "velocity": 0, "pitch": 54, "instrument": 0, "track": 1, "qtime": 39, "bar": 5, "isDrum": true}, {"time": 279, "velocity": 0, "pitch": 59, "instrument": 0, "track": 1, "qtime": 39, "bar": 5, "isDrum": true}, {"time": 279, "velocity": 108, "pitch": 54, "instrument": 0, "track": 1, "qtime": 39, "bar": 5, "isDrum": true}, {"time": 282, "velocity": 0, "pitch": 54, "instrument": 0, "track": 1, "qtime": 42, "bar": 5, "isDrum": true}, {"time": 282, "velocity": 0, "pitch": 69, "instrument": 0, "track": 1, "qtime": 42, "bar": 5, "isDrum": true}, {"time": 282, "velocity": 108, "pitch": 35, "instrument": 0, "track": 1, "qtime": 42, "bar": 5, "isDrum": true}, {"time": 282, "velocity": 108, "pitch": 54, "instrument": 0, "track": 1, "qtime": 42, "bar": 5, "isDrum": true}, {"time": 282, "velocity": 108, "pitch": 59, "instrument": 0, "track": 1, "qtime": 42, "bar": 5, "isDrum": true}, {"time": 282, "velocity": 108, "pitch": 82, "instrument": 0, "track": 1, "qtime": 42, "bar": 5, "isDrum": true}, {"time": 285, "velocity": 0, "pitch": 35, "instrument": 0, "track": 1, "qtime": 45, "bar": 5, "isDrum": true}, {"time": 285, "velocity": 0, "pitch": 54, "instrument": 0, "track": 1, "qtime": 45, "bar": 5, "isDrum": true}, {"time": 285, "velocity": 0, "pitch": 59, "instrument": 0, "track": 1, "qtime": 45, "bar": 5, "isDrum": true}, {"time": 285, "velocity": 108, "pitch": 54, "instrument": 0, "track": 1, "qtime": 45, "bar": 5, "isDrum": true}, {"time": 285, "velocity": 108, "pitch": 59, "instrument": 0, "track": 1, "qtime": 45, "bar": 5, "isDrum": true}, {"time": 286, "velocity": 0, "pitch": 82, "instrument": 0, "track": 1, "qtime": 46, "bar": 5, "isDrum": true}, {"time": 287, "velocity": 108, "pitch": 69, "instrument": 0, "track": 1, "qtime": 47, "bar": 5, "isDrum": true}, {"time": 288, "velocity": 0, "pitch": 54, "instrument": 0, "track": 1, "qtime": 48, "bar": 5, "isDrum": true}, {"time": 288, "velocity": 0, "pitch": 59, "instrument": 0, "track": 1, "qtime": 48, "bar": 5, "isDrum": true}, {"time": 288, "velocity": 0, "pitch": 69, "instrument": 0, "track": 1, "qtime": 48, "bar": 5, "isDrum": true}, {"time": 288, "velocity": 108, "pitch": 35, "instrument": 0, "track": 1, "qtime": 0, "bar": 6, "isDrum": true}, {"time": 288, "velocity": 108, "pitch": 54, "instrument": 0, "track": 1, "qtime": 0, "bar": 6, "isDrum": true}, {"time": 288, "velocity": 108, "pitch": 59, "instrument": 0, "track": 1, "qtime": 0, "bar": 6, "isDrum": true}, {"time": 288, "velocity": 108, "pitch": 69, "instrument": 0, "track": 1, "qtime": 0, "bar": 6, "isDrum": true}, {"time": 291, "velocity": 0, "pitch": 35, "instrument": 0, "track": 1, "qtime": 3, "bar": 6, "isDrum": true}, {"time": 291, "velocity": 0, "pitch": 54, "instrument": 0, "track": 1, "qtime": 3, "bar": 6, "isDrum": true}, {"time": 291, "velocity": 0, "pitch": 59, "instrument": 0, "track": 1, "qtime": 3, "bar": 6, "isDrum": true}, {"time": 291, "velocity": 108, "pitch": 54, "instrument": 0, "track": 1, "qtime": 3, "bar": 6, "isDrum": true}, {"time": 294, "velocity": 0, "pitch": 54, "instrument": 0, "track": 1, "qtime": 6, "bar": 6, "isDrum": true}, {"time": 294, "velocity": 0, "pitch": 69, "instrument": 0, "track": 1, "qtime": 6, "bar": 6, "isDrum": true}, {"time": 294, "velocity": 108, "pitch": 54, "instrument": 0, "track": 1, "qtime": 6, "bar": 6, "isDrum": true}, {"time": 294, "velocity": 108, "pitch": 59, "instrument": 0, "track": 1, "qtime": 6, "bar": 6, "isDrum": true}, {"time": 294, "velocity": 108, "pitch": 82, "instrument": 0, "track": 1, "qtime": 6, "bar": 6, "isDrum": true}, {"time": 297, "velocity": 0, "pitch": 54, "instrument": 0, "track": 1, "qtime": 9, "bar": 6, "isDrum": true}, {"time": 297, "velocity": 0, "pitch": 59, "instrument": 0, "track": 1, "qtime": 9, "bar": 6, "isDrum": true}, {"time": 297, "velocity": 108, "pitch": 35, "instrument": 0, "track": 1, "qtime": 9, "bar": 6, "isDrum": true}, {"time": 297, "velocity": 108, "pitch": 54, "instrument": 0, "track": 1, "qtime": 9, "bar": 6, "isDrum": true}, {"time": 297, "velocity": 108, "pitch": 59, "instrument": 0, "track": 1, "qtime": 9, "bar": 6, "isDrum": true}, {"time": 298, "velocity": 0, "pitch": 82, "instrument": 0, "track": 1, "qtime": 10, "bar": 6, "isDrum": true}, {"time": 299, "velocity": 108, "pitch": 69, "instrument": 0, "track": 1, "qtime": 11, "bar": 6, "isDrum": true}, {"time": 300, "velocity": 0, "pitch": 35, "instrument": 0, "track": 1, "qtime": 12, "bar": 6, "isDrum": true}, {"time": 300, "velocity": 0, "pitch": 54, "instrument": 0, "track": 1, "qtime": 12, "bar": 6, "isDrum": true}, {"time": 300, "velocity": 0, "pitch": 59, "instrument": 0, "track": 1, "qtime": 12, "bar": 6, "isDrum": true}, {"time": 300, "velocity": 0, "pitch": 69, "instrument": 0, "track": 1, "qtime": 12, "bar": 6, "isDrum": true}, {"time": 300, "velocity": 108, "pitch": 39, "instrument": 0, "track": 1, "qtime": 12, "bar": 6, "isDrum": true}, {"time": 300, "velocity": 108, "pitch": 40, "instrument": 0, "track": 1, "qtime": 12, "bar": 6, "isDrum": true}, {"time": 300, "velocity": 108, "pitch": 54, "instrument": 0, "track": 1, "qtime": 12, "bar": 6, "isDrum": true}, {"time": 300, "velocity": 108, "pitch": 59, "instrument": 0, "track": 1, "qtime": 12, "bar": 6, "isDrum": true}, {"time": 300, "velocity": 108, "pitch": 69, "instrument": 0, "track": 1, "qtime": 12, "bar": 6, "isDrum": true}, {"time": 303, "velocity": 0, "pitch": 39, "instrument": 0, "track": 1, "qtime": 15, "bar": 6, "isDrum": true}, {"time": 303, "velocity": 0, "pitch": 40, "instrument": 0, "track": 1, "qtime": 15, "bar": 6, "isDrum": true}, {"time": 303, "velocity": 0, "pitch": 54, "instrument": 0, "track": 1, "qtime": 15, "bar": 6, "isDrum": true}, {"time": 303, "velocity": 0, "pitch": 59, "instrument": 0, "track": 1, "qtime": 15, "bar": 6, "isDrum": true}, {"time": 303, "velocity": 108, "pitch": 54, "instrument": 0, "track": 1, "qtime": 15, "bar": 6, "isDrum": true}, {"time": 306, "velocity": 0, "pitch": 54, "instrument": 0, "track": 1, "qtime": 18, "bar": 6, "isDrum": true}, {"time": 306, "velocity": 0, "pitch": 69, "instrument": 0, "track": 1, "qtime": 18, "bar": 6, "isDrum": true}, {"time": 306, "velocity": 108, "pitch": 35, "instrument": 0, "track": 1, "qtime": 18, "bar": 6, "isDrum": true}, {"time": 306, "velocity": 108, "pitch": 54, "instrument": 0, "track": 1, "qtime": 18, "bar": 6, "isDrum": true}, {"time": 306, "velocity": 108, "pitch": 59, "instrument": 0, "track": 1, "qtime": 18, "bar": 6, "isDrum": true}, {"time": 306, "velocity": 108, "pitch": 82, "instrument": 0, "track": 1, "qtime": 18, "bar": 6, "isDrum": true}, {"time": 309, "velocity": 0, "pitch": 35, "instrument": 0, "track": 1, "qtime": 21, "bar": 6, "isDrum": true}, {"time": 309, "velocity": 0, "pitch": 54, "instrument": 0, "track": 1, "qtime": 21, "bar": 6, "isDrum": true}, {"time": 309, "velocity": 0, "pitch": 59, "instrument": 0, "track": 1, "qtime": 21, "bar": 6, "isDrum": true}, {"time": 309, "velocity": 0, "pitch": 82, "instrument": 0, "track": 1, "qtime": 21, "bar": 6, "isDrum": true}, {"time": 309, "velocity": 108, "pitch": 54, "instrument": 0, "track": 1, "qtime": 21, "bar": 6, "isDrum": true}, {"time": 309, "velocity": 108, "pitch": 59, "instrument": 0, "track": 1, "qtime": 21, "bar": 6, "isDrum": true}, {"time": 309, "velocity": 108, "pitch": 69, "instrument": 0, "track": 1, "qtime": 21, "bar": 6, "isDrum": true}, {"time": 312, "velocity": 0, "pitch": 54, "instrument": 0, "track": 1, "qtime": 24, "bar": 6, "isDrum": true}, {"time": 312, "velocity": 0, "pitch": 59, "instrument": 0, "track": 1, "qtime": 24, "bar": 6, "isDrum": true}, {"time": 312, "velocity": 0, "pitch": 69, "instrument": 0, "track": 1, "qtime": 24, "bar": 6, "isDrum": true}, {"time": 312, "velocity": 108, "pitch": 35, "instrument": 0, "track": 1, "qtime": 24, "bar": 6, "isDrum": true}, {"time": 312, "velocity": 108, "pitch": 54, "instrument": 0, "track": 1, "qtime": 24, "bar": 6, "isDrum": true}, {"time": 312, "velocity": 108, "pitch": 59, "instrument": 0, "track": 1, "qtime": 24, "bar": 6, "isDrum": true}, {"time": 312, "velocity": 108, "pitch": 69, "instrument": 0, "track": 1, "qtime": 24, "bar": 6, "isDrum": true}, {"time": 315, "velocity": 0, "pitch": 35, "instrument": 0, "track": 1, "qtime": 27, "bar": 6, "isDrum": true}, {"time": 315, "velocity": 0, "pitch": 54, "instrument": 0, "track": 1, "qtime": 27, "bar": 6, "isDrum": true}, {"time": 315, "velocity": 0, "pitch": 59, "instrument": 0, "track": 1, "qtime": 27, "bar": 6, "isDrum": true}, {"time": 315, "velocity": 108, "pitch": 54, "instrument": 0, "track": 1, "qtime": 27, "bar": 6, "isDrum": true}, {"time": 318, "velocity": 0, "pitch": 54, "instrument": 0, "track": 1, "qtime": 30, "bar": 6, "isDrum": true}, {"time": 318, "velocity": 0, "pitch": 69, "instrument": 0, "track": 1, "qtime": 30, "bar": 6, "isDrum": true}, {"time": 318, "velocity": 108, "pitch": 54, "instrument": 0, "track": 1, "qtime": 30, "bar": 6, "isDrum": true}, {"time": 318, "velocity": 108, "pitch": 59, "instrument": 0, "track": 1, "qtime": 30, "bar": 6, "isDrum": true}, {"time": 318, "velocity": 108, "pitch": 82, "instrument": 0, "track": 1, "qtime": 30, "bar": 6, "isDrum": true}, {"time": 321, "velocity": 0, "pitch": 54, "instrument": 0, "track": 1, "qtime": 33, "bar": 6, "isDrum": true}, {"time": 321, "velocity": 0, "pitch": 59, "instrument": 0, "track": 1, "qtime": 33, "bar": 6, "isDrum": true}, {"time": 321, "velocity": 0, "pitch": 82, "instrument": 0, "track": 1, "qtime": 33, "bar": 6, "isDrum": true}, {"time": 321, "velocity": 108, "pitch": 35, "instrument": 0, "track": 1, "qtime": 33, "bar": 6, "isDrum": true}, {"time": 321, "velocity": 108, "pitch": 54, "instrument": 0, "track": 1, "qtime": 33, "bar": 6, "isDrum": true}, {"time": 321, "velocity": 108, "pitch": 59, "instrument": 0, "track": 1, "qtime": 33, "bar": 6, "isDrum": true}, {"time": 321, "velocity": 108, "pitch": 69, "instrument": 0, "track": 1, "qtime": 33, "bar": 6, "isDrum": true}, {"time": 324, "velocity": 0, "pitch": 35, "instrument": 0, "track": 1, "qtime": 36, "bar": 6, "isDrum": true}, {"time": 324, "velocity": 0, "pitch": 54, "instrument": 0, "track": 1, "qtime": 36, "bar": 6, "isDrum": true}, {"time": 324, "velocity": 0, "pitch": 59, "instrument": 0, "track": 1, "qtime": 36, "bar": 6, "isDrum": true}, {"time": 324, "velocity": 0, "pitch": 69, "instrument": 0, "track": 1, "qtime": 36, "bar": 6, "isDrum": true}, {"time": 324, "velocity": 108, "pitch": 39, "instrument": 0, "track": 1, "qtime": 36, "bar": 6, "isDrum": true}, {"time": 324, "velocity": 108, "pitch": 40, "instrument": 0, "track": 1, "qtime": 36, "bar": 6, "isDrum": true}, {"time": 324, "velocity": 108, "pitch": 54, "instrument": 0, "track": 1, "qtime": 36, "bar": 6, "isDrum": true}, {"time": 324, "velocity": 108, "pitch": 59, "instrument": 0, "track": 1, "qtime": 36, "bar": 6, "isDrum": true}, {"time": 324, "velocity": 108, "pitch": 69, "instrument": 0, "track": 1, "qtime": 36, "bar": 6, "isDrum": true}, {"time": 327, "velocity": 0, "pitch": 39, "instrument": 0, "track": 1, "qtime": 39, "bar": 6, "isDrum": true}, {"time": 327, "velocity": 0, "pitch": 40, "instrument": 0, "track": 1, "qtime": 39, "bar": 6, "isDrum": true}, {"time": 327, "velocity": 0, "pitch": 54, "instrument": 0, "track": 1, "qtime": 39, "bar": 6, "isDrum": true}, {"time": 327, "velocity": 0, "pitch": 59, "instrument": 0, "track": 1, "qtime": 39, "bar": 6, "isDrum": true}, {"time": 327, "velocity": 108, "pitch": 54, "instrument": 0, "track": 1, "qtime": 39, "bar": 6, "isDrum": true}, {"time": 330, "velocity": 0, "pitch": 54, "instrument": 0, "track": 1, "qtime": 42, "bar": 6, "isDrum": true}, {"time": 330, "velocity": 0, "pitch": 69, "instrument": 0, "track": 1, "qtime": 42, "bar": 6, "isDrum": true}, {"time": 330, "velocity": 108, "pitch": 35, "instrument": 0, "track": 1, "qtime": 42, "bar": 6, "isDrum": true}, {"time": 330, "velocity": 108, "pitch": 54, "instrument": 0, "track": 1, "qtime": 42, "bar": 6, "isDrum": true}, {"time": 330, "velocity": 108, "pitch": 59, "instrument": 0, "track": 1, "qtime": 42, "bar": 6, "isDrum": true}, {"time": 330, "velocity": 108, "pitch": 82, "instrument": 0, "track": 1, "qtime": 42, "bar": 6, "isDrum": true}, {"time": 333, "velocity": 0, "pitch": 35, "instrument": 0, "track": 1, "qtime": 45, "bar": 6, "isDrum": true}, {"time": 333, "velocity": 0, "pitch": 54, "instrument": 0, "track": 1, "qtime": 45, "bar": 6, "isDrum": true}, {"time": 333, "velocity": 0, "pitch": 59, "instrument": 0, "track": 1, "qtime": 45, "bar": 6, "isDrum": true}, {"time": 333, "velocity": 108, "pitch": 54, "instrument": 0, "track": 1, "qtime": 45, "bar": 6, "isDrum": true}, {"time": 333, "velocity": 108, "pitch": 59, "instrument": 0, "track": 1, "qtime": 45, "bar": 6, "isDrum": true}, {"time": 334, "velocity": 0, "pitch": 82, "instrument": 0, "track": 1, "qtime": 46, "bar": 6, "isDrum": true}, {"time": 335, "velocity": 108, "pitch": 69, "instrument": 0, "track": 1, "qtime": 47, "bar": 6, "isDrum": true}, {"time": 336, "velocity": 0, "pitch": 54, "instrument": 0, "track": 1, "qtime": 48, "bar": 6, "isDrum": true}, {"time": 336, "velocity": 0, "pitch": 59, "instrument": 0, "track": 1, "qtime": 48, "bar": 6, "isDrum": true}, {"time": 336, "velocity": 0, "pitch": 69, "instrument": 0, "track": 1, "qtime": 48, "bar": 6, "isDrum": true}, {"time": 336, "velocity": 108, "pitch": 35, "instrument": 0, "track": 1, "qtime": 0, "bar": 7, "isDrum": true}, {"time": 336, "velocity": 108, "pitch": 54, "instrument": 0, "track": 1, "qtime": 0, "bar": 7, "isDrum": true}, {"time": 336, "velocity": 108, "pitch": 59, "instrument": 0, "track": 1, "qtime": 0, "bar": 7, "isDrum": true}, {"time": 336, "velocity": 108, "pitch": 69, "instrument": 0, "track": 1, "qtime": 0, "bar": 7, "isDrum": true}, {"time": 339, "velocity": 0, "pitch": 35, "instrument": 0, "track": 1, "qtime": 3, "bar": 7, "isDrum": true}, {"time": 339, "velocity": 0, "pitch": 54, "instrument": 0, "track": 1, "qtime": 3, "bar": 7, "isDrum": true}, {"time": 339, "velocity": 0, "pitch": 59, "instrument": 0, "track": 1, "qtime": 3, "bar": 7, "isDrum": true}, {"time": 339, "velocity": 108, "pitch": 54, "instrument": 0, "track": 1, "qtime": 3, "bar": 7, "isDrum": true}, {"time": 342, "velocity": 0, "pitch": 54, "instrument": 0, "track": 1, "qtime": 6, "bar": 7, "isDrum": true}, {"time": 342, "velocity": 0, "pitch": 69, "instrument": 0, "track": 1, "qtime": 6, "bar": 7, "isDrum": true}, {"time": 342, "velocity": 108, "pitch": 54, "instrument": 0, "track": 1, "qtime": 6, "bar": 7, "isDrum": true}, {"time": 342, "velocity": 108, "pitch": 59, "instrument": 0, "track": 1, "qtime": 6, "bar": 7, "isDrum": true}, {"time": 342, "velocity": 108, "pitch": 82, "instrument": 0, "track": 1, "qtime": 6, "bar": 7, "isDrum": true}, {"time": 345, "velocity": 0, "pitch": 54, "instrument": 0, "track": 1, "qtime": 9, "bar": 7, "isDrum": true}, {"time": 345, "velocity": 0, "pitch": 59, "instrument": 0, "track": 1, "qtime": 9, "bar": 7, "isDrum": true}, {"time": 345, "velocity": 108, "pitch": 35, "instrument": 0, "track": 1, "qtime": 9, "bar": 7, "isDrum": true}, {"time": 345, "velocity": 108, "pitch": 54, "instrument": 0, "track": 1, "qtime": 9, "bar": 7, "isDrum": true}, {"time": 345, "velocity": 108, "pitch": 59, "instrument": 0, "track": 1, "qtime": 9, "bar": 7, "isDrum": true}, {"time": 346, "velocity": 0, "pitch": 82, "instrument": 0, "track": 1, "qtime": 10, "bar": 7, "isDrum": true}, {"time": 347, "velocity": 108, "pitch": 69, "instrument": 0, "track": 1, "qtime": 11, "bar": 7, "isDrum": true}, {"time": 348, "velocity": 0, "pitch": 35, "instrument": 0, "track": 1, "qtime": 12, "bar": 7, "isDrum": true}, {"time": 348, "velocity": 0, "pitch": 54, "instrument": 0, "track": 1, "qtime": 12, "bar": 7, "isDrum": true}, {"time": 348, "velocity": 0, "pitch": 59, "instrument": 0, "track": 1, "qtime": 12, "bar": 7, "isDrum": true}, {"time": 348, "velocity": 0, "pitch": 69, "instrument": 0, "track": 1, "qtime": 12, "bar": 7, "isDrum": true}, {"time": 348, "velocity": 108, "pitch": 39, "instrument": 0, "track": 1, "qtime": 12, "bar": 7, "isDrum": true}, {"time": 348, "velocity": 108, "pitch": 40, "instrument": 0, "track": 1, "qtime": 12, "bar": 7, "isDrum": true}, {"time": 348, "velocity": 108, "pitch": 54, "instrument": 0, "track": 1, "qtime": 12, "bar": 7, "isDrum": true}, {"time": 348, "velocity": 108, "pitch": 59, "instrument": 0, "track": 1, "qtime": 12, "bar": 7, "isDrum": true}, {"time": 348, "velocity": 108, "pitch": 85, "instrument": 0, "track": 1, "qtime": 12, "bar": 7, "isDrum": true}, {"time": 349, "velocity": 0, "pitch": 85, "instrument": 0, "track": 1, "qtime": 13, "bar": 7, "isDrum": true}, {"time": 350, "velocity": 108, "pitch": 85, "instrument": 0, "track": 1, "qtime": 14, "bar": 7, "isDrum": true}, {"time": 351, "velocity": 0, "pitch": 39, "instrument": 0, "track": 1, "qtime": 15, "bar": 7, "isDrum": true}, {"time": 351, "velocity": 0, "pitch": 40, "instrument": 0, "track": 1, "qtime": 15, "bar": 7, "isDrum": true}, {"time": 351, "velocity": 0, "pitch": 54, "instrument": 0, "track": 1, "qtime": 15, "bar": 7, "isDrum": true}, {"time": 351, "velocity": 0, "pitch": 59, "instrument": 0, "track": 1, "qtime": 15, "bar": 7, "isDrum": true}, {"time": 351, "velocity": 0, "pitch": 85, "instrument": 0, "track": 1, "qtime": 15, "bar": 7, "isDrum": true}, {"time": 351, "velocity": 108, "pitch": 54, "instrument": 0, "track": 1, "qtime": 15, "bar": 7, "isDrum": true}, {"time": 351, "velocity": 108, "pitch": 69, "instrument": 0, "track": 1, "qtime": 15, "bar": 7, "isDrum": true}, {"time": 351, "velocity": 108, "pitch": 85, "instrument": 0, "track": 1, "qtime": 15, "bar": 7, "isDrum": true}, {"time": 354, "velocity": 0, "pitch": 54, "instrument": 0, "track": 1, "qtime": 18, "bar": 7, "isDrum": true}, {"time": 354, "velocity": 0, "pitch": 69, "instrument": 0, "track": 1, "qtime": 18, "bar": 7, "isDrum": true}, {"time": 354, "velocity": 0, "pitch": 85, "instrument": 0, "track": 1, "qtime": 18, "bar": 7, "isDrum": true}, {"time": 354, "velocity": 108, "pitch": 35, "instrument": 0, "track": 1, "qtime": 18, "bar": 7, "isDrum": true}, {"time": 354, "velocity": 108, "pitch": 54, "instrument": 0, "track": 1, "qtime": 18, "bar": 7, "isDrum": true}, {"time": 354, "velocity": 108, "pitch": 82, "instrument": 0, "track": 1, "qtime": 18, "bar": 7, "isDrum": true}, {"time": 354, "velocity": 108, "pitch": 85, "instrument": 0, "track": 1, "qtime": 18, "bar": 7, "isDrum": true}, {"time": 355, "velocity": 0, "pitch": 35, "instrument": 0, "track": 1, "qtime": 19, "bar": 7, "isDrum": true}, {"time": 355, "velocity": 0, "pitch": 54, "instrument": 0, "track": 1, "qtime": 19, "bar": 7, "isDrum": true}, {"time": 356, "velocity": 108, "pitch": 59, "instrument": 0, "track": 1, "qtime": 20, "bar": 7, "isDrum": true}, {"time": 357, "velocity": 0, "pitch": 59, "instrument": 0, "track": 1, "qtime": 21, "bar": 7, "isDrum": true}, {"time": 357, "velocity": 0, "pitch": 82, "instrument": 0, "track": 1, "qtime": 21, "bar": 7, "isDrum": true}, {"time": 357, "velocity": 0, "pitch": 85, "instrument": 0, "track": 1, "qtime": 21, "bar": 7, "isDrum": true}, {"time": 357, "velocity": 108, "pitch": 54, "instrument": 0, "track": 1, "qtime": 21, "bar": 7, "isDrum": true}, {"time": 357, "velocity": 108, "pitch": 59, "instrument": 0, "track": 1, "qtime": 21, "bar": 7, "isDrum": true}, {"time": 357, "velocity": 108, "pitch": 69, "instrument": 0, "track": 1, "qtime": 21, "bar": 7, "isDrum": true}, {"time": 360, "velocity": 0, "pitch": 54, "instrument": 0, "track": 1, "qtime": 24, "bar": 7, "isDrum": true}, {"time": 360, "velocity": 0, "pitch": 59, "instrument": 0, "track": 1, "qtime": 24, "bar": 7, "isDrum": true}, {"time": 360, "velocity": 0, "pitch": 69, "instrument": 0, "track": 1, "qtime": 24, "bar": 7, "isDrum": true}, {"time": 360, "velocity": 108, "pitch": 35, "instrument": 0, "track": 1, "qtime": 24, "bar": 7, "isDrum": true}, {"time": 360, "velocity": 108, "pitch": 54, "instrument": 0, "track": 1, "qtime": 24, "bar": 7, "isDrum": true}, {"time": 360, "velocity": 108, "pitch": 59, "instrument": 0, "track": 1, "qtime": 24, "bar": 7, "isDrum": true}, {"time": 360, "velocity": 108, "pitch": 69, "instrument": 0, "track": 1, "qtime": 24, "bar": 7, "isDrum": true}, {"time": 363, "velocity": 0, "pitch": 35, "instrument": 0, "track": 1, "qtime": 27, "bar": 7, "isDrum": true}, {"time": 363, "velocity": 0, "pitch": 54, "instrument": 0, "track": 1, "qtime": 27, "bar": 7, "isDrum": true}, {"time": 363, "velocity": 0, "pitch": 59, "instrument": 0, "track": 1, "qtime": 27, "bar": 7, "isDrum": true}, {"time": 363, "velocity": 108, "pitch": 54, "instrument": 0, "track": 1, "qtime": 27, "bar": 7, "isDrum": true}, {"time": 366, "velocity": 0, "pitch": 54, "instrument": 0, "track": 1, "qtime": 30, "bar": 7, "isDrum": true}, {"time": 366, "velocity": 0, "pitch": 69, "instrument": 0, "track": 1, "qtime": 30, "bar": 7, "isDrum": true}, {"time": 366, "velocity": 108, "pitch": 54, "instrument": 0, "track": 1, "qtime": 30, "bar": 7, "isDrum": true}, {"time": 366, "velocity": 108, "pitch": 59, "instrument": 0, "track": 1, "qtime": 30, "bar": 7, "isDrum": true}, {"time": 366, "velocity": 108, "pitch": 82, "instrument": 0, "track": 1, "qtime": 30, "bar": 7, "isDrum": true}, {"time": 369, "velocity": 0, "pitch": 54, "instrument": 0, "track": 1, "qtime": 33, "bar": 7, "isDrum": true}, {"time": 369, "velocity": 0, "pitch": 59, "instrument": 0, "track": 1, "qtime": 33, "bar": 7, "isDrum": true}, {"time": 369, "velocity": 0, "pitch": 82, "instrument": 0, "track": 1, "qtime": 33, "bar": 7, "isDrum": true}, {"time": 369, "velocity": 108, "pitch": 35, "instrument": 0, "track": 1, "qtime": 33, "bar": 7, "isDrum": true}, {"time": 369, "velocity": 108, "pitch": 54, "instrument": 0, "track": 1, "qtime": 33, "bar": 7, "isDrum": true}, {"time": 369, "velocity": 108, "pitch": 59, "instrument": 0, "track": 1, "qtime": 33, "bar": 7, "isDrum": true}, {"time": 369, "velocity": 108, "pitch": 69, "instrument": 0, "track": 1, "qtime": 33, "bar": 7, "isDrum": true}, {"time": 372, "velocity": 0, "pitch": 35, "instrument": 0, "track": 1, "qtime": 36, "bar": 7, "isDrum": true}, {"time": 372, "velocity": 0, "pitch": 54, "instrument": 0, "track": 1, "qtime": 36, "bar": 7, "isDrum": true}, {"time": 372, "velocity": 0, "pitch": 59, "instrument": 0, "track": 1, "qtime": 36, "bar": 7, "isDrum": true}, {"time": 372, "velocity": 0, "pitch": 69, "instrument": 0, "track": 1, "qtime": 36, "bar": 7, "isDrum": true}, {"time": 372, "velocity": 108, "pitch": 39, "instrument": 0, "track": 1, "qtime": 36, "bar": 7, "isDrum": true}, {"time": 372, "velocity": 108, "pitch": 40, "instrument": 0, "track": 1, "qtime": 36, "bar": 7, "isDrum": true}, {"time": 372, "velocity": 108, "pitch": 54, "instrument": 0, "track": 1, "qtime": 36, "bar": 7, "isDrum": true}, {"time": 372, "velocity": 108, "pitch": 59, "instrument": 0, "track": 1, "qtime": 36, "bar": 7, "isDrum": true}, {"time": 372, "velocity": 108, "pitch": 69, "instrument": 0, "track": 1, "qtime": 36, "bar": 7, "isDrum": true}, {"time": 375, "velocity": 0, "pitch": 39, "instrument": 0, "track": 1, "qtime": 39, "bar": 7, "isDrum": true}, {"time": 375, "velocity": 0, "pitch": 40, "instrument": 0, "track": 1, "qtime": 39, "bar": 7, "isDrum": true}, {"time": 375, "velocity": 0, "pitch": 54, "instrument": 0, "track": 1, "qtime": 39, "bar": 7, "isDrum": true}, {"time": 375, "velocity": 0, "pitch": 59, "instrument": 0, "track": 1, "qtime": 39, "bar": 7, "isDrum": true}, {"time": 375, "velocity": 108, "pitch": 54, "instrument": 0, "track": 1, "qtime": 39, "bar": 7, "isDrum": true}, {"time": 378, "velocity": 0, "pitch": 54, "instrument": 0, "track": 1, "qtime": 42, "bar": 7, "isDrum": true}, {"time": 378, "velocity": 0, "pitch": 69, "instrument": 0, "track": 1, "qtime": 42, "bar": 7, "isDrum": true}, {"time": 378, "velocity": 108, "pitch": 35, "instrument": 0, "track": 1, "qtime": 42, "bar": 7, "isDrum": true}, {"time": 378, "velocity": 108, "pitch": 54, "instrument": 0, "track": 1, "qtime": 42, "bar": 7, "isDrum": true}, {"time": 378, "velocity": 108, "pitch": 59, "instrument": 0, "track": 1, "qtime": 42, "bar": 7, "isDrum": true}, {"time": 378, "velocity": 108, "pitch": 82, "instrument": 0, "track": 1, "qtime": 42, "bar": 7, "isDrum": true}, {"time": 381, "velocity": 0, "pitch": 35, "instrument": 0, "track": 1, "qtime": 45, "bar": 7, "isDrum": true}, {"time": 381, "velocity": 0, "pitch": 54, "instrument": 0, "track": 1, "qtime": 45, "bar": 7, "isDrum": true}, {"time": 381, "velocity": 0, "pitch": 59, "instrument": 0, "track": 1, "qtime": 45, "bar": 7, "isDrum": true}, {"time": 381, "velocity": 108, "pitch": 54, "instrument": 0, "track": 1, "qtime": 45, "bar": 7, "isDrum": true}, {"time": 381, "velocity": 108, "pitch": 59, "instrument": 0, "track": 1, "qtime": 45, "bar": 7, "isDrum": true}, {"time": 382, "velocity": 0, "pitch": 82, "instrument": 0, "track": 1, "qtime": 46, "bar": 7, "isDrum": true}, {"time": 383, "velocity": 108, "pitch": 69, "instrument": 0, "track": 1, "qtime": 47, "bar": 7, "isDrum": true}, {"time": 384, "velocity": 0, "pitch": 54, "instrument": 0, "track": 1, "qtime": 48, "bar": 7, "isDrum": true}, {"time": 384, "velocity": 0, "pitch": 59, "instrument": 0, "track": 1, "qtime": 48, "bar": 7, "isDrum": true}, {"time": 384, "velocity": 0, "pitch": 69, "instrument": 0, "track": 1, "qtime": 48, "bar": 7, "isDrum": true}, {"time": 0, "velocity": 108, "pitch": 33, "instrument": 33, "track": 2, "qtime": 0, "bar": 0, "isDrum": false}, {"time": 9, "velocity": 0, "pitch": 33, "instrument": 33, "track": 2, "qtime": 9, "bar": 0, "isDrum": false}, {"time": 9, "velocity": 108, "pitch": 33, "instrument": 33, "track": 2, "qtime": 9, "bar": 0, "isDrum": false}, {"time": 18, "velocity": 0, "pitch": 33, "instrument": 33, "track": 2, "qtime": 18, "bar": 0, "isDrum": false}, {"time": 18, "velocity": 108, "pitch": 40, "instrument": 33, "track": 2, "qtime": 18, "bar": 0, "isDrum": false}, {"time": 24, "velocity": 0, "pitch": 40, "instrument": 33, "track": 2, "qtime": 24, "bar": 0, "isDrum": false}, {"time": 24, "velocity": 108, "pitch": 29, "instrument": 33, "track": 2, "qtime": 24, "bar": 0, "isDrum": false}, {"time": 33, "velocity": 0, "pitch": 29, "instrument": 33, "track": 2, "qtime": 33, "bar": 0, "isDrum": false}, {"time": 33, "velocity": 108, "pitch": 29, "instrument": 33, "track": 2, "qtime": 33, "bar": 0, "isDrum": false}, {"time": 42, "velocity": 0, "pitch": 29, "instrument": 33, "track": 2, "qtime": 42, "bar": 0, "isDrum": false}, {"time": 42, "velocity": 108, "pitch": 36, "instrument": 33, "track": 2, "qtime": 42, "bar": 0, "isDrum": false}, {"time": 48, "velocity": 0, "pitch": 36, "instrument": 33, "track": 2, "qtime": 48, "bar": 0, "isDrum": false}, {"time": 48, "velocity": 108, "pitch": 29, "instrument": 33, "track": 2, "qtime": 0, "bar": 1, "isDrum": false}, {"time": 57, "velocity": 0, "pitch": 29, "instrument": 33, "track": 2, "qtime": 9, "bar": 1, "isDrum": false}, {"time": 57, "velocity": 108, "pitch": 29, "instrument": 33, "track": 2, "qtime": 9, "bar": 1, "isDrum": false}, {"time": 66, "velocity": 0, "pitch": 29, "instrument": 33, "track": 2, "qtime": 18, "bar": 1, "isDrum": false}, {"time": 66, "velocity": 108, "pitch": 36, "instrument": 33, "track": 2, "qtime": 18, "bar": 1, "isDrum": false}, {"time": 72, "velocity": 0, "pitch": 36, "instrument": 33, "track": 2, "qtime": 24, "bar": 1, "isDrum": false}, {"time": 72, "velocity": 108, "pitch": 36, "instrument": 33, "track": 2, "qtime": 24, "bar": 1, "isDrum": false}, {"time": 81, "velocity": 0, "pitch": 36, "instrument": 33, "track": 2, "qtime": 33, "bar": 1, "isDrum": false}, {"time": 81, "velocity": 108, "pitch": 36, "instrument": 33, "track": 2, "qtime": 33, "bar": 1, "isDrum": false}, {"time": 90, "velocity": 0, "pitch": 36, "instrument": 33, "track": 2, "qtime": 42, "bar": 1, "isDrum": false}, {"time": 90, "velocity": 108, "pitch": 31, "instrument": 33, "track": 2, "qtime": 42, "bar": 1, "isDrum": false}, {"time": 96, "velocity": 0, "pitch": 31, "instrument": 33, "track": 2, "qtime": 48, "bar": 1, "isDrum": false}, {"time": 96, "velocity": 108, "pitch": 31, "instrument": 33, "track": 2, "qtime": 0, "bar": 2, "isDrum": false}, {"time": 105, "velocity": 0, "pitch": 31, "instrument": 33, "track": 2, "qtime": 9, "bar": 2, "isDrum": false}, {"time": 105, "velocity": 108, "pitch": 31, "instrument": 33, "track": 2, "qtime": 9, "bar": 2, "isDrum": false}, {"time": 114, "velocity": 0, "pitch": 31, "instrument": 33, "track": 2, "qtime": 18, "bar": 2, "isDrum": false}, {"time": 114, "velocity": 108, "pitch": 31, "instrument": 33, "track": 2, "qtime": 18, "bar": 2, "isDrum": false}, {"time": 120, "velocity": 0, "pitch": 31, "instrument": 33, "track": 2, "qtime": 24, "bar": 2, "isDrum": false}, {"time": 120, "velocity": 108, "pitch": 40, "instrument": 33, "track": 2, "qtime": 24, "bar": 2, "isDrum": false}, {"time": 129, "velocity": 0, "pitch": 40, "instrument": 33, "track": 2, "qtime": 33, "bar": 2, "isDrum": false}, {"time": 129, "velocity": 108, "pitch": 40, "instrument": 33, "track": 2, "qtime": 33, "bar": 2, "isDrum": false}, {"time": 138, "velocity": 0, "pitch": 40, "instrument": 33, "track": 2, "qtime": 42, "bar": 2, "isDrum": false}, {"time": 138, "velocity": 108, "pitch": 35, "instrument": 33, "track": 2, "qtime": 42, "bar": 2, "isDrum": false}, {"time": 144, "velocity": 0, "pitch": 35, "instrument": 33, "track": 2, "qtime": 48, "bar": 2, "isDrum": false}, {"time": 144, "velocity": 108, "pitch": 40, "instrument": 33, "track": 2, "qtime": 0, "bar": 3, "isDrum": false}, {"time": 153, "velocity": 0, "pitch": 40, "instrument": 33, "track": 2, "qtime": 9, "bar": 3, "isDrum": false}, {"time": 153, "velocity": 108, "pitch": 28, "instrument": 33, "track": 2, "qtime": 9, "bar": 3, "isDrum": false}, {"time": 162, "velocity": 0, "pitch": 28, "instrument": 33, "track": 2, "qtime": 18, "bar": 3, "isDrum": false}, {"time": 162, "velocity": 108, "pitch": 40, "instrument": 33, "track": 2, "qtime": 18, "bar": 3, "isDrum": false}, {"time": 168, "velocity": 0, "pitch": 40, "instrument": 33, "track": 2, "qtime": 24, "bar": 3, "isDrum": false}, {"time": 168, "velocity": 108, "pitch": 33, "instrument": 33, "track": 2, "qtime": 24, "bar": 3, "isDrum": false}, {"time": 177, "velocity": 0, "pitch": 33, "instrument": 33, "track": 2, "qtime": 33, "bar": 3, "isDrum": false}, {"time": 177, "velocity": 108, "pitch": 33, "instrument": 33, "track": 2, "qtime": 33, "bar": 3, "isDrum": false}, {"time": 186, "velocity": 0, "pitch": 33, "instrument": 33, "track": 2, "qtime": 42, "bar": 3, "isDrum": false}, {"time": 186, "velocity": 108, "pitch": 28, "instrument": 33, "track": 2, "qtime": 42, "bar": 3, "isDrum": false}, {"time": 192, "velocity": 0, "pitch": 28, "instrument": 33, "track": 2, "qtime": 48, "bar": 3, "isDrum": false}, {"time": 192, "velocity": 108, "pitch": 33, "instrument": 33, "track": 2, "qtime": 0, "bar": 4, "isDrum": false}, {"time": 201, "velocity": 0, "pitch": 33, "instrument": 33, "track": 2, "qtime": 9, "bar": 4, "isDrum": false}, {"time": 201, "velocity": 108, "pitch": 33, "instrument": 33, "track": 2, "qtime": 9, "bar": 4, "isDrum": false}, {"time": 210, "velocity": 0, "pitch": 33, "instrument": 33, "track": 2, "qtime": 18, "bar": 4, "isDrum": false}, {"time": 210, "velocity": 108, "pitch": 28, "instrument": 33, "track": 2, "qtime": 18, "bar": 4, "isDrum": false}, {"time": 216, "velocity": 0, "pitch": 28, "instrument": 33, "track": 2, "qtime": 24, "bar": 4, "isDrum": false}, {"time": 216, "velocity": 108, "pitch": 31, "instrument": 33, "track": 2, "qtime": 24, "bar": 4, "isDrum": false}, {"time": 225, "velocity": 0, "pitch": 31, "instrument": 33, "track": 2, "qtime": 33, "bar": 4, "isDrum": false}, {"time": 225, "velocity": 108, "pitch": 31, "instrument": 33, "track": 2, "qtime": 33, "bar": 4, "isDrum": false}, {"time": 234, "velocity": 0, "pitch": 31, "instrument": 33, "track": 2, "qtime": 42, "bar": 4, "isDrum": false}, {"time": 234, "velocity": 108, "pitch": 26, "instrument": 33, "track": 2, "qtime": 42, "bar": 4, "isDrum": false}, {"time": 240, "velocity": 0, "pitch": 26, "instrument": 33, "track": 2, "qtime": 48, "bar": 4, "isDrum": false}, {"time": 240, "velocity": 108, "pitch": 29, "instrument": 33, "track": 2, "qtime": 0, "bar": 5, "isDrum": false}, {"time": 249, "velocity": 0, "pitch": 29, "instrument": 33, "track": 2, "qtime": 9, "bar": 5, "isDrum": false}, {"time": 249, "velocity": 108, "pitch": 29, "instrument": 33, "track": 2, "qtime": 9, "bar": 5, "isDrum": false}, {"time": 258, "velocity": 0, "pitch": 29, "instrument": 33, "track": 2, "qtime": 18, "bar": 5, "isDrum": false}, {"time": 258, "velocity": 108, "pitch": 24, "instrument": 33, "track": 2, "qtime": 18, "bar": 5, "isDrum": false}, {"time": 264, "velocity": 0, "pitch": 24, "instrument": 33, "track": 2, "qtime": 24, "bar": 5, "isDrum": false}, {"time": 264, "velocity": 108, "pitch": 33, "instrument": 33, "track": 2, "qtime": 24, "bar": 5, "isDrum": false}, {"time": 273, "velocity": 0, "pitch": 33, "instrument": 33, "track": 2, "qtime": 33, "bar": 5, "isDrum": false}, {"time": 273, "velocity": 108, "pitch": 33, "instrument": 33, "track": 2, "qtime": 33, "bar": 5, "isDrum": false}, {"time": 282, "velocity": 0, "pitch": 33, "instrument": 33, "track": 2, "qtime": 42, "bar": 5, "isDrum": false}, {"time": 282, "velocity": 108, "pitch": 28, "instrument": 33, "track": 2, "qtime": 42, "bar": 5, "isDrum": false}, {"time": 288, "velocity": 0, "pitch": 28, "instrument": 33, "track": 2, "qtime": 48, "bar": 5, "isDrum": false}, {"time": 288, "velocity": 108, "pitch": 33, "instrument": 33, "track": 2, "qtime": 0, "bar": 6, "isDrum": false}, {"time": 297, "velocity": 0, "pitch": 33, "instrument": 33, "track": 2, "qtime": 9, "bar": 6, "isDrum": false}, {"time": 297, "velocity": 108, "pitch": 33, "instrument": 33, "track": 2, "qtime": 9, "bar": 6, "isDrum": false}, {"time": 306, "velocity": 0, "pitch": 33, "instrument": 33, "track": 2, "qtime": 18, "bar": 6, "isDrum": false}, {"time": 306, "velocity": 108, "pitch": 28, "instrument": 33, "track": 2, "qtime": 18, "bar": 6, "isDrum": false}, {"time": 312, "velocity": 0, "pitch": 28, "instrument": 33, "track": 2, "qtime": 24, "bar": 6, "isDrum": false}, {"time": 312, "velocity": 108, "pitch": 31, "instrument": 33, "track": 2, "qtime": 24, "bar": 6, "isDrum": false}, {"time": 321, "velocity": 0, "pitch": 31, "instrument": 33, "track": 2, "qtime": 33, "bar": 6, "isDrum": false}, {"time": 321, "velocity": 108, "pitch": 31, "instrument": 33, "track": 2, "qtime": 33, "bar": 6, "isDrum": false}, {"time": 330, "velocity": 0, "pitch": 31, "instrument": 33, "track": 2, "qtime": 42, "bar": 6, "isDrum": false}, {"time": 330, "velocity": 108, "pitch": 26, "instrument": 33, "track": 2, "qtime": 42, "bar": 6, "isDrum": false}, {"time": 336, "velocity": 0, "pitch": 26, "instrument": 33, "track": 2, "qtime": 48, "bar": 6, "isDrum": false}, {"time": 336, "velocity": 108, "pitch": 29, "instrument": 33, "track": 2, "qtime": 0, "bar": 7, "isDrum": false}, {"time": 345, "velocity": 0, "pitch": 29, "instrument": 33, "track": 2, "qtime": 9, "bar": 7, "isDrum": false}, {"time": 345, "velocity": 108, "pitch": 29, "instrument": 33, "track": 2, "qtime": 9, "bar": 7, "isDrum": false}, {"time": 354, "velocity": 0, "pitch": 29, "instrument": 33, "track": 2, "qtime": 18, "bar": 7, "isDrum": false}, {"time": 354, "velocity": 108, "pitch": 24, "instrument": 33, "track": 2, "qtime": 18, "bar": 7, "isDrum": false}, {"time": 360, "velocity": 0, "pitch": 24, "instrument": 33, "track": 2, "qtime": 24, "bar": 7, "isDrum": false}, {"time": 360, "velocity": 108, "pitch": 33, "instrument": 33, "track": 2, "qtime": 24, "bar": 7, "isDrum": false}, {"time": 369, "velocity": 0, "pitch": 33, "instrument": 33, "track": 2, "qtime": 33, "bar": 7, "isDrum": false}, {"time": 369, "velocity": 108, "pitch": 33, "instrument": 33, "track": 2, "qtime": 33, "bar": 7, "isDrum": false}, {"time": 378, "velocity": 0, "pitch": 33, "instrument": 33, "track": 2, "qtime": 42, "bar": 7, "isDrum": false}, {"time": 378, "velocity": 108, "pitch": 28, "instrument": 33, "track": 2, "qtime": 42, "bar": 7, "isDrum": false}, {"time": 384, "velocity": 0, "pitch": 28, "instrument": 33, "track": 2, "qtime": 48, "bar": 7, "isDrum": false}, {"time": 21, "velocity": 0, "pitch": 76, "instrument": 48, "track": 4, "qtime": 21, "bar": 0, "isDrum": false}, {"time": 24, "velocity": 108, "pitch": 77, "instrument": 48, "track": 4, "qtime": 24, "bar": 0, "isDrum": false}, {"time": 57, "velocity": 0, "pitch": 77, "instrument": 48, "track": 4, "qtime": 9, "bar": 1, "isDrum": false}, {"time": 60, "velocity": 108, "pitch": 76, "instrument": 48, "track": 4, "qtime": 12, "bar": 1, "isDrum": false}, {"time": 66, "velocity": 0, "pitch": 76, "instrument": 48, "track": 4, "qtime": 18, "bar": 1, "isDrum": false}, {"time": 66, "velocity": 108, "pitch": 77, "instrument": 48, "track": 4, "qtime": 18, "bar": 1, "isDrum": false}, {"time": 72, "velocity": 0, "pitch": 77, "instrument": 48, "track": 4, "qtime": 24, "bar": 1, "isDrum": false}, {"time": 72, "velocity": 108, "pitch": 67, "instrument": 48, "track": 4, "qtime": 24, "bar": 1, "isDrum": false}, {"time": 72, "velocity": 108, "pitch": 79, "instrument": 48, "track": 4, "qtime": 24, "bar": 1, "isDrum": false}, {"time": 93, "velocity": 0, "pitch": 67, "instrument": 48, "track": 4, "qtime": 45, "bar": 1, "isDrum": false}, {"time": 93, "velocity": 0, "pitch": 79, "instrument": 48, "track": 4, "qtime": 45, "bar": 1, "isDrum": false}, {"time": 96, "velocity": 108, "pitch": 83, "instrument": 48, "track": 4, "qtime": 0, "bar": 2, "isDrum": false}, {"time": 117, "velocity": 0, "pitch": 83, "instrument": 48, "track": 4, "qtime": 21, "bar": 2, "isDrum": false}, {"time": 120, "velocity": 108, "pitch": 64, "instrument": 48, "track": 4, "qtime": 24, "bar": 2, "isDrum": false}, {"time": 120, "velocity": 108, "pitch": 80, "instrument": 48, "track": 4, "qtime": 24, "bar": 2, "isDrum": false}, {"time": 141, "velocity": 0, "pitch": 64, "instrument": 48, "track": 4, "qtime": 45, "bar": 2, "isDrum": false}, {"time": 141, "velocity": 0, "pitch": 80, "instrument": 48, "track": 4, "qtime": 45, "bar": 2, "isDrum": false}, {"time": 168, "velocity": 108, "pitch": 72, "instrument": 48, "track": 4, "qtime": 24, "bar": 3, "isDrum": false}, {"time": 168, "velocity": 108, "pitch": 76, "instrument": 48, "track": 4, "qtime": 24, "bar": 3, "isDrum": false}, {"time": 168, "velocity": 108, "pitch": 81, "instrument": 48, "track": 4, "qtime": 24, "bar": 3, "isDrum": false}, {"time": 213, "velocity": 0, "pitch": 72, "instrument": 48, "track": 4, "qtime": 21, "bar": 4, "isDrum": false}, {"time": 213, "velocity": 0, "pitch": 76, "instrument": 48, "track": 4, "qtime": 21, "bar": 4, "isDrum": false}, {"time": 213, "velocity": 0, "pitch": 81, "instrument": 48, "track": 4, "qtime": 21, "bar": 4, "isDrum": false}, {"time": 216, "velocity": 108, "pitch": 71, "instrument": 48, "track": 4, "qtime": 24, "bar": 4, "isDrum": false}, {"time": 216, "velocity": 108, "pitch": 74, "instrument": 48, "track": 4, "qtime": 24, "bar": 4, "isDrum": false}, {"time": 216, "velocity": 108, "pitch": 79, "instrument": 48, "track": 4, "qtime": 24, "bar": 4, "isDrum": false}, {"time": 237, "velocity": 0, "pitch": 71, "instrument": 48, "track": 4, "qtime": 45, "bar": 4, "isDrum": false}, {"time": 237, "velocity": 0, "pitch": 74, "instrument": 48, "track": 4, "qtime": 45, "bar": 4, "isDrum": false}, {"time": 237, "velocity": 0, "pitch": 79, "instrument": 48, "track": 4, "qtime": 45, "bar": 4, "isDrum": false}, {"time": 240, "velocity": 108, "pitch": 69, "instrument": 48, "track": 4, "qtime": 0, "bar": 5, "isDrum": false}, {"time": 240, "velocity": 108, "pitch": 72, "instrument": 48, "track": 4, "qtime": 0, "bar": 5, "isDrum": false}, {"time": 240, "velocity": 108, "pitch": 77, "instrument": 48, "track": 4, "qtime": 0, "bar": 5, "isDrum": false}, {"time": 261, "velocity": 0, "pitch": 69, "instrument": 48, "track": 4, "qtime": 21, "bar": 5, "isDrum": false}, {"time": 261, "velocity": 0, "pitch": 72, "instrument": 48, "track": 4, "qtime": 21, "bar": 5, "isDrum": false}, {"time": 261, "velocity": 0, "pitch": 77, "instrument": 48, "track": 4, "qtime": 21, "bar": 5, "isDrum": false}, {"time": 264, "velocity": 108, "pitch": 69, "instrument": 48, "track": 4, "qtime": 24, "bar": 5, "isDrum": false}, {"time": 264, "velocity": 108, "pitch": 72, "instrument": 48, "track": 4, "qtime": 24, "bar": 5, "isDrum": false}, {"time": 264, "velocity": 108, "pitch": 76, "instrument": 48, "track": 4, "qtime": 24, "bar": 5, "isDrum": false}, {"time": 309, "velocity": 0, "pitch": 69, "instrument": 48, "track": 4, "qtime": 21, "bar": 6, "isDrum": false}, {"time": 309, "velocity": 0, "pitch": 72, "instrument": 48, "track": 4, "qtime": 21, "bar": 6, "isDrum": false}, {"time": 309, "velocity": 0, "pitch": 76, "instrument": 48, "track": 4, "qtime": 21, "bar": 6, "isDrum": false}, {"time": 312, "velocity": 108, "pitch": 71, "instrument": 48, "track": 4, "qtime": 24, "bar": 6, "isDrum": false}, {"time": 312, "velocity": 108, "pitch": 74, "instrument": 48, "track": 4, "qtime": 24, "bar": 6, "isDrum": false}, {"time": 312, "velocity": 108, "pitch": 79, "instrument": 48, "track": 4, "qtime": 24, "bar": 6, "isDrum": false}, {"time": 333, "velocity": 0, "pitch": 71, "instrument": 48, "track": 4, "qtime": 45, "bar": 6, "isDrum": false}, {"time": 333, "velocity": 0, "pitch": 74, "instrument": 48, "track": 4, "qtime": 45, "bar": 6, "isDrum": false}, {"time": 333, "velocity": 0, "pitch": 79, "instrument": 48, "track": 4, "qtime": 45, "bar": 6, "isDrum": false}, {"time": 336, "velocity": 108, "pitch": 69, "instrument": 48, "track": 4, "qtime": 0, "bar": 7, "isDrum": false}, {"time": 336, "velocity": 108, "pitch": 72, "instrument": 48, "track": 4, "qtime": 0, "bar": 7, "isDrum": false}, {"time": 336, "velocity": 108, "pitch": 77, "instrument": 48, "track": 4, "qtime": 0, "bar": 7, "isDrum": false}, {"time": 357, "velocity": 0, "pitch": 69, "instrument": 48, "track": 4, "qtime": 21, "bar": 7, "isDrum": false}, {"time": 357, "velocity": 0, "pitch": 72, "instrument": 48, "track": 4, "qtime": 21, "bar": 7, "isDrum": false}, {"time": 357, "velocity": 0, "pitch": 77, "instrument": 48, "track": 4, "qtime": 21, "bar": 7, "isDrum": false}, {"time": 360, "velocity": 108, "pitch": 69, "instrument": 48, "track": 4, "qtime": 24, "bar": 7, "isDrum": false}, {"time": 360, "velocity": 108, "pitch": 72, "instrument": 48, "track": 4, "qtime": 24, "bar": 7, "isDrum": false}, {"time": 360, "velocity": 108, "pitch": 76, "instrument": 48, "track": 4, "qtime": 24, "bar": 7, "isDrum": false}], "resolution": 12, "tempo": 97, "minPitch": 23, "maxPitch": 85, "validSegments": [0], "validTracks": [15], "segmentLength": 8}, "audio": "https://www.sfu.ca/~jeffe/examples/8b_gibbs_orig_6.mp3"}, {"src": "gen/8b_gibbs_gen_6.json", "highlights": [[0, 1, 2, 3, 4, 5, 6, 7], [], [], [], [], [], [], []], "caption": "We resample the guitar track from 13a", "mixer": [8, 8, 8, 8, 8, 8, 8, 8], "sample_id": "13b", "json": {"tracks": [{"bars": [{"events": [926, 927, 928, 929, 930, 931, 932, 933, 934, 935, 936, 937, 938, 939, 940, 941, 942, 943, 944, 945, 946, 947, 948, 949, 950, 951, 952, 953, 954, 955, 956, 957, 958, 959, 960, 961, 962, 963, 964, 965, 966, 967, 968, 969, 970, 971, 972, 973], "isFourFour": true, "hasNotes": true, "time": 0}, {"events": [974, 975, 976, 977, 978, 979, 980, 981, 982, 983, 984, 985, 986, 987, 988, 989, 990, 991, 992, 993, 994, 995, 996, 997, 998, 999, 1000, 1001, 1002, 1003, 1004, 1005, 1006, 1007, 1008, 1009], "isFourFour": true, "hasNotes": true, "time": 48}, {"events": [1010, 1011, 1012, 1013, 1014, 1015, 1016, 1017, 1018, 1019, 1020, 1021, 1022, 1023, 1024, 1025, 1026, 1027, 1028, 1029, 1030, 1031, 1032, 1033, 1034, 1035, 1036, 1037, 1038, 1039, 1040, 1041, 1042, 1043, 1044, 1045], "isFourFour": true, "hasNotes": true, "time": 96}, {"events": [1046, 1047, 1048, 1049, 1050, 1051, 1052, 1053, 1054, 1055, 1056, 1057, 1058, 1059, 1060, 1061, 1062, 1063, 1064, 1065, 1066, 1067, 1068, 1069, 1070, 1071, 1072, 1073, 1074, 1075, 1076, 1077, 1078, 1079, 1080, 1081, 1082, 1083, 1084, 1085, 1086, 1087, 1088, 1089, 1090, 1091, 1092, 1093], "isFourFour": true, "hasNotes": true, "time": 144}, {"events": [1094, 1095, 1096, 1097, 1098, 1099, 1100, 1101, 1102, 1103, 1104, 1105, 1106, 1107, 1108, 1109, 1110, 1111, 1112, 1113, 1114, 1115, 1116, 1117, 1118, 1119, 1120, 1121, 1122, 1123, 1124, 1125, 1126, 1127, 1128, 1129, 1130, 1131, 1132, 1133, 1134, 1135, 1136, 1137, 1138, 1139, 1140, 1141, 1142, 1143, 1144, 1145, 1146, 1147], "isFourFour": true, "hasNotes": true, "time": 192}, {"events": [1148, 1149, 1150, 1151, 1152, 1153, 1154, 1155, 1156, 1157, 1158, 1159, 1160, 1161, 1162, 1163, 1164, 1165, 1166, 1167, 1168, 1169, 1170, 1171, 1172, 1173, 1174, 1175, 1176, 1177, 1178, 1179, 1180, 1181, 1182, 1183, 1184, 1185, 1186, 1187, 1188, 1189, 1190, 1191, 1192, 1193, 1194, 1195, 1196, 1197, 1198, 1199, 1200, 1201, 1202, 1203, 1204, 1205, 1206, 1207], "isFourFour": true, "hasNotes": true, "time": 240}, {"events": [1208, 1209, 1210, 1211, 1212, 1213, 1214, 1215, 1216, 1217, 1218, 1219, 1220, 1221, 1222, 1223, 1224, 1225, 1226, 1227, 1228, 1229, 1230, 1231, 1232, 1233, 1234, 1235, 1236, 1237, 1238, 1239, 1240, 1241, 1242, 1243, 1244, 1245, 1246, 1247, 1248, 1249, 1250, 1251, 1252, 1253, 1254, 1255, 1256, 1257, 1258, 1259, 1260, 1261], "isFourFour": true, "hasNotes": true, "time": 288}, {"events": [1262, 1263, 1264, 1265, 1266, 1267, 1268, 1269, 1270, 1271, 1272, 1273, 1274, 1275, 1276, 1277, 1278, 1279, 1280, 1281, 1282, 1283, 1284, 1285, 1286, 1287, 1288, 1289, 1290, 1291, 1292, 1293, 1294, 1295, 1296, 1297, 1298, 1299, 1300, 1301, 1302, 1303, 1304, 1305, 1306, 1307, 1308, 1309, 1310, 1311, 1312, 1313, 1314, 1315], "isFourFour": true, "hasNotes": true, "time": 336}], "isDrum": false, "minPitch": 52, "maxPitch": 71, "instrument": 24, "avPolyphony": 3, "noteDensity": 9, "noteDensityV2": 9}, {"bars": [{"events": [0, 1, 2, 3, 4, 5, 6, 7, 8, 9, 10, 11, 12, 13, 14, 15, 16, 17, 18, 19, 20, 21, 22, 23, 24, 25, 26, 27, 28, 29, 30, 31, 32, 33, 34, 35, 36, 37, 38, 39, 40, 41, 42, 43, 44, 45, 46, 47, 48, 49, 50, 51, 52, 53, 54, 55, 56, 57, 58, 59, 60, 61, 62, 63, 64, 65, 66, 67, 68, 69, 70, 71, 72, 73, 74, 75, 76, 77, 78, 79, 80, 81, 82, 83, 84, 85, 86, 87], "isFourFour": true, "hasNotes": true, "time": 0}, {"events": [88, 89, 90, 91, 92, 93, 94, 95, 96, 97, 98, 99, 100, 101, 102, 103, 104, 105, 106, 107, 108, 109, 110, 111, 112, 113, 114, 115, 116, 117, 118, 119, 120, 121, 122, 123, 124, 125, 126, 127, 128, 129, 130, 131, 132, 133, 134, 135, 136, 137, 138, 139, 140, 141, 142, 143, 144, 145, 146, 147, 148, 149, 150, 151, 152, 153, 154, 155, 156, 157, 158, 159, 160, 161, 162, 163, 164, 165, 166, 167, 168, 169, 170, 171, 172, 173], "isFourFour": true, "hasNotes": true, "time": 48}, {"events": [174, 175, 176, 177, 178, 179, 180, 181, 182, 183, 184, 185, 186, 187, 188, 189, 190, 191, 192, 193, 194, 195, 196, 197, 198, 199, 200, 201, 202, 203, 204, 205, 206, 207, 208, 209, 210, 211, 212, 213, 214, 215, 216, 217, 218, 219, 220, 221, 222, 223, 224, 225, 226, 227, 228, 229, 230, 231, 232, 233, 234, 235, 236, 237, 238, 239, 240, 241, 242, 243, 244, 245, 246, 247, 248, 249, 250, 251, 252, 253, 254, 255, 256, 257, 258, 259, 260, 261], "isFourFour": true, "hasNotes": true, "time": 96}, {"events": [262, 263, 264, 265, 266, 267, 268, 269, 270, 271, 272, 273, 274, 275, 276, 277, 278, 279, 280, 281, 282, 283, 284, 285, 286, 287, 288, 289, 290, 291, 292, 293, 294, 295, 296, 297, 298, 299, 300, 301, 302, 303, 304, 305, 306, 307, 308, 309, 310, 311, 312, 313, 314, 315, 316, 317, 318, 319, 320, 321, 322, 323, 324, 325, 326, 327, 328, 329, 330, 331, 332, 333, 334, 335, 336, 337, 338, 339, 340, 341, 342, 343, 344, 345, 346, 347, 348, 349, 350, 351, 352, 353, 354, 355, 356, 357], "isFourFour": true, "hasNotes": true, "time": 144}, {"events": [358, 359, 360, 361, 362, 363, 364, 365, 366, 367, 368, 369, 370, 371, 372, 373, 374, 375, 376, 377, 378, 379, 380, 381, 382, 383, 384, 385, 386, 387, 388, 389, 390, 391, 392, 393, 394, 395, 396, 397, 398, 399, 400, 401, 402, 403, 404, 405, 406, 407, 408, 409, 410, 411, 412, 413, 414, 415, 416, 417, 418, 419, 420, 421, 422, 423, 424, 425, 426, 427, 428, 429, 430, 431, 432, 433, 434, 435, 436, 437, 438, 439, 440, 441, 442, 443, 444, 445, 446, 447, 448, 449, 450, 451, 452, 453, 454, 455, 456, 457], "isFourFour": true, "hasNotes": true, "time": 192}, {"events": [458, 459, 460, 461, 462, 463, 464, 465, 466, 467, 468, 469, 470, 471, 472, 473, 474, 475, 476, 477, 478, 479, 480, 481, 482, 483, 484, 485, 486, 487, 488, 489, 490, 491, 492, 493, 494, 495, 496, 497, 498, 499, 500, 501, 502, 503, 504, 505, 506, 507, 508, 509, 510, 511, 512, 513, 514, 515, 516, 517, 518, 519, 520, 521, 522, 523, 524, 525, 526, 527, 528, 529, 530, 531, 532, 533, 534, 535, 536, 537, 538, 539, 540, 541, 542, 543, 544, 545, 546, 547, 548, 549, 550, 551, 552, 553, 554, 555, 556, 557, 558, 559, 560, 561, 562, 563, 564, 565], "isFourFour": true, "hasNotes": true, "time": 240}, {"events": [566, 567, 568, 569, 570, 571, 572, 573, 574, 575, 576, 577, 578, 579, 580, 581, 582, 583, 584, 585, 586, 587, 588, 589, 590, 591, 592, 593, 594, 595, 596, 597, 598, 599, 600, 601, 602, 603, 604, 605, 606, 607, 608, 609, 610, 611, 612, 613, 614, 615, 616, 617, 618, 619, 620, 621, 622, 623, 624, 625, 626, 627, 628, 629, 630, 631, 632, 633, 634, 635, 636, 637, 638, 639, 640, 641, 642, 643, 644, 645, 646, 647, 648, 649, 650, 651, 652, 653, 654, 655, 656, 657, 658, 659, 660, 661, 662, 663, 664, 665], "isFourFour": true, "hasNotes": true, "time": 288}, {"events": [666, 667, 668, 669, 670, 671, 672, 673, 674, 675, 676, 677, 678, 679, 680, 681, 682, 683, 684, 685, 686, 687, 688, 689, 690, 691, 692, 693, 694, 695, 696, 697, 698, 699, 700, 701, 702, 703, 704, 705, 706, 707, 708, 709, 710, 711, 712, 713, 714, 715, 716, 717, 718, 719, 720, 721, 722, 723, 724, 725, 726, 727, 728, 729, 730, 731, 732, 733, 734, 735, 736, 737, 738, 739, 740, 741, 742, 743, 744, 745, 746, 747, 748, 749, 750, 751, 752, 753, 754, 755, 756, 757, 758, 759, 760, 761, 762, 763, 764, 765, 766, 767, 768, 769, 770, 771, 772, 773], "isFourFour": true, "hasNotes": true, "time": 336}], "isDrum": true, "minPitch": 35, "maxPitch": 85, "instrument": 0, "avPolyphony": 3.0859375, "noteDensity": 9, "noteDensityV2": 9}, {"bars": [{"events": [774, 775, 776, 777, 778, 779, 780, 781, 782, 783, 784, 785], "isFourFour": true, "hasNotes": true, "time": 0}, {"events": [786, 787, 788, 789, 790, 791, 792, 793, 794, 795, 796, 797], "isFourFour": true, "hasNotes": true, "time": 48}, {"events": [798, 799, 800, 801, 802, 803, 804, 805, 806, 807, 808, 809], "isFourFour": true, "hasNotes": true, "time": 96}, {"events": [810, 811, 812, 813, 814, 815, 816, 817, 818, 819, 820, 821], "isFourFour": true, "hasNotes": true, "time": 144}, {"events": [822, 823, 824, 825, 826, 827, 828, 829, 830, 831, 832, 833], "isFourFour": true, "hasNotes": true, "time": 192}, {"events": [834, 835, 836, 837, 838, 839, 840, 841, 842, 843, 844, 845], "isFourFour": true, "hasNotes": true, "time": 240}, {"events": [846, 847, 848, 849, 850, 851, 852, 853, 854, 855, 856, 857], "isFourFour": true, "hasNotes": true, "time": 288}, {"events": [858, 859, 860, 861, 862, 863, 864, 865, 866, 867, 868, 869], "isFourFour": true, "hasNotes": true, "time": 336}], "isDrum": false, "minPitch": 24, "maxPitch": 40, "instrument": 33, "avPolyphony": 1, "noteDensity": 9, "noteDensityV2": 6}, {"bars": [{"events": [870, 871], "isFourFour": true, "hasNotes": true, "time": 0}, {"events": [872, 873, 874, 875, 876, 877, 878, 879, 880], "isFourFour": true, "hasNotes": true, "time": 48}, {"events": [881, 882, 883, 884, 885, 886], "isFourFour": true, "hasNotes": true, "time": 96}, {"events": [887, 888, 889], "isFourFour": true, "hasNotes": true, "time": 144}, {"events": [890, 891, 892, 893, 894, 895, 896, 897, 898], "isFourFour": true, "hasNotes": true, "time": 192}, {"events": [899, 900, 901, 902, 903, 904, 905, 906, 907], "isFourFour": true, "hasNotes": true, "time": 240}, {"events": [908, 909, 910, 911, 912, 913, 914, 915, 916], "isFourFour": true, "hasNotes": true, "time": 288}, {"events": [917, 918, 919, 920, 921, 922, 923, 924, 925], "isFourFour": true, "hasNotes": true, "time": 336}], "isDrum": false, "minPitch": 64, "maxPitch": 83, "instrument": 48, "avPolyphony": 2.38297868, "noteDensity": 8, "noteDensityV2": 4}], "events": [{"time": 0, "velocity": 108, "pitch": 35, "instrument": 0, "track": 9, "qtime": 0, "isDrum": true}, {"time": 0, "velocity": 108, "pitch": 54, "instrument": 0, "track": 9, "qtime": 0, "isDrum": true}, {"time": 0, "velocity": 108, "pitch": 69, "instrument": 0, "track": 9, "qtime": 0, "isDrum": true}, {"time": 3, "velocity": 0, "pitch": 35, "instrument": 0, "track": 9, "qtime": 3, "isDrum": true}, {"time": 3, "velocity": 0, "pitch": 54, "instrument": 0, "track": 9, "qtime": 3, "isDrum": true}, {"time": 3, "velocity": 0, "pitch": 69, "instrument": 0, "track": 9, "qtime": 3, "isDrum": true}, {"time": 3, "velocity": 108, "pitch": 54, "instrument": 0, "track": 9, "qtime": 3, "isDrum": true}, {"time": 3, "velocity": 108, "pitch": 60, "instrument": 0, "track": 9, "qtime": 3, "isDrum": true}, {"time": 6, "velocity": 0, "pitch": 54, "instrument": 0, "track": 9, "qtime": 6, "isDrum": true}, {"time": 6, "velocity": 0, "pitch": 60, "instrument": 0, "track": 9, "qtime": 6, "isDrum": true}, {"time": 6, "velocity": 108, "pitch": 54, "instrument": 0, "track": 9, "qtime": 6, "isDrum": true}, {"time": 6, "velocity": 108, "pitch": 61, "instrument": 0, "track": 9, "qtime": 6, "isDrum": true}, {"time": 6, "velocity": 108, "pitch": 82, "instrument": 0, "track": 9, "qtime": 6, "isDrum": true}, {"time": 9, "velocity": 0, "pitch": 54, "instrument": 0, "track": 9, "qtime": 9, "isDrum": true}, {"time": 9, "velocity": 0, "pitch": 61, "instrument": 0, "track": 9, "qtime": 9, "isDrum": true}, {"time": 9, "velocity": 0, "pitch": 82, "instrument": 0, "track": 9, "qtime": 9, "isDrum": true}, {"time": 9, "velocity": 108, "pitch": 35, "instrument": 0, "track": 9, "qtime": 9, "isDrum": true}, {"time": 9, "velocity": 108, "pitch": 54, "instrument": 0, "track": 9, "qtime": 9, "isDrum": true}, {"time": 9, "velocity": 108, "pitch": 63, "instrument": 0, "track": 9, "qtime": 9, "isDrum": true}, {"time": 10, "velocity": 0, "pitch": 63, "instrument": 0, "track": 9, "qtime": 10, "isDrum": true}, {"time": 11, "velocity": 108, "pitch": 69, "instrument": 0, "track": 9, "qtime": 11, "isDrum": true}, {"time": 12, "velocity": 0, "pitch": 35, "instrument": 0, "track": 9, "qtime": 12, "isDrum": true}, {"time": 12, "velocity": 0, "pitch": 54, "instrument": 0, "track": 9, "qtime": 12, "isDrum": true}, {"time": 12, "velocity": 0, "pitch": 69, "instrument": 0, "track": 9, "qtime": 12, "isDrum": true}, {"time": 12, "velocity": 108, "pitch": 39, "instrument": 0, "track": 9, "qtime": 12, "isDrum": true}, {"time": 12, "velocity": 108, "pitch": 40, "instrument": 0, "track": 9, "qtime": 12, "isDrum": true}, {"time": 12, "velocity": 108, "pitch": 54, "instrument": 0, "track": 9, "qtime": 12, "isDrum": true}, {"time": 12, "velocity": 108, "pitch": 63, "instrument": 0, "track": 9, "qtime": 12, "isDrum": true}, {"time": 12, "velocity": 108, "pitch": 69, "instrument": 0, "track": 9, "qtime": 12, "isDrum": true}, {"time": 15, "velocity": 0, "pitch": 39, "instrument": 0, "track": 9, "qtime": 15, "isDrum": true}, {"time": 15, "velocity": 0, "pitch": 40, "instrument": 0, "track": 9, "qtime": 15, "isDrum": true}, {"time": 15, "velocity": 0, "pitch": 54, "instrument": 0, "track": 9, "qtime": 15, "isDrum": true}, {"time": 15, "velocity": 0, "pitch": 63, "instrument": 0, "track": 9, "qtime": 15, "isDrum": true}, {"time": 15, "velocity": 0, "pitch": 69, "instrument": 0, "track": 9, "qtime": 15, "isDrum": true}, {"time": 15, "velocity": 108, "pitch": 54, "instrument": 0, "track": 9, "qtime": 15, "isDrum": true}, {"time": 15, "velocity": 108, "pitch": 61, "instrument": 0, "track": 9, "qtime": 15, "isDrum": true}, {"time": 18, "velocity": 0, "pitch": 54, "instrument": 0, "track": 9, "qtime": 18, "isDrum": true}, {"time": 18, "velocity": 0, "pitch": 61, "instrument": 0, "track": 9, "qtime": 18, "isDrum": true}, {"time": 18, "velocity": 108, "pitch": 35, "instrument": 0, "track": 9, "qtime": 18, "isDrum": true}, {"time": 18, "velocity": 108, "pitch": 54, "instrument": 0, "track": 9, "qtime": 18, "isDrum": true}, {"time": 18, "velocity": 108, "pitch": 61, "instrument": 0, "track": 9, "qtime": 18, "isDrum": true}, {"time": 18, "velocity": 108, "pitch": 82, "instrument": 0, "track": 9, "qtime": 18, "isDrum": true}, {"time": 21, "velocity": 0, "pitch": 35, "instrument": 0, "track": 9, "qtime": 21, "isDrum": true}, {"time": 21, "velocity": 0, "pitch": 54, "instrument": 0, "track": 9, "qtime": 21, "isDrum": true}, {"time": 21, "velocity": 0, "pitch": 61, "instrument": 0, "track": 9, "qtime": 21, "isDrum": true}, {"time": 21, "velocity": 0, "pitch": 82, "instrument": 0, "track": 9, "qtime": 21, "isDrum": true}, {"time": 21, "velocity": 108, "pitch": 54, "instrument": 0, "track": 9, "qtime": 21, "isDrum": true}, {"time": 21, "velocity": 108, "pitch": 69, "instrument": 0, "track": 9, "qtime": 21, "isDrum": true}, {"time": 24, "velocity": 0, "pitch": 54, "instrument": 0, "track": 9, "qtime": 24, "isDrum": true}, {"time": 24, "velocity": 0, "pitch": 69, "instrument": 0, "track": 9, "qtime": 24, "isDrum": true}, {"time": 24, "velocity": 108, "pitch": 35, "instrument": 0, "track": 9, "qtime": 24, "isDrum": true}, {"time": 24, "velocity": 108, "pitch": 54, "instrument": 0, "track": 9, "qtime": 24, "isDrum": true}, {"time": 24, "velocity": 108, "pitch": 69, "instrument": 0, "track": 9, "qtime": 24, "isDrum": true}, {"time": 27, "velocity": 0, "pitch": 35, "instrument": 0, "track": 9, "qtime": 27, "isDrum": true}, {"time": 27, "velocity": 0, "pitch": 54, "instrument": 0, "track": 9, "qtime": 27, "isDrum": true}, {"time": 27, "velocity": 108, "pitch": 54, "instrument": 0, "track": 9, "qtime": 27, "isDrum": true}, {"time": 30, "velocity": 0, "pitch": 54, "instrument": 0, "track": 9, "qtime": 30, "isDrum": true}, {"time": 30, "velocity": 0, "pitch": 69, "instrument": 0, "track": 9, "qtime": 30, "isDrum": true}, {"time": 30, "velocity": 108, "pitch": 54, "instrument": 0, "track": 9, "qtime": 30, "isDrum": true}, {"time": 30, "velocity": 108, "pitch": 82, "instrument": 0, "track": 9, "qtime": 30, "isDrum": true}, {"time": 33, "velocity": 0, "pitch": 54, "instrument": 0, "track": 9, "qtime": 33, "isDrum": true}, {"time": 33, "velocity": 0, "pitch": 82, "instrument": 0, "track": 9, "qtime": 33, "isDrum": true}, {"time": 33, "velocity": 108, "pitch": 35, "instrument": 0, "track": 9, "qtime": 33, "isDrum": true}, {"time": 33, "velocity": 108, "pitch": 54, "instrument": 0, "track": 9, "qtime": 33, "isDrum": true}, {"time": 33, "velocity": 108, "pitch": 69, "instrument": 0, "track": 9, "qtime": 33, "isDrum": true}, {"time": 36, "velocity": 0, "pitch": 35, "instrument": 0, "track": 9, "qtime": 36, "isDrum": true}, {"time": 36, "velocity": 0, "pitch": 54, "instrument": 0, "track": 9, "qtime": 36, "isDrum": true}, {"time": 36, "velocity": 0, "pitch": 69, "instrument": 0, "track": 9, "qtime": 36, "isDrum": true}, {"time": 36, "velocity": 108, "pitch": 39, "instrument": 0, "track": 9, "qtime": 36, "isDrum": true}, {"time": 36, "velocity": 108, "pitch": 40, "instrument": 0, "track": 9, "qtime": 36, "isDrum": true}, {"time": 36, "velocity": 108, "pitch": 54, "instrument": 0, "track": 9, "qtime": 36, "isDrum": true}, {"time": 36, "velocity": 108, "pitch": 69, "instrument": 0, "track": 9, "qtime": 36, "isDrum": true}, {"time": 39, "velocity": 0, "pitch": 39, "instrument": 0, "track": 9, "qtime": 39, "isDrum": true}, {"time": 39, "velocity": 0, "pitch": 40, "instrument": 0, "track": 9, "qtime": 39, "isDrum": true}, {"time": 39, "velocity": 0, "pitch": 54, "instrument": 0, "track": 9, "qtime": 39, "isDrum": true}, {"time": 39, "velocity": 108, "pitch": 54, "instrument": 0, "track": 9, "qtime": 39, "isDrum": true}, {"time": 42, "velocity": 0, "pitch": 54, "instrument": 0, "track": 9, "qtime": 42, "isDrum": true}, {"time": 42, "velocity": 0, "pitch": 69, "instrument": 0, "track": 9, "qtime": 42, "isDrum": true}, {"time": 42, "velocity": 108, "pitch": 35, "instrument": 0, "track": 9, "qtime": 42, "isDrum": true}, {"time": 42, "velocity": 108, "pitch": 54, "instrument": 0, "track": 9, "qtime": 42, "isDrum": true}, {"time": 42, "velocity": 108, "pitch": 82, "instrument": 0, "track": 9, "qtime": 42, "isDrum": true}, {"time": 45, "velocity": 0, "pitch": 35, "instrument": 0, "track": 9, "qtime": 45, "isDrum": true}, {"time": 45, "velocity": 0, "pitch": 54, "instrument": 0, "track": 9, "qtime": 45, "isDrum": true}, {"time": 45, "velocity": 108, "pitch": 54, "instrument": 0, "track": 9, "qtime": 45, "isDrum": true}, {"time": 46, "velocity": 0, "pitch": 82, "instrument": 0, "track": 9, "qtime": 46, "isDrum": true}, {"time": 47, "velocity": 108, "pitch": 69, "instrument": 0, "track": 9, "qtime": 47, "isDrum": true}, {"time": 48, "velocity": 0, "pitch": 54, "instrument": 0, "track": 9, "qtime": 48, "isDrum": true}, {"time": 48, "velocity": 0, "pitch": 69, "instrument": 0, "track": 9, "qtime": 48, "isDrum": true}, {"time": 48, "velocity": 108, "pitch": 35, "instrument": 0, "track": 9, "qtime": 0, "isDrum": true}, {"time": 48, "velocity": 108, "pitch": 54, "instrument": 0, "track": 9, "qtime": 0, "isDrum": true}, {"time": 48, "velocity": 108, "pitch": 69, "instrument": 0, "track": 9, "qtime": 0, "isDrum": true}, {"time": 51, "velocity": 0, "pitch": 35, "instrument": 0, "track": 9, "qtime": 3, "isDrum": true}, {"time": 51, "velocity": 0, "pitch": 54, "instrument": 0, "track": 9, "qtime": 3, "isDrum": true}, {"time": 51, "velocity": 108, "pitch": 54, "instrument": 0, "track": 9, "qtime": 3, "isDrum": true}, {"time": 54, "velocity": 0, "pitch": 54, "instrument": 0, "track": 9, "qtime": 6, "isDrum": true}, {"time": 54, "velocity": 0, "pitch": 69, "instrument": 0, "track": 9, "qtime": 6, "isDrum": true}, {"time": 54, "velocity": 108, "pitch": 54, "instrument": 0, "track": 9, "qtime": 6, "isDrum": true}, {"time": 54, "velocity": 108, "pitch": 61, "instrument": 0, "track": 9, "qtime": 6, "isDrum": true}, {"time": 54, "velocity": 108, "pitch": 82, "instrument": 0, "track": 9, "qtime": 6, "isDrum": true}, {"time": 57, "velocity": 0, "pitch": 54, "instrument": 0, "track": 9, "qtime": 9, "isDrum": true}, {"time": 57, "velocity": 0, "pitch": 61, "instrument": 0, "track": 9, "qtime": 9, "isDrum": true}, {"time": 57, "velocity": 0, "pitch": 82, "instrument": 0, "track": 9, "qtime": 9, "isDrum": true}, {"time": 57, "velocity": 108, "pitch": 35, "instrument": 0, "track": 9, "qtime": 9, "isDrum": true}, {"time": 57, "velocity": 108, "pitch": 54, "instrument": 0, "track": 9, "qtime": 9, "isDrum": true}, {"time": 57, "velocity": 108, "pitch": 63, "instrument": 0, "track": 9, "qtime": 9, "isDrum": true}, {"time": 58, "velocity": 0, "pitch": 63, "instrument": 0, "track": 9, "qtime": 10, "isDrum": true}, {"time": 59, "velocity": 108, "pitch": 69, "instrument": 0, "track": 9, "qtime": 11, "isDrum": true}, {"time": 60, "velocity": 0, "pitch": 35, "instrument": 0, "track": 9, "qtime": 12, "isDrum": true}, {"time": 60, "velocity": 0, "pitch": 54, "instrument": 0, "track": 9, "qtime": 12, "isDrum": true}, {"time": 60, "velocity": 0, "pitch": 69, "instrument": 0, "track": 9, "qtime": 12, "isDrum": true}, {"time": 60, "velocity": 108, "pitch": 39, "instrument": 0, "track": 9, "qtime": 12, "isDrum": true}, {"time": 60, "velocity": 108, "pitch": 40, "instrument": 0, "track": 9, "qtime": 12, "isDrum": true}, {"time": 60, "velocity": 108, "pitch": 54, "instrument": 0, "track": 9, "qtime": 12, "isDrum": true}, {"time": 60, "velocity": 108, "pitch": 63, "instrument": 0, "track": 9, "qtime": 12, "isDrum": true}, {"time": 60, "velocity": 108, "pitch": 69, "instrument": 0, "track": 9, "qtime": 12, "isDrum": true}, {"time": 63, "velocity": 0, "pitch": 39, "instrument": 0, "track": 9, "qtime": 15, "isDrum": true}, {"time": 63, "velocity": 0, "pitch": 40, "instrument": 0, "track": 9, "qtime": 15, "isDrum": true}, {"time": 63, "velocity": 0, "pitch": 54, "instrument": 0, "track": 9, "qtime": 15, "isDrum": true}, {"time": 63, "velocity": 0, "pitch": 63, "instrument": 0, "track": 9, "qtime": 15, "isDrum": true}, {"time": 63, "velocity": 0, "pitch": 69, "instrument": 0, "track": 9, "qtime": 15, "isDrum": true}, {"time": 63, "velocity": 108, "pitch": 54, "instrument": 0, "track": 9, "qtime": 15, "isDrum": true}, {"time": 63, "velocity": 108, "pitch": 61, "instrument": 0, "track": 9, "qtime": 15, "isDrum": true}, {"time": 66, "velocity": 0, "pitch": 54, "instrument": 0, "track": 9, "qtime": 18, "isDrum": true}, {"time": 66, "velocity": 0, "pitch": 61, "instrument": 0, "track": 9, "qtime": 18, "isDrum": true}, {"time": 66, "velocity": 108, "pitch": 35, "instrument": 0, "track": 9, "qtime": 18, "isDrum": true}, {"time": 66, "velocity": 108, "pitch": 54, "instrument": 0, "track": 9, "qtime": 18, "isDrum": true}, {"time": 66, "velocity": 108, "pitch": 61, "instrument": 0, "track": 9, "qtime": 18, "isDrum": true}, {"time": 66, "velocity": 108, "pitch": 82, "instrument": 0, "track": 9, "qtime": 18, "isDrum": true}, {"time": 69, "velocity": 0, "pitch": 35, "instrument": 0, "track": 9, "qtime": 21, "isDrum": true}, {"time": 69, "velocity": 0, "pitch": 54, "instrument": 0, "track": 9, "qtime": 21, "isDrum": true}, {"time": 69, "velocity": 0, "pitch": 61, "instrument": 0, "track": 9, "qtime": 21, "isDrum": true}, {"time": 69, "velocity": 0, "pitch": 82, "instrument": 0, "track": 9, "qtime": 21, "isDrum": true}, {"time": 69, "velocity": 108, "pitch": 54, "instrument": 0, "track": 9, "qtime": 21, "isDrum": true}, {"time": 69, "velocity": 108, "pitch": 69, "instrument": 0, "track": 9, "qtime": 21, "isDrum": true}, {"time": 72, "velocity": 0, "pitch": 54, "instrument": 0, "track": 9, "qtime": 24, "isDrum": true}, {"time": 72, "velocity": 0, "pitch": 69, "instrument": 0, "track": 9, "qtime": 24, "isDrum": true}, {"time": 72, "velocity": 108, "pitch": 35, "instrument": 0, "track": 9, "qtime": 24, "isDrum": true}, {"time": 72, "velocity": 108, "pitch": 54, "instrument": 0, "track": 9, "qtime": 24, "isDrum": true}, {"time": 72, "velocity": 108, "pitch": 69, "instrument": 0, "track": 9, "qtime": 24, "isDrum": true}, {"time": 75, "velocity": 0, "pitch": 35, "instrument": 0, "track": 9, "qtime": 27, "isDrum": true}, {"time": 75, "velocity": 0, "pitch": 54, "instrument": 0, "track": 9, "qtime": 27, "isDrum": true}, {"time": 75, "velocity": 108, "pitch": 54, "instrument": 0, "track": 9, "qtime": 27, "isDrum": true}, {"time": 78, "velocity": 0, "pitch": 54, "instrument": 0, "track": 9, "qtime": 30, "isDrum": true}, {"time": 78, "velocity": 0, "pitch": 69, "instrument": 0, "track": 9, "qtime": 30, "isDrum": true}, {"time": 78, "velocity": 108, "pitch": 54, "instrument": 0, "track": 9, "qtime": 30, "isDrum": true}, {"time": 78, "velocity": 108, "pitch": 82, "instrument": 0, "track": 9, "qtime": 30, "isDrum": true}, {"time": 81, "velocity": 0, "pitch": 54, "instrument": 0, "track": 9, "qtime": 33, "isDrum": true}, {"time": 81, "velocity": 0, "pitch": 82, "instrument": 0, "track": 9, "qtime": 33, "isDrum": true}, {"time": 81, "velocity": 108, "pitch": 35, "instrument": 0, "track": 9, "qtime": 33, "isDrum": true}, {"time": 81, "velocity": 108, "pitch": 54, "instrument": 0, "track": 9, "qtime": 33, "isDrum": true}, {"time": 81, "velocity": 108, "pitch": 69, "instrument": 0, "track": 9, "qtime": 33, "isDrum": true}, {"time": 84, "velocity": 0, "pitch": 35, "instrument": 0, "track": 9, "qtime": 36, "isDrum": true}, {"time": 84, "velocity": 0, "pitch": 54, "instrument": 0, "track": 9, "qtime": 36, "isDrum": true}, {"time": 84, "velocity": 0, "pitch": 69, "instrument": 0, "track": 9, "qtime": 36, "isDrum": true}, {"time": 84, "velocity": 108, "pitch": 39, "instrument": 0, "track": 9, "qtime": 36, "isDrum": true}, {"time": 84, "velocity": 108, "pitch": 40, "instrument": 0, "track": 9, "qtime": 36, "isDrum": true}, {"time": 84, "velocity": 108, "pitch": 54, "instrument": 0, "track": 9, "qtime": 36, "isDrum": true}, {"time": 84, "velocity": 108, "pitch": 69, "instrument": 0, "track": 9, "qtime": 36, "isDrum": true}, {"time": 87, "velocity": 0, "pitch": 39, "instrument": 0, "track": 9, "qtime": 39, "isDrum": true}, {"time": 87, "velocity": 0, "pitch": 40, "instrument": 0, "track": 9, "qtime": 39, "isDrum": true}, {"time": 87, "velocity": 0, "pitch": 54, "instrument": 0, "track": 9, "qtime": 39, "isDrum": true}, {"time": 87, "velocity": 108, "pitch": 54, "instrument": 0, "track": 9, "qtime": 39, "isDrum": true}, {"time": 90, "velocity": 0, "pitch": 54, "instrument": 0, "track": 9, "qtime": 42, "isDrum": true}, {"time": 90, "velocity": 0, "pitch": 69, "instrument": 0, "track": 9, "qtime": 42, "isDrum": true}, {"time": 90, "velocity": 108, "pitch": 35, "instrument": 0, "track": 9, "qtime": 42, "isDrum": true}, {"time": 90, "velocity": 108, "pitch": 54, "instrument": 0, "track": 9, "qtime": 42, "isDrum": true}, {"time": 90, "velocity": 108, "pitch": 82, "instrument": 0, "track": 9, "qtime": 42, "isDrum": true}, {"time": 93, "velocity": 0, "pitch": 35, "instrument": 0, "track": 9, "qtime": 45, "isDrum": true}, {"time": 93, "velocity": 0, "pitch": 54, "instrument": 0, "track": 9, "qtime": 45, "isDrum": true}, {"time": 93, "velocity": 108, "pitch": 54, "instrument": 0, "track": 9, "qtime": 45, "isDrum": true}, {"time": 94, "velocity": 0, "pitch": 82, "instrument": 0, "track": 9, "qtime": 46, "isDrum": true}, {"time": 95, "velocity": 108, "pitch": 69, "instrument": 0, "track": 9, "qtime": 47, "isDrum": true}, {"time": 96, "velocity": 0, "pitch": 54, "instrument": 0, "track": 9, "qtime": 48, "isDrum": true}, {"time": 96, "velocity": 0, "pitch": 69, "instrument": 0, "track": 9, "qtime": 48, "isDrum": true}, {"time": 96, "velocity": 108, "pitch": 35, "instrument": 0, "track": 9, "qtime": 0, "isDrum": true}, {"time": 96, "velocity": 108, "pitch": 54, "instrument": 0, "track": 9, "qtime": 0, "isDrum": true}, {"time": 96, "velocity": 108, "pitch": 69, "instrument": 0, "track": 9, "qtime": 0, "isDrum": true}, {"time": 99, "velocity": 0, "pitch": 35, "instrument": 0, "track": 9, "qtime": 3, "isDrum": true}, {"time": 99, "velocity": 0, "pitch": 54, "instrument": 0, "track": 9, "qtime": 3, "isDrum": true}, {"time": 99, "velocity": 0, "pitch": 69, "instrument": 0, "track": 9, "qtime": 3, "isDrum": true}, {"time": 99, "velocity": 108, "pitch": 54, "instrument": 0, "track": 9, "qtime": 3, "isDrum": true}, {"time": 99, "velocity": 108, "pitch": 60, "instrument": 0, "track": 9, "qtime": 3, "isDrum": true}, {"time": 102, "velocity": 0, "pitch": 54, "instrument": 0, "track": 9, "qtime": 6, "isDrum": true}, {"time": 102, "velocity": 0, "pitch": 60, "instrument": 0, "track": 9, "qtime": 6, "isDrum": true}, {"time": 102, "velocity": 108, "pitch": 54, "instrument": 0, "track": 9, "qtime": 6, "isDrum": true}, {"time": 102, "velocity": 108, "pitch": 61, "instrument": 0, "track": 9, "qtime": 6, "isDrum": true}, {"time": 102, "velocity": 108, "pitch": 82, "instrument": 0, "track": 9, "qtime": 6, "isDrum": true}, {"time": 105, "velocity": 0, "pitch": 54, "instrument": 0, "track": 9, "qtime": 9, "isDrum": true}, {"time": 105, "velocity": 0, "pitch": 61, "instrument": 0, "track": 9, "qtime": 9, "isDrum": true}, {"time": 105, "velocity": 0, "pitch": 82, "instrument": 0, "track": 9, "qtime": 9, "isDrum": true}, {"time": 105, "velocity": 108, "pitch": 35, "instrument": 0, "track": 9, "qtime": 9, "isDrum": true}, {"time": 105, "velocity": 108, "pitch": 54, "instrument": 0, "track": 9, "qtime": 9, "isDrum": true}, {"time": 105, "velocity": 108, "pitch": 63, "instrument": 0, "track": 9, "qtime": 9, "isDrum": true}, {"time": 106, "velocity": 0, "pitch": 63, "instrument": 0, "track": 9, "qtime": 10, "isDrum": true}, {"time": 107, "velocity": 108, "pitch": 69, "instrument": 0, "track": 9, "qtime": 11, "isDrum": true}, {"time": 108, "velocity": 0, "pitch": 35, "instrument": 0, "track": 9, "qtime": 12, "isDrum": true}, {"time": 108, "velocity": 0, "pitch": 54, "instrument": 0, "track": 9, "qtime": 12, "isDrum": true}, {"time": 108, "velocity": 0, "pitch": 69, "instrument": 0, "track": 9, "qtime": 12, "isDrum": true}, {"time": 108, "velocity": 108, "pitch": 39, "instrument": 0, "track": 9, "qtime": 12, "isDrum": true}, {"time": 108, "velocity": 108, "pitch": 40, "instrument": 0, "track": 9, "qtime": 12, "isDrum": true}, {"time": 108, "velocity": 108, "pitch": 54, "instrument": 0, "track": 9, "qtime": 12, "isDrum": true}, {"time": 108, "velocity": 108, "pitch": 63, "instrument": 0, "track": 9, "qtime": 12, "isDrum": true}, {"time": 108, "velocity": 108, "pitch": 69, "instrument": 0, "track": 9, "qtime": 12, "isDrum": true}, {"time": 111, "velocity": 0, "pitch": 39, "instrument": 0, "track": 9, "qtime": 15, "isDrum": true}, {"time": 111, "velocity": 0, "pitch": 40, "instrument": 0, "track": 9, "qtime": 15, "isDrum": true}, {"time": 111, "velocity": 0, "pitch": 54, "instrument": 0, "track": 9, "qtime": 15, "isDrum": true}, {"time": 111, "velocity": 0, "pitch": 63, "instrument": 0, "track": 9, "qtime": 15, "isDrum": true}, {"time": 111, "velocity": 0, "pitch": 69, "instrument": 0, "track": 9, "qtime": 15, "isDrum": true}, {"time": 111, "velocity": 108, "pitch": 54, "instrument": 0, "track": 9, "qtime": 15, "isDrum": true}, {"time": 111, "velocity": 108, "pitch": 61, "instrument": 0, "track": 9, "qtime": 15, "isDrum": true}, {"time": 114, "velocity": 0, "pitch": 54, "instrument": 0, "track": 9, "qtime": 18, "isDrum": true}, {"time": 114, "velocity": 0, "pitch": 61, "instrument": 0, "track": 9, "qtime": 18, "isDrum": true}, {"time": 114, "velocity": 108, "pitch": 35, "instrument": 0, "track": 9, "qtime": 18, "isDrum": true}, {"time": 114, "velocity": 108, "pitch": 54, "instrument": 0, "track": 9, "qtime": 18, "isDrum": true}, {"time": 114, "velocity": 108, "pitch": 61, "instrument": 0, "track": 9, "qtime": 18, "isDrum": true}, {"time": 114, "velocity": 108, "pitch": 82, "instrument": 0, "track": 9, "qtime": 18, "isDrum": true}, {"time": 117, "velocity": 0, "pitch": 35, "instrument": 0, "track": 9, "qtime": 21, "isDrum": true}, {"time": 117, "velocity": 0, "pitch": 54, "instrument": 0, "track": 9, "qtime": 21, "isDrum": true}, {"time": 117, "velocity": 0, "pitch": 61, "instrument": 0, "track": 9, "qtime": 21, "isDrum": true}, {"time": 117, "velocity": 0, "pitch": 82, "instrument": 0, "track": 9, "qtime": 21, "isDrum": true}, {"time": 117, "velocity": 108, "pitch": 54, "instrument": 0, "track": 9, "qtime": 21, "isDrum": true}, {"time": 117, "velocity": 108, "pitch": 69, "instrument": 0, "track": 9, "qtime": 21, "isDrum": true}, {"time": 120, "velocity": 0, "pitch": 54, "instrument": 0, "track": 9, "qtime": 24, "isDrum": true}, {"time": 120, "velocity": 0, "pitch": 69, "instrument": 0, "track": 9, "qtime": 24, "isDrum": true}, {"time": 120, "velocity": 108, "pitch": 35, "instrument": 0, "track": 9, "qtime": 24, "isDrum": true}, {"time": 120, "velocity": 108, "pitch": 54, "instrument": 0, "track": 9, "qtime": 24, "isDrum": true}, {"time": 120, "velocity": 108, "pitch": 69, "instrument": 0, "track": 9, "qtime": 24, "isDrum": true}, {"time": 123, "velocity": 0, "pitch": 35, "instrument": 0, "track": 9, "qtime": 27, "isDrum": true}, {"time": 123, "velocity": 0, "pitch": 54, "instrument": 0, "track": 9, "qtime": 27, "isDrum": true}, {"time": 123, "velocity": 108, "pitch": 54, "instrument": 0, "track": 9, "qtime": 27, "isDrum": true}, {"time": 126, "velocity": 0, "pitch": 54, "instrument": 0, "track": 9, "qtime": 30, "isDrum": true}, {"time": 126, "velocity": 0, "pitch": 69, "instrument": 0, "track": 9, "qtime": 30, "isDrum": true}, {"time": 126, "velocity": 108, "pitch": 54, "instrument": 0, "track": 9, "qtime": 30, "isDrum": true}, {"time": 126, "velocity": 108, "pitch": 82, "instrument": 0, "track": 9, "qtime": 30, "isDrum": true}, {"time": 129, "velocity": 0, "pitch": 54, "instrument": 0, "track": 9, "qtime": 33, "isDrum": true}, {"time": 129, "velocity": 0, "pitch": 82, "instrument": 0, "track": 9, "qtime": 33, "isDrum": true}, {"time": 129, "velocity": 108, "pitch": 35, "instrument": 0, "track": 9, "qtime": 33, "isDrum": true}, {"time": 129, "velocity": 108, "pitch": 54, "instrument": 0, "track": 9, "qtime": 33, "isDrum": true}, {"time": 129, "velocity": 108, "pitch": 69, "instrument": 0, "track": 9, "qtime": 33, "isDrum": true}, {"time": 132, "velocity": 0, "pitch": 35, "instrument": 0, "track": 9, "qtime": 36, "isDrum": true}, {"time": 132, "velocity": 0, "pitch": 54, "instrument": 0, "track": 9, "qtime": 36, "isDrum": true}, {"time": 132, "velocity": 0, "pitch": 69, "instrument": 0, "track": 9, "qtime": 36, "isDrum": true}, {"time": 132, "velocity": 108, "pitch": 39, "instrument": 0, "track": 9, "qtime": 36, "isDrum": true}, {"time": 132, "velocity": 108, "pitch": 40, "instrument": 0, "track": 9, "qtime": 36, "isDrum": true}, {"time": 132, "velocity": 108, "pitch": 54, "instrument": 0, "track": 9, "qtime": 36, "isDrum": true}, {"time": 132, "velocity": 108, "pitch": 69, "instrument": 0, "track": 9, "qtime": 36, "isDrum": true}, {"time": 135, "velocity": 0, "pitch": 39, "instrument": 0, "track": 9, "qtime": 39, "isDrum": true}, {"time": 135, "velocity": 0, "pitch": 40, "instrument": 0, "track": 9, "qtime": 39, "isDrum": true}, {"time": 135, "velocity": 0, "pitch": 54, "instrument": 0, "track": 9, "qtime": 39, "isDrum": true}, {"time": 135, "velocity": 108, "pitch": 54, "instrument": 0, "track": 9, "qtime": 39, "isDrum": true}, {"time": 138, "velocity": 0, "pitch": 54, "instrument": 0, "track": 9, "qtime": 42, "isDrum": true}, {"time": 138, "velocity": 0, "pitch": 69, "instrument": 0, "track": 9, "qtime": 42, "isDrum": true}, {"time": 138, "velocity": 108, "pitch": 35, "instrument": 0, "track": 9, "qtime": 42, "isDrum": true}, {"time": 138, "velocity": 108, "pitch": 54, "instrument": 0, "track": 9, "qtime": 42, "isDrum": true}, {"time": 138, "velocity": 108, "pitch": 82, "instrument": 0, "track": 9, "qtime": 42, "isDrum": true}, {"time": 141, "velocity": 0, "pitch": 35, "instrument": 0, "track": 9, "qtime": 45, "isDrum": true}, {"time": 141, "velocity": 0, "pitch": 54, "instrument": 0, "track": 9, "qtime": 45, "isDrum": true}, {"time": 141, "velocity": 108, "pitch": 54, "instrument": 0, "track": 9, "qtime": 45, "isDrum": true}, {"time": 142, "velocity": 0, "pitch": 82, "instrument": 0, "track": 9, "qtime": 46, "isDrum": true}, {"time": 143, "velocity": 108, "pitch": 69, "instrument": 0, "track": 9, "qtime": 47, "isDrum": true}, {"time": 144, "velocity": 0, "pitch": 54, "instrument": 0, "track": 9, "qtime": 48, "isDrum": true}, {"time": 144, "velocity": 0, "pitch": 69, "instrument": 0, "track": 9, "qtime": 48, "isDrum": true}, {"time": 144, "velocity": 108, "pitch": 38, "instrument": 0, "track": 9, "qtime": 0, "isDrum": true}, {"time": 144, "velocity": 108, "pitch": 54, "instrument": 0, "track": 9, "qtime": 0, "isDrum": true}, {"time": 144, "velocity": 108, "pitch": 69, "instrument": 0, "track": 9, "qtime": 0, "isDrum": true}, {"time": 147, "velocity": 0, "pitch": 38, "instrument": 0, "track": 9, "qtime": 3, "isDrum": true}, {"time": 147, "velocity": 0, "pitch": 54, "instrument": 0, "track": 9, "qtime": 3, "isDrum": true}, {"time": 147, "velocity": 108, "pitch": 54, "instrument": 0, "track": 9, "qtime": 3, "isDrum": true}, {"time": 150, "velocity": 0, "pitch": 54, "instrument": 0, "track": 9, "qtime": 6, "isDrum": true}, {"time": 150, "velocity": 0, "pitch": 69, "instrument": 0, "track": 9, "qtime": 6, "isDrum": true}, {"time": 150, "velocity": 108, "pitch": 54, "instrument": 0, "track": 9, "qtime": 6, "isDrum": true}, {"time": 150, "velocity": 108, "pitch": 61, "instrument": 0, "track": 9, "qtime": 6, "isDrum": true}, {"time": 150, "velocity": 108, "pitch": 82, "instrument": 0, "track": 9, "qtime": 6, "isDrum": true}, {"time": 153, "velocity": 0, "pitch": 54, "instrument": 0, "track": 9, "qtime": 9, "isDrum": true}, {"time": 153, "velocity": 0, "pitch": 61, "instrument": 0, "track": 9, "qtime": 9, "isDrum": true}, {"time": 153, "velocity": 0, "pitch": 82, "instrument": 0, "track": 9, "qtime": 9, "isDrum": true}, {"time": 153, "velocity": 108, "pitch": 38, "instrument": 0, "track": 9, "qtime": 9, "isDrum": true}, {"time": 153, "velocity": 108, "pitch": 54, "instrument": 0, "track": 9, "qtime": 9, "isDrum": true}, {"time": 153, "velocity": 108, "pitch": 63, "instrument": 0, "track": 9, "qtime": 9, "isDrum": true}, {"time": 154, "velocity": 0, "pitch": 63, "instrument": 0, "track": 9, "qtime": 10, "isDrum": true}, {"time": 155, "velocity": 108, "pitch": 69, "instrument": 0, "track": 9, "qtime": 11, "isDrum": true}, {"time": 156, "velocity": 0, "pitch": 38, "instrument": 0, "track": 9, "qtime": 12, "isDrum": true}, {"time": 156, "velocity": 0, "pitch": 54, "instrument": 0, "track": 9, "qtime": 12, "isDrum": true}, {"time": 156, "velocity": 0, "pitch": 69, "instrument": 0, "track": 9, "qtime": 12, "isDrum": true}, {"time": 156, "velocity": 108, "pitch": 38, "instrument": 0, "track": 9, "qtime": 12, "isDrum": true}, {"time": 156, "velocity": 108, "pitch": 54, "instrument": 0, "track": 9, "qtime": 12, "isDrum": true}, {"time": 156, "velocity": 108, "pitch": 63, "instrument": 0, "track": 9, "qtime": 12, "isDrum": true}, {"time": 156, "velocity": 108, "pitch": 69, "instrument": 0, "track": 9, "qtime": 12, "isDrum": true}, {"time": 159, "velocity": 0, "pitch": 38, "instrument": 0, "track": 9, "qtime": 15, "isDrum": true}, {"time": 159, "velocity": 0, "pitch": 54, "instrument": 0, "track": 9, "qtime": 15, "isDrum": true}, {"time": 159, "velocity": 0, "pitch": 63, "instrument": 0, "track": 9, "qtime": 15, "isDrum": true}, {"time": 159, "velocity": 0, "pitch": 69, "instrument": 0, "track": 9, "qtime": 15, "isDrum": true}, {"time": 159, "velocity": 108, "pitch": 54, "instrument": 0, "track": 9, "qtime": 15, "isDrum": true}, {"time": 159, "velocity": 108, "pitch": 61, "instrument": 0, "track": 9, "qtime": 15, "isDrum": true}, {"time": 162, "velocity": 0, "pitch": 54, "instrument": 0, "track": 9, "qtime": 18, "isDrum": true}, {"time": 162, "velocity": 0, "pitch": 61, "instrument": 0, "track": 9, "qtime": 18, "isDrum": true}, {"time": 162, "velocity": 108, "pitch": 38, "instrument": 0, "track": 9, "qtime": 18, "isDrum": true}, {"time": 162, "velocity": 108, "pitch": 54, "instrument": 0, "track": 9, "qtime": 18, "isDrum": true}, {"time": 162, "velocity": 108, "pitch": 61, "instrument": 0, "track": 9, "qtime": 18, "isDrum": true}, {"time": 162, "velocity": 108, "pitch": 82, "instrument": 0, "track": 9, "qtime": 18, "isDrum": true}, {"time": 165, "velocity": 0, "pitch": 38, "instrument": 0, "track": 9, "qtime": 21, "isDrum": true}, {"time": 165, "velocity": 0, "pitch": 54, "instrument": 0, "track": 9, "qtime": 21, "isDrum": true}, {"time": 165, "velocity": 0, "pitch": 61, "instrument": 0, "track": 9, "qtime": 21, "isDrum": true}, {"time": 165, "velocity": 0, "pitch": 82, "instrument": 0, "track": 9, "qtime": 21, "isDrum": true}, {"time": 165, "velocity": 108, "pitch": 38, "instrument": 0, "track": 9, "qtime": 21, "isDrum": true}, {"time": 165, "velocity": 108, "pitch": 54, "instrument": 0, "track": 9, "qtime": 21, "isDrum": true}, {"time": 165, "velocity": 108, "pitch": 69, "instrument": 0, "track": 9, "qtime": 21, "isDrum": true}, {"time": 168, "velocity": 0, "pitch": 38, "instrument": 0, "track": 9, "qtime": 24, "isDrum": true}, {"time": 168, "velocity": 0, "pitch": 54, "instrument": 0, "track": 9, "qtime": 24, "isDrum": true}, {"time": 168, "velocity": 0, "pitch": 69, "instrument": 0, "track": 9, "qtime": 24, "isDrum": true}, {"time": 168, "velocity": 108, "pitch": 35, "instrument": 0, "track": 9, "qtime": 24, "isDrum": true}, {"time": 168, "velocity": 108, "pitch": 57, "instrument": 0, "track": 9, "qtime": 24, "isDrum": true}, {"time": 168, "velocity": 108, "pitch": 69, "instrument": 0, "track": 9, "qtime": 24, "isDrum": true}, {"time": 171, "velocity": 0, "pitch": 35, "instrument": 0, "track": 9, "qtime": 27, "isDrum": true}, {"time": 171, "velocity": 0, "pitch": 57, "instrument": 0, "track": 9, "qtime": 27, "isDrum": true}, {"time": 171, "velocity": 108, "pitch": 54, "instrument": 0, "track": 9, "qtime": 27, "isDrum": true}, {"time": 174, "velocity": 0, "pitch": 54, "instrument": 0, "track": 9, "qtime": 30, "isDrum": true}, {"time": 174, "velocity": 0, "pitch": 69, "instrument": 0, "track": 9, "qtime": 30, "isDrum": true}, {"time": 174, "velocity": 108, "pitch": 54, "instrument": 0, "track": 9, "qtime": 30, "isDrum": true}, {"time": 174, "velocity": 108, "pitch": 59, "instrument": 0, "track": 9, "qtime": 30, "isDrum": true}, {"time": 174, "velocity": 108, "pitch": 82, "instrument": 0, "track": 9, "qtime": 30, "isDrum": true}, {"time": 177, "velocity": 0, "pitch": 54, "instrument": 0, "track": 9, "qtime": 33, "isDrum": true}, {"time": 177, "velocity": 0, "pitch": 59, "instrument": 0, "track": 9, "qtime": 33, "isDrum": true}, {"time": 177, "velocity": 0, "pitch": 82, "instrument": 0, "track": 9, "qtime": 33, "isDrum": true}, {"time": 177, "velocity": 108, "pitch": 35, "instrument": 0, "track": 9, "qtime": 33, "isDrum": true}, {"time": 177, "velocity": 108, "pitch": 54, "instrument": 0, "track": 9, "qtime": 33, "isDrum": true}, {"time": 177, "velocity": 108, "pitch": 59, "instrument": 0, "track": 9, "qtime": 33, "isDrum": true}, {"time": 177, "velocity": 108, "pitch": 69, "instrument": 0, "track": 9, "qtime": 33, "isDrum": true}, {"time": 180, "velocity": 0, "pitch": 35, "instrument": 0, "track": 9, "qtime": 36, "isDrum": true}, {"time": 180, "velocity": 0, "pitch": 54, "instrument": 0, "track": 9, "qtime": 36, "isDrum": true}, {"time": 180, "velocity": 0, "pitch": 59, "instrument": 0, "track": 9, "qtime": 36, "isDrum": true}, {"time": 180, "velocity": 0, "pitch": 69, "instrument": 0, "track": 9, "qtime": 36, "isDrum": true}, {"time": 180, "velocity": 108, "pitch": 39, "instrument": 0, "track": 9, "qtime": 36, "isDrum": true}, {"time": 180, "velocity": 108, "pitch": 40, "instrument": 0, "track": 9, "qtime": 36, "isDrum": true}, {"time": 180, "velocity": 108, "pitch": 54, "instrument": 0, "track": 9, "qtime": 36, "isDrum": true}, {"time": 180, "velocity": 108, "pitch": 59, "instrument": 0, "track": 9, "qtime": 36, "isDrum": true}, {"time": 180, "velocity": 108, "pitch": 69, "instrument": 0, "track": 9, "qtime": 36, "isDrum": true}, {"time": 183, "velocity": 0, "pitch": 39, "instrument": 0, "track": 9, "qtime": 39, "isDrum": true}, {"time": 183, "velocity": 0, "pitch": 40, "instrument": 0, "track": 9, "qtime": 39, "isDrum": true}, {"time": 183, "velocity": 0, "pitch": 54, "instrument": 0, "track": 9, "qtime": 39, "isDrum": true}, {"time": 183, "velocity": 0, "pitch": 59, "instrument": 0, "track": 9, "qtime": 39, "isDrum": true}, {"time": 183, "velocity": 108, "pitch": 54, "instrument": 0, "track": 9, "qtime": 39, "isDrum": true}, {"time": 186, "velocity": 0, "pitch": 54, "instrument": 0, "track": 9, "qtime": 42, "isDrum": true}, {"time": 186, "velocity": 0, "pitch": 69, "instrument": 0, "track": 9, "qtime": 42, "isDrum": true}, {"time": 186, "velocity": 108, "pitch": 35, "instrument": 0, "track": 9, "qtime": 42, "isDrum": true}, {"time": 186, "velocity": 108, "pitch": 54, "instrument": 0, "track": 9, "qtime": 42, "isDrum": true}, {"time": 186, "velocity": 108, "pitch": 59, "instrument": 0, "track": 9, "qtime": 42, "isDrum": true}, {"time": 186, "velocity": 108, "pitch": 82, "instrument": 0, "track": 9, "qtime": 42, "isDrum": true}, {"time": 189, "velocity": 0, "pitch": 35, "instrument": 0, "track": 9, "qtime": 45, "isDrum": true}, {"time": 189, "velocity": 0, "pitch": 54, "instrument": 0, "track": 9, "qtime": 45, "isDrum": true}, {"time": 189, "velocity": 0, "pitch": 59, "instrument": 0, "track": 9, "qtime": 45, "isDrum": true}, {"time": 189, "velocity": 108, "pitch": 54, "instrument": 0, "track": 9, "qtime": 45, "isDrum": true}, {"time": 189, "velocity": 108, "pitch": 59, "instrument": 0, "track": 9, "qtime": 45, "isDrum": true}, {"time": 190, "velocity": 0, "pitch": 82, "instrument": 0, "track": 9, "qtime": 46, "isDrum": true}, {"time": 191, "velocity": 108, "pitch": 69, "instrument": 0, "track": 9, "qtime": 47, "isDrum": true}, {"time": 192, "velocity": 0, "pitch": 54, "instrument": 0, "track": 9, "qtime": 48, "isDrum": true}, {"time": 192, "velocity": 0, "pitch": 59, "instrument": 0, "track": 9, "qtime": 48, "isDrum": true}, {"time": 192, "velocity": 0, "pitch": 69, "instrument": 0, "track": 9, "qtime": 48, "isDrum": true}, {"time": 192, "velocity": 108, "pitch": 35, "instrument": 0, "track": 9, "qtime": 0, "isDrum": true}, {"time": 192, "velocity": 108, "pitch": 54, "instrument": 0, "track": 9, "qtime": 0, "isDrum": true}, {"time": 192, "velocity": 108, "pitch": 59, "instrument": 0, "track": 9, "qtime": 0, "isDrum": true}, {"time": 192, "velocity": 108, "pitch": 69, "instrument": 0, "track": 9, "qtime": 0, "isDrum": true}, {"time": 195, "velocity": 0, "pitch": 35, "instrument": 0, "track": 9, "qtime": 3, "isDrum": true}, {"time": 195, "velocity": 0, "pitch": 54, "instrument": 0, "track": 9, "qtime": 3, "isDrum": true}, {"time": 195, "velocity": 0, "pitch": 59, "instrument": 0, "track": 9, "qtime": 3, "isDrum": true}, {"time": 195, "velocity": 108, "pitch": 54, "instrument": 0, "track": 9, "qtime": 3, "isDrum": true}, {"time": 198, "velocity": 0, "pitch": 54, "instrument": 0, "track": 9, "qtime": 6, "isDrum": true}, {"time": 198, "velocity": 0, "pitch": 69, "instrument": 0, "track": 9, "qtime": 6, "isDrum": true}, {"time": 198, "velocity": 108, "pitch": 54, "instrument": 0, "track": 9, "qtime": 6, "isDrum": true}, {"time": 198, "velocity": 108, "pitch": 59, "instrument": 0, "track": 9, "qtime": 6, "isDrum": true}, {"time": 198, "velocity": 108, "pitch": 82, "instrument": 0, "track": 9, "qtime": 6, "isDrum": true}, {"time": 201, "velocity": 0, "pitch": 54, "instrument": 0, "track": 9, "qtime": 9, "isDrum": true}, {"time": 201, "velocity": 0, "pitch": 59, "instrument": 0, "track": 9, "qtime": 9, "isDrum": true}, {"time": 201, "velocity": 108, "pitch": 35, "instrument": 0, "track": 9, "qtime": 9, "isDrum": true}, {"time": 201, "velocity": 108, "pitch": 54, "instrument": 0, "track": 9, "qtime": 9, "isDrum": true}, {"time": 201, "velocity": 108, "pitch": 59, "instrument": 0, "track": 9, "qtime": 9, "isDrum": true}, {"time": 202, "velocity": 0, "pitch": 82, "instrument": 0, "track": 9, "qtime": 10, "isDrum": true}, {"time": 203, "velocity": 108, "pitch": 69, "instrument": 0, "track": 9, "qtime": 11, "isDrum": true}, {"time": 204, "velocity": 0, "pitch": 35, "instrument": 0, "track": 9, "qtime": 12, "isDrum": true}, {"time": 204, "velocity": 0, "pitch": 54, "instrument": 0, "track": 9, "qtime": 12, "isDrum": true}, {"time": 204, "velocity": 0, "pitch": 59, "instrument": 0, "track": 9, "qtime": 12, "isDrum": true}, {"time": 204, "velocity": 0, "pitch": 69, "instrument": 0, "track": 9, "qtime": 12, "isDrum": true}, {"time": 204, "velocity": 108, "pitch": 39, "instrument": 0, "track": 9, "qtime": 12, "isDrum": true}, {"time": 204, "velocity": 108, "pitch": 40, "instrument": 0, "track": 9, "qtime": 12, "isDrum": true}, {"time": 204, "velocity": 108, "pitch": 54, "instrument": 0, "track": 9, "qtime": 12, "isDrum": true}, {"time": 204, "velocity": 108, "pitch": 59, "instrument": 0, "track": 9, "qtime": 12, "isDrum": true}, {"time": 204, "velocity": 108, "pitch": 69, "instrument": 0, "track": 9, "qtime": 12, "isDrum": true}, {"time": 207, "velocity": 0, "pitch": 39, "instrument": 0, "track": 9, "qtime": 15, "isDrum": true}, {"time": 207, "velocity": 0, "pitch": 40, "instrument": 0, "track": 9, "qtime": 15, "isDrum": true}, {"time": 207, "velocity": 0, "pitch": 54, "instrument": 0, "track": 9, "qtime": 15, "isDrum": true}, {"time": 207, "velocity": 0, "pitch": 59, "instrument": 0, "track": 9, "qtime": 15, "isDrum": true}, {"time": 207, "velocity": 108, "pitch": 54, "instrument": 0, "track": 9, "qtime": 15, "isDrum": true}, {"time": 210, "velocity": 0, "pitch": 54, "instrument": 0, "track": 9, "qtime": 18, "isDrum": true}, {"time": 210, "velocity": 0, "pitch": 69, "instrument": 0, "track": 9, "qtime": 18, "isDrum": true}, {"time": 210, "velocity": 108, "pitch": 35, "instrument": 0, "track": 9, "qtime": 18, "isDrum": true}, {"time": 210, "velocity": 108, "pitch": 54, "instrument": 0, "track": 9, "qtime": 18, "isDrum": true}, {"time": 210, "velocity": 108, "pitch": 59, "instrument": 0, "track": 9, "qtime": 18, "isDrum": true}, {"time": 210, "velocity": 108, "pitch": 82, "instrument": 0, "track": 9, "qtime": 18, "isDrum": true}, {"time": 213, "velocity": 0, "pitch": 35, "instrument": 0, "track": 9, "qtime": 21, "isDrum": true}, {"time": 213, "velocity": 0, "pitch": 54, "instrument": 0, "track": 9, "qtime": 21, "isDrum": true}, {"time": 213, "velocity": 0, "pitch": 59, "instrument": 0, "track": 9, "qtime": 21, "isDrum": true}, {"time": 213, "velocity": 0, "pitch": 82, "instrument": 0, "track": 9, "qtime": 21, "isDrum": true}, {"time": 213, "velocity": 108, "pitch": 54, "instrument": 0, "track": 9, "qtime": 21, "isDrum": true}, {"time": 213, "velocity": 108, "pitch": 59, "instrument": 0, "track": 9, "qtime": 21, "isDrum": true}, {"time": 213, "velocity": 108, "pitch": 69, "instrument": 0, "track": 9, "qtime": 21, "isDrum": true}, {"time": 216, "velocity": 0, "pitch": 54, "instrument": 0, "track": 9, "qtime": 24, "isDrum": true}, {"time": 216, "velocity": 0, "pitch": 59, "instrument": 0, "track": 9, "qtime": 24, "isDrum": true}, {"time": 216, "velocity": 0, "pitch": 69, "instrument": 0, "track": 9, "qtime": 24, "isDrum": true}, {"time": 216, "velocity": 108, "pitch": 35, "instrument": 0, "track": 9, "qtime": 24, "isDrum": true}, {"time": 216, "velocity": 108, "pitch": 54, "instrument": 0, "track": 9, "qtime": 24, "isDrum": true}, {"time": 216, "velocity": 108, "pitch": 59, "instrument": 0, "track": 9, "qtime": 24, "isDrum": true}, {"time": 216, "velocity": 108, "pitch": 69, "instrument": 0, "track": 9, "qtime": 24, "isDrum": true}, {"time": 219, "velocity": 0, "pitch": 35, "instrument": 0, "track": 9, "qtime": 27, "isDrum": true}, {"time": 219, "velocity": 0, "pitch": 54, "instrument": 0, "track": 9, "qtime": 27, "isDrum": true}, {"time": 219, "velocity": 0, "pitch": 59, "instrument": 0, "track": 9, "qtime": 27, "isDrum": true}, {"time": 219, "velocity": 108, "pitch": 54, "instrument": 0, "track": 9, "qtime": 27, "isDrum": true}, {"time": 222, "velocity": 0, "pitch": 54, "instrument": 0, "track": 9, "qtime": 30, "isDrum": true}, {"time": 222, "velocity": 0, "pitch": 69, "instrument": 0, "track": 9, "qtime": 30, "isDrum": true}, {"time": 222, "velocity": 108, "pitch": 54, "instrument": 0, "track": 9, "qtime": 30, "isDrum": true}, {"time": 222, "velocity": 108, "pitch": 59, "instrument": 0, "track": 9, "qtime": 30, "isDrum": true}, {"time": 222, "velocity": 108, "pitch": 82, "instrument": 0, "track": 9, "qtime": 30, "isDrum": true}, {"time": 225, "velocity": 0, "pitch": 54, "instrument": 0, "track": 9, "qtime": 33, "isDrum": true}, {"time": 225, "velocity": 0, "pitch": 59, "instrument": 0, "track": 9, "qtime": 33, "isDrum": true}, {"time": 225, "velocity": 0, "pitch": 82, "instrument": 0, "track": 9, "qtime": 33, "isDrum": true}, {"time": 225, "velocity": 108, "pitch": 35, "instrument": 0, "track": 9, "qtime": 33, "isDrum": true}, {"time": 225, "velocity": 108, "pitch": 54, "instrument": 0, "track": 9, "qtime": 33, "isDrum": true}, {"time": 225, "velocity": 108, "pitch": 59, "instrument": 0, "track": 9, "qtime": 33, "isDrum": true}, {"time": 225, "velocity": 108, "pitch": 69, "instrument": 0, "track": 9, "qtime": 33, "isDrum": true}, {"time": 228, "velocity": 0, "pitch": 35, "instrument": 0, "track": 9, "qtime": 36, "isDrum": true}, {"time": 228, "velocity": 0, "pitch": 54, "instrument": 0, "track": 9, "qtime": 36, "isDrum": true}, {"time": 228, "velocity": 0, "pitch": 59, "instrument": 0, "track": 9, "qtime": 36, "isDrum": true}, {"time": 228, "velocity": 0, "pitch": 69, "instrument": 0, "track": 9, "qtime": 36, "isDrum": true}, {"time": 228, "velocity": 108, "pitch": 39, "instrument": 0, "track": 9, "qtime": 36, "isDrum": true}, {"time": 228, "velocity": 108, "pitch": 40, "instrument": 0, "track": 9, "qtime": 36, "isDrum": true}, {"time": 228, "velocity": 108, "pitch": 54, "instrument": 0, "track": 9, "qtime": 36, "isDrum": true}, {"time": 228, "velocity": 108, "pitch": 59, "instrument": 0, "track": 9, "qtime": 36, "isDrum": true}, {"time": 228, "velocity": 108, "pitch": 69, "instrument": 0, "track": 9, "qtime": 36, "isDrum": true}, {"time": 231, "velocity": 0, "pitch": 39, "instrument": 0, "track": 9, "qtime": 39, "isDrum": true}, {"time": 231, "velocity": 0, "pitch": 40, "instrument": 0, "track": 9, "qtime": 39, "isDrum": true}, {"time": 231, "velocity": 0, "pitch": 54, "instrument": 0, "track": 9, "qtime": 39, "isDrum": true}, {"time": 231, "velocity": 0, "pitch": 59, "instrument": 0, "track": 9, "qtime": 39, "isDrum": true}, {"time": 231, "velocity": 108, "pitch": 54, "instrument": 0, "track": 9, "qtime": 39, "isDrum": true}, {"time": 234, "velocity": 0, "pitch": 54, "instrument": 0, "track": 9, "qtime": 42, "isDrum": true}, {"time": 234, "velocity": 0, "pitch": 69, "instrument": 0, "track": 9, "qtime": 42, "isDrum": true}, {"time": 234, "velocity": 108, "pitch": 35, "instrument": 0, "track": 9, "qtime": 42, "isDrum": true}, {"time": 234, "velocity": 108, "pitch": 54, "instrument": 0, "track": 9, "qtime": 42, "isDrum": true}, {"time": 234, "velocity": 108, "pitch": 59, "instrument": 0, "track": 9, "qtime": 42, "isDrum": true}, {"time": 234, "velocity": 108, "pitch": 82, "instrument": 0, "track": 9, "qtime": 42, "isDrum": true}, {"time": 237, "velocity": 0, "pitch": 35, "instrument": 0, "track": 9, "qtime": 45, "isDrum": true}, {"time": 237, "velocity": 0, "pitch": 54, "instrument": 0, "track": 9, "qtime": 45, "isDrum": true}, {"time": 237, "velocity": 0, "pitch": 59, "instrument": 0, "track": 9, "qtime": 45, "isDrum": true}, {"time": 237, "velocity": 108, "pitch": 54, "instrument": 0, "track": 9, "qtime": 45, "isDrum": true}, {"time": 237, "velocity": 108, "pitch": 59, "instrument": 0, "track": 9, "qtime": 45, "isDrum": true}, {"time": 238, "velocity": 0, "pitch": 82, "instrument": 0, "track": 9, "qtime": 46, "isDrum": true}, {"time": 239, "velocity": 108, "pitch": 69, "instrument": 0, "track": 9, "qtime": 47, "isDrum": true}, {"time": 240, "velocity": 0, "pitch": 54, "instrument": 0, "track": 9, "qtime": 48, "isDrum": true}, {"time": 240, "velocity": 0, "pitch": 59, "instrument": 0, "track": 9, "qtime": 48, "isDrum": true}, {"time": 240, "velocity": 0, "pitch": 69, "instrument": 0, "track": 9, "qtime": 48, "isDrum": true}, {"time": 240, "velocity": 108, "pitch": 35, "instrument": 0, "track": 9, "qtime": 0, "isDrum": true}, {"time": 240, "velocity": 108, "pitch": 54, "instrument": 0, "track": 9, "qtime": 0, "isDrum": true}, {"time": 240, "velocity": 108, "pitch": 59, "instrument": 0, "track": 9, "qtime": 0, "isDrum": true}, {"time": 240, "velocity": 108, "pitch": 69, "instrument": 0, "track": 9, "qtime": 0, "isDrum": true}, {"time": 243, "velocity": 0, "pitch": 35, "instrument": 0, "track": 9, "qtime": 3, "isDrum": true}, {"time": 243, "velocity": 0, "pitch": 54, "instrument": 0, "track": 9, "qtime": 3, "isDrum": true}, {"time": 243, "velocity": 0, "pitch": 59, "instrument": 0, "track": 9, "qtime": 3, "isDrum": true}, {"time": 243, "velocity": 108, "pitch": 54, "instrument": 0, "track": 9, "qtime": 3, "isDrum": true}, {"time": 246, "velocity": 0, "pitch": 54, "instrument": 0, "track": 9, "qtime": 6, "isDrum": true}, {"time": 246, "velocity": 0, "pitch": 69, "instrument": 0, "track": 9, "qtime": 6, "isDrum": true}, {"time": 246, "velocity": 108, "pitch": 54, "instrument": 0, "track": 9, "qtime": 6, "isDrum": true}, {"time": 246, "velocity": 108, "pitch": 59, "instrument": 0, "track": 9, "qtime": 6, "isDrum": true}, {"time": 246, "velocity": 108, "pitch": 82, "instrument": 0, "track": 9, "qtime": 6, "isDrum": true}, {"time": 249, "velocity": 0, "pitch": 54, "instrument": 0, "track": 9, "qtime": 9, "isDrum": true}, {"time": 249, "velocity": 0, "pitch": 59, "instrument": 0, "track": 9, "qtime": 9, "isDrum": true}, {"time": 249, "velocity": 108, "pitch": 35, "instrument": 0, "track": 9, "qtime": 9, "isDrum": true}, {"time": 249, "velocity": 108, "pitch": 54, "instrument": 0, "track": 9, "qtime": 9, "isDrum": true}, {"time": 249, "velocity": 108, "pitch": 59, "instrument": 0, "track": 9, "qtime": 9, "isDrum": true}, {"time": 250, "velocity": 0, "pitch": 82, "instrument": 0, "track": 9, "qtime": 10, "isDrum": true}, {"time": 251, "velocity": 108, "pitch": 69, "instrument": 0, "track": 9, "qtime": 11, "isDrum": true}, {"time": 252, "velocity": 0, "pitch": 35, "instrument": 0, "track": 9, "qtime": 12, "isDrum": true}, {"time": 252, "velocity": 0, "pitch": 54, "instrument": 0, "track": 9, "qtime": 12, "isDrum": true}, {"time": 252, "velocity": 0, "pitch": 59, "instrument": 0, "track": 9, "qtime": 12, "isDrum": true}, {"time": 252, "velocity": 0, "pitch": 69, "instrument": 0, "track": 9, "qtime": 12, "isDrum": true}, {"time": 252, "velocity": 108, "pitch": 39, "instrument": 0, "track": 9, "qtime": 12, "isDrum": true}, {"time": 252, "velocity": 108, "pitch": 40, "instrument": 0, "track": 9, "qtime": 12, "isDrum": true}, {"time": 252, "velocity": 108, "pitch": 54, "instrument": 0, "track": 9, "qtime": 12, "isDrum": true}, {"time": 252, "velocity": 108, "pitch": 59, "instrument": 0, "track": 9, "qtime": 12, "isDrum": true}, {"time": 252, "velocity": 108, "pitch": 85, "instrument": 0, "track": 9, "qtime": 12, "isDrum": true}, {"time": 253, "velocity": 0, "pitch": 85, "instrument": 0, "track": 9, "qtime": 13, "isDrum": true}, {"time": 254, "velocity": 108, "pitch": 85, "instrument": 0, "track": 9, "qtime": 14, "isDrum": true}, {"time": 255, "velocity": 0, "pitch": 39, "instrument": 0, "track": 9, "qtime": 15, "isDrum": true}, {"time": 255, "velocity": 0, "pitch": 40, "instrument": 0, "track": 9, "qtime": 15, "isDrum": true}, {"time": 255, "velocity": 0, "pitch": 54, "instrument": 0, "track": 9, "qtime": 15, "isDrum": true}, {"time": 255, "velocity": 0, "pitch": 59, "instrument": 0, "track": 9, "qtime": 15, "isDrum": true}, {"time": 255, "velocity": 0, "pitch": 85, "instrument": 0, "track": 9, "qtime": 15, "isDrum": true}, {"time": 255, "velocity": 108, "pitch": 54, "instrument": 0, "track": 9, "qtime": 15, "isDrum": true}, {"time": 255, "velocity": 108, "pitch": 69, "instrument": 0, "track": 9, "qtime": 15, "isDrum": true}, {"time": 255, "velocity": 108, "pitch": 85, "instrument": 0, "track": 9, "qtime": 15, "isDrum": true}, {"time": 258, "velocity": 0, "pitch": 54, "instrument": 0, "track": 9, "qtime": 18, "isDrum": true}, {"time": 258, "velocity": 0, "pitch": 69, "instrument": 0, "track": 9, "qtime": 18, "isDrum": true}, {"time": 258, "velocity": 0, "pitch": 85, "instrument": 0, "track": 9, "qtime": 18, "isDrum": true}, {"time": 258, "velocity": 108, "pitch": 35, "instrument": 0, "track": 9, "qtime": 18, "isDrum": true}, {"time": 258, "velocity": 108, "pitch": 54, "instrument": 0, "track": 9, "qtime": 18, "isDrum": true}, {"time": 258, "velocity": 108, "pitch": 82, "instrument": 0, "track": 9, "qtime": 18, "isDrum": true}, {"time": 258, "velocity": 108, "pitch": 85, "instrument": 0, "track": 9, "qtime": 18, "isDrum": true}, {"time": 259, "velocity": 0, "pitch": 35, "instrument": 0, "track": 9, "qtime": 19, "isDrum": true}, {"time": 259, "velocity": 0, "pitch": 54, "instrument": 0, "track": 9, "qtime": 19, "isDrum": true}, {"time": 260, "velocity": 108, "pitch": 59, "instrument": 0, "track": 9, "qtime": 20, "isDrum": true}, {"time": 261, "velocity": 0, "pitch": 59, "instrument": 0, "track": 9, "qtime": 21, "isDrum": true}, {"time": 261, "velocity": 0, "pitch": 82, "instrument": 0, "track": 9, "qtime": 21, "isDrum": true}, {"time": 261, "velocity": 0, "pitch": 85, "instrument": 0, "track": 9, "qtime": 21, "isDrum": true}, {"time": 261, "velocity": 108, "pitch": 54, "instrument": 0, "track": 9, "qtime": 21, "isDrum": true}, {"time": 261, "velocity": 108, "pitch": 59, "instrument": 0, "track": 9, "qtime": 21, "isDrum": true}, {"time": 261, "velocity": 108, "pitch": 69, "instrument": 0, "track": 9, "qtime": 21, "isDrum": true}, {"time": 264, "velocity": 0, "pitch": 54, "instrument": 0, "track": 9, "qtime": 24, "isDrum": true}, {"time": 264, "velocity": 0, "pitch": 59, "instrument": 0, "track": 9, "qtime": 24, "isDrum": true}, {"time": 264, "velocity": 0, "pitch": 69, "instrument": 0, "track": 9, "qtime": 24, "isDrum": true}, {"time": 264, "velocity": 108, "pitch": 35, "instrument": 0, "track": 9, "qtime": 24, "isDrum": true}, {"time": 264, "velocity": 108, "pitch": 54, "instrument": 0, "track": 9, "qtime": 24, "isDrum": true}, {"time": 264, "velocity": 108, "pitch": 59, "instrument": 0, "track": 9, "qtime": 24, "isDrum": true}, {"time": 264, "velocity": 108, "pitch": 69, "instrument": 0, "track": 9, "qtime": 24, "isDrum": true}, {"time": 267, "velocity": 0, "pitch": 35, "instrument": 0, "track": 9, "qtime": 27, "isDrum": true}, {"time": 267, "velocity": 0, "pitch": 54, "instrument": 0, "track": 9, "qtime": 27, "isDrum": true}, {"time": 267, "velocity": 0, "pitch": 59, "instrument": 0, "track": 9, "qtime": 27, "isDrum": true}, {"time": 267, "velocity": 108, "pitch": 54, "instrument": 0, "track": 9, "qtime": 27, "isDrum": true}, {"time": 270, "velocity": 0, "pitch": 54, "instrument": 0, "track": 9, "qtime": 30, "isDrum": true}, {"time": 270, "velocity": 0, "pitch": 69, "instrument": 0, "track": 9, "qtime": 30, "isDrum": true}, {"time": 270, "velocity": 108, "pitch": 54, "instrument": 0, "track": 9, "qtime": 30, "isDrum": true}, {"time": 270, "velocity": 108, "pitch": 59, "instrument": 0, "track": 9, "qtime": 30, "isDrum": true}, {"time": 270, "velocity": 108, "pitch": 82, "instrument": 0, "track": 9, "qtime": 30, "isDrum": true}, {"time": 273, "velocity": 0, "pitch": 54, "instrument": 0, "track": 9, "qtime": 33, "isDrum": true}, {"time": 273, "velocity": 0, "pitch": 59, "instrument": 0, "track": 9, "qtime": 33, "isDrum": true}, {"time": 273, "velocity": 0, "pitch": 82, "instrument": 0, "track": 9, "qtime": 33, "isDrum": true}, {"time": 273, "velocity": 108, "pitch": 35, "instrument": 0, "track": 9, "qtime": 33, "isDrum": true}, {"time": 273, "velocity": 108, "pitch": 54, "instrument": 0, "track": 9, "qtime": 33, "isDrum": true}, {"time": 273, "velocity": 108, "pitch": 59, "instrument": 0, "track": 9, "qtime": 33, "isDrum": true}, {"time": 273, "velocity": 108, "pitch": 69, "instrument": 0, "track": 9, "qtime": 33, "isDrum": true}, {"time": 276, "velocity": 0, "pitch": 35, "instrument": 0, "track": 9, "qtime": 36, "isDrum": true}, {"time": 276, "velocity": 0, "pitch": 54, "instrument": 0, "track": 9, "qtime": 36, "isDrum": true}, {"time": 276, "velocity": 0, "pitch": 59, "instrument": 0, "track": 9, "qtime": 36, "isDrum": true}, {"time": 276, "velocity": 0, "pitch": 69, "instrument": 0, "track": 9, "qtime": 36, "isDrum": true}, {"time": 276, "velocity": 108, "pitch": 39, "instrument": 0, "track": 9, "qtime": 36, "isDrum": true}, {"time": 276, "velocity": 108, "pitch": 40, "instrument": 0, "track": 9, "qtime": 36, "isDrum": true}, {"time": 276, "velocity": 108, "pitch": 54, "instrument": 0, "track": 9, "qtime": 36, "isDrum": true}, {"time": 276, "velocity": 108, "pitch": 59, "instrument": 0, "track": 9, "qtime": 36, "isDrum": true}, {"time": 276, "velocity": 108, "pitch": 69, "instrument": 0, "track": 9, "qtime": 36, "isDrum": true}, {"time": 279, "velocity": 0, "pitch": 39, "instrument": 0, "track": 9, "qtime": 39, "isDrum": true}, {"time": 279, "velocity": 0, "pitch": 40, "instrument": 0, "track": 9, "qtime": 39, "isDrum": true}, {"time": 279, "velocity": 0, "pitch": 54, "instrument": 0, "track": 9, "qtime": 39, "isDrum": true}, {"time": 279, "velocity": 0, "pitch": 59, "instrument": 0, "track": 9, "qtime": 39, "isDrum": true}, {"time": 279, "velocity": 108, "pitch": 54, "instrument": 0, "track": 9, "qtime": 39, "isDrum": true}, {"time": 282, "velocity": 0, "pitch": 54, "instrument": 0, "track": 9, "qtime": 42, "isDrum": true}, {"time": 282, "velocity": 0, "pitch": 69, "instrument": 0, "track": 9, "qtime": 42, "isDrum": true}, {"time": 282, "velocity": 108, "pitch": 35, "instrument": 0, "track": 9, "qtime": 42, "isDrum": true}, {"time": 282, "velocity": 108, "pitch": 54, "instrument": 0, "track": 9, "qtime": 42, "isDrum": true}, {"time": 282, "velocity": 108, "pitch": 59, "instrument": 0, "track": 9, "qtime": 42, "isDrum": true}, {"time": 282, "velocity": 108, "pitch": 82, "instrument": 0, "track": 9, "qtime": 42, "isDrum": true}, {"time": 285, "velocity": 0, "pitch": 35, "instrument": 0, "track": 9, "qtime": 45, "isDrum": true}, {"time": 285, "velocity": 0, "pitch": 54, "instrument": 0, "track": 9, "qtime": 45, "isDrum": true}, {"time": 285, "velocity": 0, "pitch": 59, "instrument": 0, "track": 9, "qtime": 45, "isDrum": true}, {"time": 285, "velocity": 108, "pitch": 54, "instrument": 0, "track": 9, "qtime": 45, "isDrum": true}, {"time": 285, "velocity": 108, "pitch": 59, "instrument": 0, "track": 9, "qtime": 45, "isDrum": true}, {"time": 286, "velocity": 0, "pitch": 82, "instrument": 0, "track": 9, "qtime": 46, "isDrum": true}, {"time": 287, "velocity": 108, "pitch": 69, "instrument": 0, "track": 9, "qtime": 47, "isDrum": true}, {"time": 288, "velocity": 0, "pitch": 54, "instrument": 0, "track": 9, "qtime": 48, "isDrum": true}, {"time": 288, "velocity": 0, "pitch": 59, "instrument": 0, "track": 9, "qtime": 48, "isDrum": true}, {"time": 288, "velocity": 0, "pitch": 69, "instrument": 0, "track": 9, "qtime": 48, "isDrum": true}, {"time": 288, "velocity": 108, "pitch": 35, "instrument": 0, "track": 9, "qtime": 0, "isDrum": true}, {"time": 288, "velocity": 108, "pitch": 54, "instrument": 0, "track": 9, "qtime": 0, "isDrum": true}, {"time": 288, "velocity": 108, "pitch": 59, "instrument": 0, "track": 9, "qtime": 0, "isDrum": true}, {"time": 288, "velocity": 108, "pitch": 69, "instrument": 0, "track": 9, "qtime": 0, "isDrum": true}, {"time": 291, "velocity": 0, "pitch": 35, "instrument": 0, "track": 9, "qtime": 3, "isDrum": true}, {"time": 291, "velocity": 0, "pitch": 54, "instrument": 0, "track": 9, "qtime": 3, "isDrum": true}, {"time": 291, "velocity": 0, "pitch": 59, "instrument": 0, "track": 9, "qtime": 3, "isDrum": true}, {"time": 291, "velocity": 108, "pitch": 54, "instrument": 0, "track": 9, "qtime": 3, "isDrum": true}, {"time": 294, "velocity": 0, "pitch": 54, "instrument": 0, "track": 9, "qtime": 6, "isDrum": true}, {"time": 294, "velocity": 0, "pitch": 69, "instrument": 0, "track": 9, "qtime": 6, "isDrum": true}, {"time": 294, "velocity": 108, "pitch": 54, "instrument": 0, "track": 9, "qtime": 6, "isDrum": true}, {"time": 294, "velocity": 108, "pitch": 59, "instrument": 0, "track": 9, "qtime": 6, "isDrum": true}, {"time": 294, "velocity": 108, "pitch": 82, "instrument": 0, "track": 9, "qtime": 6, "isDrum": true}, {"time": 297, "velocity": 0, "pitch": 54, "instrument": 0, "track": 9, "qtime": 9, "isDrum": true}, {"time": 297, "velocity": 0, "pitch": 59, "instrument": 0, "track": 9, "qtime": 9, "isDrum": true}, {"time": 297, "velocity": 108, "pitch": 35, "instrument": 0, "track": 9, "qtime": 9, "isDrum": true}, {"time": 297, "velocity": 108, "pitch": 54, "instrument": 0, "track": 9, "qtime": 9, "isDrum": true}, {"time": 297, "velocity": 108, "pitch": 59, "instrument": 0, "track": 9, "qtime": 9, "isDrum": true}, {"time": 298, "velocity": 0, "pitch": 82, "instrument": 0, "track": 9, "qtime": 10, "isDrum": true}, {"time": 299, "velocity": 108, "pitch": 69, "instrument": 0, "track": 9, "qtime": 11, "isDrum": true}, {"time": 300, "velocity": 0, "pitch": 35, "instrument": 0, "track": 9, "qtime": 12, "isDrum": true}, {"time": 300, "velocity": 0, "pitch": 54, "instrument": 0, "track": 9, "qtime": 12, "isDrum": true}, {"time": 300, "velocity": 0, "pitch": 59, "instrument": 0, "track": 9, "qtime": 12, "isDrum": true}, {"time": 300, "velocity": 0, "pitch": 69, "instrument": 0, "track": 9, "qtime": 12, "isDrum": true}, {"time": 300, "velocity": 108, "pitch": 39, "instrument": 0, "track": 9, "qtime": 12, "isDrum": true}, {"time": 300, "velocity": 108, "pitch": 40, "instrument": 0, "track": 9, "qtime": 12, "isDrum": true}, {"time": 300, "velocity": 108, "pitch": 54, "instrument": 0, "track": 9, "qtime": 12, "isDrum": true}, {"time": 300, "velocity": 108, "pitch": 59, "instrument": 0, "track": 9, "qtime": 12, "isDrum": true}, {"time": 300, "velocity": 108, "pitch": 69, "instrument": 0, "track": 9, "qtime": 12, "isDrum": true}, {"time": 303, "velocity": 0, "pitch": 39, "instrument": 0, "track": 9, "qtime": 15, "isDrum": true}, {"time": 303, "velocity": 0, "pitch": 40, "instrument": 0, "track": 9, "qtime": 15, "isDrum": true}, {"time": 303, "velocity": 0, "pitch": 54, "instrument": 0, "track": 9, "qtime": 15, "isDrum": true}, {"time": 303, "velocity": 0, "pitch": 59, "instrument": 0, "track": 9, "qtime": 15, "isDrum": true}, {"time": 303, "velocity": 108, "pitch": 54, "instrument": 0, "track": 9, "qtime": 15, "isDrum": true}, {"time": 306, "velocity": 0, "pitch": 54, "instrument": 0, "track": 9, "qtime": 18, "isDrum": true}, {"time": 306, "velocity": 0, "pitch": 69, "instrument": 0, "track": 9, "qtime": 18, "isDrum": true}, {"time": 306, "velocity": 108, "pitch": 35, "instrument": 0, "track": 9, "qtime": 18, "isDrum": true}, {"time": 306, "velocity": 108, "pitch": 54, "instrument": 0, "track": 9, "qtime": 18, "isDrum": true}, {"time": 306, "velocity": 108, "pitch": 59, "instrument": 0, "track": 9, "qtime": 18, "isDrum": true}, {"time": 306, "velocity": 108, "pitch": 82, "instrument": 0, "track": 9, "qtime": 18, "isDrum": true}, {"time": 309, "velocity": 0, "pitch": 35, "instrument": 0, "track": 9, "qtime": 21, "isDrum": true}, {"time": 309, "velocity": 0, "pitch": 54, "instrument": 0, "track": 9, "qtime": 21, "isDrum": true}, {"time": 309, "velocity": 0, "pitch": 59, "instrument": 0, "track": 9, "qtime": 21, "isDrum": true}, {"time": 309, "velocity": 0, "pitch": 82, "instrument": 0, "track": 9, "qtime": 21, "isDrum": true}, {"time": 309, "velocity": 108, "pitch": 54, "instrument": 0, "track": 9, "qtime": 21, "isDrum": true}, {"time": 309, "velocity": 108, "pitch": 59, "instrument": 0, "track": 9, "qtime": 21, "isDrum": true}, {"time": 309, "velocity": 108, "pitch": 69, "instrument": 0, "track": 9, "qtime": 21, "isDrum": true}, {"time": 312, "velocity": 0, "pitch": 54, "instrument": 0, "track": 9, "qtime": 24, "isDrum": true}, {"time": 312, "velocity": 0, "pitch": 59, "instrument": 0, "track": 9, "qtime": 24, "isDrum": true}, {"time": 312, "velocity": 0, "pitch": 69, "instrument": 0, "track": 9, "qtime": 24, "isDrum": true}, {"time": 312, "velocity": 108, "pitch": 35, "instrument": 0, "track": 9, "qtime": 24, "isDrum": true}, {"time": 312, "velocity": 108, "pitch": 54, "instrument": 0, "track": 9, "qtime": 24, "isDrum": true}, {"time": 312, "velocity": 108, "pitch": 59, "instrument": 0, "track": 9, "qtime": 24, "isDrum": true}, {"time": 312, "velocity": 108, "pitch": 69, "instrument": 0, "track": 9, "qtime": 24, "isDrum": true}, {"time": 315, "velocity": 0, "pitch": 35, "instrument": 0, "track": 9, "qtime": 27, "isDrum": true}, {"time": 315, "velocity": 0, "pitch": 54, "instrument": 0, "track": 9, "qtime": 27, "isDrum": true}, {"time": 315, "velocity": 0, "pitch": 59, "instrument": 0, "track": 9, "qtime": 27, "isDrum": true}, {"time": 315, "velocity": 108, "pitch": 54, "instrument": 0, "track": 9, "qtime": 27, "isDrum": true}, {"time": 318, "velocity": 0, "pitch": 54, "instrument": 0, "track": 9, "qtime": 30, "isDrum": true}, {"time": 318, "velocity": 0, "pitch": 69, "instrument": 0, "track": 9, "qtime": 30, "isDrum": true}, {"time": 318, "velocity": 108, "pitch": 54, "instrument": 0, "track": 9, "qtime": 30, "isDrum": true}, {"time": 318, "velocity": 108, "pitch": 59, "instrument": 0, "track": 9, "qtime": 30, "isDrum": true}, {"time": 318, "velocity": 108, "pitch": 82, "instrument": 0, "track": 9, "qtime": 30, "isDrum": true}, {"time": 321, "velocity": 0, "pitch": 54, "instrument": 0, "track": 9, "qtime": 33, "isDrum": true}, {"time": 321, "velocity": 0, "pitch": 59, "instrument": 0, "track": 9, "qtime": 33, "isDrum": true}, {"time": 321, "velocity": 0, "pitch": 82, "instrument": 0, "track": 9, "qtime": 33, "isDrum": true}, {"time": 321, "velocity": 108, "pitch": 35, "instrument": 0, "track": 9, "qtime": 33, "isDrum": true}, {"time": 321, "velocity": 108, "pitch": 54, "instrument": 0, "track": 9, "qtime": 33, "isDrum": true}, {"time": 321, "velocity": 108, "pitch": 59, "instrument": 0, "track": 9, "qtime": 33, "isDrum": true}, {"time": 321, "velocity": 108, "pitch": 69, "instrument": 0, "track": 9, "qtime": 33, "isDrum": true}, {"time": 324, "velocity": 0, "pitch": 35, "instrument": 0, "track": 9, "qtime": 36, "isDrum": true}, {"time": 324, "velocity": 0, "pitch": 54, "instrument": 0, "track": 9, "qtime": 36, "isDrum": true}, {"time": 324, "velocity": 0, "pitch": 59, "instrument": 0, "track": 9, "qtime": 36, "isDrum": true}, {"time": 324, "velocity": 0, "pitch": 69, "instrument": 0, "track": 9, "qtime": 36, "isDrum": true}, {"time": 324, "velocity": 108, "pitch": 39, "instrument": 0, "track": 9, "qtime": 36, "isDrum": true}, {"time": 324, "velocity": 108, "pitch": 40, "instrument": 0, "track": 9, "qtime": 36, "isDrum": true}, {"time": 324, "velocity": 108, "pitch": 54, "instrument": 0, "track": 9, "qtime": 36, "isDrum": true}, {"time": 324, "velocity": 108, "pitch": 59, "instrument": 0, "track": 9, "qtime": 36, "isDrum": true}, {"time": 324, "velocity": 108, "pitch": 69, "instrument": 0, "track": 9, "qtime": 36, "isDrum": true}, {"time": 327, "velocity": 0, "pitch": 39, "instrument": 0, "track": 9, "qtime": 39, "isDrum": true}, {"time": 327, "velocity": 0, "pitch": 40, "instrument": 0, "track": 9, "qtime": 39, "isDrum": true}, {"time": 327, "velocity": 0, "pitch": 54, "instrument": 0, "track": 9, "qtime": 39, "isDrum": true}, {"time": 327, "velocity": 0, "pitch": 59, "instrument": 0, "track": 9, "qtime": 39, "isDrum": true}, {"time": 327, "velocity": 108, "pitch": 54, "instrument": 0, "track": 9, "qtime": 39, "isDrum": true}, {"time": 330, "velocity": 0, "pitch": 54, "instrument": 0, "track": 9, "qtime": 42, "isDrum": true}, {"time": 330, "velocity": 0, "pitch": 69, "instrument": 0, "track": 9, "qtime": 42, "isDrum": true}, {"time": 330, "velocity": 108, "pitch": 35, "instrument": 0, "track": 9, "qtime": 42, "isDrum": true}, {"time": 330, "velocity": 108, "pitch": 54, "instrument": 0, "track": 9, "qtime": 42, "isDrum": true}, {"time": 330, "velocity": 108, "pitch": 59, "instrument": 0, "track": 9, "qtime": 42, "isDrum": true}, {"time": 330, "velocity": 108, "pitch": 82, "instrument": 0, "track": 9, "qtime": 42, "isDrum": true}, {"time": 333, "velocity": 0, "pitch": 35, "instrument": 0, "track": 9, "qtime": 45, "isDrum": true}, {"time": 333, "velocity": 0, "pitch": 54, "instrument": 0, "track": 9, "qtime": 45, "isDrum": true}, {"time": 333, "velocity": 0, "pitch": 59, "instrument": 0, "track": 9, "qtime": 45, "isDrum": true}, {"time": 333, "velocity": 108, "pitch": 54, "instrument": 0, "track": 9, "qtime": 45, "isDrum": true}, {"time": 333, "velocity": 108, "pitch": 59, "instrument": 0, "track": 9, "qtime": 45, "isDrum": true}, {"time": 334, "velocity": 0, "pitch": 82, "instrument": 0, "track": 9, "qtime": 46, "isDrum": true}, {"time": 335, "velocity": 108, "pitch": 69, "instrument": 0, "track": 9, "qtime": 47, "isDrum": true}, {"time": 336, "velocity": 0, "pitch": 54, "instrument": 0, "track": 9, "qtime": 48, "isDrum": true}, {"time": 336, "velocity": 0, "pitch": 59, "instrument": 0, "track": 9, "qtime": 48, "isDrum": true}, {"time": 336, "velocity": 0, "pitch": 69, "instrument": 0, "track": 9, "qtime": 48, "isDrum": true}, {"time": 336, "velocity": 108, "pitch": 35, "instrument": 0, "track": 9, "qtime": 0, "isDrum": true}, {"time": 336, "velocity": 108, "pitch": 54, "instrument": 0, "track": 9, "qtime": 0, "isDrum": true}, {"time": 336, "velocity": 108, "pitch": 59, "instrument": 0, "track": 9, "qtime": 0, "isDrum": true}, {"time": 336, "velocity": 108, "pitch": 69, "instrument": 0, "track": 9, "qtime": 0, "isDrum": true}, {"time": 339, "velocity": 0, "pitch": 35, "instrument": 0, "track": 9, "qtime": 3, "isDrum": true}, {"time": 339, "velocity": 0, "pitch": 54, "instrument": 0, "track": 9, "qtime": 3, "isDrum": true}, {"time": 339, "velocity": 0, "pitch": 59, "instrument": 0, "track": 9, "qtime": 3, "isDrum": true}, {"time": 339, "velocity": 108, "pitch": 54, "instrument": 0, "track": 9, "qtime": 3, "isDrum": true}, {"time": 342, "velocity": 0, "pitch": 54, "instrument": 0, "track": 9, "qtime": 6, "isDrum": true}, {"time": 342, "velocity": 0, "pitch": 69, "instrument": 0, "track": 9, "qtime": 6, "isDrum": true}, {"time": 342, "velocity": 108, "pitch": 54, "instrument": 0, "track": 9, "qtime": 6, "isDrum": true}, {"time": 342, "velocity": 108, "pitch": 59, "instrument": 0, "track": 9, "qtime": 6, "isDrum": true}, {"time": 342, "velocity": 108, "pitch": 82, "instrument": 0, "track": 9, "qtime": 6, "isDrum": true}, {"time": 345, "velocity": 0, "pitch": 54, "instrument": 0, "track": 9, "qtime": 9, "isDrum": true}, {"time": 345, "velocity": 0, "pitch": 59, "instrument": 0, "track": 9, "qtime": 9, "isDrum": true}, {"time": 345, "velocity": 108, "pitch": 35, "instrument": 0, "track": 9, "qtime": 9, "isDrum": true}, {"time": 345, "velocity": 108, "pitch": 54, "instrument": 0, "track": 9, "qtime": 9, "isDrum": true}, {"time": 345, "velocity": 108, "pitch": 59, "instrument": 0, "track": 9, "qtime": 9, "isDrum": true}, {"time": 346, "velocity": 0, "pitch": 82, "instrument": 0, "track": 9, "qtime": 10, "isDrum": true}, {"time": 347, "velocity": 108, "pitch": 69, "instrument": 0, "track": 9, "qtime": 11, "isDrum": true}, {"time": 348, "velocity": 0, "pitch": 35, "instrument": 0, "track": 9, "qtime": 12, "isDrum": true}, {"time": 348, "velocity": 0, "pitch": 54, "instrument": 0, "track": 9, "qtime": 12, "isDrum": true}, {"time": 348, "velocity": 0, "pitch": 59, "instrument": 0, "track": 9, "qtime": 12, "isDrum": true}, {"time": 348, "velocity": 0, "pitch": 69, "instrument": 0, "track": 9, "qtime": 12, "isDrum": true}, {"time": 348, "velocity": 108, "pitch": 39, "instrument": 0, "track": 9, "qtime": 12, "isDrum": true}, {"time": 348, "velocity": 108, "pitch": 40, "instrument": 0, "track": 9, "qtime": 12, "isDrum": true}, {"time": 348, "velocity": 108, "pitch": 54, "instrument": 0, "track": 9, "qtime": 12, "isDrum": true}, {"time": 348, "velocity": 108, "pitch": 59, "instrument": 0, "track": 9, "qtime": 12, "isDrum": true}, {"time": 348, "velocity": 108, "pitch": 85, "instrument": 0, "track": 9, "qtime": 12, "isDrum": true}, {"time": 349, "velocity": 0, "pitch": 85, "instrument": 0, "track": 9, "qtime": 13, "isDrum": true}, {"time": 350, "velocity": 108, "pitch": 85, "instrument": 0, "track": 9, "qtime": 14, "isDrum": true}, {"time": 351, "velocity": 0, "pitch": 39, "instrument": 0, "track": 9, "qtime": 15, "isDrum": true}, {"time": 351, "velocity": 0, "pitch": 40, "instrument": 0, "track": 9, "qtime": 15, "isDrum": true}, {"time": 351, "velocity": 0, "pitch": 54, "instrument": 0, "track": 9, "qtime": 15, "isDrum": true}, {"time": 351, "velocity": 0, "pitch": 59, "instrument": 0, "track": 9, "qtime": 15, "isDrum": true}, {"time": 351, "velocity": 0, "pitch": 85, "instrument": 0, "track": 9, "qtime": 15, "isDrum": true}, {"time": 351, "velocity": 108, "pitch": 54, "instrument": 0, "track": 9, "qtime": 15, "isDrum": true}, {"time": 351, "velocity": 108, "pitch": 69, "instrument": 0, "track": 9, "qtime": 15, "isDrum": true}, {"time": 351, "velocity": 108, "pitch": 85, "instrument": 0, "track": 9, "qtime": 15, "isDrum": true}, {"time": 354, "velocity": 0, "pitch": 54, "instrument": 0, "track": 9, "qtime": 18, "isDrum": true}, {"time": 354, "velocity": 0, "pitch": 69, "instrument": 0, "track": 9, "qtime": 18, "isDrum": true}, {"time": 354, "velocity": 0, "pitch": 85, "instrument": 0, "track": 9, "qtime": 18, "isDrum": true}, {"time": 354, "velocity": 108, "pitch": 35, "instrument": 0, "track": 9, "qtime": 18, "isDrum": true}, {"time": 354, "velocity": 108, "pitch": 54, "instrument": 0, "track": 9, "qtime": 18, "isDrum": true}, {"time": 354, "velocity": 108, "pitch": 82, "instrument": 0, "track": 9, "qtime": 18, "isDrum": true}, {"time": 354, "velocity": 108, "pitch": 85, "instrument": 0, "track": 9, "qtime": 18, "isDrum": true}, {"time": 355, "velocity": 0, "pitch": 35, "instrument": 0, "track": 9, "qtime": 19, "isDrum": true}, {"time": 355, "velocity": 0, "pitch": 54, "instrument": 0, "track": 9, "qtime": 19, "isDrum": true}, {"time": 356, "velocity": 108, "pitch": 59, "instrument": 0, "track": 9, "qtime": 20, "isDrum": true}, {"time": 357, "velocity": 0, "pitch": 59, "instrument": 0, "track": 9, "qtime": 21, "isDrum": true}, {"time": 357, "velocity": 0, "pitch": 82, "instrument": 0, "track": 9, "qtime": 21, "isDrum": true}, {"time": 357, "velocity": 0, "pitch": 85, "instrument": 0, "track": 9, "qtime": 21, "isDrum": true}, {"time": 357, "velocity": 108, "pitch": 54, "instrument": 0, "track": 9, "qtime": 21, "isDrum": true}, {"time": 357, "velocity": 108, "pitch": 59, "instrument": 0, "track": 9, "qtime": 21, "isDrum": true}, {"time": 357, "velocity": 108, "pitch": 69, "instrument": 0, "track": 9, "qtime": 21, "isDrum": true}, {"time": 360, "velocity": 0, "pitch": 54, "instrument": 0, "track": 9, "qtime": 24, "isDrum": true}, {"time": 360, "velocity": 0, "pitch": 59, "instrument": 0, "track": 9, "qtime": 24, "isDrum": true}, {"time": 360, "velocity": 0, "pitch": 69, "instrument": 0, "track": 9, "qtime": 24, "isDrum": true}, {"time": 360, "velocity": 108, "pitch": 35, "instrument": 0, "track": 9, "qtime": 24, "isDrum": true}, {"time": 360, "velocity": 108, "pitch": 54, "instrument": 0, "track": 9, "qtime": 24, "isDrum": true}, {"time": 360, "velocity": 108, "pitch": 59, "instrument": 0, "track": 9, "qtime": 24, "isDrum": true}, {"time": 360, "velocity": 108, "pitch": 69, "instrument": 0, "track": 9, "qtime": 24, "isDrum": true}, {"time": 363, "velocity": 0, "pitch": 35, "instrument": 0, "track": 9, "qtime": 27, "isDrum": true}, {"time": 363, "velocity": 0, "pitch": 54, "instrument": 0, "track": 9, "qtime": 27, "isDrum": true}, {"time": 363, "velocity": 0, "pitch": 59, "instrument": 0, "track": 9, "qtime": 27, "isDrum": true}, {"time": 363, "velocity": 108, "pitch": 54, "instrument": 0, "track": 9, "qtime": 27, "isDrum": true}, {"time": 366, "velocity": 0, "pitch": 54, "instrument": 0, "track": 9, "qtime": 30, "isDrum": true}, {"time": 366, "velocity": 0, "pitch": 69, "instrument": 0, "track": 9, "qtime": 30, "isDrum": true}, {"time": 366, "velocity": 108, "pitch": 54, "instrument": 0, "track": 9, "qtime": 30, "isDrum": true}, {"time": 366, "velocity": 108, "pitch": 59, "instrument": 0, "track": 9, "qtime": 30, "isDrum": true}, {"time": 366, "velocity": 108, "pitch": 82, "instrument": 0, "track": 9, "qtime": 30, "isDrum": true}, {"time": 369, "velocity": 0, "pitch": 54, "instrument": 0, "track": 9, "qtime": 33, "isDrum": true}, {"time": 369, "velocity": 0, "pitch": 59, "instrument": 0, "track": 9, "qtime": 33, "isDrum": true}, {"time": 369, "velocity": 0, "pitch": 82, "instrument": 0, "track": 9, "qtime": 33, "isDrum": true}, {"time": 369, "velocity": 108, "pitch": 35, "instrument": 0, "track": 9, "qtime": 33, "isDrum": true}, {"time": 369, "velocity": 108, "pitch": 54, "instrument": 0, "track": 9, "qtime": 33, "isDrum": true}, {"time": 369, "velocity": 108, "pitch": 59, "instrument": 0, "track": 9, "qtime": 33, "isDrum": true}, {"time": 369, "velocity": 108, "pitch": 69, "instrument": 0, "track": 9, "qtime": 33, "isDrum": true}, {"time": 372, "velocity": 0, "pitch": 35, "instrument": 0, "track": 9, "qtime": 36, "isDrum": true}, {"time": 372, "velocity": 0, "pitch": 54, "instrument": 0, "track": 9, "qtime": 36, "isDrum": true}, {"time": 372, "velocity": 0, "pitch": 59, "instrument": 0, "track": 9, "qtime": 36, "isDrum": true}, {"time": 372, "velocity": 0, "pitch": 69, "instrument": 0, "track": 9, "qtime": 36, "isDrum": true}, {"time": 372, "velocity": 108, "pitch": 39, "instrument": 0, "track": 9, "qtime": 36, "isDrum": true}, {"time": 372, "velocity": 108, "pitch": 40, "instrument": 0, "track": 9, "qtime": 36, "isDrum": true}, {"time": 372, "velocity": 108, "pitch": 54, "instrument": 0, "track": 9, "qtime": 36, "isDrum": true}, {"time": 372, "velocity": 108, "pitch": 59, "instrument": 0, "track": 9, "qtime": 36, "isDrum": true}, {"time": 372, "velocity": 108, "pitch": 69, "instrument": 0, "track": 9, "qtime": 36, "isDrum": true}, {"time": 375, "velocity": 0, "pitch": 39, "instrument": 0, "track": 9, "qtime": 39, "isDrum": true}, {"time": 375, "velocity": 0, "pitch": 40, "instrument": 0, "track": 9, "qtime": 39, "isDrum": true}, {"time": 375, "velocity": 0, "pitch": 54, "instrument": 0, "track": 9, "qtime": 39, "isDrum": true}, {"time": 375, "velocity": 0, "pitch": 59, "instrument": 0, "track": 9, "qtime": 39, "isDrum": true}, {"time": 375, "velocity": 108, "pitch": 54, "instrument": 0, "track": 9, "qtime": 39, "isDrum": true}, {"time": 378, "velocity": 0, "pitch": 54, "instrument": 0, "track": 9, "qtime": 42, "isDrum": true}, {"time": 378, "velocity": 0, "pitch": 69, "instrument": 0, "track": 9, "qtime": 42, "isDrum": true}, {"time": 378, "velocity": 108, "pitch": 35, "instrument": 0, "track": 9, "qtime": 42, "isDrum": true}, {"time": 378, "velocity": 108, "pitch": 54, "instrument": 0, "track": 9, "qtime": 42, "isDrum": true}, {"time": 378, "velocity": 108, "pitch": 59, "instrument": 0, "track": 9, "qtime": 42, "isDrum": true}, {"time": 378, "velocity": 108, "pitch": 82, "instrument": 0, "track": 9, "qtime": 42, "isDrum": true}, {"time": 381, "velocity": 0, "pitch": 35, "instrument": 0, "track": 9, "qtime": 45, "isDrum": true}, {"time": 381, "velocity": 0, "pitch": 54, "instrument": 0, "track": 9, "qtime": 45, "isDrum": true}, {"time": 381, "velocity": 0, "pitch": 59, "instrument": 0, "track": 9, "qtime": 45, "isDrum": true}, {"time": 381, "velocity": 108, "pitch": 54, "instrument": 0, "track": 9, "qtime": 45, "isDrum": true}, {"time": 381, "velocity": 108, "pitch": 59, "instrument": 0, "track": 9, "qtime": 45, "isDrum": true}, {"time": 382, "velocity": 0, "pitch": 82, "instrument": 0, "track": 9, "qtime": 46, "isDrum": true}, {"time": 383, "velocity": 108, "pitch": 69, "instrument": 0, "track": 9, "qtime": 47, "isDrum": true}, {"time": 384, "velocity": 0, "pitch": 54, "instrument": 0, "track": 9, "qtime": 48, "isDrum": true}, {"time": 384, "velocity": 0, "pitch": 59, "instrument": 0, "track": 9, "qtime": 48, "isDrum": true}, {"time": 384, "velocity": 0, "pitch": 69, "instrument": 0, "track": 9, "qtime": 48, "isDrum": true}, {"time": 0, "velocity": 108, "pitch": 33, "instrument": 33, "track": 1, "qtime": 0, "isDrum": false}, {"time": 9, "velocity": 0, "pitch": 33, "instrument": 33, "track": 1, "qtime": 9, "isDrum": false}, {"time": 9, "velocity": 108, "pitch": 33, "instrument": 33, "track": 1, "qtime": 9, "isDrum": false}, {"time": 18, "velocity": 0, "pitch": 33, "instrument": 33, "track": 1, "qtime": 18, "isDrum": false}, {"time": 18, "velocity": 108, "pitch": 40, "instrument": 33, "track": 1, "qtime": 18, "isDrum": false}, {"time": 24, "velocity": 0, "pitch": 40, "instrument": 33, "track": 1, "qtime": 24, "isDrum": false}, {"time": 24, "velocity": 108, "pitch": 29, "instrument": 33, "track": 1, "qtime": 24, "isDrum": false}, {"time": 33, "velocity": 0, "pitch": 29, "instrument": 33, "track": 1, "qtime": 33, "isDrum": false}, {"time": 33, "velocity": 108, "pitch": 29, "instrument": 33, "track": 1, "qtime": 33, "isDrum": false}, {"time": 42, "velocity": 0, "pitch": 29, "instrument": 33, "track": 1, "qtime": 42, "isDrum": false}, {"time": 42, "velocity": 108, "pitch": 36, "instrument": 33, "track": 1, "qtime": 42, "isDrum": false}, {"time": 48, "velocity": 0, "pitch": 36, "instrument": 33, "track": 1, "qtime": 48, "isDrum": false}, {"time": 48, "velocity": 108, "pitch": 29, "instrument": 33, "track": 1, "qtime": 0, "isDrum": false}, {"time": 57, "velocity": 0, "pitch": 29, "instrument": 33, "track": 1, "qtime": 9, "isDrum": false}, {"time": 57, "velocity": 108, "pitch": 29, "instrument": 33, "track": 1, "qtime": 9, "isDrum": false}, {"time": 66, "velocity": 0, "pitch": 29, "instrument": 33, "track": 1, "qtime": 18, "isDrum": false}, {"time": 66, "velocity": 108, "pitch": 36, "instrument": 33, "track": 1, "qtime": 18, "isDrum": false}, {"time": 72, "velocity": 0, "pitch": 36, "instrument": 33, "track": 1, "qtime": 24, "isDrum": false}, {"time": 72, "velocity": 108, "pitch": 36, "instrument": 33, "track": 1, "qtime": 24, "isDrum": false}, {"time": 81, "velocity": 0, "pitch": 36, "instrument": 33, "track": 1, "qtime": 33, "isDrum": false}, {"time": 81, "velocity": 108, "pitch": 36, "instrument": 33, "track": 1, "qtime": 33, "isDrum": false}, {"time": 90, "velocity": 0, "pitch": 36, "instrument": 33, "track": 1, "qtime": 42, "isDrum": false}, {"time": 90, "velocity": 108, "pitch": 31, "instrument": 33, "track": 1, "qtime": 42, "isDrum": false}, {"time": 96, "velocity": 0, "pitch": 31, "instrument": 33, "track": 1, "qtime": 48, "isDrum": false}, {"time": 96, "velocity": 108, "pitch": 31, "instrument": 33, "track": 1, "qtime": 0, "isDrum": false}, {"time": 105, "velocity": 0, "pitch": 31, "instrument": 33, "track": 1, "qtime": 9, "isDrum": false}, {"time": 105, "velocity": 108, "pitch": 31, "instrument": 33, "track": 1, "qtime": 9, "isDrum": false}, {"time": 114, "velocity": 0, "pitch": 31, "instrument": 33, "track": 1, "qtime": 18, "isDrum": false}, {"time": 114, "velocity": 108, "pitch": 31, "instrument": 33, "track": 1, "qtime": 18, "isDrum": false}, {"time": 120, "velocity": 0, "pitch": 31, "instrument": 33, "track": 1, "qtime": 24, "isDrum": false}, {"time": 120, "velocity": 108, "pitch": 40, "instrument": 33, "track": 1, "qtime": 24, "isDrum": false}, {"time": 129, "velocity": 0, "pitch": 40, "instrument": 33, "track": 1, "qtime": 33, "isDrum": false}, {"time": 129, "velocity": 108, "pitch": 40, "instrument": 33, "track": 1, "qtime": 33, "isDrum": false}, {"time": 138, "velocity": 0, "pitch": 40, "instrument": 33, "track": 1, "qtime": 42, "isDrum": false}, {"time": 138, "velocity": 108, "pitch": 35, "instrument": 33, "track": 1, "qtime": 42, "isDrum": false}, {"time": 144, "velocity": 0, "pitch": 35, "instrument": 33, "track": 1, "qtime": 48, "isDrum": false}, {"time": 144, "velocity": 108, "pitch": 40, "instrument": 33, "track": 1, "qtime": 0, "isDrum": false}, {"time": 153, "velocity": 0, "pitch": 40, "instrument": 33, "track": 1, "qtime": 9, "isDrum": false}, {"time": 153, "velocity": 108, "pitch": 28, "instrument": 33, "track": 1, "qtime": 9, "isDrum": false}, {"time": 162, "velocity": 0, "pitch": 28, "instrument": 33, "track": 1, "qtime": 18, "isDrum": false}, {"time": 162, "velocity": 108, "pitch": 40, "instrument": 33, "track": 1, "qtime": 18, "isDrum": false}, {"time": 168, "velocity": 0, "pitch": 40, "instrument": 33, "track": 1, "qtime": 24, "isDrum": false}, {"time": 168, "velocity": 108, "pitch": 33, "instrument": 33, "track": 1, "qtime": 24, "isDrum": false}, {"time": 177, "velocity": 0, "pitch": 33, "instrument": 33, "track": 1, "qtime": 33, "isDrum": false}, {"time": 177, "velocity": 108, "pitch": 33, "instrument": 33, "track": 1, "qtime": 33, "isDrum": false}, {"time": 186, "velocity": 0, "pitch": 33, "instrument": 33, "track": 1, "qtime": 42, "isDrum": false}, {"time": 186, "velocity": 108, "pitch": 28, "instrument": 33, "track": 1, "qtime": 42, "isDrum": false}, {"time": 192, "velocity": 0, "pitch": 28, "instrument": 33, "track": 1, "qtime": 48, "isDrum": false}, {"time": 192, "velocity": 108, "pitch": 33, "instrument": 33, "track": 1, "qtime": 0, "isDrum": false}, {"time": 201, "velocity": 0, "pitch": 33, "instrument": 33, "track": 1, "qtime": 9, "isDrum": false}, {"time": 201, "velocity": 108, "pitch": 33, "instrument": 33, "track": 1, "qtime": 9, "isDrum": false}, {"time": 210, "velocity": 0, "pitch": 33, "instrument": 33, "track": 1, "qtime": 18, "isDrum": false}, {"time": 210, "velocity": 108, "pitch": 28, "instrument": 33, "track": 1, "qtime": 18, "isDrum": false}, {"time": 216, "velocity": 0, "pitch": 28, "instrument": 33, "track": 1, "qtime": 24, "isDrum": false}, {"time": 216, "velocity": 108, "pitch": 31, "instrument": 33, "track": 1, "qtime": 24, "isDrum": false}, {"time": 225, "velocity": 0, "pitch": 31, "instrument": 33, "track": 1, "qtime": 33, "isDrum": false}, {"time": 225, "velocity": 108, "pitch": 31, "instrument": 33, "track": 1, "qtime": 33, "isDrum": false}, {"time": 234, "velocity": 0, "pitch": 31, "instrument": 33, "track": 1, "qtime": 42, "isDrum": false}, {"time": 234, "velocity": 108, "pitch": 26, "instrument": 33, "track": 1, "qtime": 42, "isDrum": false}, {"time": 240, "velocity": 0, "pitch": 26, "instrument": 33, "track": 1, "qtime": 48, "isDrum": false}, {"time": 240, "velocity": 108, "pitch": 29, "instrument": 33, "track": 1, "qtime": 0, "isDrum": false}, {"time": 249, "velocity": 0, "pitch": 29, "instrument": 33, "track": 1, "qtime": 9, "isDrum": false}, {"time": 249, "velocity": 108, "pitch": 29, "instrument": 33, "track": 1, "qtime": 9, "isDrum": false}, {"time": 258, "velocity": 0, "pitch": 29, "instrument": 33, "track": 1, "qtime": 18, "isDrum": false}, {"time": 258, "velocity": 108, "pitch": 24, "instrument": 33, "track": 1, "qtime": 18, "isDrum": false}, {"time": 264, "velocity": 0, "pitch": 24, "instrument": 33, "track": 1, "qtime": 24, "isDrum": false}, {"time": 264, "velocity": 108, "pitch": 33, "instrument": 33, "track": 1, "qtime": 24, "isDrum": false}, {"time": 273, "velocity": 0, "pitch": 33, "instrument": 33, "track": 1, "qtime": 33, "isDrum": false}, {"time": 273, "velocity": 108, "pitch": 33, "instrument": 33, "track": 1, "qtime": 33, "isDrum": false}, {"time": 282, "velocity": 0, "pitch": 33, "instrument": 33, "track": 1, "qtime": 42, "isDrum": false}, {"time": 282, "velocity": 108, "pitch": 28, "instrument": 33, "track": 1, "qtime": 42, "isDrum": false}, {"time": 288, "velocity": 0, "pitch": 28, "instrument": 33, "track": 1, "qtime": 48, "isDrum": false}, {"time": 288, "velocity": 108, "pitch": 33, "instrument": 33, "track": 1, "qtime": 0, "isDrum": false}, {"time": 297, "velocity": 0, "pitch": 33, "instrument": 33, "track": 1, "qtime": 9, "isDrum": false}, {"time": 297, "velocity": 108, "pitch": 33, "instrument": 33, "track": 1, "qtime": 9, "isDrum": false}, {"time": 306, "velocity": 0, "pitch": 33, "instrument": 33, "track": 1, "qtime": 18, "isDrum": false}, {"time": 306, "velocity": 108, "pitch": 28, "instrument": 33, "track": 1, "qtime": 18, "isDrum": false}, {"time": 312, "velocity": 0, "pitch": 28, "instrument": 33, "track": 1, "qtime": 24, "isDrum": false}, {"time": 312, "velocity": 108, "pitch": 31, "instrument": 33, "track": 1, "qtime": 24, "isDrum": false}, {"time": 321, "velocity": 0, "pitch": 31, "instrument": 33, "track": 1, "qtime": 33, "isDrum": false}, {"time": 321, "velocity": 108, "pitch": 31, "instrument": 33, "track": 1, "qtime": 33, "isDrum": false}, {"time": 330, "velocity": 0, "pitch": 31, "instrument": 33, "track": 1, "qtime": 42, "isDrum": false}, {"time": 330, "velocity": 108, "pitch": 26, "instrument": 33, "track": 1, "qtime": 42, "isDrum": false}, {"time": 336, "velocity": 0, "pitch": 26, "instrument": 33, "track": 1, "qtime": 48, "isDrum": false}, {"time": 336, "velocity": 108, "pitch": 29, "instrument": 33, "track": 1, "qtime": 0, "isDrum": false}, {"time": 345, "velocity": 0, "pitch": 29, "instrument": 33, "track": 1, "qtime": 9, "isDrum": false}, {"time": 345, "velocity": 108, "pitch": 29, "instrument": 33, "track": 1, "qtime": 9, "isDrum": false}, {"time": 354, "velocity": 0, "pitch": 29, "instrument": 33, "track": 1, "qtime": 18, "isDrum": false}, {"time": 354, "velocity": 108, "pitch": 24, "instrument": 33, "track": 1, "qtime": 18, "isDrum": false}, {"time": 360, "velocity": 0, "pitch": 24, "instrument": 33, "track": 1, "qtime": 24, "isDrum": false}, {"time": 360, "velocity": 108, "pitch": 33, "instrument": 33, "track": 1, "qtime": 24, "isDrum": false}, {"time": 369, "velocity": 0, "pitch": 33, "instrument": 33, "track": 1, "qtime": 33, "isDrum": false}, {"time": 369, "velocity": 108, "pitch": 33, "instrument": 33, "track": 1, "qtime": 33, "isDrum": false}, {"time": 378, "velocity": 0, "pitch": 33, "instrument": 33, "track": 1, "qtime": 42, "isDrum": false}, {"time": 378, "velocity": 108, "pitch": 28, "instrument": 33, "track": 1, "qtime": 42, "isDrum": false}, {"time": 384, "velocity": 0, "pitch": 28, "instrument": 33, "track": 1, "qtime": 48, "isDrum": false}, {"time": 21, "velocity": 0, "pitch": 76, "instrument": 48, "track": 2, "qtime": 21, "isDrum": false}, {"time": 24, "velocity": 108, "pitch": 77, "instrument": 48, "track": 2, "qtime": 24, "isDrum": false}, {"time": 57, "velocity": 0, "pitch": 77, "instrument": 48, "track": 2, "qtime": 9, "isDrum": false}, {"time": 60, "velocity": 108, "pitch": 76, "instrument": 48, "track": 2, "qtime": 12, "isDrum": false}, {"time": 66, "velocity": 0, "pitch": 76, "instrument": 48, "track": 2, "qtime": 18, "isDrum": false}, {"time": 66, "velocity": 108, "pitch": 77, "instrument": 48, "track": 2, "qtime": 18, "isDrum": false}, {"time": 72, "velocity": 0, "pitch": 77, "instrument": 48, "track": 2, "qtime": 24, "isDrum": false}, {"time": 72, "velocity": 108, "pitch": 67, "instrument": 48, "track": 2, "qtime": 24, "isDrum": false}, {"time": 72, "velocity": 108, "pitch": 79, "instrument": 48, "track": 2, "qtime": 24, "isDrum": false}, {"time": 93, "velocity": 0, "pitch": 67, "instrument": 48, "track": 2, "qtime": 45, "isDrum": false}, {"time": 93, "velocity": 0, "pitch": 79, "instrument": 48, "track": 2, "qtime": 45, "isDrum": false}, {"time": 96, "velocity": 108, "pitch": 83, "instrument": 48, "track": 2, "qtime": 0, "isDrum": false}, {"time": 117, "velocity": 0, "pitch": 83, "instrument": 48, "track": 2, "qtime": 21, "isDrum": false}, {"time": 120, "velocity": 108, "pitch": 64, "instrument": 48, "track": 2, "qtime": 24, "isDrum": false}, {"time": 120, "velocity": 108, "pitch": 80, "instrument": 48, "track": 2, "qtime": 24, "isDrum": false}, {"time": 141, "velocity": 0, "pitch": 64, "instrument": 48, "track": 2, "qtime": 45, "isDrum": false}, {"time": 141, "velocity": 0, "pitch": 80, "instrument": 48, "track": 2, "qtime": 45, "isDrum": false}, {"time": 168, "velocity": 108, "pitch": 72, "instrument": 48, "track": 2, "qtime": 24, "isDrum": false}, {"time": 168, "velocity": 108, "pitch": 76, "instrument": 48, "track": 2, "qtime": 24, "isDrum": false}, {"time": 168, "velocity": 108, "pitch": 81, "instrument": 48, "track": 2, "qtime": 24, "isDrum": false}, {"time": 213, "velocity": 0, "pitch": 72, "instrument": 48, "track": 2, "qtime": 21, "isDrum": false}, {"time": 213, "velocity": 0, "pitch": 76, "instrument": 48, "track": 2, "qtime": 21, "isDrum": false}, {"time": 213, "velocity": 0, "pitch": 81, "instrument": 48, "track": 2, "qtime": 21, "isDrum": false}, {"time": 216, "velocity": 108, "pitch": 71, "instrument": 48, "track": 2, "qtime": 24, "isDrum": false}, {"time": 216, "velocity": 108, "pitch": 74, "instrument": 48, "track": 2, "qtime": 24, "isDrum": false}, {"time": 216, "velocity": 108, "pitch": 79, "instrument": 48, "track": 2, "qtime": 24, "isDrum": false}, {"time": 237, "velocity": 0, "pitch": 71, "instrument": 48, "track": 2, "qtime": 45, "isDrum": false}, {"time": 237, "velocity": 0, "pitch": 74, "instrument": 48, "track": 2, "qtime": 45, "isDrum": false}, {"time": 237, "velocity": 0, "pitch": 79, "instrument": 48, "track": 2, "qtime": 45, "isDrum": false}, {"time": 240, "velocity": 108, "pitch": 69, "instrument": 48, "track": 2, "qtime": 0, "isDrum": false}, {"time": 240, "velocity": 108, "pitch": 72, "instrument": 48, "track": 2, "qtime": 0, "isDrum": false}, {"time": 240, "velocity": 108, "pitch": 77, "instrument": 48, "track": 2, "qtime": 0, "isDrum": false}, {"time": 261, "velocity": 0, "pitch": 69, "instrument": 48, "track": 2, "qtime": 21, "isDrum": false}, {"time": 261, "velocity": 0, "pitch": 72, "instrument": 48, "track": 2, "qtime": 21, "isDrum": false}, {"time": 261, "velocity": 0, "pitch": 77, "instrument": 48, "track": 2, "qtime": 21, "isDrum": false}, {"time": 264, "velocity": 108, "pitch": 69, "instrument": 48, "track": 2, "qtime": 24, "isDrum": false}, {"time": 264, "velocity": 108, "pitch": 72, "instrument": 48, "track": 2, "qtime": 24, "isDrum": false}, {"time": 264, "velocity": 108, "pitch": 76, "instrument": 48, "track": 2, "qtime": 24, "isDrum": false}, {"time": 309, "velocity": 0, "pitch": 69, "instrument": 48, "track": 2, "qtime": 21, "isDrum": false}, {"time": 309, "velocity": 0, "pitch": 72, "instrument": 48, "track": 2, "qtime": 21, "isDrum": false}, {"time": 309, "velocity": 0, "pitch": 76, "instrument": 48, "track": 2, "qtime": 21, "isDrum": false}, {"time": 312, "velocity": 108, "pitch": 71, "instrument": 48, "track": 2, "qtime": 24, "isDrum": false}, {"time": 312, "velocity": 108, "pitch": 74, "instrument": 48, "track": 2, "qtime": 24, "isDrum": false}, {"time": 312, "velocity": 108, "pitch": 79, "instrument": 48, "track": 2, "qtime": 24, "isDrum": false}, {"time": 333, "velocity": 0, "pitch": 71, "instrument": 48, "track": 2, "qtime": 45, "isDrum": false}, {"time": 333, "velocity": 0, "pitch": 74, "instrument": 48, "track": 2, "qtime": 45, "isDrum": false}, {"time": 333, "velocity": 0, "pitch": 79, "instrument": 48, "track": 2, "qtime": 45, "isDrum": false}, {"time": 336, "velocity": 108, "pitch": 69, "instrument": 48, "track": 2, "qtime": 0, "isDrum": false}, {"time": 336, "velocity": 108, "pitch": 72, "instrument": 48, "track": 2, "qtime": 0, "isDrum": false}, {"time": 336, "velocity": 108, "pitch": 77, "instrument": 48, "track": 2, "qtime": 0, "isDrum": false}, {"time": 357, "velocity": 0, "pitch": 69, "instrument": 48, "track": 2, "qtime": 21, "isDrum": false}, {"time": 357, "velocity": 0, "pitch": 72, "instrument": 48, "track": 2, "qtime": 21, "isDrum": false}, {"time": 357, "velocity": 0, "pitch": 77, "instrument": 48, "track": 2, "qtime": 21, "isDrum": false}, {"time": 360, "velocity": 108, "pitch": 69, "instrument": 48, "track": 2, "qtime": 24, "isDrum": false}, {"time": 360, "velocity": 108, "pitch": 72, "instrument": 48, "track": 2, "qtime": 24, "isDrum": false}, {"time": 360, "velocity": 108, "pitch": 76, "instrument": 48, "track": 2, "qtime": 24, "isDrum": false}, {"time": 3, "velocity": 108, "pitch": 57, "instrument": 24, "track": 3, "qtime": 3, "isDrum": false}, {"time": 3, "velocity": 108, "pitch": 60, "instrument": 24, "track": 3, "qtime": 3, "isDrum": false}, {"time": 3, "velocity": 108, "pitch": 64, "instrument": 24, "track": 3, "qtime": 3, "isDrum": false}, {"time": 6, "velocity": 0, "pitch": 57, "instrument": 24, "track": 3, "qtime": 6, "isDrum": false}, {"time": 6, "velocity": 0, "pitch": 60, "instrument": 24, "track": 3, "qtime": 6, "isDrum": false}, {"time": 6, "velocity": 0, "pitch": 64, "instrument": 24, "track": 3, "qtime": 6, "isDrum": false}, {"time": 9, "velocity": 108, "pitch": 57, "instrument": 24, "track": 3, "qtime": 9, "isDrum": false}, {"time": 9, "velocity": 108, "pitch": 60, "instrument": 24, "track": 3, "qtime": 9, "isDrum": false}, {"time": 9, "velocity": 108, "pitch": 64, "instrument": 24, "track": 3, "qtime": 9, "isDrum": false}, {"time": 12, "velocity": 0, "pitch": 57, "instrument": 24, "track": 3, "qtime": 12, "isDrum": false}, {"time": 12, "velocity": 0, "pitch": 60, "instrument": 24, "track": 3, "qtime": 12, "isDrum": false}, {"time": 12, "velocity": 0, "pitch": 64, "instrument": 24, "track": 3, "qtime": 12, "isDrum": false}, {"time": 18, "velocity": 108, "pitch": 52, "instrument": 24, "track": 3, "qtime": 18, "isDrum": false}, {"time": 18, "velocity": 108, "pitch": 57, "instrument": 24, "track": 3, "qtime": 18, "isDrum": false}, {"time": 18, "velocity": 108, "pitch": 60, "instrument": 24, "track": 3, "qtime": 18, "isDrum": false}, {"time": 24, "velocity": 0, "pitch": 52, "instrument": 24, "track": 3, "qtime": 24, "isDrum": false}, {"time": 24, "velocity": 0, "pitch": 57, "instrument": 24, "track": 3, "qtime": 24, "isDrum": false}, {"time": 24, "velocity": 0, "pitch": 60, "instrument": 24, "track": 3, "qtime": 24, "isDrum": false}, {"time": 27, "velocity": 108, "pitch": 53, "instrument": 24, "track": 3, "qtime": 27, "isDrum": false}, {"time": 27, "velocity": 108, "pitch": 57, "instrument": 24, "track": 3, "qtime": 27, "isDrum": false}, {"time": 27, "velocity": 108, "pitch": 60, "instrument": 24, "track": 3, "qtime": 27, "isDrum": false}, {"time": 30, "velocity": 0, "pitch": 53, "instrument": 24, "track": 3, "qtime": 30, "isDrum": false}, {"time": 30, "velocity": 0, "pitch": 57, "instrument": 24, "track": 3, "qtime": 30, "isDrum": false}, {"time": 30, "velocity": 0, "pitch": 60, "instrument": 24, "track": 3, "qtime": 30, "isDrum": false}, {"time": 33, "velocity": 108, "pitch": 53, "instrument": 24, "track": 3, "qtime": 33, "isDrum": false}, {"time": 33, "velocity": 108, "pitch": 57, "instrument": 24, "track": 3, "qtime": 33, "isDrum": false}, {"time": 33, "velocity": 108, "pitch": 60, "instrument": 24, "track": 3, "qtime": 33, "isDrum": false}, {"time": 36, "velocity": 0, "pitch": 53, "instrument": 24, "track": 3, "qtime": 36, "isDrum": false}, {"time": 36, "velocity": 0, "pitch": 57, "instrument": 24, "track": 3, "qtime": 36, "isDrum": false}, {"time": 36, "velocity": 0, "pitch": 60, "instrument": 24, "track": 3, "qtime": 36, "isDrum": false}, {"time": 39, "velocity": 108, "pitch": 53, "instrument": 24, "track": 3, "qtime": 39, "isDrum": false}, {"time": 39, "velocity": 108, "pitch": 57, "instrument": 24, "track": 3, "qtime": 39, "isDrum": false}, {"time": 39, "velocity": 108, "pitch": 60, "instrument": 24, "track": 3, "qtime": 39, "isDrum": false}, {"time": 42, "velocity": 0, "pitch": 53, "instrument": 24, "track": 3, "qtime": 42, "isDrum": false}, {"time": 42, "velocity": 0, "pitch": 57, "instrument": 24, "track": 3, "qtime": 42, "isDrum": false}, {"time": 42, "velocity": 0, "pitch": 60, "instrument": 24, "track": 3, "qtime": 42, "isDrum": false}, {"time": 42, "velocity": 108, "pitch": 53, "instrument": 24, "track": 3, "qtime": 42, "isDrum": false}, {"time": 42, "velocity": 108, "pitch": 57, "instrument": 24, "track": 3, "qtime": 42, "isDrum": false}, {"time": 42, "velocity": 108, "pitch": 60, "instrument": 24, "track": 3, "qtime": 42, "isDrum": false}, {"time": 45, "velocity": 0, "pitch": 53, "instrument": 24, "track": 3, "qtime": 45, "isDrum": false}, {"time": 45, "velocity": 0, "pitch": 57, "instrument": 24, "track": 3, "qtime": 45, "isDrum": false}, {"time": 45, "velocity": 0, "pitch": 60, "instrument": 24, "track": 3, "qtime": 45, "isDrum": false}, {"time": 45, "velocity": 108, "pitch": 53, "instrument": 24, "track": 3, "qtime": 45, "isDrum": false}, {"time": 45, "velocity": 108, "pitch": 57, "instrument": 24, "track": 3, "qtime": 45, "isDrum": false}, {"time": 45, "velocity": 108, "pitch": 60, "instrument": 24, "track": 3, "qtime": 45, "isDrum": false}, {"time": 48, "velocity": 0, "pitch": 53, "instrument": 24, "track": 3, "qtime": 48, "isDrum": false}, {"time": 48, "velocity": 0, "pitch": 57, "instrument": 24, "track": 3, "qtime": 48, "isDrum": false}, {"time": 48, "velocity": 0, "pitch": 60, "instrument": 24, "track": 3, "qtime": 48, "isDrum": false}, {"time": 51, "velocity": 108, "pitch": 57, "instrument": 24, "track": 3, "qtime": 3, "isDrum": false}, {"time": 51, "velocity": 108, "pitch": 60, "instrument": 24, "track": 3, "qtime": 3, "isDrum": false}, {"time": 51, "velocity": 108, "pitch": 65, "instrument": 24, "track": 3, "qtime": 3, "isDrum": false}, {"time": 54, "velocity": 0, "pitch": 57, "instrument": 24, "track": 3, "qtime": 6, "isDrum": false}, {"time": 54, "velocity": 0, "pitch": 60, "instrument": 24, "track": 3, "qtime": 6, "isDrum": false}, {"time": 54, "velocity": 0, "pitch": 65, "instrument": 24, "track": 3, "qtime": 6, "isDrum": false}, {"time": 57, "velocity": 108, "pitch": 57, "instrument": 24, "track": 3, "qtime": 9, "isDrum": false}, {"time": 57, "velocity": 108, "pitch": 60, "instrument": 24, "track": 3, "qtime": 9, "isDrum": false}, {"time": 57, "velocity": 108, "pitch": 65, "instrument": 24, "track": 3, "qtime": 9, "isDrum": false}, {"time": 60, "velocity": 0, "pitch": 57, "instrument": 24, "track": 3, "qtime": 12, "isDrum": false}, {"time": 60, "velocity": 0, "pitch": 60, "instrument": 24, "track": 3, "qtime": 12, "isDrum": false}, {"time": 60, "velocity": 0, "pitch": 65, "instrument": 24, "track": 3, "qtime": 12, "isDrum": false}, {"time": 66, "velocity": 108, "pitch": 53, "instrument": 24, "track": 3, "qtime": 18, "isDrum": false}, {"time": 66, "velocity": 108, "pitch": 57, "instrument": 24, "track": 3, "qtime": 18, "isDrum": false}, {"time": 66, "velocity": 108, "pitch": 60, "instrument": 24, "track": 3, "qtime": 18, "isDrum": false}, {"time": 72, "velocity": 0, "pitch": 53, "instrument": 24, "track": 3, "qtime": 24, "isDrum": false}, {"time": 72, "velocity": 0, "pitch": 57, "instrument": 24, "track": 3, "qtime": 24, "isDrum": false}, {"time": 72, "velocity": 0, "pitch": 60, "instrument": 24, "track": 3, "qtime": 24, "isDrum": false}, {"time": 75, "velocity": 108, "pitch": 55, "instrument": 24, "track": 3, "qtime": 27, "isDrum": false}, {"time": 75, "velocity": 108, "pitch": 60, "instrument": 24, "track": 3, "qtime": 27, "isDrum": false}, {"time": 75, "velocity": 108, "pitch": 64, "instrument": 24, "track": 3, "qtime": 27, "isDrum": false}, {"time": 78, "velocity": 0, "pitch": 55, "instrument": 24, "track": 3, "qtime": 30, "isDrum": false}, {"time": 78, "velocity": 0, "pitch": 60, "instrument": 24, "track": 3, "qtime": 30, "isDrum": false}, {"time": 78, "velocity": 0, "pitch": 64, "instrument": 24, "track": 3, "qtime": 30, "isDrum": false}, {"time": 81, "velocity": 108, "pitch": 55, "instrument": 24, "track": 3, "qtime": 33, "isDrum": false}, {"time": 81, "velocity": 108, "pitch": 60, "instrument": 24, "track": 3, "qtime": 33, "isDrum": false}, {"time": 81, "velocity": 108, "pitch": 64, "instrument": 24, "track": 3, "qtime": 33, "isDrum": false}, {"time": 84, "velocity": 0, "pitch": 55, "instrument": 24, "track": 3, "qtime": 36, "isDrum": false}, {"time": 84, "velocity": 0, "pitch": 60, "instrument": 24, "track": 3, "qtime": 36, "isDrum": false}, {"time": 84, "velocity": 0, "pitch": 64, "instrument": 24, "track": 3, "qtime": 36, "isDrum": false}, {"time": 90, "velocity": 108, "pitch": 55, "instrument": 24, "track": 3, "qtime": 42, "isDrum": false}, {"time": 90, "velocity": 108, "pitch": 60, "instrument": 24, "track": 3, "qtime": 42, "isDrum": false}, {"time": 90, "velocity": 108, "pitch": 64, "instrument": 24, "track": 3, "qtime": 42, "isDrum": false}, {"time": 96, "velocity": 0, "pitch": 55, "instrument": 24, "track": 3, "qtime": 48, "isDrum": false}, {"time": 96, "velocity": 0, "pitch": 60, "instrument": 24, "track": 3, "qtime": 48, "isDrum": false}, {"time": 96, "velocity": 0, "pitch": 64, "instrument": 24, "track": 3, "qtime": 48, "isDrum": false}, {"time": 99, "velocity": 108, "pitch": 55, "instrument": 24, "track": 3, "qtime": 3, "isDrum": false}, {"time": 99, "velocity": 108, "pitch": 59, "instrument": 24, "track": 3, "qtime": 3, "isDrum": false}, {"time": 99, "velocity": 108, "pitch": 62, "instrument": 24, "track": 3, "qtime": 3, "isDrum": false}, {"time": 102, "velocity": 0, "pitch": 55, "instrument": 24, "track": 3, "qtime": 6, "isDrum": false}, {"time": 102, "velocity": 0, "pitch": 59, "instrument": 24, "track": 3, "qtime": 6, "isDrum": false}, {"time": 102, "velocity": 0, "pitch": 62, "instrument": 24, "track": 3, "qtime": 6, "isDrum": false}, {"time": 105, "velocity": 108, "pitch": 55, "instrument": 24, "track": 3, "qtime": 9, "isDrum": false}, {"time": 105, "velocity": 108, "pitch": 59, "instrument": 24, "track": 3, "qtime": 9, "isDrum": false}, {"time": 105, "velocity": 108, "pitch": 62, "instrument": 24, "track": 3, "qtime": 9, "isDrum": false}, {"time": 108, "velocity": 0, "pitch": 55, "instrument": 24, "track": 3, "qtime": 12, "isDrum": false}, {"time": 108, "velocity": 0, "pitch": 59, "instrument": 24, "track": 3, "qtime": 12, "isDrum": false}, {"time": 108, "velocity": 0, "pitch": 62, "instrument": 24, "track": 3, "qtime": 12, "isDrum": false}, {"time": 114, "velocity": 108, "pitch": 55, "instrument": 24, "track": 3, "qtime": 18, "isDrum": false}, {"time": 114, "velocity": 108, "pitch": 59, "instrument": 24, "track": 3, "qtime": 18, "isDrum": false}, {"time": 114, "velocity": 108, "pitch": 62, "instrument": 24, "track": 3, "qtime": 18, "isDrum": false}, {"time": 120, "velocity": 0, "pitch": 55, "instrument": 24, "track": 3, "qtime": 24, "isDrum": false}, {"time": 120, "velocity": 0, "pitch": 59, "instrument": 24, "track": 3, "qtime": 24, "isDrum": false}, {"time": 120, "velocity": 0, "pitch": 62, "instrument": 24, "track": 3, "qtime": 24, "isDrum": false}, {"time": 123, "velocity": 108, "pitch": 64, "instrument": 24, "track": 3, "qtime": 27, "isDrum": false}, {"time": 123, "velocity": 108, "pitch": 68, "instrument": 24, "track": 3, "qtime": 27, "isDrum": false}, {"time": 123, "velocity": 108, "pitch": 71, "instrument": 24, "track": 3, "qtime": 27, "isDrum": false}, {"time": 126, "velocity": 0, "pitch": 64, "instrument": 24, "track": 3, "qtime": 30, "isDrum": false}, {"time": 126, "velocity": 0, "pitch": 68, "instrument": 24, "track": 3, "qtime": 30, "isDrum": false}, {"time": 126, "velocity": 0, "pitch": 71, "instrument": 24, "track": 3, "qtime": 30, "isDrum": false}, {"time": 129, "velocity": 108, "pitch": 64, "instrument": 24, "track": 3, "qtime": 33, "isDrum": false}, {"time": 129, "velocity": 108, "pitch": 68, "instrument": 24, "track": 3, "qtime": 33, "isDrum": false}, {"time": 129, "velocity": 108, "pitch": 71, "instrument": 24, "track": 3, "qtime": 33, "isDrum": false}, {"time": 132, "velocity": 0, "pitch": 64, "instrument": 24, "track": 3, "qtime": 36, "isDrum": false}, {"time": 132, "velocity": 0, "pitch": 68, "instrument": 24, "track": 3, "qtime": 36, "isDrum": false}, {"time": 132, "velocity": 0, "pitch": 71, "instrument": 24, "track": 3, "qtime": 36, "isDrum": false}, {"time": 138, "velocity": 108, "pitch": 64, "instrument": 24, "track": 3, "qtime": 42, "isDrum": false}, {"time": 138, "velocity": 108, "pitch": 68, "instrument": 24, "track": 3, "qtime": 42, "isDrum": false}, {"time": 138, "velocity": 108, "pitch": 71, "instrument": 24, "track": 3, "qtime": 42, "isDrum": false}, {"time": 144, "velocity": 0, "pitch": 64, "instrument": 24, "track": 3, "qtime": 48, "isDrum": false}, {"time": 144, "velocity": 0, "pitch": 68, "instrument": 24, "track": 3, "qtime": 48, "isDrum": false}, {"time": 144, "velocity": 0, "pitch": 71, "instrument": 24, "track": 3, "qtime": 48, "isDrum": false}, {"time": 147, "velocity": 108, "pitch": 64, "instrument": 24, "track": 3, "qtime": 3, "isDrum": false}, {"time": 147, "velocity": 108, "pitch": 68, "instrument": 24, "track": 3, "qtime": 3, "isDrum": false}, {"time": 147, "velocity": 108, "pitch": 71, "instrument": 24, "track": 3, "qtime": 3, "isDrum": false}, {"time": 150, "velocity": 0, "pitch": 64, "instrument": 24, "track": 3, "qtime": 6, "isDrum": false}, {"time": 150, "velocity": 0, "pitch": 68, "instrument": 24, "track": 3, "qtime": 6, "isDrum": false}, {"time": 150, "velocity": 0, "pitch": 71, "instrument": 24, "track": 3, "qtime": 6, "isDrum": false}, {"time": 153, "velocity": 108, "pitch": 64, "instrument": 24, "track": 3, "qtime": 9, "isDrum": false}, {"time": 153, "velocity": 108, "pitch": 68, "instrument": 24, "track": 3, "qtime": 9, "isDrum": false}, {"time": 153, "velocity": 108, "pitch": 71, "instrument": 24, "track": 3, "qtime": 9, "isDrum": false}, {"time": 156, "velocity": 0, "pitch": 64, "instrument": 24, "track": 3, "qtime": 12, "isDrum": false}, {"time": 156, "velocity": 0, "pitch": 68, "instrument": 24, "track": 3, "qtime": 12, "isDrum": false}, {"time": 156, "velocity": 0, "pitch": 71, "instrument": 24, "track": 3, "qtime": 12, "isDrum": false}, {"time": 162, "velocity": 108, "pitch": 64, "instrument": 24, "track": 3, "qtime": 18, "isDrum": false}, {"time": 162, "velocity": 108, "pitch": 68, "instrument": 24, "track": 3, "qtime": 18, "isDrum": false}, {"time": 162, "velocity": 108, "pitch": 71, "instrument": 24, "track": 3, "qtime": 18, "isDrum": false}, {"time": 165, "velocity": 0, "pitch": 64, "instrument": 24, "track": 3, "qtime": 21, "isDrum": false}, {"time": 165, "velocity": 0, "pitch": 68, "instrument": 24, "track": 3, "qtime": 21, "isDrum": false}, {"time": 165, "velocity": 0, "pitch": 71, "instrument": 24, "track": 3, "qtime": 21, "isDrum": false}, {"time": 165, "velocity": 108, "pitch": 64, "instrument": 24, "track": 3, "qtime": 21, "isDrum": false}, {"time": 165, "velocity": 108, "pitch": 68, "instrument": 24, "track": 3, "qtime": 21, "isDrum": false}, {"time": 165, "velocity": 108, "pitch": 71, "instrument": 24, "track": 3, "qtime": 21, "isDrum": false}, {"time": 168, "velocity": 0, "pitch": 64, "instrument": 24, "track": 3, "qtime": 24, "isDrum": false}, {"time": 168, "velocity": 0, "pitch": 68, "instrument": 24, "track": 3, "qtime": 24, "isDrum": false}, {"time": 168, "velocity": 0, "pitch": 71, "instrument": 24, "track": 3, "qtime": 24, "isDrum": false}, {"time": 171, "velocity": 108, "pitch": 57, "instrument": 24, "track": 3, "qtime": 27, "isDrum": false}, {"time": 171, "velocity": 108, "pitch": 60, "instrument": 24, "track": 3, "qtime": 27, "isDrum": false}, {"time": 171, "velocity": 108, "pitch": 64, "instrument": 24, "track": 3, "qtime": 27, "isDrum": false}, {"time": 174, "velocity": 0, "pitch": 57, "instrument": 24, "track": 3, "qtime": 30, "isDrum": false}, {"time": 174, "velocity": 0, "pitch": 60, "instrument": 24, "track": 3, "qtime": 30, "isDrum": false}, {"time": 174, "velocity": 0, "pitch": 64, "instrument": 24, "track": 3, "qtime": 30, "isDrum": false}, {"time": 177, "velocity": 108, "pitch": 57, "instrument": 24, "track": 3, "qtime": 33, "isDrum": false}, {"time": 177, "velocity": 108, "pitch": 60, "instrument": 24, "track": 3, "qtime": 33, "isDrum": false}, {"time": 177, "velocity": 108, "pitch": 64, "instrument": 24, "track": 3, "qtime": 33, "isDrum": false}, {"time": 180, "velocity": 0, "pitch": 57, "instrument": 24, "track": 3, "qtime": 36, "isDrum": false}, {"time": 180, "velocity": 0, "pitch": 60, "instrument": 24, "track": 3, "qtime": 36, "isDrum": false}, {"time": 180, "velocity": 0, "pitch": 64, "instrument": 24, "track": 3, "qtime": 36, "isDrum": false}, {"time": 183, "velocity": 108, "pitch": 57, "instrument": 24, "track": 3, "qtime": 39, "isDrum": false}, {"time": 183, "velocity": 108, "pitch": 60, "instrument": 24, "track": 3, "qtime": 39, "isDrum": false}, {"time": 183, "velocity": 108, "pitch": 64, "instrument": 24, "track": 3, "qtime": 39, "isDrum": false}, {"time": 186, "velocity": 0, "pitch": 57, "instrument": 24, "track": 3, "qtime": 42, "isDrum": false}, {"time": 186, "velocity": 0, "pitch": 60, "instrument": 24, "track": 3, "qtime": 42, "isDrum": false}, {"time": 186, "velocity": 0, "pitch": 64, "instrument": 24, "track": 3, "qtime": 42, "isDrum": false}, {"time": 189, "velocity": 108, "pitch": 57, "instrument": 24, "track": 3, "qtime": 45, "isDrum": false}, {"time": 189, "velocity": 108, "pitch": 60, "instrument": 24, "track": 3, "qtime": 45, "isDrum": false}, {"time": 189, "velocity": 108, "pitch": 64, "instrument": 24, "track": 3, "qtime": 45, "isDrum": false}, {"time": 192, "velocity": 0, "pitch": 57, "instrument": 24, "track": 3, "qtime": 48, "isDrum": false}, {"time": 192, "velocity": 0, "pitch": 60, "instrument": 24, "track": 3, "qtime": 48, "isDrum": false}, {"time": 192, "velocity": 0, "pitch": 64, "instrument": 24, "track": 3, "qtime": 48, "isDrum": false}, {"time": 195, "velocity": 108, "pitch": 57, "instrument": 24, "track": 3, "qtime": 3, "isDrum": false}, {"time": 195, "velocity": 108, "pitch": 60, "instrument": 24, "track": 3, "qtime": 3, "isDrum": false}, {"time": 195, "velocity": 108, "pitch": 64, "instrument": 24, "track": 3, "qtime": 3, "isDrum": false}, {"time": 198, "velocity": 0, "pitch": 57, "instrument": 24, "track": 3, "qtime": 6, "isDrum": false}, {"time": 198, "velocity": 0, "pitch": 60, "instrument": 24, "track": 3, "qtime": 6, "isDrum": false}, {"time": 198, "velocity": 0, "pitch": 64, "instrument": 24, "track": 3, "qtime": 6, "isDrum": false}, {"time": 201, "velocity": 108, "pitch": 57, "instrument": 24, "track": 3, "qtime": 9, "isDrum": false}, {"time": 201, "velocity": 108, "pitch": 60, "instrument": 24, "track": 3, "qtime": 9, "isDrum": false}, {"time": 201, "velocity": 108, "pitch": 64, "instrument": 24, "track": 3, "qtime": 9, "isDrum": false}, {"time": 204, "velocity": 0, "pitch": 57, "instrument": 24, "track": 3, "qtime": 12, "isDrum": false}, {"time": 204, "velocity": 0, "pitch": 60, "instrument": 24, "track": 3, "qtime": 12, "isDrum": false}, {"time": 204, "velocity": 0, "pitch": 64, "instrument": 24, "track": 3, "qtime": 12, "isDrum": false}, {"time": 207, "velocity": 108, "pitch": 57, "instrument": 24, "track": 3, "qtime": 15, "isDrum": false}, {"time": 207, "velocity": 108, "pitch": 60, "instrument": 24, "track": 3, "qtime": 15, "isDrum": false}, {"time": 207, "velocity": 108, "pitch": 64, "instrument": 24, "track": 3, "qtime": 15, "isDrum": false}, {"time": 210, "velocity": 0, "pitch": 57, "instrument": 24, "track": 3, "qtime": 18, "isDrum": false}, {"time": 210, "velocity": 0, "pitch": 60, "instrument": 24, "track": 3, "qtime": 18, "isDrum": false}, {"time": 210, "velocity": 0, "pitch": 64, "instrument": 24, "track": 3, "qtime": 18, "isDrum": false}, {"time": 210, "velocity": 108, "pitch": 57, "instrument": 24, "track": 3, "qtime": 18, "isDrum": false}, {"time": 210, "velocity": 108, "pitch": 60, "instrument": 24, "track": 3, "qtime": 18, "isDrum": false}, {"time": 210, "velocity": 108, "pitch": 64, "instrument": 24, "track": 3, "qtime": 18, "isDrum": false}, {"time": 213, "velocity": 0, "pitch": 57, "instrument": 24, "track": 3, "qtime": 21, "isDrum": false}, {"time": 213, "velocity": 0, "pitch": 60, "instrument": 24, "track": 3, "qtime": 21, "isDrum": false}, {"time": 213, "velocity": 0, "pitch": 64, "instrument": 24, "track": 3, "qtime": 21, "isDrum": false}, {"time": 216, "velocity": 108, "pitch": 55, "instrument": 24, "track": 3, "qtime": 24, "isDrum": false}, {"time": 216, "velocity": 108, "pitch": 59, "instrument": 24, "track": 3, "qtime": 24, "isDrum": false}, {"time": 216, "velocity": 108, "pitch": 62, "instrument": 24, "track": 3, "qtime": 24, "isDrum": false}, {"time": 219, "velocity": 0, "pitch": 55, "instrument": 24, "track": 3, "qtime": 27, "isDrum": false}, {"time": 219, "velocity": 0, "pitch": 59, "instrument": 24, "track": 3, "qtime": 27, "isDrum": false}, {"time": 219, "velocity": 0, "pitch": 62, "instrument": 24, "track": 3, "qtime": 27, "isDrum": false}, {"time": 222, "velocity": 108, "pitch": 55, "instrument": 24, "track": 3, "qtime": 30, "isDrum": false}, {"time": 222, "velocity": 108, "pitch": 59, "instrument": 24, "track": 3, "qtime": 30, "isDrum": false}, {"time": 222, "velocity": 108, "pitch": 62, "instrument": 24, "track": 3, "qtime": 30, "isDrum": false}, {"time": 225, "velocity": 0, "pitch": 55, "instrument": 24, "track": 3, "qtime": 33, "isDrum": false}, {"time": 225, "velocity": 0, "pitch": 59, "instrument": 24, "track": 3, "qtime": 33, "isDrum": false}, {"time": 225, "velocity": 0, "pitch": 62, "instrument": 24, "track": 3, "qtime": 33, "isDrum": false}, {"time": 228, "velocity": 108, "pitch": 55, "instrument": 24, "track": 3, "qtime": 36, "isDrum": false}, {"time": 228, "velocity": 108, "pitch": 59, "instrument": 24, "track": 3, "qtime": 36, "isDrum": false}, {"time": 228, "velocity": 108, "pitch": 62, "instrument": 24, "track": 3, "qtime": 36, "isDrum": false}, {"time": 231, "velocity": 0, "pitch": 55, "instrument": 24, "track": 3, "qtime": 39, "isDrum": false}, {"time": 231, "velocity": 0, "pitch": 59, "instrument": 24, "track": 3, "qtime": 39, "isDrum": false}, {"time": 231, "velocity": 0, "pitch": 62, "instrument": 24, "track": 3, "qtime": 39, "isDrum": false}, {"time": 234, "velocity": 108, "pitch": 55, "instrument": 24, "track": 3, "qtime": 42, "isDrum": false}, {"time": 234, "velocity": 108, "pitch": 59, "instrument": 24, "track": 3, "qtime": 42, "isDrum": false}, {"time": 234, "velocity": 108, "pitch": 62, "instrument": 24, "track": 3, "qtime": 42, "isDrum": false}, {"time": 237, "velocity": 0, "pitch": 55, "instrument": 24, "track": 3, "qtime": 45, "isDrum": false}, {"time": 237, "velocity": 0, "pitch": 59, "instrument": 24, "track": 3, "qtime": 45, "isDrum": false}, {"time": 237, "velocity": 0, "pitch": 62, "instrument": 24, "track": 3, "qtime": 45, "isDrum": false}, {"time": 237, "velocity": 108, "pitch": 55, "instrument": 24, "track": 3, "qtime": 45, "isDrum": false}, {"time": 237, "velocity": 108, "pitch": 59, "instrument": 24, "track": 3, "qtime": 45, "isDrum": false}, {"time": 237, "velocity": 108, "pitch": 62, "instrument": 24, "track": 3, "qtime": 45, "isDrum": false}, {"time": 240, "velocity": 0, "pitch": 55, "instrument": 24, "track": 3, "qtime": 48, "isDrum": false}, {"time": 240, "velocity": 0, "pitch": 59, "instrument": 24, "track": 3, "qtime": 48, "isDrum": false}, {"time": 240, "velocity": 0, "pitch": 62, "instrument": 24, "track": 3, "qtime": 48, "isDrum": false}, {"time": 243, "velocity": 108, "pitch": 57, "instrument": 24, "track": 3, "qtime": 3, "isDrum": false}, {"time": 243, "velocity": 108, "pitch": 60, "instrument": 24, "track": 3, "qtime": 3, "isDrum": false}, {"time": 243, "velocity": 108, "pitch": 65, "instrument": 24, "track": 3, "qtime": 3, "isDrum": false}, {"time": 246, "velocity": 0, "pitch": 57, "instrument": 24, "track": 3, "qtime": 6, "isDrum": false}, {"time": 246, "velocity": 0, "pitch": 60, "instrument": 24, "track": 3, "qtime": 6, "isDrum": false}, {"time": 246, "velocity": 0, "pitch": 65, "instrument": 24, "track": 3, "qtime": 6, "isDrum": false}, {"time": 249, "velocity": 108, "pitch": 57, "instrument": 24, "track": 3, "qtime": 9, "isDrum": false}, {"time": 249, "velocity": 108, "pitch": 60, "instrument": 24, "track": 3, "qtime": 9, "isDrum": false}, {"time": 249, "velocity": 108, "pitch": 65, "instrument": 24, "track": 3, "qtime": 9, "isDrum": false}, {"time": 252, "velocity": 0, "pitch": 57, "instrument": 24, "track": 3, "qtime": 12, "isDrum": false}, {"time": 252, "velocity": 0, "pitch": 60, "instrument": 24, "track": 3, "qtime": 12, "isDrum": false}, {"time": 252, "velocity": 0, "pitch": 65, "instrument": 24, "track": 3, "qtime": 12, "isDrum": false}, {"time": 255, "velocity": 108, "pitch": 57, "instrument": 24, "track": 3, "qtime": 15, "isDrum": false}, {"time": 255, "velocity": 108, "pitch": 60, "instrument": 24, "track": 3, "qtime": 15, "isDrum": false}, {"time": 255, "velocity": 108, "pitch": 65, "instrument": 24, "track": 3, "qtime": 15, "isDrum": false}, {"time": 258, "velocity": 0, "pitch": 57, "instrument": 24, "track": 3, "qtime": 18, "isDrum": false}, {"time": 258, "velocity": 0, "pitch": 60, "instrument": 24, "track": 3, "qtime": 18, "isDrum": false}, {"time": 258, "velocity": 0, "pitch": 65, "instrument": 24, "track": 3, "qtime": 18, "isDrum": false}, {"time": 258, "velocity": 108, "pitch": 57, "instrument": 24, "track": 3, "qtime": 18, "isDrum": false}, {"time": 258, "velocity": 108, "pitch": 60, "instrument": 24, "track": 3, "qtime": 18, "isDrum": false}, {"time": 258, "velocity": 108, "pitch": 65, "instrument": 24, "track": 3, "qtime": 18, "isDrum": false}, {"time": 261, "velocity": 0, "pitch": 57, "instrument": 24, "track": 3, "qtime": 21, "isDrum": false}, {"time": 261, "velocity": 0, "pitch": 60, "instrument": 24, "track": 3, "qtime": 21, "isDrum": false}, {"time": 261, "velocity": 0, "pitch": 65, "instrument": 24, "track": 3, "qtime": 21, "isDrum": false}, {"time": 264, "velocity": 108, "pitch": 57, "instrument": 24, "track": 3, "qtime": 24, "isDrum": false}, {"time": 264, "velocity": 108, "pitch": 60, "instrument": 24, "track": 3, "qtime": 24, "isDrum": false}, {"time": 264, "velocity": 108, "pitch": 64, "instrument": 24, "track": 3, "qtime": 24, "isDrum": false}, {"time": 267, "velocity": 0, "pitch": 57, "instrument": 24, "track": 3, "qtime": 27, "isDrum": false}, {"time": 267, "velocity": 0, "pitch": 60, "instrument": 24, "track": 3, "qtime": 27, "isDrum": false}, {"time": 267, "velocity": 0, "pitch": 64, "instrument": 24, "track": 3, "qtime": 27, "isDrum": false}, {"time": 270, "velocity": 108, "pitch": 57, "instrument": 24, "track": 3, "qtime": 30, "isDrum": false}, {"time": 270, "velocity": 108, "pitch": 60, "instrument": 24, "track": 3, "qtime": 30, "isDrum": false}, {"time": 270, "velocity": 108, "pitch": 64, "instrument": 24, "track": 3, "qtime": 30, "isDrum": false}, {"time": 273, "velocity": 0, "pitch": 57, "instrument": 24, "track": 3, "qtime": 33, "isDrum": false}, {"time": 273, "velocity": 0, "pitch": 60, "instrument": 24, "track": 3, "qtime": 33, "isDrum": false}, {"time": 273, "velocity": 0, "pitch": 64, "instrument": 24, "track": 3, "qtime": 33, "isDrum": false}, {"time": 276, "velocity": 108, "pitch": 57, "instrument": 24, "track": 3, "qtime": 36, "isDrum": false}, {"time": 276, "velocity": 108, "pitch": 60, "instrument": 24, "track": 3, "qtime": 36, "isDrum": false}, {"time": 276, "velocity": 108, "pitch": 64, "instrument": 24, "track": 3, "qtime": 36, "isDrum": false}, {"time": 279, "velocity": 0, "pitch": 57, "instrument": 24, "track": 3, "qtime": 39, "isDrum": false}, {"time": 279, "velocity": 0, "pitch": 60, "instrument": 24, "track": 3, "qtime": 39, "isDrum": false}, {"time": 279, "velocity": 0, "pitch": 64, "instrument": 24, "track": 3, "qtime": 39, "isDrum": false}, {"time": 282, "velocity": 108, "pitch": 57, "instrument": 24, "track": 3, "qtime": 42, "isDrum": false}, {"time": 282, "velocity": 108, "pitch": 60, "instrument": 24, "track": 3, "qtime": 42, "isDrum": false}, {"time": 282, "velocity": 108, "pitch": 64, "instrument": 24, "track": 3, "qtime": 42, "isDrum": false}, {"time": 285, "velocity": 0, "pitch": 57, "instrument": 24, "track": 3, "qtime": 45, "isDrum": false}, {"time": 285, "velocity": 0, "pitch": 60, "instrument": 24, "track": 3, "qtime": 45, "isDrum": false}, {"time": 285, "velocity": 0, "pitch": 64, "instrument": 24, "track": 3, "qtime": 45, "isDrum": false}, {"time": 285, "velocity": 108, "pitch": 57, "instrument": 24, "track": 3, "qtime": 45, "isDrum": false}, {"time": 285, "velocity": 108, "pitch": 60, "instrument": 24, "track": 3, "qtime": 45, "isDrum": false}, {"time": 285, "velocity": 108, "pitch": 64, "instrument": 24, "track": 3, "qtime": 45, "isDrum": false}, {"time": 288, "velocity": 0, "pitch": 57, "instrument": 24, "track": 3, "qtime": 48, "isDrum": false}, {"time": 288, "velocity": 0, "pitch": 60, "instrument": 24, "track": 3, "qtime": 48, "isDrum": false}, {"time": 288, "velocity": 0, "pitch": 64, "instrument": 24, "track": 3, "qtime": 48, "isDrum": false}, {"time": 288, "velocity": 108, "pitch": 57, "instrument": 24, "track": 3, "qtime": 48, "isDrum": false}, {"time": 288, "velocity": 108, "pitch": 60, "instrument": 24, "track": 3, "qtime": 48, "isDrum": false}, {"time": 288, "velocity": 108, "pitch": 64, "instrument": 24, "track": 3, "qtime": 48, "isDrum": false}, {"time": 291, "velocity": 0, "pitch": 57, "instrument": 24, "track": 3, "qtime": 51, "isDrum": false}, {"time": 291, "velocity": 0, "pitch": 60, "instrument": 24, "track": 3, "qtime": 51, "isDrum": false}, {"time": 291, "velocity": 0, "pitch": 64, "instrument": 24, "track": 3, "qtime": 51, "isDrum": false}, {"time": 291, "velocity": 108, "pitch": 57, "instrument": 24, "track": 3, "qtime": 3, "isDrum": false}, {"time": 291, "velocity": 108, "pitch": 60, "instrument": 24, "track": 3, "qtime": 3, "isDrum": false}, {"time": 291, "velocity": 108, "pitch": 64, "instrument": 24, "track": 3, "qtime": 3, "isDrum": false}, {"time": 294, "velocity": 0, "pitch": 57, "instrument": 24, "track": 3, "qtime": 6, "isDrum": false}, {"time": 294, "velocity": 0, "pitch": 60, "instrument": 24, "track": 3, "qtime": 6, "isDrum": false}, {"time": 294, "velocity": 0, "pitch": 64, "instrument": 24, "track": 3, "qtime": 6, "isDrum": false}, {"time": 297, "velocity": 108, "pitch": 57, "instrument": 24, "track": 3, "qtime": 9, "isDrum": false}, {"time": 297, "velocity": 108, "pitch": 60, "instrument": 24, "track": 3, "qtime": 9, "isDrum": false}, {"time": 297, "velocity": 108, "pitch": 64, "instrument": 24, "track": 3, "qtime": 9, "isDrum": false}, {"time": 300, "velocity": 0, "pitch": 57, "instrument": 24, "track": 3, "qtime": 12, "isDrum": false}, {"time": 300, "velocity": 0, "pitch": 60, "instrument": 24, "track": 3, "qtime": 12, "isDrum": false}, {"time": 300, "velocity": 0, "pitch": 64, "instrument": 24, "track": 3, "qtime": 12, "isDrum": false}, {"time": 303, "velocity": 108, "pitch": 57, "instrument": 24, "track": 3, "qtime": 15, "isDrum": false}, {"time": 303, "velocity": 108, "pitch": 60, "instrument": 24, "track": 3, "qtime": 15, "isDrum": false}, {"time": 303, "velocity": 108, "pitch": 64, "instrument": 24, "track": 3, "qtime": 15, "isDrum": false}, {"time": 306, "velocity": 0, "pitch": 57, "instrument": 24, "track": 3, "qtime": 18, "isDrum": false}, {"time": 306, "velocity": 0, "pitch": 60, "instrument": 24, "track": 3, "qtime": 18, "isDrum": false}, {"time": 306, "velocity": 0, "pitch": 64, "instrument": 24, "track": 3, "qtime": 18, "isDrum": false}, {"time": 306, "velocity": 108, "pitch": 57, "instrument": 24, "track": 3, "qtime": 18, "isDrum": false}, {"time": 306, "velocity": 108, "pitch": 60, "instrument": 24, "track": 3, "qtime": 18, "isDrum": false}, {"time": 306, "velocity": 108, "pitch": 64, "instrument": 24, "track": 3, "qtime": 18, "isDrum": false}, {"time": 309, "velocity": 0, "pitch": 57, "instrument": 24, "track": 3, "qtime": 21, "isDrum": false}, {"time": 309, "velocity": 0, "pitch": 60, "instrument": 24, "track": 3, "qtime": 21, "isDrum": false}, {"time": 309, "velocity": 0, "pitch": 64, "instrument": 24, "track": 3, "qtime": 21, "isDrum": false}, {"time": 312, "velocity": 108, "pitch": 55, "instrument": 24, "track": 3, "qtime": 24, "isDrum": false}, {"time": 312, "velocity": 108, "pitch": 59, "instrument": 24, "track": 3, "qtime": 24, "isDrum": false}, {"time": 312, "velocity": 108, "pitch": 62, "instrument": 24, "track": 3, "qtime": 24, "isDrum": false}, {"time": 315, "velocity": 0, "pitch": 55, "instrument": 24, "track": 3, "qtime": 27, "isDrum": false}, {"time": 315, "velocity": 0, "pitch": 59, "instrument": 24, "track": 3, "qtime": 27, "isDrum": false}, {"time": 315, "velocity": 0, "pitch": 62, "instrument": 24, "track": 3, "qtime": 27, "isDrum": false}, {"time": 318, "velocity": 108, "pitch": 55, "instrument": 24, "track": 3, "qtime": 30, "isDrum": false}, {"time": 318, "velocity": 108, "pitch": 59, "instrument": 24, "track": 3, "qtime": 30, "isDrum": false}, {"time": 318, "velocity": 108, "pitch": 62, "instrument": 24, "track": 3, "qtime": 30, "isDrum": false}, {"time": 321, "velocity": 0, "pitch": 55, "instrument": 24, "track": 3, "qtime": 33, "isDrum": false}, {"time": 321, "velocity": 0, "pitch": 59, "instrument": 24, "track": 3, "qtime": 33, "isDrum": false}, {"time": 321, "velocity": 0, "pitch": 62, "instrument": 24, "track": 3, "qtime": 33, "isDrum": false}, {"time": 324, "velocity": 108, "pitch": 55, "instrument": 24, "track": 3, "qtime": 36, "isDrum": false}, {"time": 324, "velocity": 108, "pitch": 59, "instrument": 24, "track": 3, "qtime": 36, "isDrum": false}, {"time": 324, "velocity": 108, "pitch": 62, "instrument": 24, "track": 3, "qtime": 36, "isDrum": false}, {"time": 327, "velocity": 0, "pitch": 55, "instrument": 24, "track": 3, "qtime": 39, "isDrum": false}, {"time": 327, "velocity": 0, "pitch": 59, "instrument": 24, "track": 3, "qtime": 39, "isDrum": false}, {"time": 327, "velocity": 0, "pitch": 62, "instrument": 24, "track": 3, "qtime": 39, "isDrum": false}, {"time": 330, "velocity": 108, "pitch": 55, "instrument": 24, "track": 3, "qtime": 42, "isDrum": false}, {"time": 330, "velocity": 108, "pitch": 59, "instrument": 24, "track": 3, "qtime": 42, "isDrum": false}, {"time": 330, "velocity": 108, "pitch": 62, "instrument": 24, "track": 3, "qtime": 42, "isDrum": false}, {"time": 333, "velocity": 0, "pitch": 55, "instrument": 24, "track": 3, "qtime": 45, "isDrum": false}, {"time": 333, "velocity": 0, "pitch": 59, "instrument": 24, "track": 3, "qtime": 45, "isDrum": false}, {"time": 333, "velocity": 0, "pitch": 62, "instrument": 24, "track": 3, "qtime": 45, "isDrum": false}, {"time": 333, "velocity": 108, "pitch": 55, "instrument": 24, "track": 3, "qtime": 45, "isDrum": false}, {"time": 333, "velocity": 108, "pitch": 59, "instrument": 24, "track": 3, "qtime": 45, "isDrum": false}, {"time": 333, "velocity": 108, "pitch": 62, "instrument": 24, "track": 3, "qtime": 45, "isDrum": false}, {"time": 336, "velocity": 0, "pitch": 55, "instrument": 24, "track": 3, "qtime": 48, "isDrum": false}, {"time": 336, "velocity": 0, "pitch": 59, "instrument": 24, "track": 3, "qtime": 48, "isDrum": false}, {"time": 336, "velocity": 0, "pitch": 62, "instrument": 24, "track": 3, "qtime": 48, "isDrum": false}, {"time": 339, "velocity": 108, "pitch": 57, "instrument": 24, "track": 3, "qtime": 3, "isDrum": false}, {"time": 339, "velocity": 108, "pitch": 60, "instrument": 24, "track": 3, "qtime": 3, "isDrum": false}, {"time": 339, "velocity": 108, "pitch": 65, "instrument": 24, "track": 3, "qtime": 3, "isDrum": false}, {"time": 342, "velocity": 0, "pitch": 57, "instrument": 24, "track": 3, "qtime": 6, "isDrum": false}, {"time": 342, "velocity": 0, "pitch": 60, "instrument": 24, "track": 3, "qtime": 6, "isDrum": false}, {"time": 342, "velocity": 0, "pitch": 65, "instrument": 24, "track": 3, "qtime": 6, "isDrum": false}, {"time": 345, "velocity": 108, "pitch": 57, "instrument": 24, "track": 3, "qtime": 9, "isDrum": false}, {"time": 345, "velocity": 108, "pitch": 60, "instrument": 24, "track": 3, "qtime": 9, "isDrum": false}, {"time": 345, "velocity": 108, "pitch": 65, "instrument": 24, "track": 3, "qtime": 9, "isDrum": false}, {"time": 348, "velocity": 0, "pitch": 57, "instrument": 24, "track": 3, "qtime": 12, "isDrum": false}, {"time": 348, "velocity": 0, "pitch": 60, "instrument": 24, "track": 3, "qtime": 12, "isDrum": false}, {"time": 348, "velocity": 0, "pitch": 65, "instrument": 24, "track": 3, "qtime": 12, "isDrum": false}, {"time": 351, "velocity": 108, "pitch": 57, "instrument": 24, "track": 3, "qtime": 15, "isDrum": false}, {"time": 351, "velocity": 108, "pitch": 60, "instrument": 24, "track": 3, "qtime": 15, "isDrum": false}, {"time": 351, "velocity": 108, "pitch": 65, "instrument": 24, "track": 3, "qtime": 15, "isDrum": false}, {"time": 354, "velocity": 0, "pitch": 57, "instrument": 24, "track": 3, "qtime": 18, "isDrum": false}, {"time": 354, "velocity": 0, "pitch": 60, "instrument": 24, "track": 3, "qtime": 18, "isDrum": false}, {"time": 354, "velocity": 0, "pitch": 65, "instrument": 24, "track": 3, "qtime": 18, "isDrum": false}, {"time": 354, "velocity": 108, "pitch": 57, "instrument": 24, "track": 3, "qtime": 18, "isDrum": false}, {"time": 354, "velocity": 108, "pitch": 60, "instrument": 24, "track": 3, "qtime": 18, "isDrum": false}, {"time": 354, "velocity": 108, "pitch": 65, "instrument": 24, "track": 3, "qtime": 18, "isDrum": false}, {"time": 357, "velocity": 0, "pitch": 57, "instrument": 24, "track": 3, "qtime": 21, "isDrum": false}, {"time": 357, "velocity": 0, "pitch": 60, "instrument": 24, "track": 3, "qtime": 21, "isDrum": false}, {"time": 357, "velocity": 0, "pitch": 65, "instrument": 24, "track": 3, "qtime": 21, "isDrum": false}, {"time": 360, "velocity": 108, "pitch": 57, "instrument": 24, "track": 3, "qtime": 24, "isDrum": false}, {"time": 360, "velocity": 108, "pitch": 60, "instrument": 24, "track": 3, "qtime": 24, "isDrum": false}, {"time": 360, "velocity": 108, "pitch": 64, "instrument": 24, "track": 3, "qtime": 24, "isDrum": false}, {"time": 363, "velocity": 0, "pitch": 57, "instrument": 24, "track": 3, "qtime": 27, "isDrum": false}, {"time": 363, "velocity": 0, "pitch": 60, "instrument": 24, "track": 3, "qtime": 27, "isDrum": false}, {"time": 363, "velocity": 0, "pitch": 64, "instrument": 24, "track": 3, "qtime": 27, "isDrum": false}, {"time": 366, "velocity": 108, "pitch": 57, "instrument": 24, "track": 3, "qtime": 30, "isDrum": false}, {"time": 366, "velocity": 108, "pitch": 60, "instrument": 24, "track": 3, "qtime": 30, "isDrum": false}, {"time": 366, "velocity": 108, "pitch": 64, "instrument": 24, "track": 3, "qtime": 30, "isDrum": false}, {"time": 369, "velocity": 0, "pitch": 57, "instrument": 24, "track": 3, "qtime": 33, "isDrum": false}, {"time": 369, "velocity": 0, "pitch": 60, "instrument": 24, "track": 3, "qtime": 33, "isDrum": false}, {"time": 369, "velocity": 0, "pitch": 64, "instrument": 24, "track": 3, "qtime": 33, "isDrum": false}, {"time": 372, "velocity": 108, "pitch": 57, "instrument": 24, "track": 3, "qtime": 36, "isDrum": false}, {"time": 372, "velocity": 108, "pitch": 60, "instrument": 24, "track": 3, "qtime": 36, "isDrum": false}, {"time": 372, "velocity": 108, "pitch": 64, "instrument": 24, "track": 3, "qtime": 36, "isDrum": false}, {"time": 375, "velocity": 0, "pitch": 57, "instrument": 24, "track": 3, "qtime": 39, "isDrum": false}, {"time": 375, "velocity": 0, "pitch": 60, "instrument": 24, "track": 3, "qtime": 39, "isDrum": false}, {"time": 375, "velocity": 0, "pitch": 64, "instrument": 24, "track": 3, "qtime": 39, "isDrum": false}, {"time": 378, "velocity": 108, "pitch": 57, "instrument": 24, "track": 3, "qtime": 42, "isDrum": false}, {"time": 378, "velocity": 108, "pitch": 60, "instrument": 24, "track": 3, "qtime": 42, "isDrum": false}, {"time": 378, "velocity": 108, "pitch": 64, "instrument": 24, "track": 3, "qtime": 42, "isDrum": false}, {"time": 381, "velocity": 0, "pitch": 57, "instrument": 24, "track": 3, "qtime": 45, "isDrum": false}, {"time": 381, "velocity": 0, "pitch": 60, "instrument": 24, "track": 3, "qtime": 45, "isDrum": false}, {"time": 381, "velocity": 0, "pitch": 64, "instrument": 24, "track": 3, "qtime": 45, "isDrum": false}, {"time": 381, "velocity": 108, "pitch": 57, "instrument": 24, "track": 3, "qtime": 45, "isDrum": false}, {"time": 381, "velocity": 108, "pitch": 60, "instrument": 24, "track": 3, "qtime": 45, "isDrum": false}, {"time": 381, "velocity": 108, "pitch": 64, "instrument": 24, "track": 3, "qtime": 45, "isDrum": false}, {"time": 384, "velocity": 0, "pitch": 57, "instrument": 24, "track": 3, "qtime": 48, "isDrum": false}, {"time": 384, "velocity": 0, "pitch": 60, "instrument": 24, "track": 3, "qtime": 48, "isDrum": false}, {"time": 384, "velocity": 0, "pitch": 64, "instrument": 24, "track": 3, "qtime": 48, "isDrum": false}], "resolution": 12, "tempo": 97, "minPitch": 24, "maxPitch": 85, "validSegments": [0], "validTracks": [15]}, "audio": "https://www.sfu.ca/~jeffe/examples/8b_gibbs_gen_6.mp3"}, {"src": "gen/8b_gibbs_24_orig.json", "highlights": [[], [], [], [], [], [], [], []], "caption": "An original sample from the dataset.", "mixer": [8, 8, 8, 8, 8, 8, 8, 8], "sample_id": "14a", "json": {"tracks": [{"bars": [{"events": [0, 1, 2, 3, 4, 5], "isFourFour": true, "hasNotes": true, "time": 0, "beatLength": 4}, {"events": [6, 7, 8, 9, 10, 11], "isFourFour": true, "hasNotes": true, "time": 48, "beatLength": 4}, {"events": [12, 13, 14, 15, 16, 17], "isFourFour": true, "hasNotes": true, "time": 96, "beatLength": 4}, {"events": [18, 19, 20, 21, 22, 23], "isFourFour": true, "hasNotes": true, "time": 144, "beatLength": 4}, {"events": [24, 25, 26, 27, 28, 29], "isFourFour": true, "hasNotes": true, "time": 192, "beatLength": 4}, {"events": [30, 31, 32, 33, 34, 35], "isFourFour": true, "hasNotes": true, "time": 240, "beatLength": 4}, {"events": [36, 37, 38, 39, 40, 41], "isFourFour": true, "hasNotes": true, "time": 288, "beatLength": 4}, {"events": [42, 43, 44, 45, 46, 47, 48, 49, 50, 51, 52, 53, 54, 55, 56, 57, 58, 59, 60, 61], "isFourFour": true, "hasNotes": true, "time": 336, "beatLength": 4}], "isDrum": false, "minPitch": 37, "maxPitch": 75, "instrument": 1, "avPolyphony": 3.0529449, "noteDensity": 9, "noteDensityV2": 2}, {"bars": [{"events": [62, 63, 64, 65, 66, 67, 68, 69, 70, 71, 72, 73], "isFourFour": true, "hasNotes": true, "time": 0, "beatLength": 4}, {"events": [74, 75, 76, 77, 78, 79, 80, 81, 82, 83], "isFourFour": true, "hasNotes": true, "time": 48, "beatLength": 4}, {"events": [84, 85, 86, 87, 88, 89], "isFourFour": true, "hasNotes": true, "time": 96, "beatLength": 4}, {"events": [90, 91, 92, 93, 94, 95, 96, 97, 98, 99, 100, 101], "isFourFour": true, "hasNotes": true, "time": 144, "beatLength": 4}, {"events": [102, 103, 104, 105, 106, 107, 108, 109, 110, 111, 112, 113], "isFourFour": true, "hasNotes": true, "time": 192, "beatLength": 4}, {"events": [114, 115, 116, 117, 118, 119, 120, 121, 122, 123, 124, 125], "isFourFour": true, "hasNotes": true, "time": 240, "beatLength": 4}, {"events": [126, 127, 128, 129, 130, 131, 132, 133, 134, 135, 136, 137], "isFourFour": true, "hasNotes": true, "time": 288, "beatLength": 4}, {"events": [138, 139, 140, 141, 142, 143, 144, 145, 146, 147], "isFourFour": true, "hasNotes": true, "time": 336, "beatLength": 4}], "isDrum": false, "minPitch": 34, "maxPitch": 51, "instrument": 24, "avPolyphony": 1.00858939, "noteDensity": 9, "noteDensityV2": 2}, {"bars": [{"events": [148, 149, 150, 151, 152, 153, 154, 155, 156, 157, 158, 159, 160, 161, 162, 163, 164, 165, 166, 167, 168, 169, 170, 171, 172, 173, 174, 175, 176, 177], "isFourFour": true, "hasNotes": true, "time": 0, "beatLength": 4}, {"events": [178, 179, 180, 181, 182, 183, 184, 185, 186, 187, 188, 189, 190, 191, 192, 193, 194, 195, 196, 197, 198, 199, 200, 201, 202, 203, 204, 205, 206, 207, 208, 209, 210, 211, 212, 213], "isFourFour": true, "hasNotes": true, "time": 48, "beatLength": 4}, {"events": [214, 215, 216, 217, 218, 219, 220, 221, 222, 223, 224, 225, 226, 227, 228, 229, 230, 231, 232, 233, 234, 235, 236, 237, 238, 239, 240, 241, 242, 243], "isFourFour": true, "hasNotes": true, "time": 96, "beatLength": 4}, {"events": [244, 245, 246, 247, 248, 249, 250, 251, 252, 253, 254, 255, 256, 257, 258, 259, 260, 261, 262, 263, 264, 265, 266, 267, 268, 269, 270, 271, 272, 273, 274, 275, 276, 277, 278, 279], "isFourFour": true, "hasNotes": true, "time": 144, "beatLength": 4}, {"events": [280, 281, 282, 283, 284, 285, 286, 287, 288, 289, 290, 291, 292, 293, 294, 295, 296, 297, 298, 299, 300, 301, 302, 303, 304, 305, 306, 307, 308, 309, 310, 311, 312, 313, 314, 315], "isFourFour": true, "hasNotes": true, "time": 192, "beatLength": 4}, {"events": [316, 317, 318, 319, 320, 321, 322, 323, 324, 325, 326, 327, 328, 329, 330, 331, 332, 333, 334, 335, 336, 337, 338, 339, 340, 341, 342, 343, 344, 345, 346, 347, 348, 349, 350, 351], "isFourFour": true, "hasNotes": true, "time": 240, "beatLength": 4}, {"events": [352, 353, 354, 355, 356, 357, 358, 359, 360, 361, 362, 363, 364, 365, 366, 367, 368, 369, 370, 371, 372, 373, 374, 375, 376, 377, 378, 379, 380, 381, 382, 383, 384, 385, 386, 387], "isFourFour": true, "hasNotes": true, "time": 288, "beatLength": 4}, {"events": [388, 389, 390, 391, 392, 393, 394, 395, 396, 397, 398, 399, 400, 401, 402, 403, 404, 405, 406, 407, 408, 409, 410, 411, 412, 413, 414, 415, 416, 417, 418, 419, 420, 421, 422, 423], "isFourFour": true, "hasNotes": true, "time": 336, "beatLength": 4}], "isDrum": false, "minPitch": 51, "maxPitch": 70, "instrument": 25, "avPolyphony": 2.9620254, "noteDensity": 9, "noteDensityV2": 7}, {"bars": [{"events": [424, 425, 426, 427, 428, 429, 430, 431, 432, 433, 434, 435, 436, 437, 438, 439, 440, 441, 442, 443, 444, 445, 446, 447, 448, 449, 450, 451, 452, 453, 454, 455, 456, 457, 458, 459, 460, 461, 462, 463, 464, 465, 466, 467, 468, 469, 470, 471, 472, 473, 474, 475, 476, 477], "isFourFour": true, "hasNotes": true, "time": 0, "beatLength": 4}, {"events": [478, 479, 480, 481, 482, 483, 484, 485, 486, 487, 488, 489, 490, 491, 492, 493, 494, 495, 496, 497, 498, 499, 500, 501, 502, 503, 504, 505, 506, 507, 508, 509, 510, 511, 512, 513, 514, 515, 516, 517, 518, 519, 520, 521, 522, 523, 524, 525, 526, 527, 528, 529, 530, 531], "isFourFour": true, "hasNotes": true, "time": 48, "beatLength": 4}, {"events": [532, 533, 534, 535, 536, 537, 538, 539, 540, 541, 542, 543, 544, 545, 546, 547, 548, 549, 550, 551, 552, 553, 554, 555, 556, 557, 558, 559, 560, 561, 562, 563, 564, 565, 566, 567, 568, 569, 570, 571, 572, 573, 574, 575, 576, 577, 578, 579, 580, 581, 582, 583, 584, 585], "isFourFour": true, "hasNotes": true, "time": 96, "beatLength": 4}, {"events": [586, 587, 588, 589, 590, 591, 592, 593, 594, 595, 596, 597, 598, 599, 600, 601, 602, 603, 604, 605, 606, 607, 608, 609, 610, 611, 612, 613, 614, 615, 616, 617, 618, 619, 620, 621, 622, 623, 624, 625, 626, 627, 628, 629, 630, 631, 632, 633, 634, 635, 636, 637, 638, 639], "isFourFour": true, "hasNotes": true, "time": 144, "beatLength": 4}, {"events": [640, 641, 642, 643, 644, 645, 646, 647, 648, 649, 650, 651, 652, 653, 654, 655, 656, 657, 658, 659, 660, 661, 662, 663, 664, 665, 666, 667, 668, 669, 670, 671, 672, 673, 674, 675, 676, 677, 678, 679, 680, 681, 682, 683, 684, 685, 686, 687, 688, 689, 690, 691, 692, 693], "isFourFour": true, "hasNotes": true, "time": 192, "beatLength": 4}, {"events": [694, 695, 696, 697, 698, 699, 700, 701, 702, 703, 704, 705, 706, 707, 708, 709, 710, 711, 712, 713, 714, 715, 716, 717, 718, 719, 720, 721, 722, 723, 724, 725, 726, 727, 728, 729, 730, 731, 732, 733, 734, 735, 736, 737, 738, 739, 740, 741, 742, 743, 744, 745, 746, 747], "isFourFour": true, "hasNotes": true, "time": 240, "beatLength": 4}, {"events": [748, 749, 750, 751, 752, 753, 754, 755, 756, 757, 758, 759, 760, 761, 762, 763, 764, 765, 766, 767, 768, 769, 770, 771, 772, 773, 774, 775, 776, 777, 778, 779, 780, 781, 782, 783, 784, 785, 786, 787, 788, 789, 790, 791, 792, 793, 794, 795, 796, 797, 798, 799, 800, 801], "isFourFour": true, "hasNotes": true, "time": 288, "beatLength": 4}, {"events": [802, 803, 804, 805, 806, 807, 808, 809, 810, 811, 812, 813, 814, 815, 816, 817, 818, 819, 820, 821, 822, 823, 824, 825, 826, 827, 828, 829, 830, 831, 832, 833, 834, 835, 836, 837, 838, 839, 840, 841, 842, 843, 844, 845, 846, 847, 848, 849, 850, 851, 852, 853, 854, 855], "isFourFour": true, "hasNotes": true, "time": 336, "beatLength": 4}], "isDrum": true, "minPitch": 36, "maxPitch": 54, "instrument": 0, "avPolyphony": 1.7316736, "noteDensity": 9, "noteDensityV2": 8}], "events": [{"time": 0, "velocity": 108, "pitch": 46, "instrument": 1, "track": 0, "qtime": 0, "bar": 0, "isDrum": false}, {"time": 0, "velocity": 108, "pitch": 61, "instrument": 1, "track": 0, "qtime": 0, "bar": 0, "isDrum": false}, {"time": 0, "velocity": 108, "pitch": 65, "instrument": 1, "track": 0, "qtime": 0, "bar": 0, "isDrum": false}, {"time": 42, "velocity": 0, "pitch": 46, "instrument": 1, "track": 0, "qtime": 42, "bar": 0, "isDrum": false}, {"time": 42, "velocity": 0, "pitch": 61, "instrument": 1, "track": 0, "qtime": 42, "bar": 0, "isDrum": false}, {"time": 42, "velocity": 0, "pitch": 65, "instrument": 1, "track": 0, "qtime": 42, "bar": 0, "isDrum": false}, {"time": 48, "velocity": 108, "pitch": 39, "instrument": 1, "track": 0, "qtime": 0, "bar": 1, "isDrum": false}, {"time": 48, "velocity": 108, "pitch": 55, "instrument": 1, "track": 0, "qtime": 0, "bar": 1, "isDrum": false}, {"time": 48, "velocity": 108, "pitch": 58, "instrument": 1, "track": 0, "qtime": 0, "bar": 1, "isDrum": false}, {"time": 89, "velocity": 0, "pitch": 55, "instrument": 1, "track": 0, "qtime": 41, "bar": 1, "isDrum": false}, {"time": 89, "velocity": 0, "pitch": 58, "instrument": 1, "track": 0, "qtime": 41, "bar": 1, "isDrum": false}, {"time": 90, "velocity": 0, "pitch": 39, "instrument": 1, "track": 0, "qtime": 42, "bar": 1, "isDrum": false}, {"time": 96, "velocity": 108, "pitch": 44, "instrument": 1, "track": 0, "qtime": 0, "bar": 2, "isDrum": false}, {"time": 96, "velocity": 108, "pitch": 60, "instrument": 1, "track": 0, "qtime": 0, "bar": 2, "isDrum": false}, {"time": 96, "velocity": 108, "pitch": 63, "instrument": 1, "track": 0, "qtime": 0, "bar": 2, "isDrum": false}, {"time": 133, "velocity": 0, "pitch": 60, "instrument": 1, "track": 0, "qtime": 37, "bar": 2, "isDrum": false}, {"time": 133, "velocity": 0, "pitch": 63, "instrument": 1, "track": 0, "qtime": 37, "bar": 2, "isDrum": false}, {"time": 134, "velocity": 0, "pitch": 44, "instrument": 1, "track": 0, "qtime": 38, "bar": 2, "isDrum": false}, {"time": 144, "velocity": 108, "pitch": 37, "instrument": 1, "track": 0, "qtime": 0, "bar": 3, "isDrum": false}, {"time": 144, "velocity": 108, "pitch": 53, "instrument": 1, "track": 0, "qtime": 0, "bar": 3, "isDrum": false}, {"time": 144, "velocity": 108, "pitch": 56, "instrument": 1, "track": 0, "qtime": 0, "bar": 3, "isDrum": false}, {"time": 186, "velocity": 0, "pitch": 53, "instrument": 1, "track": 0, "qtime": 42, "bar": 3, "isDrum": false}, {"time": 187, "velocity": 0, "pitch": 37, "instrument": 1, "track": 0, "qtime": 43, "bar": 3, "isDrum": false}, {"time": 187, "velocity": 0, "pitch": 56, "instrument": 1, "track": 0, "qtime": 43, "bar": 3, "isDrum": false}, {"time": 192, "velocity": 108, "pitch": 46, "instrument": 1, "track": 0, "qtime": 0, "bar": 4, "isDrum": false}, {"time": 192, "velocity": 108, "pitch": 61, "instrument": 1, "track": 0, "qtime": 0, "bar": 4, "isDrum": false}, {"time": 192, "velocity": 108, "pitch": 65, "instrument": 1, "track": 0, "qtime": 0, "bar": 4, "isDrum": false}, {"time": 230, "velocity": 0, "pitch": 61, "instrument": 1, "track": 0, "qtime": 38, "bar": 4, "isDrum": false}, {"time": 230, "velocity": 0, "pitch": 65, "instrument": 1, "track": 0, "qtime": 38, "bar": 4, "isDrum": false}, {"time": 231, "velocity": 0, "pitch": 46, "instrument": 1, "track": 0, "qtime": 39, "bar": 4, "isDrum": false}, {"time": 240, "velocity": 108, "pitch": 39, "instrument": 1, "track": 0, "qtime": 0, "bar": 5, "isDrum": false}, {"time": 240, "velocity": 108, "pitch": 55, "instrument": 1, "track": 0, "qtime": 0, "bar": 5, "isDrum": false}, {"time": 240, "velocity": 108, "pitch": 58, "instrument": 1, "track": 0, "qtime": 0, "bar": 5, "isDrum": false}, {"time": 279, "velocity": 0, "pitch": 55, "instrument": 1, "track": 0, "qtime": 39, "bar": 5, "isDrum": false}, {"time": 279, "velocity": 0, "pitch": 58, "instrument": 1, "track": 0, "qtime": 39, "bar": 5, "isDrum": false}, {"time": 280, "velocity": 0, "pitch": 39, "instrument": 1, "track": 0, "qtime": 40, "bar": 5, "isDrum": false}, {"time": 288, "velocity": 108, "pitch": 44, "instrument": 1, "track": 0, "qtime": 0, "bar": 6, "isDrum": false}, {"time": 288, "velocity": 108, "pitch": 60, "instrument": 1, "track": 0, "qtime": 0, "bar": 6, "isDrum": false}, {"time": 288, "velocity": 108, "pitch": 63, "instrument": 1, "track": 0, "qtime": 0, "bar": 6, "isDrum": false}, {"time": 324, "velocity": 0, "pitch": 60, "instrument": 1, "track": 0, "qtime": 36, "bar": 6, "isDrum": false}, {"time": 325, "velocity": 0, "pitch": 63, "instrument": 1, "track": 0, "qtime": 37, "bar": 6, "isDrum": false}, {"time": 327, "velocity": 0, "pitch": 44, "instrument": 1, "track": 0, "qtime": 39, "bar": 6, "isDrum": false}, {"time": 336, "velocity": 108, "pitch": 37, "instrument": 1, "track": 0, "qtime": 0, "bar": 7, "isDrum": false}, {"time": 336, "velocity": 108, "pitch": 53, "instrument": 1, "track": 0, "qtime": 0, "bar": 7, "isDrum": false}, {"time": 336, "velocity": 108, "pitch": 56, "instrument": 1, "track": 0, "qtime": 0, "bar": 7, "isDrum": false}, {"time": 342, "velocity": 108, "pitch": 49, "instrument": 1, "track": 0, "qtime": 6, "bar": 7, "isDrum": false}, {"time": 345, "velocity": 108, "pitch": 51, "instrument": 1, "track": 0, "qtime": 9, "bar": 7, "isDrum": false}, {"time": 351, "velocity": 108, "pitch": 53, "instrument": 1, "track": 0, "qtime": 15, "bar": 7, "isDrum": false}, {"time": 357, "velocity": 108, "pitch": 56, "instrument": 1, "track": 0, "qtime": 21, "bar": 7, "isDrum": false}, {"time": 363, "velocity": 108, "pitch": 61, "instrument": 1, "track": 0, "qtime": 27, "bar": 7, "isDrum": false}, {"time": 366, "velocity": 0, "pitch": 49, "instrument": 1, "track": 0, "qtime": 30, "bar": 7, "isDrum": false}, {"time": 366, "velocity": 0, "pitch": 51, "instrument": 1, "track": 0, "qtime": 30, "bar": 7, "isDrum": false}, {"time": 366, "velocity": 0, "pitch": 53, "instrument": 1, "track": 0, "qtime": 30, "bar": 7, "isDrum": false}, {"time": 366, "velocity": 0, "pitch": 56, "instrument": 1, "track": 0, "qtime": 30, "bar": 7, "isDrum": false}, {"time": 369, "velocity": 108, "pitch": 63, "instrument": 1, "track": 0, "qtime": 33, "bar": 7, "isDrum": false}, {"time": 375, "velocity": 108, "pitch": 68, "instrument": 1, "track": 0, "qtime": 39, "bar": 7, "isDrum": false}, {"time": 380, "velocity": 0, "pitch": 37, "instrument": 1, "track": 0, "qtime": 44, "bar": 7, "isDrum": false}, {"time": 380, "velocity": 0, "pitch": 53, "instrument": 1, "track": 0, "qtime": 44, "bar": 7, "isDrum": false}, {"time": 380, "velocity": 0, "pitch": 56, "instrument": 1, "track": 0, "qtime": 44, "bar": 7, "isDrum": false}, {"time": 382, "velocity": 0, "pitch": 61, "instrument": 1, "track": 0, "qtime": 46, "bar": 7, "isDrum": false}, {"time": 382, "velocity": 0, "pitch": 63, "instrument": 1, "track": 0, "qtime": 46, "bar": 7, "isDrum": false}, {"time": 382, "velocity": 0, "pitch": 68, "instrument": 1, "track": 0, "qtime": 46, "bar": 7, "isDrum": false}, {"time": 0, "velocity": 108, "pitch": 46, "instrument": 24, "track": 1, "qtime": 0, "bar": 0, "isDrum": false}, {"time": 18, "velocity": 0, "pitch": 46, "instrument": 24, "track": 1, "qtime": 18, "bar": 0, "isDrum": false}, {"time": 21, "velocity": 108, "pitch": 44, "instrument": 24, "track": 1, "qtime": 21, "bar": 0, "isDrum": false}, {"time": 22, "velocity": 0, "pitch": 44, "instrument": 24, "track": 1, "qtime": 22, "bar": 0, "isDrum": false}, {"time": 24, "velocity": 108, "pitch": 46, "instrument": 24, "track": 1, "qtime": 24, "bar": 0, "isDrum": false}, {"time": 25, "velocity": 0, "pitch": 46, "instrument": 24, "track": 1, "qtime": 25, "bar": 0, "isDrum": false}, {"time": 27, "velocity": 108, "pitch": 44, "instrument": 24, "track": 1, "qtime": 27, "bar": 0, "isDrum": false}, {"time": 28, "velocity": 0, "pitch": 44, "instrument": 24, "track": 1, "qtime": 28, "bar": 0, "isDrum": false}, {"time": 30, "velocity": 108, "pitch": 46, "instrument": 24, "track": 1, "qtime": 30, "bar": 0, "isDrum": false}, {"time": 41, "velocity": 0, "pitch": 46, "instrument": 24, "track": 1, "qtime": 41, "bar": 0, "isDrum": false}, {"time": 42, "velocity": 108, "pitch": 46, "instrument": 24, "track": 1, "qtime": 42, "bar": 0, "isDrum": false}, {"time": 45, "velocity": 0, "pitch": 46, "instrument": 24, "track": 1, "qtime": 45, "bar": 0, "isDrum": false}, {"time": 48, "velocity": 108, "pitch": 39, "instrument": 24, "track": 1, "qtime": 0, "bar": 1, "isDrum": false}, {"time": 67, "velocity": 0, "pitch": 39, "instrument": 24, "track": 1, "qtime": 19, "bar": 1, "isDrum": false}, {"time": 69, "velocity": 108, "pitch": 37, "instrument": 24, "track": 1, "qtime": 21, "bar": 1, "isDrum": false}, {"time": 70, "velocity": 0, "pitch": 37, "instrument": 24, "track": 1, "qtime": 22, "bar": 1, "isDrum": false}, {"time": 72, "velocity": 108, "pitch": 39, "instrument": 24, "track": 1, "qtime": 24, "bar": 1, "isDrum": false}, {"time": 74, "velocity": 0, "pitch": 39, "instrument": 24, "track": 1, "qtime": 26, "bar": 1, "isDrum": false}, {"time": 75, "velocity": 108, "pitch": 37, "instrument": 24, "track": 1, "qtime": 27, "bar": 1, "isDrum": false}, {"time": 76, "velocity": 0, "pitch": 37, "instrument": 24, "track": 1, "qtime": 28, "bar": 1, "isDrum": false}, {"time": 78, "velocity": 108, "pitch": 39, "instrument": 24, "track": 1, "qtime": 30, "bar": 1, "isDrum": false}, {"time": 92, "velocity": 0, "pitch": 39, "instrument": 24, "track": 1, "qtime": 44, "bar": 1, "isDrum": false}, {"time": 96, "velocity": 108, "pitch": 44, "instrument": 24, "track": 1, "qtime": 0, "bar": 2, "isDrum": false}, {"time": 116, "velocity": 0, "pitch": 44, "instrument": 24, "track": 1, "qtime": 20, "bar": 2, "isDrum": false}, {"time": 120, "velocity": 108, "pitch": 44, "instrument": 24, "track": 1, "qtime": 24, "bar": 2, "isDrum": false}, {"time": 124, "velocity": 0, "pitch": 44, "instrument": 24, "track": 1, "qtime": 28, "bar": 2, "isDrum": false}, {"time": 126, "velocity": 108, "pitch": 44, "instrument": 24, "track": 1, "qtime": 30, "bar": 2, "isDrum": false}, {"time": 140, "velocity": 0, "pitch": 44, "instrument": 24, "track": 1, "qtime": 44, "bar": 2, "isDrum": false}, {"time": 144, "velocity": 108, "pitch": 37, "instrument": 24, "track": 1, "qtime": 0, "bar": 3, "isDrum": false}, {"time": 162, "velocity": 0, "pitch": 37, "instrument": 24, "track": 1, "qtime": 18, "bar": 3, "isDrum": false}, {"time": 165, "velocity": 108, "pitch": 37, "instrument": 24, "track": 1, "qtime": 21, "bar": 3, "isDrum": false}, {"time": 166, "velocity": 0, "pitch": 37, "instrument": 24, "track": 1, "qtime": 22, "bar": 3, "isDrum": false}, {"time": 168, "velocity": 108, "pitch": 49, "instrument": 24, "track": 1, "qtime": 24, "bar": 3, "isDrum": false}, {"time": 171, "velocity": 0, "pitch": 49, "instrument": 24, "track": 1, "qtime": 27, "bar": 3, "isDrum": false}, {"time": 171, "velocity": 108, "pitch": 37, "instrument": 24, "track": 1, "qtime": 27, "bar": 3, "isDrum": false}, {"time": 172, "velocity": 0, "pitch": 37, "instrument": 24, "track": 1, "qtime": 28, "bar": 3, "isDrum": false}, {"time": 174, "velocity": 108, "pitch": 49, "instrument": 24, "track": 1, "qtime": 30, "bar": 3, "isDrum": false}, {"time": 186, "velocity": 0, "pitch": 49, "instrument": 24, "track": 1, "qtime": 42, "bar": 3, "isDrum": false}, {"time": 186, "velocity": 108, "pitch": 44, "instrument": 24, "track": 1, "qtime": 42, "bar": 3, "isDrum": false}, {"time": 192, "velocity": 0, "pitch": 44, "instrument": 24, "track": 1, "qtime": 48, "bar": 3, "isDrum": false}, {"time": 192, "velocity": 108, "pitch": 46, "instrument": 24, "track": 1, "qtime": 0, "bar": 4, "isDrum": false}, {"time": 211, "velocity": 0, "pitch": 46, "instrument": 24, "track": 1, "qtime": 19, "bar": 4, "isDrum": false}, {"time": 213, "velocity": 108, "pitch": 44, "instrument": 24, "track": 1, "qtime": 21, "bar": 4, "isDrum": false}, {"time": 215, "velocity": 0, "pitch": 44, "instrument": 24, "track": 1, "qtime": 23, "bar": 4, "isDrum": false}, {"time": 216, "velocity": 108, "pitch": 46, "instrument": 24, "track": 1, "qtime": 24, "bar": 4, "isDrum": false}, {"time": 218, "velocity": 0, "pitch": 46, "instrument": 24, "track": 1, "qtime": 26, "bar": 4, "isDrum": false}, {"time": 219, "velocity": 108, "pitch": 44, "instrument": 24, "track": 1, "qtime": 27, "bar": 4, "isDrum": false}, {"time": 221, "velocity": 0, "pitch": 44, "instrument": 24, "track": 1, "qtime": 29, "bar": 4, "isDrum": false}, {"time": 222, "velocity": 108, "pitch": 46, "instrument": 24, "track": 1, "qtime": 30, "bar": 4, "isDrum": false}, {"time": 232, "velocity": 0, "pitch": 46, "instrument": 24, "track": 1, "qtime": 40, "bar": 4, "isDrum": false}, {"time": 234, "velocity": 108, "pitch": 46, "instrument": 24, "track": 1, "qtime": 42, "bar": 4, "isDrum": false}, {"time": 237, "velocity": 0, "pitch": 46, "instrument": 24, "track": 1, "qtime": 45, "bar": 4, "isDrum": false}, {"time": 240, "velocity": 108, "pitch": 39, "instrument": 24, "track": 1, "qtime": 0, "bar": 5, "isDrum": false}, {"time": 259, "velocity": 0, "pitch": 39, "instrument": 24, "track": 1, "qtime": 19, "bar": 5, "isDrum": false}, {"time": 261, "velocity": 108, "pitch": 37, "instrument": 24, "track": 1, "qtime": 21, "bar": 5, "isDrum": false}, {"time": 262, "velocity": 0, "pitch": 37, "instrument": 24, "track": 1, "qtime": 22, "bar": 5, "isDrum": false}, {"time": 264, "velocity": 108, "pitch": 39, "instrument": 24, "track": 1, "qtime": 24, "bar": 5, "isDrum": false}, {"time": 267, "velocity": 0, "pitch": 39, "instrument": 24, "track": 1, "qtime": 27, "bar": 5, "isDrum": false}, {"time": 267, "velocity": 108, "pitch": 37, "instrument": 24, "track": 1, "qtime": 27, "bar": 5, "isDrum": false}, {"time": 269, "velocity": 0, "pitch": 37, "instrument": 24, "track": 1, "qtime": 29, "bar": 5, "isDrum": false}, {"time": 270, "velocity": 108, "pitch": 39, "instrument": 24, "track": 1, "qtime": 30, "bar": 5, "isDrum": false}, {"time": 280, "velocity": 0, "pitch": 39, "instrument": 24, "track": 1, "qtime": 40, "bar": 5, "isDrum": false}, {"time": 282, "velocity": 108, "pitch": 39, "instrument": 24, "track": 1, "qtime": 42, "bar": 5, "isDrum": false}, {"time": 286, "velocity": 0, "pitch": 39, "instrument": 24, "track": 1, "qtime": 46, "bar": 5, "isDrum": false}, {"time": 288, "velocity": 108, "pitch": 44, "instrument": 24, "track": 1, "qtime": 0, "bar": 6, "isDrum": false}, {"time": 307, "velocity": 0, "pitch": 44, "instrument": 24, "track": 1, "qtime": 19, "bar": 6, "isDrum": false}, {"time": 309, "velocity": 108, "pitch": 42, "instrument": 24, "track": 1, "qtime": 21, "bar": 6, "isDrum": false}, {"time": 310, "velocity": 0, "pitch": 42, "instrument": 24, "track": 1, "qtime": 22, "bar": 6, "isDrum": false}, {"time": 312, "velocity": 108, "pitch": 44, "instrument": 24, "track": 1, "qtime": 24, "bar": 6, "isDrum": false}, {"time": 315, "velocity": 0, "pitch": 44, "instrument": 24, "track": 1, "qtime": 27, "bar": 6, "isDrum": false}, {"time": 315, "velocity": 108, "pitch": 42, "instrument": 24, "track": 1, "qtime": 27, "bar": 6, "isDrum": false}, {"time": 317, "velocity": 0, "pitch": 42, "instrument": 24, "track": 1, "qtime": 29, "bar": 6, "isDrum": false}, {"time": 318, "velocity": 108, "pitch": 44, "instrument": 24, "track": 1, "qtime": 30, "bar": 6, "isDrum": false}, {"time": 329, "velocity": 0, "pitch": 44, "instrument": 24, "track": 1, "qtime": 41, "bar": 6, "isDrum": false}, {"time": 330, "velocity": 108, "pitch": 44, "instrument": 24, "track": 1, "qtime": 42, "bar": 6, "isDrum": false}, {"time": 334, "velocity": 0, "pitch": 44, "instrument": 24, "track": 1, "qtime": 46, "bar": 6, "isDrum": false}, {"time": 336, "velocity": 108, "pitch": 37, "instrument": 24, "track": 1, "qtime": 0, "bar": 7, "isDrum": false}, {"time": 355, "velocity": 0, "pitch": 37, "instrument": 24, "track": 1, "qtime": 19, "bar": 7, "isDrum": false}, {"time": 357, "velocity": 108, "pitch": 37, "instrument": 24, "track": 1, "qtime": 21, "bar": 7, "isDrum": false}, {"time": 360, "velocity": 0, "pitch": 37, "instrument": 24, "track": 1, "qtime": 24, "bar": 7, "isDrum": false}, {"time": 360, "velocity": 108, "pitch": 49, "instrument": 24, "track": 1, "qtime": 24, "bar": 7, "isDrum": false}, {"time": 366, "velocity": 0, "pitch": 49, "instrument": 24, "track": 1, "qtime": 30, "bar": 7, "isDrum": false}, {"time": 369, "velocity": 108, "pitch": 49, "instrument": 24, "track": 1, "qtime": 33, "bar": 7, "isDrum": false}, {"time": 377, "velocity": 0, "pitch": 49, "instrument": 24, "track": 1, "qtime": 41, "bar": 7, "isDrum": false}, {"time": 378, "velocity": 108, "pitch": 44, "instrument": 24, "track": 1, "qtime": 42, "bar": 7, "isDrum": false}, {"time": 384, "velocity": 0, "pitch": 44, "instrument": 24, "track": 1, "qtime": 48, "bar": 7, "isDrum": false}, {"time": 0, "velocity": 108, "pitch": 61, "instrument": 25, "track": 8, "qtime": 0, "bar": 0, "isDrum": false}, {"time": 0, "velocity": 108, "pitch": 65, "instrument": 25, "track": 8, "qtime": 0, "bar": 0, "isDrum": false}, {"time": 0, "velocity": 108, "pitch": 70, "instrument": 25, "track": 8, "qtime": 0, "bar": 0, "isDrum": false}, {"time": 9, "velocity": 0, "pitch": 61, "instrument": 25, "track": 8, "qtime": 9, "bar": 0, "isDrum": false}, {"time": 9, "velocity": 0, "pitch": 65, "instrument": 25, "track": 8, "qtime": 9, "bar": 0, "isDrum": false}, {"time": 9, "velocity": 0, "pitch": 70, "instrument": 25, "track": 8, "qtime": 9, "bar": 0, "isDrum": false}, {"time": 12, "velocity": 108, "pitch": 61, "instrument": 25, "track": 8, "qtime": 12, "bar": 0, "isDrum": false}, {"time": 12, "velocity": 108, "pitch": 65, "instrument": 25, "track": 8, "qtime": 12, "bar": 0, "isDrum": false}, {"time": 12, "velocity": 108, "pitch": 70, "instrument": 25, "track": 8, "qtime": 12, "bar": 0, "isDrum": false}, {"time": 18, "velocity": 0, "pitch": 61, "instrument": 25, "track": 8, "qtime": 18, "bar": 0, "isDrum": false}, {"time": 18, "velocity": 0, "pitch": 65, "instrument": 25, "track": 8, "qtime": 18, "bar": 0, "isDrum": false}, {"time": 18, "velocity": 0, "pitch": 70, "instrument": 25, "track": 8, "qtime": 18, "bar": 0, "isDrum": false}, {"time": 21, "velocity": 108, "pitch": 61, "instrument": 25, "track": 8, "qtime": 21, "bar": 0, "isDrum": false}, {"time": 21, "velocity": 108, "pitch": 65, "instrument": 25, "track": 8, "qtime": 21, "bar": 0, "isDrum": false}, {"time": 21, "velocity": 108, "pitch": 70, "instrument": 25, "track": 8, "qtime": 21, "bar": 0, "isDrum": false}, {"time": 24, "velocity": 0, "pitch": 61, "instrument": 25, "track": 8, "qtime": 24, "bar": 0, "isDrum": false}, {"time": 24, "velocity": 0, "pitch": 65, "instrument": 25, "track": 8, "qtime": 24, "bar": 0, "isDrum": false}, {"time": 24, "velocity": 0, "pitch": 70, "instrument": 25, "track": 8, "qtime": 24, "bar": 0, "isDrum": false}, {"time": 27, "velocity": 108, "pitch": 61, "instrument": 25, "track": 8, "qtime": 27, "bar": 0, "isDrum": false}, {"time": 27, "velocity": 108, "pitch": 65, "instrument": 25, "track": 8, "qtime": 27, "bar": 0, "isDrum": false}, {"time": 27, "velocity": 108, "pitch": 70, "instrument": 25, "track": 8, "qtime": 27, "bar": 0, "isDrum": false}, {"time": 30, "velocity": 0, "pitch": 61, "instrument": 25, "track": 8, "qtime": 30, "bar": 0, "isDrum": false}, {"time": 30, "velocity": 0, "pitch": 65, "instrument": 25, "track": 8, "qtime": 30, "bar": 0, "isDrum": false}, {"time": 30, "velocity": 0, "pitch": 70, "instrument": 25, "track": 8, "qtime": 30, "bar": 0, "isDrum": false}, {"time": 36, "velocity": 108, "pitch": 61, "instrument": 25, "track": 8, "qtime": 36, "bar": 0, "isDrum": false}, {"time": 36, "velocity": 108, "pitch": 65, "instrument": 25, "track": 8, "qtime": 36, "bar": 0, "isDrum": false}, {"time": 36, "velocity": 108, "pitch": 70, "instrument": 25, "track": 8, "qtime": 36, "bar": 0, "isDrum": false}, {"time": 45, "velocity": 0, "pitch": 61, "instrument": 25, "track": 8, "qtime": 45, "bar": 0, "isDrum": false}, {"time": 45, "velocity": 0, "pitch": 65, "instrument": 25, "track": 8, "qtime": 45, "bar": 0, "isDrum": false}, {"time": 45, "velocity": 0, "pitch": 70, "instrument": 25, "track": 8, "qtime": 45, "bar": 0, "isDrum": false}, {"time": 48, "velocity": 108, "pitch": 58, "instrument": 25, "track": 8, "qtime": 0, "bar": 1, "isDrum": false}, {"time": 48, "velocity": 108, "pitch": 63, "instrument": 25, "track": 8, "qtime": 0, "bar": 1, "isDrum": false}, {"time": 48, "velocity": 108, "pitch": 67, "instrument": 25, "track": 8, "qtime": 0, "bar": 1, "isDrum": false}, {"time": 57, "velocity": 0, "pitch": 58, "instrument": 25, "track": 8, "qtime": 9, "bar": 1, "isDrum": false}, {"time": 57, "velocity": 0, "pitch": 63, "instrument": 25, "track": 8, "qtime": 9, "bar": 1, "isDrum": false}, {"time": 57, "velocity": 0, "pitch": 67, "instrument": 25, "track": 8, "qtime": 9, "bar": 1, "isDrum": false}, {"time": 60, "velocity": 108, "pitch": 58, "instrument": 25, "track": 8, "qtime": 12, "bar": 1, "isDrum": false}, {"time": 60, "velocity": 108, "pitch": 63, "instrument": 25, "track": 8, "qtime": 12, "bar": 1, "isDrum": false}, {"time": 60, "velocity": 108, "pitch": 67, "instrument": 25, "track": 8, "qtime": 12, "bar": 1, "isDrum": false}, {"time": 66, "velocity": 0, "pitch": 58, "instrument": 25, "track": 8, "qtime": 18, "bar": 1, "isDrum": false}, {"time": 66, "velocity": 0, "pitch": 63, "instrument": 25, "track": 8, "qtime": 18, "bar": 1, "isDrum": false}, {"time": 66, "velocity": 0, "pitch": 67, "instrument": 25, "track": 8, "qtime": 18, "bar": 1, "isDrum": false}, {"time": 69, "velocity": 108, "pitch": 58, "instrument": 25, "track": 8, "qtime": 21, "bar": 1, "isDrum": false}, {"time": 69, "velocity": 108, "pitch": 63, "instrument": 25, "track": 8, "qtime": 21, "bar": 1, "isDrum": false}, {"time": 69, "velocity": 108, "pitch": 68, "instrument": 25, "track": 8, "qtime": 21, "bar": 1, "isDrum": false}, {"time": 72, "velocity": 0, "pitch": 58, "instrument": 25, "track": 8, "qtime": 24, "bar": 1, "isDrum": false}, {"time": 72, "velocity": 0, "pitch": 63, "instrument": 25, "track": 8, "qtime": 24, "bar": 1, "isDrum": false}, {"time": 72, "velocity": 0, "pitch": 68, "instrument": 25, "track": 8, "qtime": 24, "bar": 1, "isDrum": false}, {"time": 75, "velocity": 108, "pitch": 58, "instrument": 25, "track": 8, "qtime": 27, "bar": 1, "isDrum": false}, {"time": 75, "velocity": 108, "pitch": 63, "instrument": 25, "track": 8, "qtime": 27, "bar": 1, "isDrum": false}, {"time": 75, "velocity": 108, "pitch": 68, "instrument": 25, "track": 8, "qtime": 27, "bar": 1, "isDrum": false}, {"time": 78, "velocity": 0, "pitch": 58, "instrument": 25, "track": 8, "qtime": 30, "bar": 1, "isDrum": false}, {"time": 78, "velocity": 0, "pitch": 63, "instrument": 25, "track": 8, "qtime": 30, "bar": 1, "isDrum": false}, {"time": 78, "velocity": 0, "pitch": 68, "instrument": 25, "track": 8, "qtime": 30, "bar": 1, "isDrum": false}, {"time": 81, "velocity": 108, "pitch": 58, "instrument": 25, "track": 8, "qtime": 33, "bar": 1, "isDrum": false}, {"time": 81, "velocity": 108, "pitch": 63, "instrument": 25, "track": 8, "qtime": 33, "bar": 1, "isDrum": false}, {"time": 81, "velocity": 108, "pitch": 67, "instrument": 25, "track": 8, "qtime": 33, "bar": 1, "isDrum": false}, {"time": 84, "velocity": 0, "pitch": 58, "instrument": 25, "track": 8, "qtime": 36, "bar": 1, "isDrum": false}, {"time": 84, "velocity": 0, "pitch": 63, "instrument": 25, "track": 8, "qtime": 36, "bar": 1, "isDrum": false}, {"time": 84, "velocity": 0, "pitch": 67, "instrument": 25, "track": 8, "qtime": 36, "bar": 1, "isDrum": false}, {"time": 87, "velocity": 108, "pitch": 58, "instrument": 25, "track": 8, "qtime": 39, "bar": 1, "isDrum": false}, {"time": 87, "velocity": 108, "pitch": 63, "instrument": 25, "track": 8, "qtime": 39, "bar": 1, "isDrum": false}, {"time": 87, "velocity": 108, "pitch": 67, "instrument": 25, "track": 8, "qtime": 39, "bar": 1, "isDrum": false}, {"time": 93, "velocity": 0, "pitch": 58, "instrument": 25, "track": 8, "qtime": 45, "bar": 1, "isDrum": false}, {"time": 93, "velocity": 0, "pitch": 63, "instrument": 25, "track": 8, "qtime": 45, "bar": 1, "isDrum": false}, {"time": 93, "velocity": 0, "pitch": 67, "instrument": 25, "track": 8, "qtime": 45, "bar": 1, "isDrum": false}, {"time": 96, "velocity": 108, "pitch": 60, "instrument": 25, "track": 8, "qtime": 0, "bar": 2, "isDrum": false}, {"time": 96, "velocity": 108, "pitch": 63, "instrument": 25, "track": 8, "qtime": 0, "bar": 2, "isDrum": false}, {"time": 96, "velocity": 108, "pitch": 68, "instrument": 25, "track": 8, "qtime": 0, "bar": 2, "isDrum": false}, {"time": 105, "velocity": 0, "pitch": 60, "instrument": 25, "track": 8, "qtime": 9, "bar": 2, "isDrum": false}, {"time": 105, "velocity": 0, "pitch": 63, "instrument": 25, "track": 8, "qtime": 9, "bar": 2, "isDrum": false}, {"time": 105, "velocity": 0, "pitch": 68, "instrument": 25, "track": 8, "qtime": 9, "bar": 2, "isDrum": false}, {"time": 108, "velocity": 108, "pitch": 60, "instrument": 25, "track": 8, "qtime": 12, "bar": 2, "isDrum": false}, {"time": 108, "velocity": 108, "pitch": 63, "instrument": 25, "track": 8, "qtime": 12, "bar": 2, "isDrum": false}, {"time": 108, "velocity": 108, "pitch": 68, "instrument": 25, "track": 8, "qtime": 12, "bar": 2, "isDrum": false}, {"time": 114, "velocity": 0, "pitch": 60, "instrument": 25, "track": 8, "qtime": 18, "bar": 2, "isDrum": false}, {"time": 114, "velocity": 0, "pitch": 63, "instrument": 25, "track": 8, "qtime": 18, "bar": 2, "isDrum": false}, {"time": 114, "velocity": 0, "pitch": 68, "instrument": 25, "track": 8, "qtime": 18, "bar": 2, "isDrum": false}, {"time": 117, "velocity": 108, "pitch": 60, "instrument": 25, "track": 8, "qtime": 21, "bar": 2, "isDrum": false}, {"time": 117, "velocity": 108, "pitch": 63, "instrument": 25, "track": 8, "qtime": 21, "bar": 2, "isDrum": false}, {"time": 117, "velocity": 108, "pitch": 68, "instrument": 25, "track": 8, "qtime": 21, "bar": 2, "isDrum": false}, {"time": 120, "velocity": 0, "pitch": 60, "instrument": 25, "track": 8, "qtime": 24, "bar": 2, "isDrum": false}, {"time": 120, "velocity": 0, "pitch": 63, "instrument": 25, "track": 8, "qtime": 24, "bar": 2, "isDrum": false}, {"time": 120, "velocity": 0, "pitch": 68, "instrument": 25, "track": 8, "qtime": 24, "bar": 2, "isDrum": false}, {"time": 123, "velocity": 108, "pitch": 60, "instrument": 25, "track": 8, "qtime": 27, "bar": 2, "isDrum": false}, {"time": 123, "velocity": 108, "pitch": 63, "instrument": 25, "track": 8, "qtime": 27, "bar": 2, "isDrum": false}, {"time": 123, "velocity": 108, "pitch": 68, "instrument": 25, "track": 8, "qtime": 27, "bar": 2, "isDrum": false}, {"time": 129, "velocity": 0, "pitch": 60, "instrument": 25, "track": 8, "qtime": 33, "bar": 2, "isDrum": false}, {"time": 129, "velocity": 0, "pitch": 63, "instrument": 25, "track": 8, "qtime": 33, "bar": 2, "isDrum": false}, {"time": 129, "velocity": 0, "pitch": 68, "instrument": 25, "track": 8, "qtime": 33, "bar": 2, "isDrum": false}, {"time": 132, "velocity": 108, "pitch": 60, "instrument": 25, "track": 8, "qtime": 36, "bar": 2, "isDrum": false}, {"time": 132, "velocity": 108, "pitch": 63, "instrument": 25, "track": 8, "qtime": 36, "bar": 2, "isDrum": false}, {"time": 132, "velocity": 108, "pitch": 68, "instrument": 25, "track": 8, "qtime": 36, "bar": 2, "isDrum": false}, {"time": 141, "velocity": 0, "pitch": 60, "instrument": 25, "track": 8, "qtime": 45, "bar": 2, "isDrum": false}, {"time": 141, "velocity": 0, "pitch": 63, "instrument": 25, "track": 8, "qtime": 45, "bar": 2, "isDrum": false}, {"time": 141, "velocity": 0, "pitch": 68, "instrument": 25, "track": 8, "qtime": 45, "bar": 2, "isDrum": false}, {"time": 144, "velocity": 108, "pitch": 61, "instrument": 25, "track": 8, "qtime": 0, "bar": 3, "isDrum": false}, {"time": 144, "velocity": 108, "pitch": 65, "instrument": 25, "track": 8, "qtime": 0, "bar": 3, "isDrum": false}, {"time": 144, "velocity": 108, "pitch": 68, "instrument": 25, "track": 8, "qtime": 0, "bar": 3, "isDrum": false}, {"time": 153, "velocity": 0, "pitch": 61, "instrument": 25, "track": 8, "qtime": 9, "bar": 3, "isDrum": false}, {"time": 153, "velocity": 0, "pitch": 65, "instrument": 25, "track": 8, "qtime": 9, "bar": 3, "isDrum": false}, {"time": 153, "velocity": 0, "pitch": 68, "instrument": 25, "track": 8, "qtime": 9, "bar": 3, "isDrum": false}, {"time": 156, "velocity": 108, "pitch": 61, "instrument": 25, "track": 8, "qtime": 12, "bar": 3, "isDrum": false}, {"time": 156, "velocity": 108, "pitch": 65, "instrument": 25, "track": 8, "qtime": 12, "bar": 3, "isDrum": false}, {"time": 156, "velocity": 108, "pitch": 68, "instrument": 25, "track": 8, "qtime": 12, "bar": 3, "isDrum": false}, {"time": 162, "velocity": 0, "pitch": 61, "instrument": 25, "track": 8, "qtime": 18, "bar": 3, "isDrum": false}, {"time": 162, "velocity": 0, "pitch": 65, "instrument": 25, "track": 8, "qtime": 18, "bar": 3, "isDrum": false}, {"time": 162, "velocity": 0, "pitch": 68, "instrument": 25, "track": 8, "qtime": 18, "bar": 3, "isDrum": false}, {"time": 165, "velocity": 108, "pitch": 61, "instrument": 25, "track": 8, "qtime": 21, "bar": 3, "isDrum": false}, {"time": 165, "velocity": 108, "pitch": 65, "instrument": 25, "track": 8, "qtime": 21, "bar": 3, "isDrum": false}, {"time": 165, "velocity": 108, "pitch": 68, "instrument": 25, "track": 8, "qtime": 21, "bar": 3, "isDrum": false}, {"time": 168, "velocity": 0, "pitch": 61, "instrument": 25, "track": 8, "qtime": 24, "bar": 3, "isDrum": false}, {"time": 168, "velocity": 0, "pitch": 65, "instrument": 25, "track": 8, "qtime": 24, "bar": 3, "isDrum": false}, {"time": 168, "velocity": 0, "pitch": 68, "instrument": 25, "track": 8, "qtime": 24, "bar": 3, "isDrum": false}, {"time": 171, "velocity": 108, "pitch": 61, "instrument": 25, "track": 8, "qtime": 27, "bar": 3, "isDrum": false}, {"time": 171, "velocity": 108, "pitch": 65, "instrument": 25, "track": 8, "qtime": 27, "bar": 3, "isDrum": false}, {"time": 171, "velocity": 108, "pitch": 68, "instrument": 25, "track": 8, "qtime": 27, "bar": 3, "isDrum": false}, {"time": 174, "velocity": 0, "pitch": 61, "instrument": 25, "track": 8, "qtime": 30, "bar": 3, "isDrum": false}, {"time": 174, "velocity": 0, "pitch": 65, "instrument": 25, "track": 8, "qtime": 30, "bar": 3, "isDrum": false}, {"time": 174, "velocity": 0, "pitch": 68, "instrument": 25, "track": 8, "qtime": 30, "bar": 3, "isDrum": false}, {"time": 180, "velocity": 108, "pitch": 61, "instrument": 25, "track": 8, "qtime": 36, "bar": 3, "isDrum": false}, {"time": 180, "velocity": 108, "pitch": 65, "instrument": 25, "track": 8, "qtime": 36, "bar": 3, "isDrum": false}, {"time": 180, "velocity": 108, "pitch": 68, "instrument": 25, "track": 8, "qtime": 36, "bar": 3, "isDrum": false}, {"time": 183, "velocity": 0, "pitch": 61, "instrument": 25, "track": 8, "qtime": 39, "bar": 3, "isDrum": false}, {"time": 183, "velocity": 0, "pitch": 65, "instrument": 25, "track": 8, "qtime": 39, "bar": 3, "isDrum": false}, {"time": 183, "velocity": 0, "pitch": 68, "instrument": 25, "track": 8, "qtime": 39, "bar": 3, "isDrum": false}, {"time": 183, "velocity": 108, "pitch": 61, "instrument": 25, "track": 8, "qtime": 39, "bar": 3, "isDrum": false}, {"time": 183, "velocity": 108, "pitch": 65, "instrument": 25, "track": 8, "qtime": 39, "bar": 3, "isDrum": false}, {"time": 183, "velocity": 108, "pitch": 68, "instrument": 25, "track": 8, "qtime": 39, "bar": 3, "isDrum": false}, {"time": 189, "velocity": 0, "pitch": 61, "instrument": 25, "track": 8, "qtime": 45, "bar": 3, "isDrum": false}, {"time": 189, "velocity": 0, "pitch": 65, "instrument": 25, "track": 8, "qtime": 45, "bar": 3, "isDrum": false}, {"time": 189, "velocity": 0, "pitch": 68, "instrument": 25, "track": 8, "qtime": 45, "bar": 3, "isDrum": false}, {"time": 192, "velocity": 108, "pitch": 61, "instrument": 25, "track": 8, "qtime": 0, "bar": 4, "isDrum": false}, {"time": 192, "velocity": 108, "pitch": 65, "instrument": 25, "track": 8, "qtime": 0, "bar": 4, "isDrum": false}, {"time": 192, "velocity": 108, "pitch": 70, "instrument": 25, "track": 8, "qtime": 0, "bar": 4, "isDrum": false}, {"time": 202, "velocity": 0, "pitch": 61, "instrument": 25, "track": 8, "qtime": 10, "bar": 4, "isDrum": false}, {"time": 202, "velocity": 0, "pitch": 65, "instrument": 25, "track": 8, "qtime": 10, "bar": 4, "isDrum": false}, {"time": 202, "velocity": 0, "pitch": 70, "instrument": 25, "track": 8, "qtime": 10, "bar": 4, "isDrum": false}, {"time": 204, "velocity": 108, "pitch": 61, "instrument": 25, "track": 8, "qtime": 12, "bar": 4, "isDrum": false}, {"time": 204, "velocity": 108, "pitch": 65, "instrument": 25, "track": 8, "qtime": 12, "bar": 4, "isDrum": false}, {"time": 204, "velocity": 108, "pitch": 70, "instrument": 25, "track": 8, "qtime": 12, "bar": 4, "isDrum": false}, {"time": 210, "velocity": 0, "pitch": 61, "instrument": 25, "track": 8, "qtime": 18, "bar": 4, "isDrum": false}, {"time": 210, "velocity": 0, "pitch": 65, "instrument": 25, "track": 8, "qtime": 18, "bar": 4, "isDrum": false}, {"time": 210, "velocity": 0, "pitch": 70, "instrument": 25, "track": 8, "qtime": 18, "bar": 4, "isDrum": false}, {"time": 213, "velocity": 108, "pitch": 61, "instrument": 25, "track": 8, "qtime": 21, "bar": 4, "isDrum": false}, {"time": 213, "velocity": 108, "pitch": 65, "instrument": 25, "track": 8, "qtime": 21, "bar": 4, "isDrum": false}, {"time": 213, "velocity": 108, "pitch": 70, "instrument": 25, "track": 8, "qtime": 21, "bar": 4, "isDrum": false}, {"time": 216, "velocity": 0, "pitch": 61, "instrument": 25, "track": 8, "qtime": 24, "bar": 4, "isDrum": false}, {"time": 216, "velocity": 0, "pitch": 65, "instrument": 25, "track": 8, "qtime": 24, "bar": 4, "isDrum": false}, {"time": 216, "velocity": 0, "pitch": 70, "instrument": 25, "track": 8, "qtime": 24, "bar": 4, "isDrum": false}, {"time": 219, "velocity": 108, "pitch": 61, "instrument": 25, "track": 8, "qtime": 27, "bar": 4, "isDrum": false}, {"time": 219, "velocity": 108, "pitch": 65, "instrument": 25, "track": 8, "qtime": 27, "bar": 4, "isDrum": false}, {"time": 219, "velocity": 108, "pitch": 70, "instrument": 25, "track": 8, "qtime": 27, "bar": 4, "isDrum": false}, {"time": 225, "velocity": 0, "pitch": 61, "instrument": 25, "track": 8, "qtime": 33, "bar": 4, "isDrum": false}, {"time": 225, "velocity": 0, "pitch": 65, "instrument": 25, "track": 8, "qtime": 33, "bar": 4, "isDrum": false}, {"time": 225, "velocity": 0, "pitch": 70, "instrument": 25, "track": 8, "qtime": 33, "bar": 4, "isDrum": false}, {"time": 228, "velocity": 108, "pitch": 61, "instrument": 25, "track": 8, "qtime": 36, "bar": 4, "isDrum": false}, {"time": 228, "velocity": 108, "pitch": 65, "instrument": 25, "track": 8, "qtime": 36, "bar": 4, "isDrum": false}, {"time": 228, "velocity": 108, "pitch": 70, "instrument": 25, "track": 8, "qtime": 36, "bar": 4, "isDrum": false}, {"time": 231, "velocity": 0, "pitch": 61, "instrument": 25, "track": 8, "qtime": 39, "bar": 4, "isDrum": false}, {"time": 231, "velocity": 0, "pitch": 65, "instrument": 25, "track": 8, "qtime": 39, "bar": 4, "isDrum": false}, {"time": 231, "velocity": 0, "pitch": 70, "instrument": 25, "track": 8, "qtime": 39, "bar": 4, "isDrum": false}, {"time": 231, "velocity": 108, "pitch": 61, "instrument": 25, "track": 8, "qtime": 39, "bar": 4, "isDrum": false}, {"time": 231, "velocity": 108, "pitch": 65, "instrument": 25, "track": 8, "qtime": 39, "bar": 4, "isDrum": false}, {"time": 231, "velocity": 108, "pitch": 70, "instrument": 25, "track": 8, "qtime": 39, "bar": 4, "isDrum": false}, {"time": 234, "velocity": 0, "pitch": 61, "instrument": 25, "track": 8, "qtime": 42, "bar": 4, "isDrum": false}, {"time": 234, "velocity": 0, "pitch": 65, "instrument": 25, "track": 8, "qtime": 42, "bar": 4, "isDrum": false}, {"time": 234, "velocity": 0, "pitch": 70, "instrument": 25, "track": 8, "qtime": 42, "bar": 4, "isDrum": false}, {"time": 240, "velocity": 108, "pitch": 58, "instrument": 25, "track": 8, "qtime": 0, "bar": 5, "isDrum": false}, {"time": 240, "velocity": 108, "pitch": 63, "instrument": 25, "track": 8, "qtime": 0, "bar": 5, "isDrum": false}, {"time": 240, "velocity": 108, "pitch": 67, "instrument": 25, "track": 8, "qtime": 0, "bar": 5, "isDrum": false}, {"time": 249, "velocity": 0, "pitch": 58, "instrument": 25, "track": 8, "qtime": 9, "bar": 5, "isDrum": false}, {"time": 249, "velocity": 0, "pitch": 63, "instrument": 25, "track": 8, "qtime": 9, "bar": 5, "isDrum": false}, {"time": 249, "velocity": 0, "pitch": 67, "instrument": 25, "track": 8, "qtime": 9, "bar": 5, "isDrum": false}, {"time": 252, "velocity": 108, "pitch": 58, "instrument": 25, "track": 8, "qtime": 12, "bar": 5, "isDrum": false}, {"time": 252, "velocity": 108, "pitch": 63, "instrument": 25, "track": 8, "qtime": 12, "bar": 5, "isDrum": false}, {"time": 252, "velocity": 108, "pitch": 67, "instrument": 25, "track": 8, "qtime": 12, "bar": 5, "isDrum": false}, {"time": 258, "velocity": 0, "pitch": 58, "instrument": 25, "track": 8, "qtime": 18, "bar": 5, "isDrum": false}, {"time": 258, "velocity": 0, "pitch": 67, "instrument": 25, "track": 8, "qtime": 18, "bar": 5, "isDrum": false}, {"time": 261, "velocity": 0, "pitch": 63, "instrument": 25, "track": 8, "qtime": 21, "bar": 5, "isDrum": false}, {"time": 261, "velocity": 108, "pitch": 58, "instrument": 25, "track": 8, "qtime": 21, "bar": 5, "isDrum": false}, {"time": 261, "velocity": 108, "pitch": 63, "instrument": 25, "track": 8, "qtime": 21, "bar": 5, "isDrum": false}, {"time": 261, "velocity": 108, "pitch": 68, "instrument": 25, "track": 8, "qtime": 21, "bar": 5, "isDrum": false}, {"time": 264, "velocity": 0, "pitch": 58, "instrument": 25, "track": 8, "qtime": 24, "bar": 5, "isDrum": false}, {"time": 264, "velocity": 0, "pitch": 63, "instrument": 25, "track": 8, "qtime": 24, "bar": 5, "isDrum": false}, {"time": 264, "velocity": 0, "pitch": 68, "instrument": 25, "track": 8, "qtime": 24, "bar": 5, "isDrum": false}, {"time": 267, "velocity": 108, "pitch": 58, "instrument": 25, "track": 8, "qtime": 27, "bar": 5, "isDrum": false}, {"time": 267, "velocity": 108, "pitch": 63, "instrument": 25, "track": 8, "qtime": 27, "bar": 5, "isDrum": false}, {"time": 267, "velocity": 108, "pitch": 68, "instrument": 25, "track": 8, "qtime": 27, "bar": 5, "isDrum": false}, {"time": 273, "velocity": 0, "pitch": 58, "instrument": 25, "track": 8, "qtime": 33, "bar": 5, "isDrum": false}, {"time": 273, "velocity": 0, "pitch": 63, "instrument": 25, "track": 8, "qtime": 33, "bar": 5, "isDrum": false}, {"time": 273, "velocity": 0, "pitch": 68, "instrument": 25, "track": 8, "qtime": 33, "bar": 5, "isDrum": false}, {"time": 273, "velocity": 108, "pitch": 58, "instrument": 25, "track": 8, "qtime": 33, "bar": 5, "isDrum": false}, {"time": 273, "velocity": 108, "pitch": 63, "instrument": 25, "track": 8, "qtime": 33, "bar": 5, "isDrum": false}, {"time": 273, "velocity": 108, "pitch": 67, "instrument": 25, "track": 8, "qtime": 33, "bar": 5, "isDrum": false}, {"time": 276, "velocity": 0, "pitch": 58, "instrument": 25, "track": 8, "qtime": 36, "bar": 5, "isDrum": false}, {"time": 276, "velocity": 0, "pitch": 63, "instrument": 25, "track": 8, "qtime": 36, "bar": 5, "isDrum": false}, {"time": 276, "velocity": 0, "pitch": 67, "instrument": 25, "track": 8, "qtime": 36, "bar": 5, "isDrum": false}, {"time": 279, "velocity": 108, "pitch": 58, "instrument": 25, "track": 8, "qtime": 39, "bar": 5, "isDrum": false}, {"time": 279, "velocity": 108, "pitch": 63, "instrument": 25, "track": 8, "qtime": 39, "bar": 5, "isDrum": false}, {"time": 279, "velocity": 108, "pitch": 67, "instrument": 25, "track": 8, "qtime": 39, "bar": 5, "isDrum": false}, {"time": 285, "velocity": 0, "pitch": 58, "instrument": 25, "track": 8, "qtime": 45, "bar": 5, "isDrum": false}, {"time": 285, "velocity": 0, "pitch": 63, "instrument": 25, "track": 8, "qtime": 45, "bar": 5, "isDrum": false}, {"time": 285, "velocity": 0, "pitch": 67, "instrument": 25, "track": 8, "qtime": 45, "bar": 5, "isDrum": false}, {"time": 288, "velocity": 108, "pitch": 60, "instrument": 25, "track": 8, "qtime": 0, "bar": 6, "isDrum": false}, {"time": 288, "velocity": 108, "pitch": 63, "instrument": 25, "track": 8, "qtime": 0, "bar": 6, "isDrum": false}, {"time": 288, "velocity": 108, "pitch": 68, "instrument": 25, "track": 8, "qtime": 0, "bar": 6, "isDrum": false}, {"time": 297, "velocity": 0, "pitch": 60, "instrument": 25, "track": 8, "qtime": 9, "bar": 6, "isDrum": false}, {"time": 297, "velocity": 0, "pitch": 63, "instrument": 25, "track": 8, "qtime": 9, "bar": 6, "isDrum": false}, {"time": 297, "velocity": 0, "pitch": 68, "instrument": 25, "track": 8, "qtime": 9, "bar": 6, "isDrum": false}, {"time": 300, "velocity": 108, "pitch": 60, "instrument": 25, "track": 8, "qtime": 12, "bar": 6, "isDrum": false}, {"time": 300, "velocity": 108, "pitch": 63, "instrument": 25, "track": 8, "qtime": 12, "bar": 6, "isDrum": false}, {"time": 300, "velocity": 108, "pitch": 68, "instrument": 25, "track": 8, "qtime": 12, "bar": 6, "isDrum": false}, {"time": 306, "velocity": 0, "pitch": 60, "instrument": 25, "track": 8, "qtime": 18, "bar": 6, "isDrum": false}, {"time": 306, "velocity": 0, "pitch": 63, "instrument": 25, "track": 8, "qtime": 18, "bar": 6, "isDrum": false}, {"time": 306, "velocity": 0, "pitch": 68, "instrument": 25, "track": 8, "qtime": 18, "bar": 6, "isDrum": false}, {"time": 309, "velocity": 108, "pitch": 60, "instrument": 25, "track": 8, "qtime": 21, "bar": 6, "isDrum": false}, {"time": 309, "velocity": 108, "pitch": 63, "instrument": 25, "track": 8, "qtime": 21, "bar": 6, "isDrum": false}, {"time": 309, "velocity": 108, "pitch": 68, "instrument": 25, "track": 8, "qtime": 21, "bar": 6, "isDrum": false}, {"time": 312, "velocity": 0, "pitch": 60, "instrument": 25, "track": 8, "qtime": 24, "bar": 6, "isDrum": false}, {"time": 312, "velocity": 0, "pitch": 63, "instrument": 25, "track": 8, "qtime": 24, "bar": 6, "isDrum": false}, {"time": 312, "velocity": 0, "pitch": 68, "instrument": 25, "track": 8, "qtime": 24, "bar": 6, "isDrum": false}, {"time": 315, "velocity": 108, "pitch": 60, "instrument": 25, "track": 8, "qtime": 27, "bar": 6, "isDrum": false}, {"time": 315, "velocity": 108, "pitch": 63, "instrument": 25, "track": 8, "qtime": 27, "bar": 6, "isDrum": false}, {"time": 315, "velocity": 108, "pitch": 68, "instrument": 25, "track": 8, "qtime": 27, "bar": 6, "isDrum": false}, {"time": 321, "velocity": 0, "pitch": 60, "instrument": 25, "track": 8, "qtime": 33, "bar": 6, "isDrum": false}, {"time": 321, "velocity": 0, "pitch": 63, "instrument": 25, "track": 8, "qtime": 33, "bar": 6, "isDrum": false}, {"time": 321, "velocity": 0, "pitch": 68, "instrument": 25, "track": 8, "qtime": 33, "bar": 6, "isDrum": false}, {"time": 324, "velocity": 108, "pitch": 60, "instrument": 25, "track": 8, "qtime": 36, "bar": 6, "isDrum": false}, {"time": 324, "velocity": 108, "pitch": 63, "instrument": 25, "track": 8, "qtime": 36, "bar": 6, "isDrum": false}, {"time": 324, "velocity": 108, "pitch": 68, "instrument": 25, "track": 8, "qtime": 36, "bar": 6, "isDrum": false}, {"time": 327, "velocity": 0, "pitch": 60, "instrument": 25, "track": 8, "qtime": 39, "bar": 6, "isDrum": false}, {"time": 327, "velocity": 0, "pitch": 63, "instrument": 25, "track": 8, "qtime": 39, "bar": 6, "isDrum": false}, {"time": 327, "velocity": 0, "pitch": 68, "instrument": 25, "track": 8, "qtime": 39, "bar": 6, "isDrum": false}, {"time": 327, "velocity": 108, "pitch": 60, "instrument": 25, "track": 8, "qtime": 39, "bar": 6, "isDrum": false}, {"time": 327, "velocity": 108, "pitch": 63, "instrument": 25, "track": 8, "qtime": 39, "bar": 6, "isDrum": false}, {"time": 327, "velocity": 108, "pitch": 68, "instrument": 25, "track": 8, "qtime": 39, "bar": 6, "isDrum": false}, {"time": 330, "velocity": 0, "pitch": 60, "instrument": 25, "track": 8, "qtime": 42, "bar": 6, "isDrum": false}, {"time": 330, "velocity": 0, "pitch": 63, "instrument": 25, "track": 8, "qtime": 42, "bar": 6, "isDrum": false}, {"time": 330, "velocity": 0, "pitch": 68, "instrument": 25, "track": 8, "qtime": 42, "bar": 6, "isDrum": false}, {"time": 336, "velocity": 108, "pitch": 61, "instrument": 25, "track": 8, "qtime": 0, "bar": 7, "isDrum": false}, {"time": 336, "velocity": 108, "pitch": 65, "instrument": 25, "track": 8, "qtime": 0, "bar": 7, "isDrum": false}, {"time": 336, "velocity": 108, "pitch": 68, "instrument": 25, "track": 8, "qtime": 0, "bar": 7, "isDrum": false}, {"time": 348, "velocity": 0, "pitch": 61, "instrument": 25, "track": 8, "qtime": 12, "bar": 7, "isDrum": false}, {"time": 348, "velocity": 0, "pitch": 65, "instrument": 25, "track": 8, "qtime": 12, "bar": 7, "isDrum": false}, {"time": 348, "velocity": 0, "pitch": 68, "instrument": 25, "track": 8, "qtime": 12, "bar": 7, "isDrum": false}, {"time": 348, "velocity": 108, "pitch": 61, "instrument": 25, "track": 8, "qtime": 12, "bar": 7, "isDrum": false}, {"time": 348, "velocity": 108, "pitch": 65, "instrument": 25, "track": 8, "qtime": 12, "bar": 7, "isDrum": false}, {"time": 348, "velocity": 108, "pitch": 68, "instrument": 25, "track": 8, "qtime": 12, "bar": 7, "isDrum": false}, {"time": 354, "velocity": 0, "pitch": 61, "instrument": 25, "track": 8, "qtime": 18, "bar": 7, "isDrum": false}, {"time": 354, "velocity": 0, "pitch": 65, "instrument": 25, "track": 8, "qtime": 18, "bar": 7, "isDrum": false}, {"time": 354, "velocity": 0, "pitch": 68, "instrument": 25, "track": 8, "qtime": 18, "bar": 7, "isDrum": false}, {"time": 357, "velocity": 108, "pitch": 61, "instrument": 25, "track": 8, "qtime": 21, "bar": 7, "isDrum": false}, {"time": 357, "velocity": 108, "pitch": 65, "instrument": 25, "track": 8, "qtime": 21, "bar": 7, "isDrum": false}, {"time": 357, "velocity": 108, "pitch": 68, "instrument": 25, "track": 8, "qtime": 21, "bar": 7, "isDrum": false}, {"time": 360, "velocity": 0, "pitch": 61, "instrument": 25, "track": 8, "qtime": 24, "bar": 7, "isDrum": false}, {"time": 360, "velocity": 0, "pitch": 65, "instrument": 25, "track": 8, "qtime": 24, "bar": 7, "isDrum": false}, {"time": 360, "velocity": 0, "pitch": 68, "instrument": 25, "track": 8, "qtime": 24, "bar": 7, "isDrum": false}, {"time": 363, "velocity": 108, "pitch": 61, "instrument": 25, "track": 8, "qtime": 27, "bar": 7, "isDrum": false}, {"time": 363, "velocity": 108, "pitch": 65, "instrument": 25, "track": 8, "qtime": 27, "bar": 7, "isDrum": false}, {"time": 363, "velocity": 108, "pitch": 68, "instrument": 25, "track": 8, "qtime": 27, "bar": 7, "isDrum": false}, {"time": 369, "velocity": 0, "pitch": 61, "instrument": 25, "track": 8, "qtime": 33, "bar": 7, "isDrum": false}, {"time": 369, "velocity": 0, "pitch": 65, "instrument": 25, "track": 8, "qtime": 33, "bar": 7, "isDrum": false}, {"time": 369, "velocity": 0, "pitch": 68, "instrument": 25, "track": 8, "qtime": 33, "bar": 7, "isDrum": false}, {"time": 372, "velocity": 108, "pitch": 61, "instrument": 25, "track": 8, "qtime": 36, "bar": 7, "isDrum": false}, {"time": 372, "velocity": 108, "pitch": 65, "instrument": 25, "track": 8, "qtime": 36, "bar": 7, "isDrum": false}, {"time": 372, "velocity": 108, "pitch": 68, "instrument": 25, "track": 8, "qtime": 36, "bar": 7, "isDrum": false}, {"time": 375, "velocity": 0, "pitch": 61, "instrument": 25, "track": 8, "qtime": 39, "bar": 7, "isDrum": false}, {"time": 375, "velocity": 0, "pitch": 65, "instrument": 25, "track": 8, "qtime": 39, "bar": 7, "isDrum": false}, {"time": 375, "velocity": 0, "pitch": 68, "instrument": 25, "track": 8, "qtime": 39, "bar": 7, "isDrum": false}, {"time": 375, "velocity": 108, "pitch": 61, "instrument": 25, "track": 8, "qtime": 39, "bar": 7, "isDrum": false}, {"time": 375, "velocity": 108, "pitch": 65, "instrument": 25, "track": 8, "qtime": 39, "bar": 7, "isDrum": false}, {"time": 375, "velocity": 108, "pitch": 68, "instrument": 25, "track": 8, "qtime": 39, "bar": 7, "isDrum": false}, {"time": 378, "velocity": 0, "pitch": 61, "instrument": 25, "track": 8, "qtime": 42, "bar": 7, "isDrum": false}, {"time": 378, "velocity": 0, "pitch": 65, "instrument": 25, "track": 8, "qtime": 42, "bar": 7, "isDrum": false}, {"time": 378, "velocity": 0, "pitch": 68, "instrument": 25, "track": 8, "qtime": 42, "bar": 7, "isDrum": false}, {"time": 0, "velocity": 108, "pitch": 36, "instrument": 0, "track": 9, "qtime": 0, "bar": 0, "isDrum": true}, {"time": 0, "velocity": 108, "pitch": 42, "instrument": 0, "track": 9, "qtime": 0, "bar": 0, "isDrum": true}, {"time": 0, "velocity": 108, "pitch": 54, "instrument": 0, "track": 9, "qtime": 0, "bar": 0, "isDrum": true}, {"time": 3, "velocity": 0, "pitch": 36, "instrument": 0, "track": 9, "qtime": 3, "bar": 0, "isDrum": true}, {"time": 3, "velocity": 0, "pitch": 42, "instrument": 0, "track": 9, "qtime": 3, "bar": 0, "isDrum": true}, {"time": 3, "velocity": 0, "pitch": 54, "instrument": 0, "track": 9, "qtime": 3, "bar": 0, "isDrum": true}, {"time": 3, "velocity": 108, "pitch": 54, "instrument": 0, "track": 9, "qtime": 3, "bar": 0, "isDrum": true}, {"time": 6, "velocity": 0, "pitch": 54, "instrument": 0, "track": 9, "qtime": 6, "bar": 0, "isDrum": true}, {"time": 6, "velocity": 108, "pitch": 42, "instrument": 0, "track": 9, "qtime": 6, "bar": 0, "isDrum": true}, {"time": 6, "velocity": 108, "pitch": 54, "instrument": 0, "track": 9, "qtime": 6, "bar": 0, "isDrum": true}, {"time": 9, "velocity": 0, "pitch": 42, "instrument": 0, "track": 9, "qtime": 9, "bar": 0, "isDrum": true}, {"time": 9, "velocity": 0, "pitch": 54, "instrument": 0, "track": 9, "qtime": 9, "bar": 0, "isDrum": true}, {"time": 9, "velocity": 108, "pitch": 54, "instrument": 0, "track": 9, "qtime": 9, "bar": 0, "isDrum": true}, {"time": 12, "velocity": 0, "pitch": 54, "instrument": 0, "track": 9, "qtime": 12, "bar": 0, "isDrum": true}, {"time": 12, "velocity": 108, "pitch": 42, "instrument": 0, "track": 9, "qtime": 12, "bar": 0, "isDrum": true}, {"time": 12, "velocity": 108, "pitch": 54, "instrument": 0, "track": 9, "qtime": 12, "bar": 0, "isDrum": true}, {"time": 15, "velocity": 0, "pitch": 42, "instrument": 0, "track": 9, "qtime": 15, "bar": 0, "isDrum": true}, {"time": 15, "velocity": 0, "pitch": 54, "instrument": 0, "track": 9, "qtime": 15, "bar": 0, "isDrum": true}, {"time": 15, "velocity": 108, "pitch": 54, "instrument": 0, "track": 9, "qtime": 15, "bar": 0, "isDrum": true}, {"time": 18, "velocity": 0, "pitch": 54, "instrument": 0, "track": 9, "qtime": 18, "bar": 0, "isDrum": true}, {"time": 18, "velocity": 108, "pitch": 42, "instrument": 0, "track": 9, "qtime": 18, "bar": 0, "isDrum": true}, {"time": 18, "velocity": 108, "pitch": 54, "instrument": 0, "track": 9, "qtime": 18, "bar": 0, "isDrum": true}, {"time": 21, "velocity": 0, "pitch": 42, "instrument": 0, "track": 9, "qtime": 21, "bar": 0, "isDrum": true}, {"time": 21, "velocity": 0, "pitch": 54, "instrument": 0, "track": 9, "qtime": 21, "bar": 0, "isDrum": true}, {"time": 21, "velocity": 108, "pitch": 36, "instrument": 0, "track": 9, "qtime": 21, "bar": 0, "isDrum": true}, {"time": 21, "velocity": 108, "pitch": 54, "instrument": 0, "track": 9, "qtime": 21, "bar": 0, "isDrum": true}, {"time": 24, "velocity": 0, "pitch": 36, "instrument": 0, "track": 9, "qtime": 24, "bar": 0, "isDrum": true}, {"time": 24, "velocity": 0, "pitch": 54, "instrument": 0, "track": 9, "qtime": 24, "bar": 0, "isDrum": true}, {"time": 24, "velocity": 108, "pitch": 36, "instrument": 0, "track": 9, "qtime": 24, "bar": 0, "isDrum": true}, {"time": 24, "velocity": 108, "pitch": 42, "instrument": 0, "track": 9, "qtime": 24, "bar": 0, "isDrum": true}, {"time": 24, "velocity": 108, "pitch": 54, "instrument": 0, "track": 9, "qtime": 24, "bar": 0, "isDrum": true}, {"time": 27, "velocity": 0, "pitch": 36, "instrument": 0, "track": 9, "qtime": 27, "bar": 0, "isDrum": true}, {"time": 27, "velocity": 0, "pitch": 42, "instrument": 0, "track": 9, "qtime": 27, "bar": 0, "isDrum": true}, {"time": 27, "velocity": 0, "pitch": 54, "instrument": 0, "track": 9, "qtime": 27, "bar": 0, "isDrum": true}, {"time": 27, "velocity": 108, "pitch": 54, "instrument": 0, "track": 9, "qtime": 27, "bar": 0, "isDrum": true}, {"time": 30, "velocity": 0, "pitch": 54, "instrument": 0, "track": 9, "qtime": 30, "bar": 0, "isDrum": true}, {"time": 30, "velocity": 108, "pitch": 44, "instrument": 0, "track": 9, "qtime": 30, "bar": 0, "isDrum": true}, {"time": 30, "velocity": 108, "pitch": 54, "instrument": 0, "track": 9, "qtime": 30, "bar": 0, "isDrum": true}, {"time": 33, "velocity": 0, "pitch": 44, "instrument": 0, "track": 9, "qtime": 33, "bar": 0, "isDrum": true}, {"time": 33, "velocity": 0, "pitch": 54, "instrument": 0, "track": 9, "qtime": 33, "bar": 0, "isDrum": true}, {"time": 33, "velocity": 108, "pitch": 54, "instrument": 0, "track": 9, "qtime": 33, "bar": 0, "isDrum": true}, {"time": 36, "velocity": 0, "pitch": 54, "instrument": 0, "track": 9, "qtime": 36, "bar": 0, "isDrum": true}, {"time": 36, "velocity": 108, "pitch": 54, "instrument": 0, "track": 9, "qtime": 36, "bar": 0, "isDrum": true}, {"time": 39, "velocity": 0, "pitch": 54, "instrument": 0, "track": 9, "qtime": 39, "bar": 0, "isDrum": true}, {"time": 39, "velocity": 108, "pitch": 54, "instrument": 0, "track": 9, "qtime": 39, "bar": 0, "isDrum": true}, {"time": 42, "velocity": 0, "pitch": 54, "instrument": 0, "track": 9, "qtime": 42, "bar": 0, "isDrum": true}, {"time": 42, "velocity": 108, "pitch": 36, "instrument": 0, "track": 9, "qtime": 42, "bar": 0, "isDrum": true}, {"time": 42, "velocity": 108, "pitch": 42, "instrument": 0, "track": 9, "qtime": 42, "bar": 0, "isDrum": true}, {"time": 42, "velocity": 108, "pitch": 54, "instrument": 0, "track": 9, "qtime": 42, "bar": 0, "isDrum": true}, {"time": 45, "velocity": 0, "pitch": 36, "instrument": 0, "track": 9, "qtime": 45, "bar": 0, "isDrum": true}, {"time": 45, "velocity": 0, "pitch": 42, "instrument": 0, "track": 9, "qtime": 45, "bar": 0, "isDrum": true}, {"time": 45, "velocity": 0, "pitch": 54, "instrument": 0, "track": 9, "qtime": 45, "bar": 0, "isDrum": true}, {"time": 45, "velocity": 108, "pitch": 54, "instrument": 0, "track": 9, "qtime": 45, "bar": 0, "isDrum": true}, {"time": 48, "velocity": 0, "pitch": 54, "instrument": 0, "track": 9, "qtime": 48, "bar": 0, "isDrum": true}, {"time": 48, "velocity": 108, "pitch": 36, "instrument": 0, "track": 9, "qtime": 0, "bar": 1, "isDrum": true}, {"time": 48, "velocity": 108, "pitch": 42, "instrument": 0, "track": 9, "qtime": 0, "bar": 1, "isDrum": true}, {"time": 48, "velocity": 108, "pitch": 54, "instrument": 0, "track": 9, "qtime": 0, "bar": 1, "isDrum": true}, {"time": 51, "velocity": 0, "pitch": 36, "instrument": 0, "track": 9, "qtime": 3, "bar": 1, "isDrum": true}, {"time": 51, "velocity": 0, "pitch": 42, "instrument": 0, "track": 9, "qtime": 3, "bar": 1, "isDrum": true}, {"time": 51, "velocity": 0, "pitch": 54, "instrument": 0, "track": 9, "qtime": 3, "bar": 1, "isDrum": true}, {"time": 51, "velocity": 108, "pitch": 54, "instrument": 0, "track": 9, "qtime": 3, "bar": 1, "isDrum": true}, {"time": 54, "velocity": 0, "pitch": 54, "instrument": 0, "track": 9, "qtime": 6, "bar": 1, "isDrum": true}, {"time": 54, "velocity": 108, "pitch": 42, "instrument": 0, "track": 9, "qtime": 6, "bar": 1, "isDrum": true}, {"time": 54, "velocity": 108, "pitch": 54, "instrument": 0, "track": 9, "qtime": 6, "bar": 1, "isDrum": true}, {"time": 57, "velocity": 0, "pitch": 42, "instrument": 0, "track": 9, "qtime": 9, "bar": 1, "isDrum": true}, {"time": 57, "velocity": 0, "pitch": 54, "instrument": 0, "track": 9, "qtime": 9, "bar": 1, "isDrum": true}, {"time": 57, "velocity": 108, "pitch": 54, "instrument": 0, "track": 9, "qtime": 9, "bar": 1, "isDrum": true}, {"time": 60, "velocity": 0, "pitch": 54, "instrument": 0, "track": 9, "qtime": 12, "bar": 1, "isDrum": true}, {"time": 60, "velocity": 108, "pitch": 42, "instrument": 0, "track": 9, "qtime": 12, "bar": 1, "isDrum": true}, {"time": 60, "velocity": 108, "pitch": 54, "instrument": 0, "track": 9, "qtime": 12, "bar": 1, "isDrum": true}, {"time": 63, "velocity": 0, "pitch": 42, "instrument": 0, "track": 9, "qtime": 15, "bar": 1, "isDrum": true}, {"time": 63, "velocity": 0, "pitch": 54, "instrument": 0, "track": 9, "qtime": 15, "bar": 1, "isDrum": true}, {"time": 63, "velocity": 108, "pitch": 54, "instrument": 0, "track": 9, "qtime": 15, "bar": 1, "isDrum": true}, {"time": 66, "velocity": 0, "pitch": 54, "instrument": 0, "track": 9, "qtime": 18, "bar": 1, "isDrum": true}, {"time": 66, "velocity": 108, "pitch": 42, "instrument": 0, "track": 9, "qtime": 18, "bar": 1, "isDrum": true}, {"time": 66, "velocity": 108, "pitch": 54, "instrument": 0, "track": 9, "qtime": 18, "bar": 1, "isDrum": true}, {"time": 69, "velocity": 0, "pitch": 42, "instrument": 0, "track": 9, "qtime": 21, "bar": 1, "isDrum": true}, {"time": 69, "velocity": 0, "pitch": 54, "instrument": 0, "track": 9, "qtime": 21, "bar": 1, "isDrum": true}, {"time": 69, "velocity": 108, "pitch": 36, "instrument": 0, "track": 9, "qtime": 21, "bar": 1, "isDrum": true}, {"time": 69, "velocity": 108, "pitch": 54, "instrument": 0, "track": 9, "qtime": 21, "bar": 1, "isDrum": true}, {"time": 72, "velocity": 0, "pitch": 36, "instrument": 0, "track": 9, "qtime": 24, "bar": 1, "isDrum": true}, {"time": 72, "velocity": 0, "pitch": 54, "instrument": 0, "track": 9, "qtime": 24, "bar": 1, "isDrum": true}, {"time": 72, "velocity": 108, "pitch": 36, "instrument": 0, "track": 9, "qtime": 24, "bar": 1, "isDrum": true}, {"time": 72, "velocity": 108, "pitch": 42, "instrument": 0, "track": 9, "qtime": 24, "bar": 1, "isDrum": true}, {"time": 72, "velocity": 108, "pitch": 54, "instrument": 0, "track": 9, "qtime": 24, "bar": 1, "isDrum": true}, {"time": 75, "velocity": 0, "pitch": 36, "instrument": 0, "track": 9, "qtime": 27, "bar": 1, "isDrum": true}, {"time": 75, "velocity": 0, "pitch": 42, "instrument": 0, "track": 9, "qtime": 27, "bar": 1, "isDrum": true}, {"time": 75, "velocity": 0, "pitch": 54, "instrument": 0, "track": 9, "qtime": 27, "bar": 1, "isDrum": true}, {"time": 75, "velocity": 108, "pitch": 54, "instrument": 0, "track": 9, "qtime": 27, "bar": 1, "isDrum": true}, {"time": 78, "velocity": 0, "pitch": 54, "instrument": 0, "track": 9, "qtime": 30, "bar": 1, "isDrum": true}, {"time": 78, "velocity": 108, "pitch": 44, "instrument": 0, "track": 9, "qtime": 30, "bar": 1, "isDrum": true}, {"time": 78, "velocity": 108, "pitch": 54, "instrument": 0, "track": 9, "qtime": 30, "bar": 1, "isDrum": true}, {"time": 81, "velocity": 0, "pitch": 44, "instrument": 0, "track": 9, "qtime": 33, "bar": 1, "isDrum": true}, {"time": 81, "velocity": 0, "pitch": 54, "instrument": 0, "track": 9, "qtime": 33, "bar": 1, "isDrum": true}, {"time": 81, "velocity": 108, "pitch": 54, "instrument": 0, "track": 9, "qtime": 33, "bar": 1, "isDrum": true}, {"time": 84, "velocity": 0, "pitch": 54, "instrument": 0, "track": 9, "qtime": 36, "bar": 1, "isDrum": true}, {"time": 84, "velocity": 108, "pitch": 54, "instrument": 0, "track": 9, "qtime": 36, "bar": 1, "isDrum": true}, {"time": 87, "velocity": 0, "pitch": 54, "instrument": 0, "track": 9, "qtime": 39, "bar": 1, "isDrum": true}, {"time": 87, "velocity": 108, "pitch": 54, "instrument": 0, "track": 9, "qtime": 39, "bar": 1, "isDrum": true}, {"time": 90, "velocity": 0, "pitch": 54, "instrument": 0, "track": 9, "qtime": 42, "bar": 1, "isDrum": true}, {"time": 90, "velocity": 108, "pitch": 36, "instrument": 0, "track": 9, "qtime": 42, "bar": 1, "isDrum": true}, {"time": 90, "velocity": 108, "pitch": 42, "instrument": 0, "track": 9, "qtime": 42, "bar": 1, "isDrum": true}, {"time": 90, "velocity": 108, "pitch": 54, "instrument": 0, "track": 9, "qtime": 42, "bar": 1, "isDrum": true}, {"time": 93, "velocity": 0, "pitch": 36, "instrument": 0, "track": 9, "qtime": 45, "bar": 1, "isDrum": true}, {"time": 93, "velocity": 0, "pitch": 42, "instrument": 0, "track": 9, "qtime": 45, "bar": 1, "isDrum": true}, {"time": 93, "velocity": 0, "pitch": 54, "instrument": 0, "track": 9, "qtime": 45, "bar": 1, "isDrum": true}, {"time": 93, "velocity": 108, "pitch": 54, "instrument": 0, "track": 9, "qtime": 45, "bar": 1, "isDrum": true}, {"time": 96, "velocity": 0, "pitch": 54, "instrument": 0, "track": 9, "qtime": 48, "bar": 1, "isDrum": true}, {"time": 96, "velocity": 108, "pitch": 36, "instrument": 0, "track": 9, "qtime": 0, "bar": 2, "isDrum": true}, {"time": 96, "velocity": 108, "pitch": 42, "instrument": 0, "track": 9, "qtime": 0, "bar": 2, "isDrum": true}, {"time": 96, "velocity": 108, "pitch": 54, "instrument": 0, "track": 9, "qtime": 0, "bar": 2, "isDrum": true}, {"time": 99, "velocity": 0, "pitch": 36, "instrument": 0, "track": 9, "qtime": 3, "bar": 2, "isDrum": true}, {"time": 99, "velocity": 0, "pitch": 42, "instrument": 0, "track": 9, "qtime": 3, "bar": 2, "isDrum": true}, {"time": 99, "velocity": 0, "pitch": 54, "instrument": 0, "track": 9, "qtime": 3, "bar": 2, "isDrum": true}, {"time": 99, "velocity": 108, "pitch": 54, "instrument": 0, "track": 9, "qtime": 3, "bar": 2, "isDrum": true}, {"time": 102, "velocity": 0, "pitch": 54, "instrument": 0, "track": 9, "qtime": 6, "bar": 2, "isDrum": true}, {"time": 102, "velocity": 108, "pitch": 42, "instrument": 0, "track": 9, "qtime": 6, "bar": 2, "isDrum": true}, {"time": 102, "velocity": 108, "pitch": 54, "instrument": 0, "track": 9, "qtime": 6, "bar": 2, "isDrum": true}, {"time": 105, "velocity": 0, "pitch": 42, "instrument": 0, "track": 9, "qtime": 9, "bar": 2, "isDrum": true}, {"time": 105, "velocity": 0, "pitch": 54, "instrument": 0, "track": 9, "qtime": 9, "bar": 2, "isDrum": true}, {"time": 105, "velocity": 108, "pitch": 54, "instrument": 0, "track": 9, "qtime": 9, "bar": 2, "isDrum": true}, {"time": 108, "velocity": 0, "pitch": 54, "instrument": 0, "track": 9, "qtime": 12, "bar": 2, "isDrum": true}, {"time": 108, "velocity": 108, "pitch": 42, "instrument": 0, "track": 9, "qtime": 12, "bar": 2, "isDrum": true}, {"time": 108, "velocity": 108, "pitch": 54, "instrument": 0, "track": 9, "qtime": 12, "bar": 2, "isDrum": true}, {"time": 111, "velocity": 0, "pitch": 42, "instrument": 0, "track": 9, "qtime": 15, "bar": 2, "isDrum": true}, {"time": 111, "velocity": 0, "pitch": 54, "instrument": 0, "track": 9, "qtime": 15, "bar": 2, "isDrum": true}, {"time": 111, "velocity": 108, "pitch": 54, "instrument": 0, "track": 9, "qtime": 15, "bar": 2, "isDrum": true}, {"time": 114, "velocity": 0, "pitch": 54, "instrument": 0, "track": 9, "qtime": 18, "bar": 2, "isDrum": true}, {"time": 114, "velocity": 108, "pitch": 42, "instrument": 0, "track": 9, "qtime": 18, "bar": 2, "isDrum": true}, {"time": 114, "velocity": 108, "pitch": 54, "instrument": 0, "track": 9, "qtime": 18, "bar": 2, "isDrum": true}, {"time": 117, "velocity": 0, "pitch": 42, "instrument": 0, "track": 9, "qtime": 21, "bar": 2, "isDrum": true}, {"time": 117, "velocity": 0, "pitch": 54, "instrument": 0, "track": 9, "qtime": 21, "bar": 2, "isDrum": true}, {"time": 117, "velocity": 108, "pitch": 36, "instrument": 0, "track": 9, "qtime": 21, "bar": 2, "isDrum": true}, {"time": 117, "velocity": 108, "pitch": 54, "instrument": 0, "track": 9, "qtime": 21, "bar": 2, "isDrum": true}, {"time": 120, "velocity": 0, "pitch": 36, "instrument": 0, "track": 9, "qtime": 24, "bar": 2, "isDrum": true}, {"time": 120, "velocity": 0, "pitch": 54, "instrument": 0, "track": 9, "qtime": 24, "bar": 2, "isDrum": true}, {"time": 120, "velocity": 108, "pitch": 36, "instrument": 0, "track": 9, "qtime": 24, "bar": 2, "isDrum": true}, {"time": 120, "velocity": 108, "pitch": 42, "instrument": 0, "track": 9, "qtime": 24, "bar": 2, "isDrum": true}, {"time": 120, "velocity": 108, "pitch": 54, "instrument": 0, "track": 9, "qtime": 24, "bar": 2, "isDrum": true}, {"time": 123, "velocity": 0, "pitch": 36, "instrument": 0, "track": 9, "qtime": 27, "bar": 2, "isDrum": true}, {"time": 123, "velocity": 0, "pitch": 42, "instrument": 0, "track": 9, "qtime": 27, "bar": 2, "isDrum": true}, {"time": 123, "velocity": 0, "pitch": 54, "instrument": 0, "track": 9, "qtime": 27, "bar": 2, "isDrum": true}, {"time": 123, "velocity": 108, "pitch": 54, "instrument": 0, "track": 9, "qtime": 27, "bar": 2, "isDrum": true}, {"time": 126, "velocity": 0, "pitch": 54, "instrument": 0, "track": 9, "qtime": 30, "bar": 2, "isDrum": true}, {"time": 126, "velocity": 108, "pitch": 44, "instrument": 0, "track": 9, "qtime": 30, "bar": 2, "isDrum": true}, {"time": 126, "velocity": 108, "pitch": 54, "instrument": 0, "track": 9, "qtime": 30, "bar": 2, "isDrum": true}, {"time": 129, "velocity": 0, "pitch": 44, "instrument": 0, "track": 9, "qtime": 33, "bar": 2, "isDrum": true}, {"time": 129, "velocity": 0, "pitch": 54, "instrument": 0, "track": 9, "qtime": 33, "bar": 2, "isDrum": true}, {"time": 129, "velocity": 108, "pitch": 54, "instrument": 0, "track": 9, "qtime": 33, "bar": 2, "isDrum": true}, {"time": 132, "velocity": 0, "pitch": 54, "instrument": 0, "track": 9, "qtime": 36, "bar": 2, "isDrum": true}, {"time": 132, "velocity": 108, "pitch": 54, "instrument": 0, "track": 9, "qtime": 36, "bar": 2, "isDrum": true}, {"time": 135, "velocity": 0, "pitch": 54, "instrument": 0, "track": 9, "qtime": 39, "bar": 2, "isDrum": true}, {"time": 135, "velocity": 108, "pitch": 54, "instrument": 0, "track": 9, "qtime": 39, "bar": 2, "isDrum": true}, {"time": 138, "velocity": 0, "pitch": 54, "instrument": 0, "track": 9, "qtime": 42, "bar": 2, "isDrum": true}, {"time": 138, "velocity": 108, "pitch": 36, "instrument": 0, "track": 9, "qtime": 42, "bar": 2, "isDrum": true}, {"time": 138, "velocity": 108, "pitch": 42, "instrument": 0, "track": 9, "qtime": 42, "bar": 2, "isDrum": true}, {"time": 138, "velocity": 108, "pitch": 54, "instrument": 0, "track": 9, "qtime": 42, "bar": 2, "isDrum": true}, {"time": 141, "velocity": 0, "pitch": 36, "instrument": 0, "track": 9, "qtime": 45, "bar": 2, "isDrum": true}, {"time": 141, "velocity": 0, "pitch": 42, "instrument": 0, "track": 9, "qtime": 45, "bar": 2, "isDrum": true}, {"time": 141, "velocity": 0, "pitch": 54, "instrument": 0, "track": 9, "qtime": 45, "bar": 2, "isDrum": true}, {"time": 141, "velocity": 108, "pitch": 54, "instrument": 0, "track": 9, "qtime": 45, "bar": 2, "isDrum": true}, {"time": 144, "velocity": 0, "pitch": 54, "instrument": 0, "track": 9, "qtime": 48, "bar": 2, "isDrum": true}, {"time": 144, "velocity": 108, "pitch": 36, "instrument": 0, "track": 9, "qtime": 0, "bar": 3, "isDrum": true}, {"time": 144, "velocity": 108, "pitch": 42, "instrument": 0, "track": 9, "qtime": 0, "bar": 3, "isDrum": true}, {"time": 144, "velocity": 108, "pitch": 54, "instrument": 0, "track": 9, "qtime": 0, "bar": 3, "isDrum": true}, {"time": 147, "velocity": 0, "pitch": 36, "instrument": 0, "track": 9, "qtime": 3, "bar": 3, "isDrum": true}, {"time": 147, "velocity": 0, "pitch": 42, "instrument": 0, "track": 9, "qtime": 3, "bar": 3, "isDrum": true}, {"time": 147, "velocity": 0, "pitch": 54, "instrument": 0, "track": 9, "qtime": 3, "bar": 3, "isDrum": true}, {"time": 147, "velocity": 108, "pitch": 54, "instrument": 0, "track": 9, "qtime": 3, "bar": 3, "isDrum": true}, {"time": 150, "velocity": 0, "pitch": 54, "instrument": 0, "track": 9, "qtime": 6, "bar": 3, "isDrum": true}, {"time": 150, "velocity": 108, "pitch": 42, "instrument": 0, "track": 9, "qtime": 6, "bar": 3, "isDrum": true}, {"time": 150, "velocity": 108, "pitch": 54, "instrument": 0, "track": 9, "qtime": 6, "bar": 3, "isDrum": true}, {"time": 153, "velocity": 0, "pitch": 42, "instrument": 0, "track": 9, "qtime": 9, "bar": 3, "isDrum": true}, {"time": 153, "velocity": 0, "pitch": 54, "instrument": 0, "track": 9, "qtime": 9, "bar": 3, "isDrum": true}, {"time": 153, "velocity": 108, "pitch": 54, "instrument": 0, "track": 9, "qtime": 9, "bar": 3, "isDrum": true}, {"time": 156, "velocity": 0, "pitch": 54, "instrument": 0, "track": 9, "qtime": 12, "bar": 3, "isDrum": true}, {"time": 156, "velocity": 108, "pitch": 42, "instrument": 0, "track": 9, "qtime": 12, "bar": 3, "isDrum": true}, {"time": 156, "velocity": 108, "pitch": 54, "instrument": 0, "track": 9, "qtime": 12, "bar": 3, "isDrum": true}, {"time": 159, "velocity": 0, "pitch": 42, "instrument": 0, "track": 9, "qtime": 15, "bar": 3, "isDrum": true}, {"time": 159, "velocity": 0, "pitch": 54, "instrument": 0, "track": 9, "qtime": 15, "bar": 3, "isDrum": true}, {"time": 159, "velocity": 108, "pitch": 54, "instrument": 0, "track": 9, "qtime": 15, "bar": 3, "isDrum": true}, {"time": 162, "velocity": 0, "pitch": 54, "instrument": 0, "track": 9, "qtime": 18, "bar": 3, "isDrum": true}, {"time": 162, "velocity": 108, "pitch": 42, "instrument": 0, "track": 9, "qtime": 18, "bar": 3, "isDrum": true}, {"time": 162, "velocity": 108, "pitch": 54, "instrument": 0, "track": 9, "qtime": 18, "bar": 3, "isDrum": true}, {"time": 165, "velocity": 0, "pitch": 42, "instrument": 0, "track": 9, "qtime": 21, "bar": 3, "isDrum": true}, {"time": 165, "velocity": 0, "pitch": 54, "instrument": 0, "track": 9, "qtime": 21, "bar": 3, "isDrum": true}, {"time": 165, "velocity": 108, "pitch": 36, "instrument": 0, "track": 9, "qtime": 21, "bar": 3, "isDrum": true}, {"time": 165, "velocity": 108, "pitch": 54, "instrument": 0, "track": 9, "qtime": 21, "bar": 3, "isDrum": true}, {"time": 168, "velocity": 0, "pitch": 36, "instrument": 0, "track": 9, "qtime": 24, "bar": 3, "isDrum": true}, {"time": 168, "velocity": 0, "pitch": 54, "instrument": 0, "track": 9, "qtime": 24, "bar": 3, "isDrum": true}, {"time": 168, "velocity": 108, "pitch": 36, "instrument": 0, "track": 9, "qtime": 24, "bar": 3, "isDrum": true}, {"time": 168, "velocity": 108, "pitch": 42, "instrument": 0, "track": 9, "qtime": 24, "bar": 3, "isDrum": true}, {"time": 168, "velocity": 108, "pitch": 54, "instrument": 0, "track": 9, "qtime": 24, "bar": 3, "isDrum": true}, {"time": 171, "velocity": 0, "pitch": 36, "instrument": 0, "track": 9, "qtime": 27, "bar": 3, "isDrum": true}, {"time": 171, "velocity": 0, "pitch": 42, "instrument": 0, "track": 9, "qtime": 27, "bar": 3, "isDrum": true}, {"time": 171, "velocity": 0, "pitch": 54, "instrument": 0, "track": 9, "qtime": 27, "bar": 3, "isDrum": true}, {"time": 171, "velocity": 108, "pitch": 54, "instrument": 0, "track": 9, "qtime": 27, "bar": 3, "isDrum": true}, {"time": 174, "velocity": 0, "pitch": 54, "instrument": 0, "track": 9, "qtime": 30, "bar": 3, "isDrum": true}, {"time": 174, "velocity": 108, "pitch": 44, "instrument": 0, "track": 9, "qtime": 30, "bar": 3, "isDrum": true}, {"time": 174, "velocity": 108, "pitch": 54, "instrument": 0, "track": 9, "qtime": 30, "bar": 3, "isDrum": true}, {"time": 177, "velocity": 0, "pitch": 44, "instrument": 0, "track": 9, "qtime": 33, "bar": 3, "isDrum": true}, {"time": 177, "velocity": 0, "pitch": 54, "instrument": 0, "track": 9, "qtime": 33, "bar": 3, "isDrum": true}, {"time": 177, "velocity": 108, "pitch": 54, "instrument": 0, "track": 9, "qtime": 33, "bar": 3, "isDrum": true}, {"time": 180, "velocity": 0, "pitch": 54, "instrument": 0, "track": 9, "qtime": 36, "bar": 3, "isDrum": true}, {"time": 180, "velocity": 108, "pitch": 54, "instrument": 0, "track": 9, "qtime": 36, "bar": 3, "isDrum": true}, {"time": 183, "velocity": 0, "pitch": 54, "instrument": 0, "track": 9, "qtime": 39, "bar": 3, "isDrum": true}, {"time": 183, "velocity": 108, "pitch": 54, "instrument": 0, "track": 9, "qtime": 39, "bar": 3, "isDrum": true}, {"time": 186, "velocity": 0, "pitch": 54, "instrument": 0, "track": 9, "qtime": 42, "bar": 3, "isDrum": true}, {"time": 186, "velocity": 108, "pitch": 36, "instrument": 0, "track": 9, "qtime": 42, "bar": 3, "isDrum": true}, {"time": 186, "velocity": 108, "pitch": 42, "instrument": 0, "track": 9, "qtime": 42, "bar": 3, "isDrum": true}, {"time": 186, "velocity": 108, "pitch": 54, "instrument": 0, "track": 9, "qtime": 42, "bar": 3, "isDrum": true}, {"time": 189, "velocity": 0, "pitch": 36, "instrument": 0, "track": 9, "qtime": 45, "bar": 3, "isDrum": true}, {"time": 189, "velocity": 0, "pitch": 42, "instrument": 0, "track": 9, "qtime": 45, "bar": 3, "isDrum": true}, {"time": 189, "velocity": 0, "pitch": 54, "instrument": 0, "track": 9, "qtime": 45, "bar": 3, "isDrum": true}, {"time": 189, "velocity": 108, "pitch": 54, "instrument": 0, "track": 9, "qtime": 45, "bar": 3, "isDrum": true}, {"time": 192, "velocity": 0, "pitch": 54, "instrument": 0, "track": 9, "qtime": 48, "bar": 3, "isDrum": true}, {"time": 192, "velocity": 108, "pitch": 36, "instrument": 0, "track": 9, "qtime": 0, "bar": 4, "isDrum": true}, {"time": 192, "velocity": 108, "pitch": 42, "instrument": 0, "track": 9, "qtime": 0, "bar": 4, "isDrum": true}, {"time": 192, "velocity": 108, "pitch": 54, "instrument": 0, "track": 9, "qtime": 0, "bar": 4, "isDrum": true}, {"time": 195, "velocity": 0, "pitch": 36, "instrument": 0, "track": 9, "qtime": 3, "bar": 4, "isDrum": true}, {"time": 195, "velocity": 0, "pitch": 42, "instrument": 0, "track": 9, "qtime": 3, "bar": 4, "isDrum": true}, {"time": 195, "velocity": 0, "pitch": 54, "instrument": 0, "track": 9, "qtime": 3, "bar": 4, "isDrum": true}, {"time": 195, "velocity": 108, "pitch": 54, "instrument": 0, "track": 9, "qtime": 3, "bar": 4, "isDrum": true}, {"time": 198, "velocity": 0, "pitch": 54, "instrument": 0, "track": 9, "qtime": 6, "bar": 4, "isDrum": true}, {"time": 198, "velocity": 108, "pitch": 42, "instrument": 0, "track": 9, "qtime": 6, "bar": 4, "isDrum": true}, {"time": 198, "velocity": 108, "pitch": 54, "instrument": 0, "track": 9, "qtime": 6, "bar": 4, "isDrum": true}, {"time": 201, "velocity": 0, "pitch": 42, "instrument": 0, "track": 9, "qtime": 9, "bar": 4, "isDrum": true}, {"time": 201, "velocity": 0, "pitch": 54, "instrument": 0, "track": 9, "qtime": 9, "bar": 4, "isDrum": true}, {"time": 201, "velocity": 108, "pitch": 54, "instrument": 0, "track": 9, "qtime": 9, "bar": 4, "isDrum": true}, {"time": 204, "velocity": 0, "pitch": 54, "instrument": 0, "track": 9, "qtime": 12, "bar": 4, "isDrum": true}, {"time": 204, "velocity": 108, "pitch": 42, "instrument": 0, "track": 9, "qtime": 12, "bar": 4, "isDrum": true}, {"time": 204, "velocity": 108, "pitch": 54, "instrument": 0, "track": 9, "qtime": 12, "bar": 4, "isDrum": true}, {"time": 207, "velocity": 0, "pitch": 42, "instrument": 0, "track": 9, "qtime": 15, "bar": 4, "isDrum": true}, {"time": 207, "velocity": 0, "pitch": 54, "instrument": 0, "track": 9, "qtime": 15, "bar": 4, "isDrum": true}, {"time": 207, "velocity": 108, "pitch": 54, "instrument": 0, "track": 9, "qtime": 15, "bar": 4, "isDrum": true}, {"time": 210, "velocity": 0, "pitch": 54, "instrument": 0, "track": 9, "qtime": 18, "bar": 4, "isDrum": true}, {"time": 210, "velocity": 108, "pitch": 42, "instrument": 0, "track": 9, "qtime": 18, "bar": 4, "isDrum": true}, {"time": 210, "velocity": 108, "pitch": 54, "instrument": 0, "track": 9, "qtime": 18, "bar": 4, "isDrum": true}, {"time": 213, "velocity": 0, "pitch": 42, "instrument": 0, "track": 9, "qtime": 21, "bar": 4, "isDrum": true}, {"time": 213, "velocity": 0, "pitch": 54, "instrument": 0, "track": 9, "qtime": 21, "bar": 4, "isDrum": true}, {"time": 213, "velocity": 108, "pitch": 36, "instrument": 0, "track": 9, "qtime": 21, "bar": 4, "isDrum": true}, {"time": 213, "velocity": 108, "pitch": 54, "instrument": 0, "track": 9, "qtime": 21, "bar": 4, "isDrum": true}, {"time": 216, "velocity": 0, "pitch": 36, "instrument": 0, "track": 9, "qtime": 24, "bar": 4, "isDrum": true}, {"time": 216, "velocity": 0, "pitch": 54, "instrument": 0, "track": 9, "qtime": 24, "bar": 4, "isDrum": true}, {"time": 216, "velocity": 108, "pitch": 36, "instrument": 0, "track": 9, "qtime": 24, "bar": 4, "isDrum": true}, {"time": 216, "velocity": 108, "pitch": 42, "instrument": 0, "track": 9, "qtime": 24, "bar": 4, "isDrum": true}, {"time": 216, "velocity": 108, "pitch": 54, "instrument": 0, "track": 9, "qtime": 24, "bar": 4, "isDrum": true}, {"time": 219, "velocity": 0, "pitch": 36, "instrument": 0, "track": 9, "qtime": 27, "bar": 4, "isDrum": true}, {"time": 219, "velocity": 0, "pitch": 42, "instrument": 0, "track": 9, "qtime": 27, "bar": 4, "isDrum": true}, {"time": 219, "velocity": 0, "pitch": 54, "instrument": 0, "track": 9, "qtime": 27, "bar": 4, "isDrum": true}, {"time": 219, "velocity": 108, "pitch": 54, "instrument": 0, "track": 9, "qtime": 27, "bar": 4, "isDrum": true}, {"time": 222, "velocity": 0, "pitch": 54, "instrument": 0, "track": 9, "qtime": 30, "bar": 4, "isDrum": true}, {"time": 222, "velocity": 108, "pitch": 44, "instrument": 0, "track": 9, "qtime": 30, "bar": 4, "isDrum": true}, {"time": 222, "velocity": 108, "pitch": 54, "instrument": 0, "track": 9, "qtime": 30, "bar": 4, "isDrum": true}, {"time": 225, "velocity": 0, "pitch": 44, "instrument": 0, "track": 9, "qtime": 33, "bar": 4, "isDrum": true}, {"time": 225, "velocity": 0, "pitch": 54, "instrument": 0, "track": 9, "qtime": 33, "bar": 4, "isDrum": true}, {"time": 225, "velocity": 108, "pitch": 54, "instrument": 0, "track": 9, "qtime": 33, "bar": 4, "isDrum": true}, {"time": 228, "velocity": 0, "pitch": 54, "instrument": 0, "track": 9, "qtime": 36, "bar": 4, "isDrum": true}, {"time": 228, "velocity": 108, "pitch": 54, "instrument": 0, "track": 9, "qtime": 36, "bar": 4, "isDrum": true}, {"time": 231, "velocity": 0, "pitch": 54, "instrument": 0, "track": 9, "qtime": 39, "bar": 4, "isDrum": true}, {"time": 231, "velocity": 108, "pitch": 54, "instrument": 0, "track": 9, "qtime": 39, "bar": 4, "isDrum": true}, {"time": 234, "velocity": 0, "pitch": 54, "instrument": 0, "track": 9, "qtime": 42, "bar": 4, "isDrum": true}, {"time": 234, "velocity": 108, "pitch": 36, "instrument": 0, "track": 9, "qtime": 42, "bar": 4, "isDrum": true}, {"time": 234, "velocity": 108, "pitch": 42, "instrument": 0, "track": 9, "qtime": 42, "bar": 4, "isDrum": true}, {"time": 234, "velocity": 108, "pitch": 54, "instrument": 0, "track": 9, "qtime": 42, "bar": 4, "isDrum": true}, {"time": 237, "velocity": 0, "pitch": 36, "instrument": 0, "track": 9, "qtime": 45, "bar": 4, "isDrum": true}, {"time": 237, "velocity": 0, "pitch": 42, "instrument": 0, "track": 9, "qtime": 45, "bar": 4, "isDrum": true}, {"time": 237, "velocity": 0, "pitch": 54, "instrument": 0, "track": 9, "qtime": 45, "bar": 4, "isDrum": true}, {"time": 237, "velocity": 108, "pitch": 54, "instrument": 0, "track": 9, "qtime": 45, "bar": 4, "isDrum": true}, {"time": 240, "velocity": 0, "pitch": 54, "instrument": 0, "track": 9, "qtime": 48, "bar": 4, "isDrum": true}, {"time": 240, "velocity": 108, "pitch": 36, "instrument": 0, "track": 9, "qtime": 0, "bar": 5, "isDrum": true}, {"time": 240, "velocity": 108, "pitch": 42, "instrument": 0, "track": 9, "qtime": 0, "bar": 5, "isDrum": true}, {"time": 240, "velocity": 108, "pitch": 54, "instrument": 0, "track": 9, "qtime": 0, "bar": 5, "isDrum": true}, {"time": 243, "velocity": 0, "pitch": 36, "instrument": 0, "track": 9, "qtime": 3, "bar": 5, "isDrum": true}, {"time": 243, "velocity": 0, "pitch": 42, "instrument": 0, "track": 9, "qtime": 3, "bar": 5, "isDrum": true}, {"time": 243, "velocity": 0, "pitch": 54, "instrument": 0, "track": 9, "qtime": 3, "bar": 5, "isDrum": true}, {"time": 243, "velocity": 108, "pitch": 54, "instrument": 0, "track": 9, "qtime": 3, "bar": 5, "isDrum": true}, {"time": 246, "velocity": 0, "pitch": 54, "instrument": 0, "track": 9, "qtime": 6, "bar": 5, "isDrum": true}, {"time": 246, "velocity": 108, "pitch": 42, "instrument": 0, "track": 9, "qtime": 6, "bar": 5, "isDrum": true}, {"time": 246, "velocity": 108, "pitch": 54, "instrument": 0, "track": 9, "qtime": 6, "bar": 5, "isDrum": true}, {"time": 249, "velocity": 0, "pitch": 42, "instrument": 0, "track": 9, "qtime": 9, "bar": 5, "isDrum": true}, {"time": 249, "velocity": 0, "pitch": 54, "instrument": 0, "track": 9, "qtime": 9, "bar": 5, "isDrum": true}, {"time": 249, "velocity": 108, "pitch": 54, "instrument": 0, "track": 9, "qtime": 9, "bar": 5, "isDrum": true}, {"time": 252, "velocity": 0, "pitch": 54, "instrument": 0, "track": 9, "qtime": 12, "bar": 5, "isDrum": true}, {"time": 252, "velocity": 108, "pitch": 42, "instrument": 0, "track": 9, "qtime": 12, "bar": 5, "isDrum": true}, {"time": 252, "velocity": 108, "pitch": 54, "instrument": 0, "track": 9, "qtime": 12, "bar": 5, "isDrum": true}, {"time": 255, "velocity": 0, "pitch": 42, "instrument": 0, "track": 9, "qtime": 15, "bar": 5, "isDrum": true}, {"time": 255, "velocity": 0, "pitch": 54, "instrument": 0, "track": 9, "qtime": 15, "bar": 5, "isDrum": true}, {"time": 255, "velocity": 108, "pitch": 54, "instrument": 0, "track": 9, "qtime": 15, "bar": 5, "isDrum": true}, {"time": 258, "velocity": 0, "pitch": 54, "instrument": 0, "track": 9, "qtime": 18, "bar": 5, "isDrum": true}, {"time": 258, "velocity": 108, "pitch": 42, "instrument": 0, "track": 9, "qtime": 18, "bar": 5, "isDrum": true}, {"time": 258, "velocity": 108, "pitch": 54, "instrument": 0, "track": 9, "qtime": 18, "bar": 5, "isDrum": true}, {"time": 261, "velocity": 0, "pitch": 42, "instrument": 0, "track": 9, "qtime": 21, "bar": 5, "isDrum": true}, {"time": 261, "velocity": 0, "pitch": 54, "instrument": 0, "track": 9, "qtime": 21, "bar": 5, "isDrum": true}, {"time": 261, "velocity": 108, "pitch": 36, "instrument": 0, "track": 9, "qtime": 21, "bar": 5, "isDrum": true}, {"time": 261, "velocity": 108, "pitch": 54, "instrument": 0, "track": 9, "qtime": 21, "bar": 5, "isDrum": true}, {"time": 264, "velocity": 0, "pitch": 36, "instrument": 0, "track": 9, "qtime": 24, "bar": 5, "isDrum": true}, {"time": 264, "velocity": 0, "pitch": 54, "instrument": 0, "track": 9, "qtime": 24, "bar": 5, "isDrum": true}, {"time": 264, "velocity": 108, "pitch": 36, "instrument": 0, "track": 9, "qtime": 24, "bar": 5, "isDrum": true}, {"time": 264, "velocity": 108, "pitch": 42, "instrument": 0, "track": 9, "qtime": 24, "bar": 5, "isDrum": true}, {"time": 264, "velocity": 108, "pitch": 54, "instrument": 0, "track": 9, "qtime": 24, "bar": 5, "isDrum": true}, {"time": 267, "velocity": 0, "pitch": 36, "instrument": 0, "track": 9, "qtime": 27, "bar": 5, "isDrum": true}, {"time": 267, "velocity": 0, "pitch": 42, "instrument": 0, "track": 9, "qtime": 27, "bar": 5, "isDrum": true}, {"time": 267, "velocity": 0, "pitch": 54, "instrument": 0, "track": 9, "qtime": 27, "bar": 5, "isDrum": true}, {"time": 267, "velocity": 108, "pitch": 54, "instrument": 0, "track": 9, "qtime": 27, "bar": 5, "isDrum": true}, {"time": 270, "velocity": 0, "pitch": 54, "instrument": 0, "track": 9, "qtime": 30, "bar": 5, "isDrum": true}, {"time": 270, "velocity": 108, "pitch": 44, "instrument": 0, "track": 9, "qtime": 30, "bar": 5, "isDrum": true}, {"time": 270, "velocity": 108, "pitch": 54, "instrument": 0, "track": 9, "qtime": 30, "bar": 5, "isDrum": true}, {"time": 273, "velocity": 0, "pitch": 44, "instrument": 0, "track": 9, "qtime": 33, "bar": 5, "isDrum": true}, {"time": 273, "velocity": 0, "pitch": 54, "instrument": 0, "track": 9, "qtime": 33, "bar": 5, "isDrum": true}, {"time": 273, "velocity": 108, "pitch": 54, "instrument": 0, "track": 9, "qtime": 33, "bar": 5, "isDrum": true}, {"time": 276, "velocity": 0, "pitch": 54, "instrument": 0, "track": 9, "qtime": 36, "bar": 5, "isDrum": true}, {"time": 276, "velocity": 108, "pitch": 54, "instrument": 0, "track": 9, "qtime": 36, "bar": 5, "isDrum": true}, {"time": 279, "velocity": 0, "pitch": 54, "instrument": 0, "track": 9, "qtime": 39, "bar": 5, "isDrum": true}, {"time": 279, "velocity": 108, "pitch": 54, "instrument": 0, "track": 9, "qtime": 39, "bar": 5, "isDrum": true}, {"time": 282, "velocity": 0, "pitch": 54, "instrument": 0, "track": 9, "qtime": 42, "bar": 5, "isDrum": true}, {"time": 282, "velocity": 108, "pitch": 36, "instrument": 0, "track": 9, "qtime": 42, "bar": 5, "isDrum": true}, {"time": 282, "velocity": 108, "pitch": 42, "instrument": 0, "track": 9, "qtime": 42, "bar": 5, "isDrum": true}, {"time": 282, "velocity": 108, "pitch": 54, "instrument": 0, "track": 9, "qtime": 42, "bar": 5, "isDrum": true}, {"time": 285, "velocity": 0, "pitch": 36, "instrument": 0, "track": 9, "qtime": 45, "bar": 5, "isDrum": true}, {"time": 285, "velocity": 0, "pitch": 42, "instrument": 0, "track": 9, "qtime": 45, "bar": 5, "isDrum": true}, {"time": 285, "velocity": 0, "pitch": 54, "instrument": 0, "track": 9, "qtime": 45, "bar": 5, "isDrum": true}, {"time": 285, "velocity": 108, "pitch": 54, "instrument": 0, "track": 9, "qtime": 45, "bar": 5, "isDrum": true}, {"time": 288, "velocity": 0, "pitch": 54, "instrument": 0, "track": 9, "qtime": 48, "bar": 5, "isDrum": true}, {"time": 288, "velocity": 108, "pitch": 36, "instrument": 0, "track": 9, "qtime": 0, "bar": 6, "isDrum": true}, {"time": 288, "velocity": 108, "pitch": 42, "instrument": 0, "track": 9, "qtime": 0, "bar": 6, "isDrum": true}, {"time": 288, "velocity": 108, "pitch": 54, "instrument": 0, "track": 9, "qtime": 0, "bar": 6, "isDrum": true}, {"time": 291, "velocity": 0, "pitch": 36, "instrument": 0, "track": 9, "qtime": 3, "bar": 6, "isDrum": true}, {"time": 291, "velocity": 0, "pitch": 42, "instrument": 0, "track": 9, "qtime": 3, "bar": 6, "isDrum": true}, {"time": 291, "velocity": 0, "pitch": 54, "instrument": 0, "track": 9, "qtime": 3, "bar": 6, "isDrum": true}, {"time": 291, "velocity": 108, "pitch": 54, "instrument": 0, "track": 9, "qtime": 3, "bar": 6, "isDrum": true}, {"time": 294, "velocity": 0, "pitch": 54, "instrument": 0, "track": 9, "qtime": 6, "bar": 6, "isDrum": true}, {"time": 294, "velocity": 108, "pitch": 42, "instrument": 0, "track": 9, "qtime": 6, "bar": 6, "isDrum": true}, {"time": 294, "velocity": 108, "pitch": 54, "instrument": 0, "track": 9, "qtime": 6, "bar": 6, "isDrum": true}, {"time": 297, "velocity": 0, "pitch": 42, "instrument": 0, "track": 9, "qtime": 9, "bar": 6, "isDrum": true}, {"time": 297, "velocity": 0, "pitch": 54, "instrument": 0, "track": 9, "qtime": 9, "bar": 6, "isDrum": true}, {"time": 297, "velocity": 108, "pitch": 54, "instrument": 0, "track": 9, "qtime": 9, "bar": 6, "isDrum": true}, {"time": 300, "velocity": 0, "pitch": 54, "instrument": 0, "track": 9, "qtime": 12, "bar": 6, "isDrum": true}, {"time": 300, "velocity": 108, "pitch": 42, "instrument": 0, "track": 9, "qtime": 12, "bar": 6, "isDrum": true}, {"time": 300, "velocity": 108, "pitch": 54, "instrument": 0, "track": 9, "qtime": 12, "bar": 6, "isDrum": true}, {"time": 303, "velocity": 0, "pitch": 42, "instrument": 0, "track": 9, "qtime": 15, "bar": 6, "isDrum": true}, {"time": 303, "velocity": 0, "pitch": 54, "instrument": 0, "track": 9, "qtime": 15, "bar": 6, "isDrum": true}, {"time": 303, "velocity": 108, "pitch": 54, "instrument": 0, "track": 9, "qtime": 15, "bar": 6, "isDrum": true}, {"time": 306, "velocity": 0, "pitch": 54, "instrument": 0, "track": 9, "qtime": 18, "bar": 6, "isDrum": true}, {"time": 306, "velocity": 108, "pitch": 42, "instrument": 0, "track": 9, "qtime": 18, "bar": 6, "isDrum": true}, {"time": 306, "velocity": 108, "pitch": 54, "instrument": 0, "track": 9, "qtime": 18, "bar": 6, "isDrum": true}, {"time": 309, "velocity": 0, "pitch": 42, "instrument": 0, "track": 9, "qtime": 21, "bar": 6, "isDrum": true}, {"time": 309, "velocity": 0, "pitch": 54, "instrument": 0, "track": 9, "qtime": 21, "bar": 6, "isDrum": true}, {"time": 309, "velocity": 108, "pitch": 36, "instrument": 0, "track": 9, "qtime": 21, "bar": 6, "isDrum": true}, {"time": 309, "velocity": 108, "pitch": 54, "instrument": 0, "track": 9, "qtime": 21, "bar": 6, "isDrum": true}, {"time": 312, "velocity": 0, "pitch": 36, "instrument": 0, "track": 9, "qtime": 24, "bar": 6, "isDrum": true}, {"time": 312, "velocity": 0, "pitch": 54, "instrument": 0, "track": 9, "qtime": 24, "bar": 6, "isDrum": true}, {"time": 312, "velocity": 108, "pitch": 36, "instrument": 0, "track": 9, "qtime": 24, "bar": 6, "isDrum": true}, {"time": 312, "velocity": 108, "pitch": 42, "instrument": 0, "track": 9, "qtime": 24, "bar": 6, "isDrum": true}, {"time": 312, "velocity": 108, "pitch": 54, "instrument": 0, "track": 9, "qtime": 24, "bar": 6, "isDrum": true}, {"time": 315, "velocity": 0, "pitch": 36, "instrument": 0, "track": 9, "qtime": 27, "bar": 6, "isDrum": true}, {"time": 315, "velocity": 0, "pitch": 42, "instrument": 0, "track": 9, "qtime": 27, "bar": 6, "isDrum": true}, {"time": 315, "velocity": 0, "pitch": 54, "instrument": 0, "track": 9, "qtime": 27, "bar": 6, "isDrum": true}, {"time": 315, "velocity": 108, "pitch": 54, "instrument": 0, "track": 9, "qtime": 27, "bar": 6, "isDrum": true}, {"time": 318, "velocity": 0, "pitch": 54, "instrument": 0, "track": 9, "qtime": 30, "bar": 6, "isDrum": true}, {"time": 318, "velocity": 108, "pitch": 44, "instrument": 0, "track": 9, "qtime": 30, "bar": 6, "isDrum": true}, {"time": 318, "velocity": 108, "pitch": 54, "instrument": 0, "track": 9, "qtime": 30, "bar": 6, "isDrum": true}, {"time": 321, "velocity": 0, "pitch": 44, "instrument": 0, "track": 9, "qtime": 33, "bar": 6, "isDrum": true}, {"time": 321, "velocity": 0, "pitch": 54, "instrument": 0, "track": 9, "qtime": 33, "bar": 6, "isDrum": true}, {"time": 321, "velocity": 108, "pitch": 54, "instrument": 0, "track": 9, "qtime": 33, "bar": 6, "isDrum": true}, {"time": 324, "velocity": 0, "pitch": 54, "instrument": 0, "track": 9, "qtime": 36, "bar": 6, "isDrum": true}, {"time": 324, "velocity": 108, "pitch": 54, "instrument": 0, "track": 9, "qtime": 36, "bar": 6, "isDrum": true}, {"time": 327, "velocity": 0, "pitch": 54, "instrument": 0, "track": 9, "qtime": 39, "bar": 6, "isDrum": true}, {"time": 327, "velocity": 108, "pitch": 54, "instrument": 0, "track": 9, "qtime": 39, "bar": 6, "isDrum": true}, {"time": 330, "velocity": 0, "pitch": 54, "instrument": 0, "track": 9, "qtime": 42, "bar": 6, "isDrum": true}, {"time": 330, "velocity": 108, "pitch": 36, "instrument": 0, "track": 9, "qtime": 42, "bar": 6, "isDrum": true}, {"time": 330, "velocity": 108, "pitch": 42, "instrument": 0, "track": 9, "qtime": 42, "bar": 6, "isDrum": true}, {"time": 330, "velocity": 108, "pitch": 54, "instrument": 0, "track": 9, "qtime": 42, "bar": 6, "isDrum": true}, {"time": 333, "velocity": 0, "pitch": 36, "instrument": 0, "track": 9, "qtime": 45, "bar": 6, "isDrum": true}, {"time": 333, "velocity": 0, "pitch": 42, "instrument": 0, "track": 9, "qtime": 45, "bar": 6, "isDrum": true}, {"time": 333, "velocity": 0, "pitch": 54, "instrument": 0, "track": 9, "qtime": 45, "bar": 6, "isDrum": true}, {"time": 333, "velocity": 108, "pitch": 54, "instrument": 0, "track": 9, "qtime": 45, "bar": 6, "isDrum": true}, {"time": 336, "velocity": 0, "pitch": 54, "instrument": 0, "track": 9, "qtime": 48, "bar": 6, "isDrum": true}, {"time": 336, "velocity": 108, "pitch": 36, "instrument": 0, "track": 9, "qtime": 0, "bar": 7, "isDrum": true}, {"time": 336, "velocity": 108, "pitch": 42, "instrument": 0, "track": 9, "qtime": 0, "bar": 7, "isDrum": true}, {"time": 336, "velocity": 108, "pitch": 54, "instrument": 0, "track": 9, "qtime": 0, "bar": 7, "isDrum": true}, {"time": 339, "velocity": 0, "pitch": 36, "instrument": 0, "track": 9, "qtime": 3, "bar": 7, "isDrum": true}, {"time": 339, "velocity": 0, "pitch": 42, "instrument": 0, "track": 9, "qtime": 3, "bar": 7, "isDrum": true}, {"time": 339, "velocity": 0, "pitch": 54, "instrument": 0, "track": 9, "qtime": 3, "bar": 7, "isDrum": true}, {"time": 339, "velocity": 108, "pitch": 54, "instrument": 0, "track": 9, "qtime": 3, "bar": 7, "isDrum": true}, {"time": 342, "velocity": 0, "pitch": 54, "instrument": 0, "track": 9, "qtime": 6, "bar": 7, "isDrum": true}, {"time": 342, "velocity": 108, "pitch": 42, "instrument": 0, "track": 9, "qtime": 6, "bar": 7, "isDrum": true}, {"time": 342, "velocity": 108, "pitch": 54, "instrument": 0, "track": 9, "qtime": 6, "bar": 7, "isDrum": true}, {"time": 345, "velocity": 0, "pitch": 42, "instrument": 0, "track": 9, "qtime": 9, "bar": 7, "isDrum": true}, {"time": 345, "velocity": 0, "pitch": 54, "instrument": 0, "track": 9, "qtime": 9, "bar": 7, "isDrum": true}, {"time": 345, "velocity": 108, "pitch": 54, "instrument": 0, "track": 9, "qtime": 9, "bar": 7, "isDrum": true}, {"time": 348, "velocity": 0, "pitch": 54, "instrument": 0, "track": 9, "qtime": 12, "bar": 7, "isDrum": true}, {"time": 348, "velocity": 108, "pitch": 42, "instrument": 0, "track": 9, "qtime": 12, "bar": 7, "isDrum": true}, {"time": 348, "velocity": 108, "pitch": 54, "instrument": 0, "track": 9, "qtime": 12, "bar": 7, "isDrum": true}, {"time": 351, "velocity": 0, "pitch": 42, "instrument": 0, "track": 9, "qtime": 15, "bar": 7, "isDrum": true}, {"time": 351, "velocity": 0, "pitch": 54, "instrument": 0, "track": 9, "qtime": 15, "bar": 7, "isDrum": true}, {"time": 351, "velocity": 108, "pitch": 54, "instrument": 0, "track": 9, "qtime": 15, "bar": 7, "isDrum": true}, {"time": 354, "velocity": 0, "pitch": 54, "instrument": 0, "track": 9, "qtime": 18, "bar": 7, "isDrum": true}, {"time": 354, "velocity": 108, "pitch": 42, "instrument": 0, "track": 9, "qtime": 18, "bar": 7, "isDrum": true}, {"time": 354, "velocity": 108, "pitch": 54, "instrument": 0, "track": 9, "qtime": 18, "bar": 7, "isDrum": true}, {"time": 357, "velocity": 0, "pitch": 42, "instrument": 0, "track": 9, "qtime": 21, "bar": 7, "isDrum": true}, {"time": 357, "velocity": 0, "pitch": 54, "instrument": 0, "track": 9, "qtime": 21, "bar": 7, "isDrum": true}, {"time": 357, "velocity": 108, "pitch": 36, "instrument": 0, "track": 9, "qtime": 21, "bar": 7, "isDrum": true}, {"time": 357, "velocity": 108, "pitch": 54, "instrument": 0, "track": 9, "qtime": 21, "bar": 7, "isDrum": true}, {"time": 360, "velocity": 0, "pitch": 36, "instrument": 0, "track": 9, "qtime": 24, "bar": 7, "isDrum": true}, {"time": 360, "velocity": 0, "pitch": 54, "instrument": 0, "track": 9, "qtime": 24, "bar": 7, "isDrum": true}, {"time": 360, "velocity": 108, "pitch": 36, "instrument": 0, "track": 9, "qtime": 24, "bar": 7, "isDrum": true}, {"time": 360, "velocity": 108, "pitch": 42, "instrument": 0, "track": 9, "qtime": 24, "bar": 7, "isDrum": true}, {"time": 360, "velocity": 108, "pitch": 54, "instrument": 0, "track": 9, "qtime": 24, "bar": 7, "isDrum": true}, {"time": 363, "velocity": 0, "pitch": 36, "instrument": 0, "track": 9, "qtime": 27, "bar": 7, "isDrum": true}, {"time": 363, "velocity": 0, "pitch": 42, "instrument": 0, "track": 9, "qtime": 27, "bar": 7, "isDrum": true}, {"time": 363, "velocity": 0, "pitch": 54, "instrument": 0, "track": 9, "qtime": 27, "bar": 7, "isDrum": true}, {"time": 363, "velocity": 108, "pitch": 54, "instrument": 0, "track": 9, "qtime": 27, "bar": 7, "isDrum": true}, {"time": 366, "velocity": 0, "pitch": 54, "instrument": 0, "track": 9, "qtime": 30, "bar": 7, "isDrum": true}, {"time": 366, "velocity": 108, "pitch": 44, "instrument": 0, "track": 9, "qtime": 30, "bar": 7, "isDrum": true}, {"time": 366, "velocity": 108, "pitch": 54, "instrument": 0, "track": 9, "qtime": 30, "bar": 7, "isDrum": true}, {"time": 369, "velocity": 0, "pitch": 44, "instrument": 0, "track": 9, "qtime": 33, "bar": 7, "isDrum": true}, {"time": 369, "velocity": 0, "pitch": 54, "instrument": 0, "track": 9, "qtime": 33, "bar": 7, "isDrum": true}, {"time": 369, "velocity": 108, "pitch": 54, "instrument": 0, "track": 9, "qtime": 33, "bar": 7, "isDrum": true}, {"time": 372, "velocity": 0, "pitch": 54, "instrument": 0, "track": 9, "qtime": 36, "bar": 7, "isDrum": true}, {"time": 372, "velocity": 108, "pitch": 54, "instrument": 0, "track": 9, "qtime": 36, "bar": 7, "isDrum": true}, {"time": 375, "velocity": 0, "pitch": 54, "instrument": 0, "track": 9, "qtime": 39, "bar": 7, "isDrum": true}, {"time": 375, "velocity": 108, "pitch": 54, "instrument": 0, "track": 9, "qtime": 39, "bar": 7, "isDrum": true}, {"time": 378, "velocity": 0, "pitch": 54, "instrument": 0, "track": 9, "qtime": 42, "bar": 7, "isDrum": true}, {"time": 378, "velocity": 108, "pitch": 36, "instrument": 0, "track": 9, "qtime": 42, "bar": 7, "isDrum": true}, {"time": 378, "velocity": 108, "pitch": 42, "instrument": 0, "track": 9, "qtime": 42, "bar": 7, "isDrum": true}, {"time": 378, "velocity": 108, "pitch": 54, "instrument": 0, "track": 9, "qtime": 42, "bar": 7, "isDrum": true}, {"time": 381, "velocity": 0, "pitch": 36, "instrument": 0, "track": 9, "qtime": 45, "bar": 7, "isDrum": true}, {"time": 381, "velocity": 0, "pitch": 42, "instrument": 0, "track": 9, "qtime": 45, "bar": 7, "isDrum": true}, {"time": 381, "velocity": 0, "pitch": 54, "instrument": 0, "track": 9, "qtime": 45, "bar": 7, "isDrum": true}, {"time": 381, "velocity": 108, "pitch": 54, "instrument": 0, "track": 9, "qtime": 45, "bar": 7, "isDrum": true}, {"time": 384, "velocity": 0, "pitch": 54, "instrument": 0, "track": 9, "qtime": 48, "bar": 7, "isDrum": true}], "resolution": 12, "tempo": 48, "minPitch": 34, "maxPitch": 92, "validSegments": [0], "validTracks": [15], "segmentLength": 8}, "audio": "https://www.sfu.ca/~jeffe/examples/8b_gibbs_24_orig.mp3"}, {"src": "gen/8b_gibbs_24_gen.json", "highlights": [[], [0, 1, 2, 3, 4, 5, 6, 7], [], [0, 1, 2, 3, 4, 5, 6, 7], [], [], [], []], "caption": "We resample two tracks from 14a", "mixer": [8, 8, 8, 8, 8, 8, 8, 8], "sample_id": "14b", "json": {"tracks": [{"bars": [{"events": [0, 1, 2, 3, 4, 5], "isFourFour": true, "hasNotes": true, "time": 0}, {"events": [6, 7, 8, 9, 10, 11], "isFourFour": true, "hasNotes": true, "time": 48}, {"events": [12, 13, 14, 15, 16, 17], "isFourFour": true, "hasNotes": true, "time": 96}, {"events": [18, 19, 20, 21, 22, 23], "isFourFour": true, "hasNotes": true, "time": 144}, {"events": [24, 25, 26, 27, 28, 29], "isFourFour": true, "hasNotes": true, "time": 192}, {"events": [30, 31, 32, 33, 34, 35], "isFourFour": true, "hasNotes": true, "time": 240}, {"events": [36, 37, 38, 39, 40, 41], "isFourFour": true, "hasNotes": true, "time": 288}, {"events": [42, 43, 44, 45, 46, 47, 48, 49, 50, 51, 52, 53, 54, 55, 56, 57, 58, 59, 60, 61], "isFourFour": true, "hasNotes": true, "time": 336}], "isDrum": false, "minPitch": 37, "maxPitch": 68, "instrument": 1, "avPolyphony": 3, "noteDensity": 8, "noteDensityV2": 1}, {"bars": [{"events": [817, 818, 819, 820, 821, 822, 823, 824, 825, 826, 827], "isFourFour": true, "hasNotes": true, "time": 0}, {"events": [828, 829, 830, 831, 832, 833], "isFourFour": true, "hasNotes": true, "time": 48}, {"events": [834, 835, 836, 837, 838, 839, 840, 841], "isFourFour": true, "hasNotes": true, "time": 96}, {"events": [842, 843, 844, 845, 846, 847, 848, 849, 850], "isFourFour": true, "hasNotes": true, "time": 144}, {"events": [851, 852, 853, 854, 855, 856, 857, 858, 859, 860, 861, 862], "isFourFour": true, "hasNotes": true, "time": 192}, {"events": [863, 864, 865, 866, 867, 868, 869, 870], "isFourFour": true, "hasNotes": true, "time": 240}, {"events": [871, 872, 873, 874, 875], "isFourFour": true, "hasNotes": true, "time": 288}, {"events": [876, 877, 878, 879, 880, 881, 882, 883, 884], "isFourFour": true, "hasNotes": true, "time": 336}], "isDrum": false, "minPitch": 51, "maxPitch": 65, "instrument": 24, "avPolyphony": 1, "noteDensity": 9, "noteDensityV2": 1}, {"bars": [{"events": [62, 63, 64, 65, 66, 67, 68, 69, 70, 71, 72, 73, 74, 75, 76, 77, 78, 79, 80, 81, 82, 83, 84, 85, 86, 87, 88, 89, 90, 91], "isFourFour": true, "hasNotes": true, "time": 0}, {"events": [92, 93, 94, 95, 96, 97, 98, 99, 100, 101, 102, 103, 104, 105, 106, 107, 108, 109, 110, 111, 112, 113, 114, 115, 116, 117, 118, 119, 120, 121, 122, 123, 124, 125, 126, 127], "isFourFour": true, "hasNotes": true, "time": 48}, {"events": [128, 129, 130, 131, 132, 133, 134, 135, 136, 137, 138, 139, 140, 141, 142, 143, 144, 145, 146, 147, 148, 149, 150, 151, 152, 153, 154, 155, 156, 157], "isFourFour": true, "hasNotes": true, "time": 96}, {"events": [158, 159, 160, 161, 162, 163, 164, 165, 166, 167, 168, 169, 170, 171, 172, 173, 174, 175, 176, 177, 178, 179, 180, 181, 182, 183, 184, 185, 186, 187, 188, 189, 190, 191, 192, 193], "isFourFour": true, "hasNotes": true, "time": 144}, {"events": [194, 195, 196, 197, 198, 199, 200, 201, 202, 203, 204, 205, 206, 207, 208, 209, 210, 211, 212, 213, 214, 215, 216, 217, 218, 219, 220, 221, 222, 223, 224, 225, 226, 227, 228, 229], "isFourFour": true, "hasNotes": true, "time": 192}, {"events": [230, 231, 232, 233, 234, 235, 236, 237, 238, 239, 240, 241, 242, 243, 244, 245, 246, 247, 248, 249, 250, 251, 252, 253, 254, 255, 256, 257, 258, 259, 260, 261, 262, 263, 264, 265], "isFourFour": true, "hasNotes": true, "time": 240}, {"events": [266, 267, 268, 269, 270, 271, 272, 273, 274, 275, 276, 277, 278, 279, 280, 281, 282, 283, 284, 285, 286, 287, 288, 289, 290, 291, 292, 293, 294, 295, 296, 297, 298, 299, 300, 301], "isFourFour": true, "hasNotes": true, "time": 288}, {"events": [302, 303, 304, 305, 306, 307, 308, 309, 310, 311, 312, 313, 314, 315, 316, 317, 318, 319, 320, 321, 322, 323, 324, 325, 326, 327, 328, 329, 330, 331, 332, 333, 334, 335, 336, 337], "isFourFour": true, "hasNotes": true, "time": 336}], "isDrum": false, "minPitch": 58, "maxPitch": 70, "instrument": 25, "avPolyphony": 2.9762845, "noteDensity": 9, "noteDensityV2": 7}, {"bars": [{"events": [338, 339, 340, 341, 342, 343, 344, 345, 346, 347, 348, 349, 350, 351, 352, 353, 354, 355, 356, 357, 358, 359, 360, 361, 362, 363, 364, 365, 366, 367, 368, 369, 370, 371, 372, 373, 374, 375, 376, 377, 378, 379, 380, 381, 382, 383, 384, 385, 386, 387, 388, 389, 390, 391, 392, 393], "isFourFour": true, "hasNotes": true, "time": 0}, {"events": [394, 395, 396, 397, 398, 399, 400, 401, 402, 403, 404, 405, 406, 407, 408, 409, 410, 411, 412, 413, 414, 415, 416, 417, 418, 419, 420, 421, 422, 423, 424, 425, 426, 427, 428, 429, 430, 431, 432, 433, 434, 435, 436, 437, 438, 439, 440, 441, 442, 443, 444, 445, 446, 447, 448, 449, 450, 451], "isFourFour": true, "hasNotes": true, "time": 48}, {"events": [452, 453, 454, 455, 456, 457, 458, 459, 460, 461, 462, 463, 464, 465, 466, 467, 468, 469, 470, 471, 472, 473, 474, 475, 476, 477, 478, 479, 480, 481, 482, 483, 484, 485, 486, 487, 488, 489, 490, 491, 492, 493, 494, 495, 496, 497, 498, 499, 500, 501, 502, 503, 504, 505, 506, 507, 508, 509, 510, 511, 512, 513, 514, 515, 516], "isFourFour": true, "hasNotes": true, "time": 96}, {"events": [517, 518, 519, 520, 521, 522, 523, 524, 525, 526, 527, 528, 529, 530, 531, 532, 533, 534, 535, 536, 537, 538, 539, 540, 541, 542, 543, 544, 545, 546, 547, 548, 549, 550, 551, 552, 553, 554, 555, 556, 557, 558, 559, 560, 561, 562, 563, 564, 565, 566, 567, 568, 569, 570, 571, 572, 573, 574, 575, 576], "isFourFour": true, "hasNotes": true, "time": 144}, {"events": [577, 578, 579, 580, 581, 582, 583, 584, 585, 586, 587, 588, 589, 590, 591, 592, 593, 594, 595, 596, 597, 598, 599, 600, 601, 602, 603, 604, 605, 606, 607, 608, 609, 610, 611, 612, 613, 614, 615, 616, 617, 618, 619, 620, 621, 622, 623, 624, 625, 626, 627, 628, 629, 630, 631, 632, 633, 634, 635, 636], "isFourFour": true, "hasNotes": true, "time": 192}, {"events": [637, 638, 639, 640, 641, 642, 643, 644, 645, 646, 647, 648, 649, 650, 651, 652, 653, 654, 655, 656, 657, 658, 659, 660, 661, 662, 663, 664, 665, 666, 667, 668, 669, 670, 671, 672, 673, 674, 675, 676, 677, 678, 679, 680, 681, 682, 683, 684, 685, 686, 687, 688, 689, 690, 691, 692, 693, 694, 695, 696], "isFourFour": true, "hasNotes": true, "time": 240}, {"events": [697, 698, 699, 700, 701, 702, 703, 704, 705, 706, 707, 708, 709, 710, 711, 712, 713, 714, 715, 716, 717, 718, 719, 720, 721, 722, 723, 724, 725, 726, 727, 728, 729, 730, 731, 732, 733, 734, 735, 736, 737, 738, 739, 740, 741, 742, 743, 744, 745, 746, 747, 748, 749, 750, 751, 752, 753, 754, 755, 756], "isFourFour": true, "hasNotes": true, "time": 288}, {"events": [757, 758, 759, 760, 761, 762, 763, 764, 765, 766, 767, 768, 769, 770, 771, 772, 773, 774, 775, 776, 777, 778, 779, 780, 781, 782, 783, 784, 785, 786, 787, 788, 789, 790, 791, 792, 793, 794, 795, 796, 797, 798, 799, 800, 801, 802, 803, 804, 805, 806, 807, 808, 809, 810, 811, 812, 813, 814, 815, 816], "isFourFour": true, "hasNotes": true, "time": 336}], "isDrum": true, "minPitch": 36, "maxPitch": 70, "instrument": 0, "avPolyphony": 1.79467678, "noteDensity": 9, "noteDensityV2": 9}], "events": [{"time": 0, "velocity": 108, "pitch": 46, "instrument": 1, "track": 0, "qtime": 0, "isDrum": false}, {"time": 0, "velocity": 108, "pitch": 61, "instrument": 1, "track": 0, "qtime": 0, "isDrum": false}, {"time": 0, "velocity": 108, "pitch": 65, "instrument": 1, "track": 0, "qtime": 0, "isDrum": false}, {"time": 42, "velocity": 0, "pitch": 46, "instrument": 1, "track": 0, "qtime": 42, "isDrum": false}, {"time": 42, "velocity": 0, "pitch": 61, "instrument": 1, "track": 0, "qtime": 42, "isDrum": false}, {"time": 42, "velocity": 0, "pitch": 65, "instrument": 1, "track": 0, "qtime": 42, "isDrum": false}, {"time": 48, "velocity": 108, "pitch": 39, "instrument": 1, "track": 0, "qtime": 0, "isDrum": false}, {"time": 48, "velocity": 108, "pitch": 55, "instrument": 1, "track": 0, "qtime": 0, "isDrum": false}, {"time": 48, "velocity": 108, "pitch": 58, "instrument": 1, "track": 0, "qtime": 0, "isDrum": false}, {"time": 89, "velocity": 0, "pitch": 55, "instrument": 1, "track": 0, "qtime": 41, "isDrum": false}, {"time": 89, "velocity": 0, "pitch": 58, "instrument": 1, "track": 0, "qtime": 41, "isDrum": false}, {"time": 90, "velocity": 0, "pitch": 39, "instrument": 1, "track": 0, "qtime": 42, "isDrum": false}, {"time": 96, "velocity": 108, "pitch": 44, "instrument": 1, "track": 0, "qtime": 0, "isDrum": false}, {"time": 96, "velocity": 108, "pitch": 60, "instrument": 1, "track": 0, "qtime": 0, "isDrum": false}, {"time": 96, "velocity": 108, "pitch": 63, "instrument": 1, "track": 0, "qtime": 0, "isDrum": false}, {"time": 133, "velocity": 0, "pitch": 60, "instrument": 1, "track": 0, "qtime": 37, "isDrum": false}, {"time": 133, "velocity": 0, "pitch": 63, "instrument": 1, "track": 0, "qtime": 37, "isDrum": false}, {"time": 134, "velocity": 0, "pitch": 44, "instrument": 1, "track": 0, "qtime": 38, "isDrum": false}, {"time": 144, "velocity": 108, "pitch": 37, "instrument": 1, "track": 0, "qtime": 0, "isDrum": false}, {"time": 144, "velocity": 108, "pitch": 53, "instrument": 1, "track": 0, "qtime": 0, "isDrum": false}, {"time": 144, "velocity": 108, "pitch": 56, "instrument": 1, "track": 0, "qtime": 0, "isDrum": false}, {"time": 186, "velocity": 0, "pitch": 53, "instrument": 1, "track": 0, "qtime": 42, "isDrum": false}, {"time": 187, "velocity": 0, "pitch": 37, "instrument": 1, "track": 0, "qtime": 43, "isDrum": false}, {"time": 187, "velocity": 0, "pitch": 56, "instrument": 1, "track": 0, "qtime": 43, "isDrum": false}, {"time": 192, "velocity": 108, "pitch": 46, "instrument": 1, "track": 0, "qtime": 0, "isDrum": false}, {"time": 192, "velocity": 108, "pitch": 61, "instrument": 1, "track": 0, "qtime": 0, "isDrum": false}, {"time": 192, "velocity": 108, "pitch": 65, "instrument": 1, "track": 0, "qtime": 0, "isDrum": false}, {"time": 230, "velocity": 0, "pitch": 61, "instrument": 1, "track": 0, "qtime": 38, "isDrum": false}, {"time": 230, "velocity": 0, "pitch": 65, "instrument": 1, "track": 0, "qtime": 38, "isDrum": false}, {"time": 231, "velocity": 0, "pitch": 46, "instrument": 1, "track": 0, "qtime": 39, "isDrum": false}, {"time": 240, "velocity": 108, "pitch": 39, "instrument": 1, "track": 0, "qtime": 0, "isDrum": false}, {"time": 240, "velocity": 108, "pitch": 55, "instrument": 1, "track": 0, "qtime": 0, "isDrum": false}, {"time": 240, "velocity": 108, "pitch": 58, "instrument": 1, "track": 0, "qtime": 0, "isDrum": false}, {"time": 279, "velocity": 0, "pitch": 55, "instrument": 1, "track": 0, "qtime": 39, "isDrum": false}, {"time": 279, "velocity": 0, "pitch": 58, "instrument": 1, "track": 0, "qtime": 39, "isDrum": false}, {"time": 280, "velocity": 0, "pitch": 39, "instrument": 1, "track": 0, "qtime": 40, "isDrum": false}, {"time": 288, "velocity": 108, "pitch": 44, "instrument": 1, "track": 0, "qtime": 0, "isDrum": false}, {"time": 288, "velocity": 108, "pitch": 60, "instrument": 1, "track": 0, "qtime": 0, "isDrum": false}, {"time": 288, "velocity": 108, "pitch": 63, "instrument": 1, "track": 0, "qtime": 0, "isDrum": false}, {"time": 324, "velocity": 0, "pitch": 60, "instrument": 1, "track": 0, "qtime": 36, "isDrum": false}, {"time": 325, "velocity": 0, "pitch": 63, "instrument": 1, "track": 0, "qtime": 37, "isDrum": false}, {"time": 327, "velocity": 0, "pitch": 44, "instrument": 1, "track": 0, "qtime": 39, "isDrum": false}, {"time": 336, "velocity": 108, "pitch": 37, "instrument": 1, "track": 0, "qtime": 0, "isDrum": false}, {"time": 336, "velocity": 108, "pitch": 53, "instrument": 1, "track": 0, "qtime": 0, "isDrum": false}, {"time": 336, "velocity": 108, "pitch": 56, "instrument": 1, "track": 0, "qtime": 0, "isDrum": false}, {"time": 342, "velocity": 108, "pitch": 49, "instrument": 1, "track": 0, "qtime": 6, "isDrum": false}, {"time": 345, "velocity": 108, "pitch": 51, "instrument": 1, "track": 0, "qtime": 9, "isDrum": false}, {"time": 351, "velocity": 108, "pitch": 53, "instrument": 1, "track": 0, "qtime": 15, "isDrum": false}, {"time": 357, "velocity": 108, "pitch": 56, "instrument": 1, "track": 0, "qtime": 21, "isDrum": false}, {"time": 363, "velocity": 108, "pitch": 61, "instrument": 1, "track": 0, "qtime": 27, "isDrum": false}, {"time": 366, "velocity": 0, "pitch": 49, "instrument": 1, "track": 0, "qtime": 30, "isDrum": false}, {"time": 366, "velocity": 0, "pitch": 51, "instrument": 1, "track": 0, "qtime": 30, "isDrum": false}, {"time": 366, "velocity": 0, "pitch": 53, "instrument": 1, "track": 0, "qtime": 30, "isDrum": false}, {"time": 366, "velocity": 0, "pitch": 56, "instrument": 1, "track": 0, "qtime": 30, "isDrum": false}, {"time": 369, "velocity": 108, "pitch": 63, "instrument": 1, "track": 0, "qtime": 33, "isDrum": false}, {"time": 375, "velocity": 108, "pitch": 68, "instrument": 1, "track": 0, "qtime": 39, "isDrum": false}, {"time": 380, "velocity": 0, "pitch": 37, "instrument": 1, "track": 0, "qtime": 44, "isDrum": false}, {"time": 380, "velocity": 0, "pitch": 53, "instrument": 1, "track": 0, "qtime": 44, "isDrum": false}, {"time": 380, "velocity": 0, "pitch": 56, "instrument": 1, "track": 0, "qtime": 44, "isDrum": false}, {"time": 382, "velocity": 0, "pitch": 61, "instrument": 1, "track": 0, "qtime": 46, "isDrum": false}, {"time": 382, "velocity": 0, "pitch": 63, "instrument": 1, "track": 0, "qtime": 46, "isDrum": false}, {"time": 382, "velocity": 0, "pitch": 68, "instrument": 1, "track": 0, "qtime": 46, "isDrum": false}, {"time": 0, "velocity": 108, "pitch": 61, "instrument": 25, "track": 1, "qtime": 0, "isDrum": false}, {"time": 0, "velocity": 108, "pitch": 65, "instrument": 25, "track": 1, "qtime": 0, "isDrum": false}, {"time": 0, "velocity": 108, "pitch": 70, "instrument": 25, "track": 1, "qtime": 0, "isDrum": false}, {"time": 9, "velocity": 0, "pitch": 61, "instrument": 25, "track": 1, "qtime": 9, "isDrum": false}, {"time": 9, "velocity": 0, "pitch": 65, "instrument": 25, "track": 1, "qtime": 9, "isDrum": false}, {"time": 9, "velocity": 0, "pitch": 70, "instrument": 25, "track": 1, "qtime": 9, "isDrum": false}, {"time": 12, "velocity": 108, "pitch": 61, "instrument": 25, "track": 1, "qtime": 12, "isDrum": false}, {"time": 12, "velocity": 108, "pitch": 65, "instrument": 25, "track": 1, "qtime": 12, "isDrum": false}, {"time": 12, "velocity": 108, "pitch": 70, "instrument": 25, "track": 1, "qtime": 12, "isDrum": false}, {"time": 18, "velocity": 0, "pitch": 61, "instrument": 25, "track": 1, "qtime": 18, "isDrum": false}, {"time": 18, "velocity": 0, "pitch": 65, "instrument": 25, "track": 1, "qtime": 18, "isDrum": false}, {"time": 18, "velocity": 0, "pitch": 70, "instrument": 25, "track": 1, "qtime": 18, "isDrum": false}, {"time": 21, "velocity": 108, "pitch": 61, "instrument": 25, "track": 1, "qtime": 21, "isDrum": false}, {"time": 21, "velocity": 108, "pitch": 65, "instrument": 25, "track": 1, "qtime": 21, "isDrum": false}, {"time": 21, "velocity": 108, "pitch": 70, "instrument": 25, "track": 1, "qtime": 21, "isDrum": false}, {"time": 24, "velocity": 0, "pitch": 61, "instrument": 25, "track": 1, "qtime": 24, "isDrum": false}, {"time": 24, "velocity": 0, "pitch": 65, "instrument": 25, "track": 1, "qtime": 24, "isDrum": false}, {"time": 24, "velocity": 0, "pitch": 70, "instrument": 25, "track": 1, "qtime": 24, "isDrum": false}, {"time": 27, "velocity": 108, "pitch": 61, "instrument": 25, "track": 1, "qtime": 27, "isDrum": false}, {"time": 27, "velocity": 108, "pitch": 65, "instrument": 25, "track": 1, "qtime": 27, "isDrum": false}, {"time": 27, "velocity": 108, "pitch": 70, "instrument": 25, "track": 1, "qtime": 27, "isDrum": false}, {"time": 30, "velocity": 0, "pitch": 61, "instrument": 25, "track": 1, "qtime": 30, "isDrum": false}, {"time": 30, "velocity": 0, "pitch": 65, "instrument": 25, "track": 1, "qtime": 30, "isDrum": false}, {"time": 30, "velocity": 0, "pitch": 70, "instrument": 25, "track": 1, "qtime": 30, "isDrum": false}, {"time": 36, "velocity": 108, "pitch": 61, "instrument": 25, "track": 1, "qtime": 36, "isDrum": false}, {"time": 36, "velocity": 108, "pitch": 65, "instrument": 25, "track": 1, "qtime": 36, "isDrum": false}, {"time": 36, "velocity": 108, "pitch": 70, "instrument": 25, "track": 1, "qtime": 36, "isDrum": false}, {"time": 45, "velocity": 0, "pitch": 61, "instrument": 25, "track": 1, "qtime": 45, "isDrum": false}, {"time": 45, "velocity": 0, "pitch": 65, "instrument": 25, "track": 1, "qtime": 45, "isDrum": false}, {"time": 45, "velocity": 0, "pitch": 70, "instrument": 25, "track": 1, "qtime": 45, "isDrum": false}, {"time": 48, "velocity": 108, "pitch": 58, "instrument": 25, "track": 1, "qtime": 0, "isDrum": false}, {"time": 48, "velocity": 108, "pitch": 63, "instrument": 25, "track": 1, "qtime": 0, "isDrum": false}, {"time": 48, "velocity": 108, "pitch": 67, "instrument": 25, "track": 1, "qtime": 0, "isDrum": false}, {"time": 57, "velocity": 0, "pitch": 58, "instrument": 25, "track": 1, "qtime": 9, "isDrum": false}, {"time": 57, "velocity": 0, "pitch": 63, "instrument": 25, "track": 1, "qtime": 9, "isDrum": false}, {"time": 57, "velocity": 0, "pitch": 67, "instrument": 25, "track": 1, "qtime": 9, "isDrum": false}, {"time": 60, "velocity": 108, "pitch": 58, "instrument": 25, "track": 1, "qtime": 12, "isDrum": false}, {"time": 60, "velocity": 108, "pitch": 63, "instrument": 25, "track": 1, "qtime": 12, "isDrum": false}, {"time": 60, "velocity": 108, "pitch": 67, "instrument": 25, "track": 1, "qtime": 12, "isDrum": false}, {"time": 66, "velocity": 0, "pitch": 58, "instrument": 25, "track": 1, "qtime": 18, "isDrum": false}, {"time": 66, "velocity": 0, "pitch": 63, "instrument": 25, "track": 1, "qtime": 18, "isDrum": false}, {"time": 66, "velocity": 0, "pitch": 67, "instrument": 25, "track": 1, "qtime": 18, "isDrum": false}, {"time": 69, "velocity": 108, "pitch": 58, "instrument": 25, "track": 1, "qtime": 21, "isDrum": false}, {"time": 69, "velocity": 108, "pitch": 63, "instrument": 25, "track": 1, "qtime": 21, "isDrum": false}, {"time": 69, "velocity": 108, "pitch": 68, "instrument": 25, "track": 1, "qtime": 21, "isDrum": false}, {"time": 72, "velocity": 0, "pitch": 58, "instrument": 25, "track": 1, "qtime": 24, "isDrum": false}, {"time": 72, "velocity": 0, "pitch": 63, "instrument": 25, "track": 1, "qtime": 24, "isDrum": false}, {"time": 72, "velocity": 0, "pitch": 68, "instrument": 25, "track": 1, "qtime": 24, "isDrum": false}, {"time": 75, "velocity": 108, "pitch": 58, "instrument": 25, "track": 1, "qtime": 27, "isDrum": false}, {"time": 75, "velocity": 108, "pitch": 63, "instrument": 25, "track": 1, "qtime": 27, "isDrum": false}, {"time": 75, "velocity": 108, "pitch": 68, "instrument": 25, "track": 1, "qtime": 27, "isDrum": false}, {"time": 78, "velocity": 0, "pitch": 58, "instrument": 25, "track": 1, "qtime": 30, "isDrum": false}, {"time": 78, "velocity": 0, "pitch": 63, "instrument": 25, "track": 1, "qtime": 30, "isDrum": false}, {"time": 78, "velocity": 0, "pitch": 68, "instrument": 25, "track": 1, "qtime": 30, "isDrum": false}, {"time": 81, "velocity": 108, "pitch": 58, "instrument": 25, "track": 1, "qtime": 33, "isDrum": false}, {"time": 81, "velocity": 108, "pitch": 63, "instrument": 25, "track": 1, "qtime": 33, "isDrum": false}, {"time": 81, "velocity": 108, "pitch": 67, "instrument": 25, "track": 1, "qtime": 33, "isDrum": false}, {"time": 84, "velocity": 0, "pitch": 58, "instrument": 25, "track": 1, "qtime": 36, "isDrum": false}, {"time": 84, "velocity": 0, "pitch": 63, "instrument": 25, "track": 1, "qtime": 36, "isDrum": false}, {"time": 84, "velocity": 0, "pitch": 67, "instrument": 25, "track": 1, "qtime": 36, "isDrum": false}, {"time": 87, "velocity": 108, "pitch": 58, "instrument": 25, "track": 1, "qtime": 39, "isDrum": false}, {"time": 87, "velocity": 108, "pitch": 63, "instrument": 25, "track": 1, "qtime": 39, "isDrum": false}, {"time": 87, "velocity": 108, "pitch": 67, "instrument": 25, "track": 1, "qtime": 39, "isDrum": false}, {"time": 93, "velocity": 0, "pitch": 58, "instrument": 25, "track": 1, "qtime": 45, "isDrum": false}, {"time": 93, "velocity": 0, "pitch": 63, "instrument": 25, "track": 1, "qtime": 45, "isDrum": false}, {"time": 93, "velocity": 0, "pitch": 67, "instrument": 25, "track": 1, "qtime": 45, "isDrum": false}, {"time": 96, "velocity": 108, "pitch": 60, "instrument": 25, "track": 1, "qtime": 0, "isDrum": false}, {"time": 96, "velocity": 108, "pitch": 63, "instrument": 25, "track": 1, "qtime": 0, "isDrum": false}, {"time": 96, "velocity": 108, "pitch": 68, "instrument": 25, "track": 1, "qtime": 0, "isDrum": false}, {"time": 105, "velocity": 0, "pitch": 60, "instrument": 25, "track": 1, "qtime": 9, "isDrum": false}, {"time": 105, "velocity": 0, "pitch": 63, "instrument": 25, "track": 1, "qtime": 9, "isDrum": false}, {"time": 105, "velocity": 0, "pitch": 68, "instrument": 25, "track": 1, "qtime": 9, "isDrum": false}, {"time": 108, "velocity": 108, "pitch": 60, "instrument": 25, "track": 1, "qtime": 12, "isDrum": false}, {"time": 108, "velocity": 108, "pitch": 63, "instrument": 25, "track": 1, "qtime": 12, "isDrum": false}, {"time": 108, "velocity": 108, "pitch": 68, "instrument": 25, "track": 1, "qtime": 12, "isDrum": false}, {"time": 114, "velocity": 0, "pitch": 60, "instrument": 25, "track": 1, "qtime": 18, "isDrum": false}, {"time": 114, "velocity": 0, "pitch": 63, "instrument": 25, "track": 1, "qtime": 18, "isDrum": false}, {"time": 114, "velocity": 0, "pitch": 68, "instrument": 25, "track": 1, "qtime": 18, "isDrum": false}, {"time": 117, "velocity": 108, "pitch": 60, "instrument": 25, "track": 1, "qtime": 21, "isDrum": false}, {"time": 117, "velocity": 108, "pitch": 63, "instrument": 25, "track": 1, "qtime": 21, "isDrum": false}, {"time": 117, "velocity": 108, "pitch": 68, "instrument": 25, "track": 1, "qtime": 21, "isDrum": false}, {"time": 120, "velocity": 0, "pitch": 60, "instrument": 25, "track": 1, "qtime": 24, "isDrum": false}, {"time": 120, "velocity": 0, "pitch": 63, "instrument": 25, "track": 1, "qtime": 24, "isDrum": false}, {"time": 120, "velocity": 0, "pitch": 68, "instrument": 25, "track": 1, "qtime": 24, "isDrum": false}, {"time": 123, "velocity": 108, "pitch": 60, "instrument": 25, "track": 1, "qtime": 27, "isDrum": false}, {"time": 123, "velocity": 108, "pitch": 63, "instrument": 25, "track": 1, "qtime": 27, "isDrum": false}, {"time": 123, "velocity": 108, "pitch": 68, "instrument": 25, "track": 1, "qtime": 27, "isDrum": false}, {"time": 129, "velocity": 0, "pitch": 60, "instrument": 25, "track": 1, "qtime": 33, "isDrum": false}, {"time": 129, "velocity": 0, "pitch": 63, "instrument": 25, "track": 1, "qtime": 33, "isDrum": false}, {"time": 129, "velocity": 0, "pitch": 68, "instrument": 25, "track": 1, "qtime": 33, "isDrum": false}, {"time": 132, "velocity": 108, "pitch": 60, "instrument": 25, "track": 1, "qtime": 36, "isDrum": false}, {"time": 132, "velocity": 108, "pitch": 63, "instrument": 25, "track": 1, "qtime": 36, "isDrum": false}, {"time": 132, "velocity": 108, "pitch": 68, "instrument": 25, "track": 1, "qtime": 36, "isDrum": false}, {"time": 141, "velocity": 0, "pitch": 60, "instrument": 25, "track": 1, "qtime": 45, "isDrum": false}, {"time": 141, "velocity": 0, "pitch": 63, "instrument": 25, "track": 1, "qtime": 45, "isDrum": false}, {"time": 141, "velocity": 0, "pitch": 68, "instrument": 25, "track": 1, "qtime": 45, "isDrum": false}, {"time": 144, "velocity": 108, "pitch": 61, "instrument": 25, "track": 1, "qtime": 0, "isDrum": false}, {"time": 144, "velocity": 108, "pitch": 65, "instrument": 25, "track": 1, "qtime": 0, "isDrum": false}, {"time": 144, "velocity": 108, "pitch": 68, "instrument": 25, "track": 1, "qtime": 0, "isDrum": false}, {"time": 153, "velocity": 0, "pitch": 61, "instrument": 25, "track": 1, "qtime": 9, "isDrum": false}, {"time": 153, "velocity": 0, "pitch": 65, "instrument": 25, "track": 1, "qtime": 9, "isDrum": false}, {"time": 153, "velocity": 0, "pitch": 68, "instrument": 25, "track": 1, "qtime": 9, "isDrum": false}, {"time": 156, "velocity": 108, "pitch": 61, "instrument": 25, "track": 1, "qtime": 12, "isDrum": false}, {"time": 156, "velocity": 108, "pitch": 65, "instrument": 25, "track": 1, "qtime": 12, "isDrum": false}, {"time": 156, "velocity": 108, "pitch": 68, "instrument": 25, "track": 1, "qtime": 12, "isDrum": false}, {"time": 162, "velocity": 0, "pitch": 61, "instrument": 25, "track": 1, "qtime": 18, "isDrum": false}, {"time": 162, "velocity": 0, "pitch": 65, "instrument": 25, "track": 1, "qtime": 18, "isDrum": false}, {"time": 162, "velocity": 0, "pitch": 68, "instrument": 25, "track": 1, "qtime": 18, "isDrum": false}, {"time": 165, "velocity": 108, "pitch": 61, "instrument": 25, "track": 1, "qtime": 21, "isDrum": false}, {"time": 165, "velocity": 108, "pitch": 65, "instrument": 25, "track": 1, "qtime": 21, "isDrum": false}, {"time": 165, "velocity": 108, "pitch": 68, "instrument": 25, "track": 1, "qtime": 21, "isDrum": false}, {"time": 168, "velocity": 0, "pitch": 61, "instrument": 25, "track": 1, "qtime": 24, "isDrum": false}, {"time": 168, "velocity": 0, "pitch": 65, "instrument": 25, "track": 1, "qtime": 24, "isDrum": false}, {"time": 168, "velocity": 0, "pitch": 68, "instrument": 25, "track": 1, "qtime": 24, "isDrum": false}, {"time": 171, "velocity": 108, "pitch": 61, "instrument": 25, "track": 1, "qtime": 27, "isDrum": false}, {"time": 171, "velocity": 108, "pitch": 65, "instrument": 25, "track": 1, "qtime": 27, "isDrum": false}, {"time": 171, "velocity": 108, "pitch": 68, "instrument": 25, "track": 1, "qtime": 27, "isDrum": false}, {"time": 174, "velocity": 0, "pitch": 61, "instrument": 25, "track": 1, "qtime": 30, "isDrum": false}, {"time": 174, "velocity": 0, "pitch": 65, "instrument": 25, "track": 1, "qtime": 30, "isDrum": false}, {"time": 174, "velocity": 0, "pitch": 68, "instrument": 25, "track": 1, "qtime": 30, "isDrum": false}, {"time": 180, "velocity": 108, "pitch": 61, "instrument": 25, "track": 1, "qtime": 36, "isDrum": false}, {"time": 180, "velocity": 108, "pitch": 65, "instrument": 25, "track": 1, "qtime": 36, "isDrum": false}, {"time": 180, "velocity": 108, "pitch": 68, "instrument": 25, "track": 1, "qtime": 36, "isDrum": false}, {"time": 183, "velocity": 0, "pitch": 61, "instrument": 25, "track": 1, "qtime": 39, "isDrum": false}, {"time": 183, "velocity": 0, "pitch": 65, "instrument": 25, "track": 1, "qtime": 39, "isDrum": false}, {"time": 183, "velocity": 0, "pitch": 68, "instrument": 25, "track": 1, "qtime": 39, "isDrum": false}, {"time": 183, "velocity": 108, "pitch": 61, "instrument": 25, "track": 1, "qtime": 39, "isDrum": false}, {"time": 183, "velocity": 108, "pitch": 65, "instrument": 25, "track": 1, "qtime": 39, "isDrum": false}, {"time": 183, "velocity": 108, "pitch": 68, "instrument": 25, "track": 1, "qtime": 39, "isDrum": false}, {"time": 189, "velocity": 0, "pitch": 61, "instrument": 25, "track": 1, "qtime": 45, "isDrum": false}, {"time": 189, "velocity": 0, "pitch": 65, "instrument": 25, "track": 1, "qtime": 45, "isDrum": false}, {"time": 189, "velocity": 0, "pitch": 68, "instrument": 25, "track": 1, "qtime": 45, "isDrum": false}, {"time": 192, "velocity": 108, "pitch": 61, "instrument": 25, "track": 1, "qtime": 0, "isDrum": false}, {"time": 192, "velocity": 108, "pitch": 65, "instrument": 25, "track": 1, "qtime": 0, "isDrum": false}, {"time": 192, "velocity": 108, "pitch": 70, "instrument": 25, "track": 1, "qtime": 0, "isDrum": false}, {"time": 202, "velocity": 0, "pitch": 61, "instrument": 25, "track": 1, "qtime": 10, "isDrum": false}, {"time": 202, "velocity": 0, "pitch": 65, "instrument": 25, "track": 1, "qtime": 10, "isDrum": false}, {"time": 202, "velocity": 0, "pitch": 70, "instrument": 25, "track": 1, "qtime": 10, "isDrum": false}, {"time": 204, "velocity": 108, "pitch": 61, "instrument": 25, "track": 1, "qtime": 12, "isDrum": false}, {"time": 204, "velocity": 108, "pitch": 65, "instrument": 25, "track": 1, "qtime": 12, "isDrum": false}, {"time": 204, "velocity": 108, "pitch": 70, "instrument": 25, "track": 1, "qtime": 12, "isDrum": false}, {"time": 210, "velocity": 0, "pitch": 61, "instrument": 25, "track": 1, "qtime": 18, "isDrum": false}, {"time": 210, "velocity": 0, "pitch": 65, "instrument": 25, "track": 1, "qtime": 18, "isDrum": false}, {"time": 210, "velocity": 0, "pitch": 70, "instrument": 25, "track": 1, "qtime": 18, "isDrum": false}, {"time": 213, "velocity": 108, "pitch": 61, "instrument": 25, "track": 1, "qtime": 21, "isDrum": false}, {"time": 213, "velocity": 108, "pitch": 65, "instrument": 25, "track": 1, "qtime": 21, "isDrum": false}, {"time": 213, "velocity": 108, "pitch": 70, "instrument": 25, "track": 1, "qtime": 21, "isDrum": false}, {"time": 216, "velocity": 0, "pitch": 61, "instrument": 25, "track": 1, "qtime": 24, "isDrum": false}, {"time": 216, "velocity": 0, "pitch": 65, "instrument": 25, "track": 1, "qtime": 24, "isDrum": false}, {"time": 216, "velocity": 0, "pitch": 70, "instrument": 25, "track": 1, "qtime": 24, "isDrum": false}, {"time": 219, "velocity": 108, "pitch": 61, "instrument": 25, "track": 1, "qtime": 27, "isDrum": false}, {"time": 219, "velocity": 108, "pitch": 65, "instrument": 25, "track": 1, "qtime": 27, "isDrum": false}, {"time": 219, "velocity": 108, "pitch": 70, "instrument": 25, "track": 1, "qtime": 27, "isDrum": false}, {"time": 225, "velocity": 0, "pitch": 61, "instrument": 25, "track": 1, "qtime": 33, "isDrum": false}, {"time": 225, "velocity": 0, "pitch": 65, "instrument": 25, "track": 1, "qtime": 33, "isDrum": false}, {"time": 225, "velocity": 0, "pitch": 70, "instrument": 25, "track": 1, "qtime": 33, "isDrum": false}, {"time": 228, "velocity": 108, "pitch": 61, "instrument": 25, "track": 1, "qtime": 36, "isDrum": false}, {"time": 228, "velocity": 108, "pitch": 65, "instrument": 25, "track": 1, "qtime": 36, "isDrum": false}, {"time": 228, "velocity": 108, "pitch": 70, "instrument": 25, "track": 1, "qtime": 36, "isDrum": false}, {"time": 231, "velocity": 0, "pitch": 61, "instrument": 25, "track": 1, "qtime": 39, "isDrum": false}, {"time": 231, "velocity": 0, "pitch": 65, "instrument": 25, "track": 1, "qtime": 39, "isDrum": false}, {"time": 231, "velocity": 0, "pitch": 70, "instrument": 25, "track": 1, "qtime": 39, "isDrum": false}, {"time": 231, "velocity": 108, "pitch": 61, "instrument": 25, "track": 1, "qtime": 39, "isDrum": false}, {"time": 231, "velocity": 108, "pitch": 65, "instrument": 25, "track": 1, "qtime": 39, "isDrum": false}, {"time": 231, "velocity": 108, "pitch": 70, "instrument": 25, "track": 1, "qtime": 39, "isDrum": false}, {"time": 234, "velocity": 0, "pitch": 61, "instrument": 25, "track": 1, "qtime": 42, "isDrum": false}, {"time": 234, "velocity": 0, "pitch": 65, "instrument": 25, "track": 1, "qtime": 42, "isDrum": false}, {"time": 234, "velocity": 0, "pitch": 70, "instrument": 25, "track": 1, "qtime": 42, "isDrum": false}, {"time": 240, "velocity": 108, "pitch": 58, "instrument": 25, "track": 1, "qtime": 0, "isDrum": false}, {"time": 240, "velocity": 108, "pitch": 63, "instrument": 25, "track": 1, "qtime": 0, "isDrum": false}, {"time": 240, "velocity": 108, "pitch": 67, "instrument": 25, "track": 1, "qtime": 0, "isDrum": false}, {"time": 249, "velocity": 0, "pitch": 58, "instrument": 25, "track": 1, "qtime": 9, "isDrum": false}, {"time": 249, "velocity": 0, "pitch": 63, "instrument": 25, "track": 1, "qtime": 9, "isDrum": false}, {"time": 249, "velocity": 0, "pitch": 67, "instrument": 25, "track": 1, "qtime": 9, "isDrum": false}, {"time": 252, "velocity": 108, "pitch": 58, "instrument": 25, "track": 1, "qtime": 12, "isDrum": false}, {"time": 252, "velocity": 108, "pitch": 63, "instrument": 25, "track": 1, "qtime": 12, "isDrum": false}, {"time": 252, "velocity": 108, "pitch": 67, "instrument": 25, "track": 1, "qtime": 12, "isDrum": false}, {"time": 258, "velocity": 0, "pitch": 58, "instrument": 25, "track": 1, "qtime": 18, "isDrum": false}, {"time": 258, "velocity": 0, "pitch": 67, "instrument": 25, "track": 1, "qtime": 18, "isDrum": false}, {"time": 261, "velocity": 0, "pitch": 63, "instrument": 25, "track": 1, "qtime": 21, "isDrum": false}, {"time": 261, "velocity": 108, "pitch": 58, "instrument": 25, "track": 1, "qtime": 21, "isDrum": false}, {"time": 261, "velocity": 108, "pitch": 63, "instrument": 25, "track": 1, "qtime": 21, "isDrum": false}, {"time": 261, "velocity": 108, "pitch": 68, "instrument": 25, "track": 1, "qtime": 21, "isDrum": false}, {"time": 264, "velocity": 0, "pitch": 58, "instrument": 25, "track": 1, "qtime": 24, "isDrum": false}, {"time": 264, "velocity": 0, "pitch": 63, "instrument": 25, "track": 1, "qtime": 24, "isDrum": false}, {"time": 264, "velocity": 0, "pitch": 68, "instrument": 25, "track": 1, "qtime": 24, "isDrum": false}, {"time": 267, "velocity": 108, "pitch": 58, "instrument": 25, "track": 1, "qtime": 27, "isDrum": false}, {"time": 267, "velocity": 108, "pitch": 63, "instrument": 25, "track": 1, "qtime": 27, "isDrum": false}, {"time": 267, "velocity": 108, "pitch": 68, "instrument": 25, "track": 1, "qtime": 27, "isDrum": false}, {"time": 273, "velocity": 0, "pitch": 58, "instrument": 25, "track": 1, "qtime": 33, "isDrum": false}, {"time": 273, "velocity": 0, "pitch": 63, "instrument": 25, "track": 1, "qtime": 33, "isDrum": false}, {"time": 273, "velocity": 0, "pitch": 68, "instrument": 25, "track": 1, "qtime": 33, "isDrum": false}, {"time": 273, "velocity": 108, "pitch": 58, "instrument": 25, "track": 1, "qtime": 33, "isDrum": false}, {"time": 273, "velocity": 108, "pitch": 63, "instrument": 25, "track": 1, "qtime": 33, "isDrum": false}, {"time": 273, "velocity": 108, "pitch": 67, "instrument": 25, "track": 1, "qtime": 33, "isDrum": false}, {"time": 276, "velocity": 0, "pitch": 58, "instrument": 25, "track": 1, "qtime": 36, "isDrum": false}, {"time": 276, "velocity": 0, "pitch": 63, "instrument": 25, "track": 1, "qtime": 36, "isDrum": false}, {"time": 276, "velocity": 0, "pitch": 67, "instrument": 25, "track": 1, "qtime": 36, "isDrum": false}, {"time": 279, "velocity": 108, "pitch": 58, "instrument": 25, "track": 1, "qtime": 39, "isDrum": false}, {"time": 279, "velocity": 108, "pitch": 63, "instrument": 25, "track": 1, "qtime": 39, "isDrum": false}, {"time": 279, "velocity": 108, "pitch": 67, "instrument": 25, "track": 1, "qtime": 39, "isDrum": false}, {"time": 285, "velocity": 0, "pitch": 58, "instrument": 25, "track": 1, "qtime": 45, "isDrum": false}, {"time": 285, "velocity": 0, "pitch": 63, "instrument": 25, "track": 1, "qtime": 45, "isDrum": false}, {"time": 285, "velocity": 0, "pitch": 67, "instrument": 25, "track": 1, "qtime": 45, "isDrum": false}, {"time": 288, "velocity": 108, "pitch": 60, "instrument": 25, "track": 1, "qtime": 0, "isDrum": false}, {"time": 288, "velocity": 108, "pitch": 63, "instrument": 25, "track": 1, "qtime": 0, "isDrum": false}, {"time": 288, "velocity": 108, "pitch": 68, "instrument": 25, "track": 1, "qtime": 0, "isDrum": false}, {"time": 297, "velocity": 0, "pitch": 60, "instrument": 25, "track": 1, "qtime": 9, "isDrum": false}, {"time": 297, "velocity": 0, "pitch": 63, "instrument": 25, "track": 1, "qtime": 9, "isDrum": false}, {"time": 297, "velocity": 0, "pitch": 68, "instrument": 25, "track": 1, "qtime": 9, "isDrum": false}, {"time": 300, "velocity": 108, "pitch": 60, "instrument": 25, "track": 1, "qtime": 12, "isDrum": false}, {"time": 300, "velocity": 108, "pitch": 63, "instrument": 25, "track": 1, "qtime": 12, "isDrum": false}, {"time": 300, "velocity": 108, "pitch": 68, "instrument": 25, "track": 1, "qtime": 12, "isDrum": false}, {"time": 306, "velocity": 0, "pitch": 60, "instrument": 25, "track": 1, "qtime": 18, "isDrum": false}, {"time": 306, "velocity": 0, "pitch": 63, "instrument": 25, "track": 1, "qtime": 18, "isDrum": false}, {"time": 306, "velocity": 0, "pitch": 68, "instrument": 25, "track": 1, "qtime": 18, "isDrum": false}, {"time": 309, "velocity": 108, "pitch": 60, "instrument": 25, "track": 1, "qtime": 21, "isDrum": false}, {"time": 309, "velocity": 108, "pitch": 63, "instrument": 25, "track": 1, "qtime": 21, "isDrum": false}, {"time": 309, "velocity": 108, "pitch": 68, "instrument": 25, "track": 1, "qtime": 21, "isDrum": false}, {"time": 312, "velocity": 0, "pitch": 60, "instrument": 25, "track": 1, "qtime": 24, "isDrum": false}, {"time": 312, "velocity": 0, "pitch": 63, "instrument": 25, "track": 1, "qtime": 24, "isDrum": false}, {"time": 312, "velocity": 0, "pitch": 68, "instrument": 25, "track": 1, "qtime": 24, "isDrum": false}, {"time": 315, "velocity": 108, "pitch": 60, "instrument": 25, "track": 1, "qtime": 27, "isDrum": false}, {"time": 315, "velocity": 108, "pitch": 63, "instrument": 25, "track": 1, "qtime": 27, "isDrum": false}, {"time": 315, "velocity": 108, "pitch": 68, "instrument": 25, "track": 1, "qtime": 27, "isDrum": false}, {"time": 321, "velocity": 0, "pitch": 60, "instrument": 25, "track": 1, "qtime": 33, "isDrum": false}, {"time": 321, "velocity": 0, "pitch": 63, "instrument": 25, "track": 1, "qtime": 33, "isDrum": false}, {"time": 321, "velocity": 0, "pitch": 68, "instrument": 25, "track": 1, "qtime": 33, "isDrum": false}, {"time": 324, "velocity": 108, "pitch": 60, "instrument": 25, "track": 1, "qtime": 36, "isDrum": false}, {"time": 324, "velocity": 108, "pitch": 63, "instrument": 25, "track": 1, "qtime": 36, "isDrum": false}, {"time": 324, "velocity": 108, "pitch": 68, "instrument": 25, "track": 1, "qtime": 36, "isDrum": false}, {"time": 327, "velocity": 0, "pitch": 60, "instrument": 25, "track": 1, "qtime": 39, "isDrum": false}, {"time": 327, "velocity": 0, "pitch": 63, "instrument": 25, "track": 1, "qtime": 39, "isDrum": false}, {"time": 327, "velocity": 0, "pitch": 68, "instrument": 25, "track": 1, "qtime": 39, "isDrum": false}, {"time": 327, "velocity": 108, "pitch": 60, "instrument": 25, "track": 1, "qtime": 39, "isDrum": false}, {"time": 327, "velocity": 108, "pitch": 63, "instrument": 25, "track": 1, "qtime": 39, "isDrum": false}, {"time": 327, "velocity": 108, "pitch": 68, "instrument": 25, "track": 1, "qtime": 39, "isDrum": false}, {"time": 330, "velocity": 0, "pitch": 60, "instrument": 25, "track": 1, "qtime": 42, "isDrum": false}, {"time": 330, "velocity": 0, "pitch": 63, "instrument": 25, "track": 1, "qtime": 42, "isDrum": false}, {"time": 330, "velocity": 0, "pitch": 68, "instrument": 25, "track": 1, "qtime": 42, "isDrum": false}, {"time": 336, "velocity": 108, "pitch": 61, "instrument": 25, "track": 1, "qtime": 0, "isDrum": false}, {"time": 336, "velocity": 108, "pitch": 65, "instrument": 25, "track": 1, "qtime": 0, "isDrum": false}, {"time": 336, "velocity": 108, "pitch": 68, "instrument": 25, "track": 1, "qtime": 0, "isDrum": false}, {"time": 348, "velocity": 0, "pitch": 61, "instrument": 25, "track": 1, "qtime": 12, "isDrum": false}, {"time": 348, "velocity": 0, "pitch": 65, "instrument": 25, "track": 1, "qtime": 12, "isDrum": false}, {"time": 348, "velocity": 0, "pitch": 68, "instrument": 25, "track": 1, "qtime": 12, "isDrum": false}, {"time": 348, "velocity": 108, "pitch": 61, "instrument": 25, "track": 1, "qtime": 12, "isDrum": false}, {"time": 348, "velocity": 108, "pitch": 65, "instrument": 25, "track": 1, "qtime": 12, "isDrum": false}, {"time": 348, "velocity": 108, "pitch": 68, "instrument": 25, "track": 1, "qtime": 12, "isDrum": false}, {"time": 354, "velocity": 0, "pitch": 61, "instrument": 25, "track": 1, "qtime": 18, "isDrum": false}, {"time": 354, "velocity": 0, "pitch": 65, "instrument": 25, "track": 1, "qtime": 18, "isDrum": false}, {"time": 354, "velocity": 0, "pitch": 68, "instrument": 25, "track": 1, "qtime": 18, "isDrum": false}, {"time": 357, "velocity": 108, "pitch": 61, "instrument": 25, "track": 1, "qtime": 21, "isDrum": false}, {"time": 357, "velocity": 108, "pitch": 65, "instrument": 25, "track": 1, "qtime": 21, "isDrum": false}, {"time": 357, "velocity": 108, "pitch": 68, "instrument": 25, "track": 1, "qtime": 21, "isDrum": false}, {"time": 360, "velocity": 0, "pitch": 61, "instrument": 25, "track": 1, "qtime": 24, "isDrum": false}, {"time": 360, "velocity": 0, "pitch": 65, "instrument": 25, "track": 1, "qtime": 24, "isDrum": false}, {"time": 360, "velocity": 0, "pitch": 68, "instrument": 25, "track": 1, "qtime": 24, "isDrum": false}, {"time": 363, "velocity": 108, "pitch": 61, "instrument": 25, "track": 1, "qtime": 27, "isDrum": false}, {"time": 363, "velocity": 108, "pitch": 65, "instrument": 25, "track": 1, "qtime": 27, "isDrum": false}, {"time": 363, "velocity": 108, "pitch": 68, "instrument": 25, "track": 1, "qtime": 27, "isDrum": false}, {"time": 369, "velocity": 0, "pitch": 61, "instrument": 25, "track": 1, "qtime": 33, "isDrum": false}, {"time": 369, "velocity": 0, "pitch": 65, "instrument": 25, "track": 1, "qtime": 33, "isDrum": false}, {"time": 369, "velocity": 0, "pitch": 68, "instrument": 25, "track": 1, "qtime": 33, "isDrum": false}, {"time": 372, "velocity": 108, "pitch": 61, "instrument": 25, "track": 1, "qtime": 36, "isDrum": false}, {"time": 372, "velocity": 108, "pitch": 65, "instrument": 25, "track": 1, "qtime": 36, "isDrum": false}, {"time": 372, "velocity": 108, "pitch": 68, "instrument": 25, "track": 1, "qtime": 36, "isDrum": false}, {"time": 375, "velocity": 0, "pitch": 61, "instrument": 25, "track": 1, "qtime": 39, "isDrum": false}, {"time": 375, "velocity": 0, "pitch": 65, "instrument": 25, "track": 1, "qtime": 39, "isDrum": false}, {"time": 375, "velocity": 0, "pitch": 68, "instrument": 25, "track": 1, "qtime": 39, "isDrum": false}, {"time": 375, "velocity": 108, "pitch": 61, "instrument": 25, "track": 1, "qtime": 39, "isDrum": false}, {"time": 375, "velocity": 108, "pitch": 65, "instrument": 25, "track": 1, "qtime": 39, "isDrum": false}, {"time": 375, "velocity": 108, "pitch": 68, "instrument": 25, "track": 1, "qtime": 39, "isDrum": false}, {"time": 378, "velocity": 0, "pitch": 61, "instrument": 25, "track": 1, "qtime": 42, "isDrum": false}, {"time": 378, "velocity": 0, "pitch": 65, "instrument": 25, "track": 1, "qtime": 42, "isDrum": false}, {"time": 378, "velocity": 0, "pitch": 68, "instrument": 25, "track": 1, "qtime": 42, "isDrum": false}, {"time": 0, "velocity": 108, "pitch": 36, "instrument": 0, "track": 9, "qtime": 0, "isDrum": true}, {"time": 0, "velocity": 108, "pitch": 42, "instrument": 0, "track": 9, "qtime": 0, "isDrum": true}, {"time": 0, "velocity": 108, "pitch": 70, "instrument": 0, "track": 9, "qtime": 0, "isDrum": true}, {"time": 2, "velocity": 0, "pitch": 36, "instrument": 0, "track": 9, "qtime": 2, "isDrum": true}, {"time": 3, "velocity": 0, "pitch": 42, "instrument": 0, "track": 9, "qtime": 3, "isDrum": true}, {"time": 3, "velocity": 0, "pitch": 70, "instrument": 0, "track": 9, "qtime": 3, "isDrum": true}, {"time": 3, "velocity": 108, "pitch": 70, "instrument": 0, "track": 9, "qtime": 3, "isDrum": true}, {"time": 4, "velocity": 0, "pitch": 70, "instrument": 0, "track": 9, "qtime": 4, "isDrum": true}, {"time": 6, "velocity": 108, "pitch": 42, "instrument": 0, "track": 9, "qtime": 6, "isDrum": true}, {"time": 6, "velocity": 108, "pitch": 70, "instrument": 0, "track": 9, "qtime": 6, "isDrum": true}, {"time": 8, "velocity": 0, "pitch": 42, "instrument": 0, "track": 9, "qtime": 8, "isDrum": true}, {"time": 8, "velocity": 0, "pitch": 70, "instrument": 0, "track": 9, "qtime": 8, "isDrum": true}, {"time": 9, "velocity": 108, "pitch": 70, "instrument": 0, "track": 9, "qtime": 9, "isDrum": true}, {"time": 10, "velocity": 0, "pitch": 70, "instrument": 0, "track": 9, "qtime": 10, "isDrum": true}, {"time": 12, "velocity": 108, "pitch": 38, "instrument": 0, "track": 9, "qtime": 12, "isDrum": true}, {"time": 12, "velocity": 108, "pitch": 42, "instrument": 0, "track": 9, "qtime": 12, "isDrum": true}, {"time": 12, "velocity": 108, "pitch": 70, "instrument": 0, "track": 9, "qtime": 12, "isDrum": true}, {"time": 13, "velocity": 0, "pitch": 70, "instrument": 0, "track": 9, "qtime": 13, "isDrum": true}, {"time": 14, "velocity": 0, "pitch": 38, "instrument": 0, "track": 9, "qtime": 14, "isDrum": true}, {"time": 15, "velocity": 0, "pitch": 42, "instrument": 0, "track": 9, "qtime": 15, "isDrum": true}, {"time": 15, "velocity": 108, "pitch": 70, "instrument": 0, "track": 9, "qtime": 15, "isDrum": true}, {"time": 16, "velocity": 0, "pitch": 70, "instrument": 0, "track": 9, "qtime": 16, "isDrum": true}, {"time": 18, "velocity": 108, "pitch": 36, "instrument": 0, "track": 9, "qtime": 18, "isDrum": true}, {"time": 18, "velocity": 108, "pitch": 42, "instrument": 0, "track": 9, "qtime": 18, "isDrum": true}, {"time": 18, "velocity": 108, "pitch": 70, "instrument": 0, "track": 9, "qtime": 18, "isDrum": true}, {"time": 19, "velocity": 0, "pitch": 70, "instrument": 0, "track": 9, "qtime": 19, "isDrum": true}, {"time": 20, "velocity": 0, "pitch": 36, "instrument": 0, "track": 9, "qtime": 20, "isDrum": true}, {"time": 20, "velocity": 0, "pitch": 42, "instrument": 0, "track": 9, "qtime": 20, "isDrum": true}, {"time": 21, "velocity": 108, "pitch": 70, "instrument": 0, "track": 9, "qtime": 21, "isDrum": true}, {"time": 22, "velocity": 0, "pitch": 70, "instrument": 0, "track": 9, "qtime": 22, "isDrum": true}, {"time": 24, "velocity": 108, "pitch": 42, "instrument": 0, "track": 9, "qtime": 24, "isDrum": true}, {"time": 24, "velocity": 108, "pitch": 70, "instrument": 0, "track": 9, "qtime": 24, "isDrum": true}, {"time": 26, "velocity": 0, "pitch": 70, "instrument": 0, "track": 9, "qtime": 26, "isDrum": true}, {"time": 27, "velocity": 0, "pitch": 42, "instrument": 0, "track": 9, "qtime": 27, "isDrum": true}, {"time": 27, "velocity": 108, "pitch": 70, "instrument": 0, "track": 9, "qtime": 27, "isDrum": true}, {"time": 28, "velocity": 0, "pitch": 70, "instrument": 0, "track": 9, "qtime": 28, "isDrum": true}, {"time": 30, "velocity": 108, "pitch": 42, "instrument": 0, "track": 9, "qtime": 30, "isDrum": true}, {"time": 30, "velocity": 108, "pitch": 70, "instrument": 0, "track": 9, "qtime": 30, "isDrum": true}, {"time": 31, "velocity": 0, "pitch": 70, "instrument": 0, "track": 9, "qtime": 31, "isDrum": true}, {"time": 32, "velocity": 0, "pitch": 42, "instrument": 0, "track": 9, "qtime": 32, "isDrum": true}, {"time": 33, "velocity": 108, "pitch": 70, "instrument": 0, "track": 9, "qtime": 33, "isDrum": true}, {"time": 35, "velocity": 0, "pitch": 70, "instrument": 0, "track": 9, "qtime": 35, "isDrum": true}, {"time": 36, "velocity": 108, "pitch": 38, "instrument": 0, "track": 9, "qtime": 36, "isDrum": true}, {"time": 36, "velocity": 108, "pitch": 42, "instrument": 0, "track": 9, "qtime": 36, "isDrum": true}, {"time": 36, "velocity": 108, "pitch": 70, "instrument": 0, "track": 9, "qtime": 36, "isDrum": true}, {"time": 37, "velocity": 0, "pitch": 70, "instrument": 0, "track": 9, "qtime": 37, "isDrum": true}, {"time": 38, "velocity": 0, "pitch": 38, "instrument": 0, "track": 9, "qtime": 38, "isDrum": true}, {"time": 39, "velocity": 0, "pitch": 42, "instrument": 0, "track": 9, "qtime": 39, "isDrum": true}, {"time": 39, "velocity": 108, "pitch": 70, "instrument": 0, "track": 9, "qtime": 39, "isDrum": true}, {"time": 40, "velocity": 0, "pitch": 70, "instrument": 0, "track": 9, "qtime": 40, "isDrum": true}, {"time": 42, "velocity": 108, "pitch": 42, "instrument": 0, "track": 9, "qtime": 42, "isDrum": true}, {"time": 42, "velocity": 108, "pitch": 70, "instrument": 0, "track": 9, "qtime": 42, "isDrum": true}, {"time": 44, "velocity": 0, "pitch": 42, "instrument": 0, "track": 9, "qtime": 44, "isDrum": true}, {"time": 44, "velocity": 0, "pitch": 70, "instrument": 0, "track": 9, "qtime": 44, "isDrum": true}, {"time": 45, "velocity": 108, "pitch": 70, "instrument": 0, "track": 9, "qtime": 45, "isDrum": true}, {"time": 46, "velocity": 0, "pitch": 70, "instrument": 0, "track": 9, "qtime": 46, "isDrum": true}, {"time": 48, "velocity": 108, "pitch": 36, "instrument": 0, "track": 9, "qtime": 0, "isDrum": true}, {"time": 48, "velocity": 108, "pitch": 42, "instrument": 0, "track": 9, "qtime": 0, "isDrum": true}, {"time": 48, "velocity": 108, "pitch": 70, "instrument": 0, "track": 9, "qtime": 0, "isDrum": true}, {"time": 50, "velocity": 0, "pitch": 36, "instrument": 0, "track": 9, "qtime": 2, "isDrum": true}, {"time": 50, "velocity": 0, "pitch": 42, "instrument": 0, "track": 9, "qtime": 2, "isDrum": true}, {"time": 50, "velocity": 0, "pitch": 70, "instrument": 0, "track": 9, "qtime": 2, "isDrum": true}, {"time": 51, "velocity": 108, "pitch": 70, "instrument": 0, "track": 9, "qtime": 3, "isDrum": true}, {"time": 52, "velocity": 0, "pitch": 70, "instrument": 0, "track": 9, "qtime": 4, "isDrum": true}, {"time": 54, "velocity": 108, "pitch": 42, "instrument": 0, "track": 9, "qtime": 6, "isDrum": true}, {"time": 54, "velocity": 108, "pitch": 70, "instrument": 0, "track": 9, "qtime": 6, "isDrum": true}, {"time": 56, "velocity": 0, "pitch": 70, "instrument": 0, "track": 9, "qtime": 8, "isDrum": true}, {"time": 57, "velocity": 0, "pitch": 42, "instrument": 0, "track": 9, "qtime": 9, "isDrum": true}, {"time": 60, "velocity": 108, "pitch": 38, "instrument": 0, "track": 9, "qtime": 12, "isDrum": true}, {"time": 60, "velocity": 108, "pitch": 42, "instrument": 0, "track": 9, "qtime": 12, "isDrum": true}, {"time": 60, "velocity": 108, "pitch": 70, "instrument": 0, "track": 9, "qtime": 12, "isDrum": true}, {"time": 62, "velocity": 0, "pitch": 38, "instrument": 0, "track": 9, "qtime": 14, "isDrum": true}, {"time": 62, "velocity": 0, "pitch": 70, "instrument": 0, "track": 9, "qtime": 14, "isDrum": true}, {"time": 63, "velocity": 0, "pitch": 42, "instrument": 0, "track": 9, "qtime": 15, "isDrum": true}, {"time": 63, "velocity": 108, "pitch": 70, "instrument": 0, "track": 9, "qtime": 15, "isDrum": true}, {"time": 64, "velocity": 0, "pitch": 70, "instrument": 0, "track": 9, "qtime": 16, "isDrum": true}, {"time": 66, "velocity": 108, "pitch": 36, "instrument": 0, "track": 9, "qtime": 18, "isDrum": true}, {"time": 66, "velocity": 108, "pitch": 42, "instrument": 0, "track": 9, "qtime": 18, "isDrum": true}, {"time": 66, "velocity": 108, "pitch": 70, "instrument": 0, "track": 9, "qtime": 18, "isDrum": true}, {"time": 67, "velocity": 0, "pitch": 70, "instrument": 0, "track": 9, "qtime": 19, "isDrum": true}, {"time": 68, "velocity": 0, "pitch": 36, "instrument": 0, "track": 9, "qtime": 20, "isDrum": true}, {"time": 68, "velocity": 0, "pitch": 42, "instrument": 0, "track": 9, "qtime": 20, "isDrum": true}, {"time": 69, "velocity": 108, "pitch": 70, "instrument": 0, "track": 9, "qtime": 21, "isDrum": true}, {"time": 70, "velocity": 0, "pitch": 70, "instrument": 0, "track": 9, "qtime": 22, "isDrum": true}, {"time": 72, "velocity": 108, "pitch": 42, "instrument": 0, "track": 9, "qtime": 24, "isDrum": true}, {"time": 72, "velocity": 108, "pitch": 70, "instrument": 0, "track": 9, "qtime": 24, "isDrum": true}, {"time": 74, "velocity": 0, "pitch": 70, "instrument": 0, "track": 9, "qtime": 26, "isDrum": true}, {"time": 75, "velocity": 0, "pitch": 42, "instrument": 0, "track": 9, "qtime": 27, "isDrum": true}, {"time": 75, "velocity": 108, "pitch": 38, "instrument": 0, "track": 9, "qtime": 27, "isDrum": true}, {"time": 75, "velocity": 108, "pitch": 70, "instrument": 0, "track": 9, "qtime": 27, "isDrum": true}, {"time": 76, "velocity": 0, "pitch": 70, "instrument": 0, "track": 9, "qtime": 28, "isDrum": true}, {"time": 77, "velocity": 0, "pitch": 38, "instrument": 0, "track": 9, "qtime": 29, "isDrum": true}, {"time": 78, "velocity": 108, "pitch": 36, "instrument": 0, "track": 9, "qtime": 30, "isDrum": true}, {"time": 78, "velocity": 108, "pitch": 42, "instrument": 0, "track": 9, "qtime": 30, "isDrum": true}, {"time": 78, "velocity": 108, "pitch": 70, "instrument": 0, "track": 9, "qtime": 30, "isDrum": true}, {"time": 79, "velocity": 0, "pitch": 70, "instrument": 0, "track": 9, "qtime": 31, "isDrum": true}, {"time": 81, "velocity": 0, "pitch": 36, "instrument": 0, "track": 9, "qtime": 33, "isDrum": true}, {"time": 81, "velocity": 0, "pitch": 42, "instrument": 0, "track": 9, "qtime": 33, "isDrum": true}, {"time": 81, "velocity": 108, "pitch": 70, "instrument": 0, "track": 9, "qtime": 33, "isDrum": true}, {"time": 83, "velocity": 0, "pitch": 70, "instrument": 0, "track": 9, "qtime": 35, "isDrum": true}, {"time": 84, "velocity": 108, "pitch": 38, "instrument": 0, "track": 9, "qtime": 36, "isDrum": true}, {"time": 84, "velocity": 108, "pitch": 42, "instrument": 0, "track": 9, "qtime": 36, "isDrum": true}, {"time": 84, "velocity": 108, "pitch": 70, "instrument": 0, "track": 9, "qtime": 36, "isDrum": true}, {"time": 86, "velocity": 0, "pitch": 70, "instrument": 0, "track": 9, "qtime": 38, "isDrum": true}, {"time": 87, "velocity": 108, "pitch": 70, "instrument": 0, "track": 9, "qtime": 39, "isDrum": true}, {"time": 88, "velocity": 0, "pitch": 38, "instrument": 0, "track": 9, "qtime": 40, "isDrum": true}, {"time": 89, "velocity": 0, "pitch": 70, "instrument": 0, "track": 9, "qtime": 41, "isDrum": true}, {"time": 90, "velocity": 0, "pitch": 42, "instrument": 0, "track": 9, "qtime": 42, "isDrum": true}, {"time": 90, "velocity": 108, "pitch": 70, "instrument": 0, "track": 9, "qtime": 42, "isDrum": true}, {"time": 91, "velocity": 0, "pitch": 70, "instrument": 0, "track": 9, "qtime": 43, "isDrum": true}, {"time": 93, "velocity": 108, "pitch": 46, "instrument": 0, "track": 9, "qtime": 45, "isDrum": true}, {"time": 93, "velocity": 108, "pitch": 70, "instrument": 0, "track": 9, "qtime": 45, "isDrum": true}, {"time": 95, "velocity": 0, "pitch": 70, "instrument": 0, "track": 9, "qtime": 47, "isDrum": true}, {"time": 96, "velocity": 0, "pitch": 46, "instrument": 0, "track": 9, "qtime": 48, "isDrum": true}, {"time": 96, "velocity": 108, "pitch": 36, "instrument": 0, "track": 9, "qtime": 0, "isDrum": true}, {"time": 96, "velocity": 108, "pitch": 42, "instrument": 0, "track": 9, "qtime": 0, "isDrum": true}, {"time": 96, "velocity": 108, "pitch": 70, "instrument": 0, "track": 9, "qtime": 0, "isDrum": true}, {"time": 98, "velocity": 0, "pitch": 70, "instrument": 0, "track": 9, "qtime": 2, "isDrum": true}, {"time": 99, "velocity": 0, "pitch": 36, "instrument": 0, "track": 9, "qtime": 3, "isDrum": true}, {"time": 99, "velocity": 0, "pitch": 42, "instrument": 0, "track": 9, "qtime": 3, "isDrum": true}, {"time": 99, "velocity": 108, "pitch": 70, "instrument": 0, "track": 9, "qtime": 3, "isDrum": true}, {"time": 100, "velocity": 0, "pitch": 70, "instrument": 0, "track": 9, "qtime": 4, "isDrum": true}, {"time": 102, "velocity": 108, "pitch": 42, "instrument": 0, "track": 9, "qtime": 6, "isDrum": true}, {"time": 102, "velocity": 108, "pitch": 70, "instrument": 0, "track": 9, "qtime": 6, "isDrum": true}, {"time": 103, "velocity": 0, "pitch": 70, "instrument": 0, "track": 9, "qtime": 7, "isDrum": true}, {"time": 104, "velocity": 0, "pitch": 42, "instrument": 0, "track": 9, "qtime": 8, "isDrum": true}, {"time": 105, "velocity": 108, "pitch": 70, "instrument": 0, "track": 9, "qtime": 9, "isDrum": true}, {"time": 106, "velocity": 0, "pitch": 70, "instrument": 0, "track": 9, "qtime": 10, "isDrum": true}, {"time": 108, "velocity": 108, "pitch": 38, "instrument": 0, "track": 9, "qtime": 12, "isDrum": true}, {"time": 108, "velocity": 108, "pitch": 42, "instrument": 0, "track": 9, "qtime": 12, "isDrum": true}, {"time": 108, "velocity": 108, "pitch": 70, "instrument": 0, "track": 9, "qtime": 12, "isDrum": true}, {"time": 110, "velocity": 0, "pitch": 38, "instrument": 0, "track": 9, "qtime": 14, "isDrum": true}, {"time": 110, "velocity": 0, "pitch": 70, "instrument": 0, "track": 9, "qtime": 14, "isDrum": true}, {"time": 111, "velocity": 0, "pitch": 42, "instrument": 0, "track": 9, "qtime": 15, "isDrum": true}, {"time": 111, "velocity": 108, "pitch": 38, "instrument": 0, "track": 9, "qtime": 15, "isDrum": true}, {"time": 111, "velocity": 108, "pitch": 70, "instrument": 0, "track": 9, "qtime": 15, "isDrum": true}, {"time": 112, "velocity": 0, "pitch": 70, "instrument": 0, "track": 9, "qtime": 16, "isDrum": true}, {"time": 114, "velocity": 0, "pitch": 38, "instrument": 0, "track": 9, "qtime": 18, "isDrum": true}, {"time": 114, "velocity": 108, "pitch": 36, "instrument": 0, "track": 9, "qtime": 18, "isDrum": true}, {"time": 114, "velocity": 108, "pitch": 42, "instrument": 0, "track": 9, "qtime": 18, "isDrum": true}, {"time": 114, "velocity": 108, "pitch": 70, "instrument": 0, "track": 9, "qtime": 18, "isDrum": true}, {"time": 115, "velocity": 0, "pitch": 36, "instrument": 0, "track": 9, "qtime": 19, "isDrum": true}, {"time": 115, "velocity": 0, "pitch": 70, "instrument": 0, "track": 9, "qtime": 19, "isDrum": true}, {"time": 116, "velocity": 0, "pitch": 42, "instrument": 0, "track": 9, "qtime": 20, "isDrum": true}, {"time": 117, "velocity": 108, "pitch": 70, "instrument": 0, "track": 9, "qtime": 21, "isDrum": true}, {"time": 119, "velocity": 0, "pitch": 70, "instrument": 0, "track": 9, "qtime": 23, "isDrum": true}, {"time": 120, "velocity": 108, "pitch": 42, "instrument": 0, "track": 9, "qtime": 24, "isDrum": true}, {"time": 120, "velocity": 108, "pitch": 70, "instrument": 0, "track": 9, "qtime": 24, "isDrum": true}, {"time": 122, "velocity": 0, "pitch": 70, "instrument": 0, "track": 9, "qtime": 26, "isDrum": true}, {"time": 123, "velocity": 0, "pitch": 42, "instrument": 0, "track": 9, "qtime": 27, "isDrum": true}, {"time": 123, "velocity": 108, "pitch": 38, "instrument": 0, "track": 9, "qtime": 27, "isDrum": true}, {"time": 123, "velocity": 108, "pitch": 70, "instrument": 0, "track": 9, "qtime": 27, "isDrum": true}, {"time": 124, "velocity": 0, "pitch": 70, "instrument": 0, "track": 9, "qtime": 28, "isDrum": true}, {"time": 125, "velocity": 0, "pitch": 38, "instrument": 0, "track": 9, "qtime": 29, "isDrum": true}, {"time": 126, "velocity": 108, "pitch": 36, "instrument": 0, "track": 9, "qtime": 30, "isDrum": true}, {"time": 126, "velocity": 108, "pitch": 42, "instrument": 0, "track": 9, "qtime": 30, "isDrum": true}, {"time": 126, "velocity": 108, "pitch": 70, "instrument": 0, "track": 9, "qtime": 30, "isDrum": true}, {"time": 127, "velocity": 0, "pitch": 36, "instrument": 0, "track": 9, "qtime": 31, "isDrum": true}, {"time": 127, "velocity": 0, "pitch": 70, "instrument": 0, "track": 9, "qtime": 31, "isDrum": true}, {"time": 128, "velocity": 0, "pitch": 42, "instrument": 0, "track": 9, "qtime": 32, "isDrum": true}, {"time": 129, "velocity": 108, "pitch": 70, "instrument": 0, "track": 9, "qtime": 33, "isDrum": true}, {"time": 131, "velocity": 0, "pitch": 70, "instrument": 0, "track": 9, "qtime": 35, "isDrum": true}, {"time": 132, "velocity": 108, "pitch": 38, "instrument": 0, "track": 9, "qtime": 36, "isDrum": true}, {"time": 132, "velocity": 108, "pitch": 42, "instrument": 0, "track": 9, "qtime": 36, "isDrum": true}, {"time": 132, "velocity": 108, "pitch": 70, "instrument": 0, "track": 9, "qtime": 36, "isDrum": true}, {"time": 134, "velocity": 0, "pitch": 38, "instrument": 0, "track": 9, "qtime": 38, "isDrum": true}, {"time": 134, "velocity": 0, "pitch": 70, "instrument": 0, "track": 9, "qtime": 38, "isDrum": true}, {"time": 135, "velocity": 0, "pitch": 42, "instrument": 0, "track": 9, "qtime": 39, "isDrum": true}, {"time": 135, "velocity": 108, "pitch": 38, "instrument": 0, "track": 9, "qtime": 39, "isDrum": true}, {"time": 135, "velocity": 108, "pitch": 70, "instrument": 0, "track": 9, "qtime": 39, "isDrum": true}, {"time": 136, "velocity": 0, "pitch": 70, "instrument": 0, "track": 9, "qtime": 40, "isDrum": true}, {"time": 137, "velocity": 0, "pitch": 38, "instrument": 0, "track": 9, "qtime": 41, "isDrum": true}, {"time": 138, "velocity": 108, "pitch": 42, "instrument": 0, "track": 9, "qtime": 42, "isDrum": true}, {"time": 138, "velocity": 108, "pitch": 70, "instrument": 0, "track": 9, "qtime": 42, "isDrum": true}, {"time": 139, "velocity": 0, "pitch": 70, "instrument": 0, "track": 9, "qtime": 43, "isDrum": true}, {"time": 140, "velocity": 0, "pitch": 70, "instrument": 0, "track": 9, "qtime": 44, "isDrum": true}, {"time": 141, "velocity": 0, "pitch": 42, "instrument": 0, "track": 9, "qtime": 45, "isDrum": true}, {"time": 141, "velocity": 108, "pitch": 70, "instrument": 0, "track": 9, "qtime": 45, "isDrum": true}, {"time": 142, "velocity": 0, "pitch": 70, "instrument": 0, "track": 9, "qtime": 46, "isDrum": true}, {"time": 144, "velocity": 108, "pitch": 36, "instrument": 0, "track": 9, "qtime": 0, "isDrum": true}, {"time": 144, "velocity": 108, "pitch": 42, "instrument": 0, "track": 9, "qtime": 0, "isDrum": true}, {"time": 144, "velocity": 108, "pitch": 70, "instrument": 0, "track": 9, "qtime": 0, "isDrum": true}, {"time": 146, "velocity": 0, "pitch": 36, "instrument": 0, "track": 9, "qtime": 2, "isDrum": true}, {"time": 146, "velocity": 0, "pitch": 70, "instrument": 0, "track": 9, "qtime": 2, "isDrum": true}, {"time": 147, "velocity": 0, "pitch": 42, "instrument": 0, "track": 9, "qtime": 3, "isDrum": true}, {"time": 147, "velocity": 108, "pitch": 70, "instrument": 0, "track": 9, "qtime": 3, "isDrum": true}, {"time": 148, "velocity": 0, "pitch": 70, "instrument": 0, "track": 9, "qtime": 4, "isDrum": true}, {"time": 150, "velocity": 108, "pitch": 42, "instrument": 0, "track": 9, "qtime": 6, "isDrum": true}, {"time": 150, "velocity": 108, "pitch": 70, "instrument": 0, "track": 9, "qtime": 6, "isDrum": true}, {"time": 151, "velocity": 0, "pitch": 70, "instrument": 0, "track": 9, "qtime": 7, "isDrum": true}, {"time": 153, "velocity": 0, "pitch": 42, "instrument": 0, "track": 9, "qtime": 9, "isDrum": true}, {"time": 153, "velocity": 108, "pitch": 70, "instrument": 0, "track": 9, "qtime": 9, "isDrum": true}, {"time": 154, "velocity": 0, "pitch": 70, "instrument": 0, "track": 9, "qtime": 10, "isDrum": true}, {"time": 156, "velocity": 108, "pitch": 38, "instrument": 0, "track": 9, "qtime": 12, "isDrum": true}, {"time": 156, "velocity": 108, "pitch": 42, "instrument": 0, "track": 9, "qtime": 12, "isDrum": true}, {"time": 156, "velocity": 108, "pitch": 70, "instrument": 0, "track": 9, "qtime": 12, "isDrum": true}, {"time": 158, "velocity": 0, "pitch": 38, "instrument": 0, "track": 9, "qtime": 14, "isDrum": true}, {"time": 158, "velocity": 0, "pitch": 70, "instrument": 0, "track": 9, "qtime": 14, "isDrum": true}, {"time": 159, "velocity": 0, "pitch": 42, "instrument": 0, "track": 9, "qtime": 15, "isDrum": true}, {"time": 159, "velocity": 108, "pitch": 70, "instrument": 0, "track": 9, "qtime": 15, "isDrum": true}, {"time": 160, "velocity": 0, "pitch": 70, "instrument": 0, "track": 9, "qtime": 16, "isDrum": true}, {"time": 162, "velocity": 108, "pitch": 36, "instrument": 0, "track": 9, "qtime": 18, "isDrum": true}, {"time": 162, "velocity": 108, "pitch": 42, "instrument": 0, "track": 9, "qtime": 18, "isDrum": true}, {"time": 162, "velocity": 108, "pitch": 70, "instrument": 0, "track": 9, "qtime": 18, "isDrum": true}, {"time": 163, "velocity": 0, "pitch": 70, "instrument": 0, "track": 9, "qtime": 19, "isDrum": true}, {"time": 164, "velocity": 0, "pitch": 36, "instrument": 0, "track": 9, "qtime": 20, "isDrum": true}, {"time": 164, "velocity": 0, "pitch": 42, "instrument": 0, "track": 9, "qtime": 20, "isDrum": true}, {"time": 165, "velocity": 108, "pitch": 70, "instrument": 0, "track": 9, "qtime": 21, "isDrum": true}, {"time": 166, "velocity": 0, "pitch": 70, "instrument": 0, "track": 9, "qtime": 22, "isDrum": true}, {"time": 168, "velocity": 108, "pitch": 42, "instrument": 0, "track": 9, "qtime": 24, "isDrum": true}, {"time": 168, "velocity": 108, "pitch": 70, "instrument": 0, "track": 9, "qtime": 24, "isDrum": true}, {"time": 170, "velocity": 0, "pitch": 70, "instrument": 0, "track": 9, "qtime": 26, "isDrum": true}, {"time": 171, "velocity": 0, "pitch": 42, "instrument": 0, "track": 9, "qtime": 27, "isDrum": true}, {"time": 171, "velocity": 108, "pitch": 38, "instrument": 0, "track": 9, "qtime": 27, "isDrum": true}, {"time": 171, "velocity": 108, "pitch": 70, "instrument": 0, "track": 9, "qtime": 27, "isDrum": true}, {"time": 172, "velocity": 0, "pitch": 70, "instrument": 0, "track": 9, "qtime": 28, "isDrum": true}, {"time": 173, "velocity": 0, "pitch": 38, "instrument": 0, "track": 9, "qtime": 29, "isDrum": true}, {"time": 174, "velocity": 108, "pitch": 36, "instrument": 0, "track": 9, "qtime": 30, "isDrum": true}, {"time": 174, "velocity": 108, "pitch": 42, "instrument": 0, "track": 9, "qtime": 30, "isDrum": true}, {"time": 174, "velocity": 108, "pitch": 70, "instrument": 0, "track": 9, "qtime": 30, "isDrum": true}, {"time": 175, "velocity": 0, "pitch": 70, "instrument": 0, "track": 9, "qtime": 31, "isDrum": true}, {"time": 177, "velocity": 0, "pitch": 36, "instrument": 0, "track": 9, "qtime": 33, "isDrum": true}, {"time": 177, "velocity": 0, "pitch": 42, "instrument": 0, "track": 9, "qtime": 33, "isDrum": true}, {"time": 177, "velocity": 108, "pitch": 70, "instrument": 0, "track": 9, "qtime": 33, "isDrum": true}, {"time": 179, "velocity": 0, "pitch": 70, "instrument": 0, "track": 9, "qtime": 35, "isDrum": true}, {"time": 180, "velocity": 108, "pitch": 38, "instrument": 0, "track": 9, "qtime": 36, "isDrum": true}, {"time": 180, "velocity": 108, "pitch": 42, "instrument": 0, "track": 9, "qtime": 36, "isDrum": true}, {"time": 180, "velocity": 108, "pitch": 70, "instrument": 0, "track": 9, "qtime": 36, "isDrum": true}, {"time": 182, "velocity": 0, "pitch": 42, "instrument": 0, "track": 9, "qtime": 38, "isDrum": true}, {"time": 182, "velocity": 0, "pitch": 70, "instrument": 0, "track": 9, "qtime": 38, "isDrum": true}, {"time": 183, "velocity": 108, "pitch": 70, "instrument": 0, "track": 9, "qtime": 39, "isDrum": true}, {"time": 185, "velocity": 0, "pitch": 38, "instrument": 0, "track": 9, "qtime": 41, "isDrum": true}, {"time": 185, "velocity": 0, "pitch": 70, "instrument": 0, "track": 9, "qtime": 41, "isDrum": true}, {"time": 186, "velocity": 108, "pitch": 42, "instrument": 0, "track": 9, "qtime": 42, "isDrum": true}, {"time": 186, "velocity": 108, "pitch": 70, "instrument": 0, "track": 9, "qtime": 42, "isDrum": true}, {"time": 187, "velocity": 0, "pitch": 70, "instrument": 0, "track": 9, "qtime": 43, "isDrum": true}, {"time": 188, "velocity": 0, "pitch": 42, "instrument": 0, "track": 9, "qtime": 44, "isDrum": true}, {"time": 189, "velocity": 108, "pitch": 70, "instrument": 0, "track": 9, "qtime": 45, "isDrum": true}, {"time": 191, "velocity": 0, "pitch": 70, "instrument": 0, "track": 9, "qtime": 47, "isDrum": true}, {"time": 192, "velocity": 108, "pitch": 36, "instrument": 0, "track": 9, "qtime": 0, "isDrum": true}, {"time": 192, "velocity": 108, "pitch": 42, "instrument": 0, "track": 9, "qtime": 0, "isDrum": true}, {"time": 192, "velocity": 108, "pitch": 70, "instrument": 0, "track": 9, "qtime": 0, "isDrum": true}, {"time": 194, "velocity": 0, "pitch": 36, "instrument": 0, "track": 9, "qtime": 2, "isDrum": true}, {"time": 194, "velocity": 0, "pitch": 70, "instrument": 0, "track": 9, "qtime": 2, "isDrum": true}, {"time": 195, "velocity": 0, "pitch": 42, "instrument": 0, "track": 9, "qtime": 3, "isDrum": true}, {"time": 195, "velocity": 108, "pitch": 70, "instrument": 0, "track": 9, "qtime": 3, "isDrum": true}, {"time": 196, "velocity": 0, "pitch": 70, "instrument": 0, "track": 9, "qtime": 4, "isDrum": true}, {"time": 198, "velocity": 108, "pitch": 42, "instrument": 0, "track": 9, "qtime": 6, "isDrum": true}, {"time": 198, "velocity": 108, "pitch": 70, "instrument": 0, "track": 9, "qtime": 6, "isDrum": true}, {"time": 199, "velocity": 0, "pitch": 70, "instrument": 0, "track": 9, "qtime": 7, "isDrum": true}, {"time": 201, "velocity": 0, "pitch": 42, "instrument": 0, "track": 9, "qtime": 9, "isDrum": true}, {"time": 201, "velocity": 108, "pitch": 70, "instrument": 0, "track": 9, "qtime": 9, "isDrum": true}, {"time": 202, "velocity": 0, "pitch": 70, "instrument": 0, "track": 9, "qtime": 10, "isDrum": true}, {"time": 204, "velocity": 108, "pitch": 38, "instrument": 0, "track": 9, "qtime": 12, "isDrum": true}, {"time": 204, "velocity": 108, "pitch": 42, "instrument": 0, "track": 9, "qtime": 12, "isDrum": true}, {"time": 204, "velocity": 108, "pitch": 70, "instrument": 0, "track": 9, "qtime": 12, "isDrum": true}, {"time": 206, "velocity": 0, "pitch": 38, "instrument": 0, "track": 9, "qtime": 14, "isDrum": true}, {"time": 206, "velocity": 0, "pitch": 70, "instrument": 0, "track": 9, "qtime": 14, "isDrum": true}, {"time": 207, "velocity": 0, "pitch": 42, "instrument": 0, "track": 9, "qtime": 15, "isDrum": true}, {"time": 207, "velocity": 108, "pitch": 70, "instrument": 0, "track": 9, "qtime": 15, "isDrum": true}, {"time": 208, "velocity": 0, "pitch": 70, "instrument": 0, "track": 9, "qtime": 16, "isDrum": true}, {"time": 210, "velocity": 108, "pitch": 36, "instrument": 0, "track": 9, "qtime": 18, "isDrum": true}, {"time": 210, "velocity": 108, "pitch": 42, "instrument": 0, "track": 9, "qtime": 18, "isDrum": true}, {"time": 210, "velocity": 108, "pitch": 70, "instrument": 0, "track": 9, "qtime": 18, "isDrum": true}, {"time": 211, "velocity": 0, "pitch": 70, "instrument": 0, "track": 9, "qtime": 19, "isDrum": true}, {"time": 212, "velocity": 0, "pitch": 36, "instrument": 0, "track": 9, "qtime": 20, "isDrum": true}, {"time": 212, "velocity": 0, "pitch": 42, "instrument": 0, "track": 9, "qtime": 20, "isDrum": true}, {"time": 213, "velocity": 108, "pitch": 70, "instrument": 0, "track": 9, "qtime": 21, "isDrum": true}, {"time": 215, "velocity": 0, "pitch": 70, "instrument": 0, "track": 9, "qtime": 23, "isDrum": true}, {"time": 216, "velocity": 108, "pitch": 42, "instrument": 0, "track": 9, "qtime": 24, "isDrum": true}, {"time": 216, "velocity": 108, "pitch": 70, "instrument": 0, "track": 9, "qtime": 24, "isDrum": true}, {"time": 218, "velocity": 0, "pitch": 70, "instrument": 0, "track": 9, "qtime": 26, "isDrum": true}, {"time": 219, "velocity": 0, "pitch": 42, "instrument": 0, "track": 9, "qtime": 27, "isDrum": true}, {"time": 219, "velocity": 108, "pitch": 38, "instrument": 0, "track": 9, "qtime": 27, "isDrum": true}, {"time": 219, "velocity": 108, "pitch": 70, "instrument": 0, "track": 9, "qtime": 27, "isDrum": true}, {"time": 220, "velocity": 0, "pitch": 70, "instrument": 0, "track": 9, "qtime": 28, "isDrum": true}, {"time": 221, "velocity": 0, "pitch": 38, "instrument": 0, "track": 9, "qtime": 29, "isDrum": true}, {"time": 222, "velocity": 108, "pitch": 36, "instrument": 0, "track": 9, "qtime": 30, "isDrum": true}, {"time": 222, "velocity": 108, "pitch": 42, "instrument": 0, "track": 9, "qtime": 30, "isDrum": true}, {"time": 222, "velocity": 108, "pitch": 70, "instrument": 0, "track": 9, "qtime": 30, "isDrum": true}, {"time": 223, "velocity": 0, "pitch": 70, "instrument": 0, "track": 9, "qtime": 31, "isDrum": true}, {"time": 224, "velocity": 0, "pitch": 36, "instrument": 0, "track": 9, "qtime": 32, "isDrum": true}, {"time": 225, "velocity": 0, "pitch": 42, "instrument": 0, "track": 9, "qtime": 33, "isDrum": true}, {"time": 225, "velocity": 108, "pitch": 70, "instrument": 0, "track": 9, "qtime": 33, "isDrum": true}, {"time": 226, "velocity": 0, "pitch": 70, "instrument": 0, "track": 9, "qtime": 34, "isDrum": true}, {"time": 228, "velocity": 108, "pitch": 38, "instrument": 0, "track": 9, "qtime": 36, "isDrum": true}, {"time": 228, "velocity": 108, "pitch": 42, "instrument": 0, "track": 9, "qtime": 36, "isDrum": true}, {"time": 228, "velocity": 108, "pitch": 70, "instrument": 0, "track": 9, "qtime": 36, "isDrum": true}, {"time": 229, "velocity": 0, "pitch": 70, "instrument": 0, "track": 9, "qtime": 37, "isDrum": true}, {"time": 230, "velocity": 0, "pitch": 38, "instrument": 0, "track": 9, "qtime": 38, "isDrum": true}, {"time": 231, "velocity": 0, "pitch": 42, "instrument": 0, "track": 9, "qtime": 39, "isDrum": true}, {"time": 231, "velocity": 108, "pitch": 70, "instrument": 0, "track": 9, "qtime": 39, "isDrum": true}, {"time": 232, "velocity": 0, "pitch": 70, "instrument": 0, "track": 9, "qtime": 40, "isDrum": true}, {"time": 234, "velocity": 108, "pitch": 42, "instrument": 0, "track": 9, "qtime": 42, "isDrum": true}, {"time": 234, "velocity": 108, "pitch": 70, "instrument": 0, "track": 9, "qtime": 42, "isDrum": true}, {"time": 235, "velocity": 0, "pitch": 70, "instrument": 0, "track": 9, "qtime": 43, "isDrum": true}, {"time": 236, "velocity": 0, "pitch": 42, "instrument": 0, "track": 9, "qtime": 44, "isDrum": true}, {"time": 237, "velocity": 108, "pitch": 70, "instrument": 0, "track": 9, "qtime": 45, "isDrum": true}, {"time": 239, "velocity": 0, "pitch": 70, "instrument": 0, "track": 9, "qtime": 47, "isDrum": true}, {"time": 240, "velocity": 108, "pitch": 36, "instrument": 0, "track": 9, "qtime": 0, "isDrum": true}, {"time": 240, "velocity": 108, "pitch": 42, "instrument": 0, "track": 9, "qtime": 0, "isDrum": true}, {"time": 240, "velocity": 108, "pitch": 70, "instrument": 0, "track": 9, "qtime": 0, "isDrum": true}, {"time": 242, "velocity": 0, "pitch": 36, "instrument": 0, "track": 9, "qtime": 2, "isDrum": true}, {"time": 242, "velocity": 0, "pitch": 70, "instrument": 0, "track": 9, "qtime": 2, "isDrum": true}, {"time": 243, "velocity": 0, "pitch": 42, "instrument": 0, "track": 9, "qtime": 3, "isDrum": true}, {"time": 243, "velocity": 108, "pitch": 70, "instrument": 0, "track": 9, "qtime": 3, "isDrum": true}, {"time": 244, "velocity": 0, "pitch": 70, "instrument": 0, "track": 9, "qtime": 4, "isDrum": true}, {"time": 246, "velocity": 108, "pitch": 42, "instrument": 0, "track": 9, "qtime": 6, "isDrum": true}, {"time": 246, "velocity": 108, "pitch": 70, "instrument": 0, "track": 9, "qtime": 6, "isDrum": true}, {"time": 247, "velocity": 0, "pitch": 70, "instrument": 0, "track": 9, "qtime": 7, "isDrum": true}, {"time": 249, "velocity": 0, "pitch": 42, "instrument": 0, "track": 9, "qtime": 9, "isDrum": true}, {"time": 249, "velocity": 108, "pitch": 70, "instrument": 0, "track": 9, "qtime": 9, "isDrum": true}, {"time": 251, "velocity": 0, "pitch": 70, "instrument": 0, "track": 9, "qtime": 11, "isDrum": true}, {"time": 252, "velocity": 108, "pitch": 38, "instrument": 0, "track": 9, "qtime": 12, "isDrum": true}, {"time": 252, "velocity": 108, "pitch": 42, "instrument": 0, "track": 9, "qtime": 12, "isDrum": true}, {"time": 252, "velocity": 108, "pitch": 70, "instrument": 0, "track": 9, "qtime": 12, "isDrum": true}, {"time": 254, "velocity": 0, "pitch": 38, "instrument": 0, "track": 9, "qtime": 14, "isDrum": true}, {"time": 254, "velocity": 0, "pitch": 42, "instrument": 0, "track": 9, "qtime": 14, "isDrum": true}, {"time": 254, "velocity": 0, "pitch": 70, "instrument": 0, "track": 9, "qtime": 14, "isDrum": true}, {"time": 255, "velocity": 108, "pitch": 70, "instrument": 0, "track": 9, "qtime": 15, "isDrum": true}, {"time": 256, "velocity": 0, "pitch": 70, "instrument": 0, "track": 9, "qtime": 16, "isDrum": true}, {"time": 258, "velocity": 108, "pitch": 36, "instrument": 0, "track": 9, "qtime": 18, "isDrum": true}, {"time": 258, "velocity": 108, "pitch": 42, "instrument": 0, "track": 9, "qtime": 18, "isDrum": true}, {"time": 258, "velocity": 108, "pitch": 70, "instrument": 0, "track": 9, "qtime": 18, "isDrum": true}, {"time": 259, "velocity": 0, "pitch": 70, "instrument": 0, "track": 9, "qtime": 19, "isDrum": true}, {"time": 260, "velocity": 0, "pitch": 36, "instrument": 0, "track": 9, "qtime": 20, "isDrum": true}, {"time": 260, "velocity": 0, "pitch": 42, "instrument": 0, "track": 9, "qtime": 20, "isDrum": true}, {"time": 261, "velocity": 108, "pitch": 70, "instrument": 0, "track": 9, "qtime": 21, "isDrum": true}, {"time": 262, "velocity": 0, "pitch": 70, "instrument": 0, "track": 9, "qtime": 22, "isDrum": true}, {"time": 264, "velocity": 108, "pitch": 42, "instrument": 0, "track": 9, "qtime": 24, "isDrum": true}, {"time": 264, "velocity": 108, "pitch": 70, "instrument": 0, "track": 9, "qtime": 24, "isDrum": true}, {"time": 266, "velocity": 0, "pitch": 70, "instrument": 0, "track": 9, "qtime": 26, "isDrum": true}, {"time": 267, "velocity": 0, "pitch": 42, "instrument": 0, "track": 9, "qtime": 27, "isDrum": true}, {"time": 267, "velocity": 108, "pitch": 38, "instrument": 0, "track": 9, "qtime": 27, "isDrum": true}, {"time": 267, "velocity": 108, "pitch": 70, "instrument": 0, "track": 9, "qtime": 27, "isDrum": true}, {"time": 268, "velocity": 0, "pitch": 38, "instrument": 0, "track": 9, "qtime": 28, "isDrum": true}, {"time": 268, "velocity": 0, "pitch": 70, "instrument": 0, "track": 9, "qtime": 28, "isDrum": true}, {"time": 270, "velocity": 108, "pitch": 36, "instrument": 0, "track": 9, "qtime": 30, "isDrum": true}, {"time": 270, "velocity": 108, "pitch": 42, "instrument": 0, "track": 9, "qtime": 30, "isDrum": true}, {"time": 270, "velocity": 108, "pitch": 70, "instrument": 0, "track": 9, "qtime": 30, "isDrum": true}, {"time": 271, "velocity": 0, "pitch": 70, "instrument": 0, "track": 9, "qtime": 31, "isDrum": true}, {"time": 272, "velocity": 0, "pitch": 36, "instrument": 0, "track": 9, "qtime": 32, "isDrum": true}, {"time": 272, "velocity": 0, "pitch": 42, "instrument": 0, "track": 9, "qtime": 32, "isDrum": true}, {"time": 273, "velocity": 108, "pitch": 70, "instrument": 0, "track": 9, "qtime": 33, "isDrum": true}, {"time": 274, "velocity": 0, "pitch": 70, "instrument": 0, "track": 9, "qtime": 34, "isDrum": true}, {"time": 276, "velocity": 108, "pitch": 38, "instrument": 0, "track": 9, "qtime": 36, "isDrum": true}, {"time": 276, "velocity": 108, "pitch": 42, "instrument": 0, "track": 9, "qtime": 36, "isDrum": true}, {"time": 276, "velocity": 108, "pitch": 70, "instrument": 0, "track": 9, "qtime": 36, "isDrum": true}, {"time": 277, "velocity": 0, "pitch": 70, "instrument": 0, "track": 9, "qtime": 37, "isDrum": true}, {"time": 278, "velocity": 0, "pitch": 38, "instrument": 0, "track": 9, "qtime": 38, "isDrum": true}, {"time": 279, "velocity": 0, "pitch": 42, "instrument": 0, "track": 9, "qtime": 39, "isDrum": true}, {"time": 279, "velocity": 108, "pitch": 70, "instrument": 0, "track": 9, "qtime": 39, "isDrum": true}, {"time": 281, "velocity": 0, "pitch": 70, "instrument": 0, "track": 9, "qtime": 41, "isDrum": true}, {"time": 282, "velocity": 108, "pitch": 42, "instrument": 0, "track": 9, "qtime": 42, "isDrum": true}, {"time": 282, "velocity": 108, "pitch": 70, "instrument": 0, "track": 9, "qtime": 42, "isDrum": true}, {"time": 283, "velocity": 0, "pitch": 70, "instrument": 0, "track": 9, "qtime": 43, "isDrum": true}, {"time": 284, "velocity": 0, "pitch": 42, "instrument": 0, "track": 9, "qtime": 44, "isDrum": true}, {"time": 285, "velocity": 108, "pitch": 70, "instrument": 0, "track": 9, "qtime": 45, "isDrum": true}, {"time": 287, "velocity": 0, "pitch": 70, "instrument": 0, "track": 9, "qtime": 47, "isDrum": true}, {"time": 288, "velocity": 108, "pitch": 36, "instrument": 0, "track": 9, "qtime": 0, "isDrum": true}, {"time": 288, "velocity": 108, "pitch": 42, "instrument": 0, "track": 9, "qtime": 0, "isDrum": true}, {"time": 288, "velocity": 108, "pitch": 70, "instrument": 0, "track": 9, "qtime": 0, "isDrum": true}, {"time": 290, "velocity": 0, "pitch": 36, "instrument": 0, "track": 9, "qtime": 2, "isDrum": true}, {"time": 290, "velocity": 0, "pitch": 70, "instrument": 0, "track": 9, "qtime": 2, "isDrum": true}, {"time": 291, "velocity": 0, "pitch": 42, "instrument": 0, "track": 9, "qtime": 3, "isDrum": true}, {"time": 291, "velocity": 108, "pitch": 70, "instrument": 0, "track": 9, "qtime": 3, "isDrum": true}, {"time": 292, "velocity": 0, "pitch": 70, "instrument": 0, "track": 9, "qtime": 4, "isDrum": true}, {"time": 294, "velocity": 108, "pitch": 42, "instrument": 0, "track": 9, "qtime": 6, "isDrum": true}, {"time": 294, "velocity": 108, "pitch": 70, "instrument": 0, "track": 9, "qtime": 6, "isDrum": true}, {"time": 295, "velocity": 0, "pitch": 70, "instrument": 0, "track": 9, "qtime": 7, "isDrum": true}, {"time": 297, "velocity": 0, "pitch": 42, "instrument": 0, "track": 9, "qtime": 9, "isDrum": true}, {"time": 297, "velocity": 108, "pitch": 70, "instrument": 0, "track": 9, "qtime": 9, "isDrum": true}, {"time": 298, "velocity": 0, "pitch": 70, "instrument": 0, "track": 9, "qtime": 10, "isDrum": true}, {"time": 300, "velocity": 108, "pitch": 38, "instrument": 0, "track": 9, "qtime": 12, "isDrum": true}, {"time": 300, "velocity": 108, "pitch": 42, "instrument": 0, "track": 9, "qtime": 12, "isDrum": true}, {"time": 300, "velocity": 108, "pitch": 70, "instrument": 0, "track": 9, "qtime": 12, "isDrum": true}, {"time": 302, "velocity": 0, "pitch": 38, "instrument": 0, "track": 9, "qtime": 14, "isDrum": true}, {"time": 302, "velocity": 0, "pitch": 70, "instrument": 0, "track": 9, "qtime": 14, "isDrum": true}, {"time": 303, "velocity": 0, "pitch": 42, "instrument": 0, "track": 9, "qtime": 15, "isDrum": true}, {"time": 303, "velocity": 108, "pitch": 70, "instrument": 0, "track": 9, "qtime": 15, "isDrum": true}, {"time": 304, "velocity": 0, "pitch": 70, "instrument": 0, "track": 9, "qtime": 16, "isDrum": true}, {"time": 306, "velocity": 108, "pitch": 36, "instrument": 0, "track": 9, "qtime": 18, "isDrum": true}, {"time": 306, "velocity": 108, "pitch": 42, "instrument": 0, "track": 9, "qtime": 18, "isDrum": true}, {"time": 306, "velocity": 108, "pitch": 70, "instrument": 0, "track": 9, "qtime": 18, "isDrum": true}, {"time": 307, "velocity": 0, "pitch": 70, "instrument": 0, "track": 9, "qtime": 19, "isDrum": true}, {"time": 308, "velocity": 0, "pitch": 36, "instrument": 0, "track": 9, "qtime": 20, "isDrum": true}, {"time": 308, "velocity": 0, "pitch": 42, "instrument": 0, "track": 9, "qtime": 20, "isDrum": true}, {"time": 309, "velocity": 108, "pitch": 70, "instrument": 0, "track": 9, "qtime": 21, "isDrum": true}, {"time": 310, "velocity": 0, "pitch": 70, "instrument": 0, "track": 9, "qtime": 22, "isDrum": true}, {"time": 312, "velocity": 108, "pitch": 42, "instrument": 0, "track": 9, "qtime": 24, "isDrum": true}, {"time": 312, "velocity": 108, "pitch": 70, "instrument": 0, "track": 9, "qtime": 24, "isDrum": true}, {"time": 314, "velocity": 0, "pitch": 70, "instrument": 0, "track": 9, "qtime": 26, "isDrum": true}, {"time": 315, "velocity": 0, "pitch": 42, "instrument": 0, "track": 9, "qtime": 27, "isDrum": true}, {"time": 315, "velocity": 108, "pitch": 38, "instrument": 0, "track": 9, "qtime": 27, "isDrum": true}, {"time": 315, "velocity": 108, "pitch": 70, "instrument": 0, "track": 9, "qtime": 27, "isDrum": true}, {"time": 316, "velocity": 0, "pitch": 70, "instrument": 0, "track": 9, "qtime": 28, "isDrum": true}, {"time": 317, "velocity": 0, "pitch": 38, "instrument": 0, "track": 9, "qtime": 29, "isDrum": true}, {"time": 318, "velocity": 108, "pitch": 36, "instrument": 0, "track": 9, "qtime": 30, "isDrum": true}, {"time": 318, "velocity": 108, "pitch": 42, "instrument": 0, "track": 9, "qtime": 30, "isDrum": true}, {"time": 318, "velocity": 108, "pitch": 70, "instrument": 0, "track": 9, "qtime": 30, "isDrum": true}, {"time": 319, "velocity": 0, "pitch": 70, "instrument": 0, "track": 9, "qtime": 31, "isDrum": true}, {"time": 320, "velocity": 0, "pitch": 36, "instrument": 0, "track": 9, "qtime": 32, "isDrum": true}, {"time": 320, "velocity": 0, "pitch": 42, "instrument": 0, "track": 9, "qtime": 32, "isDrum": true}, {"time": 321, "velocity": 108, "pitch": 70, "instrument": 0, "track": 9, "qtime": 33, "isDrum": true}, {"time": 322, "velocity": 0, "pitch": 70, "instrument": 0, "track": 9, "qtime": 34, "isDrum": true}, {"time": 324, "velocity": 108, "pitch": 38, "instrument": 0, "track": 9, "qtime": 36, "isDrum": true}, {"time": 324, "velocity": 108, "pitch": 42, "instrument": 0, "track": 9, "qtime": 36, "isDrum": true}, {"time": 324, "velocity": 108, "pitch": 70, "instrument": 0, "track": 9, "qtime": 36, "isDrum": true}, {"time": 326, "velocity": 0, "pitch": 70, "instrument": 0, "track": 9, "qtime": 38, "isDrum": true}, {"time": 327, "velocity": 0, "pitch": 42, "instrument": 0, "track": 9, "qtime": 39, "isDrum": true}, {"time": 327, "velocity": 108, "pitch": 70, "instrument": 0, "track": 9, "qtime": 39, "isDrum": true}, {"time": 328, "velocity": 0, "pitch": 70, "instrument": 0, "track": 9, "qtime": 40, "isDrum": true}, {"time": 329, "velocity": 0, "pitch": 38, "instrument": 0, "track": 9, "qtime": 41, "isDrum": true}, {"time": 330, "velocity": 108, "pitch": 42, "instrument": 0, "track": 9, "qtime": 42, "isDrum": true}, {"time": 330, "velocity": 108, "pitch": 70, "instrument": 0, "track": 9, "qtime": 42, "isDrum": true}, {"time": 332, "velocity": 0, "pitch": 70, "instrument": 0, "track": 9, "qtime": 44, "isDrum": true}, {"time": 333, "velocity": 0, "pitch": 42, "instrument": 0, "track": 9, "qtime": 45, "isDrum": true}, {"time": 333, "velocity": 108, "pitch": 70, "instrument": 0, "track": 9, "qtime": 45, "isDrum": true}, {"time": 334, "velocity": 0, "pitch": 70, "instrument": 0, "track": 9, "qtime": 46, "isDrum": true}, {"time": 336, "velocity": 108, "pitch": 36, "instrument": 0, "track": 9, "qtime": 0, "isDrum": true}, {"time": 336, "velocity": 108, "pitch": 42, "instrument": 0, "track": 9, "qtime": 0, "isDrum": true}, {"time": 336, "velocity": 108, "pitch": 55, "instrument": 0, "track": 9, "qtime": 0, "isDrum": true}, {"time": 336, "velocity": 108, "pitch": 70, "instrument": 0, "track": 9, "qtime": 0, "isDrum": true}, {"time": 338, "velocity": 0, "pitch": 36, "instrument": 0, "track": 9, "qtime": 2, "isDrum": true}, {"time": 338, "velocity": 0, "pitch": 70, "instrument": 0, "track": 9, "qtime": 2, "isDrum": true}, {"time": 339, "velocity": 0, "pitch": 42, "instrument": 0, "track": 9, "qtime": 3, "isDrum": true}, {"time": 339, "velocity": 108, "pitch": 70, "instrument": 0, "track": 9, "qtime": 3, "isDrum": true}, {"time": 340, "velocity": 0, "pitch": 70, "instrument": 0, "track": 9, "qtime": 4, "isDrum": true}, {"time": 342, "velocity": 108, "pitch": 42, "instrument": 0, "track": 9, "qtime": 6, "isDrum": true}, {"time": 342, "velocity": 108, "pitch": 70, "instrument": 0, "track": 9, "qtime": 6, "isDrum": true}, {"time": 344, "velocity": 0, "pitch": 70, "instrument": 0, "track": 9, "qtime": 8, "isDrum": true}, {"time": 345, "velocity": 0, "pitch": 42, "instrument": 0, "track": 9, "qtime": 9, "isDrum": true}, {"time": 345, "velocity": 108, "pitch": 70, "instrument": 0, "track": 9, "qtime": 9, "isDrum": true}, {"time": 347, "velocity": 0, "pitch": 70, "instrument": 0, "track": 9, "qtime": 11, "isDrum": true}, {"time": 348, "velocity": 108, "pitch": 38, "instrument": 0, "track": 9, "qtime": 12, "isDrum": true}, {"time": 348, "velocity": 108, "pitch": 42, "instrument": 0, "track": 9, "qtime": 12, "isDrum": true}, {"time": 348, "velocity": 108, "pitch": 70, "instrument": 0, "track": 9, "qtime": 12, "isDrum": true}, {"time": 350, "velocity": 0, "pitch": 70, "instrument": 0, "track": 9, "qtime": 14, "isDrum": true}, {"time": 351, "velocity": 0, "pitch": 38, "instrument": 0, "track": 9, "qtime": 15, "isDrum": true}, {"time": 351, "velocity": 0, "pitch": 42, "instrument": 0, "track": 9, "qtime": 15, "isDrum": true}, {"time": 351, "velocity": 108, "pitch": 70, "instrument": 0, "track": 9, "qtime": 15, "isDrum": true}, {"time": 353, "velocity": 0, "pitch": 70, "instrument": 0, "track": 9, "qtime": 17, "isDrum": true}, {"time": 354, "velocity": 0, "pitch": 55, "instrument": 0, "track": 9, "qtime": 18, "isDrum": true}, {"time": 354, "velocity": 108, "pitch": 36, "instrument": 0, "track": 9, "qtime": 18, "isDrum": true}, {"time": 354, "velocity": 108, "pitch": 42, "instrument": 0, "track": 9, "qtime": 18, "isDrum": true}, {"time": 354, "velocity": 108, "pitch": 70, "instrument": 0, "track": 9, "qtime": 18, "isDrum": true}, {"time": 355, "velocity": 0, "pitch": 70, "instrument": 0, "track": 9, "qtime": 19, "isDrum": true}, {"time": 356, "velocity": 0, "pitch": 36, "instrument": 0, "track": 9, "qtime": 20, "isDrum": true}, {"time": 356, "velocity": 0, "pitch": 42, "instrument": 0, "track": 9, "qtime": 20, "isDrum": true}, {"time": 357, "velocity": 108, "pitch": 70, "instrument": 0, "track": 9, "qtime": 21, "isDrum": true}, {"time": 358, "velocity": 0, "pitch": 70, "instrument": 0, "track": 9, "qtime": 22, "isDrum": true}, {"time": 360, "velocity": 108, "pitch": 42, "instrument": 0, "track": 9, "qtime": 24, "isDrum": true}, {"time": 360, "velocity": 108, "pitch": 70, "instrument": 0, "track": 9, "qtime": 24, "isDrum": true}, {"time": 362, "velocity": 0, "pitch": 70, "instrument": 0, "track": 9, "qtime": 26, "isDrum": true}, {"time": 363, "velocity": 0, "pitch": 42, "instrument": 0, "track": 9, "qtime": 27, "isDrum": true}, {"time": 363, "velocity": 108, "pitch": 70, "instrument": 0, "track": 9, "qtime": 27, "isDrum": true}, {"time": 364, "velocity": 0, "pitch": 70, "instrument": 0, "track": 9, "qtime": 28, "isDrum": true}, {"time": 366, "velocity": 108, "pitch": 36, "instrument": 0, "track": 9, "qtime": 30, "isDrum": true}, {"time": 366, "velocity": 108, "pitch": 42, "instrument": 0, "track": 9, "qtime": 30, "isDrum": true}, {"time": 366, "velocity": 108, "pitch": 70, "instrument": 0, "track": 9, "qtime": 30, "isDrum": true}, {"time": 367, "velocity": 0, "pitch": 70, "instrument": 0, "track": 9, "qtime": 31, "isDrum": true}, {"time": 369, "velocity": 0, "pitch": 36, "instrument": 0, "track": 9, "qtime": 33, "isDrum": true}, {"time": 369, "velocity": 0, "pitch": 42, "instrument": 0, "track": 9, "qtime": 33, "isDrum": true}, {"time": 369, "velocity": 108, "pitch": 70, "instrument": 0, "track": 9, "qtime": 33, "isDrum": true}, {"time": 370, "velocity": 0, "pitch": 70, "instrument": 0, "track": 9, "qtime": 34, "isDrum": true}, {"time": 372, "velocity": 108, "pitch": 38, "instrument": 0, "track": 9, "qtime": 36, "isDrum": true}, {"time": 372, "velocity": 108, "pitch": 42, "instrument": 0, "track": 9, "qtime": 36, "isDrum": true}, {"time": 372, "velocity": 108, "pitch": 70, "instrument": 0, "track": 9, "qtime": 36, "isDrum": true}, {"time": 373, "velocity": 0, "pitch": 70, "instrument": 0, "track": 9, "qtime": 37, "isDrum": true}, {"time": 374, "velocity": 0, "pitch": 38, "instrument": 0, "track": 9, "qtime": 38, "isDrum": true}, {"time": 375, "velocity": 0, "pitch": 42, "instrument": 0, "track": 9, "qtime": 39, "isDrum": true}, {"time": 375, "velocity": 108, "pitch": 70, "instrument": 0, "track": 9, "qtime": 39, "isDrum": true}, {"time": 376, "velocity": 0, "pitch": 70, "instrument": 0, "track": 9, "qtime": 40, "isDrum": true}, {"time": 378, "velocity": 108, "pitch": 42, "instrument": 0, "track": 9, "qtime": 42, "isDrum": true}, {"time": 378, "velocity": 108, "pitch": 70, "instrument": 0, "track": 9, "qtime": 42, "isDrum": true}, {"time": 379, "velocity": 0, "pitch": 70, "instrument": 0, "track": 9, "qtime": 43, "isDrum": true}, {"time": 380, "velocity": 0, "pitch": 42, "instrument": 0, "track": 9, "qtime": 44, "isDrum": true}, {"time": 381, "velocity": 108, "pitch": 70, "instrument": 0, "track": 9, "qtime": 45, "isDrum": true}, {"time": 382, "velocity": 0, "pitch": 70, "instrument": 0, "track": 9, "qtime": 46, "isDrum": true}, {"time": 8, "velocity": 0, "pitch": 60, "instrument": 24, "track": 3, "qtime": 8, "isDrum": false}, {"time": 12, "velocity": 108, "pitch": 56, "instrument": 24, "track": 3, "qtime": 12, "isDrum": false}, {"time": 15, "velocity": 0, "pitch": 56, "instrument": 24, "track": 3, "qtime": 15, "isDrum": false}, {"time": 18, "velocity": 108, "pitch": 56, "instrument": 24, "track": 3, "qtime": 18, "isDrum": false}, {"time": 23, "velocity": 0, "pitch": 56, "instrument": 24, "track": 3, "qtime": 23, "isDrum": false}, {"time": 24, "velocity": 108, "pitch": 65, "instrument": 24, "track": 3, "qtime": 24, "isDrum": false}, {"time": 29, "velocity": 0, "pitch": 65, "instrument": 24, "track": 3, "qtime": 29, "isDrum": false}, {"time": 30, "velocity": 108, "pitch": 63, "instrument": 24, "track": 3, "qtime": 30, "isDrum": false}, {"time": 35, "velocity": 0, "pitch": 63, "instrument": 24, "track": 3, "qtime": 35, "isDrum": false}, {"time": 36, "velocity": 108, "pitch": 61, "instrument": 24, "track": 3, "qtime": 36, "isDrum": false}, {"time": 45, "velocity": 0, "pitch": 61, "instrument": 24, "track": 3, "qtime": 45, "isDrum": false}, {"time": 60, "velocity": 108, "pitch": 56, "instrument": 24, "track": 3, "qtime": 12, "isDrum": false}, {"time": 67, "velocity": 0, "pitch": 56, "instrument": 24, "track": 3, "qtime": 19, "isDrum": false}, {"time": 72, "velocity": 108, "pitch": 55, "instrument": 24, "track": 3, "qtime": 24, "isDrum": false}, {"time": 81, "velocity": 0, "pitch": 55, "instrument": 24, "track": 3, "qtime": 33, "isDrum": false}, {"time": 84, "velocity": 108, "pitch": 53, "instrument": 24, "track": 3, "qtime": 36, "isDrum": false}, {"time": 92, "velocity": 0, "pitch": 53, "instrument": 24, "track": 3, "qtime": 44, "isDrum": false}, {"time": 96, "velocity": 108, "pitch": 53, "instrument": 24, "track": 3, "qtime": 0, "isDrum": false}, {"time": 101, "velocity": 0, "pitch": 53, "instrument": 24, "track": 3, "qtime": 5, "isDrum": false}, {"time": 102, "velocity": 108, "pitch": 51, "instrument": 24, "track": 3, "qtime": 6, "isDrum": false}, {"time": 109, "velocity": 0, "pitch": 51, "instrument": 24, "track": 3, "qtime": 13, "isDrum": false}, {"time": 126, "velocity": 108, "pitch": 63, "instrument": 24, "track": 3, "qtime": 30, "isDrum": false}, {"time": 131, "velocity": 0, "pitch": 63, "instrument": 24, "track": 3, "qtime": 35, "isDrum": false}, {"time": 132, "velocity": 108, "pitch": 63, "instrument": 24, "track": 3, "qtime": 36, "isDrum": false}, {"time": 142, "velocity": 0, "pitch": 63, "instrument": 24, "track": 3, "qtime": 46, "isDrum": false}, {"time": 144, "velocity": 108, "pitch": 61, "instrument": 24, "track": 3, "qtime": 0, "isDrum": false}, {"time": 155, "velocity": 0, "pitch": 61, "instrument": 24, "track": 3, "qtime": 11, "isDrum": false}, {"time": 156, "velocity": 108, "pitch": 60, "instrument": 24, "track": 3, "qtime": 12, "isDrum": false}, {"time": 158, "velocity": 0, "pitch": 60, "instrument": 24, "track": 3, "qtime": 14, "isDrum": false}, {"time": 162, "velocity": 108, "pitch": 60, "instrument": 24, "track": 3, "qtime": 18, "isDrum": false}, {"time": 172, "velocity": 0, "pitch": 60, "instrument": 24, "track": 3, "qtime": 28, "isDrum": false}, {"time": 174, "velocity": 108, "pitch": 58, "instrument": 24, "track": 3, "qtime": 30, "isDrum": false}, {"time": 186, "velocity": 0, "pitch": 58, "instrument": 24, "track": 3, "qtime": 42, "isDrum": false}, {"time": 186, "velocity": 108, "pitch": 60, "instrument": 24, "track": 3, "qtime": 42, "isDrum": false}, {"time": 195, "velocity": 0, "pitch": 60, "instrument": 24, "track": 3, "qtime": 3, "isDrum": false}, {"time": 204, "velocity": 108, "pitch": 58, "instrument": 24, "track": 3, "qtime": 12, "isDrum": false}, {"time": 206, "velocity": 0, "pitch": 58, "instrument": 24, "track": 3, "qtime": 14, "isDrum": false}, {"time": 210, "velocity": 108, "pitch": 58, "instrument": 24, "track": 3, "qtime": 18, "isDrum": false}, {"time": 212, "velocity": 0, "pitch": 58, "instrument": 24, "track": 3, "qtime": 20, "isDrum": false}, {"time": 216, "velocity": 108, "pitch": 58, "instrument": 24, "track": 3, "qtime": 24, "isDrum": false}, {"time": 218, "velocity": 0, "pitch": 58, "instrument": 24, "track": 3, "qtime": 26, "isDrum": false}, {"time": 222, "velocity": 108, "pitch": 58, "instrument": 24, "track": 3, "qtime": 30, "isDrum": false}, {"time": 224, "velocity": 0, "pitch": 58, "instrument": 24, "track": 3, "qtime": 32, "isDrum": false}, {"time": 228, "velocity": 108, "pitch": 58, "instrument": 24, "track": 3, "qtime": 36, "isDrum": false}, {"time": 234, "velocity": 0, "pitch": 58, "instrument": 24, "track": 3, "qtime": 42, "isDrum": false}, {"time": 234, "velocity": 108, "pitch": 60, "instrument": 24, "track": 3, "qtime": 42, "isDrum": false}, {"time": 251, "velocity": 0, "pitch": 60, "instrument": 24, "track": 3, "qtime": 11, "isDrum": false}, {"time": 252, "velocity": 108, "pitch": 56, "instrument": 24, "track": 3, "qtime": 12, "isDrum": false}, {"time": 254, "velocity": 0, "pitch": 56, "instrument": 24, "track": 3, "qtime": 14, "isDrum": false}, {"time": 258, "velocity": 108, "pitch": 56, "instrument": 24, "track": 3, "qtime": 18, "isDrum": false}, {"time": 268, "velocity": 0, "pitch": 56, "instrument": 24, "track": 3, "qtime": 28, "isDrum": false}, {"time": 270, "velocity": 108, "pitch": 55, "instrument": 24, "track": 3, "qtime": 30, "isDrum": false}, {"time": 279, "velocity": 0, "pitch": 55, "instrument": 24, "track": 3, "qtime": 39, "isDrum": false}, {"time": 282, "velocity": 108, "pitch": 53, "instrument": 24, "track": 3, "qtime": 42, "isDrum": false}, {"time": 292, "velocity": 0, "pitch": 53, "instrument": 24, "track": 3, "qtime": 4, "isDrum": false}, {"time": 294, "velocity": 108, "pitch": 51, "instrument": 24, "track": 3, "qtime": 6, "isDrum": false}, {"time": 304, "velocity": 0, "pitch": 51, "instrument": 24, "track": 3, "qtime": 16, "isDrum": false}, {"time": 324, "velocity": 108, "pitch": 60, "instrument": 24, "track": 3, "qtime": 36, "isDrum": false}, {"time": 332, "velocity": 0, "pitch": 60, "instrument": 24, "track": 3, "qtime": 44, "isDrum": false}, {"time": 336, "velocity": 108, "pitch": 61, "instrument": 24, "track": 3, "qtime": 0, "isDrum": false}, {"time": 347, "velocity": 0, "pitch": 61, "instrument": 24, "track": 3, "qtime": 11, "isDrum": false}, {"time": 348, "velocity": 108, "pitch": 60, "instrument": 24, "track": 3, "qtime": 12, "isDrum": false}, {"time": 350, "velocity": 0, "pitch": 60, "instrument": 24, "track": 3, "qtime": 14, "isDrum": false}, {"time": 354, "velocity": 108, "pitch": 60, "instrument": 24, "track": 3, "qtime": 18, "isDrum": false}, {"time": 360, "velocity": 0, "pitch": 60, "instrument": 24, "track": 3, "qtime": 24, "isDrum": false}, {"time": 360, "velocity": 108, "pitch": 58, "instrument": 24, "track": 3, "qtime": 24, "isDrum": false}, {"time": 372, "velocity": 0, "pitch": 58, "instrument": 24, "track": 3, "qtime": 36, "isDrum": false}, {"time": 372, "velocity": 108, "pitch": 60, "instrument": 24, "track": 3, "qtime": 36, "isDrum": false}], "resolution": 12, "tempo": 48, "minPitch": 36, "maxPitch": 70, "validSegments": [0], "validTracks": [15]}, "audio": "https://www.sfu.ca/~jeffe/examples/8b_gibbs_24_gen.mp3"}, {"src": "gen/8b_gibbs_26_orig.json", "highlights": [[], [], [], [], [], [], [], []], "caption": "An original sample from the dataset.", "mixer": [7, 5, 7, 7, 9, 8, 8, 8], "sample_id": "15a", "json": {"tracks": [{"bars": [{"events": [0, 1, 2, 3, 4, 5, 6, 7, 8, 9, 10, 11, 12, 13, 14, 15], "isFourFour": true, "hasNotes": true, "time": 0, "beatLength": 4}, {"events": [16, 17, 18, 19, 20, 21, 22, 23, 24, 25, 26, 27], "isFourFour": true, "hasNotes": true, "time": 48, "beatLength": 4}, {"events": [28, 29, 30, 31, 32, 33, 34, 35, 36, 37, 38, 39, 40, 41, 42, 43], "isFourFour": true, "hasNotes": true, "time": 96, "beatLength": 4}, {"events": [44, 45, 46, 47, 48, 49, 50, 51, 52, 53, 54, 55], "isFourFour": true, "hasNotes": true, "time": 144, "beatLength": 4}, {"events": [56, 57, 58, 59, 60, 61, 62, 63, 64, 65, 66, 67, 68, 69, 70, 71], "isFourFour": true, "hasNotes": true, "time": 192, "beatLength": 4}, {"events": [72, 73, 74, 75, 76, 77, 78, 79, 80, 81, 82, 83], "isFourFour": true, "hasNotes": true, "time": 240, "beatLength": 4}, {"events": [84, 85, 86, 87, 88, 89, 90, 91, 92, 93, 94, 95, 96, 97, 98, 99], "isFourFour": true, "hasNotes": true, "time": 288, "beatLength": 4}, {"events": [100, 101, 102, 103, 104, 105, 106, 107, 108, 109, 110, 111], "isFourFour": true, "hasNotes": true, "time": 336, "beatLength": 4}], "isDrum": false, "minPitch": 31, "maxPitch": 48, "instrument": 39, "avPolyphony": 1, "noteDensity": 9, "noteDensityV2": 4}, {"bars": [{"events": [112, 113, 114, 115, 116, 117, 118, 119, 120, 121, 122, 123], "isFourFour": true, "hasNotes": true, "time": 0, "beatLength": 4}, {"events": [124, 125, 126, 127, 128, 129, 130, 131, 132, 133, 134, 135, 136, 137, 138, 139, 140, 141, 142, 143, 144, 145, 146, 147, 148, 149, 150, 151, 152, 153, 154, 155, 156, 157, 158, 159, 160, 161, 162, 163, 164, 165, 166, 167, 168, 169, 170, 171], "isFourFour": true, "hasNotes": true, "time": 48, "beatLength": 4}, {"events": [172, 173, 174, 175, 176, 177, 178, 179], "isFourFour": true, "hasNotes": true, "time": 96, "beatLength": 4}, {"events": [180, 181, 182, 183, 184, 185, 186, 187, 188, 189, 190, 191, 192, 193, 194, 195, 196, 197, 198, 199, 200, 201, 202, 203, 204, 205, 206, 207, 208, 209, 210, 211, 212, 213, 214, 215, 216, 217, 218, 219, 220, 221, 222, 223, 224, 225, 226, 227], "isFourFour": true, "hasNotes": true, "time": 144, "beatLength": 4}, {"events": [228, 229, 230, 231, 232, 233, 234, 235, 236, 237, 238, 239], "isFourFour": true, "hasNotes": true, "time": 192, "beatLength": 4}, {"events": [240, 241, 242, 243, 244, 245, 246, 247, 248, 249, 250, 251, 252, 253, 254, 255, 256, 257, 258, 259, 260, 261, 262, 263, 264, 265, 266, 267, 268, 269, 270, 271, 272, 273, 274, 275, 276, 277, 278, 279, 280, 281, 282, 283, 284, 285, 286, 287], "isFourFour": true, "hasNotes": true, "time": 240, "beatLength": 4}, {"events": [288, 289, 290, 291, 292, 293, 294, 295], "isFourFour": true, "hasNotes": true, "time": 288, "beatLength": 4}, {"events": [296, 297, 298, 299, 300, 301, 302, 303, 304, 305, 306, 307, 308, 309, 310, 311, 312, 313, 314, 315, 316, 317, 318, 319, 320, 321, 322, 323, 324, 325, 326, 327, 328, 329, 330, 331, 332, 333, 334, 335, 336, 337, 338, 339, 340, 341, 342, 343], "isFourFour": true, "hasNotes": true, "time": 336, "beatLength": 4}], "isDrum": false, "minPitch": 62, "maxPitch": 74, "instrument": 27, "avPolyphony": 1.91835022, "noteDensity": 9, "noteDensityV2": 8}, {"bars": [{"events": [344, 345, 346, 347, 348, 349, 350, 351], "isFourFour": true, "hasNotes": true, "time": 0, "beatLength": 4}, {"isFourFour": true, "hasNotes": false, "time": 48, "beatLength": 4}, {"events": [352, 353, 354, 355, 356, 357], "isFourFour": true, "hasNotes": true, "time": 96, "beatLength": 4}, {"events": [358, 359], "isFourFour": true, "hasNotes": true, "time": 144, "beatLength": 4}, {"events": [360, 361, 362, 363, 364, 365, 366, 367, 368, 369, 370, 371, 372, 373, 374, 375], "isFourFour": true, "hasNotes": true, "time": 192, "beatLength": 4}, {"events": [376, 377, 378, 379, 380, 381, 382, 383, 384, 385, 386, 387, 388, 389, 390, 391, 392, 393, 394, 395, 396, 397, 398, 399], "isFourFour": true, "hasNotes": true, "time": 240, "beatLength": 4}, {"events": [400, 401, 402, 403, 404, 405, 406, 407, 408, 409, 410, 411, 412, 413, 414, 415, 416, 417, 418, 419, 420, 421, 422, 423, 424, 425], "isFourFour": true, "hasNotes": true, "time": 288, "beatLength": 4}, {"events": [426, 427, 428, 429, 430, 431, 432, 433, 434, 435, 436, 437, 438, 439, 440, 441, 442, 443, 444, 445, 446, 447, 448, 449], "isFourFour": true, "hasNotes": true, "time": 336, "beatLength": 4}], "isDrum": false, "minPitch": 58, "maxPitch": 84, "instrument": 26, "avPolyphony": 1, "noteDensity": 9, "noteDensityV2": 6}, {"bars": [{"events": [450, 451, 452, 453, 454, 455, 456, 457, 458, 459, 460, 461, 462, 463, 464, 465, 466, 467, 468, 469, 470, 471, 472, 473], "isFourFour": true, "hasNotes": true, "time": 0, "beatLength": 4}, {"events": [474, 475, 476, 477, 478, 479, 480, 481], "isFourFour": true, "hasNotes": true, "time": 48, "beatLength": 4}, {"events": [482, 483, 484, 485, 486, 487, 488, 489, 490, 491, 492, 493, 494, 495, 496, 497, 498, 499, 500, 501, 502, 503, 504, 505], "isFourFour": true, "hasNotes": true, "time": 96, "beatLength": 4}, {"events": [506, 507, 508, 509, 510, 511, 512, 513], "isFourFour": true, "hasNotes": true, "time": 144, "beatLength": 4}, {"events": [514, 515, 516, 517, 518, 519, 520, 521, 522, 523, 524, 525, 526, 527, 528, 529, 530, 531, 532, 533, 534, 535, 536, 537], "isFourFour": true, "hasNotes": true, "time": 192, "beatLength": 4}, {"events": [538, 539, 540, 541, 542, 543, 544, 545], "isFourFour": true, "hasNotes": true, "time": 240, "beatLength": 4}, {"events": [546, 547, 548, 549, 550, 551, 552, 553, 554, 555, 556, 557, 558, 559, 560, 561, 562, 563, 564, 565, 566, 567, 568, 569], "isFourFour": true, "hasNotes": true, "time": 288, "beatLength": 4}, {"events": [570, 571, 572, 573, 574, 575, 576, 577], "isFourFour": true, "hasNotes": true, "time": 336, "beatLength": 4}], "isDrum": false, "minPitch": 55, "maxPitch": 67, "instrument": 5, "avPolyphony": 3.3804183, "noteDensity": 9, "noteDensityV2": 5}, {"bars": [{"events": [578, 579, 580, 581, 582, 583, 584, 585, 586, 587], "isFourFour": true, "hasNotes": true, "time": 0, "beatLength": 4}, {"events": [588, 589, 590, 591, 592, 593, 594, 595, 596, 597], "isFourFour": true, "hasNotes": true, "time": 48, "beatLength": 4}, {"events": [598, 599, 600, 601, 602, 603, 604, 605, 606, 607], "isFourFour": true, "hasNotes": true, "time": 96, "beatLength": 4}, {"events": [608, 609, 610, 611, 612, 613, 614, 615, 616, 617], "isFourFour": true, "hasNotes": true, "time": 144, "beatLength": 4}, {"events": [618, 619, 620, 621, 622, 623, 624, 625, 626, 627], "isFourFour": true, "hasNotes": true, "time": 192, "beatLength": 4}, {"events": [628, 629, 630, 631, 632, 633, 634, 635, 636, 637], "isFourFour": true, "hasNotes": true, "time": 240, "beatLength": 4}, {"events": [638, 639, 640, 641, 642, 643, 644, 645, 646, 647], "isFourFour": true, "hasNotes": true, "time": 288, "beatLength": 4}, {"events": [648, 649, 650, 651, 652, 653, 654, 655, 656, 657], "isFourFour": true, "hasNotes": true, "time": 336, "beatLength": 4}], "isDrum": true, "minPitch": 35, "maxPitch": 42, "instrument": 0, "avPolyphony": 1.2472527, "noteDensity": 9, "noteDensityV2": 2}], "events": [{"time": 0, "velocity": 96, "pitch": 36, "instrument": 39, "track": 0, "qtime": 0, "bar": 0, "isDrum": false}, {"time": 5, "velocity": 0, "pitch": 36, "instrument": 39, "track": 0, "qtime": 5, "bar": 0, "isDrum": false}, {"time": 6, "velocity": 96, "pitch": 36, "instrument": 39, "track": 0, "qtime": 6, "bar": 0, "isDrum": false}, {"time": 11, "velocity": 0, "pitch": 36, "instrument": 39, "track": 0, "qtime": 11, "bar": 0, "isDrum": false}, {"time": 21, "velocity": 96, "pitch": 34, "instrument": 39, "track": 0, "qtime": 21, "bar": 0, "isDrum": false}, {"time": 22, "velocity": 0, "pitch": 34, "instrument": 39, "track": 0, "qtime": 22, "bar": 0, "isDrum": false}, {"time": 24, "velocity": 96, "pitch": 36, "instrument": 39, "track": 0, "qtime": 24, "bar": 0, "isDrum": false}, {"time": 27, "velocity": 0, "pitch": 36, "instrument": 39, "track": 0, "qtime": 27, "bar": 0, "isDrum": false}, {"time": 27, "velocity": 96, "pitch": 48, "instrument": 39, "track": 0, "qtime": 27, "bar": 0, "isDrum": false}, {"time": 28, "velocity": 0, "pitch": 48, "instrument": 39, "track": 0, "qtime": 28, "bar": 0, "isDrum": false}, {"time": 30, "velocity": 96, "pitch": 46, "instrument": 39, "track": 0, "qtime": 30, "bar": 0, "isDrum": false}, {"time": 35, "velocity": 0, "pitch": 46, "instrument": 39, "track": 0, "qtime": 35, "bar": 0, "isDrum": false}, {"time": 36, "velocity": 96, "pitch": 45, "instrument": 39, "track": 0, "qtime": 36, "bar": 0, "isDrum": false}, {"time": 41, "velocity": 0, "pitch": 45, "instrument": 39, "track": 0, "qtime": 41, "bar": 0, "isDrum": false}, {"time": 42, "velocity": 96, "pitch": 41, "instrument": 39, "track": 0, "qtime": 42, "bar": 0, "isDrum": false}, {"time": 47, "velocity": 0, "pitch": 41, "instrument": 39, "track": 0, "qtime": 47, "bar": 0, "isDrum": false}, {"time": 48, "velocity": 96, "pitch": 43, "instrument": 39, "track": 0, "qtime": 0, "bar": 1, "isDrum": false}, {"time": 52, "velocity": 0, "pitch": 43, "instrument": 39, "track": 0, "qtime": 4, "bar": 1, "isDrum": false}, {"time": 54, "velocity": 96, "pitch": 43, "instrument": 39, "track": 0, "qtime": 6, "bar": 1, "isDrum": false}, {"time": 59, "velocity": 0, "pitch": 43, "instrument": 39, "track": 0, "qtime": 11, "bar": 1, "isDrum": false}, {"time": 69, "velocity": 96, "pitch": 41, "instrument": 39, "track": 0, "qtime": 21, "bar": 1, "isDrum": false}, {"time": 70, "velocity": 0, "pitch": 41, "instrument": 39, "track": 0, "qtime": 22, "bar": 1, "isDrum": false}, {"time": 72, "velocity": 96, "pitch": 43, "instrument": 39, "track": 0, "qtime": 24, "bar": 1, "isDrum": false}, {"time": 77, "velocity": 0, "pitch": 43, "instrument": 39, "track": 0, "qtime": 29, "bar": 1, "isDrum": false}, {"time": 78, "velocity": 96, "pitch": 43, "instrument": 39, "track": 0, "qtime": 30, "bar": 1, "isDrum": false}, {"time": 82, "velocity": 0, "pitch": 43, "instrument": 39, "track": 0, "qtime": 34, "bar": 1, "isDrum": false}, {"time": 93, "velocity": 96, "pitch": 43, "instrument": 39, "track": 0, "qtime": 45, "bar": 1, "isDrum": false}, {"time": 94, "velocity": 0, "pitch": 43, "instrument": 39, "track": 0, "qtime": 46, "bar": 1, "isDrum": false}, {"time": 96, "velocity": 96, "pitch": 36, "instrument": 39, "track": 0, "qtime": 0, "bar": 2, "isDrum": false}, {"time": 101, "velocity": 0, "pitch": 36, "instrument": 39, "track": 0, "qtime": 5, "bar": 2, "isDrum": false}, {"time": 102, "velocity": 96, "pitch": 36, "instrument": 39, "track": 0, "qtime": 6, "bar": 2, "isDrum": false}, {"time": 107, "velocity": 0, "pitch": 36, "instrument": 39, "track": 0, "qtime": 11, "bar": 2, "isDrum": false}, {"time": 117, "velocity": 96, "pitch": 34, "instrument": 39, "track": 0, "qtime": 21, "bar": 2, "isDrum": false}, {"time": 118, "velocity": 0, "pitch": 34, "instrument": 39, "track": 0, "qtime": 22, "bar": 2, "isDrum": false}, {"time": 120, "velocity": 96, "pitch": 36, "instrument": 39, "track": 0, "qtime": 24, "bar": 2, "isDrum": false}, {"time": 123, "velocity": 0, "pitch": 36, "instrument": 39, "track": 0, "qtime": 27, "bar": 2, "isDrum": false}, {"time": 123, "velocity": 96, "pitch": 48, "instrument": 39, "track": 0, "qtime": 27, "bar": 2, "isDrum": false}, {"time": 124, "velocity": 0, "pitch": 48, "instrument": 39, "track": 0, "qtime": 28, "bar": 2, "isDrum": false}, {"time": 126, "velocity": 96, "pitch": 46, "instrument": 39, "track": 0, "qtime": 30, "bar": 2, "isDrum": false}, {"time": 131, "velocity": 0, "pitch": 46, "instrument": 39, "track": 0, "qtime": 35, "bar": 2, "isDrum": false}, {"time": 132, "velocity": 96, "pitch": 45, "instrument": 39, "track": 0, "qtime": 36, "bar": 2, "isDrum": false}, {"time": 137, "velocity": 0, "pitch": 45, "instrument": 39, "track": 0, "qtime": 41, "bar": 2, "isDrum": false}, {"time": 138, "velocity": 96, "pitch": 41, "instrument": 39, "track": 0, "qtime": 42, "bar": 2, "isDrum": false}, {"time": 143, "velocity": 0, "pitch": 41, "instrument": 39, "track": 0, "qtime": 47, "bar": 2, "isDrum": false}, {"time": 144, "velocity": 96, "pitch": 43, "instrument": 39, "track": 0, "qtime": 0, "bar": 3, "isDrum": false}, {"time": 148, "velocity": 0, "pitch": 43, "instrument": 39, "track": 0, "qtime": 4, "bar": 3, "isDrum": false}, {"time": 150, "velocity": 96, "pitch": 43, "instrument": 39, "track": 0, "qtime": 6, "bar": 3, "isDrum": false}, {"time": 155, "velocity": 0, "pitch": 43, "instrument": 39, "track": 0, "qtime": 11, "bar": 3, "isDrum": false}, {"time": 165, "velocity": 96, "pitch": 41, "instrument": 39, "track": 0, "qtime": 21, "bar": 3, "isDrum": false}, {"time": 166, "velocity": 0, "pitch": 41, "instrument": 39, "track": 0, "qtime": 22, "bar": 3, "isDrum": false}, {"time": 168, "velocity": 96, "pitch": 43, "instrument": 39, "track": 0, "qtime": 24, "bar": 3, "isDrum": false}, {"time": 173, "velocity": 0, "pitch": 43, "instrument": 39, "track": 0, "qtime": 29, "bar": 3, "isDrum": false}, {"time": 174, "velocity": 96, "pitch": 43, "instrument": 39, "track": 0, "qtime": 30, "bar": 3, "isDrum": false}, {"time": 178, "velocity": 0, "pitch": 43, "instrument": 39, "track": 0, "qtime": 34, "bar": 3, "isDrum": false}, {"time": 189, "velocity": 96, "pitch": 43, "instrument": 39, "track": 0, "qtime": 45, "bar": 3, "isDrum": false}, {"time": 190, "velocity": 0, "pitch": 43, "instrument": 39, "track": 0, "qtime": 46, "bar": 3, "isDrum": false}, {"time": 192, "velocity": 96, "pitch": 36, "instrument": 39, "track": 0, "qtime": 0, "bar": 4, "isDrum": false}, {"time": 197, "velocity": 0, "pitch": 36, "instrument": 39, "track": 0, "qtime": 5, "bar": 4, "isDrum": false}, {"time": 198, "velocity": 96, "pitch": 36, "instrument": 39, "track": 0, "qtime": 6, "bar": 4, "isDrum": false}, {"time": 203, "velocity": 0, "pitch": 36, "instrument": 39, "track": 0, "qtime": 11, "bar": 4, "isDrum": false}, {"time": 213, "velocity": 96, "pitch": 34, "instrument": 39, "track": 0, "qtime": 21, "bar": 4, "isDrum": false}, {"time": 214, "velocity": 0, "pitch": 34, "instrument": 39, "track": 0, "qtime": 22, "bar": 4, "isDrum": false}, {"time": 216, "velocity": 96, "pitch": 36, "instrument": 39, "track": 0, "qtime": 24, "bar": 4, "isDrum": false}, {"time": 219, "velocity": 0, "pitch": 36, "instrument": 39, "track": 0, "qtime": 27, "bar": 4, "isDrum": false}, {"time": 219, "velocity": 96, "pitch": 48, "instrument": 39, "track": 0, "qtime": 27, "bar": 4, "isDrum": false}, {"time": 220, "velocity": 0, "pitch": 48, "instrument": 39, "track": 0, "qtime": 28, "bar": 4, "isDrum": false}, {"time": 222, "velocity": 96, "pitch": 46, "instrument": 39, "track": 0, "qtime": 30, "bar": 4, "isDrum": false}, {"time": 227, "velocity": 0, "pitch": 46, "instrument": 39, "track": 0, "qtime": 35, "bar": 4, "isDrum": false}, {"time": 228, "velocity": 96, "pitch": 45, "instrument": 39, "track": 0, "qtime": 36, "bar": 4, "isDrum": false}, {"time": 233, "velocity": 0, "pitch": 45, "instrument": 39, "track": 0, "qtime": 41, "bar": 4, "isDrum": false}, {"time": 234, "velocity": 96, "pitch": 41, "instrument": 39, "track": 0, "qtime": 42, "bar": 4, "isDrum": false}, {"time": 239, "velocity": 0, "pitch": 41, "instrument": 39, "track": 0, "qtime": 47, "bar": 4, "isDrum": false}, {"time": 240, "velocity": 96, "pitch": 43, "instrument": 39, "track": 0, "qtime": 0, "bar": 5, "isDrum": false}, {"time": 244, "velocity": 0, "pitch": 43, "instrument": 39, "track": 0, "qtime": 4, "bar": 5, "isDrum": false}, {"time": 246, "velocity": 96, "pitch": 43, "instrument": 39, "track": 0, "qtime": 6, "bar": 5, "isDrum": false}, {"time": 251, "velocity": 0, "pitch": 43, "instrument": 39, "track": 0, "qtime": 11, "bar": 5, "isDrum": false}, {"time": 261, "velocity": 96, "pitch": 41, "instrument": 39, "track": 0, "qtime": 21, "bar": 5, "isDrum": false}, {"time": 262, "velocity": 0, "pitch": 41, "instrument": 39, "track": 0, "qtime": 22, "bar": 5, "isDrum": false}, {"time": 264, "velocity": 96, "pitch": 43, "instrument": 39, "track": 0, "qtime": 24, "bar": 5, "isDrum": false}, {"time": 269, "velocity": 0, "pitch": 43, "instrument": 39, "track": 0, "qtime": 29, "bar": 5, "isDrum": false}, {"time": 270, "velocity": 96, "pitch": 43, "instrument": 39, "track": 0, "qtime": 30, "bar": 5, "isDrum": false}, {"time": 274, "velocity": 0, "pitch": 43, "instrument": 39, "track": 0, "qtime": 34, "bar": 5, "isDrum": false}, {"time": 285, "velocity": 96, "pitch": 43, "instrument": 39, "track": 0, "qtime": 45, "bar": 5, "isDrum": false}, {"time": 286, "velocity": 0, "pitch": 43, "instrument": 39, "track": 0, "qtime": 46, "bar": 5, "isDrum": false}, {"time": 288, "velocity": 96, "pitch": 36, "instrument": 39, "track": 0, "qtime": 0, "bar": 6, "isDrum": false}, {"time": 293, "velocity": 0, "pitch": 36, "instrument": 39, "track": 0, "qtime": 5, "bar": 6, "isDrum": false}, {"time": 294, "velocity": 96, "pitch": 36, "instrument": 39, "track": 0, "qtime": 6, "bar": 6, "isDrum": false}, {"time": 299, "velocity": 0, "pitch": 36, "instrument": 39, "track": 0, "qtime": 11, "bar": 6, "isDrum": false}, {"time": 309, "velocity": 96, "pitch": 34, "instrument": 39, "track": 0, "qtime": 21, "bar": 6, "isDrum": false}, {"time": 310, "velocity": 0, "pitch": 34, "instrument": 39, "track": 0, "qtime": 22, "bar": 6, "isDrum": false}, {"time": 312, "velocity": 96, "pitch": 36, "instrument": 39, "track": 0, "qtime": 24, "bar": 6, "isDrum": false}, {"time": 315, "velocity": 0, "pitch": 36, "instrument": 39, "track": 0, "qtime": 27, "bar": 6, "isDrum": false}, {"time": 315, "velocity": 96, "pitch": 48, "instrument": 39, "track": 0, "qtime": 27, "bar": 6, "isDrum": false}, {"time": 316, "velocity": 0, "pitch": 48, "instrument": 39, "track": 0, "qtime": 28, "bar": 6, "isDrum": false}, {"time": 318, "velocity": 96, "pitch": 46, "instrument": 39, "track": 0, "qtime": 30, "bar": 6, "isDrum": false}, {"time": 323, "velocity": 0, "pitch": 46, "instrument": 39, "track": 0, "qtime": 35, "bar": 6, "isDrum": false}, {"time": 324, "velocity": 96, "pitch": 45, "instrument": 39, "track": 0, "qtime": 36, "bar": 6, "isDrum": false}, {"time": 329, "velocity": 0, "pitch": 45, "instrument": 39, "track": 0, "qtime": 41, "bar": 6, "isDrum": false}, {"time": 330, "velocity": 96, "pitch": 41, "instrument": 39, "track": 0, "qtime": 42, "bar": 6, "isDrum": false}, {"time": 335, "velocity": 0, "pitch": 41, "instrument": 39, "track": 0, "qtime": 47, "bar": 6, "isDrum": false}, {"time": 336, "velocity": 96, "pitch": 43, "instrument": 39, "track": 0, "qtime": 0, "bar": 7, "isDrum": false}, {"time": 340, "velocity": 0, "pitch": 43, "instrument": 39, "track": 0, "qtime": 4, "bar": 7, "isDrum": false}, {"time": 342, "velocity": 96, "pitch": 43, "instrument": 39, "track": 0, "qtime": 6, "bar": 7, "isDrum": false}, {"time": 347, "velocity": 0, "pitch": 43, "instrument": 39, "track": 0, "qtime": 11, "bar": 7, "isDrum": false}, {"time": 357, "velocity": 96, "pitch": 41, "instrument": 39, "track": 0, "qtime": 21, "bar": 7, "isDrum": false}, {"time": 358, "velocity": 0, "pitch": 41, "instrument": 39, "track": 0, "qtime": 22, "bar": 7, "isDrum": false}, {"time": 360, "velocity": 96, "pitch": 43, "instrument": 39, "track": 0, "qtime": 24, "bar": 7, "isDrum": false}, {"time": 365, "velocity": 0, "pitch": 43, "instrument": 39, "track": 0, "qtime": 29, "bar": 7, "isDrum": false}, {"time": 366, "velocity": 96, "pitch": 43, "instrument": 39, "track": 0, "qtime": 30, "bar": 7, "isDrum": false}, {"time": 370, "velocity": 0, "pitch": 43, "instrument": 39, "track": 0, "qtime": 34, "bar": 7, "isDrum": false}, {"time": 381, "velocity": 96, "pitch": 43, "instrument": 39, "track": 0, "qtime": 45, "bar": 7, "isDrum": false}, {"time": 382, "velocity": 0, "pitch": 43, "instrument": 39, "track": 0, "qtime": 46, "bar": 7, "isDrum": false}, {"time": 6, "velocity": 72, "pitch": 62, "instrument": 27, "track": 1, "qtime": 6, "bar": 0, "isDrum": false}, {"time": 6, "velocity": 72, "pitch": 67, "instrument": 27, "track": 1, "qtime": 6, "bar": 0, "isDrum": false}, {"time": 9, "velocity": 0, "pitch": 62, "instrument": 27, "track": 1, "qtime": 9, "bar": 0, "isDrum": false}, {"time": 9, "velocity": 0, "pitch": 67, "instrument": 27, "track": 1, "qtime": 9, "bar": 0, "isDrum": false}, {"time": 18, "velocity": 72, "pitch": 62, "instrument": 27, "track": 1, "qtime": 18, "bar": 0, "isDrum": false}, {"time": 18, "velocity": 72, "pitch": 67, "instrument": 27, "track": 1, "qtime": 18, "bar": 0, "isDrum": false}, {"time": 23, "velocity": 0, "pitch": 62, "instrument": 27, "track": 1, "qtime": 23, "bar": 0, "isDrum": false}, {"time": 23, "velocity": 0, "pitch": 67, "instrument": 27, "track": 1, "qtime": 23, "bar": 0, "isDrum": false}, {"time": 24, "velocity": 72, "pitch": 64, "instrument": 27, "track": 1, "qtime": 24, "bar": 0, "isDrum": false}, {"time": 25, "velocity": 72, "pitch": 69, "instrument": 27, "track": 1, "qtime": 25, "bar": 0, "isDrum": false}, {"time": 39, "velocity": 0, "pitch": 64, "instrument": 27, "track": 1, "qtime": 39, "bar": 0, "isDrum": false}, {"time": 39, "velocity": 0, "pitch": 69, "instrument": 27, "track": 1, "qtime": 39, "bar": 0, "isDrum": false}, {"time": 54, "velocity": 72, "pitch": 70, "instrument": 27, "track": 1, "qtime": 6, "bar": 1, "isDrum": false}, {"time": 54, "velocity": 72, "pitch": 74, "instrument": 27, "track": 1, "qtime": 6, "bar": 1, "isDrum": false}, {"time": 56, "velocity": 0, "pitch": 70, "instrument": 27, "track": 1, "qtime": 8, "bar": 1, "isDrum": false}, {"time": 57, "velocity": 0, "pitch": 74, "instrument": 27, "track": 1, "qtime": 9, "bar": 1, "isDrum": false}, {"time": 57, "velocity": 72, "pitch": 70, "instrument": 27, "track": 1, "qtime": 9, "bar": 1, "isDrum": false}, {"time": 57, "velocity": 72, "pitch": 74, "instrument": 27, "track": 1, "qtime": 9, "bar": 1, "isDrum": false}, {"time": 59, "velocity": 0, "pitch": 70, "instrument": 27, "track": 1, "qtime": 11, "bar": 1, "isDrum": false}, {"time": 59, "velocity": 0, "pitch": 74, "instrument": 27, "track": 1, "qtime": 11, "bar": 1, "isDrum": false}, {"time": 60, "velocity": 72, "pitch": 70, "instrument": 27, "track": 1, "qtime": 12, "bar": 1, "isDrum": false}, {"time": 60, "velocity": 72, "pitch": 74, "instrument": 27, "track": 1, "qtime": 12, "bar": 1, "isDrum": false}, {"time": 63, "velocity": 0, "pitch": 70, "instrument": 27, "track": 1, "qtime": 15, "bar": 1, "isDrum": false}, {"time": 63, "velocity": 0, "pitch": 74, "instrument": 27, "track": 1, "qtime": 15, "bar": 1, "isDrum": false}, {"time": 63, "velocity": 72, "pitch": 69, "instrument": 27, "track": 1, "qtime": 15, "bar": 1, "isDrum": false}, {"time": 63, "velocity": 72, "pitch": 72, "instrument": 27, "track": 1, "qtime": 15, "bar": 1, "isDrum": false}, {"time": 65, "velocity": 0, "pitch": 69, "instrument": 27, "track": 1, "qtime": 17, "bar": 1, "isDrum": false}, {"time": 65, "velocity": 0, "pitch": 72, "instrument": 27, "track": 1, "qtime": 17, "bar": 1, "isDrum": false}, {"time": 66, "velocity": 72, "pitch": 69, "instrument": 27, "track": 1, "qtime": 18, "bar": 1, "isDrum": false}, {"time": 66, "velocity": 72, "pitch": 72, "instrument": 27, "track": 1, "qtime": 18, "bar": 1, "isDrum": false}, {"time": 68, "velocity": 0, "pitch": 69, "instrument": 27, "track": 1, "qtime": 20, "bar": 1, "isDrum": false}, {"time": 69, "velocity": 0, "pitch": 72, "instrument": 27, "track": 1, "qtime": 21, "bar": 1, "isDrum": false}, {"time": 69, "velocity": 72, "pitch": 69, "instrument": 27, "track": 1, "qtime": 21, "bar": 1, "isDrum": false}, {"time": 69, "velocity": 72, "pitch": 72, "instrument": 27, "track": 1, "qtime": 21, "bar": 1, "isDrum": false}, {"time": 71, "velocity": 0, "pitch": 69, "instrument": 27, "track": 1, "qtime": 23, "bar": 1, "isDrum": false}, {"time": 71, "velocity": 0, "pitch": 72, "instrument": 27, "track": 1, "qtime": 23, "bar": 1, "isDrum": false}, {"time": 72, "velocity": 72, "pitch": 69, "instrument": 27, "track": 1, "qtime": 24, "bar": 1, "isDrum": false}, {"time": 72, "velocity": 72, "pitch": 72, "instrument": 27, "track": 1, "qtime": 24, "bar": 1, "isDrum": false}, {"time": 75, "velocity": 0, "pitch": 69, "instrument": 27, "track": 1, "qtime": 27, "bar": 1, "isDrum": false}, {"time": 75, "velocity": 0, "pitch": 72, "instrument": 27, "track": 1, "qtime": 27, "bar": 1, "isDrum": false}, {"time": 75, "velocity": 72, "pitch": 67, "instrument": 27, "track": 1, "qtime": 27, "bar": 1, "isDrum": false}, {"time": 75, "velocity": 72, "pitch": 70, "instrument": 27, "track": 1, "qtime": 27, "bar": 1, "isDrum": false}, {"time": 77, "velocity": 0, "pitch": 67, "instrument": 27, "track": 1, "qtime": 29, "bar": 1, "isDrum": false}, {"time": 77, "velocity": 0, "pitch": 70, "instrument": 27, "track": 1, "qtime": 29, "bar": 1, "isDrum": false}, {"time": 78, "velocity": 72, "pitch": 67, "instrument": 27, "track": 1, "qtime": 30, "bar": 1, "isDrum": false}, {"time": 78, "velocity": 72, "pitch": 70, "instrument": 27, "track": 1, "qtime": 30, "bar": 1, "isDrum": false}, {"time": 80, "velocity": 0, "pitch": 67, "instrument": 27, "track": 1, "qtime": 32, "bar": 1, "isDrum": false}, {"time": 81, "velocity": 0, "pitch": 70, "instrument": 27, "track": 1, "qtime": 33, "bar": 1, "isDrum": false}, {"time": 81, "velocity": 72, "pitch": 67, "instrument": 27, "track": 1, "qtime": 33, "bar": 1, "isDrum": false}, {"time": 81, "velocity": 72, "pitch": 70, "instrument": 27, "track": 1, "qtime": 33, "bar": 1, "isDrum": false}, {"time": 83, "velocity": 0, "pitch": 67, "instrument": 27, "track": 1, "qtime": 35, "bar": 1, "isDrum": false}, {"time": 83, "velocity": 0, "pitch": 70, "instrument": 27, "track": 1, "qtime": 35, "bar": 1, "isDrum": false}, {"time": 84, "velocity": 72, "pitch": 67, "instrument": 27, "track": 1, "qtime": 36, "bar": 1, "isDrum": false}, {"time": 84, "velocity": 72, "pitch": 70, "instrument": 27, "track": 1, "qtime": 36, "bar": 1, "isDrum": false}, {"time": 89, "velocity": 0, "pitch": 67, "instrument": 27, "track": 1, "qtime": 41, "bar": 1, "isDrum": false}, {"time": 89, "velocity": 0, "pitch": 70, "instrument": 27, "track": 1, "qtime": 41, "bar": 1, "isDrum": false}, {"time": 90, "velocity": 72, "pitch": 62, "instrument": 27, "track": 1, "qtime": 42, "bar": 1, "isDrum": false}, {"time": 90, "velocity": 72, "pitch": 67, "instrument": 27, "track": 1, "qtime": 42, "bar": 1, "isDrum": false}, {"time": 95, "velocity": 0, "pitch": 62, "instrument": 27, "track": 1, "qtime": 47, "bar": 1, "isDrum": false}, {"time": 95, "velocity": 0, "pitch": 67, "instrument": 27, "track": 1, "qtime": 47, "bar": 1, "isDrum": false}, {"time": 108, "velocity": 72, "pitch": 64, "instrument": 27, "track": 1, "qtime": 12, "bar": 2, "isDrum": false}, {"time": 108, "velocity": 72, "pitch": 69, "instrument": 27, "track": 1, "qtime": 12, "bar": 2, "isDrum": false}, {"time": 114, "velocity": 0, "pitch": 64, "instrument": 27, "track": 1, "qtime": 18, "bar": 2, "isDrum": false}, {"time": 114, "velocity": 0, "pitch": 69, "instrument": 27, "track": 1, "qtime": 18, "bar": 2, "isDrum": false}, {"time": 114, "velocity": 72, "pitch": 62, "instrument": 27, "track": 1, "qtime": 18, "bar": 2, "isDrum": false}, {"time": 115, "velocity": 72, "pitch": 67, "instrument": 27, "track": 1, "qtime": 19, "bar": 2, "isDrum": false}, {"time": 129, "velocity": 0, "pitch": 62, "instrument": 27, "track": 1, "qtime": 33, "bar": 2, "isDrum": false}, {"time": 130, "velocity": 0, "pitch": 67, "instrument": 27, "track": 1, "qtime": 34, "bar": 2, "isDrum": false}, {"time": 150, "velocity": 72, "pitch": 70, "instrument": 27, "track": 1, "qtime": 6, "bar": 3, "isDrum": false}, {"time": 150, "velocity": 72, "pitch": 74, "instrument": 27, "track": 1, "qtime": 6, "bar": 3, "isDrum": false}, {"time": 152, "velocity": 0, "pitch": 70, "instrument": 27, "track": 1, "qtime": 8, "bar": 3, "isDrum": false}, {"time": 153, "velocity": 0, "pitch": 74, "instrument": 27, "track": 1, "qtime": 9, "bar": 3, "isDrum": false}, {"time": 153, "velocity": 72, "pitch": 70, "instrument": 27, "track": 1, "qtime": 9, "bar": 3, "isDrum": false}, {"time": 153, "velocity": 72, "pitch": 74, "instrument": 27, "track": 1, "qtime": 9, "bar": 3, "isDrum": false}, {"time": 155, "velocity": 0, "pitch": 70, "instrument": 27, "track": 1, "qtime": 11, "bar": 3, "isDrum": false}, {"time": 155, "velocity": 0, "pitch": 74, "instrument": 27, "track": 1, "qtime": 11, "bar": 3, "isDrum": false}, {"time": 156, "velocity": 72, "pitch": 70, "instrument": 27, "track": 1, "qtime": 12, "bar": 3, "isDrum": false}, {"time": 156, "velocity": 72, "pitch": 74, "instrument": 27, "track": 1, "qtime": 12, "bar": 3, "isDrum": false}, {"time": 159, "velocity": 0, "pitch": 70, "instrument": 27, "track": 1, "qtime": 15, "bar": 3, "isDrum": false}, {"time": 159, "velocity": 0, "pitch": 74, "instrument": 27, "track": 1, "qtime": 15, "bar": 3, "isDrum": false}, {"time": 159, "velocity": 72, "pitch": 69, "instrument": 27, "track": 1, "qtime": 15, "bar": 3, "isDrum": false}, {"time": 159, "velocity": 72, "pitch": 72, "instrument": 27, "track": 1, "qtime": 15, "bar": 3, "isDrum": false}, {"time": 161, "velocity": 0, "pitch": 69, "instrument": 27, "track": 1, "qtime": 17, "bar": 3, "isDrum": false}, {"time": 161, "velocity": 0, "pitch": 72, "instrument": 27, "track": 1, "qtime": 17, "bar": 3, "isDrum": false}, {"time": 162, "velocity": 72, "pitch": 69, "instrument": 27, "track": 1, "qtime": 18, "bar": 3, "isDrum": false}, {"time": 162, "velocity": 72, "pitch": 72, "instrument": 27, "track": 1, "qtime": 18, "bar": 3, "isDrum": false}, {"time": 164, "velocity": 0, "pitch": 69, "instrument": 27, "track": 1, "qtime": 20, "bar": 3, "isDrum": false}, {"time": 165, "velocity": 0, "pitch": 72, "instrument": 27, "track": 1, "qtime": 21, "bar": 3, "isDrum": false}, {"time": 165, "velocity": 72, "pitch": 69, "instrument": 27, "track": 1, "qtime": 21, "bar": 3, "isDrum": false}, {"time": 165, "velocity": 72, "pitch": 72, "instrument": 27, "track": 1, "qtime": 21, "bar": 3, "isDrum": false}, {"time": 167, "velocity": 0, "pitch": 69, "instrument": 27, "track": 1, "qtime": 23, "bar": 3, "isDrum": false}, {"time": 167, "velocity": 0, "pitch": 72, "instrument": 27, "track": 1, "qtime": 23, "bar": 3, "isDrum": false}, {"time": 168, "velocity": 72, "pitch": 69, "instrument": 27, "track": 1, "qtime": 24, "bar": 3, "isDrum": false}, {"time": 168, "velocity": 72, "pitch": 72, "instrument": 27, "track": 1, "qtime": 24, "bar": 3, "isDrum": false}, {"time": 171, "velocity": 0, "pitch": 69, "instrument": 27, "track": 1, "qtime": 27, "bar": 3, "isDrum": false}, {"time": 171, "velocity": 0, "pitch": 72, "instrument": 27, "track": 1, "qtime": 27, "bar": 3, "isDrum": false}, {"time": 171, "velocity": 72, "pitch": 67, "instrument": 27, "track": 1, "qtime": 27, "bar": 3, "isDrum": false}, {"time": 171, "velocity": 72, "pitch": 70, "instrument": 27, "track": 1, "qtime": 27, "bar": 3, "isDrum": false}, {"time": 173, "velocity": 0, "pitch": 67, "instrument": 27, "track": 1, "qtime": 29, "bar": 3, "isDrum": false}, {"time": 173, "velocity": 0, "pitch": 70, "instrument": 27, "track": 1, "qtime": 29, "bar": 3, "isDrum": false}, {"time": 174, "velocity": 72, "pitch": 67, "instrument": 27, "track": 1, "qtime": 30, "bar": 3, "isDrum": false}, {"time": 174, "velocity": 72, "pitch": 70, "instrument": 27, "track": 1, "qtime": 30, "bar": 3, "isDrum": false}, {"time": 176, "velocity": 0, "pitch": 67, "instrument": 27, "track": 1, "qtime": 32, "bar": 3, "isDrum": false}, {"time": 177, "velocity": 0, "pitch": 70, "instrument": 27, "track": 1, "qtime": 33, "bar": 3, "isDrum": false}, {"time": 177, "velocity": 72, "pitch": 67, "instrument": 27, "track": 1, "qtime": 33, "bar": 3, "isDrum": false}, {"time": 177, "velocity": 72, "pitch": 70, "instrument": 27, "track": 1, "qtime": 33, "bar": 3, "isDrum": false}, {"time": 179, "velocity": 0, "pitch": 67, "instrument": 27, "track": 1, "qtime": 35, "bar": 3, "isDrum": false}, {"time": 179, "velocity": 0, "pitch": 70, "instrument": 27, "track": 1, "qtime": 35, "bar": 3, "isDrum": false}, {"time": 180, "velocity": 72, "pitch": 67, "instrument": 27, "track": 1, "qtime": 36, "bar": 3, "isDrum": false}, {"time": 180, "velocity": 72, "pitch": 70, "instrument": 27, "track": 1, "qtime": 36, "bar": 3, "isDrum": false}, {"time": 185, "velocity": 0, "pitch": 67, "instrument": 27, "track": 1, "qtime": 41, "bar": 3, "isDrum": false}, {"time": 185, "velocity": 0, "pitch": 70, "instrument": 27, "track": 1, "qtime": 41, "bar": 3, "isDrum": false}, {"time": 186, "velocity": 72, "pitch": 62, "instrument": 27, "track": 1, "qtime": 42, "bar": 3, "isDrum": false}, {"time": 186, "velocity": 72, "pitch": 67, "instrument": 27, "track": 1, "qtime": 42, "bar": 3, "isDrum": false}, {"time": 191, "velocity": 0, "pitch": 62, "instrument": 27, "track": 1, "qtime": 47, "bar": 3, "isDrum": false}, {"time": 191, "velocity": 0, "pitch": 67, "instrument": 27, "track": 1, "qtime": 47, "bar": 3, "isDrum": false}, {"time": 198, "velocity": 72, "pitch": 62, "instrument": 27, "track": 1, "qtime": 6, "bar": 4, "isDrum": false}, {"time": 198, "velocity": 72, "pitch": 67, "instrument": 27, "track": 1, "qtime": 6, "bar": 4, "isDrum": false}, {"time": 201, "velocity": 0, "pitch": 62, "instrument": 27, "track": 1, "qtime": 9, "bar": 4, "isDrum": false}, {"time": 201, "velocity": 0, "pitch": 67, "instrument": 27, "track": 1, "qtime": 9, "bar": 4, "isDrum": false}, {"time": 210, "velocity": 72, "pitch": 62, "instrument": 27, "track": 1, "qtime": 18, "bar": 4, "isDrum": false}, {"time": 210, "velocity": 72, "pitch": 67, "instrument": 27, "track": 1, "qtime": 18, "bar": 4, "isDrum": false}, {"time": 215, "velocity": 0, "pitch": 62, "instrument": 27, "track": 1, "qtime": 23, "bar": 4, "isDrum": false}, {"time": 215, "velocity": 0, "pitch": 67, "instrument": 27, "track": 1, "qtime": 23, "bar": 4, "isDrum": false}, {"time": 216, "velocity": 72, "pitch": 64, "instrument": 27, "track": 1, "qtime": 24, "bar": 4, "isDrum": false}, {"time": 217, "velocity": 72, "pitch": 69, "instrument": 27, "track": 1, "qtime": 25, "bar": 4, "isDrum": false}, {"time": 231, "velocity": 0, "pitch": 64, "instrument": 27, "track": 1, "qtime": 39, "bar": 4, "isDrum": false}, {"time": 231, "velocity": 0, "pitch": 69, "instrument": 27, "track": 1, "qtime": 39, "bar": 4, "isDrum": false}, {"time": 246, "velocity": 72, "pitch": 70, "instrument": 27, "track": 1, "qtime": 6, "bar": 5, "isDrum": false}, {"time": 246, "velocity": 72, "pitch": 74, "instrument": 27, "track": 1, "qtime": 6, "bar": 5, "isDrum": false}, {"time": 248, "velocity": 0, "pitch": 70, "instrument": 27, "track": 1, "qtime": 8, "bar": 5, "isDrum": false}, {"time": 249, "velocity": 0, "pitch": 74, "instrument": 27, "track": 1, "qtime": 9, "bar": 5, "isDrum": false}, {"time": 249, "velocity": 72, "pitch": 70, "instrument": 27, "track": 1, "qtime": 9, "bar": 5, "isDrum": false}, {"time": 249, "velocity": 72, "pitch": 74, "instrument": 27, "track": 1, "qtime": 9, "bar": 5, "isDrum": false}, {"time": 251, "velocity": 0, "pitch": 70, "instrument": 27, "track": 1, "qtime": 11, "bar": 5, "isDrum": false}, {"time": 251, "velocity": 0, "pitch": 74, "instrument": 27, "track": 1, "qtime": 11, "bar": 5, "isDrum": false}, {"time": 252, "velocity": 72, "pitch": 70, "instrument": 27, "track": 1, "qtime": 12, "bar": 5, "isDrum": false}, {"time": 252, "velocity": 72, "pitch": 74, "instrument": 27, "track": 1, "qtime": 12, "bar": 5, "isDrum": false}, {"time": 255, "velocity": 0, "pitch": 70, "instrument": 27, "track": 1, "qtime": 15, "bar": 5, "isDrum": false}, {"time": 255, "velocity": 0, "pitch": 74, "instrument": 27, "track": 1, "qtime": 15, "bar": 5, "isDrum": false}, {"time": 255, "velocity": 72, "pitch": 69, "instrument": 27, "track": 1, "qtime": 15, "bar": 5, "isDrum": false}, {"time": 255, "velocity": 72, "pitch": 72, "instrument": 27, "track": 1, "qtime": 15, "bar": 5, "isDrum": false}, {"time": 257, "velocity": 0, "pitch": 69, "instrument": 27, "track": 1, "qtime": 17, "bar": 5, "isDrum": false}, {"time": 257, "velocity": 0, "pitch": 72, "instrument": 27, "track": 1, "qtime": 17, "bar": 5, "isDrum": false}, {"time": 258, "velocity": 72, "pitch": 69, "instrument": 27, "track": 1, "qtime": 18, "bar": 5, "isDrum": false}, {"time": 258, "velocity": 72, "pitch": 72, "instrument": 27, "track": 1, "qtime": 18, "bar": 5, "isDrum": false}, {"time": 260, "velocity": 0, "pitch": 69, "instrument": 27, "track": 1, "qtime": 20, "bar": 5, "isDrum": false}, {"time": 261, "velocity": 0, "pitch": 72, "instrument": 27, "track": 1, "qtime": 21, "bar": 5, "isDrum": false}, {"time": 261, "velocity": 72, "pitch": 69, "instrument": 27, "track": 1, "qtime": 21, "bar": 5, "isDrum": false}, {"time": 261, "velocity": 72, "pitch": 72, "instrument": 27, "track": 1, "qtime": 21, "bar": 5, "isDrum": false}, {"time": 263, "velocity": 0, "pitch": 69, "instrument": 27, "track": 1, "qtime": 23, "bar": 5, "isDrum": false}, {"time": 263, "velocity": 0, "pitch": 72, "instrument": 27, "track": 1, "qtime": 23, "bar": 5, "isDrum": false}, {"time": 264, "velocity": 72, "pitch": 69, "instrument": 27, "track": 1, "qtime": 24, "bar": 5, "isDrum": false}, {"time": 264, "velocity": 72, "pitch": 72, "instrument": 27, "track": 1, "qtime": 24, "bar": 5, "isDrum": false}, {"time": 267, "velocity": 0, "pitch": 69, "instrument": 27, "track": 1, "qtime": 27, "bar": 5, "isDrum": false}, {"time": 267, "velocity": 0, "pitch": 72, "instrument": 27, "track": 1, "qtime": 27, "bar": 5, "isDrum": false}, {"time": 267, "velocity": 72, "pitch": 67, "instrument": 27, "track": 1, "qtime": 27, "bar": 5, "isDrum": false}, {"time": 267, "velocity": 72, "pitch": 70, "instrument": 27, "track": 1, "qtime": 27, "bar": 5, "isDrum": false}, {"time": 269, "velocity": 0, "pitch": 67, "instrument": 27, "track": 1, "qtime": 29, "bar": 5, "isDrum": false}, {"time": 269, "velocity": 0, "pitch": 70, "instrument": 27, "track": 1, "qtime": 29, "bar": 5, "isDrum": false}, {"time": 270, "velocity": 72, "pitch": 67, "instrument": 27, "track": 1, "qtime": 30, "bar": 5, "isDrum": false}, {"time": 270, "velocity": 72, "pitch": 70, "instrument": 27, "track": 1, "qtime": 30, "bar": 5, "isDrum": false}, {"time": 272, "velocity": 0, "pitch": 67, "instrument": 27, "track": 1, "qtime": 32, "bar": 5, "isDrum": false}, {"time": 273, "velocity": 0, "pitch": 70, "instrument": 27, "track": 1, "qtime": 33, "bar": 5, "isDrum": false}, {"time": 273, "velocity": 72, "pitch": 67, "instrument": 27, "track": 1, "qtime": 33, "bar": 5, "isDrum": false}, {"time": 273, "velocity": 72, "pitch": 70, "instrument": 27, "track": 1, "qtime": 33, "bar": 5, "isDrum": false}, {"time": 275, "velocity": 0, "pitch": 67, "instrument": 27, "track": 1, "qtime": 35, "bar": 5, "isDrum": false}, {"time": 275, "velocity": 0, "pitch": 70, "instrument": 27, "track": 1, "qtime": 35, "bar": 5, "isDrum": false}, {"time": 276, "velocity": 72, "pitch": 67, "instrument": 27, "track": 1, "qtime": 36, "bar": 5, "isDrum": false}, {"time": 276, "velocity": 72, "pitch": 70, "instrument": 27, "track": 1, "qtime": 36, "bar": 5, "isDrum": false}, {"time": 281, "velocity": 0, "pitch": 67, "instrument": 27, "track": 1, "qtime": 41, "bar": 5, "isDrum": false}, {"time": 281, "velocity": 0, "pitch": 70, "instrument": 27, "track": 1, "qtime": 41, "bar": 5, "isDrum": false}, {"time": 282, "velocity": 72, "pitch": 62, "instrument": 27, "track": 1, "qtime": 42, "bar": 5, "isDrum": false}, {"time": 282, "velocity": 72, "pitch": 67, "instrument": 27, "track": 1, "qtime": 42, "bar": 5, "isDrum": false}, {"time": 287, "velocity": 0, "pitch": 62, "instrument": 27, "track": 1, "qtime": 47, "bar": 5, "isDrum": false}, {"time": 287, "velocity": 0, "pitch": 67, "instrument": 27, "track": 1, "qtime": 47, "bar": 5, "isDrum": false}, {"time": 300, "velocity": 72, "pitch": 64, "instrument": 27, "track": 1, "qtime": 12, "bar": 6, "isDrum": false}, {"time": 300, "velocity": 72, "pitch": 69, "instrument": 27, "track": 1, "qtime": 12, "bar": 6, "isDrum": false}, {"time": 306, "velocity": 0, "pitch": 64, "instrument": 27, "track": 1, "qtime": 18, "bar": 6, "isDrum": false}, {"time": 306, "velocity": 0, "pitch": 69, "instrument": 27, "track": 1, "qtime": 18, "bar": 6, "isDrum": false}, {"time": 306, "velocity": 72, "pitch": 62, "instrument": 27, "track": 1, "qtime": 18, "bar": 6, "isDrum": false}, {"time": 307, "velocity": 72, "pitch": 67, "instrument": 27, "track": 1, "qtime": 19, "bar": 6, "isDrum": false}, {"time": 321, "velocity": 0, "pitch": 62, "instrument": 27, "track": 1, "qtime": 33, "bar": 6, "isDrum": false}, {"time": 322, "velocity": 0, "pitch": 67, "instrument": 27, "track": 1, "qtime": 34, "bar": 6, "isDrum": false}, {"time": 342, "velocity": 72, "pitch": 70, "instrument": 27, "track": 1, "qtime": 6, "bar": 7, "isDrum": false}, {"time": 342, "velocity": 72, "pitch": 74, "instrument": 27, "track": 1, "qtime": 6, "bar": 7, "isDrum": false}, {"time": 344, "velocity": 0, "pitch": 70, "instrument": 27, "track": 1, "qtime": 8, "bar": 7, "isDrum": false}, {"time": 345, "velocity": 0, "pitch": 74, "instrument": 27, "track": 1, "qtime": 9, "bar": 7, "isDrum": false}, {"time": 345, "velocity": 72, "pitch": 70, "instrument": 27, "track": 1, "qtime": 9, "bar": 7, "isDrum": false}, {"time": 345, "velocity": 72, "pitch": 74, "instrument": 27, "track": 1, "qtime": 9, "bar": 7, "isDrum": false}, {"time": 347, "velocity": 0, "pitch": 70, "instrument": 27, "track": 1, "qtime": 11, "bar": 7, "isDrum": false}, {"time": 347, "velocity": 0, "pitch": 74, "instrument": 27, "track": 1, "qtime": 11, "bar": 7, "isDrum": false}, {"time": 348, "velocity": 72, "pitch": 70, "instrument": 27, "track": 1, "qtime": 12, "bar": 7, "isDrum": false}, {"time": 348, "velocity": 72, "pitch": 74, "instrument": 27, "track": 1, "qtime": 12, "bar": 7, "isDrum": false}, {"time": 351, "velocity": 0, "pitch": 70, "instrument": 27, "track": 1, "qtime": 15, "bar": 7, "isDrum": false}, {"time": 351, "velocity": 0, "pitch": 74, "instrument": 27, "track": 1, "qtime": 15, "bar": 7, "isDrum": false}, {"time": 351, "velocity": 72, "pitch": 69, "instrument": 27, "track": 1, "qtime": 15, "bar": 7, "isDrum": false}, {"time": 351, "velocity": 72, "pitch": 72, "instrument": 27, "track": 1, "qtime": 15, "bar": 7, "isDrum": false}, {"time": 353, "velocity": 0, "pitch": 69, "instrument": 27, "track": 1, "qtime": 17, "bar": 7, "isDrum": false}, {"time": 353, "velocity": 0, "pitch": 72, "instrument": 27, "track": 1, "qtime": 17, "bar": 7, "isDrum": false}, {"time": 354, "velocity": 72, "pitch": 69, "instrument": 27, "track": 1, "qtime": 18, "bar": 7, "isDrum": false}, {"time": 354, "velocity": 72, "pitch": 72, "instrument": 27, "track": 1, "qtime": 18, "bar": 7, "isDrum": false}, {"time": 356, "velocity": 0, "pitch": 69, "instrument": 27, "track": 1, "qtime": 20, "bar": 7, "isDrum": false}, {"time": 357, "velocity": 0, "pitch": 72, "instrument": 27, "track": 1, "qtime": 21, "bar": 7, "isDrum": false}, {"time": 357, "velocity": 72, "pitch": 69, "instrument": 27, "track": 1, "qtime": 21, "bar": 7, "isDrum": false}, {"time": 357, "velocity": 72, "pitch": 72, "instrument": 27, "track": 1, "qtime": 21, "bar": 7, "isDrum": false}, {"time": 359, "velocity": 0, "pitch": 69, "instrument": 27, "track": 1, "qtime": 23, "bar": 7, "isDrum": false}, {"time": 359, "velocity": 0, "pitch": 72, "instrument": 27, "track": 1, "qtime": 23, "bar": 7, "isDrum": false}, {"time": 360, "velocity": 72, "pitch": 69, "instrument": 27, "track": 1, "qtime": 24, "bar": 7, "isDrum": false}, {"time": 360, "velocity": 72, "pitch": 72, "instrument": 27, "track": 1, "qtime": 24, "bar": 7, "isDrum": false}, {"time": 363, "velocity": 0, "pitch": 69, "instrument": 27, "track": 1, "qtime": 27, "bar": 7, "isDrum": false}, {"time": 363, "velocity": 0, "pitch": 72, "instrument": 27, "track": 1, "qtime": 27, "bar": 7, "isDrum": false}, {"time": 363, "velocity": 72, "pitch": 67, "instrument": 27, "track": 1, "qtime": 27, "bar": 7, "isDrum": false}, {"time": 363, "velocity": 72, "pitch": 70, "instrument": 27, "track": 1, "qtime": 27, "bar": 7, "isDrum": false}, {"time": 365, "velocity": 0, "pitch": 67, "instrument": 27, "track": 1, "qtime": 29, "bar": 7, "isDrum": false}, {"time": 365, "velocity": 0, "pitch": 70, "instrument": 27, "track": 1, "qtime": 29, "bar": 7, "isDrum": false}, {"time": 366, "velocity": 72, "pitch": 67, "instrument": 27, "track": 1, "qtime": 30, "bar": 7, "isDrum": false}, {"time": 366, "velocity": 72, "pitch": 70, "instrument": 27, "track": 1, "qtime": 30, "bar": 7, "isDrum": false}, {"time": 368, "velocity": 0, "pitch": 67, "instrument": 27, "track": 1, "qtime": 32, "bar": 7, "isDrum": false}, {"time": 369, "velocity": 0, "pitch": 70, "instrument": 27, "track": 1, "qtime": 33, "bar": 7, "isDrum": false}, {"time": 369, "velocity": 72, "pitch": 67, "instrument": 27, "track": 1, "qtime": 33, "bar": 7, "isDrum": false}, {"time": 369, "velocity": 72, "pitch": 70, "instrument": 27, "track": 1, "qtime": 33, "bar": 7, "isDrum": false}, {"time": 371, "velocity": 0, "pitch": 67, "instrument": 27, "track": 1, "qtime": 35, "bar": 7, "isDrum": false}, {"time": 371, "velocity": 0, "pitch": 70, "instrument": 27, "track": 1, "qtime": 35, "bar": 7, "isDrum": false}, {"time": 372, "velocity": 72, "pitch": 67, "instrument": 27, "track": 1, "qtime": 36, "bar": 7, "isDrum": false}, {"time": 372, "velocity": 72, "pitch": 70, "instrument": 27, "track": 1, "qtime": 36, "bar": 7, "isDrum": false}, {"time": 377, "velocity": 0, "pitch": 67, "instrument": 27, "track": 1, "qtime": 41, "bar": 7, "isDrum": false}, {"time": 377, "velocity": 0, "pitch": 70, "instrument": 27, "track": 1, "qtime": 41, "bar": 7, "isDrum": false}, {"time": 378, "velocity": 72, "pitch": 62, "instrument": 27, "track": 1, "qtime": 42, "bar": 7, "isDrum": false}, {"time": 378, "velocity": 72, "pitch": 67, "instrument": 27, "track": 1, "qtime": 42, "bar": 7, "isDrum": false}, {"time": 383, "velocity": 0, "pitch": 62, "instrument": 27, "track": 1, "qtime": 47, "bar": 7, "isDrum": false}, {"time": 383, "velocity": 0, "pitch": 67, "instrument": 27, "track": 1, "qtime": 47, "bar": 7, "isDrum": false}, {"time": 24, "velocity": 96, "pitch": 72, "instrument": 26, "track": 2, "qtime": 24, "bar": 0, "isDrum": false}, {"time": 28, "velocity": 0, "pitch": 72, "instrument": 26, "track": 2, "qtime": 28, "bar": 0, "isDrum": false}, {"time": 30, "velocity": 96, "pitch": 72, "instrument": 26, "track": 2, "qtime": 30, "bar": 0, "isDrum": false}, {"time": 32, "velocity": 0, "pitch": 72, "instrument": 26, "track": 2, "qtime": 32, "bar": 0, "isDrum": false}, {"time": 33, "velocity": 96, "pitch": 70, "instrument": 26, "track": 2, "qtime": 33, "bar": 0, "isDrum": false}, {"time": 37, "velocity": 0, "pitch": 70, "instrument": 26, "track": 2, "qtime": 37, "bar": 0, "isDrum": false}, {"time": 39, "velocity": 96, "pitch": 67, "instrument": 26, "track": 2, "qtime": 39, "bar": 0, "isDrum": false}, {"time": 45, "velocity": 0, "pitch": 67, "instrument": 26, "track": 2, "qtime": 45, "bar": 0, "isDrum": false}, {"time": 120, "velocity": 96, "pitch": 65, "instrument": 26, "track": 2, "qtime": 24, "bar": 2, "isDrum": false}, {"time": 123, "velocity": 0, "pitch": 65, "instrument": 26, "track": 2, "qtime": 27, "bar": 2, "isDrum": false}, {"time": 123, "velocity": 96, "pitch": 67, "instrument": 26, "track": 2, "qtime": 27, "bar": 2, "isDrum": false}, {"time": 125, "velocity": 0, "pitch": 67, "instrument": 26, "track": 2, "qtime": 29, "bar": 2, "isDrum": false}, {"time": 129, "velocity": 96, "pitch": 70, "instrument": 26, "track": 2, "qtime": 33, "bar": 2, "isDrum": false}, {"time": 135, "velocity": 0, "pitch": 70, "instrument": 26, "track": 2, "qtime": 39, "bar": 2, "isDrum": false}, {"time": 186, "velocity": 96, "pitch": 82, "instrument": 26, "track": 2, "qtime": 42, "bar": 3, "isDrum": false}, {"time": 191, "velocity": 0, "pitch": 82, "instrument": 26, "track": 2, "qtime": 47, "bar": 3, "isDrum": false}, {"time": 198, "velocity": 96, "pitch": 77, "instrument": 26, "track": 2, "qtime": 6, "bar": 4, "isDrum": false}, {"time": 206, "velocity": 0, "pitch": 77, "instrument": 26, "track": 2, "qtime": 14, "bar": 4, "isDrum": false}, {"time": 210, "velocity": 96, "pitch": 84, "instrument": 26, "track": 2, "qtime": 18, "bar": 4, "isDrum": false}, {"time": 216, "velocity": 0, "pitch": 84, "instrument": 26, "track": 2, "qtime": 24, "bar": 4, "isDrum": false}, {"time": 216, "velocity": 96, "pitch": 82, "instrument": 26, "track": 2, "qtime": 24, "bar": 4, "isDrum": false}, {"time": 222, "velocity": 0, "pitch": 82, "instrument": 26, "track": 2, "qtime": 30, "bar": 4, "isDrum": false}, {"time": 225, "velocity": 96, "pitch": 70, "instrument": 26, "track": 2, "qtime": 33, "bar": 4, "isDrum": false}, {"time": 227, "velocity": 0, "pitch": 70, "instrument": 26, "track": 2, "qtime": 35, "bar": 4, "isDrum": false}, {"time": 228, "velocity": 96, "pitch": 70, "instrument": 26, "track": 2, "qtime": 36, "bar": 4, "isDrum": false}, {"time": 230, "velocity": 0, "pitch": 70, "instrument": 26, "track": 2, "qtime": 38, "bar": 4, "isDrum": false}, {"time": 231, "velocity": 96, "pitch": 70, "instrument": 26, "track": 2, "qtime": 39, "bar": 4, "isDrum": false}, {"time": 233, "velocity": 0, "pitch": 70, "instrument": 26, "track": 2, "qtime": 41, "bar": 4, "isDrum": false}, {"time": 234, "velocity": 96, "pitch": 70, "instrument": 26, "track": 2, "qtime": 42, "bar": 4, "isDrum": false}, {"time": 236, "velocity": 0, "pitch": 70, "instrument": 26, "track": 2, "qtime": 44, "bar": 4, "isDrum": false}, {"time": 237, "velocity": 96, "pitch": 70, "instrument": 26, "track": 2, "qtime": 45, "bar": 4, "isDrum": false}, {"time": 239, "velocity": 0, "pitch": 70, "instrument": 26, "track": 2, "qtime": 47, "bar": 4, "isDrum": false}, {"time": 240, "velocity": 96, "pitch": 70, "instrument": 26, "track": 2, "qtime": 0, "bar": 5, "isDrum": false}, {"time": 243, "velocity": 0, "pitch": 70, "instrument": 26, "track": 2, "qtime": 3, "bar": 5, "isDrum": false}, {"time": 243, "velocity": 96, "pitch": 67, "instrument": 26, "track": 2, "qtime": 3, "bar": 5, "isDrum": false}, {"time": 245, "velocity": 0, "pitch": 67, "instrument": 26, "track": 2, "qtime": 5, "bar": 5, "isDrum": false}, {"time": 246, "velocity": 96, "pitch": 67, "instrument": 26, "track": 2, "qtime": 6, "bar": 5, "isDrum": false}, {"time": 248, "velocity": 0, "pitch": 67, "instrument": 26, "track": 2, "qtime": 8, "bar": 5, "isDrum": false}, {"time": 252, "velocity": 96, "pitch": 67, "instrument": 26, "track": 2, "qtime": 12, "bar": 5, "isDrum": false}, {"time": 255, "velocity": 0, "pitch": 67, "instrument": 26, "track": 2, "qtime": 15, "bar": 5, "isDrum": false}, {"time": 258, "velocity": 96, "pitch": 67, "instrument": 26, "track": 2, "qtime": 18, "bar": 5, "isDrum": false}, {"time": 260, "velocity": 0, "pitch": 67, "instrument": 26, "track": 2, "qtime": 20, "bar": 5, "isDrum": false}, {"time": 261, "velocity": 96, "pitch": 67, "instrument": 26, "track": 2, "qtime": 21, "bar": 5, "isDrum": false}, {"time": 263, "velocity": 0, "pitch": 67, "instrument": 26, "track": 2, "qtime": 23, "bar": 5, "isDrum": false}, {"time": 264, "velocity": 96, "pitch": 70, "instrument": 26, "track": 2, "qtime": 24, "bar": 5, "isDrum": false}, {"time": 266, "velocity": 0, "pitch": 70, "instrument": 26, "track": 2, "qtime": 26, "bar": 5, "isDrum": false}, {"time": 267, "velocity": 96, "pitch": 70, "instrument": 26, "track": 2, "qtime": 27, "bar": 5, "isDrum": false}, {"time": 270, "velocity": 0, "pitch": 70, "instrument": 26, "track": 2, "qtime": 30, "bar": 5, "isDrum": false}, {"time": 270, "velocity": 96, "pitch": 67, "instrument": 26, "track": 2, "qtime": 30, "bar": 5, "isDrum": false}, {"time": 273, "velocity": 0, "pitch": 67, "instrument": 26, "track": 2, "qtime": 33, "bar": 5, "isDrum": false}, {"time": 276, "velocity": 96, "pitch": 67, "instrument": 26, "track": 2, "qtime": 36, "bar": 5, "isDrum": false}, {"time": 279, "velocity": 0, "pitch": 67, "instrument": 26, "track": 2, "qtime": 39, "bar": 5, "isDrum": false}, {"time": 282, "velocity": 96, "pitch": 67, "instrument": 26, "track": 2, "qtime": 42, "bar": 5, "isDrum": false}, {"time": 284, "velocity": 0, "pitch": 67, "instrument": 26, "track": 2, "qtime": 44, "bar": 5, "isDrum": false}, {"time": 285, "velocity": 96, "pitch": 67, "instrument": 26, "track": 2, "qtime": 45, "bar": 5, "isDrum": false}, {"time": 287, "velocity": 0, "pitch": 67, "instrument": 26, "track": 2, "qtime": 47, "bar": 5, "isDrum": false}, {"time": 288, "velocity": 96, "pitch": 67, "instrument": 26, "track": 2, "qtime": 0, "bar": 6, "isDrum": false}, {"time": 290, "velocity": 0, "pitch": 67, "instrument": 26, "track": 2, "qtime": 2, "bar": 6, "isDrum": false}, {"time": 291, "velocity": 96, "pitch": 67, "instrument": 26, "track": 2, "qtime": 3, "bar": 6, "isDrum": false}, {"time": 293, "velocity": 0, "pitch": 67, "instrument": 26, "track": 2, "qtime": 5, "bar": 6, "isDrum": false}, {"time": 294, "velocity": 96, "pitch": 67, "instrument": 26, "track": 2, "qtime": 6, "bar": 6, "isDrum": false}, {"time": 296, "velocity": 0, "pitch": 67, "instrument": 26, "track": 2, "qtime": 8, "bar": 6, "isDrum": false}, {"time": 297, "velocity": 96, "pitch": 67, "instrument": 26, "track": 2, "qtime": 9, "bar": 6, "isDrum": false}, {"time": 299, "velocity": 0, "pitch": 67, "instrument": 26, "track": 2, "qtime": 11, "bar": 6, "isDrum": false}, {"time": 300, "velocity": 96, "pitch": 67, "instrument": 26, "track": 2, "qtime": 12, "bar": 6, "isDrum": false}, {"time": 302, "velocity": 0, "pitch": 67, "instrument": 26, "track": 2, "qtime": 14, "bar": 6, "isDrum": false}, {"time": 303, "velocity": 96, "pitch": 67, "instrument": 26, "track": 2, "qtime": 15, "bar": 6, "isDrum": false}, {"time": 305, "velocity": 0, "pitch": 67, "instrument": 26, "track": 2, "qtime": 17, "bar": 6, "isDrum": false}, {"time": 306, "velocity": 96, "pitch": 67, "instrument": 26, "track": 2, "qtime": 18, "bar": 6, "isDrum": false}, {"time": 308, "velocity": 0, "pitch": 67, "instrument": 26, "track": 2, "qtime": 20, "bar": 6, "isDrum": false}, {"time": 309, "velocity": 96, "pitch": 67, "instrument": 26, "track": 2, "qtime": 21, "bar": 6, "isDrum": false}, {"time": 311, "velocity": 0, "pitch": 67, "instrument": 26, "track": 2, "qtime": 23, "bar": 6, "isDrum": false}, {"time": 312, "velocity": 96, "pitch": 65, "instrument": 26, "track": 2, "qtime": 24, "bar": 6, "isDrum": false}, {"time": 316, "velocity": 0, "pitch": 65, "instrument": 26, "track": 2, "qtime": 28, "bar": 6, "isDrum": false}, {"time": 321, "velocity": 96, "pitch": 67, "instrument": 26, "track": 2, "qtime": 33, "bar": 6, "isDrum": false}, {"time": 323, "velocity": 0, "pitch": 67, "instrument": 26, "track": 2, "qtime": 35, "bar": 6, "isDrum": false}, {"time": 324, "velocity": 96, "pitch": 67, "instrument": 26, "track": 2, "qtime": 36, "bar": 6, "isDrum": false}, {"time": 326, "velocity": 0, "pitch": 67, "instrument": 26, "track": 2, "qtime": 38, "bar": 6, "isDrum": false}, {"time": 327, "velocity": 96, "pitch": 67, "instrument": 26, "track": 2, "qtime": 39, "bar": 6, "isDrum": false}, {"time": 329, "velocity": 0, "pitch": 67, "instrument": 26, "track": 2, "qtime": 41, "bar": 6, "isDrum": false}, {"time": 333, "velocity": 96, "pitch": 67, "instrument": 26, "track": 2, "qtime": 45, "bar": 6, "isDrum": false}, {"time": 335, "velocity": 0, "pitch": 67, "instrument": 26, "track": 2, "qtime": 47, "bar": 6, "isDrum": false}, {"time": 339, "velocity": 96, "pitch": 70, "instrument": 26, "track": 2, "qtime": 3, "bar": 7, "isDrum": false}, {"time": 341, "velocity": 0, "pitch": 70, "instrument": 26, "track": 2, "qtime": 5, "bar": 7, "isDrum": false}, {"time": 342, "velocity": 96, "pitch": 70, "instrument": 26, "track": 2, "qtime": 6, "bar": 7, "isDrum": false}, {"time": 344, "velocity": 0, "pitch": 70, "instrument": 26, "track": 2, "qtime": 8, "bar": 7, "isDrum": false}, {"time": 345, "velocity": 96, "pitch": 67, "instrument": 26, "track": 2, "qtime": 9, "bar": 7, "isDrum": false}, {"time": 347, "velocity": 0, "pitch": 67, "instrument": 26, "track": 2, "qtime": 11, "bar": 7, "isDrum": false}, {"time": 351, "velocity": 96, "pitch": 67, "instrument": 26, "track": 2, "qtime": 15, "bar": 7, "isDrum": false}, {"time": 353, "velocity": 0, "pitch": 67, "instrument": 26, "track": 2, "qtime": 17, "bar": 7, "isDrum": false}, {"time": 354, "velocity": 96, "pitch": 67, "instrument": 26, "track": 2, "qtime": 18, "bar": 7, "isDrum": false}, {"time": 356, "velocity": 0, "pitch": 67, "instrument": 26, "track": 2, "qtime": 20, "bar": 7, "isDrum": false}, {"time": 357, "velocity": 96, "pitch": 67, "instrument": 26, "track": 2, "qtime": 21, "bar": 7, "isDrum": false}, {"time": 359, "velocity": 0, "pitch": 67, "instrument": 26, "track": 2, "qtime": 23, "bar": 7, "isDrum": false}, {"time": 360, "velocity": 96, "pitch": 70, "instrument": 26, "track": 2, "qtime": 24, "bar": 7, "isDrum": false}, {"time": 362, "velocity": 0, "pitch": 70, "instrument": 26, "track": 2, "qtime": 26, "bar": 7, "isDrum": false}, {"time": 363, "velocity": 96, "pitch": 70, "instrument": 26, "track": 2, "qtime": 27, "bar": 7, "isDrum": false}, {"time": 365, "velocity": 0, "pitch": 70, "instrument": 26, "track": 2, "qtime": 29, "bar": 7, "isDrum": false}, {"time": 366, "velocity": 96, "pitch": 67, "instrument": 26, "track": 2, "qtime": 30, "bar": 7, "isDrum": false}, {"time": 368, "velocity": 0, "pitch": 67, "instrument": 26, "track": 2, "qtime": 32, "bar": 7, "isDrum": false}, {"time": 372, "velocity": 96, "pitch": 67, "instrument": 26, "track": 2, "qtime": 36, "bar": 7, "isDrum": false}, {"time": 374, "velocity": 0, "pitch": 67, "instrument": 26, "track": 2, "qtime": 38, "bar": 7, "isDrum": false}, {"time": 378, "velocity": 96, "pitch": 67, "instrument": 26, "track": 2, "qtime": 42, "bar": 7, "isDrum": false}, {"time": 380, "velocity": 0, "pitch": 67, "instrument": 26, "track": 2, "qtime": 44, "bar": 7, "isDrum": false}, {"time": 381, "velocity": 96, "pitch": 67, "instrument": 26, "track": 2, "qtime": 45, "bar": 7, "isDrum": false}, {"time": 383, "velocity": 0, "pitch": 67, "instrument": 26, "track": 2, "qtime": 47, "bar": 7, "isDrum": false}, {"time": 0, "velocity": 96, "pitch": 58, "instrument": 5, "track": 3, "qtime": 0, "bar": 0, "isDrum": false}, {"time": 0, "velocity": 96, "pitch": 62, "instrument": 5, "track": 3, "qtime": 0, "bar": 0, "isDrum": false}, {"time": 0, "velocity": 96, "pitch": 64, "instrument": 5, "track": 3, "qtime": 0, "bar": 0, "isDrum": false}, {"time": 23, "velocity": 0, "pitch": 58, "instrument": 5, "track": 3, "qtime": 23, "bar": 0, "isDrum": false}, {"time": 23, "velocity": 0, "pitch": 62, "instrument": 5, "track": 3, "qtime": 23, "bar": 0, "isDrum": false}, {"time": 23, "velocity": 0, "pitch": 64, "instrument": 5, "track": 3, "qtime": 23, "bar": 0, "isDrum": false}, {"time": 30, "velocity": 96, "pitch": 55, "instrument": 5, "track": 3, "qtime": 30, "bar": 0, "isDrum": false}, {"time": 30, "velocity": 96, "pitch": 58, "instrument": 5, "track": 3, "qtime": 30, "bar": 0, "isDrum": false}, {"time": 30, "velocity": 96, "pitch": 62, "instrument": 5, "track": 3, "qtime": 30, "bar": 0, "isDrum": false}, {"time": 30, "velocity": 96, "pitch": 67, "instrument": 5, "track": 3, "qtime": 30, "bar": 0, "isDrum": false}, {"time": 35, "velocity": 0, "pitch": 62, "instrument": 5, "track": 3, "qtime": 35, "bar": 0, "isDrum": false}, {"time": 35, "velocity": 0, "pitch": 67, "instrument": 5, "track": 3, "qtime": 35, "bar": 0, "isDrum": false}, {"time": 36, "velocity": 96, "pitch": 62, "instrument": 5, "track": 3, "qtime": 36, "bar": 0, "isDrum": false}, {"time": 36, "velocity": 96, "pitch": 65, "instrument": 5, "track": 3, "qtime": 36, "bar": 0, "isDrum": false}, {"time": 39, "velocity": 0, "pitch": 58, "instrument": 5, "track": 3, "qtime": 39, "bar": 0, "isDrum": false}, {"time": 40, "velocity": 0, "pitch": 55, "instrument": 5, "track": 3, "qtime": 40, "bar": 0, "isDrum": false}, {"time": 41, "velocity": 0, "pitch": 62, "instrument": 5, "track": 3, "qtime": 41, "bar": 0, "isDrum": false}, {"time": 41, "velocity": 0, "pitch": 65, "instrument": 5, "track": 3, "qtime": 41, "bar": 0, "isDrum": false}, {"time": 42, "velocity": 96, "pitch": 55, "instrument": 5, "track": 3, "qtime": 42, "bar": 0, "isDrum": false}, {"time": 42, "velocity": 96, "pitch": 58, "instrument": 5, "track": 3, "qtime": 42, "bar": 0, "isDrum": false}, {"time": 42, "velocity": 96, "pitch": 62, "instrument": 5, "track": 3, "qtime": 42, "bar": 0, "isDrum": false}, {"time": 47, "velocity": 0, "pitch": 55, "instrument": 5, "track": 3, "qtime": 47, "bar": 0, "isDrum": false}, {"time": 47, "velocity": 0, "pitch": 58, "instrument": 5, "track": 3, "qtime": 47, "bar": 0, "isDrum": false}, {"time": 47, "velocity": 0, "pitch": 62, "instrument": 5, "track": 3, "qtime": 47, "bar": 0, "isDrum": false}, {"time": 48, "velocity": 96, "pitch": 55, "instrument": 5, "track": 3, "qtime": 0, "bar": 1, "isDrum": false}, {"time": 54, "velocity": 96, "pitch": 58, "instrument": 5, "track": 3, "qtime": 6, "bar": 1, "isDrum": false}, {"time": 54, "velocity": 96, "pitch": 62, "instrument": 5, "track": 3, "qtime": 6, "bar": 1, "isDrum": false}, {"time": 54, "velocity": 96, "pitch": 67, "instrument": 5, "track": 3, "qtime": 6, "bar": 1, "isDrum": false}, {"time": 89, "velocity": 0, "pitch": 55, "instrument": 5, "track": 3, "qtime": 41, "bar": 1, "isDrum": false}, {"time": 89, "velocity": 0, "pitch": 58, "instrument": 5, "track": 3, "qtime": 41, "bar": 1, "isDrum": false}, {"time": 89, "velocity": 0, "pitch": 62, "instrument": 5, "track": 3, "qtime": 41, "bar": 1, "isDrum": false}, {"time": 89, "velocity": 0, "pitch": 67, "instrument": 5, "track": 3, "qtime": 41, "bar": 1, "isDrum": false}, {"time": 96, "velocity": 96, "pitch": 58, "instrument": 5, "track": 3, "qtime": 0, "bar": 2, "isDrum": false}, {"time": 96, "velocity": 96, "pitch": 62, "instrument": 5, "track": 3, "qtime": 0, "bar": 2, "isDrum": false}, {"time": 96, "velocity": 96, "pitch": 64, "instrument": 5, "track": 3, "qtime": 0, "bar": 2, "isDrum": false}, {"time": 119, "velocity": 0, "pitch": 58, "instrument": 5, "track": 3, "qtime": 23, "bar": 2, "isDrum": false}, {"time": 119, "velocity": 0, "pitch": 62, "instrument": 5, "track": 3, "qtime": 23, "bar": 2, "isDrum": false}, {"time": 119, "velocity": 0, "pitch": 64, "instrument": 5, "track": 3, "qtime": 23, "bar": 2, "isDrum": false}, {"time": 126, "velocity": 96, "pitch": 55, "instrument": 5, "track": 3, "qtime": 30, "bar": 2, "isDrum": false}, {"time": 126, "velocity": 96, "pitch": 58, "instrument": 5, "track": 3, "qtime": 30, "bar": 2, "isDrum": false}, {"time": 126, "velocity": 96, "pitch": 62, "instrument": 5, "track": 3, "qtime": 30, "bar": 2, "isDrum": false}, {"time": 126, "velocity": 96, "pitch": 67, "instrument": 5, "track": 3, "qtime": 30, "bar": 2, "isDrum": false}, {"time": 131, "velocity": 0, "pitch": 62, "instrument": 5, "track": 3, "qtime": 35, "bar": 2, "isDrum": false}, {"time": 131, "velocity": 0, "pitch": 67, "instrument": 5, "track": 3, "qtime": 35, "bar": 2, "isDrum": false}, {"time": 132, "velocity": 96, "pitch": 62, "instrument": 5, "track": 3, "qtime": 36, "bar": 2, "isDrum": false}, {"time": 132, "velocity": 96, "pitch": 65, "instrument": 5, "track": 3, "qtime": 36, "bar": 2, "isDrum": false}, {"time": 135, "velocity": 0, "pitch": 58, "instrument": 5, "track": 3, "qtime": 39, "bar": 2, "isDrum": false}, {"time": 136, "velocity": 0, "pitch": 55, "instrument": 5, "track": 3, "qtime": 40, "bar": 2, "isDrum": false}, {"time": 137, "velocity": 0, "pitch": 62, "instrument": 5, "track": 3, "qtime": 41, "bar": 2, "isDrum": false}, {"time": 137, "velocity": 0, "pitch": 65, "instrument": 5, "track": 3, "qtime": 41, "bar": 2, "isDrum": false}, {"time": 138, "velocity": 96, "pitch": 55, "instrument": 5, "track": 3, "qtime": 42, "bar": 2, "isDrum": false}, {"time": 138, "velocity": 96, "pitch": 58, "instrument": 5, "track": 3, "qtime": 42, "bar": 2, "isDrum": false}, {"time": 138, "velocity": 96, "pitch": 62, "instrument": 5, "track": 3, "qtime": 42, "bar": 2, "isDrum": false}, {"time": 143, "velocity": 0, "pitch": 55, "instrument": 5, "track": 3, "qtime": 47, "bar": 2, "isDrum": false}, {"time": 143, "velocity": 0, "pitch": 58, "instrument": 5, "track": 3, "qtime": 47, "bar": 2, "isDrum": false}, {"time": 143, "velocity": 0, "pitch": 62, "instrument": 5, "track": 3, "qtime": 47, "bar": 2, "isDrum": false}, {"time": 144, "velocity": 96, "pitch": 55, "instrument": 5, "track": 3, "qtime": 0, "bar": 3, "isDrum": false}, {"time": 150, "velocity": 96, "pitch": 58, "instrument": 5, "track": 3, "qtime": 6, "bar": 3, "isDrum": false}, {"time": 150, "velocity": 96, "pitch": 62, "instrument": 5, "track": 3, "qtime": 6, "bar": 3, "isDrum": false}, {"time": 150, "velocity": 96, "pitch": 67, "instrument": 5, "track": 3, "qtime": 6, "bar": 3, "isDrum": false}, {"time": 185, "velocity": 0, "pitch": 55, "instrument": 5, "track": 3, "qtime": 41, "bar": 3, "isDrum": false}, {"time": 185, "velocity": 0, "pitch": 58, "instrument": 5, "track": 3, "qtime": 41, "bar": 3, "isDrum": false}, {"time": 185, "velocity": 0, "pitch": 62, "instrument": 5, "track": 3, "qtime": 41, "bar": 3, "isDrum": false}, {"time": 185, "velocity": 0, "pitch": 67, "instrument": 5, "track": 3, "qtime": 41, "bar": 3, "isDrum": false}, {"time": 192, "velocity": 96, "pitch": 58, "instrument": 5, "track": 3, "qtime": 0, "bar": 4, "isDrum": false}, {"time": 192, "velocity": 96, "pitch": 62, "instrument": 5, "track": 3, "qtime": 0, "bar": 4, "isDrum": false}, {"time": 192, "velocity": 96, "pitch": 64, "instrument": 5, "track": 3, "qtime": 0, "bar": 4, "isDrum": false}, {"time": 215, "velocity": 0, "pitch": 58, "instrument": 5, "track": 3, "qtime": 23, "bar": 4, "isDrum": false}, {"time": 215, "velocity": 0, "pitch": 62, "instrument": 5, "track": 3, "qtime": 23, "bar": 4, "isDrum": false}, {"time": 215, "velocity": 0, "pitch": 64, "instrument": 5, "track": 3, "qtime": 23, "bar": 4, "isDrum": false}, {"time": 222, "velocity": 96, "pitch": 55, "instrument": 5, "track": 3, "qtime": 30, "bar": 4, "isDrum": false}, {"time": 222, "velocity": 96, "pitch": 58, "instrument": 5, "track": 3, "qtime": 30, "bar": 4, "isDrum": false}, {"time": 222, "velocity": 96, "pitch": 62, "instrument": 5, "track": 3, "qtime": 30, "bar": 4, "isDrum": false}, {"time": 222, "velocity": 96, "pitch": 67, "instrument": 5, "track": 3, "qtime": 30, "bar": 4, "isDrum": false}, {"time": 227, "velocity": 0, "pitch": 62, "instrument": 5, "track": 3, "qtime": 35, "bar": 4, "isDrum": false}, {"time": 227, "velocity": 0, "pitch": 67, "instrument": 5, "track": 3, "qtime": 35, "bar": 4, "isDrum": false}, {"time": 228, "velocity": 96, "pitch": 62, "instrument": 5, "track": 3, "qtime": 36, "bar": 4, "isDrum": false}, {"time": 228, "velocity": 96, "pitch": 65, "instrument": 5, "track": 3, "qtime": 36, "bar": 4, "isDrum": false}, {"time": 231, "velocity": 0, "pitch": 58, "instrument": 5, "track": 3, "qtime": 39, "bar": 4, "isDrum": false}, {"time": 232, "velocity": 0, "pitch": 55, "instrument": 5, "track": 3, "qtime": 40, "bar": 4, "isDrum": false}, {"time": 233, "velocity": 0, "pitch": 62, "instrument": 5, "track": 3, "qtime": 41, "bar": 4, "isDrum": false}, {"time": 233, "velocity": 0, "pitch": 65, "instrument": 5, "track": 3, "qtime": 41, "bar": 4, "isDrum": false}, {"time": 234, "velocity": 96, "pitch": 55, "instrument": 5, "track": 3, "qtime": 42, "bar": 4, "isDrum": false}, {"time": 234, "velocity": 96, "pitch": 58, "instrument": 5, "track": 3, "qtime": 42, "bar": 4, "isDrum": false}, {"time": 234, "velocity": 96, "pitch": 62, "instrument": 5, "track": 3, "qtime": 42, "bar": 4, "isDrum": false}, {"time": 239, "velocity": 0, "pitch": 55, "instrument": 5, "track": 3, "qtime": 47, "bar": 4, "isDrum": false}, {"time": 239, "velocity": 0, "pitch": 58, "instrument": 5, "track": 3, "qtime": 47, "bar": 4, "isDrum": false}, {"time": 239, "velocity": 0, "pitch": 62, "instrument": 5, "track": 3, "qtime": 47, "bar": 4, "isDrum": false}, {"time": 240, "velocity": 96, "pitch": 55, "instrument": 5, "track": 3, "qtime": 0, "bar": 5, "isDrum": false}, {"time": 246, "velocity": 96, "pitch": 58, "instrument": 5, "track": 3, "qtime": 6, "bar": 5, "isDrum": false}, {"time": 246, "velocity": 96, "pitch": 62, "instrument": 5, "track": 3, "qtime": 6, "bar": 5, "isDrum": false}, {"time": 246, "velocity": 96, "pitch": 67, "instrument": 5, "track": 3, "qtime": 6, "bar": 5, "isDrum": false}, {"time": 281, "velocity": 0, "pitch": 55, "instrument": 5, "track": 3, "qtime": 41, "bar": 5, "isDrum": false}, {"time": 281, "velocity": 0, "pitch": 58, "instrument": 5, "track": 3, "qtime": 41, "bar": 5, "isDrum": false}, {"time": 281, "velocity": 0, "pitch": 62, "instrument": 5, "track": 3, "qtime": 41, "bar": 5, "isDrum": false}, {"time": 281, "velocity": 0, "pitch": 67, "instrument": 5, "track": 3, "qtime": 41, "bar": 5, "isDrum": false}, {"time": 288, "velocity": 96, "pitch": 58, "instrument": 5, "track": 3, "qtime": 0, "bar": 6, "isDrum": false}, {"time": 288, "velocity": 96, "pitch": 62, "instrument": 5, "track": 3, "qtime": 0, "bar": 6, "isDrum": false}, {"time": 288, "velocity": 96, "pitch": 64, "instrument": 5, "track": 3, "qtime": 0, "bar": 6, "isDrum": false}, {"time": 311, "velocity": 0, "pitch": 58, "instrument": 5, "track": 3, "qtime": 23, "bar": 6, "isDrum": false}, {"time": 311, "velocity": 0, "pitch": 62, "instrument": 5, "track": 3, "qtime": 23, "bar": 6, "isDrum": false}, {"time": 311, "velocity": 0, "pitch": 64, "instrument": 5, "track": 3, "qtime": 23, "bar": 6, "isDrum": false}, {"time": 318, "velocity": 96, "pitch": 55, "instrument": 5, "track": 3, "qtime": 30, "bar": 6, "isDrum": false}, {"time": 318, "velocity": 96, "pitch": 58, "instrument": 5, "track": 3, "qtime": 30, "bar": 6, "isDrum": false}, {"time": 318, "velocity": 96, "pitch": 62, "instrument": 5, "track": 3, "qtime": 30, "bar": 6, "isDrum": false}, {"time": 318, "velocity": 96, "pitch": 67, "instrument": 5, "track": 3, "qtime": 30, "bar": 6, "isDrum": false}, {"time": 323, "velocity": 0, "pitch": 62, "instrument": 5, "track": 3, "qtime": 35, "bar": 6, "isDrum": false}, {"time": 323, "velocity": 0, "pitch": 67, "instrument": 5, "track": 3, "qtime": 35, "bar": 6, "isDrum": false}, {"time": 324, "velocity": 96, "pitch": 62, "instrument": 5, "track": 3, "qtime": 36, "bar": 6, "isDrum": false}, {"time": 324, "velocity": 96, "pitch": 65, "instrument": 5, "track": 3, "qtime": 36, "bar": 6, "isDrum": false}, {"time": 327, "velocity": 0, "pitch": 58, "instrument": 5, "track": 3, "qtime": 39, "bar": 6, "isDrum": false}, {"time": 328, "velocity": 0, "pitch": 55, "instrument": 5, "track": 3, "qtime": 40, "bar": 6, "isDrum": false}, {"time": 329, "velocity": 0, "pitch": 62, "instrument": 5, "track": 3, "qtime": 41, "bar": 6, "isDrum": false}, {"time": 329, "velocity": 0, "pitch": 65, "instrument": 5, "track": 3, "qtime": 41, "bar": 6, "isDrum": false}, {"time": 330, "velocity": 96, "pitch": 55, "instrument": 5, "track": 3, "qtime": 42, "bar": 6, "isDrum": false}, {"time": 330, "velocity": 96, "pitch": 58, "instrument": 5, "track": 3, "qtime": 42, "bar": 6, "isDrum": false}, {"time": 330, "velocity": 96, "pitch": 62, "instrument": 5, "track": 3, "qtime": 42, "bar": 6, "isDrum": false}, {"time": 335, "velocity": 0, "pitch": 55, "instrument": 5, "track": 3, "qtime": 47, "bar": 6, "isDrum": false}, {"time": 335, "velocity": 0, "pitch": 58, "instrument": 5, "track": 3, "qtime": 47, "bar": 6, "isDrum": false}, {"time": 335, "velocity": 0, "pitch": 62, "instrument": 5, "track": 3, "qtime": 47, "bar": 6, "isDrum": false}, {"time": 336, "velocity": 96, "pitch": 55, "instrument": 5, "track": 3, "qtime": 0, "bar": 7, "isDrum": false}, {"time": 342, "velocity": 96, "pitch": 58, "instrument": 5, "track": 3, "qtime": 6, "bar": 7, "isDrum": false}, {"time": 342, "velocity": 96, "pitch": 62, "instrument": 5, "track": 3, "qtime": 6, "bar": 7, "isDrum": false}, {"time": 342, "velocity": 96, "pitch": 67, "instrument": 5, "track": 3, "qtime": 6, "bar": 7, "isDrum": false}, {"time": 377, "velocity": 0, "pitch": 55, "instrument": 5, "track": 3, "qtime": 41, "bar": 7, "isDrum": false}, {"time": 377, "velocity": 0, "pitch": 58, "instrument": 5, "track": 3, "qtime": 41, "bar": 7, "isDrum": false}, {"time": 377, "velocity": 0, "pitch": 62, "instrument": 5, "track": 3, "qtime": 41, "bar": 7, "isDrum": false}, {"time": 377, "velocity": 0, "pitch": 67, "instrument": 5, "track": 3, "qtime": 41, "bar": 7, "isDrum": false}, {"time": 21, "velocity": 120, "pitch": 35, "instrument": 0, "track": 7, "qtime": 21, "bar": 0, "isDrum": true}, {"time": 22, "velocity": 0, "pitch": 35, "instrument": 0, "track": 7, "qtime": 22, "bar": 0, "isDrum": true}, {"time": 27, "velocity": 120, "pitch": 40, "instrument": 0, "track": 7, "qtime": 27, "bar": 0, "isDrum": true}, {"time": 28, "velocity": 0, "pitch": 40, "instrument": 0, "track": 7, "qtime": 28, "bar": 0, "isDrum": true}, {"time": 39, "velocity": 120, "pitch": 42, "instrument": 0, "track": 7, "qtime": 39, "bar": 0, "isDrum": true}, {"time": 40, "velocity": 0, "pitch": 42, "instrument": 0, "track": 7, "qtime": 40, "bar": 0, "isDrum": true}, {"time": 45, "velocity": 120, "pitch": 40, "instrument": 0, "track": 7, "qtime": 45, "bar": 0, "isDrum": true}, {"time": 45, "velocity": 120, "pitch": 42, "instrument": 0, "track": 7, "qtime": 45, "bar": 0, "isDrum": true}, {"time": 46, "velocity": 0, "pitch": 40, "instrument": 0, "track": 7, "qtime": 46, "bar": 0, "isDrum": true}, {"time": 46, "velocity": 0, "pitch": 42, "instrument": 0, "track": 7, "qtime": 46, "bar": 0, "isDrum": true}, {"time": 69, "velocity": 120, "pitch": 35, "instrument": 0, "track": 7, "qtime": 21, "bar": 1, "isDrum": true}, {"time": 70, "velocity": 0, "pitch": 35, "instrument": 0, "track": 7, "qtime": 22, "bar": 1, "isDrum": true}, {"time": 75, "velocity": 120, "pitch": 40, "instrument": 0, "track": 7, "qtime": 27, "bar": 1, "isDrum": true}, {"time": 76, "velocity": 0, "pitch": 40, "instrument": 0, "track": 7, "qtime": 28, "bar": 1, "isDrum": true}, {"time": 87, "velocity": 120, "pitch": 42, "instrument": 0, "track": 7, "qtime": 39, "bar": 1, "isDrum": true}, {"time": 88, "velocity": 0, "pitch": 42, "instrument": 0, "track": 7, "qtime": 40, "bar": 1, "isDrum": true}, {"time": 93, "velocity": 120, "pitch": 35, "instrument": 0, "track": 7, "qtime": 45, "bar": 1, "isDrum": true}, {"time": 93, "velocity": 120, "pitch": 42, "instrument": 0, "track": 7, "qtime": 45, "bar": 1, "isDrum": true}, {"time": 94, "velocity": 0, "pitch": 35, "instrument": 0, "track": 7, "qtime": 46, "bar": 1, "isDrum": true}, {"time": 94, "velocity": 0, "pitch": 42, "instrument": 0, "track": 7, "qtime": 46, "bar": 1, "isDrum": true}, {"time": 117, "velocity": 120, "pitch": 35, "instrument": 0, "track": 7, "qtime": 21, "bar": 2, "isDrum": true}, {"time": 118, "velocity": 0, "pitch": 35, "instrument": 0, "track": 7, "qtime": 22, "bar": 2, "isDrum": true}, {"time": 123, "velocity": 120, "pitch": 40, "instrument": 0, "track": 7, "qtime": 27, "bar": 2, "isDrum": true}, {"time": 124, "velocity": 0, "pitch": 40, "instrument": 0, "track": 7, "qtime": 28, "bar": 2, "isDrum": true}, {"time": 135, "velocity": 120, "pitch": 42, "instrument": 0, "track": 7, "qtime": 39, "bar": 2, "isDrum": true}, {"time": 136, "velocity": 0, "pitch": 42, "instrument": 0, "track": 7, "qtime": 40, "bar": 2, "isDrum": true}, {"time": 141, "velocity": 120, "pitch": 40, "instrument": 0, "track": 7, "qtime": 45, "bar": 2, "isDrum": true}, {"time": 141, "velocity": 120, "pitch": 42, "instrument": 0, "track": 7, "qtime": 45, "bar": 2, "isDrum": true}, {"time": 142, "velocity": 0, "pitch": 40, "instrument": 0, "track": 7, "qtime": 46, "bar": 2, "isDrum": true}, {"time": 142, "velocity": 0, "pitch": 42, "instrument": 0, "track": 7, "qtime": 46, "bar": 2, "isDrum": true}, {"time": 165, "velocity": 120, "pitch": 35, "instrument": 0, "track": 7, "qtime": 21, "bar": 3, "isDrum": true}, {"time": 166, "velocity": 0, "pitch": 35, "instrument": 0, "track": 7, "qtime": 22, "bar": 3, "isDrum": true}, {"time": 171, "velocity": 120, "pitch": 40, "instrument": 0, "track": 7, "qtime": 27, "bar": 3, "isDrum": true}, {"time": 172, "velocity": 0, "pitch": 40, "instrument": 0, "track": 7, "qtime": 28, "bar": 3, "isDrum": true}, {"time": 183, "velocity": 120, "pitch": 42, "instrument": 0, "track": 7, "qtime": 39, "bar": 3, "isDrum": true}, {"time": 184, "velocity": 0, "pitch": 42, "instrument": 0, "track": 7, "qtime": 40, "bar": 3, "isDrum": true}, {"time": 189, "velocity": 120, "pitch": 35, "instrument": 0, "track": 7, "qtime": 45, "bar": 3, "isDrum": true}, {"time": 189, "velocity": 120, "pitch": 42, "instrument": 0, "track": 7, "qtime": 45, "bar": 3, "isDrum": true}, {"time": 190, "velocity": 0, "pitch": 35, "instrument": 0, "track": 7, "qtime": 46, "bar": 3, "isDrum": true}, {"time": 190, "velocity": 0, "pitch": 42, "instrument": 0, "track": 7, "qtime": 46, "bar": 3, "isDrum": true}, {"time": 213, "velocity": 120, "pitch": 35, "instrument": 0, "track": 7, "qtime": 21, "bar": 4, "isDrum": true}, {"time": 214, "velocity": 0, "pitch": 35, "instrument": 0, "track": 7, "qtime": 22, "bar": 4, "isDrum": true}, {"time": 219, "velocity": 120, "pitch": 40, "instrument": 0, "track": 7, "qtime": 27, "bar": 4, "isDrum": true}, {"time": 220, "velocity": 0, "pitch": 40, "instrument": 0, "track": 7, "qtime": 28, "bar": 4, "isDrum": true}, {"time": 231, "velocity": 120, "pitch": 42, "instrument": 0, "track": 7, "qtime": 39, "bar": 4, "isDrum": true}, {"time": 232, "velocity": 0, "pitch": 42, "instrument": 0, "track": 7, "qtime": 40, "bar": 4, "isDrum": true}, {"time": 237, "velocity": 120, "pitch": 40, "instrument": 0, "track": 7, "qtime": 45, "bar": 4, "isDrum": true}, {"time": 237, "velocity": 120, "pitch": 42, "instrument": 0, "track": 7, "qtime": 45, "bar": 4, "isDrum": true}, {"time": 238, "velocity": 0, "pitch": 40, "instrument": 0, "track": 7, "qtime": 46, "bar": 4, "isDrum": true}, {"time": 238, "velocity": 0, "pitch": 42, "instrument": 0, "track": 7, "qtime": 46, "bar": 4, "isDrum": true}, {"time": 261, "velocity": 120, "pitch": 35, "instrument": 0, "track": 7, "qtime": 21, "bar": 5, "isDrum": true}, {"time": 262, "velocity": 0, "pitch": 35, "instrument": 0, "track": 7, "qtime": 22, "bar": 5, "isDrum": true}, {"time": 267, "velocity": 120, "pitch": 40, "instrument": 0, "track": 7, "qtime": 27, "bar": 5, "isDrum": true}, {"time": 268, "velocity": 0, "pitch": 40, "instrument": 0, "track": 7, "qtime": 28, "bar": 5, "isDrum": true}, {"time": 279, "velocity": 120, "pitch": 42, "instrument": 0, "track": 7, "qtime": 39, "bar": 5, "isDrum": true}, {"time": 280, "velocity": 0, "pitch": 42, "instrument": 0, "track": 7, "qtime": 40, "bar": 5, "isDrum": true}, {"time": 285, "velocity": 120, "pitch": 35, "instrument": 0, "track": 7, "qtime": 45, "bar": 5, "isDrum": true}, {"time": 285, "velocity": 120, "pitch": 42, "instrument": 0, "track": 7, "qtime": 45, "bar": 5, "isDrum": true}, {"time": 286, "velocity": 0, "pitch": 35, "instrument": 0, "track": 7, "qtime": 46, "bar": 5, "isDrum": true}, {"time": 286, "velocity": 0, "pitch": 42, "instrument": 0, "track": 7, "qtime": 46, "bar": 5, "isDrum": true}, {"time": 309, "velocity": 120, "pitch": 35, "instrument": 0, "track": 7, "qtime": 21, "bar": 6, "isDrum": true}, {"time": 310, "velocity": 0, "pitch": 35, "instrument": 0, "track": 7, "qtime": 22, "bar": 6, "isDrum": true}, {"time": 315, "velocity": 120, "pitch": 40, "instrument": 0, "track": 7, "qtime": 27, "bar": 6, "isDrum": true}, {"time": 316, "velocity": 0, "pitch": 40, "instrument": 0, "track": 7, "qtime": 28, "bar": 6, "isDrum": true}, {"time": 327, "velocity": 120, "pitch": 42, "instrument": 0, "track": 7, "qtime": 39, "bar": 6, "isDrum": true}, {"time": 328, "velocity": 0, "pitch": 42, "instrument": 0, "track": 7, "qtime": 40, "bar": 6, "isDrum": true}, {"time": 333, "velocity": 120, "pitch": 40, "instrument": 0, "track": 7, "qtime": 45, "bar": 6, "isDrum": true}, {"time": 333, "velocity": 120, "pitch": 42, "instrument": 0, "track": 7, "qtime": 45, "bar": 6, "isDrum": true}, {"time": 334, "velocity": 0, "pitch": 40, "instrument": 0, "track": 7, "qtime": 46, "bar": 6, "isDrum": true}, {"time": 334, "velocity": 0, "pitch": 42, "instrument": 0, "track": 7, "qtime": 46, "bar": 6, "isDrum": true}, {"time": 357, "velocity": 120, "pitch": 35, "instrument": 0, "track": 7, "qtime": 21, "bar": 7, "isDrum": true}, {"time": 358, "velocity": 0, "pitch": 35, "instrument": 0, "track": 7, "qtime": 22, "bar": 7, "isDrum": true}, {"time": 363, "velocity": 120, "pitch": 40, "instrument": 0, "track": 7, "qtime": 27, "bar": 7, "isDrum": true}, {"time": 364, "velocity": 0, "pitch": 40, "instrument": 0, "track": 7, "qtime": 28, "bar": 7, "isDrum": true}, {"time": 375, "velocity": 120, "pitch": 42, "instrument": 0, "track": 7, "qtime": 39, "bar": 7, "isDrum": true}, {"time": 376, "velocity": 0, "pitch": 42, "instrument": 0, "track": 7, "qtime": 40, "bar": 7, "isDrum": true}, {"time": 381, "velocity": 120, "pitch": 35, "instrument": 0, "track": 7, "qtime": 45, "bar": 7, "isDrum": true}, {"time": 381, "velocity": 120, "pitch": 42, "instrument": 0, "track": 7, "qtime": 45, "bar": 7, "isDrum": true}, {"time": 382, "velocity": 0, "pitch": 35, "instrument": 0, "track": 7, "qtime": 46, "bar": 7, "isDrum": true}, {"time": 382, "velocity": 0, "pitch": 42, "instrument": 0, "track": 7, "qtime": 46, "bar": 7, "isDrum": true}], "resolution": 12, "tempo": 87, "minPitch": 31, "maxPitch": 84, "validSegments": [0], "validTracks": [31], "segmentLength": 8}, "audio": "https://www.sfu.ca/~jeffe/examples/8b_gibbs_26_orig.mp3"}, {"src": "gen/8b_gibbs_26_gen.json", "highlights": [[], [], [], [0, 1, 2, 3, 4, 5, 6, 7], [0, 1, 2, 3, 4, 5, 6, 7], [], [], []], "caption": "We resample two tracks from 15a", "mixer": [7, 5, 7, 7, 9, 8, 8, 8], "sample_id": "15b", "json": {"tracks": [{"bars": [{"events": [0, 1, 2, 3, 4, 5, 6, 7, 8, 9, 10, 11, 12, 13, 14, 15], "isFourFour": true, "hasNotes": true, "time": 0}, {"events": [16, 17, 18, 19, 20, 21, 22, 23, 24, 25, 26, 27], "isFourFour": true, "hasNotes": true, "time": 48}, {"events": [28, 29, 30, 31, 32, 33, 34, 35, 36, 37, 38, 39, 40, 41, 42, 43], "isFourFour": true, "hasNotes": true, "time": 96}, {"events": [44, 45, 46, 47, 48, 49, 50, 51, 52, 53, 54, 55], "isFourFour": true, "hasNotes": true, "time": 144}, {"events": [56, 57, 58, 59, 60, 61, 62, 63, 64, 65, 66, 67, 68, 69, 70, 71], "isFourFour": true, "hasNotes": true, "time": 192}, {"events": [72, 73, 74, 75, 76, 77, 78, 79, 80, 81, 82, 83], "isFourFour": true, "hasNotes": true, "time": 240}, {"events": [84, 85, 86, 87, 88, 89, 90, 91, 92, 93, 94, 95, 96, 97, 98, 99], "isFourFour": true, "hasNotes": true, "time": 288}, {"events": [100, 101, 102, 103, 104, 105, 106, 107, 108, 109, 110, 111], "isFourFour": true, "hasNotes": true, "time": 336}], "isDrum": false, "minPitch": 34, "maxPitch": 48, "instrument": 39, "avPolyphony": 1, "noteDensity": 9, "noteDensityV2": 5}, {"bars": [{"events": [112, 113, 114, 115, 116, 117, 118, 119, 120, 121, 122, 123], "isFourFour": true, "hasNotes": true, "time": 0}, {"events": [124, 125, 126, 127, 128, 129, 130, 131, 132, 133, 134, 135, 136, 137, 138, 139, 140, 141, 142, 143, 144, 145, 146, 147, 148, 149, 150, 151, 152, 153, 154, 155, 156, 157, 158, 159, 160, 161, 162, 163, 164, 165, 166, 167, 168, 169, 170, 171], "isFourFour": true, "hasNotes": true, "time": 48}, {"events": [172, 173, 174, 175, 176, 177, 178, 179], "isFourFour": true, "hasNotes": true, "time": 96}, {"events": [180, 181, 182, 183, 184, 185, 186, 187, 188, 189, 190, 191, 192, 193, 194, 195, 196, 197, 198, 199, 200, 201, 202, 203, 204, 205, 206, 207, 208, 209, 210, 211, 212, 213, 214, 215, 216, 217, 218, 219, 220, 221, 222, 223, 224, 225, 226, 227], "isFourFour": true, "hasNotes": true, "time": 144}, {"events": [228, 229, 230, 231, 232, 233, 234, 235, 236, 237, 238, 239], "isFourFour": true, "hasNotes": true, "time": 192}, {"events": [240, 241, 242, 243, 244, 245, 246, 247, 248, 249, 250, 251, 252, 253, 254, 255, 256, 257, 258, 259, 260, 261, 262, 263, 264, 265, 266, 267, 268, 269, 270, 271, 272, 273, 274, 275, 276, 277, 278, 279, 280, 281, 282, 283, 284, 285, 286, 287], "isFourFour": true, "hasNotes": true, "time": 240}, {"events": [288, 289, 290, 291, 292, 293, 294, 295], "isFourFour": true, "hasNotes": true, "time": 288}, {"events": [296, 297, 298, 299, 300, 301, 302, 303, 304, 305, 306, 307, 308, 309, 310, 311, 312, 313, 314, 315, 316, 317, 318, 319, 320, 321, 322, 323, 324, 325, 326, 327, 328, 329, 330, 331, 332, 333, 334, 335, 336, 337, 338, 339, 340, 341, 342, 343], "isFourFour": true, "hasNotes": true, "time": 336}], "isDrum": false, "minPitch": 62, "maxPitch": 74, "instrument": 27, "avPolyphony": 1.9217391, "noteDensity": 9, "noteDensityV2": 8}, {"bars": [{"events": [344, 345, 346, 347, 348, 349, 350, 351], "isFourFour": true, "hasNotes": true, "time": 0}, {"isFourFour": true, "hasNotes": false, "time": 48}, {"events": [352, 353, 354, 355, 356, 357], "isFourFour": true, "hasNotes": true, "time": 96}, {"events": [358, 359], "isFourFour": true, "hasNotes": true, "time": 144}, {"events": [360, 361, 362, 363, 364, 365, 366, 367, 368, 369, 370, 371, 372, 373, 374, 375], "isFourFour": true, "hasNotes": true, "time": 192}, {"events": [376, 377, 378, 379, 380, 381, 382, 383, 384, 385, 386, 387, 388, 389, 390, 391, 392, 393, 394, 395, 396, 397, 398, 399], "isFourFour": true, "hasNotes": true, "time": 240}, {"events": [400, 401, 402, 403, 404, 405, 406, 407, 408, 409, 410, 411, 412, 413, 414, 415, 416, 417, 418, 419, 420, 421, 422, 423, 424, 425], "isFourFour": true, "hasNotes": true, "time": 288}, {"events": [426, 427, 428, 429, 430, 431, 432, 433, 434, 435, 436, 437, 438, 439, 440, 441, 442, 443, 444, 445, 446, 447, 448, 449], "isFourFour": true, "hasNotes": true, "time": 336}], "isDrum": false, "minPitch": 65, "maxPitch": 84, "instrument": 26, "avPolyphony": 1, "noteDensity": 9, "noteDensityV2": 6}, {"bars": [{"events": [566, 567, 568, 569, 570, 571, 572, 573, 574, 575, 576, 577, 578, 579, 580, 581, 582, 583, 584, 585, 586, 587, 588, 589, 590, 591, 592], "isFourFour": true, "hasNotes": true, "time": 0}, {"events": [593, 594, 595, 596, 597, 598, 599, 600, 601, 602, 603, 604, 605, 606, 607, 608, 609, 610, 611, 612, 613, 614, 615, 616, 617, 618, 619, 620, 621, 622, 623, 624, 625, 626, 627, 628, 629, 630, 631, 632, 633, 634, 635, 636, 637, 638, 639, 640, 641, 642, 643, 644], "isFourFour": true, "hasNotes": true, "time": 48}, {"events": [645, 646, 647, 648, 649, 650, 651, 652, 653, 654, 655, 656, 657, 658, 659, 660, 661, 662, 663, 664, 665, 666, 667, 668, 669, 670, 671, 672, 673, 674, 675, 676, 677, 678, 679, 680], "isFourFour": true, "hasNotes": true, "time": 96}, {"events": [681, 682, 683, 684, 685, 686, 687, 688, 689, 690, 691, 692, 693, 694, 695, 696, 697, 698, 699, 700, 701, 702, 703, 704, 705, 706, 707, 708, 709, 710, 711, 712, 713, 714, 715, 716, 717, 718, 719, 720, 721, 722, 723, 724, 725, 726, 727, 728, 729, 730, 731, 732], "isFourFour": true, "hasNotes": true, "time": 144}, {"events": [733, 734, 735, 736, 737, 738, 739, 740, 741, 742, 743, 744, 745, 746, 747, 748, 749, 750, 751, 752, 753, 754, 755, 756, 757, 758, 759, 760, 761, 762, 763, 764, 765, 766, 767, 768], "isFourFour": true, "hasNotes": true, "time": 192}, {"events": [769, 770, 771, 772, 773, 774, 775, 776, 777, 778, 779, 780, 781, 782, 783, 784, 785, 786, 787, 788, 789, 790, 791, 792, 793, 794, 795, 796, 797, 798, 799, 800, 801, 802, 803, 804, 805, 806, 807, 808, 809, 810, 811, 812, 813, 814, 815, 816], "isFourFour": true, "hasNotes": true, "time": 240}, {"events": [817, 818, 819, 820, 821, 822, 823, 824, 825, 826, 827, 828, 829, 830, 831, 832, 833, 834, 835, 836, 837, 838, 839, 840, 841, 842, 843, 844, 845, 846, 847, 848, 849, 850, 851, 852, 853, 854, 855, 856, 857, 858], "isFourFour": true, "hasNotes": true, "time": 288}, {"events": [859, 860, 861, 862, 863, 864, 865, 866, 867, 868, 869, 870, 871, 872, 873, 874, 875, 876, 877, 878, 879, 880, 881, 882, 883, 884, 885, 886, 887, 888, 889, 890, 891, 892, 893, 894, 895, 896], "isFourFour": true, "hasNotes": true, "time": 336}], "isDrum": false, "minPitch": 36, "maxPitch": 70, "instrument": 5, "avPolyphony": 3.29807687, "noteDensity": 9, "noteDensityV2": 9}, {"bars": [{"events": [450, 451, 452, 453, 454, 455, 456, 457, 458, 459, 460, 461, 462, 463, 464, 465], "isFourFour": true, "hasNotes": true, "time": 0}, {"events": [466, 467, 468, 469, 470, 471, 472, 473, 474, 475], "isFourFour": true, "hasNotes": true, "time": 48}, {"events": [476, 477, 478, 479, 480, 481, 482, 483, 484, 485, 486, 487, 488, 489, 490, 491, 492, 493, 494, 495], "isFourFour": true, "hasNotes": true, "time": 96}, {"events": [496, 497, 498, 499, 500, 501, 502, 503, 504, 505], "isFourFour": true, "hasNotes": true, "time": 144}, {"events": [506, 507, 508, 509, 510, 511, 512, 513, 514, 515, 516, 517, 518, 519, 520, 521, 522, 523, 524, 525], "isFourFour": true, "hasNotes": true, "time": 192}, {"events": [526, 527, 528, 529, 530, 531, 532, 533, 534, 535], "isFourFour": true, "hasNotes": true, "time": 240}, {"events": [536, 537, 538, 539, 540, 541, 542, 543, 544, 545, 546, 547, 548, 549, 550, 551, 552, 553, 554, 555], "isFourFour": true, "hasNotes": true, "time": 288}, {"events": [556, 557, 558, 559, 560, 561, 562, 563, 564, 565], "isFourFour": true, "hasNotes": true, "time": 336}], "isDrum": true, "minPitch": 36, "maxPitch": 55, "instrument": 0, "avPolyphony": 1.16, "noteDensity": 9, "noteDensityV2": 3}], "events": [{"time": 0, "velocity": 96, "pitch": 36, "instrument": 39, "track": 0, "qtime": 0, "isDrum": false}, {"time": 5, "velocity": 0, "pitch": 36, "instrument": 39, "track": 0, "qtime": 5, "isDrum": false}, {"time": 6, "velocity": 96, "pitch": 36, "instrument": 39, "track": 0, "qtime": 6, "isDrum": false}, {"time": 11, "velocity": 0, "pitch": 36, "instrument": 39, "track": 0, "qtime": 11, "isDrum": false}, {"time": 21, "velocity": 96, "pitch": 34, "instrument": 39, "track": 0, "qtime": 21, "isDrum": false}, {"time": 22, "velocity": 0, "pitch": 34, "instrument": 39, "track": 0, "qtime": 22, "isDrum": false}, {"time": 24, "velocity": 96, "pitch": 36, "instrument": 39, "track": 0, "qtime": 24, "isDrum": false}, {"time": 27, "velocity": 0, "pitch": 36, "instrument": 39, "track": 0, "qtime": 27, "isDrum": false}, {"time": 27, "velocity": 96, "pitch": 48, "instrument": 39, "track": 0, "qtime": 27, "isDrum": false}, {"time": 28, "velocity": 0, "pitch": 48, "instrument": 39, "track": 0, "qtime": 28, "isDrum": false}, {"time": 30, "velocity": 96, "pitch": 46, "instrument": 39, "track": 0, "qtime": 30, "isDrum": false}, {"time": 35, "velocity": 0, "pitch": 46, "instrument": 39, "track": 0, "qtime": 35, "isDrum": false}, {"time": 36, "velocity": 96, "pitch": 45, "instrument": 39, "track": 0, "qtime": 36, "isDrum": false}, {"time": 41, "velocity": 0, "pitch": 45, "instrument": 39, "track": 0, "qtime": 41, "isDrum": false}, {"time": 42, "velocity": 96, "pitch": 41, "instrument": 39, "track": 0, "qtime": 42, "isDrum": false}, {"time": 47, "velocity": 0, "pitch": 41, "instrument": 39, "track": 0, "qtime": 47, "isDrum": false}, {"time": 48, "velocity": 96, "pitch": 43, "instrument": 39, "track": 0, "qtime": 0, "isDrum": false}, {"time": 52, "velocity": 0, "pitch": 43, "instrument": 39, "track": 0, "qtime": 4, "isDrum": false}, {"time": 54, "velocity": 96, "pitch": 43, "instrument": 39, "track": 0, "qtime": 6, "isDrum": false}, {"time": 59, "velocity": 0, "pitch": 43, "instrument": 39, "track": 0, "qtime": 11, "isDrum": false}, {"time": 69, "velocity": 96, "pitch": 41, "instrument": 39, "track": 0, "qtime": 21, "isDrum": false}, {"time": 70, "velocity": 0, "pitch": 41, "instrument": 39, "track": 0, "qtime": 22, "isDrum": false}, {"time": 72, "velocity": 96, "pitch": 43, "instrument": 39, "track": 0, "qtime": 24, "isDrum": false}, {"time": 77, "velocity": 0, "pitch": 43, "instrument": 39, "track": 0, "qtime": 29, "isDrum": false}, {"time": 78, "velocity": 96, "pitch": 43, "instrument": 39, "track": 0, "qtime": 30, "isDrum": false}, {"time": 82, "velocity": 0, "pitch": 43, "instrument": 39, "track": 0, "qtime": 34, "isDrum": false}, {"time": 93, "velocity": 96, "pitch": 43, "instrument": 39, "track": 0, "qtime": 45, "isDrum": false}, {"time": 94, "velocity": 0, "pitch": 43, "instrument": 39, "track": 0, "qtime": 46, "isDrum": false}, {"time": 96, "velocity": 96, "pitch": 36, "instrument": 39, "track": 0, "qtime": 0, "isDrum": false}, {"time": 101, "velocity": 0, "pitch": 36, "instrument": 39, "track": 0, "qtime": 5, "isDrum": false}, {"time": 102, "velocity": 96, "pitch": 36, "instrument": 39, "track": 0, "qtime": 6, "isDrum": false}, {"time": 107, "velocity": 0, "pitch": 36, "instrument": 39, "track": 0, "qtime": 11, "isDrum": false}, {"time": 117, "velocity": 96, "pitch": 34, "instrument": 39, "track": 0, "qtime": 21, "isDrum": false}, {"time": 118, "velocity": 0, "pitch": 34, "instrument": 39, "track": 0, "qtime": 22, "isDrum": false}, {"time": 120, "velocity": 96, "pitch": 36, "instrument": 39, "track": 0, "qtime": 24, "isDrum": false}, {"time": 123, "velocity": 0, "pitch": 36, "instrument": 39, "track": 0, "qtime": 27, "isDrum": false}, {"time": 123, "velocity": 96, "pitch": 48, "instrument": 39, "track": 0, "qtime": 27, "isDrum": false}, {"time": 124, "velocity": 0, "pitch": 48, "instrument": 39, "track": 0, "qtime": 28, "isDrum": false}, {"time": 126, "velocity": 96, "pitch": 46, "instrument": 39, "track": 0, "qtime": 30, "isDrum": false}, {"time": 131, "velocity": 0, "pitch": 46, "instrument": 39, "track": 0, "qtime": 35, "isDrum": false}, {"time": 132, "velocity": 96, "pitch": 45, "instrument": 39, "track": 0, "qtime": 36, "isDrum": false}, {"time": 137, "velocity": 0, "pitch": 45, "instrument": 39, "track": 0, "qtime": 41, "isDrum": false}, {"time": 138, "velocity": 96, "pitch": 41, "instrument": 39, "track": 0, "qtime": 42, "isDrum": false}, {"time": 143, "velocity": 0, "pitch": 41, "instrument": 39, "track": 0, "qtime": 47, "isDrum": false}, {"time": 144, "velocity": 96, "pitch": 43, "instrument": 39, "track": 0, "qtime": 0, "isDrum": false}, {"time": 148, "velocity": 0, "pitch": 43, "instrument": 39, "track": 0, "qtime": 4, "isDrum": false}, {"time": 150, "velocity": 96, "pitch": 43, "instrument": 39, "track": 0, "qtime": 6, "isDrum": false}, {"time": 155, "velocity": 0, "pitch": 43, "instrument": 39, "track": 0, "qtime": 11, "isDrum": false}, {"time": 165, "velocity": 96, "pitch": 41, "instrument": 39, "track": 0, "qtime": 21, "isDrum": false}, {"time": 166, "velocity": 0, "pitch": 41, "instrument": 39, "track": 0, "qtime": 22, "isDrum": false}, {"time": 168, "velocity": 96, "pitch": 43, "instrument": 39, "track": 0, "qtime": 24, "isDrum": false}, {"time": 173, "velocity": 0, "pitch": 43, "instrument": 39, "track": 0, "qtime": 29, "isDrum": false}, {"time": 174, "velocity": 96, "pitch": 43, "instrument": 39, "track": 0, "qtime": 30, "isDrum": false}, {"time": 178, "velocity": 0, "pitch": 43, "instrument": 39, "track": 0, "qtime": 34, "isDrum": false}, {"time": 189, "velocity": 96, "pitch": 43, "instrument": 39, "track": 0, "qtime": 45, "isDrum": false}, {"time": 190, "velocity": 0, "pitch": 43, "instrument": 39, "track": 0, "qtime": 46, "isDrum": false}, {"time": 192, "velocity": 96, "pitch": 36, "instrument": 39, "track": 0, "qtime": 0, "isDrum": false}, {"time": 197, "velocity": 0, "pitch": 36, "instrument": 39, "track": 0, "qtime": 5, "isDrum": false}, {"time": 198, "velocity": 96, "pitch": 36, "instrument": 39, "track": 0, "qtime": 6, "isDrum": false}, {"time": 203, "velocity": 0, "pitch": 36, "instrument": 39, "track": 0, "qtime": 11, "isDrum": false}, {"time": 213, "velocity": 96, "pitch": 34, "instrument": 39, "track": 0, "qtime": 21, "isDrum": false}, {"time": 214, "velocity": 0, "pitch": 34, "instrument": 39, "track": 0, "qtime": 22, "isDrum": false}, {"time": 216, "velocity": 96, "pitch": 36, "instrument": 39, "track": 0, "qtime": 24, "isDrum": false}, {"time": 219, "velocity": 0, "pitch": 36, "instrument": 39, "track": 0, "qtime": 27, "isDrum": false}, {"time": 219, "velocity": 96, "pitch": 48, "instrument": 39, "track": 0, "qtime": 27, "isDrum": false}, {"time": 220, "velocity": 0, "pitch": 48, "instrument": 39, "track": 0, "qtime": 28, "isDrum": false}, {"time": 222, "velocity": 96, "pitch": 46, "instrument": 39, "track": 0, "qtime": 30, "isDrum": false}, {"time": 227, "velocity": 0, "pitch": 46, "instrument": 39, "track": 0, "qtime": 35, "isDrum": false}, {"time": 228, "velocity": 96, "pitch": 45, "instrument": 39, "track": 0, "qtime": 36, "isDrum": false}, {"time": 233, "velocity": 0, "pitch": 45, "instrument": 39, "track": 0, "qtime": 41, "isDrum": false}, {"time": 234, "velocity": 96, "pitch": 41, "instrument": 39, "track": 0, "qtime": 42, "isDrum": false}, {"time": 239, "velocity": 0, "pitch": 41, "instrument": 39, "track": 0, "qtime": 47, "isDrum": false}, {"time": 240, "velocity": 96, "pitch": 43, "instrument": 39, "track": 0, "qtime": 0, "isDrum": false}, {"time": 244, "velocity": 0, "pitch": 43, "instrument": 39, "track": 0, "qtime": 4, "isDrum": false}, {"time": 246, "velocity": 96, "pitch": 43, "instrument": 39, "track": 0, "qtime": 6, "isDrum": false}, {"time": 251, "velocity": 0, "pitch": 43, "instrument": 39, "track": 0, "qtime": 11, "isDrum": false}, {"time": 261, "velocity": 96, "pitch": 41, "instrument": 39, "track": 0, "qtime": 21, "isDrum": false}, {"time": 262, "velocity": 0, "pitch": 41, "instrument": 39, "track": 0, "qtime": 22, "isDrum": false}, {"time": 264, "velocity": 96, "pitch": 43, "instrument": 39, "track": 0, "qtime": 24, "isDrum": false}, {"time": 269, "velocity": 0, "pitch": 43, "instrument": 39, "track": 0, "qtime": 29, "isDrum": false}, {"time": 270, "velocity": 96, "pitch": 43, "instrument": 39, "track": 0, "qtime": 30, "isDrum": false}, {"time": 274, "velocity": 0, "pitch": 43, "instrument": 39, "track": 0, "qtime": 34, "isDrum": false}, {"time": 285, "velocity": 96, "pitch": 43, "instrument": 39, "track": 0, "qtime": 45, "isDrum": false}, {"time": 286, "velocity": 0, "pitch": 43, "instrument": 39, "track": 0, "qtime": 46, "isDrum": false}, {"time": 288, "velocity": 96, "pitch": 36, "instrument": 39, "track": 0, "qtime": 0, "isDrum": false}, {"time": 293, "velocity": 0, "pitch": 36, "instrument": 39, "track": 0, "qtime": 5, "isDrum": false}, {"time": 294, "velocity": 96, "pitch": 36, "instrument": 39, "track": 0, "qtime": 6, "isDrum": false}, {"time": 299, "velocity": 0, "pitch": 36, "instrument": 39, "track": 0, "qtime": 11, "isDrum": false}, {"time": 309, "velocity": 96, "pitch": 34, "instrument": 39, "track": 0, "qtime": 21, "isDrum": false}, {"time": 310, "velocity": 0, "pitch": 34, "instrument": 39, "track": 0, "qtime": 22, "isDrum": false}, {"time": 312, "velocity": 96, "pitch": 36, "instrument": 39, "track": 0, "qtime": 24, "isDrum": false}, {"time": 315, "velocity": 0, "pitch": 36, "instrument": 39, "track": 0, "qtime": 27, "isDrum": false}, {"time": 315, "velocity": 96, "pitch": 48, "instrument": 39, "track": 0, "qtime": 27, "isDrum": false}, {"time": 316, "velocity": 0, "pitch": 48, "instrument": 39, "track": 0, "qtime": 28, "isDrum": false}, {"time": 318, "velocity": 96, "pitch": 46, "instrument": 39, "track": 0, "qtime": 30, "isDrum": false}, {"time": 323, "velocity": 0, "pitch": 46, "instrument": 39, "track": 0, "qtime": 35, "isDrum": false}, {"time": 324, "velocity": 96, "pitch": 45, "instrument": 39, "track": 0, "qtime": 36, "isDrum": false}, {"time": 329, "velocity": 0, "pitch": 45, "instrument": 39, "track": 0, "qtime": 41, "isDrum": false}, {"time": 330, "velocity": 96, "pitch": 41, "instrument": 39, "track": 0, "qtime": 42, "isDrum": false}, {"time": 335, "velocity": 0, "pitch": 41, "instrument": 39, "track": 0, "qtime": 47, "isDrum": false}, {"time": 336, "velocity": 96, "pitch": 43, "instrument": 39, "track": 0, "qtime": 0, "isDrum": false}, {"time": 340, "velocity": 0, "pitch": 43, "instrument": 39, "track": 0, "qtime": 4, "isDrum": false}, {"time": 342, "velocity": 96, "pitch": 43, "instrument": 39, "track": 0, "qtime": 6, "isDrum": false}, {"time": 347, "velocity": 0, "pitch": 43, "instrument": 39, "track": 0, "qtime": 11, "isDrum": false}, {"time": 357, "velocity": 96, "pitch": 41, "instrument": 39, "track": 0, "qtime": 21, "isDrum": false}, {"time": 358, "velocity": 0, "pitch": 41, "instrument": 39, "track": 0, "qtime": 22, "isDrum": false}, {"time": 360, "velocity": 96, "pitch": 43, "instrument": 39, "track": 0, "qtime": 24, "isDrum": false}, {"time": 365, "velocity": 0, "pitch": 43, "instrument": 39, "track": 0, "qtime": 29, "isDrum": false}, {"time": 366, "velocity": 96, "pitch": 43, "instrument": 39, "track": 0, "qtime": 30, "isDrum": false}, {"time": 370, "velocity": 0, "pitch": 43, "instrument": 39, "track": 0, "qtime": 34, "isDrum": false}, {"time": 381, "velocity": 96, "pitch": 43, "instrument": 39, "track": 0, "qtime": 45, "isDrum": false}, {"time": 382, "velocity": 0, "pitch": 43, "instrument": 39, "track": 0, "qtime": 46, "isDrum": false}, {"time": 6, "velocity": 72, "pitch": 62, "instrument": 27, "track": 1, "qtime": 6, "isDrum": false}, {"time": 6, "velocity": 72, "pitch": 67, "instrument": 27, "track": 1, "qtime": 6, "isDrum": false}, {"time": 9, "velocity": 0, "pitch": 62, "instrument": 27, "track": 1, "qtime": 9, "isDrum": false}, {"time": 9, "velocity": 0, "pitch": 67, "instrument": 27, "track": 1, "qtime": 9, "isDrum": false}, {"time": 18, "velocity": 72, "pitch": 62, "instrument": 27, "track": 1, "qtime": 18, "isDrum": false}, {"time": 18, "velocity": 72, "pitch": 67, "instrument": 27, "track": 1, "qtime": 18, "isDrum": false}, {"time": 23, "velocity": 0, "pitch": 62, "instrument": 27, "track": 1, "qtime": 23, "isDrum": false}, {"time": 23, "velocity": 0, "pitch": 67, "instrument": 27, "track": 1, "qtime": 23, "isDrum": false}, {"time": 24, "velocity": 72, "pitch": 64, "instrument": 27, "track": 1, "qtime": 24, "isDrum": false}, {"time": 25, "velocity": 72, "pitch": 69, "instrument": 27, "track": 1, "qtime": 25, "isDrum": false}, {"time": 39, "velocity": 0, "pitch": 64, "instrument": 27, "track": 1, "qtime": 39, "isDrum": false}, {"time": 39, "velocity": 0, "pitch": 69, "instrument": 27, "track": 1, "qtime": 39, "isDrum": false}, {"time": 54, "velocity": 72, "pitch": 70, "instrument": 27, "track": 1, "qtime": 6, "isDrum": false}, {"time": 54, "velocity": 72, "pitch": 74, "instrument": 27, "track": 1, "qtime": 6, "isDrum": false}, {"time": 56, "velocity": 0, "pitch": 70, "instrument": 27, "track": 1, "qtime": 8, "isDrum": false}, {"time": 57, "velocity": 0, "pitch": 74, "instrument": 27, "track": 1, "qtime": 9, "isDrum": false}, {"time": 57, "velocity": 72, "pitch": 70, "instrument": 27, "track": 1, "qtime": 9, "isDrum": false}, {"time": 57, "velocity": 72, "pitch": 74, "instrument": 27, "track": 1, "qtime": 9, "isDrum": false}, {"time": 59, "velocity": 0, "pitch": 70, "instrument": 27, "track": 1, "qtime": 11, "isDrum": false}, {"time": 59, "velocity": 0, "pitch": 74, "instrument": 27, "track": 1, "qtime": 11, "isDrum": false}, {"time": 60, "velocity": 72, "pitch": 70, "instrument": 27, "track": 1, "qtime": 12, "isDrum": false}, {"time": 60, "velocity": 72, "pitch": 74, "instrument": 27, "track": 1, "qtime": 12, "isDrum": false}, {"time": 63, "velocity": 0, "pitch": 70, "instrument": 27, "track": 1, "qtime": 15, "isDrum": false}, {"time": 63, "velocity": 0, "pitch": 74, "instrument": 27, "track": 1, "qtime": 15, "isDrum": false}, {"time": 63, "velocity": 72, "pitch": 69, "instrument": 27, "track": 1, "qtime": 15, "isDrum": false}, {"time": 63, "velocity": 72, "pitch": 72, "instrument": 27, "track": 1, "qtime": 15, "isDrum": false}, {"time": 65, "velocity": 0, "pitch": 69, "instrument": 27, "track": 1, "qtime": 17, "isDrum": false}, {"time": 65, "velocity": 0, "pitch": 72, "instrument": 27, "track": 1, "qtime": 17, "isDrum": false}, {"time": 66, "velocity": 72, "pitch": 69, "instrument": 27, "track": 1, "qtime": 18, "isDrum": false}, {"time": 66, "velocity": 72, "pitch": 72, "instrument": 27, "track": 1, "qtime": 18, "isDrum": false}, {"time": 68, "velocity": 0, "pitch": 69, "instrument": 27, "track": 1, "qtime": 20, "isDrum": false}, {"time": 69, "velocity": 0, "pitch": 72, "instrument": 27, "track": 1, "qtime": 21, "isDrum": false}, {"time": 69, "velocity": 72, "pitch": 69, "instrument": 27, "track": 1, "qtime": 21, "isDrum": false}, {"time": 69, "velocity": 72, "pitch": 72, "instrument": 27, "track": 1, "qtime": 21, "isDrum": false}, {"time": 71, "velocity": 0, "pitch": 69, "instrument": 27, "track": 1, "qtime": 23, "isDrum": false}, {"time": 71, "velocity": 0, "pitch": 72, "instrument": 27, "track": 1, "qtime": 23, "isDrum": false}, {"time": 72, "velocity": 72, "pitch": 69, "instrument": 27, "track": 1, "qtime": 24, "isDrum": false}, {"time": 72, "velocity": 72, "pitch": 72, "instrument": 27, "track": 1, "qtime": 24, "isDrum": false}, {"time": 75, "velocity": 0, "pitch": 69, "instrument": 27, "track": 1, "qtime": 27, "isDrum": false}, {"time": 75, "velocity": 0, "pitch": 72, "instrument": 27, "track": 1, "qtime": 27, "isDrum": false}, {"time": 75, "velocity": 72, "pitch": 67, "instrument": 27, "track": 1, "qtime": 27, "isDrum": false}, {"time": 75, "velocity": 72, "pitch": 70, "instrument": 27, "track": 1, "qtime": 27, "isDrum": false}, {"time": 77, "velocity": 0, "pitch": 67, "instrument": 27, "track": 1, "qtime": 29, "isDrum": false}, {"time": 77, "velocity": 0, "pitch": 70, "instrument": 27, "track": 1, "qtime": 29, "isDrum": false}, {"time": 78, "velocity": 72, "pitch": 67, "instrument": 27, "track": 1, "qtime": 30, "isDrum": false}, {"time": 78, "velocity": 72, "pitch": 70, "instrument": 27, "track": 1, "qtime": 30, "isDrum": false}, {"time": 80, "velocity": 0, "pitch": 67, "instrument": 27, "track": 1, "qtime": 32, "isDrum": false}, {"time": 81, "velocity": 0, "pitch": 70, "instrument": 27, "track": 1, "qtime": 33, "isDrum": false}, {"time": 81, "velocity": 72, "pitch": 67, "instrument": 27, "track": 1, "qtime": 33, "isDrum": false}, {"time": 81, "velocity": 72, "pitch": 70, "instrument": 27, "track": 1, "qtime": 33, "isDrum": false}, {"time": 83, "velocity": 0, "pitch": 67, "instrument": 27, "track": 1, "qtime": 35, "isDrum": false}, {"time": 83, "velocity": 0, "pitch": 70, "instrument": 27, "track": 1, "qtime": 35, "isDrum": false}, {"time": 84, "velocity": 72, "pitch": 67, "instrument": 27, "track": 1, "qtime": 36, "isDrum": false}, {"time": 84, "velocity": 72, "pitch": 70, "instrument": 27, "track": 1, "qtime": 36, "isDrum": false}, {"time": 89, "velocity": 0, "pitch": 67, "instrument": 27, "track": 1, "qtime": 41, "isDrum": false}, {"time": 89, "velocity": 0, "pitch": 70, "instrument": 27, "track": 1, "qtime": 41, "isDrum": false}, {"time": 90, "velocity": 72, "pitch": 62, "instrument": 27, "track": 1, "qtime": 42, "isDrum": false}, {"time": 90, "velocity": 72, "pitch": 67, "instrument": 27, "track": 1, "qtime": 42, "isDrum": false}, {"time": 95, "velocity": 0, "pitch": 62, "instrument": 27, "track": 1, "qtime": 47, "isDrum": false}, {"time": 95, "velocity": 0, "pitch": 67, "instrument": 27, "track": 1, "qtime": 47, "isDrum": false}, {"time": 108, "velocity": 72, "pitch": 64, "instrument": 27, "track": 1, "qtime": 12, "isDrum": false}, {"time": 108, "velocity": 72, "pitch": 69, "instrument": 27, "track": 1, "qtime": 12, "isDrum": false}, {"time": 114, "velocity": 0, "pitch": 64, "instrument": 27, "track": 1, "qtime": 18, "isDrum": false}, {"time": 114, "velocity": 0, "pitch": 69, "instrument": 27, "track": 1, "qtime": 18, "isDrum": false}, {"time": 114, "velocity": 72, "pitch": 62, "instrument": 27, "track": 1, "qtime": 18, "isDrum": false}, {"time": 115, "velocity": 72, "pitch": 67, "instrument": 27, "track": 1, "qtime": 19, "isDrum": false}, {"time": 129, "velocity": 0, "pitch": 62, "instrument": 27, "track": 1, "qtime": 33, "isDrum": false}, {"time": 130, "velocity": 0, "pitch": 67, "instrument": 27, "track": 1, "qtime": 34, "isDrum": false}, {"time": 150, "velocity": 72, "pitch": 70, "instrument": 27, "track": 1, "qtime": 6, "isDrum": false}, {"time": 150, "velocity": 72, "pitch": 74, "instrument": 27, "track": 1, "qtime": 6, "isDrum": false}, {"time": 152, "velocity": 0, "pitch": 70, "instrument": 27, "track": 1, "qtime": 8, "isDrum": false}, {"time": 153, "velocity": 0, "pitch": 74, "instrument": 27, "track": 1, "qtime": 9, "isDrum": false}, {"time": 153, "velocity": 72, "pitch": 70, "instrument": 27, "track": 1, "qtime": 9, "isDrum": false}, {"time": 153, "velocity": 72, "pitch": 74, "instrument": 27, "track": 1, "qtime": 9, "isDrum": false}, {"time": 155, "velocity": 0, "pitch": 70, "instrument": 27, "track": 1, "qtime": 11, "isDrum": false}, {"time": 155, "velocity": 0, "pitch": 74, "instrument": 27, "track": 1, "qtime": 11, "isDrum": false}, {"time": 156, "velocity": 72, "pitch": 70, "instrument": 27, "track": 1, "qtime": 12, "isDrum": false}, {"time": 156, "velocity": 72, "pitch": 74, "instrument": 27, "track": 1, "qtime": 12, "isDrum": false}, {"time": 159, "velocity": 0, "pitch": 70, "instrument": 27, "track": 1, "qtime": 15, "isDrum": false}, {"time": 159, "velocity": 0, "pitch": 74, "instrument": 27, "track": 1, "qtime": 15, "isDrum": false}, {"time": 159, "velocity": 72, "pitch": 69, "instrument": 27, "track": 1, "qtime": 15, "isDrum": false}, {"time": 159, "velocity": 72, "pitch": 72, "instrument": 27, "track": 1, "qtime": 15, "isDrum": false}, {"time": 161, "velocity": 0, "pitch": 69, "instrument": 27, "track": 1, "qtime": 17, "isDrum": false}, {"time": 161, "velocity": 0, "pitch": 72, "instrument": 27, "track": 1, "qtime": 17, "isDrum": false}, {"time": 162, "velocity": 72, "pitch": 69, "instrument": 27, "track": 1, "qtime": 18, "isDrum": false}, {"time": 162, "velocity": 72, "pitch": 72, "instrument": 27, "track": 1, "qtime": 18, "isDrum": false}, {"time": 164, "velocity": 0, "pitch": 69, "instrument": 27, "track": 1, "qtime": 20, "isDrum": false}, {"time": 165, "velocity": 0, "pitch": 72, "instrument": 27, "track": 1, "qtime": 21, "isDrum": false}, {"time": 165, "velocity": 72, "pitch": 69, "instrument": 27, "track": 1, "qtime": 21, "isDrum": false}, {"time": 165, "velocity": 72, "pitch": 72, "instrument": 27, "track": 1, "qtime": 21, "isDrum": false}, {"time": 167, "velocity": 0, "pitch": 69, "instrument": 27, "track": 1, "qtime": 23, "isDrum": false}, {"time": 167, "velocity": 0, "pitch": 72, "instrument": 27, "track": 1, "qtime": 23, "isDrum": false}, {"time": 168, "velocity": 72, "pitch": 69, "instrument": 27, "track": 1, "qtime": 24, "isDrum": false}, {"time": 168, "velocity": 72, "pitch": 72, "instrument": 27, "track": 1, "qtime": 24, "isDrum": false}, {"time": 171, "velocity": 0, "pitch": 69, "instrument": 27, "track": 1, "qtime": 27, "isDrum": false}, {"time": 171, "velocity": 0, "pitch": 72, "instrument": 27, "track": 1, "qtime": 27, "isDrum": false}, {"time": 171, "velocity": 72, "pitch": 67, "instrument": 27, "track": 1, "qtime": 27, "isDrum": false}, {"time": 171, "velocity": 72, "pitch": 70, "instrument": 27, "track": 1, "qtime": 27, "isDrum": false}, {"time": 173, "velocity": 0, "pitch": 67, "instrument": 27, "track": 1, "qtime": 29, "isDrum": false}, {"time": 173, "velocity": 0, "pitch": 70, "instrument": 27, "track": 1, "qtime": 29, "isDrum": false}, {"time": 174, "velocity": 72, "pitch": 67, "instrument": 27, "track": 1, "qtime": 30, "isDrum": false}, {"time": 174, "velocity": 72, "pitch": 70, "instrument": 27, "track": 1, "qtime": 30, "isDrum": false}, {"time": 176, "velocity": 0, "pitch": 67, "instrument": 27, "track": 1, "qtime": 32, "isDrum": false}, {"time": 177, "velocity": 0, "pitch": 70, "instrument": 27, "track": 1, "qtime": 33, "isDrum": false}, {"time": 177, "velocity": 72, "pitch": 67, "instrument": 27, "track": 1, "qtime": 33, "isDrum": false}, {"time": 177, "velocity": 72, "pitch": 70, "instrument": 27, "track": 1, "qtime": 33, "isDrum": false}, {"time": 179, "velocity": 0, "pitch": 67, "instrument": 27, "track": 1, "qtime": 35, "isDrum": false}, {"time": 179, "velocity": 0, "pitch": 70, "instrument": 27, "track": 1, "qtime": 35, "isDrum": false}, {"time": 180, "velocity": 72, "pitch": 67, "instrument": 27, "track": 1, "qtime": 36, "isDrum": false}, {"time": 180, "velocity": 72, "pitch": 70, "instrument": 27, "track": 1, "qtime": 36, "isDrum": false}, {"time": 185, "velocity": 0, "pitch": 67, "instrument": 27, "track": 1, "qtime": 41, "isDrum": false}, {"time": 185, "velocity": 0, "pitch": 70, "instrument": 27, "track": 1, "qtime": 41, "isDrum": false}, {"time": 186, "velocity": 72, "pitch": 62, "instrument": 27, "track": 1, "qtime": 42, "isDrum": false}, {"time": 186, "velocity": 72, "pitch": 67, "instrument": 27, "track": 1, "qtime": 42, "isDrum": false}, {"time": 191, "velocity": 0, "pitch": 62, "instrument": 27, "track": 1, "qtime": 47, "isDrum": false}, {"time": 191, "velocity": 0, "pitch": 67, "instrument": 27, "track": 1, "qtime": 47, "isDrum": false}, {"time": 198, "velocity": 72, "pitch": 62, "instrument": 27, "track": 1, "qtime": 6, "isDrum": false}, {"time": 198, "velocity": 72, "pitch": 67, "instrument": 27, "track": 1, "qtime": 6, "isDrum": false}, {"time": 201, "velocity": 0, "pitch": 62, "instrument": 27, "track": 1, "qtime": 9, "isDrum": false}, {"time": 201, "velocity": 0, "pitch": 67, "instrument": 27, "track": 1, "qtime": 9, "isDrum": false}, {"time": 210, "velocity": 72, "pitch": 62, "instrument": 27, "track": 1, "qtime": 18, "isDrum": false}, {"time": 210, "velocity": 72, "pitch": 67, "instrument": 27, "track": 1, "qtime": 18, "isDrum": false}, {"time": 215, "velocity": 0, "pitch": 62, "instrument": 27, "track": 1, "qtime": 23, "isDrum": false}, {"time": 215, "velocity": 0, "pitch": 67, "instrument": 27, "track": 1, "qtime": 23, "isDrum": false}, {"time": 216, "velocity": 72, "pitch": 64, "instrument": 27, "track": 1, "qtime": 24, "isDrum": false}, {"time": 217, "velocity": 72, "pitch": 69, "instrument": 27, "track": 1, "qtime": 25, "isDrum": false}, {"time": 231, "velocity": 0, "pitch": 64, "instrument": 27, "track": 1, "qtime": 39, "isDrum": false}, {"time": 231, "velocity": 0, "pitch": 69, "instrument": 27, "track": 1, "qtime": 39, "isDrum": false}, {"time": 246, "velocity": 72, "pitch": 70, "instrument": 27, "track": 1, "qtime": 6, "isDrum": false}, {"time": 246, "velocity": 72, "pitch": 74, "instrument": 27, "track": 1, "qtime": 6, "isDrum": false}, {"time": 248, "velocity": 0, "pitch": 70, "instrument": 27, "track": 1, "qtime": 8, "isDrum": false}, {"time": 249, "velocity": 0, "pitch": 74, "instrument": 27, "track": 1, "qtime": 9, "isDrum": false}, {"time": 249, "velocity": 72, "pitch": 70, "instrument": 27, "track": 1, "qtime": 9, "isDrum": false}, {"time": 249, "velocity": 72, "pitch": 74, "instrument": 27, "track": 1, "qtime": 9, "isDrum": false}, {"time": 251, "velocity": 0, "pitch": 70, "instrument": 27, "track": 1, "qtime": 11, "isDrum": false}, {"time": 251, "velocity": 0, "pitch": 74, "instrument": 27, "track": 1, "qtime": 11, "isDrum": false}, {"time": 252, "velocity": 72, "pitch": 70, "instrument": 27, "track": 1, "qtime": 12, "isDrum": false}, {"time": 252, "velocity": 72, "pitch": 74, "instrument": 27, "track": 1, "qtime": 12, "isDrum": false}, {"time": 255, "velocity": 0, "pitch": 70, "instrument": 27, "track": 1, "qtime": 15, "isDrum": false}, {"time": 255, "velocity": 0, "pitch": 74, "instrument": 27, "track": 1, "qtime": 15, "isDrum": false}, {"time": 255, "velocity": 72, "pitch": 69, "instrument": 27, "track": 1, "qtime": 15, "isDrum": false}, {"time": 255, "velocity": 72, "pitch": 72, "instrument": 27, "track": 1, "qtime": 15, "isDrum": false}, {"time": 257, "velocity": 0, "pitch": 69, "instrument": 27, "track": 1, "qtime": 17, "isDrum": false}, {"time": 257, "velocity": 0, "pitch": 72, "instrument": 27, "track": 1, "qtime": 17, "isDrum": false}, {"time": 258, "velocity": 72, "pitch": 69, "instrument": 27, "track": 1, "qtime": 18, "isDrum": false}, {"time": 258, "velocity": 72, "pitch": 72, "instrument": 27, "track": 1, "qtime": 18, "isDrum": false}, {"time": 260, "velocity": 0, "pitch": 69, "instrument": 27, "track": 1, "qtime": 20, "isDrum": false}, {"time": 261, "velocity": 0, "pitch": 72, "instrument": 27, "track": 1, "qtime": 21, "isDrum": false}, {"time": 261, "velocity": 72, "pitch": 69, "instrument": 27, "track": 1, "qtime": 21, "isDrum": false}, {"time": 261, "velocity": 72, "pitch": 72, "instrument": 27, "track": 1, "qtime": 21, "isDrum": false}, {"time": 263, "velocity": 0, "pitch": 69, "instrument": 27, "track": 1, "qtime": 23, "isDrum": false}, {"time": 263, "velocity": 0, "pitch": 72, "instrument": 27, "track": 1, "qtime": 23, "isDrum": false}, {"time": 264, "velocity": 72, "pitch": 69, "instrument": 27, "track": 1, "qtime": 24, "isDrum": false}, {"time": 264, "velocity": 72, "pitch": 72, "instrument": 27, "track": 1, "qtime": 24, "isDrum": false}, {"time": 267, "velocity": 0, "pitch": 69, "instrument": 27, "track": 1, "qtime": 27, "isDrum": false}, {"time": 267, "velocity": 0, "pitch": 72, "instrument": 27, "track": 1, "qtime": 27, "isDrum": false}, {"time": 267, "velocity": 72, "pitch": 67, "instrument": 27, "track": 1, "qtime": 27, "isDrum": false}, {"time": 267, "velocity": 72, "pitch": 70, "instrument": 27, "track": 1, "qtime": 27, "isDrum": false}, {"time": 269, "velocity": 0, "pitch": 67, "instrument": 27, "track": 1, "qtime": 29, "isDrum": false}, {"time": 269, "velocity": 0, "pitch": 70, "instrument": 27, "track": 1, "qtime": 29, "isDrum": false}, {"time": 270, "velocity": 72, "pitch": 67, "instrument": 27, "track": 1, "qtime": 30, "isDrum": false}, {"time": 270, "velocity": 72, "pitch": 70, "instrument": 27, "track": 1, "qtime": 30, "isDrum": false}, {"time": 272, "velocity": 0, "pitch": 67, "instrument": 27, "track": 1, "qtime": 32, "isDrum": false}, {"time": 273, "velocity": 0, "pitch": 70, "instrument": 27, "track": 1, "qtime": 33, "isDrum": false}, {"time": 273, "velocity": 72, "pitch": 67, "instrument": 27, "track": 1, "qtime": 33, "isDrum": false}, {"time": 273, "velocity": 72, "pitch": 70, "instrument": 27, "track": 1, "qtime": 33, "isDrum": false}, {"time": 275, "velocity": 0, "pitch": 67, "instrument": 27, "track": 1, "qtime": 35, "isDrum": false}, {"time": 275, "velocity": 0, "pitch": 70, "instrument": 27, "track": 1, "qtime": 35, "isDrum": false}, {"time": 276, "velocity": 72, "pitch": 67, "instrument": 27, "track": 1, "qtime": 36, "isDrum": false}, {"time": 276, "velocity": 72, "pitch": 70, "instrument": 27, "track": 1, "qtime": 36, "isDrum": false}, {"time": 281, "velocity": 0, "pitch": 67, "instrument": 27, "track": 1, "qtime": 41, "isDrum": false}, {"time": 281, "velocity": 0, "pitch": 70, "instrument": 27, "track": 1, "qtime": 41, "isDrum": false}, {"time": 282, "velocity": 72, "pitch": 62, "instrument": 27, "track": 1, "qtime": 42, "isDrum": false}, {"time": 282, "velocity": 72, "pitch": 67, "instrument": 27, "track": 1, "qtime": 42, "isDrum": false}, {"time": 287, "velocity": 0, "pitch": 62, "instrument": 27, "track": 1, "qtime": 47, "isDrum": false}, {"time": 287, "velocity": 0, "pitch": 67, "instrument": 27, "track": 1, "qtime": 47, "isDrum": false}, {"time": 300, "velocity": 72, "pitch": 64, "instrument": 27, "track": 1, "qtime": 12, "isDrum": false}, {"time": 300, "velocity": 72, "pitch": 69, "instrument": 27, "track": 1, "qtime": 12, "isDrum": false}, {"time": 306, "velocity": 0, "pitch": 64, "instrument": 27, "track": 1, "qtime": 18, "isDrum": false}, {"time": 306, "velocity": 0, "pitch": 69, "instrument": 27, "track": 1, "qtime": 18, "isDrum": false}, {"time": 306, "velocity": 72, "pitch": 62, "instrument": 27, "track": 1, "qtime": 18, "isDrum": false}, {"time": 307, "velocity": 72, "pitch": 67, "instrument": 27, "track": 1, "qtime": 19, "isDrum": false}, {"time": 321, "velocity": 0, "pitch": 62, "instrument": 27, "track": 1, "qtime": 33, "isDrum": false}, {"time": 322, "velocity": 0, "pitch": 67, "instrument": 27, "track": 1, "qtime": 34, "isDrum": false}, {"time": 342, "velocity": 72, "pitch": 70, "instrument": 27, "track": 1, "qtime": 6, "isDrum": false}, {"time": 342, "velocity": 72, "pitch": 74, "instrument": 27, "track": 1, "qtime": 6, "isDrum": false}, {"time": 344, "velocity": 0, "pitch": 70, "instrument": 27, "track": 1, "qtime": 8, "isDrum": false}, {"time": 345, "velocity": 0, "pitch": 74, "instrument": 27, "track": 1, "qtime": 9, "isDrum": false}, {"time": 345, "velocity": 72, "pitch": 70, "instrument": 27, "track": 1, "qtime": 9, "isDrum": false}, {"time": 345, "velocity": 72, "pitch": 74, "instrument": 27, "track": 1, "qtime": 9, "isDrum": false}, {"time": 347, "velocity": 0, "pitch": 70, "instrument": 27, "track": 1, "qtime": 11, "isDrum": false}, {"time": 347, "velocity": 0, "pitch": 74, "instrument": 27, "track": 1, "qtime": 11, "isDrum": false}, {"time": 348, "velocity": 72, "pitch": 70, "instrument": 27, "track": 1, "qtime": 12, "isDrum": false}, {"time": 348, "velocity": 72, "pitch": 74, "instrument": 27, "track": 1, "qtime": 12, "isDrum": false}, {"time": 351, "velocity": 0, "pitch": 70, "instrument": 27, "track": 1, "qtime": 15, "isDrum": false}, {"time": 351, "velocity": 0, "pitch": 74, "instrument": 27, "track": 1, "qtime": 15, "isDrum": false}, {"time": 351, "velocity": 72, "pitch": 69, "instrument": 27, "track": 1, "qtime": 15, "isDrum": false}, {"time": 351, "velocity": 72, "pitch": 72, "instrument": 27, "track": 1, "qtime": 15, "isDrum": false}, {"time": 353, "velocity": 0, "pitch": 69, "instrument": 27, "track": 1, "qtime": 17, "isDrum": false}, {"time": 353, "velocity": 0, "pitch": 72, "instrument": 27, "track": 1, "qtime": 17, "isDrum": false}, {"time": 354, "velocity": 72, "pitch": 69, "instrument": 27, "track": 1, "qtime": 18, "isDrum": false}, {"time": 354, "velocity": 72, "pitch": 72, "instrument": 27, "track": 1, "qtime": 18, "isDrum": false}, {"time": 356, "velocity": 0, "pitch": 69, "instrument": 27, "track": 1, "qtime": 20, "isDrum": false}, {"time": 357, "velocity": 0, "pitch": 72, "instrument": 27, "track": 1, "qtime": 21, "isDrum": false}, {"time": 357, "velocity": 72, "pitch": 69, "instrument": 27, "track": 1, "qtime": 21, "isDrum": false}, {"time": 357, "velocity": 72, "pitch": 72, "instrument": 27, "track": 1, "qtime": 21, "isDrum": false}, {"time": 359, "velocity": 0, "pitch": 69, "instrument": 27, "track": 1, "qtime": 23, "isDrum": false}, {"time": 359, "velocity": 0, "pitch": 72, "instrument": 27, "track": 1, "qtime": 23, "isDrum": false}, {"time": 360, "velocity": 72, "pitch": 69, "instrument": 27, "track": 1, "qtime": 24, "isDrum": false}, {"time": 360, "velocity": 72, "pitch": 72, "instrument": 27, "track": 1, "qtime": 24, "isDrum": false}, {"time": 363, "velocity": 0, "pitch": 69, "instrument": 27, "track": 1, "qtime": 27, "isDrum": false}, {"time": 363, "velocity": 0, "pitch": 72, "instrument": 27, "track": 1, "qtime": 27, "isDrum": false}, {"time": 363, "velocity": 72, "pitch": 67, "instrument": 27, "track": 1, "qtime": 27, "isDrum": false}, {"time": 363, "velocity": 72, "pitch": 70, "instrument": 27, "track": 1, "qtime": 27, "isDrum": false}, {"time": 365, "velocity": 0, "pitch": 67, "instrument": 27, "track": 1, "qtime": 29, "isDrum": false}, {"time": 365, "velocity": 0, "pitch": 70, "instrument": 27, "track": 1, "qtime": 29, "isDrum": false}, {"time": 366, "velocity": 72, "pitch": 67, "instrument": 27, "track": 1, "qtime": 30, "isDrum": false}, {"time": 366, "velocity": 72, "pitch": 70, "instrument": 27, "track": 1, "qtime": 30, "isDrum": false}, {"time": 368, "velocity": 0, "pitch": 67, "instrument": 27, "track": 1, "qtime": 32, "isDrum": false}, {"time": 369, "velocity": 0, "pitch": 70, "instrument": 27, "track": 1, "qtime": 33, "isDrum": false}, {"time": 369, "velocity": 72, "pitch": 67, "instrument": 27, "track": 1, "qtime": 33, "isDrum": false}, {"time": 369, "velocity": 72, "pitch": 70, "instrument": 27, "track": 1, "qtime": 33, "isDrum": false}, {"time": 371, "velocity": 0, "pitch": 67, "instrument": 27, "track": 1, "qtime": 35, "isDrum": false}, {"time": 371, "velocity": 0, "pitch": 70, "instrument": 27, "track": 1, "qtime": 35, "isDrum": false}, {"time": 372, "velocity": 72, "pitch": 67, "instrument": 27, "track": 1, "qtime": 36, "isDrum": false}, {"time": 372, "velocity": 72, "pitch": 70, "instrument": 27, "track": 1, "qtime": 36, "isDrum": false}, {"time": 377, "velocity": 0, "pitch": 67, "instrument": 27, "track": 1, "qtime": 41, "isDrum": false}, {"time": 377, "velocity": 0, "pitch": 70, "instrument": 27, "track": 1, "qtime": 41, "isDrum": false}, {"time": 378, "velocity": 72, "pitch": 62, "instrument": 27, "track": 1, "qtime": 42, "isDrum": false}, {"time": 378, "velocity": 72, "pitch": 67, "instrument": 27, "track": 1, "qtime": 42, "isDrum": false}, {"time": 383, "velocity": 0, "pitch": 62, "instrument": 27, "track": 1, "qtime": 47, "isDrum": false}, {"time": 383, "velocity": 0, "pitch": 67, "instrument": 27, "track": 1, "qtime": 47, "isDrum": false}, {"time": 24, "velocity": 96, "pitch": 72, "instrument": 26, "track": 2, "qtime": 24, "isDrum": false}, {"time": 28, "velocity": 0, "pitch": 72, "instrument": 26, "track": 2, "qtime": 28, "isDrum": false}, {"time": 30, "velocity": 96, "pitch": 72, "instrument": 26, "track": 2, "qtime": 30, "isDrum": false}, {"time": 32, "velocity": 0, "pitch": 72, "instrument": 26, "track": 2, "qtime": 32, "isDrum": false}, {"time": 33, "velocity": 96, "pitch": 70, "instrument": 26, "track": 2, "qtime": 33, "isDrum": false}, {"time": 37, "velocity": 0, "pitch": 70, "instrument": 26, "track": 2, "qtime": 37, "isDrum": false}, {"time": 39, "velocity": 96, "pitch": 67, "instrument": 26, "track": 2, "qtime": 39, "isDrum": false}, {"time": 45, "velocity": 0, "pitch": 67, "instrument": 26, "track": 2, "qtime": 45, "isDrum": false}, {"time": 120, "velocity": 96, "pitch": 65, "instrument": 26, "track": 2, "qtime": 24, "isDrum": false}, {"time": 123, "velocity": 0, "pitch": 65, "instrument": 26, "track": 2, "qtime": 27, "isDrum": false}, {"time": 123, "velocity": 96, "pitch": 67, "instrument": 26, "track": 2, "qtime": 27, "isDrum": false}, {"time": 125, "velocity": 0, "pitch": 67, "instrument": 26, "track": 2, "qtime": 29, "isDrum": false}, {"time": 129, "velocity": 96, "pitch": 70, "instrument": 26, "track": 2, "qtime": 33, "isDrum": false}, {"time": 135, "velocity": 0, "pitch": 70, "instrument": 26, "track": 2, "qtime": 39, "isDrum": false}, {"time": 186, "velocity": 96, "pitch": 82, "instrument": 26, "track": 2, "qtime": 42, "isDrum": false}, {"time": 191, "velocity": 0, "pitch": 82, "instrument": 26, "track": 2, "qtime": 47, "isDrum": false}, {"time": 198, "velocity": 96, "pitch": 77, "instrument": 26, "track": 2, "qtime": 6, "isDrum": false}, {"time": 206, "velocity": 0, "pitch": 77, "instrument": 26, "track": 2, "qtime": 14, "isDrum": false}, {"time": 210, "velocity": 96, "pitch": 84, "instrument": 26, "track": 2, "qtime": 18, "isDrum": false}, {"time": 216, "velocity": 0, "pitch": 84, "instrument": 26, "track": 2, "qtime": 24, "isDrum": false}, {"time": 216, "velocity": 96, "pitch": 82, "instrument": 26, "track": 2, "qtime": 24, "isDrum": false}, {"time": 222, "velocity": 0, "pitch": 82, "instrument": 26, "track": 2, "qtime": 30, "isDrum": false}, {"time": 225, "velocity": 96, "pitch": 70, "instrument": 26, "track": 2, "qtime": 33, "isDrum": false}, {"time": 227, "velocity": 0, "pitch": 70, "instrument": 26, "track": 2, "qtime": 35, "isDrum": false}, {"time": 228, "velocity": 96, "pitch": 70, "instrument": 26, "track": 2, "qtime": 36, "isDrum": false}, {"time": 230, "velocity": 0, "pitch": 70, "instrument": 26, "track": 2, "qtime": 38, "isDrum": false}, {"time": 231, "velocity": 96, "pitch": 70, "instrument": 26, "track": 2, "qtime": 39, "isDrum": false}, {"time": 233, "velocity": 0, "pitch": 70, "instrument": 26, "track": 2, "qtime": 41, "isDrum": false}, {"time": 234, "velocity": 96, "pitch": 70, "instrument": 26, "track": 2, "qtime": 42, "isDrum": false}, {"time": 236, "velocity": 0, "pitch": 70, "instrument": 26, "track": 2, "qtime": 44, "isDrum": false}, {"time": 237, "velocity": 96, "pitch": 70, "instrument": 26, "track": 2, "qtime": 45, "isDrum": false}, {"time": 239, "velocity": 0, "pitch": 70, "instrument": 26, "track": 2, "qtime": 47, "isDrum": false}, {"time": 240, "velocity": 96, "pitch": 70, "instrument": 26, "track": 2, "qtime": 0, "isDrum": false}, {"time": 243, "velocity": 0, "pitch": 70, "instrument": 26, "track": 2, "qtime": 3, "isDrum": false}, {"time": 243, "velocity": 96, "pitch": 67, "instrument": 26, "track": 2, "qtime": 3, "isDrum": false}, {"time": 245, "velocity": 0, "pitch": 67, "instrument": 26, "track": 2, "qtime": 5, "isDrum": false}, {"time": 246, "velocity": 96, "pitch": 67, "instrument": 26, "track": 2, "qtime": 6, "isDrum": false}, {"time": 248, "velocity": 0, "pitch": 67, "instrument": 26, "track": 2, "qtime": 8, "isDrum": false}, {"time": 252, "velocity": 96, "pitch": 67, "instrument": 26, "track": 2, "qtime": 12, "isDrum": false}, {"time": 255, "velocity": 0, "pitch": 67, "instrument": 26, "track": 2, "qtime": 15, "isDrum": false}, {"time": 258, "velocity": 96, "pitch": 67, "instrument": 26, "track": 2, "qtime": 18, "isDrum": false}, {"time": 260, "velocity": 0, "pitch": 67, "instrument": 26, "track": 2, "qtime": 20, "isDrum": false}, {"time": 261, "velocity": 96, "pitch": 67, "instrument": 26, "track": 2, "qtime": 21, "isDrum": false}, {"time": 263, "velocity": 0, "pitch": 67, "instrument": 26, "track": 2, "qtime": 23, "isDrum": false}, {"time": 264, "velocity": 96, "pitch": 70, "instrument": 26, "track": 2, "qtime": 24, "isDrum": false}, {"time": 266, "velocity": 0, "pitch": 70, "instrument": 26, "track": 2, "qtime": 26, "isDrum": false}, {"time": 267, "velocity": 96, "pitch": 70, "instrument": 26, "track": 2, "qtime": 27, "isDrum": false}, {"time": 270, "velocity": 0, "pitch": 70, "instrument": 26, "track": 2, "qtime": 30, "isDrum": false}, {"time": 270, "velocity": 96, "pitch": 67, "instrument": 26, "track": 2, "qtime": 30, "isDrum": false}, {"time": 273, "velocity": 0, "pitch": 67, "instrument": 26, "track": 2, "qtime": 33, "isDrum": false}, {"time": 276, "velocity": 96, "pitch": 67, "instrument": 26, "track": 2, "qtime": 36, "isDrum": false}, {"time": 279, "velocity": 0, "pitch": 67, "instrument": 26, "track": 2, "qtime": 39, "isDrum": false}, {"time": 282, "velocity": 96, "pitch": 67, "instrument": 26, "track": 2, "qtime": 42, "isDrum": false}, {"time": 284, "velocity": 0, "pitch": 67, "instrument": 26, "track": 2, "qtime": 44, "isDrum": false}, {"time": 285, "velocity": 96, "pitch": 67, "instrument": 26, "track": 2, "qtime": 45, "isDrum": false}, {"time": 287, "velocity": 0, "pitch": 67, "instrument": 26, "track": 2, "qtime": 47, "isDrum": false}, {"time": 288, "velocity": 96, "pitch": 67, "instrument": 26, "track": 2, "qtime": 0, "isDrum": false}, {"time": 290, "velocity": 0, "pitch": 67, "instrument": 26, "track": 2, "qtime": 2, "isDrum": false}, {"time": 291, "velocity": 96, "pitch": 67, "instrument": 26, "track": 2, "qtime": 3, "isDrum": false}, {"time": 293, "velocity": 0, "pitch": 67, "instrument": 26, "track": 2, "qtime": 5, "isDrum": false}, {"time": 294, "velocity": 96, "pitch": 67, "instrument": 26, "track": 2, "qtime": 6, "isDrum": false}, {"time": 296, "velocity": 0, "pitch": 67, "instrument": 26, "track": 2, "qtime": 8, "isDrum": false}, {"time": 297, "velocity": 96, "pitch": 67, "instrument": 26, "track": 2, "qtime": 9, "isDrum": false}, {"time": 299, "velocity": 0, "pitch": 67, "instrument": 26, "track": 2, "qtime": 11, "isDrum": false}, {"time": 300, "velocity": 96, "pitch": 67, "instrument": 26, "track": 2, "qtime": 12, "isDrum": false}, {"time": 302, "velocity": 0, "pitch": 67, "instrument": 26, "track": 2, "qtime": 14, "isDrum": false}, {"time": 303, "velocity": 96, "pitch": 67, "instrument": 26, "track": 2, "qtime": 15, "isDrum": false}, {"time": 305, "velocity": 0, "pitch": 67, "instrument": 26, "track": 2, "qtime": 17, "isDrum": false}, {"time": 306, "velocity": 96, "pitch": 67, "instrument": 26, "track": 2, "qtime": 18, "isDrum": false}, {"time": 308, "velocity": 0, "pitch": 67, "instrument": 26, "track": 2, "qtime": 20, "isDrum": false}, {"time": 309, "velocity": 96, "pitch": 67, "instrument": 26, "track": 2, "qtime": 21, "isDrum": false}, {"time": 311, "velocity": 0, "pitch": 67, "instrument": 26, "track": 2, "qtime": 23, "isDrum": false}, {"time": 312, "velocity": 96, "pitch": 65, "instrument": 26, "track": 2, "qtime": 24, "isDrum": false}, {"time": 316, "velocity": 0, "pitch": 65, "instrument": 26, "track": 2, "qtime": 28, "isDrum": false}, {"time": 321, "velocity": 96, "pitch": 67, "instrument": 26, "track": 2, "qtime": 33, "isDrum": false}, {"time": 323, "velocity": 0, "pitch": 67, "instrument": 26, "track": 2, "qtime": 35, "isDrum": false}, {"time": 324, "velocity": 96, "pitch": 67, "instrument": 26, "track": 2, "qtime": 36, "isDrum": false}, {"time": 326, "velocity": 0, "pitch": 67, "instrument": 26, "track": 2, "qtime": 38, "isDrum": false}, {"time": 327, "velocity": 96, "pitch": 67, "instrument": 26, "track": 2, "qtime": 39, "isDrum": false}, {"time": 329, "velocity": 0, "pitch": 67, "instrument": 26, "track": 2, "qtime": 41, "isDrum": false}, {"time": 333, "velocity": 96, "pitch": 67, "instrument": 26, "track": 2, "qtime": 45, "isDrum": false}, {"time": 335, "velocity": 0, "pitch": 67, "instrument": 26, "track": 2, "qtime": 47, "isDrum": false}, {"time": 339, "velocity": 96, "pitch": 70, "instrument": 26, "track": 2, "qtime": 3, "isDrum": false}, {"time": 341, "velocity": 0, "pitch": 70, "instrument": 26, "track": 2, "qtime": 5, "isDrum": false}, {"time": 342, "velocity": 96, "pitch": 70, "instrument": 26, "track": 2, "qtime": 6, "isDrum": false}, {"time": 344, "velocity": 0, "pitch": 70, "instrument": 26, "track": 2, "qtime": 8, "isDrum": false}, {"time": 345, "velocity": 96, "pitch": 67, "instrument": 26, "track": 2, "qtime": 9, "isDrum": false}, {"time": 347, "velocity": 0, "pitch": 67, "instrument": 26, "track": 2, "qtime": 11, "isDrum": false}, {"time": 351, "velocity": 96, "pitch": 67, "instrument": 26, "track": 2, "qtime": 15, "isDrum": false}, {"time": 353, "velocity": 0, "pitch": 67, "instrument": 26, "track": 2, "qtime": 17, "isDrum": false}, {"time": 354, "velocity": 96, "pitch": 67, "instrument": 26, "track": 2, "qtime": 18, "isDrum": false}, {"time": 356, "velocity": 0, "pitch": 67, "instrument": 26, "track": 2, "qtime": 20, "isDrum": false}, {"time": 357, "velocity": 96, "pitch": 67, "instrument": 26, "track": 2, "qtime": 21, "isDrum": false}, {"time": 359, "velocity": 0, "pitch": 67, "instrument": 26, "track": 2, "qtime": 23, "isDrum": false}, {"time": 360, "velocity": 96, "pitch": 70, "instrument": 26, "track": 2, "qtime": 24, "isDrum": false}, {"time": 362, "velocity": 0, "pitch": 70, "instrument": 26, "track": 2, "qtime": 26, "isDrum": false}, {"time": 363, "velocity": 96, "pitch": 70, "instrument": 26, "track": 2, "qtime": 27, "isDrum": false}, {"time": 365, "velocity": 0, "pitch": 70, "instrument": 26, "track": 2, "qtime": 29, "isDrum": false}, {"time": 366, "velocity": 96, "pitch": 67, "instrument": 26, "track": 2, "qtime": 30, "isDrum": false}, {"time": 368, "velocity": 0, "pitch": 67, "instrument": 26, "track": 2, "qtime": 32, "isDrum": false}, {"time": 372, "velocity": 96, "pitch": 67, "instrument": 26, "track": 2, "qtime": 36, "isDrum": false}, {"time": 374, "velocity": 0, "pitch": 67, "instrument": 26, "track": 2, "qtime": 38, "isDrum": false}, {"time": 378, "velocity": 96, "pitch": 67, "instrument": 26, "track": 2, "qtime": 42, "isDrum": false}, {"time": 380, "velocity": 0, "pitch": 67, "instrument": 26, "track": 2, "qtime": 44, "isDrum": false}, {"time": 381, "velocity": 96, "pitch": 67, "instrument": 26, "track": 2, "qtime": 45, "isDrum": false}, {"time": 383, "velocity": 0, "pitch": 67, "instrument": 26, "track": 2, "qtime": 47, "isDrum": false}, {"time": 0, "velocity": 120, "pitch": 36, "instrument": 0, "track": 9, "qtime": 0, "isDrum": true}, {"time": 1, "velocity": 0, "pitch": 36, "instrument": 0, "track": 9, "qtime": 1, "isDrum": true}, {"time": 6, "velocity": 120, "pitch": 36, "instrument": 0, "track": 9, "qtime": 6, "isDrum": true}, {"time": 6, "velocity": 120, "pitch": 46, "instrument": 0, "track": 9, "qtime": 6, "isDrum": true}, {"time": 7, "velocity": 0, "pitch": 36, "instrument": 0, "track": 9, "qtime": 7, "isDrum": true}, {"time": 7, "velocity": 0, "pitch": 46, "instrument": 0, "track": 9, "qtime": 7, "isDrum": true}, {"time": 12, "velocity": 120, "pitch": 38, "instrument": 0, "track": 9, "qtime": 12, "isDrum": true}, {"time": 13, "velocity": 0, "pitch": 38, "instrument": 0, "track": 9, "qtime": 13, "isDrum": true}, {"time": 24, "velocity": 120, "pitch": 40, "instrument": 0, "track": 9, "qtime": 24, "isDrum": true}, {"time": 25, "velocity": 0, "pitch": 40, "instrument": 0, "track": 9, "qtime": 25, "isDrum": true}, {"time": 30, "velocity": 120, "pitch": 46, "instrument": 0, "track": 9, "qtime": 30, "isDrum": true}, {"time": 30, "velocity": 120, "pitch": 55, "instrument": 0, "track": 9, "qtime": 30, "isDrum": true}, {"time": 31, "velocity": 0, "pitch": 46, "instrument": 0, "track": 9, "qtime": 31, "isDrum": true}, {"time": 31, "velocity": 0, "pitch": 55, "instrument": 0, "track": 9, "qtime": 31, "isDrum": true}, {"time": 39, "velocity": 120, "pitch": 42, "instrument": 0, "track": 9, "qtime": 39, "isDrum": true}, {"time": 40, "velocity": 0, "pitch": 42, "instrument": 0, "track": 9, "qtime": 40, "isDrum": true}, {"time": 48, "velocity": 120, "pitch": 36, "instrument": 0, "track": 9, "qtime": 0, "isDrum": true}, {"time": 49, "velocity": 0, "pitch": 36, "instrument": 0, "track": 9, "qtime": 1, "isDrum": true}, {"time": 54, "velocity": 120, "pitch": 36, "instrument": 0, "track": 9, "qtime": 6, "isDrum": true}, {"time": 55, "velocity": 0, "pitch": 36, "instrument": 0, "track": 9, "qtime": 7, "isDrum": true}, {"time": 69, "velocity": 120, "pitch": 42, "instrument": 0, "track": 9, "qtime": 21, "isDrum": true}, {"time": 70, "velocity": 0, "pitch": 42, "instrument": 0, "track": 9, "qtime": 22, "isDrum": true}, {"time": 78, "velocity": 120, "pitch": 36, "instrument": 0, "track": 9, "qtime": 30, "isDrum": true}, {"time": 79, "velocity": 0, "pitch": 36, "instrument": 0, "track": 9, "qtime": 31, "isDrum": true}, {"time": 90, "velocity": 120, "pitch": 42, "instrument": 0, "track": 9, "qtime": 42, "isDrum": true}, {"time": 91, "velocity": 0, "pitch": 42, "instrument": 0, "track": 9, "qtime": 43, "isDrum": true}, {"time": 96, "velocity": 120, "pitch": 36, "instrument": 0, "track": 9, "qtime": 0, "isDrum": true}, {"time": 97, "velocity": 0, "pitch": 36, "instrument": 0, "track": 9, "qtime": 1, "isDrum": true}, {"time": 102, "velocity": 120, "pitch": 46, "instrument": 0, "track": 9, "qtime": 6, "isDrum": true}, {"time": 103, "velocity": 0, "pitch": 46, "instrument": 0, "track": 9, "qtime": 7, "isDrum": true}, {"time": 120, "velocity": 120, "pitch": 40, "instrument": 0, "track": 9, "qtime": 24, "isDrum": true}, {"time": 121, "velocity": 0, "pitch": 40, "instrument": 0, "track": 9, "qtime": 25, "isDrum": true}, {"time": 123, "velocity": 120, "pitch": 44, "instrument": 0, "track": 9, "qtime": 27, "isDrum": true}, {"time": 124, "velocity": 0, "pitch": 44, "instrument": 0, "track": 9, "qtime": 28, "isDrum": true}, {"time": 126, "velocity": 120, "pitch": 46, "instrument": 0, "track": 9, "qtime": 30, "isDrum": true}, {"time": 126, "velocity": 120, "pitch": 55, "instrument": 0, "track": 9, "qtime": 30, "isDrum": true}, {"time": 127, "velocity": 0, "pitch": 46, "instrument": 0, "track": 9, "qtime": 31, "isDrum": true}, {"time": 127, "velocity": 0, "pitch": 55, "instrument": 0, "track": 9, "qtime": 31, "isDrum": true}, {"time": 129, "velocity": 120, "pitch": 42, "instrument": 0, "track": 9, "qtime": 33, "isDrum": true}, {"time": 130, "velocity": 0, "pitch": 42, "instrument": 0, "track": 9, "qtime": 34, "isDrum": true}, {"time": 132, "velocity": 120, "pitch": 40, "instrument": 0, "track": 9, "qtime": 36, "isDrum": true}, {"time": 132, "velocity": 120, "pitch": 44, "instrument": 0, "track": 9, "qtime": 36, "isDrum": true}, {"time": 133, "velocity": 0, "pitch": 40, "instrument": 0, "track": 9, "qtime": 37, "isDrum": true}, {"time": 133, "velocity": 0, "pitch": 44, "instrument": 0, "track": 9, "qtime": 37, "isDrum": true}, {"time": 138, "velocity": 120, "pitch": 46, "instrument": 0, "track": 9, "qtime": 42, "isDrum": true}, {"time": 139, "velocity": 0, "pitch": 46, "instrument": 0, "track": 9, "qtime": 43, "isDrum": true}, {"time": 144, "velocity": 120, "pitch": 36, "instrument": 0, "track": 9, "qtime": 0, "isDrum": true}, {"time": 145, "velocity": 0, "pitch": 36, "instrument": 0, "track": 9, "qtime": 1, "isDrum": true}, {"time": 150, "velocity": 120, "pitch": 36, "instrument": 0, "track": 9, "qtime": 6, "isDrum": true}, {"time": 151, "velocity": 0, "pitch": 36, "instrument": 0, "track": 9, "qtime": 7, "isDrum": true}, {"time": 165, "velocity": 120, "pitch": 42, "instrument": 0, "track": 9, "qtime": 21, "isDrum": true}, {"time": 166, "velocity": 0, "pitch": 42, "instrument": 0, "track": 9, "qtime": 22, "isDrum": true}, {"time": 174, "velocity": 120, "pitch": 36, "instrument": 0, "track": 9, "qtime": 30, "isDrum": true}, {"time": 175, "velocity": 0, "pitch": 36, "instrument": 0, "track": 9, "qtime": 31, "isDrum": true}, {"time": 186, "velocity": 120, "pitch": 42, "instrument": 0, "track": 9, "qtime": 42, "isDrum": true}, {"time": 187, "velocity": 0, "pitch": 42, "instrument": 0, "track": 9, "qtime": 43, "isDrum": true}, {"time": 192, "velocity": 120, "pitch": 36, "instrument": 0, "track": 9, "qtime": 0, "isDrum": true}, {"time": 193, "velocity": 0, "pitch": 36, "instrument": 0, "track": 9, "qtime": 1, "isDrum": true}, {"time": 198, "velocity": 120, "pitch": 46, "instrument": 0, "track": 9, "qtime": 6, "isDrum": true}, {"time": 199, "velocity": 0, "pitch": 46, "instrument": 0, "track": 9, "qtime": 7, "isDrum": true}, {"time": 216, "velocity": 120, "pitch": 40, "instrument": 0, "track": 9, "qtime": 24, "isDrum": true}, {"time": 217, "velocity": 0, "pitch": 40, "instrument": 0, "track": 9, "qtime": 25, "isDrum": true}, {"time": 219, "velocity": 120, "pitch": 44, "instrument": 0, "track": 9, "qtime": 27, "isDrum": true}, {"time": 220, "velocity": 0, "pitch": 44, "instrument": 0, "track": 9, "qtime": 28, "isDrum": true}, {"time": 222, "velocity": 120, "pitch": 46, "instrument": 0, "track": 9, "qtime": 30, "isDrum": true}, {"time": 222, "velocity": 120, "pitch": 55, "instrument": 0, "track": 9, "qtime": 30, "isDrum": true}, {"time": 223, "velocity": 0, "pitch": 46, "instrument": 0, "track": 9, "qtime": 31, "isDrum": true}, {"time": 223, "velocity": 0, "pitch": 55, "instrument": 0, "track": 9, "qtime": 31, "isDrum": true}, {"time": 225, "velocity": 120, "pitch": 42, "instrument": 0, "track": 9, "qtime": 33, "isDrum": true}, {"time": 226, "velocity": 0, "pitch": 42, "instrument": 0, "track": 9, "qtime": 34, "isDrum": true}, {"time": 228, "velocity": 120, "pitch": 40, "instrument": 0, "track": 9, "qtime": 36, "isDrum": true}, {"time": 228, "velocity": 120, "pitch": 44, "instrument": 0, "track": 9, "qtime": 36, "isDrum": true}, {"time": 229, "velocity": 0, "pitch": 40, "instrument": 0, "track": 9, "qtime": 37, "isDrum": true}, {"time": 229, "velocity": 0, "pitch": 44, "instrument": 0, "track": 9, "qtime": 37, "isDrum": true}, {"time": 234, "velocity": 120, "pitch": 46, "instrument": 0, "track": 9, "qtime": 42, "isDrum": true}, {"time": 235, "velocity": 0, "pitch": 46, "instrument": 0, "track": 9, "qtime": 43, "isDrum": true}, {"time": 240, "velocity": 120, "pitch": 36, "instrument": 0, "track": 9, "qtime": 0, "isDrum": true}, {"time": 241, "velocity": 0, "pitch": 36, "instrument": 0, "track": 9, "qtime": 1, "isDrum": true}, {"time": 246, "velocity": 120, "pitch": 36, "instrument": 0, "track": 9, "qtime": 6, "isDrum": true}, {"time": 247, "velocity": 0, "pitch": 36, "instrument": 0, "track": 9, "qtime": 7, "isDrum": true}, {"time": 261, "velocity": 120, "pitch": 42, "instrument": 0, "track": 9, "qtime": 21, "isDrum": true}, {"time": 262, "velocity": 0, "pitch": 42, "instrument": 0, "track": 9, "qtime": 22, "isDrum": true}, {"time": 270, "velocity": 120, "pitch": 36, "instrument": 0, "track": 9, "qtime": 30, "isDrum": true}, {"time": 271, "velocity": 0, "pitch": 36, "instrument": 0, "track": 9, "qtime": 31, "isDrum": true}, {"time": 282, "velocity": 120, "pitch": 42, "instrument": 0, "track": 9, "qtime": 42, "isDrum": true}, {"time": 283, "velocity": 0, "pitch": 42, "instrument": 0, "track": 9, "qtime": 43, "isDrum": true}, {"time": 288, "velocity": 120, "pitch": 36, "instrument": 0, "track": 9, "qtime": 0, "isDrum": true}, {"time": 289, "velocity": 0, "pitch": 36, "instrument": 0, "track": 9, "qtime": 1, "isDrum": true}, {"time": 294, "velocity": 120, "pitch": 46, "instrument": 0, "track": 9, "qtime": 6, "isDrum": true}, {"time": 295, "velocity": 0, "pitch": 46, "instrument": 0, "track": 9, "qtime": 7, "isDrum": true}, {"time": 312, "velocity": 120, "pitch": 40, "instrument": 0, "track": 9, "qtime": 24, "isDrum": true}, {"time": 313, "velocity": 0, "pitch": 40, "instrument": 0, "track": 9, "qtime": 25, "isDrum": true}, {"time": 315, "velocity": 120, "pitch": 44, "instrument": 0, "track": 9, "qtime": 27, "isDrum": true}, {"time": 316, "velocity": 0, "pitch": 44, "instrument": 0, "track": 9, "qtime": 28, "isDrum": true}, {"time": 318, "velocity": 120, "pitch": 46, "instrument": 0, "track": 9, "qtime": 30, "isDrum": true}, {"time": 318, "velocity": 120, "pitch": 55, "instrument": 0, "track": 9, "qtime": 30, "isDrum": true}, {"time": 319, "velocity": 0, "pitch": 46, "instrument": 0, "track": 9, "qtime": 31, "isDrum": true}, {"time": 319, "velocity": 0, "pitch": 55, "instrument": 0, "track": 9, "qtime": 31, "isDrum": true}, {"time": 321, "velocity": 120, "pitch": 42, "instrument": 0, "track": 9, "qtime": 33, "isDrum": true}, {"time": 322, "velocity": 0, "pitch": 42, "instrument": 0, "track": 9, "qtime": 34, "isDrum": true}, {"time": 324, "velocity": 120, "pitch": 40, "instrument": 0, "track": 9, "qtime": 36, "isDrum": true}, {"time": 324, "velocity": 120, "pitch": 44, "instrument": 0, "track": 9, "qtime": 36, "isDrum": true}, {"time": 325, "velocity": 0, "pitch": 40, "instrument": 0, "track": 9, "qtime": 37, "isDrum": true}, {"time": 325, "velocity": 0, "pitch": 44, "instrument": 0, "track": 9, "qtime": 37, "isDrum": true}, {"time": 330, "velocity": 120, "pitch": 46, "instrument": 0, "track": 9, "qtime": 42, "isDrum": true}, {"time": 331, "velocity": 0, "pitch": 46, "instrument": 0, "track": 9, "qtime": 43, "isDrum": true}, {"time": 336, "velocity": 120, "pitch": 36, "instrument": 0, "track": 9, "qtime": 0, "isDrum": true}, {"time": 337, "velocity": 0, "pitch": 36, "instrument": 0, "track": 9, "qtime": 1, "isDrum": true}, {"time": 342, "velocity": 120, "pitch": 36, "instrument": 0, "track": 9, "qtime": 6, "isDrum": true}, {"time": 343, "velocity": 0, "pitch": 36, "instrument": 0, "track": 9, "qtime": 7, "isDrum": true}, {"time": 357, "velocity": 120, "pitch": 42, "instrument": 0, "track": 9, "qtime": 21, "isDrum": true}, {"time": 358, "velocity": 0, "pitch": 42, "instrument": 0, "track": 9, "qtime": 22, "isDrum": true}, {"time": 366, "velocity": 120, "pitch": 36, "instrument": 0, "track": 9, "qtime": 30, "isDrum": true}, {"time": 367, "velocity": 0, "pitch": 36, "instrument": 0, "track": 9, "qtime": 31, "isDrum": true}, {"time": 378, "velocity": 120, "pitch": 42, "instrument": 0, "track": 9, "qtime": 42, "isDrum": true}, {"time": 379, "velocity": 0, "pitch": 42, "instrument": 0, "track": 9, "qtime": 43, "isDrum": true}, {"time": 0, "velocity": 96, "pitch": 36, "instrument": 5, "track": 4, "qtime": 0, "isDrum": false}, {"time": 0, "velocity": 96, "pitch": 55, "instrument": 5, "track": 4, "qtime": 0, "isDrum": false}, {"time": 0, "velocity": 96, "pitch": 60, "instrument": 5, "track": 4, "qtime": 0, "isDrum": false}, {"time": 0, "velocity": 96, "pitch": 62, "instrument": 5, "track": 4, "qtime": 0, "isDrum": false}, {"time": 0, "velocity": 96, "pitch": 64, "instrument": 5, "track": 4, "qtime": 0, "isDrum": false}, {"time": 2, "velocity": 0, "pitch": 62, "instrument": 5, "track": 4, "qtime": 2, "isDrum": false}, {"time": 11, "velocity": 0, "pitch": 55, "instrument": 5, "track": 4, "qtime": 11, "isDrum": false}, {"time": 12, "velocity": 0, "pitch": 60, "instrument": 5, "track": 4, "qtime": 12, "isDrum": false}, {"time": 12, "velocity": 0, "pitch": 64, "instrument": 5, "track": 4, "qtime": 12, "isDrum": false}, {"time": 12, "velocity": 96, "pitch": 55, "instrument": 5, "track": 4, "qtime": 12, "isDrum": false}, {"time": 14, "velocity": 0, "pitch": 36, "instrument": 5, "track": 4, "qtime": 14, "isDrum": false}, {"time": 18, "velocity": 0, "pitch": 55, "instrument": 5, "track": 4, "qtime": 18, "isDrum": false}, {"time": 18, "velocity": 96, "pitch": 36, "instrument": 5, "track": 4, "qtime": 18, "isDrum": false}, {"time": 18, "velocity": 96, "pitch": 55, "instrument": 5, "track": 4, "qtime": 18, "isDrum": false}, {"time": 18, "velocity": 96, "pitch": 60, "instrument": 5, "track": 4, "qtime": 18, "isDrum": false}, {"time": 18, "velocity": 96, "pitch": 64, "instrument": 5, "track": 4, "qtime": 18, "isDrum": false}, {"time": 23, "velocity": 0, "pitch": 36, "instrument": 5, "track": 4, "qtime": 23, "isDrum": false}, {"time": 24, "velocity": 96, "pitch": 36, "instrument": 5, "track": 4, "qtime": 24, "isDrum": false}, {"time": 32, "velocity": 0, "pitch": 55, "instrument": 5, "track": 4, "qtime": 32, "isDrum": false}, {"time": 34, "velocity": 0, "pitch": 48, "instrument": 5, "track": 4, "qtime": 34, "isDrum": false}, {"time": 36, "velocity": 96, "pitch": 55, "instrument": 5, "track": 4, "qtime": 36, "isDrum": false}, {"time": 38, "velocity": 0, "pitch": 36, "instrument": 5, "track": 4, "qtime": 38, "isDrum": false}, {"time": 42, "velocity": 0, "pitch": 60, "instrument": 5, "track": 4, "qtime": 42, "isDrum": false}, {"time": 42, "velocity": 96, "pitch": 36, "instrument": 5, "track": 4, "qtime": 42, "isDrum": false}, {"time": 43, "velocity": 0, "pitch": 36, "instrument": 5, "track": 4, "qtime": 43, "isDrum": false}, {"time": 43, "velocity": 0, "pitch": 55, "instrument": 5, "track": 4, "qtime": 43, "isDrum": false}, {"time": 44, "velocity": 0, "pitch": 64, "instrument": 5, "track": 4, "qtime": 44, "isDrum": false}, {"time": 48, "velocity": 96, "pitch": 43, "instrument": 5, "track": 4, "qtime": 0, "isDrum": false}, {"time": 48, "velocity": 96, "pitch": 55, "instrument": 5, "track": 4, "qtime": 0, "isDrum": false}, {"time": 48, "velocity": 96, "pitch": 58, "instrument": 5, "track": 4, "qtime": 0, "isDrum": false}, {"time": 48, "velocity": 96, "pitch": 62, "instrument": 5, "track": 4, "qtime": 0, "isDrum": false}, {"time": 48, "velocity": 96, "pitch": 67, "instrument": 5, "track": 4, "qtime": 0, "isDrum": false}, {"time": 51, "velocity": 0, "pitch": 55, "instrument": 5, "track": 4, "qtime": 3, "isDrum": false}, {"time": 53, "velocity": 0, "pitch": 62, "instrument": 5, "track": 4, "qtime": 5, "isDrum": false}, {"time": 54, "velocity": 96, "pitch": 55, "instrument": 5, "track": 4, "qtime": 6, "isDrum": false}, {"time": 56, "velocity": 0, "pitch": 67, "instrument": 5, "track": 4, "qtime": 8, "isDrum": false}, {"time": 57, "velocity": 96, "pitch": 62, "instrument": 5, "track": 4, "qtime": 9, "isDrum": false}, {"time": 58, "velocity": 0, "pitch": 58, "instrument": 5, "track": 4, "qtime": 10, "isDrum": false}, {"time": 60, "velocity": 0, "pitch": 43, "instrument": 5, "track": 4, "qtime": 12, "isDrum": false}, {"time": 60, "velocity": 0, "pitch": 55, "instrument": 5, "track": 4, "qtime": 12, "isDrum": false}, {"time": 60, "velocity": 96, "pitch": 58, "instrument": 5, "track": 4, "qtime": 12, "isDrum": false}, {"time": 61, "velocity": 0, "pitch": 62, "instrument": 5, "track": 4, "qtime": 13, "isDrum": false}, {"time": 63, "velocity": 0, "pitch": 58, "instrument": 5, "track": 4, "qtime": 15, "isDrum": false}, {"time": 63, "velocity": 96, "pitch": 43, "instrument": 5, "track": 4, "qtime": 15, "isDrum": false}, {"time": 66, "velocity": 0, "pitch": 43, "instrument": 5, "track": 4, "qtime": 18, "isDrum": false}, {"time": 66, "velocity": 96, "pitch": 55, "instrument": 5, "track": 4, "qtime": 18, "isDrum": false}, {"time": 66, "velocity": 96, "pitch": 58, "instrument": 5, "track": 4, "qtime": 18, "isDrum": false}, {"time": 66, "velocity": 96, "pitch": 62, "instrument": 5, "track": 4, "qtime": 18, "isDrum": false}, {"time": 66, "velocity": 96, "pitch": 67, "instrument": 5, "track": 4, "qtime": 18, "isDrum": false}, {"time": 71, "velocity": 0, "pitch": 62, "instrument": 5, "track": 4, "qtime": 23, "isDrum": false}, {"time": 72, "velocity": 96, "pitch": 55, "instrument": 5, "track": 4, "qtime": 24, "isDrum": false}, {"time": 74, "velocity": 0, "pitch": 55, "instrument": 5, "track": 4, "qtime": 26, "isDrum": false}, {"time": 74, "velocity": 0, "pitch": 58, "instrument": 5, "track": 4, "qtime": 26, "isDrum": false}, {"time": 74, "velocity": 0, "pitch": 67, "instrument": 5, "track": 4, "qtime": 26, "isDrum": false}, {"time": 75, "velocity": 96, "pitch": 43, "instrument": 5, "track": 4, "qtime": 27, "isDrum": false}, {"time": 76, "velocity": 0, "pitch": 55, "instrument": 5, "track": 4, "qtime": 28, "isDrum": false}, {"time": 78, "velocity": 96, "pitch": 55, "instrument": 5, "track": 4, "qtime": 30, "isDrum": false}, {"time": 78, "velocity": 96, "pitch": 58, "instrument": 5, "track": 4, "qtime": 30, "isDrum": false}, {"time": 78, "velocity": 96, "pitch": 62, "instrument": 5, "track": 4, "qtime": 30, "isDrum": false}, {"time": 78, "velocity": 96, "pitch": 67, "instrument": 5, "track": 4, "qtime": 30, "isDrum": false}, {"time": 82, "velocity": 0, "pitch": 62, "instrument": 5, "track": 4, "qtime": 34, "isDrum": false}, {"time": 83, "velocity": 0, "pitch": 58, "instrument": 5, "track": 4, "qtime": 35, "isDrum": false}, {"time": 83, "velocity": 0, "pitch": 67, "instrument": 5, "track": 4, "qtime": 35, "isDrum": false}, {"time": 84, "velocity": 96, "pitch": 58, "instrument": 5, "track": 4, "qtime": 36, "isDrum": false}, {"time": 84, "velocity": 96, "pitch": 62, "instrument": 5, "track": 4, "qtime": 36, "isDrum": false}, {"time": 84, "velocity": 96, "pitch": 67, "instrument": 5, "track": 4, "qtime": 36, "isDrum": false}, {"time": 85, "velocity": 0, "pitch": 55, "instrument": 5, "track": 4, "qtime": 37, "isDrum": false}, {"time": 87, "velocity": 0, "pitch": 43, "instrument": 5, "track": 4, "qtime": 39, "isDrum": false}, {"time": 87, "velocity": 96, "pitch": 55, "instrument": 5, "track": 4, "qtime": 39, "isDrum": false}, {"time": 90, "velocity": 0, "pitch": 58, "instrument": 5, "track": 4, "qtime": 42, "isDrum": false}, {"time": 90, "velocity": 96, "pitch": 43, "instrument": 5, "track": 4, "qtime": 42, "isDrum": false}, {"time": 91, "velocity": 0, "pitch": 67, "instrument": 5, "track": 4, "qtime": 43, "isDrum": false}, {"time": 92, "velocity": 0, "pitch": 62, "instrument": 5, "track": 4, "qtime": 44, "isDrum": false}, {"time": 93, "velocity": 0, "pitch": 55, "instrument": 5, "track": 4, "qtime": 45, "isDrum": false}, {"time": 93, "velocity": 96, "pitch": 58, "instrument": 5, "track": 4, "qtime": 45, "isDrum": false}, {"time": 96, "velocity": 0, "pitch": 43, "instrument": 5, "track": 4, "qtime": 48, "isDrum": false}, {"time": 96, "velocity": 96, "pitch": 62, "instrument": 5, "track": 4, "qtime": 48, "isDrum": false}, {"time": 97, "velocity": 0, "pitch": 58, "instrument": 5, "track": 4, "qtime": 49, "isDrum": false}, {"time": 97, "velocity": 0, "pitch": 62, "instrument": 5, "track": 4, "qtime": 49, "isDrum": false}, {"time": 96, "velocity": 96, "pitch": 43, "instrument": 5, "track": 4, "qtime": 0, "isDrum": false}, {"time": 96, "velocity": 96, "pitch": 55, "instrument": 5, "track": 4, "qtime": 0, "isDrum": false}, {"time": 96, "velocity": 96, "pitch": 60, "instrument": 5, "track": 4, "qtime": 0, "isDrum": false}, {"time": 96, "velocity": 96, "pitch": 64, "instrument": 5, "track": 4, "qtime": 0, "isDrum": false}, {"time": 96, "velocity": 96, "pitch": 67, "instrument": 5, "track": 4, "qtime": 0, "isDrum": false}, {"time": 100, "velocity": 0, "pitch": 55, "instrument": 5, "track": 4, "qtime": 4, "isDrum": false}, {"time": 104, "velocity": 0, "pitch": 60, "instrument": 5, "track": 4, "qtime": 8, "isDrum": false}, {"time": 105, "velocity": 96, "pitch": 55, "instrument": 5, "track": 4, "qtime": 9, "isDrum": false}, {"time": 106, "velocity": 0, "pitch": 64, "instrument": 5, "track": 4, "qtime": 10, "isDrum": false}, {"time": 106, "velocity": 0, "pitch": 67, "instrument": 5, "track": 4, "qtime": 10, "isDrum": false}, {"time": 108, "velocity": 96, "pitch": 60, "instrument": 5, "track": 4, "qtime": 12, "isDrum": false}, {"time": 108, "velocity": 96, "pitch": 64, "instrument": 5, "track": 4, "qtime": 12, "isDrum": false}, {"time": 108, "velocity": 96, "pitch": 67, "instrument": 5, "track": 4, "qtime": 12, "isDrum": false}, {"time": 113, "velocity": 0, "pitch": 55, "instrument": 5, "track": 4, "qtime": 17, "isDrum": false}, {"time": 113, "velocity": 0, "pitch": 60, "instrument": 5, "track": 4, "qtime": 17, "isDrum": false}, {"time": 113, "velocity": 0, "pitch": 64, "instrument": 5, "track": 4, "qtime": 17, "isDrum": false}, {"time": 113, "velocity": 0, "pitch": 67, "instrument": 5, "track": 4, "qtime": 17, "isDrum": false}, {"time": 114, "velocity": 0, "pitch": 43, "instrument": 5, "track": 4, "qtime": 18, "isDrum": false}, {"time": 114, "velocity": 96, "pitch": 55, "instrument": 5, "track": 4, "qtime": 18, "isDrum": false}, {"time": 114, "velocity": 96, "pitch": 58, "instrument": 5, "track": 4, "qtime": 18, "isDrum": false}, {"time": 114, "velocity": 96, "pitch": 63, "instrument": 5, "track": 4, "qtime": 18, "isDrum": false}, {"time": 114, "velocity": 96, "pitch": 67, "instrument": 5, "track": 4, "qtime": 18, "isDrum": false}, {"time": 125, "velocity": 0, "pitch": 67, "instrument": 5, "track": 4, "qtime": 29, "isDrum": false}, {"time": 126, "velocity": 96, "pitch": 43, "instrument": 5, "track": 4, "qtime": 30, "isDrum": false}, {"time": 129, "velocity": 0, "pitch": 63, "instrument": 5, "track": 4, "qtime": 33, "isDrum": false}, {"time": 130, "velocity": 0, "pitch": 58, "instrument": 5, "track": 4, "qtime": 34, "isDrum": false}, {"time": 131, "velocity": 0, "pitch": 55, "instrument": 5, "track": 4, "qtime": 35, "isDrum": false}, {"time": 132, "velocity": 96, "pitch": 55, "instrument": 5, "track": 4, "qtime": 36, "isDrum": false}, {"time": 132, "velocity": 96, "pitch": 58, "instrument": 5, "track": 4, "qtime": 36, "isDrum": false}, {"time": 132, "velocity": 96, "pitch": 62, "instrument": 5, "track": 4, "qtime": 36, "isDrum": false}, {"time": 132, "velocity": 96, "pitch": 67, "instrument": 5, "track": 4, "qtime": 36, "isDrum": false}, {"time": 137, "velocity": 0, "pitch": 43, "instrument": 5, "track": 4, "qtime": 41, "isDrum": false}, {"time": 137, "velocity": 0, "pitch": 55, "instrument": 5, "track": 4, "qtime": 41, "isDrum": false}, {"time": 137, "velocity": 0, "pitch": 58, "instrument": 5, "track": 4, "qtime": 41, "isDrum": false}, {"time": 137, "velocity": 0, "pitch": 62, "instrument": 5, "track": 4, "qtime": 41, "isDrum": false}, {"time": 137, "velocity": 0, "pitch": 67, "instrument": 5, "track": 4, "qtime": 41, "isDrum": false}, {"time": 144, "velocity": 96, "pitch": 43, "instrument": 5, "track": 4, "qtime": 0, "isDrum": false}, {"time": 144, "velocity": 96, "pitch": 55, "instrument": 5, "track": 4, "qtime": 0, "isDrum": false}, {"time": 144, "velocity": 96, "pitch": 58, "instrument": 5, "track": 4, "qtime": 0, "isDrum": false}, {"time": 144, "velocity": 96, "pitch": 62, "instrument": 5, "track": 4, "qtime": 0, "isDrum": false}, {"time": 144, "velocity": 96, "pitch": 67, "instrument": 5, "track": 4, "qtime": 0, "isDrum": false}, {"time": 148, "velocity": 0, "pitch": 55, "instrument": 5, "track": 4, "qtime": 4, "isDrum": false}, {"time": 150, "velocity": 0, "pitch": 62, "instrument": 5, "track": 4, "qtime": 6, "isDrum": false}, {"time": 150, "velocity": 96, "pitch": 55, "instrument": 5, "track": 4, "qtime": 6, "isDrum": false}, {"time": 152, "velocity": 0, "pitch": 67, "instrument": 5, "track": 4, "qtime": 8, "isDrum": false}, {"time": 153, "velocity": 96, "pitch": 62, "instrument": 5, "track": 4, "qtime": 9, "isDrum": false}, {"time": 155, "velocity": 0, "pitch": 58, "instrument": 5, "track": 4, "qtime": 11, "isDrum": false}, {"time": 156, "velocity": 0, "pitch": 55, "instrument": 5, "track": 4, "qtime": 12, "isDrum": false}, {"time": 156, "velocity": 96, "pitch": 58, "instrument": 5, "track": 4, "qtime": 12, "isDrum": false}, {"time": 157, "velocity": 0, "pitch": 62, "instrument": 5, "track": 4, "qtime": 13, "isDrum": false}, {"time": 158, "velocity": 0, "pitch": 43, "instrument": 5, "track": 4, "qtime": 14, "isDrum": false}, {"time": 159, "velocity": 0, "pitch": 58, "instrument": 5, "track": 4, "qtime": 15, "isDrum": false}, {"time": 159, "velocity": 96, "pitch": 43, "instrument": 5, "track": 4, "qtime": 15, "isDrum": false}, {"time": 159, "velocity": 96, "pitch": 55, "instrument": 5, "track": 4, "qtime": 15, "isDrum": false}, {"time": 162, "velocity": 96, "pitch": 58, "instrument": 5, "track": 4, "qtime": 18, "isDrum": false}, {"time": 163, "velocity": 0, "pitch": 43, "instrument": 5, "track": 4, "qtime": 19, "isDrum": false}, {"time": 163, "velocity": 0, "pitch": 55, "instrument": 5, "track": 4, "qtime": 19, "isDrum": false}, {"time": 165, "velocity": 0, "pitch": 58, "instrument": 5, "track": 4, "qtime": 21, "isDrum": false}, {"time": 165, "velocity": 96, "pitch": 55, "instrument": 5, "track": 4, "qtime": 21, "isDrum": false}, {"time": 165, "velocity": 96, "pitch": 58, "instrument": 5, "track": 4, "qtime": 21, "isDrum": false}, {"time": 165, "velocity": 96, "pitch": 62, "instrument": 5, "track": 4, "qtime": 21, "isDrum": false}, {"time": 165, "velocity": 96, "pitch": 67, "instrument": 5, "track": 4, "qtime": 21, "isDrum": false}, {"time": 167, "velocity": 0, "pitch": 62, "instrument": 5, "track": 4, "qtime": 23, "isDrum": false}, {"time": 168, "velocity": 0, "pitch": 67, "instrument": 5, "track": 4, "qtime": 24, "isDrum": false}, {"time": 171, "velocity": 96, "pitch": 62, "instrument": 5, "track": 4, "qtime": 27, "isDrum": false}, {"time": 171, "velocity": 96, "pitch": 67, "instrument": 5, "track": 4, "qtime": 27, "isDrum": false}, {"time": 171, "velocity": 96, "pitch": 70, "instrument": 5, "track": 4, "qtime": 27, "isDrum": false}, {"time": 176, "velocity": 0, "pitch": 70, "instrument": 5, "track": 4, "qtime": 32, "isDrum": false}, {"time": 177, "velocity": 0, "pitch": 58, "instrument": 5, "track": 4, "qtime": 33, "isDrum": false}, {"time": 177, "velocity": 0, "pitch": 67, "instrument": 5, "track": 4, "qtime": 33, "isDrum": false}, {"time": 177, "velocity": 96, "pitch": 58, "instrument": 5, "track": 4, "qtime": 33, "isDrum": false}, {"time": 177, "velocity": 96, "pitch": 67, "instrument": 5, "track": 4, "qtime": 33, "isDrum": false}, {"time": 177, "velocity": 96, "pitch": 70, "instrument": 5, "track": 4, "qtime": 33, "isDrum": false}, {"time": 179, "velocity": 0, "pitch": 62, "instrument": 5, "track": 4, "qtime": 35, "isDrum": false}, {"time": 179, "velocity": 0, "pitch": 67, "instrument": 5, "track": 4, "qtime": 35, "isDrum": false}, {"time": 179, "velocity": 0, "pitch": 70, "instrument": 5, "track": 4, "qtime": 35, "isDrum": false}, {"time": 180, "velocity": 96, "pitch": 67, "instrument": 5, "track": 4, "qtime": 36, "isDrum": false}, {"time": 182, "velocity": 0, "pitch": 55, "instrument": 5, "track": 4, "qtime": 38, "isDrum": false}, {"time": 182, "velocity": 0, "pitch": 58, "instrument": 5, "track": 4, "qtime": 38, "isDrum": false}, {"time": 182, "velocity": 0, "pitch": 67, "instrument": 5, "track": 4, "qtime": 38, "isDrum": false}, {"time": 183, "velocity": 96, "pitch": 58, "instrument": 5, "track": 4, "qtime": 39, "isDrum": false}, {"time": 186, "velocity": 0, "pitch": 58, "instrument": 5, "track": 4, "qtime": 42, "isDrum": false}, {"time": 189, "velocity": 96, "pitch": 58, "instrument": 5, "track": 4, "qtime": 45, "isDrum": false}, {"time": 189, "velocity": 96, "pitch": 62, "instrument": 5, "track": 4, "qtime": 45, "isDrum": false}, {"time": 189, "velocity": 96, "pitch": 67, "instrument": 5, "track": 4, "qtime": 45, "isDrum": false}, {"time": 192, "velocity": 0, "pitch": 62, "instrument": 5, "track": 4, "qtime": 48, "isDrum": false}, {"time": 192, "velocity": 0, "pitch": 67, "instrument": 5, "track": 4, "qtime": 48, "isDrum": false}, {"time": 193, "velocity": 0, "pitch": 58, "instrument": 5, "track": 4, "qtime": 49, "isDrum": false}, {"time": 192, "velocity": 96, "pitch": 36, "instrument": 5, "track": 4, "qtime": 0, "isDrum": false}, {"time": 192, "velocity": 96, "pitch": 55, "instrument": 5, "track": 4, "qtime": 0, "isDrum": false}, {"time": 192, "velocity": 96, "pitch": 60, "instrument": 5, "track": 4, "qtime": 0, "isDrum": false}, {"time": 192, "velocity": 96, "pitch": 64, "instrument": 5, "track": 4, "qtime": 0, "isDrum": false}, {"time": 203, "velocity": 0, "pitch": 55, "instrument": 5, "track": 4, "qtime": 11, "isDrum": false}, {"time": 204, "velocity": 96, "pitch": 55, "instrument": 5, "track": 4, "qtime": 12, "isDrum": false}, {"time": 206, "velocity": 0, "pitch": 36, "instrument": 5, "track": 4, "qtime": 14, "isDrum": false}, {"time": 210, "velocity": 0, "pitch": 55, "instrument": 5, "track": 4, "qtime": 18, "isDrum": false}, {"time": 210, "velocity": 96, "pitch": 36, "instrument": 5, "track": 4, "qtime": 18, "isDrum": false}, {"time": 210, "velocity": 96, "pitch": 55, "instrument": 5, "track": 4, "qtime": 18, "isDrum": false}, {"time": 212, "velocity": 0, "pitch": 36, "instrument": 5, "track": 4, "qtime": 20, "isDrum": false}, {"time": 212, "velocity": 0, "pitch": 55, "instrument": 5, "track": 4, "qtime": 20, "isDrum": false}, {"time": 213, "velocity": 0, "pitch": 60, "instrument": 5, "track": 4, "qtime": 21, "isDrum": false}, {"time": 213, "velocity": 0, "pitch": 64, "instrument": 5, "track": 4, "qtime": 21, "isDrum": false}, {"time": 213, "velocity": 96, "pitch": 55, "instrument": 5, "track": 4, "qtime": 21, "isDrum": false}, {"time": 215, "velocity": 0, "pitch": 55, "instrument": 5, "track": 4, "qtime": 23, "isDrum": false}, {"time": 216, "velocity": 96, "pitch": 36, "instrument": 5, "track": 4, "qtime": 24, "isDrum": false}, {"time": 216, "velocity": 96, "pitch": 55, "instrument": 5, "track": 4, "qtime": 24, "isDrum": false}, {"time": 216, "velocity": 96, "pitch": 60, "instrument": 5, "track": 4, "qtime": 24, "isDrum": false}, {"time": 216, "velocity": 96, "pitch": 64, "instrument": 5, "track": 4, "qtime": 24, "isDrum": false}, {"time": 220, "velocity": 0, "pitch": 60, "instrument": 5, "track": 4, "qtime": 28, "isDrum": false}, {"time": 220, "velocity": 0, "pitch": 64, "instrument": 5, "track": 4, "qtime": 28, "isDrum": false}, {"time": 221, "velocity": 0, "pitch": 55, "instrument": 5, "track": 4, "qtime": 29, "isDrum": false}, {"time": 222, "velocity": 96, "pitch": 55, "instrument": 5, "track": 4, "qtime": 30, "isDrum": false}, {"time": 222, "velocity": 96, "pitch": 60, "instrument": 5, "track": 4, "qtime": 30, "isDrum": false}, {"time": 222, "velocity": 96, "pitch": 64, "instrument": 5, "track": 4, "qtime": 30, "isDrum": false}, {"time": 225, "velocity": 0, "pitch": 36, "instrument": 5, "track": 4, "qtime": 33, "isDrum": false}, {"time": 226, "velocity": 0, "pitch": 55, "instrument": 5, "track": 4, "qtime": 34, "isDrum": false}, {"time": 226, "velocity": 0, "pitch": 60, "instrument": 5, "track": 4, "qtime": 34, "isDrum": false}, {"time": 227, "velocity": 0, "pitch": 64, "instrument": 5, "track": 4, "qtime": 35, "isDrum": false}, {"time": 228, "velocity": 96, "pitch": 55, "instrument": 5, "track": 4, "qtime": 36, "isDrum": false}, {"time": 230, "velocity": 0, "pitch": 55, "instrument": 5, "track": 4, "qtime": 38, "isDrum": false}, {"time": 237, "velocity": 96, "pitch": 55, "instrument": 5, "track": 4, "qtime": 45, "isDrum": false}, {"time": 237, "velocity": 96, "pitch": 67, "instrument": 5, "track": 4, "qtime": 45, "isDrum": false}, {"time": 238, "velocity": 0, "pitch": 55, "instrument": 5, "track": 4, "qtime": 46, "isDrum": false}, {"time": 238, "velocity": 0, "pitch": 67, "instrument": 5, "track": 4, "qtime": 46, "isDrum": false}, {"time": 240, "velocity": 96, "pitch": 43, "instrument": 5, "track": 4, "qtime": 0, "isDrum": false}, {"time": 240, "velocity": 96, "pitch": 55, "instrument": 5, "track": 4, "qtime": 0, "isDrum": false}, {"time": 240, "velocity": 96, "pitch": 58, "instrument": 5, "track": 4, "qtime": 0, "isDrum": false}, {"time": 240, "velocity": 96, "pitch": 62, "instrument": 5, "track": 4, "qtime": 0, "isDrum": false}, {"time": 240, "velocity": 96, "pitch": 67, "instrument": 5, "track": 4, "qtime": 0, "isDrum": false}, {"time": 244, "velocity": 0, "pitch": 55, "instrument": 5, "track": 4, "qtime": 4, "isDrum": false}, {"time": 246, "velocity": 96, "pitch": 55, "instrument": 5, "track": 4, "qtime": 6, "isDrum": false}, {"time": 248, "velocity": 0, "pitch": 67, "instrument": 5, "track": 4, "qtime": 8, "isDrum": false}, {"time": 249, "velocity": 0, "pitch": 62, "instrument": 5, "track": 4, "qtime": 9, "isDrum": false}, {"time": 250, "velocity": 0, "pitch": 58, "instrument": 5, "track": 4, "qtime": 10, "isDrum": false}, {"time": 252, "velocity": 96, "pitch": 58, "instrument": 5, "track": 4, "qtime": 12, "isDrum": false}, {"time": 252, "velocity": 96, "pitch": 62, "instrument": 5, "track": 4, "qtime": 12, "isDrum": false}, {"time": 252, "velocity": 96, "pitch": 67, "instrument": 5, "track": 4, "qtime": 12, "isDrum": false}, {"time": 254, "velocity": 0, "pitch": 43, "instrument": 5, "track": 4, "qtime": 14, "isDrum": false}, {"time": 254, "velocity": 0, "pitch": 55, "instrument": 5, "track": 4, "qtime": 14, "isDrum": false}, {"time": 254, "velocity": 0, "pitch": 67, "instrument": 5, "track": 4, "qtime": 14, "isDrum": false}, {"time": 255, "velocity": 0, "pitch": 58, "instrument": 5, "track": 4, "qtime": 15, "isDrum": false}, {"time": 255, "velocity": 0, "pitch": 62, "instrument": 5, "track": 4, "qtime": 15, "isDrum": false}, {"time": 258, "velocity": 96, "pitch": 43, "instrument": 5, "track": 4, "qtime": 18, "isDrum": false}, {"time": 258, "velocity": 96, "pitch": 55, "instrument": 5, "track": 4, "qtime": 18, "isDrum": false}, {"time": 258, "velocity": 96, "pitch": 58, "instrument": 5, "track": 4, "qtime": 18, "isDrum": false}, {"time": 260, "velocity": 0, "pitch": 43, "instrument": 5, "track": 4, "qtime": 20, "isDrum": false}, {"time": 260, "velocity": 0, "pitch": 55, "instrument": 5, "track": 4, "qtime": 20, "isDrum": false}, {"time": 260, "velocity": 0, "pitch": 58, "instrument": 5, "track": 4, "qtime": 20, "isDrum": false}, {"time": 261, "velocity": 96, "pitch": 53, "instrument": 5, "track": 4, "qtime": 21, "isDrum": false}, {"time": 261, "velocity": 96, "pitch": 58, "instrument": 5, "track": 4, "qtime": 21, "isDrum": false}, {"time": 263, "velocity": 0, "pitch": 53, "instrument": 5, "track": 4, "qtime": 23, "isDrum": false}, {"time": 263, "velocity": 0, "pitch": 58, "instrument": 5, "track": 4, "qtime": 23, "isDrum": false}, {"time": 264, "velocity": 96, "pitch": 43, "instrument": 5, "track": 4, "qtime": 24, "isDrum": false}, {"time": 264, "velocity": 96, "pitch": 55, "instrument": 5, "track": 4, "qtime": 24, "isDrum": false}, {"time": 264, "velocity": 96, "pitch": 58, "instrument": 5, "track": 4, "qtime": 24, "isDrum": false}, {"time": 266, "velocity": 0, "pitch": 43, "instrument": 5, "track": 4, "qtime": 26, "isDrum": false}, {"time": 266, "velocity": 0, "pitch": 55, "instrument": 5, "track": 4, "qtime": 26, "isDrum": false}, {"time": 266, "velocity": 0, "pitch": 58, "instrument": 5, "track": 4, "qtime": 26, "isDrum": false}, {"time": 270, "velocity": 96, "pitch": 43, "instrument": 5, "track": 4, "qtime": 30, "isDrum": false}, {"time": 270, "velocity": 96, "pitch": 55, "instrument": 5, "track": 4, "qtime": 30, "isDrum": false}, {"time": 270, "velocity": 96, "pitch": 58, "instrument": 5, "track": 4, "qtime": 30, "isDrum": false}, {"time": 270, "velocity": 96, "pitch": 62, "instrument": 5, "track": 4, "qtime": 30, "isDrum": false}, {"time": 272, "velocity": 0, "pitch": 58, "instrument": 5, "track": 4, "qtime": 32, "isDrum": false}, {"time": 273, "velocity": 0, "pitch": 43, "instrument": 5, "track": 4, "qtime": 33, "isDrum": false}, {"time": 273, "velocity": 0, "pitch": 55, "instrument": 5, "track": 4, "qtime": 33, "isDrum": false}, {"time": 273, "velocity": 0, "pitch": 62, "instrument": 5, "track": 4, "qtime": 33, "isDrum": false}, {"time": 276, "velocity": 96, "pitch": 53, "instrument": 5, "track": 4, "qtime": 36, "isDrum": false}, {"time": 276, "velocity": 96, "pitch": 58, "instrument": 5, "track": 4, "qtime": 36, "isDrum": false}, {"time": 280, "velocity": 0, "pitch": 53, "instrument": 5, "track": 4, "qtime": 40, "isDrum": false}, {"time": 280, "velocity": 0, "pitch": 58, "instrument": 5, "track": 4, "qtime": 40, "isDrum": false}, {"time": 282, "velocity": 96, "pitch": 55, "instrument": 5, "track": 4, "qtime": 42, "isDrum": false}, {"time": 284, "velocity": 0, "pitch": 55, "instrument": 5, "track": 4, "qtime": 44, "isDrum": false}, {"time": 288, "velocity": 96, "pitch": 36, "instrument": 5, "track": 4, "qtime": 0, "isDrum": false}, {"time": 288, "velocity": 96, "pitch": 55, "instrument": 5, "track": 4, "qtime": 0, "isDrum": false}, {"time": 288, "velocity": 96, "pitch": 60, "instrument": 5, "track": 4, "qtime": 0, "isDrum": false}, {"time": 298, "velocity": 0, "pitch": 36, "instrument": 5, "track": 4, "qtime": 10, "isDrum": false}, {"time": 298, "velocity": 0, "pitch": 55, "instrument": 5, "track": 4, "qtime": 10, "isDrum": false}, {"time": 298, "velocity": 0, "pitch": 60, "instrument": 5, "track": 4, "qtime": 10, "isDrum": false}, {"time": 300, "velocity": 96, "pitch": 55, "instrument": 5, "track": 4, "qtime": 12, "isDrum": false}, {"time": 300, "velocity": 96, "pitch": 60, "instrument": 5, "track": 4, "qtime": 12, "isDrum": false}, {"time": 300, "velocity": 96, "pitch": 64, "instrument": 5, "track": 4, "qtime": 12, "isDrum": false}, {"time": 301, "velocity": 0, "pitch": 55, "instrument": 5, "track": 4, "qtime": 13, "isDrum": false}, {"time": 301, "velocity": 0, "pitch": 60, "instrument": 5, "track": 4, "qtime": 13, "isDrum": false}, {"time": 301, "velocity": 0, "pitch": 64, "instrument": 5, "track": 4, "qtime": 13, "isDrum": false}, {"time": 303, "velocity": 96, "pitch": 55, "instrument": 5, "track": 4, "qtime": 15, "isDrum": false}, {"time": 303, "velocity": 96, "pitch": 60, "instrument": 5, "track": 4, "qtime": 15, "isDrum": false}, {"time": 303, "velocity": 96, "pitch": 64, "instrument": 5, "track": 4, "qtime": 15, "isDrum": false}, {"time": 305, "velocity": 0, "pitch": 55, "instrument": 5, "track": 4, "qtime": 17, "isDrum": false}, {"time": 305, "velocity": 0, "pitch": 60, "instrument": 5, "track": 4, "qtime": 17, "isDrum": false}, {"time": 305, "velocity": 0, "pitch": 64, "instrument": 5, "track": 4, "qtime": 17, "isDrum": false}, {"time": 306, "velocity": 96, "pitch": 36, "instrument": 5, "track": 4, "qtime": 18, "isDrum": false}, {"time": 306, "velocity": 96, "pitch": 55, "instrument": 5, "track": 4, "qtime": 18, "isDrum": false}, {"time": 306, "velocity": 96, "pitch": 58, "instrument": 5, "track": 4, "qtime": 18, "isDrum": false}, {"time": 306, "velocity": 96, "pitch": 63, "instrument": 5, "track": 4, "qtime": 18, "isDrum": false}, {"time": 311, "velocity": 0, "pitch": 36, "instrument": 5, "track": 4, "qtime": 23, "isDrum": false}, {"time": 313, "velocity": 0, "pitch": 63, "instrument": 5, "track": 4, "qtime": 25, "isDrum": false}, {"time": 315, "velocity": 0, "pitch": 55, "instrument": 5, "track": 4, "qtime": 27, "isDrum": false}, {"time": 315, "velocity": 0, "pitch": 58, "instrument": 5, "track": 4, "qtime": 27, "isDrum": false}, {"time": 315, "velocity": 96, "pitch": 46, "instrument": 5, "track": 4, "qtime": 27, "isDrum": false}, {"time": 315, "velocity": 96, "pitch": 55, "instrument": 5, "track": 4, "qtime": 27, "isDrum": false}, {"time": 315, "velocity": 96, "pitch": 58, "instrument": 5, "track": 4, "qtime": 27, "isDrum": false}, {"time": 315, "velocity": 96, "pitch": 63, "instrument": 5, "track": 4, "qtime": 27, "isDrum": false}, {"time": 320, "velocity": 0, "pitch": 63, "instrument": 5, "track": 4, "qtime": 32, "isDrum": false}, {"time": 324, "velocity": 0, "pitch": 58, "instrument": 5, "track": 4, "qtime": 36, "isDrum": false}, {"time": 325, "velocity": 0, "pitch": 46, "instrument": 5, "track": 4, "qtime": 37, "isDrum": false}, {"time": 325, "velocity": 0, "pitch": 55, "instrument": 5, "track": 4, "qtime": 37, "isDrum": false}, {"time": 327, "velocity": 96, "pitch": 55, "instrument": 5, "track": 4, "qtime": 39, "isDrum": false}, {"time": 327, "velocity": 96, "pitch": 58, "instrument": 5, "track": 4, "qtime": 39, "isDrum": false}, {"time": 327, "velocity": 96, "pitch": 63, "instrument": 5, "track": 4, "qtime": 39, "isDrum": false}, {"time": 332, "velocity": 0, "pitch": 55, "instrument": 5, "track": 4, "qtime": 44, "isDrum": false}, {"time": 333, "velocity": 96, "pitch": 53, "instrument": 5, "track": 4, "qtime": 45, "isDrum": false}, {"time": 334, "velocity": 0, "pitch": 58, "instrument": 5, "track": 4, "qtime": 46, "isDrum": false}, {"time": 334, "velocity": 0, "pitch": 63, "instrument": 5, "track": 4, "qtime": 46, "isDrum": false}, {"time": 335, "velocity": 0, "pitch": 53, "instrument": 5, "track": 4, "qtime": 47, "isDrum": false}, {"time": 336, "velocity": 96, "pitch": 43, "instrument": 5, "track": 4, "qtime": 0, "isDrum": false}, {"time": 336, "velocity": 96, "pitch": 55, "instrument": 5, "track": 4, "qtime": 0, "isDrum": false}, {"time": 336, "velocity": 96, "pitch": 58, "instrument": 5, "track": 4, "qtime": 0, "isDrum": false}, {"time": 336, "velocity": 96, "pitch": 62, "instrument": 5, "track": 4, "qtime": 0, "isDrum": false}, {"time": 346, "velocity": 0, "pitch": 55, "instrument": 5, "track": 4, "qtime": 10, "isDrum": false}, {"time": 346, "velocity": 0, "pitch": 58, "instrument": 5, "track": 4, "qtime": 10, "isDrum": false}, {"time": 346, "velocity": 0, "pitch": 62, "instrument": 5, "track": 4, "qtime": 10, "isDrum": false}, {"time": 348, "velocity": 0, "pitch": 43, "instrument": 5, "track": 4, "qtime": 12, "isDrum": false}, {"time": 348, "velocity": 96, "pitch": 55, "instrument": 5, "track": 4, "qtime": 12, "isDrum": false}, {"time": 348, "velocity": 96, "pitch": 58, "instrument": 5, "track": 4, "qtime": 12, "isDrum": false}, {"time": 348, "velocity": 96, "pitch": 62, "instrument": 5, "track": 4, "qtime": 12, "isDrum": false}, {"time": 353, "velocity": 0, "pitch": 55, "instrument": 5, "track": 4, "qtime": 17, "isDrum": false}, {"time": 354, "velocity": 96, "pitch": 55, "instrument": 5, "track": 4, "qtime": 18, "isDrum": false}, {"time": 355, "velocity": 0, "pitch": 58, "instrument": 5, "track": 4, "qtime": 19, "isDrum": false}, {"time": 356, "velocity": 0, "pitch": 55, "instrument": 5, "track": 4, "qtime": 20, "isDrum": false}, {"time": 356, "velocity": 0, "pitch": 62, "instrument": 5, "track": 4, "qtime": 20, "isDrum": false}, {"time": 357, "velocity": 96, "pitch": 43, "instrument": 5, "track": 4, "qtime": 21, "isDrum": false}, {"time": 358, "velocity": 0, "pitch": 43, "instrument": 5, "track": 4, "qtime": 22, "isDrum": false}, {"time": 360, "velocity": 96, "pitch": 58, "instrument": 5, "track": 4, "qtime": 24, "isDrum": false}, {"time": 360, "velocity": 96, "pitch": 62, "instrument": 5, "track": 4, "qtime": 24, "isDrum": false}, {"time": 360, "velocity": 96, "pitch": 67, "instrument": 5, "track": 4, "qtime": 24, "isDrum": false}, {"time": 362, "velocity": 0, "pitch": 58, "instrument": 5, "track": 4, "qtime": 26, "isDrum": false}, {"time": 362, "velocity": 0, "pitch": 62, "instrument": 5, "track": 4, "qtime": 26, "isDrum": false}, {"time": 362, "velocity": 0, "pitch": 67, "instrument": 5, "track": 4, "qtime": 26, "isDrum": false}, {"time": 366, "velocity": 96, "pitch": 58, "instrument": 5, "track": 4, "qtime": 30, "isDrum": false}, {"time": 366, "velocity": 96, "pitch": 62, "instrument": 5, "track": 4, "qtime": 30, "isDrum": false}, {"time": 366, "velocity": 96, "pitch": 67, "instrument": 5, "track": 4, "qtime": 30, "isDrum": false}, {"time": 369, "velocity": 0, "pitch": 58, "instrument": 5, "track": 4, "qtime": 33, "isDrum": false}, {"time": 369, "velocity": 0, "pitch": 62, "instrument": 5, "track": 4, "qtime": 33, "isDrum": false}, {"time": 369, "velocity": 0, "pitch": 67, "instrument": 5, "track": 4, "qtime": 33, "isDrum": false}, {"time": 372, "velocity": 96, "pitch": 43, "instrument": 5, "track": 4, "qtime": 36, "isDrum": false}, {"time": 373, "velocity": 0, "pitch": 43, "instrument": 5, "track": 4, "qtime": 37, "isDrum": false}, {"time": 378, "velocity": 96, "pitch": 58, "instrument": 5, "track": 4, "qtime": 42, "isDrum": false}, {"time": 378, "velocity": 96, "pitch": 62, "instrument": 5, "track": 4, "qtime": 42, "isDrum": false}, {"time": 378, "velocity": 96, "pitch": 67, "instrument": 5, "track": 4, "qtime": 42, "isDrum": false}, {"time": 379, "velocity": 0, "pitch": 58, "instrument": 5, "track": 4, "qtime": 43, "isDrum": false}, {"time": 380, "velocity": 0, "pitch": 62, "instrument": 5, "track": 4, "qtime": 44, "isDrum": false}, {"time": 380, "velocity": 0, "pitch": 67, "instrument": 5, "track": 4, "qtime": 44, "isDrum": false}], "resolution": 12, "tempo": 87, "minPitch": 34, "maxPitch": 84, "validSegments": [0], "validTracks": [31]}, "audio": "https://www.sfu.ca/~jeffe/examples/8b_gibbs_26_gen.mp3"}, {"src": "gen/stem_acous.json", "highlights": [[], [], [], [], [], []], "caption": "Original sample from dataset.", "sample_id": "16a", "mixer": [8, 8, 8, 8, 8], "tempo": 103, "json": {"tracks": [{"bars": [{"events": [0, 1, 2, 3, 4, 5, 6, 7], "isFourFour": true, "hasNotes": true, "time": 0, "beatLength": 4}, {"events": [8, 9, 10, 11, 12, 13], "isFourFour": true, "hasNotes": true, "time": 48, "beatLength": 4}, {"events": [14, 15, 16, 17, 18, 19], "isFourFour": true, "hasNotes": true, "time": 96, "beatLength": 4}, {"events": [20, 21, 22, 23], "isFourFour": true, "hasNotes": true, "time": 144, "beatLength": 4}, {"isFourFour": true, "hasNotes": false, "time": 192, "beatLength": 4}, {"isFourFour": true, "hasNotes": false, "time": 252, "beatLength": 4}], "isDrum": false, "minPitch": 59, "maxPitch": 67, "instrument": 53, "avPolyphony": 1, "noteDensity": 2, "noteDensityV2": 2}, {"bars": [{"events": [24, 25, 26, 27, 28, 29, 30, 31], "isFourFour": true, "hasNotes": true, "time": 0, "beatLength": 4}, {"events": [32, 33, 34, 35, 36, 37], "isFourFour": true, "hasNotes": true, "time": 48, "beatLength": 4}, {"events": [38, 39, 40, 41, 42, 43], "isFourFour": true, "hasNotes": true, "time": 96, "beatLength": 4}, {"events": [44, 45, 46, 47], "isFourFour": true, "hasNotes": true, "time": 144, "beatLength": 4}, {"isFourFour": true, "hasNotes": false, "time": 192, "beatLength": 4}, {"isFourFour": true, "hasNotes": false, "time": 252, "beatLength": 4}], "isDrum": false, "minPitch": 50, "maxPitch": 64, "instrument": 53, "avPolyphony": 1, "noteDensity": 2, "noteDensityV2": 2}, {"bars": [{"events": [48, 49, 50, 51, 52, 53, 54, 55, 56, 57, 58, 59, 60, 61, 62, 63, 64, 65, 66], "isFourFour": true, "hasNotes": true, "time": 0, "beatLength": 4}, {"events": [67, 68, 69, 70, 71, 72, 73, 74, 75, 76, 77, 78, 79, 80, 81, 82, 83, 84, 85, 86], "isFourFour": true, "hasNotes": true, "time": 48, "beatLength": 4}, {"events": [87, 88, 89, 90, 91, 92, 93, 94, 95, 96, 97, 98, 99, 100, 101, 102, 103, 104, 105], "isFourFour": true, "hasNotes": true, "time": 96, "beatLength": 4}, {"events": [106, 107, 108, 109, 110, 111, 112, 113, 114, 115, 116, 117, 118, 119, 120, 121, 122, 123], "isFourFour": true, "hasNotes": true, "time": 144, "beatLength": 4}, {"isFourFour": true, "hasNotes": false, "time": 192, "beatLength": 4}, {"isFourFour": true, "hasNotes": false, "time": 252, "beatLength": 4}], "isDrum": false, "minPitch": 45, "maxPitch": 69, "instrument": 24, "avPolyphony": 2.84375, "noteDensity": 9, "noteDensityV2": 6}, {"bars": [{"events": [124, 125, 126, 127, 128, 129], "isFourFour": true, "hasNotes": true, "time": 0, "beatLength": 4}, {"events": [130, 131, 132, 133, 134, 135], "isFourFour": true, "hasNotes": true, "time": 48, "beatLength": 4}, {"events": [136, 137, 138, 139, 140, 141], "isFourFour": true, "hasNotes": true, "time": 96, "beatLength": 4}, {"events": [142, 143, 144, 145, 146, 147], "isFourFour": true, "hasNotes": true, "time": 144, "beatLength": 4}, {"isFourFour": true, "hasNotes": false, "time": 192, "beatLength": 4}, {"isFourFour": true, "hasNotes": false, "time": 252, "beatLength": 4}], "isDrum": false, "minPitch": 38, "maxPitch": 45, "instrument": 32, "avPolyphony": 1, "noteDensity": 2, "noteDensityV2": 3}, {"bars": [{"events": [148, 149], "isFourFour": true, "hasNotes": true, "time": 0, "beatLength": 4}, {"events": [150, 151], "isFourFour": true, "hasNotes": true, "time": 48, "beatLength": 4}, {"events": [152, 153], "isFourFour": true, "hasNotes": true, "time": 96, "beatLength": 4}, {"events": [154, 155, 156, 157], "isFourFour": true, "hasNotes": true, "time": 144, "beatLength": 4}, {"isFourFour": true, "hasNotes": false, "time": 192, "beatLength": 4}, {"isFourFour": true, "hasNotes": false, "time": 252, "beatLength": 4}], "isDrum": false, "minPitch": 62, "maxPitch": 62, "instrument": 120, "avPolyphony": 1, "noteDensity": 0, "noteDensityV2": 0}], "events": [{"time": 0, "velocity": 108, "pitch": 62, "instrument": 53, "track": 0, "qtime": 0, "bar": 0, "isDrum": false}, {"time": 12, "velocity": 0, "pitch": 62, "instrument": 53, "track": 0, "qtime": 12, "bar": 0, "isDrum": false}, {"time": 12, "velocity": 108, "pitch": 64, "instrument": 53, "track": 0, "qtime": 12, "bar": 0, "isDrum": false}, {"time": 24, "velocity": 0, "pitch": 64, "instrument": 53, "track": 0, "qtime": 24, "bar": 0, "isDrum": false}, {"time": 24, "velocity": 108, "pitch": 65, "instrument": 53, "track": 0, "qtime": 24, "bar": 0, "isDrum": false}, {"time": 36, "velocity": 0, "pitch": 65, "instrument": 53, "track": 0, "qtime": 36, "bar": 0, "isDrum": false}, {"time": 36, "velocity": 108, "pitch": 67, "instrument": 53, "track": 0, "qtime": 36, "bar": 0, "isDrum": false}, {"time": 48, "velocity": 0, "pitch": 67, "instrument": 53, "track": 0, "qtime": 48, "bar": 0, "isDrum": false}, {"time": 48, "velocity": 108, "pitch": 66, "instrument": 53, "track": 0, "qtime": 0, "bar": 1, "isDrum": false}, {"time": 84, "velocity": 0, "pitch": 66, "instrument": 53, "track": 0, "qtime": 36, "bar": 1, "isDrum": false}, {"time": 84, "velocity": 108, "pitch": 64, "instrument": 53, "track": 0, "qtime": 36, "bar": 1, "isDrum": false}, {"time": 90, "velocity": 0, "pitch": 64, "instrument": 53, "track": 0, "qtime": 42, "bar": 1, "isDrum": false}, {"time": 90, "velocity": 108, "pitch": 66, "instrument": 53, "track": 0, "qtime": 42, "bar": 1, "isDrum": false}, {"time": 96, "velocity": 0, "pitch": 66, "instrument": 53, "track": 0, "qtime": 48, "bar": 1, "isDrum": false}, {"time": 96, "velocity": 108, "pitch": 67, "instrument": 53, "track": 0, "qtime": 0, "bar": 2, "isDrum": false}, {"time": 132, "velocity": 0, "pitch": 67, "instrument": 53, "track": 0, "qtime": 36, "bar": 2, "isDrum": false}, {"time": 132, "velocity": 108, "pitch": 59, "instrument": 53, "track": 0, "qtime": 36, "bar": 2, "isDrum": false}, {"time": 138, "velocity": 0, "pitch": 59, "instrument": 53, "track": 0, "qtime": 42, "bar": 2, "isDrum": false}, {"time": 138, "velocity": 108, "pitch": 61, "instrument": 53, "track": 0, "qtime": 42, "bar": 2, "isDrum": false}, {"time": 144, "velocity": 0, "pitch": 61, "instrument": 53, "track": 0, "qtime": 48, "bar": 2, "isDrum": false}, {"time": 144, "velocity": 108, "pitch": 62, "instrument": 53, "track": 0, "qtime": 0, "bar": 3, "isDrum": false}, {"time": 168, "velocity": 0, "pitch": 62, "instrument": 53, "track": 0, "qtime": 24, "bar": 3, "isDrum": false}, {"time": 168, "velocity": 108, "pitch": 64, "instrument": 53, "track": 0, "qtime": 24, "bar": 3, "isDrum": false}, {"time": 192, "velocity": 0, "pitch": 64, "instrument": 53, "track": 0, "qtime": 48, "bar": 3, "isDrum": false}, {"time": 0, "velocity": 108, "pitch": 58, "instrument": 53, "track": 1, "qtime": 0, "bar": 0, "isDrum": false}, {"time": 12, "velocity": 0, "pitch": 58, "instrument": 53, "track": 1, "qtime": 12, "bar": 0, "isDrum": false}, {"time": 12, "velocity": 108, "pitch": 60, "instrument": 53, "track": 1, "qtime": 12, "bar": 0, "isDrum": false}, {"time": 24, "velocity": 0, "pitch": 60, "instrument": 53, "track": 1, "qtime": 24, "bar": 0, "isDrum": false}, {"time": 24, "velocity": 108, "pitch": 62, "instrument": 53, "track": 1, "qtime": 24, "bar": 0, "isDrum": false}, {"time": 36, "velocity": 0, "pitch": 62, "instrument": 53, "track": 1, "qtime": 36, "bar": 0, "isDrum": false}, {"time": 36, "velocity": 108, "pitch": 64, "instrument": 53, "track": 1, "qtime": 36, "bar": 0, "isDrum": false}, {"time": 48, "velocity": 0, "pitch": 64, "instrument": 53, "track": 1, "qtime": 48, "bar": 0, "isDrum": false}, {"time": 48, "velocity": 108, "pitch": 57, "instrument": 53, "track": 1, "qtime": 0, "bar": 1, "isDrum": false}, {"time": 84, "velocity": 0, "pitch": 57, "instrument": 53, "track": 1, "qtime": 36, "bar": 1, "isDrum": false}, {"time": 84, "velocity": 108, "pitch": 57, "instrument": 53, "track": 1, "qtime": 36, "bar": 1, "isDrum": false}, {"time": 90, "velocity": 0, "pitch": 57, "instrument": 53, "track": 1, "qtime": 42, "bar": 1, "isDrum": false}, {"time": 90, "velocity": 108, "pitch": 57, "instrument": 53, "track": 1, "qtime": 42, "bar": 1, "isDrum": false}, {"time": 96, "velocity": 0, "pitch": 57, "instrument": 53, "track": 1, "qtime": 48, "bar": 1, "isDrum": false}, {"time": 96, "velocity": 108, "pitch": 57, "instrument": 53, "track": 1, "qtime": 0, "bar": 2, "isDrum": false}, {"time": 132, "velocity": 0, "pitch": 57, "instrument": 53, "track": 1, "qtime": 36, "bar": 2, "isDrum": false}, {"time": 132, "velocity": 108, "pitch": 50, "instrument": 53, "track": 1, "qtime": 36, "bar": 2, "isDrum": false}, {"time": 138, "velocity": 0, "pitch": 50, "instrument": 53, "track": 1, "qtime": 42, "bar": 2, "isDrum": false}, {"time": 138, "velocity": 108, "pitch": 52, "instrument": 53, "track": 1, "qtime": 42, "bar": 2, "isDrum": false}, {"time": 144, "velocity": 0, "pitch": 52, "instrument": 53, "track": 1, "qtime": 48, "bar": 2, "isDrum": false}, {"time": 144, "velocity": 108, "pitch": 54, "instrument": 53, "track": 1, "qtime": 0, "bar": 3, "isDrum": false}, {"time": 168, "velocity": 0, "pitch": 54, "instrument": 53, "track": 1, "qtime": 24, "bar": 3, "isDrum": false}, {"time": 168, "velocity": 108, "pitch": 55, "instrument": 53, "track": 1, "qtime": 24, "bar": 3, "isDrum": false}, {"time": 192, "velocity": 0, "pitch": 55, "instrument": 53, "track": 1, "qtime": 48, "bar": 3, "isDrum": false}, {"time": 0, "velocity": 108, "pitch": 55, "instrument": 24, "track": 2, "qtime": 0, "bar": 0, "isDrum": false}, {"time": 6, "velocity": 108, "pitch": 58, "instrument": 24, "track": 2, "qtime": 6, "bar": 0, "isDrum": false}, {"time": 12, "velocity": 108, "pitch": 62, "instrument": 24, "track": 2, "qtime": 12, "bar": 0, "isDrum": false}, {"time": 12, "velocity": 108, "pitch": 67, "instrument": 24, "track": 2, "qtime": 12, "bar": 0, "isDrum": false}, {"time": 18, "velocity": 0, "pitch": 58, "instrument": 24, "track": 2, "qtime": 18, "bar": 0, "isDrum": false}, {"time": 18, "velocity": 108, "pitch": 58, "instrument": 24, "track": 2, "qtime": 18, "bar": 0, "isDrum": false}, {"time": 24, "velocity": 0, "pitch": 55, "instrument": 24, "track": 2, "qtime": 24, "bar": 0, "isDrum": false}, {"time": 24, "velocity": 0, "pitch": 62, "instrument": 24, "track": 2, "qtime": 24, "bar": 0, "isDrum": false}, {"time": 24, "velocity": 0, "pitch": 67, "instrument": 24, "track": 2, "qtime": 24, "bar": 0, "isDrum": false}, {"time": 24, "velocity": 108, "pitch": 55, "instrument": 24, "track": 2, "qtime": 24, "bar": 0, "isDrum": false}, {"time": 30, "velocity": 0, "pitch": 58, "instrument": 24, "track": 2, "qtime": 30, "bar": 0, "isDrum": false}, {"time": 30, "velocity": 108, "pitch": 58, "instrument": 24, "track": 2, "qtime": 30, "bar": 0, "isDrum": false}, {"time": 36, "velocity": 108, "pitch": 62, "instrument": 24, "track": 2, "qtime": 36, "bar": 0, "isDrum": false}, {"time": 36, "velocity": 108, "pitch": 67, "instrument": 24, "track": 2, "qtime": 36, "bar": 0, "isDrum": false}, {"time": 42, "velocity": 0, "pitch": 58, "instrument": 24, "track": 2, "qtime": 42, "bar": 0, "isDrum": false}, {"time": 42, "velocity": 108, "pitch": 58, "instrument": 24, "track": 2, "qtime": 42, "bar": 0, "isDrum": false}, {"time": 48, "velocity": 0, "pitch": 55, "instrument": 24, "track": 2, "qtime": 48, "bar": 0, "isDrum": false}, {"time": 48, "velocity": 0, "pitch": 62, "instrument": 24, "track": 2, "qtime": 48, "bar": 0, "isDrum": false}, {"time": 48, "velocity": 0, "pitch": 67, "instrument": 24, "track": 2, "qtime": 48, "bar": 0, "isDrum": false}, {"time": 48, "velocity": 108, "pitch": 50, "instrument": 24, "track": 2, "qtime": 0, "bar": 1, "isDrum": false}, {"time": 54, "velocity": 0, "pitch": 58, "instrument": 24, "track": 2, "qtime": 6, "bar": 1, "isDrum": false}, {"time": 54, "velocity": 108, "pitch": 57, "instrument": 24, "track": 2, "qtime": 6, "bar": 1, "isDrum": false}, {"time": 60, "velocity": 108, "pitch": 62, "instrument": 24, "track": 2, "qtime": 12, "bar": 1, "isDrum": false}, {"time": 60, "velocity": 108, "pitch": 66, "instrument": 24, "track": 2, "qtime": 12, "bar": 1, "isDrum": false}, {"time": 66, "velocity": 0, "pitch": 57, "instrument": 24, "track": 2, "qtime": 18, "bar": 1, "isDrum": false}, {"time": 66, "velocity": 108, "pitch": 57, "instrument": 24, "track": 2, "qtime": 18, "bar": 1, "isDrum": false}, {"time": 72, "velocity": 0, "pitch": 50, "instrument": 24, "track": 2, "qtime": 24, "bar": 1, "isDrum": false}, {"time": 72, "velocity": 0, "pitch": 62, "instrument": 24, "track": 2, "qtime": 24, "bar": 1, "isDrum": false}, {"time": 72, "velocity": 0, "pitch": 66, "instrument": 24, "track": 2, "qtime": 24, "bar": 1, "isDrum": false}, {"time": 72, "velocity": 108, "pitch": 50, "instrument": 24, "track": 2, "qtime": 24, "bar": 1, "isDrum": false}, {"time": 78, "velocity": 0, "pitch": 57, "instrument": 24, "track": 2, "qtime": 30, "bar": 1, "isDrum": false}, {"time": 78, "velocity": 108, "pitch": 57, "instrument": 24, "track": 2, "qtime": 30, "bar": 1, "isDrum": false}, {"time": 84, "velocity": 108, "pitch": 62, "instrument": 24, "track": 2, "qtime": 36, "bar": 1, "isDrum": false}, {"time": 84, "velocity": 108, "pitch": 66, "instrument": 24, "track": 2, "qtime": 36, "bar": 1, "isDrum": false}, {"time": 90, "velocity": 0, "pitch": 57, "instrument": 24, "track": 2, "qtime": 42, "bar": 1, "isDrum": false}, {"time": 90, "velocity": 108, "pitch": 57, "instrument": 24, "track": 2, "qtime": 42, "bar": 1, "isDrum": false}, {"time": 96, "velocity": 0, "pitch": 50, "instrument": 24, "track": 2, "qtime": 48, "bar": 1, "isDrum": false}, {"time": 96, "velocity": 0, "pitch": 62, "instrument": 24, "track": 2, "qtime": 48, "bar": 1, "isDrum": false}, {"time": 96, "velocity": 0, "pitch": 66, "instrument": 24, "track": 2, "qtime": 48, "bar": 1, "isDrum": false}, {"time": 96, "velocity": 108, "pitch": 45, "instrument": 24, "track": 2, "qtime": 0, "bar": 2, "isDrum": false}, {"time": 102, "velocity": 0, "pitch": 57, "instrument": 24, "track": 2, "qtime": 6, "bar": 2, "isDrum": false}, {"time": 102, "velocity": 108, "pitch": 61, "instrument": 24, "track": 2, "qtime": 6, "bar": 2, "isDrum": false}, {"time": 108, "velocity": 108, "pitch": 64, "instrument": 24, "track": 2, "qtime": 12, "bar": 2, "isDrum": false}, {"time": 108, "velocity": 108, "pitch": 69, "instrument": 24, "track": 2, "qtime": 12, "bar": 2, "isDrum": false}, {"time": 114, "velocity": 0, "pitch": 61, "instrument": 24, "track": 2, "qtime": 18, "bar": 2, "isDrum": false}, {"time": 114, "velocity": 108, "pitch": 61, "instrument": 24, "track": 2, "qtime": 18, "bar": 2, "isDrum": false}, {"time": 120, "velocity": 0, "pitch": 45, "instrument": 24, "track": 2, "qtime": 24, "bar": 2, "isDrum": false}, {"time": 120, "velocity": 0, "pitch": 64, "instrument": 24, "track": 2, "qtime": 24, "bar": 2, "isDrum": false}, {"time": 120, "velocity": 0, "pitch": 69, "instrument": 24, "track": 2, "qtime": 24, "bar": 2, "isDrum": false}, {"time": 120, "velocity": 108, "pitch": 45, "instrument": 24, "track": 2, "qtime": 24, "bar": 2, "isDrum": false}, {"time": 126, "velocity": 0, "pitch": 61, "instrument": 24, "track": 2, "qtime": 30, "bar": 2, "isDrum": false}, {"time": 126, "velocity": 108, "pitch": 57, "instrument": 24, "track": 2, "qtime": 30, "bar": 2, "isDrum": false}, {"time": 132, "velocity": 108, "pitch": 52, "instrument": 24, "track": 2, "qtime": 36, "bar": 2, "isDrum": false}, {"time": 138, "velocity": 0, "pitch": 57, "instrument": 24, "track": 2, "qtime": 42, "bar": 2, "isDrum": false}, {"time": 138, "velocity": 108, "pitch": 57, "instrument": 24, "track": 2, "qtime": 42, "bar": 2, "isDrum": false}, {"time": 144, "velocity": 0, "pitch": 45, "instrument": 24, "track": 2, "qtime": 48, "bar": 2, "isDrum": false}, {"time": 144, "velocity": 0, "pitch": 52, "instrument": 24, "track": 2, "qtime": 48, "bar": 2, "isDrum": false}, {"time": 144, "velocity": 0, "pitch": 57, "instrument": 24, "track": 2, "qtime": 48, "bar": 2, "isDrum": false}, {"time": 144, "velocity": 108, "pitch": 50, "instrument": 24, "track": 2, "qtime": 0, "bar": 3, "isDrum": false}, {"time": 150, "velocity": 108, "pitch": 57, "instrument": 24, "track": 2, "qtime": 6, "bar": 3, "isDrum": false}, {"time": 156, "velocity": 108, "pitch": 62, "instrument": 24, "track": 2, "qtime": 12, "bar": 3, "isDrum": false}, {"time": 156, "velocity": 108, "pitch": 66, "instrument": 24, "track": 2, "qtime": 12, "bar": 3, "isDrum": false}, {"time": 162, "velocity": 0, "pitch": 57, "instrument": 24, "track": 2, "qtime": 18, "bar": 3, "isDrum": false}, {"time": 162, "velocity": 108, "pitch": 57, "instrument": 24, "track": 2, "qtime": 18, "bar": 3, "isDrum": false}, {"time": 168, "velocity": 0, "pitch": 50, "instrument": 24, "track": 2, "qtime": 24, "bar": 3, "isDrum": false}, {"time": 168, "velocity": 0, "pitch": 62, "instrument": 24, "track": 2, "qtime": 24, "bar": 3, "isDrum": false}, {"time": 168, "velocity": 0, "pitch": 66, "instrument": 24, "track": 2, "qtime": 24, "bar": 3, "isDrum": false}, {"time": 168, "velocity": 108, "pitch": 52, "instrument": 24, "track": 2, "qtime": 24, "bar": 3, "isDrum": false}, {"time": 174, "velocity": 0, "pitch": 57, "instrument": 24, "track": 2, "qtime": 30, "bar": 3, "isDrum": false}, {"time": 174, "velocity": 108, "pitch": 59, "instrument": 24, "track": 2, "qtime": 30, "bar": 3, "isDrum": false}, {"time": 180, "velocity": 108, "pitch": 64, "instrument": 24, "track": 2, "qtime": 36, "bar": 3, "isDrum": false}, {"time": 180, "velocity": 108, "pitch": 67, "instrument": 24, "track": 2, "qtime": 36, "bar": 3, "isDrum": false}, {"time": 186, "velocity": 0, "pitch": 59, "instrument": 24, "track": 2, "qtime": 42, "bar": 3, "isDrum": false}, {"time": 192, "velocity": 0, "pitch": 52, "instrument": 24, "track": 2, "qtime": 48, "bar": 3, "isDrum": false}, {"time": 192, "velocity": 0, "pitch": 64, "instrument": 24, "track": 2, "qtime": 48, "bar": 3, "isDrum": false}, {"time": 192, "velocity": 0, "pitch": 67, "instrument": 24, "track": 2, "qtime": 48, "bar": 3, "isDrum": false}, {"time": 0, "velocity": 108, "pitch": 43, "instrument": 32, "track": 4, "qtime": 0, "bar": 0, "isDrum": false}, {"time": 18, "velocity": 0, "pitch": 43, "instrument": 32, "track": 4, "qtime": 18, "bar": 0, "isDrum": false}, {"time": 18, "velocity": 108, "pitch": 43, "instrument": 32, "track": 4, "qtime": 18, "bar": 0, "isDrum": false}, {"time": 24, "velocity": 0, "pitch": 43, "instrument": 32, "track": 4, "qtime": 24, "bar": 0, "isDrum": false}, {"time": 24, "velocity": 108, "pitch": 43, "instrument": 32, "track": 4, "qtime": 24, "bar": 0, "isDrum": false}, {"time": 48, "velocity": 0, "pitch": 43, "instrument": 32, "track": 4, "qtime": 48, "bar": 0, "isDrum": false}, {"time": 48, "velocity": 108, "pitch": 38, "instrument": 32, "track": 4, "qtime": 0, "bar": 1, "isDrum": false}, {"time": 66, "velocity": 0, "pitch": 38, "instrument": 32, "track": 4, "qtime": 18, "bar": 1, "isDrum": false}, {"time": 66, "velocity": 108, "pitch": 38, "instrument": 32, "track": 4, "qtime": 18, "bar": 1, "isDrum": false}, {"time": 72, "velocity": 0, "pitch": 38, "instrument": 32, "track": 4, "qtime": 24, "bar": 1, "isDrum": false}, {"time": 72, "velocity": 108, "pitch": 38, "instrument": 32, "track": 4, "qtime": 24, "bar": 1, "isDrum": false}, {"time": 96, "velocity": 0, "pitch": 38, "instrument": 32, "track": 4, "qtime": 48, "bar": 1, "isDrum": false}, {"time": 96, "velocity": 108, "pitch": 45, "instrument": 32, "track": 4, "qtime": 0, "bar": 2, "isDrum": false}, {"time": 114, "velocity": 0, "pitch": 45, "instrument": 32, "track": 4, "qtime": 18, "bar": 2, "isDrum": false}, {"time": 114, "velocity": 108, "pitch": 45, "instrument": 32, "track": 4, "qtime": 18, "bar": 2, "isDrum": false}, {"time": 120, "velocity": 0, "pitch": 45, "instrument": 32, "track": 4, "qtime": 24, "bar": 2, "isDrum": false}, {"time": 120, "velocity": 108, "pitch": 45, "instrument": 32, "track": 4, "qtime": 24, "bar": 2, "isDrum": false}, {"time": 144, "velocity": 0, "pitch": 45, "instrument": 32, "track": 4, "qtime": 48, "bar": 2, "isDrum": false}, {"time": 144, "velocity": 108, "pitch": 38, "instrument": 32, "track": 4, "qtime": 0, "bar": 3, "isDrum": false}, {"time": 162, "velocity": 0, "pitch": 38, "instrument": 32, "track": 4, "qtime": 18, "bar": 3, "isDrum": false}, {"time": 162, "velocity": 108, "pitch": 38, "instrument": 32, "track": 4, "qtime": 18, "bar": 3, "isDrum": false}, {"time": 168, "velocity": 0, "pitch": 38, "instrument": 32, "track": 4, "qtime": 24, "bar": 3, "isDrum": false}, {"time": 168, "velocity": 108, "pitch": 40, "instrument": 32, "track": 4, "qtime": 24, "bar": 3, "isDrum": false}, {"time": 192, "velocity": 0, "pitch": 40, "instrument": 32, "track": 4, "qtime": 48, "bar": 3, "isDrum": false}, {"time": 47, "velocity": 108, "pitch": 62, "instrument": 120, "track": 5, "qtime": 47, "bar": 0, "isDrum": false}, {"time": 48, "velocity": 0, "pitch": 62, "instrument": 120, "track": 5, "qtime": 48, "bar": 0, "isDrum": false}, {"time": 95, "velocity": 108, "pitch": 62, "instrument": 120, "track": 5, "qtime": 47, "bar": 1, "isDrum": false}, {"time": 96, "velocity": 0, "pitch": 62, "instrument": 120, "track": 5, "qtime": 48, "bar": 1, "isDrum": false}, {"time": 143, "velocity": 108, "pitch": 62, "instrument": 120, "track": 5, "qtime": 47, "bar": 2, "isDrum": false}, {"time": 144, "velocity": 0, "pitch": 62, "instrument": 120, "track": 5, "qtime": 48, "bar": 2, "isDrum": false}, {"time": 167, "velocity": 108, "pitch": 62, "instrument": 120, "track": 5, "qtime": 23, "bar": 3, "isDrum": false}, {"time": 168, "velocity": 0, "pitch": 62, "instrument": 120, "track": 5, "qtime": 24, "bar": 3, "isDrum": false}, {"time": 191, "velocity": 108, "pitch": 62, "instrument": 120, "track": 5, "qtime": 47, "bar": 3, "isDrum": false}, {"time": 192, "velocity": 0, "pitch": 62, "instrument": 120, "track": 5, "qtime": 48, "bar": 3, "isDrum": false}], "resolution": 12, "tempo": 103, "minPitch": 38, "maxPitch": 69, "validSegments": [0], "validTracks": [31], "segmentLength": 4}, "audio": "https://www.sfu.ca/~jeffe/examples/stem_acous.mp3"}, {"src": "gen/stem_acous_guitar.json", "highlights": [[], [], [0, 1, 2, 3], [], [], []], "caption": "Resample the guitar track in 16a.", "sample_id": "16b", "mixer": [8, 8, 8, 8, 8], "tempo": 103, "json": {"tracks": [{"bars": [{"events": [0, 1, 2, 3, 4, 5, 6, 7], "isFourFour": true, "hasNotes": true, "time": 0}, {"events": [8, 9, 10, 11, 12, 13], "isFourFour": true, "hasNotes": true, "time": 48}, {"events": [14, 15, 16, 17, 18, 19], "isFourFour": true, "hasNotes": true, "time": 96}, {"events": [20, 21, 22, 23], "isFourFour": true, "hasNotes": true, "time": 144}], "isDrum": false, "minPitch": 59, "maxPitch": 67, "instrument": 53, "avPolyphony": 1, "noteDensity": 2, "noteDensityV2": 2}, {"bars": [{"events": [24, 25, 26, 27, 28, 29, 30, 31], "isFourFour": true, "hasNotes": true, "time": 0}, {"events": [32, 33, 34, 35, 36, 37], "isFourFour": true, "hasNotes": true, "time": 48}, {"events": [38, 39, 40, 41, 42, 43], "isFourFour": true, "hasNotes": true, "time": 96}, {"events": [44, 45, 46, 47], "isFourFour": true, "hasNotes": true, "time": 144}], "isDrum": false, "minPitch": 50, "maxPitch": 64, "instrument": 53, "avPolyphony": 1, "noteDensity": 2, "noteDensityV2": 2}, {"bars": [{"events": [82, 83, 84, 85, 86, 87, 88, 89, 90, 91, 92, 93, 94, 95, 96, 97, 98, 99], "isFourFour": true, "hasNotes": true, "time": 0}, {"events": [100, 101, 102, 103, 104, 105, 106, 107, 108, 109, 110, 111, 112, 113, 114, 115], "isFourFour": true, "hasNotes": true, "time": 48}, {"events": [116, 117, 118, 119, 120, 121, 122, 123, 124, 125, 126, 127, 128, 129, 130, 131], "isFourFour": true, "hasNotes": true, "time": 96}, {"events": [132, 133, 134, 135, 136, 137, 138, 139, 140, 141, 142, 143, 144, 145, 146, 147, 148, 149, 150, 151, 152], "isFourFour": true, "hasNotes": true, "time": 144}], "isDrum": false, "minPitch": 43, "maxPitch": 73, "instrument": 24, "avPolyphony": 3.5, "noteDensity": 9, "noteDensityV2": 5}, {"bars": [{"events": [48, 49, 50, 51, 52, 53], "isFourFour": true, "hasNotes": true, "time": 0}, {"events": [54, 55, 56, 57, 58, 59], "isFourFour": true, "hasNotes": true, "time": 48}, {"events": [60, 61, 62, 63, 64, 65], "isFourFour": true, "hasNotes": true, "time": 96}, {"events": [66, 67, 68, 69, 70, 71], "isFourFour": true, "hasNotes": true, "time": 144}], "isDrum": false, "minPitch": 38, "maxPitch": 45, "instrument": 32, "avPolyphony": 1, "noteDensity": 2, "noteDensityV2": 3}, {"bars": [{"events": [72, 73], "isFourFour": true, "hasNotes": true, "time": 0}, {"events": [74, 75], "isFourFour": true, "hasNotes": true, "time": 48}, {"events": [76, 77], "isFourFour": true, "hasNotes": true, "time": 96}, {"events": [78, 79, 80, 81], "isFourFour": true, "hasNotes": true, "time": 144}], "isDrum": false, "minPitch": 62, "maxPitch": 62, "instrument": 120, "avPolyphony": 1, "noteDensity": 0, "noteDensityV2": 0}], "events": [{"time": 0, "velocity": 108, "pitch": 62, "instrument": 53, "track": 0, "qtime": 0, "isDrum": false}, {"time": 12, "velocity": 0, "pitch": 62, "instrument": 53, "track": 0, "qtime": 12, "isDrum": false}, {"time": 12, "velocity": 108, "pitch": 64, "instrument": 53, "track": 0, "qtime": 12, "isDrum": false}, {"time": 24, "velocity": 0, "pitch": 64, "instrument": 53, "track": 0, "qtime": 24, "isDrum": false}, {"time": 24, "velocity": 108, "pitch": 65, "instrument": 53, "track": 0, "qtime": 24, "isDrum": false}, {"time": 36, "velocity": 0, "pitch": 65, "instrument": 53, "track": 0, "qtime": 36, "isDrum": false}, {"time": 36, "velocity": 108, "pitch": 67, "instrument": 53, "track": 0, "qtime": 36, "isDrum": false}, {"time": 48, "velocity": 0, "pitch": 67, "instrument": 53, "track": 0, "qtime": 48, "isDrum": false}, {"time": 48, "velocity": 108, "pitch": 66, "instrument": 53, "track": 0, "qtime": 0, "isDrum": false}, {"time": 84, "velocity": 0, "pitch": 66, "instrument": 53, "track": 0, "qtime": 36, "isDrum": false}, {"time": 84, "velocity": 108, "pitch": 64, "instrument": 53, "track": 0, "qtime": 36, "isDrum": false}, {"time": 90, "velocity": 0, "pitch": 64, "instrument": 53, "track": 0, "qtime": 42, "isDrum": false}, {"time": 90, "velocity": 108, "pitch": 66, "instrument": 53, "track": 0, "qtime": 42, "isDrum": false}, {"time": 96, "velocity": 0, "pitch": 66, "instrument": 53, "track": 0, "qtime": 48, "isDrum": false}, {"time": 96, "velocity": 108, "pitch": 67, "instrument": 53, "track": 0, "qtime": 0, "isDrum": false}, {"time": 132, "velocity": 0, "pitch": 67, "instrument": 53, "track": 0, "qtime": 36, "isDrum": false}, {"time": 132, "velocity": 108, "pitch": 59, "instrument": 53, "track": 0, "qtime": 36, "isDrum": false}, {"time": 138, "velocity": 0, "pitch": 59, "instrument": 53, "track": 0, "qtime": 42, "isDrum": false}, {"time": 138, "velocity": 108, "pitch": 61, "instrument": 53, "track": 0, "qtime": 42, "isDrum": false}, {"time": 144, "velocity": 0, "pitch": 61, "instrument": 53, "track": 0, "qtime": 48, "isDrum": false}, {"time": 144, "velocity": 108, "pitch": 62, "instrument": 53, "track": 0, "qtime": 0, "isDrum": false}, {"time": 168, "velocity": 0, "pitch": 62, "instrument": 53, "track": 0, "qtime": 24, "isDrum": false}, {"time": 168, "velocity": 108, "pitch": 64, "instrument": 53, "track": 0, "qtime": 24, "isDrum": false}, {"time": 192, "velocity": 0, "pitch": 64, "instrument": 53, "track": 0, "qtime": 48, "isDrum": false}, {"time": 0, "velocity": 108, "pitch": 58, "instrument": 53, "track": 1, "qtime": 0, "isDrum": false}, {"time": 12, "velocity": 0, "pitch": 58, "instrument": 53, "track": 1, "qtime": 12, "isDrum": false}, {"time": 12, "velocity": 108, "pitch": 60, "instrument": 53, "track": 1, "qtime": 12, "isDrum": false}, {"time": 24, "velocity": 0, "pitch": 60, "instrument": 53, "track": 1, "qtime": 24, "isDrum": false}, {"time": 24, "velocity": 108, "pitch": 62, "instrument": 53, "track": 1, "qtime": 24, "isDrum": false}, {"time": 36, "velocity": 0, "pitch": 62, "instrument": 53, "track": 1, "qtime": 36, "isDrum": false}, {"time": 36, "velocity": 108, "pitch": 64, "instrument": 53, "track": 1, "qtime": 36, "isDrum": false}, {"time": 48, "velocity": 0, "pitch": 64, "instrument": 53, "track": 1, "qtime": 48, "isDrum": false}, {"time": 48, "velocity": 108, "pitch": 57, "instrument": 53, "track": 1, "qtime": 0, "isDrum": false}, {"time": 84, "velocity": 0, "pitch": 57, "instrument": 53, "track": 1, "qtime": 36, "isDrum": false}, {"time": 84, "velocity": 108, "pitch": 57, "instrument": 53, "track": 1, "qtime": 36, "isDrum": false}, {"time": 90, "velocity": 0, "pitch": 57, "instrument": 53, "track": 1, "qtime": 42, "isDrum": false}, {"time": 90, "velocity": 108, "pitch": 57, "instrument": 53, "track": 1, "qtime": 42, "isDrum": false}, {"time": 96, "velocity": 0, "pitch": 57, "instrument": 53, "track": 1, "qtime": 48, "isDrum": false}, {"time": 96, "velocity": 108, "pitch": 57, "instrument": 53, "track": 1, "qtime": 0, "isDrum": false}, {"time": 132, "velocity": 0, "pitch": 57, "instrument": 53, "track": 1, "qtime": 36, "isDrum": false}, {"time": 132, "velocity": 108, "pitch": 50, "instrument": 53, "track": 1, "qtime": 36, "isDrum": false}, {"time": 138, "velocity": 0, "pitch": 50, "instrument": 53, "track": 1, "qtime": 42, "isDrum": false}, {"time": 138, "velocity": 108, "pitch": 52, "instrument": 53, "track": 1, "qtime": 42, "isDrum": false}, {"time": 144, "velocity": 0, "pitch": 52, "instrument": 53, "track": 1, "qtime": 48, "isDrum": false}, {"time": 144, "velocity": 108, "pitch": 54, "instrument": 53, "track": 1, "qtime": 0, "isDrum": false}, {"time": 168, "velocity": 0, "pitch": 54, "instrument": 53, "track": 1, "qtime": 24, "isDrum": false}, {"time": 168, "velocity": 108, "pitch": 55, "instrument": 53, "track": 1, "qtime": 24, "isDrum": false}, {"time": 192, "velocity": 0, "pitch": 55, "instrument": 53, "track": 1, "qtime": 48, "isDrum": false}, {"time": 0, "velocity": 108, "pitch": 43, "instrument": 32, "track": 2, "qtime": 0, "isDrum": false}, {"time": 18, "velocity": 0, "pitch": 43, "instrument": 32, "track": 2, "qtime": 18, "isDrum": false}, {"time": 18, "velocity": 108, "pitch": 43, "instrument": 32, "track": 2, "qtime": 18, "isDrum": false}, {"time": 24, "velocity": 0, "pitch": 43, "instrument": 32, "track": 2, "qtime": 24, "isDrum": false}, {"time": 24, "velocity": 108, "pitch": 43, "instrument": 32, "track": 2, "qtime": 24, "isDrum": false}, {"time": 48, "velocity": 0, "pitch": 43, "instrument": 32, "track": 2, "qtime": 48, "isDrum": false}, {"time": 48, "velocity": 108, "pitch": 38, "instrument": 32, "track": 2, "qtime": 0, "isDrum": false}, {"time": 66, "velocity": 0, "pitch": 38, "instrument": 32, "track": 2, "qtime": 18, "isDrum": false}, {"time": 66, "velocity": 108, "pitch": 38, "instrument": 32, "track": 2, "qtime": 18, "isDrum": false}, {"time": 72, "velocity": 0, "pitch": 38, "instrument": 32, "track": 2, "qtime": 24, "isDrum": false}, {"time": 72, "velocity": 108, "pitch": 38, "instrument": 32, "track": 2, "qtime": 24, "isDrum": false}, {"time": 96, "velocity": 0, "pitch": 38, "instrument": 32, "track": 2, "qtime": 48, "isDrum": false}, {"time": 96, "velocity": 108, "pitch": 45, "instrument": 32, "track": 2, "qtime": 0, "isDrum": false}, {"time": 114, "velocity": 0, "pitch": 45, "instrument": 32, "track": 2, "qtime": 18, "isDrum": false}, {"time": 114, "velocity": 108, "pitch": 45, "instrument": 32, "track": 2, "qtime": 18, "isDrum": false}, {"time": 120, "velocity": 0, "pitch": 45, "instrument": 32, "track": 2, "qtime": 24, "isDrum": false}, {"time": 120, "velocity": 108, "pitch": 45, "instrument": 32, "track": 2, "qtime": 24, "isDrum": false}, {"time": 144, "velocity": 0, "pitch": 45, "instrument": 32, "track": 2, "qtime": 48, "isDrum": false}, {"time": 144, "velocity": 108, "pitch": 38, "instrument": 32, "track": 2, "qtime": 0, "isDrum": false}, {"time": 162, "velocity": 0, "pitch": 38, "instrument": 32, "track": 2, "qtime": 18, "isDrum": false}, {"time": 162, "velocity": 108, "pitch": 38, "instrument": 32, "track": 2, "qtime": 18, "isDrum": false}, {"time": 168, "velocity": 0, "pitch": 38, "instrument": 32, "track": 2, "qtime": 24, "isDrum": false}, {"time": 168, "velocity": 108, "pitch": 40, "instrument": 32, "track": 2, "qtime": 24, "isDrum": false}, {"time": 192, "velocity": 0, "pitch": 40, "instrument": 32, "track": 2, "qtime": 48, "isDrum": false}, {"time": 47, "velocity": 108, "pitch": 62, "instrument": 120, "track": 3, "qtime": 47, "isDrum": false}, {"time": 48, "velocity": 0, "pitch": 62, "instrument": 120, "track": 3, "qtime": 48, "isDrum": false}, {"time": 95, "velocity": 108, "pitch": 62, "instrument": 120, "track": 3, "qtime": 47, "isDrum": false}, {"time": 96, "velocity": 0, "pitch": 62, "instrument": 120, "track": 3, "qtime": 48, "isDrum": false}, {"time": 143, "velocity": 108, "pitch": 62, "instrument": 120, "track": 3, "qtime": 47, "isDrum": false}, {"time": 144, "velocity": 0, "pitch": 62, "instrument": 120, "track": 3, "qtime": 48, "isDrum": false}, {"time": 167, "velocity": 108, "pitch": 62, "instrument": 120, "track": 3, "qtime": 23, "isDrum": false}, {"time": 168, "velocity": 0, "pitch": 62, "instrument": 120, "track": 3, "qtime": 24, "isDrum": false}, {"time": 191, "velocity": 108, "pitch": 62, "instrument": 120, "track": 3, "qtime": 47, "isDrum": false}, {"time": 192, "velocity": 0, "pitch": 62, "instrument": 120, "track": 3, "qtime": 48, "isDrum": false}, {"time": 0, "velocity": 108, "pitch": 43, "instrument": 24, "track": 4, "qtime": 0, "isDrum": false}, {"time": 0, "velocity": 108, "pitch": 58, "instrument": 24, "track": 4, "qtime": 0, "isDrum": false}, {"time": 6, "velocity": 108, "pitch": 50, "instrument": 24, "track": 4, "qtime": 6, "isDrum": false}, {"time": 12, "velocity": 0, "pitch": 43, "instrument": 24, "track": 4, "qtime": 12, "isDrum": false}, {"time": 12, "velocity": 108, "pitch": 55, "instrument": 24, "track": 4, "qtime": 12, "isDrum": false}, {"time": 18, "velocity": 0, "pitch": 50, "instrument": 24, "track": 4, "qtime": 18, "isDrum": false}, {"time": 18, "velocity": 0, "pitch": 58, "instrument": 24, "track": 4, "qtime": 18, "isDrum": false}, {"time": 18, "velocity": 108, "pitch": 58, "instrument": 24, "track": 4, "qtime": 18, "isDrum": false}, {"time": 24, "velocity": 0, "pitch": 55, "instrument": 24, "track": 4, "qtime": 24, "isDrum": false}, {"time": 24, "velocity": 108, "pitch": 43, "instrument": 24, "track": 4, "qtime": 24, "isDrum": false}, {"time": 30, "velocity": 108, "pitch": 50, "instrument": 24, "track": 4, "qtime": 30, "isDrum": false}, {"time": 36, "velocity": 0, "pitch": 43, "instrument": 24, "track": 4, "qtime": 36, "isDrum": false}, {"time": 36, "velocity": 0, "pitch": 58, "instrument": 24, "track": 4, "qtime": 36, "isDrum": false}, {"time": 36, "velocity": 108, "pitch": 55, "instrument": 24, "track": 4, "qtime": 36, "isDrum": false}, {"time": 42, "velocity": 0, "pitch": 50, "instrument": 24, "track": 4, "qtime": 42, "isDrum": false}, {"time": 42, "velocity": 108, "pitch": 50, "instrument": 24, "track": 4, "qtime": 42, "isDrum": false}, {"time": 48, "velocity": 0, "pitch": 50, "instrument": 24, "track": 4, "qtime": 48, "isDrum": false}, {"time": 48, "velocity": 0, "pitch": 55, "instrument": 24, "track": 4, "qtime": 48, "isDrum": false}, {"time": 48, "velocity": 108, "pitch": 50, "instrument": 24, "track": 4, "qtime": 0, "isDrum": false}, {"time": 54, "velocity": 108, "pitch": 57, "instrument": 24, "track": 4, "qtime": 6, "isDrum": false}, {"time": 60, "velocity": 108, "pitch": 62, "instrument": 24, "track": 4, "qtime": 12, "isDrum": false}, {"time": 66, "velocity": 108, "pitch": 69, "instrument": 24, "track": 4, "qtime": 18, "isDrum": false}, {"time": 72, "velocity": 108, "pitch": 66, "instrument": 24, "track": 4, "qtime": 24, "isDrum": false}, {"time": 78, "velocity": 0, "pitch": 62, "instrument": 24, "track": 4, "qtime": 30, "isDrum": false}, {"time": 78, "velocity": 108, "pitch": 62, "instrument": 24, "track": 4, "qtime": 30, "isDrum": false}, {"time": 84, "velocity": 0, "pitch": 57, "instrument": 24, "track": 4, "qtime": 36, "isDrum": false}, {"time": 84, "velocity": 108, "pitch": 57, "instrument": 24, "track": 4, "qtime": 36, "isDrum": false}, {"time": 90, "velocity": 0, "pitch": 62, "instrument": 24, "track": 4, "qtime": 42, "isDrum": false}, {"time": 90, "velocity": 108, "pitch": 62, "instrument": 24, "track": 4, "qtime": 42, "isDrum": false}, {"time": 96, "velocity": 0, "pitch": 50, "instrument": 24, "track": 4, "qtime": 48, "isDrum": false}, {"time": 96, "velocity": 0, "pitch": 57, "instrument": 24, "track": 4, "qtime": 48, "isDrum": false}, {"time": 96, "velocity": 0, "pitch": 62, "instrument": 24, "track": 4, "qtime": 48, "isDrum": false}, {"time": 96, "velocity": 0, "pitch": 66, "instrument": 24, "track": 4, "qtime": 48, "isDrum": false}, {"time": 96, "velocity": 0, "pitch": 69, "instrument": 24, "track": 4, "qtime": 48, "isDrum": false}, {"time": 96, "velocity": 108, "pitch": 45, "instrument": 24, "track": 4, "qtime": 0, "isDrum": false}, {"time": 102, "velocity": 108, "pitch": 52, "instrument": 24, "track": 4, "qtime": 6, "isDrum": false}, {"time": 108, "velocity": 108, "pitch": 55, "instrument": 24, "track": 4, "qtime": 12, "isDrum": false}, {"time": 114, "velocity": 108, "pitch": 61, "instrument": 24, "track": 4, "qtime": 18, "isDrum": false}, {"time": 120, "velocity": 108, "pitch": 57, "instrument": 24, "track": 4, "qtime": 24, "isDrum": false}, {"time": 126, "velocity": 0, "pitch": 52, "instrument": 24, "track": 4, "qtime": 30, "isDrum": false}, {"time": 126, "velocity": 108, "pitch": 52, "instrument": 24, "track": 4, "qtime": 30, "isDrum": false}, {"time": 132, "velocity": 108, "pitch": 73, "instrument": 24, "track": 4, "qtime": 36, "isDrum": false}, {"time": 138, "velocity": 108, "pitch": 69, "instrument": 24, "track": 4, "qtime": 42, "isDrum": false}, {"time": 144, "velocity": 0, "pitch": 45, "instrument": 24, "track": 4, "qtime": 48, "isDrum": false}, {"time": 144, "velocity": 0, "pitch": 52, "instrument": 24, "track": 4, "qtime": 48, "isDrum": false}, {"time": 144, "velocity": 0, "pitch": 55, "instrument": 24, "track": 4, "qtime": 48, "isDrum": false}, {"time": 144, "velocity": 0, "pitch": 57, "instrument": 24, "track": 4, "qtime": 48, "isDrum": false}, {"time": 144, "velocity": 0, "pitch": 61, "instrument": 24, "track": 4, "qtime": 48, "isDrum": false}, {"time": 144, "velocity": 0, "pitch": 69, "instrument": 24, "track": 4, "qtime": 48, "isDrum": false}, {"time": 144, "velocity": 0, "pitch": 73, "instrument": 24, "track": 4, "qtime": 48, "isDrum": false}, {"time": 144, "velocity": 108, "pitch": 50, "instrument": 24, "track": 4, "qtime": 0, "isDrum": false}, {"time": 144, "velocity": 108, "pitch": 66, "instrument": 24, "track": 4, "qtime": 0, "isDrum": false}, {"time": 150, "velocity": 108, "pitch": 57, "instrument": 24, "track": 4, "qtime": 6, "isDrum": false}, {"time": 156, "velocity": 108, "pitch": 62, "instrument": 24, "track": 4, "qtime": 12, "isDrum": false}, {"time": 162, "velocity": 108, "pitch": 69, "instrument": 24, "track": 4, "qtime": 18, "isDrum": false}, {"time": 168, "velocity": 0, "pitch": 50, "instrument": 24, "track": 4, "qtime": 24, "isDrum": false}, {"time": 168, "velocity": 0, "pitch": 57, "instrument": 24, "track": 4, "qtime": 24, "isDrum": false}, {"time": 168, "velocity": 0, "pitch": 62, "instrument": 24, "track": 4, "qtime": 24, "isDrum": false}, {"time": 168, "velocity": 0, "pitch": 66, "instrument": 24, "track": 4, "qtime": 24, "isDrum": false}, {"time": 168, "velocity": 108, "pitch": 52, "instrument": 24, "track": 4, "qtime": 24, "isDrum": false}, {"time": 168, "velocity": 108, "pitch": 66, "instrument": 24, "track": 4, "qtime": 24, "isDrum": false}, {"time": 174, "velocity": 108, "pitch": 55, "instrument": 24, "track": 4, "qtime": 30, "isDrum": false}, {"time": 180, "velocity": 0, "pitch": 69, "instrument": 24, "track": 4, "qtime": 36, "isDrum": false}, {"time": 180, "velocity": 108, "pitch": 64, "instrument": 24, "track": 4, "qtime": 36, "isDrum": false}, {"time": 184, "velocity": 0, "pitch": 67, "instrument": 24, "track": 4, "qtime": 40, "isDrum": false}, {"time": 186, "velocity": 108, "pitch": 67, "instrument": 24, "track": 4, "qtime": 42, "isDrum": false}, {"time": 192, "velocity": 0, "pitch": 52, "instrument": 24, "track": 4, "qtime": 48, "isDrum": false}, {"time": 192, "velocity": 0, "pitch": 55, "instrument": 24, "track": 4, "qtime": 48, "isDrum": false}, {"time": 192, "velocity": 0, "pitch": 64, "instrument": 24, "track": 4, "qtime": 48, "isDrum": false}, {"time": 192, "velocity": 0, "pitch": 66, "instrument": 24, "track": 4, "qtime": 48, "isDrum": false}, {"time": 192, "velocity": 0, "pitch": 67, "instrument": 24, "track": 4, "qtime": 48, "isDrum": false}], "resolution": 12, "tempo": 103, "minPitch": 38, "maxPitch": 73, "validSegments": [0], "validTracks": [31]}, "audio": "https://www.sfu.ca/~jeffe/examples/stem_acous_guitar.mp3"}, {"src": "gen/stem_calm.json", "highlights": [[], [], [], [], [], [], []], "caption": "Original sample from dataset.", "sample_id": "17a", "mixer": [8, 8, 6, 6, 8, 8], "tempo": 78, "json": {"tracks": [{"bars": [{"events": [0, 39, 40, 49, 51, 69, 70, 75, 81, 104], "isFourFour": true, "hasNotes": true, "time": 0, "beatLength": 4}, {"events": [107, 153, 154, 164, 167, 174, 181, 227], "isFourFour": true, "hasNotes": true, "time": 48, "beatLength": 4}, {"events": [242, 296, 298, 302, 312, 365, 371], "isFourFour": true, "hasNotes": true, "time": 96, "beatLength": 4}, {"events": [421, 424, 432, 435, 487], "isFourFour": true, "hasNotes": true, "time": 144, "beatLength": 4}, {"isFourFour": true, "hasNotes": false, "time": 192, "beatLength": 4}, {"isFourFour": true, "hasNotes": false, "time": 252, "beatLength": 4}], "isDrum": false, "minPitch": 28, "maxPitch": 40, "instrument": 35, "avPolyphony": 1, "noteDensity": 4, "noteDensityV2": 3}, {"bars": [{"events": [77, 78, 105], "isFourFour": true, "hasNotes": true, "time": 0, "beatLength": 4}, {"events": [112, 176, 184, 234, 236], "isFourFour": true, "hasNotes": true, "time": 48, "beatLength": 4}, {"events": [245, 246, 306, 310, 315, 323, 366, 367, 372, 373], "isFourFour": true, "hasNotes": true, "time": 96, "beatLength": 4}, {"events": [471, 484], "isFourFour": true, "hasNotes": false, "time": 144, "beatLength": 4}, {"isFourFour": true, "hasNotes": false, "time": 192, "beatLength": 4}, {"isFourFour": true, "hasNotes": false, "time": 252, "beatLength": 4}], "isDrum": false, "minPitch": 50, "maxPitch": 61, "instrument": 89, "avPolyphony": 1.98064518, "noteDensity": 1, "noteDensityV2": 3}, {"bars": [{"events": [3, 4, 50, 54, 79, 84, 85, 88, 93, 106], "isFourFour": true, "hasNotes": true, "time": 0, "beatLength": 4}, {"events": [111, 113, 115, 116, 120, 173, 175, 177, 178, 179, 183, 186, 189, 191, 195, 228, 230, 231, 232, 233, 235, 238, 239, 240], "isFourFour": true, "hasNotes": true, "time": 48, "beatLength": 4}, {"events": [244, 307, 308, 309, 311, 314, 320, 321, 324, 326, 327, 368, 370, 374, 375, 376, 377, 378, 379], "isFourFour": true, "hasNotes": true, "time": 96, "beatLength": 4}, {"events": [382, 437, 438, 443, 444, 488, 491, 492, 493], "isFourFour": true, "hasNotes": true, "time": 144, "beatLength": 4}, {"isFourFour": true, "hasNotes": false, "time": 192, "beatLength": 4}, {"isFourFour": true, "hasNotes": false, "time": 252, "beatLength": 4}], "isDrum": false, "minPitch": 47, "maxPitch": 81, "instrument": 48, "avPolyphony": 4.14583349, "noteDensity": 8, "noteDensityV2": 7}, {"bars": [{"events": [1, 2, 7, 8, 9, 10, 11, 12, 13, 14, 15, 17, 18, 19, 20, 21, 23, 24, 26, 27, 29, 31, 32, 33, 35, 37, 42, 43, 45, 46, 47, 48, 52, 53, 56, 57, 58, 59, 60, 61, 62, 63, 64, 65, 66, 67, 71, 72, 73, 74, 82, 83, 89, 90, 91, 92, 94, 95, 98, 100, 101, 103], "isFourFour": true, "hasNotes": true, "time": 0, "beatLength": 4}, {"events": [108, 109, 110, 114, 117, 118, 119, 121, 125, 126, 127, 128, 129, 130, 134, 136, 137, 138, 141, 142, 144, 145, 146, 147, 149, 150, 151, 152, 156, 159, 160, 163, 168, 170, 171, 172, 180, 182, 190, 192, 193, 194, 196, 197, 198, 199, 201, 203, 204, 205, 206, 207, 208, 209, 210, 211, 212, 213, 218, 220, 221, 222, 225, 226], "isFourFour": true, "hasNotes": true, "time": 48, "beatLength": 4}, {"events": [241, 243, 250, 251, 252, 253, 254, 255, 257, 259, 260, 264, 266, 271, 272, 273, 274, 275, 276, 277, 278, 281, 282, 284, 285, 286, 289, 292, 293, 295, 299, 301, 303, 305, 313, 319, 322, 325, 328, 329, 330, 331, 333, 335, 336, 337, 338, 339, 340, 341, 342, 343, 344, 345, 346, 347, 348, 349, 350, 352, 353, 355, 356, 357, 362, 364], "isFourFour": true, "hasNotes": true, "time": 96, "beatLength": 4}, {"events": [380, 381, 385, 386, 387, 388, 390, 392, 393, 394, 395, 396, 397, 399, 400, 402, 403, 404, 406, 407, 408, 409, 410, 411, 412, 413, 414, 415, 418, 420, 422, 423, 425, 426, 428, 429, 430, 431, 434, 436, 440, 441, 442, 445, 446, 448, 449, 450, 451, 452, 453, 454, 456, 458, 459, 460, 461, 462, 463, 464, 465, 466, 467, 468, 469, 470, 473, 474, 476, 477, 478, 479, 483, 486], "isFourFour": true, "hasNotes": true, "time": 144, "beatLength": 4}, {"isFourFour": true, "hasNotes": false, "time": 192, "beatLength": 4}, {"isFourFour": true, "hasNotes": false, "time": 252, "beatLength": 4}], "isDrum": true, "minPitch": 35, "maxPitch": 70, "instrument": 0, "avPolyphony": 2.11111116, "noteDensity": 9, "noteDensityV2": 9}, {"bars": [{"events": [5, 6, 34, 36, 38, 55, 76, 80, 86, 96], "isFourFour": true, "hasNotes": true, "time": 0, "beatLength": 4}, {"events": [122, 123, 124, 131, 132, 133, 135, 139, 140, 148, 157, 161, 162, 165, 185, 187, 188, 215, 216, 217, 229], "isFourFour": true, "hasNotes": true, "time": 48, "beatLength": 4}, {"events": [247, 248, 261, 262, 263, 267, 268, 269, 279, 288, 291, 294, 304, 316, 317, 318, 358, 360, 363], "isFourFour": true, "hasNotes": true, "time": 96, "beatLength": 4}, {"events": [383, 405, 417, 427, 447, 480, 485, 489], "isFourFour": true, "hasNotes": true, "time": 144, "beatLength": 4}, {"isFourFour": true, "hasNotes": false, "time": 192, "beatLength": 4}, {"isFourFour": true, "hasNotes": false, "time": 252, "beatLength": 4}], "isDrum": false, "minPitch": 56, "maxPitch": 66, "instrument": 25, "avPolyphony": 2.25308633, "noteDensity": 8, "noteDensityV2": 2}, {"bars": [{"events": [16, 22, 25, 28, 30, 41, 44, 68, 87, 97, 99, 102], "isFourFour": true, "hasNotes": true, "time": 0, "beatLength": 4}, {"events": [143, 155, 158, 166, 169, 200, 202, 214, 219, 223, 224, 237], "isFourFour": true, "hasNotes": true, "time": 48, "beatLength": 4}, {"events": [249, 256, 258, 265, 270, 280, 283, 287, 290, 297, 300, 332, 334, 351, 354, 359, 361, 369], "isFourFour": true, "hasNotes": true, "time": 96, "beatLength": 4}, {"events": [384, 389, 391, 398, 401, 416, 419, 433, 439, 455, 457, 472, 475, 481, 482, 490], "isFourFour": true, "hasNotes": true, "time": 144, "beatLength": 4}, {"isFourFour": true, "hasNotes": false, "time": 192, "beatLength": 4}, {"isFourFour": true, "hasNotes": false, "time": 252, "beatLength": 4}], "isDrum": false, "minPitch": 57, "maxPitch": 69, "instrument": 26, "avPolyphony": 1, "noteDensity": 8, "noteDensityV2": 6}], "events": [{"time": 0, "velocity": 108, "pitch": 33, "instrument": 35, "track": 0, "qtime": 0, "bar": 0, "isDrum": false}, {"time": 0, "velocity": 84, "pitch": 35, "instrument": 0, "track": 3, "qtime": 0, "bar": 0, "isDrum": true}, {"time": 0, "velocity": 84, "pitch": 42, "instrument": 0, "track": 3, "qtime": 0, "bar": 0, "isDrum": true}, {"time": 0, "velocity": 84, "pitch": 57, "instrument": 48, "track": 2, "qtime": 0, "bar": 0, "isDrum": false}, {"time": 0, "velocity": 84, "pitch": 61, "instrument": 48, "track": 2, "qtime": 0, "bar": 0, "isDrum": false}, {"time": 0, "velocity": 108, "pitch": 61, "instrument": 25, "track": 4, "qtime": 0, "bar": 0, "isDrum": false}, {"time": 0, "velocity": 108, "pitch": 64, "instrument": 25, "track": 4, "qtime": 0, "bar": 0, "isDrum": false}, {"time": 0, "velocity": 84, "pitch": 70, "instrument": 0, "track": 3, "qtime": 0, "bar": 0, "isDrum": true}, {"time": 1, "velocity": 0, "pitch": 35, "instrument": 0, "track": 3, "qtime": 1, "bar": 0, "isDrum": true}, {"time": 1, "velocity": 0, "pitch": 42, "instrument": 0, "track": 3, "qtime": 1, "bar": 0, "isDrum": true}, {"time": 1, "velocity": 0, "pitch": 70, "instrument": 0, "track": 3, "qtime": 1, "bar": 0, "isDrum": true}, {"time": 3, "velocity": 84, "pitch": 42, "instrument": 0, "track": 3, "qtime": 3, "bar": 0, "isDrum": true}, {"time": 3, "velocity": 84, "pitch": 70, "instrument": 0, "track": 3, "qtime": 3, "bar": 0, "isDrum": true}, {"time": 4, "velocity": 0, "pitch": 42, "instrument": 0, "track": 3, "qtime": 4, "bar": 0, "isDrum": true}, {"time": 4, "velocity": 0, "pitch": 70, "instrument": 0, "track": 3, "qtime": 4, "bar": 0, "isDrum": true}, {"time": 6, "velocity": 84, "pitch": 42, "instrument": 0, "track": 3, "qtime": 6, "bar": 0, "isDrum": true}, {"time": 6, "velocity": 108, "pitch": 61, "instrument": 26, "track": 5, "qtime": 6, "bar": 0, "isDrum": false}, {"time": 6, "velocity": 84, "pitch": 70, "instrument": 0, "track": 3, "qtime": 6, "bar": 0, "isDrum": true}, {"time": 7, "velocity": 0, "pitch": 42, "instrument": 0, "track": 3, "qtime": 7, "bar": 0, "isDrum": true}, {"time": 7, "velocity": 0, "pitch": 70, "instrument": 0, "track": 3, "qtime": 7, "bar": 0, "isDrum": true}, {"time": 9, "velocity": 84, "pitch": 42, "instrument": 0, "track": 3, "qtime": 9, "bar": 0, "isDrum": true}, {"time": 10, "velocity": 0, "pitch": 42, "instrument": 0, "track": 3, "qtime": 10, "bar": 0, "isDrum": true}, {"time": 10, "velocity": 0, "pitch": 61, "instrument": 26, "track": 5, "qtime": 10, "bar": 0, "isDrum": false}, {"time": 12, "velocity": 84, "pitch": 37, "instrument": 0, "track": 3, "qtime": 12, "bar": 0, "isDrum": true}, {"time": 12, "velocity": 84, "pitch": 42, "instrument": 0, "track": 3, "qtime": 12, "bar": 0, "isDrum": true}, {"time": 12, "velocity": 108, "pitch": 61, "instrument": 26, "track": 5, "qtime": 12, "bar": 0, "isDrum": false}, {"time": 13, "velocity": 0, "pitch": 37, "instrument": 0, "track": 3, "qtime": 13, "bar": 0, "isDrum": true}, {"time": 13, "velocity": 0, "pitch": 42, "instrument": 0, "track": 3, "qtime": 13, "bar": 0, "isDrum": true}, {"time": 15, "velocity": 0, "pitch": 61, "instrument": 26, "track": 5, "qtime": 15, "bar": 0, "isDrum": false}, {"time": 15, "velocity": 84, "pitch": 42, "instrument": 0, "track": 3, "qtime": 15, "bar": 0, "isDrum": true}, {"time": 15, "velocity": 108, "pitch": 62, "instrument": 26, "track": 5, "qtime": 15, "bar": 0, "isDrum": false}, {"time": 15, "velocity": 84, "pitch": 70, "instrument": 0, "track": 3, "qtime": 15, "bar": 0, "isDrum": true}, {"time": 16, "velocity": 0, "pitch": 42, "instrument": 0, "track": 3, "qtime": 16, "bar": 0, "isDrum": true}, {"time": 16, "velocity": 0, "pitch": 70, "instrument": 0, "track": 3, "qtime": 16, "bar": 0, "isDrum": true}, {"time": 18, "velocity": 0, "pitch": 61, "instrument": 25, "track": 4, "qtime": 18, "bar": 0, "isDrum": false}, {"time": 18, "velocity": 84, "pitch": 42, "instrument": 0, "track": 3, "qtime": 18, "bar": 0, "isDrum": true}, {"time": 18, "velocity": 108, "pitch": 57, "instrument": 25, "track": 4, "qtime": 18, "bar": 0, "isDrum": false}, {"time": 19, "velocity": 0, "pitch": 42, "instrument": 0, "track": 3, "qtime": 19, "bar": 0, "isDrum": true}, {"time": 19, "velocity": 0, "pitch": 64, "instrument": 25, "track": 4, "qtime": 19, "bar": 0, "isDrum": false}, {"time": 20, "velocity": 0, "pitch": 33, "instrument": 35, "track": 0, "qtime": 20, "bar": 0, "isDrum": false}, {"time": 20, "velocity": 108, "pitch": 28, "instrument": 35, "track": 0, "qtime": 20, "bar": 0, "isDrum": false}, {"time": 21, "velocity": 0, "pitch": 62, "instrument": 26, "track": 5, "qtime": 21, "bar": 0, "isDrum": false}, {"time": 21, "velocity": 84, "pitch": 35, "instrument": 0, "track": 3, "qtime": 21, "bar": 0, "isDrum": true}, {"time": 21, "velocity": 84, "pitch": 42, "instrument": 0, "track": 3, "qtime": 21, "bar": 0, "isDrum": true}, {"time": 21, "velocity": 108, "pitch": 61, "instrument": 26, "track": 5, "qtime": 21, "bar": 0, "isDrum": false}, {"time": 21, "velocity": 84, "pitch": 70, "instrument": 0, "track": 3, "qtime": 21, "bar": 0, "isDrum": true}, {"time": 22, "velocity": 0, "pitch": 35, "instrument": 0, "track": 3, "qtime": 22, "bar": 0, "isDrum": true}, {"time": 22, "velocity": 0, "pitch": 42, "instrument": 0, "track": 3, "qtime": 22, "bar": 0, "isDrum": true}, {"time": 22, "velocity": 0, "pitch": 70, "instrument": 0, "track": 3, "qtime": 22, "bar": 0, "isDrum": true}, {"time": 23, "velocity": 0, "pitch": 28, "instrument": 35, "track": 0, "qtime": 23, "bar": 0, "isDrum": false}, {"time": 23, "velocity": 0, "pitch": 57, "instrument": 48, "track": 2, "qtime": 23, "bar": 0, "isDrum": false}, {"time": 23, "velocity": 108, "pitch": 33, "instrument": 35, "track": 0, "qtime": 23, "bar": 0, "isDrum": false}, {"time": 24, "velocity": 84, "pitch": 35, "instrument": 0, "track": 3, "qtime": 24, "bar": 0, "isDrum": true}, {"time": 24, "velocity": 84, "pitch": 42, "instrument": 0, "track": 3, "qtime": 24, "bar": 0, "isDrum": true}, {"time": 24, "velocity": 84, "pitch": 57, "instrument": 48, "track": 2, "qtime": 24, "bar": 0, "isDrum": false}, {"time": 24, "velocity": 108, "pitch": 64, "instrument": 25, "track": 4, "qtime": 24, "bar": 0, "isDrum": false}, {"time": 24, "velocity": 84, "pitch": 70, "instrument": 0, "track": 3, "qtime": 24, "bar": 0, "isDrum": true}, {"time": 25, "velocity": 0, "pitch": 35, "instrument": 0, "track": 3, "qtime": 25, "bar": 0, "isDrum": true}, {"time": 25, "velocity": 0, "pitch": 42, "instrument": 0, "track": 3, "qtime": 25, "bar": 0, "isDrum": true}, {"time": 25, "velocity": 0, "pitch": 70, "instrument": 0, "track": 3, "qtime": 25, "bar": 0, "isDrum": true}, {"time": 27, "velocity": 84, "pitch": 42, "instrument": 0, "track": 3, "qtime": 27, "bar": 0, "isDrum": true}, {"time": 27, "velocity": 84, "pitch": 70, "instrument": 0, "track": 3, "qtime": 27, "bar": 0, "isDrum": true}, {"time": 28, "velocity": 0, "pitch": 42, "instrument": 0, "track": 3, "qtime": 28, "bar": 0, "isDrum": true}, {"time": 28, "velocity": 0, "pitch": 70, "instrument": 0, "track": 3, "qtime": 28, "bar": 0, "isDrum": true}, {"time": 30, "velocity": 84, "pitch": 42, "instrument": 0, "track": 3, "qtime": 30, "bar": 0, "isDrum": true}, {"time": 30, "velocity": 84, "pitch": 70, "instrument": 0, "track": 3, "qtime": 30, "bar": 0, "isDrum": true}, {"time": 31, "velocity": 0, "pitch": 42, "instrument": 0, "track": 3, "qtime": 31, "bar": 0, "isDrum": true}, {"time": 31, "velocity": 0, "pitch": 70, "instrument": 0, "track": 3, "qtime": 31, "bar": 0, "isDrum": true}, {"time": 32, "velocity": 0, "pitch": 61, "instrument": 26, "track": 5, "qtime": 32, "bar": 0, "isDrum": false}, {"time": 33, "velocity": 0, "pitch": 33, "instrument": 35, "track": 0, "qtime": 33, "bar": 0, "isDrum": false}, {"time": 33, "velocity": 108, "pitch": 28, "instrument": 35, "track": 0, "qtime": 33, "bar": 0, "isDrum": false}, {"time": 33, "velocity": 84, "pitch": 42, "instrument": 0, "track": 3, "qtime": 33, "bar": 0, "isDrum": true}, {"time": 33, "velocity": 84, "pitch": 70, "instrument": 0, "track": 3, "qtime": 33, "bar": 0, "isDrum": true}, {"time": 34, "velocity": 0, "pitch": 42, "instrument": 0, "track": 3, "qtime": 34, "bar": 0, "isDrum": true}, {"time": 34, "velocity": 0, "pitch": 70, "instrument": 0, "track": 3, "qtime": 34, "bar": 0, "isDrum": true}, {"time": 35, "velocity": 0, "pitch": 28, "instrument": 35, "track": 0, "qtime": 35, "bar": 0, "isDrum": false}, {"time": 35, "velocity": 0, "pitch": 57, "instrument": 25, "track": 4, "qtime": 35, "bar": 0, "isDrum": false}, {"time": 35, "velocity": 108, "pitch": 56, "instrument": 89, "track": 1, "qtime": 35, "bar": 0, "isDrum": false}, {"time": 35, "velocity": 108, "pitch": 61, "instrument": 89, "track": 1, "qtime": 35, "bar": 0, "isDrum": false}, {"time": 36, "velocity": 0, "pitch": 61, "instrument": 48, "track": 2, "qtime": 36, "bar": 0, "isDrum": false}, {"time": 36, "velocity": 0, "pitch": 64, "instrument": 25, "track": 4, "qtime": 36, "bar": 0, "isDrum": false}, {"time": 36, "velocity": 108, "pitch": 32, "instrument": 35, "track": 0, "qtime": 36, "bar": 0, "isDrum": false}, {"time": 36, "velocity": 84, "pitch": 37, "instrument": 0, "track": 3, "qtime": 36, "bar": 0, "isDrum": true}, {"time": 36, "velocity": 84, "pitch": 42, "instrument": 0, "track": 3, "qtime": 36, "bar": 0, "isDrum": true}, {"time": 36, "velocity": 84, "pitch": 56, "instrument": 48, "track": 2, "qtime": 36, "bar": 0, "isDrum": false}, {"time": 36, "velocity": 84, "pitch": 61, "instrument": 48, "track": 2, "qtime": 36, "bar": 0, "isDrum": false}, {"time": 36, "velocity": 108, "pitch": 61, "instrument": 25, "track": 4, "qtime": 36, "bar": 0, "isDrum": false}, {"time": 36, "velocity": 108, "pitch": 61, "instrument": 26, "track": 5, "qtime": 36, "bar": 0, "isDrum": false}, {"time": 36, "velocity": 84, "pitch": 64, "instrument": 48, "track": 2, "qtime": 36, "bar": 0, "isDrum": false}, {"time": 36, "velocity": 84, "pitch": 70, "instrument": 0, "track": 3, "qtime": 36, "bar": 0, "isDrum": true}, {"time": 37, "velocity": 0, "pitch": 37, "instrument": 0, "track": 3, "qtime": 37, "bar": 0, "isDrum": true}, {"time": 37, "velocity": 0, "pitch": 42, "instrument": 0, "track": 3, "qtime": 37, "bar": 0, "isDrum": true}, {"time": 37, "velocity": 0, "pitch": 70, "instrument": 0, "track": 3, "qtime": 37, "bar": 0, "isDrum": true}, {"time": 38, "velocity": 0, "pitch": 57, "instrument": 48, "track": 2, "qtime": 38, "bar": 0, "isDrum": false}, {"time": 39, "velocity": 84, "pitch": 42, "instrument": 0, "track": 3, "qtime": 39, "bar": 0, "isDrum": true}, {"time": 40, "velocity": 0, "pitch": 42, "instrument": 0, "track": 3, "qtime": 40, "bar": 0, "isDrum": true}, {"time": 40, "velocity": 0, "pitch": 61, "instrument": 25, "track": 4, "qtime": 40, "bar": 0, "isDrum": false}, {"time": 42, "velocity": 0, "pitch": 61, "instrument": 26, "track": 5, "qtime": 42, "bar": 0, "isDrum": false}, {"time": 42, "velocity": 84, "pitch": 46, "instrument": 0, "track": 3, "qtime": 42, "bar": 0, "isDrum": true}, {"time": 42, "velocity": 108, "pitch": 64, "instrument": 26, "track": 5, "qtime": 42, "bar": 0, "isDrum": false}, {"time": 43, "velocity": 0, "pitch": 46, "instrument": 0, "track": 3, "qtime": 43, "bar": 0, "isDrum": true}, {"time": 45, "velocity": 84, "pitch": 70, "instrument": 0, "track": 3, "qtime": 45, "bar": 0, "isDrum": true}, {"time": 46, "velocity": 0, "pitch": 64, "instrument": 26, "track": 5, "qtime": 46, "bar": 0, "isDrum": false}, {"time": 46, "velocity": 0, "pitch": 70, "instrument": 0, "track": 3, "qtime": 46, "bar": 0, "isDrum": true}, {"time": 48, "velocity": 0, "pitch": 32, "instrument": 35, "track": 0, "qtime": 48, "bar": 0, "isDrum": false}, {"time": 48, "velocity": 0, "pitch": 56, "instrument": 89, "track": 1, "qtime": 48, "bar": 0, "isDrum": false}, {"time": 48, "velocity": 0, "pitch": 56, "instrument": 48, "track": 2, "qtime": 48, "bar": 0, "isDrum": false}, {"time": 48, "velocity": 108, "pitch": 30, "instrument": 35, "track": 0, "qtime": 0, "bar": 1, "isDrum": false}, {"time": 48, "velocity": 84, "pitch": 35, "instrument": 0, "track": 3, "qtime": 0, "bar": 1, "isDrum": true}, {"time": 48, "velocity": 84, "pitch": 42, "instrument": 0, "track": 3, "qtime": 0, "bar": 1, "isDrum": true}, {"time": 48, "velocity": 84, "pitch": 52, "instrument": 0, "track": 3, "qtime": 0, "bar": 1, "isDrum": true}, {"time": 48, "velocity": 84, "pitch": 54, "instrument": 48, "track": 2, "qtime": 0, "bar": 1, "isDrum": false}, {"time": 48, "velocity": 108, "pitch": 57, "instrument": 89, "track": 1, "qtime": 0, "bar": 1, "isDrum": false}, {"time": 48, "velocity": 84, "pitch": 69, "instrument": 48, "track": 2, "qtime": 0, "bar": 1, "isDrum": false}, {"time": 48, "velocity": 84, "pitch": 70, "instrument": 0, "track": 3, "qtime": 0, "bar": 1, "isDrum": true}, {"time": 48, "velocity": 84, "pitch": 73, "instrument": 48, "track": 2, "qtime": 0, "bar": 1, "isDrum": false}, {"time": 48, "velocity": 84, "pitch": 78, "instrument": 48, "track": 2, "qtime": 0, "bar": 1, "isDrum": false}, {"time": 49, "velocity": 0, "pitch": 35, "instrument": 0, "track": 3, "qtime": 1, "bar": 1, "isDrum": true}, {"time": 49, "velocity": 0, "pitch": 42, "instrument": 0, "track": 3, "qtime": 1, "bar": 1, "isDrum": true}, {"time": 49, "velocity": 0, "pitch": 52, "instrument": 0, "track": 3, "qtime": 1, "bar": 1, "isDrum": true}, {"time": 49, "velocity": 0, "pitch": 64, "instrument": 48, "track": 2, "qtime": 1, "bar": 1, "isDrum": false}, {"time": 49, "velocity": 0, "pitch": 70, "instrument": 0, "track": 3, "qtime": 1, "bar": 1, "isDrum": true}, {"time": 49, "velocity": 108, "pitch": 57, "instrument": 25, "track": 4, "qtime": 1, "bar": 1, "isDrum": false}, {"time": 49, "velocity": 108, "pitch": 61, "instrument": 25, "track": 4, "qtime": 1, "bar": 1, "isDrum": false}, {"time": 49, "velocity": 108, "pitch": 66, "instrument": 25, "track": 4, "qtime": 1, "bar": 1, "isDrum": false}, {"time": 51, "velocity": 84, "pitch": 42, "instrument": 0, "track": 3, "qtime": 3, "bar": 1, "isDrum": true}, {"time": 51, "velocity": 84, "pitch": 70, "instrument": 0, "track": 3, "qtime": 3, "bar": 1, "isDrum": true}, {"time": 52, "velocity": 0, "pitch": 42, "instrument": 0, "track": 3, "qtime": 4, "bar": 1, "isDrum": true}, {"time": 52, "velocity": 0, "pitch": 70, "instrument": 0, "track": 3, "qtime": 4, "bar": 1, "isDrum": true}, {"time": 54, "velocity": 84, "pitch": 42, "instrument": 0, "track": 3, "qtime": 6, "bar": 1, "isDrum": true}, {"time": 55, "velocity": 0, "pitch": 42, "instrument": 0, "track": 3, "qtime": 7, "bar": 1, "isDrum": true}, {"time": 55, "velocity": 0, "pitch": 61, "instrument": 25, "track": 4, "qtime": 7, "bar": 1, "isDrum": false}, {"time": 56, "velocity": 0, "pitch": 66, "instrument": 25, "track": 4, "qtime": 8, "bar": 1, "isDrum": false}, {"time": 57, "velocity": 0, "pitch": 57, "instrument": 25, "track": 4, "qtime": 9, "bar": 1, "isDrum": false}, {"time": 57, "velocity": 84, "pitch": 42, "instrument": 0, "track": 3, "qtime": 9, "bar": 1, "isDrum": true}, {"time": 57, "velocity": 108, "pitch": 57, "instrument": 25, "track": 4, "qtime": 9, "bar": 1, "isDrum": false}, {"time": 57, "velocity": 84, "pitch": 70, "instrument": 0, "track": 3, "qtime": 9, "bar": 1, "isDrum": true}, {"time": 58, "velocity": 0, "pitch": 42, "instrument": 0, "track": 3, "qtime": 10, "bar": 1, "isDrum": true}, {"time": 58, "velocity": 0, "pitch": 70, "instrument": 0, "track": 3, "qtime": 10, "bar": 1, "isDrum": true}, {"time": 58, "velocity": 108, "pitch": 61, "instrument": 25, "track": 4, "qtime": 10, "bar": 1, "isDrum": false}, {"time": 58, "velocity": 108, "pitch": 66, "instrument": 25, "track": 4, "qtime": 10, "bar": 1, "isDrum": false}, {"time": 60, "velocity": 84, "pitch": 37, "instrument": 0, "track": 3, "qtime": 12, "bar": 1, "isDrum": true}, {"time": 60, "velocity": 84, "pitch": 42, "instrument": 0, "track": 3, "qtime": 12, "bar": 1, "isDrum": true}, {"time": 60, "velocity": 108, "pitch": 66, "instrument": 26, "track": 5, "qtime": 12, "bar": 1, "isDrum": false}, {"time": 60, "velocity": 84, "pitch": 70, "instrument": 0, "track": 3, "qtime": 12, "bar": 1, "isDrum": true}, {"time": 61, "velocity": 0, "pitch": 37, "instrument": 0, "track": 3, "qtime": 13, "bar": 1, "isDrum": true}, {"time": 61, "velocity": 0, "pitch": 42, "instrument": 0, "track": 3, "qtime": 13, "bar": 1, "isDrum": true}, {"time": 61, "velocity": 0, "pitch": 70, "instrument": 0, "track": 3, "qtime": 13, "bar": 1, "isDrum": true}, {"time": 63, "velocity": 0, "pitch": 61, "instrument": 25, "track": 4, "qtime": 15, "bar": 1, "isDrum": false}, {"time": 63, "velocity": 84, "pitch": 42, "instrument": 0, "track": 3, "qtime": 15, "bar": 1, "isDrum": true}, {"time": 63, "velocity": 84, "pitch": 70, "instrument": 0, "track": 3, "qtime": 15, "bar": 1, "isDrum": true}, {"time": 64, "velocity": 0, "pitch": 42, "instrument": 0, "track": 3, "qtime": 16, "bar": 1, "isDrum": true}, {"time": 64, "velocity": 0, "pitch": 70, "instrument": 0, "track": 3, "qtime": 16, "bar": 1, "isDrum": true}, {"time": 65, "velocity": 0, "pitch": 30, "instrument": 35, "track": 0, "qtime": 17, "bar": 1, "isDrum": false}, {"time": 65, "velocity": 108, "pitch": 33, "instrument": 35, "track": 0, "qtime": 17, "bar": 1, "isDrum": false}, {"time": 66, "velocity": 0, "pitch": 66, "instrument": 26, "track": 5, "qtime": 18, "bar": 1, "isDrum": false}, {"time": 66, "velocity": 84, "pitch": 42, "instrument": 0, "track": 3, "qtime": 18, "bar": 1, "isDrum": true}, {"time": 66, "velocity": 108, "pitch": 61, "instrument": 25, "track": 4, "qtime": 18, "bar": 1, "isDrum": false}, {"time": 66, "velocity": 108, "pitch": 69, "instrument": 26, "track": 5, "qtime": 18, "bar": 1, "isDrum": false}, {"time": 66, "velocity": 84, "pitch": 70, "instrument": 0, "track": 3, "qtime": 18, "bar": 1, "isDrum": true}, {"time": 67, "velocity": 0, "pitch": 42, "instrument": 0, "track": 3, "qtime": 19, "bar": 1, "isDrum": true}, {"time": 67, "velocity": 0, "pitch": 57, "instrument": 25, "track": 4, "qtime": 19, "bar": 1, "isDrum": false}, {"time": 67, "velocity": 0, "pitch": 66, "instrument": 25, "track": 4, "qtime": 19, "bar": 1, "isDrum": false}, {"time": 67, "velocity": 0, "pitch": 70, "instrument": 0, "track": 3, "qtime": 19, "bar": 1, "isDrum": true}, {"time": 69, "velocity": 0, "pitch": 33, "instrument": 35, "track": 0, "qtime": 21, "bar": 1, "isDrum": false}, {"time": 69, "velocity": 0, "pitch": 61, "instrument": 25, "track": 4, "qtime": 21, "bar": 1, "isDrum": false}, {"time": 69, "velocity": 0, "pitch": 69, "instrument": 26, "track": 5, "qtime": 21, "bar": 1, "isDrum": false}, {"time": 69, "velocity": 108, "pitch": 35, "instrument": 35, "track": 0, "qtime": 21, "bar": 1, "isDrum": false}, {"time": 69, "velocity": 84, "pitch": 42, "instrument": 0, "track": 3, "qtime": 21, "bar": 1, "isDrum": true}, {"time": 69, "velocity": 108, "pitch": 68, "instrument": 26, "track": 5, "qtime": 21, "bar": 1, "isDrum": false}, {"time": 69, "velocity": 84, "pitch": 70, "instrument": 0, "track": 3, "qtime": 21, "bar": 1, "isDrum": true}, {"time": 70, "velocity": 0, "pitch": 42, "instrument": 0, "track": 3, "qtime": 22, "bar": 1, "isDrum": true}, {"time": 70, "velocity": 0, "pitch": 70, "instrument": 0, "track": 3, "qtime": 22, "bar": 1, "isDrum": true}, {"time": 71, "velocity": 84, "pitch": 80, "instrument": 48, "track": 2, "qtime": 23, "bar": 1, "isDrum": false}, {"time": 72, "velocity": 0, "pitch": 35, "instrument": 35, "track": 0, "qtime": 24, "bar": 1, "isDrum": false}, {"time": 72, "velocity": 0, "pitch": 54, "instrument": 48, "track": 2, "qtime": 24, "bar": 1, "isDrum": false}, {"time": 72, "velocity": 0, "pitch": 57, "instrument": 89, "track": 1, "qtime": 24, "bar": 1, "isDrum": false}, {"time": 72, "velocity": 0, "pitch": 61, "instrument": 48, "track": 2, "qtime": 24, "bar": 1, "isDrum": false}, {"time": 72, "velocity": 0, "pitch": 69, "instrument": 48, "track": 2, "qtime": 24, "bar": 1, "isDrum": false}, {"time": 72, "velocity": 0, "pitch": 78, "instrument": 48, "track": 2, "qtime": 24, "bar": 1, "isDrum": false}, {"time": 72, "velocity": 84, "pitch": 35, "instrument": 0, "track": 3, "qtime": 24, "bar": 1, "isDrum": true}, {"time": 72, "velocity": 108, "pitch": 37, "instrument": 35, "track": 0, "qtime": 24, "bar": 1, "isDrum": false}, {"time": 72, "velocity": 84, "pitch": 42, "instrument": 0, "track": 3, "qtime": 24, "bar": 1, "isDrum": true}, {"time": 72, "velocity": 84, "pitch": 52, "instrument": 48, "track": 2, "qtime": 24, "bar": 1, "isDrum": false}, {"time": 72, "velocity": 108, "pitch": 56, "instrument": 89, "track": 1, "qtime": 24, "bar": 1, "isDrum": false}, {"time": 72, "velocity": 108, "pitch": 56, "instrument": 25, "track": 4, "qtime": 24, "bar": 1, "isDrum": false}, {"time": 72, "velocity": 84, "pitch": 59, "instrument": 48, "track": 2, "qtime": 24, "bar": 1, "isDrum": false}, {"time": 72, "velocity": 108, "pitch": 61, "instrument": 25, "track": 4, "qtime": 24, "bar": 1, "isDrum": false}, {"time": 72, "velocity": 108, "pitch": 64, "instrument": 25, "track": 4, "qtime": 24, "bar": 1, "isDrum": false}, {"time": 72, "velocity": 84, "pitch": 68, "instrument": 48, "track": 2, "qtime": 24, "bar": 1, "isDrum": false}, {"time": 72, "velocity": 84, "pitch": 70, "instrument": 0, "track": 3, "qtime": 24, "bar": 1, "isDrum": true}, {"time": 72, "velocity": 84, "pitch": 76, "instrument": 48, "track": 2, "qtime": 24, "bar": 1, "isDrum": false}, {"time": 73, "velocity": 0, "pitch": 35, "instrument": 0, "track": 3, "qtime": 25, "bar": 1, "isDrum": true}, {"time": 73, "velocity": 0, "pitch": 42, "instrument": 0, "track": 3, "qtime": 25, "bar": 1, "isDrum": true}, {"time": 73, "velocity": 0, "pitch": 70, "instrument": 0, "track": 3, "qtime": 25, "bar": 1, "isDrum": true}, {"time": 73, "velocity": 0, "pitch": 73, "instrument": 48, "track": 2, "qtime": 25, "bar": 1, "isDrum": false}, {"time": 75, "velocity": 84, "pitch": 42, "instrument": 0, "track": 3, "qtime": 27, "bar": 1, "isDrum": true}, {"time": 75, "velocity": 84, "pitch": 70, "instrument": 0, "track": 3, "qtime": 27, "bar": 1, "isDrum": true}, {"time": 76, "velocity": 0, "pitch": 42, "instrument": 0, "track": 3, "qtime": 28, "bar": 1, "isDrum": true}, {"time": 76, "velocity": 0, "pitch": 70, "instrument": 0, "track": 3, "qtime": 28, "bar": 1, "isDrum": true}, {"time": 78, "velocity": 0, "pitch": 68, "instrument": 26, "track": 5, "qtime": 30, "bar": 1, "isDrum": false}, {"time": 78, "velocity": 84, "pitch": 42, "instrument": 0, "track": 3, "qtime": 30, "bar": 1, "isDrum": true}, {"time": 78, "velocity": 108, "pitch": 64, "instrument": 26, "track": 5, "qtime": 30, "bar": 1, "isDrum": false}, {"time": 79, "velocity": 0, "pitch": 42, "instrument": 0, "track": 3, "qtime": 31, "bar": 1, "isDrum": true}, {"time": 81, "velocity": 84, "pitch": 42, "instrument": 0, "track": 3, "qtime": 33, "bar": 1, "isDrum": true}, {"time": 81, "velocity": 84, "pitch": 70, "instrument": 0, "track": 3, "qtime": 33, "bar": 1, "isDrum": true}, {"time": 82, "velocity": 0, "pitch": 42, "instrument": 0, "track": 3, "qtime": 34, "bar": 1, "isDrum": true}, {"time": 82, "velocity": 0, "pitch": 70, "instrument": 0, "track": 3, "qtime": 34, "bar": 1, "isDrum": true}, {"time": 84, "velocity": 84, "pitch": 37, "instrument": 0, "track": 3, "qtime": 36, "bar": 1, "isDrum": true}, {"time": 84, "velocity": 84, "pitch": 42, "instrument": 0, "track": 3, "qtime": 36, "bar": 1, "isDrum": true}, {"time": 84, "velocity": 84, "pitch": 70, "instrument": 0, "track": 3, "qtime": 36, "bar": 1, "isDrum": true}, {"time": 85, "velocity": 0, "pitch": 37, "instrument": 0, "track": 3, "qtime": 37, "bar": 1, "isDrum": true}, {"time": 85, "velocity": 0, "pitch": 42, "instrument": 0, "track": 3, "qtime": 37, "bar": 1, "isDrum": true}, {"time": 85, "velocity": 0, "pitch": 70, "instrument": 0, "track": 3, "qtime": 37, "bar": 1, "isDrum": true}, {"time": 86, "velocity": 0, "pitch": 64, "instrument": 26, "track": 5, "qtime": 38, "bar": 1, "isDrum": false}, {"time": 88, "velocity": 0, "pitch": 56, "instrument": 25, "track": 4, "qtime": 40, "bar": 1, "isDrum": false}, {"time": 88, "velocity": 0, "pitch": 64, "instrument": 25, "track": 4, "qtime": 40, "bar": 1, "isDrum": false}, {"time": 89, "velocity": 0, "pitch": 61, "instrument": 25, "track": 4, "qtime": 41, "bar": 1, "isDrum": false}, {"time": 90, "velocity": 84, "pitch": 46, "instrument": 0, "track": 3, "qtime": 42, "bar": 1, "isDrum": true}, {"time": 90, "velocity": 108, "pitch": 64, "instrument": 26, "track": 5, "qtime": 42, "bar": 1, "isDrum": false}, {"time": 90, "velocity": 84, "pitch": 70, "instrument": 0, "track": 3, "qtime": 42, "bar": 1, "isDrum": true}, {"time": 91, "velocity": 0, "pitch": 46, "instrument": 0, "track": 3, "qtime": 43, "bar": 1, "isDrum": true}, {"time": 91, "velocity": 0, "pitch": 70, "instrument": 0, "track": 3, "qtime": 43, "bar": 1, "isDrum": true}, {"time": 92, "velocity": 0, "pitch": 64, "instrument": 26, "track": 5, "qtime": 44, "bar": 1, "isDrum": false}, {"time": 93, "velocity": 108, "pitch": 64, "instrument": 26, "track": 5, "qtime": 45, "bar": 1, "isDrum": false}, {"time": 93, "velocity": 84, "pitch": 70, "instrument": 0, "track": 3, "qtime": 45, "bar": 1, "isDrum": true}, {"time": 94, "velocity": 0, "pitch": 70, "instrument": 0, "track": 3, "qtime": 46, "bar": 1, "isDrum": true}, {"time": 95, "velocity": 0, "pitch": 37, "instrument": 35, "track": 0, "qtime": 47, "bar": 1, "isDrum": false}, {"time": 95, "velocity": 84, "pitch": 57, "instrument": 48, "track": 2, "qtime": 47, "bar": 1, "isDrum": false}, {"time": 95, "velocity": 108, "pitch": 57, "instrument": 25, "track": 4, "qtime": 47, "bar": 1, "isDrum": false}, {"time": 95, "velocity": 84, "pitch": 66, "instrument": 48, "track": 2, "qtime": 47, "bar": 1, "isDrum": false}, {"time": 95, "velocity": 84, "pitch": 78, "instrument": 48, "track": 2, "qtime": 47, "bar": 1, "isDrum": false}, {"time": 95, "velocity": 84, "pitch": 81, "instrument": 48, "track": 2, "qtime": 47, "bar": 1, "isDrum": false}, {"time": 96, "velocity": 0, "pitch": 52, "instrument": 48, "track": 2, "qtime": 48, "bar": 1, "isDrum": false}, {"time": 96, "velocity": 0, "pitch": 56, "instrument": 89, "track": 1, "qtime": 48, "bar": 1, "isDrum": false}, {"time": 96, "velocity": 0, "pitch": 59, "instrument": 48, "track": 2, "qtime": 48, "bar": 1, "isDrum": false}, {"time": 96, "velocity": 0, "pitch": 61, "instrument": 89, "track": 1, "qtime": 48, "bar": 1, "isDrum": false}, {"time": 96, "velocity": 0, "pitch": 64, "instrument": 26, "track": 5, "qtime": 48, "bar": 1, "isDrum": false}, {"time": 96, "velocity": 0, "pitch": 68, "instrument": 48, "track": 2, "qtime": 48, "bar": 1, "isDrum": false}, {"time": 96, "velocity": 0, "pitch": 76, "instrument": 48, "track": 2, "qtime": 48, "bar": 1, "isDrum": false}, {"time": 96, "velocity": 0, "pitch": 80, "instrument": 48, "track": 2, "qtime": 48, "bar": 1, "isDrum": false}, {"time": 96, "velocity": 84, "pitch": 35, "instrument": 0, "track": 3, "qtime": 0, "bar": 2, "isDrum": true}, {"time": 96, "velocity": 108, "pitch": 38, "instrument": 35, "track": 0, "qtime": 0, "bar": 2, "isDrum": false}, {"time": 96, "velocity": 84, "pitch": 42, "instrument": 0, "track": 3, "qtime": 0, "bar": 2, "isDrum": true}, {"time": 96, "velocity": 84, "pitch": 50, "instrument": 48, "track": 2, "qtime": 0, "bar": 2, "isDrum": false}, {"time": 96, "velocity": 108, "pitch": 54, "instrument": 89, "track": 1, "qtime": 0, "bar": 2, "isDrum": false}, {"time": 96, "velocity": 108, "pitch": 57, "instrument": 89, "track": 1, "qtime": 0, "bar": 2, "isDrum": false}, {"time": 96, "velocity": 108, "pitch": 62, "instrument": 25, "track": 4, "qtime": 0, "bar": 2, "isDrum": false}, {"time": 96, "velocity": 108, "pitch": 66, "instrument": 25, "track": 4, "qtime": 0, "bar": 2, "isDrum": false}, {"time": 96, "velocity": 108, "pitch": 66, "instrument": 26, "track": 5, "qtime": 0, "bar": 2, "isDrum": false}, {"time": 96, "velocity": 84, "pitch": 70, "instrument": 0, "track": 3, "qtime": 0, "bar": 2, "isDrum": true}, {"time": 97, "velocity": 0, "pitch": 35, "instrument": 0, "track": 3, "qtime": 1, "bar": 2, "isDrum": true}, {"time": 97, "velocity": 0, "pitch": 42, "instrument": 0, "track": 3, "qtime": 1, "bar": 2, "isDrum": true}, {"time": 97, "velocity": 0, "pitch": 70, "instrument": 0, "track": 3, "qtime": 1, "bar": 2, "isDrum": true}, {"time": 99, "velocity": 84, "pitch": 70, "instrument": 0, "track": 3, "qtime": 3, "bar": 2, "isDrum": true}, {"time": 100, "velocity": 0, "pitch": 70, "instrument": 0, "track": 3, "qtime": 4, "bar": 2, "isDrum": true}, {"time": 102, "velocity": 0, "pitch": 66, "instrument": 26, "track": 5, "qtime": 6, "bar": 2, "isDrum": false}, {"time": 102, "velocity": 84, "pitch": 42, "instrument": 0, "track": 3, "qtime": 6, "bar": 2, "isDrum": true}, {"time": 102, "velocity": 108, "pitch": 64, "instrument": 26, "track": 5, "qtime": 6, "bar": 2, "isDrum": false}, {"time": 102, "velocity": 84, "pitch": 70, "instrument": 0, "track": 3, "qtime": 6, "bar": 2, "isDrum": true}, {"time": 103, "velocity": 0, "pitch": 42, "instrument": 0, "track": 3, "qtime": 7, "bar": 2, "isDrum": true}, {"time": 103, "velocity": 0, "pitch": 57, "instrument": 25, "track": 4, "qtime": 7, "bar": 2, "isDrum": false}, {"time": 103, "velocity": 0, "pitch": 62, "instrument": 25, "track": 4, "qtime": 7, "bar": 2, "isDrum": false}, {"time": 103, "velocity": 0, "pitch": 66, "instrument": 25, "track": 4, "qtime": 7, "bar": 2, "isDrum": false}, {"time": 103, "velocity": 0, "pitch": 70, "instrument": 0, "track": 3, "qtime": 7, "bar": 2, "isDrum": true}, {"time": 105, "velocity": 0, "pitch": 64, "instrument": 26, "track": 5, "qtime": 9, "bar": 2, "isDrum": false}, {"time": 105, "velocity": 84, "pitch": 42, "instrument": 0, "track": 3, "qtime": 9, "bar": 2, "isDrum": true}, {"time": 105, "velocity": 108, "pitch": 57, "instrument": 25, "track": 4, "qtime": 9, "bar": 2, "isDrum": false}, {"time": 105, "velocity": 108, "pitch": 62, "instrument": 25, "track": 4, "qtime": 9, "bar": 2, "isDrum": false}, {"time": 105, "velocity": 108, "pitch": 66, "instrument": 25, "track": 4, "qtime": 9, "bar": 2, "isDrum": false}, {"time": 105, "velocity": 108, "pitch": 66, "instrument": 26, "track": 5, "qtime": 9, "bar": 2, "isDrum": false}, {"time": 105, "velocity": 84, "pitch": 70, "instrument": 0, "track": 3, "qtime": 9, "bar": 2, "isDrum": true}, {"time": 106, "velocity": 0, "pitch": 42, "instrument": 0, "track": 3, "qtime": 10, "bar": 2, "isDrum": true}, {"time": 106, "velocity": 0, "pitch": 70, "instrument": 0, "track": 3, "qtime": 10, "bar": 2, "isDrum": true}, {"time": 108, "velocity": 84, "pitch": 37, "instrument": 0, "track": 3, "qtime": 12, "bar": 2, "isDrum": true}, {"time": 108, "velocity": 84, "pitch": 42, "instrument": 0, "track": 3, "qtime": 12, "bar": 2, "isDrum": true}, {"time": 108, "velocity": 84, "pitch": 70, "instrument": 0, "track": 3, "qtime": 12, "bar": 2, "isDrum": true}, {"time": 109, "velocity": 0, "pitch": 37, "instrument": 0, "track": 3, "qtime": 13, "bar": 2, "isDrum": true}, {"time": 109, "velocity": 0, "pitch": 42, "instrument": 0, "track": 3, "qtime": 13, "bar": 2, "isDrum": true}, {"time": 109, "velocity": 0, "pitch": 62, "instrument": 25, "track": 4, "qtime": 13, "bar": 2, "isDrum": false}, {"time": 109, "velocity": 0, "pitch": 66, "instrument": 26, "track": 5, "qtime": 13, "bar": 2, "isDrum": false}, {"time": 109, "velocity": 0, "pitch": 70, "instrument": 0, "track": 3, "qtime": 13, "bar": 2, "isDrum": true}, {"time": 111, "velocity": 84, "pitch": 42, "instrument": 0, "track": 3, "qtime": 15, "bar": 2, "isDrum": true}, {"time": 111, "velocity": 108, "pitch": 57, "instrument": 26, "track": 5, "qtime": 15, "bar": 2, "isDrum": false}, {"time": 111, "velocity": 84, "pitch": 70, "instrument": 0, "track": 3, "qtime": 15, "bar": 2, "isDrum": true}, {"time": 112, "velocity": 0, "pitch": 42, "instrument": 0, "track": 3, "qtime": 16, "bar": 2, "isDrum": true}, {"time": 112, "velocity": 0, "pitch": 70, "instrument": 0, "track": 3, "qtime": 16, "bar": 2, "isDrum": true}, {"time": 114, "velocity": 0, "pitch": 57, "instrument": 26, "track": 5, "qtime": 18, "bar": 2, "isDrum": false}, {"time": 114, "velocity": 0, "pitch": 66, "instrument": 25, "track": 4, "qtime": 18, "bar": 2, "isDrum": false}, {"time": 114, "velocity": 84, "pitch": 42, "instrument": 0, "track": 3, "qtime": 18, "bar": 2, "isDrum": true}, {"time": 114, "velocity": 108, "pitch": 59, "instrument": 26, "track": 5, "qtime": 18, "bar": 2, "isDrum": false}, {"time": 114, "velocity": 108, "pitch": 62, "instrument": 25, "track": 4, "qtime": 18, "bar": 2, "isDrum": false}, {"time": 114, "velocity": 84, "pitch": 70, "instrument": 0, "track": 3, "qtime": 18, "bar": 2, "isDrum": true}, {"time": 115, "velocity": 0, "pitch": 42, "instrument": 0, "track": 3, "qtime": 19, "bar": 2, "isDrum": true}, {"time": 115, "velocity": 0, "pitch": 57, "instrument": 25, "track": 4, "qtime": 19, "bar": 2, "isDrum": false}, {"time": 115, "velocity": 0, "pitch": 70, "instrument": 0, "track": 3, "qtime": 19, "bar": 2, "isDrum": true}, {"time": 116, "velocity": 0, "pitch": 38, "instrument": 35, "track": 0, "qtime": 20, "bar": 2, "isDrum": false}, {"time": 117, "velocity": 0, "pitch": 59, "instrument": 26, "track": 5, "qtime": 21, "bar": 2, "isDrum": false}, {"time": 117, "velocity": 108, "pitch": 37, "instrument": 35, "track": 0, "qtime": 21, "bar": 2, "isDrum": false}, {"time": 117, "velocity": 84, "pitch": 42, "instrument": 0, "track": 3, "qtime": 21, "bar": 2, "isDrum": true}, {"time": 117, "velocity": 108, "pitch": 61, "instrument": 26, "track": 5, "qtime": 21, "bar": 2, "isDrum": false}, {"time": 117, "velocity": 84, "pitch": 70, "instrument": 0, "track": 3, "qtime": 21, "bar": 2, "isDrum": true}, {"time": 118, "velocity": 0, "pitch": 37, "instrument": 35, "track": 0, "qtime": 22, "bar": 2, "isDrum": false}, {"time": 118, "velocity": 0, "pitch": 42, "instrument": 0, "track": 3, "qtime": 22, "bar": 2, "isDrum": true}, {"time": 118, "velocity": 0, "pitch": 62, "instrument": 25, "track": 4, "qtime": 22, "bar": 2, "isDrum": false}, {"time": 118, "velocity": 0, "pitch": 70, "instrument": 0, "track": 3, "qtime": 22, "bar": 2, "isDrum": true}, {"time": 119, "velocity": 108, "pitch": 52, "instrument": 89, "track": 1, "qtime": 23, "bar": 2, "isDrum": false}, {"time": 119, "velocity": 84, "pitch": 56, "instrument": 48, "track": 2, "qtime": 23, "bar": 2, "isDrum": false}, {"time": 119, "velocity": 84, "pitch": 64, "instrument": 48, "track": 2, "qtime": 23, "bar": 2, "isDrum": false}, {"time": 120, "velocity": 0, "pitch": 50, "instrument": 48, "track": 2, "qtime": 24, "bar": 2, "isDrum": false}, {"time": 120, "velocity": 0, "pitch": 54, "instrument": 89, "track": 1, "qtime": 24, "bar": 2, "isDrum": false}, {"time": 120, "velocity": 0, "pitch": 57, "instrument": 48, "track": 2, "qtime": 24, "bar": 2, "isDrum": false}, {"time": 120, "velocity": 108, "pitch": 37, "instrument": 35, "track": 0, "qtime": 24, "bar": 2, "isDrum": false}, {"time": 120, "velocity": 84, "pitch": 42, "instrument": 0, "track": 3, "qtime": 24, "bar": 2, "isDrum": true}, {"time": 120, "velocity": 84, "pitch": 49, "instrument": 48, "track": 2, "qtime": 24, "bar": 2, "isDrum": false}, {"time": 120, "velocity": 108, "pitch": 56, "instrument": 89, "track": 1, "qtime": 24, "bar": 2, "isDrum": false}, {"time": 120, "velocity": 108, "pitch": 56, "instrument": 25, "track": 4, "qtime": 24, "bar": 2, "isDrum": false}, {"time": 120, "velocity": 108, "pitch": 61, "instrument": 25, "track": 4, "qtime": 24, "bar": 2, "isDrum": false}, {"time": 120, "velocity": 108, "pitch": 64, "instrument": 25, "track": 4, "qtime": 24, "bar": 2, "isDrum": false}, {"time": 120, "velocity": 84, "pitch": 70, "instrument": 0, "track": 3, "qtime": 24, "bar": 2, "isDrum": true}, {"time": 120, "velocity": 84, "pitch": 76, "instrument": 48, "track": 2, "qtime": 24, "bar": 2, "isDrum": false}, {"time": 120, "velocity": 84, "pitch": 80, "instrument": 48, "track": 2, "qtime": 24, "bar": 2, "isDrum": false}, {"time": 121, "velocity": 0, "pitch": 42, "instrument": 0, "track": 3, "qtime": 25, "bar": 2, "isDrum": true}, {"time": 121, "velocity": 0, "pitch": 57, "instrument": 89, "track": 1, "qtime": 25, "bar": 2, "isDrum": false}, {"time": 121, "velocity": 0, "pitch": 66, "instrument": 48, "track": 2, "qtime": 25, "bar": 2, "isDrum": false}, {"time": 121, "velocity": 0, "pitch": 70, "instrument": 0, "track": 3, "qtime": 25, "bar": 2, "isDrum": true}, {"time": 121, "velocity": 0, "pitch": 78, "instrument": 48, "track": 2, "qtime": 25, "bar": 2, "isDrum": false}, {"time": 121, "velocity": 0, "pitch": 81, "instrument": 48, "track": 2, "qtime": 25, "bar": 2, "isDrum": false}, {"time": 123, "velocity": 84, "pitch": 42, "instrument": 0, "track": 3, "qtime": 27, "bar": 2, "isDrum": true}, {"time": 123, "velocity": 84, "pitch": 70, "instrument": 0, "track": 3, "qtime": 27, "bar": 2, "isDrum": true}, {"time": 124, "velocity": 0, "pitch": 42, "instrument": 0, "track": 3, "qtime": 28, "bar": 2, "isDrum": true}, {"time": 124, "velocity": 0, "pitch": 70, "instrument": 0, "track": 3, "qtime": 28, "bar": 2, "isDrum": true}, {"time": 126, "velocity": 0, "pitch": 61, "instrument": 26, "track": 5, "qtime": 30, "bar": 2, "isDrum": false}, {"time": 126, "velocity": 84, "pitch": 42, "instrument": 0, "track": 3, "qtime": 30, "bar": 2, "isDrum": true}, {"time": 126, "velocity": 108, "pitch": 64, "instrument": 26, "track": 5, "qtime": 30, "bar": 2, "isDrum": false}, {"time": 126, "velocity": 84, "pitch": 70, "instrument": 0, "track": 3, "qtime": 30, "bar": 2, "isDrum": true}, {"time": 127, "velocity": 0, "pitch": 42, "instrument": 0, "track": 3, "qtime": 31, "bar": 2, "isDrum": true}, {"time": 127, "velocity": 0, "pitch": 70, "instrument": 0, "track": 3, "qtime": 31, "bar": 2, "isDrum": true}, {"time": 129, "velocity": 84, "pitch": 42, "instrument": 0, "track": 3, "qtime": 33, "bar": 2, "isDrum": true}, {"time": 129, "velocity": 84, "pitch": 70, "instrument": 0, "track": 3, "qtime": 33, "bar": 2, "isDrum": true}, {"time": 130, "velocity": 0, "pitch": 42, "instrument": 0, "track": 3, "qtime": 34, "bar": 2, "isDrum": true}, {"time": 130, "velocity": 0, "pitch": 70, "instrument": 0, "track": 3, "qtime": 34, "bar": 2, "isDrum": true}, {"time": 132, "velocity": 84, "pitch": 37, "instrument": 0, "track": 3, "qtime": 36, "bar": 2, "isDrum": true}, {"time": 132, "velocity": 84, "pitch": 42, "instrument": 0, "track": 3, "qtime": 36, "bar": 2, "isDrum": true}, {"time": 132, "velocity": 84, "pitch": 70, "instrument": 0, "track": 3, "qtime": 36, "bar": 2, "isDrum": true}, {"time": 133, "velocity": 0, "pitch": 37, "instrument": 0, "track": 3, "qtime": 37, "bar": 2, "isDrum": true}, {"time": 133, "velocity": 0, "pitch": 42, "instrument": 0, "track": 3, "qtime": 37, "bar": 2, "isDrum": true}, {"time": 133, "velocity": 0, "pitch": 70, "instrument": 0, "track": 3, "qtime": 37, "bar": 2, "isDrum": true}, {"time": 135, "velocity": 84, "pitch": 42, "instrument": 0, "track": 3, "qtime": 39, "bar": 2, "isDrum": true}, {"time": 135, "velocity": 84, "pitch": 70, "instrument": 0, "track": 3, "qtime": 39, "bar": 2, "isDrum": true}, {"time": 136, "velocity": 0, "pitch": 42, "instrument": 0, "track": 3, "qtime": 40, "bar": 2, "isDrum": true}, {"time": 136, "velocity": 0, "pitch": 64, "instrument": 26, "track": 5, "qtime": 40, "bar": 2, "isDrum": false}, {"time": 136, "velocity": 0, "pitch": 70, "instrument": 0, "track": 3, "qtime": 40, "bar": 2, "isDrum": true}, {"time": 138, "velocity": 84, "pitch": 46, "instrument": 0, "track": 3, "qtime": 42, "bar": 2, "isDrum": true}, {"time": 138, "velocity": 108, "pitch": 59, "instrument": 26, "track": 5, "qtime": 42, "bar": 2, "isDrum": false}, {"time": 138, "velocity": 84, "pitch": 70, "instrument": 0, "track": 3, "qtime": 42, "bar": 2, "isDrum": true}, {"time": 139, "velocity": 0, "pitch": 46, "instrument": 0, "track": 3, "qtime": 43, "bar": 2, "isDrum": true}, {"time": 139, "velocity": 0, "pitch": 70, "instrument": 0, "track": 3, "qtime": 43, "bar": 2, "isDrum": true}, {"time": 141, "velocity": 0, "pitch": 56, "instrument": 25, "track": 4, "qtime": 45, "bar": 2, "isDrum": false}, {"time": 141, "velocity": 0, "pitch": 59, "instrument": 26, "track": 5, "qtime": 45, "bar": 2, "isDrum": false}, {"time": 141, "velocity": 0, "pitch": 61, "instrument": 25, "track": 4, "qtime": 45, "bar": 2, "isDrum": false}, {"time": 141, "velocity": 108, "pitch": 61, "instrument": 26, "track": 5, "qtime": 45, "bar": 2, "isDrum": false}, {"time": 141, "velocity": 84, "pitch": 70, "instrument": 0, "track": 3, "qtime": 45, "bar": 2, "isDrum": true}, {"time": 142, "velocity": 0, "pitch": 64, "instrument": 25, "track": 4, "qtime": 46, "bar": 2, "isDrum": false}, {"time": 142, "velocity": 0, "pitch": 70, "instrument": 0, "track": 3, "qtime": 46, "bar": 2, "isDrum": true}, {"time": 143, "velocity": 0, "pitch": 37, "instrument": 35, "track": 0, "qtime": 47, "bar": 2, "isDrum": false}, {"time": 143, "velocity": 0, "pitch": 52, "instrument": 89, "track": 1, "qtime": 47, "bar": 2, "isDrum": false}, {"time": 143, "velocity": 0, "pitch": 56, "instrument": 89, "track": 1, "qtime": 47, "bar": 2, "isDrum": false}, {"time": 143, "velocity": 0, "pitch": 56, "instrument": 48, "track": 2, "qtime": 47, "bar": 2, "isDrum": false}, {"time": 143, "velocity": 0, "pitch": 61, "instrument": 26, "track": 5, "qtime": 47, "bar": 2, "isDrum": false}, {"time": 143, "velocity": 0, "pitch": 80, "instrument": 48, "track": 2, "qtime": 47, "bar": 2, "isDrum": false}, {"time": 143, "velocity": 108, "pitch": 35, "instrument": 35, "track": 0, "qtime": 47, "bar": 2, "isDrum": false}, {"time": 143, "velocity": 108, "pitch": 50, "instrument": 89, "track": 1, "qtime": 47, "bar": 2, "isDrum": false}, {"time": 143, "velocity": 108, "pitch": 54, "instrument": 89, "track": 1, "qtime": 47, "bar": 2, "isDrum": false}, {"time": 143, "velocity": 84, "pitch": 54, "instrument": 48, "track": 2, "qtime": 47, "bar": 2, "isDrum": false}, {"time": 143, "velocity": 84, "pitch": 74, "instrument": 48, "track": 2, "qtime": 47, "bar": 2, "isDrum": false}, {"time": 143, "velocity": 84, "pitch": 78, "instrument": 48, "track": 2, "qtime": 47, "bar": 2, "isDrum": false}, {"time": 144, "velocity": 0, "pitch": 49, "instrument": 48, "track": 2, "qtime": 48, "bar": 2, "isDrum": false}, {"time": 144, "velocity": 0, "pitch": 64, "instrument": 48, "track": 2, "qtime": 48, "bar": 2, "isDrum": false}, {"time": 144, "velocity": 0, "pitch": 76, "instrument": 48, "track": 2, "qtime": 48, "bar": 2, "isDrum": false}, {"time": 144, "velocity": 84, "pitch": 35, "instrument": 0, "track": 3, "qtime": 0, "bar": 3, "isDrum": true}, {"time": 144, "velocity": 84, "pitch": 42, "instrument": 0, "track": 3, "qtime": 0, "bar": 3, "isDrum": true}, {"time": 144, "velocity": 84, "pitch": 47, "instrument": 48, "track": 2, "qtime": 0, "bar": 3, "isDrum": false}, {"time": 144, "velocity": 108, "pitch": 57, "instrument": 25, "track": 4, "qtime": 0, "bar": 3, "isDrum": false}, {"time": 144, "velocity": 108, "pitch": 61, "instrument": 26, "track": 5, "qtime": 0, "bar": 3, "isDrum": false}, {"time": 144, "velocity": 84, "pitch": 70, "instrument": 0, "track": 3, "qtime": 0, "bar": 3, "isDrum": true}, {"time": 145, "velocity": 0, "pitch": 35, "instrument": 0, "track": 3, "qtime": 1, "bar": 3, "isDrum": true}, {"time": 145, "velocity": 0, "pitch": 42, "instrument": 0, "track": 3, "qtime": 1, "bar": 3, "isDrum": true}, {"time": 145, "velocity": 0, "pitch": 70, "instrument": 0, "track": 3, "qtime": 1, "bar": 3, "isDrum": true}, {"time": 147, "velocity": 0, "pitch": 61, "instrument": 26, "track": 5, "qtime": 3, "bar": 3, "isDrum": false}, {"time": 147, "velocity": 84, "pitch": 42, "instrument": 0, "track": 3, "qtime": 3, "bar": 3, "isDrum": true}, {"time": 147, "velocity": 108, "pitch": 59, "instrument": 26, "track": 5, "qtime": 3, "bar": 3, "isDrum": false}, {"time": 147, "velocity": 84, "pitch": 70, "instrument": 0, "track": 3, "qtime": 3, "bar": 3, "isDrum": true}, {"time": 148, "velocity": 0, "pitch": 42, "instrument": 0, "track": 3, "qtime": 4, "bar": 3, "isDrum": true}, {"time": 148, "velocity": 0, "pitch": 70, "instrument": 0, "track": 3, "qtime": 4, "bar": 3, "isDrum": true}, {"time": 150, "velocity": 84, "pitch": 42, "instrument": 0, "track": 3, "qtime": 6, "bar": 3, "isDrum": true}, {"time": 150, "velocity": 84, "pitch": 70, "instrument": 0, "track": 3, "qtime": 6, "bar": 3, "isDrum": true}, {"time": 151, "velocity": 0, "pitch": 42, "instrument": 0, "track": 3, "qtime": 7, "bar": 3, "isDrum": true}, {"time": 151, "velocity": 0, "pitch": 59, "instrument": 26, "track": 5, "qtime": 7, "bar": 3, "isDrum": false}, {"time": 151, "velocity": 0, "pitch": 70, "instrument": 0, "track": 3, "qtime": 7, "bar": 3, "isDrum": true}, {"time": 153, "velocity": 84, "pitch": 42, "instrument": 0, "track": 3, "qtime": 9, "bar": 3, "isDrum": true}, {"time": 153, "velocity": 108, "pitch": 59, "instrument": 26, "track": 5, "qtime": 9, "bar": 3, "isDrum": false}, {"time": 153, "velocity": 84, "pitch": 70, "instrument": 0, "track": 3, "qtime": 9, "bar": 3, "isDrum": true}, {"time": 154, "velocity": 0, "pitch": 42, "instrument": 0, "track": 3, "qtime": 10, "bar": 3, "isDrum": true}, {"time": 154, "velocity": 0, "pitch": 70, "instrument": 0, "track": 3, "qtime": 10, "bar": 3, "isDrum": true}, {"time": 155, "velocity": 0, "pitch": 57, "instrument": 25, "track": 4, "qtime": 11, "bar": 3, "isDrum": false}, {"time": 156, "velocity": 84, "pitch": 37, "instrument": 0, "track": 3, "qtime": 12, "bar": 3, "isDrum": true}, {"time": 156, "velocity": 84, "pitch": 42, "instrument": 0, "track": 3, "qtime": 12, "bar": 3, "isDrum": true}, {"time": 156, "velocity": 84, "pitch": 70, "instrument": 0, "track": 3, "qtime": 12, "bar": 3, "isDrum": true}, {"time": 157, "velocity": 0, "pitch": 37, "instrument": 0, "track": 3, "qtime": 13, "bar": 3, "isDrum": true}, {"time": 157, "velocity": 0, "pitch": 42, "instrument": 0, "track": 3, "qtime": 13, "bar": 3, "isDrum": true}, {"time": 157, "velocity": 0, "pitch": 70, "instrument": 0, "track": 3, "qtime": 13, "bar": 3, "isDrum": true}, {"time": 159, "velocity": 84, "pitch": 42, "instrument": 0, "track": 3, "qtime": 15, "bar": 3, "isDrum": true}, {"time": 159, "velocity": 84, "pitch": 70, "instrument": 0, "track": 3, "qtime": 15, "bar": 3, "isDrum": true}, {"time": 160, "velocity": 0, "pitch": 42, "instrument": 0, "track": 3, "qtime": 16, "bar": 3, "isDrum": true}, {"time": 160, "velocity": 0, "pitch": 70, "instrument": 0, "track": 3, "qtime": 16, "bar": 3, "isDrum": true}, {"time": 161, "velocity": 0, "pitch": 59, "instrument": 26, "track": 5, "qtime": 17, "bar": 3, "isDrum": false}, {"time": 161, "velocity": 108, "pitch": 57, "instrument": 25, "track": 4, "qtime": 17, "bar": 3, "isDrum": false}, {"time": 162, "velocity": 84, "pitch": 42, "instrument": 0, "track": 3, "qtime": 18, "bar": 3, "isDrum": true}, {"time": 162, "velocity": 108, "pitch": 61, "instrument": 26, "track": 5, "qtime": 18, "bar": 3, "isDrum": false}, {"time": 162, "velocity": 84, "pitch": 70, "instrument": 0, "track": 3, "qtime": 18, "bar": 3, "isDrum": true}, {"time": 163, "velocity": 0, "pitch": 35, "instrument": 35, "track": 0, "qtime": 19, "bar": 3, "isDrum": false}, {"time": 163, "velocity": 0, "pitch": 42, "instrument": 0, "track": 3, "qtime": 19, "bar": 3, "isDrum": true}, {"time": 163, "velocity": 0, "pitch": 70, "instrument": 0, "track": 3, "qtime": 19, "bar": 3, "isDrum": true}, {"time": 165, "velocity": 108, "pitch": 35, "instrument": 35, "track": 0, "qtime": 21, "bar": 3, "isDrum": false}, {"time": 165, "velocity": 84, "pitch": 35, "instrument": 0, "track": 3, "qtime": 21, "bar": 3, "isDrum": true}, {"time": 165, "velocity": 84, "pitch": 42, "instrument": 0, "track": 3, "qtime": 21, "bar": 3, "isDrum": true}, {"time": 165, "velocity": 108, "pitch": 59, "instrument": 25, "track": 4, "qtime": 21, "bar": 3, "isDrum": false}, {"time": 165, "velocity": 84, "pitch": 70, "instrument": 0, "track": 3, "qtime": 21, "bar": 3, "isDrum": true}, {"time": 166, "velocity": 0, "pitch": 35, "instrument": 0, "track": 3, "qtime": 22, "bar": 3, "isDrum": true}, {"time": 166, "velocity": 0, "pitch": 42, "instrument": 0, "track": 3, "qtime": 22, "bar": 3, "isDrum": true}, {"time": 166, "velocity": 0, "pitch": 70, "instrument": 0, "track": 3, "qtime": 22, "bar": 3, "isDrum": true}, {"time": 168, "velocity": 0, "pitch": 35, "instrument": 35, "track": 0, "qtime": 24, "bar": 3, "isDrum": false}, {"time": 168, "velocity": 0, "pitch": 61, "instrument": 26, "track": 5, "qtime": 24, "bar": 3, "isDrum": false}, {"time": 168, "velocity": 84, "pitch": 35, "instrument": 0, "track": 3, "qtime": 24, "bar": 3, "isDrum": true}, {"time": 168, "velocity": 108, "pitch": 40, "instrument": 35, "track": 0, "qtime": 24, "bar": 3, "isDrum": false}, {"time": 168, "velocity": 84, "pitch": 42, "instrument": 0, "track": 3, "qtime": 24, "bar": 3, "isDrum": true}, {"time": 168, "velocity": 84, "pitch": 52, "instrument": 48, "track": 2, "qtime": 24, "bar": 3, "isDrum": false}, {"time": 168, "velocity": 84, "pitch": 59, "instrument": 48, "track": 2, "qtime": 24, "bar": 3, "isDrum": false}, {"time": 168, "velocity": 108, "pitch": 62, "instrument": 26, "track": 5, "qtime": 24, "bar": 3, "isDrum": false}, {"time": 168, "velocity": 84, "pitch": 70, "instrument": 0, "track": 3, "qtime": 24, "bar": 3, "isDrum": true}, {"time": 169, "velocity": 0, "pitch": 35, "instrument": 0, "track": 3, "qtime": 25, "bar": 3, "isDrum": true}, {"time": 169, "velocity": 0, "pitch": 42, "instrument": 0, "track": 3, "qtime": 25, "bar": 3, "isDrum": true}, {"time": 169, "velocity": 0, "pitch": 47, "instrument": 48, "track": 2, "qtime": 25, "bar": 3, "isDrum": false}, {"time": 169, "velocity": 0, "pitch": 54, "instrument": 48, "track": 2, "qtime": 25, "bar": 3, "isDrum": false}, {"time": 169, "velocity": 0, "pitch": 70, "instrument": 0, "track": 3, "qtime": 25, "bar": 3, "isDrum": true}, {"time": 171, "velocity": 84, "pitch": 42, "instrument": 0, "track": 3, "qtime": 27, "bar": 3, "isDrum": true}, {"time": 171, "velocity": 108, "pitch": 62, "instrument": 25, "track": 4, "qtime": 27, "bar": 3, "isDrum": false}, {"time": 171, "velocity": 84, "pitch": 70, "instrument": 0, "track": 3, "qtime": 27, "bar": 3, "isDrum": true}, {"time": 172, "velocity": 0, "pitch": 42, "instrument": 0, "track": 3, "qtime": 28, "bar": 3, "isDrum": true}, {"time": 172, "velocity": 0, "pitch": 70, "instrument": 0, "track": 3, "qtime": 28, "bar": 3, "isDrum": true}, {"time": 174, "velocity": 84, "pitch": 42, "instrument": 0, "track": 3, "qtime": 30, "bar": 3, "isDrum": true}, {"time": 174, "velocity": 84, "pitch": 70, "instrument": 0, "track": 3, "qtime": 30, "bar": 3, "isDrum": true}, {"time": 175, "velocity": 0, "pitch": 42, "instrument": 0, "track": 3, "qtime": 31, "bar": 3, "isDrum": true}, {"time": 175, "velocity": 0, "pitch": 70, "instrument": 0, "track": 3, "qtime": 31, "bar": 3, "isDrum": true}, {"time": 176, "velocity": 0, "pitch": 62, "instrument": 26, "track": 5, "qtime": 32, "bar": 3, "isDrum": false}, {"time": 177, "velocity": 84, "pitch": 42, "instrument": 0, "track": 3, "qtime": 33, "bar": 3, "isDrum": true}, {"time": 177, "velocity": 108, "pitch": 61, "instrument": 26, "track": 5, "qtime": 33, "bar": 3, "isDrum": false}, {"time": 177, "velocity": 84, "pitch": 70, "instrument": 0, "track": 3, "qtime": 33, "bar": 3, "isDrum": true}, {"time": 178, "velocity": 0, "pitch": 42, "instrument": 0, "track": 3, "qtime": 34, "bar": 3, "isDrum": true}, {"time": 178, "velocity": 0, "pitch": 70, "instrument": 0, "track": 3, "qtime": 34, "bar": 3, "isDrum": true}, {"time": 180, "velocity": 84, "pitch": 37, "instrument": 0, "track": 3, "qtime": 36, "bar": 3, "isDrum": true}, {"time": 180, "velocity": 84, "pitch": 42, "instrument": 0, "track": 3, "qtime": 36, "bar": 3, "isDrum": true}, {"time": 180, "velocity": 84, "pitch": 70, "instrument": 0, "track": 3, "qtime": 36, "bar": 3, "isDrum": true}, {"time": 181, "velocity": 0, "pitch": 37, "instrument": 0, "track": 3, "qtime": 37, "bar": 3, "isDrum": true}, {"time": 181, "velocity": 0, "pitch": 42, "instrument": 0, "track": 3, "qtime": 37, "bar": 3, "isDrum": true}, {"time": 181, "velocity": 0, "pitch": 70, "instrument": 0, "track": 3, "qtime": 37, "bar": 3, "isDrum": true}, {"time": 183, "velocity": 84, "pitch": 42, "instrument": 0, "track": 3, "qtime": 39, "bar": 3, "isDrum": true}, {"time": 183, "velocity": 84, "pitch": 70, "instrument": 0, "track": 3, "qtime": 39, "bar": 3, "isDrum": true}, {"time": 184, "velocity": 0, "pitch": 42, "instrument": 0, "track": 3, "qtime": 40, "bar": 3, "isDrum": true}, {"time": 184, "velocity": 0, "pitch": 70, "instrument": 0, "track": 3, "qtime": 40, "bar": 3, "isDrum": true}, {"time": 185, "velocity": 0, "pitch": 54, "instrument": 89, "track": 1, "qtime": 41, "bar": 3, "isDrum": false}, {"time": 186, "velocity": 0, "pitch": 61, "instrument": 26, "track": 5, "qtime": 42, "bar": 3, "isDrum": false}, {"time": 186, "velocity": 84, "pitch": 35, "instrument": 0, "track": 3, "qtime": 42, "bar": 3, "isDrum": true}, {"time": 186, "velocity": 84, "pitch": 46, "instrument": 0, "track": 3, "qtime": 42, "bar": 3, "isDrum": true}, {"time": 186, "velocity": 108, "pitch": 59, "instrument": 26, "track": 5, "qtime": 42, "bar": 3, "isDrum": false}, {"time": 186, "velocity": 84, "pitch": 70, "instrument": 0, "track": 3, "qtime": 42, "bar": 3, "isDrum": true}, {"time": 187, "velocity": 0, "pitch": 35, "instrument": 0, "track": 3, "qtime": 43, "bar": 3, "isDrum": true}, {"time": 187, "velocity": 0, "pitch": 46, "instrument": 0, "track": 3, "qtime": 43, "bar": 3, "isDrum": true}, {"time": 187, "velocity": 0, "pitch": 70, "instrument": 0, "track": 3, "qtime": 43, "bar": 3, "isDrum": true}, {"time": 189, "velocity": 0, "pitch": 59, "instrument": 25, "track": 4, "qtime": 45, "bar": 3, "isDrum": false}, {"time": 189, "velocity": 0, "pitch": 59, "instrument": 26, "track": 5, "qtime": 45, "bar": 3, "isDrum": false}, {"time": 189, "velocity": 108, "pitch": 57, "instrument": 26, "track": 5, "qtime": 45, "bar": 3, "isDrum": false}, {"time": 189, "velocity": 84, "pitch": 70, "instrument": 0, "track": 3, "qtime": 45, "bar": 3, "isDrum": true}, {"time": 190, "velocity": 0, "pitch": 50, "instrument": 89, "track": 1, "qtime": 46, "bar": 3, "isDrum": false}, {"time": 190, "velocity": 0, "pitch": 62, "instrument": 25, "track": 4, "qtime": 46, "bar": 3, "isDrum": false}, {"time": 190, "velocity": 0, "pitch": 70, "instrument": 0, "track": 3, "qtime": 46, "bar": 3, "isDrum": true}, {"time": 192, "velocity": 0, "pitch": 40, "instrument": 35, "track": 0, "qtime": 48, "bar": 3, "isDrum": false}, {"time": 192, "velocity": 0, "pitch": 52, "instrument": 48, "track": 2, "qtime": 48, "bar": 3, "isDrum": false}, {"time": 192, "velocity": 0, "pitch": 57, "instrument": 25, "track": 4, "qtime": 48, "bar": 3, "isDrum": false}, {"time": 192, "velocity": 0, "pitch": 57, "instrument": 26, "track": 5, "qtime": 48, "bar": 3, "isDrum": false}, {"time": 192, "velocity": 0, "pitch": 59, "instrument": 48, "track": 2, "qtime": 48, "bar": 3, "isDrum": false}, {"time": 192, "velocity": 0, "pitch": 74, "instrument": 48, "track": 2, "qtime": 48, "bar": 3, "isDrum": false}, {"time": 192, "velocity": 0, "pitch": 78, "instrument": 48, "track": 2, "qtime": 48, "bar": 3, "isDrum": false}], "resolution": 12, "tempo": 78, "minPitch": 28, "maxPitch": 81, "validSegments": [0, 1], "validTracks": [63, 61], "segmentLength": 4}, "audio": "https://www.sfu.ca/~jeffe/examples/stem_calm.mp3"}, {"src": "gen/stem_calm_drums.json", "highlights": [[], [], [], [0, 1, 2, 3], [], [], []], "caption": "Resample the drum track in 17a.", "sample_id": "17b", "mixer": [8, 8, 6, 6, 8, 8], "tempo": 78, "json": {"tracks": [{"bars": [{"events": [0, 1, 2, 3, 4, 5, 6, 7, 8, 9], "isFourFour": true, "hasNotes": true, "time": 0}, {"events": [10, 11, 12, 13, 14, 15, 16, 17], "isFourFour": true, "hasNotes": true, "time": 48}, {"events": [18, 19, 20, 21, 22, 23, 24], "isFourFour": true, "hasNotes": true, "time": 96}, {"events": [25, 26, 27, 28, 29], "isFourFour": true, "hasNotes": true, "time": 144}], "isDrum": false, "minPitch": 28, "maxPitch": 40, "instrument": 35, "avPolyphony": 1, "noteDensity": 4, "noteDensityV2": 3}, {"bars": [{"events": [30, 31, 32], "isFourFour": true, "hasNotes": true, "time": 0}, {"events": [33, 34, 35, 36, 37], "isFourFour": true, "hasNotes": true, "time": 48}, {"events": [38, 39, 40, 41, 42, 43, 44, 45, 46, 47], "isFourFour": true, "hasNotes": true, "time": 96}, {"events": [48, 49], "isFourFour": true, "hasNotes": true, "time": 144}], "isDrum": false, "minPitch": 50, "maxPitch": 61, "instrument": 89, "avPolyphony": 1.98064518, "noteDensity": 1, "noteDensityV2": 3}, {"bars": [{"events": [50, 51, 52, 53, 54, 55, 56, 57, 58, 59], "isFourFour": true, "hasNotes": true, "time": 0}, {"events": [60, 61, 62, 63, 64, 65, 66, 67, 68, 69, 70, 71, 72, 73, 74, 75, 76, 77, 78, 79, 80, 81, 82, 83], "isFourFour": true, "hasNotes": true, "time": 48}, {"events": [84, 85, 86, 87, 88, 89, 90, 91, 92, 93, 94, 95, 96, 97, 98, 99, 100, 101, 102], "isFourFour": true, "hasNotes": true, "time": 96}, {"events": [103, 104, 105, 106, 107, 108, 109, 110, 111], "isFourFour": true, "hasNotes": true, "time": 144}], "isDrum": false, "minPitch": 47, "maxPitch": 81, "instrument": 48, "avPolyphony": 4.14583349, "noteDensity": 8, "noteDensityV2": 7}, {"bars": [{"events": [228, 229, 230, 231, 232, 233, 234, 235, 236, 237, 238, 239, 240, 241, 242, 243, 244, 245, 246, 247, 248, 249, 250, 251, 252, 253, 254, 255, 256, 257, 258, 259, 260, 261, 262, 263, 264, 265, 266, 267, 268, 269, 270, 271, 272, 273, 274, 275, 276, 277, 278, 279, 280, 281, 282, 283, 284, 285, 286, 287, 288, 289, 290, 291, 292, 293], "isFourFour": true, "hasNotes": true, "time": 0}, {"events": [294, 295, 296, 297, 298, 299, 300, 301, 302, 303, 304, 305, 306, 307, 308, 309, 310, 311, 312, 313, 314, 315, 316, 317, 318, 319, 320, 321, 322, 323, 324, 325, 326, 327, 328, 329, 330, 331, 332, 333, 334, 335, 336, 337, 338, 339, 340, 341, 342, 343, 344, 345, 346, 347, 348, 349, 350, 351, 352, 353, 354, 355, 356, 357], "isFourFour": true, "hasNotes": true, "time": 48}, {"events": [358, 359, 360, 361, 362, 363, 364, 365, 366, 367, 368, 369, 370, 371, 372, 373, 374, 375, 376, 377, 378, 379, 380, 381, 382, 383, 384, 385, 386, 387, 388, 389, 390, 391, 392, 393, 394, 395, 396, 397, 398, 399, 400, 401, 402, 403, 404, 405, 406, 407, 408, 409, 410, 411, 412, 413, 414, 415, 416, 417, 418, 419, 420, 421], "isFourFour": true, "hasNotes": true, "time": 96}, {"events": [422, 423, 424, 425, 426, 427, 428, 429, 430, 431, 432, 433, 434, 435, 436, 437, 438, 439, 440, 441, 442, 443, 444, 445, 446, 447, 448, 449, 450, 451, 452, 453, 454, 455, 456, 457, 458, 459, 460, 461, 462, 463, 464, 465, 466, 467, 468, 469, 470, 471, 472, 473, 474, 475, 476, 477, 478, 479, 480, 481, 482, 483], "isFourFour": true, "hasNotes": true, "time": 144}], "isDrum": true, "minPitch": 35, "maxPitch": 69, "instrument": 0, "avPolyphony": 2, "noteDensity": 9, "noteDensityV2": 9}, {"bars": [{"events": [112, 113, 114, 115, 116, 117, 118, 119, 120, 121], "isFourFour": true, "hasNotes": true, "time": 0}, {"events": [122, 123, 124, 125, 126, 127, 128, 129, 130, 131, 132, 133, 134, 135, 136, 137, 138, 139, 140, 141, 142], "isFourFour": true, "hasNotes": true, "time": 48}, {"events": [143, 144, 145, 146, 147, 148, 149, 150, 151, 152, 153, 154, 155, 156, 157, 158, 159, 160, 161], "isFourFour": true, "hasNotes": true, "time": 96}, {"events": [162, 163, 164, 165, 166, 167, 168, 169], "isFourFour": true, "hasNotes": true, "time": 144}], "isDrum": false, "minPitch": 56, "maxPitch": 66, "instrument": 25, "avPolyphony": 2.25308633, "noteDensity": 8, "noteDensityV2": 2}, {"bars": [{"events": [170, 171, 172, 173, 174, 175, 176, 177, 178, 179, 180, 181], "isFourFour": true, "hasNotes": true, "time": 0}, {"events": [182, 183, 184, 185, 186, 187, 188, 189, 190, 191, 192, 193], "isFourFour": true, "hasNotes": true, "time": 48}, {"events": [194, 195, 196, 197, 198, 199, 200, 201, 202, 203, 204, 205, 206, 207, 208, 209, 210, 211], "isFourFour": true, "hasNotes": true, "time": 96}, {"events": [212, 213, 214, 215, 216, 217, 218, 219, 220, 221, 222, 223, 224, 225, 226, 227], "isFourFour": true, "hasNotes": true, "time": 144}], "isDrum": false, "minPitch": 57, "maxPitch": 69, "instrument": 26, "avPolyphony": 1, "noteDensity": 8, "noteDensityV2": 6}], "events": [{"time": 0, "velocity": 108, "pitch": 33, "instrument": 35, "track": 0, "qtime": 0, "isDrum": false}, {"time": 20, "velocity": 0, "pitch": 33, "instrument": 35, "track": 0, "qtime": 20, "isDrum": false}, {"time": 20, "velocity": 108, "pitch": 28, "instrument": 35, "track": 0, "qtime": 20, "isDrum": false}, {"time": 23, "velocity": 0, "pitch": 28, "instrument": 35, "track": 0, "qtime": 23, "isDrum": false}, {"time": 23, "velocity": 108, "pitch": 33, "instrument": 35, "track": 0, "qtime": 23, "isDrum": false}, {"time": 33, "velocity": 0, "pitch": 33, "instrument": 35, "track": 0, "qtime": 33, "isDrum": false}, {"time": 33, "velocity": 108, "pitch": 28, "instrument": 35, "track": 0, "qtime": 33, "isDrum": false}, {"time": 35, "velocity": 0, "pitch": 28, "instrument": 35, "track": 0, "qtime": 35, "isDrum": false}, {"time": 36, "velocity": 108, "pitch": 32, "instrument": 35, "track": 0, "qtime": 36, "isDrum": false}, {"time": 48, "velocity": 0, "pitch": 32, "instrument": 35, "track": 0, "qtime": 48, "isDrum": false}, {"time": 48, "velocity": 108, "pitch": 30, "instrument": 35, "track": 0, "qtime": 0, "isDrum": false}, {"time": 65, "velocity": 0, "pitch": 30, "instrument": 35, "track": 0, "qtime": 17, "isDrum": false}, {"time": 65, "velocity": 108, "pitch": 33, "instrument": 35, "track": 0, "qtime": 17, "isDrum": false}, {"time": 69, "velocity": 0, "pitch": 33, "instrument": 35, "track": 0, "qtime": 21, "isDrum": false}, {"time": 69, "velocity": 108, "pitch": 35, "instrument": 35, "track": 0, "qtime": 21, "isDrum": false}, {"time": 72, "velocity": 0, "pitch": 35, "instrument": 35, "track": 0, "qtime": 24, "isDrum": false}, {"time": 72, "velocity": 108, "pitch": 37, "instrument": 35, "track": 0, "qtime": 24, "isDrum": false}, {"time": 95, "velocity": 0, "pitch": 37, "instrument": 35, "track": 0, "qtime": 47, "isDrum": false}, {"time": 96, "velocity": 108, "pitch": 38, "instrument": 35, "track": 0, "qtime": 0, "isDrum": false}, {"time": 116, "velocity": 0, "pitch": 38, "instrument": 35, "track": 0, "qtime": 20, "isDrum": false}, {"time": 117, "velocity": 108, "pitch": 37, "instrument": 35, "track": 0, "qtime": 21, "isDrum": false}, {"time": 118, "velocity": 0, "pitch": 37, "instrument": 35, "track": 0, "qtime": 22, "isDrum": false}, {"time": 120, "velocity": 108, "pitch": 37, "instrument": 35, "track": 0, "qtime": 24, "isDrum": false}, {"time": 143, "velocity": 0, "pitch": 37, "instrument": 35, "track": 0, "qtime": 47, "isDrum": false}, {"time": 143, "velocity": 108, "pitch": 35, "instrument": 35, "track": 0, "qtime": 47, "isDrum": false}, {"time": 163, "velocity": 0, "pitch": 35, "instrument": 35, "track": 0, "qtime": 19, "isDrum": false}, {"time": 165, "velocity": 108, "pitch": 35, "instrument": 35, "track": 0, "qtime": 21, "isDrum": false}, {"time": 168, "velocity": 0, "pitch": 35, "instrument": 35, "track": 0, "qtime": 24, "isDrum": false}, {"time": 168, "velocity": 108, "pitch": 40, "instrument": 35, "track": 0, "qtime": 24, "isDrum": false}, {"time": 192, "velocity": 0, "pitch": 40, "instrument": 35, "track": 0, "qtime": 48, "isDrum": false}, {"time": 35, "velocity": 108, "pitch": 56, "instrument": 89, "track": 1, "qtime": 35, "isDrum": false}, {"time": 35, "velocity": 108, "pitch": 61, "instrument": 89, "track": 1, "qtime": 35, "isDrum": false}, {"time": 48, "velocity": 0, "pitch": 56, "instrument": 89, "track": 1, "qtime": 48, "isDrum": false}, {"time": 48, "velocity": 108, "pitch": 57, "instrument": 89, "track": 1, "qtime": 0, "isDrum": false}, {"time": 72, "velocity": 0, "pitch": 57, "instrument": 89, "track": 1, "qtime": 24, "isDrum": false}, {"time": 72, "velocity": 108, "pitch": 56, "instrument": 89, "track": 1, "qtime": 24, "isDrum": false}, {"time": 96, "velocity": 0, "pitch": 56, "instrument": 89, "track": 1, "qtime": 48, "isDrum": false}, {"time": 96, "velocity": 0, "pitch": 61, "instrument": 89, "track": 1, "qtime": 48, "isDrum": false}, {"time": 96, "velocity": 108, "pitch": 54, "instrument": 89, "track": 1, "qtime": 0, "isDrum": false}, {"time": 96, "velocity": 108, "pitch": 57, "instrument": 89, "track": 1, "qtime": 0, "isDrum": false}, {"time": 119, "velocity": 108, "pitch": 52, "instrument": 89, "track": 1, "qtime": 23, "isDrum": false}, {"time": 120, "velocity": 0, "pitch": 54, "instrument": 89, "track": 1, "qtime": 24, "isDrum": false}, {"time": 120, "velocity": 108, "pitch": 56, "instrument": 89, "track": 1, "qtime": 24, "isDrum": false}, {"time": 121, "velocity": 0, "pitch": 57, "instrument": 89, "track": 1, "qtime": 25, "isDrum": false}, {"time": 143, "velocity": 0, "pitch": 52, "instrument": 89, "track": 1, "qtime": 47, "isDrum": false}, {"time": 143, "velocity": 0, "pitch": 56, "instrument": 89, "track": 1, "qtime": 47, "isDrum": false}, {"time": 143, "velocity": 108, "pitch": 50, "instrument": 89, "track": 1, "qtime": 47, "isDrum": false}, {"time": 143, "velocity": 108, "pitch": 54, "instrument": 89, "track": 1, "qtime": 47, "isDrum": false}, {"time": 185, "velocity": 0, "pitch": 54, "instrument": 89, "track": 1, "qtime": 41, "isDrum": false}, {"time": 190, "velocity": 0, "pitch": 50, "instrument": 89, "track": 1, "qtime": 46, "isDrum": false}, {"time": 0, "velocity": 84, "pitch": 57, "instrument": 48, "track": 2, "qtime": 0, "isDrum": false}, {"time": 0, "velocity": 84, "pitch": 61, "instrument": 48, "track": 2, "qtime": 0, "isDrum": false}, {"time": 23, "velocity": 0, "pitch": 57, "instrument": 48, "track": 2, "qtime": 23, "isDrum": false}, {"time": 24, "velocity": 84, "pitch": 57, "instrument": 48, "track": 2, "qtime": 24, "isDrum": false}, {"time": 36, "velocity": 0, "pitch": 61, "instrument": 48, "track": 2, "qtime": 36, "isDrum": false}, {"time": 36, "velocity": 84, "pitch": 56, "instrument": 48, "track": 2, "qtime": 36, "isDrum": false}, {"time": 36, "velocity": 84, "pitch": 61, "instrument": 48, "track": 2, "qtime": 36, "isDrum": false}, {"time": 36, "velocity": 84, "pitch": 64, "instrument": 48, "track": 2, "qtime": 36, "isDrum": false}, {"time": 38, "velocity": 0, "pitch": 57, "instrument": 48, "track": 2, "qtime": 38, "isDrum": false}, {"time": 48, "velocity": 0, "pitch": 56, "instrument": 48, "track": 2, "qtime": 48, "isDrum": false}, {"time": 48, "velocity": 84, "pitch": 54, "instrument": 48, "track": 2, "qtime": 0, "isDrum": false}, {"time": 48, "velocity": 84, "pitch": 69, "instrument": 48, "track": 2, "qtime": 0, "isDrum": false}, {"time": 48, "velocity": 84, "pitch": 73, "instrument": 48, "track": 2, "qtime": 0, "isDrum": false}, {"time": 48, "velocity": 84, "pitch": 78, "instrument": 48, "track": 2, "qtime": 0, "isDrum": false}, {"time": 49, "velocity": 0, "pitch": 64, "instrument": 48, "track": 2, "qtime": 1, "isDrum": false}, {"time": 71, "velocity": 84, "pitch": 80, "instrument": 48, "track": 2, "qtime": 23, "isDrum": false}, {"time": 72, "velocity": 0, "pitch": 54, "instrument": 48, "track": 2, "qtime": 24, "isDrum": false}, {"time": 72, "velocity": 0, "pitch": 61, "instrument": 48, "track": 2, "qtime": 24, "isDrum": false}, {"time": 72, "velocity": 0, "pitch": 69, "instrument": 48, "track": 2, "qtime": 24, "isDrum": false}, {"time": 72, "velocity": 0, "pitch": 78, "instrument": 48, "track": 2, "qtime": 24, "isDrum": false}, {"time": 72, "velocity": 84, "pitch": 52, "instrument": 48, "track": 2, "qtime": 24, "isDrum": false}, {"time": 72, "velocity": 84, "pitch": 59, "instrument": 48, "track": 2, "qtime": 24, "isDrum": false}, {"time": 72, "velocity": 84, "pitch": 68, "instrument": 48, "track": 2, "qtime": 24, "isDrum": false}, {"time": 72, "velocity": 84, "pitch": 76, "instrument": 48, "track": 2, "qtime": 24, "isDrum": false}, {"time": 73, "velocity": 0, "pitch": 73, "instrument": 48, "track": 2, "qtime": 25, "isDrum": false}, {"time": 95, "velocity": 84, "pitch": 57, "instrument": 48, "track": 2, "qtime": 47, "isDrum": false}, {"time": 95, "velocity": 84, "pitch": 66, "instrument": 48, "track": 2, "qtime": 47, "isDrum": false}, {"time": 95, "velocity": 84, "pitch": 78, "instrument": 48, "track": 2, "qtime": 47, "isDrum": false}, {"time": 95, "velocity": 84, "pitch": 81, "instrument": 48, "track": 2, "qtime": 47, "isDrum": false}, {"time": 96, "velocity": 0, "pitch": 52, "instrument": 48, "track": 2, "qtime": 48, "isDrum": false}, {"time": 96, "velocity": 0, "pitch": 59, "instrument": 48, "track": 2, "qtime": 48, "isDrum": false}, {"time": 96, "velocity": 0, "pitch": 68, "instrument": 48, "track": 2, "qtime": 48, "isDrum": false}, {"time": 96, "velocity": 0, "pitch": 76, "instrument": 48, "track": 2, "qtime": 48, "isDrum": false}, {"time": 96, "velocity": 0, "pitch": 80, "instrument": 48, "track": 2, "qtime": 48, "isDrum": false}, {"time": 96, "velocity": 84, "pitch": 50, "instrument": 48, "track": 2, "qtime": 0, "isDrum": false}, {"time": 119, "velocity": 84, "pitch": 56, "instrument": 48, "track": 2, "qtime": 23, "isDrum": false}, {"time": 119, "velocity": 84, "pitch": 64, "instrument": 48, "track": 2, "qtime": 23, "isDrum": false}, {"time": 120, "velocity": 0, "pitch": 50, "instrument": 48, "track": 2, "qtime": 24, "isDrum": false}, {"time": 120, "velocity": 0, "pitch": 57, "instrument": 48, "track": 2, "qtime": 24, "isDrum": false}, {"time": 120, "velocity": 84, "pitch": 49, "instrument": 48, "track": 2, "qtime": 24, "isDrum": false}, {"time": 120, "velocity": 84, "pitch": 76, "instrument": 48, "track": 2, "qtime": 24, "isDrum": false}, {"time": 120, "velocity": 84, "pitch": 80, "instrument": 48, "track": 2, "qtime": 24, "isDrum": false}, {"time": 121, "velocity": 0, "pitch": 66, "instrument": 48, "track": 2, "qtime": 25, "isDrum": false}, {"time": 121, "velocity": 0, "pitch": 78, "instrument": 48, "track": 2, "qtime": 25, "isDrum": false}, {"time": 121, "velocity": 0, "pitch": 81, "instrument": 48, "track": 2, "qtime": 25, "isDrum": false}, {"time": 143, "velocity": 0, "pitch": 56, "instrument": 48, "track": 2, "qtime": 47, "isDrum": false}, {"time": 143, "velocity": 0, "pitch": 80, "instrument": 48, "track": 2, "qtime": 47, "isDrum": false}, {"time": 143, "velocity": 84, "pitch": 54, "instrument": 48, "track": 2, "qtime": 47, "isDrum": false}, {"time": 143, "velocity": 84, "pitch": 74, "instrument": 48, "track": 2, "qtime": 47, "isDrum": false}, {"time": 143, "velocity": 84, "pitch": 78, "instrument": 48, "track": 2, "qtime": 47, "isDrum": false}, {"time": 144, "velocity": 0, "pitch": 49, "instrument": 48, "track": 2, "qtime": 48, "isDrum": false}, {"time": 144, "velocity": 0, "pitch": 64, "instrument": 48, "track": 2, "qtime": 48, "isDrum": false}, {"time": 144, "velocity": 0, "pitch": 76, "instrument": 48, "track": 2, "qtime": 48, "isDrum": false}, {"time": 144, "velocity": 84, "pitch": 47, "instrument": 48, "track": 2, "qtime": 0, "isDrum": false}, {"time": 168, "velocity": 84, "pitch": 52, "instrument": 48, "track": 2, "qtime": 24, "isDrum": false}, {"time": 168, "velocity": 84, "pitch": 59, "instrument": 48, "track": 2, "qtime": 24, "isDrum": false}, {"time": 169, "velocity": 0, "pitch": 47, "instrument": 48, "track": 2, "qtime": 25, "isDrum": false}, {"time": 169, "velocity": 0, "pitch": 54, "instrument": 48, "track": 2, "qtime": 25, "isDrum": false}, {"time": 192, "velocity": 0, "pitch": 52, "instrument": 48, "track": 2, "qtime": 48, "isDrum": false}, {"time": 192, "velocity": 0, "pitch": 59, "instrument": 48, "track": 2, "qtime": 48, "isDrum": false}, {"time": 192, "velocity": 0, "pitch": 74, "instrument": 48, "track": 2, "qtime": 48, "isDrum": false}, {"time": 192, "velocity": 0, "pitch": 78, "instrument": 48, "track": 2, "qtime": 48, "isDrum": false}, {"time": 0, "velocity": 108, "pitch": 61, "instrument": 25, "track": 3, "qtime": 0, "isDrum": false}, {"time": 0, "velocity": 108, "pitch": 64, "instrument": 25, "track": 3, "qtime": 0, "isDrum": false}, {"time": 18, "velocity": 0, "pitch": 61, "instrument": 25, "track": 3, "qtime": 18, "isDrum": false}, {"time": 18, "velocity": 108, "pitch": 57, "instrument": 25, "track": 3, "qtime": 18, "isDrum": false}, {"time": 19, "velocity": 0, "pitch": 64, "instrument": 25, "track": 3, "qtime": 19, "isDrum": false}, {"time": 24, "velocity": 108, "pitch": 64, "instrument": 25, "track": 3, "qtime": 24, "isDrum": false}, {"time": 35, "velocity": 0, "pitch": 57, "instrument": 25, "track": 3, "qtime": 35, "isDrum": false}, {"time": 36, "velocity": 0, "pitch": 64, "instrument": 25, "track": 3, "qtime": 36, "isDrum": false}, {"time": 36, "velocity": 108, "pitch": 61, "instrument": 25, "track": 3, "qtime": 36, "isDrum": false}, {"time": 40, "velocity": 0, "pitch": 61, "instrument": 25, "track": 3, "qtime": 40, "isDrum": false}, {"time": 49, "velocity": 108, "pitch": 57, "instrument": 25, "track": 3, "qtime": 1, "isDrum": false}, {"time": 49, "velocity": 108, "pitch": 61, "instrument": 25, "track": 3, "qtime": 1, "isDrum": false}, {"time": 49, "velocity": 108, "pitch": 66, "instrument": 25, "track": 3, "qtime": 1, "isDrum": false}, {"time": 55, "velocity": 0, "pitch": 61, "instrument": 25, "track": 3, "qtime": 7, "isDrum": false}, {"time": 56, "velocity": 0, "pitch": 66, "instrument": 25, "track": 3, "qtime": 8, "isDrum": false}, {"time": 57, "velocity": 0, "pitch": 57, "instrument": 25, "track": 3, "qtime": 9, "isDrum": false}, {"time": 57, "velocity": 108, "pitch": 57, "instrument": 25, "track": 3, "qtime": 9, "isDrum": false}, {"time": 58, "velocity": 108, "pitch": 61, "instrument": 25, "track": 3, "qtime": 10, "isDrum": false}, {"time": 58, "velocity": 108, "pitch": 66, "instrument": 25, "track": 3, "qtime": 10, "isDrum": false}, {"time": 63, "velocity": 0, "pitch": 61, "instrument": 25, "track": 3, "qtime": 15, "isDrum": false}, {"time": 66, "velocity": 108, "pitch": 61, "instrument": 25, "track": 3, "qtime": 18, "isDrum": false}, {"time": 67, "velocity": 0, "pitch": 57, "instrument": 25, "track": 3, "qtime": 19, "isDrum": false}, {"time": 67, "velocity": 0, "pitch": 66, "instrument": 25, "track": 3, "qtime": 19, "isDrum": false}, {"time": 69, "velocity": 0, "pitch": 61, "instrument": 25, "track": 3, "qtime": 21, "isDrum": false}, {"time": 72, "velocity": 108, "pitch": 56, "instrument": 25, "track": 3, "qtime": 24, "isDrum": false}, {"time": 72, "velocity": 108, "pitch": 61, "instrument": 25, "track": 3, "qtime": 24, "isDrum": false}, {"time": 72, "velocity": 108, "pitch": 64, "instrument": 25, "track": 3, "qtime": 24, "isDrum": false}, {"time": 88, "velocity": 0, "pitch": 56, "instrument": 25, "track": 3, "qtime": 40, "isDrum": false}, {"time": 88, "velocity": 0, "pitch": 64, "instrument": 25, "track": 3, "qtime": 40, "isDrum": false}, {"time": 89, "velocity": 0, "pitch": 61, "instrument": 25, "track": 3, "qtime": 41, "isDrum": false}, {"time": 95, "velocity": 108, "pitch": 57, "instrument": 25, "track": 3, "qtime": 47, "isDrum": false}, {"time": 96, "velocity": 108, "pitch": 62, "instrument": 25, "track": 3, "qtime": 0, "isDrum": false}, {"time": 96, "velocity": 108, "pitch": 66, "instrument": 25, "track": 3, "qtime": 0, "isDrum": false}, {"time": 103, "velocity": 0, "pitch": 57, "instrument": 25, "track": 3, "qtime": 7, "isDrum": false}, {"time": 103, "velocity": 0, "pitch": 62, "instrument": 25, "track": 3, "qtime": 7, "isDrum": false}, {"time": 103, "velocity": 0, "pitch": 66, "instrument": 25, "track": 3, "qtime": 7, "isDrum": false}, {"time": 105, "velocity": 108, "pitch": 57, "instrument": 25, "track": 3, "qtime": 9, "isDrum": false}, {"time": 105, "velocity": 108, "pitch": 62, "instrument": 25, "track": 3, "qtime": 9, "isDrum": false}, {"time": 105, "velocity": 108, "pitch": 66, "instrument": 25, "track": 3, "qtime": 9, "isDrum": false}, {"time": 109, "velocity": 0, "pitch": 62, "instrument": 25, "track": 3, "qtime": 13, "isDrum": false}, {"time": 114, "velocity": 0, "pitch": 66, "instrument": 25, "track": 3, "qtime": 18, "isDrum": false}, {"time": 114, "velocity": 108, "pitch": 62, "instrument": 25, "track": 3, "qtime": 18, "isDrum": false}, {"time": 115, "velocity": 0, "pitch": 57, "instrument": 25, "track": 3, "qtime": 19, "isDrum": false}, {"time": 118, "velocity": 0, "pitch": 62, "instrument": 25, "track": 3, "qtime": 22, "isDrum": false}, {"time": 120, "velocity": 108, "pitch": 56, "instrument": 25, "track": 3, "qtime": 24, "isDrum": false}, {"time": 120, "velocity": 108, "pitch": 61, "instrument": 25, "track": 3, "qtime": 24, "isDrum": false}, {"time": 120, "velocity": 108, "pitch": 64, "instrument": 25, "track": 3, "qtime": 24, "isDrum": false}, {"time": 141, "velocity": 0, "pitch": 56, "instrument": 25, "track": 3, "qtime": 45, "isDrum": false}, {"time": 141, "velocity": 0, "pitch": 61, "instrument": 25, "track": 3, "qtime": 45, "isDrum": false}, {"time": 142, "velocity": 0, "pitch": 64, "instrument": 25, "track": 3, "qtime": 46, "isDrum": false}, {"time": 144, "velocity": 108, "pitch": 57, "instrument": 25, "track": 3, "qtime": 0, "isDrum": false}, {"time": 155, "velocity": 0, "pitch": 57, "instrument": 25, "track": 3, "qtime": 11, "isDrum": false}, {"time": 161, "velocity": 108, "pitch": 57, "instrument": 25, "track": 3, "qtime": 17, "isDrum": false}, {"time": 165, "velocity": 108, "pitch": 59, "instrument": 25, "track": 3, "qtime": 21, "isDrum": false}, {"time": 171, "velocity": 108, "pitch": 62, "instrument": 25, "track": 3, "qtime": 27, "isDrum": false}, {"time": 189, "velocity": 0, "pitch": 59, "instrument": 25, "track": 3, "qtime": 45, "isDrum": false}, {"time": 190, "velocity": 0, "pitch": 62, "instrument": 25, "track": 3, "qtime": 46, "isDrum": false}, {"time": 192, "velocity": 0, "pitch": 57, "instrument": 25, "track": 3, "qtime": 48, "isDrum": false}, {"time": 6, "velocity": 108, "pitch": 61, "instrument": 26, "track": 4, "qtime": 6, "isDrum": false}, {"time": 10, "velocity": 0, "pitch": 61, "instrument": 26, "track": 4, "qtime": 10, "isDrum": false}, {"time": 12, "velocity": 108, "pitch": 61, "instrument": 26, "track": 4, "qtime": 12, "isDrum": false}, {"time": 15, "velocity": 0, "pitch": 61, "instrument": 26, "track": 4, "qtime": 15, "isDrum": false}, {"time": 15, "velocity": 108, "pitch": 62, "instrument": 26, "track": 4, "qtime": 15, "isDrum": false}, {"time": 21, "velocity": 0, "pitch": 62, "instrument": 26, "track": 4, "qtime": 21, "isDrum": false}, {"time": 21, "velocity": 108, "pitch": 61, "instrument": 26, "track": 4, "qtime": 21, "isDrum": false}, {"time": 32, "velocity": 0, "pitch": 61, "instrument": 26, "track": 4, "qtime": 32, "isDrum": false}, {"time": 36, "velocity": 108, "pitch": 61, "instrument": 26, "track": 4, "qtime": 36, "isDrum": false}, {"time": 42, "velocity": 0, "pitch": 61, "instrument": 26, "track": 4, "qtime": 42, "isDrum": false}, {"time": 42, "velocity": 108, "pitch": 64, "instrument": 26, "track": 4, "qtime": 42, "isDrum": false}, {"time": 46, "velocity": 0, "pitch": 64, "instrument": 26, "track": 4, "qtime": 46, "isDrum": false}, {"time": 60, "velocity": 108, "pitch": 66, "instrument": 26, "track": 4, "qtime": 12, "isDrum": false}, {"time": 66, "velocity": 0, "pitch": 66, "instrument": 26, "track": 4, "qtime": 18, "isDrum": false}, {"time": 66, "velocity": 108, "pitch": 69, "instrument": 26, "track": 4, "qtime": 18, "isDrum": false}, {"time": 69, "velocity": 0, "pitch": 69, "instrument": 26, "track": 4, "qtime": 21, "isDrum": false}, {"time": 69, "velocity": 108, "pitch": 68, "instrument": 26, "track": 4, "qtime": 21, "isDrum": false}, {"time": 78, "velocity": 0, "pitch": 68, "instrument": 26, "track": 4, "qtime": 30, "isDrum": false}, {"time": 78, "velocity": 108, "pitch": 64, "instrument": 26, "track": 4, "qtime": 30, "isDrum": false}, {"time": 86, "velocity": 0, "pitch": 64, "instrument": 26, "track": 4, "qtime": 38, "isDrum": false}, {"time": 90, "velocity": 108, "pitch": 64, "instrument": 26, "track": 4, "qtime": 42, "isDrum": false}, {"time": 92, "velocity": 0, "pitch": 64, "instrument": 26, "track": 4, "qtime": 44, "isDrum": false}, {"time": 93, "velocity": 108, "pitch": 64, "instrument": 26, "track": 4, "qtime": 45, "isDrum": false}, {"time": 96, "velocity": 0, "pitch": 64, "instrument": 26, "track": 4, "qtime": 48, "isDrum": false}, {"time": 96, "velocity": 108, "pitch": 66, "instrument": 26, "track": 4, "qtime": 0, "isDrum": false}, {"time": 102, "velocity": 0, "pitch": 66, "instrument": 26, "track": 4, "qtime": 6, "isDrum": false}, {"time": 102, "velocity": 108, "pitch": 64, "instrument": 26, "track": 4, "qtime": 6, "isDrum": false}, {"time": 105, "velocity": 0, "pitch": 64, "instrument": 26, "track": 4, "qtime": 9, "isDrum": false}, {"time": 105, "velocity": 108, "pitch": 66, "instrument": 26, "track": 4, "qtime": 9, "isDrum": false}, {"time": 109, "velocity": 0, "pitch": 66, "instrument": 26, "track": 4, "qtime": 13, "isDrum": false}, {"time": 111, "velocity": 108, "pitch": 57, "instrument": 26, "track": 4, "qtime": 15, "isDrum": false}, {"time": 114, "velocity": 0, "pitch": 57, "instrument": 26, "track": 4, "qtime": 18, "isDrum": false}, {"time": 114, "velocity": 108, "pitch": 59, "instrument": 26, "track": 4, "qtime": 18, "isDrum": false}, {"time": 117, "velocity": 0, "pitch": 59, "instrument": 26, "track": 4, "qtime": 21, "isDrum": false}, {"time": 117, "velocity": 108, "pitch": 61, "instrument": 26, "track": 4, "qtime": 21, "isDrum": false}, {"time": 126, "velocity": 0, "pitch": 61, "instrument": 26, "track": 4, "qtime": 30, "isDrum": false}, {"time": 126, "velocity": 108, "pitch": 64, "instrument": 26, "track": 4, "qtime": 30, "isDrum": false}, {"time": 136, "velocity": 0, "pitch": 64, "instrument": 26, "track": 4, "qtime": 40, "isDrum": false}, {"time": 138, "velocity": 108, "pitch": 59, "instrument": 26, "track": 4, "qtime": 42, "isDrum": false}, {"time": 141, "velocity": 0, "pitch": 59, "instrument": 26, "track": 4, "qtime": 45, "isDrum": false}, {"time": 141, "velocity": 108, "pitch": 61, "instrument": 26, "track": 4, "qtime": 45, "isDrum": false}, {"time": 143, "velocity": 0, "pitch": 61, "instrument": 26, "track": 4, "qtime": 47, "isDrum": false}, {"time": 144, "velocity": 108, "pitch": 61, "instrument": 26, "track": 4, "qtime": 0, "isDrum": false}, {"time": 147, "velocity": 0, "pitch": 61, "instrument": 26, "track": 4, "qtime": 3, "isDrum": false}, {"time": 147, "velocity": 108, "pitch": 59, "instrument": 26, "track": 4, "qtime": 3, "isDrum": false}, {"time": 151, "velocity": 0, "pitch": 59, "instrument": 26, "track": 4, "qtime": 7, "isDrum": false}, {"time": 153, "velocity": 108, "pitch": 59, "instrument": 26, "track": 4, "qtime": 9, "isDrum": false}, {"time": 161, "velocity": 0, "pitch": 59, "instrument": 26, "track": 4, "qtime": 17, "isDrum": false}, {"time": 162, "velocity": 108, "pitch": 61, "instrument": 26, "track": 4, "qtime": 18, "isDrum": false}, {"time": 168, "velocity": 0, "pitch": 61, "instrument": 26, "track": 4, "qtime": 24, "isDrum": false}, {"time": 168, "velocity": 108, "pitch": 62, "instrument": 26, "track": 4, "qtime": 24, "isDrum": false}, {"time": 176, "velocity": 0, "pitch": 62, "instrument": 26, "track": 4, "qtime": 32, "isDrum": false}, {"time": 177, "velocity": 108, "pitch": 61, "instrument": 26, "track": 4, "qtime": 33, "isDrum": false}, {"time": 186, "velocity": 0, "pitch": 61, "instrument": 26, "track": 4, "qtime": 42, "isDrum": false}, {"time": 186, "velocity": 108, "pitch": 59, "instrument": 26, "track": 4, "qtime": 42, "isDrum": false}, {"time": 189, "velocity": 0, "pitch": 59, "instrument": 26, "track": 4, "qtime": 45, "isDrum": false}, {"time": 189, "velocity": 108, "pitch": 57, "instrument": 26, "track": 4, "qtime": 45, "isDrum": false}, {"time": 192, "velocity": 0, "pitch": 57, "instrument": 26, "track": 4, "qtime": 48, "isDrum": false}, {"time": 0, "velocity": 84, "pitch": 35, "instrument": 0, "track": 9, "qtime": 0, "isDrum": true}, {"time": 0, "velocity": 84, "pitch": 44, "instrument": 0, "track": 9, "qtime": 0, "isDrum": true}, {"time": 0, "velocity": 84, "pitch": 57, "instrument": 0, "track": 9, "qtime": 0, "isDrum": true}, {"time": 0, "velocity": 84, "pitch": 69, "instrument": 0, "track": 9, "qtime": 0, "isDrum": true}, {"time": 1, "velocity": 0, "pitch": 35, "instrument": 0, "track": 9, "qtime": 1, "isDrum": true}, {"time": 1, "velocity": 0, "pitch": 44, "instrument": 0, "track": 9, "qtime": 1, "isDrum": true}, {"time": 1, "velocity": 0, "pitch": 57, "instrument": 0, "track": 9, "qtime": 1, "isDrum": true}, {"time": 1, "velocity": 0, "pitch": 69, "instrument": 0, "track": 9, "qtime": 1, "isDrum": true}, {"time": 3, "velocity": 84, "pitch": 69, "instrument": 0, "track": 9, "qtime": 3, "isDrum": true}, {"time": 4, "velocity": 0, "pitch": 69, "instrument": 0, "track": 9, "qtime": 4, "isDrum": true}, {"time": 6, "velocity": 84, "pitch": 44, "instrument": 0, "track": 9, "qtime": 6, "isDrum": true}, {"time": 6, "velocity": 84, "pitch": 69, "instrument": 0, "track": 9, "qtime": 6, "isDrum": true}, {"time": 7, "velocity": 0, "pitch": 44, "instrument": 0, "track": 9, "qtime": 7, "isDrum": true}, {"time": 7, "velocity": 0, "pitch": 69, "instrument": 0, "track": 9, "qtime": 7, "isDrum": true}, {"time": 9, "velocity": 84, "pitch": 69, "instrument": 0, "track": 9, "qtime": 9, "isDrum": true}, {"time": 10, "velocity": 0, "pitch": 69, "instrument": 0, "track": 9, "qtime": 10, "isDrum": true}, {"time": 12, "velocity": 84, "pitch": 37, "instrument": 0, "track": 9, "qtime": 12, "isDrum": true}, {"time": 12, "velocity": 84, "pitch": 44, "instrument": 0, "track": 9, "qtime": 12, "isDrum": true}, {"time": 12, "velocity": 84, "pitch": 54, "instrument": 0, "track": 9, "qtime": 12, "isDrum": true}, {"time": 12, "velocity": 84, "pitch": 69, "instrument": 0, "track": 9, "qtime": 12, "isDrum": true}, {"time": 13, "velocity": 0, "pitch": 37, "instrument": 0, "track": 9, "qtime": 13, "isDrum": true}, {"time": 13, "velocity": 0, "pitch": 44, "instrument": 0, "track": 9, "qtime": 13, "isDrum": true}, {"time": 13, "velocity": 0, "pitch": 54, "instrument": 0, "track": 9, "qtime": 13, "isDrum": true}, {"time": 13, "velocity": 0, "pitch": 69, "instrument": 0, "track": 9, "qtime": 13, "isDrum": true}, {"time": 15, "velocity": 84, "pitch": 69, "instrument": 0, "track": 9, "qtime": 15, "isDrum": true}, {"time": 16, "velocity": 0, "pitch": 69, "instrument": 0, "track": 9, "qtime": 16, "isDrum": true}, {"time": 18, "velocity": 84, "pitch": 44, "instrument": 0, "track": 9, "qtime": 18, "isDrum": true}, {"time": 18, "velocity": 84, "pitch": 69, "instrument": 0, "track": 9, "qtime": 18, "isDrum": true}, {"time": 19, "velocity": 0, "pitch": 44, "instrument": 0, "track": 9, "qtime": 19, "isDrum": true}, {"time": 19, "velocity": 0, "pitch": 69, "instrument": 0, "track": 9, "qtime": 19, "isDrum": true}, {"time": 21, "velocity": 84, "pitch": 35, "instrument": 0, "track": 9, "qtime": 21, "isDrum": true}, {"time": 21, "velocity": 84, "pitch": 69, "instrument": 0, "track": 9, "qtime": 21, "isDrum": true}, {"time": 22, "velocity": 0, "pitch": 35, "instrument": 0, "track": 9, "qtime": 22, "isDrum": true}, {"time": 22, "velocity": 0, "pitch": 69, "instrument": 0, "track": 9, "qtime": 22, "isDrum": true}, {"time": 24, "velocity": 84, "pitch": 35, "instrument": 0, "track": 9, "qtime": 24, "isDrum": true}, {"time": 24, "velocity": 84, "pitch": 44, "instrument": 0, "track": 9, "qtime": 24, "isDrum": true}, {"time": 24, "velocity": 84, "pitch": 69, "instrument": 0, "track": 9, "qtime": 24, "isDrum": true}, {"time": 25, "velocity": 0, "pitch": 35, "instrument": 0, "track": 9, "qtime": 25, "isDrum": true}, {"time": 25, "velocity": 0, "pitch": 44, "instrument": 0, "track": 9, "qtime": 25, "isDrum": true}, {"time": 25, "velocity": 0, "pitch": 69, "instrument": 0, "track": 9, "qtime": 25, "isDrum": true}, {"time": 27, "velocity": 84, "pitch": 69, "instrument": 0, "track": 9, "qtime": 27, "isDrum": true}, {"time": 28, "velocity": 0, "pitch": 69, "instrument": 0, "track": 9, "qtime": 28, "isDrum": true}, {"time": 30, "velocity": 84, "pitch": 44, "instrument": 0, "track": 9, "qtime": 30, "isDrum": true}, {"time": 30, "velocity": 84, "pitch": 69, "instrument": 0, "track": 9, "qtime": 30, "isDrum": true}, {"time": 31, "velocity": 0, "pitch": 44, "instrument": 0, "track": 9, "qtime": 31, "isDrum": true}, {"time": 31, "velocity": 0, "pitch": 69, "instrument": 0, "track": 9, "qtime": 31, "isDrum": true}, {"time": 33, "velocity": 84, "pitch": 69, "instrument": 0, "track": 9, "qtime": 33, "isDrum": true}, {"time": 34, "velocity": 0, "pitch": 69, "instrument": 0, "track": 9, "qtime": 34, "isDrum": true}, {"time": 36, "velocity": 84, "pitch": 37, "instrument": 0, "track": 9, "qtime": 36, "isDrum": true}, {"time": 36, "velocity": 84, "pitch": 44, "instrument": 0, "track": 9, "qtime": 36, "isDrum": true}, {"time": 36, "velocity": 84, "pitch": 54, "instrument": 0, "track": 9, "qtime": 36, "isDrum": true}, {"time": 36, "velocity": 84, "pitch": 69, "instrument": 0, "track": 9, "qtime": 36, "isDrum": true}, {"time": 37, "velocity": 0, "pitch": 37, "instrument": 0, "track": 9, "qtime": 37, "isDrum": true}, {"time": 37, "velocity": 0, "pitch": 44, "instrument": 0, "track": 9, "qtime": 37, "isDrum": true}, {"time": 37, "velocity": 0, "pitch": 54, "instrument": 0, "track": 9, "qtime": 37, "isDrum": true}, {"time": 37, "velocity": 0, "pitch": 69, "instrument": 0, "track": 9, "qtime": 37, "isDrum": true}, {"time": 39, "velocity": 84, "pitch": 69, "instrument": 0, "track": 9, "qtime": 39, "isDrum": true}, {"time": 40, "velocity": 0, "pitch": 69, "instrument": 0, "track": 9, "qtime": 40, "isDrum": true}, {"time": 42, "velocity": 84, "pitch": 46, "instrument": 0, "track": 9, "qtime": 42, "isDrum": true}, {"time": 42, "velocity": 84, "pitch": 54, "instrument": 0, "track": 9, "qtime": 42, "isDrum": true}, {"time": 42, "velocity": 84, "pitch": 69, "instrument": 0, "track": 9, "qtime": 42, "isDrum": true}, {"time": 43, "velocity": 0, "pitch": 46, "instrument": 0, "track": 9, "qtime": 43, "isDrum": true}, {"time": 43, "velocity": 0, "pitch": 54, "instrument": 0, "track": 9, "qtime": 43, "isDrum": true}, {"time": 43, "velocity": 0, "pitch": 69, "instrument": 0, "track": 9, "qtime": 43, "isDrum": true}, {"time": 45, "velocity": 84, "pitch": 69, "instrument": 0, "track": 9, "qtime": 45, "isDrum": true}, {"time": 46, "velocity": 0, "pitch": 69, "instrument": 0, "track": 9, "qtime": 46, "isDrum": true}, {"time": 48, "velocity": 84, "pitch": 35, "instrument": 0, "track": 9, "qtime": 0, "isDrum": true}, {"time": 48, "velocity": 84, "pitch": 44, "instrument": 0, "track": 9, "qtime": 0, "isDrum": true}, {"time": 48, "velocity": 84, "pitch": 57, "instrument": 0, "track": 9, "qtime": 0, "isDrum": true}, {"time": 48, "velocity": 84, "pitch": 69, "instrument": 0, "track": 9, "qtime": 0, "isDrum": true}, {"time": 49, "velocity": 0, "pitch": 35, "instrument": 0, "track": 9, "qtime": 1, "isDrum": true}, {"time": 49, "velocity": 0, "pitch": 44, "instrument": 0, "track": 9, "qtime": 1, "isDrum": true}, {"time": 49, "velocity": 0, "pitch": 57, "instrument": 0, "track": 9, "qtime": 1, "isDrum": true}, {"time": 49, "velocity": 0, "pitch": 69, "instrument": 0, "track": 9, "qtime": 1, "isDrum": true}, {"time": 51, "velocity": 84, "pitch": 69, "instrument": 0, "track": 9, "qtime": 3, "isDrum": true}, {"time": 52, "velocity": 0, "pitch": 69, "instrument": 0, "track": 9, "qtime": 4, "isDrum": true}, {"time": 54, "velocity": 84, "pitch": 44, "instrument": 0, "track": 9, "qtime": 6, "isDrum": true}, {"time": 54, "velocity": 84, "pitch": 69, "instrument": 0, "track": 9, "qtime": 6, "isDrum": true}, {"time": 55, "velocity": 0, "pitch": 44, "instrument": 0, "track": 9, "qtime": 7, "isDrum": true}, {"time": 55, "velocity": 0, "pitch": 69, "instrument": 0, "track": 9, "qtime": 7, "isDrum": true}, {"time": 57, "velocity": 84, "pitch": 69, "instrument": 0, "track": 9, "qtime": 9, "isDrum": true}, {"time": 58, "velocity": 0, "pitch": 69, "instrument": 0, "track": 9, "qtime": 10, "isDrum": true}, {"time": 60, "velocity": 84, "pitch": 37, "instrument": 0, "track": 9, "qtime": 12, "isDrum": true}, {"time": 60, "velocity": 84, "pitch": 44, "instrument": 0, "track": 9, "qtime": 12, "isDrum": true}, {"time": 60, "velocity": 84, "pitch": 54, "instrument": 0, "track": 9, "qtime": 12, "isDrum": true}, {"time": 60, "velocity": 84, "pitch": 69, "instrument": 0, "track": 9, "qtime": 12, "isDrum": true}, {"time": 61, "velocity": 0, "pitch": 37, "instrument": 0, "track": 9, "qtime": 13, "isDrum": true}, {"time": 61, "velocity": 0, "pitch": 44, "instrument": 0, "track": 9, "qtime": 13, "isDrum": true}, {"time": 61, "velocity": 0, "pitch": 54, "instrument": 0, "track": 9, "qtime": 13, "isDrum": true}, {"time": 61, "velocity": 0, "pitch": 69, "instrument": 0, "track": 9, "qtime": 13, "isDrum": true}, {"time": 63, "velocity": 84, "pitch": 69, "instrument": 0, "track": 9, "qtime": 15, "isDrum": true}, {"time": 64, "velocity": 0, "pitch": 69, "instrument": 0, "track": 9, "qtime": 16, "isDrum": true}, {"time": 66, "velocity": 84, "pitch": 44, "instrument": 0, "track": 9, "qtime": 18, "isDrum": true}, {"time": 66, "velocity": 84, "pitch": 69, "instrument": 0, "track": 9, "qtime": 18, "isDrum": true}, {"time": 67, "velocity": 0, "pitch": 44, "instrument": 0, "track": 9, "qtime": 19, "isDrum": true}, {"time": 67, "velocity": 0, "pitch": 69, "instrument": 0, "track": 9, "qtime": 19, "isDrum": true}, {"time": 69, "velocity": 84, "pitch": 35, "instrument": 0, "track": 9, "qtime": 21, "isDrum": true}, {"time": 69, "velocity": 84, "pitch": 69, "instrument": 0, "track": 9, "qtime": 21, "isDrum": true}, {"time": 70, "velocity": 0, "pitch": 35, "instrument": 0, "track": 9, "qtime": 22, "isDrum": true}, {"time": 70, "velocity": 0, "pitch": 69, "instrument": 0, "track": 9, "qtime": 22, "isDrum": true}, {"time": 72, "velocity": 84, "pitch": 35, "instrument": 0, "track": 9, "qtime": 24, "isDrum": true}, {"time": 72, "velocity": 84, "pitch": 44, "instrument": 0, "track": 9, "qtime": 24, "isDrum": true}, {"time": 72, "velocity": 84, "pitch": 69, "instrument": 0, "track": 9, "qtime": 24, "isDrum": true}, {"time": 73, "velocity": 0, "pitch": 35, "instrument": 0, "track": 9, "qtime": 25, "isDrum": true}, {"time": 73, "velocity": 0, "pitch": 44, "instrument": 0, "track": 9, "qtime": 25, "isDrum": true}, {"time": 73, "velocity": 0, "pitch": 69, "instrument": 0, "track": 9, "qtime": 25, "isDrum": true}, {"time": 75, "velocity": 84, "pitch": 69, "instrument": 0, "track": 9, "qtime": 27, "isDrum": true}, {"time": 76, "velocity": 0, "pitch": 69, "instrument": 0, "track": 9, "qtime": 28, "isDrum": true}, {"time": 78, "velocity": 84, "pitch": 44, "instrument": 0, "track": 9, "qtime": 30, "isDrum": true}, {"time": 78, "velocity": 84, "pitch": 69, "instrument": 0, "track": 9, "qtime": 30, "isDrum": true}, {"time": 79, "velocity": 0, "pitch": 44, "instrument": 0, "track": 9, "qtime": 31, "isDrum": true}, {"time": 79, "velocity": 0, "pitch": 69, "instrument": 0, "track": 9, "qtime": 31, "isDrum": true}, {"time": 81, "velocity": 84, "pitch": 69, "instrument": 0, "track": 9, "qtime": 33, "isDrum": true}, {"time": 82, "velocity": 0, "pitch": 69, "instrument": 0, "track": 9, "qtime": 34, "isDrum": true}, {"time": 84, "velocity": 84, "pitch": 37, "instrument": 0, "track": 9, "qtime": 36, "isDrum": true}, {"time": 84, "velocity": 84, "pitch": 44, "instrument": 0, "track": 9, "qtime": 36, "isDrum": true}, {"time": 84, "velocity": 84, "pitch": 54, "instrument": 0, "track": 9, "qtime": 36, "isDrum": true}, {"time": 84, "velocity": 84, "pitch": 69, "instrument": 0, "track": 9, "qtime": 36, "isDrum": true}, {"time": 85, "velocity": 0, "pitch": 37, "instrument": 0, "track": 9, "qtime": 37, "isDrum": true}, {"time": 85, "velocity": 0, "pitch": 44, "instrument": 0, "track": 9, "qtime": 37, "isDrum": true}, {"time": 85, "velocity": 0, "pitch": 54, "instrument": 0, "track": 9, "qtime": 37, "isDrum": true}, {"time": 85, "velocity": 0, "pitch": 69, "instrument": 0, "track": 9, "qtime": 37, "isDrum": true}, {"time": 87, "velocity": 84, "pitch": 69, "instrument": 0, "track": 9, "qtime": 39, "isDrum": true}, {"time": 88, "velocity": 0, "pitch": 69, "instrument": 0, "track": 9, "qtime": 40, "isDrum": true}, {"time": 90, "velocity": 84, "pitch": 46, "instrument": 0, "track": 9, "qtime": 42, "isDrum": true}, {"time": 90, "velocity": 84, "pitch": 69, "instrument": 0, "track": 9, "qtime": 42, "isDrum": true}, {"time": 91, "velocity": 0, "pitch": 46, "instrument": 0, "track": 9, "qtime": 43, "isDrum": true}, {"time": 91, "velocity": 0, "pitch": 69, "instrument": 0, "track": 9, "qtime": 43, "isDrum": true}, {"time": 93, "velocity": 84, "pitch": 69, "instrument": 0, "track": 9, "qtime": 45, "isDrum": true}, {"time": 94, "velocity": 0, "pitch": 69, "instrument": 0, "track": 9, "qtime": 46, "isDrum": true}, {"time": 96, "velocity": 84, "pitch": 35, "instrument": 0, "track": 9, "qtime": 0, "isDrum": true}, {"time": 96, "velocity": 84, "pitch": 44, "instrument": 0, "track": 9, "qtime": 0, "isDrum": true}, {"time": 96, "velocity": 84, "pitch": 69, "instrument": 0, "track": 9, "qtime": 0, "isDrum": true}, {"time": 97, "velocity": 0, "pitch": 35, "instrument": 0, "track": 9, "qtime": 1, "isDrum": true}, {"time": 97, "velocity": 0, "pitch": 44, "instrument": 0, "track": 9, "qtime": 1, "isDrum": true}, {"time": 97, "velocity": 0, "pitch": 69, "instrument": 0, "track": 9, "qtime": 1, "isDrum": true}, {"time": 99, "velocity": 84, "pitch": 69, "instrument": 0, "track": 9, "qtime": 3, "isDrum": true}, {"time": 100, "velocity": 0, "pitch": 69, "instrument": 0, "track": 9, "qtime": 4, "isDrum": true}, {"time": 102, "velocity": 84, "pitch": 44, "instrument": 0, "track": 9, "qtime": 6, "isDrum": true}, {"time": 102, "velocity": 84, "pitch": 69, "instrument": 0, "track": 9, "qtime": 6, "isDrum": true}, {"time": 103, "velocity": 0, "pitch": 44, "instrument": 0, "track": 9, "qtime": 7, "isDrum": true}, {"time": 103, "velocity": 0, "pitch": 69, "instrument": 0, "track": 9, "qtime": 7, "isDrum": true}, {"time": 105, "velocity": 84, "pitch": 69, "instrument": 0, "track": 9, "qtime": 9, "isDrum": true}, {"time": 106, "velocity": 0, "pitch": 69, "instrument": 0, "track": 9, "qtime": 10, "isDrum": true}, {"time": 108, "velocity": 84, "pitch": 37, "instrument": 0, "track": 9, "qtime": 12, "isDrum": true}, {"time": 108, "velocity": 84, "pitch": 44, "instrument": 0, "track": 9, "qtime": 12, "isDrum": true}, {"time": 108, "velocity": 84, "pitch": 54, "instrument": 0, "track": 9, "qtime": 12, "isDrum": true}, {"time": 108, "velocity": 84, "pitch": 69, "instrument": 0, "track": 9, "qtime": 12, "isDrum": true}, {"time": 109, "velocity": 0, "pitch": 37, "instrument": 0, "track": 9, "qtime": 13, "isDrum": true}, {"time": 109, "velocity": 0, "pitch": 44, "instrument": 0, "track": 9, "qtime": 13, "isDrum": true}, {"time": 109, "velocity": 0, "pitch": 54, "instrument": 0, "track": 9, "qtime": 13, "isDrum": true}, {"time": 109, "velocity": 0, "pitch": 69, "instrument": 0, "track": 9, "qtime": 13, "isDrum": true}, {"time": 111, "velocity": 84, "pitch": 69, "instrument": 0, "track": 9, "qtime": 15, "isDrum": true}, {"time": 112, "velocity": 0, "pitch": 69, "instrument": 0, "track": 9, "qtime": 16, "isDrum": true}, {"time": 114, "velocity": 84, "pitch": 44, "instrument": 0, "track": 9, "qtime": 18, "isDrum": true}, {"time": 114, "velocity": 84, "pitch": 69, "instrument": 0, "track": 9, "qtime": 18, "isDrum": true}, {"time": 115, "velocity": 0, "pitch": 44, "instrument": 0, "track": 9, "qtime": 19, "isDrum": true}, {"time": 115, "velocity": 0, "pitch": 69, "instrument": 0, "track": 9, "qtime": 19, "isDrum": true}, {"time": 117, "velocity": 84, "pitch": 35, "instrument": 0, "track": 9, "qtime": 21, "isDrum": true}, {"time": 117, "velocity": 84, "pitch": 69, "instrument": 0, "track": 9, "qtime": 21, "isDrum": true}, {"time": 118, "velocity": 0, "pitch": 35, "instrument": 0, "track": 9, "qtime": 22, "isDrum": true}, {"time": 118, "velocity": 0, "pitch": 69, "instrument": 0, "track": 9, "qtime": 22, "isDrum": true}, {"time": 120, "velocity": 84, "pitch": 35, "instrument": 0, "track": 9, "qtime": 24, "isDrum": true}, {"time": 120, "velocity": 84, "pitch": 44, "instrument": 0, "track": 9, "qtime": 24, "isDrum": true}, {"time": 120, "velocity": 84, "pitch": 69, "instrument": 0, "track": 9, "qtime": 24, "isDrum": true}, {"time": 121, "velocity": 0, "pitch": 35, "instrument": 0, "track": 9, "qtime": 25, "isDrum": true}, {"time": 121, "velocity": 0, "pitch": 44, "instrument": 0, "track": 9, "qtime": 25, "isDrum": true}, {"time": 121, "velocity": 0, "pitch": 69, "instrument": 0, "track": 9, "qtime": 25, "isDrum": true}, {"time": 123, "velocity": 84, "pitch": 69, "instrument": 0, "track": 9, "qtime": 27, "isDrum": true}, {"time": 124, "velocity": 0, "pitch": 69, "instrument": 0, "track": 9, "qtime": 28, "isDrum": true}, {"time": 126, "velocity": 84, "pitch": 44, "instrument": 0, "track": 9, "qtime": 30, "isDrum": true}, {"time": 126, "velocity": 84, "pitch": 69, "instrument": 0, "track": 9, "qtime": 30, "isDrum": true}, {"time": 127, "velocity": 0, "pitch": 44, "instrument": 0, "track": 9, "qtime": 31, "isDrum": true}, {"time": 127, "velocity": 0, "pitch": 69, "instrument": 0, "track": 9, "qtime": 31, "isDrum": true}, {"time": 129, "velocity": 84, "pitch": 69, "instrument": 0, "track": 9, "qtime": 33, "isDrum": true}, {"time": 130, "velocity": 0, "pitch": 69, "instrument": 0, "track": 9, "qtime": 34, "isDrum": true}, {"time": 132, "velocity": 84, "pitch": 37, "instrument": 0, "track": 9, "qtime": 36, "isDrum": true}, {"time": 132, "velocity": 84, "pitch": 44, "instrument": 0, "track": 9, "qtime": 36, "isDrum": true}, {"time": 132, "velocity": 84, "pitch": 54, "instrument": 0, "track": 9, "qtime": 36, "isDrum": true}, {"time": 132, "velocity": 84, "pitch": 69, "instrument": 0, "track": 9, "qtime": 36, "isDrum": true}, {"time": 133, "velocity": 0, "pitch": 37, "instrument": 0, "track": 9, "qtime": 37, "isDrum": true}, {"time": 133, "velocity": 0, "pitch": 44, "instrument": 0, "track": 9, "qtime": 37, "isDrum": true}, {"time": 133, "velocity": 0, "pitch": 54, "instrument": 0, "track": 9, "qtime": 37, "isDrum": true}, {"time": 133, "velocity": 0, "pitch": 69, "instrument": 0, "track": 9, "qtime": 37, "isDrum": true}, {"time": 135, "velocity": 84, "pitch": 69, "instrument": 0, "track": 9, "qtime": 39, "isDrum": true}, {"time": 136, "velocity": 0, "pitch": 69, "instrument": 0, "track": 9, "qtime": 40, "isDrum": true}, {"time": 138, "velocity": 84, "pitch": 46, "instrument": 0, "track": 9, "qtime": 42, "isDrum": true}, {"time": 138, "velocity": 84, "pitch": 54, "instrument": 0, "track": 9, "qtime": 42, "isDrum": true}, {"time": 138, "velocity": 84, "pitch": 69, "instrument": 0, "track": 9, "qtime": 42, "isDrum": true}, {"time": 139, "velocity": 0, "pitch": 46, "instrument": 0, "track": 9, "qtime": 43, "isDrum": true}, {"time": 139, "velocity": 0, "pitch": 54, "instrument": 0, "track": 9, "qtime": 43, "isDrum": true}, {"time": 139, "velocity": 0, "pitch": 69, "instrument": 0, "track": 9, "qtime": 43, "isDrum": true}, {"time": 141, "velocity": 84, "pitch": 69, "instrument": 0, "track": 9, "qtime": 45, "isDrum": true}, {"time": 142, "velocity": 0, "pitch": 69, "instrument": 0, "track": 9, "qtime": 46, "isDrum": true}, {"time": 144, "velocity": 84, "pitch": 35, "instrument": 0, "track": 9, "qtime": 0, "isDrum": true}, {"time": 144, "velocity": 84, "pitch": 44, "instrument": 0, "track": 9, "qtime": 0, "isDrum": true}, {"time": 144, "velocity": 84, "pitch": 69, "instrument": 0, "track": 9, "qtime": 0, "isDrum": true}, {"time": 145, "velocity": 0, "pitch": 35, "instrument": 0, "track": 9, "qtime": 1, "isDrum": true}, {"time": 145, "velocity": 0, "pitch": 44, "instrument": 0, "track": 9, "qtime": 1, "isDrum": true}, {"time": 145, "velocity": 0, "pitch": 69, "instrument": 0, "track": 9, "qtime": 1, "isDrum": true}, {"time": 147, "velocity": 84, "pitch": 69, "instrument": 0, "track": 9, "qtime": 3, "isDrum": true}, {"time": 148, "velocity": 0, "pitch": 69, "instrument": 0, "track": 9, "qtime": 4, "isDrum": true}, {"time": 150, "velocity": 84, "pitch": 44, "instrument": 0, "track": 9, "qtime": 6, "isDrum": true}, {"time": 150, "velocity": 84, "pitch": 69, "instrument": 0, "track": 9, "qtime": 6, "isDrum": true}, {"time": 151, "velocity": 0, "pitch": 44, "instrument": 0, "track": 9, "qtime": 7, "isDrum": true}, {"time": 151, "velocity": 0, "pitch": 69, "instrument": 0, "track": 9, "qtime": 7, "isDrum": true}, {"time": 153, "velocity": 84, "pitch": 69, "instrument": 0, "track": 9, "qtime": 9, "isDrum": true}, {"time": 154, "velocity": 0, "pitch": 69, "instrument": 0, "track": 9, "qtime": 10, "isDrum": true}, {"time": 156, "velocity": 84, "pitch": 37, "instrument": 0, "track": 9, "qtime": 12, "isDrum": true}, {"time": 156, "velocity": 84, "pitch": 44, "instrument": 0, "track": 9, "qtime": 12, "isDrum": true}, {"time": 156, "velocity": 84, "pitch": 54, "instrument": 0, "track": 9, "qtime": 12, "isDrum": true}, {"time": 156, "velocity": 84, "pitch": 69, "instrument": 0, "track": 9, "qtime": 12, "isDrum": true}, {"time": 157, "velocity": 0, "pitch": 37, "instrument": 0, "track": 9, "qtime": 13, "isDrum": true}, {"time": 157, "velocity": 0, "pitch": 44, "instrument": 0, "track": 9, "qtime": 13, "isDrum": true}, {"time": 157, "velocity": 0, "pitch": 54, "instrument": 0, "track": 9, "qtime": 13, "isDrum": true}, {"time": 157, "velocity": 0, "pitch": 69, "instrument": 0, "track": 9, "qtime": 13, "isDrum": true}, {"time": 159, "velocity": 84, "pitch": 69, "instrument": 0, "track": 9, "qtime": 15, "isDrum": true}, {"time": 160, "velocity": 0, "pitch": 69, "instrument": 0, "track": 9, "qtime": 16, "isDrum": true}, {"time": 162, "velocity": 84, "pitch": 44, "instrument": 0, "track": 9, "qtime": 18, "isDrum": true}, {"time": 162, "velocity": 84, "pitch": 69, "instrument": 0, "track": 9, "qtime": 18, "isDrum": true}, {"time": 163, "velocity": 0, "pitch": 44, "instrument": 0, "track": 9, "qtime": 19, "isDrum": true}, {"time": 163, "velocity": 0, "pitch": 69, "instrument": 0, "track": 9, "qtime": 19, "isDrum": true}, {"time": 165, "velocity": 84, "pitch": 35, "instrument": 0, "track": 9, "qtime": 21, "isDrum": true}, {"time": 165, "velocity": 84, "pitch": 69, "instrument": 0, "track": 9, "qtime": 21, "isDrum": true}, {"time": 166, "velocity": 0, "pitch": 35, "instrument": 0, "track": 9, "qtime": 22, "isDrum": true}, {"time": 166, "velocity": 0, "pitch": 69, "instrument": 0, "track": 9, "qtime": 22, "isDrum": true}, {"time": 168, "velocity": 84, "pitch": 35, "instrument": 0, "track": 9, "qtime": 24, "isDrum": true}, {"time": 168, "velocity": 84, "pitch": 44, "instrument": 0, "track": 9, "qtime": 24, "isDrum": true}, {"time": 168, "velocity": 84, "pitch": 69, "instrument": 0, "track": 9, "qtime": 24, "isDrum": true}, {"time": 169, "velocity": 0, "pitch": 35, "instrument": 0, "track": 9, "qtime": 25, "isDrum": true}, {"time": 169, "velocity": 0, "pitch": 44, "instrument": 0, "track": 9, "qtime": 25, "isDrum": true}, {"time": 169, "velocity": 0, "pitch": 69, "instrument": 0, "track": 9, "qtime": 25, "isDrum": true}, {"time": 171, "velocity": 84, "pitch": 69, "instrument": 0, "track": 9, "qtime": 27, "isDrum": true}, {"time": 172, "velocity": 0, "pitch": 69, "instrument": 0, "track": 9, "qtime": 28, "isDrum": true}, {"time": 174, "velocity": 84, "pitch": 44, "instrument": 0, "track": 9, "qtime": 30, "isDrum": true}, {"time": 174, "velocity": 84, "pitch": 69, "instrument": 0, "track": 9, "qtime": 30, "isDrum": true}, {"time": 175, "velocity": 0, "pitch": 44, "instrument": 0, "track": 9, "qtime": 31, "isDrum": true}, {"time": 175, "velocity": 0, "pitch": 69, "instrument": 0, "track": 9, "qtime": 31, "isDrum": true}, {"time": 177, "velocity": 84, "pitch": 69, "instrument": 0, "track": 9, "qtime": 33, "isDrum": true}, {"time": 178, "velocity": 0, "pitch": 69, "instrument": 0, "track": 9, "qtime": 34, "isDrum": true}, {"time": 180, "velocity": 84, "pitch": 37, "instrument": 0, "track": 9, "qtime": 36, "isDrum": true}, {"time": 180, "velocity": 84, "pitch": 44, "instrument": 0, "track": 9, "qtime": 36, "isDrum": true}, {"time": 180, "velocity": 84, "pitch": 54, "instrument": 0, "track": 9, "qtime": 36, "isDrum": true}, {"time": 180, "velocity": 84, "pitch": 69, "instrument": 0, "track": 9, "qtime": 36, "isDrum": true}, {"time": 181, "velocity": 0, "pitch": 37, "instrument": 0, "track": 9, "qtime": 37, "isDrum": true}, {"time": 181, "velocity": 0, "pitch": 44, "instrument": 0, "track": 9, "qtime": 37, "isDrum": true}, {"time": 181, "velocity": 0, "pitch": 54, "instrument": 0, "track": 9, "qtime": 37, "isDrum": true}, {"time": 181, "velocity": 0, "pitch": 69, "instrument": 0, "track": 9, "qtime": 37, "isDrum": true}, {"time": 183, "velocity": 84, "pitch": 69, "instrument": 0, "track": 9, "qtime": 39, "isDrum": true}, {"time": 184, "velocity": 0, "pitch": 69, "instrument": 0, "track": 9, "qtime": 40, "isDrum": true}, {"time": 186, "velocity": 84, "pitch": 46, "instrument": 0, "track": 9, "qtime": 42, "isDrum": true}, {"time": 186, "velocity": 84, "pitch": 69, "instrument": 0, "track": 9, "qtime": 42, "isDrum": true}, {"time": 187, "velocity": 0, "pitch": 46, "instrument": 0, "track": 9, "qtime": 43, "isDrum": true}, {"time": 187, "velocity": 0, "pitch": 69, "instrument": 0, "track": 9, "qtime": 43, "isDrum": true}, {"time": 189, "velocity": 84, "pitch": 69, "instrument": 0, "track": 9, "qtime": 45, "isDrum": true}, {"time": 190, "velocity": 0, "pitch": 69, "instrument": 0, "track": 9, "qtime": 46, "isDrum": true}], "resolution": 12, "tempo": 78, "minPitch": 28, "maxPitch": 81, "validSegments": [0], "validTracks": [63]}, "audio": "https://www.sfu.ca/~jeffe/examples/stem_calm_drums.mp3"}, {"src": "gen/stem_calm_drumsb.json", "highlights": [[], [], [], [0, 1, 2, 3], [], [], []], "caption": "Resample the drum track in 17a again.", "sample_id": "17c", "mixer": [8, 8, 6, 6, 8, 8], "tempo": 78, "json": {"tracks": [{"bars": [{"events": [0, 1, 2, 3, 4, 5, 6, 7, 8, 9], "isFourFour": true, "hasNotes": true, "time": 0}, {"events": [10, 11, 12, 13, 14, 15, 16, 17], "isFourFour": true, "hasNotes": true, "time": 48}, {"events": [18, 19, 20, 21, 22, 23, 24], "isFourFour": true, "hasNotes": true, "time": 96}, {"events": [25, 26, 27, 28, 29], "isFourFour": true, "hasNotes": true, "time": 144}], "isDrum": false, "minPitch": 28, "maxPitch": 40, "instrument": 35, "avPolyphony": 1, "noteDensity": 4, "noteDensityV2": 3}, {"bars": [{"events": [30, 31, 32], "isFourFour": true, "hasNotes": true, "time": 0}, {"events": [33, 34, 35, 36, 37], "isFourFour": true, "hasNotes": true, "time": 48}, {"events": [38, 39, 40, 41, 42, 43, 44, 45, 46, 47], "isFourFour": true, "hasNotes": true, "time": 96}, {"events": [48, 49], "isFourFour": true, "hasNotes": true, "time": 144}], "isDrum": false, "minPitch": 50, "maxPitch": 61, "instrument": 89, "avPolyphony": 1.98064518, "noteDensity": 1, "noteDensityV2": 3}, {"bars": [{"events": [50, 51, 52, 53, 54, 55, 56, 57, 58, 59], "isFourFour": true, "hasNotes": true, "time": 0}, {"events": [60, 61, 62, 63, 64, 65, 66, 67, 68, 69, 70, 71, 72, 73, 74, 75, 76, 77, 78, 79, 80, 81, 82, 83], "isFourFour": true, "hasNotes": true, "time": 48}, {"events": [84, 85, 86, 87, 88, 89, 90, 91, 92, 93, 94, 95, 96, 97, 98, 99, 100, 101, 102], "isFourFour": true, "hasNotes": true, "time": 96}, {"events": [103, 104, 105, 106, 107, 108, 109, 110, 111], "isFourFour": true, "hasNotes": true, "time": 144}], "isDrum": false, "minPitch": 47, "maxPitch": 81, "instrument": 48, "avPolyphony": 4.14583349, "noteDensity": 8, "noteDensityV2": 7}, {"bars": [{"events": [228, 229, 230, 231, 232, 233, 234, 235, 236, 237, 238, 239, 240, 241, 242, 243, 244, 245, 246, 247, 248, 249, 250, 251, 252, 253, 254, 255, 256, 257, 258, 259, 260, 261, 262, 263, 264, 265, 266, 267, 268, 269, 270, 271, 272, 273, 274, 275, 276, 277, 278, 279, 280, 281, 282, 283, 284, 285, 286, 287, 288, 289, 290, 291, 292, 293, 294, 295], "isFourFour": true, "hasNotes": true, "time": 0}, {"events": [296, 297, 298, 299, 300, 301, 302, 303, 304, 305, 306, 307, 308, 309, 310, 311, 312, 313, 314, 315, 316, 317, 318, 319, 320, 321, 322, 323, 324, 325, 326, 327, 328, 329, 330, 331, 332, 333, 334, 335, 336, 337, 338, 339, 340, 341, 342, 343, 344, 345, 346, 347, 348, 349, 350, 351, 352, 353, 354, 355, 356, 357, 358, 359, 360, 361, 362, 363], "isFourFour": true, "hasNotes": true, "time": 48}, {"events": [364, 365, 366, 367, 368, 369, 370, 371, 372, 373, 374, 375, 376, 377, 378, 379, 380, 381, 382, 383, 384, 385, 386, 387, 388, 389, 390, 391, 392, 393, 394, 395, 396, 397, 398, 399, 400, 401, 402, 403, 404, 405, 406, 407, 408, 409, 410, 411, 412, 413, 414, 415, 416, 417, 418, 419, 420, 421, 422, 423, 424, 425, 426, 427, 428, 429, 430, 431], "isFourFour": true, "hasNotes": true, "time": 96}, {"events": [432, 433, 434, 435, 436, 437, 438, 439, 440, 441, 442, 443, 444, 445, 446, 447, 448, 449, 450, 451, 452, 453, 454, 455, 456, 457, 458, 459, 460, 461, 462, 463, 464, 465, 466, 467, 468, 469, 470, 471, 472, 473, 474, 475, 476, 477, 478, 479, 480, 481, 482, 483, 484, 485, 486, 487, 488, 489, 490, 491, 492, 493, 494, 495, 496, 497, 498, 499], "isFourFour": true, "hasNotes": true, "time": 144}], "isDrum": true, "minPitch": 35, "maxPitch": 69, "instrument": 25, "avPolyphony": 2.4375, "noteDensity": 9, "noteDensityV2": 9}, {"bars": [{"events": [112, 113, 114, 115, 116, 117, 118, 119, 120, 121], "isFourFour": true, "hasNotes": true, "time": 0}, {"events": [122, 123, 124, 125, 126, 127, 128, 129, 130, 131, 132, 133, 134, 135, 136, 137, 138, 139, 140, 141, 142], "isFourFour": true, "hasNotes": true, "time": 48}, {"events": [143, 144, 145, 146, 147, 148, 149, 150, 151, 152, 153, 154, 155, 156, 157, 158, 159, 160, 161], "isFourFour": true, "hasNotes": true, "time": 96}, {"events": [162, 163, 164, 165, 166, 167, 168, 169], "isFourFour": true, "hasNotes": true, "time": 144}], "isDrum": false, "minPitch": 56, "maxPitch": 66, "instrument": 25, "avPolyphony": 2.25308633, "noteDensity": 8, "noteDensityV2": 2}, {"bars": [{"events": [170, 171, 172, 173, 174, 175, 176, 177, 178, 179, 180, 181], "isFourFour": true, "hasNotes": true, "time": 0}, {"events": [182, 183, 184, 185, 186, 187, 188, 189, 190, 191, 192, 193], "isFourFour": true, "hasNotes": true, "time": 48}, {"events": [194, 195, 196, 197, 198, 199, 200, 201, 202, 203, 204, 205, 206, 207, 208, 209, 210, 211], "isFourFour": true, "hasNotes": true, "time": 96}, {"events": [212, 213, 214, 215, 216, 217, 218, 219, 220, 221, 222, 223, 224, 225, 226, 227], "isFourFour": true, "hasNotes": true, "time": 144}], "isDrum": false, "minPitch": 57, "maxPitch": 69, "instrument": 26, "avPolyphony": 1, "noteDensity": 8, "noteDensityV2": 6}], "events": [{"time": 0, "velocity": 108, "pitch": 33, "instrument": 35, "track": 0, "qtime": 0, "isDrum": false}, {"time": 20, "velocity": 0, "pitch": 33, "instrument": 35, "track": 0, "qtime": 20, "isDrum": false}, {"time": 20, "velocity": 108, "pitch": 28, "instrument": 35, "track": 0, "qtime": 20, "isDrum": false}, {"time": 23, "velocity": 0, "pitch": 28, "instrument": 35, "track": 0, "qtime": 23, "isDrum": false}, {"time": 23, "velocity": 108, "pitch": 33, "instrument": 35, "track": 0, "qtime": 23, "isDrum": false}, {"time": 33, "velocity": 0, "pitch": 33, "instrument": 35, "track": 0, "qtime": 33, "isDrum": false}, {"time": 33, "velocity": 108, "pitch": 28, "instrument": 35, "track": 0, "qtime": 33, "isDrum": false}, {"time": 35, "velocity": 0, "pitch": 28, "instrument": 35, "track": 0, "qtime": 35, "isDrum": false}, {"time": 36, "velocity": 108, "pitch": 32, "instrument": 35, "track": 0, "qtime": 36, "isDrum": false}, {"time": 48, "velocity": 0, "pitch": 32, "instrument": 35, "track": 0, "qtime": 48, "isDrum": false}, {"time": 48, "velocity": 108, "pitch": 30, "instrument": 35, "track": 0, "qtime": 0, "isDrum": false}, {"time": 65, "velocity": 0, "pitch": 30, "instrument": 35, "track": 0, "qtime": 17, "isDrum": false}, {"time": 65, "velocity": 108, "pitch": 33, "instrument": 35, "track": 0, "qtime": 17, "isDrum": false}, {"time": 69, "velocity": 0, "pitch": 33, "instrument": 35, "track": 0, "qtime": 21, "isDrum": false}, {"time": 69, "velocity": 108, "pitch": 35, "instrument": 35, "track": 0, "qtime": 21, "isDrum": false}, {"time": 72, "velocity": 0, "pitch": 35, "instrument": 35, "track": 0, "qtime": 24, "isDrum": false}, {"time": 72, "velocity": 108, "pitch": 37, "instrument": 35, "track": 0, "qtime": 24, "isDrum": false}, {"time": 95, "velocity": 0, "pitch": 37, "instrument": 35, "track": 0, "qtime": 47, "isDrum": false}, {"time": 96, "velocity": 108, "pitch": 38, "instrument": 35, "track": 0, "qtime": 0, "isDrum": false}, {"time": 116, "velocity": 0, "pitch": 38, "instrument": 35, "track": 0, "qtime": 20, "isDrum": false}, {"time": 117, "velocity": 108, "pitch": 37, "instrument": 35, "track": 0, "qtime": 21, "isDrum": false}, {"time": 118, "velocity": 0, "pitch": 37, "instrument": 35, "track": 0, "qtime": 22, "isDrum": false}, {"time": 120, "velocity": 108, "pitch": 37, "instrument": 35, "track": 0, "qtime": 24, "isDrum": false}, {"time": 143, "velocity": 0, "pitch": 37, "instrument": 35, "track": 0, "qtime": 47, "isDrum": false}, {"time": 143, "velocity": 108, "pitch": 35, "instrument": 35, "track": 0, "qtime": 47, "isDrum": false}, {"time": 163, "velocity": 0, "pitch": 35, "instrument": 35, "track": 0, "qtime": 19, "isDrum": false}, {"time": 165, "velocity": 108, "pitch": 35, "instrument": 35, "track": 0, "qtime": 21, "isDrum": false}, {"time": 168, "velocity": 0, "pitch": 35, "instrument": 35, "track": 0, "qtime": 24, "isDrum": false}, {"time": 168, "velocity": 108, "pitch": 40, "instrument": 35, "track": 0, "qtime": 24, "isDrum": false}, {"time": 192, "velocity": 0, "pitch": 40, "instrument": 35, "track": 0, "qtime": 48, "isDrum": false}, {"time": 35, "velocity": 108, "pitch": 56, "instrument": 89, "track": 1, "qtime": 35, "isDrum": false}, {"time": 35, "velocity": 108, "pitch": 61, "instrument": 89, "track": 1, "qtime": 35, "isDrum": false}, {"time": 48, "velocity": 0, "pitch": 56, "instrument": 89, "track": 1, "qtime": 48, "isDrum": false}, {"time": 48, "velocity": 108, "pitch": 57, "instrument": 89, "track": 1, "qtime": 0, "isDrum": false}, {"time": 72, "velocity": 0, "pitch": 57, "instrument": 89, "track": 1, "qtime": 24, "isDrum": false}, {"time": 72, "velocity": 108, "pitch": 56, "instrument": 89, "track": 1, "qtime": 24, "isDrum": false}, {"time": 96, "velocity": 0, "pitch": 56, "instrument": 89, "track": 1, "qtime": 48, "isDrum": false}, {"time": 96, "velocity": 0, "pitch": 61, "instrument": 89, "track": 1, "qtime": 48, "isDrum": false}, {"time": 96, "velocity": 108, "pitch": 54, "instrument": 89, "track": 1, "qtime": 0, "isDrum": false}, {"time": 96, "velocity": 108, "pitch": 57, "instrument": 89, "track": 1, "qtime": 0, "isDrum": false}, {"time": 119, "velocity": 108, "pitch": 52, "instrument": 89, "track": 1, "qtime": 23, "isDrum": false}, {"time": 120, "velocity": 0, "pitch": 54, "instrument": 89, "track": 1, "qtime": 24, "isDrum": false}, {"time": 120, "velocity": 108, "pitch": 56, "instrument": 89, "track": 1, "qtime": 24, "isDrum": false}, {"time": 121, "velocity": 0, "pitch": 57, "instrument": 89, "track": 1, "qtime": 25, "isDrum": false}, {"time": 143, "velocity": 0, "pitch": 52, "instrument": 89, "track": 1, "qtime": 47, "isDrum": false}, {"time": 143, "velocity": 0, "pitch": 56, "instrument": 89, "track": 1, "qtime": 47, "isDrum": false}, {"time": 143, "velocity": 108, "pitch": 50, "instrument": 89, "track": 1, "qtime": 47, "isDrum": false}, {"time": 143, "velocity": 108, "pitch": 54, "instrument": 89, "track": 1, "qtime": 47, "isDrum": false}, {"time": 185, "velocity": 0, "pitch": 54, "instrument": 89, "track": 1, "qtime": 41, "isDrum": false}, {"time": 190, "velocity": 0, "pitch": 50, "instrument": 89, "track": 1, "qtime": 46, "isDrum": false}, {"time": 0, "velocity": 84, "pitch": 57, "instrument": 48, "track": 2, "qtime": 0, "isDrum": false}, {"time": 0, "velocity": 84, "pitch": 61, "instrument": 48, "track": 2, "qtime": 0, "isDrum": false}, {"time": 23, "velocity": 0, "pitch": 57, "instrument": 48, "track": 2, "qtime": 23, "isDrum": false}, {"time": 24, "velocity": 84, "pitch": 57, "instrument": 48, "track": 2, "qtime": 24, "isDrum": false}, {"time": 36, "velocity": 0, "pitch": 61, "instrument": 48, "track": 2, "qtime": 36, "isDrum": false}, {"time": 36, "velocity": 84, "pitch": 56, "instrument": 48, "track": 2, "qtime": 36, "isDrum": false}, {"time": 36, "velocity": 84, "pitch": 61, "instrument": 48, "track": 2, "qtime": 36, "isDrum": false}, {"time": 36, "velocity": 84, "pitch": 64, "instrument": 48, "track": 2, "qtime": 36, "isDrum": false}, {"time": 38, "velocity": 0, "pitch": 57, "instrument": 48, "track": 2, "qtime": 38, "isDrum": false}, {"time": 48, "velocity": 0, "pitch": 56, "instrument": 48, "track": 2, "qtime": 48, "isDrum": false}, {"time": 48, "velocity": 84, "pitch": 54, "instrument": 48, "track": 2, "qtime": 0, "isDrum": false}, {"time": 48, "velocity": 84, "pitch": 69, "instrument": 48, "track": 2, "qtime": 0, "isDrum": false}, {"time": 48, "velocity": 84, "pitch": 73, "instrument": 48, "track": 2, "qtime": 0, "isDrum": false}, {"time": 48, "velocity": 84, "pitch": 78, "instrument": 48, "track": 2, "qtime": 0, "isDrum": false}, {"time": 49, "velocity": 0, "pitch": 64, "instrument": 48, "track": 2, "qtime": 1, "isDrum": false}, {"time": 71, "velocity": 84, "pitch": 80, "instrument": 48, "track": 2, "qtime": 23, "isDrum": false}, {"time": 72, "velocity": 0, "pitch": 54, "instrument": 48, "track": 2, "qtime": 24, "isDrum": false}, {"time": 72, "velocity": 0, "pitch": 61, "instrument": 48, "track": 2, "qtime": 24, "isDrum": false}, {"time": 72, "velocity": 0, "pitch": 69, "instrument": 48, "track": 2, "qtime": 24, "isDrum": false}, {"time": 72, "velocity": 0, "pitch": 78, "instrument": 48, "track": 2, "qtime": 24, "isDrum": false}, {"time": 72, "velocity": 84, "pitch": 52, "instrument": 48, "track": 2, "qtime": 24, "isDrum": false}, {"time": 72, "velocity": 84, "pitch": 59, "instrument": 48, "track": 2, "qtime": 24, "isDrum": false}, {"time": 72, "velocity": 84, "pitch": 68, "instrument": 48, "track": 2, "qtime": 24, "isDrum": false}, {"time": 72, "velocity": 84, "pitch": 76, "instrument": 48, "track": 2, "qtime": 24, "isDrum": false}, {"time": 73, "velocity": 0, "pitch": 73, "instrument": 48, "track": 2, "qtime": 25, "isDrum": false}, {"time": 95, "velocity": 84, "pitch": 57, "instrument": 48, "track": 2, "qtime": 47, "isDrum": false}, {"time": 95, "velocity": 84, "pitch": 66, "instrument": 48, "track": 2, "qtime": 47, "isDrum": false}, {"time": 95, "velocity": 84, "pitch": 78, "instrument": 48, "track": 2, "qtime": 47, "isDrum": false}, {"time": 95, "velocity": 84, "pitch": 81, "instrument": 48, "track": 2, "qtime": 47, "isDrum": false}, {"time": 96, "velocity": 0, "pitch": 52, "instrument": 48, "track": 2, "qtime": 48, "isDrum": false}, {"time": 96, "velocity": 0, "pitch": 59, "instrument": 48, "track": 2, "qtime": 48, "isDrum": false}, {"time": 96, "velocity": 0, "pitch": 68, "instrument": 48, "track": 2, "qtime": 48, "isDrum": false}, {"time": 96, "velocity": 0, "pitch": 76, "instrument": 48, "track": 2, "qtime": 48, "isDrum": false}, {"time": 96, "velocity": 0, "pitch": 80, "instrument": 48, "track": 2, "qtime": 48, "isDrum": false}, {"time": 96, "velocity": 84, "pitch": 50, "instrument": 48, "track": 2, "qtime": 0, "isDrum": false}, {"time": 119, "velocity": 84, "pitch": 56, "instrument": 48, "track": 2, "qtime": 23, "isDrum": false}, {"time": 119, "velocity": 84, "pitch": 64, "instrument": 48, "track": 2, "qtime": 23, "isDrum": false}, {"time": 120, "velocity": 0, "pitch": 50, "instrument": 48, "track": 2, "qtime": 24, "isDrum": false}, {"time": 120, "velocity": 0, "pitch": 57, "instrument": 48, "track": 2, "qtime": 24, "isDrum": false}, {"time": 120, "velocity": 84, "pitch": 49, "instrument": 48, "track": 2, "qtime": 24, "isDrum": false}, {"time": 120, "velocity": 84, "pitch": 76, "instrument": 48, "track": 2, "qtime": 24, "isDrum": false}, {"time": 120, "velocity": 84, "pitch": 80, "instrument": 48, "track": 2, "qtime": 24, "isDrum": false}, {"time": 121, "velocity": 0, "pitch": 66, "instrument": 48, "track": 2, "qtime": 25, "isDrum": false}, {"time": 121, "velocity": 0, "pitch": 78, "instrument": 48, "track": 2, "qtime": 25, "isDrum": false}, {"time": 121, "velocity": 0, "pitch": 81, "instrument": 48, "track": 2, "qtime": 25, "isDrum": false}, {"time": 143, "velocity": 0, "pitch": 56, "instrument": 48, "track": 2, "qtime": 47, "isDrum": false}, {"time": 143, "velocity": 0, "pitch": 80, "instrument": 48, "track": 2, "qtime": 47, "isDrum": false}, {"time": 143, "velocity": 84, "pitch": 54, "instrument": 48, "track": 2, "qtime": 47, "isDrum": false}, {"time": 143, "velocity": 84, "pitch": 74, "instrument": 48, "track": 2, "qtime": 47, "isDrum": false}, {"time": 143, "velocity": 84, "pitch": 78, "instrument": 48, "track": 2, "qtime": 47, "isDrum": false}, {"time": 144, "velocity": 0, "pitch": 49, "instrument": 48, "track": 2, "qtime": 48, "isDrum": false}, {"time": 144, "velocity": 0, "pitch": 64, "instrument": 48, "track": 2, "qtime": 48, "isDrum": false}, {"time": 144, "velocity": 0, "pitch": 76, "instrument": 48, "track": 2, "qtime": 48, "isDrum": false}, {"time": 144, "velocity": 84, "pitch": 47, "instrument": 48, "track": 2, "qtime": 0, "isDrum": false}, {"time": 168, "velocity": 84, "pitch": 52, "instrument": 48, "track": 2, "qtime": 24, "isDrum": false}, {"time": 168, "velocity": 84, "pitch": 59, "instrument": 48, "track": 2, "qtime": 24, "isDrum": false}, {"time": 169, "velocity": 0, "pitch": 47, "instrument": 48, "track": 2, "qtime": 25, "isDrum": false}, {"time": 169, "velocity": 0, "pitch": 54, "instrument": 48, "track": 2, "qtime": 25, "isDrum": false}, {"time": 192, "velocity": 0, "pitch": 52, "instrument": 48, "track": 2, "qtime": 48, "isDrum": false}, {"time": 192, "velocity": 0, "pitch": 59, "instrument": 48, "track": 2, "qtime": 48, "isDrum": false}, {"time": 192, "velocity": 0, "pitch": 74, "instrument": 48, "track": 2, "qtime": 48, "isDrum": false}, {"time": 192, "velocity": 0, "pitch": 78, "instrument": 48, "track": 2, "qtime": 48, "isDrum": false}, {"time": 0, "velocity": 108, "pitch": 61, "instrument": 25, "track": 3, "qtime": 0, "isDrum": false}, {"time": 0, "velocity": 108, "pitch": 64, "instrument": 25, "track": 3, "qtime": 0, "isDrum": false}, {"time": 18, "velocity": 0, "pitch": 61, "instrument": 25, "track": 3, "qtime": 18, "isDrum": false}, {"time": 18, "velocity": 108, "pitch": 57, "instrument": 25, "track": 3, "qtime": 18, "isDrum": false}, {"time": 19, "velocity": 0, "pitch": 64, "instrument": 25, "track": 3, "qtime": 19, "isDrum": false}, {"time": 24, "velocity": 108, "pitch": 64, "instrument": 25, "track": 3, "qtime": 24, "isDrum": false}, {"time": 35, "velocity": 0, "pitch": 57, "instrument": 25, "track": 3, "qtime": 35, "isDrum": false}, {"time": 36, "velocity": 0, "pitch": 64, "instrument": 25, "track": 3, "qtime": 36, "isDrum": false}, {"time": 36, "velocity": 108, "pitch": 61, "instrument": 25, "track": 3, "qtime": 36, "isDrum": false}, {"time": 40, "velocity": 0, "pitch": 61, "instrument": 25, "track": 3, "qtime": 40, "isDrum": false}, {"time": 49, "velocity": 108, "pitch": 57, "instrument": 25, "track": 3, "qtime": 1, "isDrum": false}, {"time": 49, "velocity": 108, "pitch": 61, "instrument": 25, "track": 3, "qtime": 1, "isDrum": false}, {"time": 49, "velocity": 108, "pitch": 66, "instrument": 25, "track": 3, "qtime": 1, "isDrum": false}, {"time": 55, "velocity": 0, "pitch": 61, "instrument": 25, "track": 3, "qtime": 7, "isDrum": false}, {"time": 56, "velocity": 0, "pitch": 66, "instrument": 25, "track": 3, "qtime": 8, "isDrum": false}, {"time": 57, "velocity": 0, "pitch": 57, "instrument": 25, "track": 3, "qtime": 9, "isDrum": false}, {"time": 57, "velocity": 108, "pitch": 57, "instrument": 25, "track": 3, "qtime": 9, "isDrum": false}, {"time": 58, "velocity": 108, "pitch": 61, "instrument": 25, "track": 3, "qtime": 10, "isDrum": false}, {"time": 58, "velocity": 108, "pitch": 66, "instrument": 25, "track": 3, "qtime": 10, "isDrum": false}, {"time": 63, "velocity": 0, "pitch": 61, "instrument": 25, "track": 3, "qtime": 15, "isDrum": false}, {"time": 66, "velocity": 108, "pitch": 61, "instrument": 25, "track": 3, "qtime": 18, "isDrum": false}, {"time": 67, "velocity": 0, "pitch": 57, "instrument": 25, "track": 3, "qtime": 19, "isDrum": false}, {"time": 67, "velocity": 0, "pitch": 66, "instrument": 25, "track": 3, "qtime": 19, "isDrum": false}, {"time": 69, "velocity": 0, "pitch": 61, "instrument": 25, "track": 3, "qtime": 21, "isDrum": false}, {"time": 72, "velocity": 108, "pitch": 56, "instrument": 25, "track": 3, "qtime": 24, "isDrum": false}, {"time": 72, "velocity": 108, "pitch": 61, "instrument": 25, "track": 3, "qtime": 24, "isDrum": false}, {"time": 72, "velocity": 108, "pitch": 64, "instrument": 25, "track": 3, "qtime": 24, "isDrum": false}, {"time": 88, "velocity": 0, "pitch": 56, "instrument": 25, "track": 3, "qtime": 40, "isDrum": false}, {"time": 88, "velocity": 0, "pitch": 64, "instrument": 25, "track": 3, "qtime": 40, "isDrum": false}, {"time": 89, "velocity": 0, "pitch": 61, "instrument": 25, "track": 3, "qtime": 41, "isDrum": false}, {"time": 95, "velocity": 108, "pitch": 57, "instrument": 25, "track": 3, "qtime": 47, "isDrum": false}, {"time": 96, "velocity": 108, "pitch": 62, "instrument": 25, "track": 3, "qtime": 0, "isDrum": false}, {"time": 96, "velocity": 108, "pitch": 66, "instrument": 25, "track": 3, "qtime": 0, "isDrum": false}, {"time": 103, "velocity": 0, "pitch": 57, "instrument": 25, "track": 3, "qtime": 7, "isDrum": false}, {"time": 103, "velocity": 0, "pitch": 62, "instrument": 25, "track": 3, "qtime": 7, "isDrum": false}, {"time": 103, "velocity": 0, "pitch": 66, "instrument": 25, "track": 3, "qtime": 7, "isDrum": false}, {"time": 105, "velocity": 108, "pitch": 57, "instrument": 25, "track": 3, "qtime": 9, "isDrum": false}, {"time": 105, "velocity": 108, "pitch": 62, "instrument": 25, "track": 3, "qtime": 9, "isDrum": false}, {"time": 105, "velocity": 108, "pitch": 66, "instrument": 25, "track": 3, "qtime": 9, "isDrum": false}, {"time": 109, "velocity": 0, "pitch": 62, "instrument": 25, "track": 3, "qtime": 13, "isDrum": false}, {"time": 114, "velocity": 0, "pitch": 66, "instrument": 25, "track": 3, "qtime": 18, "isDrum": false}, {"time": 114, "velocity": 108, "pitch": 62, "instrument": 25, "track": 3, "qtime": 18, "isDrum": false}, {"time": 115, "velocity": 0, "pitch": 57, "instrument": 25, "track": 3, "qtime": 19, "isDrum": false}, {"time": 118, "velocity": 0, "pitch": 62, "instrument": 25, "track": 3, "qtime": 22, "isDrum": false}, {"time": 120, "velocity": 108, "pitch": 56, "instrument": 25, "track": 3, "qtime": 24, "isDrum": false}, {"time": 120, "velocity": 108, "pitch": 61, "instrument": 25, "track": 3, "qtime": 24, "isDrum": false}, {"time": 120, "velocity": 108, "pitch": 64, "instrument": 25, "track": 3, "qtime": 24, "isDrum": false}, {"time": 141, "velocity": 0, "pitch": 56, "instrument": 25, "track": 3, "qtime": 45, "isDrum": false}, {"time": 141, "velocity": 0, "pitch": 61, "instrument": 25, "track": 3, "qtime": 45, "isDrum": false}, {"time": 142, "velocity": 0, "pitch": 64, "instrument": 25, "track": 3, "qtime": 46, "isDrum": false}, {"time": 144, "velocity": 108, "pitch": 57, "instrument": 25, "track": 3, "qtime": 0, "isDrum": false}, {"time": 155, "velocity": 0, "pitch": 57, "instrument": 25, "track": 3, "qtime": 11, "isDrum": false}, {"time": 161, "velocity": 108, "pitch": 57, "instrument": 25, "track": 3, "qtime": 17, "isDrum": false}, {"time": 165, "velocity": 108, "pitch": 59, "instrument": 25, "track": 3, "qtime": 21, "isDrum": false}, {"time": 171, "velocity": 108, "pitch": 62, "instrument": 25, "track": 3, "qtime": 27, "isDrum": false}, {"time": 189, "velocity": 0, "pitch": 59, "instrument": 25, "track": 3, "qtime": 45, "isDrum": false}, {"time": 190, "velocity": 0, "pitch": 62, "instrument": 25, "track": 3, "qtime": 46, "isDrum": false}, {"time": 192, "velocity": 0, "pitch": 57, "instrument": 25, "track": 3, "qtime": 48, "isDrum": false}, {"time": 6, "velocity": 108, "pitch": 61, "instrument": 26, "track": 4, "qtime": 6, "isDrum": false}, {"time": 10, "velocity": 0, "pitch": 61, "instrument": 26, "track": 4, "qtime": 10, "isDrum": false}, {"time": 12, "velocity": 108, "pitch": 61, "instrument": 26, "track": 4, "qtime": 12, "isDrum": false}, {"time": 15, "velocity": 0, "pitch": 61, "instrument": 26, "track": 4, "qtime": 15, "isDrum": false}, {"time": 15, "velocity": 108, "pitch": 62, "instrument": 26, "track": 4, "qtime": 15, "isDrum": false}, {"time": 21, "velocity": 0, "pitch": 62, "instrument": 26, "track": 4, "qtime": 21, "isDrum": false}, {"time": 21, "velocity": 108, "pitch": 61, "instrument": 26, "track": 4, "qtime": 21, "isDrum": false}, {"time": 32, "velocity": 0, "pitch": 61, "instrument": 26, "track": 4, "qtime": 32, "isDrum": false}, {"time": 36, "velocity": 108, "pitch": 61, "instrument": 26, "track": 4, "qtime": 36, "isDrum": false}, {"time": 42, "velocity": 0, "pitch": 61, "instrument": 26, "track": 4, "qtime": 42, "isDrum": false}, {"time": 42, "velocity": 108, "pitch": 64, "instrument": 26, "track": 4, "qtime": 42, "isDrum": false}, {"time": 46, "velocity": 0, "pitch": 64, "instrument": 26, "track": 4, "qtime": 46, "isDrum": false}, {"time": 60, "velocity": 108, "pitch": 66, "instrument": 26, "track": 4, "qtime": 12, "isDrum": false}, {"time": 66, "velocity": 0, "pitch": 66, "instrument": 26, "track": 4, "qtime": 18, "isDrum": false}, {"time": 66, "velocity": 108, "pitch": 69, "instrument": 26, "track": 4, "qtime": 18, "isDrum": false}, {"time": 69, "velocity": 0, "pitch": 69, "instrument": 26, "track": 4, "qtime": 21, "isDrum": false}, {"time": 69, "velocity": 108, "pitch": 68, "instrument": 26, "track": 4, "qtime": 21, "isDrum": false}, {"time": 78, "velocity": 0, "pitch": 68, "instrument": 26, "track": 4, "qtime": 30, "isDrum": false}, {"time": 78, "velocity": 108, "pitch": 64, "instrument": 26, "track": 4, "qtime": 30, "isDrum": false}, {"time": 86, "velocity": 0, "pitch": 64, "instrument": 26, "track": 4, "qtime": 38, "isDrum": false}, {"time": 90, "velocity": 108, "pitch": 64, "instrument": 26, "track": 4, "qtime": 42, "isDrum": false}, {"time": 92, "velocity": 0, "pitch": 64, "instrument": 26, "track": 4, "qtime": 44, "isDrum": false}, {"time": 93, "velocity": 108, "pitch": 64, "instrument": 26, "track": 4, "qtime": 45, "isDrum": false}, {"time": 96, "velocity": 0, "pitch": 64, "instrument": 26, "track": 4, "qtime": 48, "isDrum": false}, {"time": 96, "velocity": 108, "pitch": 66, "instrument": 26, "track": 4, "qtime": 0, "isDrum": false}, {"time": 102, "velocity": 0, "pitch": 66, "instrument": 26, "track": 4, "qtime": 6, "isDrum": false}, {"time": 102, "velocity": 108, "pitch": 64, "instrument": 26, "track": 4, "qtime": 6, "isDrum": false}, {"time": 105, "velocity": 0, "pitch": 64, "instrument": 26, "track": 4, "qtime": 9, "isDrum": false}, {"time": 105, "velocity": 108, "pitch": 66, "instrument": 26, "track": 4, "qtime": 9, "isDrum": false}, {"time": 109, "velocity": 0, "pitch": 66, "instrument": 26, "track": 4, "qtime": 13, "isDrum": false}, {"time": 111, "velocity": 108, "pitch": 57, "instrument": 26, "track": 4, "qtime": 15, "isDrum": false}, {"time": 114, "velocity": 0, "pitch": 57, "instrument": 26, "track": 4, "qtime": 18, "isDrum": false}, {"time": 114, "velocity": 108, "pitch": 59, "instrument": 26, "track": 4, "qtime": 18, "isDrum": false}, {"time": 117, "velocity": 0, "pitch": 59, "instrument": 26, "track": 4, "qtime": 21, "isDrum": false}, {"time": 117, "velocity": 108, "pitch": 61, "instrument": 26, "track": 4, "qtime": 21, "isDrum": false}, {"time": 126, "velocity": 0, "pitch": 61, "instrument": 26, "track": 4, "qtime": 30, "isDrum": false}, {"time": 126, "velocity": 108, "pitch": 64, "instrument": 26, "track": 4, "qtime": 30, "isDrum": false}, {"time": 136, "velocity": 0, "pitch": 64, "instrument": 26, "track": 4, "qtime": 40, "isDrum": false}, {"time": 138, "velocity": 108, "pitch": 59, "instrument": 26, "track": 4, "qtime": 42, "isDrum": false}, {"time": 141, "velocity": 0, "pitch": 59, "instrument": 26, "track": 4, "qtime": 45, "isDrum": false}, {"time": 141, "velocity": 108, "pitch": 61, "instrument": 26, "track": 4, "qtime": 45, "isDrum": false}, {"time": 143, "velocity": 0, "pitch": 61, "instrument": 26, "track": 4, "qtime": 47, "isDrum": false}, {"time": 144, "velocity": 108, "pitch": 61, "instrument": 26, "track": 4, "qtime": 0, "isDrum": false}, {"time": 147, "velocity": 0, "pitch": 61, "instrument": 26, "track": 4, "qtime": 3, "isDrum": false}, {"time": 147, "velocity": 108, "pitch": 59, "instrument": 26, "track": 4, "qtime": 3, "isDrum": false}, {"time": 151, "velocity": 0, "pitch": 59, "instrument": 26, "track": 4, "qtime": 7, "isDrum": false}, {"time": 153, "velocity": 108, "pitch": 59, "instrument": 26, "track": 4, "qtime": 9, "isDrum": false}, {"time": 161, "velocity": 0, "pitch": 59, "instrument": 26, "track": 4, "qtime": 17, "isDrum": false}, {"time": 162, "velocity": 108, "pitch": 61, "instrument": 26, "track": 4, "qtime": 18, "isDrum": false}, {"time": 168, "velocity": 0, "pitch": 61, "instrument": 26, "track": 4, "qtime": 24, "isDrum": false}, {"time": 168, "velocity": 108, "pitch": 62, "instrument": 26, "track": 4, "qtime": 24, "isDrum": false}, {"time": 176, "velocity": 0, "pitch": 62, "instrument": 26, "track": 4, "qtime": 32, "isDrum": false}, {"time": 177, "velocity": 108, "pitch": 61, "instrument": 26, "track": 4, "qtime": 33, "isDrum": false}, {"time": 186, "velocity": 0, "pitch": 61, "instrument": 26, "track": 4, "qtime": 42, "isDrum": false}, {"time": 186, "velocity": 108, "pitch": 59, "instrument": 26, "track": 4, "qtime": 42, "isDrum": false}, {"time": 189, "velocity": 0, "pitch": 59, "instrument": 26, "track": 4, "qtime": 45, "isDrum": false}, {"time": 189, "velocity": 108, "pitch": 57, "instrument": 26, "track": 4, "qtime": 45, "isDrum": false}, {"time": 192, "velocity": 0, "pitch": 57, "instrument": 26, "track": 4, "qtime": 48, "isDrum": false}, {"time": 0, "velocity": 84, "pitch": 35, "instrument": 25, "track": 9, "qtime": 0, "isDrum": true}, {"time": 0, "velocity": 84, "pitch": 42, "instrument": 25, "track": 9, "qtime": 0, "isDrum": true}, {"time": 0, "velocity": 84, "pitch": 64, "instrument": 25, "track": 9, "qtime": 0, "isDrum": true}, {"time": 0, "velocity": 84, "pitch": 69, "instrument": 25, "track": 9, "qtime": 0, "isDrum": true}, {"time": 2, "velocity": 0, "pitch": 35, "instrument": 25, "track": 9, "qtime": 2, "isDrum": true}, {"time": 2, "velocity": 0, "pitch": 42, "instrument": 25, "track": 9, "qtime": 2, "isDrum": true}, {"time": 2, "velocity": 0, "pitch": 69, "instrument": 25, "track": 9, "qtime": 2, "isDrum": true}, {"time": 3, "velocity": 0, "pitch": 64, "instrument": 25, "track": 9, "qtime": 3, "isDrum": true}, {"time": 6, "velocity": 84, "pitch": 42, "instrument": 25, "track": 9, "qtime": 6, "isDrum": true}, {"time": 6, "velocity": 84, "pitch": 60, "instrument": 25, "track": 9, "qtime": 6, "isDrum": true}, {"time": 6, "velocity": 84, "pitch": 69, "instrument": 25, "track": 9, "qtime": 6, "isDrum": true}, {"time": 8, "velocity": 0, "pitch": 42, "instrument": 25, "track": 9, "qtime": 8, "isDrum": true}, {"time": 8, "velocity": 0, "pitch": 69, "instrument": 25, "track": 9, "qtime": 8, "isDrum": true}, {"time": 9, "velocity": 0, "pitch": 60, "instrument": 25, "track": 9, "qtime": 9, "isDrum": true}, {"time": 9, "velocity": 84, "pitch": 62, "instrument": 25, "track": 9, "qtime": 9, "isDrum": true}, {"time": 9, "velocity": 84, "pitch": 69, "instrument": 25, "track": 9, "qtime": 9, "isDrum": true}, {"time": 11, "velocity": 0, "pitch": 62, "instrument": 25, "track": 9, "qtime": 11, "isDrum": true}, {"time": 11, "velocity": 0, "pitch": 69, "instrument": 25, "track": 9, "qtime": 11, "isDrum": true}, {"time": 12, "velocity": 84, "pitch": 37, "instrument": 25, "track": 9, "qtime": 12, "isDrum": true}, {"time": 12, "velocity": 84, "pitch": 42, "instrument": 25, "track": 9, "qtime": 12, "isDrum": true}, {"time": 12, "velocity": 84, "pitch": 64, "instrument": 25, "track": 9, "qtime": 12, "isDrum": true}, {"time": 12, "velocity": 84, "pitch": 69, "instrument": 25, "track": 9, "qtime": 12, "isDrum": true}, {"time": 14, "velocity": 0, "pitch": 37, "instrument": 25, "track": 9, "qtime": 14, "isDrum": true}, {"time": 14, "velocity": 0, "pitch": 42, "instrument": 25, "track": 9, "qtime": 14, "isDrum": true}, {"time": 14, "velocity": 0, "pitch": 69, "instrument": 25, "track": 9, "qtime": 14, "isDrum": true}, {"time": 15, "velocity": 0, "pitch": 64, "instrument": 25, "track": 9, "qtime": 15, "isDrum": true}, {"time": 18, "velocity": 84, "pitch": 35, "instrument": 25, "track": 9, "qtime": 18, "isDrum": true}, {"time": 18, "velocity": 84, "pitch": 42, "instrument": 25, "track": 9, "qtime": 18, "isDrum": true}, {"time": 18, "velocity": 84, "pitch": 64, "instrument": 25, "track": 9, "qtime": 18, "isDrum": true}, {"time": 18, "velocity": 84, "pitch": 69, "instrument": 25, "track": 9, "qtime": 18, "isDrum": true}, {"time": 20, "velocity": 0, "pitch": 35, "instrument": 25, "track": 9, "qtime": 20, "isDrum": true}, {"time": 20, "velocity": 0, "pitch": 42, "instrument": 25, "track": 9, "qtime": 20, "isDrum": true}, {"time": 20, "velocity": 0, "pitch": 69, "instrument": 25, "track": 9, "qtime": 20, "isDrum": true}, {"time": 21, "velocity": 84, "pitch": 69, "instrument": 25, "track": 9, "qtime": 21, "isDrum": true}, {"time": 23, "velocity": 0, "pitch": 69, "instrument": 25, "track": 9, "qtime": 23, "isDrum": true}, {"time": 24, "velocity": 0, "pitch": 64, "instrument": 25, "track": 9, "qtime": 24, "isDrum": true}, {"time": 24, "velocity": 84, "pitch": 42, "instrument": 25, "track": 9, "qtime": 24, "isDrum": true}, {"time": 24, "velocity": 84, "pitch": 63, "instrument": 25, "track": 9, "qtime": 24, "isDrum": true}, {"time": 24, "velocity": 84, "pitch": 69, "instrument": 25, "track": 9, "qtime": 24, "isDrum": true}, {"time": 26, "velocity": 0, "pitch": 42, "instrument": 25, "track": 9, "qtime": 26, "isDrum": true}, {"time": 26, "velocity": 0, "pitch": 69, "instrument": 25, "track": 9, "qtime": 26, "isDrum": true}, {"time": 27, "velocity": 0, "pitch": 63, "instrument": 25, "track": 9, "qtime": 27, "isDrum": true}, {"time": 27, "velocity": 84, "pitch": 60, "instrument": 25, "track": 9, "qtime": 27, "isDrum": true}, {"time": 29, "velocity": 0, "pitch": 60, "instrument": 25, "track": 9, "qtime": 29, "isDrum": true}, {"time": 30, "velocity": 84, "pitch": 46, "instrument": 25, "track": 9, "qtime": 30, "isDrum": true}, {"time": 30, "velocity": 84, "pitch": 64, "instrument": 25, "track": 9, "qtime": 30, "isDrum": true}, {"time": 30, "velocity": 84, "pitch": 69, "instrument": 25, "track": 9, "qtime": 30, "isDrum": true}, {"time": 32, "velocity": 0, "pitch": 46, "instrument": 25, "track": 9, "qtime": 32, "isDrum": true}, {"time": 32, "velocity": 0, "pitch": 69, "instrument": 25, "track": 9, "qtime": 32, "isDrum": true}, {"time": 33, "velocity": 0, "pitch": 64, "instrument": 25, "track": 9, "qtime": 33, "isDrum": true}, {"time": 36, "velocity": 84, "pitch": 37, "instrument": 25, "track": 9, "qtime": 36, "isDrum": true}, {"time": 36, "velocity": 84, "pitch": 42, "instrument": 25, "track": 9, "qtime": 36, "isDrum": true}, {"time": 36, "velocity": 84, "pitch": 60, "instrument": 25, "track": 9, "qtime": 36, "isDrum": true}, {"time": 36, "velocity": 84, "pitch": 69, "instrument": 25, "track": 9, "qtime": 36, "isDrum": true}, {"time": 38, "velocity": 0, "pitch": 42, "instrument": 25, "track": 9, "qtime": 38, "isDrum": true}, {"time": 38, "velocity": 0, "pitch": 69, "instrument": 25, "track": 9, "qtime": 38, "isDrum": true}, {"time": 39, "velocity": 0, "pitch": 37, "instrument": 25, "track": 9, "qtime": 39, "isDrum": true}, {"time": 39, "velocity": 0, "pitch": 60, "instrument": 25, "track": 9, "qtime": 39, "isDrum": true}, {"time": 42, "velocity": 84, "pitch": 35, "instrument": 25, "track": 9, "qtime": 42, "isDrum": true}, {"time": 42, "velocity": 84, "pitch": 42, "instrument": 25, "track": 9, "qtime": 42, "isDrum": true}, {"time": 42, "velocity": 84, "pitch": 46, "instrument": 25, "track": 9, "qtime": 42, "isDrum": true}, {"time": 42, "velocity": 84, "pitch": 69, "instrument": 25, "track": 9, "qtime": 42, "isDrum": true}, {"time": 43, "velocity": 0, "pitch": 46, "instrument": 25, "track": 9, "qtime": 43, "isDrum": true}, {"time": 44, "velocity": 0, "pitch": 35, "instrument": 25, "track": 9, "qtime": 44, "isDrum": true}, {"time": 44, "velocity": 0, "pitch": 42, "instrument": 25, "track": 9, "qtime": 44, "isDrum": true}, {"time": 44, "velocity": 0, "pitch": 69, "instrument": 25, "track": 9, "qtime": 44, "isDrum": true}, {"time": 45, "velocity": 84, "pitch": 69, "instrument": 25, "track": 9, "qtime": 45, "isDrum": true}, {"time": 47, "velocity": 0, "pitch": 69, "instrument": 25, "track": 9, "qtime": 47, "isDrum": true}, {"time": 48, "velocity": 84, "pitch": 35, "instrument": 25, "track": 9, "qtime": 0, "isDrum": true}, {"time": 48, "velocity": 84, "pitch": 42, "instrument": 25, "track": 9, "qtime": 0, "isDrum": true}, {"time": 48, "velocity": 84, "pitch": 64, "instrument": 25, "track": 9, "qtime": 0, "isDrum": true}, {"time": 48, "velocity": 84, "pitch": 69, "instrument": 25, "track": 9, "qtime": 0, "isDrum": true}, {"time": 50, "velocity": 0, "pitch": 35, "instrument": 25, "track": 9, "qtime": 2, "isDrum": true}, {"time": 50, "velocity": 0, "pitch": 42, "instrument": 25, "track": 9, "qtime": 2, "isDrum": true}, {"time": 50, "velocity": 0, "pitch": 69, "instrument": 25, "track": 9, "qtime": 2, "isDrum": true}, {"time": 51, "velocity": 0, "pitch": 64, "instrument": 25, "track": 9, "qtime": 3, "isDrum": true}, {"time": 54, "velocity": 84, "pitch": 42, "instrument": 25, "track": 9, "qtime": 6, "isDrum": true}, {"time": 54, "velocity": 84, "pitch": 60, "instrument": 25, "track": 9, "qtime": 6, "isDrum": true}, {"time": 54, "velocity": 84, "pitch": 69, "instrument": 25, "track": 9, "qtime": 6, "isDrum": true}, {"time": 56, "velocity": 0, "pitch": 42, "instrument": 25, "track": 9, "qtime": 8, "isDrum": true}, {"time": 56, "velocity": 0, "pitch": 69, "instrument": 25, "track": 9, "qtime": 8, "isDrum": true}, {"time": 57, "velocity": 0, "pitch": 60, "instrument": 25, "track": 9, "qtime": 9, "isDrum": true}, {"time": 57, "velocity": 84, "pitch": 62, "instrument": 25, "track": 9, "qtime": 9, "isDrum": true}, {"time": 57, "velocity": 84, "pitch": 69, "instrument": 25, "track": 9, "qtime": 9, "isDrum": true}, {"time": 59, "velocity": 0, "pitch": 62, "instrument": 25, "track": 9, "qtime": 11, "isDrum": true}, {"time": 59, "velocity": 0, "pitch": 69, "instrument": 25, "track": 9, "qtime": 11, "isDrum": true}, {"time": 60, "velocity": 84, "pitch": 37, "instrument": 25, "track": 9, "qtime": 12, "isDrum": true}, {"time": 60, "velocity": 84, "pitch": 42, "instrument": 25, "track": 9, "qtime": 12, "isDrum": true}, {"time": 60, "velocity": 84, "pitch": 64, "instrument": 25, "track": 9, "qtime": 12, "isDrum": true}, {"time": 60, "velocity": 84, "pitch": 69, "instrument": 25, "track": 9, "qtime": 12, "isDrum": true}, {"time": 62, "velocity": 0, "pitch": 37, "instrument": 25, "track": 9, "qtime": 14, "isDrum": true}, {"time": 62, "velocity": 0, "pitch": 42, "instrument": 25, "track": 9, "qtime": 14, "isDrum": true}, {"time": 62, "velocity": 0, "pitch": 69, "instrument": 25, "track": 9, "qtime": 14, "isDrum": true}, {"time": 63, "velocity": 0, "pitch": 64, "instrument": 25, "track": 9, "qtime": 15, "isDrum": true}, {"time": 66, "velocity": 84, "pitch": 35, "instrument": 25, "track": 9, "qtime": 18, "isDrum": true}, {"time": 66, "velocity": 84, "pitch": 42, "instrument": 25, "track": 9, "qtime": 18, "isDrum": true}, {"time": 66, "velocity": 84, "pitch": 64, "instrument": 25, "track": 9, "qtime": 18, "isDrum": true}, {"time": 66, "velocity": 84, "pitch": 69, "instrument": 25, "track": 9, "qtime": 18, "isDrum": true}, {"time": 68, "velocity": 0, "pitch": 35, "instrument": 25, "track": 9, "qtime": 20, "isDrum": true}, {"time": 68, "velocity": 0, "pitch": 42, "instrument": 25, "track": 9, "qtime": 20, "isDrum": true}, {"time": 68, "velocity": 0, "pitch": 69, "instrument": 25, "track": 9, "qtime": 20, "isDrum": true}, {"time": 69, "velocity": 84, "pitch": 69, "instrument": 25, "track": 9, "qtime": 21, "isDrum": true}, {"time": 71, "velocity": 0, "pitch": 69, "instrument": 25, "track": 9, "qtime": 23, "isDrum": true}, {"time": 72, "velocity": 0, "pitch": 64, "instrument": 25, "track": 9, "qtime": 24, "isDrum": true}, {"time": 72, "velocity": 84, "pitch": 42, "instrument": 25, "track": 9, "qtime": 24, "isDrum": true}, {"time": 72, "velocity": 84, "pitch": 63, "instrument": 25, "track": 9, "qtime": 24, "isDrum": true}, {"time": 72, "velocity": 84, "pitch": 69, "instrument": 25, "track": 9, "qtime": 24, "isDrum": true}, {"time": 74, "velocity": 0, "pitch": 42, "instrument": 25, "track": 9, "qtime": 26, "isDrum": true}, {"time": 74, "velocity": 0, "pitch": 69, "instrument": 25, "track": 9, "qtime": 26, "isDrum": true}, {"time": 75, "velocity": 0, "pitch": 63, "instrument": 25, "track": 9, "qtime": 27, "isDrum": true}, {"time": 75, "velocity": 84, "pitch": 60, "instrument": 25, "track": 9, "qtime": 27, "isDrum": true}, {"time": 77, "velocity": 0, "pitch": 60, "instrument": 25, "track": 9, "qtime": 29, "isDrum": true}, {"time": 78, "velocity": 84, "pitch": 46, "instrument": 25, "track": 9, "qtime": 30, "isDrum": true}, {"time": 78, "velocity": 84, "pitch": 64, "instrument": 25, "track": 9, "qtime": 30, "isDrum": true}, {"time": 78, "velocity": 84, "pitch": 69, "instrument": 25, "track": 9, "qtime": 30, "isDrum": true}, {"time": 80, "velocity": 0, "pitch": 46, "instrument": 25, "track": 9, "qtime": 32, "isDrum": true}, {"time": 80, "velocity": 0, "pitch": 69, "instrument": 25, "track": 9, "qtime": 32, "isDrum": true}, {"time": 81, "velocity": 0, "pitch": 64, "instrument": 25, "track": 9, "qtime": 33, "isDrum": true}, {"time": 84, "velocity": 84, "pitch": 37, "instrument": 25, "track": 9, "qtime": 36, "isDrum": true}, {"time": 84, "velocity": 84, "pitch": 42, "instrument": 25, "track": 9, "qtime": 36, "isDrum": true}, {"time": 84, "velocity": 84, "pitch": 60, "instrument": 25, "track": 9, "qtime": 36, "isDrum": true}, {"time": 84, "velocity": 84, "pitch": 69, "instrument": 25, "track": 9, "qtime": 36, "isDrum": true}, {"time": 86, "velocity": 0, "pitch": 42, "instrument": 25, "track": 9, "qtime": 38, "isDrum": true}, {"time": 86, "velocity": 0, "pitch": 69, "instrument": 25, "track": 9, "qtime": 38, "isDrum": true}, {"time": 87, "velocity": 0, "pitch": 37, "instrument": 25, "track": 9, "qtime": 39, "isDrum": true}, {"time": 87, "velocity": 0, "pitch": 60, "instrument": 25, "track": 9, "qtime": 39, "isDrum": true}, {"time": 90, "velocity": 84, "pitch": 35, "instrument": 25, "track": 9, "qtime": 42, "isDrum": true}, {"time": 90, "velocity": 84, "pitch": 42, "instrument": 25, "track": 9, "qtime": 42, "isDrum": true}, {"time": 90, "velocity": 84, "pitch": 46, "instrument": 25, "track": 9, "qtime": 42, "isDrum": true}, {"time": 90, "velocity": 84, "pitch": 69, "instrument": 25, "track": 9, "qtime": 42, "isDrum": true}, {"time": 91, "velocity": 0, "pitch": 46, "instrument": 25, "track": 9, "qtime": 43, "isDrum": true}, {"time": 92, "velocity": 0, "pitch": 35, "instrument": 25, "track": 9, "qtime": 44, "isDrum": true}, {"time": 92, "velocity": 0, "pitch": 42, "instrument": 25, "track": 9, "qtime": 44, "isDrum": true}, {"time": 92, "velocity": 0, "pitch": 69, "instrument": 25, "track": 9, "qtime": 44, "isDrum": true}, {"time": 93, "velocity": 84, "pitch": 69, "instrument": 25, "track": 9, "qtime": 45, "isDrum": true}, {"time": 95, "velocity": 0, "pitch": 69, "instrument": 25, "track": 9, "qtime": 47, "isDrum": true}, {"time": 96, "velocity": 84, "pitch": 35, "instrument": 25, "track": 9, "qtime": 0, "isDrum": true}, {"time": 96, "velocity": 84, "pitch": 42, "instrument": 25, "track": 9, "qtime": 0, "isDrum": true}, {"time": 96, "velocity": 84, "pitch": 64, "instrument": 25, "track": 9, "qtime": 0, "isDrum": true}, {"time": 96, "velocity": 84, "pitch": 69, "instrument": 25, "track": 9, "qtime": 0, "isDrum": true}, {"time": 98, "velocity": 0, "pitch": 35, "instrument": 25, "track": 9, "qtime": 2, "isDrum": true}, {"time": 98, "velocity": 0, "pitch": 42, "instrument": 25, "track": 9, "qtime": 2, "isDrum": true}, {"time": 98, "velocity": 0, "pitch": 69, "instrument": 25, "track": 9, "qtime": 2, "isDrum": true}, {"time": 99, "velocity": 0, "pitch": 64, "instrument": 25, "track": 9, "qtime": 3, "isDrum": true}, {"time": 102, "velocity": 84, "pitch": 42, "instrument": 25, "track": 9, "qtime": 6, "isDrum": true}, {"time": 102, "velocity": 84, "pitch": 60, "instrument": 25, "track": 9, "qtime": 6, "isDrum": true}, {"time": 102, "velocity": 84, "pitch": 69, "instrument": 25, "track": 9, "qtime": 6, "isDrum": true}, {"time": 104, "velocity": 0, "pitch": 42, "instrument": 25, "track": 9, "qtime": 8, "isDrum": true}, {"time": 104, "velocity": 0, "pitch": 69, "instrument": 25, "track": 9, "qtime": 8, "isDrum": true}, {"time": 105, "velocity": 0, "pitch": 60, "instrument": 25, "track": 9, "qtime": 9, "isDrum": true}, {"time": 105, "velocity": 84, "pitch": 62, "instrument": 25, "track": 9, "qtime": 9, "isDrum": true}, {"time": 105, "velocity": 84, "pitch": 69, "instrument": 25, "track": 9, "qtime": 9, "isDrum": true}, {"time": 107, "velocity": 0, "pitch": 62, "instrument": 25, "track": 9, "qtime": 11, "isDrum": true}, {"time": 107, "velocity": 0, "pitch": 69, "instrument": 25, "track": 9, "qtime": 11, "isDrum": true}, {"time": 108, "velocity": 84, "pitch": 37, "instrument": 25, "track": 9, "qtime": 12, "isDrum": true}, {"time": 108, "velocity": 84, "pitch": 42, "instrument": 25, "track": 9, "qtime": 12, "isDrum": true}, {"time": 108, "velocity": 84, "pitch": 64, "instrument": 25, "track": 9, "qtime": 12, "isDrum": true}, {"time": 108, "velocity": 84, "pitch": 69, "instrument": 25, "track": 9, "qtime": 12, "isDrum": true}, {"time": 110, "velocity": 0, "pitch": 37, "instrument": 25, "track": 9, "qtime": 14, "isDrum": true}, {"time": 110, "velocity": 0, "pitch": 42, "instrument": 25, "track": 9, "qtime": 14, "isDrum": true}, {"time": 110, "velocity": 0, "pitch": 69, "instrument": 25, "track": 9, "qtime": 14, "isDrum": true}, {"time": 111, "velocity": 0, "pitch": 64, "instrument": 25, "track": 9, "qtime": 15, "isDrum": true}, {"time": 114, "velocity": 84, "pitch": 35, "instrument": 25, "track": 9, "qtime": 18, "isDrum": true}, {"time": 114, "velocity": 84, "pitch": 42, "instrument": 25, "track": 9, "qtime": 18, "isDrum": true}, {"time": 114, "velocity": 84, "pitch": 64, "instrument": 25, "track": 9, "qtime": 18, "isDrum": true}, {"time": 114, "velocity": 84, "pitch": 69, "instrument": 25, "track": 9, "qtime": 18, "isDrum": true}, {"time": 116, "velocity": 0, "pitch": 35, "instrument": 25, "track": 9, "qtime": 20, "isDrum": true}, {"time": 116, "velocity": 0, "pitch": 42, "instrument": 25, "track": 9, "qtime": 20, "isDrum": true}, {"time": 116, "velocity": 0, "pitch": 69, "instrument": 25, "track": 9, "qtime": 20, "isDrum": true}, {"time": 117, "velocity": 84, "pitch": 69, "instrument": 25, "track": 9, "qtime": 21, "isDrum": true}, {"time": 119, "velocity": 0, "pitch": 69, "instrument": 25, "track": 9, "qtime": 23, "isDrum": true}, {"time": 120, "velocity": 0, "pitch": 64, "instrument": 25, "track": 9, "qtime": 24, "isDrum": true}, {"time": 120, "velocity": 84, "pitch": 42, "instrument": 25, "track": 9, "qtime": 24, "isDrum": true}, {"time": 120, "velocity": 84, "pitch": 63, "instrument": 25, "track": 9, "qtime": 24, "isDrum": true}, {"time": 120, "velocity": 84, "pitch": 69, "instrument": 25, "track": 9, "qtime": 24, "isDrum": true}, {"time": 122, "velocity": 0, "pitch": 42, "instrument": 25, "track": 9, "qtime": 26, "isDrum": true}, {"time": 122, "velocity": 0, "pitch": 69, "instrument": 25, "track": 9, "qtime": 26, "isDrum": true}, {"time": 123, "velocity": 0, "pitch": 63, "instrument": 25, "track": 9, "qtime": 27, "isDrum": true}, {"time": 123, "velocity": 84, "pitch": 60, "instrument": 25, "track": 9, "qtime": 27, "isDrum": true}, {"time": 125, "velocity": 0, "pitch": 60, "instrument": 25, "track": 9, "qtime": 29, "isDrum": true}, {"time": 126, "velocity": 84, "pitch": 46, "instrument": 25, "track": 9, "qtime": 30, "isDrum": true}, {"time": 126, "velocity": 84, "pitch": 64, "instrument": 25, "track": 9, "qtime": 30, "isDrum": true}, {"time": 126, "velocity": 84, "pitch": 69, "instrument": 25, "track": 9, "qtime": 30, "isDrum": true}, {"time": 128, "velocity": 0, "pitch": 46, "instrument": 25, "track": 9, "qtime": 32, "isDrum": true}, {"time": 128, "velocity": 0, "pitch": 69, "instrument": 25, "track": 9, "qtime": 32, "isDrum": true}, {"time": 129, "velocity": 0, "pitch": 64, "instrument": 25, "track": 9, "qtime": 33, "isDrum": true}, {"time": 132, "velocity": 84, "pitch": 37, "instrument": 25, "track": 9, "qtime": 36, "isDrum": true}, {"time": 132, "velocity": 84, "pitch": 42, "instrument": 25, "track": 9, "qtime": 36, "isDrum": true}, {"time": 132, "velocity": 84, "pitch": 60, "instrument": 25, "track": 9, "qtime": 36, "isDrum": true}, {"time": 132, "velocity": 84, "pitch": 69, "instrument": 25, "track": 9, "qtime": 36, "isDrum": true}, {"time": 134, "velocity": 0, "pitch": 42, "instrument": 25, "track": 9, "qtime": 38, "isDrum": true}, {"time": 134, "velocity": 0, "pitch": 69, "instrument": 25, "track": 9, "qtime": 38, "isDrum": true}, {"time": 135, "velocity": 0, "pitch": 37, "instrument": 25, "track": 9, "qtime": 39, "isDrum": true}, {"time": 135, "velocity": 0, "pitch": 60, "instrument": 25, "track": 9, "qtime": 39, "isDrum": true}, {"time": 138, "velocity": 84, "pitch": 35, "instrument": 25, "track": 9, "qtime": 42, "isDrum": true}, {"time": 138, "velocity": 84, "pitch": 42, "instrument": 25, "track": 9, "qtime": 42, "isDrum": true}, {"time": 138, "velocity": 84, "pitch": 46, "instrument": 25, "track": 9, "qtime": 42, "isDrum": true}, {"time": 138, "velocity": 84, "pitch": 69, "instrument": 25, "track": 9, "qtime": 42, "isDrum": true}, {"time": 139, "velocity": 0, "pitch": 46, "instrument": 25, "track": 9, "qtime": 43, "isDrum": true}, {"time": 140, "velocity": 0, "pitch": 35, "instrument": 25, "track": 9, "qtime": 44, "isDrum": true}, {"time": 140, "velocity": 0, "pitch": 42, "instrument": 25, "track": 9, "qtime": 44, "isDrum": true}, {"time": 140, "velocity": 0, "pitch": 69, "instrument": 25, "track": 9, "qtime": 44, "isDrum": true}, {"time": 141, "velocity": 84, "pitch": 69, "instrument": 25, "track": 9, "qtime": 45, "isDrum": true}, {"time": 143, "velocity": 0, "pitch": 69, "instrument": 25, "track": 9, "qtime": 47, "isDrum": true}, {"time": 144, "velocity": 84, "pitch": 35, "instrument": 25, "track": 9, "qtime": 0, "isDrum": true}, {"time": 144, "velocity": 84, "pitch": 42, "instrument": 25, "track": 9, "qtime": 0, "isDrum": true}, {"time": 144, "velocity": 84, "pitch": 64, "instrument": 25, "track": 9, "qtime": 0, "isDrum": true}, {"time": 144, "velocity": 84, "pitch": 69, "instrument": 25, "track": 9, "qtime": 0, "isDrum": true}, {"time": 146, "velocity": 0, "pitch": 35, "instrument": 25, "track": 9, "qtime": 2, "isDrum": true}, {"time": 146, "velocity": 0, "pitch": 42, "instrument": 25, "track": 9, "qtime": 2, "isDrum": true}, {"time": 146, "velocity": 0, "pitch": 69, "instrument": 25, "track": 9, "qtime": 2, "isDrum": true}, {"time": 147, "velocity": 0, "pitch": 64, "instrument": 25, "track": 9, "qtime": 3, "isDrum": true}, {"time": 150, "velocity": 84, "pitch": 42, "instrument": 25, "track": 9, "qtime": 6, "isDrum": true}, {"time": 150, "velocity": 84, "pitch": 60, "instrument": 25, "track": 9, "qtime": 6, "isDrum": true}, {"time": 150, "velocity": 84, "pitch": 69, "instrument": 25, "track": 9, "qtime": 6, "isDrum": true}, {"time": 152, "velocity": 0, "pitch": 42, "instrument": 25, "track": 9, "qtime": 8, "isDrum": true}, {"time": 152, "velocity": 0, "pitch": 69, "instrument": 25, "track": 9, "qtime": 8, "isDrum": true}, {"time": 153, "velocity": 0, "pitch": 60, "instrument": 25, "track": 9, "qtime": 9, "isDrum": true}, {"time": 153, "velocity": 84, "pitch": 62, "instrument": 25, "track": 9, "qtime": 9, "isDrum": true}, {"time": 153, "velocity": 84, "pitch": 69, "instrument": 25, "track": 9, "qtime": 9, "isDrum": true}, {"time": 155, "velocity": 0, "pitch": 62, "instrument": 25, "track": 9, "qtime": 11, "isDrum": true}, {"time": 155, "velocity": 0, "pitch": 69, "instrument": 25, "track": 9, "qtime": 11, "isDrum": true}, {"time": 156, "velocity": 84, "pitch": 37, "instrument": 25, "track": 9, "qtime": 12, "isDrum": true}, {"time": 156, "velocity": 84, "pitch": 42, "instrument": 25, "track": 9, "qtime": 12, "isDrum": true}, {"time": 156, "velocity": 84, "pitch": 64, "instrument": 25, "track": 9, "qtime": 12, "isDrum": true}, {"time": 156, "velocity": 84, "pitch": 69, "instrument": 25, "track": 9, "qtime": 12, "isDrum": true}, {"time": 158, "velocity": 0, "pitch": 37, "instrument": 25, "track": 9, "qtime": 14, "isDrum": true}, {"time": 158, "velocity": 0, "pitch": 42, "instrument": 25, "track": 9, "qtime": 14, "isDrum": true}, {"time": 158, "velocity": 0, "pitch": 69, "instrument": 25, "track": 9, "qtime": 14, "isDrum": true}, {"time": 159, "velocity": 0, "pitch": 64, "instrument": 25, "track": 9, "qtime": 15, "isDrum": true}, {"time": 162, "velocity": 84, "pitch": 35, "instrument": 25, "track": 9, "qtime": 18, "isDrum": true}, {"time": 162, "velocity": 84, "pitch": 42, "instrument": 25, "track": 9, "qtime": 18, "isDrum": true}, {"time": 162, "velocity": 84, "pitch": 64, "instrument": 25, "track": 9, "qtime": 18, "isDrum": true}, {"time": 162, "velocity": 84, "pitch": 69, "instrument": 25, "track": 9, "qtime": 18, "isDrum": true}, {"time": 164, "velocity": 0, "pitch": 35, "instrument": 25, "track": 9, "qtime": 20, "isDrum": true}, {"time": 164, "velocity": 0, "pitch": 42, "instrument": 25, "track": 9, "qtime": 20, "isDrum": true}, {"time": 164, "velocity": 0, "pitch": 69, "instrument": 25, "track": 9, "qtime": 20, "isDrum": true}, {"time": 165, "velocity": 84, "pitch": 69, "instrument": 25, "track": 9, "qtime": 21, "isDrum": true}, {"time": 167, "velocity": 0, "pitch": 69, "instrument": 25, "track": 9, "qtime": 23, "isDrum": true}, {"time": 168, "velocity": 0, "pitch": 64, "instrument": 25, "track": 9, "qtime": 24, "isDrum": true}, {"time": 168, "velocity": 84, "pitch": 42, "instrument": 25, "track": 9, "qtime": 24, "isDrum": true}, {"time": 168, "velocity": 84, "pitch": 63, "instrument": 25, "track": 9, "qtime": 24, "isDrum": true}, {"time": 168, "velocity": 84, "pitch": 69, "instrument": 25, "track": 9, "qtime": 24, "isDrum": true}, {"time": 170, "velocity": 0, "pitch": 42, "instrument": 25, "track": 9, "qtime": 26, "isDrum": true}, {"time": 170, "velocity": 0, "pitch": 69, "instrument": 25, "track": 9, "qtime": 26, "isDrum": true}, {"time": 171, "velocity": 0, "pitch": 63, "instrument": 25, "track": 9, "qtime": 27, "isDrum": true}, {"time": 171, "velocity": 84, "pitch": 60, "instrument": 25, "track": 9, "qtime": 27, "isDrum": true}, {"time": 173, "velocity": 0, "pitch": 60, "instrument": 25, "track": 9, "qtime": 29, "isDrum": true}, {"time": 174, "velocity": 84, "pitch": 46, "instrument": 25, "track": 9, "qtime": 30, "isDrum": true}, {"time": 174, "velocity": 84, "pitch": 64, "instrument": 25, "track": 9, "qtime": 30, "isDrum": true}, {"time": 174, "velocity": 84, "pitch": 69, "instrument": 25, "track": 9, "qtime": 30, "isDrum": true}, {"time": 176, "velocity": 0, "pitch": 46, "instrument": 25, "track": 9, "qtime": 32, "isDrum": true}, {"time": 176, "velocity": 0, "pitch": 69, "instrument": 25, "track": 9, "qtime": 32, "isDrum": true}, {"time": 177, "velocity": 0, "pitch": 64, "instrument": 25, "track": 9, "qtime": 33, "isDrum": true}, {"time": 180, "velocity": 84, "pitch": 37, "instrument": 25, "track": 9, "qtime": 36, "isDrum": true}, {"time": 180, "velocity": 84, "pitch": 42, "instrument": 25, "track": 9, "qtime": 36, "isDrum": true}, {"time": 180, "velocity": 84, "pitch": 60, "instrument": 25, "track": 9, "qtime": 36, "isDrum": true}, {"time": 180, "velocity": 84, "pitch": 69, "instrument": 25, "track": 9, "qtime": 36, "isDrum": true}, {"time": 182, "velocity": 0, "pitch": 42, "instrument": 25, "track": 9, "qtime": 38, "isDrum": true}, {"time": 182, "velocity": 0, "pitch": 69, "instrument": 25, "track": 9, "qtime": 38, "isDrum": true}, {"time": 183, "velocity": 0, "pitch": 37, "instrument": 25, "track": 9, "qtime": 39, "isDrum": true}, {"time": 183, "velocity": 0, "pitch": 60, "instrument": 25, "track": 9, "qtime": 39, "isDrum": true}, {"time": 186, "velocity": 84, "pitch": 35, "instrument": 25, "track": 9, "qtime": 42, "isDrum": true}, {"time": 186, "velocity": 84, "pitch": 42, "instrument": 25, "track": 9, "qtime": 42, "isDrum": true}, {"time": 186, "velocity": 84, "pitch": 46, "instrument": 25, "track": 9, "qtime": 42, "isDrum": true}, {"time": 186, "velocity": 84, "pitch": 69, "instrument": 25, "track": 9, "qtime": 42, "isDrum": true}, {"time": 187, "velocity": 0, "pitch": 46, "instrument": 25, "track": 9, "qtime": 43, "isDrum": true}, {"time": 188, "velocity": 0, "pitch": 35, "instrument": 25, "track": 9, "qtime": 44, "isDrum": true}, {"time": 188, "velocity": 0, "pitch": 42, "instrument": 25, "track": 9, "qtime": 44, "isDrum": true}, {"time": 188, "velocity": 0, "pitch": 69, "instrument": 25, "track": 9, "qtime": 44, "isDrum": true}, {"time": 189, "velocity": 84, "pitch": 69, "instrument": 25, "track": 9, "qtime": 45, "isDrum": true}, {"time": 191, "velocity": 0, "pitch": 69, "instrument": 25, "track": 9, "qtime": 47, "isDrum": true}], "resolution": 12, "tempo": 78, "minPitch": 28, "maxPitch": 81, "validSegments": [0], "validTracks": [63]}, "audio": "https://www.sfu.ca/~jeffe/examples/stem_calm_drumsb.mp3"}, {"src": "gen/stem_calm_2track.json", "highlights": [[], [], [], [0, 1, 2, 3], [], [0, 1, 2, 3]], "caption": "Resample the drum track and the lead guitar track in 17a.", "sample_id": "17d", "mixer": [8, 8, 6, 6, 8, 8], "tempo": 78, "json": {"tracks": [{"bars": [{"events": [0, 1, 2, 3, 4, 5, 6, 7, 8, 9], "isFourFour": true, "hasNotes": true, "time": 0}, {"events": [10, 11, 12, 13, 14, 15, 16, 17], "isFourFour": true, "hasNotes": true, "time": 48}, {"events": [18, 19, 20, 21, 22, 23, 24], "isFourFour": true, "hasNotes": true, "time": 96}, {"events": [25, 26, 27, 28, 29], "isFourFour": true, "hasNotes": true, "time": 144}], "isDrum": false, "minPitch": 28, "maxPitch": 40, "instrument": 35, "avPolyphony": 1, "noteDensity": 4, "noteDensityV2": 3}, {"bars": [{"events": [30, 31, 32], "isFourFour": true, "hasNotes": true, "time": 0}, {"events": [33, 34, 35, 36, 37], "isFourFour": true, "hasNotes": true, "time": 48}, {"events": [38, 39, 40, 41, 42, 43, 44, 45, 46, 47], "isFourFour": true, "hasNotes": true, "time": 96}, {"events": [48, 49], "isFourFour": true, "hasNotes": true, "time": 144}], "isDrum": false, "minPitch": 50, "maxPitch": 61, "instrument": 89, "avPolyphony": 1.98064518, "noteDensity": 1, "noteDensityV2": 3}, {"bars": [{"events": [50, 51, 52, 53, 54, 55, 56, 57, 58, 59], "isFourFour": true, "hasNotes": true, "time": 0}, {"events": [60, 61, 62, 63, 64, 65, 66, 67, 68, 69, 70, 71, 72, 73, 74, 75, 76, 77, 78, 79, 80, 81, 82, 83], "isFourFour": true, "hasNotes": true, "time": 48}, {"events": [84, 85, 86, 87, 88, 89, 90, 91, 92, 93, 94, 95, 96, 97, 98, 99, 100, 101, 102], "isFourFour": true, "hasNotes": true, "time": 96}, {"events": [103, 104, 105, 106, 107, 108, 109, 110, 111], "isFourFour": true, "hasNotes": true, "time": 144}], "isDrum": false, "minPitch": 47, "maxPitch": 81, "instrument": 48, "avPolyphony": 4.14583349, "noteDensity": 8, "noteDensityV2": 7}, {"bars": [{"events": [170, 171, 172, 173, 174, 175, 176, 177, 178, 179, 180, 181, 182, 183, 184, 185, 186, 187, 188, 189, 190, 191, 192, 193, 194, 195, 196, 197, 198, 199, 200, 201], "isFourFour": true, "hasNotes": true, "time": 0}, {"events": [202, 203, 204, 205, 206, 207, 208, 209, 210, 211, 212, 213, 214, 215, 216, 217, 218, 219, 220, 221, 222, 223, 224, 225, 226, 227, 228, 229, 230, 231, 232, 233, 234, 235, 236, 237, 238, 239, 240, 241], "isFourFour": true, "hasNotes": true, "time": 48}, {"events": [242, 243, 244, 245, 246, 247, 248, 249, 250, 251, 252, 253, 254, 255, 256, 257, 258, 259, 260, 261, 262, 263, 264, 265, 266, 267, 268, 269, 270, 271, 272, 273, 274, 275, 276, 277, 278, 279, 280, 281], "isFourFour": true, "hasNotes": true, "time": 96}, {"events": [282, 283, 284, 285, 286, 287, 288, 289, 290, 291, 292, 293, 294, 295, 296, 297, 298, 299, 300, 301, 302, 303, 304, 305, 306, 307, 308, 309, 310, 311, 312, 313, 314, 315, 316, 317, 318, 319, 320, 321], "isFourFour": true, "hasNotes": true, "time": 144}], "isDrum": true, "minPitch": 35, "maxPitch": 59, "instrument": 0, "avPolyphony": 1.4, "noteDensity": 9, "noteDensityV2": 8}, {"bars": [{"events": [112, 113, 114, 115, 116, 117, 118, 119, 120, 121], "isFourFour": true, "hasNotes": true, "time": 0}, {"events": [122, 123, 124, 125, 126, 127, 128, 129, 130, 131, 132, 133, 134, 135, 136, 137, 138, 139, 140, 141, 142], "isFourFour": true, "hasNotes": true, "time": 48}, {"events": [143, 144, 145, 146, 147, 148, 149, 150, 151, 152, 153, 154, 155, 156, 157, 158, 159, 160, 161], "isFourFour": true, "hasNotes": true, "time": 96}, {"events": [162, 163, 164, 165, 166, 167, 168, 169], "isFourFour": true, "hasNotes": true, "time": 144}], "isDrum": false, "minPitch": 56, "maxPitch": 66, "instrument": 25, "avPolyphony": 2.25308633, "noteDensity": 8, "noteDensityV2": 2}, {"bars": [{"events": [322, 323, 324, 325, 326, 327, 328, 329, 330, 331, 332, 333, 334, 335], "isFourFour": true, "hasNotes": true, "time": 0}, {"events": [336, 337, 338, 339, 340, 341, 342, 343, 344, 345, 346, 347, 348, 349, 350, 351, 352, 353, 354, 355, 356, 357, 358, 359, 360], "isFourFour": true, "hasNotes": true, "time": 48}, {"events": [361, 362, 363, 364, 365, 366, 367, 368, 369, 370, 371, 372, 373, 374, 375, 376, 377, 378, 379, 380, 381, 382], "isFourFour": true, "hasNotes": true, "time": 96}, {"events": [383, 384, 385, 386, 387, 388, 389, 390, 391, 392, 393, 394, 395, 396, 397, 398, 399, 400, 401, 402, 403, 404, 405, 406, 407, 408, 409, 410, 411, 412, 413, 414], "isFourFour": true, "hasNotes": true, "time": 144}], "isDrum": false, "minPitch": 54, "maxPitch": 71, "instrument": 26, "avPolyphony": 1.09890115, "noteDensity": 9, "noteDensityV2": 8}], "events": [{"time": 0, "velocity": 108, "pitch": 33, "instrument": 35, "track": 0, "qtime": 0, "isDrum": false}, {"time": 20, "velocity": 0, "pitch": 33, "instrument": 35, "track": 0, "qtime": 20, "isDrum": false}, {"time": 20, "velocity": 108, "pitch": 28, "instrument": 35, "track": 0, "qtime": 20, "isDrum": false}, {"time": 23, "velocity": 0, "pitch": 28, "instrument": 35, "track": 0, "qtime": 23, "isDrum": false}, {"time": 23, "velocity": 108, "pitch": 33, "instrument": 35, "track": 0, "qtime": 23, "isDrum": false}, {"time": 33, "velocity": 0, "pitch": 33, "instrument": 35, "track": 0, "qtime": 33, "isDrum": false}, {"time": 33, "velocity": 108, "pitch": 28, "instrument": 35, "track": 0, "qtime": 33, "isDrum": false}, {"time": 35, "velocity": 0, "pitch": 28, "instrument": 35, "track": 0, "qtime": 35, "isDrum": false}, {"time": 36, "velocity": 108, "pitch": 32, "instrument": 35, "track": 0, "qtime": 36, "isDrum": false}, {"time": 48, "velocity": 0, "pitch": 32, "instrument": 35, "track": 0, "qtime": 48, "isDrum": false}, {"time": 48, "velocity": 108, "pitch": 30, "instrument": 35, "track": 0, "qtime": 0, "isDrum": false}, {"time": 65, "velocity": 0, "pitch": 30, "instrument": 35, "track": 0, "qtime": 17, "isDrum": false}, {"time": 65, "velocity": 108, "pitch": 33, "instrument": 35, "track": 0, "qtime": 17, "isDrum": false}, {"time": 69, "velocity": 0, "pitch": 33, "instrument": 35, "track": 0, "qtime": 21, "isDrum": false}, {"time": 69, "velocity": 108, "pitch": 35, "instrument": 35, "track": 0, "qtime": 21, "isDrum": false}, {"time": 72, "velocity": 0, "pitch": 35, "instrument": 35, "track": 0, "qtime": 24, "isDrum": false}, {"time": 72, "velocity": 108, "pitch": 37, "instrument": 35, "track": 0, "qtime": 24, "isDrum": false}, {"time": 95, "velocity": 0, "pitch": 37, "instrument": 35, "track": 0, "qtime": 47, "isDrum": false}, {"time": 96, "velocity": 108, "pitch": 38, "instrument": 35, "track": 0, "qtime": 0, "isDrum": false}, {"time": 116, "velocity": 0, "pitch": 38, "instrument": 35, "track": 0, "qtime": 20, "isDrum": false}, {"time": 117, "velocity": 108, "pitch": 37, "instrument": 35, "track": 0, "qtime": 21, "isDrum": false}, {"time": 118, "velocity": 0, "pitch": 37, "instrument": 35, "track": 0, "qtime": 22, "isDrum": false}, {"time": 120, "velocity": 108, "pitch": 37, "instrument": 35, "track": 0, "qtime": 24, "isDrum": false}, {"time": 143, "velocity": 0, "pitch": 37, "instrument": 35, "track": 0, "qtime": 47, "isDrum": false}, {"time": 143, "velocity": 108, "pitch": 35, "instrument": 35, "track": 0, "qtime": 47, "isDrum": false}, {"time": 163, "velocity": 0, "pitch": 35, "instrument": 35, "track": 0, "qtime": 19, "isDrum": false}, {"time": 165, "velocity": 108, "pitch": 35, "instrument": 35, "track": 0, "qtime": 21, "isDrum": false}, {"time": 168, "velocity": 0, "pitch": 35, "instrument": 35, "track": 0, "qtime": 24, "isDrum": false}, {"time": 168, "velocity": 108, "pitch": 40, "instrument": 35, "track": 0, "qtime": 24, "isDrum": false}, {"time": 192, "velocity": 0, "pitch": 40, "instrument": 35, "track": 0, "qtime": 48, "isDrum": false}, {"time": 35, "velocity": 108, "pitch": 56, "instrument": 89, "track": 1, "qtime": 35, "isDrum": false}, {"time": 35, "velocity": 108, "pitch": 61, "instrument": 89, "track": 1, "qtime": 35, "isDrum": false}, {"time": 48, "velocity": 0, "pitch": 56, "instrument": 89, "track": 1, "qtime": 48, "isDrum": false}, {"time": 48, "velocity": 108, "pitch": 57, "instrument": 89, "track": 1, "qtime": 0, "isDrum": false}, {"time": 72, "velocity": 0, "pitch": 57, "instrument": 89, "track": 1, "qtime": 24, "isDrum": false}, {"time": 72, "velocity": 108, "pitch": 56, "instrument": 89, "track": 1, "qtime": 24, "isDrum": false}, {"time": 96, "velocity": 0, "pitch": 56, "instrument": 89, "track": 1, "qtime": 48, "isDrum": false}, {"time": 96, "velocity": 0, "pitch": 61, "instrument": 89, "track": 1, "qtime": 48, "isDrum": false}, {"time": 96, "velocity": 108, "pitch": 54, "instrument": 89, "track": 1, "qtime": 0, "isDrum": false}, {"time": 96, "velocity": 108, "pitch": 57, "instrument": 89, "track": 1, "qtime": 0, "isDrum": false}, {"time": 119, "velocity": 108, "pitch": 52, "instrument": 89, "track": 1, "qtime": 23, "isDrum": false}, {"time": 120, "velocity": 0, "pitch": 54, "instrument": 89, "track": 1, "qtime": 24, "isDrum": false}, {"time": 120, "velocity": 108, "pitch": 56, "instrument": 89, "track": 1, "qtime": 24, "isDrum": false}, {"time": 121, "velocity": 0, "pitch": 57, "instrument": 89, "track": 1, "qtime": 25, "isDrum": false}, {"time": 143, "velocity": 0, "pitch": 52, "instrument": 89, "track": 1, "qtime": 47, "isDrum": false}, {"time": 143, "velocity": 0, "pitch": 56, "instrument": 89, "track": 1, "qtime": 47, "isDrum": false}, {"time": 143, "velocity": 108, "pitch": 50, "instrument": 89, "track": 1, "qtime": 47, "isDrum": false}, {"time": 143, "velocity": 108, "pitch": 54, "instrument": 89, "track": 1, "qtime": 47, "isDrum": false}, {"time": 185, "velocity": 0, "pitch": 54, "instrument": 89, "track": 1, "qtime": 41, "isDrum": false}, {"time": 190, "velocity": 0, "pitch": 50, "instrument": 89, "track": 1, "qtime": 46, "isDrum": false}, {"time": 0, "velocity": 84, "pitch": 57, "instrument": 48, "track": 2, "qtime": 0, "isDrum": false}, {"time": 0, "velocity": 84, "pitch": 61, "instrument": 48, "track": 2, "qtime": 0, "isDrum": false}, {"time": 23, "velocity": 0, "pitch": 57, "instrument": 48, "track": 2, "qtime": 23, "isDrum": false}, {"time": 24, "velocity": 84, "pitch": 57, "instrument": 48, "track": 2, "qtime": 24, "isDrum": false}, {"time": 36, "velocity": 0, "pitch": 61, "instrument": 48, "track": 2, "qtime": 36, "isDrum": false}, {"time": 36, "velocity": 84, "pitch": 56, "instrument": 48, "track": 2, "qtime": 36, "isDrum": false}, {"time": 36, "velocity": 84, "pitch": 61, "instrument": 48, "track": 2, "qtime": 36, "isDrum": false}, {"time": 36, "velocity": 84, "pitch": 64, "instrument": 48, "track": 2, "qtime": 36, "isDrum": false}, {"time": 38, "velocity": 0, "pitch": 57, "instrument": 48, "track": 2, "qtime": 38, "isDrum": false}, {"time": 48, "velocity": 0, "pitch": 56, "instrument": 48, "track": 2, "qtime": 48, "isDrum": false}, {"time": 48, "velocity": 84, "pitch": 54, "instrument": 48, "track": 2, "qtime": 0, "isDrum": false}, {"time": 48, "velocity": 84, "pitch": 69, "instrument": 48, "track": 2, "qtime": 0, "isDrum": false}, {"time": 48, "velocity": 84, "pitch": 73, "instrument": 48, "track": 2, "qtime": 0, "isDrum": false}, {"time": 48, "velocity": 84, "pitch": 78, "instrument": 48, "track": 2, "qtime": 0, "isDrum": false}, {"time": 49, "velocity": 0, "pitch": 64, "instrument": 48, "track": 2, "qtime": 1, "isDrum": false}, {"time": 71, "velocity": 84, "pitch": 80, "instrument": 48, "track": 2, "qtime": 23, "isDrum": false}, {"time": 72, "velocity": 0, "pitch": 54, "instrument": 48, "track": 2, "qtime": 24, "isDrum": false}, {"time": 72, "velocity": 0, "pitch": 61, "instrument": 48, "track": 2, "qtime": 24, "isDrum": false}, {"time": 72, "velocity": 0, "pitch": 69, "instrument": 48, "track": 2, "qtime": 24, "isDrum": false}, {"time": 72, "velocity": 0, "pitch": 78, "instrument": 48, "track": 2, "qtime": 24, "isDrum": false}, {"time": 72, "velocity": 84, "pitch": 52, "instrument": 48, "track": 2, "qtime": 24, "isDrum": false}, {"time": 72, "velocity": 84, "pitch": 59, "instrument": 48, "track": 2, "qtime": 24, "isDrum": false}, {"time": 72, "velocity": 84, "pitch": 68, "instrument": 48, "track": 2, "qtime": 24, "isDrum": false}, {"time": 72, "velocity": 84, "pitch": 76, "instrument": 48, "track": 2, "qtime": 24, "isDrum": false}, {"time": 73, "velocity": 0, "pitch": 73, "instrument": 48, "track": 2, "qtime": 25, "isDrum": false}, {"time": 95, "velocity": 84, "pitch": 57, "instrument": 48, "track": 2, "qtime": 47, "isDrum": false}, {"time": 95, "velocity": 84, "pitch": 66, "instrument": 48, "track": 2, "qtime": 47, "isDrum": false}, {"time": 95, "velocity": 84, "pitch": 78, "instrument": 48, "track": 2, "qtime": 47, "isDrum": false}, {"time": 95, "velocity": 84, "pitch": 81, "instrument": 48, "track": 2, "qtime": 47, "isDrum": false}, {"time": 96, "velocity": 0, "pitch": 52, "instrument": 48, "track": 2, "qtime": 48, "isDrum": false}, {"time": 96, "velocity": 0, "pitch": 59, "instrument": 48, "track": 2, "qtime": 48, "isDrum": false}, {"time": 96, "velocity": 0, "pitch": 68, "instrument": 48, "track": 2, "qtime": 48, "isDrum": false}, {"time": 96, "velocity": 0, "pitch": 76, "instrument": 48, "track": 2, "qtime": 48, "isDrum": false}, {"time": 96, "velocity": 0, "pitch": 80, "instrument": 48, "track": 2, "qtime": 48, "isDrum": false}, {"time": 96, "velocity": 84, "pitch": 50, "instrument": 48, "track": 2, "qtime": 0, "isDrum": false}, {"time": 119, "velocity": 84, "pitch": 56, "instrument": 48, "track": 2, "qtime": 23, "isDrum": false}, {"time": 119, "velocity": 84, "pitch": 64, "instrument": 48, "track": 2, "qtime": 23, "isDrum": false}, {"time": 120, "velocity": 0, "pitch": 50, "instrument": 48, "track": 2, "qtime": 24, "isDrum": false}, {"time": 120, "velocity": 0, "pitch": 57, "instrument": 48, "track": 2, "qtime": 24, "isDrum": false}, {"time": 120, "velocity": 84, "pitch": 49, "instrument": 48, "track": 2, "qtime": 24, "isDrum": false}, {"time": 120, "velocity": 84, "pitch": 76, "instrument": 48, "track": 2, "qtime": 24, "isDrum": false}, {"time": 120, "velocity": 84, "pitch": 80, "instrument": 48, "track": 2, "qtime": 24, "isDrum": false}, {"time": 121, "velocity": 0, "pitch": 66, "instrument": 48, "track": 2, "qtime": 25, "isDrum": false}, {"time": 121, "velocity": 0, "pitch": 78, "instrument": 48, "track": 2, "qtime": 25, "isDrum": false}, {"time": 121, "velocity": 0, "pitch": 81, "instrument": 48, "track": 2, "qtime": 25, "isDrum": false}, {"time": 143, "velocity": 0, "pitch": 56, "instrument": 48, "track": 2, "qtime": 47, "isDrum": false}, {"time": 143, "velocity": 0, "pitch": 80, "instrument": 48, "track": 2, "qtime": 47, "isDrum": false}, {"time": 143, "velocity": 84, "pitch": 54, "instrument": 48, "track": 2, "qtime": 47, "isDrum": false}, {"time": 143, "velocity": 84, "pitch": 74, "instrument": 48, "track": 2, "qtime": 47, "isDrum": false}, {"time": 143, "velocity": 84, "pitch": 78, "instrument": 48, "track": 2, "qtime": 47, "isDrum": false}, {"time": 144, "velocity": 0, "pitch": 49, "instrument": 48, "track": 2, "qtime": 48, "isDrum": false}, {"time": 144, "velocity": 0, "pitch": 64, "instrument": 48, "track": 2, "qtime": 48, "isDrum": false}, {"time": 144, "velocity": 0, "pitch": 76, "instrument": 48, "track": 2, "qtime": 48, "isDrum": false}, {"time": 144, "velocity": 84, "pitch": 47, "instrument": 48, "track": 2, "qtime": 0, "isDrum": false}, {"time": 168, "velocity": 84, "pitch": 52, "instrument": 48, "track": 2, "qtime": 24, "isDrum": false}, {"time": 168, "velocity": 84, "pitch": 59, "instrument": 48, "track": 2, "qtime": 24, "isDrum": false}, {"time": 169, "velocity": 0, "pitch": 47, "instrument": 48, "track": 2, "qtime": 25, "isDrum": false}, {"time": 169, "velocity": 0, "pitch": 54, "instrument": 48, "track": 2, "qtime": 25, "isDrum": false}, {"time": 192, "velocity": 0, "pitch": 52, "instrument": 48, "track": 2, "qtime": 48, "isDrum": false}, {"time": 192, "velocity": 0, "pitch": 59, "instrument": 48, "track": 2, "qtime": 48, "isDrum": false}, {"time": 192, "velocity": 0, "pitch": 74, "instrument": 48, "track": 2, "qtime": 48, "isDrum": false}, {"time": 192, "velocity": 0, "pitch": 78, "instrument": 48, "track": 2, "qtime": 48, "isDrum": false}, {"time": 0, "velocity": 108, "pitch": 61, "instrument": 25, "track": 3, "qtime": 0, "isDrum": false}, {"time": 0, "velocity": 108, "pitch": 64, "instrument": 25, "track": 3, "qtime": 0, "isDrum": false}, {"time": 18, "velocity": 0, "pitch": 61, "instrument": 25, "track": 3, "qtime": 18, "isDrum": false}, {"time": 18, "velocity": 108, "pitch": 57, "instrument": 25, "track": 3, "qtime": 18, "isDrum": false}, {"time": 19, "velocity": 0, "pitch": 64, "instrument": 25, "track": 3, "qtime": 19, "isDrum": false}, {"time": 24, "velocity": 108, "pitch": 64, "instrument": 25, "track": 3, "qtime": 24, "isDrum": false}, {"time": 35, "velocity": 0, "pitch": 57, "instrument": 25, "track": 3, "qtime": 35, "isDrum": false}, {"time": 36, "velocity": 0, "pitch": 64, "instrument": 25, "track": 3, "qtime": 36, "isDrum": false}, {"time": 36, "velocity": 108, "pitch": 61, "instrument": 25, "track": 3, "qtime": 36, "isDrum": false}, {"time": 40, "velocity": 0, "pitch": 61, "instrument": 25, "track": 3, "qtime": 40, "isDrum": false}, {"time": 49, "velocity": 108, "pitch": 57, "instrument": 25, "track": 3, "qtime": 1, "isDrum": false}, {"time": 49, "velocity": 108, "pitch": 61, "instrument": 25, "track": 3, "qtime": 1, "isDrum": false}, {"time": 49, "velocity": 108, "pitch": 66, "instrument": 25, "track": 3, "qtime": 1, "isDrum": false}, {"time": 55, "velocity": 0, "pitch": 61, "instrument": 25, "track": 3, "qtime": 7, "isDrum": false}, {"time": 56, "velocity": 0, "pitch": 66, "instrument": 25, "track": 3, "qtime": 8, "isDrum": false}, {"time": 57, "velocity": 0, "pitch": 57, "instrument": 25, "track": 3, "qtime": 9, "isDrum": false}, {"time": 57, "velocity": 108, "pitch": 57, "instrument": 25, "track": 3, "qtime": 9, "isDrum": false}, {"time": 58, "velocity": 108, "pitch": 61, "instrument": 25, "track": 3, "qtime": 10, "isDrum": false}, {"time": 58, "velocity": 108, "pitch": 66, "instrument": 25, "track": 3, "qtime": 10, "isDrum": false}, {"time": 63, "velocity": 0, "pitch": 61, "instrument": 25, "track": 3, "qtime": 15, "isDrum": false}, {"time": 66, "velocity": 108, "pitch": 61, "instrument": 25, "track": 3, "qtime": 18, "isDrum": false}, {"time": 67, "velocity": 0, "pitch": 57, "instrument": 25, "track": 3, "qtime": 19, "isDrum": false}, {"time": 67, "velocity": 0, "pitch": 66, "instrument": 25, "track": 3, "qtime": 19, "isDrum": false}, {"time": 69, "velocity": 0, "pitch": 61, "instrument": 25, "track": 3, "qtime": 21, "isDrum": false}, {"time": 72, "velocity": 108, "pitch": 56, "instrument": 25, "track": 3, "qtime": 24, "isDrum": false}, {"time": 72, "velocity": 108, "pitch": 61, "instrument": 25, "track": 3, "qtime": 24, "isDrum": false}, {"time": 72, "velocity": 108, "pitch": 64, "instrument": 25, "track": 3, "qtime": 24, "isDrum": false}, {"time": 88, "velocity": 0, "pitch": 56, "instrument": 25, "track": 3, "qtime": 40, "isDrum": false}, {"time": 88, "velocity": 0, "pitch": 64, "instrument": 25, "track": 3, "qtime": 40, "isDrum": false}, {"time": 89, "velocity": 0, "pitch": 61, "instrument": 25, "track": 3, "qtime": 41, "isDrum": false}, {"time": 95, "velocity": 108, "pitch": 57, "instrument": 25, "track": 3, "qtime": 47, "isDrum": false}, {"time": 96, "velocity": 108, "pitch": 62, "instrument": 25, "track": 3, "qtime": 0, "isDrum": false}, {"time": 96, "velocity": 108, "pitch": 66, "instrument": 25, "track": 3, "qtime": 0, "isDrum": false}, {"time": 103, "velocity": 0, "pitch": 57, "instrument": 25, "track": 3, "qtime": 7, "isDrum": false}, {"time": 103, "velocity": 0, "pitch": 62, "instrument": 25, "track": 3, "qtime": 7, "isDrum": false}, {"time": 103, "velocity": 0, "pitch": 66, "instrument": 25, "track": 3, "qtime": 7, "isDrum": false}, {"time": 105, "velocity": 108, "pitch": 57, "instrument": 25, "track": 3, "qtime": 9, "isDrum": false}, {"time": 105, "velocity": 108, "pitch": 62, "instrument": 25, "track": 3, "qtime": 9, "isDrum": false}, {"time": 105, "velocity": 108, "pitch": 66, "instrument": 25, "track": 3, "qtime": 9, "isDrum": false}, {"time": 109, "velocity": 0, "pitch": 62, "instrument": 25, "track": 3, "qtime": 13, "isDrum": false}, {"time": 114, "velocity": 0, "pitch": 66, "instrument": 25, "track": 3, "qtime": 18, "isDrum": false}, {"time": 114, "velocity": 108, "pitch": 62, "instrument": 25, "track": 3, "qtime": 18, "isDrum": false}, {"time": 115, "velocity": 0, "pitch": 57, "instrument": 25, "track": 3, "qtime": 19, "isDrum": false}, {"time": 118, "velocity": 0, "pitch": 62, "instrument": 25, "track": 3, "qtime": 22, "isDrum": false}, {"time": 120, "velocity": 108, "pitch": 56, "instrument": 25, "track": 3, "qtime": 24, "isDrum": false}, {"time": 120, "velocity": 108, "pitch": 61, "instrument": 25, "track": 3, "qtime": 24, "isDrum": false}, {"time": 120, "velocity": 108, "pitch": 64, "instrument": 25, "track": 3, "qtime": 24, "isDrum": false}, {"time": 141, "velocity": 0, "pitch": 56, "instrument": 25, "track": 3, "qtime": 45, "isDrum": false}, {"time": 141, "velocity": 0, "pitch": 61, "instrument": 25, "track": 3, "qtime": 45, "isDrum": false}, {"time": 142, "velocity": 0, "pitch": 64, "instrument": 25, "track": 3, "qtime": 46, "isDrum": false}, {"time": 144, "velocity": 108, "pitch": 57, "instrument": 25, "track": 3, "qtime": 0, "isDrum": false}, {"time": 155, "velocity": 0, "pitch": 57, "instrument": 25, "track": 3, "qtime": 11, "isDrum": false}, {"time": 161, "velocity": 108, "pitch": 57, "instrument": 25, "track": 3, "qtime": 17, "isDrum": false}, {"time": 165, "velocity": 108, "pitch": 59, "instrument": 25, "track": 3, "qtime": 21, "isDrum": false}, {"time": 171, "velocity": 108, "pitch": 62, "instrument": 25, "track": 3, "qtime": 27, "isDrum": false}, {"time": 189, "velocity": 0, "pitch": 59, "instrument": 25, "track": 3, "qtime": 45, "isDrum": false}, {"time": 190, "velocity": 0, "pitch": 62, "instrument": 25, "track": 3, "qtime": 46, "isDrum": false}, {"time": 192, "velocity": 0, "pitch": 57, "instrument": 25, "track": 3, "qtime": 48, "isDrum": false}, {"time": 0, "velocity": 84, "pitch": 35, "instrument": 0, "track": 9, "qtime": 0, "isDrum": true}, {"time": 0, "velocity": 84, "pitch": 59, "instrument": 0, "track": 9, "qtime": 0, "isDrum": true}, {"time": 1, "velocity": 0, "pitch": 59, "instrument": 0, "track": 9, "qtime": 1, "isDrum": true}, {"time": 2, "velocity": 0, "pitch": 35, "instrument": 0, "track": 9, "qtime": 2, "isDrum": true}, {"time": 6, "velocity": 84, "pitch": 59, "instrument": 0, "track": 9, "qtime": 6, "isDrum": true}, {"time": 7, "velocity": 0, "pitch": 59, "instrument": 0, "track": 9, "qtime": 7, "isDrum": true}, {"time": 9, "velocity": 84, "pitch": 35, "instrument": 0, "track": 9, "qtime": 9, "isDrum": true}, {"time": 10, "velocity": 0, "pitch": 35, "instrument": 0, "track": 9, "qtime": 10, "isDrum": true}, {"time": 12, "velocity": 84, "pitch": 38, "instrument": 0, "track": 9, "qtime": 12, "isDrum": true}, {"time": 12, "velocity": 84, "pitch": 59, "instrument": 0, "track": 9, "qtime": 12, "isDrum": true}, {"time": 13, "velocity": 0, "pitch": 59, "instrument": 0, "track": 9, "qtime": 13, "isDrum": true}, {"time": 14, "velocity": 0, "pitch": 38, "instrument": 0, "track": 9, "qtime": 14, "isDrum": true}, {"time": 18, "velocity": 84, "pitch": 59, "instrument": 0, "track": 9, "qtime": 18, "isDrum": true}, {"time": 19, "velocity": 0, "pitch": 59, "instrument": 0, "track": 9, "qtime": 19, "isDrum": true}, {"time": 21, "velocity": 84, "pitch": 35, "instrument": 0, "track": 9, "qtime": 21, "isDrum": true}, {"time": 21, "velocity": 84, "pitch": 59, "instrument": 0, "track": 9, "qtime": 21, "isDrum": true}, {"time": 22, "velocity": 0, "pitch": 35, "instrument": 0, "track": 9, "qtime": 22, "isDrum": true}, {"time": 22, "velocity": 0, "pitch": 59, "instrument": 0, "track": 9, "qtime": 22, "isDrum": true}, {"time": 30, "velocity": 84, "pitch": 35, "instrument": 0, "track": 9, "qtime": 30, "isDrum": true}, {"time": 30, "velocity": 84, "pitch": 59, "instrument": 0, "track": 9, "qtime": 30, "isDrum": true}, {"time": 31, "velocity": 0, "pitch": 35, "instrument": 0, "track": 9, "qtime": 31, "isDrum": true}, {"time": 31, "velocity": 0, "pitch": 59, "instrument": 0, "track": 9, "qtime": 31, "isDrum": true}, {"time": 33, "velocity": 84, "pitch": 59, "instrument": 0, "track": 9, "qtime": 33, "isDrum": true}, {"time": 34, "velocity": 0, "pitch": 59, "instrument": 0, "track": 9, "qtime": 34, "isDrum": true}, {"time": 36, "velocity": 84, "pitch": 38, "instrument": 0, "track": 9, "qtime": 36, "isDrum": true}, {"time": 36, "velocity": 84, "pitch": 59, "instrument": 0, "track": 9, "qtime": 36, "isDrum": true}, {"time": 37, "velocity": 0, "pitch": 59, "instrument": 0, "track": 9, "qtime": 37, "isDrum": true}, {"time": 38, "velocity": 0, "pitch": 38, "instrument": 0, "track": 9, "qtime": 38, "isDrum": true}, {"time": 39, "velocity": 84, "pitch": 59, "instrument": 0, "track": 9, "qtime": 39, "isDrum": true}, {"time": 40, "velocity": 0, "pitch": 59, "instrument": 0, "track": 9, "qtime": 40, "isDrum": true}, {"time": 42, "velocity": 84, "pitch": 59, "instrument": 0, "track": 9, "qtime": 42, "isDrum": true}, {"time": 43, "velocity": 0, "pitch": 59, "instrument": 0, "track": 9, "qtime": 43, "isDrum": true}, {"time": 48, "velocity": 84, "pitch": 35, "instrument": 0, "track": 9, "qtime": 0, "isDrum": true}, {"time": 48, "velocity": 84, "pitch": 59, "instrument": 0, "track": 9, "qtime": 0, "isDrum": true}, {"time": 49, "velocity": 0, "pitch": 59, "instrument": 0, "track": 9, "qtime": 1, "isDrum": true}, {"time": 50, "velocity": 0, "pitch": 35, "instrument": 0, "track": 9, "qtime": 2, "isDrum": true}, {"time": 54, "velocity": 84, "pitch": 59, "instrument": 0, "track": 9, "qtime": 6, "isDrum": true}, {"time": 55, "velocity": 0, "pitch": 59, "instrument": 0, "track": 9, "qtime": 7, "isDrum": true}, {"time": 57, "velocity": 84, "pitch": 35, "instrument": 0, "track": 9, "qtime": 9, "isDrum": true}, {"time": 57, "velocity": 84, "pitch": 59, "instrument": 0, "track": 9, "qtime": 9, "isDrum": true}, {"time": 58, "velocity": 0, "pitch": 35, "instrument": 0, "track": 9, "qtime": 10, "isDrum": true}, {"time": 58, "velocity": 0, "pitch": 59, "instrument": 0, "track": 9, "qtime": 10, "isDrum": true}, {"time": 60, "velocity": 84, "pitch": 38, "instrument": 0, "track": 9, "qtime": 12, "isDrum": true}, {"time": 60, "velocity": 84, "pitch": 59, "instrument": 0, "track": 9, "qtime": 12, "isDrum": true}, {"time": 61, "velocity": 0, "pitch": 59, "instrument": 0, "track": 9, "qtime": 13, "isDrum": true}, {"time": 62, "velocity": 0, "pitch": 38, "instrument": 0, "track": 9, "qtime": 14, "isDrum": true}, {"time": 66, "velocity": 84, "pitch": 59, "instrument": 0, "track": 9, "qtime": 18, "isDrum": true}, {"time": 67, "velocity": 0, "pitch": 59, "instrument": 0, "track": 9, "qtime": 19, "isDrum": true}, {"time": 69, "velocity": 84, "pitch": 35, "instrument": 0, "track": 9, "qtime": 21, "isDrum": true}, {"time": 69, "velocity": 84, "pitch": 59, "instrument": 0, "track": 9, "qtime": 21, "isDrum": true}, {"time": 70, "velocity": 0, "pitch": 35, "instrument": 0, "track": 9, "qtime": 22, "isDrum": true}, {"time": 70, "velocity": 0, "pitch": 59, "instrument": 0, "track": 9, "qtime": 22, "isDrum": true}, {"time": 72, "velocity": 84, "pitch": 35, "instrument": 0, "track": 9, "qtime": 24, "isDrum": true}, {"time": 72, "velocity": 84, "pitch": 59, "instrument": 0, "track": 9, "qtime": 24, "isDrum": true}, {"time": 73, "velocity": 0, "pitch": 59, "instrument": 0, "track": 9, "qtime": 25, "isDrum": true}, {"time": 74, "velocity": 0, "pitch": 35, "instrument": 0, "track": 9, "qtime": 26, "isDrum": true}, {"time": 78, "velocity": 84, "pitch": 59, "instrument": 0, "track": 9, "qtime": 30, "isDrum": true}, {"time": 79, "velocity": 0, "pitch": 59, "instrument": 0, "track": 9, "qtime": 31, "isDrum": true}, {"time": 81, "velocity": 84, "pitch": 35, "instrument": 0, "track": 9, "qtime": 33, "isDrum": true}, {"time": 81, "velocity": 84, "pitch": 59, "instrument": 0, "track": 9, "qtime": 33, "isDrum": true}, {"time": 82, "velocity": 0, "pitch": 35, "instrument": 0, "track": 9, "qtime": 34, "isDrum": true}, {"time": 82, "velocity": 0, "pitch": 59, "instrument": 0, "track": 9, "qtime": 34, "isDrum": true}, {"time": 84, "velocity": 84, "pitch": 38, "instrument": 0, "track": 9, "qtime": 36, "isDrum": true}, {"time": 84, "velocity": 84, "pitch": 59, "instrument": 0, "track": 9, "qtime": 36, "isDrum": true}, {"time": 85, "velocity": 0, "pitch": 59, "instrument": 0, "track": 9, "qtime": 37, "isDrum": true}, {"time": 86, "velocity": 0, "pitch": 38, "instrument": 0, "track": 9, "qtime": 38, "isDrum": true}, {"time": 87, "velocity": 84, "pitch": 59, "instrument": 0, "track": 9, "qtime": 39, "isDrum": true}, {"time": 88, "velocity": 0, "pitch": 59, "instrument": 0, "track": 9, "qtime": 40, "isDrum": true}, {"time": 90, "velocity": 84, "pitch": 59, "instrument": 0, "track": 9, "qtime": 42, "isDrum": true}, {"time": 91, "velocity": 0, "pitch": 59, "instrument": 0, "track": 9, "qtime": 43, "isDrum": true}, {"time": 93, "velocity": 84, "pitch": 59, "instrument": 0, "track": 9, "qtime": 45, "isDrum": true}, {"time": 94, "velocity": 0, "pitch": 59, "instrument": 0, "track": 9, "qtime": 46, "isDrum": true}, {"time": 96, "velocity": 84, "pitch": 35, "instrument": 0, "track": 9, "qtime": 0, "isDrum": true}, {"time": 96, "velocity": 84, "pitch": 59, "instrument": 0, "track": 9, "qtime": 0, "isDrum": true}, {"time": 97, "velocity": 0, "pitch": 59, "instrument": 0, "track": 9, "qtime": 1, "isDrum": true}, {"time": 98, "velocity": 0, "pitch": 35, "instrument": 0, "track": 9, "qtime": 2, "isDrum": true}, {"time": 102, "velocity": 84, "pitch": 59, "instrument": 0, "track": 9, "qtime": 6, "isDrum": true}, {"time": 103, "velocity": 0, "pitch": 59, "instrument": 0, "track": 9, "qtime": 7, "isDrum": true}, {"time": 105, "velocity": 84, "pitch": 35, "instrument": 0, "track": 9, "qtime": 9, "isDrum": true}, {"time": 105, "velocity": 84, "pitch": 59, "instrument": 0, "track": 9, "qtime": 9, "isDrum": true}, {"time": 106, "velocity": 0, "pitch": 35, "instrument": 0, "track": 9, "qtime": 10, "isDrum": true}, {"time": 106, "velocity": 0, "pitch": 59, "instrument": 0, "track": 9, "qtime": 10, "isDrum": true}, {"time": 108, "velocity": 84, "pitch": 38, "instrument": 0, "track": 9, "qtime": 12, "isDrum": true}, {"time": 108, "velocity": 84, "pitch": 59, "instrument": 0, "track": 9, "qtime": 12, "isDrum": true}, {"time": 109, "velocity": 0, "pitch": 59, "instrument": 0, "track": 9, "qtime": 13, "isDrum": true}, {"time": 110, "velocity": 0, "pitch": 38, "instrument": 0, "track": 9, "qtime": 14, "isDrum": true}, {"time": 114, "velocity": 84, "pitch": 59, "instrument": 0, "track": 9, "qtime": 18, "isDrum": true}, {"time": 115, "velocity": 0, "pitch": 59, "instrument": 0, "track": 9, "qtime": 19, "isDrum": true}, {"time": 117, "velocity": 84, "pitch": 35, "instrument": 0, "track": 9, "qtime": 21, "isDrum": true}, {"time": 117, "velocity": 84, "pitch": 59, "instrument": 0, "track": 9, "qtime": 21, "isDrum": true}, {"time": 118, "velocity": 0, "pitch": 35, "instrument": 0, "track": 9, "qtime": 22, "isDrum": true}, {"time": 118, "velocity": 0, "pitch": 59, "instrument": 0, "track": 9, "qtime": 22, "isDrum": true}, {"time": 120, "velocity": 84, "pitch": 35, "instrument": 0, "track": 9, "qtime": 24, "isDrum": true}, {"time": 120, "velocity": 84, "pitch": 59, "instrument": 0, "track": 9, "qtime": 24, "isDrum": true}, {"time": 121, "velocity": 0, "pitch": 59, "instrument": 0, "track": 9, "qtime": 25, "isDrum": true}, {"time": 122, "velocity": 0, "pitch": 35, "instrument": 0, "track": 9, "qtime": 26, "isDrum": true}, {"time": 126, "velocity": 84, "pitch": 59, "instrument": 0, "track": 9, "qtime": 30, "isDrum": true}, {"time": 127, "velocity": 0, "pitch": 59, "instrument": 0, "track": 9, "qtime": 31, "isDrum": true}, {"time": 129, "velocity": 84, "pitch": 35, "instrument": 0, "track": 9, "qtime": 33, "isDrum": true}, {"time": 129, "velocity": 84, "pitch": 59, "instrument": 0, "track": 9, "qtime": 33, "isDrum": true}, {"time": 130, "velocity": 0, "pitch": 35, "instrument": 0, "track": 9, "qtime": 34, "isDrum": true}, {"time": 130, "velocity": 0, "pitch": 59, "instrument": 0, "track": 9, "qtime": 34, "isDrum": true}, {"time": 132, "velocity": 84, "pitch": 38, "instrument": 0, "track": 9, "qtime": 36, "isDrum": true}, {"time": 132, "velocity": 84, "pitch": 59, "instrument": 0, "track": 9, "qtime": 36, "isDrum": true}, {"time": 133, "velocity": 0, "pitch": 59, "instrument": 0, "track": 9, "qtime": 37, "isDrum": true}, {"time": 134, "velocity": 0, "pitch": 38, "instrument": 0, "track": 9, "qtime": 38, "isDrum": true}, {"time": 135, "velocity": 84, "pitch": 59, "instrument": 0, "track": 9, "qtime": 39, "isDrum": true}, {"time": 136, "velocity": 0, "pitch": 59, "instrument": 0, "track": 9, "qtime": 40, "isDrum": true}, {"time": 138, "velocity": 84, "pitch": 59, "instrument": 0, "track": 9, "qtime": 42, "isDrum": true}, {"time": 139, "velocity": 0, "pitch": 59, "instrument": 0, "track": 9, "qtime": 43, "isDrum": true}, {"time": 141, "velocity": 84, "pitch": 59, "instrument": 0, "track": 9, "qtime": 45, "isDrum": true}, {"time": 142, "velocity": 0, "pitch": 59, "instrument": 0, "track": 9, "qtime": 46, "isDrum": true}, {"time": 144, "velocity": 84, "pitch": 35, "instrument": 0, "track": 9, "qtime": 0, "isDrum": true}, {"time": 144, "velocity": 84, "pitch": 59, "instrument": 0, "track": 9, "qtime": 0, "isDrum": true}, {"time": 145, "velocity": 0, "pitch": 59, "instrument": 0, "track": 9, "qtime": 1, "isDrum": true}, {"time": 146, "velocity": 0, "pitch": 35, "instrument": 0, "track": 9, "qtime": 2, "isDrum": true}, {"time": 150, "velocity": 84, "pitch": 59, "instrument": 0, "track": 9, "qtime": 6, "isDrum": true}, {"time": 151, "velocity": 0, "pitch": 59, "instrument": 0, "track": 9, "qtime": 7, "isDrum": true}, {"time": 153, "velocity": 84, "pitch": 35, "instrument": 0, "track": 9, "qtime": 9, "isDrum": true}, {"time": 153, "velocity": 84, "pitch": 59, "instrument": 0, "track": 9, "qtime": 9, "isDrum": true}, {"time": 154, "velocity": 0, "pitch": 35, "instrument": 0, "track": 9, "qtime": 10, "isDrum": true}, {"time": 154, "velocity": 0, "pitch": 59, "instrument": 0, "track": 9, "qtime": 10, "isDrum": true}, {"time": 156, "velocity": 84, "pitch": 38, "instrument": 0, "track": 9, "qtime": 12, "isDrum": true}, {"time": 156, "velocity": 84, "pitch": 59, "instrument": 0, "track": 9, "qtime": 12, "isDrum": true}, {"time": 157, "velocity": 0, "pitch": 59, "instrument": 0, "track": 9, "qtime": 13, "isDrum": true}, {"time": 158, "velocity": 0, "pitch": 38, "instrument": 0, "track": 9, "qtime": 14, "isDrum": true}, {"time": 162, "velocity": 84, "pitch": 59, "instrument": 0, "track": 9, "qtime": 18, "isDrum": true}, {"time": 163, "velocity": 0, "pitch": 59, "instrument": 0, "track": 9, "qtime": 19, "isDrum": true}, {"time": 165, "velocity": 84, "pitch": 35, "instrument": 0, "track": 9, "qtime": 21, "isDrum": true}, {"time": 165, "velocity": 84, "pitch": 59, "instrument": 0, "track": 9, "qtime": 21, "isDrum": true}, {"time": 166, "velocity": 0, "pitch": 35, "instrument": 0, "track": 9, "qtime": 22, "isDrum": true}, {"time": 166, "velocity": 0, "pitch": 59, "instrument": 0, "track": 9, "qtime": 22, "isDrum": true}, {"time": 168, "velocity": 84, "pitch": 35, "instrument": 0, "track": 9, "qtime": 24, "isDrum": true}, {"time": 168, "velocity": 84, "pitch": 59, "instrument": 0, "track": 9, "qtime": 24, "isDrum": true}, {"time": 169, "velocity": 0, "pitch": 59, "instrument": 0, "track": 9, "qtime": 25, "isDrum": true}, {"time": 170, "velocity": 0, "pitch": 35, "instrument": 0, "track": 9, "qtime": 26, "isDrum": true}, {"time": 174, "velocity": 84, "pitch": 59, "instrument": 0, "track": 9, "qtime": 30, "isDrum": true}, {"time": 175, "velocity": 0, "pitch": 59, "instrument": 0, "track": 9, "qtime": 31, "isDrum": true}, {"time": 177, "velocity": 84, "pitch": 35, "instrument": 0, "track": 9, "qtime": 33, "isDrum": true}, {"time": 177, "velocity": 84, "pitch": 59, "instrument": 0, "track": 9, "qtime": 33, "isDrum": true}, {"time": 178, "velocity": 0, "pitch": 35, "instrument": 0, "track": 9, "qtime": 34, "isDrum": true}, {"time": 178, "velocity": 0, "pitch": 59, "instrument": 0, "track": 9, "qtime": 34, "isDrum": true}, {"time": 180, "velocity": 84, "pitch": 38, "instrument": 0, "track": 9, "qtime": 36, "isDrum": true}, {"time": 180, "velocity": 84, "pitch": 59, "instrument": 0, "track": 9, "qtime": 36, "isDrum": true}, {"time": 181, "velocity": 0, "pitch": 59, "instrument": 0, "track": 9, "qtime": 37, "isDrum": true}, {"time": 182, "velocity": 0, "pitch": 38, "instrument": 0, "track": 9, "qtime": 38, "isDrum": true}, {"time": 183, "velocity": 84, "pitch": 59, "instrument": 0, "track": 9, "qtime": 39, "isDrum": true}, {"time": 184, "velocity": 0, "pitch": 59, "instrument": 0, "track": 9, "qtime": 40, "isDrum": true}, {"time": 186, "velocity": 84, "pitch": 59, "instrument": 0, "track": 9, "qtime": 42, "isDrum": true}, {"time": 187, "velocity": 0, "pitch": 59, "instrument": 0, "track": 9, "qtime": 43, "isDrum": true}, {"time": 189, "velocity": 84, "pitch": 59, "instrument": 0, "track": 9, "qtime": 45, "isDrum": true}, {"time": 190, "velocity": 0, "pitch": 59, "instrument": 0, "track": 9, "qtime": 46, "isDrum": true}, {"time": 5, "velocity": 0, "pitch": 64, "instrument": 26, "track": 5, "qtime": 5, "isDrum": false}, {"time": 6, "velocity": 108, "pitch": 57, "instrument": 26, "track": 5, "qtime": 6, "isDrum": false}, {"time": 12, "velocity": 0, "pitch": 57, "instrument": 26, "track": 5, "qtime": 12, "isDrum": false}, {"time": 12, "velocity": 108, "pitch": 61, "instrument": 26, "track": 5, "qtime": 12, "isDrum": false}, {"time": 18, "velocity": 0, "pitch": 61, "instrument": 26, "track": 5, "qtime": 18, "isDrum": false}, {"time": 18, "velocity": 108, "pitch": 59, "instrument": 26, "track": 5, "qtime": 18, "isDrum": false}, {"time": 21, "velocity": 108, "pitch": 57, "instrument": 26, "track": 5, "qtime": 21, "isDrum": false}, {"time": 22, "velocity": 0, "pitch": 59, "instrument": 26, "track": 5, "qtime": 22, "isDrum": false}, {"time": 30, "velocity": 0, "pitch": 57, "instrument": 26, "track": 5, "qtime": 30, "isDrum": false}, {"time": 30, "velocity": 108, "pitch": 59, "instrument": 26, "track": 5, "qtime": 30, "isDrum": false}, {"time": 36, "velocity": 0, "pitch": 59, "instrument": 26, "track": 5, "qtime": 36, "isDrum": false}, {"time": 36, "velocity": 108, "pitch": 61, "instrument": 26, "track": 5, "qtime": 36, "isDrum": false}, {"time": 42, "velocity": 0, "pitch": 61, "instrument": 26, "track": 5, "qtime": 42, "isDrum": false}, {"time": 42, "velocity": 108, "pitch": 64, "instrument": 26, "track": 5, "qtime": 42, "isDrum": false}, {"time": 51, "velocity": 0, "pitch": 64, "instrument": 26, "track": 5, "qtime": 3, "isDrum": false}, {"time": 51, "velocity": 108, "pitch": 57, "instrument": 26, "track": 5, "qtime": 3, "isDrum": false}, {"time": 54, "velocity": 0, "pitch": 57, "instrument": 26, "track": 5, "qtime": 6, "isDrum": false}, {"time": 54, "velocity": 108, "pitch": 61, "instrument": 26, "track": 5, "qtime": 6, "isDrum": false}, {"time": 57, "velocity": 0, "pitch": 61, "instrument": 26, "track": 5, "qtime": 9, "isDrum": false}, {"time": 57, "velocity": 108, "pitch": 66, "instrument": 26, "track": 5, "qtime": 9, "isDrum": false}, {"time": 60, "velocity": 0, "pitch": 66, "instrument": 26, "track": 5, "qtime": 12, "isDrum": false}, {"time": 60, "velocity": 108, "pitch": 61, "instrument": 26, "track": 5, "qtime": 12, "isDrum": false}, {"time": 63, "velocity": 108, "pitch": 66, "instrument": 26, "track": 5, "qtime": 15, "isDrum": false}, {"time": 64, "velocity": 0, "pitch": 61, "instrument": 26, "track": 5, "qtime": 16, "isDrum": false}, {"time": 66, "velocity": 0, "pitch": 66, "instrument": 26, "track": 5, "qtime": 18, "isDrum": false}, {"time": 66, "velocity": 108, "pitch": 61, "instrument": 26, "track": 5, "qtime": 18, "isDrum": false}, {"time": 69, "velocity": 0, "pitch": 61, "instrument": 26, "track": 5, "qtime": 21, "isDrum": false}, {"time": 69, "velocity": 108, "pitch": 66, "instrument": 26, "track": 5, "qtime": 21, "isDrum": false}, {"time": 71, "velocity": 0, "pitch": 66, "instrument": 26, "track": 5, "qtime": 23, "isDrum": false}, {"time": 72, "velocity": 108, "pitch": 64, "instrument": 26, "track": 5, "qtime": 24, "isDrum": false}, {"time": 78, "velocity": 0, "pitch": 64, "instrument": 26, "track": 5, "qtime": 30, "isDrum": false}, {"time": 78, "velocity": 108, "pitch": 56, "instrument": 26, "track": 5, "qtime": 30, "isDrum": false}, {"time": 81, "velocity": 0, "pitch": 56, "instrument": 26, "track": 5, "qtime": 33, "isDrum": false}, {"time": 81, "velocity": 108, "pitch": 61, "instrument": 26, "track": 5, "qtime": 33, "isDrum": false}, {"time": 87, "velocity": 0, "pitch": 61, "instrument": 26, "track": 5, "qtime": 39, "isDrum": false}, {"time": 87, "velocity": 108, "pitch": 56, "instrument": 26, "track": 5, "qtime": 39, "isDrum": false}, {"time": 90, "velocity": 0, "pitch": 56, "instrument": 26, "track": 5, "qtime": 42, "isDrum": false}, {"time": 90, "velocity": 108, "pitch": 61, "instrument": 26, "track": 5, "qtime": 42, "isDrum": false}, {"time": 94, "velocity": 0, "pitch": 61, "instrument": 26, "track": 5, "qtime": 46, "isDrum": false}, {"time": 96, "velocity": 108, "pitch": 61, "instrument": 26, "track": 5, "qtime": 0, "isDrum": false}, {"time": 102, "velocity": 0, "pitch": 61, "instrument": 26, "track": 5, "qtime": 6, "isDrum": false}, {"time": 102, "velocity": 108, "pitch": 54, "instrument": 26, "track": 5, "qtime": 6, "isDrum": false}, {"time": 105, "velocity": 108, "pitch": 57, "instrument": 26, "track": 5, "qtime": 9, "isDrum": false}, {"time": 106, "velocity": 0, "pitch": 54, "instrument": 26, "track": 5, "qtime": 10, "isDrum": false}, {"time": 111, "velocity": 0, "pitch": 57, "instrument": 26, "track": 5, "qtime": 15, "isDrum": false}, {"time": 111, "velocity": 108, "pitch": 61, "instrument": 26, "track": 5, "qtime": 15, "isDrum": false}, {"time": 114, "velocity": 0, "pitch": 61, "instrument": 26, "track": 5, "qtime": 18, "isDrum": false}, {"time": 114, "velocity": 108, "pitch": 54, "instrument": 26, "track": 5, "qtime": 18, "isDrum": false}, {"time": 117, "velocity": 108, "pitch": 57, "instrument": 26, "track": 5, "qtime": 21, "isDrum": false}, {"time": 118, "velocity": 0, "pitch": 54, "instrument": 26, "track": 5, "qtime": 22, "isDrum": false}, {"time": 120, "velocity": 0, "pitch": 57, "instrument": 26, "track": 5, "qtime": 24, "isDrum": false}, {"time": 120, "velocity": 108, "pitch": 64, "instrument": 26, "track": 5, "qtime": 24, "isDrum": false}, {"time": 126, "velocity": 0, "pitch": 64, "instrument": 26, "track": 5, "qtime": 30, "isDrum": false}, {"time": 126, "velocity": 108, "pitch": 56, "instrument": 26, "track": 5, "qtime": 30, "isDrum": false}, {"time": 129, "velocity": 108, "pitch": 61, "instrument": 26, "track": 5, "qtime": 33, "isDrum": false}, {"time": 130, "velocity": 0, "pitch": 56, "instrument": 26, "track": 5, "qtime": 34, "isDrum": false}, {"time": 135, "velocity": 0, "pitch": 61, "instrument": 26, "track": 5, "qtime": 39, "isDrum": false}, {"time": 135, "velocity": 108, "pitch": 56, "instrument": 26, "track": 5, "qtime": 39, "isDrum": false}, {"time": 138, "velocity": 108, "pitch": 61, "instrument": 26, "track": 5, "qtime": 42, "isDrum": false}, {"time": 139, "velocity": 0, "pitch": 56, "instrument": 26, "track": 5, "qtime": 43, "isDrum": false}, {"time": 143, "velocity": 0, "pitch": 61, "instrument": 26, "track": 5, "qtime": 47, "isDrum": false}, {"time": 144, "velocity": 108, "pitch": 59, "instrument": 26, "track": 5, "qtime": 0, "isDrum": false}, {"time": 147, "velocity": 108, "pitch": 57, "instrument": 26, "track": 5, "qtime": 3, "isDrum": false}, {"time": 148, "velocity": 0, "pitch": 59, "instrument": 26, "track": 5, "qtime": 4, "isDrum": false}, {"time": 150, "velocity": 108, "pitch": 59, "instrument": 26, "track": 5, "qtime": 6, "isDrum": false}, {"time": 151, "velocity": 0, "pitch": 57, "instrument": 26, "track": 5, "qtime": 7, "isDrum": false}, {"time": 153, "velocity": 108, "pitch": 62, "instrument": 26, "track": 5, "qtime": 9, "isDrum": false}, {"time": 154, "velocity": 0, "pitch": 59, "instrument": 26, "track": 5, "qtime": 10, "isDrum": false}, {"time": 156, "velocity": 108, "pitch": 66, "instrument": 26, "track": 5, "qtime": 12, "isDrum": false}, {"time": 158, "velocity": 0, "pitch": 62, "instrument": 26, "track": 5, "qtime": 14, "isDrum": false}, {"time": 159, "velocity": 108, "pitch": 57, "instrument": 26, "track": 5, "qtime": 15, "isDrum": false}, {"time": 160, "velocity": 0, "pitch": 66, "instrument": 26, "track": 5, "qtime": 16, "isDrum": false}, {"time": 162, "velocity": 108, "pitch": 59, "instrument": 26, "track": 5, "qtime": 18, "isDrum": false}, {"time": 163, "velocity": 0, "pitch": 57, "instrument": 26, "track": 5, "qtime": 19, "isDrum": false}, {"time": 165, "velocity": 108, "pitch": 62, "instrument": 26, "track": 5, "qtime": 21, "isDrum": false}, {"time": 166, "velocity": 0, "pitch": 59, "instrument": 26, "track": 5, "qtime": 22, "isDrum": false}, {"time": 168, "velocity": 0, "pitch": 62, "instrument": 26, "track": 5, "qtime": 24, "isDrum": false}, {"time": 168, "velocity": 108, "pitch": 64, "instrument": 26, "track": 5, "qtime": 24, "isDrum": false}, {"time": 171, "velocity": 0, "pitch": 64, "instrument": 26, "track": 5, "qtime": 27, "isDrum": false}, {"time": 171, "velocity": 108, "pitch": 57, "instrument": 26, "track": 5, "qtime": 27, "isDrum": false}, {"time": 174, "velocity": 0, "pitch": 57, "instrument": 26, "track": 5, "qtime": 30, "isDrum": false}, {"time": 174, "velocity": 108, "pitch": 62, "instrument": 26, "track": 5, "qtime": 30, "isDrum": false}, {"time": 177, "velocity": 108, "pitch": 66, "instrument": 26, "track": 5, "qtime": 33, "isDrum": false}, {"time": 178, "velocity": 0, "pitch": 62, "instrument": 26, "track": 5, "qtime": 34, "isDrum": false}, {"time": 180, "velocity": 108, "pitch": 69, "instrument": 26, "track": 5, "qtime": 36, "isDrum": false}, {"time": 181, "velocity": 0, "pitch": 66, "instrument": 26, "track": 5, "qtime": 37, "isDrum": false}, {"time": 183, "velocity": 108, "pitch": 64, "instrument": 26, "track": 5, "qtime": 39, "isDrum": false}, {"time": 184, "velocity": 0, "pitch": 69, "instrument": 26, "track": 5, "qtime": 40, "isDrum": false}, {"time": 186, "velocity": 0, "pitch": 64, "instrument": 26, "track": 5, "qtime": 42, "isDrum": false}, {"time": 186, "velocity": 108, "pitch": 68, "instrument": 26, "track": 5, "qtime": 42, "isDrum": false}, {"time": 189, "velocity": 108, "pitch": 71, "instrument": 26, "track": 5, "qtime": 45, "isDrum": false}, {"time": 190, "velocity": 0, "pitch": 68, "instrument": 26, "track": 5, "qtime": 46, "isDrum": false}, {"time": 192, "velocity": 0, "pitch": 71, "instrument": 26, "track": 5, "qtime": 48, "isDrum": false}], "resolution": 12, "tempo": 78, "minPitch": 28, "maxPitch": 81, "validSegments": [0], "validTracks": [63]}, "audio": "https://www.sfu.ca/~jeffe/examples/stem_calm_2track.mp3"}, {"src": "gen/stem_1.json", "highlights": [[], [], [], []], "caption": "Original sample from the dataset.", "sample_id": "18a", "mixer": [8, 8, 8, 8], "tempo": 75, "json": {"tracks": [{"bars": [{"events": [0, 2, 5, 7, 8, 10, 11, 13, 14, 16, 17, 20, 21, 22, 23, 24, 25, 26, 30, 31, 33, 35, 36, 38, 40, 42, 43, 45, 46, 48, 49, 52, 53, 54, 55, 58, 59, 60, 61, 62, 63, 66, 67, 68, 70, 72], "isFourFour": true, "hasNotes": true, "time": 0, "beatLength": 4}, {"events": [73, 75, 76, 78, 80, 82, 84, 86, 88, 90, 91, 92, 93, 94, 95, 96, 97, 98, 100, 101, 103, 105, 107, 108, 109, 110, 111, 113, 114, 116, 117, 118, 119, 121, 122, 124, 126, 127, 129, 130, 131, 132, 134, 136, 138, 142], "isFourFour": true, "hasNotes": true, "time": 48, "beatLength": 4}, {"events": [144, 146, 148, 150, 151, 154, 156, 158, 159, 161, 162, 164, 165, 166, 167, 168, 169, 171, 173, 175, 176, 178, 180, 181, 182, 184, 185, 187, 188, 190, 192, 194, 196, 198, 200, 202, 204, 205, 207, 208, 209, 210, 212, 214, 215, 216], "isFourFour": true, "hasNotes": true, "time": 96, "beatLength": 4}, {"events": [218, 220, 221, 223, 224, 225, 226, 228, 230, 232, 234, 236, 237, 238, 239, 240, 242, 244, 246, 248, 250, 252, 254, 256, 258, 260, 261, 263, 266, 268, 269, 270, 272, 274, 276, 277, 279, 280, 283, 284, 285, 286, 287, 288, 289, 290], "isFourFour": true, "hasNotes": true, "time": 144, "beatLength": 4}, {"isFourFour": true, "hasNotes": false, "time": 192, "beatLength": 4}, {"isFourFour": true, "hasNotes": false, "time": 252, "beatLength": 4}], "isDrum": true, "minPitch": 36, "maxPitch": 54, "instrument": 0, "avPolyphony": 1.4375, "noteDensity": 9, "noteDensityV2": 8}, {"bars": [{"events": [1, 6, 12, 15, 27, 32, 34, 37, 44, 47], "isFourFour": true, "hasNotes": true, "time": 0, "beatLength": 4}, {"events": [74, 77, 85, 89, 99, 102, 104, 106, 112, 115], "isFourFour": true, "hasNotes": true, "time": 48, "beatLength": 4}, {"events": [145, 149, 157, 160, 170, 174, 177, 179, 186, 189], "isFourFour": true, "hasNotes": true, "time": 96, "beatLength": 4}, {"events": [219, 222, 227, 231, 243, 247, 251, 255, 262, 267], "isFourFour": true, "hasNotes": true, "time": 144, "beatLength": 4}, {"isFourFour": true, "hasNotes": false, "time": 192, "beatLength": 4}, {"isFourFour": true, "hasNotes": false, "time": 252, "beatLength": 4}], "isDrum": false, "minPitch": 41, "maxPitch": 45, "instrument": 33, "avPolyphony": 1, "noteDensity": 6, "noteDensityV2": 5}, {"bars": [{"events": [3, 4], "isFourFour": true, "hasNotes": true, "time": 0, "beatLength": 4}, {"events": [140, 141, 143], "isFourFour": true, "hasNotes": true, "time": 48, "beatLength": 4}, {"events": [147], "isFourFour": true, "hasNotes": true, "time": 96, "beatLength": 4}, {"events": [278, 282], "isFourFour": true, "hasNotes": false, "time": 144, "beatLength": 4}, {"isFourFour": true, "hasNotes": false, "time": 192, "beatLength": 4}, {"isFourFour": true, "hasNotes": false, "time": 252, "beatLength": 4}], "isDrum": false, "minPitch": 53, "maxPitch": 60, "instrument": 48, "avPolyphony": 1.99447513, "noteDensity": 0, "noteDensityV2": 0}, {"bars": [{"events": [9, 18, 19, 28, 29, 39, 41, 50, 51, 56, 57, 64, 65, 69, 71], "isFourFour": true, "hasNotes": true, "time": 0, "beatLength": 4}, {"events": [79, 81, 83, 87, 120, 123, 125, 128, 133, 135, 137, 139], "isFourFour": true, "hasNotes": true, "time": 48, "beatLength": 4}, {"events": [152, 153, 155, 163, 172, 183, 191, 193, 195, 197, 199, 201, 203, 206, 211, 213, 217], "isFourFour": true, "hasNotes": true, "time": 96, "beatLength": 4}, {"events": [229, 233, 235, 241, 245, 249, 253, 257, 259, 264, 265, 271, 273, 275, 281, 291], "isFourFour": true, "hasNotes": true, "time": 144, "beatLength": 4}, {"isFourFour": true, "hasNotes": false, "time": 192, "beatLength": 4}, {"isFourFour": true, "hasNotes": false, "time": 252, "beatLength": 4}], "isDrum": false, "minPitch": 55, "maxPitch": 67, "instrument": 64, "avPolyphony": 1.04678357, "noteDensity": 8, "noteDensityV2": 8}], "events": [{"time": 0, "velocity": 108, "pitch": 36, "instrument": 0, "track": 0, "qtime": 0, "bar": 0, "isDrum": true}, {"time": 0, "velocity": 108, "pitch": 45, "instrument": 33, "track": 1, "qtime": 0, "bar": 0, "isDrum": false}, {"time": 0, "velocity": 108, "pitch": 54, "instrument": 0, "track": 0, "qtime": 0, "bar": 0, "isDrum": true}, {"time": 0, "velocity": 108, "pitch": 57, "instrument": 48, "track": 2, "qtime": 0, "bar": 0, "isDrum": false}, {"time": 0, "velocity": 108, "pitch": 60, "instrument": 48, "track": 2, "qtime": 0, "bar": 0, "isDrum": false}, {"time": 3, "velocity": 0, "pitch": 36, "instrument": 0, "track": 0, "qtime": 3, "bar": 0, "isDrum": true}, {"time": 3, "velocity": 0, "pitch": 45, "instrument": 33, "track": 1, "qtime": 3, "bar": 0, "isDrum": false}, {"time": 3, "velocity": 0, "pitch": 54, "instrument": 0, "track": 0, "qtime": 3, "bar": 0, "isDrum": true}, {"time": 3, "velocity": 108, "pitch": 44, "instrument": 0, "track": 0, "qtime": 3, "bar": 0, "isDrum": true}, {"time": 3, "velocity": 108, "pitch": 67, "instrument": 64, "track": 3, "qtime": 3, "bar": 0, "isDrum": false}, {"time": 6, "velocity": 0, "pitch": 44, "instrument": 0, "track": 0, "qtime": 6, "bar": 0, "isDrum": true}, {"time": 6, "velocity": 108, "pitch": 36, "instrument": 0, "track": 0, "qtime": 6, "bar": 0, "isDrum": true}, {"time": 6, "velocity": 108, "pitch": 45, "instrument": 33, "track": 1, "qtime": 6, "bar": 0, "isDrum": false}, {"time": 6, "velocity": 108, "pitch": 54, "instrument": 0, "track": 0, "qtime": 6, "bar": 0, "isDrum": true}, {"time": 9, "velocity": 0, "pitch": 36, "instrument": 0, "track": 0, "qtime": 9, "bar": 0, "isDrum": true}, {"time": 9, "velocity": 0, "pitch": 45, "instrument": 33, "track": 1, "qtime": 9, "bar": 0, "isDrum": false}, {"time": 9, "velocity": 0, "pitch": 54, "instrument": 0, "track": 0, "qtime": 9, "bar": 0, "isDrum": true}, {"time": 9, "velocity": 108, "pitch": 44, "instrument": 0, "track": 0, "qtime": 9, "bar": 0, "isDrum": true}, {"time": 9, "velocity": 108, "pitch": 65, "instrument": 64, "track": 3, "qtime": 9, "bar": 0, "isDrum": false}, {"time": 10, "velocity": 0, "pitch": 67, "instrument": 64, "track": 3, "qtime": 10, "bar": 0, "isDrum": false}, {"time": 12, "velocity": 0, "pitch": 44, "instrument": 0, "track": 0, "qtime": 12, "bar": 0, "isDrum": true}, {"time": 12, "velocity": 108, "pitch": 38, "instrument": 0, "track": 0, "qtime": 12, "bar": 0, "isDrum": true}, {"time": 12, "velocity": 108, "pitch": 54, "instrument": 0, "track": 0, "qtime": 12, "bar": 0, "isDrum": true}, {"time": 15, "velocity": 0, "pitch": 38, "instrument": 0, "track": 0, "qtime": 15, "bar": 0, "isDrum": true}, {"time": 15, "velocity": 0, "pitch": 54, "instrument": 0, "track": 0, "qtime": 15, "bar": 0, "isDrum": true}, {"time": 15, "velocity": 108, "pitch": 36, "instrument": 0, "track": 0, "qtime": 15, "bar": 0, "isDrum": true}, {"time": 15, "velocity": 108, "pitch": 44, "instrument": 0, "track": 0, "qtime": 15, "bar": 0, "isDrum": true}, {"time": 15, "velocity": 108, "pitch": 45, "instrument": 33, "track": 1, "qtime": 15, "bar": 0, "isDrum": false}, {"time": 15, "velocity": 108, "pitch": 64, "instrument": 64, "track": 3, "qtime": 15, "bar": 0, "isDrum": false}, {"time": 16, "velocity": 0, "pitch": 65, "instrument": 64, "track": 3, "qtime": 16, "bar": 0, "isDrum": false}, {"time": 18, "velocity": 0, "pitch": 36, "instrument": 0, "track": 0, "qtime": 18, "bar": 0, "isDrum": true}, {"time": 18, "velocity": 0, "pitch": 44, "instrument": 0, "track": 0, "qtime": 18, "bar": 0, "isDrum": true}, {"time": 18, "velocity": 0, "pitch": 45, "instrument": 33, "track": 1, "qtime": 18, "bar": 0, "isDrum": false}, {"time": 18, "velocity": 108, "pitch": 36, "instrument": 0, "track": 0, "qtime": 18, "bar": 0, "isDrum": true}, {"time": 18, "velocity": 108, "pitch": 45, "instrument": 33, "track": 1, "qtime": 18, "bar": 0, "isDrum": false}, {"time": 18, "velocity": 108, "pitch": 54, "instrument": 0, "track": 0, "qtime": 18, "bar": 0, "isDrum": true}, {"time": 21, "velocity": 0, "pitch": 36, "instrument": 0, "track": 0, "qtime": 21, "bar": 0, "isDrum": true}, {"time": 21, "velocity": 0, "pitch": 45, "instrument": 33, "track": 1, "qtime": 21, "bar": 0, "isDrum": false}, {"time": 21, "velocity": 0, "pitch": 54, "instrument": 0, "track": 0, "qtime": 21, "bar": 0, "isDrum": true}, {"time": 21, "velocity": 0, "pitch": 64, "instrument": 64, "track": 3, "qtime": 21, "bar": 0, "isDrum": false}, {"time": 21, "velocity": 108, "pitch": 44, "instrument": 0, "track": 0, "qtime": 21, "bar": 0, "isDrum": true}, {"time": 21, "velocity": 108, "pitch": 62, "instrument": 64, "track": 3, "qtime": 21, "bar": 0, "isDrum": false}, {"time": 24, "velocity": 0, "pitch": 44, "instrument": 0, "track": 0, "qtime": 24, "bar": 0, "isDrum": true}, {"time": 24, "velocity": 108, "pitch": 36, "instrument": 0, "track": 0, "qtime": 24, "bar": 0, "isDrum": true}, {"time": 24, "velocity": 108, "pitch": 45, "instrument": 33, "track": 1, "qtime": 24, "bar": 0, "isDrum": false}, {"time": 24, "velocity": 108, "pitch": 54, "instrument": 0, "track": 0, "qtime": 24, "bar": 0, "isDrum": true}, {"time": 27, "velocity": 0, "pitch": 36, "instrument": 0, "track": 0, "qtime": 27, "bar": 0, "isDrum": true}, {"time": 27, "velocity": 0, "pitch": 45, "instrument": 33, "track": 1, "qtime": 27, "bar": 0, "isDrum": false}, {"time": 27, "velocity": 0, "pitch": 54, "instrument": 0, "track": 0, "qtime": 27, "bar": 0, "isDrum": true}, {"time": 27, "velocity": 108, "pitch": 44, "instrument": 0, "track": 0, "qtime": 27, "bar": 0, "isDrum": true}, {"time": 27, "velocity": 108, "pitch": 65, "instrument": 64, "track": 3, "qtime": 27, "bar": 0, "isDrum": false}, {"time": 29, "velocity": 0, "pitch": 62, "instrument": 64, "track": 3, "qtime": 29, "bar": 0, "isDrum": false}, {"time": 30, "velocity": 0, "pitch": 44, "instrument": 0, "track": 0, "qtime": 30, "bar": 0, "isDrum": true}, {"time": 30, "velocity": 108, "pitch": 54, "instrument": 0, "track": 0, "qtime": 30, "bar": 0, "isDrum": true}, {"time": 33, "velocity": 0, "pitch": 54, "instrument": 0, "track": 0, "qtime": 33, "bar": 0, "isDrum": true}, {"time": 33, "velocity": 108, "pitch": 44, "instrument": 0, "track": 0, "qtime": 33, "bar": 0, "isDrum": true}, {"time": 33, "velocity": 108, "pitch": 64, "instrument": 64, "track": 3, "qtime": 33, "bar": 0, "isDrum": false}, {"time": 34, "velocity": 0, "pitch": 65, "instrument": 64, "track": 3, "qtime": 34, "bar": 0, "isDrum": false}, {"time": 36, "velocity": 0, "pitch": 44, "instrument": 0, "track": 0, "qtime": 36, "bar": 0, "isDrum": true}, {"time": 36, "velocity": 108, "pitch": 38, "instrument": 0, "track": 0, "qtime": 36, "bar": 0, "isDrum": true}, {"time": 36, "velocity": 108, "pitch": 54, "instrument": 0, "track": 0, "qtime": 36, "bar": 0, "isDrum": true}, {"time": 39, "velocity": 0, "pitch": 38, "instrument": 0, "track": 0, "qtime": 39, "bar": 0, "isDrum": true}, {"time": 39, "velocity": 0, "pitch": 54, "instrument": 0, "track": 0, "qtime": 39, "bar": 0, "isDrum": true}, {"time": 39, "velocity": 108, "pitch": 44, "instrument": 0, "track": 0, "qtime": 39, "bar": 0, "isDrum": true}, {"time": 39, "velocity": 108, "pitch": 60, "instrument": 64, "track": 3, "qtime": 39, "bar": 0, "isDrum": false}, {"time": 40, "velocity": 0, "pitch": 64, "instrument": 64, "track": 3, "qtime": 40, "bar": 0, "isDrum": false}, {"time": 42, "velocity": 0, "pitch": 44, "instrument": 0, "track": 0, "qtime": 42, "bar": 0, "isDrum": true}, {"time": 42, "velocity": 108, "pitch": 54, "instrument": 0, "track": 0, "qtime": 42, "bar": 0, "isDrum": true}, {"time": 45, "velocity": 0, "pitch": 54, "instrument": 0, "track": 0, "qtime": 45, "bar": 0, "isDrum": true}, {"time": 45, "velocity": 0, "pitch": 60, "instrument": 64, "track": 3, "qtime": 45, "bar": 0, "isDrum": false}, {"time": 45, "velocity": 108, "pitch": 44, "instrument": 0, "track": 0, "qtime": 45, "bar": 0, "isDrum": true}, {"time": 45, "velocity": 108, "pitch": 57, "instrument": 64, "track": 3, "qtime": 45, "bar": 0, "isDrum": false}, {"time": 48, "velocity": 0, "pitch": 44, "instrument": 0, "track": 0, "qtime": 48, "bar": 0, "isDrum": true}, {"time": 48, "velocity": 108, "pitch": 36, "instrument": 0, "track": 0, "qtime": 0, "bar": 1, "isDrum": true}, {"time": 48, "velocity": 108, "pitch": 45, "instrument": 33, "track": 1, "qtime": 0, "bar": 1, "isDrum": false}, {"time": 48, "velocity": 108, "pitch": 54, "instrument": 0, "track": 0, "qtime": 0, "bar": 1, "isDrum": true}, {"time": 51, "velocity": 0, "pitch": 36, "instrument": 0, "track": 0, "qtime": 3, "bar": 1, "isDrum": true}, {"time": 51, "velocity": 0, "pitch": 45, "instrument": 33, "track": 1, "qtime": 3, "bar": 1, "isDrum": false}, {"time": 51, "velocity": 0, "pitch": 54, "instrument": 0, "track": 0, "qtime": 3, "bar": 1, "isDrum": true}, {"time": 51, "velocity": 0, "pitch": 57, "instrument": 64, "track": 3, "qtime": 3, "bar": 1, "isDrum": false}, {"time": 51, "velocity": 108, "pitch": 44, "instrument": 0, "track": 0, "qtime": 3, "bar": 1, "isDrum": true}, {"time": 51, "velocity": 108, "pitch": 55, "instrument": 64, "track": 3, "qtime": 3, "bar": 1, "isDrum": false}, {"time": 54, "velocity": 0, "pitch": 44, "instrument": 0, "track": 0, "qtime": 6, "bar": 1, "isDrum": true}, {"time": 54, "velocity": 0, "pitch": 55, "instrument": 64, "track": 3, "qtime": 6, "bar": 1, "isDrum": false}, {"time": 54, "velocity": 108, "pitch": 36, "instrument": 0, "track": 0, "qtime": 6, "bar": 1, "isDrum": true}, {"time": 54, "velocity": 108, "pitch": 45, "instrument": 33, "track": 1, "qtime": 6, "bar": 1, "isDrum": false}, {"time": 54, "velocity": 108, "pitch": 54, "instrument": 0, "track": 0, "qtime": 6, "bar": 1, "isDrum": true}, {"time": 54, "velocity": 108, "pitch": 57, "instrument": 64, "track": 3, "qtime": 6, "bar": 1, "isDrum": false}, {"time": 57, "velocity": 0, "pitch": 36, "instrument": 0, "track": 0, "qtime": 9, "bar": 1, "isDrum": true}, {"time": 57, "velocity": 0, "pitch": 45, "instrument": 33, "track": 1, "qtime": 9, "bar": 1, "isDrum": false}, {"time": 57, "velocity": 0, "pitch": 54, "instrument": 0, "track": 0, "qtime": 9, "bar": 1, "isDrum": true}, {"time": 57, "velocity": 108, "pitch": 44, "instrument": 0, "track": 0, "qtime": 9, "bar": 1, "isDrum": true}, {"time": 60, "velocity": 0, "pitch": 44, "instrument": 0, "track": 0, "qtime": 12, "bar": 1, "isDrum": true}, {"time": 60, "velocity": 108, "pitch": 38, "instrument": 0, "track": 0, "qtime": 12, "bar": 1, "isDrum": true}, {"time": 60, "velocity": 108, "pitch": 54, "instrument": 0, "track": 0, "qtime": 12, "bar": 1, "isDrum": true}, {"time": 63, "velocity": 0, "pitch": 38, "instrument": 0, "track": 0, "qtime": 15, "bar": 1, "isDrum": true}, {"time": 63, "velocity": 0, "pitch": 54, "instrument": 0, "track": 0, "qtime": 15, "bar": 1, "isDrum": true}, {"time": 63, "velocity": 108, "pitch": 36, "instrument": 0, "track": 0, "qtime": 15, "bar": 1, "isDrum": true}, {"time": 63, "velocity": 108, "pitch": 44, "instrument": 0, "track": 0, "qtime": 15, "bar": 1, "isDrum": true}, {"time": 63, "velocity": 108, "pitch": 45, "instrument": 33, "track": 1, "qtime": 15, "bar": 1, "isDrum": false}, {"time": 66, "velocity": 0, "pitch": 36, "instrument": 0, "track": 0, "qtime": 18, "bar": 1, "isDrum": true}, {"time": 66, "velocity": 0, "pitch": 44, "instrument": 0, "track": 0, "qtime": 18, "bar": 1, "isDrum": true}, {"time": 66, "velocity": 0, "pitch": 45, "instrument": 33, "track": 1, "qtime": 18, "bar": 1, "isDrum": false}, {"time": 66, "velocity": 108, "pitch": 36, "instrument": 0, "track": 0, "qtime": 18, "bar": 1, "isDrum": true}, {"time": 66, "velocity": 108, "pitch": 45, "instrument": 33, "track": 1, "qtime": 18, "bar": 1, "isDrum": false}, {"time": 66, "velocity": 108, "pitch": 54, "instrument": 0, "track": 0, "qtime": 18, "bar": 1, "isDrum": true}, {"time": 68, "velocity": 0, "pitch": 45, "instrument": 33, "track": 1, "qtime": 20, "bar": 1, "isDrum": false}, {"time": 69, "velocity": 0, "pitch": 36, "instrument": 0, "track": 0, "qtime": 21, "bar": 1, "isDrum": true}, {"time": 69, "velocity": 0, "pitch": 54, "instrument": 0, "track": 0, "qtime": 21, "bar": 1, "isDrum": true}, {"time": 69, "velocity": 108, "pitch": 44, "instrument": 0, "track": 0, "qtime": 21, "bar": 1, "isDrum": true}, {"time": 72, "velocity": 0, "pitch": 44, "instrument": 0, "track": 0, "qtime": 24, "bar": 1, "isDrum": true}, {"time": 72, "velocity": 108, "pitch": 36, "instrument": 0, "track": 0, "qtime": 24, "bar": 1, "isDrum": true}, {"time": 72, "velocity": 108, "pitch": 45, "instrument": 33, "track": 1, "qtime": 24, "bar": 1, "isDrum": false}, {"time": 72, "velocity": 108, "pitch": 54, "instrument": 0, "track": 0, "qtime": 24, "bar": 1, "isDrum": true}, {"time": 75, "velocity": 0, "pitch": 36, "instrument": 0, "track": 0, "qtime": 27, "bar": 1, "isDrum": true}, {"time": 75, "velocity": 0, "pitch": 45, "instrument": 33, "track": 1, "qtime": 27, "bar": 1, "isDrum": false}, {"time": 75, "velocity": 0, "pitch": 54, "instrument": 0, "track": 0, "qtime": 27, "bar": 1, "isDrum": true}, {"time": 75, "velocity": 108, "pitch": 44, "instrument": 0, "track": 0, "qtime": 27, "bar": 1, "isDrum": true}, {"time": 78, "velocity": 0, "pitch": 44, "instrument": 0, "track": 0, "qtime": 30, "bar": 1, "isDrum": true}, {"time": 78, "velocity": 108, "pitch": 54, "instrument": 0, "track": 0, "qtime": 30, "bar": 1, "isDrum": true}, {"time": 80, "velocity": 0, "pitch": 57, "instrument": 64, "track": 3, "qtime": 32, "bar": 1, "isDrum": false}, {"time": 81, "velocity": 0, "pitch": 54, "instrument": 0, "track": 0, "qtime": 33, "bar": 1, "isDrum": true}, {"time": 81, "velocity": 108, "pitch": 44, "instrument": 0, "track": 0, "qtime": 33, "bar": 1, "isDrum": true}, {"time": 81, "velocity": 108, "pitch": 60, "instrument": 64, "track": 3, "qtime": 33, "bar": 1, "isDrum": false}, {"time": 84, "velocity": 0, "pitch": 44, "instrument": 0, "track": 0, "qtime": 36, "bar": 1, "isDrum": true}, {"time": 84, "velocity": 0, "pitch": 60, "instrument": 64, "track": 3, "qtime": 36, "bar": 1, "isDrum": false}, {"time": 84, "velocity": 108, "pitch": 38, "instrument": 0, "track": 0, "qtime": 36, "bar": 1, "isDrum": true}, {"time": 84, "velocity": 108, "pitch": 54, "instrument": 0, "track": 0, "qtime": 36, "bar": 1, "isDrum": true}, {"time": 84, "velocity": 108, "pitch": 60, "instrument": 64, "track": 3, "qtime": 36, "bar": 1, "isDrum": false}, {"time": 87, "velocity": 0, "pitch": 38, "instrument": 0, "track": 0, "qtime": 39, "bar": 1, "isDrum": true}, {"time": 87, "velocity": 0, "pitch": 54, "instrument": 0, "track": 0, "qtime": 39, "bar": 1, "isDrum": true}, {"time": 87, "velocity": 108, "pitch": 44, "instrument": 0, "track": 0, "qtime": 39, "bar": 1, "isDrum": true}, {"time": 90, "velocity": 0, "pitch": 44, "instrument": 0, "track": 0, "qtime": 42, "bar": 1, "isDrum": true}, {"time": 90, "velocity": 0, "pitch": 60, "instrument": 64, "track": 3, "qtime": 42, "bar": 1, "isDrum": false}, {"time": 90, "velocity": 108, "pitch": 54, "instrument": 0, "track": 0, "qtime": 42, "bar": 1, "isDrum": true}, {"time": 90, "velocity": 108, "pitch": 62, "instrument": 64, "track": 3, "qtime": 42, "bar": 1, "isDrum": false}, {"time": 93, "velocity": 0, "pitch": 54, "instrument": 0, "track": 0, "qtime": 45, "bar": 1, "isDrum": true}, {"time": 93, "velocity": 0, "pitch": 62, "instrument": 64, "track": 3, "qtime": 45, "bar": 1, "isDrum": false}, {"time": 93, "velocity": 108, "pitch": 44, "instrument": 0, "track": 0, "qtime": 45, "bar": 1, "isDrum": true}, {"time": 93, "velocity": 108, "pitch": 64, "instrument": 64, "track": 3, "qtime": 45, "bar": 1, "isDrum": false}, {"time": 95, "velocity": 0, "pitch": 57, "instrument": 48, "track": 2, "qtime": 47, "bar": 1, "isDrum": false}, {"time": 95, "velocity": 108, "pitch": 53, "instrument": 48, "track": 2, "qtime": 47, "bar": 1, "isDrum": false}, {"time": 96, "velocity": 0, "pitch": 44, "instrument": 0, "track": 0, "qtime": 48, "bar": 1, "isDrum": true}, {"time": 96, "velocity": 0, "pitch": 60, "instrument": 48, "track": 2, "qtime": 48, "bar": 1, "isDrum": false}, {"time": 96, "velocity": 108, "pitch": 36, "instrument": 0, "track": 0, "qtime": 0, "bar": 2, "isDrum": true}, {"time": 96, "velocity": 108, "pitch": 41, "instrument": 33, "track": 1, "qtime": 0, "bar": 2, "isDrum": false}, {"time": 96, "velocity": 108, "pitch": 54, "instrument": 0, "track": 0, "qtime": 0, "bar": 2, "isDrum": true}, {"time": 96, "velocity": 108, "pitch": 57, "instrument": 48, "track": 2, "qtime": 0, "bar": 2, "isDrum": false}, {"time": 99, "velocity": 0, "pitch": 36, "instrument": 0, "track": 0, "qtime": 3, "bar": 2, "isDrum": true}, {"time": 99, "velocity": 0, "pitch": 41, "instrument": 33, "track": 1, "qtime": 3, "bar": 2, "isDrum": false}, {"time": 99, "velocity": 0, "pitch": 54, "instrument": 0, "track": 0, "qtime": 3, "bar": 2, "isDrum": true}, {"time": 99, "velocity": 108, "pitch": 44, "instrument": 0, "track": 0, "qtime": 3, "bar": 2, "isDrum": true}, {"time": 99, "velocity": 108, "pitch": 62, "instrument": 64, "track": 3, "qtime": 3, "bar": 2, "isDrum": false}, {"time": 100, "velocity": 0, "pitch": 64, "instrument": 64, "track": 3, "qtime": 4, "bar": 2, "isDrum": false}, {"time": 102, "velocity": 0, "pitch": 44, "instrument": 0, "track": 0, "qtime": 6, "bar": 2, "isDrum": true}, {"time": 102, "velocity": 0, "pitch": 62, "instrument": 64, "track": 3, "qtime": 6, "bar": 2, "isDrum": false}, {"time": 102, "velocity": 108, "pitch": 36, "instrument": 0, "track": 0, "qtime": 6, "bar": 2, "isDrum": true}, {"time": 102, "velocity": 108, "pitch": 41, "instrument": 33, "track": 1, "qtime": 6, "bar": 2, "isDrum": false}, {"time": 102, "velocity": 108, "pitch": 54, "instrument": 0, "track": 0, "qtime": 6, "bar": 2, "isDrum": true}, {"time": 105, "velocity": 0, "pitch": 36, "instrument": 0, "track": 0, "qtime": 9, "bar": 2, "isDrum": true}, {"time": 105, "velocity": 0, "pitch": 41, "instrument": 33, "track": 1, "qtime": 9, "bar": 2, "isDrum": false}, {"time": 105, "velocity": 0, "pitch": 54, "instrument": 0, "track": 0, "qtime": 9, "bar": 2, "isDrum": true}, {"time": 105, "velocity": 108, "pitch": 44, "instrument": 0, "track": 0, "qtime": 9, "bar": 2, "isDrum": true}, {"time": 105, "velocity": 108, "pitch": 62, "instrument": 64, "track": 3, "qtime": 9, "bar": 2, "isDrum": false}, {"time": 108, "velocity": 0, "pitch": 44, "instrument": 0, "track": 0, "qtime": 12, "bar": 2, "isDrum": true}, {"time": 108, "velocity": 108, "pitch": 38, "instrument": 0, "track": 0, "qtime": 12, "bar": 2, "isDrum": true}, {"time": 108, "velocity": 108, "pitch": 54, "instrument": 0, "track": 0, "qtime": 12, "bar": 2, "isDrum": true}, {"time": 111, "velocity": 0, "pitch": 38, "instrument": 0, "track": 0, "qtime": 15, "bar": 2, "isDrum": true}, {"time": 111, "velocity": 0, "pitch": 54, "instrument": 0, "track": 0, "qtime": 15, "bar": 2, "isDrum": true}, {"time": 111, "velocity": 108, "pitch": 36, "instrument": 0, "track": 0, "qtime": 15, "bar": 2, "isDrum": true}, {"time": 111, "velocity": 108, "pitch": 41, "instrument": 33, "track": 1, "qtime": 15, "bar": 2, "isDrum": false}, {"time": 111, "velocity": 108, "pitch": 44, "instrument": 0, "track": 0, "qtime": 15, "bar": 2, "isDrum": true}, {"time": 112, "velocity": 0, "pitch": 62, "instrument": 64, "track": 3, "qtime": 16, "bar": 2, "isDrum": false}, {"time": 114, "velocity": 0, "pitch": 36, "instrument": 0, "track": 0, "qtime": 18, "bar": 2, "isDrum": true}, {"time": 114, "velocity": 0, "pitch": 41, "instrument": 33, "track": 1, "qtime": 18, "bar": 2, "isDrum": false}, {"time": 114, "velocity": 0, "pitch": 44, "instrument": 0, "track": 0, "qtime": 18, "bar": 2, "isDrum": true}, {"time": 114, "velocity": 108, "pitch": 36, "instrument": 0, "track": 0, "qtime": 18, "bar": 2, "isDrum": true}, {"time": 114, "velocity": 108, "pitch": 41, "instrument": 33, "track": 1, "qtime": 18, "bar": 2, "isDrum": false}, {"time": 114, "velocity": 108, "pitch": 54, "instrument": 0, "track": 0, "qtime": 18, "bar": 2, "isDrum": true}, {"time": 116, "velocity": 0, "pitch": 41, "instrument": 33, "track": 1, "qtime": 20, "bar": 2, "isDrum": false}, {"time": 117, "velocity": 0, "pitch": 36, "instrument": 0, "track": 0, "qtime": 21, "bar": 2, "isDrum": true}, {"time": 117, "velocity": 0, "pitch": 54, "instrument": 0, "track": 0, "qtime": 21, "bar": 2, "isDrum": true}, {"time": 117, "velocity": 108, "pitch": 44, "instrument": 0, "track": 0, "qtime": 21, "bar": 2, "isDrum": true}, {"time": 117, "velocity": 108, "pitch": 64, "instrument": 64, "track": 3, "qtime": 21, "bar": 2, "isDrum": false}, {"time": 120, "velocity": 0, "pitch": 44, "instrument": 0, "track": 0, "qtime": 24, "bar": 2, "isDrum": true}, {"time": 120, "velocity": 108, "pitch": 36, "instrument": 0, "track": 0, "qtime": 24, "bar": 2, "isDrum": true}, {"time": 120, "velocity": 108, "pitch": 41, "instrument": 33, "track": 1, "qtime": 24, "bar": 2, "isDrum": false}, {"time": 120, "velocity": 108, "pitch": 54, "instrument": 0, "track": 0, "qtime": 24, "bar": 2, "isDrum": true}, {"time": 123, "velocity": 0, "pitch": 36, "instrument": 0, "track": 0, "qtime": 27, "bar": 2, "isDrum": true}, {"time": 123, "velocity": 0, "pitch": 41, "instrument": 33, "track": 1, "qtime": 27, "bar": 2, "isDrum": false}, {"time": 123, "velocity": 0, "pitch": 54, "instrument": 0, "track": 0, "qtime": 27, "bar": 2, "isDrum": true}, {"time": 123, "velocity": 0, "pitch": 64, "instrument": 64, "track": 3, "qtime": 27, "bar": 2, "isDrum": false}, {"time": 123, "velocity": 108, "pitch": 44, "instrument": 0, "track": 0, "qtime": 27, "bar": 2, "isDrum": true}, {"time": 123, "velocity": 108, "pitch": 62, "instrument": 64, "track": 3, "qtime": 27, "bar": 2, "isDrum": false}, {"time": 126, "velocity": 0, "pitch": 44, "instrument": 0, "track": 0, "qtime": 30, "bar": 2, "isDrum": true}, {"time": 126, "velocity": 0, "pitch": 62, "instrument": 64, "track": 3, "qtime": 30, "bar": 2, "isDrum": false}, {"time": 126, "velocity": 108, "pitch": 54, "instrument": 0, "track": 0, "qtime": 30, "bar": 2, "isDrum": true}, {"time": 126, "velocity": 108, "pitch": 62, "instrument": 64, "track": 3, "qtime": 30, "bar": 2, "isDrum": false}, {"time": 129, "velocity": 0, "pitch": 54, "instrument": 0, "track": 0, "qtime": 33, "bar": 2, "isDrum": true}, {"time": 129, "velocity": 0, "pitch": 62, "instrument": 64, "track": 3, "qtime": 33, "bar": 2, "isDrum": false}, {"time": 129, "velocity": 108, "pitch": 44, "instrument": 0, "track": 0, "qtime": 33, "bar": 2, "isDrum": true}, {"time": 129, "velocity": 108, "pitch": 60, "instrument": 64, "track": 3, "qtime": 33, "bar": 2, "isDrum": false}, {"time": 132, "velocity": 0, "pitch": 44, "instrument": 0, "track": 0, "qtime": 36, "bar": 2, "isDrum": true}, {"time": 132, "velocity": 0, "pitch": 60, "instrument": 64, "track": 3, "qtime": 36, "bar": 2, "isDrum": false}, {"time": 132, "velocity": 108, "pitch": 38, "instrument": 0, "track": 0, "qtime": 36, "bar": 2, "isDrum": true}, {"time": 132, "velocity": 108, "pitch": 54, "instrument": 0, "track": 0, "qtime": 36, "bar": 2, "isDrum": true}, {"time": 132, "velocity": 108, "pitch": 62, "instrument": 64, "track": 3, "qtime": 36, "bar": 2, "isDrum": false}, {"time": 135, "velocity": 0, "pitch": 38, "instrument": 0, "track": 0, "qtime": 39, "bar": 2, "isDrum": true}, {"time": 135, "velocity": 0, "pitch": 54, "instrument": 0, "track": 0, "qtime": 39, "bar": 2, "isDrum": true}, {"time": 135, "velocity": 108, "pitch": 44, "instrument": 0, "track": 0, "qtime": 39, "bar": 2, "isDrum": true}, {"time": 138, "velocity": 0, "pitch": 44, "instrument": 0, "track": 0, "qtime": 42, "bar": 2, "isDrum": true}, {"time": 138, "velocity": 0, "pitch": 62, "instrument": 64, "track": 3, "qtime": 42, "bar": 2, "isDrum": false}, {"time": 138, "velocity": 108, "pitch": 54, "instrument": 0, "track": 0, "qtime": 42, "bar": 2, "isDrum": true}, {"time": 138, "velocity": 108, "pitch": 60, "instrument": 64, "track": 3, "qtime": 42, "bar": 2, "isDrum": false}, {"time": 141, "velocity": 0, "pitch": 54, "instrument": 0, "track": 0, "qtime": 45, "bar": 2, "isDrum": true}, {"time": 141, "velocity": 108, "pitch": 44, "instrument": 0, "track": 0, "qtime": 45, "bar": 2, "isDrum": true}, {"time": 144, "velocity": 0, "pitch": 44, "instrument": 0, "track": 0, "qtime": 48, "bar": 2, "isDrum": true}, {"time": 144, "velocity": 0, "pitch": 60, "instrument": 64, "track": 3, "qtime": 48, "bar": 2, "isDrum": false}, {"time": 144, "velocity": 108, "pitch": 36, "instrument": 0, "track": 0, "qtime": 0, "bar": 3, "isDrum": true}, {"time": 144, "velocity": 108, "pitch": 41, "instrument": 33, "track": 1, "qtime": 0, "bar": 3, "isDrum": false}, {"time": 144, "velocity": 108, "pitch": 54, "instrument": 0, "track": 0, "qtime": 0, "bar": 3, "isDrum": true}, {"time": 147, "velocity": 0, "pitch": 36, "instrument": 0, "track": 0, "qtime": 3, "bar": 3, "isDrum": true}, {"time": 147, "velocity": 0, "pitch": 41, "instrument": 33, "track": 1, "qtime": 3, "bar": 3, "isDrum": false}, {"time": 147, "velocity": 0, "pitch": 54, "instrument": 0, "track": 0, "qtime": 3, "bar": 3, "isDrum": true}, {"time": 147, "velocity": 108, "pitch": 44, "instrument": 0, "track": 0, "qtime": 3, "bar": 3, "isDrum": true}, {"time": 150, "velocity": 0, "pitch": 44, "instrument": 0, "track": 0, "qtime": 6, "bar": 3, "isDrum": true}, {"time": 150, "velocity": 108, "pitch": 36, "instrument": 0, "track": 0, "qtime": 6, "bar": 3, "isDrum": true}, {"time": 150, "velocity": 108, "pitch": 41, "instrument": 33, "track": 1, "qtime": 6, "bar": 3, "isDrum": false}, {"time": 150, "velocity": 108, "pitch": 54, "instrument": 0, "track": 0, "qtime": 6, "bar": 3, "isDrum": true}, {"time": 150, "velocity": 108, "pitch": 57, "instrument": 64, "track": 3, "qtime": 6, "bar": 3, "isDrum": false}, {"time": 153, "velocity": 0, "pitch": 36, "instrument": 0, "track": 0, "qtime": 9, "bar": 3, "isDrum": true}, {"time": 153, "velocity": 0, "pitch": 41, "instrument": 33, "track": 1, "qtime": 9, "bar": 3, "isDrum": false}, {"time": 153, "velocity": 0, "pitch": 54, "instrument": 0, "track": 0, "qtime": 9, "bar": 3, "isDrum": true}, {"time": 153, "velocity": 0, "pitch": 57, "instrument": 64, "track": 3, "qtime": 9, "bar": 3, "isDrum": false}, {"time": 153, "velocity": 108, "pitch": 44, "instrument": 0, "track": 0, "qtime": 9, "bar": 3, "isDrum": true}, {"time": 153, "velocity": 108, "pitch": 60, "instrument": 64, "track": 3, "qtime": 9, "bar": 3, "isDrum": false}, {"time": 156, "velocity": 0, "pitch": 44, "instrument": 0, "track": 0, "qtime": 12, "bar": 3, "isDrum": true}, {"time": 156, "velocity": 108, "pitch": 38, "instrument": 0, "track": 0, "qtime": 12, "bar": 3, "isDrum": true}, {"time": 156, "velocity": 108, "pitch": 54, "instrument": 0, "track": 0, "qtime": 12, "bar": 3, "isDrum": true}, {"time": 159, "velocity": 0, "pitch": 38, "instrument": 0, "track": 0, "qtime": 15, "bar": 3, "isDrum": true}, {"time": 159, "velocity": 0, "pitch": 54, "instrument": 0, "track": 0, "qtime": 15, "bar": 3, "isDrum": true}, {"time": 159, "velocity": 0, "pitch": 60, "instrument": 64, "track": 3, "qtime": 15, "bar": 3, "isDrum": false}, {"time": 159, "velocity": 108, "pitch": 36, "instrument": 0, "track": 0, "qtime": 15, "bar": 3, "isDrum": true}, {"time": 159, "velocity": 108, "pitch": 41, "instrument": 33, "track": 1, "qtime": 15, "bar": 3, "isDrum": false}, {"time": 159, "velocity": 108, "pitch": 44, "instrument": 0, "track": 0, "qtime": 15, "bar": 3, "isDrum": true}, {"time": 159, "velocity": 108, "pitch": 57, "instrument": 64, "track": 3, "qtime": 15, "bar": 3, "isDrum": false}, {"time": 162, "velocity": 0, "pitch": 36, "instrument": 0, "track": 0, "qtime": 18, "bar": 3, "isDrum": true}, {"time": 162, "velocity": 0, "pitch": 41, "instrument": 33, "track": 1, "qtime": 18, "bar": 3, "isDrum": false}, {"time": 162, "velocity": 0, "pitch": 44, "instrument": 0, "track": 0, "qtime": 18, "bar": 3, "isDrum": true}, {"time": 162, "velocity": 0, "pitch": 57, "instrument": 64, "track": 3, "qtime": 18, "bar": 3, "isDrum": false}, {"time": 162, "velocity": 108, "pitch": 36, "instrument": 0, "track": 0, "qtime": 18, "bar": 3, "isDrum": true}, {"time": 162, "velocity": 108, "pitch": 41, "instrument": 33, "track": 1, "qtime": 18, "bar": 3, "isDrum": false}, {"time": 162, "velocity": 108, "pitch": 54, "instrument": 0, "track": 0, "qtime": 18, "bar": 3, "isDrum": true}, {"time": 162, "velocity": 108, "pitch": 60, "instrument": 64, "track": 3, "qtime": 18, "bar": 3, "isDrum": false}, {"time": 165, "velocity": 0, "pitch": 36, "instrument": 0, "track": 0, "qtime": 21, "bar": 3, "isDrum": true}, {"time": 165, "velocity": 0, "pitch": 41, "instrument": 33, "track": 1, "qtime": 21, "bar": 3, "isDrum": false}, {"time": 165, "velocity": 0, "pitch": 54, "instrument": 0, "track": 0, "qtime": 21, "bar": 3, "isDrum": true}, {"time": 165, "velocity": 0, "pitch": 60, "instrument": 64, "track": 3, "qtime": 21, "bar": 3, "isDrum": false}, {"time": 165, "velocity": 108, "pitch": 44, "instrument": 0, "track": 0, "qtime": 21, "bar": 3, "isDrum": true}, {"time": 165, "velocity": 108, "pitch": 57, "instrument": 64, "track": 3, "qtime": 21, "bar": 3, "isDrum": false}, {"time": 168, "velocity": 0, "pitch": 44, "instrument": 0, "track": 0, "qtime": 24, "bar": 3, "isDrum": true}, {"time": 168, "velocity": 108, "pitch": 36, "instrument": 0, "track": 0, "qtime": 24, "bar": 3, "isDrum": true}, {"time": 168, "velocity": 108, "pitch": 41, "instrument": 33, "track": 1, "qtime": 24, "bar": 3, "isDrum": false}, {"time": 168, "velocity": 108, "pitch": 54, "instrument": 0, "track": 0, "qtime": 24, "bar": 3, "isDrum": true}, {"time": 168, "velocity": 108, "pitch": 62, "instrument": 64, "track": 3, "qtime": 24, "bar": 3, "isDrum": false}, {"time": 169, "velocity": 0, "pitch": 57, "instrument": 64, "track": 3, "qtime": 25, "bar": 3, "isDrum": false}, {"time": 171, "velocity": 0, "pitch": 36, "instrument": 0, "track": 0, "qtime": 27, "bar": 3, "isDrum": true}, {"time": 171, "velocity": 0, "pitch": 41, "instrument": 33, "track": 1, "qtime": 27, "bar": 3, "isDrum": false}, {"time": 171, "velocity": 0, "pitch": 54, "instrument": 0, "track": 0, "qtime": 27, "bar": 3, "isDrum": true}, {"time": 171, "velocity": 108, "pitch": 44, "instrument": 0, "track": 0, "qtime": 27, "bar": 3, "isDrum": true}, {"time": 174, "velocity": 0, "pitch": 44, "instrument": 0, "track": 0, "qtime": 30, "bar": 3, "isDrum": true}, {"time": 174, "velocity": 0, "pitch": 62, "instrument": 64, "track": 3, "qtime": 30, "bar": 3, "isDrum": false}, {"time": 174, "velocity": 108, "pitch": 54, "instrument": 0, "track": 0, "qtime": 30, "bar": 3, "isDrum": true}, {"time": 174, "velocity": 108, "pitch": 64, "instrument": 64, "track": 3, "qtime": 30, "bar": 3, "isDrum": false}, {"time": 177, "velocity": 0, "pitch": 54, "instrument": 0, "track": 0, "qtime": 33, "bar": 3, "isDrum": true}, {"time": 177, "velocity": 0, "pitch": 64, "instrument": 64, "track": 3, "qtime": 33, "bar": 3, "isDrum": false}, {"time": 177, "velocity": 108, "pitch": 44, "instrument": 0, "track": 0, "qtime": 33, "bar": 3, "isDrum": true}, {"time": 180, "velocity": 0, "pitch": 44, "instrument": 0, "track": 0, "qtime": 36, "bar": 3, "isDrum": true}, {"time": 180, "velocity": 0, "pitch": 53, "instrument": 48, "track": 2, "qtime": 36, "bar": 3, "isDrum": false}, {"time": 180, "velocity": 108, "pitch": 38, "instrument": 0, "track": 0, "qtime": 36, "bar": 3, "isDrum": true}, {"time": 180, "velocity": 108, "pitch": 54, "instrument": 0, "track": 0, "qtime": 36, "bar": 3, "isDrum": true}, {"time": 180, "velocity": 108, "pitch": 64, "instrument": 64, "track": 3, "qtime": 36, "bar": 3, "isDrum": false}, {"time": 181, "velocity": 0, "pitch": 57, "instrument": 48, "track": 2, "qtime": 37, "bar": 3, "isDrum": false}, {"time": 183, "velocity": 0, "pitch": 38, "instrument": 0, "track": 0, "qtime": 39, "bar": 3, "isDrum": true}, {"time": 183, "velocity": 0, "pitch": 54, "instrument": 0, "track": 0, "qtime": 39, "bar": 3, "isDrum": true}, {"time": 183, "velocity": 108, "pitch": 44, "instrument": 0, "track": 0, "qtime": 39, "bar": 3, "isDrum": true}, {"time": 186, "velocity": 0, "pitch": 44, "instrument": 0, "track": 0, "qtime": 42, "bar": 3, "isDrum": true}, {"time": 186, "velocity": 108, "pitch": 54, "instrument": 0, "track": 0, "qtime": 42, "bar": 3, "isDrum": true}, {"time": 189, "velocity": 0, "pitch": 54, "instrument": 0, "track": 0, "qtime": 45, "bar": 3, "isDrum": true}, {"time": 189, "velocity": 108, "pitch": 44, "instrument": 0, "track": 0, "qtime": 45, "bar": 3, "isDrum": true}, {"time": 192, "velocity": 0, "pitch": 44, "instrument": 0, "track": 0, "qtime": 48, "bar": 3, "isDrum": true}, {"time": 192, "velocity": 0, "pitch": 64, "instrument": 64, "track": 3, "qtime": 48, "bar": 3, "isDrum": false}], "resolution": 12, "tempo": 75, "minPitch": 36, "maxPitch": 67, "validSegments": [0, 1], "validTracks": [15, 11], "segmentLength": 4}, "audio": "https://www.sfu.ca/~jeffe/examples/stem_1.mp3"}, {"src": "gen/stem_1_chrom_perc.json", "highlights": [[], [], [], [0, 1, 2, 3]], "caption": "We generate a new chromatic percussion track conditioned on the first three tracks in 18a.", "sample_id": "18b", "mixer": [8, 8, 8, 8], "tempo": 75, "json": {"tracks": [{"bars": [{"events": [0, 1, 2, 3, 4, 5, 6, 7, 8, 9, 10, 11, 12, 13, 14, 15, 16, 17, 18, 19, 20, 21, 22, 23, 24, 25, 26, 27, 28, 29, 30, 31, 32, 33, 34, 35, 36, 37, 38, 39, 40, 41, 42, 43, 44, 45], "isFourFour": true, "hasNotes": true, "time": 0}, {"events": [46, 47, 48, 49, 50, 51, 52, 53, 54, 55, 56, 57, 58, 59, 60, 61, 62, 63, 64, 65, 66, 67, 68, 69, 70, 71, 72, 73, 74, 75, 76, 77, 78, 79, 80, 81, 82, 83, 84, 85, 86, 87, 88, 89, 90, 91], "isFourFour": true, "hasNotes": true, "time": 48}, {"events": [92, 93, 94, 95, 96, 97, 98, 99, 100, 101, 102, 103, 104, 105, 106, 107, 108, 109, 110, 111, 112, 113, 114, 115, 116, 117, 118, 119, 120, 121, 122, 123, 124, 125, 126, 127, 128, 129, 130, 131, 132, 133, 134, 135, 136, 137], "isFourFour": true, "hasNotes": true, "time": 96}, {"events": [138, 139, 140, 141, 142, 143, 144, 145, 146, 147, 148, 149, 150, 151, 152, 153, 154, 155, 156, 157, 158, 159, 160, 161, 162, 163, 164, 165, 166, 167, 168, 169, 170, 171, 172, 173, 174, 175, 176, 177, 178, 179, 180, 181, 182, 183], "isFourFour": true, "hasNotes": true, "time": 144}], "isDrum": true, "minPitch": 36, "maxPitch": 54, "instrument": 0, "avPolyphony": 1.4375, "noteDensity": 9, "noteDensityV2": 8}, {"bars": [{"events": [184, 185, 186, 187, 188, 189, 190, 191, 192, 193], "isFourFour": true, "hasNotes": true, "time": 0}, {"events": [194, 195, 196, 197, 198, 199, 200, 201, 202, 203], "isFourFour": true, "hasNotes": true, "time": 48}, {"events": [204, 205, 206, 207, 208, 209, 210, 211, 212, 213], "isFourFour": true, "hasNotes": true, "time": 96}, {"events": [214, 215, 216, 217, 218, 219, 220, 221, 222, 223], "isFourFour": true, "hasNotes": true, "time": 144}], "isDrum": false, "minPitch": 41, "maxPitch": 45, "instrument": 33, "avPolyphony": 1, "noteDensity": 6, "noteDensityV2": 5}, {"bars": [{"events": [224, 225], "isFourFour": true, "hasNotes": true, "time": 0}, {"events": [226, 227, 228], "isFourFour": true, "hasNotes": true, "time": 48}, {"events": [229], "isFourFour": true, "hasNotes": true, "time": 96}, {"events": [230, 231], "isFourFour": true, "hasNotes": true, "time": 144}], "isDrum": false, "minPitch": 53, "maxPitch": 60, "instrument": 48, "avPolyphony": 1.9944751, "noteDensity": 0, "noteDensityV2": 0}, {"bars": [{"events": [232, 233, 234, 235, 236, 237, 238, 239, 240, 241, 242, 243, 244, 245, 246, 247], "isFourFour": true, "hasNotes": true, "time": 0}, {"events": [248, 249, 250, 251, 252, 253, 254, 255, 256, 257, 258, 259, 260, 261, 262, 263], "isFourFour": true, "hasNotes": true, "time": 48}, {"events": [264, 265, 266, 267, 268, 269, 270, 271, 272, 273, 274, 275, 276, 277, 278, 279], "isFourFour": true, "hasNotes": true, "time": 96}, {"events": [280, 281, 282, 283, 284, 285, 286, 287, 288, 289, 290, 291, 292, 293, 294, 295], "isFourFour": true, "hasNotes": true, "time": 144}], "isDrum": false, "minPitch": 53, "maxPitch": 62, "instrument": 11, "avPolyphony": 1, "noteDensity": 8, "noteDensityV2": 8}], "events": [{"time": 0, "velocity": 108, "pitch": 36, "instrument": 0, "track": 9, "qtime": 0, "isDrum": true}, {"time": 0, "velocity": 108, "pitch": 54, "instrument": 0, "track": 9, "qtime": 0, "isDrum": true}, {"time": 3, "velocity": 0, "pitch": 36, "instrument": 0, "track": 9, "qtime": 3, "isDrum": true}, {"time": 3, "velocity": 0, "pitch": 54, "instrument": 0, "track": 9, "qtime": 3, "isDrum": true}, {"time": 3, "velocity": 108, "pitch": 44, "instrument": 0, "track": 9, "qtime": 3, "isDrum": true}, {"time": 6, "velocity": 0, "pitch": 44, "instrument": 0, "track": 9, "qtime": 6, "isDrum": true}, {"time": 6, "velocity": 108, "pitch": 36, "instrument": 0, "track": 9, "qtime": 6, "isDrum": true}, {"time": 6, "velocity": 108, "pitch": 54, "instrument": 0, "track": 9, "qtime": 6, "isDrum": true}, {"time": 9, "velocity": 0, "pitch": 36, "instrument": 0, "track": 9, "qtime": 9, "isDrum": true}, {"time": 9, "velocity": 0, "pitch": 54, "instrument": 0, "track": 9, "qtime": 9, "isDrum": true}, {"time": 9, "velocity": 108, "pitch": 44, "instrument": 0, "track": 9, "qtime": 9, "isDrum": true}, {"time": 12, "velocity": 0, "pitch": 44, "instrument": 0, "track": 9, "qtime": 12, "isDrum": true}, {"time": 12, "velocity": 108, "pitch": 38, "instrument": 0, "track": 9, "qtime": 12, "isDrum": true}, {"time": 12, "velocity": 108, "pitch": 54, "instrument": 0, "track": 9, "qtime": 12, "isDrum": true}, {"time": 15, "velocity": 0, "pitch": 38, "instrument": 0, "track": 9, "qtime": 15, "isDrum": true}, {"time": 15, "velocity": 0, "pitch": 54, "instrument": 0, "track": 9, "qtime": 15, "isDrum": true}, {"time": 15, "velocity": 108, "pitch": 36, "instrument": 0, "track": 9, "qtime": 15, "isDrum": true}, {"time": 15, "velocity": 108, "pitch": 44, "instrument": 0, "track": 9, "qtime": 15, "isDrum": true}, {"time": 18, "velocity": 0, "pitch": 36, "instrument": 0, "track": 9, "qtime": 18, "isDrum": true}, {"time": 18, "velocity": 0, "pitch": 44, "instrument": 0, "track": 9, "qtime": 18, "isDrum": true}, {"time": 18, "velocity": 108, "pitch": 36, "instrument": 0, "track": 9, "qtime": 18, "isDrum": true}, {"time": 18, "velocity": 108, "pitch": 54, "instrument": 0, "track": 9, "qtime": 18, "isDrum": true}, {"time": 21, "velocity": 0, "pitch": 36, "instrument": 0, "track": 9, "qtime": 21, "isDrum": true}, {"time": 21, "velocity": 0, "pitch": 54, "instrument": 0, "track": 9, "qtime": 21, "isDrum": true}, {"time": 21, "velocity": 108, "pitch": 44, "instrument": 0, "track": 9, "qtime": 21, "isDrum": true}, {"time": 24, "velocity": 0, "pitch": 44, "instrument": 0, "track": 9, "qtime": 24, "isDrum": true}, {"time": 24, "velocity": 108, "pitch": 36, "instrument": 0, "track": 9, "qtime": 24, "isDrum": true}, {"time": 24, "velocity": 108, "pitch": 54, "instrument": 0, "track": 9, "qtime": 24, "isDrum": true}, {"time": 27, "velocity": 0, "pitch": 36, "instrument": 0, "track": 9, "qtime": 27, "isDrum": true}, {"time": 27, "velocity": 0, "pitch": 54, "instrument": 0, "track": 9, "qtime": 27, "isDrum": true}, {"time": 27, "velocity": 108, "pitch": 44, "instrument": 0, "track": 9, "qtime": 27, "isDrum": true}, {"time": 30, "velocity": 0, "pitch": 44, "instrument": 0, "track": 9, "qtime": 30, "isDrum": true}, {"time": 30, "velocity": 108, "pitch": 54, "instrument": 0, "track": 9, "qtime": 30, "isDrum": true}, {"time": 33, "velocity": 0, "pitch": 54, "instrument": 0, "track": 9, "qtime": 33, "isDrum": true}, {"time": 33, "velocity": 108, "pitch": 44, "instrument": 0, "track": 9, "qtime": 33, "isDrum": true}, {"time": 36, "velocity": 0, "pitch": 44, "instrument": 0, "track": 9, "qtime": 36, "isDrum": true}, {"time": 36, "velocity": 108, "pitch": 38, "instrument": 0, "track": 9, "qtime": 36, "isDrum": true}, {"time": 36, "velocity": 108, "pitch": 54, "instrument": 0, "track": 9, "qtime": 36, "isDrum": true}, {"time": 39, "velocity": 0, "pitch": 38, "instrument": 0, "track": 9, "qtime": 39, "isDrum": true}, {"time": 39, "velocity": 0, "pitch": 54, "instrument": 0, "track": 9, "qtime": 39, "isDrum": true}, {"time": 39, "velocity": 108, "pitch": 44, "instrument": 0, "track": 9, "qtime": 39, "isDrum": true}, {"time": 42, "velocity": 0, "pitch": 44, "instrument": 0, "track": 9, "qtime": 42, "isDrum": true}, {"time": 42, "velocity": 108, "pitch": 54, "instrument": 0, "track": 9, "qtime": 42, "isDrum": true}, {"time": 45, "velocity": 0, "pitch": 54, "instrument": 0, "track": 9, "qtime": 45, "isDrum": true}, {"time": 45, "velocity": 108, "pitch": 44, "instrument": 0, "track": 9, "qtime": 45, "isDrum": true}, {"time": 48, "velocity": 0, "pitch": 44, "instrument": 0, "track": 9, "qtime": 48, "isDrum": true}, {"time": 48, "velocity": 108, "pitch": 36, "instrument": 0, "track": 9, "qtime": 0, "isDrum": true}, {"time": 48, "velocity": 108, "pitch": 54, "instrument": 0, "track": 9, "qtime": 0, "isDrum": true}, {"time": 51, "velocity": 0, "pitch": 36, "instrument": 0, "track": 9, "qtime": 3, "isDrum": true}, {"time": 51, "velocity": 0, "pitch": 54, "instrument": 0, "track": 9, "qtime": 3, "isDrum": true}, {"time": 51, "velocity": 108, "pitch": 44, "instrument": 0, "track": 9, "qtime": 3, "isDrum": true}, {"time": 54, "velocity": 0, "pitch": 44, "instrument": 0, "track": 9, "qtime": 6, "isDrum": true}, {"time": 54, "velocity": 108, "pitch": 36, "instrument": 0, "track": 9, "qtime": 6, "isDrum": true}, {"time": 54, "velocity": 108, "pitch": 54, "instrument": 0, "track": 9, "qtime": 6, "isDrum": true}, {"time": 57, "velocity": 0, "pitch": 36, "instrument": 0, "track": 9, "qtime": 9, "isDrum": true}, {"time": 57, "velocity": 0, "pitch": 54, "instrument": 0, "track": 9, "qtime": 9, "isDrum": true}, {"time": 57, "velocity": 108, "pitch": 44, "instrument": 0, "track": 9, "qtime": 9, "isDrum": true}, {"time": 60, "velocity": 0, "pitch": 44, "instrument": 0, "track": 9, "qtime": 12, "isDrum": true}, {"time": 60, "velocity": 108, "pitch": 38, "instrument": 0, "track": 9, "qtime": 12, "isDrum": true}, {"time": 60, "velocity": 108, "pitch": 54, "instrument": 0, "track": 9, "qtime": 12, "isDrum": true}, {"time": 63, "velocity": 0, "pitch": 38, "instrument": 0, "track": 9, "qtime": 15, "isDrum": true}, {"time": 63, "velocity": 0, "pitch": 54, "instrument": 0, "track": 9, "qtime": 15, "isDrum": true}, {"time": 63, "velocity": 108, "pitch": 36, "instrument": 0, "track": 9, "qtime": 15, "isDrum": true}, {"time": 63, "velocity": 108, "pitch": 44, "instrument": 0, "track": 9, "qtime": 15, "isDrum": true}, {"time": 66, "velocity": 0, "pitch": 36, "instrument": 0, "track": 9, "qtime": 18, "isDrum": true}, {"time": 66, "velocity": 0, "pitch": 44, "instrument": 0, "track": 9, "qtime": 18, "isDrum": true}, {"time": 66, "velocity": 108, "pitch": 36, "instrument": 0, "track": 9, "qtime": 18, "isDrum": true}, {"time": 66, "velocity": 108, "pitch": 54, "instrument": 0, "track": 9, "qtime": 18, "isDrum": true}, {"time": 69, "velocity": 0, "pitch": 36, "instrument": 0, "track": 9, "qtime": 21, "isDrum": true}, {"time": 69, "velocity": 0, "pitch": 54, "instrument": 0, "track": 9, "qtime": 21, "isDrum": true}, {"time": 69, "velocity": 108, "pitch": 44, "instrument": 0, "track": 9, "qtime": 21, "isDrum": true}, {"time": 72, "velocity": 0, "pitch": 44, "instrument": 0, "track": 9, "qtime": 24, "isDrum": true}, {"time": 72, "velocity": 108, "pitch": 36, "instrument": 0, "track": 9, "qtime": 24, "isDrum": true}, {"time": 72, "velocity": 108, "pitch": 54, "instrument": 0, "track": 9, "qtime": 24, "isDrum": true}, {"time": 75, "velocity": 0, "pitch": 36, "instrument": 0, "track": 9, "qtime": 27, "isDrum": true}, {"time": 75, "velocity": 0, "pitch": 54, "instrument": 0, "track": 9, "qtime": 27, "isDrum": true}, {"time": 75, "velocity": 108, "pitch": 44, "instrument": 0, "track": 9, "qtime": 27, "isDrum": true}, {"time": 78, "velocity": 0, "pitch": 44, "instrument": 0, "track": 9, "qtime": 30, "isDrum": true}, {"time": 78, "velocity": 108, "pitch": 54, "instrument": 0, "track": 9, "qtime": 30, "isDrum": true}, {"time": 81, "velocity": 0, "pitch": 54, "instrument": 0, "track": 9, "qtime": 33, "isDrum": true}, {"time": 81, "velocity": 108, "pitch": 44, "instrument": 0, "track": 9, "qtime": 33, "isDrum": true}, {"time": 84, "velocity": 0, "pitch": 44, "instrument": 0, "track": 9, "qtime": 36, "isDrum": true}, {"time": 84, "velocity": 108, "pitch": 38, "instrument": 0, "track": 9, "qtime": 36, "isDrum": true}, {"time": 84, "velocity": 108, "pitch": 54, "instrument": 0, "track": 9, "qtime": 36, "isDrum": true}, {"time": 87, "velocity": 0, "pitch": 38, "instrument": 0, "track": 9, "qtime": 39, "isDrum": true}, {"time": 87, "velocity": 0, "pitch": 54, "instrument": 0, "track": 9, "qtime": 39, "isDrum": true}, {"time": 87, "velocity": 108, "pitch": 44, "instrument": 0, "track": 9, "qtime": 39, "isDrum": true}, {"time": 90, "velocity": 0, "pitch": 44, "instrument": 0, "track": 9, "qtime": 42, "isDrum": true}, {"time": 90, "velocity": 108, "pitch": 54, "instrument": 0, "track": 9, "qtime": 42, "isDrum": true}, {"time": 93, "velocity": 0, "pitch": 54, "instrument": 0, "track": 9, "qtime": 45, "isDrum": true}, {"time": 93, "velocity": 108, "pitch": 44, "instrument": 0, "track": 9, "qtime": 45, "isDrum": true}, {"time": 96, "velocity": 0, "pitch": 44, "instrument": 0, "track": 9, "qtime": 48, "isDrum": true}, {"time": 96, "velocity": 108, "pitch": 36, "instrument": 0, "track": 9, "qtime": 0, "isDrum": true}, {"time": 96, "velocity": 108, "pitch": 54, "instrument": 0, "track": 9, "qtime": 0, "isDrum": true}, {"time": 99, "velocity": 0, "pitch": 36, "instrument": 0, "track": 9, "qtime": 3, "isDrum": true}, {"time": 99, "velocity": 0, "pitch": 54, "instrument": 0, "track": 9, "qtime": 3, "isDrum": true}, {"time": 99, "velocity": 108, "pitch": 44, "instrument": 0, "track": 9, "qtime": 3, "isDrum": true}, {"time": 102, "velocity": 0, "pitch": 44, "instrument": 0, "track": 9, "qtime": 6, "isDrum": true}, {"time": 102, "velocity": 108, "pitch": 36, "instrument": 0, "track": 9, "qtime": 6, "isDrum": true}, {"time": 102, "velocity": 108, "pitch": 54, "instrument": 0, "track": 9, "qtime": 6, "isDrum": true}, {"time": 105, "velocity": 0, "pitch": 36, "instrument": 0, "track": 9, "qtime": 9, "isDrum": true}, {"time": 105, "velocity": 0, "pitch": 54, "instrument": 0, "track": 9, "qtime": 9, "isDrum": true}, {"time": 105, "velocity": 108, "pitch": 44, "instrument": 0, "track": 9, "qtime": 9, "isDrum": true}, {"time": 108, "velocity": 0, "pitch": 44, "instrument": 0, "track": 9, "qtime": 12, "isDrum": true}, {"time": 108, "velocity": 108, "pitch": 38, "instrument": 0, "track": 9, "qtime": 12, "isDrum": true}, {"time": 108, "velocity": 108, "pitch": 54, "instrument": 0, "track": 9, "qtime": 12, "isDrum": true}, {"time": 111, "velocity": 0, "pitch": 38, "instrument": 0, "track": 9, "qtime": 15, "isDrum": true}, {"time": 111, "velocity": 0, "pitch": 54, "instrument": 0, "track": 9, "qtime": 15, "isDrum": true}, {"time": 111, "velocity": 108, "pitch": 36, "instrument": 0, "track": 9, "qtime": 15, "isDrum": true}, {"time": 111, "velocity": 108, "pitch": 44, "instrument": 0, "track": 9, "qtime": 15, "isDrum": true}, {"time": 114, "velocity": 0, "pitch": 36, "instrument": 0, "track": 9, "qtime": 18, "isDrum": true}, {"time": 114, "velocity": 0, "pitch": 44, "instrument": 0, "track": 9, "qtime": 18, "isDrum": true}, {"time": 114, "velocity": 108, "pitch": 36, "instrument": 0, "track": 9, "qtime": 18, "isDrum": true}, {"time": 114, "velocity": 108, "pitch": 54, "instrument": 0, "track": 9, "qtime": 18, "isDrum": true}, {"time": 117, "velocity": 0, "pitch": 36, "instrument": 0, "track": 9, "qtime": 21, "isDrum": true}, {"time": 117, "velocity": 0, "pitch": 54, "instrument": 0, "track": 9, "qtime": 21, "isDrum": true}, {"time": 117, "velocity": 108, "pitch": 44, "instrument": 0, "track": 9, "qtime": 21, "isDrum": true}, {"time": 120, "velocity": 0, "pitch": 44, "instrument": 0, "track": 9, "qtime": 24, "isDrum": true}, {"time": 120, "velocity": 108, "pitch": 36, "instrument": 0, "track": 9, "qtime": 24, "isDrum": true}, {"time": 120, "velocity": 108, "pitch": 54, "instrument": 0, "track": 9, "qtime": 24, "isDrum": true}, {"time": 123, "velocity": 0, "pitch": 36, "instrument": 0, "track": 9, "qtime": 27, "isDrum": true}, {"time": 123, "velocity": 0, "pitch": 54, "instrument": 0, "track": 9, "qtime": 27, "isDrum": true}, {"time": 123, "velocity": 108, "pitch": 44, "instrument": 0, "track": 9, "qtime": 27, "isDrum": true}, {"time": 126, "velocity": 0, "pitch": 44, "instrument": 0, "track": 9, "qtime": 30, "isDrum": true}, {"time": 126, "velocity": 108, "pitch": 54, "instrument": 0, "track": 9, "qtime": 30, "isDrum": true}, {"time": 129, "velocity": 0, "pitch": 54, "instrument": 0, "track": 9, "qtime": 33, "isDrum": true}, {"time": 129, "velocity": 108, "pitch": 44, "instrument": 0, "track": 9, "qtime": 33, "isDrum": true}, {"time": 132, "velocity": 0, "pitch": 44, "instrument": 0, "track": 9, "qtime": 36, "isDrum": true}, {"time": 132, "velocity": 108, "pitch": 38, "instrument": 0, "track": 9, "qtime": 36, "isDrum": true}, {"time": 132, "velocity": 108, "pitch": 54, "instrument": 0, "track": 9, "qtime": 36, "isDrum": true}, {"time": 135, "velocity": 0, "pitch": 38, "instrument": 0, "track": 9, "qtime": 39, "isDrum": true}, {"time": 135, "velocity": 0, "pitch": 54, "instrument": 0, "track": 9, "qtime": 39, "isDrum": true}, {"time": 135, "velocity": 108, "pitch": 44, "instrument": 0, "track": 9, "qtime": 39, "isDrum": true}, {"time": 138, "velocity": 0, "pitch": 44, "instrument": 0, "track": 9, "qtime": 42, "isDrum": true}, {"time": 138, "velocity": 108, "pitch": 54, "instrument": 0, "track": 9, "qtime": 42, "isDrum": true}, {"time": 141, "velocity": 0, "pitch": 54, "instrument": 0, "track": 9, "qtime": 45, "isDrum": true}, {"time": 141, "velocity": 108, "pitch": 44, "instrument": 0, "track": 9, "qtime": 45, "isDrum": true}, {"time": 144, "velocity": 0, "pitch": 44, "instrument": 0, "track": 9, "qtime": 48, "isDrum": true}, {"time": 144, "velocity": 108, "pitch": 36, "instrument": 0, "track": 9, "qtime": 0, "isDrum": true}, {"time": 144, "velocity": 108, "pitch": 54, "instrument": 0, "track": 9, "qtime": 0, "isDrum": true}, {"time": 147, "velocity": 0, "pitch": 36, "instrument": 0, "track": 9, "qtime": 3, "isDrum": true}, {"time": 147, "velocity": 0, "pitch": 54, "instrument": 0, "track": 9, "qtime": 3, "isDrum": true}, {"time": 147, "velocity": 108, "pitch": 44, "instrument": 0, "track": 9, "qtime": 3, "isDrum": true}, {"time": 150, "velocity": 0, "pitch": 44, "instrument": 0, "track": 9, "qtime": 6, "isDrum": true}, {"time": 150, "velocity": 108, "pitch": 36, "instrument": 0, "track": 9, "qtime": 6, "isDrum": true}, {"time": 150, "velocity": 108, "pitch": 54, "instrument": 0, "track": 9, "qtime": 6, "isDrum": true}, {"time": 153, "velocity": 0, "pitch": 36, "instrument": 0, "track": 9, "qtime": 9, "isDrum": true}, {"time": 153, "velocity": 0, "pitch": 54, "instrument": 0, "track": 9, "qtime": 9, "isDrum": true}, {"time": 153, "velocity": 108, "pitch": 44, "instrument": 0, "track": 9, "qtime": 9, "isDrum": true}, {"time": 156, "velocity": 0, "pitch": 44, "instrument": 0, "track": 9, "qtime": 12, "isDrum": true}, {"time": 156, "velocity": 108, "pitch": 38, "instrument": 0, "track": 9, "qtime": 12, "isDrum": true}, {"time": 156, "velocity": 108, "pitch": 54, "instrument": 0, "track": 9, "qtime": 12, "isDrum": true}, {"time": 159, "velocity": 0, "pitch": 38, "instrument": 0, "track": 9, "qtime": 15, "isDrum": true}, {"time": 159, "velocity": 0, "pitch": 54, "instrument": 0, "track": 9, "qtime": 15, "isDrum": true}, {"time": 159, "velocity": 108, "pitch": 36, "instrument": 0, "track": 9, "qtime": 15, "isDrum": true}, {"time": 159, "velocity": 108, "pitch": 44, "instrument": 0, "track": 9, "qtime": 15, "isDrum": true}, {"time": 162, "velocity": 0, "pitch": 36, "instrument": 0, "track": 9, "qtime": 18, "isDrum": true}, {"time": 162, "velocity": 0, "pitch": 44, "instrument": 0, "track": 9, "qtime": 18, "isDrum": true}, {"time": 162, "velocity": 108, "pitch": 36, "instrument": 0, "track": 9, "qtime": 18, "isDrum": true}, {"time": 162, "velocity": 108, "pitch": 54, "instrument": 0, "track": 9, "qtime": 18, "isDrum": true}, {"time": 165, "velocity": 0, "pitch": 36, "instrument": 0, "track": 9, "qtime": 21, "isDrum": true}, {"time": 165, "velocity": 0, "pitch": 54, "instrument": 0, "track": 9, "qtime": 21, "isDrum": true}, {"time": 165, "velocity": 108, "pitch": 44, "instrument": 0, "track": 9, "qtime": 21, "isDrum": true}, {"time": 168, "velocity": 0, "pitch": 44, "instrument": 0, "track": 9, "qtime": 24, "isDrum": true}, {"time": 168, "velocity": 108, "pitch": 36, "instrument": 0, "track": 9, "qtime": 24, "isDrum": true}, {"time": 168, "velocity": 108, "pitch": 54, "instrument": 0, "track": 9, "qtime": 24, "isDrum": true}, {"time": 171, "velocity": 0, "pitch": 36, "instrument": 0, "track": 9, "qtime": 27, "isDrum": true}, {"time": 171, "velocity": 0, "pitch": 54, "instrument": 0, "track": 9, "qtime": 27, "isDrum": true}, {"time": 171, "velocity": 108, "pitch": 44, "instrument": 0, "track": 9, "qtime": 27, "isDrum": true}, {"time": 174, "velocity": 0, "pitch": 44, "instrument": 0, "track": 9, "qtime": 30, "isDrum": true}, {"time": 174, "velocity": 108, "pitch": 54, "instrument": 0, "track": 9, "qtime": 30, "isDrum": true}, {"time": 177, "velocity": 0, "pitch": 54, "instrument": 0, "track": 9, "qtime": 33, "isDrum": true}, {"time": 177, "velocity": 108, "pitch": 44, "instrument": 0, "track": 9, "qtime": 33, "isDrum": true}, {"time": 180, "velocity": 0, "pitch": 44, "instrument": 0, "track": 9, "qtime": 36, "isDrum": true}, {"time": 180, "velocity": 108, "pitch": 38, "instrument": 0, "track": 9, "qtime": 36, "isDrum": true}, {"time": 180, "velocity": 108, "pitch": 54, "instrument": 0, "track": 9, "qtime": 36, "isDrum": true}, {"time": 183, "velocity": 0, "pitch": 38, "instrument": 0, "track": 9, "qtime": 39, "isDrum": true}, {"time": 183, "velocity": 0, "pitch": 54, "instrument": 0, "track": 9, "qtime": 39, "isDrum": true}, {"time": 183, "velocity": 108, "pitch": 44, "instrument": 0, "track": 9, "qtime": 39, "isDrum": true}, {"time": 186, "velocity": 0, "pitch": 44, "instrument": 0, "track": 9, "qtime": 42, "isDrum": true}, {"time": 186, "velocity": 108, "pitch": 54, "instrument": 0, "track": 9, "qtime": 42, "isDrum": true}, {"time": 189, "velocity": 0, "pitch": 54, "instrument": 0, "track": 9, "qtime": 45, "isDrum": true}, {"time": 189, "velocity": 108, "pitch": 44, "instrument": 0, "track": 9, "qtime": 45, "isDrum": true}, {"time": 192, "velocity": 0, "pitch": 44, "instrument": 0, "track": 9, "qtime": 48, "isDrum": true}, {"time": 0, "velocity": 108, "pitch": 45, "instrument": 33, "track": 1, "qtime": 0, "isDrum": false}, {"time": 3, "velocity": 0, "pitch": 45, "instrument": 33, "track": 1, "qtime": 3, "isDrum": false}, {"time": 6, "velocity": 108, "pitch": 45, "instrument": 33, "track": 1, "qtime": 6, "isDrum": false}, {"time": 9, "velocity": 0, "pitch": 45, "instrument": 33, "track": 1, "qtime": 9, "isDrum": false}, {"time": 15, "velocity": 108, "pitch": 45, "instrument": 33, "track": 1, "qtime": 15, "isDrum": false}, {"time": 18, "velocity": 0, "pitch": 45, "instrument": 33, "track": 1, "qtime": 18, "isDrum": false}, {"time": 18, "velocity": 108, "pitch": 45, "instrument": 33, "track": 1, "qtime": 18, "isDrum": false}, {"time": 21, "velocity": 0, "pitch": 45, "instrument": 33, "track": 1, "qtime": 21, "isDrum": false}, {"time": 24, "velocity": 108, "pitch": 45, "instrument": 33, "track": 1, "qtime": 24, "isDrum": false}, {"time": 27, "velocity": 0, "pitch": 45, "instrument": 33, "track": 1, "qtime": 27, "isDrum": false}, {"time": 48, "velocity": 108, "pitch": 45, "instrument": 33, "track": 1, "qtime": 0, "isDrum": false}, {"time": 51, "velocity": 0, "pitch": 45, "instrument": 33, "track": 1, "qtime": 3, "isDrum": false}, {"time": 54, "velocity": 108, "pitch": 45, "instrument": 33, "track": 1, "qtime": 6, "isDrum": false}, {"time": 57, "velocity": 0, "pitch": 45, "instrument": 33, "track": 1, "qtime": 9, "isDrum": false}, {"time": 63, "velocity": 108, "pitch": 45, "instrument": 33, "track": 1, "qtime": 15, "isDrum": false}, {"time": 66, "velocity": 0, "pitch": 45, "instrument": 33, "track": 1, "qtime": 18, "isDrum": false}, {"time": 66, "velocity": 108, "pitch": 45, "instrument": 33, "track": 1, "qtime": 18, "isDrum": false}, {"time": 68, "velocity": 0, "pitch": 45, "instrument": 33, "track": 1, "qtime": 20, "isDrum": false}, {"time": 72, "velocity": 108, "pitch": 45, "instrument": 33, "track": 1, "qtime": 24, "isDrum": false}, {"time": 75, "velocity": 0, "pitch": 45, "instrument": 33, "track": 1, "qtime": 27, "isDrum": false}, {"time": 96, "velocity": 108, "pitch": 41, "instrument": 33, "track": 1, "qtime": 0, "isDrum": false}, {"time": 99, "velocity": 0, "pitch": 41, "instrument": 33, "track": 1, "qtime": 3, "isDrum": false}, {"time": 102, "velocity": 108, "pitch": 41, "instrument": 33, "track": 1, "qtime": 6, "isDrum": false}, {"time": 105, "velocity": 0, "pitch": 41, "instrument": 33, "track": 1, "qtime": 9, "isDrum": false}, {"time": 111, "velocity": 108, "pitch": 41, "instrument": 33, "track": 1, "qtime": 15, "isDrum": false}, {"time": 114, "velocity": 0, "pitch": 41, "instrument": 33, "track": 1, "qtime": 18, "isDrum": false}, {"time": 114, "velocity": 108, "pitch": 41, "instrument": 33, "track": 1, "qtime": 18, "isDrum": false}, {"time": 116, "velocity": 0, "pitch": 41, "instrument": 33, "track": 1, "qtime": 20, "isDrum": false}, {"time": 120, "velocity": 108, "pitch": 41, "instrument": 33, "track": 1, "qtime": 24, "isDrum": false}, {"time": 123, "velocity": 0, "pitch": 41, "instrument": 33, "track": 1, "qtime": 27, "isDrum": false}, {"time": 144, "velocity": 108, "pitch": 41, "instrument": 33, "track": 1, "qtime": 0, "isDrum": false}, {"time": 147, "velocity": 0, "pitch": 41, "instrument": 33, "track": 1, "qtime": 3, "isDrum": false}, {"time": 150, "velocity": 108, "pitch": 41, "instrument": 33, "track": 1, "qtime": 6, "isDrum": false}, {"time": 153, "velocity": 0, "pitch": 41, "instrument": 33, "track": 1, "qtime": 9, "isDrum": false}, {"time": 159, "velocity": 108, "pitch": 41, "instrument": 33, "track": 1, "qtime": 15, "isDrum": false}, {"time": 162, "velocity": 0, "pitch": 41, "instrument": 33, "track": 1, "qtime": 18, "isDrum": false}, {"time": 162, "velocity": 108, "pitch": 41, "instrument": 33, "track": 1, "qtime": 18, "isDrum": false}, {"time": 165, "velocity": 0, "pitch": 41, "instrument": 33, "track": 1, "qtime": 21, "isDrum": false}, {"time": 168, "velocity": 108, "pitch": 41, "instrument": 33, "track": 1, "qtime": 24, "isDrum": false}, {"time": 171, "velocity": 0, "pitch": 41, "instrument": 33, "track": 1, "qtime": 27, "isDrum": false}, {"time": 0, "velocity": 108, "pitch": 57, "instrument": 48, "track": 2, "qtime": 0, "isDrum": false}, {"time": 0, "velocity": 108, "pitch": 60, "instrument": 48, "track": 2, "qtime": 0, "isDrum": false}, {"time": 95, "velocity": 0, "pitch": 57, "instrument": 48, "track": 2, "qtime": 47, "isDrum": false}, {"time": 95, "velocity": 108, "pitch": 53, "instrument": 48, "track": 2, "qtime": 47, "isDrum": false}, {"time": 96, "velocity": 0, "pitch": 60, "instrument": 48, "track": 2, "qtime": 48, "isDrum": false}, {"time": 96, "velocity": 108, "pitch": 57, "instrument": 48, "track": 2, "qtime": 0, "isDrum": false}, {"time": 180, "velocity": 0, "pitch": 53, "instrument": 48, "track": 2, "qtime": 36, "isDrum": false}, {"time": 181, "velocity": 0, "pitch": 57, "instrument": 48, "track": 2, "qtime": 37, "isDrum": false}, {"time": 0, "velocity": 108, "pitch": 57, "instrument": 11, "track": 3, "qtime": 0, "isDrum": false}, {"time": 6, "velocity": 0, "pitch": 57, "instrument": 11, "track": 3, "qtime": 6, "isDrum": false}, {"time": 6, "velocity": 108, "pitch": 60, "instrument": 11, "track": 3, "qtime": 6, "isDrum": false}, {"time": 12, "velocity": 0, "pitch": 60, "instrument": 11, "track": 3, "qtime": 12, "isDrum": false}, {"time": 12, "velocity": 108, "pitch": 62, "instrument": 11, "track": 3, "qtime": 12, "isDrum": false}, {"time": 18, "velocity": 0, "pitch": 62, "instrument": 11, "track": 3, "qtime": 18, "isDrum": false}, {"time": 18, "velocity": 108, "pitch": 57, "instrument": 11, "track": 3, "qtime": 18, "isDrum": false}, {"time": 24, "velocity": 0, "pitch": 57, "instrument": 11, "track": 3, "qtime": 24, "isDrum": false}, {"time": 24, "velocity": 108, "pitch": 60, "instrument": 11, "track": 3, "qtime": 24, "isDrum": false}, {"time": 30, "velocity": 0, "pitch": 60, "instrument": 11, "track": 3, "qtime": 30, "isDrum": false}, {"time": 30, "velocity": 108, "pitch": 62, "instrument": 11, "track": 3, "qtime": 30, "isDrum": false}, {"time": 36, "velocity": 0, "pitch": 62, "instrument": 11, "track": 3, "qtime": 36, "isDrum": false}, {"time": 36, "velocity": 108, "pitch": 57, "instrument": 11, "track": 3, "qtime": 36, "isDrum": false}, {"time": 42, "velocity": 0, "pitch": 57, "instrument": 11, "track": 3, "qtime": 42, "isDrum": false}, {"time": 42, "velocity": 108, "pitch": 60, "instrument": 11, "track": 3, "qtime": 42, "isDrum": false}, {"time": 48, "velocity": 0, "pitch": 60, "instrument": 11, "track": 3, "qtime": 48, "isDrum": false}, {"time": 48, "velocity": 108, "pitch": 57, "instrument": 11, "track": 3, "qtime": 0, "isDrum": false}, {"time": 54, "velocity": 0, "pitch": 57, "instrument": 11, "track": 3, "qtime": 6, "isDrum": false}, {"time": 54, "velocity": 108, "pitch": 60, "instrument": 11, "track": 3, "qtime": 6, "isDrum": false}, {"time": 60, "velocity": 0, "pitch": 60, "instrument": 11, "track": 3, "qtime": 12, "isDrum": false}, {"time": 60, "velocity": 108, "pitch": 62, "instrument": 11, "track": 3, "qtime": 12, "isDrum": false}, {"time": 66, "velocity": 0, "pitch": 62, "instrument": 11, "track": 3, "qtime": 18, "isDrum": false}, {"time": 66, "velocity": 108, "pitch": 57, "instrument": 11, "track": 3, "qtime": 18, "isDrum": false}, {"time": 72, "velocity": 0, "pitch": 57, "instrument": 11, "track": 3, "qtime": 24, "isDrum": false}, {"time": 72, "velocity": 108, "pitch": 60, "instrument": 11, "track": 3, "qtime": 24, "isDrum": false}, {"time": 78, "velocity": 0, "pitch": 60, "instrument": 11, "track": 3, "qtime": 30, "isDrum": false}, {"time": 78, "velocity": 108, "pitch": 60, "instrument": 11, "track": 3, "qtime": 30, "isDrum": false}, {"time": 84, "velocity": 0, "pitch": 60, "instrument": 11, "track": 3, "qtime": 36, "isDrum": false}, {"time": 84, "velocity": 108, "pitch": 62, "instrument": 11, "track": 3, "qtime": 36, "isDrum": false}, {"time": 90, "velocity": 0, "pitch": 62, "instrument": 11, "track": 3, "qtime": 42, "isDrum": false}, {"time": 90, "velocity": 108, "pitch": 60, "instrument": 11, "track": 3, "qtime": 42, "isDrum": false}, {"time": 96, "velocity": 0, "pitch": 60, "instrument": 11, "track": 3, "qtime": 48, "isDrum": false}, {"time": 96, "velocity": 108, "pitch": 53, "instrument": 11, "track": 3, "qtime": 0, "isDrum": false}, {"time": 102, "velocity": 0, "pitch": 53, "instrument": 11, "track": 3, "qtime": 6, "isDrum": false}, {"time": 102, "velocity": 108, "pitch": 60, "instrument": 11, "track": 3, "qtime": 6, "isDrum": false}, {"time": 108, "velocity": 0, "pitch": 60, "instrument": 11, "track": 3, "qtime": 12, "isDrum": false}, {"time": 108, "velocity": 108, "pitch": 62, "instrument": 11, "track": 3, "qtime": 12, "isDrum": false}, {"time": 114, "velocity": 0, "pitch": 62, "instrument": 11, "track": 3, "qtime": 18, "isDrum": false}, {"time": 114, "velocity": 108, "pitch": 53, "instrument": 11, "track": 3, "qtime": 18, "isDrum": false}, {"time": 120, "velocity": 0, "pitch": 53, "instrument": 11, "track": 3, "qtime": 24, "isDrum": false}, {"time": 120, "velocity": 108, "pitch": 60, "instrument": 11, "track": 3, "qtime": 24, "isDrum": false}, {"time": 126, "velocity": 0, "pitch": 60, "instrument": 11, "track": 3, "qtime": 30, "isDrum": false}, {"time": 126, "velocity": 108, "pitch": 62, "instrument": 11, "track": 3, "qtime": 30, "isDrum": false}, {"time": 132, "velocity": 0, "pitch": 62, "instrument": 11, "track": 3, "qtime": 36, "isDrum": false}, {"time": 132, "velocity": 108, "pitch": 53, "instrument": 11, "track": 3, "qtime": 36, "isDrum": false}, {"time": 138, "velocity": 0, "pitch": 53, "instrument": 11, "track": 3, "qtime": 42, "isDrum": false}, {"time": 138, "velocity": 108, "pitch": 60, "instrument": 11, "track": 3, "qtime": 42, "isDrum": false}, {"time": 144, "velocity": 0, "pitch": 60, "instrument": 11, "track": 3, "qtime": 48, "isDrum": false}, {"time": 144, "velocity": 108, "pitch": 53, "instrument": 11, "track": 3, "qtime": 0, "isDrum": false}, {"time": 150, "velocity": 0, "pitch": 53, "instrument": 11, "track": 3, "qtime": 6, "isDrum": false}, {"time": 150, "velocity": 108, "pitch": 60, "instrument": 11, "track": 3, "qtime": 6, "isDrum": false}, {"time": 156, "velocity": 0, "pitch": 60, "instrument": 11, "track": 3, "qtime": 12, "isDrum": false}, {"time": 156, "velocity": 108, "pitch": 62, "instrument": 11, "track": 3, "qtime": 12, "isDrum": false}, {"time": 162, "velocity": 0, "pitch": 62, "instrument": 11, "track": 3, "qtime": 18, "isDrum": false}, {"time": 162, "velocity": 108, "pitch": 53, "instrument": 11, "track": 3, "qtime": 18, "isDrum": false}, {"time": 168, "velocity": 0, "pitch": 53, "instrument": 11, "track": 3, "qtime": 24, "isDrum": false}, {"time": 168, "velocity": 108, "pitch": 60, "instrument": 11, "track": 3, "qtime": 24, "isDrum": false}, {"time": 174, "velocity": 0, "pitch": 60, "instrument": 11, "track": 3, "qtime": 30, "isDrum": false}, {"time": 174, "velocity": 108, "pitch": 60, "instrument": 11, "track": 3, "qtime": 30, "isDrum": false}, {"time": 180, "velocity": 0, "pitch": 60, "instrument": 11, "track": 3, "qtime": 36, "isDrum": false}, {"time": 180, "velocity": 108, "pitch": 62, "instrument": 11, "track": 3, "qtime": 36, "isDrum": false}, {"time": 186, "velocity": 0, "pitch": 62, "instrument": 11, "track": 3, "qtime": 42, "isDrum": false}, {"time": 186, "velocity": 108, "pitch": 60, "instrument": 11, "track": 3, "qtime": 42, "isDrum": false}, {"time": 192, "velocity": 0, "pitch": 60, "instrument": 11, "track": 3, "qtime": 48, "isDrum": false}], "resolution": 12, "tempo": 75, "minPitch": 36, "maxPitch": 62, "validSegments": [0], "validTracks": [15]}, "audio": "https://www.sfu.ca/~jeffe/examples/stem_1_chrom_perc.mp3"}, {"src": "gen/stem_1_drum.json", "highlights": [[], [], [], [0, 1, 2, 3]], "caption": "We generate a drum track conditioned on the first three tracks in 18a.", "sample_id": "18c", "mixer": [8, 8, 8, 8], "tempo": 75, "json": {"tracks": [{"bars": [{"events": [0, 1, 2, 3, 4, 5, 6, 7, 8, 9, 10, 11, 12, 13, 14, 15, 16, 17, 18, 19, 20, 21, 22, 23, 24, 25, 26, 27, 28, 29, 30, 31, 32, 33, 34, 35, 36, 37, 38, 39, 40, 41, 42, 43, 44, 45], "isFourFour": true, "hasNotes": true, "time": 0}, {"events": [46, 47, 48, 49, 50, 51, 52, 53, 54, 55, 56, 57, 58, 59, 60, 61, 62, 63, 64, 65, 66, 67, 68, 69, 70, 71, 72, 73, 74, 75, 76, 77, 78, 79, 80, 81, 82, 83, 84, 85, 86, 87, 88, 89, 90, 91], "isFourFour": true, "hasNotes": true, "time": 48}, {"events": [92, 93, 94, 95, 96, 97, 98, 99, 100, 101, 102, 103, 104, 105, 106, 107, 108, 109, 110, 111, 112, 113, 114, 115, 116, 117, 118, 119, 120, 121, 122, 123, 124, 125, 126, 127, 128, 129, 130, 131, 132, 133, 134, 135, 136, 137], "isFourFour": true, "hasNotes": true, "time": 96}, {"events": [138, 139, 140, 141, 142, 143, 144, 145, 146, 147, 148, 149, 150, 151, 152, 153, 154, 155, 156, 157, 158, 159, 160, 161, 162, 163, 164, 165, 166, 167, 168, 169, 170, 171, 172, 173, 174, 175, 176, 177, 178, 179, 180, 181, 182, 183], "isFourFour": true, "hasNotes": true, "time": 144}], "isDrum": true, "minPitch": 36, "maxPitch": 54, "instrument": 0, "avPolyphony": 1.4375, "noteDensity": 9, "noteDensityV2": 8}, {"bars": [{"events": [184, 185, 186, 187, 188, 189, 190, 191, 192, 193], "isFourFour": true, "hasNotes": true, "time": 0}, {"events": [194, 195, 196, 197, 198, 199, 200, 201, 202, 203], "isFourFour": true, "hasNotes": true, "time": 48}, {"events": [204, 205, 206, 207, 208, 209, 210, 211, 212, 213], "isFourFour": true, "hasNotes": true, "time": 96}, {"events": [214, 215, 216, 217, 218, 219, 220, 221, 222, 223], "isFourFour": true, "hasNotes": true, "time": 144}], "isDrum": false, "minPitch": 41, "maxPitch": 45, "instrument": 33, "avPolyphony": 1, "noteDensity": 6, "noteDensityV2": 5}, {"bars": [{"events": [224, 225], "isFourFour": true, "hasNotes": true, "time": 0}, {"events": [226, 227, 228], "isFourFour": true, "hasNotes": true, "time": 48}, {"events": [229], "isFourFour": true, "hasNotes": true, "time": 96}, {"events": [230, 231], "isFourFour": true, "hasNotes": true, "time": 144}], "isDrum": false, "minPitch": 53, "maxPitch": 60, "instrument": 48, "avPolyphony": 1.9944751, "noteDensity": 0, "noteDensityV2": 0}, {"bars": [{"events": [232, 233, 234, 235, 236, 237, 238, 239, 240, 241, 242, 243, 244, 245, 246, 247, 248, 249, 250, 251, 252, 253, 254, 255, 256, 257], "isFourFour": true, "hasNotes": true, "time": 0}, {"events": [258, 259, 260, 261, 262, 263, 264, 265, 266, 267, 268, 269, 270, 271, 272, 273, 274, 275, 276, 277, 278, 279, 280, 281, 282, 283], "isFourFour": true, "hasNotes": true, "time": 48}, {"events": [284, 285, 286, 287, 288, 289, 290, 291, 292, 293, 294, 295, 296, 297, 298, 299, 300, 301, 302, 303, 304, 305, 306, 307, 308, 309], "isFourFour": true, "hasNotes": true, "time": 96}, {"events": [310, 311, 312, 313, 314, 315, 316, 317, 318, 319, 320, 321, 322, 323, 324, 325, 326, 327, 328, 329, 330, 331, 332, 333, 334, 335], "isFourFour": true, "hasNotes": true, "time": 144}], "isDrum": true, "minPitch": 76, "maxPitch": 76, "instrument": 0, "avPolyphony": 1, "noteDensity": 9, "noteDensityV2": 6}], "events": [{"time": 0, "velocity": 108, "pitch": 36, "instrument": 0, "track": 9, "qtime": 0, "isDrum": true}, {"time": 0, "velocity": 108, "pitch": 54, "instrument": 0, "track": 9, "qtime": 0, "isDrum": true}, {"time": 3, "velocity": 0, "pitch": 36, "instrument": 0, "track": 9, "qtime": 3, "isDrum": true}, {"time": 3, "velocity": 0, "pitch": 54, "instrument": 0, "track": 9, "qtime": 3, "isDrum": true}, {"time": 3, "velocity": 108, "pitch": 44, "instrument": 0, "track": 9, "qtime": 3, "isDrum": true}, {"time": 6, "velocity": 0, "pitch": 44, "instrument": 0, "track": 9, "qtime": 6, "isDrum": true}, {"time": 6, "velocity": 108, "pitch": 36, "instrument": 0, "track": 9, "qtime": 6, "isDrum": true}, {"time": 6, "velocity": 108, "pitch": 54, "instrument": 0, "track": 9, "qtime": 6, "isDrum": true}, {"time": 9, "velocity": 0, "pitch": 36, "instrument": 0, "track": 9, "qtime": 9, "isDrum": true}, {"time": 9, "velocity": 0, "pitch": 54, "instrument": 0, "track": 9, "qtime": 9, "isDrum": true}, {"time": 9, "velocity": 108, "pitch": 44, "instrument": 0, "track": 9, "qtime": 9, "isDrum": true}, {"time": 12, "velocity": 0, "pitch": 44, "instrument": 0, "track": 9, "qtime": 12, "isDrum": true}, {"time": 12, "velocity": 108, "pitch": 38, "instrument": 0, "track": 9, "qtime": 12, "isDrum": true}, {"time": 12, "velocity": 108, "pitch": 54, "instrument": 0, "track": 9, "qtime": 12, "isDrum": true}, {"time": 15, "velocity": 0, "pitch": 38, "instrument": 0, "track": 9, "qtime": 15, "isDrum": true}, {"time": 15, "velocity": 0, "pitch": 54, "instrument": 0, "track": 9, "qtime": 15, "isDrum": true}, {"time": 15, "velocity": 108, "pitch": 36, "instrument": 0, "track": 9, "qtime": 15, "isDrum": true}, {"time": 15, "velocity": 108, "pitch": 44, "instrument": 0, "track": 9, "qtime": 15, "isDrum": true}, {"time": 18, "velocity": 0, "pitch": 36, "instrument": 0, "track": 9, "qtime": 18, "isDrum": true}, {"time": 18, "velocity": 0, "pitch": 44, "instrument": 0, "track": 9, "qtime": 18, "isDrum": true}, {"time": 18, "velocity": 108, "pitch": 36, "instrument": 0, "track": 9, "qtime": 18, "isDrum": true}, {"time": 18, "velocity": 108, "pitch": 54, "instrument": 0, "track": 9, "qtime": 18, "isDrum": true}, {"time": 21, "velocity": 0, "pitch": 36, "instrument": 0, "track": 9, "qtime": 21, "isDrum": true}, {"time": 21, "velocity": 0, "pitch": 54, "instrument": 0, "track": 9, "qtime": 21, "isDrum": true}, {"time": 21, "velocity": 108, "pitch": 44, "instrument": 0, "track": 9, "qtime": 21, "isDrum": true}, {"time": 24, "velocity": 0, "pitch": 44, "instrument": 0, "track": 9, "qtime": 24, "isDrum": true}, {"time": 24, "velocity": 108, "pitch": 36, "instrument": 0, "track": 9, "qtime": 24, "isDrum": true}, {"time": 24, "velocity": 108, "pitch": 54, "instrument": 0, "track": 9, "qtime": 24, "isDrum": true}, {"time": 27, "velocity": 0, "pitch": 36, "instrument": 0, "track": 9, "qtime": 27, "isDrum": true}, {"time": 27, "velocity": 0, "pitch": 54, "instrument": 0, "track": 9, "qtime": 27, "isDrum": true}, {"time": 27, "velocity": 108, "pitch": 44, "instrument": 0, "track": 9, "qtime": 27, "isDrum": true}, {"time": 30, "velocity": 0, "pitch": 44, "instrument": 0, "track": 9, "qtime": 30, "isDrum": true}, {"time": 30, "velocity": 108, "pitch": 54, "instrument": 0, "track": 9, "qtime": 30, "isDrum": true}, {"time": 33, "velocity": 0, "pitch": 54, "instrument": 0, "track": 9, "qtime": 33, "isDrum": true}, {"time": 33, "velocity": 108, "pitch": 44, "instrument": 0, "track": 9, "qtime": 33, "isDrum": true}, {"time": 36, "velocity": 0, "pitch": 44, "instrument": 0, "track": 9, "qtime": 36, "isDrum": true}, {"time": 36, "velocity": 108, "pitch": 38, "instrument": 0, "track": 9, "qtime": 36, "isDrum": true}, {"time": 36, "velocity": 108, "pitch": 54, "instrument": 0, "track": 9, "qtime": 36, "isDrum": true}, {"time": 39, "velocity": 0, "pitch": 38, "instrument": 0, "track": 9, "qtime": 39, "isDrum": true}, {"time": 39, "velocity": 0, "pitch": 54, "instrument": 0, "track": 9, "qtime": 39, "isDrum": true}, {"time": 39, "velocity": 108, "pitch": 44, "instrument": 0, "track": 9, "qtime": 39, "isDrum": true}, {"time": 42, "velocity": 0, "pitch": 44, "instrument": 0, "track": 9, "qtime": 42, "isDrum": true}, {"time": 42, "velocity": 108, "pitch": 54, "instrument": 0, "track": 9, "qtime": 42, "isDrum": true}, {"time": 45, "velocity": 0, "pitch": 54, "instrument": 0, "track": 9, "qtime": 45, "isDrum": true}, {"time": 45, "velocity": 108, "pitch": 44, "instrument": 0, "track": 9, "qtime": 45, "isDrum": true}, {"time": 48, "velocity": 0, "pitch": 44, "instrument": 0, "track": 9, "qtime": 48, "isDrum": true}, {"time": 48, "velocity": 108, "pitch": 36, "instrument": 0, "track": 9, "qtime": 0, "isDrum": true}, {"time": 48, "velocity": 108, "pitch": 54, "instrument": 0, "track": 9, "qtime": 0, "isDrum": true}, {"time": 51, "velocity": 0, "pitch": 36, "instrument": 0, "track": 9, "qtime": 3, "isDrum": true}, {"time": 51, "velocity": 0, "pitch": 54, "instrument": 0, "track": 9, "qtime": 3, "isDrum": true}, {"time": 51, "velocity": 108, "pitch": 44, "instrument": 0, "track": 9, "qtime": 3, "isDrum": true}, {"time": 54, "velocity": 0, "pitch": 44, "instrument": 0, "track": 9, "qtime": 6, "isDrum": true}, {"time": 54, "velocity": 108, "pitch": 36, "instrument": 0, "track": 9, "qtime": 6, "isDrum": true}, {"time": 54, "velocity": 108, "pitch": 54, "instrument": 0, "track": 9, "qtime": 6, "isDrum": true}, {"time": 57, "velocity": 0, "pitch": 36, "instrument": 0, "track": 9, "qtime": 9, "isDrum": true}, {"time": 57, "velocity": 0, "pitch": 54, "instrument": 0, "track": 9, "qtime": 9, "isDrum": true}, {"time": 57, "velocity": 108, "pitch": 44, "instrument": 0, "track": 9, "qtime": 9, "isDrum": true}, {"time": 60, "velocity": 0, "pitch": 44, "instrument": 0, "track": 9, "qtime": 12, "isDrum": true}, {"time": 60, "velocity": 108, "pitch": 38, "instrument": 0, "track": 9, "qtime": 12, "isDrum": true}, {"time": 60, "velocity": 108, "pitch": 54, "instrument": 0, "track": 9, "qtime": 12, "isDrum": true}, {"time": 63, "velocity": 0, "pitch": 38, "instrument": 0, "track": 9, "qtime": 15, "isDrum": true}, {"time": 63, "velocity": 0, "pitch": 54, "instrument": 0, "track": 9, "qtime": 15, "isDrum": true}, {"time": 63, "velocity": 108, "pitch": 36, "instrument": 0, "track": 9, "qtime": 15, "isDrum": true}, {"time": 63, "velocity": 108, "pitch": 44, "instrument": 0, "track": 9, "qtime": 15, "isDrum": true}, {"time": 66, "velocity": 0, "pitch": 36, "instrument": 0, "track": 9, "qtime": 18, "isDrum": true}, {"time": 66, "velocity": 0, "pitch": 44, "instrument": 0, "track": 9, "qtime": 18, "isDrum": true}, {"time": 66, "velocity": 108, "pitch": 36, "instrument": 0, "track": 9, "qtime": 18, "isDrum": true}, {"time": 66, "velocity": 108, "pitch": 54, "instrument": 0, "track": 9, "qtime": 18, "isDrum": true}, {"time": 69, "velocity": 0, "pitch": 36, "instrument": 0, "track": 9, "qtime": 21, "isDrum": true}, {"time": 69, "velocity": 0, "pitch": 54, "instrument": 0, "track": 9, "qtime": 21, "isDrum": true}, {"time": 69, "velocity": 108, "pitch": 44, "instrument": 0, "track": 9, "qtime": 21, "isDrum": true}, {"time": 72, "velocity": 0, "pitch": 44, "instrument": 0, "track": 9, "qtime": 24, "isDrum": true}, {"time": 72, "velocity": 108, "pitch": 36, "instrument": 0, "track": 9, "qtime": 24, "isDrum": true}, {"time": 72, "velocity": 108, "pitch": 54, "instrument": 0, "track": 9, "qtime": 24, "isDrum": true}, {"time": 75, "velocity": 0, "pitch": 36, "instrument": 0, "track": 9, "qtime": 27, "isDrum": true}, {"time": 75, "velocity": 0, "pitch": 54, "instrument": 0, "track": 9, "qtime": 27, "isDrum": true}, {"time": 75, "velocity": 108, "pitch": 44, "instrument": 0, "track": 9, "qtime": 27, "isDrum": true}, {"time": 78, "velocity": 0, "pitch": 44, "instrument": 0, "track": 9, "qtime": 30, "isDrum": true}, {"time": 78, "velocity": 108, "pitch": 54, "instrument": 0, "track": 9, "qtime": 30, "isDrum": true}, {"time": 81, "velocity": 0, "pitch": 54, "instrument": 0, "track": 9, "qtime": 33, "isDrum": true}, {"time": 81, "velocity": 108, "pitch": 44, "instrument": 0, "track": 9, "qtime": 33, "isDrum": true}, {"time": 84, "velocity": 0, "pitch": 44, "instrument": 0, "track": 9, "qtime": 36, "isDrum": true}, {"time": 84, "velocity": 108, "pitch": 38, "instrument": 0, "track": 9, "qtime": 36, "isDrum": true}, {"time": 84, "velocity": 108, "pitch": 54, "instrument": 0, "track": 9, "qtime": 36, "isDrum": true}, {"time": 87, "velocity": 0, "pitch": 38, "instrument": 0, "track": 9, "qtime": 39, "isDrum": true}, {"time": 87, "velocity": 0, "pitch": 54, "instrument": 0, "track": 9, "qtime": 39, "isDrum": true}, {"time": 87, "velocity": 108, "pitch": 44, "instrument": 0, "track": 9, "qtime": 39, "isDrum": true}, {"time": 90, "velocity": 0, "pitch": 44, "instrument": 0, "track": 9, "qtime": 42, "isDrum": true}, {"time": 90, "velocity": 108, "pitch": 54, "instrument": 0, "track": 9, "qtime": 42, "isDrum": true}, {"time": 93, "velocity": 0, "pitch": 54, "instrument": 0, "track": 9, "qtime": 45, "isDrum": true}, {"time": 93, "velocity": 108, "pitch": 44, "instrument": 0, "track": 9, "qtime": 45, "isDrum": true}, {"time": 96, "velocity": 0, "pitch": 44, "instrument": 0, "track": 9, "qtime": 48, "isDrum": true}, {"time": 96, "velocity": 108, "pitch": 36, "instrument": 0, "track": 9, "qtime": 0, "isDrum": true}, {"time": 96, "velocity": 108, "pitch": 54, "instrument": 0, "track": 9, "qtime": 0, "isDrum": true}, {"time": 99, "velocity": 0, "pitch": 36, "instrument": 0, "track": 9, "qtime": 3, "isDrum": true}, {"time": 99, "velocity": 0, "pitch": 54, "instrument": 0, "track": 9, "qtime": 3, "isDrum": true}, {"time": 99, "velocity": 108, "pitch": 44, "instrument": 0, "track": 9, "qtime": 3, "isDrum": true}, {"time": 102, "velocity": 0, "pitch": 44, "instrument": 0, "track": 9, "qtime": 6, "isDrum": true}, {"time": 102, "velocity": 108, "pitch": 36, "instrument": 0, "track": 9, "qtime": 6, "isDrum": true}, {"time": 102, "velocity": 108, "pitch": 54, "instrument": 0, "track": 9, "qtime": 6, "isDrum": true}, {"time": 105, "velocity": 0, "pitch": 36, "instrument": 0, "track": 9, "qtime": 9, "isDrum": true}, {"time": 105, "velocity": 0, "pitch": 54, "instrument": 0, "track": 9, "qtime": 9, "isDrum": true}, {"time": 105, "velocity": 108, "pitch": 44, "instrument": 0, "track": 9, "qtime": 9, "isDrum": true}, {"time": 108, "velocity": 0, "pitch": 44, "instrument": 0, "track": 9, "qtime": 12, "isDrum": true}, {"time": 108, "velocity": 108, "pitch": 38, "instrument": 0, "track": 9, "qtime": 12, "isDrum": true}, {"time": 108, "velocity": 108, "pitch": 54, "instrument": 0, "track": 9, "qtime": 12, "isDrum": true}, {"time": 111, "velocity": 0, "pitch": 38, "instrument": 0, "track": 9, "qtime": 15, "isDrum": true}, {"time": 111, "velocity": 0, "pitch": 54, "instrument": 0, "track": 9, "qtime": 15, "isDrum": true}, {"time": 111, "velocity": 108, "pitch": 36, "instrument": 0, "track": 9, "qtime": 15, "isDrum": true}, {"time": 111, "velocity": 108, "pitch": 44, "instrument": 0, "track": 9, "qtime": 15, "isDrum": true}, {"time": 114, "velocity": 0, "pitch": 36, "instrument": 0, "track": 9, "qtime": 18, "isDrum": true}, {"time": 114, "velocity": 0, "pitch": 44, "instrument": 0, "track": 9, "qtime": 18, "isDrum": true}, {"time": 114, "velocity": 108, "pitch": 36, "instrument": 0, "track": 9, "qtime": 18, "isDrum": true}, {"time": 114, "velocity": 108, "pitch": 54, "instrument": 0, "track": 9, "qtime": 18, "isDrum": true}, {"time": 117, "velocity": 0, "pitch": 36, "instrument": 0, "track": 9, "qtime": 21, "isDrum": true}, {"time": 117, "velocity": 0, "pitch": 54, "instrument": 0, "track": 9, "qtime": 21, "isDrum": true}, {"time": 117, "velocity": 108, "pitch": 44, "instrument": 0, "track": 9, "qtime": 21, "isDrum": true}, {"time": 120, "velocity": 0, "pitch": 44, "instrument": 0, "track": 9, "qtime": 24, "isDrum": true}, {"time": 120, "velocity": 108, "pitch": 36, "instrument": 0, "track": 9, "qtime": 24, "isDrum": true}, {"time": 120, "velocity": 108, "pitch": 54, "instrument": 0, "track": 9, "qtime": 24, "isDrum": true}, {"time": 123, "velocity": 0, "pitch": 36, "instrument": 0, "track": 9, "qtime": 27, "isDrum": true}, {"time": 123, "velocity": 0, "pitch": 54, "instrument": 0, "track": 9, "qtime": 27, "isDrum": true}, {"time": 123, "velocity": 108, "pitch": 44, "instrument": 0, "track": 9, "qtime": 27, "isDrum": true}, {"time": 126, "velocity": 0, "pitch": 44, "instrument": 0, "track": 9, "qtime": 30, "isDrum": true}, {"time": 126, "velocity": 108, "pitch": 54, "instrument": 0, "track": 9, "qtime": 30, "isDrum": true}, {"time": 129, "velocity": 0, "pitch": 54, "instrument": 0, "track": 9, "qtime": 33, "isDrum": true}, {"time": 129, "velocity": 108, "pitch": 44, "instrument": 0, "track": 9, "qtime": 33, "isDrum": true}, {"time": 132, "velocity": 0, "pitch": 44, "instrument": 0, "track": 9, "qtime": 36, "isDrum": true}, {"time": 132, "velocity": 108, "pitch": 38, "instrument": 0, "track": 9, "qtime": 36, "isDrum": true}, {"time": 132, "velocity": 108, "pitch": 54, "instrument": 0, "track": 9, "qtime": 36, "isDrum": true}, {"time": 135, "velocity": 0, "pitch": 38, "instrument": 0, "track": 9, "qtime": 39, "isDrum": true}, {"time": 135, "velocity": 0, "pitch": 54, "instrument": 0, "track": 9, "qtime": 39, "isDrum": true}, {"time": 135, "velocity": 108, "pitch": 44, "instrument": 0, "track": 9, "qtime": 39, "isDrum": true}, {"time": 138, "velocity": 0, "pitch": 44, "instrument": 0, "track": 9, "qtime": 42, "isDrum": true}, {"time": 138, "velocity": 108, "pitch": 54, "instrument": 0, "track": 9, "qtime": 42, "isDrum": true}, {"time": 141, "velocity": 0, "pitch": 54, "instrument": 0, "track": 9, "qtime": 45, "isDrum": true}, {"time": 141, "velocity": 108, "pitch": 44, "instrument": 0, "track": 9, "qtime": 45, "isDrum": true}, {"time": 144, "velocity": 0, "pitch": 44, "instrument": 0, "track": 9, "qtime": 48, "isDrum": true}, {"time": 144, "velocity": 108, "pitch": 36, "instrument": 0, "track": 9, "qtime": 0, "isDrum": true}, {"time": 144, "velocity": 108, "pitch": 54, "instrument": 0, "track": 9, "qtime": 0, "isDrum": true}, {"time": 147, "velocity": 0, "pitch": 36, "instrument": 0, "track": 9, "qtime": 3, "isDrum": true}, {"time": 147, "velocity": 0, "pitch": 54, "instrument": 0, "track": 9, "qtime": 3, "isDrum": true}, {"time": 147, "velocity": 108, "pitch": 44, "instrument": 0, "track": 9, "qtime": 3, "isDrum": true}, {"time": 150, "velocity": 0, "pitch": 44, "instrument": 0, "track": 9, "qtime": 6, "isDrum": true}, {"time": 150, "velocity": 108, "pitch": 36, "instrument": 0, "track": 9, "qtime": 6, "isDrum": true}, {"time": 150, "velocity": 108, "pitch": 54, "instrument": 0, "track": 9, "qtime": 6, "isDrum": true}, {"time": 153, "velocity": 0, "pitch": 36, "instrument": 0, "track": 9, "qtime": 9, "isDrum": true}, {"time": 153, "velocity": 0, "pitch": 54, "instrument": 0, "track": 9, "qtime": 9, "isDrum": true}, {"time": 153, "velocity": 108, "pitch": 44, "instrument": 0, "track": 9, "qtime": 9, "isDrum": true}, {"time": 156, "velocity": 0, "pitch": 44, "instrument": 0, "track": 9, "qtime": 12, "isDrum": true}, {"time": 156, "velocity": 108, "pitch": 38, "instrument": 0, "track": 9, "qtime": 12, "isDrum": true}, {"time": 156, "velocity": 108, "pitch": 54, "instrument": 0, "track": 9, "qtime": 12, "isDrum": true}, {"time": 159, "velocity": 0, "pitch": 38, "instrument": 0, "track": 9, "qtime": 15, "isDrum": true}, {"time": 159, "velocity": 0, "pitch": 54, "instrument": 0, "track": 9, "qtime": 15, "isDrum": true}, {"time": 159, "velocity": 108, "pitch": 36, "instrument": 0, "track": 9, "qtime": 15, "isDrum": true}, {"time": 159, "velocity": 108, "pitch": 44, "instrument": 0, "track": 9, "qtime": 15, "isDrum": true}, {"time": 162, "velocity": 0, "pitch": 36, "instrument": 0, "track": 9, "qtime": 18, "isDrum": true}, {"time": 162, "velocity": 0, "pitch": 44, "instrument": 0, "track": 9, "qtime": 18, "isDrum": true}, {"time": 162, "velocity": 108, "pitch": 36, "instrument": 0, "track": 9, "qtime": 18, "isDrum": true}, {"time": 162, "velocity": 108, "pitch": 54, "instrument": 0, "track": 9, "qtime": 18, "isDrum": true}, {"time": 165, "velocity": 0, "pitch": 36, "instrument": 0, "track": 9, "qtime": 21, "isDrum": true}, {"time": 165, "velocity": 0, "pitch": 54, "instrument": 0, "track": 9, "qtime": 21, "isDrum": true}, {"time": 165, "velocity": 108, "pitch": 44, "instrument": 0, "track": 9, "qtime": 21, "isDrum": true}, {"time": 168, "velocity": 0, "pitch": 44, "instrument": 0, "track": 9, "qtime": 24, "isDrum": true}, {"time": 168, "velocity": 108, "pitch": 36, "instrument": 0, "track": 9, "qtime": 24, "isDrum": true}, {"time": 168, "velocity": 108, "pitch": 54, "instrument": 0, "track": 9, "qtime": 24, "isDrum": true}, {"time": 171, "velocity": 0, "pitch": 36, "instrument": 0, "track": 9, "qtime": 27, "isDrum": true}, {"time": 171, "velocity": 0, "pitch": 54, "instrument": 0, "track": 9, "qtime": 27, "isDrum": true}, {"time": 171, "velocity": 108, "pitch": 44, "instrument": 0, "track": 9, "qtime": 27, "isDrum": true}, {"time": 174, "velocity": 0, "pitch": 44, "instrument": 0, "track": 9, "qtime": 30, "isDrum": true}, {"time": 174, "velocity": 108, "pitch": 54, "instrument": 0, "track": 9, "qtime": 30, "isDrum": true}, {"time": 177, "velocity": 0, "pitch": 54, "instrument": 0, "track": 9, "qtime": 33, "isDrum": true}, {"time": 177, "velocity": 108, "pitch": 44, "instrument": 0, "track": 9, "qtime": 33, "isDrum": true}, {"time": 180, "velocity": 0, "pitch": 44, "instrument": 0, "track": 9, "qtime": 36, "isDrum": true}, {"time": 180, "velocity": 108, "pitch": 38, "instrument": 0, "track": 9, "qtime": 36, "isDrum": true}, {"time": 180, "velocity": 108, "pitch": 54, "instrument": 0, "track": 9, "qtime": 36, "isDrum": true}, {"time": 183, "velocity": 0, "pitch": 38, "instrument": 0, "track": 9, "qtime": 39, "isDrum": true}, {"time": 183, "velocity": 0, "pitch": 54, "instrument": 0, "track": 9, "qtime": 39, "isDrum": true}, {"time": 183, "velocity": 108, "pitch": 44, "instrument": 0, "track": 9, "qtime": 39, "isDrum": true}, {"time": 186, "velocity": 0, "pitch": 44, "instrument": 0, "track": 9, "qtime": 42, "isDrum": true}, {"time": 186, "velocity": 108, "pitch": 54, "instrument": 0, "track": 9, "qtime": 42, "isDrum": true}, {"time": 189, "velocity": 0, "pitch": 54, "instrument": 0, "track": 9, "qtime": 45, "isDrum": true}, {"time": 189, "velocity": 108, "pitch": 44, "instrument": 0, "track": 9, "qtime": 45, "isDrum": true}, {"time": 192, "velocity": 0, "pitch": 44, "instrument": 0, "track": 9, "qtime": 48, "isDrum": true}, {"time": 0, "velocity": 108, "pitch": 45, "instrument": 33, "track": 1, "qtime": 0, "isDrum": false}, {"time": 3, "velocity": 0, "pitch": 45, "instrument": 33, "track": 1, "qtime": 3, "isDrum": false}, {"time": 6, "velocity": 108, "pitch": 45, "instrument": 33, "track": 1, "qtime": 6, "isDrum": false}, {"time": 9, "velocity": 0, "pitch": 45, "instrument": 33, "track": 1, "qtime": 9, "isDrum": false}, {"time": 15, "velocity": 108, "pitch": 45, "instrument": 33, "track": 1, "qtime": 15, "isDrum": false}, {"time": 18, "velocity": 0, "pitch": 45, "instrument": 33, "track": 1, "qtime": 18, "isDrum": false}, {"time": 18, "velocity": 108, "pitch": 45, "instrument": 33, "track": 1, "qtime": 18, "isDrum": false}, {"time": 21, "velocity": 0, "pitch": 45, "instrument": 33, "track": 1, "qtime": 21, "isDrum": false}, {"time": 24, "velocity": 108, "pitch": 45, "instrument": 33, "track": 1, "qtime": 24, "isDrum": false}, {"time": 27, "velocity": 0, "pitch": 45, "instrument": 33, "track": 1, "qtime": 27, "isDrum": false}, {"time": 48, "velocity": 108, "pitch": 45, "instrument": 33, "track": 1, "qtime": 0, "isDrum": false}, {"time": 51, "velocity": 0, "pitch": 45, "instrument": 33, "track": 1, "qtime": 3, "isDrum": false}, {"time": 54, "velocity": 108, "pitch": 45, "instrument": 33, "track": 1, "qtime": 6, "isDrum": false}, {"time": 57, "velocity": 0, "pitch": 45, "instrument": 33, "track": 1, "qtime": 9, "isDrum": false}, {"time": 63, "velocity": 108, "pitch": 45, "instrument": 33, "track": 1, "qtime": 15, "isDrum": false}, {"time": 66, "velocity": 0, "pitch": 45, "instrument": 33, "track": 1, "qtime": 18, "isDrum": false}, {"time": 66, "velocity": 108, "pitch": 45, "instrument": 33, "track": 1, "qtime": 18, "isDrum": false}, {"time": 68, "velocity": 0, "pitch": 45, "instrument": 33, "track": 1, "qtime": 20, "isDrum": false}, {"time": 72, "velocity": 108, "pitch": 45, "instrument": 33, "track": 1, "qtime": 24, "isDrum": false}, {"time": 75, "velocity": 0, "pitch": 45, "instrument": 33, "track": 1, "qtime": 27, "isDrum": false}, {"time": 96, "velocity": 108, "pitch": 41, "instrument": 33, "track": 1, "qtime": 0, "isDrum": false}, {"time": 99, "velocity": 0, "pitch": 41, "instrument": 33, "track": 1, "qtime": 3, "isDrum": false}, {"time": 102, "velocity": 108, "pitch": 41, "instrument": 33, "track": 1, "qtime": 6, "isDrum": false}, {"time": 105, "velocity": 0, "pitch": 41, "instrument": 33, "track": 1, "qtime": 9, "isDrum": false}, {"time": 111, "velocity": 108, "pitch": 41, "instrument": 33, "track": 1, "qtime": 15, "isDrum": false}, {"time": 114, "velocity": 0, "pitch": 41, "instrument": 33, "track": 1, "qtime": 18, "isDrum": false}, {"time": 114, "velocity": 108, "pitch": 41, "instrument": 33, "track": 1, "qtime": 18, "isDrum": false}, {"time": 116, "velocity": 0, "pitch": 41, "instrument": 33, "track": 1, "qtime": 20, "isDrum": false}, {"time": 120, "velocity": 108, "pitch": 41, "instrument": 33, "track": 1, "qtime": 24, "isDrum": false}, {"time": 123, "velocity": 0, "pitch": 41, "instrument": 33, "track": 1, "qtime": 27, "isDrum": false}, {"time": 144, "velocity": 108, "pitch": 41, "instrument": 33, "track": 1, "qtime": 0, "isDrum": false}, {"time": 147, "velocity": 0, "pitch": 41, "instrument": 33, "track": 1, "qtime": 3, "isDrum": false}, {"time": 150, "velocity": 108, "pitch": 41, "instrument": 33, "track": 1, "qtime": 6, "isDrum": false}, {"time": 153, "velocity": 0, "pitch": 41, "instrument": 33, "track": 1, "qtime": 9, "isDrum": false}, {"time": 159, "velocity": 108, "pitch": 41, "instrument": 33, "track": 1, "qtime": 15, "isDrum": false}, {"time": 162, "velocity": 0, "pitch": 41, "instrument": 33, "track": 1, "qtime": 18, "isDrum": false}, {"time": 162, "velocity": 108, "pitch": 41, "instrument": 33, "track": 1, "qtime": 18, "isDrum": false}, {"time": 165, "velocity": 0, "pitch": 41, "instrument": 33, "track": 1, "qtime": 21, "isDrum": false}, {"time": 168, "velocity": 108, "pitch": 41, "instrument": 33, "track": 1, "qtime": 24, "isDrum": false}, {"time": 171, "velocity": 0, "pitch": 41, "instrument": 33, "track": 1, "qtime": 27, "isDrum": false}, {"time": 0, "velocity": 108, "pitch": 57, "instrument": 48, "track": 2, "qtime": 0, "isDrum": false}, {"time": 0, "velocity": 108, "pitch": 60, "instrument": 48, "track": 2, "qtime": 0, "isDrum": false}, {"time": 95, "velocity": 0, "pitch": 57, "instrument": 48, "track": 2, "qtime": 47, "isDrum": false}, {"time": 95, "velocity": 108, "pitch": 53, "instrument": 48, "track": 2, "qtime": 47, "isDrum": false}, {"time": 96, "velocity": 0, "pitch": 60, "instrument": 48, "track": 2, "qtime": 48, "isDrum": false}, {"time": 96, "velocity": 108, "pitch": 57, "instrument": 48, "track": 2, "qtime": 0, "isDrum": false}, {"time": 180, "velocity": 0, "pitch": 53, "instrument": 48, "track": 2, "qtime": 36, "isDrum": false}, {"time": 181, "velocity": 0, "pitch": 57, "instrument": 48, "track": 2, "qtime": 37, "isDrum": false}, {"time": 0, "velocity": 108, "pitch": 76, "instrument": 0, "track": 9, "qtime": 0, "isDrum": true}, {"time": 3, "velocity": 0, "pitch": 76, "instrument": 0, "track": 9, "qtime": 3, "isDrum": true}, {"time": 3, "velocity": 108, "pitch": 76, "instrument": 0, "track": 9, "qtime": 3, "isDrum": true}, {"time": 6, "velocity": 0, "pitch": 76, "instrument": 0, "track": 9, "qtime": 6, "isDrum": true}, {"time": 6, "velocity": 108, "pitch": 76, "instrument": 0, "track": 9, "qtime": 6, "isDrum": true}, {"time": 9, "velocity": 0, "pitch": 76, "instrument": 0, "track": 9, "qtime": 9, "isDrum": true}, {"time": 12, "velocity": 108, "pitch": 76, "instrument": 0, "track": 9, "qtime": 12, "isDrum": true}, {"time": 15, "velocity": 0, "pitch": 76, "instrument": 0, "track": 9, "qtime": 15, "isDrum": true}, {"time": 15, "velocity": 108, "pitch": 76, "instrument": 0, "track": 9, "qtime": 15, "isDrum": true}, {"time": 18, "velocity": 0, "pitch": 76, "instrument": 0, "track": 9, "qtime": 18, "isDrum": true}, {"time": 18, "velocity": 108, "pitch": 76, "instrument": 0, "track": 9, "qtime": 18, "isDrum": true}, {"time": 21, "velocity": 0, "pitch": 76, "instrument": 0, "track": 9, "qtime": 21, "isDrum": true}, {"time": 21, "velocity": 108, "pitch": 76, "instrument": 0, "track": 9, "qtime": 21, "isDrum": true}, {"time": 24, "velocity": 0, "pitch": 76, "instrument": 0, "track": 9, "qtime": 24, "isDrum": true}, {"time": 24, "velocity": 108, "pitch": 76, "instrument": 0, "track": 9, "qtime": 24, "isDrum": true}, {"time": 27, "velocity": 0, "pitch": 76, "instrument": 0, "track": 9, "qtime": 27, "isDrum": true}, {"time": 27, "velocity": 108, "pitch": 76, "instrument": 0, "track": 9, "qtime": 27, "isDrum": true}, {"time": 30, "velocity": 0, "pitch": 76, "instrument": 0, "track": 9, "qtime": 30, "isDrum": true}, {"time": 36, "velocity": 108, "pitch": 76, "instrument": 0, "track": 9, "qtime": 36, "isDrum": true}, {"time": 36, "velocity": 108, "pitch": 76, "instrument": 0, "track": 9, "qtime": 36, "isDrum": true}, {"time": 39, "velocity": 0, "pitch": 76, "instrument": 0, "track": 9, "qtime": 39, "isDrum": true}, {"time": 39, "velocity": 0, "pitch": 76, "instrument": 0, "track": 9, "qtime": 39, "isDrum": true}, {"time": 39, "velocity": 108, "pitch": 76, "instrument": 0, "track": 9, "qtime": 39, "isDrum": true}, {"time": 42, "velocity": 0, "pitch": 76, "instrument": 0, "track": 9, "qtime": 42, "isDrum": true}, {"time": 42, "velocity": 108, "pitch": 76, "instrument": 0, "track": 9, "qtime": 42, "isDrum": true}, {"time": 45, "velocity": 0, "pitch": 76, "instrument": 0, "track": 9, "qtime": 45, "isDrum": true}, {"time": 48, "velocity": 108, "pitch": 76, "instrument": 0, "track": 9, "qtime": 0, "isDrum": true}, {"time": 51, "velocity": 0, "pitch": 76, "instrument": 0, "track": 9, "qtime": 3, "isDrum": true}, {"time": 51, "velocity": 108, "pitch": 76, "instrument": 0, "track": 9, "qtime": 3, "isDrum": true}, {"time": 54, "velocity": 0, "pitch": 76, "instrument": 0, "track": 9, "qtime": 6, "isDrum": true}, {"time": 54, "velocity": 108, "pitch": 76, "instrument": 0, "track": 9, "qtime": 6, "isDrum": true}, {"time": 57, "velocity": 0, "pitch": 76, "instrument": 0, "track": 9, "qtime": 9, "isDrum": true}, {"time": 60, "velocity": 108, "pitch": 76, "instrument": 0, "track": 9, "qtime": 12, "isDrum": true}, {"time": 63, "velocity": 0, "pitch": 76, "instrument": 0, "track": 9, "qtime": 15, "isDrum": true}, {"time": 63, "velocity": 108, "pitch": 76, "instrument": 0, "track": 9, "qtime": 15, "isDrum": true}, {"time": 66, "velocity": 0, "pitch": 76, "instrument": 0, "track": 9, "qtime": 18, "isDrum": true}, {"time": 66, "velocity": 108, "pitch": 76, "instrument": 0, "track": 9, "qtime": 18, "isDrum": true}, {"time": 69, "velocity": 0, "pitch": 76, "instrument": 0, "track": 9, "qtime": 21, "isDrum": true}, {"time": 69, "velocity": 108, "pitch": 76, "instrument": 0, "track": 9, "qtime": 21, "isDrum": true}, {"time": 72, "velocity": 0, "pitch": 76, "instrument": 0, "track": 9, "qtime": 24, "isDrum": true}, {"time": 72, "velocity": 108, "pitch": 76, "instrument": 0, "track": 9, "qtime": 24, "isDrum": true}, {"time": 75, "velocity": 0, "pitch": 76, "instrument": 0, "track": 9, "qtime": 27, "isDrum": true}, {"time": 75, "velocity": 108, "pitch": 76, "instrument": 0, "track": 9, "qtime": 27, "isDrum": true}, {"time": 78, "velocity": 0, "pitch": 76, "instrument": 0, "track": 9, "qtime": 30, "isDrum": true}, {"time": 84, "velocity": 108, "pitch": 76, "instrument": 0, "track": 9, "qtime": 36, "isDrum": true}, {"time": 84, "velocity": 108, "pitch": 76, "instrument": 0, "track": 9, "qtime": 36, "isDrum": true}, {"time": 87, "velocity": 0, "pitch": 76, "instrument": 0, "track": 9, "qtime": 39, "isDrum": true}, {"time": 87, "velocity": 0, "pitch": 76, "instrument": 0, "track": 9, "qtime": 39, "isDrum": true}, {"time": 87, "velocity": 108, "pitch": 76, "instrument": 0, "track": 9, "qtime": 39, "isDrum": true}, {"time": 90, "velocity": 0, "pitch": 76, "instrument": 0, "track": 9, "qtime": 42, "isDrum": true}, {"time": 90, "velocity": 108, "pitch": 76, "instrument": 0, "track": 9, "qtime": 42, "isDrum": true}, {"time": 93, "velocity": 0, "pitch": 76, "instrument": 0, "track": 9, "qtime": 45, "isDrum": true}, {"time": 96, "velocity": 108, "pitch": 76, "instrument": 0, "track": 9, "qtime": 0, "isDrum": true}, {"time": 99, "velocity": 0, "pitch": 76, "instrument": 0, "track": 9, "qtime": 3, "isDrum": true}, {"time": 99, "velocity": 108, "pitch": 76, "instrument": 0, "track": 9, "qtime": 3, "isDrum": true}, {"time": 102, "velocity": 0, "pitch": 76, "instrument": 0, "track": 9, "qtime": 6, "isDrum": true}, {"time": 102, "velocity": 108, "pitch": 76, "instrument": 0, "track": 9, "qtime": 6, "isDrum": true}, {"time": 105, "velocity": 0, "pitch": 76, "instrument": 0, "track": 9, "qtime": 9, "isDrum": true}, {"time": 108, "velocity": 108, "pitch": 76, "instrument": 0, "track": 9, "qtime": 12, "isDrum": true}, {"time": 111, "velocity": 0, "pitch": 76, "instrument": 0, "track": 9, "qtime": 15, "isDrum": true}, {"time": 111, "velocity": 108, "pitch": 76, "instrument": 0, "track": 9, "qtime": 15, "isDrum": true}, {"time": 114, "velocity": 0, "pitch": 76, "instrument": 0, "track": 9, "qtime": 18, "isDrum": true}, {"time": 114, "velocity": 108, "pitch": 76, "instrument": 0, "track": 9, "qtime": 18, "isDrum": true}, {"time": 117, "velocity": 0, "pitch": 76, "instrument": 0, "track": 9, "qtime": 21, "isDrum": true}, {"time": 117, "velocity": 108, "pitch": 76, "instrument": 0, "track": 9, "qtime": 21, "isDrum": true}, {"time": 120, "velocity": 0, "pitch": 76, "instrument": 0, "track": 9, "qtime": 24, "isDrum": true}, {"time": 120, "velocity": 108, "pitch": 76, "instrument": 0, "track": 9, "qtime": 24, "isDrum": true}, {"time": 123, "velocity": 0, "pitch": 76, "instrument": 0, "track": 9, "qtime": 27, "isDrum": true}, {"time": 123, "velocity": 108, "pitch": 76, "instrument": 0, "track": 9, "qtime": 27, "isDrum": true}, {"time": 126, "velocity": 0, "pitch": 76, "instrument": 0, "track": 9, "qtime": 30, "isDrum": true}, {"time": 132, "velocity": 108, "pitch": 76, "instrument": 0, "track": 9, "qtime": 36, "isDrum": true}, {"time": 132, "velocity": 108, "pitch": 76, "instrument": 0, "track": 9, "qtime": 36, "isDrum": true}, {"time": 135, "velocity": 0, "pitch": 76, "instrument": 0, "track": 9, "qtime": 39, "isDrum": true}, {"time": 135, "velocity": 0, "pitch": 76, "instrument": 0, "track": 9, "qtime": 39, "isDrum": true}, {"time": 135, "velocity": 108, "pitch": 76, "instrument": 0, "track": 9, "qtime": 39, "isDrum": true}, {"time": 138, "velocity": 0, "pitch": 76, "instrument": 0, "track": 9, "qtime": 42, "isDrum": true}, {"time": 138, "velocity": 108, "pitch": 76, "instrument": 0, "track": 9, "qtime": 42, "isDrum": true}, {"time": 141, "velocity": 0, "pitch": 76, "instrument": 0, "track": 9, "qtime": 45, "isDrum": true}, {"time": 144, "velocity": 108, "pitch": 76, "instrument": 0, "track": 9, "qtime": 0, "isDrum": true}, {"time": 147, "velocity": 0, "pitch": 76, "instrument": 0, "track": 9, "qtime": 3, "isDrum": true}, {"time": 147, "velocity": 108, "pitch": 76, "instrument": 0, "track": 9, "qtime": 3, "isDrum": true}, {"time": 150, "velocity": 0, "pitch": 76, "instrument": 0, "track": 9, "qtime": 6, "isDrum": true}, {"time": 150, "velocity": 108, "pitch": 76, "instrument": 0, "track": 9, "qtime": 6, "isDrum": true}, {"time": 153, "velocity": 0, "pitch": 76, "instrument": 0, "track": 9, "qtime": 9, "isDrum": true}, {"time": 156, "velocity": 108, "pitch": 76, "instrument": 0, "track": 9, "qtime": 12, "isDrum": true}, {"time": 159, "velocity": 0, "pitch": 76, "instrument": 0, "track": 9, "qtime": 15, "isDrum": true}, {"time": 159, "velocity": 108, "pitch": 76, "instrument": 0, "track": 9, "qtime": 15, "isDrum": true}, {"time": 162, "velocity": 0, "pitch": 76, "instrument": 0, "track": 9, "qtime": 18, "isDrum": true}, {"time": 162, "velocity": 108, "pitch": 76, "instrument": 0, "track": 9, "qtime": 18, "isDrum": true}, {"time": 165, "velocity": 0, "pitch": 76, "instrument": 0, "track": 9, "qtime": 21, "isDrum": true}, {"time": 165, "velocity": 108, "pitch": 76, "instrument": 0, "track": 9, "qtime": 21, "isDrum": true}, {"time": 168, "velocity": 0, "pitch": 76, "instrument": 0, "track": 9, "qtime": 24, "isDrum": true}, {"time": 168, "velocity": 108, "pitch": 76, "instrument": 0, "track": 9, "qtime": 24, "isDrum": true}, {"time": 171, "velocity": 0, "pitch": 76, "instrument": 0, "track": 9, "qtime": 27, "isDrum": true}, {"time": 171, "velocity": 108, "pitch": 76, "instrument": 0, "track": 9, "qtime": 27, "isDrum": true}, {"time": 174, "velocity": 0, "pitch": 76, "instrument": 0, "track": 9, "qtime": 30, "isDrum": true}, {"time": 180, "velocity": 108, "pitch": 76, "instrument": 0, "track": 9, "qtime": 36, "isDrum": true}, {"time": 180, "velocity": 108, "pitch": 76, "instrument": 0, "track": 9, "qtime": 36, "isDrum": true}, {"time": 183, "velocity": 0, "pitch": 76, "instrument": 0, "track": 9, "qtime": 39, "isDrum": true}, {"time": 183, "velocity": 0, "pitch": 76, "instrument": 0, "track": 9, "qtime": 39, "isDrum": true}, {"time": 183, "velocity": 108, "pitch": 76, "instrument": 0, "track": 9, "qtime": 39, "isDrum": true}, {"time": 186, "velocity": 0, "pitch": 76, "instrument": 0, "track": 9, "qtime": 42, "isDrum": true}, {"time": 186, "velocity": 108, "pitch": 76, "instrument": 0, "track": 9, "qtime": 42, "isDrum": true}, {"time": 189, "velocity": 0, "pitch": 76, "instrument": 0, "track": 9, "qtime": 45, "isDrum": true}], "resolution": 12, "tempo": 75, "minPitch": 36, "maxPitch": 76, "validSegments": [0], "validTracks": [15]}, "audio": "https://www.sfu.ca/~jeffe/examples/stem_1_drum.mp3"}, {"src": "gen/stem_1_organ.json", "highlights": [[], [], [], [0, 1, 2, 3]], "caption": "We generate an organ track conditioned on the first three tracks in 18a.", "sample_id": "18d", "mixer": [8, 8, 8, 8], "tempo": 75, "json": {"tracks": [{"bars": [{"events": [0, 1, 2, 3, 4, 5, 6, 7, 8, 9, 10, 11, 12, 13, 14, 15, 16, 17, 18, 19, 20, 21, 22, 23, 24, 25, 26, 27, 28, 29, 30, 31, 32, 33, 34, 35, 36, 37, 38, 39, 40, 41, 42, 43, 44, 45], "isFourFour": true, "hasNotes": true, "time": 0}, {"events": [46, 47, 48, 49, 50, 51, 52, 53, 54, 55, 56, 57, 58, 59, 60, 61, 62, 63, 64, 65, 66, 67, 68, 69, 70, 71, 72, 73, 74, 75, 76, 77, 78, 79, 80, 81, 82, 83, 84, 85, 86, 87, 88, 89, 90, 91], "isFourFour": true, "hasNotes": true, "time": 48}, {"events": [92, 93, 94, 95, 96, 97, 98, 99, 100, 101, 102, 103, 104, 105, 106, 107, 108, 109, 110, 111, 112, 113, 114, 115, 116, 117, 118, 119, 120, 121, 122, 123, 124, 125, 126, 127, 128, 129, 130, 131, 132, 133, 134, 135, 136, 137], "isFourFour": true, "hasNotes": true, "time": 96}, {"events": [138, 139, 140, 141, 142, 143, 144, 145, 146, 147, 148, 149, 150, 151, 152, 153, 154, 155, 156, 157, 158, 159, 160, 161, 162, 163, 164, 165, 166, 167, 168, 169, 170, 171, 172, 173, 174, 175, 176, 177, 178, 179, 180, 181, 182, 183], "isFourFour": true, "hasNotes": true, "time": 144}], "isDrum": true, "minPitch": 36, "maxPitch": 54, "instrument": 0, "avPolyphony": 1.4375, "noteDensity": 9, "noteDensityV2": 8}, {"bars": [{"events": [184, 185, 186, 187, 188, 189, 190, 191, 192, 193], "isFourFour": true, "hasNotes": true, "time": 0}, {"events": [194, 195, 196, 197, 198, 199, 200, 201, 202, 203], "isFourFour": true, "hasNotes": true, "time": 48}, {"events": [204, 205, 206, 207, 208, 209, 210, 211, 212, 213], "isFourFour": true, "hasNotes": true, "time": 96}, {"events": [214, 215, 216, 217, 218, 219, 220, 221, 222, 223], "isFourFour": true, "hasNotes": true, "time": 144}], "isDrum": false, "minPitch": 41, "maxPitch": 45, "instrument": 33, "avPolyphony": 1, "noteDensity": 6, "noteDensityV2": 5}, {"bars": [{"events": [224, 225], "isFourFour": true, "hasNotes": true, "time": 0}, {"events": [226, 227, 228], "isFourFour": true, "hasNotes": true, "time": 48}, {"events": [229], "isFourFour": true, "hasNotes": true, "time": 96}, {"events": [230, 231], "isFourFour": true, "hasNotes": true, "time": 144}], "isDrum": false, "minPitch": 53, "maxPitch": 60, "instrument": 48, "avPolyphony": 1.9944751, "noteDensity": 0, "noteDensityV2": 0}, {"bars": [{"events": [232, 233, 234, 235, 236, 237, 238, 239, 240, 241, 242, 243], "isFourFour": true, "hasNotes": true, "time": 0}, {"events": [244, 245, 246, 247, 248, 249, 250, 251, 252, 253, 254, 255], "isFourFour": true, "hasNotes": true, "time": 48}, {"events": [256, 257, 258, 259, 260, 261, 262, 263, 264, 265, 266, 267], "isFourFour": true, "hasNotes": true, "time": 96}, {"events": [268, 269, 270, 271, 272, 273, 274, 275, 276, 277, 278, 279], "isFourFour": true, "hasNotes": true, "time": 144}], "isDrum": false, "minPitch": 60, "maxPitch": 67, "instrument": 17, "avPolyphony": 1, "noteDensity": 7, "noteDensityV2": 5}], "events": [{"time": 0, "velocity": 108, "pitch": 36, "instrument": 0, "track": 9, "qtime": 0, "isDrum": true}, {"time": 0, "velocity": 108, "pitch": 54, "instrument": 0, "track": 9, "qtime": 0, "isDrum": true}, {"time": 3, "velocity": 0, "pitch": 36, "instrument": 0, "track": 9, "qtime": 3, "isDrum": true}, {"time": 3, "velocity": 0, "pitch": 54, "instrument": 0, "track": 9, "qtime": 3, "isDrum": true}, {"time": 3, "velocity": 108, "pitch": 44, "instrument": 0, "track": 9, "qtime": 3, "isDrum": true}, {"time": 6, "velocity": 0, "pitch": 44, "instrument": 0, "track": 9, "qtime": 6, "isDrum": true}, {"time": 6, "velocity": 108, "pitch": 36, "instrument": 0, "track": 9, "qtime": 6, "isDrum": true}, {"time": 6, "velocity": 108, "pitch": 54, "instrument": 0, "track": 9, "qtime": 6, "isDrum": true}, {"time": 9, "velocity": 0, "pitch": 36, "instrument": 0, "track": 9, "qtime": 9, "isDrum": true}, {"time": 9, "velocity": 0, "pitch": 54, "instrument": 0, "track": 9, "qtime": 9, "isDrum": true}, {"time": 9, "velocity": 108, "pitch": 44, "instrument": 0, "track": 9, "qtime": 9, "isDrum": true}, {"time": 12, "velocity": 0, "pitch": 44, "instrument": 0, "track": 9, "qtime": 12, "isDrum": true}, {"time": 12, "velocity": 108, "pitch": 38, "instrument": 0, "track": 9, "qtime": 12, "isDrum": true}, {"time": 12, "velocity": 108, "pitch": 54, "instrument": 0, "track": 9, "qtime": 12, "isDrum": true}, {"time": 15, "velocity": 0, "pitch": 38, "instrument": 0, "track": 9, "qtime": 15, "isDrum": true}, {"time": 15, "velocity": 0, "pitch": 54, "instrument": 0, "track": 9, "qtime": 15, "isDrum": true}, {"time": 15, "velocity": 108, "pitch": 36, "instrument": 0, "track": 9, "qtime": 15, "isDrum": true}, {"time": 15, "velocity": 108, "pitch": 44, "instrument": 0, "track": 9, "qtime": 15, "isDrum": true}, {"time": 18, "velocity": 0, "pitch": 36, "instrument": 0, "track": 9, "qtime": 18, "isDrum": true}, {"time": 18, "velocity": 0, "pitch": 44, "instrument": 0, "track": 9, "qtime": 18, "isDrum": true}, {"time": 18, "velocity": 108, "pitch": 36, "instrument": 0, "track": 9, "qtime": 18, "isDrum": true}, {"time": 18, "velocity": 108, "pitch": 54, "instrument": 0, "track": 9, "qtime": 18, "isDrum": true}, {"time": 21, "velocity": 0, "pitch": 36, "instrument": 0, "track": 9, "qtime": 21, "isDrum": true}, {"time": 21, "velocity": 0, "pitch": 54, "instrument": 0, "track": 9, "qtime": 21, "isDrum": true}, {"time": 21, "velocity": 108, "pitch": 44, "instrument": 0, "track": 9, "qtime": 21, "isDrum": true}, {"time": 24, "velocity": 0, "pitch": 44, "instrument": 0, "track": 9, "qtime": 24, "isDrum": true}, {"time": 24, "velocity": 108, "pitch": 36, "instrument": 0, "track": 9, "qtime": 24, "isDrum": true}, {"time": 24, "velocity": 108, "pitch": 54, "instrument": 0, "track": 9, "qtime": 24, "isDrum": true}, {"time": 27, "velocity": 0, "pitch": 36, "instrument": 0, "track": 9, "qtime": 27, "isDrum": true}, {"time": 27, "velocity": 0, "pitch": 54, "instrument": 0, "track": 9, "qtime": 27, "isDrum": true}, {"time": 27, "velocity": 108, "pitch": 44, "instrument": 0, "track": 9, "qtime": 27, "isDrum": true}, {"time": 30, "velocity": 0, "pitch": 44, "instrument": 0, "track": 9, "qtime": 30, "isDrum": true}, {"time": 30, "velocity": 108, "pitch": 54, "instrument": 0, "track": 9, "qtime": 30, "isDrum": true}, {"time": 33, "velocity": 0, "pitch": 54, "instrument": 0, "track": 9, "qtime": 33, "isDrum": true}, {"time": 33, "velocity": 108, "pitch": 44, "instrument": 0, "track": 9, "qtime": 33, "isDrum": true}, {"time": 36, "velocity": 0, "pitch": 44, "instrument": 0, "track": 9, "qtime": 36, "isDrum": true}, {"time": 36, "velocity": 108, "pitch": 38, "instrument": 0, "track": 9, "qtime": 36, "isDrum": true}, {"time": 36, "velocity": 108, "pitch": 54, "instrument": 0, "track": 9, "qtime": 36, "isDrum": true}, {"time": 39, "velocity": 0, "pitch": 38, "instrument": 0, "track": 9, "qtime": 39, "isDrum": true}, {"time": 39, "velocity": 0, "pitch": 54, "instrument": 0, "track": 9, "qtime": 39, "isDrum": true}, {"time": 39, "velocity": 108, "pitch": 44, "instrument": 0, "track": 9, "qtime": 39, "isDrum": true}, {"time": 42, "velocity": 0, "pitch": 44, "instrument": 0, "track": 9, "qtime": 42, "isDrum": true}, {"time": 42, "velocity": 108, "pitch": 54, "instrument": 0, "track": 9, "qtime": 42, "isDrum": true}, {"time": 45, "velocity": 0, "pitch": 54, "instrument": 0, "track": 9, "qtime": 45, "isDrum": true}, {"time": 45, "velocity": 108, "pitch": 44, "instrument": 0, "track": 9, "qtime": 45, "isDrum": true}, {"time": 48, "velocity": 0, "pitch": 44, "instrument": 0, "track": 9, "qtime": 48, "isDrum": true}, {"time": 48, "velocity": 108, "pitch": 36, "instrument": 0, "track": 9, "qtime": 0, "isDrum": true}, {"time": 48, "velocity": 108, "pitch": 54, "instrument": 0, "track": 9, "qtime": 0, "isDrum": true}, {"time": 51, "velocity": 0, "pitch": 36, "instrument": 0, "track": 9, "qtime": 3, "isDrum": true}, {"time": 51, "velocity": 0, "pitch": 54, "instrument": 0, "track": 9, "qtime": 3, "isDrum": true}, {"time": 51, "velocity": 108, "pitch": 44, "instrument": 0, "track": 9, "qtime": 3, "isDrum": true}, {"time": 54, "velocity": 0, "pitch": 44, "instrument": 0, "track": 9, "qtime": 6, "isDrum": true}, {"time": 54, "velocity": 108, "pitch": 36, "instrument": 0, "track": 9, "qtime": 6, "isDrum": true}, {"time": 54, "velocity": 108, "pitch": 54, "instrument": 0, "track": 9, "qtime": 6, "isDrum": true}, {"time": 57, "velocity": 0, "pitch": 36, "instrument": 0, "track": 9, "qtime": 9, "isDrum": true}, {"time": 57, "velocity": 0, "pitch": 54, "instrument": 0, "track": 9, "qtime": 9, "isDrum": true}, {"time": 57, "velocity": 108, "pitch": 44, "instrument": 0, "track": 9, "qtime": 9, "isDrum": true}, {"time": 60, "velocity": 0, "pitch": 44, "instrument": 0, "track": 9, "qtime": 12, "isDrum": true}, {"time": 60, "velocity": 108, "pitch": 38, "instrument": 0, "track": 9, "qtime": 12, "isDrum": true}, {"time": 60, "velocity": 108, "pitch": 54, "instrument": 0, "track": 9, "qtime": 12, "isDrum": true}, {"time": 63, "velocity": 0, "pitch": 38, "instrument": 0, "track": 9, "qtime": 15, "isDrum": true}, {"time": 63, "velocity": 0, "pitch": 54, "instrument": 0, "track": 9, "qtime": 15, "isDrum": true}, {"time": 63, "velocity": 108, "pitch": 36, "instrument": 0, "track": 9, "qtime": 15, "isDrum": true}, {"time": 63, "velocity": 108, "pitch": 44, "instrument": 0, "track": 9, "qtime": 15, "isDrum": true}, {"time": 66, "velocity": 0, "pitch": 36, "instrument": 0, "track": 9, "qtime": 18, "isDrum": true}, {"time": 66, "velocity": 0, "pitch": 44, "instrument": 0, "track": 9, "qtime": 18, "isDrum": true}, {"time": 66, "velocity": 108, "pitch": 36, "instrument": 0, "track": 9, "qtime": 18, "isDrum": true}, {"time": 66, "velocity": 108, "pitch": 54, "instrument": 0, "track": 9, "qtime": 18, "isDrum": true}, {"time": 69, "velocity": 0, "pitch": 36, "instrument": 0, "track": 9, "qtime": 21, "isDrum": true}, {"time": 69, "velocity": 0, "pitch": 54, "instrument": 0, "track": 9, "qtime": 21, "isDrum": true}, {"time": 69, "velocity": 108, "pitch": 44, "instrument": 0, "track": 9, "qtime": 21, "isDrum": true}, {"time": 72, "velocity": 0, "pitch": 44, "instrument": 0, "track": 9, "qtime": 24, "isDrum": true}, {"time": 72, "velocity": 108, "pitch": 36, "instrument": 0, "track": 9, "qtime": 24, "isDrum": true}, {"time": 72, "velocity": 108, "pitch": 54, "instrument": 0, "track": 9, "qtime": 24, "isDrum": true}, {"time": 75, "velocity": 0, "pitch": 36, "instrument": 0, "track": 9, "qtime": 27, "isDrum": true}, {"time": 75, "velocity": 0, "pitch": 54, "instrument": 0, "track": 9, "qtime": 27, "isDrum": true}, {"time": 75, "velocity": 108, "pitch": 44, "instrument": 0, "track": 9, "qtime": 27, "isDrum": true}, {"time": 78, "velocity": 0, "pitch": 44, "instrument": 0, "track": 9, "qtime": 30, "isDrum": true}, {"time": 78, "velocity": 108, "pitch": 54, "instrument": 0, "track": 9, "qtime": 30, "isDrum": true}, {"time": 81, "velocity": 0, "pitch": 54, "instrument": 0, "track": 9, "qtime": 33, "isDrum": true}, {"time": 81, "velocity": 108, "pitch": 44, "instrument": 0, "track": 9, "qtime": 33, "isDrum": true}, {"time": 84, "velocity": 0, "pitch": 44, "instrument": 0, "track": 9, "qtime": 36, "isDrum": true}, {"time": 84, "velocity": 108, "pitch": 38, "instrument": 0, "track": 9, "qtime": 36, "isDrum": true}, {"time": 84, "velocity": 108, "pitch": 54, "instrument": 0, "track": 9, "qtime": 36, "isDrum": true}, {"time": 87, "velocity": 0, "pitch": 38, "instrument": 0, "track": 9, "qtime": 39, "isDrum": true}, {"time": 87, "velocity": 0, "pitch": 54, "instrument": 0, "track": 9, "qtime": 39, "isDrum": true}, {"time": 87, "velocity": 108, "pitch": 44, "instrument": 0, "track": 9, "qtime": 39, "isDrum": true}, {"time": 90, "velocity": 0, "pitch": 44, "instrument": 0, "track": 9, "qtime": 42, "isDrum": true}, {"time": 90, "velocity": 108, "pitch": 54, "instrument": 0, "track": 9, "qtime": 42, "isDrum": true}, {"time": 93, "velocity": 0, "pitch": 54, "instrument": 0, "track": 9, "qtime": 45, "isDrum": true}, {"time": 93, "velocity": 108, "pitch": 44, "instrument": 0, "track": 9, "qtime": 45, "isDrum": true}, {"time": 96, "velocity": 0, "pitch": 44, "instrument": 0, "track": 9, "qtime": 48, "isDrum": true}, {"time": 96, "velocity": 108, "pitch": 36, "instrument": 0, "track": 9, "qtime": 0, "isDrum": true}, {"time": 96, "velocity": 108, "pitch": 54, "instrument": 0, "track": 9, "qtime": 0, "isDrum": true}, {"time": 99, "velocity": 0, "pitch": 36, "instrument": 0, "track": 9, "qtime": 3, "isDrum": true}, {"time": 99, "velocity": 0, "pitch": 54, "instrument": 0, "track": 9, "qtime": 3, "isDrum": true}, {"time": 99, "velocity": 108, "pitch": 44, "instrument": 0, "track": 9, "qtime": 3, "isDrum": true}, {"time": 102, "velocity": 0, "pitch": 44, "instrument": 0, "track": 9, "qtime": 6, "isDrum": true}, {"time": 102, "velocity": 108, "pitch": 36, "instrument": 0, "track": 9, "qtime": 6, "isDrum": true}, {"time": 102, "velocity": 108, "pitch": 54, "instrument": 0, "track": 9, "qtime": 6, "isDrum": true}, {"time": 105, "velocity": 0, "pitch": 36, "instrument": 0, "track": 9, "qtime": 9, "isDrum": true}, {"time": 105, "velocity": 0, "pitch": 54, "instrument": 0, "track": 9, "qtime": 9, "isDrum": true}, {"time": 105, "velocity": 108, "pitch": 44, "instrument": 0, "track": 9, "qtime": 9, "isDrum": true}, {"time": 108, "velocity": 0, "pitch": 44, "instrument": 0, "track": 9, "qtime": 12, "isDrum": true}, {"time": 108, "velocity": 108, "pitch": 38, "instrument": 0, "track": 9, "qtime": 12, "isDrum": true}, {"time": 108, "velocity": 108, "pitch": 54, "instrument": 0, "track": 9, "qtime": 12, "isDrum": true}, {"time": 111, "velocity": 0, "pitch": 38, "instrument": 0, "track": 9, "qtime": 15, "isDrum": true}, {"time": 111, "velocity": 0, "pitch": 54, "instrument": 0, "track": 9, "qtime": 15, "isDrum": true}, {"time": 111, "velocity": 108, "pitch": 36, "instrument": 0, "track": 9, "qtime": 15, "isDrum": true}, {"time": 111, "velocity": 108, "pitch": 44, "instrument": 0, "track": 9, "qtime": 15, "isDrum": true}, {"time": 114, "velocity": 0, "pitch": 36, "instrument": 0, "track": 9, "qtime": 18, "isDrum": true}, {"time": 114, "velocity": 0, "pitch": 44, "instrument": 0, "track": 9, "qtime": 18, "isDrum": true}, {"time": 114, "velocity": 108, "pitch": 36, "instrument": 0, "track": 9, "qtime": 18, "isDrum": true}, {"time": 114, "velocity": 108, "pitch": 54, "instrument": 0, "track": 9, "qtime": 18, "isDrum": true}, {"time": 117, "velocity": 0, "pitch": 36, "instrument": 0, "track": 9, "qtime": 21, "isDrum": true}, {"time": 117, "velocity": 0, "pitch": 54, "instrument": 0, "track": 9, "qtime": 21, "isDrum": true}, {"time": 117, "velocity": 108, "pitch": 44, "instrument": 0, "track": 9, "qtime": 21, "isDrum": true}, {"time": 120, "velocity": 0, "pitch": 44, "instrument": 0, "track": 9, "qtime": 24, "isDrum": true}, {"time": 120, "velocity": 108, "pitch": 36, "instrument": 0, "track": 9, "qtime": 24, "isDrum": true}, {"time": 120, "velocity": 108, "pitch": 54, "instrument": 0, "track": 9, "qtime": 24, "isDrum": true}, {"time": 123, "velocity": 0, "pitch": 36, "instrument": 0, "track": 9, "qtime": 27, "isDrum": true}, {"time": 123, "velocity": 0, "pitch": 54, "instrument": 0, "track": 9, "qtime": 27, "isDrum": true}, {"time": 123, "velocity": 108, "pitch": 44, "instrument": 0, "track": 9, "qtime": 27, "isDrum": true}, {"time": 126, "velocity": 0, "pitch": 44, "instrument": 0, "track": 9, "qtime": 30, "isDrum": true}, {"time": 126, "velocity": 108, "pitch": 54, "instrument": 0, "track": 9, "qtime": 30, "isDrum": true}, {"time": 129, "velocity": 0, "pitch": 54, "instrument": 0, "track": 9, "qtime": 33, "isDrum": true}, {"time": 129, "velocity": 108, "pitch": 44, "instrument": 0, "track": 9, "qtime": 33, "isDrum": true}, {"time": 132, "velocity": 0, "pitch": 44, "instrument": 0, "track": 9, "qtime": 36, "isDrum": true}, {"time": 132, "velocity": 108, "pitch": 38, "instrument": 0, "track": 9, "qtime": 36, "isDrum": true}, {"time": 132, "velocity": 108, "pitch": 54, "instrument": 0, "track": 9, "qtime": 36, "isDrum": true}, {"time": 135, "velocity": 0, "pitch": 38, "instrument": 0, "track": 9, "qtime": 39, "isDrum": true}, {"time": 135, "velocity": 0, "pitch": 54, "instrument": 0, "track": 9, "qtime": 39, "isDrum": true}, {"time": 135, "velocity": 108, "pitch": 44, "instrument": 0, "track": 9, "qtime": 39, "isDrum": true}, {"time": 138, "velocity": 0, "pitch": 44, "instrument": 0, "track": 9, "qtime": 42, "isDrum": true}, {"time": 138, "velocity": 108, "pitch": 54, "instrument": 0, "track": 9, "qtime": 42, "isDrum": true}, {"time": 141, "velocity": 0, "pitch": 54, "instrument": 0, "track": 9, "qtime": 45, "isDrum": true}, {"time": 141, "velocity": 108, "pitch": 44, "instrument": 0, "track": 9, "qtime": 45, "isDrum": true}, {"time": 144, "velocity": 0, "pitch": 44, "instrument": 0, "track": 9, "qtime": 48, "isDrum": true}, {"time": 144, "velocity": 108, "pitch": 36, "instrument": 0, "track": 9, "qtime": 0, "isDrum": true}, {"time": 144, "velocity": 108, "pitch": 54, "instrument": 0, "track": 9, "qtime": 0, "isDrum": true}, {"time": 147, "velocity": 0, "pitch": 36, "instrument": 0, "track": 9, "qtime": 3, "isDrum": true}, {"time": 147, "velocity": 0, "pitch": 54, "instrument": 0, "track": 9, "qtime": 3, "isDrum": true}, {"time": 147, "velocity": 108, "pitch": 44, "instrument": 0, "track": 9, "qtime": 3, "isDrum": true}, {"time": 150, "velocity": 0, "pitch": 44, "instrument": 0, "track": 9, "qtime": 6, "isDrum": true}, {"time": 150, "velocity": 108, "pitch": 36, "instrument": 0, "track": 9, "qtime": 6, "isDrum": true}, {"time": 150, "velocity": 108, "pitch": 54, "instrument": 0, "track": 9, "qtime": 6, "isDrum": true}, {"time": 153, "velocity": 0, "pitch": 36, "instrument": 0, "track": 9, "qtime": 9, "isDrum": true}, {"time": 153, "velocity": 0, "pitch": 54, "instrument": 0, "track": 9, "qtime": 9, "isDrum": true}, {"time": 153, "velocity": 108, "pitch": 44, "instrument": 0, "track": 9, "qtime": 9, "isDrum": true}, {"time": 156, "velocity": 0, "pitch": 44, "instrument": 0, "track": 9, "qtime": 12, "isDrum": true}, {"time": 156, "velocity": 108, "pitch": 38, "instrument": 0, "track": 9, "qtime": 12, "isDrum": true}, {"time": 156, "velocity": 108, "pitch": 54, "instrument": 0, "track": 9, "qtime": 12, "isDrum": true}, {"time": 159, "velocity": 0, "pitch": 38, "instrument": 0, "track": 9, "qtime": 15, "isDrum": true}, {"time": 159, "velocity": 0, "pitch": 54, "instrument": 0, "track": 9, "qtime": 15, "isDrum": true}, {"time": 159, "velocity": 108, "pitch": 36, "instrument": 0, "track": 9, "qtime": 15, "isDrum": true}, {"time": 159, "velocity": 108, "pitch": 44, "instrument": 0, "track": 9, "qtime": 15, "isDrum": true}, {"time": 162, "velocity": 0, "pitch": 36, "instrument": 0, "track": 9, "qtime": 18, "isDrum": true}, {"time": 162, "velocity": 0, "pitch": 44, "instrument": 0, "track": 9, "qtime": 18, "isDrum": true}, {"time": 162, "velocity": 108, "pitch": 36, "instrument": 0, "track": 9, "qtime": 18, "isDrum": true}, {"time": 162, "velocity": 108, "pitch": 54, "instrument": 0, "track": 9, "qtime": 18, "isDrum": true}, {"time": 165, "velocity": 0, "pitch": 36, "instrument": 0, "track": 9, "qtime": 21, "isDrum": true}, {"time": 165, "velocity": 0, "pitch": 54, "instrument": 0, "track": 9, "qtime": 21, "isDrum": true}, {"time": 165, "velocity": 108, "pitch": 44, "instrument": 0, "track": 9, "qtime": 21, "isDrum": true}, {"time": 168, "velocity": 0, "pitch": 44, "instrument": 0, "track": 9, "qtime": 24, "isDrum": true}, {"time": 168, "velocity": 108, "pitch": 36, "instrument": 0, "track": 9, "qtime": 24, "isDrum": true}, {"time": 168, "velocity": 108, "pitch": 54, "instrument": 0, "track": 9, "qtime": 24, "isDrum": true}, {"time": 171, "velocity": 0, "pitch": 36, "instrument": 0, "track": 9, "qtime": 27, "isDrum": true}, {"time": 171, "velocity": 0, "pitch": 54, "instrument": 0, "track": 9, "qtime": 27, "isDrum": true}, {"time": 171, "velocity": 108, "pitch": 44, "instrument": 0, "track": 9, "qtime": 27, "isDrum": true}, {"time": 174, "velocity": 0, "pitch": 44, "instrument": 0, "track": 9, "qtime": 30, "isDrum": true}, {"time": 174, "velocity": 108, "pitch": 54, "instrument": 0, "track": 9, "qtime": 30, "isDrum": true}, {"time": 177, "velocity": 0, "pitch": 54, "instrument": 0, "track": 9, "qtime": 33, "isDrum": true}, {"time": 177, "velocity": 108, "pitch": 44, "instrument": 0, "track": 9, "qtime": 33, "isDrum": true}, {"time": 180, "velocity": 0, "pitch": 44, "instrument": 0, "track": 9, "qtime": 36, "isDrum": true}, {"time": 180, "velocity": 108, "pitch": 38, "instrument": 0, "track": 9, "qtime": 36, "isDrum": true}, {"time": 180, "velocity": 108, "pitch": 54, "instrument": 0, "track": 9, "qtime": 36, "isDrum": true}, {"time": 183, "velocity": 0, "pitch": 38, "instrument": 0, "track": 9, "qtime": 39, "isDrum": true}, {"time": 183, "velocity": 0, "pitch": 54, "instrument": 0, "track": 9, "qtime": 39, "isDrum": true}, {"time": 183, "velocity": 108, "pitch": 44, "instrument": 0, "track": 9, "qtime": 39, "isDrum": true}, {"time": 186, "velocity": 0, "pitch": 44, "instrument": 0, "track": 9, "qtime": 42, "isDrum": true}, {"time": 186, "velocity": 108, "pitch": 54, "instrument": 0, "track": 9, "qtime": 42, "isDrum": true}, {"time": 189, "velocity": 0, "pitch": 54, "instrument": 0, "track": 9, "qtime": 45, "isDrum": true}, {"time": 189, "velocity": 108, "pitch": 44, "instrument": 0, "track": 9, "qtime": 45, "isDrum": true}, {"time": 192, "velocity": 0, "pitch": 44, "instrument": 0, "track": 9, "qtime": 48, "isDrum": true}, {"time": 0, "velocity": 108, "pitch": 45, "instrument": 33, "track": 1, "qtime": 0, "isDrum": false}, {"time": 3, "velocity": 0, "pitch": 45, "instrument": 33, "track": 1, "qtime": 3, "isDrum": false}, {"time": 6, "velocity": 108, "pitch": 45, "instrument": 33, "track": 1, "qtime": 6, "isDrum": false}, {"time": 9, "velocity": 0, "pitch": 45, "instrument": 33, "track": 1, "qtime": 9, "isDrum": false}, {"time": 15, "velocity": 108, "pitch": 45, "instrument": 33, "track": 1, "qtime": 15, "isDrum": false}, {"time": 18, "velocity": 0, "pitch": 45, "instrument": 33, "track": 1, "qtime": 18, "isDrum": false}, {"time": 18, "velocity": 108, "pitch": 45, "instrument": 33, "track": 1, "qtime": 18, "isDrum": false}, {"time": 21, "velocity": 0, "pitch": 45, "instrument": 33, "track": 1, "qtime": 21, "isDrum": false}, {"time": 24, "velocity": 108, "pitch": 45, "instrument": 33, "track": 1, "qtime": 24, "isDrum": false}, {"time": 27, "velocity": 0, "pitch": 45, "instrument": 33, "track": 1, "qtime": 27, "isDrum": false}, {"time": 48, "velocity": 108, "pitch": 45, "instrument": 33, "track": 1, "qtime": 0, "isDrum": false}, {"time": 51, "velocity": 0, "pitch": 45, "instrument": 33, "track": 1, "qtime": 3, "isDrum": false}, {"time": 54, "velocity": 108, "pitch": 45, "instrument": 33, "track": 1, "qtime": 6, "isDrum": false}, {"time": 57, "velocity": 0, "pitch": 45, "instrument": 33, "track": 1, "qtime": 9, "isDrum": false}, {"time": 63, "velocity": 108, "pitch": 45, "instrument": 33, "track": 1, "qtime": 15, "isDrum": false}, {"time": 66, "velocity": 0, "pitch": 45, "instrument": 33, "track": 1, "qtime": 18, "isDrum": false}, {"time": 66, "velocity": 108, "pitch": 45, "instrument": 33, "track": 1, "qtime": 18, "isDrum": false}, {"time": 68, "velocity": 0, "pitch": 45, "instrument": 33, "track": 1, "qtime": 20, "isDrum": false}, {"time": 72, "velocity": 108, "pitch": 45, "instrument": 33, "track": 1, "qtime": 24, "isDrum": false}, {"time": 75, "velocity": 0, "pitch": 45, "instrument": 33, "track": 1, "qtime": 27, "isDrum": false}, {"time": 96, "velocity": 108, "pitch": 41, "instrument": 33, "track": 1, "qtime": 0, "isDrum": false}, {"time": 99, "velocity": 0, "pitch": 41, "instrument": 33, "track": 1, "qtime": 3, "isDrum": false}, {"time": 102, "velocity": 108, "pitch": 41, "instrument": 33, "track": 1, "qtime": 6, "isDrum": false}, {"time": 105, "velocity": 0, "pitch": 41, "instrument": 33, "track": 1, "qtime": 9, "isDrum": false}, {"time": 111, "velocity": 108, "pitch": 41, "instrument": 33, "track": 1, "qtime": 15, "isDrum": false}, {"time": 114, "velocity": 0, "pitch": 41, "instrument": 33, "track": 1, "qtime": 18, "isDrum": false}, {"time": 114, "velocity": 108, "pitch": 41, "instrument": 33, "track": 1, "qtime": 18, "isDrum": false}, {"time": 116, "velocity": 0, "pitch": 41, "instrument": 33, "track": 1, "qtime": 20, "isDrum": false}, {"time": 120, "velocity": 108, "pitch": 41, "instrument": 33, "track": 1, "qtime": 24, "isDrum": false}, {"time": 123, "velocity": 0, "pitch": 41, "instrument": 33, "track": 1, "qtime": 27, "isDrum": false}, {"time": 144, "velocity": 108, "pitch": 41, "instrument": 33, "track": 1, "qtime": 0, "isDrum": false}, {"time": 147, "velocity": 0, "pitch": 41, "instrument": 33, "track": 1, "qtime": 3, "isDrum": false}, {"time": 150, "velocity": 108, "pitch": 41, "instrument": 33, "track": 1, "qtime": 6, "isDrum": false}, {"time": 153, "velocity": 0, "pitch": 41, "instrument": 33, "track": 1, "qtime": 9, "isDrum": false}, {"time": 159, "velocity": 108, "pitch": 41, "instrument": 33, "track": 1, "qtime": 15, "isDrum": false}, {"time": 162, "velocity": 0, "pitch": 41, "instrument": 33, "track": 1, "qtime": 18, "isDrum": false}, {"time": 162, "velocity": 108, "pitch": 41, "instrument": 33, "track": 1, "qtime": 18, "isDrum": false}, {"time": 165, "velocity": 0, "pitch": 41, "instrument": 33, "track": 1, "qtime": 21, "isDrum": false}, {"time": 168, "velocity": 108, "pitch": 41, "instrument": 33, "track": 1, "qtime": 24, "isDrum": false}, {"time": 171, "velocity": 0, "pitch": 41, "instrument": 33, "track": 1, "qtime": 27, "isDrum": false}, {"time": 0, "velocity": 108, "pitch": 57, "instrument": 48, "track": 2, "qtime": 0, "isDrum": false}, {"time": 0, "velocity": 108, "pitch": 60, "instrument": 48, "track": 2, "qtime": 0, "isDrum": false}, {"time": 95, "velocity": 0, "pitch": 57, "instrument": 48, "track": 2, "qtime": 47, "isDrum": false}, {"time": 95, "velocity": 108, "pitch": 53, "instrument": 48, "track": 2, "qtime": 47, "isDrum": false}, {"time": 96, "velocity": 0, "pitch": 60, "instrument": 48, "track": 2, "qtime": 48, "isDrum": false}, {"time": 96, "velocity": 108, "pitch": 57, "instrument": 48, "track": 2, "qtime": 0, "isDrum": false}, {"time": 180, "velocity": 0, "pitch": 53, "instrument": 48, "track": 2, "qtime": 36, "isDrum": false}, {"time": 181, "velocity": 0, "pitch": 57, "instrument": 48, "track": 2, "qtime": 37, "isDrum": false}, {"time": 0, "velocity": 108, "pitch": 64, "instrument": 17, "track": 3, "qtime": 0, "isDrum": false}, {"time": 3, "velocity": 0, "pitch": 64, "instrument": 17, "track": 3, "qtime": 3, "isDrum": false}, {"time": 9, "velocity": 108, "pitch": 65, "instrument": 17, "track": 3, "qtime": 9, "isDrum": false}, {"time": 12, "velocity": 0, "pitch": 65, "instrument": 17, "track": 3, "qtime": 12, "isDrum": false}, {"time": 18, "velocity": 108, "pitch": 60, "instrument": 17, "track": 3, "qtime": 18, "isDrum": false}, {"time": 21, "velocity": 0, "pitch": 60, "instrument": 17, "track": 3, "qtime": 21, "isDrum": false}, {"time": 27, "velocity": 108, "pitch": 64, "instrument": 17, "track": 3, "qtime": 27, "isDrum": false}, {"time": 30, "velocity": 0, "pitch": 64, "instrument": 17, "track": 3, "qtime": 30, "isDrum": false}, {"time": 36, "velocity": 108, "pitch": 60, "instrument": 17, "track": 3, "qtime": 36, "isDrum": false}, {"time": 39, "velocity": 0, "pitch": 60, "instrument": 17, "track": 3, "qtime": 39, "isDrum": false}, {"time": 42, "velocity": 108, "pitch": 64, "instrument": 17, "track": 3, "qtime": 42, "isDrum": false}, {"time": 45, "velocity": 0, "pitch": 64, "instrument": 17, "track": 3, "qtime": 45, "isDrum": false}, {"time": 48, "velocity": 108, "pitch": 67, "instrument": 17, "track": 3, "qtime": 0, "isDrum": false}, {"time": 51, "velocity": 0, "pitch": 67, "instrument": 17, "track": 3, "qtime": 3, "isDrum": false}, {"time": 57, "velocity": 108, "pitch": 65, "instrument": 17, "track": 3, "qtime": 9, "isDrum": false}, {"time": 60, "velocity": 0, "pitch": 65, "instrument": 17, "track": 3, "qtime": 12, "isDrum": false}, {"time": 66, "velocity": 108, "pitch": 60, "instrument": 17, "track": 3, "qtime": 18, "isDrum": false}, {"time": 69, "velocity": 0, "pitch": 60, "instrument": 17, "track": 3, "qtime": 21, "isDrum": false}, {"time": 75, "velocity": 108, "pitch": 67, "instrument": 17, "track": 3, "qtime": 27, "isDrum": false}, {"time": 78, "velocity": 0, "pitch": 67, "instrument": 17, "track": 3, "qtime": 30, "isDrum": false}, {"time": 84, "velocity": 108, "pitch": 65, "instrument": 17, "track": 3, "qtime": 36, "isDrum": false}, {"time": 87, "velocity": 0, "pitch": 65, "instrument": 17, "track": 3, "qtime": 39, "isDrum": false}, {"time": 90, "velocity": 108, "pitch": 67, "instrument": 17, "track": 3, "qtime": 42, "isDrum": false}, {"time": 93, "velocity": 0, "pitch": 67, "instrument": 17, "track": 3, "qtime": 45, "isDrum": false}, {"time": 96, "velocity": 108, "pitch": 65, "instrument": 17, "track": 3, "qtime": 0, "isDrum": false}, {"time": 99, "velocity": 0, "pitch": 65, "instrument": 17, "track": 3, "qtime": 3, "isDrum": false}, {"time": 105, "velocity": 108, "pitch": 67, "instrument": 17, "track": 3, "qtime": 9, "isDrum": false}, {"time": 108, "velocity": 0, "pitch": 67, "instrument": 17, "track": 3, "qtime": 12, "isDrum": false}, {"time": 114, "velocity": 108, "pitch": 60, "instrument": 17, "track": 3, "qtime": 18, "isDrum": false}, {"time": 117, "velocity": 0, "pitch": 60, "instrument": 17, "track": 3, "qtime": 21, "isDrum": false}, {"time": 123, "velocity": 108, "pitch": 65, "instrument": 17, "track": 3, "qtime": 27, "isDrum": false}, {"time": 126, "velocity": 0, "pitch": 65, "instrument": 17, "track": 3, "qtime": 30, "isDrum": false}, {"time": 132, "velocity": 108, "pitch": 60, "instrument": 17, "track": 3, "qtime": 36, "isDrum": false}, {"time": 135, "velocity": 0, "pitch": 60, "instrument": 17, "track": 3, "qtime": 39, "isDrum": false}, {"time": 138, "velocity": 108, "pitch": 65, "instrument": 17, "track": 3, "qtime": 42, "isDrum": false}, {"time": 141, "velocity": 0, "pitch": 65, "instrument": 17, "track": 3, "qtime": 45, "isDrum": false}, {"time": 144, "velocity": 108, "pitch": 67, "instrument": 17, "track": 3, "qtime": 0, "isDrum": false}, {"time": 147, "velocity": 0, "pitch": 67, "instrument": 17, "track": 3, "qtime": 3, "isDrum": false}, {"time": 153, "velocity": 108, "pitch": 65, "instrument": 17, "track": 3, "qtime": 9, "isDrum": false}, {"time": 156, "velocity": 0, "pitch": 65, "instrument": 17, "track": 3, "qtime": 12, "isDrum": false}, {"time": 162, "velocity": 108, "pitch": 60, "instrument": 17, "track": 3, "qtime": 18, "isDrum": false}, {"time": 165, "velocity": 0, "pitch": 60, "instrument": 17, "track": 3, "qtime": 21, "isDrum": false}, {"time": 171, "velocity": 108, "pitch": 67, "instrument": 17, "track": 3, "qtime": 27, "isDrum": false}, {"time": 174, "velocity": 0, "pitch": 67, "instrument": 17, "track": 3, "qtime": 30, "isDrum": false}, {"time": 180, "velocity": 108, "pitch": 65, "instrument": 17, "track": 3, "qtime": 36, "isDrum": false}, {"time": 183, "velocity": 0, "pitch": 65, "instrument": 17, "track": 3, "qtime": 39, "isDrum": false}, {"time": 186, "velocity": 108, "pitch": 67, "instrument": 17, "track": 3, "qtime": 42, "isDrum": false}, {"time": 189, "velocity": 0, "pitch": 67, "instrument": 17, "track": 3, "qtime": 45, "isDrum": false}], "resolution": 12, "tempo": 75, "minPitch": 36, "maxPitch": 67, "validSegments": [0], "validTracks": [15]}, "audio": "https://www.sfu.ca/~jeffe/examples/stem_1_organ.mp3"}]}, {"title": "Controlling Note Density", "description": "[Redacted] allows for the note density (i.e. the number of note onsets) to be specified for each track. Here we resample the Piano track several times with different levels of density.", "examples": [{"src": "gen/8b_ex8_orig.json", "highlights": [[], [], [], []], "caption": "Original sample from dataset.", "sample_id": "19a", "mixer": [8, 8, 8, 9], "json": {"tracks": [{"bars": [{"events": [0, 1, 2, 3, 4, 5, 6, 7, 8], "isFourFour": true, "hasNotes": true, "time": 0, "beatLength": 4}, {"events": [9, 10, 11, 12, 13, 14, 15, 16, 17, 18, 19, 20, 21, 22, 23, 24, 25, 26, 27, 28, 29], "isFourFour": true, "hasNotes": true, "time": 48, "beatLength": 4}, {"events": [30, 31, 32, 33, 34, 35, 36, 37, 38, 39, 40, 41, 42, 43, 44, 45, 46], "isFourFour": true, "hasNotes": true, "time": 96, "beatLength": 4}, {"events": [47, 48, 49, 50, 51, 52, 53, 54, 55, 56], "isFourFour": true, "hasNotes": true, "time": 144, "beatLength": 4}, {"events": [57, 58, 59, 60, 61, 62, 63, 64, 65, 66, 67, 68, 69, 70, 71, 72, 73, 74], "isFourFour": true, "hasNotes": true, "time": 192, "beatLength": 4}, {"events": [75, 76, 77, 78, 79, 80, 81, 82, 83, 84, 85, 86, 87, 88, 89, 90, 91, 92, 93], "isFourFour": true, "hasNotes": true, "time": 240, "beatLength": 4}, {"events": [94, 95, 96, 97, 98, 99, 100, 101, 102], "isFourFour": true, "hasNotes": true, "time": 288, "beatLength": 4}, {"events": [103, 104, 105, 106, 107, 108, 109, 110, 111, 112, 113, 114, 115, 116, 117, 118, 119], "isFourFour": true, "hasNotes": true, "time": 336, "beatLength": 4}], "isDrum": false, "minPitch": 36, "maxPitch": 64, "instrument": 4, "avPolyphony": 3.66576076, "noteDensity": 9, "noteDensityV2": 5}, {"bars": [{"events": [120, 121, 122, 123, 124], "isFourFour": true, "hasNotes": true, "time": 0, "beatLength": 4}, {"events": [125, 126, 127, 128, 129, 130, 131, 132, 133, 134], "isFourFour": true, "hasNotes": true, "time": 48, "beatLength": 4}, {"events": [135, 136, 137, 138, 139, 140], "isFourFour": true, "hasNotes": true, "time": 96, "beatLength": 4}, {"events": [141, 142, 143, 144, 145, 146, 147, 148, 149], "isFourFour": true, "hasNotes": true, "time": 144, "beatLength": 4}, {"events": [150, 151, 152, 153, 154], "isFourFour": true, "hasNotes": true, "time": 192, "beatLength": 4}, {"events": [155, 156, 157, 158, 159, 160, 161, 162, 163, 164, 165, 166, 167], "isFourFour": true, "hasNotes": true, "time": 240, "beatLength": 4}, {"events": [168, 169, 170, 171, 172], "isFourFour": true, "hasNotes": true, "time": 288, "beatLength": 4}, {"events": [173, 174, 175, 176, 177, 178, 179, 180, 181], "isFourFour": true, "hasNotes": true, "time": 336, "beatLength": 4}], "isDrum": false, "minPitch": 31, "maxPitch": 45, "instrument": 33, "avPolyphony": 1.00677967, "noteDensity": 8, "noteDensityV2": 3}, {"bars": [{"events": [182, 183, 184, 185, 186, 187, 188, 189, 190, 191, 192, 193], "isFourFour": true, "hasNotes": true, "time": 0, "beatLength": 4}, {"events": [194, 195, 196, 197, 198, 199, 200, 201, 202, 203, 204, 205, 206, 207, 208, 209, 210, 211, 212], "isFourFour": true, "hasNotes": true, "time": 48, "beatLength": 4}, {"events": [213, 214, 215, 216, 217, 218, 219, 220, 221, 222, 223, 224, 225, 226, 227, 228, 229, 230, 231, 232, 233, 234, 235, 236], "isFourFour": true, "hasNotes": true, "time": 96, "beatLength": 4}, {"events": [237, 238, 239, 240, 241, 242, 243, 244, 245, 246, 247, 248, 249, 250, 251], "isFourFour": true, "hasNotes": true, "time": 144, "beatLength": 4}, {"events": [252, 253, 254, 255, 256, 257, 258, 259, 260, 261, 262, 263, 264, 265, 266], "isFourFour": true, "hasNotes": true, "time": 192, "beatLength": 4}, {"events": [267, 268, 269, 270, 271, 272, 273, 274, 275, 276, 277, 278, 279, 280, 281, 282, 283, 284, 285, 286, 287, 288], "isFourFour": true, "hasNotes": true, "time": 240, "beatLength": 4}, {"events": [289, 290, 291, 292, 293, 294, 295, 296, 297, 298, 299, 300, 301, 302, 303, 304, 305, 306, 307, 308, 309, 310], "isFourFour": true, "hasNotes": true, "time": 288, "beatLength": 4}, {"events": [311, 312, 313, 314, 315, 316, 317, 318, 319], "isFourFour": true, "hasNotes": true, "time": 336, "beatLength": 4}], "isDrum": false, "minPitch": 45, "maxPitch": 67, "instrument": 24, "avPolyphony": 4.01566601, "noteDensity": 9, "noteDensityV2": 5}, {"bars": [{"events": [320, 321, 322, 323, 324, 325, 326, 327, 328, 329, 330, 331, 332, 333, 334, 335, 336, 337, 338, 339, 340, 341, 342, 343, 344, 345, 346, 347, 348, 349, 350, 351, 352, 353, 354, 355], "isFourFour": true, "hasNotes": true, "time": 0, "beatLength": 4}, {"events": [356, 357, 358, 359, 360, 361, 362, 363, 364, 365, 366, 367, 368, 369, 370, 371, 372, 373, 374, 375, 376, 377, 378, 379, 380, 381, 382, 383, 384, 385, 386, 387, 388, 389, 390, 391, 392, 393], "isFourFour": true, "hasNotes": true, "time": 48, "beatLength": 4}, {"events": [394, 395, 396, 397, 398, 399, 400, 401, 402, 403, 404, 405, 406, 407, 408, 409, 410, 411, 412, 413, 414, 415, 416, 417, 418, 419, 420, 421, 422, 423, 424, 425], "isFourFour": true, "hasNotes": true, "time": 96, "beatLength": 4}, {"events": [426, 427, 428, 429, 430, 431, 432, 433, 434, 435, 436, 437, 438, 439, 440, 441, 442, 443, 444, 445, 446, 447, 448, 449, 450, 451, 452, 453, 454, 455, 456, 457, 458, 459, 460, 461, 462, 463], "isFourFour": true, "hasNotes": true, "time": 144, "beatLength": 4}, {"events": [464, 465, 466, 467, 468, 469, 470, 471, 472, 473, 474, 475, 476, 477, 478, 479, 480, 481, 482, 483, 484, 485, 486, 487, 488, 489, 490, 491, 492, 493, 494, 495, 496, 497, 498, 499], "isFourFour": true, "hasNotes": true, "time": 192, "beatLength": 4}, {"events": [500, 501, 502, 503, 504, 505, 506, 507, 508, 509, 510, 511, 512, 513, 514, 515, 516, 517, 518, 519, 520, 521, 522, 523, 524, 525, 526, 527, 528, 529, 530, 531, 532, 533, 534, 535, 536, 537, 538, 539, 540, 541, 542, 543], "isFourFour": true, "hasNotes": true, "time": 240, "beatLength": 4}, {"events": [544, 545, 546, 547, 548, 549, 550, 551, 552, 553, 554, 555, 556, 557, 558, 559, 560, 561, 562, 563, 564, 565, 566, 567, 568, 569, 570, 571, 572, 573, 574, 575, 576, 577, 578, 579, 580, 581, 582, 583], "isFourFour": true, "hasNotes": true, "time": 288, "beatLength": 4}, {"events": [584, 585, 586, 587, 588, 589, 590, 591, 592, 593, 594, 595, 596, 597, 598, 599, 600, 601, 602, 603, 604, 605, 606, 607, 608, 609, 610, 611, 612, 613, 614, 615, 616, 617, 618, 619, 620, 621], "isFourFour": true, "hasNotes": true, "time": 336, "beatLength": 4}], "isDrum": true, "minPitch": 35, "maxPitch": 63, "instrument": 0, "avPolyphony": 2.15942025, "noteDensity": 9, "noteDensityV2": 8}], "events": [{"time": 0, "velocity": 108, "pitch": 45, "instrument": 4, "track": 0, "qtime": 0, "bar": 0, "isDrum": false}, {"time": 0, "velocity": 108, "pitch": 55, "instrument": 4, "track": 0, "qtime": 0, "bar": 0, "isDrum": false}, {"time": 0, "velocity": 108, "pitch": 59, "instrument": 4, "track": 0, "qtime": 0, "bar": 0, "isDrum": false}, {"time": 0, "velocity": 108, "pitch": 60, "instrument": 4, "track": 0, "qtime": 0, "bar": 0, "isDrum": false}, {"time": 0, "velocity": 108, "pitch": 64, "instrument": 4, "track": 0, "qtime": 0, "bar": 0, "isDrum": false}, {"time": 44, "velocity": 0, "pitch": 55, "instrument": 4, "track": 0, "qtime": 44, "bar": 0, "isDrum": false}, {"time": 44, "velocity": 0, "pitch": 59, "instrument": 4, "track": 0, "qtime": 44, "bar": 0, "isDrum": false}, {"time": 44, "velocity": 0, "pitch": 60, "instrument": 4, "track": 0, "qtime": 44, "bar": 0, "isDrum": false}, {"time": 44, "velocity": 0, "pitch": 64, "instrument": 4, "track": 0, "qtime": 44, "bar": 0, "isDrum": false}, {"time": 48, "velocity": 108, "pitch": 55, "instrument": 4, "track": 0, "qtime": 0, "bar": 1, "isDrum": false}, {"time": 48, "velocity": 108, "pitch": 59, "instrument": 4, "track": 0, "qtime": 0, "bar": 1, "isDrum": false}, {"time": 48, "velocity": 108, "pitch": 60, "instrument": 4, "track": 0, "qtime": 0, "bar": 1, "isDrum": false}, {"time": 48, "velocity": 108, "pitch": 64, "instrument": 4, "track": 0, "qtime": 0, "bar": 1, "isDrum": false}, {"time": 49, "velocity": 0, "pitch": 59, "instrument": 4, "track": 0, "qtime": 1, "bar": 1, "isDrum": false}, {"time": 49, "velocity": 0, "pitch": 60, "instrument": 4, "track": 0, "qtime": 1, "bar": 1, "isDrum": false}, {"time": 50, "velocity": 0, "pitch": 55, "instrument": 4, "track": 0, "qtime": 2, "bar": 1, "isDrum": false}, {"time": 50, "velocity": 0, "pitch": 64, "instrument": 4, "track": 0, "qtime": 2, "bar": 1, "isDrum": false}, {"time": 66, "velocity": 108, "pitch": 55, "instrument": 4, "track": 0, "qtime": 18, "bar": 1, "isDrum": false}, {"time": 66, "velocity": 108, "pitch": 59, "instrument": 4, "track": 0, "qtime": 18, "bar": 1, "isDrum": false}, {"time": 66, "velocity": 108, "pitch": 60, "instrument": 4, "track": 0, "qtime": 18, "bar": 1, "isDrum": false}, {"time": 66, "velocity": 108, "pitch": 64, "instrument": 4, "track": 0, "qtime": 18, "bar": 1, "isDrum": false}, {"time": 78, "velocity": 0, "pitch": 59, "instrument": 4, "track": 0, "qtime": 30, "bar": 1, "isDrum": false}, {"time": 78, "velocity": 108, "pitch": 57, "instrument": 4, "track": 0, "qtime": 30, "bar": 1, "isDrum": false}, {"time": 79, "velocity": 0, "pitch": 55, "instrument": 4, "track": 0, "qtime": 31, "bar": 1, "isDrum": false}, {"time": 79, "velocity": 0, "pitch": 60, "instrument": 4, "track": 0, "qtime": 31, "bar": 1, "isDrum": false}, {"time": 79, "velocity": 0, "pitch": 64, "instrument": 4, "track": 0, "qtime": 31, "bar": 1, "isDrum": false}, {"time": 80, "velocity": 0, "pitch": 57, "instrument": 4, "track": 0, "qtime": 32, "bar": 1, "isDrum": false}, {"time": 84, "velocity": 108, "pitch": 43, "instrument": 4, "track": 0, "qtime": 36, "bar": 1, "isDrum": false}, {"time": 85, "velocity": 0, "pitch": 45, "instrument": 4, "track": 0, "qtime": 37, "bar": 1, "isDrum": false}, {"time": 96, "velocity": 0, "pitch": 43, "instrument": 4, "track": 0, "qtime": 48, "bar": 1, "isDrum": false}, {"time": 96, "velocity": 108, "pitch": 36, "instrument": 4, "track": 0, "qtime": 0, "bar": 2, "isDrum": false}, {"time": 96, "velocity": 108, "pitch": 52, "instrument": 4, "track": 0, "qtime": 0, "bar": 2, "isDrum": false}, {"time": 96, "velocity": 108, "pitch": 55, "instrument": 4, "track": 0, "qtime": 0, "bar": 2, "isDrum": false}, {"time": 96, "velocity": 108, "pitch": 59, "instrument": 4, "track": 0, "qtime": 0, "bar": 2, "isDrum": false}, {"time": 96, "velocity": 108, "pitch": 62, "instrument": 4, "track": 0, "qtime": 0, "bar": 2, "isDrum": false}, {"time": 131, "velocity": 0, "pitch": 62, "instrument": 4, "track": 0, "qtime": 35, "bar": 2, "isDrum": false}, {"time": 132, "velocity": 0, "pitch": 59, "instrument": 4, "track": 0, "qtime": 36, "bar": 2, "isDrum": false}, {"time": 133, "velocity": 0, "pitch": 52, "instrument": 4, "track": 0, "qtime": 37, "bar": 2, "isDrum": false}, {"time": 133, "velocity": 0, "pitch": 55, "instrument": 4, "track": 0, "qtime": 37, "bar": 2, "isDrum": false}, {"time": 138, "velocity": 108, "pitch": 52, "instrument": 4, "track": 0, "qtime": 42, "bar": 2, "isDrum": false}, {"time": 138, "velocity": 108, "pitch": 55, "instrument": 4, "track": 0, "qtime": 42, "bar": 2, "isDrum": false}, {"time": 138, "velocity": 108, "pitch": 59, "instrument": 4, "track": 0, "qtime": 42, "bar": 2, "isDrum": false}, {"time": 138, "velocity": 108, "pitch": 60, "instrument": 4, "track": 0, "qtime": 42, "bar": 2, "isDrum": false}, {"time": 139, "velocity": 0, "pitch": 52, "instrument": 4, "track": 0, "qtime": 43, "bar": 2, "isDrum": false}, {"time": 139, "velocity": 0, "pitch": 55, "instrument": 4, "track": 0, "qtime": 43, "bar": 2, "isDrum": false}, {"time": 139, "velocity": 0, "pitch": 59, "instrument": 4, "track": 0, "qtime": 43, "bar": 2, "isDrum": false}, {"time": 140, "velocity": 0, "pitch": 60, "instrument": 4, "track": 0, "qtime": 44, "bar": 2, "isDrum": false}, {"time": 153, "velocity": 108, "pitch": 52, "instrument": 4, "track": 0, "qtime": 9, "bar": 3, "isDrum": false}, {"time": 162, "velocity": 108, "pitch": 55, "instrument": 4, "track": 0, "qtime": 18, "bar": 3, "isDrum": false}, {"time": 162, "velocity": 108, "pitch": 60, "instrument": 4, "track": 0, "qtime": 18, "bar": 3, "isDrum": false}, {"time": 172, "velocity": 0, "pitch": 52, "instrument": 4, "track": 0, "qtime": 28, "bar": 3, "isDrum": false}, {"time": 174, "velocity": 108, "pitch": 52, "instrument": 4, "track": 0, "qtime": 30, "bar": 3, "isDrum": false}, {"time": 180, "velocity": 0, "pitch": 55, "instrument": 4, "track": 0, "qtime": 36, "bar": 3, "isDrum": false}, {"time": 180, "velocity": 108, "pitch": 43, "instrument": 4, "track": 0, "qtime": 36, "bar": 3, "isDrum": false}, {"time": 181, "velocity": 0, "pitch": 52, "instrument": 4, "track": 0, "qtime": 37, "bar": 3, "isDrum": false}, {"time": 181, "velocity": 0, "pitch": 60, "instrument": 4, "track": 0, "qtime": 37, "bar": 3, "isDrum": false}, {"time": 182, "velocity": 0, "pitch": 36, "instrument": 4, "track": 0, "qtime": 38, "bar": 3, "isDrum": false}, {"time": 192, "velocity": 108, "pitch": 45, "instrument": 4, "track": 0, "qtime": 0, "bar": 4, "isDrum": false}, {"time": 192, "velocity": 108, "pitch": 55, "instrument": 4, "track": 0, "qtime": 0, "bar": 4, "isDrum": false}, {"time": 192, "velocity": 108, "pitch": 57, "instrument": 4, "track": 0, "qtime": 0, "bar": 4, "isDrum": false}, {"time": 192, "velocity": 108, "pitch": 60, "instrument": 4, "track": 0, "qtime": 0, "bar": 4, "isDrum": false}, {"time": 192, "velocity": 108, "pitch": 64, "instrument": 4, "track": 0, "qtime": 0, "bar": 4, "isDrum": false}, {"time": 193, "velocity": 0, "pitch": 43, "instrument": 4, "track": 0, "qtime": 1, "bar": 4, "isDrum": false}, {"time": 230, "velocity": 0, "pitch": 55, "instrument": 4, "track": 0, "qtime": 38, "bar": 4, "isDrum": false}, {"time": 230, "velocity": 0, "pitch": 57, "instrument": 4, "track": 0, "qtime": 38, "bar": 4, "isDrum": false}, {"time": 230, "velocity": 0, "pitch": 60, "instrument": 4, "track": 0, "qtime": 38, "bar": 4, "isDrum": false}, {"time": 230, "velocity": 0, "pitch": 64, "instrument": 4, "track": 0, "qtime": 38, "bar": 4, "isDrum": false}, {"time": 234, "velocity": 108, "pitch": 55, "instrument": 4, "track": 0, "qtime": 42, "bar": 4, "isDrum": false}, {"time": 234, "velocity": 108, "pitch": 57, "instrument": 4, "track": 0, "qtime": 42, "bar": 4, "isDrum": false}, {"time": 234, "velocity": 108, "pitch": 60, "instrument": 4, "track": 0, "qtime": 42, "bar": 4, "isDrum": false}, {"time": 234, "velocity": 108, "pitch": 64, "instrument": 4, "track": 0, "qtime": 42, "bar": 4, "isDrum": false}, {"time": 235, "velocity": 0, "pitch": 57, "instrument": 4, "track": 0, "qtime": 43, "bar": 4, "isDrum": false}, {"time": 235, "velocity": 0, "pitch": 60, "instrument": 4, "track": 0, "qtime": 43, "bar": 4, "isDrum": false}, {"time": 235, "velocity": 0, "pitch": 64, "instrument": 4, "track": 0, "qtime": 43, "bar": 4, "isDrum": false}, {"time": 236, "velocity": 0, "pitch": 55, "instrument": 4, "track": 0, "qtime": 44, "bar": 4, "isDrum": false}, {"time": 246, "velocity": 108, "pitch": 55, "instrument": 4, "track": 0, "qtime": 6, "bar": 5, "isDrum": false}, {"time": 246, "velocity": 108, "pitch": 57, "instrument": 4, "track": 0, "qtime": 6, "bar": 5, "isDrum": false}, {"time": 246, "velocity": 108, "pitch": 60, "instrument": 4, "track": 0, "qtime": 6, "bar": 5, "isDrum": false}, {"time": 246, "velocity": 108, "pitch": 64, "instrument": 4, "track": 0, "qtime": 6, "bar": 5, "isDrum": false}, {"time": 256, "velocity": 0, "pitch": 64, "instrument": 4, "track": 0, "qtime": 16, "bar": 5, "isDrum": false}, {"time": 257, "velocity": 0, "pitch": 55, "instrument": 4, "track": 0, "qtime": 17, "bar": 5, "isDrum": false}, {"time": 257, "velocity": 0, "pitch": 57, "instrument": 4, "track": 0, "qtime": 17, "bar": 5, "isDrum": false}, {"time": 257, "velocity": 0, "pitch": 60, "instrument": 4, "track": 0, "qtime": 17, "bar": 5, "isDrum": false}, {"time": 258, "velocity": 108, "pitch": 55, "instrument": 4, "track": 0, "qtime": 18, "bar": 5, "isDrum": false}, {"time": 258, "velocity": 108, "pitch": 59, "instrument": 4, "track": 0, "qtime": 18, "bar": 5, "isDrum": false}, {"time": 258, "velocity": 108, "pitch": 60, "instrument": 4, "track": 0, "qtime": 18, "bar": 5, "isDrum": false}, {"time": 258, "velocity": 108, "pitch": 64, "instrument": 4, "track": 0, "qtime": 18, "bar": 5, "isDrum": false}, {"time": 276, "velocity": 0, "pitch": 59, "instrument": 4, "track": 0, "qtime": 36, "bar": 5, "isDrum": false}, {"time": 276, "velocity": 108, "pitch": 57, "instrument": 4, "track": 0, "qtime": 36, "bar": 5, "isDrum": false}, {"time": 277, "velocity": 0, "pitch": 64, "instrument": 4, "track": 0, "qtime": 37, "bar": 5, "isDrum": false}, {"time": 278, "velocity": 0, "pitch": 55, "instrument": 4, "track": 0, "qtime": 38, "bar": 5, "isDrum": false}, {"time": 278, "velocity": 0, "pitch": 60, "instrument": 4, "track": 0, "qtime": 38, "bar": 5, "isDrum": false}, {"time": 279, "velocity": 0, "pitch": 57, "instrument": 4, "track": 0, "qtime": 39, "bar": 5, "isDrum": false}, {"time": 282, "velocity": 0, "pitch": 45, "instrument": 4, "track": 0, "qtime": 42, "bar": 5, "isDrum": false}, {"time": 288, "velocity": 108, "pitch": 36, "instrument": 4, "track": 0, "qtime": 0, "bar": 6, "isDrum": false}, {"time": 288, "velocity": 108, "pitch": 52, "instrument": 4, "track": 0, "qtime": 0, "bar": 6, "isDrum": false}, {"time": 288, "velocity": 108, "pitch": 55, "instrument": 4, "track": 0, "qtime": 0, "bar": 6, "isDrum": false}, {"time": 288, "velocity": 108, "pitch": 57, "instrument": 4, "track": 0, "qtime": 0, "bar": 6, "isDrum": false}, {"time": 288, "velocity": 108, "pitch": 60, "instrument": 4, "track": 0, "qtime": 0, "bar": 6, "isDrum": false}, {"time": 333, "velocity": 0, "pitch": 52, "instrument": 4, "track": 0, "qtime": 45, "bar": 6, "isDrum": false}, {"time": 333, "velocity": 0, "pitch": 57, "instrument": 4, "track": 0, "qtime": 45, "bar": 6, "isDrum": false}, {"time": 333, "velocity": 0, "pitch": 60, "instrument": 4, "track": 0, "qtime": 45, "bar": 6, "isDrum": false}, {"time": 334, "velocity": 0, "pitch": 55, "instrument": 4, "track": 0, "qtime": 46, "bar": 6, "isDrum": false}, {"time": 336, "velocity": 108, "pitch": 52, "instrument": 4, "track": 0, "qtime": 0, "bar": 7, "isDrum": false}, {"time": 336, "velocity": 108, "pitch": 55, "instrument": 4, "track": 0, "qtime": 0, "bar": 7, "isDrum": false}, {"time": 336, "velocity": 108, "pitch": 57, "instrument": 4, "track": 0, "qtime": 0, "bar": 7, "isDrum": false}, {"time": 336, "velocity": 108, "pitch": 60, "instrument": 4, "track": 0, "qtime": 0, "bar": 7, "isDrum": false}, {"time": 337, "velocity": 0, "pitch": 52, "instrument": 4, "track": 0, "qtime": 1, "bar": 7, "isDrum": false}, {"time": 337, "velocity": 0, "pitch": 55, "instrument": 4, "track": 0, "qtime": 1, "bar": 7, "isDrum": false}, {"time": 337, "velocity": 0, "pitch": 57, "instrument": 4, "track": 0, "qtime": 1, "bar": 7, "isDrum": false}, {"time": 337, "velocity": 0, "pitch": 60, "instrument": 4, "track": 0, "qtime": 1, "bar": 7, "isDrum": false}, {"time": 354, "velocity": 108, "pitch": 52, "instrument": 4, "track": 0, "qtime": 18, "bar": 7, "isDrum": false}, {"time": 354, "velocity": 108, "pitch": 57, "instrument": 4, "track": 0, "qtime": 18, "bar": 7, "isDrum": false}, {"time": 354, "velocity": 108, "pitch": 60, "instrument": 4, "track": 0, "qtime": 18, "bar": 7, "isDrum": false}, {"time": 366, "velocity": 108, "pitch": 55, "instrument": 4, "track": 0, "qtime": 30, "bar": 7, "isDrum": false}, {"time": 372, "velocity": 0, "pitch": 36, "instrument": 4, "track": 0, "qtime": 36, "bar": 7, "isDrum": false}, {"time": 372, "velocity": 0, "pitch": 52, "instrument": 4, "track": 0, "qtime": 36, "bar": 7, "isDrum": false}, {"time": 374, "velocity": 0, "pitch": 55, "instrument": 4, "track": 0, "qtime": 38, "bar": 7, "isDrum": false}, {"time": 374, "velocity": 0, "pitch": 57, "instrument": 4, "track": 0, "qtime": 38, "bar": 7, "isDrum": false}, {"time": 374, "velocity": 0, "pitch": 60, "instrument": 4, "track": 0, "qtime": 38, "bar": 7, "isDrum": false}, {"time": 0, "velocity": 108, "pitch": 33, "instrument": 33, "track": 1, "qtime": 0, "bar": 0, "isDrum": false}, {"time": 16, "velocity": 0, "pitch": 33, "instrument": 33, "track": 1, "qtime": 16, "bar": 0, "isDrum": false}, {"time": 18, "velocity": 108, "pitch": 33, "instrument": 33, "track": 1, "qtime": 18, "bar": 0, "isDrum": false}, {"time": 28, "velocity": 0, "pitch": 33, "instrument": 33, "track": 1, "qtime": 28, "bar": 0, "isDrum": false}, {"time": 36, "velocity": 108, "pitch": 33, "instrument": 33, "track": 1, "qtime": 36, "bar": 0, "isDrum": false}, {"time": 50, "velocity": 0, "pitch": 33, "instrument": 33, "track": 1, "qtime": 2, "bar": 1, "isDrum": false}, {"time": 54, "velocity": 108, "pitch": 33, "instrument": 33, "track": 1, "qtime": 6, "bar": 1, "isDrum": false}, {"time": 65, "velocity": 0, "pitch": 33, "instrument": 33, "track": 1, "qtime": 17, "bar": 1, "isDrum": false}, {"time": 66, "velocity": 108, "pitch": 33, "instrument": 33, "track": 1, "qtime": 18, "bar": 1, "isDrum": false}, {"time": 68, "velocity": 0, "pitch": 33, "instrument": 33, "track": 1, "qtime": 20, "bar": 1, "isDrum": false}, {"time": 72, "velocity": 108, "pitch": 33, "instrument": 33, "track": 1, "qtime": 24, "bar": 1, "isDrum": false}, {"time": 82, "velocity": 0, "pitch": 33, "instrument": 33, "track": 1, "qtime": 34, "bar": 1, "isDrum": false}, {"time": 84, "velocity": 108, "pitch": 33, "instrument": 33, "track": 1, "qtime": 36, "bar": 1, "isDrum": false}, {"time": 90, "velocity": 0, "pitch": 33, "instrument": 33, "track": 1, "qtime": 42, "bar": 1, "isDrum": false}, {"time": 90, "velocity": 108, "pitch": 31, "instrument": 33, "track": 1, "qtime": 42, "bar": 1, "isDrum": false}, {"time": 96, "velocity": 108, "pitch": 36, "instrument": 33, "track": 1, "qtime": 0, "bar": 2, "isDrum": false}, {"time": 97, "velocity": 0, "pitch": 31, "instrument": 33, "track": 1, "qtime": 1, "bar": 2, "isDrum": false}, {"time": 110, "velocity": 0, "pitch": 36, "instrument": 33, "track": 1, "qtime": 14, "bar": 2, "isDrum": false}, {"time": 114, "velocity": 108, "pitch": 36, "instrument": 33, "track": 1, "qtime": 18, "bar": 2, "isDrum": false}, {"time": 124, "velocity": 0, "pitch": 36, "instrument": 33, "track": 1, "qtime": 28, "bar": 2, "isDrum": false}, {"time": 132, "velocity": 108, "pitch": 36, "instrument": 33, "track": 1, "qtime": 36, "bar": 2, "isDrum": false}, {"time": 147, "velocity": 0, "pitch": 36, "instrument": 33, "track": 1, "qtime": 3, "bar": 3, "isDrum": false}, {"time": 150, "velocity": 108, "pitch": 36, "instrument": 33, "track": 1, "qtime": 6, "bar": 3, "isDrum": false}, {"time": 161, "velocity": 0, "pitch": 36, "instrument": 33, "track": 1, "qtime": 17, "bar": 3, "isDrum": false}, {"time": 168, "velocity": 108, "pitch": 36, "instrument": 33, "track": 1, "qtime": 24, "bar": 3, "isDrum": false}, {"time": 180, "velocity": 0, "pitch": 36, "instrument": 33, "track": 1, "qtime": 36, "bar": 3, "isDrum": false}, {"time": 180, "velocity": 108, "pitch": 31, "instrument": 33, "track": 1, "qtime": 36, "bar": 3, "isDrum": false}, {"time": 186, "velocity": 0, "pitch": 31, "instrument": 33, "track": 1, "qtime": 42, "bar": 3, "isDrum": false}, {"time": 186, "velocity": 108, "pitch": 32, "instrument": 33, "track": 1, "qtime": 42, "bar": 3, "isDrum": false}, {"time": 192, "velocity": 0, "pitch": 32, "instrument": 33, "track": 1, "qtime": 48, "bar": 3, "isDrum": false}, {"time": 192, "velocity": 108, "pitch": 33, "instrument": 33, "track": 1, "qtime": 0, "bar": 4, "isDrum": false}, {"time": 208, "velocity": 0, "pitch": 33, "instrument": 33, "track": 1, "qtime": 16, "bar": 4, "isDrum": false}, {"time": 210, "velocity": 108, "pitch": 33, "instrument": 33, "track": 1, "qtime": 18, "bar": 4, "isDrum": false}, {"time": 218, "velocity": 0, "pitch": 33, "instrument": 33, "track": 1, "qtime": 26, "bar": 4, "isDrum": false}, {"time": 228, "velocity": 108, "pitch": 33, "instrument": 33, "track": 1, "qtime": 36, "bar": 4, "isDrum": false}, {"time": 245, "velocity": 0, "pitch": 33, "instrument": 33, "track": 1, "qtime": 5, "bar": 5, "isDrum": false}, {"time": 246, "velocity": 108, "pitch": 33, "instrument": 33, "track": 1, "qtime": 6, "bar": 5, "isDrum": false}, {"time": 256, "velocity": 0, "pitch": 33, "instrument": 33, "track": 1, "qtime": 16, "bar": 5, "isDrum": false}, {"time": 258, "velocity": 108, "pitch": 33, "instrument": 33, "track": 1, "qtime": 18, "bar": 5, "isDrum": false}, {"time": 262, "velocity": 0, "pitch": 33, "instrument": 33, "track": 1, "qtime": 22, "bar": 5, "isDrum": false}, {"time": 264, "velocity": 108, "pitch": 33, "instrument": 33, "track": 1, "qtime": 24, "bar": 5, "isDrum": false}, {"time": 270, "velocity": 0, "pitch": 33, "instrument": 33, "track": 1, "qtime": 30, "bar": 5, "isDrum": false}, {"time": 270, "velocity": 108, "pitch": 40, "instrument": 33, "track": 1, "qtime": 30, "bar": 5, "isDrum": false}, {"time": 273, "velocity": 0, "pitch": 40, "instrument": 33, "track": 1, "qtime": 33, "bar": 5, "isDrum": false}, {"time": 276, "velocity": 108, "pitch": 43, "instrument": 33, "track": 1, "qtime": 36, "bar": 5, "isDrum": false}, {"time": 276, "velocity": 108, "pitch": 45, "instrument": 33, "track": 1, "qtime": 36, "bar": 5, "isDrum": false}, {"time": 277, "velocity": 0, "pitch": 43, "instrument": 33, "track": 1, "qtime": 37, "bar": 5, "isDrum": false}, {"time": 285, "velocity": 0, "pitch": 45, "instrument": 33, "track": 1, "qtime": 45, "bar": 5, "isDrum": false}, {"time": 288, "velocity": 108, "pitch": 36, "instrument": 33, "track": 1, "qtime": 0, "bar": 6, "isDrum": false}, {"time": 303, "velocity": 0, "pitch": 36, "instrument": 33, "track": 1, "qtime": 15, "bar": 6, "isDrum": false}, {"time": 306, "velocity": 108, "pitch": 36, "instrument": 33, "track": 1, "qtime": 18, "bar": 6, "isDrum": false}, {"time": 315, "velocity": 0, "pitch": 36, "instrument": 33, "track": 1, "qtime": 27, "bar": 6, "isDrum": false}, {"time": 324, "velocity": 108, "pitch": 36, "instrument": 33, "track": 1, "qtime": 36, "bar": 6, "isDrum": false}, {"time": 339, "velocity": 0, "pitch": 36, "instrument": 33, "track": 1, "qtime": 3, "bar": 7, "isDrum": false}, {"time": 342, "velocity": 108, "pitch": 36, "instrument": 33, "track": 1, "qtime": 6, "bar": 7, "isDrum": false}, {"time": 353, "velocity": 0, "pitch": 36, "instrument": 33, "track": 1, "qtime": 17, "bar": 7, "isDrum": false}, {"time": 360, "velocity": 108, "pitch": 36, "instrument": 33, "track": 1, "qtime": 24, "bar": 7, "isDrum": false}, {"time": 371, "velocity": 0, "pitch": 36, "instrument": 33, "track": 1, "qtime": 35, "bar": 7, "isDrum": false}, {"time": 372, "velocity": 108, "pitch": 31, "instrument": 33, "track": 1, "qtime": 36, "bar": 7, "isDrum": false}, {"time": 378, "velocity": 0, "pitch": 31, "instrument": 33, "track": 1, "qtime": 42, "bar": 7, "isDrum": false}, {"time": 378, "velocity": 108, "pitch": 32, "instrument": 33, "track": 1, "qtime": 42, "bar": 7, "isDrum": false}, {"time": 384, "velocity": 0, "pitch": 32, "instrument": 33, "track": 1, "qtime": 48, "bar": 7, "isDrum": false}, {"time": 0, "velocity": 108, "pitch": 45, "instrument": 24, "track": 2, "qtime": 0, "bar": 0, "isDrum": false}, {"time": 6, "velocity": 108, "pitch": 57, "instrument": 24, "track": 2, "qtime": 6, "bar": 0, "isDrum": false}, {"time": 12, "velocity": 108, "pitch": 60, "instrument": 24, "track": 2, "qtime": 12, "bar": 0, "isDrum": false}, {"time": 18, "velocity": 108, "pitch": 62, "instrument": 24, "track": 2, "qtime": 18, "bar": 0, "isDrum": false}, {"time": 18, "velocity": 108, "pitch": 67, "instrument": 24, "track": 2, "qtime": 18, "bar": 0, "isDrum": false}, {"time": 26, "velocity": 0, "pitch": 57, "instrument": 24, "track": 2, "qtime": 26, "bar": 0, "isDrum": false}, {"time": 30, "velocity": 0, "pitch": 60, "instrument": 24, "track": 2, "qtime": 30, "bar": 0, "isDrum": false}, {"time": 30, "velocity": 108, "pitch": 57, "instrument": 24, "track": 2, "qtime": 30, "bar": 0, "isDrum": false}, {"time": 36, "velocity": 108, "pitch": 60, "instrument": 24, "track": 2, "qtime": 36, "bar": 0, "isDrum": false}, {"time": 38, "velocity": 0, "pitch": 67, "instrument": 24, "track": 2, "qtime": 38, "bar": 0, "isDrum": false}, {"time": 42, "velocity": 108, "pitch": 67, "instrument": 24, "track": 2, "qtime": 42, "bar": 0, "isDrum": false}, {"time": 45, "velocity": 0, "pitch": 45, "instrument": 24, "track": 2, "qtime": 45, "bar": 0, "isDrum": false}, {"time": 48, "velocity": 108, "pitch": 45, "instrument": 24, "track": 2, "qtime": 0, "bar": 1, "isDrum": false}, {"time": 49, "velocity": 0, "pitch": 57, "instrument": 24, "track": 2, "qtime": 1, "bar": 1, "isDrum": false}, {"time": 54, "velocity": 108, "pitch": 57, "instrument": 24, "track": 2, "qtime": 6, "bar": 1, "isDrum": false}, {"time": 55, "velocity": 0, "pitch": 60, "instrument": 24, "track": 2, "qtime": 7, "bar": 1, "isDrum": false}, {"time": 60, "velocity": 108, "pitch": 60, "instrument": 24, "track": 2, "qtime": 12, "bar": 1, "isDrum": false}, {"time": 62, "velocity": 0, "pitch": 67, "instrument": 24, "track": 2, "qtime": 14, "bar": 1, "isDrum": false}, {"time": 65, "velocity": 0, "pitch": 62, "instrument": 24, "track": 2, "qtime": 17, "bar": 1, "isDrum": false}, {"time": 66, "velocity": 108, "pitch": 62, "instrument": 24, "track": 2, "qtime": 18, "bar": 1, "isDrum": false}, {"time": 66, "velocity": 108, "pitch": 67, "instrument": 24, "track": 2, "qtime": 18, "bar": 1, "isDrum": false}, {"time": 70, "velocity": 0, "pitch": 45, "instrument": 24, "track": 2, "qtime": 22, "bar": 1, "isDrum": false}, {"time": 72, "velocity": 108, "pitch": 45, "instrument": 24, "track": 2, "qtime": 24, "bar": 1, "isDrum": false}, {"time": 74, "velocity": 0, "pitch": 57, "instrument": 24, "track": 2, "qtime": 26, "bar": 1, "isDrum": false}, {"time": 75, "velocity": 0, "pitch": 62, "instrument": 24, "track": 2, "qtime": 27, "bar": 1, "isDrum": false}, {"time": 78, "velocity": 0, "pitch": 60, "instrument": 24, "track": 2, "qtime": 30, "bar": 1, "isDrum": false}, {"time": 78, "velocity": 108, "pitch": 57, "instrument": 24, "track": 2, "qtime": 30, "bar": 1, "isDrum": false}, {"time": 78, "velocity": 108, "pitch": 64, "instrument": 24, "track": 2, "qtime": 30, "bar": 1, "isDrum": false}, {"time": 84, "velocity": 108, "pitch": 62, "instrument": 24, "track": 2, "qtime": 36, "bar": 1, "isDrum": false}, {"time": 90, "velocity": 108, "pitch": 60, "instrument": 24, "track": 2, "qtime": 42, "bar": 1, "isDrum": false}, {"time": 95, "velocity": 0, "pitch": 45, "instrument": 24, "track": 2, "qtime": 47, "bar": 1, "isDrum": false}, {"time": 96, "velocity": 108, "pitch": 48, "instrument": 24, "track": 2, "qtime": 0, "bar": 2, "isDrum": false}, {"time": 97, "velocity": 0, "pitch": 57, "instrument": 24, "track": 2, "qtime": 1, "bar": 2, "isDrum": false}, {"time": 100, "velocity": 0, "pitch": 62, "instrument": 24, "track": 2, "qtime": 4, "bar": 2, "isDrum": false}, {"time": 102, "velocity": 108, "pitch": 55, "instrument": 24, "track": 2, "qtime": 6, "bar": 2, "isDrum": false}, {"time": 104, "velocity": 0, "pitch": 60, "instrument": 24, "track": 2, "qtime": 8, "bar": 2, "isDrum": false}, {"time": 108, "velocity": 108, "pitch": 60, "instrument": 24, "track": 2, "qtime": 12, "bar": 2, "isDrum": false}, {"time": 110, "velocity": 0, "pitch": 55, "instrument": 24, "track": 2, "qtime": 14, "bar": 2, "isDrum": false}, {"time": 112, "velocity": 0, "pitch": 67, "instrument": 24, "track": 2, "qtime": 16, "bar": 2, "isDrum": false}, {"time": 113, "velocity": 0, "pitch": 60, "instrument": 24, "track": 2, "qtime": 17, "bar": 2, "isDrum": false}, {"time": 113, "velocity": 0, "pitch": 64, "instrument": 24, "track": 2, "qtime": 17, "bar": 2, "isDrum": false}, {"time": 114, "velocity": 108, "pitch": 55, "instrument": 24, "track": 2, "qtime": 18, "bar": 2, "isDrum": false}, {"time": 114, "velocity": 108, "pitch": 62, "instrument": 24, "track": 2, "qtime": 18, "bar": 2, "isDrum": false}, {"time": 114, "velocity": 108, "pitch": 64, "instrument": 24, "track": 2, "qtime": 18, "bar": 2, "isDrum": false}, {"time": 114, "velocity": 108, "pitch": 67, "instrument": 24, "track": 2, "qtime": 18, "bar": 2, "isDrum": false}, {"time": 126, "velocity": 108, "pitch": 60, "instrument": 24, "track": 2, "qtime": 30, "bar": 2, "isDrum": false}, {"time": 129, "velocity": 0, "pitch": 67, "instrument": 24, "track": 2, "qtime": 33, "bar": 2, "isDrum": false}, {"time": 131, "velocity": 0, "pitch": 64, "instrument": 24, "track": 2, "qtime": 35, "bar": 2, "isDrum": false}, {"time": 132, "velocity": 108, "pitch": 64, "instrument": 24, "track": 2, "qtime": 36, "bar": 2, "isDrum": false}, {"time": 135, "velocity": 0, "pitch": 64, "instrument": 24, "track": 2, "qtime": 39, "bar": 2, "isDrum": false}, {"time": 138, "velocity": 0, "pitch": 62, "instrument": 24, "track": 2, "qtime": 42, "bar": 2, "isDrum": false}, {"time": 138, "velocity": 108, "pitch": 62, "instrument": 24, "track": 2, "qtime": 42, "bar": 2, "isDrum": false}, {"time": 138, "velocity": 108, "pitch": 64, "instrument": 24, "track": 2, "qtime": 42, "bar": 2, "isDrum": false}, {"time": 138, "velocity": 108, "pitch": 67, "instrument": 24, "track": 2, "qtime": 42, "bar": 2, "isDrum": false}, {"time": 141, "velocity": 0, "pitch": 48, "instrument": 24, "track": 2, "qtime": 45, "bar": 2, "isDrum": false}, {"time": 144, "velocity": 108, "pitch": 48, "instrument": 24, "track": 2, "qtime": 0, "bar": 3, "isDrum": false}, {"time": 148, "velocity": 0, "pitch": 55, "instrument": 24, "track": 2, "qtime": 4, "bar": 3, "isDrum": false}, {"time": 149, "velocity": 0, "pitch": 62, "instrument": 24, "track": 2, "qtime": 5, "bar": 3, "isDrum": false}, {"time": 150, "velocity": 108, "pitch": 55, "instrument": 24, "track": 2, "qtime": 6, "bar": 3, "isDrum": false}, {"time": 152, "velocity": 0, "pitch": 60, "instrument": 24, "track": 2, "qtime": 8, "bar": 3, "isDrum": false}, {"time": 156, "velocity": 108, "pitch": 60, "instrument": 24, "track": 2, "qtime": 12, "bar": 3, "isDrum": false}, {"time": 159, "velocity": 0, "pitch": 55, "instrument": 24, "track": 2, "qtime": 15, "bar": 3, "isDrum": false}, {"time": 162, "velocity": 108, "pitch": 55, "instrument": 24, "track": 2, "qtime": 18, "bar": 3, "isDrum": false}, {"time": 167, "velocity": 0, "pitch": 48, "instrument": 24, "track": 2, "qtime": 23, "bar": 3, "isDrum": false}, {"time": 168, "velocity": 108, "pitch": 48, "instrument": 24, "track": 2, "qtime": 24, "bar": 3, "isDrum": false}, {"time": 169, "velocity": 0, "pitch": 67, "instrument": 24, "track": 2, "qtime": 25, "bar": 3, "isDrum": false}, {"time": 174, "velocity": 108, "pitch": 67, "instrument": 24, "track": 2, "qtime": 30, "bar": 3, "isDrum": false}, {"time": 181, "velocity": 0, "pitch": 60, "instrument": 24, "track": 2, "qtime": 37, "bar": 3, "isDrum": false}, {"time": 183, "velocity": 108, "pitch": 62, "instrument": 24, "track": 2, "qtime": 39, "bar": 3, "isDrum": false}, {"time": 191, "velocity": 0, "pitch": 48, "instrument": 24, "track": 2, "qtime": 47, "bar": 3, "isDrum": false}, {"time": 192, "velocity": 108, "pitch": 45, "instrument": 24, "track": 2, "qtime": 0, "bar": 4, "isDrum": false}, {"time": 194, "velocity": 0, "pitch": 55, "instrument": 24, "track": 2, "qtime": 2, "bar": 4, "isDrum": false}, {"time": 198, "velocity": 108, "pitch": 57, "instrument": 24, "track": 2, "qtime": 6, "bar": 4, "isDrum": false}, {"time": 204, "velocity": 108, "pitch": 60, "instrument": 24, "track": 2, "qtime": 12, "bar": 4, "isDrum": false}, {"time": 205, "velocity": 0, "pitch": 62, "instrument": 24, "track": 2, "qtime": 13, "bar": 4, "isDrum": false}, {"time": 210, "velocity": 108, "pitch": 62, "instrument": 24, "track": 2, "qtime": 18, "bar": 4, "isDrum": false}, {"time": 211, "velocity": 0, "pitch": 60, "instrument": 24, "track": 2, "qtime": 19, "bar": 4, "isDrum": false}, {"time": 218, "velocity": 0, "pitch": 57, "instrument": 24, "track": 2, "qtime": 26, "bar": 4, "isDrum": false}, {"time": 222, "velocity": 108, "pitch": 57, "instrument": 24, "track": 2, "qtime": 30, "bar": 4, "isDrum": false}, {"time": 228, "velocity": 108, "pitch": 60, "instrument": 24, "track": 2, "qtime": 36, "bar": 4, "isDrum": false}, {"time": 232, "velocity": 0, "pitch": 67, "instrument": 24, "track": 2, "qtime": 40, "bar": 4, "isDrum": false}, {"time": 233, "velocity": 0, "pitch": 64, "instrument": 24, "track": 2, "qtime": 41, "bar": 4, "isDrum": false}, {"time": 234, "velocity": 108, "pitch": 64, "instrument": 24, "track": 2, "qtime": 42, "bar": 4, "isDrum": false}, {"time": 234, "velocity": 108, "pitch": 67, "instrument": 24, "track": 2, "qtime": 42, "bar": 4, "isDrum": false}, {"time": 237, "velocity": 0, "pitch": 45, "instrument": 24, "track": 2, "qtime": 45, "bar": 4, "isDrum": false}, {"time": 240, "velocity": 108, "pitch": 45, "instrument": 24, "track": 2, "qtime": 0, "bar": 5, "isDrum": false}, {"time": 243, "velocity": 0, "pitch": 57, "instrument": 24, "track": 2, "qtime": 3, "bar": 5, "isDrum": false}, {"time": 246, "velocity": 0, "pitch": 60, "instrument": 24, "track": 2, "qtime": 6, "bar": 5, "isDrum": false}, {"time": 246, "velocity": 108, "pitch": 57, "instrument": 24, "track": 2, "qtime": 6, "bar": 5, "isDrum": false}, {"time": 248, "velocity": 0, "pitch": 62, "instrument": 24, "track": 2, "qtime": 8, "bar": 5, "isDrum": false}, {"time": 248, "velocity": 0, "pitch": 67, "instrument": 24, "track": 2, "qtime": 8, "bar": 5, "isDrum": false}, {"time": 249, "velocity": 0, "pitch": 64, "instrument": 24, "track": 2, "qtime": 9, "bar": 5, "isDrum": false}, {"time": 249, "velocity": 108, "pitch": 60, "instrument": 24, "track": 2, "qtime": 9, "bar": 5, "isDrum": false}, {"time": 252, "velocity": 108, "pitch": 67, "instrument": 24, "track": 2, "qtime": 12, "bar": 5, "isDrum": false}, {"time": 258, "velocity": 108, "pitch": 64, "instrument": 24, "track": 2, "qtime": 18, "bar": 5, "isDrum": false}, {"time": 259, "velocity": 0, "pitch": 60, "instrument": 24, "track": 2, "qtime": 19, "bar": 5, "isDrum": false}, {"time": 264, "velocity": 0, "pitch": 45, "instrument": 24, "track": 2, "qtime": 24, "bar": 5, "isDrum": false}, {"time": 264, "velocity": 108, "pitch": 62, "instrument": 24, "track": 2, "qtime": 24, "bar": 5, "isDrum": false}, {"time": 268, "velocity": 0, "pitch": 57, "instrument": 24, "track": 2, "qtime": 28, "bar": 5, "isDrum": false}, {"time": 270, "velocity": 108, "pitch": 60, "instrument": 24, "track": 2, "qtime": 30, "bar": 5, "isDrum": false}, {"time": 276, "velocity": 108, "pitch": 45, "instrument": 24, "track": 2, "qtime": 36, "bar": 5, "isDrum": false}, {"time": 282, "velocity": 108, "pitch": 55, "instrument": 24, "track": 2, "qtime": 42, "bar": 5, "isDrum": false}, {"time": 283, "velocity": 0, "pitch": 45, "instrument": 24, "track": 2, "qtime": 43, "bar": 5, "isDrum": false}, {"time": 287, "velocity": 0, "pitch": 67, "instrument": 24, "track": 2, "qtime": 47, "bar": 5, "isDrum": false}, {"time": 288, "velocity": 0, "pitch": 55, "instrument": 24, "track": 2, "qtime": 48, "bar": 5, "isDrum": false}, {"time": 288, "velocity": 0, "pitch": 60, "instrument": 24, "track": 2, "qtime": 48, "bar": 5, "isDrum": false}, {"time": 288, "velocity": 0, "pitch": 64, "instrument": 24, "track": 2, "qtime": 48, "bar": 5, "isDrum": false}, {"time": 288, "velocity": 108, "pitch": 48, "instrument": 24, "track": 2, "qtime": 0, "bar": 6, "isDrum": false}, {"time": 289, "velocity": 0, "pitch": 62, "instrument": 24, "track": 2, "qtime": 1, "bar": 6, "isDrum": false}, {"time": 300, "velocity": 108, "pitch": 55, "instrument": 24, "track": 2, "qtime": 12, "bar": 6, "isDrum": false}, {"time": 300, "velocity": 108, "pitch": 60, "instrument": 24, "track": 2, "qtime": 12, "bar": 6, "isDrum": false}, {"time": 300, "velocity": 108, "pitch": 64, "instrument": 24, "track": 2, "qtime": 12, "bar": 6, "isDrum": false}, {"time": 300, "velocity": 108, "pitch": 67, "instrument": 24, "track": 2, "qtime": 12, "bar": 6, "isDrum": false}, {"time": 309, "velocity": 0, "pitch": 55, "instrument": 24, "track": 2, "qtime": 21, "bar": 6, "isDrum": false}, {"time": 309, "velocity": 0, "pitch": 60, "instrument": 24, "track": 2, "qtime": 21, "bar": 6, "isDrum": false}, {"time": 309, "velocity": 0, "pitch": 64, "instrument": 24, "track": 2, "qtime": 21, "bar": 6, "isDrum": false}, {"time": 309, "velocity": 0, "pitch": 67, "instrument": 24, "track": 2, "qtime": 21, "bar": 6, "isDrum": false}, {"time": 318, "velocity": 108, "pitch": 55, "instrument": 24, "track": 2, "qtime": 30, "bar": 6, "isDrum": false}, {"time": 318, "velocity": 108, "pitch": 60, "instrument": 24, "track": 2, "qtime": 30, "bar": 6, "isDrum": false}, {"time": 318, "velocity": 108, "pitch": 64, "instrument": 24, "track": 2, "qtime": 30, "bar": 6, "isDrum": false}, {"time": 318, "velocity": 108, "pitch": 67, "instrument": 24, "track": 2, "qtime": 30, "bar": 6, "isDrum": false}, {"time": 323, "velocity": 0, "pitch": 60, "instrument": 24, "track": 2, "qtime": 35, "bar": 6, "isDrum": false}, {"time": 323, "velocity": 0, "pitch": 64, "instrument": 24, "track": 2, "qtime": 35, "bar": 6, "isDrum": false}, {"time": 323, "velocity": 0, "pitch": 67, "instrument": 24, "track": 2, "qtime": 35, "bar": 6, "isDrum": false}, {"time": 324, "velocity": 0, "pitch": 55, "instrument": 24, "track": 2, "qtime": 36, "bar": 6, "isDrum": false}, {"time": 330, "velocity": 108, "pitch": 55, "instrument": 24, "track": 2, "qtime": 42, "bar": 6, "isDrum": false}, {"time": 330, "velocity": 108, "pitch": 62, "instrument": 24, "track": 2, "qtime": 42, "bar": 6, "isDrum": false}, {"time": 330, "velocity": 108, "pitch": 64, "instrument": 24, "track": 2, "qtime": 42, "bar": 6, "isDrum": false}, {"time": 330, "velocity": 108, "pitch": 67, "instrument": 24, "track": 2, "qtime": 42, "bar": 6, "isDrum": false}, {"time": 348, "velocity": 0, "pitch": 62, "instrument": 24, "track": 2, "qtime": 12, "bar": 7, "isDrum": false}, {"time": 348, "velocity": 0, "pitch": 67, "instrument": 24, "track": 2, "qtime": 12, "bar": 7, "isDrum": false}, {"time": 349, "velocity": 0, "pitch": 55, "instrument": 24, "track": 2, "qtime": 13, "bar": 7, "isDrum": false}, {"time": 349, "velocity": 0, "pitch": 64, "instrument": 24, "track": 2, "qtime": 13, "bar": 7, "isDrum": false}, {"time": 354, "velocity": 108, "pitch": 60, "instrument": 24, "track": 2, "qtime": 18, "bar": 7, "isDrum": false}, {"time": 354, "velocity": 108, "pitch": 67, "instrument": 24, "track": 2, "qtime": 18, "bar": 7, "isDrum": false}, {"time": 363, "velocity": 0, "pitch": 67, "instrument": 24, "track": 2, "qtime": 27, "bar": 7, "isDrum": false}, {"time": 366, "velocity": 0, "pitch": 60, "instrument": 24, "track": 2, "qtime": 30, "bar": 7, "isDrum": false}, {"time": 383, "velocity": 0, "pitch": 48, "instrument": 24, "track": 2, "qtime": 47, "bar": 7, "isDrum": false}, {"time": 0, "velocity": 120, "pitch": 35, "instrument": 0, "track": 5, "qtime": 0, "bar": 0, "isDrum": true}, {"time": 0, "velocity": 120, "pitch": 35, "instrument": 0, "track": 5, "qtime": 0, "bar": 0, "isDrum": true}, {"time": 0, "velocity": 120, "pitch": 44, "instrument": 0, "track": 5, "qtime": 0, "bar": 0, "isDrum": true}, {"time": 0, "velocity": 120, "pitch": 49, "instrument": 0, "track": 5, "qtime": 0, "bar": 0, "isDrum": true}, {"time": 1, "velocity": 0, "pitch": 35, "instrument": 0, "track": 5, "qtime": 1, "bar": 0, "isDrum": true}, {"time": 1, "velocity": 0, "pitch": 35, "instrument": 0, "track": 5, "qtime": 1, "bar": 0, "isDrum": true}, {"time": 1, "velocity": 0, "pitch": 44, "instrument": 0, "track": 5, "qtime": 1, "bar": 0, "isDrum": true}, {"time": 1, "velocity": 0, "pitch": 49, "instrument": 0, "track": 5, "qtime": 1, "bar": 0, "isDrum": true}, {"time": 6, "velocity": 120, "pitch": 44, "instrument": 0, "track": 5, "qtime": 6, "bar": 0, "isDrum": true}, {"time": 7, "velocity": 0, "pitch": 44, "instrument": 0, "track": 5, "qtime": 7, "bar": 0, "isDrum": true}, {"time": 12, "velocity": 120, "pitch": 40, "instrument": 0, "track": 5, "qtime": 12, "bar": 0, "isDrum": true}, {"time": 12, "velocity": 120, "pitch": 44, "instrument": 0, "track": 5, "qtime": 12, "bar": 0, "isDrum": true}, {"time": 13, "velocity": 0, "pitch": 40, "instrument": 0, "track": 5, "qtime": 13, "bar": 0, "isDrum": true}, {"time": 13, "velocity": 0, "pitch": 44, "instrument": 0, "track": 5, "qtime": 13, "bar": 0, "isDrum": true}, {"time": 18, "velocity": 120, "pitch": 35, "instrument": 0, "track": 5, "qtime": 18, "bar": 0, "isDrum": true}, {"time": 18, "velocity": 120, "pitch": 44, "instrument": 0, "track": 5, "qtime": 18, "bar": 0, "isDrum": true}, {"time": 18, "velocity": 120, "pitch": 63, "instrument": 0, "track": 5, "qtime": 18, "bar": 0, "isDrum": true}, {"time": 19, "velocity": 0, "pitch": 35, "instrument": 0, "track": 5, "qtime": 19, "bar": 0, "isDrum": true}, {"time": 19, "velocity": 0, "pitch": 44, "instrument": 0, "track": 5, "qtime": 19, "bar": 0, "isDrum": true}, {"time": 19, "velocity": 0, "pitch": 63, "instrument": 0, "track": 5, "qtime": 19, "bar": 0, "isDrum": true}, {"time": 24, "velocity": 120, "pitch": 44, "instrument": 0, "track": 5, "qtime": 24, "bar": 0, "isDrum": true}, {"time": 25, "velocity": 0, "pitch": 44, "instrument": 0, "track": 5, "qtime": 25, "bar": 0, "isDrum": true}, {"time": 30, "velocity": 120, "pitch": 35, "instrument": 0, "track": 5, "qtime": 30, "bar": 0, "isDrum": true}, {"time": 30, "velocity": 120, "pitch": 44, "instrument": 0, "track": 5, "qtime": 30, "bar": 0, "isDrum": true}, {"time": 30, "velocity": 120, "pitch": 60, "instrument": 0, "track": 5, "qtime": 30, "bar": 0, "isDrum": true}, {"time": 31, "velocity": 0, "pitch": 35, "instrument": 0, "track": 5, "qtime": 31, "bar": 0, "isDrum": true}, {"time": 31, "velocity": 0, "pitch": 44, "instrument": 0, "track": 5, "qtime": 31, "bar": 0, "isDrum": true}, {"time": 31, "velocity": 0, "pitch": 60, "instrument": 0, "track": 5, "qtime": 31, "bar": 0, "isDrum": true}, {"time": 36, "velocity": 120, "pitch": 40, "instrument": 0, "track": 5, "qtime": 36, "bar": 0, "isDrum": true}, {"time": 36, "velocity": 120, "pitch": 44, "instrument": 0, "track": 5, "qtime": 36, "bar": 0, "isDrum": true}, {"time": 36, "velocity": 120, "pitch": 61, "instrument": 0, "track": 5, "qtime": 36, "bar": 0, "isDrum": true}, {"time": 37, "velocity": 0, "pitch": 40, "instrument": 0, "track": 5, "qtime": 37, "bar": 0, "isDrum": true}, {"time": 37, "velocity": 0, "pitch": 44, "instrument": 0, "track": 5, "qtime": 37, "bar": 0, "isDrum": true}, {"time": 37, "velocity": 0, "pitch": 61, "instrument": 0, "track": 5, "qtime": 37, "bar": 0, "isDrum": true}, {"time": 42, "velocity": 120, "pitch": 44, "instrument": 0, "track": 5, "qtime": 42, "bar": 0, "isDrum": true}, {"time": 43, "velocity": 0, "pitch": 44, "instrument": 0, "track": 5, "qtime": 43, "bar": 0, "isDrum": true}, {"time": 48, "velocity": 120, "pitch": 35, "instrument": 0, "track": 5, "qtime": 0, "bar": 1, "isDrum": true}, {"time": 48, "velocity": 120, "pitch": 44, "instrument": 0, "track": 5, "qtime": 0, "bar": 1, "isDrum": true}, {"time": 48, "velocity": 120, "pitch": 62, "instrument": 0, "track": 5, "qtime": 0, "bar": 1, "isDrum": true}, {"time": 49, "velocity": 0, "pitch": 35, "instrument": 0, "track": 5, "qtime": 1, "bar": 1, "isDrum": true}, {"time": 49, "velocity": 0, "pitch": 44, "instrument": 0, "track": 5, "qtime": 1, "bar": 1, "isDrum": true}, {"time": 49, "velocity": 0, "pitch": 62, "instrument": 0, "track": 5, "qtime": 1, "bar": 1, "isDrum": true}, {"time": 54, "velocity": 120, "pitch": 44, "instrument": 0, "track": 5, "qtime": 6, "bar": 1, "isDrum": true}, {"time": 54, "velocity": 120, "pitch": 63, "instrument": 0, "track": 5, "qtime": 6, "bar": 1, "isDrum": true}, {"time": 55, "velocity": 0, "pitch": 44, "instrument": 0, "track": 5, "qtime": 7, "bar": 1, "isDrum": true}, {"time": 55, "velocity": 0, "pitch": 63, "instrument": 0, "track": 5, "qtime": 7, "bar": 1, "isDrum": true}, {"time": 60, "velocity": 120, "pitch": 40, "instrument": 0, "track": 5, "qtime": 12, "bar": 1, "isDrum": true}, {"time": 60, "velocity": 120, "pitch": 44, "instrument": 0, "track": 5, "qtime": 12, "bar": 1, "isDrum": true}, {"time": 61, "velocity": 0, "pitch": 40, "instrument": 0, "track": 5, "qtime": 13, "bar": 1, "isDrum": true}, {"time": 61, "velocity": 0, "pitch": 44, "instrument": 0, "track": 5, "qtime": 13, "bar": 1, "isDrum": true}, {"time": 66, "velocity": 120, "pitch": 35, "instrument": 0, "track": 5, "qtime": 18, "bar": 1, "isDrum": true}, {"time": 66, "velocity": 120, "pitch": 44, "instrument": 0, "track": 5, "qtime": 18, "bar": 1, "isDrum": true}, {"time": 66, "velocity": 120, "pitch": 63, "instrument": 0, "track": 5, "qtime": 18, "bar": 1, "isDrum": true}, {"time": 67, "velocity": 0, "pitch": 35, "instrument": 0, "track": 5, "qtime": 19, "bar": 1, "isDrum": true}, {"time": 67, "velocity": 0, "pitch": 44, "instrument": 0, "track": 5, "qtime": 19, "bar": 1, "isDrum": true}, {"time": 67, "velocity": 0, "pitch": 63, "instrument": 0, "track": 5, "qtime": 19, "bar": 1, "isDrum": true}, {"time": 72, "velocity": 120, "pitch": 44, "instrument": 0, "track": 5, "qtime": 24, "bar": 1, "isDrum": true}, {"time": 73, "velocity": 0, "pitch": 44, "instrument": 0, "track": 5, "qtime": 25, "bar": 1, "isDrum": true}, {"time": 78, "velocity": 120, "pitch": 35, "instrument": 0, "track": 5, "qtime": 30, "bar": 1, "isDrum": true}, {"time": 78, "velocity": 120, "pitch": 44, "instrument": 0, "track": 5, "qtime": 30, "bar": 1, "isDrum": true}, {"time": 78, "velocity": 120, "pitch": 63, "instrument": 0, "track": 5, "qtime": 30, "bar": 1, "isDrum": true}, {"time": 79, "velocity": 0, "pitch": 35, "instrument": 0, "track": 5, "qtime": 31, "bar": 1, "isDrum": true}, {"time": 79, "velocity": 0, "pitch": 44, "instrument": 0, "track": 5, "qtime": 31, "bar": 1, "isDrum": true}, {"time": 79, "velocity": 0, "pitch": 63, "instrument": 0, "track": 5, "qtime": 31, "bar": 1, "isDrum": true}, {"time": 84, "velocity": 120, "pitch": 40, "instrument": 0, "track": 5, "qtime": 36, "bar": 1, "isDrum": true}, {"time": 84, "velocity": 120, "pitch": 43, "instrument": 0, "track": 5, "qtime": 36, "bar": 1, "isDrum": true}, {"time": 84, "velocity": 120, "pitch": 44, "instrument": 0, "track": 5, "qtime": 36, "bar": 1, "isDrum": true}, {"time": 85, "velocity": 0, "pitch": 40, "instrument": 0, "track": 5, "qtime": 37, "bar": 1, "isDrum": true}, {"time": 85, "velocity": 0, "pitch": 43, "instrument": 0, "track": 5, "qtime": 37, "bar": 1, "isDrum": true}, {"time": 85, "velocity": 0, "pitch": 44, "instrument": 0, "track": 5, "qtime": 37, "bar": 1, "isDrum": true}, {"time": 90, "velocity": 120, "pitch": 41, "instrument": 0, "track": 5, "qtime": 42, "bar": 1, "isDrum": true}, {"time": 90, "velocity": 120, "pitch": 44, "instrument": 0, "track": 5, "qtime": 42, "bar": 1, "isDrum": true}, {"time": 91, "velocity": 0, "pitch": 41, "instrument": 0, "track": 5, "qtime": 43, "bar": 1, "isDrum": true}, {"time": 91, "velocity": 0, "pitch": 44, "instrument": 0, "track": 5, "qtime": 43, "bar": 1, "isDrum": true}, {"time": 96, "velocity": 120, "pitch": 35, "instrument": 0, "track": 5, "qtime": 0, "bar": 2, "isDrum": true}, {"time": 96, "velocity": 120, "pitch": 40, "instrument": 0, "track": 5, "qtime": 0, "bar": 2, "isDrum": true}, {"time": 96, "velocity": 120, "pitch": 44, "instrument": 0, "track": 5, "qtime": 0, "bar": 2, "isDrum": true}, {"time": 97, "velocity": 0, "pitch": 35, "instrument": 0, "track": 5, "qtime": 1, "bar": 2, "isDrum": true}, {"time": 97, "velocity": 0, "pitch": 40, "instrument": 0, "track": 5, "qtime": 1, "bar": 2, "isDrum": true}, {"time": 97, "velocity": 0, "pitch": 44, "instrument": 0, "track": 5, "qtime": 1, "bar": 2, "isDrum": true}, {"time": 102, "velocity": 120, "pitch": 44, "instrument": 0, "track": 5, "qtime": 6, "bar": 2, "isDrum": true}, {"time": 103, "velocity": 0, "pitch": 44, "instrument": 0, "track": 5, "qtime": 7, "bar": 2, "isDrum": true}, {"time": 108, "velocity": 120, "pitch": 40, "instrument": 0, "track": 5, "qtime": 12, "bar": 2, "isDrum": true}, {"time": 108, "velocity": 120, "pitch": 44, "instrument": 0, "track": 5, "qtime": 12, "bar": 2, "isDrum": true}, {"time": 109, "velocity": 0, "pitch": 40, "instrument": 0, "track": 5, "qtime": 13, "bar": 2, "isDrum": true}, {"time": 109, "velocity": 0, "pitch": 44, "instrument": 0, "track": 5, "qtime": 13, "bar": 2, "isDrum": true}, {"time": 114, "velocity": 120, "pitch": 35, "instrument": 0, "track": 5, "qtime": 18, "bar": 2, "isDrum": true}, {"time": 114, "velocity": 120, "pitch": 44, "instrument": 0, "track": 5, "qtime": 18, "bar": 2, "isDrum": true}, {"time": 114, "velocity": 120, "pitch": 63, "instrument": 0, "track": 5, "qtime": 18, "bar": 2, "isDrum": true}, {"time": 115, "velocity": 0, "pitch": 35, "instrument": 0, "track": 5, "qtime": 19, "bar": 2, "isDrum": true}, {"time": 115, "velocity": 0, "pitch": 44, "instrument": 0, "track": 5, "qtime": 19, "bar": 2, "isDrum": true}, {"time": 115, "velocity": 0, "pitch": 63, "instrument": 0, "track": 5, "qtime": 19, "bar": 2, "isDrum": true}, {"time": 120, "velocity": 120, "pitch": 44, "instrument": 0, "track": 5, "qtime": 24, "bar": 2, "isDrum": true}, {"time": 121, "velocity": 0, "pitch": 44, "instrument": 0, "track": 5, "qtime": 25, "bar": 2, "isDrum": true}, {"time": 126, "velocity": 120, "pitch": 35, "instrument": 0, "track": 5, "qtime": 30, "bar": 2, "isDrum": true}, {"time": 126, "velocity": 120, "pitch": 44, "instrument": 0, "track": 5, "qtime": 30, "bar": 2, "isDrum": true}, {"time": 127, "velocity": 0, "pitch": 35, "instrument": 0, "track": 5, "qtime": 31, "bar": 2, "isDrum": true}, {"time": 127, "velocity": 0, "pitch": 44, "instrument": 0, "track": 5, "qtime": 31, "bar": 2, "isDrum": true}, {"time": 132, "velocity": 120, "pitch": 40, "instrument": 0, "track": 5, "qtime": 36, "bar": 2, "isDrum": true}, {"time": 132, "velocity": 120, "pitch": 44, "instrument": 0, "track": 5, "qtime": 36, "bar": 2, "isDrum": true}, {"time": 132, "velocity": 120, "pitch": 63, "instrument": 0, "track": 5, "qtime": 36, "bar": 2, "isDrum": true}, {"time": 133, "velocity": 0, "pitch": 40, "instrument": 0, "track": 5, "qtime": 37, "bar": 2, "isDrum": true}, {"time": 133, "velocity": 0, "pitch": 44, "instrument": 0, "track": 5, "qtime": 37, "bar": 2, "isDrum": true}, {"time": 133, "velocity": 0, "pitch": 63, "instrument": 0, "track": 5, "qtime": 37, "bar": 2, "isDrum": true}, {"time": 138, "velocity": 120, "pitch": 44, "instrument": 0, "track": 5, "qtime": 42, "bar": 2, "isDrum": true}, {"time": 139, "velocity": 0, "pitch": 44, "instrument": 0, "track": 5, "qtime": 43, "bar": 2, "isDrum": true}, {"time": 144, "velocity": 120, "pitch": 35, "instrument": 0, "track": 5, "qtime": 0, "bar": 3, "isDrum": true}, {"time": 144, "velocity": 120, "pitch": 44, "instrument": 0, "track": 5, "qtime": 0, "bar": 3, "isDrum": true}, {"time": 145, "velocity": 0, "pitch": 35, "instrument": 0, "track": 5, "qtime": 1, "bar": 3, "isDrum": true}, {"time": 145, "velocity": 0, "pitch": 44, "instrument": 0, "track": 5, "qtime": 1, "bar": 3, "isDrum": true}, {"time": 150, "velocity": 120, "pitch": 44, "instrument": 0, "track": 5, "qtime": 6, "bar": 3, "isDrum": true}, {"time": 150, "velocity": 120, "pitch": 63, "instrument": 0, "track": 5, "qtime": 6, "bar": 3, "isDrum": true}, {"time": 151, "velocity": 0, "pitch": 44, "instrument": 0, "track": 5, "qtime": 7, "bar": 3, "isDrum": true}, {"time": 151, "velocity": 0, "pitch": 63, "instrument": 0, "track": 5, "qtime": 7, "bar": 3, "isDrum": true}, {"time": 156, "velocity": 120, "pitch": 40, "instrument": 0, "track": 5, "qtime": 12, "bar": 3, "isDrum": true}, {"time": 156, "velocity": 120, "pitch": 44, "instrument": 0, "track": 5, "qtime": 12, "bar": 3, "isDrum": true}, {"time": 157, "velocity": 0, "pitch": 40, "instrument": 0, "track": 5, "qtime": 13, "bar": 3, "isDrum": true}, {"time": 157, "velocity": 0, "pitch": 44, "instrument": 0, "track": 5, "qtime": 13, "bar": 3, "isDrum": true}, {"time": 162, "velocity": 120, "pitch": 35, "instrument": 0, "track": 5, "qtime": 18, "bar": 3, "isDrum": true}, {"time": 162, "velocity": 120, "pitch": 44, "instrument": 0, "track": 5, "qtime": 18, "bar": 3, "isDrum": true}, {"time": 162, "velocity": 120, "pitch": 60, "instrument": 0, "track": 5, "qtime": 18, "bar": 3, "isDrum": true}, {"time": 163, "velocity": 0, "pitch": 35, "instrument": 0, "track": 5, "qtime": 19, "bar": 3, "isDrum": true}, {"time": 163, "velocity": 0, "pitch": 44, "instrument": 0, "track": 5, "qtime": 19, "bar": 3, "isDrum": true}, {"time": 163, "velocity": 0, "pitch": 60, "instrument": 0, "track": 5, "qtime": 19, "bar": 3, "isDrum": true}, {"time": 168, "velocity": 120, "pitch": 44, "instrument": 0, "track": 5, "qtime": 24, "bar": 3, "isDrum": true}, {"time": 168, "velocity": 120, "pitch": 60, "instrument": 0, "track": 5, "qtime": 24, "bar": 3, "isDrum": true}, {"time": 169, "velocity": 0, "pitch": 44, "instrument": 0, "track": 5, "qtime": 25, "bar": 3, "isDrum": true}, {"time": 169, "velocity": 0, "pitch": 60, "instrument": 0, "track": 5, "qtime": 25, "bar": 3, "isDrum": true}, {"time": 174, "velocity": 120, "pitch": 35, "instrument": 0, "track": 5, "qtime": 30, "bar": 3, "isDrum": true}, {"time": 174, "velocity": 120, "pitch": 44, "instrument": 0, "track": 5, "qtime": 30, "bar": 3, "isDrum": true}, {"time": 174, "velocity": 120, "pitch": 60, "instrument": 0, "track": 5, "qtime": 30, "bar": 3, "isDrum": true}, {"time": 175, "velocity": 0, "pitch": 35, "instrument": 0, "track": 5, "qtime": 31, "bar": 3, "isDrum": true}, {"time": 175, "velocity": 0, "pitch": 44, "instrument": 0, "track": 5, "qtime": 31, "bar": 3, "isDrum": true}, {"time": 175, "velocity": 0, "pitch": 60, "instrument": 0, "track": 5, "qtime": 31, "bar": 3, "isDrum": true}, {"time": 180, "velocity": 120, "pitch": 40, "instrument": 0, "track": 5, "qtime": 36, "bar": 3, "isDrum": true}, {"time": 180, "velocity": 120, "pitch": 41, "instrument": 0, "track": 5, "qtime": 36, "bar": 3, "isDrum": true}, {"time": 180, "velocity": 120, "pitch": 44, "instrument": 0, "track": 5, "qtime": 36, "bar": 3, "isDrum": true}, {"time": 181, "velocity": 0, "pitch": 40, "instrument": 0, "track": 5, "qtime": 37, "bar": 3, "isDrum": true}, {"time": 181, "velocity": 0, "pitch": 41, "instrument": 0, "track": 5, "qtime": 37, "bar": 3, "isDrum": true}, {"time": 181, "velocity": 0, "pitch": 44, "instrument": 0, "track": 5, "qtime": 37, "bar": 3, "isDrum": true}, {"time": 186, "velocity": 120, "pitch": 46, "instrument": 0, "track": 5, "qtime": 42, "bar": 3, "isDrum": true}, {"time": 186, "velocity": 120, "pitch": 60, "instrument": 0, "track": 5, "qtime": 42, "bar": 3, "isDrum": true}, {"time": 187, "velocity": 0, "pitch": 46, "instrument": 0, "track": 5, "qtime": 43, "bar": 3, "isDrum": true}, {"time": 187, "velocity": 0, "pitch": 60, "instrument": 0, "track": 5, "qtime": 43, "bar": 3, "isDrum": true}, {"time": 192, "velocity": 120, "pitch": 35, "instrument": 0, "track": 5, "qtime": 0, "bar": 4, "isDrum": true}, {"time": 192, "velocity": 120, "pitch": 35, "instrument": 0, "track": 5, "qtime": 0, "bar": 4, "isDrum": true}, {"time": 192, "velocity": 120, "pitch": 44, "instrument": 0, "track": 5, "qtime": 0, "bar": 4, "isDrum": true}, {"time": 192, "velocity": 120, "pitch": 49, "instrument": 0, "track": 5, "qtime": 0, "bar": 4, "isDrum": true}, {"time": 193, "velocity": 0, "pitch": 35, "instrument": 0, "track": 5, "qtime": 1, "bar": 4, "isDrum": true}, {"time": 193, "velocity": 0, "pitch": 35, "instrument": 0, "track": 5, "qtime": 1, "bar": 4, "isDrum": true}, {"time": 193, "velocity": 0, "pitch": 44, "instrument": 0, "track": 5, "qtime": 1, "bar": 4, "isDrum": true}, {"time": 193, "velocity": 0, "pitch": 49, "instrument": 0, "track": 5, "qtime": 1, "bar": 4, "isDrum": true}, {"time": 198, "velocity": 120, "pitch": 44, "instrument": 0, "track": 5, "qtime": 6, "bar": 4, "isDrum": true}, {"time": 199, "velocity": 0, "pitch": 44, "instrument": 0, "track": 5, "qtime": 7, "bar": 4, "isDrum": true}, {"time": 204, "velocity": 120, "pitch": 40, "instrument": 0, "track": 5, "qtime": 12, "bar": 4, "isDrum": true}, {"time": 204, "velocity": 120, "pitch": 44, "instrument": 0, "track": 5, "qtime": 12, "bar": 4, "isDrum": true}, {"time": 205, "velocity": 0, "pitch": 40, "instrument": 0, "track": 5, "qtime": 13, "bar": 4, "isDrum": true}, {"time": 205, "velocity": 0, "pitch": 44, "instrument": 0, "track": 5, "qtime": 13, "bar": 4, "isDrum": true}, {"time": 210, "velocity": 120, "pitch": 35, "instrument": 0, "track": 5, "qtime": 18, "bar": 4, "isDrum": true}, {"time": 210, "velocity": 120, "pitch": 44, "instrument": 0, "track": 5, "qtime": 18, "bar": 4, "isDrum": true}, {"time": 210, "velocity": 120, "pitch": 63, "instrument": 0, "track": 5, "qtime": 18, "bar": 4, "isDrum": true}, {"time": 211, "velocity": 0, "pitch": 35, "instrument": 0, "track": 5, "qtime": 19, "bar": 4, "isDrum": true}, {"time": 211, "velocity": 0, "pitch": 44, "instrument": 0, "track": 5, "qtime": 19, "bar": 4, "isDrum": true}, {"time": 211, "velocity": 0, "pitch": 63, "instrument": 0, "track": 5, "qtime": 19, "bar": 4, "isDrum": true}, {"time": 216, "velocity": 120, "pitch": 44, "instrument": 0, "track": 5, "qtime": 24, "bar": 4, "isDrum": true}, {"time": 217, "velocity": 0, "pitch": 44, "instrument": 0, "track": 5, "qtime": 25, "bar": 4, "isDrum": true}, {"time": 222, "velocity": 120, "pitch": 35, "instrument": 0, "track": 5, "qtime": 30, "bar": 4, "isDrum": true}, {"time": 222, "velocity": 120, "pitch": 44, "instrument": 0, "track": 5, "qtime": 30, "bar": 4, "isDrum": true}, {"time": 222, "velocity": 120, "pitch": 60, "instrument": 0, "track": 5, "qtime": 30, "bar": 4, "isDrum": true}, {"time": 223, "velocity": 0, "pitch": 35, "instrument": 0, "track": 5, "qtime": 31, "bar": 4, "isDrum": true}, {"time": 223, "velocity": 0, "pitch": 44, "instrument": 0, "track": 5, "qtime": 31, "bar": 4, "isDrum": true}, {"time": 223, "velocity": 0, "pitch": 60, "instrument": 0, "track": 5, "qtime": 31, "bar": 4, "isDrum": true}, {"time": 228, "velocity": 120, "pitch": 40, "instrument": 0, "track": 5, "qtime": 36, "bar": 4, "isDrum": true}, {"time": 228, "velocity": 120, "pitch": 44, "instrument": 0, "track": 5, "qtime": 36, "bar": 4, "isDrum": true}, {"time": 229, "velocity": 0, "pitch": 40, "instrument": 0, "track": 5, "qtime": 37, "bar": 4, "isDrum": true}, {"time": 229, "velocity": 0, "pitch": 44, "instrument": 0, "track": 5, "qtime": 37, "bar": 4, "isDrum": true}, {"time": 234, "velocity": 120, "pitch": 44, "instrument": 0, "track": 5, "qtime": 42, "bar": 4, "isDrum": true}, {"time": 234, "velocity": 120, "pitch": 60, "instrument": 0, "track": 5, "qtime": 42, "bar": 4, "isDrum": true}, {"time": 235, "velocity": 0, "pitch": 44, "instrument": 0, "track": 5, "qtime": 43, "bar": 4, "isDrum": true}, {"time": 235, "velocity": 0, "pitch": 60, "instrument": 0, "track": 5, "qtime": 43, "bar": 4, "isDrum": true}, {"time": 240, "velocity": 120, "pitch": 35, "instrument": 0, "track": 5, "qtime": 0, "bar": 5, "isDrum": true}, {"time": 240, "velocity": 120, "pitch": 44, "instrument": 0, "track": 5, "qtime": 0, "bar": 5, "isDrum": true}, {"time": 241, "velocity": 0, "pitch": 35, "instrument": 0, "track": 5, "qtime": 1, "bar": 5, "isDrum": true}, {"time": 241, "velocity": 0, "pitch": 44, "instrument": 0, "track": 5, "qtime": 1, "bar": 5, "isDrum": true}, {"time": 246, "velocity": 120, "pitch": 41, "instrument": 0, "track": 5, "qtime": 6, "bar": 5, "isDrum": true}, {"time": 246, "velocity": 120, "pitch": 44, "instrument": 0, "track": 5, "qtime": 6, "bar": 5, "isDrum": true}, {"time": 246, "velocity": 120, "pitch": 45, "instrument": 0, "track": 5, "qtime": 6, "bar": 5, "isDrum": true}, {"time": 247, "velocity": 0, "pitch": 41, "instrument": 0, "track": 5, "qtime": 7, "bar": 5, "isDrum": true}, {"time": 247, "velocity": 0, "pitch": 44, "instrument": 0, "track": 5, "qtime": 7, "bar": 5, "isDrum": true}, {"time": 247, "velocity": 0, "pitch": 45, "instrument": 0, "track": 5, "qtime": 7, "bar": 5, "isDrum": true}, {"time": 252, "velocity": 120, "pitch": 40, "instrument": 0, "track": 5, "qtime": 12, "bar": 5, "isDrum": true}, {"time": 252, "velocity": 120, "pitch": 44, "instrument": 0, "track": 5, "qtime": 12, "bar": 5, "isDrum": true}, {"time": 253, "velocity": 0, "pitch": 40, "instrument": 0, "track": 5, "qtime": 13, "bar": 5, "isDrum": true}, {"time": 253, "velocity": 0, "pitch": 44, "instrument": 0, "track": 5, "qtime": 13, "bar": 5, "isDrum": true}, {"time": 255, "velocity": 120, "pitch": 41, "instrument": 0, "track": 5, "qtime": 15, "bar": 5, "isDrum": true}, {"time": 255, "velocity": 120, "pitch": 45, "instrument": 0, "track": 5, "qtime": 15, "bar": 5, "isDrum": true}, {"time": 256, "velocity": 0, "pitch": 41, "instrument": 0, "track": 5, "qtime": 16, "bar": 5, "isDrum": true}, {"time": 256, "velocity": 0, "pitch": 45, "instrument": 0, "track": 5, "qtime": 16, "bar": 5, "isDrum": true}, {"time": 258, "velocity": 120, "pitch": 35, "instrument": 0, "track": 5, "qtime": 18, "bar": 5, "isDrum": true}, {"time": 258, "velocity": 120, "pitch": 44, "instrument": 0, "track": 5, "qtime": 18, "bar": 5, "isDrum": true}, {"time": 259, "velocity": 0, "pitch": 35, "instrument": 0, "track": 5, "qtime": 19, "bar": 5, "isDrum": true}, {"time": 259, "velocity": 0, "pitch": 44, "instrument": 0, "track": 5, "qtime": 19, "bar": 5, "isDrum": true}, {"time": 264, "velocity": 120, "pitch": 41, "instrument": 0, "track": 5, "qtime": 24, "bar": 5, "isDrum": true}, {"time": 264, "velocity": 120, "pitch": 44, "instrument": 0, "track": 5, "qtime": 24, "bar": 5, "isDrum": true}, {"time": 264, "velocity": 120, "pitch": 45, "instrument": 0, "track": 5, "qtime": 24, "bar": 5, "isDrum": true}, {"time": 265, "velocity": 0, "pitch": 41, "instrument": 0, "track": 5, "qtime": 25, "bar": 5, "isDrum": true}, {"time": 265, "velocity": 0, "pitch": 44, "instrument": 0, "track": 5, "qtime": 25, "bar": 5, "isDrum": true}, {"time": 265, "velocity": 0, "pitch": 45, "instrument": 0, "track": 5, "qtime": 25, "bar": 5, "isDrum": true}, {"time": 270, "velocity": 120, "pitch": 35, "instrument": 0, "track": 5, "qtime": 30, "bar": 5, "isDrum": true}, {"time": 270, "velocity": 120, "pitch": 44, "instrument": 0, "track": 5, "qtime": 30, "bar": 5, "isDrum": true}, {"time": 271, "velocity": 0, "pitch": 35, "instrument": 0, "track": 5, "qtime": 31, "bar": 5, "isDrum": true}, {"time": 271, "velocity": 0, "pitch": 44, "instrument": 0, "track": 5, "qtime": 31, "bar": 5, "isDrum": true}, {"time": 273, "velocity": 120, "pitch": 45, "instrument": 0, "track": 5, "qtime": 33, "bar": 5, "isDrum": true}, {"time": 273, "velocity": 120, "pitch": 46, "instrument": 0, "track": 5, "qtime": 33, "bar": 5, "isDrum": true}, {"time": 274, "velocity": 0, "pitch": 45, "instrument": 0, "track": 5, "qtime": 34, "bar": 5, "isDrum": true}, {"time": 274, "velocity": 0, "pitch": 46, "instrument": 0, "track": 5, "qtime": 34, "bar": 5, "isDrum": true}, {"time": 276, "velocity": 120, "pitch": 40, "instrument": 0, "track": 5, "qtime": 36, "bar": 5, "isDrum": true}, {"time": 276, "velocity": 120, "pitch": 44, "instrument": 0, "track": 5, "qtime": 36, "bar": 5, "isDrum": true}, {"time": 277, "velocity": 0, "pitch": 40, "instrument": 0, "track": 5, "qtime": 37, "bar": 5, "isDrum": true}, {"time": 277, "velocity": 0, "pitch": 44, "instrument": 0, "track": 5, "qtime": 37, "bar": 5, "isDrum": true}, {"time": 279, "velocity": 120, "pitch": 40, "instrument": 0, "track": 5, "qtime": 39, "bar": 5, "isDrum": true}, {"time": 280, "velocity": 0, "pitch": 40, "instrument": 0, "track": 5, "qtime": 40, "bar": 5, "isDrum": true}, {"time": 282, "velocity": 120, "pitch": 44, "instrument": 0, "track": 5, "qtime": 42, "bar": 5, "isDrum": true}, {"time": 283, "velocity": 0, "pitch": 44, "instrument": 0, "track": 5, "qtime": 43, "bar": 5, "isDrum": true}, {"time": 288, "velocity": 120, "pitch": 35, "instrument": 0, "track": 5, "qtime": 0, "bar": 6, "isDrum": true}, {"time": 288, "velocity": 120, "pitch": 38, "instrument": 0, "track": 5, "qtime": 0, "bar": 6, "isDrum": true}, {"time": 288, "velocity": 120, "pitch": 40, "instrument": 0, "track": 5, "qtime": 0, "bar": 6, "isDrum": true}, {"time": 288, "velocity": 120, "pitch": 44, "instrument": 0, "track": 5, "qtime": 0, "bar": 6, "isDrum": true}, {"time": 288, "velocity": 120, "pitch": 49, "instrument": 0, "track": 5, "qtime": 0, "bar": 6, "isDrum": true}, {"time": 289, "velocity": 0, "pitch": 35, "instrument": 0, "track": 5, "qtime": 1, "bar": 6, "isDrum": true}, {"time": 289, "velocity": 0, "pitch": 38, "instrument": 0, "track": 5, "qtime": 1, "bar": 6, "isDrum": true}, {"time": 289, "velocity": 0, "pitch": 40, "instrument": 0, "track": 5, "qtime": 1, "bar": 6, "isDrum": true}, {"time": 289, "velocity": 0, "pitch": 44, "instrument": 0, "track": 5, "qtime": 1, "bar": 6, "isDrum": true}, {"time": 289, "velocity": 0, "pitch": 49, "instrument": 0, "track": 5, "qtime": 1, "bar": 6, "isDrum": true}, {"time": 294, "velocity": 120, "pitch": 44, "instrument": 0, "track": 5, "qtime": 6, "bar": 6, "isDrum": true}, {"time": 295, "velocity": 0, "pitch": 44, "instrument": 0, "track": 5, "qtime": 7, "bar": 6, "isDrum": true}, {"time": 300, "velocity": 120, "pitch": 40, "instrument": 0, "track": 5, "qtime": 12, "bar": 6, "isDrum": true}, {"time": 300, "velocity": 120, "pitch": 44, "instrument": 0, "track": 5, "qtime": 12, "bar": 6, "isDrum": true}, {"time": 301, "velocity": 0, "pitch": 40, "instrument": 0, "track": 5, "qtime": 13, "bar": 6, "isDrum": true}, {"time": 301, "velocity": 0, "pitch": 44, "instrument": 0, "track": 5, "qtime": 13, "bar": 6, "isDrum": true}, {"time": 303, "velocity": 120, "pitch": 63, "instrument": 0, "track": 5, "qtime": 15, "bar": 6, "isDrum": true}, {"time": 304, "velocity": 0, "pitch": 63, "instrument": 0, "track": 5, "qtime": 16, "bar": 6, "isDrum": true}, {"time": 306, "velocity": 120, "pitch": 35, "instrument": 0, "track": 5, "qtime": 18, "bar": 6, "isDrum": true}, {"time": 306, "velocity": 120, "pitch": 44, "instrument": 0, "track": 5, "qtime": 18, "bar": 6, "isDrum": true}, {"time": 307, "velocity": 0, "pitch": 35, "instrument": 0, "track": 5, "qtime": 19, "bar": 6, "isDrum": true}, {"time": 307, "velocity": 0, "pitch": 44, "instrument": 0, "track": 5, "qtime": 19, "bar": 6, "isDrum": true}, {"time": 309, "velocity": 120, "pitch": 60, "instrument": 0, "track": 5, "qtime": 21, "bar": 6, "isDrum": true}, {"time": 310, "velocity": 0, "pitch": 60, "instrument": 0, "track": 5, "qtime": 22, "bar": 6, "isDrum": true}, {"time": 312, "velocity": 120, "pitch": 44, "instrument": 0, "track": 5, "qtime": 24, "bar": 6, "isDrum": true}, {"time": 313, "velocity": 0, "pitch": 44, "instrument": 0, "track": 5, "qtime": 25, "bar": 6, "isDrum": true}, {"time": 318, "velocity": 120, "pitch": 35, "instrument": 0, "track": 5, "qtime": 30, "bar": 6, "isDrum": true}, {"time": 318, "velocity": 120, "pitch": 44, "instrument": 0, "track": 5, "qtime": 30, "bar": 6, "isDrum": true}, {"time": 318, "velocity": 120, "pitch": 61, "instrument": 0, "track": 5, "qtime": 30, "bar": 6, "isDrum": true}, {"time": 319, "velocity": 0, "pitch": 35, "instrument": 0, "track": 5, "qtime": 31, "bar": 6, "isDrum": true}, {"time": 319, "velocity": 0, "pitch": 44, "instrument": 0, "track": 5, "qtime": 31, "bar": 6, "isDrum": true}, {"time": 319, "velocity": 0, "pitch": 61, "instrument": 0, "track": 5, "qtime": 31, "bar": 6, "isDrum": true}, {"time": 324, "velocity": 120, "pitch": 40, "instrument": 0, "track": 5, "qtime": 36, "bar": 6, "isDrum": true}, {"time": 324, "velocity": 120, "pitch": 44, "instrument": 0, "track": 5, "qtime": 36, "bar": 6, "isDrum": true}, {"time": 325, "velocity": 0, "pitch": 40, "instrument": 0, "track": 5, "qtime": 37, "bar": 6, "isDrum": true}, {"time": 325, "velocity": 0, "pitch": 44, "instrument": 0, "track": 5, "qtime": 37, "bar": 6, "isDrum": true}, {"time": 330, "velocity": 120, "pitch": 44, "instrument": 0, "track": 5, "qtime": 42, "bar": 6, "isDrum": true}, {"time": 330, "velocity": 120, "pitch": 62, "instrument": 0, "track": 5, "qtime": 42, "bar": 6, "isDrum": true}, {"time": 331, "velocity": 0, "pitch": 44, "instrument": 0, "track": 5, "qtime": 43, "bar": 6, "isDrum": true}, {"time": 331, "velocity": 0, "pitch": 62, "instrument": 0, "track": 5, "qtime": 43, "bar": 6, "isDrum": true}, {"time": 336, "velocity": 120, "pitch": 35, "instrument": 0, "track": 5, "qtime": 0, "bar": 7, "isDrum": true}, {"time": 336, "velocity": 120, "pitch": 44, "instrument": 0, "track": 5, "qtime": 0, "bar": 7, "isDrum": true}, {"time": 337, "velocity": 0, "pitch": 35, "instrument": 0, "track": 5, "qtime": 1, "bar": 7, "isDrum": true}, {"time": 337, "velocity": 0, "pitch": 44, "instrument": 0, "track": 5, "qtime": 1, "bar": 7, "isDrum": true}, {"time": 342, "velocity": 120, "pitch": 44, "instrument": 0, "track": 5, "qtime": 6, "bar": 7, "isDrum": true}, {"time": 342, "velocity": 120, "pitch": 63, "instrument": 0, "track": 5, "qtime": 6, "bar": 7, "isDrum": true}, {"time": 343, "velocity": 0, "pitch": 44, "instrument": 0, "track": 5, "qtime": 7, "bar": 7, "isDrum": true}, {"time": 343, "velocity": 0, "pitch": 63, "instrument": 0, "track": 5, "qtime": 7, "bar": 7, "isDrum": true}, {"time": 348, "velocity": 120, "pitch": 40, "instrument": 0, "track": 5, "qtime": 12, "bar": 7, "isDrum": true}, {"time": 348, "velocity": 120, "pitch": 44, "instrument": 0, "track": 5, "qtime": 12, "bar": 7, "isDrum": true}, {"time": 349, "velocity": 0, "pitch": 40, "instrument": 0, "track": 5, "qtime": 13, "bar": 7, "isDrum": true}, {"time": 349, "velocity": 0, "pitch": 44, "instrument": 0, "track": 5, "qtime": 13, "bar": 7, "isDrum": true}, {"time": 354, "velocity": 120, "pitch": 35, "instrument": 0, "track": 5, "qtime": 18, "bar": 7, "isDrum": true}, {"time": 354, "velocity": 120, "pitch": 44, "instrument": 0, "track": 5, "qtime": 18, "bar": 7, "isDrum": true}, {"time": 354, "velocity": 120, "pitch": 63, "instrument": 0, "track": 5, "qtime": 18, "bar": 7, "isDrum": true}, {"time": 355, "velocity": 0, "pitch": 35, "instrument": 0, "track": 5, "qtime": 19, "bar": 7, "isDrum": true}, {"time": 355, "velocity": 0, "pitch": 44, "instrument": 0, "track": 5, "qtime": 19, "bar": 7, "isDrum": true}, {"time": 355, "velocity": 0, "pitch": 63, "instrument": 0, "track": 5, "qtime": 19, "bar": 7, "isDrum": true}, {"time": 360, "velocity": 120, "pitch": 44, "instrument": 0, "track": 5, "qtime": 24, "bar": 7, "isDrum": true}, {"time": 360, "velocity": 120, "pitch": 63, "instrument": 0, "track": 5, "qtime": 24, "bar": 7, "isDrum": true}, {"time": 361, "velocity": 0, "pitch": 44, "instrument": 0, "track": 5, "qtime": 25, "bar": 7, "isDrum": true}, {"time": 361, "velocity": 0, "pitch": 63, "instrument": 0, "track": 5, "qtime": 25, "bar": 7, "isDrum": true}, {"time": 366, "velocity": 120, "pitch": 35, "instrument": 0, "track": 5, "qtime": 30, "bar": 7, "isDrum": true}, {"time": 366, "velocity": 120, "pitch": 44, "instrument": 0, "track": 5, "qtime": 30, "bar": 7, "isDrum": true}, {"time": 366, "velocity": 120, "pitch": 45, "instrument": 0, "track": 5, "qtime": 30, "bar": 7, "isDrum": true}, {"time": 367, "velocity": 0, "pitch": 35, "instrument": 0, "track": 5, "qtime": 31, "bar": 7, "isDrum": true}, {"time": 367, "velocity": 0, "pitch": 44, "instrument": 0, "track": 5, "qtime": 31, "bar": 7, "isDrum": true}, {"time": 367, "velocity": 0, "pitch": 45, "instrument": 0, "track": 5, "qtime": 31, "bar": 7, "isDrum": true}, {"time": 372, "velocity": 120, "pitch": 40, "instrument": 0, "track": 5, "qtime": 36, "bar": 7, "isDrum": true}, {"time": 372, "velocity": 120, "pitch": 44, "instrument": 0, "track": 5, "qtime": 36, "bar": 7, "isDrum": true}, {"time": 372, "velocity": 120, "pitch": 63, "instrument": 0, "track": 5, "qtime": 36, "bar": 7, "isDrum": true}, {"time": 373, "velocity": 0, "pitch": 40, "instrument": 0, "track": 5, "qtime": 37, "bar": 7, "isDrum": true}, {"time": 373, "velocity": 0, "pitch": 44, "instrument": 0, "track": 5, "qtime": 37, "bar": 7, "isDrum": true}, {"time": 373, "velocity": 0, "pitch": 63, "instrument": 0, "track": 5, "qtime": 37, "bar": 7, "isDrum": true}, {"time": 378, "velocity": 120, "pitch": 41, "instrument": 0, "track": 5, "qtime": 42, "bar": 7, "isDrum": true}, {"time": 378, "velocity": 120, "pitch": 46, "instrument": 0, "track": 5, "qtime": 42, "bar": 7, "isDrum": true}, {"time": 379, "velocity": 0, "pitch": 41, "instrument": 0, "track": 5, "qtime": 43, "bar": 7, "isDrum": true}, {"time": 379, "velocity": 0, "pitch": 46, "instrument": 0, "track": 5, "qtime": 43, "bar": 7, "isDrum": true}], "resolution": 12, "tempo": 145, "minPitch": 31, "maxPitch": 91, "validSegments": [0], "validTracks": [15], "segmentLength": 8}, "audio": "https://www.sfu.ca/~jeffe/examples/8b_ex8_orig.mp3"}, {"src": "gen/8b_ex8_density_low.json", "highlights": [[], [], [], [0, 1, 2, 3, 4, 5, 6, 7]], "caption": "Resample the drum track in 19a with low density.", "sample_id": "19b", "mixer": [8, 8, 8, 9], "json": {"tracks": [{"bars": [{"events": [0, 1, 2, 3, 4, 5, 6, 7, 8], "isFourFour": true, "hasNotes": true, "time": 0}, {"events": [9, 10, 11, 12, 13, 14, 15, 16, 17, 18, 19, 20, 21, 22, 23, 24, 25, 26, 27, 28, 29], "isFourFour": true, "hasNotes": true, "time": 48}, {"events": [30, 31, 32, 33, 34, 35, 36, 37, 38, 39, 40, 41, 42, 43, 44, 45, 46], "isFourFour": true, "hasNotes": true, "time": 96}, {"events": [47, 48, 49, 50, 51, 52, 53, 54, 55, 56], "isFourFour": true, "hasNotes": true, "time": 144}, {"events": [57, 58, 59, 60, 61, 62, 63, 64, 65, 66, 67, 68, 69, 70, 71, 72, 73, 74], "isFourFour": true, "hasNotes": true, "time": 192}, {"events": [75, 76, 77, 78, 79, 80, 81, 82, 83, 84, 85, 86, 87, 88, 89, 90, 91, 92, 93], "isFourFour": true, "hasNotes": true, "time": 240}, {"events": [94, 95, 96, 97, 98, 99, 100, 101, 102], "isFourFour": true, "hasNotes": true, "time": 288}, {"events": [103, 104, 105, 106, 107, 108, 109, 110, 111, 112, 113, 114, 115, 116, 117, 118, 119], "isFourFour": true, "hasNotes": true, "time": 336}], "isDrum": false, "minPitch": 36, "maxPitch": 64, "instrument": 4, "avPolyphony": 3.66576076, "noteDensity": 9, "noteDensityV2": 5}, {"bars": [{"events": [120, 121, 122, 123, 124], "isFourFour": true, "hasNotes": true, "time": 0}, {"events": [125, 126, 127, 128, 129, 130, 131, 132, 133, 134], "isFourFour": true, "hasNotes": true, "time": 48}, {"events": [135, 136, 137, 138, 139, 140], "isFourFour": true, "hasNotes": true, "time": 96}, {"events": [141, 142, 143, 144, 145, 146, 147, 148, 149], "isFourFour": true, "hasNotes": true, "time": 144}, {"events": [150, 151, 152, 153, 154], "isFourFour": true, "hasNotes": true, "time": 192}, {"events": [155, 156, 157, 158, 159, 160, 161, 162, 163, 164, 165, 166, 167], "isFourFour": true, "hasNotes": true, "time": 240}, {"events": [168, 169, 170, 171, 172], "isFourFour": true, "hasNotes": true, "time": 288}, {"events": [173, 174, 175, 176, 177, 178, 179, 180, 181], "isFourFour": true, "hasNotes": true, "time": 336}], "isDrum": false, "minPitch": 31, "maxPitch": 45, "instrument": 33, "avPolyphony": 1.00677967, "noteDensity": 8, "noteDensityV2": 3}, {"bars": [{"events": [182, 183, 184, 185, 186, 187, 188, 189, 190, 191, 192, 193], "isFourFour": true, "hasNotes": true, "time": 0}, {"events": [194, 195, 196, 197, 198, 199, 200, 201, 202, 203, 204, 205, 206, 207, 208, 209, 210, 211, 212], "isFourFour": true, "hasNotes": true, "time": 48}, {"events": [213, 214, 215, 216, 217, 218, 219, 220, 221, 222, 223, 224, 225, 226, 227, 228, 229, 230, 231, 232, 233, 234, 235, 236], "isFourFour": true, "hasNotes": true, "time": 96}, {"events": [237, 238, 239, 240, 241, 242, 243, 244, 245, 246, 247, 248, 249, 250, 251], "isFourFour": true, "hasNotes": true, "time": 144}, {"events": [252, 253, 254, 255, 256, 257, 258, 259, 260, 261, 262, 263, 264, 265, 266], "isFourFour": true, "hasNotes": true, "time": 192}, {"events": [267, 268, 269, 270, 271, 272, 273, 274, 275, 276, 277, 278, 279, 280, 281, 282, 283, 284, 285, 286, 287, 288], "isFourFour": true, "hasNotes": true, "time": 240}, {"events": [289, 290, 291, 292, 293, 294, 295, 296, 297, 298, 299, 300, 301, 302, 303, 304, 305, 306, 307, 308, 309, 310], "isFourFour": true, "hasNotes": true, "time": 288}, {"events": [311, 312, 313, 314, 315, 316, 317, 318, 319], "isFourFour": true, "hasNotes": true, "time": 336}], "isDrum": false, "minPitch": 45, "maxPitch": 67, "instrument": 24, "avPolyphony": 4.01566601, "noteDensity": 9, "noteDensityV2": 5}, {"bars": [{"events": [320, 321, 322, 323, 324, 325], "isFourFour": true, "hasNotes": true, "time": 0}, {"events": [326, 327, 328, 329, 330, 331], "isFourFour": true, "hasNotes": true, "time": 48}, {"events": [332, 333, 334, 335, 336, 337], "isFourFour": true, "hasNotes": true, "time": 96}, {"events": [338, 339, 340, 341, 342, 343], "isFourFour": true, "hasNotes": true, "time": 144}, {"events": [344, 345, 346, 347, 348, 349], "isFourFour": true, "hasNotes": true, "time": 192}, {"events": [350, 351, 352, 353, 354, 355], "isFourFour": true, "hasNotes": true, "time": 240}, {"events": [356, 357, 358, 359, 360, 361], "isFourFour": true, "hasNotes": true, "time": 288}, {"events": [362, 363, 364, 365, 366, 367], "isFourFour": true, "hasNotes": true, "time": 336}], "isDrum": true, "minPitch": 62, "maxPitch": 64, "instrument": 0, "avPolyphony": 1, "noteDensity": 7, "noteDensityV2": 1}], "events": [{"time": 0, "velocity": 108, "pitch": 45, "instrument": 4, "track": 0, "qtime": 0, "isDrum": false}, {"time": 0, "velocity": 108, "pitch": 55, "instrument": 4, "track": 0, "qtime": 0, "isDrum": false}, {"time": 0, "velocity": 108, "pitch": 59, "instrument": 4, "track": 0, "qtime": 0, "isDrum": false}, {"time": 0, "velocity": 108, "pitch": 60, "instrument": 4, "track": 0, "qtime": 0, "isDrum": false}, {"time": 0, "velocity": 108, "pitch": 64, "instrument": 4, "track": 0, "qtime": 0, "isDrum": false}, {"time": 44, "velocity": 0, "pitch": 55, "instrument": 4, "track": 0, "qtime": 44, "isDrum": false}, {"time": 44, "velocity": 0, "pitch": 59, "instrument": 4, "track": 0, "qtime": 44, "isDrum": false}, {"time": 44, "velocity": 0, "pitch": 60, "instrument": 4, "track": 0, "qtime": 44, "isDrum": false}, {"time": 44, "velocity": 0, "pitch": 64, "instrument": 4, "track": 0, "qtime": 44, "isDrum": false}, {"time": 48, "velocity": 108, "pitch": 55, "instrument": 4, "track": 0, "qtime": 0, "isDrum": false}, {"time": 48, "velocity": 108, "pitch": 59, "instrument": 4, "track": 0, "qtime": 0, "isDrum": false}, {"time": 48, "velocity": 108, "pitch": 60, "instrument": 4, "track": 0, "qtime": 0, "isDrum": false}, {"time": 48, "velocity": 108, "pitch": 64, "instrument": 4, "track": 0, "qtime": 0, "isDrum": false}, {"time": 49, "velocity": 0, "pitch": 59, "instrument": 4, "track": 0, "qtime": 1, "isDrum": false}, {"time": 49, "velocity": 0, "pitch": 60, "instrument": 4, "track": 0, "qtime": 1, "isDrum": false}, {"time": 50, "velocity": 0, "pitch": 55, "instrument": 4, "track": 0, "qtime": 2, "isDrum": false}, {"time": 50, "velocity": 0, "pitch": 64, "instrument": 4, "track": 0, "qtime": 2, "isDrum": false}, {"time": 66, "velocity": 108, "pitch": 55, "instrument": 4, "track": 0, "qtime": 18, "isDrum": false}, {"time": 66, "velocity": 108, "pitch": 59, "instrument": 4, "track": 0, "qtime": 18, "isDrum": false}, {"time": 66, "velocity": 108, "pitch": 60, "instrument": 4, "track": 0, "qtime": 18, "isDrum": false}, {"time": 66, "velocity": 108, "pitch": 64, "instrument": 4, "track": 0, "qtime": 18, "isDrum": false}, {"time": 78, "velocity": 0, "pitch": 59, "instrument": 4, "track": 0, "qtime": 30, "isDrum": false}, {"time": 78, "velocity": 108, "pitch": 57, "instrument": 4, "track": 0, "qtime": 30, "isDrum": false}, {"time": 79, "velocity": 0, "pitch": 55, "instrument": 4, "track": 0, "qtime": 31, "isDrum": false}, {"time": 79, "velocity": 0, "pitch": 60, "instrument": 4, "track": 0, "qtime": 31, "isDrum": false}, {"time": 79, "velocity": 0, "pitch": 64, "instrument": 4, "track": 0, "qtime": 31, "isDrum": false}, {"time": 80, "velocity": 0, "pitch": 57, "instrument": 4, "track": 0, "qtime": 32, "isDrum": false}, {"time": 84, "velocity": 108, "pitch": 43, "instrument": 4, "track": 0, "qtime": 36, "isDrum": false}, {"time": 85, "velocity": 0, "pitch": 45, "instrument": 4, "track": 0, "qtime": 37, "isDrum": false}, {"time": 96, "velocity": 0, "pitch": 43, "instrument": 4, "track": 0, "qtime": 48, "isDrum": false}, {"time": 96, "velocity": 108, "pitch": 36, "instrument": 4, "track": 0, "qtime": 0, "isDrum": false}, {"time": 96, "velocity": 108, "pitch": 52, "instrument": 4, "track": 0, "qtime": 0, "isDrum": false}, {"time": 96, "velocity": 108, "pitch": 55, "instrument": 4, "track": 0, "qtime": 0, "isDrum": false}, {"time": 96, "velocity": 108, "pitch": 59, "instrument": 4, "track": 0, "qtime": 0, "isDrum": false}, {"time": 96, "velocity": 108, "pitch": 62, "instrument": 4, "track": 0, "qtime": 0, "isDrum": false}, {"time": 131, "velocity": 0, "pitch": 62, "instrument": 4, "track": 0, "qtime": 35, "isDrum": false}, {"time": 132, "velocity": 0, "pitch": 59, "instrument": 4, "track": 0, "qtime": 36, "isDrum": false}, {"time": 133, "velocity": 0, "pitch": 52, "instrument": 4, "track": 0, "qtime": 37, "isDrum": false}, {"time": 133, "velocity": 0, "pitch": 55, "instrument": 4, "track": 0, "qtime": 37, "isDrum": false}, {"time": 138, "velocity": 108, "pitch": 52, "instrument": 4, "track": 0, "qtime": 42, "isDrum": false}, {"time": 138, "velocity": 108, "pitch": 55, "instrument": 4, "track": 0, "qtime": 42, "isDrum": false}, {"time": 138, "velocity": 108, "pitch": 59, "instrument": 4, "track": 0, "qtime": 42, "isDrum": false}, {"time": 138, "velocity": 108, "pitch": 60, "instrument": 4, "track": 0, "qtime": 42, "isDrum": false}, {"time": 139, "velocity": 0, "pitch": 52, "instrument": 4, "track": 0, "qtime": 43, "isDrum": false}, {"time": 139, "velocity": 0, "pitch": 55, "instrument": 4, "track": 0, "qtime": 43, "isDrum": false}, {"time": 139, "velocity": 0, "pitch": 59, "instrument": 4, "track": 0, "qtime": 43, "isDrum": false}, {"time": 140, "velocity": 0, "pitch": 60, "instrument": 4, "track": 0, "qtime": 44, "isDrum": false}, {"time": 153, "velocity": 108, "pitch": 52, "instrument": 4, "track": 0, "qtime": 9, "isDrum": false}, {"time": 162, "velocity": 108, "pitch": 55, "instrument": 4, "track": 0, "qtime": 18, "isDrum": false}, {"time": 162, "velocity": 108, "pitch": 60, "instrument": 4, "track": 0, "qtime": 18, "isDrum": false}, {"time": 172, "velocity": 0, "pitch": 52, "instrument": 4, "track": 0, "qtime": 28, "isDrum": false}, {"time": 174, "velocity": 108, "pitch": 52, "instrument": 4, "track": 0, "qtime": 30, "isDrum": false}, {"time": 180, "velocity": 0, "pitch": 55, "instrument": 4, "track": 0, "qtime": 36, "isDrum": false}, {"time": 180, "velocity": 108, "pitch": 43, "instrument": 4, "track": 0, "qtime": 36, "isDrum": false}, {"time": 181, "velocity": 0, "pitch": 52, "instrument": 4, "track": 0, "qtime": 37, "isDrum": false}, {"time": 181, "velocity": 0, "pitch": 60, "instrument": 4, "track": 0, "qtime": 37, "isDrum": false}, {"time": 182, "velocity": 0, "pitch": 36, "instrument": 4, "track": 0, "qtime": 38, "isDrum": false}, {"time": 192, "velocity": 108, "pitch": 45, "instrument": 4, "track": 0, "qtime": 0, "isDrum": false}, {"time": 192, "velocity": 108, "pitch": 55, "instrument": 4, "track": 0, "qtime": 0, "isDrum": false}, {"time": 192, "velocity": 108, "pitch": 57, "instrument": 4, "track": 0, "qtime": 0, "isDrum": false}, {"time": 192, "velocity": 108, "pitch": 60, "instrument": 4, "track": 0, "qtime": 0, "isDrum": false}, {"time": 192, "velocity": 108, "pitch": 64, "instrument": 4, "track": 0, "qtime": 0, "isDrum": false}, {"time": 193, "velocity": 0, "pitch": 43, "instrument": 4, "track": 0, "qtime": 1, "isDrum": false}, {"time": 230, "velocity": 0, "pitch": 55, "instrument": 4, "track": 0, "qtime": 38, "isDrum": false}, {"time": 230, "velocity": 0, "pitch": 57, "instrument": 4, "track": 0, "qtime": 38, "isDrum": false}, {"time": 230, "velocity": 0, "pitch": 60, "instrument": 4, "track": 0, "qtime": 38, "isDrum": false}, {"time": 230, "velocity": 0, "pitch": 64, "instrument": 4, "track": 0, "qtime": 38, "isDrum": false}, {"time": 234, "velocity": 108, "pitch": 55, "instrument": 4, "track": 0, "qtime": 42, "isDrum": false}, {"time": 234, "velocity": 108, "pitch": 57, "instrument": 4, "track": 0, "qtime": 42, "isDrum": false}, {"time": 234, "velocity": 108, "pitch": 60, "instrument": 4, "track": 0, "qtime": 42, "isDrum": false}, {"time": 234, "velocity": 108, "pitch": 64, "instrument": 4, "track": 0, "qtime": 42, "isDrum": false}, {"time": 235, "velocity": 0, "pitch": 57, "instrument": 4, "track": 0, "qtime": 43, "isDrum": false}, {"time": 235, "velocity": 0, "pitch": 60, "instrument": 4, "track": 0, "qtime": 43, "isDrum": false}, {"time": 235, "velocity": 0, "pitch": 64, "instrument": 4, "track": 0, "qtime": 43, "isDrum": false}, {"time": 236, "velocity": 0, "pitch": 55, "instrument": 4, "track": 0, "qtime": 44, "isDrum": false}, {"time": 246, "velocity": 108, "pitch": 55, "instrument": 4, "track": 0, "qtime": 6, "isDrum": false}, {"time": 246, "velocity": 108, "pitch": 57, "instrument": 4, "track": 0, "qtime": 6, "isDrum": false}, {"time": 246, "velocity": 108, "pitch": 60, "instrument": 4, "track": 0, "qtime": 6, "isDrum": false}, {"time": 246, "velocity": 108, "pitch": 64, "instrument": 4, "track": 0, "qtime": 6, "isDrum": false}, {"time": 256, "velocity": 0, "pitch": 64, "instrument": 4, "track": 0, "qtime": 16, "isDrum": false}, {"time": 257, "velocity": 0, "pitch": 55, "instrument": 4, "track": 0, "qtime": 17, "isDrum": false}, {"time": 257, "velocity": 0, "pitch": 57, "instrument": 4, "track": 0, "qtime": 17, "isDrum": false}, {"time": 257, "velocity": 0, "pitch": 60, "instrument": 4, "track": 0, "qtime": 17, "isDrum": false}, {"time": 258, "velocity": 108, "pitch": 55, "instrument": 4, "track": 0, "qtime": 18, "isDrum": false}, {"time": 258, "velocity": 108, "pitch": 59, "instrument": 4, "track": 0, "qtime": 18, "isDrum": false}, {"time": 258, "velocity": 108, "pitch": 60, "instrument": 4, "track": 0, "qtime": 18, "isDrum": false}, {"time": 258, "velocity": 108, "pitch": 64, "instrument": 4, "track": 0, "qtime": 18, "isDrum": false}, {"time": 276, "velocity": 0, "pitch": 59, "instrument": 4, "track": 0, "qtime": 36, "isDrum": false}, {"time": 276, "velocity": 108, "pitch": 57, "instrument": 4, "track": 0, "qtime": 36, "isDrum": false}, {"time": 277, "velocity": 0, "pitch": 64, "instrument": 4, "track": 0, "qtime": 37, "isDrum": false}, {"time": 278, "velocity": 0, "pitch": 55, "instrument": 4, "track": 0, "qtime": 38, "isDrum": false}, {"time": 278, "velocity": 0, "pitch": 60, "instrument": 4, "track": 0, "qtime": 38, "isDrum": false}, {"time": 279, "velocity": 0, "pitch": 57, "instrument": 4, "track": 0, "qtime": 39, "isDrum": false}, {"time": 282, "velocity": 0, "pitch": 45, "instrument": 4, "track": 0, "qtime": 42, "isDrum": false}, {"time": 288, "velocity": 108, "pitch": 36, "instrument": 4, "track": 0, "qtime": 0, "isDrum": false}, {"time": 288, "velocity": 108, "pitch": 52, "instrument": 4, "track": 0, "qtime": 0, "isDrum": false}, {"time": 288, "velocity": 108, "pitch": 55, "instrument": 4, "track": 0, "qtime": 0, "isDrum": false}, {"time": 288, "velocity": 108, "pitch": 57, "instrument": 4, "track": 0, "qtime": 0, "isDrum": false}, {"time": 288, "velocity": 108, "pitch": 60, "instrument": 4, "track": 0, "qtime": 0, "isDrum": false}, {"time": 333, "velocity": 0, "pitch": 52, "instrument": 4, "track": 0, "qtime": 45, "isDrum": false}, {"time": 333, "velocity": 0, "pitch": 57, "instrument": 4, "track": 0, "qtime": 45, "isDrum": false}, {"time": 333, "velocity": 0, "pitch": 60, "instrument": 4, "track": 0, "qtime": 45, "isDrum": false}, {"time": 334, "velocity": 0, "pitch": 55, "instrument": 4, "track": 0, "qtime": 46, "isDrum": false}, {"time": 336, "velocity": 108, "pitch": 52, "instrument": 4, "track": 0, "qtime": 0, "isDrum": false}, {"time": 336, "velocity": 108, "pitch": 55, "instrument": 4, "track": 0, "qtime": 0, "isDrum": false}, {"time": 336, "velocity": 108, "pitch": 57, "instrument": 4, "track": 0, "qtime": 0, "isDrum": false}, {"time": 336, "velocity": 108, "pitch": 60, "instrument": 4, "track": 0, "qtime": 0, "isDrum": false}, {"time": 337, "velocity": 0, "pitch": 52, "instrument": 4, "track": 0, "qtime": 1, "isDrum": false}, {"time": 337, "velocity": 0, "pitch": 55, "instrument": 4, "track": 0, "qtime": 1, "isDrum": false}, {"time": 337, "velocity": 0, "pitch": 57, "instrument": 4, "track": 0, "qtime": 1, "isDrum": false}, {"time": 337, "velocity": 0, "pitch": 60, "instrument": 4, "track": 0, "qtime": 1, "isDrum": false}, {"time": 354, "velocity": 108, "pitch": 52, "instrument": 4, "track": 0, "qtime": 18, "isDrum": false}, {"time": 354, "velocity": 108, "pitch": 57, "instrument": 4, "track": 0, "qtime": 18, "isDrum": false}, {"time": 354, "velocity": 108, "pitch": 60, "instrument": 4, "track": 0, "qtime": 18, "isDrum": false}, {"time": 366, "velocity": 108, "pitch": 55, "instrument": 4, "track": 0, "qtime": 30, "isDrum": false}, {"time": 372, "velocity": 0, "pitch": 36, "instrument": 4, "track": 0, "qtime": 36, "isDrum": false}, {"time": 372, "velocity": 0, "pitch": 52, "instrument": 4, "track": 0, "qtime": 36, "isDrum": false}, {"time": 374, "velocity": 0, "pitch": 55, "instrument": 4, "track": 0, "qtime": 38, "isDrum": false}, {"time": 374, "velocity": 0, "pitch": 57, "instrument": 4, "track": 0, "qtime": 38, "isDrum": false}, {"time": 374, "velocity": 0, "pitch": 60, "instrument": 4, "track": 0, "qtime": 38, "isDrum": false}, {"time": 0, "velocity": 108, "pitch": 33, "instrument": 33, "track": 1, "qtime": 0, "isDrum": false}, {"time": 16, "velocity": 0, "pitch": 33, "instrument": 33, "track": 1, "qtime": 16, "isDrum": false}, {"time": 18, "velocity": 108, "pitch": 33, "instrument": 33, "track": 1, "qtime": 18, "isDrum": false}, {"time": 28, "velocity": 0, "pitch": 33, "instrument": 33, "track": 1, "qtime": 28, "isDrum": false}, {"time": 36, "velocity": 108, "pitch": 33, "instrument": 33, "track": 1, "qtime": 36, "isDrum": false}, {"time": 50, "velocity": 0, "pitch": 33, "instrument": 33, "track": 1, "qtime": 2, "isDrum": false}, {"time": 54, "velocity": 108, "pitch": 33, "instrument": 33, "track": 1, "qtime": 6, "isDrum": false}, {"time": 65, "velocity": 0, "pitch": 33, "instrument": 33, "track": 1, "qtime": 17, "isDrum": false}, {"time": 66, "velocity": 108, "pitch": 33, "instrument": 33, "track": 1, "qtime": 18, "isDrum": false}, {"time": 68, "velocity": 0, "pitch": 33, "instrument": 33, "track": 1, "qtime": 20, "isDrum": false}, {"time": 72, "velocity": 108, "pitch": 33, "instrument": 33, "track": 1, "qtime": 24, "isDrum": false}, {"time": 82, "velocity": 0, "pitch": 33, "instrument": 33, "track": 1, "qtime": 34, "isDrum": false}, {"time": 84, "velocity": 108, "pitch": 33, "instrument": 33, "track": 1, "qtime": 36, "isDrum": false}, {"time": 90, "velocity": 0, "pitch": 33, "instrument": 33, "track": 1, "qtime": 42, "isDrum": false}, {"time": 90, "velocity": 108, "pitch": 31, "instrument": 33, "track": 1, "qtime": 42, "isDrum": false}, {"time": 96, "velocity": 108, "pitch": 36, "instrument": 33, "track": 1, "qtime": 0, "isDrum": false}, {"time": 97, "velocity": 0, "pitch": 31, "instrument": 33, "track": 1, "qtime": 1, "isDrum": false}, {"time": 110, "velocity": 0, "pitch": 36, "instrument": 33, "track": 1, "qtime": 14, "isDrum": false}, {"time": 114, "velocity": 108, "pitch": 36, "instrument": 33, "track": 1, "qtime": 18, "isDrum": false}, {"time": 124, "velocity": 0, "pitch": 36, "instrument": 33, "track": 1, "qtime": 28, "isDrum": false}, {"time": 132, "velocity": 108, "pitch": 36, "instrument": 33, "track": 1, "qtime": 36, "isDrum": false}, {"time": 147, "velocity": 0, "pitch": 36, "instrument": 33, "track": 1, "qtime": 3, "isDrum": false}, {"time": 150, "velocity": 108, "pitch": 36, "instrument": 33, "track": 1, "qtime": 6, "isDrum": false}, {"time": 161, "velocity": 0, "pitch": 36, "instrument": 33, "track": 1, "qtime": 17, "isDrum": false}, {"time": 168, "velocity": 108, "pitch": 36, "instrument": 33, "track": 1, "qtime": 24, "isDrum": false}, {"time": 180, "velocity": 0, "pitch": 36, "instrument": 33, "track": 1, "qtime": 36, "isDrum": false}, {"time": 180, "velocity": 108, "pitch": 31, "instrument": 33, "track": 1, "qtime": 36, "isDrum": false}, {"time": 186, "velocity": 0, "pitch": 31, "instrument": 33, "track": 1, "qtime": 42, "isDrum": false}, {"time": 186, "velocity": 108, "pitch": 32, "instrument": 33, "track": 1, "qtime": 42, "isDrum": false}, {"time": 192, "velocity": 0, "pitch": 32, "instrument": 33, "track": 1, "qtime": 48, "isDrum": false}, {"time": 192, "velocity": 108, "pitch": 33, "instrument": 33, "track": 1, "qtime": 0, "isDrum": false}, {"time": 208, "velocity": 0, "pitch": 33, "instrument": 33, "track": 1, "qtime": 16, "isDrum": false}, {"time": 210, "velocity": 108, "pitch": 33, "instrument": 33, "track": 1, "qtime": 18, "isDrum": false}, {"time": 218, "velocity": 0, "pitch": 33, "instrument": 33, "track": 1, "qtime": 26, "isDrum": false}, {"time": 228, "velocity": 108, "pitch": 33, "instrument": 33, "track": 1, "qtime": 36, "isDrum": false}, {"time": 245, "velocity": 0, "pitch": 33, "instrument": 33, "track": 1, "qtime": 5, "isDrum": false}, {"time": 246, "velocity": 108, "pitch": 33, "instrument": 33, "track": 1, "qtime": 6, "isDrum": false}, {"time": 256, "velocity": 0, "pitch": 33, "instrument": 33, "track": 1, "qtime": 16, "isDrum": false}, {"time": 258, "velocity": 108, "pitch": 33, "instrument": 33, "track": 1, "qtime": 18, "isDrum": false}, {"time": 262, "velocity": 0, "pitch": 33, "instrument": 33, "track": 1, "qtime": 22, "isDrum": false}, {"time": 264, "velocity": 108, "pitch": 33, "instrument": 33, "track": 1, "qtime": 24, "isDrum": false}, {"time": 270, "velocity": 0, "pitch": 33, "instrument": 33, "track": 1, "qtime": 30, "isDrum": false}, {"time": 270, "velocity": 108, "pitch": 40, "instrument": 33, "track": 1, "qtime": 30, "isDrum": false}, {"time": 273, "velocity": 0, "pitch": 40, "instrument": 33, "track": 1, "qtime": 33, "isDrum": false}, {"time": 276, "velocity": 108, "pitch": 43, "instrument": 33, "track": 1, "qtime": 36, "isDrum": false}, {"time": 276, "velocity": 108, "pitch": 45, "instrument": 33, "track": 1, "qtime": 36, "isDrum": false}, {"time": 277, "velocity": 0, "pitch": 43, "instrument": 33, "track": 1, "qtime": 37, "isDrum": false}, {"time": 285, "velocity": 0, "pitch": 45, "instrument": 33, "track": 1, "qtime": 45, "isDrum": false}, {"time": 288, "velocity": 108, "pitch": 36, "instrument": 33, "track": 1, "qtime": 0, "isDrum": false}, {"time": 303, "velocity": 0, "pitch": 36, "instrument": 33, "track": 1, "qtime": 15, "isDrum": false}, {"time": 306, "velocity": 108, "pitch": 36, "instrument": 33, "track": 1, "qtime": 18, "isDrum": false}, {"time": 315, "velocity": 0, "pitch": 36, "instrument": 33, "track": 1, "qtime": 27, "isDrum": false}, {"time": 324, "velocity": 108, "pitch": 36, "instrument": 33, "track": 1, "qtime": 36, "isDrum": false}, {"time": 339, "velocity": 0, "pitch": 36, "instrument": 33, "track": 1, "qtime": 3, "isDrum": false}, {"time": 342, "velocity": 108, "pitch": 36, "instrument": 33, "track": 1, "qtime": 6, "isDrum": false}, {"time": 353, "velocity": 0, "pitch": 36, "instrument": 33, "track": 1, "qtime": 17, "isDrum": false}, {"time": 360, "velocity": 108, "pitch": 36, "instrument": 33, "track": 1, "qtime": 24, "isDrum": false}, {"time": 371, "velocity": 0, "pitch": 36, "instrument": 33, "track": 1, "qtime": 35, "isDrum": false}, {"time": 372, "velocity": 108, "pitch": 31, "instrument": 33, "track": 1, "qtime": 36, "isDrum": false}, {"time": 378, "velocity": 0, "pitch": 31, "instrument": 33, "track": 1, "qtime": 42, "isDrum": false}, {"time": 378, "velocity": 108, "pitch": 32, "instrument": 33, "track": 1, "qtime": 42, "isDrum": false}, {"time": 384, "velocity": 0, "pitch": 32, "instrument": 33, "track": 1, "qtime": 48, "isDrum": false}, {"time": 0, "velocity": 108, "pitch": 45, "instrument": 24, "track": 2, "qtime": 0, "isDrum": false}, {"time": 6, "velocity": 108, "pitch": 57, "instrument": 24, "track": 2, "qtime": 6, "isDrum": false}, {"time": 12, "velocity": 108, "pitch": 60, "instrument": 24, "track": 2, "qtime": 12, "isDrum": false}, {"time": 18, "velocity": 108, "pitch": 62, "instrument": 24, "track": 2, "qtime": 18, "isDrum": false}, {"time": 18, "velocity": 108, "pitch": 67, "instrument": 24, "track": 2, "qtime": 18, "isDrum": false}, {"time": 26, "velocity": 0, "pitch": 57, "instrument": 24, "track": 2, "qtime": 26, "isDrum": false}, {"time": 30, "velocity": 0, "pitch": 60, "instrument": 24, "track": 2, "qtime": 30, "isDrum": false}, {"time": 30, "velocity": 108, "pitch": 57, "instrument": 24, "track": 2, "qtime": 30, "isDrum": false}, {"time": 36, "velocity": 108, "pitch": 60, "instrument": 24, "track": 2, "qtime": 36, "isDrum": false}, {"time": 38, "velocity": 0, "pitch": 67, "instrument": 24, "track": 2, "qtime": 38, "isDrum": false}, {"time": 42, "velocity": 108, "pitch": 67, "instrument": 24, "track": 2, "qtime": 42, "isDrum": false}, {"time": 45, "velocity": 0, "pitch": 45, "instrument": 24, "track": 2, "qtime": 45, "isDrum": false}, {"time": 48, "velocity": 108, "pitch": 45, "instrument": 24, "track": 2, "qtime": 0, "isDrum": false}, {"time": 49, "velocity": 0, "pitch": 57, "instrument": 24, "track": 2, "qtime": 1, "isDrum": false}, {"time": 54, "velocity": 108, "pitch": 57, "instrument": 24, "track": 2, "qtime": 6, "isDrum": false}, {"time": 55, "velocity": 0, "pitch": 60, "instrument": 24, "track": 2, "qtime": 7, "isDrum": false}, {"time": 60, "velocity": 108, "pitch": 60, "instrument": 24, "track": 2, "qtime": 12, "isDrum": false}, {"time": 62, "velocity": 0, "pitch": 67, "instrument": 24, "track": 2, "qtime": 14, "isDrum": false}, {"time": 65, "velocity": 0, "pitch": 62, "instrument": 24, "track": 2, "qtime": 17, "isDrum": false}, {"time": 66, "velocity": 108, "pitch": 62, "instrument": 24, "track": 2, "qtime": 18, "isDrum": false}, {"time": 66, "velocity": 108, "pitch": 67, "instrument": 24, "track": 2, "qtime": 18, "isDrum": false}, {"time": 70, "velocity": 0, "pitch": 45, "instrument": 24, "track": 2, "qtime": 22, "isDrum": false}, {"time": 72, "velocity": 108, "pitch": 45, "instrument": 24, "track": 2, "qtime": 24, "isDrum": false}, {"time": 74, "velocity": 0, "pitch": 57, "instrument": 24, "track": 2, "qtime": 26, "isDrum": false}, {"time": 75, "velocity": 0, "pitch": 62, "instrument": 24, "track": 2, "qtime": 27, "isDrum": false}, {"time": 78, "velocity": 0, "pitch": 60, "instrument": 24, "track": 2, "qtime": 30, "isDrum": false}, {"time": 78, "velocity": 108, "pitch": 57, "instrument": 24, "track": 2, "qtime": 30, "isDrum": false}, {"time": 78, "velocity": 108, "pitch": 64, "instrument": 24, "track": 2, "qtime": 30, "isDrum": false}, {"time": 84, "velocity": 108, "pitch": 62, "instrument": 24, "track": 2, "qtime": 36, "isDrum": false}, {"time": 90, "velocity": 108, "pitch": 60, "instrument": 24, "track": 2, "qtime": 42, "isDrum": false}, {"time": 95, "velocity": 0, "pitch": 45, "instrument": 24, "track": 2, "qtime": 47, "isDrum": false}, {"time": 96, "velocity": 108, "pitch": 48, "instrument": 24, "track": 2, "qtime": 0, "isDrum": false}, {"time": 97, "velocity": 0, "pitch": 57, "instrument": 24, "track": 2, "qtime": 1, "isDrum": false}, {"time": 100, "velocity": 0, "pitch": 62, "instrument": 24, "track": 2, "qtime": 4, "isDrum": false}, {"time": 102, "velocity": 108, "pitch": 55, "instrument": 24, "track": 2, "qtime": 6, "isDrum": false}, {"time": 104, "velocity": 0, "pitch": 60, "instrument": 24, "track": 2, "qtime": 8, "isDrum": false}, {"time": 108, "velocity": 108, "pitch": 60, "instrument": 24, "track": 2, "qtime": 12, "isDrum": false}, {"time": 110, "velocity": 0, "pitch": 55, "instrument": 24, "track": 2, "qtime": 14, "isDrum": false}, {"time": 112, "velocity": 0, "pitch": 67, "instrument": 24, "track": 2, "qtime": 16, "isDrum": false}, {"time": 113, "velocity": 0, "pitch": 60, "instrument": 24, "track": 2, "qtime": 17, "isDrum": false}, {"time": 113, "velocity": 0, "pitch": 64, "instrument": 24, "track": 2, "qtime": 17, "isDrum": false}, {"time": 114, "velocity": 108, "pitch": 55, "instrument": 24, "track": 2, "qtime": 18, "isDrum": false}, {"time": 114, "velocity": 108, "pitch": 62, "instrument": 24, "track": 2, "qtime": 18, "isDrum": false}, {"time": 114, "velocity": 108, "pitch": 64, "instrument": 24, "track": 2, "qtime": 18, "isDrum": false}, {"time": 114, "velocity": 108, "pitch": 67, "instrument": 24, "track": 2, "qtime": 18, "isDrum": false}, {"time": 126, "velocity": 108, "pitch": 60, "instrument": 24, "track": 2, "qtime": 30, "isDrum": false}, {"time": 129, "velocity": 0, "pitch": 67, "instrument": 24, "track": 2, "qtime": 33, "isDrum": false}, {"time": 131, "velocity": 0, "pitch": 64, "instrument": 24, "track": 2, "qtime": 35, "isDrum": false}, {"time": 132, "velocity": 108, "pitch": 64, "instrument": 24, "track": 2, "qtime": 36, "isDrum": false}, {"time": 135, "velocity": 0, "pitch": 64, "instrument": 24, "track": 2, "qtime": 39, "isDrum": false}, {"time": 138, "velocity": 0, "pitch": 62, "instrument": 24, "track": 2, "qtime": 42, "isDrum": false}, {"time": 138, "velocity": 108, "pitch": 62, "instrument": 24, "track": 2, "qtime": 42, "isDrum": false}, {"time": 138, "velocity": 108, "pitch": 64, "instrument": 24, "track": 2, "qtime": 42, "isDrum": false}, {"time": 138, "velocity": 108, "pitch": 67, "instrument": 24, "track": 2, "qtime": 42, "isDrum": false}, {"time": 141, "velocity": 0, "pitch": 48, "instrument": 24, "track": 2, "qtime": 45, "isDrum": false}, {"time": 144, "velocity": 108, "pitch": 48, "instrument": 24, "track": 2, "qtime": 0, "isDrum": false}, {"time": 148, "velocity": 0, "pitch": 55, "instrument": 24, "track": 2, "qtime": 4, "isDrum": false}, {"time": 149, "velocity": 0, "pitch": 62, "instrument": 24, "track": 2, "qtime": 5, "isDrum": false}, {"time": 150, "velocity": 108, "pitch": 55, "instrument": 24, "track": 2, "qtime": 6, "isDrum": false}, {"time": 152, "velocity": 0, "pitch": 60, "instrument": 24, "track": 2, "qtime": 8, "isDrum": false}, {"time": 156, "velocity": 108, "pitch": 60, "instrument": 24, "track": 2, "qtime": 12, "isDrum": false}, {"time": 159, "velocity": 0, "pitch": 55, "instrument": 24, "track": 2, "qtime": 15, "isDrum": false}, {"time": 162, "velocity": 108, "pitch": 55, "instrument": 24, "track": 2, "qtime": 18, "isDrum": false}, {"time": 167, "velocity": 0, "pitch": 48, "instrument": 24, "track": 2, "qtime": 23, "isDrum": false}, {"time": 168, "velocity": 108, "pitch": 48, "instrument": 24, "track": 2, "qtime": 24, "isDrum": false}, {"time": 169, "velocity": 0, "pitch": 67, "instrument": 24, "track": 2, "qtime": 25, "isDrum": false}, {"time": 174, "velocity": 108, "pitch": 67, "instrument": 24, "track": 2, "qtime": 30, "isDrum": false}, {"time": 181, "velocity": 0, "pitch": 60, "instrument": 24, "track": 2, "qtime": 37, "isDrum": false}, {"time": 183, "velocity": 108, "pitch": 62, "instrument": 24, "track": 2, "qtime": 39, "isDrum": false}, {"time": 191, "velocity": 0, "pitch": 48, "instrument": 24, "track": 2, "qtime": 47, "isDrum": false}, {"time": 192, "velocity": 108, "pitch": 45, "instrument": 24, "track": 2, "qtime": 0, "isDrum": false}, {"time": 194, "velocity": 0, "pitch": 55, "instrument": 24, "track": 2, "qtime": 2, "isDrum": false}, {"time": 198, "velocity": 108, "pitch": 57, "instrument": 24, "track": 2, "qtime": 6, "isDrum": false}, {"time": 204, "velocity": 108, "pitch": 60, "instrument": 24, "track": 2, "qtime": 12, "isDrum": false}, {"time": 205, "velocity": 0, "pitch": 62, "instrument": 24, "track": 2, "qtime": 13, "isDrum": false}, {"time": 210, "velocity": 108, "pitch": 62, "instrument": 24, "track": 2, "qtime": 18, "isDrum": false}, {"time": 211, "velocity": 0, "pitch": 60, "instrument": 24, "track": 2, "qtime": 19, "isDrum": false}, {"time": 218, "velocity": 0, "pitch": 57, "instrument": 24, "track": 2, "qtime": 26, "isDrum": false}, {"time": 222, "velocity": 108, "pitch": 57, "instrument": 24, "track": 2, "qtime": 30, "isDrum": false}, {"time": 228, "velocity": 108, "pitch": 60, "instrument": 24, "track": 2, "qtime": 36, "isDrum": false}, {"time": 232, "velocity": 0, "pitch": 67, "instrument": 24, "track": 2, "qtime": 40, "isDrum": false}, {"time": 233, "velocity": 0, "pitch": 64, "instrument": 24, "track": 2, "qtime": 41, "isDrum": false}, {"time": 234, "velocity": 108, "pitch": 64, "instrument": 24, "track": 2, "qtime": 42, "isDrum": false}, {"time": 234, "velocity": 108, "pitch": 67, "instrument": 24, "track": 2, "qtime": 42, "isDrum": false}, {"time": 237, "velocity": 0, "pitch": 45, "instrument": 24, "track": 2, "qtime": 45, "isDrum": false}, {"time": 240, "velocity": 108, "pitch": 45, "instrument": 24, "track": 2, "qtime": 0, "isDrum": false}, {"time": 243, "velocity": 0, "pitch": 57, "instrument": 24, "track": 2, "qtime": 3, "isDrum": false}, {"time": 246, "velocity": 0, "pitch": 60, "instrument": 24, "track": 2, "qtime": 6, "isDrum": false}, {"time": 246, "velocity": 108, "pitch": 57, "instrument": 24, "track": 2, "qtime": 6, "isDrum": false}, {"time": 248, "velocity": 0, "pitch": 62, "instrument": 24, "track": 2, "qtime": 8, "isDrum": false}, {"time": 248, "velocity": 0, "pitch": 67, "instrument": 24, "track": 2, "qtime": 8, "isDrum": false}, {"time": 249, "velocity": 0, "pitch": 64, "instrument": 24, "track": 2, "qtime": 9, "isDrum": false}, {"time": 249, "velocity": 108, "pitch": 60, "instrument": 24, "track": 2, "qtime": 9, "isDrum": false}, {"time": 252, "velocity": 108, "pitch": 67, "instrument": 24, "track": 2, "qtime": 12, "isDrum": false}, {"time": 258, "velocity": 108, "pitch": 64, "instrument": 24, "track": 2, "qtime": 18, "isDrum": false}, {"time": 259, "velocity": 0, "pitch": 60, "instrument": 24, "track": 2, "qtime": 19, "isDrum": false}, {"time": 264, "velocity": 0, "pitch": 45, "instrument": 24, "track": 2, "qtime": 24, "isDrum": false}, {"time": 264, "velocity": 108, "pitch": 62, "instrument": 24, "track": 2, "qtime": 24, "isDrum": false}, {"time": 268, "velocity": 0, "pitch": 57, "instrument": 24, "track": 2, "qtime": 28, "isDrum": false}, {"time": 270, "velocity": 108, "pitch": 60, "instrument": 24, "track": 2, "qtime": 30, "isDrum": false}, {"time": 276, "velocity": 108, "pitch": 45, "instrument": 24, "track": 2, "qtime": 36, "isDrum": false}, {"time": 282, "velocity": 108, "pitch": 55, "instrument": 24, "track": 2, "qtime": 42, "isDrum": false}, {"time": 283, "velocity": 0, "pitch": 45, "instrument": 24, "track": 2, "qtime": 43, "isDrum": false}, {"time": 287, "velocity": 0, "pitch": 67, "instrument": 24, "track": 2, "qtime": 47, "isDrum": false}, {"time": 288, "velocity": 0, "pitch": 55, "instrument": 24, "track": 2, "qtime": 48, "isDrum": false}, {"time": 288, "velocity": 0, "pitch": 60, "instrument": 24, "track": 2, "qtime": 48, "isDrum": false}, {"time": 288, "velocity": 0, "pitch": 64, "instrument": 24, "track": 2, "qtime": 48, "isDrum": false}, {"time": 288, "velocity": 108, "pitch": 48, "instrument": 24, "track": 2, "qtime": 0, "isDrum": false}, {"time": 289, "velocity": 0, "pitch": 62, "instrument": 24, "track": 2, "qtime": 1, "isDrum": false}, {"time": 300, "velocity": 108, "pitch": 55, "instrument": 24, "track": 2, "qtime": 12, "isDrum": false}, {"time": 300, "velocity": 108, "pitch": 60, "instrument": 24, "track": 2, "qtime": 12, "isDrum": false}, {"time": 300, "velocity": 108, "pitch": 64, "instrument": 24, "track": 2, "qtime": 12, "isDrum": false}, {"time": 300, "velocity": 108, "pitch": 67, "instrument": 24, "track": 2, "qtime": 12, "isDrum": false}, {"time": 309, "velocity": 0, "pitch": 55, "instrument": 24, "track": 2, "qtime": 21, "isDrum": false}, {"time": 309, "velocity": 0, "pitch": 60, "instrument": 24, "track": 2, "qtime": 21, "isDrum": false}, {"time": 309, "velocity": 0, "pitch": 64, "instrument": 24, "track": 2, "qtime": 21, "isDrum": false}, {"time": 309, "velocity": 0, "pitch": 67, "instrument": 24, "track": 2, "qtime": 21, "isDrum": false}, {"time": 318, "velocity": 108, "pitch": 55, "instrument": 24, "track": 2, "qtime": 30, "isDrum": false}, {"time": 318, "velocity": 108, "pitch": 60, "instrument": 24, "track": 2, "qtime": 30, "isDrum": false}, {"time": 318, "velocity": 108, "pitch": 64, "instrument": 24, "track": 2, "qtime": 30, "isDrum": false}, {"time": 318, "velocity": 108, "pitch": 67, "instrument": 24, "track": 2, "qtime": 30, "isDrum": false}, {"time": 323, "velocity": 0, "pitch": 60, "instrument": 24, "track": 2, "qtime": 35, "isDrum": false}, {"time": 323, "velocity": 0, "pitch": 64, "instrument": 24, "track": 2, "qtime": 35, "isDrum": false}, {"time": 323, "velocity": 0, "pitch": 67, "instrument": 24, "track": 2, "qtime": 35, "isDrum": false}, {"time": 324, "velocity": 0, "pitch": 55, "instrument": 24, "track": 2, "qtime": 36, "isDrum": false}, {"time": 330, "velocity": 108, "pitch": 55, "instrument": 24, "track": 2, "qtime": 42, "isDrum": false}, {"time": 330, "velocity": 108, "pitch": 62, "instrument": 24, "track": 2, "qtime": 42, "isDrum": false}, {"time": 330, "velocity": 108, "pitch": 64, "instrument": 24, "track": 2, "qtime": 42, "isDrum": false}, {"time": 330, "velocity": 108, "pitch": 67, "instrument": 24, "track": 2, "qtime": 42, "isDrum": false}, {"time": 348, "velocity": 0, "pitch": 62, "instrument": 24, "track": 2, "qtime": 12, "isDrum": false}, {"time": 348, "velocity": 0, "pitch": 67, "instrument": 24, "track": 2, "qtime": 12, "isDrum": false}, {"time": 349, "velocity": 0, "pitch": 55, "instrument": 24, "track": 2, "qtime": 13, "isDrum": false}, {"time": 349, "velocity": 0, "pitch": 64, "instrument": 24, "track": 2, "qtime": 13, "isDrum": false}, {"time": 354, "velocity": 108, "pitch": 60, "instrument": 24, "track": 2, "qtime": 18, "isDrum": false}, {"time": 354, "velocity": 108, "pitch": 67, "instrument": 24, "track": 2, "qtime": 18, "isDrum": false}, {"time": 363, "velocity": 0, "pitch": 67, "instrument": 24, "track": 2, "qtime": 27, "isDrum": false}, {"time": 366, "velocity": 0, "pitch": 60, "instrument": 24, "track": 2, "qtime": 30, "isDrum": false}, {"time": 383, "velocity": 0, "pitch": 48, "instrument": 24, "track": 2, "qtime": 47, "isDrum": false}, {"time": 12, "velocity": 120, "pitch": 62, "instrument": 0, "track": 9, "qtime": 12, "isDrum": true}, {"time": 14, "velocity": 0, "pitch": 62, "instrument": 0, "track": 9, "qtime": 14, "isDrum": true}, {"time": 18, "velocity": 120, "pitch": 64, "instrument": 0, "track": 9, "qtime": 18, "isDrum": true}, {"time": 19, "velocity": 0, "pitch": 64, "instrument": 0, "track": 9, "qtime": 19, "isDrum": true}, {"time": 36, "velocity": 120, "pitch": 62, "instrument": 0, "track": 9, "qtime": 36, "isDrum": true}, {"time": 39, "velocity": 0, "pitch": 62, "instrument": 0, "track": 9, "qtime": 39, "isDrum": true}, {"time": 60, "velocity": 120, "pitch": 62, "instrument": 0, "track": 9, "qtime": 12, "isDrum": true}, {"time": 62, "velocity": 0, "pitch": 62, "instrument": 0, "track": 9, "qtime": 14, "isDrum": true}, {"time": 66, "velocity": 120, "pitch": 64, "instrument": 0, "track": 9, "qtime": 18, "isDrum": true}, {"time": 67, "velocity": 0, "pitch": 64, "instrument": 0, "track": 9, "qtime": 19, "isDrum": true}, {"time": 84, "velocity": 120, "pitch": 62, "instrument": 0, "track": 9, "qtime": 36, "isDrum": true}, {"time": 86, "velocity": 0, "pitch": 62, "instrument": 0, "track": 9, "qtime": 38, "isDrum": true}, {"time": 108, "velocity": 120, "pitch": 62, "instrument": 0, "track": 9, "qtime": 12, "isDrum": true}, {"time": 110, "velocity": 0, "pitch": 62, "instrument": 0, "track": 9, "qtime": 14, "isDrum": true}, {"time": 114, "velocity": 120, "pitch": 64, "instrument": 0, "track": 9, "qtime": 18, "isDrum": true}, {"time": 115, "velocity": 0, "pitch": 64, "instrument": 0, "track": 9, "qtime": 19, "isDrum": true}, {"time": 132, "velocity": 120, "pitch": 62, "instrument": 0, "track": 9, "qtime": 36, "isDrum": true}, {"time": 135, "velocity": 0, "pitch": 62, "instrument": 0, "track": 9, "qtime": 39, "isDrum": true}, {"time": 156, "velocity": 120, "pitch": 62, "instrument": 0, "track": 9, "qtime": 12, "isDrum": true}, {"time": 158, "velocity": 0, "pitch": 62, "instrument": 0, "track": 9, "qtime": 14, "isDrum": true}, {"time": 162, "velocity": 120, "pitch": 64, "instrument": 0, "track": 9, "qtime": 18, "isDrum": true}, {"time": 163, "velocity": 0, "pitch": 64, "instrument": 0, "track": 9, "qtime": 19, "isDrum": true}, {"time": 180, "velocity": 120, "pitch": 62, "instrument": 0, "track": 9, "qtime": 36, "isDrum": true}, {"time": 182, "velocity": 0, "pitch": 62, "instrument": 0, "track": 9, "qtime": 38, "isDrum": true}, {"time": 204, "velocity": 120, "pitch": 62, "instrument": 0, "track": 9, "qtime": 12, "isDrum": true}, {"time": 206, "velocity": 0, "pitch": 62, "instrument": 0, "track": 9, "qtime": 14, "isDrum": true}, {"time": 210, "velocity": 120, "pitch": 64, "instrument": 0, "track": 9, "qtime": 18, "isDrum": true}, {"time": 211, "velocity": 0, "pitch": 64, "instrument": 0, "track": 9, "qtime": 19, "isDrum": true}, {"time": 228, "velocity": 120, "pitch": 62, "instrument": 0, "track": 9, "qtime": 36, "isDrum": true}, {"time": 231, "velocity": 0, "pitch": 62, "instrument": 0, "track": 9, "qtime": 39, "isDrum": true}, {"time": 252, "velocity": 120, "pitch": 62, "instrument": 0, "track": 9, "qtime": 12, "isDrum": true}, {"time": 254, "velocity": 0, "pitch": 62, "instrument": 0, "track": 9, "qtime": 14, "isDrum": true}, {"time": 258, "velocity": 120, "pitch": 64, "instrument": 0, "track": 9, "qtime": 18, "isDrum": true}, {"time": 259, "velocity": 0, "pitch": 64, "instrument": 0, "track": 9, "qtime": 19, "isDrum": true}, {"time": 276, "velocity": 120, "pitch": 62, "instrument": 0, "track": 9, "qtime": 36, "isDrum": true}, {"time": 278, "velocity": 0, "pitch": 62, "instrument": 0, "track": 9, "qtime": 38, "isDrum": true}, {"time": 300, "velocity": 120, "pitch": 62, "instrument": 0, "track": 9, "qtime": 12, "isDrum": true}, {"time": 302, "velocity": 0, "pitch": 62, "instrument": 0, "track": 9, "qtime": 14, "isDrum": true}, {"time": 306, "velocity": 120, "pitch": 64, "instrument": 0, "track": 9, "qtime": 18, "isDrum": true}, {"time": 307, "velocity": 0, "pitch": 64, "instrument": 0, "track": 9, "qtime": 19, "isDrum": true}, {"time": 324, "velocity": 120, "pitch": 62, "instrument": 0, "track": 9, "qtime": 36, "isDrum": true}, {"time": 327, "velocity": 0, "pitch": 62, "instrument": 0, "track": 9, "qtime": 39, "isDrum": true}, {"time": 348, "velocity": 120, "pitch": 62, "instrument": 0, "track": 9, "qtime": 12, "isDrum": true}, {"time": 350, "velocity": 0, "pitch": 62, "instrument": 0, "track": 9, "qtime": 14, "isDrum": true}, {"time": 354, "velocity": 120, "pitch": 64, "instrument": 0, "track": 9, "qtime": 18, "isDrum": true}, {"time": 355, "velocity": 0, "pitch": 64, "instrument": 0, "track": 9, "qtime": 19, "isDrum": true}, {"time": 372, "velocity": 120, "pitch": 62, "instrument": 0, "track": 9, "qtime": 36, "isDrum": true}, {"time": 374, "velocity": 0, "pitch": 62, "instrument": 0, "track": 9, "qtime": 38, "isDrum": true}], "resolution": 12, "tempo": 144, "minPitch": 31, "maxPitch": 67, "validSegments": [0], "validTracks": [15]}, "audio": "https://www.sfu.ca/~jeffe/examples/8b_ex8_density_low.mp3"}, {"src": "gen/8b_ex8_density_medium_low.json", "highlights": [[], [], [], [0, 1, 2, 3, 4, 5, 6, 7]], "caption": "Resample the drum track in 19a with medium-low density.", "sample_id": "19c", "mixer": [8, 8, 8, 9], "json": {"tracks": [{"bars": [{"events": [0, 1, 2, 3, 4, 5, 6, 7, 8], "isFourFour": true, "hasNotes": true, "time": 0}, {"events": [9, 10, 11, 12, 13, 14, 15, 16, 17, 18, 19, 20, 21, 22, 23, 24, 25, 26, 27, 28, 29], "isFourFour": true, "hasNotes": true, "time": 48}, {"events": [30, 31, 32, 33, 34, 35, 36, 37, 38, 39, 40, 41, 42, 43, 44, 45, 46], "isFourFour": true, "hasNotes": true, "time": 96}, {"events": [47, 48, 49, 50, 51, 52, 53, 54, 55, 56], "isFourFour": true, "hasNotes": true, "time": 144}, {"events": [57, 58, 59, 60, 61, 62, 63, 64, 65, 66, 67, 68, 69, 70, 71, 72, 73, 74], "isFourFour": true, "hasNotes": true, "time": 192}, {"events": [75, 76, 77, 78, 79, 80, 81, 82, 83, 84, 85, 86, 87, 88, 89, 90, 91, 92, 93], "isFourFour": true, "hasNotes": true, "time": 240}, {"events": [94, 95, 96, 97, 98, 99, 100, 101, 102], "isFourFour": true, "hasNotes": true, "time": 288}, {"events": [103, 104, 105, 106, 107, 108, 109, 110, 111, 112, 113, 114, 115, 116, 117, 118, 119], "isFourFour": true, "hasNotes": true, "time": 336}], "isDrum": false, "minPitch": 36, "maxPitch": 64, "instrument": 4, "avPolyphony": 3.66576076, "noteDensity": 9, "noteDensityV2": 5}, {"bars": [{"events": [120, 121, 122, 123, 124], "isFourFour": true, "hasNotes": true, "time": 0}, {"events": [125, 126, 127, 128, 129, 130, 131, 132, 133, 134], "isFourFour": true, "hasNotes": true, "time": 48}, {"events": [135, 136, 137, 138, 139, 140], "isFourFour": true, "hasNotes": true, "time": 96}, {"events": [141, 142, 143, 144, 145, 146, 147, 148, 149], "isFourFour": true, "hasNotes": true, "time": 144}, {"events": [150, 151, 152, 153, 154], "isFourFour": true, "hasNotes": true, "time": 192}, {"events": [155, 156, 157, 158, 159, 160, 161, 162, 163, 164, 165, 166, 167], "isFourFour": true, "hasNotes": true, "time": 240}, {"events": [168, 169, 170, 171, 172], "isFourFour": true, "hasNotes": true, "time": 288}, {"events": [173, 174, 175, 176, 177, 178, 179, 180, 181], "isFourFour": true, "hasNotes": true, "time": 336}], "isDrum": false, "minPitch": 31, "maxPitch": 45, "instrument": 33, "avPolyphony": 1.00677967, "noteDensity": 8, "noteDensityV2": 3}, {"bars": [{"events": [182, 183, 184, 185, 186, 187, 188, 189, 190, 191, 192, 193], "isFourFour": true, "hasNotes": true, "time": 0}, {"events": [194, 195, 196, 197, 198, 199, 200, 201, 202, 203, 204, 205, 206, 207, 208, 209, 210, 211, 212], "isFourFour": true, "hasNotes": true, "time": 48}, {"events": [213, 214, 215, 216, 217, 218, 219, 220, 221, 222, 223, 224, 225, 226, 227, 228, 229, 230, 231, 232, 233, 234, 235, 236], "isFourFour": true, "hasNotes": true, "time": 96}, {"events": [237, 238, 239, 240, 241, 242, 243, 244, 245, 246, 247, 248, 249, 250, 251], "isFourFour": true, "hasNotes": true, "time": 144}, {"events": [252, 253, 254, 255, 256, 257, 258, 259, 260, 261, 262, 263, 264, 265, 266], "isFourFour": true, "hasNotes": true, "time": 192}, {"events": [267, 268, 269, 270, 271, 272, 273, 274, 275, 276, 277, 278, 279, 280, 281, 282, 283, 284, 285, 286, 287, 288], "isFourFour": true, "hasNotes": true, "time": 240}, {"events": [289, 290, 291, 292, 293, 294, 295, 296, 297, 298, 299, 300, 301, 302, 303, 304, 305, 306, 307, 308, 309, 310], "isFourFour": true, "hasNotes": true, "time": 288}, {"events": [311, 312, 313, 314, 315, 316, 317, 318, 319], "isFourFour": true, "hasNotes": true, "time": 336}], "isDrum": false, "minPitch": 45, "maxPitch": 67, "instrument": 24, "avPolyphony": 4.01566601, "noteDensity": 9, "noteDensityV2": 5}, {"bars": [{"events": [320, 321, 322, 323, 324, 325, 326, 327, 328, 329, 330, 331, 332, 333, 334, 335, 336, 337, 338, 339], "isFourFour": true, "hasNotes": true, "time": 0}, {"events": [340, 341, 342, 343, 344, 345, 346, 347, 348, 349, 350, 351, 352, 353, 354, 355, 356, 357, 358, 359], "isFourFour": true, "hasNotes": true, "time": 48}, {"events": [360, 361, 362, 363, 364, 365, 366, 367, 368, 369, 370, 371, 372, 373], "isFourFour": true, "hasNotes": true, "time": 96}, {"events": [374, 375, 376, 377, 378, 379, 380, 381, 382, 383, 384, 385], "isFourFour": true, "hasNotes": true, "time": 144}, {"events": [386, 387, 388, 389, 390, 391, 392, 393, 394, 395, 396, 397, 398, 399, 400, 401, 402, 403, 404, 405], "isFourFour": true, "hasNotes": true, "time": 192}, {"events": [406, 407, 408, 409, 410, 411, 412, 413, 414, 415, 416, 417, 418, 419, 420, 421, 422, 423, 424, 425], "isFourFour": true, "hasNotes": true, "time": 240}, {"events": [426, 427, 428, 429, 430, 431, 432, 433, 434, 435, 436, 437, 438, 439], "isFourFour": true, "hasNotes": true, "time": 288}, {"events": [440, 441, 442, 443, 444, 445, 446, 447, 448, 449, 450, 451], "isFourFour": true, "hasNotes": true, "time": 336}], "isDrum": true, "minPitch": 36, "maxPitch": 42, "instrument": 0, "avPolyphony": 1.375, "noteDensity": 9, "noteDensityV2": 3}], "events": [{"time": 0, "velocity": 108, "pitch": 45, "instrument": 4, "track": 0, "qtime": 0, "isDrum": false}, {"time": 0, "velocity": 108, "pitch": 55, "instrument": 4, "track": 0, "qtime": 0, "isDrum": false}, {"time": 0, "velocity": 108, "pitch": 59, "instrument": 4, "track": 0, "qtime": 0, "isDrum": false}, {"time": 0, "velocity": 108, "pitch": 60, "instrument": 4, "track": 0, "qtime": 0, "isDrum": false}, {"time": 0, "velocity": 108, "pitch": 64, "instrument": 4, "track": 0, "qtime": 0, "isDrum": false}, {"time": 44, "velocity": 0, "pitch": 55, "instrument": 4, "track": 0, "qtime": 44, "isDrum": false}, {"time": 44, "velocity": 0, "pitch": 59, "instrument": 4, "track": 0, "qtime": 44, "isDrum": false}, {"time": 44, "velocity": 0, "pitch": 60, "instrument": 4, "track": 0, "qtime": 44, "isDrum": false}, {"time": 44, "velocity": 0, "pitch": 64, "instrument": 4, "track": 0, "qtime": 44, "isDrum": false}, {"time": 48, "velocity": 108, "pitch": 55, "instrument": 4, "track": 0, "qtime": 0, "isDrum": false}, {"time": 48, "velocity": 108, "pitch": 59, "instrument": 4, "track": 0, "qtime": 0, "isDrum": false}, {"time": 48, "velocity": 108, "pitch": 60, "instrument": 4, "track": 0, "qtime": 0, "isDrum": false}, {"time": 48, "velocity": 108, "pitch": 64, "instrument": 4, "track": 0, "qtime": 0, "isDrum": false}, {"time": 49, "velocity": 0, "pitch": 59, "instrument": 4, "track": 0, "qtime": 1, "isDrum": false}, {"time": 49, "velocity": 0, "pitch": 60, "instrument": 4, "track": 0, "qtime": 1, "isDrum": false}, {"time": 50, "velocity": 0, "pitch": 55, "instrument": 4, "track": 0, "qtime": 2, "isDrum": false}, {"time": 50, "velocity": 0, "pitch": 64, "instrument": 4, "track": 0, "qtime": 2, "isDrum": false}, {"time": 66, "velocity": 108, "pitch": 55, "instrument": 4, "track": 0, "qtime": 18, "isDrum": false}, {"time": 66, "velocity": 108, "pitch": 59, "instrument": 4, "track": 0, "qtime": 18, "isDrum": false}, {"time": 66, "velocity": 108, "pitch": 60, "instrument": 4, "track": 0, "qtime": 18, "isDrum": false}, {"time": 66, "velocity": 108, "pitch": 64, "instrument": 4, "track": 0, "qtime": 18, "isDrum": false}, {"time": 78, "velocity": 0, "pitch": 59, "instrument": 4, "track": 0, "qtime": 30, "isDrum": false}, {"time": 78, "velocity": 108, "pitch": 57, "instrument": 4, "track": 0, "qtime": 30, "isDrum": false}, {"time": 79, "velocity": 0, "pitch": 55, "instrument": 4, "track": 0, "qtime": 31, "isDrum": false}, {"time": 79, "velocity": 0, "pitch": 60, "instrument": 4, "track": 0, "qtime": 31, "isDrum": false}, {"time": 79, "velocity": 0, "pitch": 64, "instrument": 4, "track": 0, "qtime": 31, "isDrum": false}, {"time": 80, "velocity": 0, "pitch": 57, "instrument": 4, "track": 0, "qtime": 32, "isDrum": false}, {"time": 84, "velocity": 108, "pitch": 43, "instrument": 4, "track": 0, "qtime": 36, "isDrum": false}, {"time": 85, "velocity": 0, "pitch": 45, "instrument": 4, "track": 0, "qtime": 37, "isDrum": false}, {"time": 96, "velocity": 0, "pitch": 43, "instrument": 4, "track": 0, "qtime": 48, "isDrum": false}, {"time": 96, "velocity": 108, "pitch": 36, "instrument": 4, "track": 0, "qtime": 0, "isDrum": false}, {"time": 96, "velocity": 108, "pitch": 52, "instrument": 4, "track": 0, "qtime": 0, "isDrum": false}, {"time": 96, "velocity": 108, "pitch": 55, "instrument": 4, "track": 0, "qtime": 0, "isDrum": false}, {"time": 96, "velocity": 108, "pitch": 59, "instrument": 4, "track": 0, "qtime": 0, "isDrum": false}, {"time": 96, "velocity": 108, "pitch": 62, "instrument": 4, "track": 0, "qtime": 0, "isDrum": false}, {"time": 131, "velocity": 0, "pitch": 62, "instrument": 4, "track": 0, "qtime": 35, "isDrum": false}, {"time": 132, "velocity": 0, "pitch": 59, "instrument": 4, "track": 0, "qtime": 36, "isDrum": false}, {"time": 133, "velocity": 0, "pitch": 52, "instrument": 4, "track": 0, "qtime": 37, "isDrum": false}, {"time": 133, "velocity": 0, "pitch": 55, "instrument": 4, "track": 0, "qtime": 37, "isDrum": false}, {"time": 138, "velocity": 108, "pitch": 52, "instrument": 4, "track": 0, "qtime": 42, "isDrum": false}, {"time": 138, "velocity": 108, "pitch": 55, "instrument": 4, "track": 0, "qtime": 42, "isDrum": false}, {"time": 138, "velocity": 108, "pitch": 59, "instrument": 4, "track": 0, "qtime": 42, "isDrum": false}, {"time": 138, "velocity": 108, "pitch": 60, "instrument": 4, "track": 0, "qtime": 42, "isDrum": false}, {"time": 139, "velocity": 0, "pitch": 52, "instrument": 4, "track": 0, "qtime": 43, "isDrum": false}, {"time": 139, "velocity": 0, "pitch": 55, "instrument": 4, "track": 0, "qtime": 43, "isDrum": false}, {"time": 139, "velocity": 0, "pitch": 59, "instrument": 4, "track": 0, "qtime": 43, "isDrum": false}, {"time": 140, "velocity": 0, "pitch": 60, "instrument": 4, "track": 0, "qtime": 44, "isDrum": false}, {"time": 153, "velocity": 108, "pitch": 52, "instrument": 4, "track": 0, "qtime": 9, "isDrum": false}, {"time": 162, "velocity": 108, "pitch": 55, "instrument": 4, "track": 0, "qtime": 18, "isDrum": false}, {"time": 162, "velocity": 108, "pitch": 60, "instrument": 4, "track": 0, "qtime": 18, "isDrum": false}, {"time": 172, "velocity": 0, "pitch": 52, "instrument": 4, "track": 0, "qtime": 28, "isDrum": false}, {"time": 174, "velocity": 108, "pitch": 52, "instrument": 4, "track": 0, "qtime": 30, "isDrum": false}, {"time": 180, "velocity": 0, "pitch": 55, "instrument": 4, "track": 0, "qtime": 36, "isDrum": false}, {"time": 180, "velocity": 108, "pitch": 43, "instrument": 4, "track": 0, "qtime": 36, "isDrum": false}, {"time": 181, "velocity": 0, "pitch": 52, "instrument": 4, "track": 0, "qtime": 37, "isDrum": false}, {"time": 181, "velocity": 0, "pitch": 60, "instrument": 4, "track": 0, "qtime": 37, "isDrum": false}, {"time": 182, "velocity": 0, "pitch": 36, "instrument": 4, "track": 0, "qtime": 38, "isDrum": false}, {"time": 192, "velocity": 108, "pitch": 45, "instrument": 4, "track": 0, "qtime": 0, "isDrum": false}, {"time": 192, "velocity": 108, "pitch": 55, "instrument": 4, "track": 0, "qtime": 0, "isDrum": false}, {"time": 192, "velocity": 108, "pitch": 57, "instrument": 4, "track": 0, "qtime": 0, "isDrum": false}, {"time": 192, "velocity": 108, "pitch": 60, "instrument": 4, "track": 0, "qtime": 0, "isDrum": false}, {"time": 192, "velocity": 108, "pitch": 64, "instrument": 4, "track": 0, "qtime": 0, "isDrum": false}, {"time": 193, "velocity": 0, "pitch": 43, "instrument": 4, "track": 0, "qtime": 1, "isDrum": false}, {"time": 230, "velocity": 0, "pitch": 55, "instrument": 4, "track": 0, "qtime": 38, "isDrum": false}, {"time": 230, "velocity": 0, "pitch": 57, "instrument": 4, "track": 0, "qtime": 38, "isDrum": false}, {"time": 230, "velocity": 0, "pitch": 60, "instrument": 4, "track": 0, "qtime": 38, "isDrum": false}, {"time": 230, "velocity": 0, "pitch": 64, "instrument": 4, "track": 0, "qtime": 38, "isDrum": false}, {"time": 234, "velocity": 108, "pitch": 55, "instrument": 4, "track": 0, "qtime": 42, "isDrum": false}, {"time": 234, "velocity": 108, "pitch": 57, "instrument": 4, "track": 0, "qtime": 42, "isDrum": false}, {"time": 234, "velocity": 108, "pitch": 60, "instrument": 4, "track": 0, "qtime": 42, "isDrum": false}, {"time": 234, "velocity": 108, "pitch": 64, "instrument": 4, "track": 0, "qtime": 42, "isDrum": false}, {"time": 235, "velocity": 0, "pitch": 57, "instrument": 4, "track": 0, "qtime": 43, "isDrum": false}, {"time": 235, "velocity": 0, "pitch": 60, "instrument": 4, "track": 0, "qtime": 43, "isDrum": false}, {"time": 235, "velocity": 0, "pitch": 64, "instrument": 4, "track": 0, "qtime": 43, "isDrum": false}, {"time": 236, "velocity": 0, "pitch": 55, "instrument": 4, "track": 0, "qtime": 44, "isDrum": false}, {"time": 246, "velocity": 108, "pitch": 55, "instrument": 4, "track": 0, "qtime": 6, "isDrum": false}, {"time": 246, "velocity": 108, "pitch": 57, "instrument": 4, "track": 0, "qtime": 6, "isDrum": false}, {"time": 246, "velocity": 108, "pitch": 60, "instrument": 4, "track": 0, "qtime": 6, "isDrum": false}, {"time": 246, "velocity": 108, "pitch": 64, "instrument": 4, "track": 0, "qtime": 6, "isDrum": false}, {"time": 256, "velocity": 0, "pitch": 64, "instrument": 4, "track": 0, "qtime": 16, "isDrum": false}, {"time": 257, "velocity": 0, "pitch": 55, "instrument": 4, "track": 0, "qtime": 17, "isDrum": false}, {"time": 257, "velocity": 0, "pitch": 57, "instrument": 4, "track": 0, "qtime": 17, "isDrum": false}, {"time": 257, "velocity": 0, "pitch": 60, "instrument": 4, "track": 0, "qtime": 17, "isDrum": false}, {"time": 258, "velocity": 108, "pitch": 55, "instrument": 4, "track": 0, "qtime": 18, "isDrum": false}, {"time": 258, "velocity": 108, "pitch": 59, "instrument": 4, "track": 0, "qtime": 18, "isDrum": false}, {"time": 258, "velocity": 108, "pitch": 60, "instrument": 4, "track": 0, "qtime": 18, "isDrum": false}, {"time": 258, "velocity": 108, "pitch": 64, "instrument": 4, "track": 0, "qtime": 18, "isDrum": false}, {"time": 276, "velocity": 0, "pitch": 59, "instrument": 4, "track": 0, "qtime": 36, "isDrum": false}, {"time": 276, "velocity": 108, "pitch": 57, "instrument": 4, "track": 0, "qtime": 36, "isDrum": false}, {"time": 277, "velocity": 0, "pitch": 64, "instrument": 4, "track": 0, "qtime": 37, "isDrum": false}, {"time": 278, "velocity": 0, "pitch": 55, "instrument": 4, "track": 0, "qtime": 38, "isDrum": false}, {"time": 278, "velocity": 0, "pitch": 60, "instrument": 4, "track": 0, "qtime": 38, "isDrum": false}, {"time": 279, "velocity": 0, "pitch": 57, "instrument": 4, "track": 0, "qtime": 39, "isDrum": false}, {"time": 282, "velocity": 0, "pitch": 45, "instrument": 4, "track": 0, "qtime": 42, "isDrum": false}, {"time": 288, "velocity": 108, "pitch": 36, "instrument": 4, "track": 0, "qtime": 0, "isDrum": false}, {"time": 288, "velocity": 108, "pitch": 52, "instrument": 4, "track": 0, "qtime": 0, "isDrum": false}, {"time": 288, "velocity": 108, "pitch": 55, "instrument": 4, "track": 0, "qtime": 0, "isDrum": false}, {"time": 288, "velocity": 108, "pitch": 57, "instrument": 4, "track": 0, "qtime": 0, "isDrum": false}, {"time": 288, "velocity": 108, "pitch": 60, "instrument": 4, "track": 0, "qtime": 0, "isDrum": false}, {"time": 333, "velocity": 0, "pitch": 52, "instrument": 4, "track": 0, "qtime": 45, "isDrum": false}, {"time": 333, "velocity": 0, "pitch": 57, "instrument": 4, "track": 0, "qtime": 45, "isDrum": false}, {"time": 333, "velocity": 0, "pitch": 60, "instrument": 4, "track": 0, "qtime": 45, "isDrum": false}, {"time": 334, "velocity": 0, "pitch": 55, "instrument": 4, "track": 0, "qtime": 46, "isDrum": false}, {"time": 336, "velocity": 108, "pitch": 52, "instrument": 4, "track": 0, "qtime": 0, "isDrum": false}, {"time": 336, "velocity": 108, "pitch": 55, "instrument": 4, "track": 0, "qtime": 0, "isDrum": false}, {"time": 336, "velocity": 108, "pitch": 57, "instrument": 4, "track": 0, "qtime": 0, "isDrum": false}, {"time": 336, "velocity": 108, "pitch": 60, "instrument": 4, "track": 0, "qtime": 0, "isDrum": false}, {"time": 337, "velocity": 0, "pitch": 52, "instrument": 4, "track": 0, "qtime": 1, "isDrum": false}, {"time": 337, "velocity": 0, "pitch": 55, "instrument": 4, "track": 0, "qtime": 1, "isDrum": false}, {"time": 337, "velocity": 0, "pitch": 57, "instrument": 4, "track": 0, "qtime": 1, "isDrum": false}, {"time": 337, "velocity": 0, "pitch": 60, "instrument": 4, "track": 0, "qtime": 1, "isDrum": false}, {"time": 354, "velocity": 108, "pitch": 52, "instrument": 4, "track": 0, "qtime": 18, "isDrum": false}, {"time": 354, "velocity": 108, "pitch": 57, "instrument": 4, "track": 0, "qtime": 18, "isDrum": false}, {"time": 354, "velocity": 108, "pitch": 60, "instrument": 4, "track": 0, "qtime": 18, "isDrum": false}, {"time": 366, "velocity": 108, "pitch": 55, "instrument": 4, "track": 0, "qtime": 30, "isDrum": false}, {"time": 372, "velocity": 0, "pitch": 36, "instrument": 4, "track": 0, "qtime": 36, "isDrum": false}, {"time": 372, "velocity": 0, "pitch": 52, "instrument": 4, "track": 0, "qtime": 36, "isDrum": false}, {"time": 374, "velocity": 0, "pitch": 55, "instrument": 4, "track": 0, "qtime": 38, "isDrum": false}, {"time": 374, "velocity": 0, "pitch": 57, "instrument": 4, "track": 0, "qtime": 38, "isDrum": false}, {"time": 374, "velocity": 0, "pitch": 60, "instrument": 4, "track": 0, "qtime": 38, "isDrum": false}, {"time": 0, "velocity": 108, "pitch": 33, "instrument": 33, "track": 1, "qtime": 0, "isDrum": false}, {"time": 16, "velocity": 0, "pitch": 33, "instrument": 33, "track": 1, "qtime": 16, "isDrum": false}, {"time": 18, "velocity": 108, "pitch": 33, "instrument": 33, "track": 1, "qtime": 18, "isDrum": false}, {"time": 28, "velocity": 0, "pitch": 33, "instrument": 33, "track": 1, "qtime": 28, "isDrum": false}, {"time": 36, "velocity": 108, "pitch": 33, "instrument": 33, "track": 1, "qtime": 36, "isDrum": false}, {"time": 50, "velocity": 0, "pitch": 33, "instrument": 33, "track": 1, "qtime": 2, "isDrum": false}, {"time": 54, "velocity": 108, "pitch": 33, "instrument": 33, "track": 1, "qtime": 6, "isDrum": false}, {"time": 65, "velocity": 0, "pitch": 33, "instrument": 33, "track": 1, "qtime": 17, "isDrum": false}, {"time": 66, "velocity": 108, "pitch": 33, "instrument": 33, "track": 1, "qtime": 18, "isDrum": false}, {"time": 68, "velocity": 0, "pitch": 33, "instrument": 33, "track": 1, "qtime": 20, "isDrum": false}, {"time": 72, "velocity": 108, "pitch": 33, "instrument": 33, "track": 1, "qtime": 24, "isDrum": false}, {"time": 82, "velocity": 0, "pitch": 33, "instrument": 33, "track": 1, "qtime": 34, "isDrum": false}, {"time": 84, "velocity": 108, "pitch": 33, "instrument": 33, "track": 1, "qtime": 36, "isDrum": false}, {"time": 90, "velocity": 0, "pitch": 33, "instrument": 33, "track": 1, "qtime": 42, "isDrum": false}, {"time": 90, "velocity": 108, "pitch": 31, "instrument": 33, "track": 1, "qtime": 42, "isDrum": false}, {"time": 96, "velocity": 108, "pitch": 36, "instrument": 33, "track": 1, "qtime": 0, "isDrum": false}, {"time": 97, "velocity": 0, "pitch": 31, "instrument": 33, "track": 1, "qtime": 1, "isDrum": false}, {"time": 110, "velocity": 0, "pitch": 36, "instrument": 33, "track": 1, "qtime": 14, "isDrum": false}, {"time": 114, "velocity": 108, "pitch": 36, "instrument": 33, "track": 1, "qtime": 18, "isDrum": false}, {"time": 124, "velocity": 0, "pitch": 36, "instrument": 33, "track": 1, "qtime": 28, "isDrum": false}, {"time": 132, "velocity": 108, "pitch": 36, "instrument": 33, "track": 1, "qtime": 36, "isDrum": false}, {"time": 147, "velocity": 0, "pitch": 36, "instrument": 33, "track": 1, "qtime": 3, "isDrum": false}, {"time": 150, "velocity": 108, "pitch": 36, "instrument": 33, "track": 1, "qtime": 6, "isDrum": false}, {"time": 161, "velocity": 0, "pitch": 36, "instrument": 33, "track": 1, "qtime": 17, "isDrum": false}, {"time": 168, "velocity": 108, "pitch": 36, "instrument": 33, "track": 1, "qtime": 24, "isDrum": false}, {"time": 180, "velocity": 0, "pitch": 36, "instrument": 33, "track": 1, "qtime": 36, "isDrum": false}, {"time": 180, "velocity": 108, "pitch": 31, "instrument": 33, "track": 1, "qtime": 36, "isDrum": false}, {"time": 186, "velocity": 0, "pitch": 31, "instrument": 33, "track": 1, "qtime": 42, "isDrum": false}, {"time": 186, "velocity": 108, "pitch": 32, "instrument": 33, "track": 1, "qtime": 42, "isDrum": false}, {"time": 192, "velocity": 0, "pitch": 32, "instrument": 33, "track": 1, "qtime": 48, "isDrum": false}, {"time": 192, "velocity": 108, "pitch": 33, "instrument": 33, "track": 1, "qtime": 0, "isDrum": false}, {"time": 208, "velocity": 0, "pitch": 33, "instrument": 33, "track": 1, "qtime": 16, "isDrum": false}, {"time": 210, "velocity": 108, "pitch": 33, "instrument": 33, "track": 1, "qtime": 18, "isDrum": false}, {"time": 218, "velocity": 0, "pitch": 33, "instrument": 33, "track": 1, "qtime": 26, "isDrum": false}, {"time": 228, "velocity": 108, "pitch": 33, "instrument": 33, "track": 1, "qtime": 36, "isDrum": false}, {"time": 245, "velocity": 0, "pitch": 33, "instrument": 33, "track": 1, "qtime": 5, "isDrum": false}, {"time": 246, "velocity": 108, "pitch": 33, "instrument": 33, "track": 1, "qtime": 6, "isDrum": false}, {"time": 256, "velocity": 0, "pitch": 33, "instrument": 33, "track": 1, "qtime": 16, "isDrum": false}, {"time": 258, "velocity": 108, "pitch": 33, "instrument": 33, "track": 1, "qtime": 18, "isDrum": false}, {"time": 262, "velocity": 0, "pitch": 33, "instrument": 33, "track": 1, "qtime": 22, "isDrum": false}, {"time": 264, "velocity": 108, "pitch": 33, "instrument": 33, "track": 1, "qtime": 24, "isDrum": false}, {"time": 270, "velocity": 0, "pitch": 33, "instrument": 33, "track": 1, "qtime": 30, "isDrum": false}, {"time": 270, "velocity": 108, "pitch": 40, "instrument": 33, "track": 1, "qtime": 30, "isDrum": false}, {"time": 273, "velocity": 0, "pitch": 40, "instrument": 33, "track": 1, "qtime": 33, "isDrum": false}, {"time": 276, "velocity": 108, "pitch": 43, "instrument": 33, "track": 1, "qtime": 36, "isDrum": false}, {"time": 276, "velocity": 108, "pitch": 45, "instrument": 33, "track": 1, "qtime": 36, "isDrum": false}, {"time": 277, "velocity": 0, "pitch": 43, "instrument": 33, "track": 1, "qtime": 37, "isDrum": false}, {"time": 285, "velocity": 0, "pitch": 45, "instrument": 33, "track": 1, "qtime": 45, "isDrum": false}, {"time": 288, "velocity": 108, "pitch": 36, "instrument": 33, "track": 1, "qtime": 0, "isDrum": false}, {"time": 303, "velocity": 0, "pitch": 36, "instrument": 33, "track": 1, "qtime": 15, "isDrum": false}, {"time": 306, "velocity": 108, "pitch": 36, "instrument": 33, "track": 1, "qtime": 18, "isDrum": false}, {"time": 315, "velocity": 0, "pitch": 36, "instrument": 33, "track": 1, "qtime": 27, "isDrum": false}, {"time": 324, "velocity": 108, "pitch": 36, "instrument": 33, "track": 1, "qtime": 36, "isDrum": false}, {"time": 339, "velocity": 0, "pitch": 36, "instrument": 33, "track": 1, "qtime": 3, "isDrum": false}, {"time": 342, "velocity": 108, "pitch": 36, "instrument": 33, "track": 1, "qtime": 6, "isDrum": false}, {"time": 353, "velocity": 0, "pitch": 36, "instrument": 33, "track": 1, "qtime": 17, "isDrum": false}, {"time": 360, "velocity": 108, "pitch": 36, "instrument": 33, "track": 1, "qtime": 24, "isDrum": false}, {"time": 371, "velocity": 0, "pitch": 36, "instrument": 33, "track": 1, "qtime": 35, "isDrum": false}, {"time": 372, "velocity": 108, "pitch": 31, "instrument": 33, "track": 1, "qtime": 36, "isDrum": false}, {"time": 378, "velocity": 0, "pitch": 31, "instrument": 33, "track": 1, "qtime": 42, "isDrum": false}, {"time": 378, "velocity": 108, "pitch": 32, "instrument": 33, "track": 1, "qtime": 42, "isDrum": false}, {"time": 384, "velocity": 0, "pitch": 32, "instrument": 33, "track": 1, "qtime": 48, "isDrum": false}, {"time": 0, "velocity": 108, "pitch": 45, "instrument": 24, "track": 2, "qtime": 0, "isDrum": false}, {"time": 6, "velocity": 108, "pitch": 57, "instrument": 24, "track": 2, "qtime": 6, "isDrum": false}, {"time": 12, "velocity": 108, "pitch": 60, "instrument": 24, "track": 2, "qtime": 12, "isDrum": false}, {"time": 18, "velocity": 108, "pitch": 62, "instrument": 24, "track": 2, "qtime": 18, "isDrum": false}, {"time": 18, "velocity": 108, "pitch": 67, "instrument": 24, "track": 2, "qtime": 18, "isDrum": false}, {"time": 26, "velocity": 0, "pitch": 57, "instrument": 24, "track": 2, "qtime": 26, "isDrum": false}, {"time": 30, "velocity": 0, "pitch": 60, "instrument": 24, "track": 2, "qtime": 30, "isDrum": false}, {"time": 30, "velocity": 108, "pitch": 57, "instrument": 24, "track": 2, "qtime": 30, "isDrum": false}, {"time": 36, "velocity": 108, "pitch": 60, "instrument": 24, "track": 2, "qtime": 36, "isDrum": false}, {"time": 38, "velocity": 0, "pitch": 67, "instrument": 24, "track": 2, "qtime": 38, "isDrum": false}, {"time": 42, "velocity": 108, "pitch": 67, "instrument": 24, "track": 2, "qtime": 42, "isDrum": false}, {"time": 45, "velocity": 0, "pitch": 45, "instrument": 24, "track": 2, "qtime": 45, "isDrum": false}, {"time": 48, "velocity": 108, "pitch": 45, "instrument": 24, "track": 2, "qtime": 0, "isDrum": false}, {"time": 49, "velocity": 0, "pitch": 57, "instrument": 24, "track": 2, "qtime": 1, "isDrum": false}, {"time": 54, "velocity": 108, "pitch": 57, "instrument": 24, "track": 2, "qtime": 6, "isDrum": false}, {"time": 55, "velocity": 0, "pitch": 60, "instrument": 24, "track": 2, "qtime": 7, "isDrum": false}, {"time": 60, "velocity": 108, "pitch": 60, "instrument": 24, "track": 2, "qtime": 12, "isDrum": false}, {"time": 62, "velocity": 0, "pitch": 67, "instrument": 24, "track": 2, "qtime": 14, "isDrum": false}, {"time": 65, "velocity": 0, "pitch": 62, "instrument": 24, "track": 2, "qtime": 17, "isDrum": false}, {"time": 66, "velocity": 108, "pitch": 62, "instrument": 24, "track": 2, "qtime": 18, "isDrum": false}, {"time": 66, "velocity": 108, "pitch": 67, "instrument": 24, "track": 2, "qtime": 18, "isDrum": false}, {"time": 70, "velocity": 0, "pitch": 45, "instrument": 24, "track": 2, "qtime": 22, "isDrum": false}, {"time": 72, "velocity": 108, "pitch": 45, "instrument": 24, "track": 2, "qtime": 24, "isDrum": false}, {"time": 74, "velocity": 0, "pitch": 57, "instrument": 24, "track": 2, "qtime": 26, "isDrum": false}, {"time": 75, "velocity": 0, "pitch": 62, "instrument": 24, "track": 2, "qtime": 27, "isDrum": false}, {"time": 78, "velocity": 0, "pitch": 60, "instrument": 24, "track": 2, "qtime": 30, "isDrum": false}, {"time": 78, "velocity": 108, "pitch": 57, "instrument": 24, "track": 2, "qtime": 30, "isDrum": false}, {"time": 78, "velocity": 108, "pitch": 64, "instrument": 24, "track": 2, "qtime": 30, "isDrum": false}, {"time": 84, "velocity": 108, "pitch": 62, "instrument": 24, "track": 2, "qtime": 36, "isDrum": false}, {"time": 90, "velocity": 108, "pitch": 60, "instrument": 24, "track": 2, "qtime": 42, "isDrum": false}, {"time": 95, "velocity": 0, "pitch": 45, "instrument": 24, "track": 2, "qtime": 47, "isDrum": false}, {"time": 96, "velocity": 108, "pitch": 48, "instrument": 24, "track": 2, "qtime": 0, "isDrum": false}, {"time": 97, "velocity": 0, "pitch": 57, "instrument": 24, "track": 2, "qtime": 1, "isDrum": false}, {"time": 100, "velocity": 0, "pitch": 62, "instrument": 24, "track": 2, "qtime": 4, "isDrum": false}, {"time": 102, "velocity": 108, "pitch": 55, "instrument": 24, "track": 2, "qtime": 6, "isDrum": false}, {"time": 104, "velocity": 0, "pitch": 60, "instrument": 24, "track": 2, "qtime": 8, "isDrum": false}, {"time": 108, "velocity": 108, "pitch": 60, "instrument": 24, "track": 2, "qtime": 12, "isDrum": false}, {"time": 110, "velocity": 0, "pitch": 55, "instrument": 24, "track": 2, "qtime": 14, "isDrum": false}, {"time": 112, "velocity": 0, "pitch": 67, "instrument": 24, "track": 2, "qtime": 16, "isDrum": false}, {"time": 113, "velocity": 0, "pitch": 60, "instrument": 24, "track": 2, "qtime": 17, "isDrum": false}, {"time": 113, "velocity": 0, "pitch": 64, "instrument": 24, "track": 2, "qtime": 17, "isDrum": false}, {"time": 114, "velocity": 108, "pitch": 55, "instrument": 24, "track": 2, "qtime": 18, "isDrum": false}, {"time": 114, "velocity": 108, "pitch": 62, "instrument": 24, "track": 2, "qtime": 18, "isDrum": false}, {"time": 114, "velocity": 108, "pitch": 64, "instrument": 24, "track": 2, "qtime": 18, "isDrum": false}, {"time": 114, "velocity": 108, "pitch": 67, "instrument": 24, "track": 2, "qtime": 18, "isDrum": false}, {"time": 126, "velocity": 108, "pitch": 60, "instrument": 24, "track": 2, "qtime": 30, "isDrum": false}, {"time": 129, "velocity": 0, "pitch": 67, "instrument": 24, "track": 2, "qtime": 33, "isDrum": false}, {"time": 131, "velocity": 0, "pitch": 64, "instrument": 24, "track": 2, "qtime": 35, "isDrum": false}, {"time": 132, "velocity": 108, "pitch": 64, "instrument": 24, "track": 2, "qtime": 36, "isDrum": false}, {"time": 135, "velocity": 0, "pitch": 64, "instrument": 24, "track": 2, "qtime": 39, "isDrum": false}, {"time": 138, "velocity": 0, "pitch": 62, "instrument": 24, "track": 2, "qtime": 42, "isDrum": false}, {"time": 138, "velocity": 108, "pitch": 62, "instrument": 24, "track": 2, "qtime": 42, "isDrum": false}, {"time": 138, "velocity": 108, "pitch": 64, "instrument": 24, "track": 2, "qtime": 42, "isDrum": false}, {"time": 138, "velocity": 108, "pitch": 67, "instrument": 24, "track": 2, "qtime": 42, "isDrum": false}, {"time": 141, "velocity": 0, "pitch": 48, "instrument": 24, "track": 2, "qtime": 45, "isDrum": false}, {"time": 144, "velocity": 108, "pitch": 48, "instrument": 24, "track": 2, "qtime": 0, "isDrum": false}, {"time": 148, "velocity": 0, "pitch": 55, "instrument": 24, "track": 2, "qtime": 4, "isDrum": false}, {"time": 149, "velocity": 0, "pitch": 62, "instrument": 24, "track": 2, "qtime": 5, "isDrum": false}, {"time": 150, "velocity": 108, "pitch": 55, "instrument": 24, "track": 2, "qtime": 6, "isDrum": false}, {"time": 152, "velocity": 0, "pitch": 60, "instrument": 24, "track": 2, "qtime": 8, "isDrum": false}, {"time": 156, "velocity": 108, "pitch": 60, "instrument": 24, "track": 2, "qtime": 12, "isDrum": false}, {"time": 159, "velocity": 0, "pitch": 55, "instrument": 24, "track": 2, "qtime": 15, "isDrum": false}, {"time": 162, "velocity": 108, "pitch": 55, "instrument": 24, "track": 2, "qtime": 18, "isDrum": false}, {"time": 167, "velocity": 0, "pitch": 48, "instrument": 24, "track": 2, "qtime": 23, "isDrum": false}, {"time": 168, "velocity": 108, "pitch": 48, "instrument": 24, "track": 2, "qtime": 24, "isDrum": false}, {"time": 169, "velocity": 0, "pitch": 67, "instrument": 24, "track": 2, "qtime": 25, "isDrum": false}, {"time": 174, "velocity": 108, "pitch": 67, "instrument": 24, "track": 2, "qtime": 30, "isDrum": false}, {"time": 181, "velocity": 0, "pitch": 60, "instrument": 24, "track": 2, "qtime": 37, "isDrum": false}, {"time": 183, "velocity": 108, "pitch": 62, "instrument": 24, "track": 2, "qtime": 39, "isDrum": false}, {"time": 191, "velocity": 0, "pitch": 48, "instrument": 24, "track": 2, "qtime": 47, "isDrum": false}, {"time": 192, "velocity": 108, "pitch": 45, "instrument": 24, "track": 2, "qtime": 0, "isDrum": false}, {"time": 194, "velocity": 0, "pitch": 55, "instrument": 24, "track": 2, "qtime": 2, "isDrum": false}, {"time": 198, "velocity": 108, "pitch": 57, "instrument": 24, "track": 2, "qtime": 6, "isDrum": false}, {"time": 204, "velocity": 108, "pitch": 60, "instrument": 24, "track": 2, "qtime": 12, "isDrum": false}, {"time": 205, "velocity": 0, "pitch": 62, "instrument": 24, "track": 2, "qtime": 13, "isDrum": false}, {"time": 210, "velocity": 108, "pitch": 62, "instrument": 24, "track": 2, "qtime": 18, "isDrum": false}, {"time": 211, "velocity": 0, "pitch": 60, "instrument": 24, "track": 2, "qtime": 19, "isDrum": false}, {"time": 218, "velocity": 0, "pitch": 57, "instrument": 24, "track": 2, "qtime": 26, "isDrum": false}, {"time": 222, "velocity": 108, "pitch": 57, "instrument": 24, "track": 2, "qtime": 30, "isDrum": false}, {"time": 228, "velocity": 108, "pitch": 60, "instrument": 24, "track": 2, "qtime": 36, "isDrum": false}, {"time": 232, "velocity": 0, "pitch": 67, "instrument": 24, "track": 2, "qtime": 40, "isDrum": false}, {"time": 233, "velocity": 0, "pitch": 64, "instrument": 24, "track": 2, "qtime": 41, "isDrum": false}, {"time": 234, "velocity": 108, "pitch": 64, "instrument": 24, "track": 2, "qtime": 42, "isDrum": false}, {"time": 234, "velocity": 108, "pitch": 67, "instrument": 24, "track": 2, "qtime": 42, "isDrum": false}, {"time": 237, "velocity": 0, "pitch": 45, "instrument": 24, "track": 2, "qtime": 45, "isDrum": false}, {"time": 240, "velocity": 108, "pitch": 45, "instrument": 24, "track": 2, "qtime": 0, "isDrum": false}, {"time": 243, "velocity": 0, "pitch": 57, "instrument": 24, "track": 2, "qtime": 3, "isDrum": false}, {"time": 246, "velocity": 0, "pitch": 60, "instrument": 24, "track": 2, "qtime": 6, "isDrum": false}, {"time": 246, "velocity": 108, "pitch": 57, "instrument": 24, "track": 2, "qtime": 6, "isDrum": false}, {"time": 248, "velocity": 0, "pitch": 62, "instrument": 24, "track": 2, "qtime": 8, "isDrum": false}, {"time": 248, "velocity": 0, "pitch": 67, "instrument": 24, "track": 2, "qtime": 8, "isDrum": false}, {"time": 249, "velocity": 0, "pitch": 64, "instrument": 24, "track": 2, "qtime": 9, "isDrum": false}, {"time": 249, "velocity": 108, "pitch": 60, "instrument": 24, "track": 2, "qtime": 9, "isDrum": false}, {"time": 252, "velocity": 108, "pitch": 67, "instrument": 24, "track": 2, "qtime": 12, "isDrum": false}, {"time": 258, "velocity": 108, "pitch": 64, "instrument": 24, "track": 2, "qtime": 18, "isDrum": false}, {"time": 259, "velocity": 0, "pitch": 60, "instrument": 24, "track": 2, "qtime": 19, "isDrum": false}, {"time": 264, "velocity": 0, "pitch": 45, "instrument": 24, "track": 2, "qtime": 24, "isDrum": false}, {"time": 264, "velocity": 108, "pitch": 62, "instrument": 24, "track": 2, "qtime": 24, "isDrum": false}, {"time": 268, "velocity": 0, "pitch": 57, "instrument": 24, "track": 2, "qtime": 28, "isDrum": false}, {"time": 270, "velocity": 108, "pitch": 60, "instrument": 24, "track": 2, "qtime": 30, "isDrum": false}, {"time": 276, "velocity": 108, "pitch": 45, "instrument": 24, "track": 2, "qtime": 36, "isDrum": false}, {"time": 282, "velocity": 108, "pitch": 55, "instrument": 24, "track": 2, "qtime": 42, "isDrum": false}, {"time": 283, "velocity": 0, "pitch": 45, "instrument": 24, "track": 2, "qtime": 43, "isDrum": false}, {"time": 287, "velocity": 0, "pitch": 67, "instrument": 24, "track": 2, "qtime": 47, "isDrum": false}, {"time": 288, "velocity": 0, "pitch": 55, "instrument": 24, "track": 2, "qtime": 48, "isDrum": false}, {"time": 288, "velocity": 0, "pitch": 60, "instrument": 24, "track": 2, "qtime": 48, "isDrum": false}, {"time": 288, "velocity": 0, "pitch": 64, "instrument": 24, "track": 2, "qtime": 48, "isDrum": false}, {"time": 288, "velocity": 108, "pitch": 48, "instrument": 24, "track": 2, "qtime": 0, "isDrum": false}, {"time": 289, "velocity": 0, "pitch": 62, "instrument": 24, "track": 2, "qtime": 1, "isDrum": false}, {"time": 300, "velocity": 108, "pitch": 55, "instrument": 24, "track": 2, "qtime": 12, "isDrum": false}, {"time": 300, "velocity": 108, "pitch": 60, "instrument": 24, "track": 2, "qtime": 12, "isDrum": false}, {"time": 300, "velocity": 108, "pitch": 64, "instrument": 24, "track": 2, "qtime": 12, "isDrum": false}, {"time": 300, "velocity": 108, "pitch": 67, "instrument": 24, "track": 2, "qtime": 12, "isDrum": false}, {"time": 309, "velocity": 0, "pitch": 55, "instrument": 24, "track": 2, "qtime": 21, "isDrum": false}, {"time": 309, "velocity": 0, "pitch": 60, "instrument": 24, "track": 2, "qtime": 21, "isDrum": false}, {"time": 309, "velocity": 0, "pitch": 64, "instrument": 24, "track": 2, "qtime": 21, "isDrum": false}, {"time": 309, "velocity": 0, "pitch": 67, "instrument": 24, "track": 2, "qtime": 21, "isDrum": false}, {"time": 318, "velocity": 108, "pitch": 55, "instrument": 24, "track": 2, "qtime": 30, "isDrum": false}, {"time": 318, "velocity": 108, "pitch": 60, "instrument": 24, "track": 2, "qtime": 30, "isDrum": false}, {"time": 318, "velocity": 108, "pitch": 64, "instrument": 24, "track": 2, "qtime": 30, "isDrum": false}, {"time": 318, "velocity": 108, "pitch": 67, "instrument": 24, "track": 2, "qtime": 30, "isDrum": false}, {"time": 323, "velocity": 0, "pitch": 60, "instrument": 24, "track": 2, "qtime": 35, "isDrum": false}, {"time": 323, "velocity": 0, "pitch": 64, "instrument": 24, "track": 2, "qtime": 35, "isDrum": false}, {"time": 323, "velocity": 0, "pitch": 67, "instrument": 24, "track": 2, "qtime": 35, "isDrum": false}, {"time": 324, "velocity": 0, "pitch": 55, "instrument": 24, "track": 2, "qtime": 36, "isDrum": false}, {"time": 330, "velocity": 108, "pitch": 55, "instrument": 24, "track": 2, "qtime": 42, "isDrum": false}, {"time": 330, "velocity": 108, "pitch": 62, "instrument": 24, "track": 2, "qtime": 42, "isDrum": false}, {"time": 330, "velocity": 108, "pitch": 64, "instrument": 24, "track": 2, "qtime": 42, "isDrum": false}, {"time": 330, "velocity": 108, "pitch": 67, "instrument": 24, "track": 2, "qtime": 42, "isDrum": false}, {"time": 348, "velocity": 0, "pitch": 62, "instrument": 24, "track": 2, "qtime": 12, "isDrum": false}, {"time": 348, "velocity": 0, "pitch": 67, "instrument": 24, "track": 2, "qtime": 12, "isDrum": false}, {"time": 349, "velocity": 0, "pitch": 55, "instrument": 24, "track": 2, "qtime": 13, "isDrum": false}, {"time": 349, "velocity": 0, "pitch": 64, "instrument": 24, "track": 2, "qtime": 13, "isDrum": false}, {"time": 354, "velocity": 108, "pitch": 60, "instrument": 24, "track": 2, "qtime": 18, "isDrum": false}, {"time": 354, "velocity": 108, "pitch": 67, "instrument": 24, "track": 2, "qtime": 18, "isDrum": false}, {"time": 363, "velocity": 0, "pitch": 67, "instrument": 24, "track": 2, "qtime": 27, "isDrum": false}, {"time": 366, "velocity": 0, "pitch": 60, "instrument": 24, "track": 2, "qtime": 30, "isDrum": false}, {"time": 383, "velocity": 0, "pitch": 48, "instrument": 24, "track": 2, "qtime": 47, "isDrum": false}, {"time": 0, "velocity": 120, "pitch": 36, "instrument": 0, "track": 9, "qtime": 0, "isDrum": true}, {"time": 0, "velocity": 120, "pitch": 42, "instrument": 0, "track": 9, "qtime": 0, "isDrum": true}, {"time": 1, "velocity": 0, "pitch": 36, "instrument": 0, "track": 9, "qtime": 1, "isDrum": true}, {"time": 1, "velocity": 0, "pitch": 42, "instrument": 0, "track": 9, "qtime": 1, "isDrum": true}, {"time": 12, "velocity": 120, "pitch": 37, "instrument": 0, "track": 9, "qtime": 12, "isDrum": true}, {"time": 12, "velocity": 120, "pitch": 42, "instrument": 0, "track": 9, "qtime": 12, "isDrum": true}, {"time": 13, "velocity": 0, "pitch": 37, "instrument": 0, "track": 9, "qtime": 13, "isDrum": true}, {"time": 13, "velocity": 0, "pitch": 42, "instrument": 0, "track": 9, "qtime": 13, "isDrum": true}, {"time": 18, "velocity": 120, "pitch": 37, "instrument": 0, "track": 9, "qtime": 18, "isDrum": true}, {"time": 19, "velocity": 0, "pitch": 37, "instrument": 0, "track": 9, "qtime": 19, "isDrum": true}, {"time": 24, "velocity": 120, "pitch": 36, "instrument": 0, "track": 9, "qtime": 24, "isDrum": true}, {"time": 24, "velocity": 120, "pitch": 42, "instrument": 0, "track": 9, "qtime": 24, "isDrum": true}, {"time": 25, "velocity": 0, "pitch": 36, "instrument": 0, "track": 9, "qtime": 25, "isDrum": true}, {"time": 25, "velocity": 0, "pitch": 42, "instrument": 0, "track": 9, "qtime": 25, "isDrum": true}, {"time": 36, "velocity": 120, "pitch": 37, "instrument": 0, "track": 9, "qtime": 36, "isDrum": true}, {"time": 36, "velocity": 120, "pitch": 42, "instrument": 0, "track": 9, "qtime": 36, "isDrum": true}, {"time": 37, "velocity": 0, "pitch": 37, "instrument": 0, "track": 9, "qtime": 37, "isDrum": true}, {"time": 37, "velocity": 0, "pitch": 42, "instrument": 0, "track": 9, "qtime": 37, "isDrum": true}, {"time": 42, "velocity": 120, "pitch": 37, "instrument": 0, "track": 9, "qtime": 42, "isDrum": true}, {"time": 43, "velocity": 0, "pitch": 37, "instrument": 0, "track": 9, "qtime": 43, "isDrum": true}, {"time": 48, "velocity": 120, "pitch": 36, "instrument": 0, "track": 9, "qtime": 0, "isDrum": true}, {"time": 48, "velocity": 120, "pitch": 42, "instrument": 0, "track": 9, "qtime": 0, "isDrum": true}, {"time": 49, "velocity": 0, "pitch": 36, "instrument": 0, "track": 9, "qtime": 1, "isDrum": true}, {"time": 49, "velocity": 0, "pitch": 42, "instrument": 0, "track": 9, "qtime": 1, "isDrum": true}, {"time": 60, "velocity": 120, "pitch": 37, "instrument": 0, "track": 9, "qtime": 12, "isDrum": true}, {"time": 60, "velocity": 120, "pitch": 42, "instrument": 0, "track": 9, "qtime": 12, "isDrum": true}, {"time": 61, "velocity": 0, "pitch": 37, "instrument": 0, "track": 9, "qtime": 13, "isDrum": true}, {"time": 61, "velocity": 0, "pitch": 42, "instrument": 0, "track": 9, "qtime": 13, "isDrum": true}, {"time": 66, "velocity": 120, "pitch": 37, "instrument": 0, "track": 9, "qtime": 18, "isDrum": true}, {"time": 67, "velocity": 0, "pitch": 37, "instrument": 0, "track": 9, "qtime": 19, "isDrum": true}, {"time": 72, "velocity": 120, "pitch": 36, "instrument": 0, "track": 9, "qtime": 24, "isDrum": true}, {"time": 72, "velocity": 120, "pitch": 42, "instrument": 0, "track": 9, "qtime": 24, "isDrum": true}, {"time": 73, "velocity": 0, "pitch": 36, "instrument": 0, "track": 9, "qtime": 25, "isDrum": true}, {"time": 73, "velocity": 0, "pitch": 42, "instrument": 0, "track": 9, "qtime": 25, "isDrum": true}, {"time": 84, "velocity": 120, "pitch": 37, "instrument": 0, "track": 9, "qtime": 36, "isDrum": true}, {"time": 84, "velocity": 120, "pitch": 42, "instrument": 0, "track": 9, "qtime": 36, "isDrum": true}, {"time": 85, "velocity": 0, "pitch": 37, "instrument": 0, "track": 9, "qtime": 37, "isDrum": true}, {"time": 85, "velocity": 0, "pitch": 42, "instrument": 0, "track": 9, "qtime": 37, "isDrum": true}, {"time": 90, "velocity": 120, "pitch": 37, "instrument": 0, "track": 9, "qtime": 42, "isDrum": true}, {"time": 91, "velocity": 0, "pitch": 37, "instrument": 0, "track": 9, "qtime": 43, "isDrum": true}, {"time": 96, "velocity": 120, "pitch": 36, "instrument": 0, "track": 9, "qtime": 0, "isDrum": true}, {"time": 96, "velocity": 120, "pitch": 42, "instrument": 0, "track": 9, "qtime": 0, "isDrum": true}, {"time": 97, "velocity": 0, "pitch": 36, "instrument": 0, "track": 9, "qtime": 1, "isDrum": true}, {"time": 97, "velocity": 0, "pitch": 42, "instrument": 0, "track": 9, "qtime": 1, "isDrum": true}, {"time": 108, "velocity": 120, "pitch": 37, "instrument": 0, "track": 9, "qtime": 12, "isDrum": true}, {"time": 109, "velocity": 0, "pitch": 37, "instrument": 0, "track": 9, "qtime": 13, "isDrum": true}, {"time": 114, "velocity": 120, "pitch": 37, "instrument": 0, "track": 9, "qtime": 18, "isDrum": true}, {"time": 115, "velocity": 0, "pitch": 37, "instrument": 0, "track": 9, "qtime": 19, "isDrum": true}, {"time": 120, "velocity": 120, "pitch": 36, "instrument": 0, "track": 9, "qtime": 24, "isDrum": true}, {"time": 121, "velocity": 0, "pitch": 36, "instrument": 0, "track": 9, "qtime": 25, "isDrum": true}, {"time": 132, "velocity": 120, "pitch": 37, "instrument": 0, "track": 9, "qtime": 36, "isDrum": true}, {"time": 133, "velocity": 0, "pitch": 37, "instrument": 0, "track": 9, "qtime": 37, "isDrum": true}, {"time": 138, "velocity": 120, "pitch": 37, "instrument": 0, "track": 9, "qtime": 42, "isDrum": true}, {"time": 139, "velocity": 0, "pitch": 37, "instrument": 0, "track": 9, "qtime": 43, "isDrum": true}, {"time": 144, "velocity": 120, "pitch": 36, "instrument": 0, "track": 9, "qtime": 0, "isDrum": true}, {"time": 145, "velocity": 0, "pitch": 36, "instrument": 0, "track": 9, "qtime": 1, "isDrum": true}, {"time": 156, "velocity": 120, "pitch": 37, "instrument": 0, "track": 9, "qtime": 12, "isDrum": true}, {"time": 157, "velocity": 0, "pitch": 37, "instrument": 0, "track": 9, "qtime": 13, "isDrum": true}, {"time": 162, "velocity": 120, "pitch": 37, "instrument": 0, "track": 9, "qtime": 18, "isDrum": true}, {"time": 163, "velocity": 0, "pitch": 37, "instrument": 0, "track": 9, "qtime": 19, "isDrum": true}, {"time": 168, "velocity": 120, "pitch": 36, "instrument": 0, "track": 9, "qtime": 24, "isDrum": true}, {"time": 169, "velocity": 0, "pitch": 36, "instrument": 0, "track": 9, "qtime": 25, "isDrum": true}, {"time": 180, "velocity": 120, "pitch": 37, "instrument": 0, "track": 9, "qtime": 36, "isDrum": true}, {"time": 181, "velocity": 0, "pitch": 37, "instrument": 0, "track": 9, "qtime": 37, "isDrum": true}, {"time": 186, "velocity": 120, "pitch": 37, "instrument": 0, "track": 9, "qtime": 42, "isDrum": true}, {"time": 187, "velocity": 0, "pitch": 37, "instrument": 0, "track": 9, "qtime": 43, "isDrum": true}, {"time": 192, "velocity": 120, "pitch": 36, "instrument": 0, "track": 9, "qtime": 0, "isDrum": true}, {"time": 192, "velocity": 120, "pitch": 42, "instrument": 0, "track": 9, "qtime": 0, "isDrum": true}, {"time": 193, "velocity": 0, "pitch": 36, "instrument": 0, "track": 9, "qtime": 1, "isDrum": true}, {"time": 193, "velocity": 0, "pitch": 42, "instrument": 0, "track": 9, "qtime": 1, "isDrum": true}, {"time": 204, "velocity": 120, "pitch": 37, "instrument": 0, "track": 9, "qtime": 12, "isDrum": true}, {"time": 204, "velocity": 120, "pitch": 42, "instrument": 0, "track": 9, "qtime": 12, "isDrum": true}, {"time": 205, "velocity": 0, "pitch": 37, "instrument": 0, "track": 9, "qtime": 13, "isDrum": true}, {"time": 205, "velocity": 0, "pitch": 42, "instrument": 0, "track": 9, "qtime": 13, "isDrum": true}, {"time": 210, "velocity": 120, "pitch": 37, "instrument": 0, "track": 9, "qtime": 18, "isDrum": true}, {"time": 211, "velocity": 0, "pitch": 37, "instrument": 0, "track": 9, "qtime": 19, "isDrum": true}, {"time": 216, "velocity": 120, "pitch": 36, "instrument": 0, "track": 9, "qtime": 24, "isDrum": true}, {"time": 216, "velocity": 120, "pitch": 42, "instrument": 0, "track": 9, "qtime": 24, "isDrum": true}, {"time": 217, "velocity": 0, "pitch": 36, "instrument": 0, "track": 9, "qtime": 25, "isDrum": true}, {"time": 217, "velocity": 0, "pitch": 42, "instrument": 0, "track": 9, "qtime": 25, "isDrum": true}, {"time": 228, "velocity": 120, "pitch": 37, "instrument": 0, "track": 9, "qtime": 36, "isDrum": true}, {"time": 228, "velocity": 120, "pitch": 42, "instrument": 0, "track": 9, "qtime": 36, "isDrum": true}, {"time": 229, "velocity": 0, "pitch": 37, "instrument": 0, "track": 9, "qtime": 37, "isDrum": true}, {"time": 229, "velocity": 0, "pitch": 42, "instrument": 0, "track": 9, "qtime": 37, "isDrum": true}, {"time": 234, "velocity": 120, "pitch": 37, "instrument": 0, "track": 9, "qtime": 42, "isDrum": true}, {"time": 235, "velocity": 0, "pitch": 37, "instrument": 0, "track": 9, "qtime": 43, "isDrum": true}, {"time": 240, "velocity": 120, "pitch": 36, "instrument": 0, "track": 9, "qtime": 0, "isDrum": true}, {"time": 240, "velocity": 120, "pitch": 42, "instrument": 0, "track": 9, "qtime": 0, "isDrum": true}, {"time": 241, "velocity": 0, "pitch": 36, "instrument": 0, "track": 9, "qtime": 1, "isDrum": true}, {"time": 241, "velocity": 0, "pitch": 42, "instrument": 0, "track": 9, "qtime": 1, "isDrum": true}, {"time": 252, "velocity": 120, "pitch": 37, "instrument": 0, "track": 9, "qtime": 12, "isDrum": true}, {"time": 252, "velocity": 120, "pitch": 42, "instrument": 0, "track": 9, "qtime": 12, "isDrum": true}, {"time": 253, "velocity": 0, "pitch": 37, "instrument": 0, "track": 9, "qtime": 13, "isDrum": true}, {"time": 253, "velocity": 0, "pitch": 42, "instrument": 0, "track": 9, "qtime": 13, "isDrum": true}, {"time": 258, "velocity": 120, "pitch": 37, "instrument": 0, "track": 9, "qtime": 18, "isDrum": true}, {"time": 259, "velocity": 0, "pitch": 37, "instrument": 0, "track": 9, "qtime": 19, "isDrum": true}, {"time": 264, "velocity": 120, "pitch": 36, "instrument": 0, "track": 9, "qtime": 24, "isDrum": true}, {"time": 264, "velocity": 120, "pitch": 42, "instrument": 0, "track": 9, "qtime": 24, "isDrum": true}, {"time": 265, "velocity": 0, "pitch": 36, "instrument": 0, "track": 9, "qtime": 25, "isDrum": true}, {"time": 265, "velocity": 0, "pitch": 42, "instrument": 0, "track": 9, "qtime": 25, "isDrum": true}, {"time": 276, "velocity": 120, "pitch": 37, "instrument": 0, "track": 9, "qtime": 36, "isDrum": true}, {"time": 276, "velocity": 120, "pitch": 42, "instrument": 0, "track": 9, "qtime": 36, "isDrum": true}, {"time": 277, "velocity": 0, "pitch": 37, "instrument": 0, "track": 9, "qtime": 37, "isDrum": true}, {"time": 277, "velocity": 0, "pitch": 42, "instrument": 0, "track": 9, "qtime": 37, "isDrum": true}, {"time": 282, "velocity": 120, "pitch": 37, "instrument": 0, "track": 9, "qtime": 42, "isDrum": true}, {"time": 283, "velocity": 0, "pitch": 37, "instrument": 0, "track": 9, "qtime": 43, "isDrum": true}, {"time": 288, "velocity": 120, "pitch": 36, "instrument": 0, "track": 9, "qtime": 0, "isDrum": true}, {"time": 288, "velocity": 120, "pitch": 42, "instrument": 0, "track": 9, "qtime": 0, "isDrum": true}, {"time": 289, "velocity": 0, "pitch": 36, "instrument": 0, "track": 9, "qtime": 1, "isDrum": true}, {"time": 289, "velocity": 0, "pitch": 42, "instrument": 0, "track": 9, "qtime": 1, "isDrum": true}, {"time": 300, "velocity": 120, "pitch": 37, "instrument": 0, "track": 9, "qtime": 12, "isDrum": true}, {"time": 301, "velocity": 0, "pitch": 37, "instrument": 0, "track": 9, "qtime": 13, "isDrum": true}, {"time": 306, "velocity": 120, "pitch": 37, "instrument": 0, "track": 9, "qtime": 18, "isDrum": true}, {"time": 307, "velocity": 0, "pitch": 37, "instrument": 0, "track": 9, "qtime": 19, "isDrum": true}, {"time": 312, "velocity": 120, "pitch": 36, "instrument": 0, "track": 9, "qtime": 24, "isDrum": true}, {"time": 313, "velocity": 0, "pitch": 36, "instrument": 0, "track": 9, "qtime": 25, "isDrum": true}, {"time": 324, "velocity": 120, "pitch": 37, "instrument": 0, "track": 9, "qtime": 36, "isDrum": true}, {"time": 325, "velocity": 0, "pitch": 37, "instrument": 0, "track": 9, "qtime": 37, "isDrum": true}, {"time": 330, "velocity": 120, "pitch": 37, "instrument": 0, "track": 9, "qtime": 42, "isDrum": true}, {"time": 331, "velocity": 0, "pitch": 37, "instrument": 0, "track": 9, "qtime": 43, "isDrum": true}, {"time": 336, "velocity": 120, "pitch": 36, "instrument": 0, "track": 9, "qtime": 0, "isDrum": true}, {"time": 337, "velocity": 0, "pitch": 36, "instrument": 0, "track": 9, "qtime": 1, "isDrum": true}, {"time": 348, "velocity": 120, "pitch": 37, "instrument": 0, "track": 9, "qtime": 12, "isDrum": true}, {"time": 349, "velocity": 0, "pitch": 37, "instrument": 0, "track": 9, "qtime": 13, "isDrum": true}, {"time": 354, "velocity": 120, "pitch": 37, "instrument": 0, "track": 9, "qtime": 18, "isDrum": true}, {"time": 355, "velocity": 0, "pitch": 37, "instrument": 0, "track": 9, "qtime": 19, "isDrum": true}, {"time": 360, "velocity": 120, "pitch": 36, "instrument": 0, "track": 9, "qtime": 24, "isDrum": true}, {"time": 361, "velocity": 0, "pitch": 36, "instrument": 0, "track": 9, "qtime": 25, "isDrum": true}, {"time": 372, "velocity": 120, "pitch": 37, "instrument": 0, "track": 9, "qtime": 36, "isDrum": true}, {"time": 373, "velocity": 0, "pitch": 37, "instrument": 0, "track": 9, "qtime": 37, "isDrum": true}, {"time": 378, "velocity": 120, "pitch": 37, "instrument": 0, "track": 9, "qtime": 42, "isDrum": true}, {"time": 379, "velocity": 0, "pitch": 37, "instrument": 0, "track": 9, "qtime": 43, "isDrum": true}], "resolution": 12, "tempo": 144, "minPitch": 31, "maxPitch": 67, "validSegments": [0], "validTracks": [15]}, "audio": "https://www.sfu.ca/~jeffe/examples/8b_ex8_density_medium_low.mp3"}, {"src": "gen/8b_ex8_density_medium_high.json", "highlights": [[], [], [], [0, 1, 2, 3, 4, 5, 6, 7]], "caption": "Resample the drum track in 19a with medium-high density.", "sample_id": "19d", "mixer": [8, 8, 8, 9], "json": {"tracks": [{"bars": [{"events": [0, 1, 2, 3, 4, 5, 6, 7, 8], "isFourFour": true, "hasNotes": true, "time": 0}, {"events": [9, 10, 11, 12, 13, 14, 15, 16, 17, 18, 19, 20, 21, 22, 23, 24, 25, 26, 27, 28, 29], "isFourFour": true, "hasNotes": true, "time": 48}, {"events": [30, 31, 32, 33, 34, 35, 36, 37, 38, 39, 40, 41, 42, 43, 44, 45, 46], "isFourFour": true, "hasNotes": true, "time": 96}, {"events": [47, 48, 49, 50, 51, 52, 53, 54, 55, 56], "isFourFour": true, "hasNotes": true, "time": 144}, {"events": [57, 58, 59, 60, 61, 62, 63, 64, 65, 66, 67, 68, 69, 70, 71, 72, 73, 74], "isFourFour": true, "hasNotes": true, "time": 192}, {"events": [75, 76, 77, 78, 79, 80, 81, 82, 83, 84, 85, 86, 87, 88, 89, 90, 91, 92, 93], "isFourFour": true, "hasNotes": true, "time": 240}, {"events": [94, 95, 96, 97, 98, 99, 100, 101, 102], "isFourFour": true, "hasNotes": true, "time": 288}, {"events": [103, 104, 105, 106, 107, 108, 109, 110, 111, 112, 113, 114, 115, 116, 117, 118, 119], "isFourFour": true, "hasNotes": true, "time": 336}], "isDrum": false, "minPitch": 36, "maxPitch": 64, "instrument": 4, "avPolyphony": 3.66576076, "noteDensity": 9, "noteDensityV2": 5}, {"bars": [{"events": [120, 121, 122, 123, 124], "isFourFour": true, "hasNotes": true, "time": 0}, {"events": [125, 126, 127, 128, 129, 130, 131, 132, 133, 134], "isFourFour": true, "hasNotes": true, "time": 48}, {"events": [135, 136, 137, 138, 139, 140], "isFourFour": true, "hasNotes": true, "time": 96}, {"events": [141, 142, 143, 144, 145, 146, 147, 148, 149], "isFourFour": true, "hasNotes": true, "time": 144}, {"events": [150, 151, 152, 153, 154], "isFourFour": true, "hasNotes": true, "time": 192}, {"events": [155, 156, 157, 158, 159, 160, 161, 162, 163, 164, 165, 166, 167], "isFourFour": true, "hasNotes": true, "time": 240}, {"events": [168, 169, 170, 171, 172], "isFourFour": true, "hasNotes": true, "time": 288}, {"events": [173, 174, 175, 176, 177, 178, 179, 180, 181], "isFourFour": true, "hasNotes": true, "time": 336}], "isDrum": false, "minPitch": 31, "maxPitch": 45, "instrument": 33, "avPolyphony": 1.00677967, "noteDensity": 8, "noteDensityV2": 3}, {"bars": [{"events": [182, 183, 184, 185, 186, 187, 188, 189, 190, 191, 192, 193], "isFourFour": true, "hasNotes": true, "time": 0}, {"events": [194, 195, 196, 197, 198, 199, 200, 201, 202, 203, 204, 205, 206, 207, 208, 209, 210, 211, 212], "isFourFour": true, "hasNotes": true, "time": 48}, {"events": [213, 214, 215, 216, 217, 218, 219, 220, 221, 222, 223, 224, 225, 226, 227, 228, 229, 230, 231, 232, 233, 234, 235, 236], "isFourFour": true, "hasNotes": true, "time": 96}, {"events": [237, 238, 239, 240, 241, 242, 243, 244, 245, 246, 247, 248, 249, 250, 251], "isFourFour": true, "hasNotes": true, "time": 144}, {"events": [252, 253, 254, 255, 256, 257, 258, 259, 260, 261, 262, 263, 264, 265, 266], "isFourFour": true, "hasNotes": true, "time": 192}, {"events": [267, 268, 269, 270, 271, 272, 273, 274, 275, 276, 277, 278, 279, 280, 281, 282, 283, 284, 285, 286, 287, 288], "isFourFour": true, "hasNotes": true, "time": 240}, {"events": [289, 290, 291, 292, 293, 294, 295, 296, 297, 298, 299, 300, 301, 302, 303, 304, 305, 306, 307, 308, 309, 310], "isFourFour": true, "hasNotes": true, "time": 288}, {"events": [311, 312, 313, 314, 315, 316, 317, 318, 319], "isFourFour": true, "hasNotes": true, "time": 336}], "isDrum": false, "minPitch": 45, "maxPitch": 67, "instrument": 24, "avPolyphony": 4.01566601, "noteDensity": 9, "noteDensityV2": 5}, {"bars": [{"events": [320, 321, 322, 323, 324, 325, 326, 327, 328, 329, 330, 331, 332, 333, 334, 335, 336, 337, 338, 339, 340, 341, 342, 343, 344, 345, 346, 347, 348, 349], "isFourFour": true, "hasNotes": true, "time": 0}, {"events": [350, 351, 352, 353, 354, 355, 356, 357, 358, 359, 360, 361, 362, 363, 364, 365, 366, 367, 368, 369, 370, 371, 372, 373, 374, 375, 376, 377], "isFourFour": true, "hasNotes": true, "time": 48}, {"events": [378, 379, 380, 381, 382, 383, 384, 385, 386, 387, 388, 389, 390, 391, 392, 393, 394, 395, 396, 397, 398, 399, 400, 401, 402, 403, 404, 405, 406, 407], "isFourFour": true, "hasNotes": true, "time": 96}, {"events": [408, 409, 410, 411, 412, 413, 414, 415, 416, 417, 418, 419, 420, 421, 422, 423, 424, 425, 426, 427, 428, 429, 430, 431, 432, 433, 434, 435], "isFourFour": true, "hasNotes": true, "time": 144}, {"events": [436, 437, 438, 439, 440, 441, 442, 443, 444, 445, 446, 447, 448, 449, 450, 451, 452, 453, 454, 455, 456, 457, 458, 459, 460, 461, 462, 463], "isFourFour": true, "hasNotes": true, "time": 192}, {"events": [464, 465, 466, 467, 468, 469, 470, 471, 472, 473, 474, 475, 476, 477, 478, 479, 480, 481, 482, 483, 484, 485, 486, 487, 488, 489, 490, 491], "isFourFour": true, "hasNotes": true, "time": 240}, {"events": [492, 493, 494, 495, 496, 497, 498, 499, 500, 501, 502, 503, 504, 505, 506, 507, 508, 509, 510, 511, 512, 513, 514, 515, 516, 517, 518, 519, 520], "isFourFour": true, "hasNotes": true, "time": 288}, {"events": [521, 522, 523, 524, 525, 526, 527, 528, 529, 530, 531, 532, 533, 534, 535, 536, 537, 538, 539, 540, 541, 542, 543, 544, 545, 546, 547, 548, 549, 550, 551, 552, 553, 554, 555], "isFourFour": true, "hasNotes": true, "time": 336}], "isDrum": true, "minPitch": 31, "maxPitch": 54, "instrument": 0, "avPolyphony": 1.84018266, "noteDensity": 9, "noteDensityV2": 6}], "events": [{"time": 0, "velocity": 108, "pitch": 45, "instrument": 4, "track": 0, "qtime": 0, "isDrum": false}, {"time": 0, "velocity": 108, "pitch": 55, "instrument": 4, "track": 0, "qtime": 0, "isDrum": false}, {"time": 0, "velocity": 108, "pitch": 59, "instrument": 4, "track": 0, "qtime": 0, "isDrum": false}, {"time": 0, "velocity": 108, "pitch": 60, "instrument": 4, "track": 0, "qtime": 0, "isDrum": false}, {"time": 0, "velocity": 108, "pitch": 64, "instrument": 4, "track": 0, "qtime": 0, "isDrum": false}, {"time": 44, "velocity": 0, "pitch": 55, "instrument": 4, "track": 0, "qtime": 44, "isDrum": false}, {"time": 44, "velocity": 0, "pitch": 59, "instrument": 4, "track": 0, "qtime": 44, "isDrum": false}, {"time": 44, "velocity": 0, "pitch": 60, "instrument": 4, "track": 0, "qtime": 44, "isDrum": false}, {"time": 44, "velocity": 0, "pitch": 64, "instrument": 4, "track": 0, "qtime": 44, "isDrum": false}, {"time": 48, "velocity": 108, "pitch": 55, "instrument": 4, "track": 0, "qtime": 0, "isDrum": false}, {"time": 48, "velocity": 108, "pitch": 59, "instrument": 4, "track": 0, "qtime": 0, "isDrum": false}, {"time": 48, "velocity": 108, "pitch": 60, "instrument": 4, "track": 0, "qtime": 0, "isDrum": false}, {"time": 48, "velocity": 108, "pitch": 64, "instrument": 4, "track": 0, "qtime": 0, "isDrum": false}, {"time": 49, "velocity": 0, "pitch": 59, "instrument": 4, "track": 0, "qtime": 1, "isDrum": false}, {"time": 49, "velocity": 0, "pitch": 60, "instrument": 4, "track": 0, "qtime": 1, "isDrum": false}, {"time": 50, "velocity": 0, "pitch": 55, "instrument": 4, "track": 0, "qtime": 2, "isDrum": false}, {"time": 50, "velocity": 0, "pitch": 64, "instrument": 4, "track": 0, "qtime": 2, "isDrum": false}, {"time": 66, "velocity": 108, "pitch": 55, "instrument": 4, "track": 0, "qtime": 18, "isDrum": false}, {"time": 66, "velocity": 108, "pitch": 59, "instrument": 4, "track": 0, "qtime": 18, "isDrum": false}, {"time": 66, "velocity": 108, "pitch": 60, "instrument": 4, "track": 0, "qtime": 18, "isDrum": false}, {"time": 66, "velocity": 108, "pitch": 64, "instrument": 4, "track": 0, "qtime": 18, "isDrum": false}, {"time": 78, "velocity": 0, "pitch": 59, "instrument": 4, "track": 0, "qtime": 30, "isDrum": false}, {"time": 78, "velocity": 108, "pitch": 57, "instrument": 4, "track": 0, "qtime": 30, "isDrum": false}, {"time": 79, "velocity": 0, "pitch": 55, "instrument": 4, "track": 0, "qtime": 31, "isDrum": false}, {"time": 79, "velocity": 0, "pitch": 60, "instrument": 4, "track": 0, "qtime": 31, "isDrum": false}, {"time": 79, "velocity": 0, "pitch": 64, "instrument": 4, "track": 0, "qtime": 31, "isDrum": false}, {"time": 80, "velocity": 0, "pitch": 57, "instrument": 4, "track": 0, "qtime": 32, "isDrum": false}, {"time": 84, "velocity": 108, "pitch": 43, "instrument": 4, "track": 0, "qtime": 36, "isDrum": false}, {"time": 85, "velocity": 0, "pitch": 45, "instrument": 4, "track": 0, "qtime": 37, "isDrum": false}, {"time": 96, "velocity": 0, "pitch": 43, "instrument": 4, "track": 0, "qtime": 48, "isDrum": false}, {"time": 96, "velocity": 108, "pitch": 36, "instrument": 4, "track": 0, "qtime": 0, "isDrum": false}, {"time": 96, "velocity": 108, "pitch": 52, "instrument": 4, "track": 0, "qtime": 0, "isDrum": false}, {"time": 96, "velocity": 108, "pitch": 55, "instrument": 4, "track": 0, "qtime": 0, "isDrum": false}, {"time": 96, "velocity": 108, "pitch": 59, "instrument": 4, "track": 0, "qtime": 0, "isDrum": false}, {"time": 96, "velocity": 108, "pitch": 62, "instrument": 4, "track": 0, "qtime": 0, "isDrum": false}, {"time": 131, "velocity": 0, "pitch": 62, "instrument": 4, "track": 0, "qtime": 35, "isDrum": false}, {"time": 132, "velocity": 0, "pitch": 59, "instrument": 4, "track": 0, "qtime": 36, "isDrum": false}, {"time": 133, "velocity": 0, "pitch": 52, "instrument": 4, "track": 0, "qtime": 37, "isDrum": false}, {"time": 133, "velocity": 0, "pitch": 55, "instrument": 4, "track": 0, "qtime": 37, "isDrum": false}, {"time": 138, "velocity": 108, "pitch": 52, "instrument": 4, "track": 0, "qtime": 42, "isDrum": false}, {"time": 138, "velocity": 108, "pitch": 55, "instrument": 4, "track": 0, "qtime": 42, "isDrum": false}, {"time": 138, "velocity": 108, "pitch": 59, "instrument": 4, "track": 0, "qtime": 42, "isDrum": false}, {"time": 138, "velocity": 108, "pitch": 60, "instrument": 4, "track": 0, "qtime": 42, "isDrum": false}, {"time": 139, "velocity": 0, "pitch": 52, "instrument": 4, "track": 0, "qtime": 43, "isDrum": false}, {"time": 139, "velocity": 0, "pitch": 55, "instrument": 4, "track": 0, "qtime": 43, "isDrum": false}, {"time": 139, "velocity": 0, "pitch": 59, "instrument": 4, "track": 0, "qtime": 43, "isDrum": false}, {"time": 140, "velocity": 0, "pitch": 60, "instrument": 4, "track": 0, "qtime": 44, "isDrum": false}, {"time": 153, "velocity": 108, "pitch": 52, "instrument": 4, "track": 0, "qtime": 9, "isDrum": false}, {"time": 162, "velocity": 108, "pitch": 55, "instrument": 4, "track": 0, "qtime": 18, "isDrum": false}, {"time": 162, "velocity": 108, "pitch": 60, "instrument": 4, "track": 0, "qtime": 18, "isDrum": false}, {"time": 172, "velocity": 0, "pitch": 52, "instrument": 4, "track": 0, "qtime": 28, "isDrum": false}, {"time": 174, "velocity": 108, "pitch": 52, "instrument": 4, "track": 0, "qtime": 30, "isDrum": false}, {"time": 180, "velocity": 0, "pitch": 55, "instrument": 4, "track": 0, "qtime": 36, "isDrum": false}, {"time": 180, "velocity": 108, "pitch": 43, "instrument": 4, "track": 0, "qtime": 36, "isDrum": false}, {"time": 181, "velocity": 0, "pitch": 52, "instrument": 4, "track": 0, "qtime": 37, "isDrum": false}, {"time": 181, "velocity": 0, "pitch": 60, "instrument": 4, "track": 0, "qtime": 37, "isDrum": false}, {"time": 182, "velocity": 0, "pitch": 36, "instrument": 4, "track": 0, "qtime": 38, "isDrum": false}, {"time": 192, "velocity": 108, "pitch": 45, "instrument": 4, "track": 0, "qtime": 0, "isDrum": false}, {"time": 192, "velocity": 108, "pitch": 55, "instrument": 4, "track": 0, "qtime": 0, "isDrum": false}, {"time": 192, "velocity": 108, "pitch": 57, "instrument": 4, "track": 0, "qtime": 0, "isDrum": false}, {"time": 192, "velocity": 108, "pitch": 60, "instrument": 4, "track": 0, "qtime": 0, "isDrum": false}, {"time": 192, "velocity": 108, "pitch": 64, "instrument": 4, "track": 0, "qtime": 0, "isDrum": false}, {"time": 193, "velocity": 0, "pitch": 43, "instrument": 4, "track": 0, "qtime": 1, "isDrum": false}, {"time": 230, "velocity": 0, "pitch": 55, "instrument": 4, "track": 0, "qtime": 38, "isDrum": false}, {"time": 230, "velocity": 0, "pitch": 57, "instrument": 4, "track": 0, "qtime": 38, "isDrum": false}, {"time": 230, "velocity": 0, "pitch": 60, "instrument": 4, "track": 0, "qtime": 38, "isDrum": false}, {"time": 230, "velocity": 0, "pitch": 64, "instrument": 4, "track": 0, "qtime": 38, "isDrum": false}, {"time": 234, "velocity": 108, "pitch": 55, "instrument": 4, "track": 0, "qtime": 42, "isDrum": false}, {"time": 234, "velocity": 108, "pitch": 57, "instrument": 4, "track": 0, "qtime": 42, "isDrum": false}, {"time": 234, "velocity": 108, "pitch": 60, "instrument": 4, "track": 0, "qtime": 42, "isDrum": false}, {"time": 234, "velocity": 108, "pitch": 64, "instrument": 4, "track": 0, "qtime": 42, "isDrum": false}, {"time": 235, "velocity": 0, "pitch": 57, "instrument": 4, "track": 0, "qtime": 43, "isDrum": false}, {"time": 235, "velocity": 0, "pitch": 60, "instrument": 4, "track": 0, "qtime": 43, "isDrum": false}, {"time": 235, "velocity": 0, "pitch": 64, "instrument": 4, "track": 0, "qtime": 43, "isDrum": false}, {"time": 236, "velocity": 0, "pitch": 55, "instrument": 4, "track": 0, "qtime": 44, "isDrum": false}, {"time": 246, "velocity": 108, "pitch": 55, "instrument": 4, "track": 0, "qtime": 6, "isDrum": false}, {"time": 246, "velocity": 108, "pitch": 57, "instrument": 4, "track": 0, "qtime": 6, "isDrum": false}, {"time": 246, "velocity": 108, "pitch": 60, "instrument": 4, "track": 0, "qtime": 6, "isDrum": false}, {"time": 246, "velocity": 108, "pitch": 64, "instrument": 4, "track": 0, "qtime": 6, "isDrum": false}, {"time": 256, "velocity": 0, "pitch": 64, "instrument": 4, "track": 0, "qtime": 16, "isDrum": false}, {"time": 257, "velocity": 0, "pitch": 55, "instrument": 4, "track": 0, "qtime": 17, "isDrum": false}, {"time": 257, "velocity": 0, "pitch": 57, "instrument": 4, "track": 0, "qtime": 17, "isDrum": false}, {"time": 257, "velocity": 0, "pitch": 60, "instrument": 4, "track": 0, "qtime": 17, "isDrum": false}, {"time": 258, "velocity": 108, "pitch": 55, "instrument": 4, "track": 0, "qtime": 18, "isDrum": false}, {"time": 258, "velocity": 108, "pitch": 59, "instrument": 4, "track": 0, "qtime": 18, "isDrum": false}, {"time": 258, "velocity": 108, "pitch": 60, "instrument": 4, "track": 0, "qtime": 18, "isDrum": false}, {"time": 258, "velocity": 108, "pitch": 64, "instrument": 4, "track": 0, "qtime": 18, "isDrum": false}, {"time": 276, "velocity": 0, "pitch": 59, "instrument": 4, "track": 0, "qtime": 36, "isDrum": false}, {"time": 276, "velocity": 108, "pitch": 57, "instrument": 4, "track": 0, "qtime": 36, "isDrum": false}, {"time": 277, "velocity": 0, "pitch": 64, "instrument": 4, "track": 0, "qtime": 37, "isDrum": false}, {"time": 278, "velocity": 0, "pitch": 55, "instrument": 4, "track": 0, "qtime": 38, "isDrum": false}, {"time": 278, "velocity": 0, "pitch": 60, "instrument": 4, "track": 0, "qtime": 38, "isDrum": false}, {"time": 279, "velocity": 0, "pitch": 57, "instrument": 4, "track": 0, "qtime": 39, "isDrum": false}, {"time": 282, "velocity": 0, "pitch": 45, "instrument": 4, "track": 0, "qtime": 42, "isDrum": false}, {"time": 288, "velocity": 108, "pitch": 36, "instrument": 4, "track": 0, "qtime": 0, "isDrum": false}, {"time": 288, "velocity": 108, "pitch": 52, "instrument": 4, "track": 0, "qtime": 0, "isDrum": false}, {"time": 288, "velocity": 108, "pitch": 55, "instrument": 4, "track": 0, "qtime": 0, "isDrum": false}, {"time": 288, "velocity": 108, "pitch": 57, "instrument": 4, "track": 0, "qtime": 0, "isDrum": false}, {"time": 288, "velocity": 108, "pitch": 60, "instrument": 4, "track": 0, "qtime": 0, "isDrum": false}, {"time": 333, "velocity": 0, "pitch": 52, "instrument": 4, "track": 0, "qtime": 45, "isDrum": false}, {"time": 333, "velocity": 0, "pitch": 57, "instrument": 4, "track": 0, "qtime": 45, "isDrum": false}, {"time": 333, "velocity": 0, "pitch": 60, "instrument": 4, "track": 0, "qtime": 45, "isDrum": false}, {"time": 334, "velocity": 0, "pitch": 55, "instrument": 4, "track": 0, "qtime": 46, "isDrum": false}, {"time": 336, "velocity": 108, "pitch": 52, "instrument": 4, "track": 0, "qtime": 0, "isDrum": false}, {"time": 336, "velocity": 108, "pitch": 55, "instrument": 4, "track": 0, "qtime": 0, "isDrum": false}, {"time": 336, "velocity": 108, "pitch": 57, "instrument": 4, "track": 0, "qtime": 0, "isDrum": false}, {"time": 336, "velocity": 108, "pitch": 60, "instrument": 4, "track": 0, "qtime": 0, "isDrum": false}, {"time": 337, "velocity": 0, "pitch": 52, "instrument": 4, "track": 0, "qtime": 1, "isDrum": false}, {"time": 337, "velocity": 0, "pitch": 55, "instrument": 4, "track": 0, "qtime": 1, "isDrum": false}, {"time": 337, "velocity": 0, "pitch": 57, "instrument": 4, "track": 0, "qtime": 1, "isDrum": false}, {"time": 337, "velocity": 0, "pitch": 60, "instrument": 4, "track": 0, "qtime": 1, "isDrum": false}, {"time": 354, "velocity": 108, "pitch": 52, "instrument": 4, "track": 0, "qtime": 18, "isDrum": false}, {"time": 354, "velocity": 108, "pitch": 57, "instrument": 4, "track": 0, "qtime": 18, "isDrum": false}, {"time": 354, "velocity": 108, "pitch": 60, "instrument": 4, "track": 0, "qtime": 18, "isDrum": false}, {"time": 366, "velocity": 108, "pitch": 55, "instrument": 4, "track": 0, "qtime": 30, "isDrum": false}, {"time": 372, "velocity": 0, "pitch": 36, "instrument": 4, "track": 0, "qtime": 36, "isDrum": false}, {"time": 372, "velocity": 0, "pitch": 52, "instrument": 4, "track": 0, "qtime": 36, "isDrum": false}, {"time": 374, "velocity": 0, "pitch": 55, "instrument": 4, "track": 0, "qtime": 38, "isDrum": false}, {"time": 374, "velocity": 0, "pitch": 57, "instrument": 4, "track": 0, "qtime": 38, "isDrum": false}, {"time": 374, "velocity": 0, "pitch": 60, "instrument": 4, "track": 0, "qtime": 38, "isDrum": false}, {"time": 0, "velocity": 108, "pitch": 33, "instrument": 33, "track": 1, "qtime": 0, "isDrum": false}, {"time": 16, "velocity": 0, "pitch": 33, "instrument": 33, "track": 1, "qtime": 16, "isDrum": false}, {"time": 18, "velocity": 108, "pitch": 33, "instrument": 33, "track": 1, "qtime": 18, "isDrum": false}, {"time": 28, "velocity": 0, "pitch": 33, "instrument": 33, "track": 1, "qtime": 28, "isDrum": false}, {"time": 36, "velocity": 108, "pitch": 33, "instrument": 33, "track": 1, "qtime": 36, "isDrum": false}, {"time": 50, "velocity": 0, "pitch": 33, "instrument": 33, "track": 1, "qtime": 2, "isDrum": false}, {"time": 54, "velocity": 108, "pitch": 33, "instrument": 33, "track": 1, "qtime": 6, "isDrum": false}, {"time": 65, "velocity": 0, "pitch": 33, "instrument": 33, "track": 1, "qtime": 17, "isDrum": false}, {"time": 66, "velocity": 108, "pitch": 33, "instrument": 33, "track": 1, "qtime": 18, "isDrum": false}, {"time": 68, "velocity": 0, "pitch": 33, "instrument": 33, "track": 1, "qtime": 20, "isDrum": false}, {"time": 72, "velocity": 108, "pitch": 33, "instrument": 33, "track": 1, "qtime": 24, "isDrum": false}, {"time": 82, "velocity": 0, "pitch": 33, "instrument": 33, "track": 1, "qtime": 34, "isDrum": false}, {"time": 84, "velocity": 108, "pitch": 33, "instrument": 33, "track": 1, "qtime": 36, "isDrum": false}, {"time": 90, "velocity": 0, "pitch": 33, "instrument": 33, "track": 1, "qtime": 42, "isDrum": false}, {"time": 90, "velocity": 108, "pitch": 31, "instrument": 33, "track": 1, "qtime": 42, "isDrum": false}, {"time": 96, "velocity": 108, "pitch": 36, "instrument": 33, "track": 1, "qtime": 0, "isDrum": false}, {"time": 97, "velocity": 0, "pitch": 31, "instrument": 33, "track": 1, "qtime": 1, "isDrum": false}, {"time": 110, "velocity": 0, "pitch": 36, "instrument": 33, "track": 1, "qtime": 14, "isDrum": false}, {"time": 114, "velocity": 108, "pitch": 36, "instrument": 33, "track": 1, "qtime": 18, "isDrum": false}, {"time": 124, "velocity": 0, "pitch": 36, "instrument": 33, "track": 1, "qtime": 28, "isDrum": false}, {"time": 132, "velocity": 108, "pitch": 36, "instrument": 33, "track": 1, "qtime": 36, "isDrum": false}, {"time": 147, "velocity": 0, "pitch": 36, "instrument": 33, "track": 1, "qtime": 3, "isDrum": false}, {"time": 150, "velocity": 108, "pitch": 36, "instrument": 33, "track": 1, "qtime": 6, "isDrum": false}, {"time": 161, "velocity": 0, "pitch": 36, "instrument": 33, "track": 1, "qtime": 17, "isDrum": false}, {"time": 168, "velocity": 108, "pitch": 36, "instrument": 33, "track": 1, "qtime": 24, "isDrum": false}, {"time": 180, "velocity": 0, "pitch": 36, "instrument": 33, "track": 1, "qtime": 36, "isDrum": false}, {"time": 180, "velocity": 108, "pitch": 31, "instrument": 33, "track": 1, "qtime": 36, "isDrum": false}, {"time": 186, "velocity": 0, "pitch": 31, "instrument": 33, "track": 1, "qtime": 42, "isDrum": false}, {"time": 186, "velocity": 108, "pitch": 32, "instrument": 33, "track": 1, "qtime": 42, "isDrum": false}, {"time": 192, "velocity": 0, "pitch": 32, "instrument": 33, "track": 1, "qtime": 48, "isDrum": false}, {"time": 192, "velocity": 108, "pitch": 33, "instrument": 33, "track": 1, "qtime": 0, "isDrum": false}, {"time": 208, "velocity": 0, "pitch": 33, "instrument": 33, "track": 1, "qtime": 16, "isDrum": false}, {"time": 210, "velocity": 108, "pitch": 33, "instrument": 33, "track": 1, "qtime": 18, "isDrum": false}, {"time": 218, "velocity": 0, "pitch": 33, "instrument": 33, "track": 1, "qtime": 26, "isDrum": false}, {"time": 228, "velocity": 108, "pitch": 33, "instrument": 33, "track": 1, "qtime": 36, "isDrum": false}, {"time": 245, "velocity": 0, "pitch": 33, "instrument": 33, "track": 1, "qtime": 5, "isDrum": false}, {"time": 246, "velocity": 108, "pitch": 33, "instrument": 33, "track": 1, "qtime": 6, "isDrum": false}, {"time": 256, "velocity": 0, "pitch": 33, "instrument": 33, "track": 1, "qtime": 16, "isDrum": false}, {"time": 258, "velocity": 108, "pitch": 33, "instrument": 33, "track": 1, "qtime": 18, "isDrum": false}, {"time": 262, "velocity": 0, "pitch": 33, "instrument": 33, "track": 1, "qtime": 22, "isDrum": false}, {"time": 264, "velocity": 108, "pitch": 33, "instrument": 33, "track": 1, "qtime": 24, "isDrum": false}, {"time": 270, "velocity": 0, "pitch": 33, "instrument": 33, "track": 1, "qtime": 30, "isDrum": false}, {"time": 270, "velocity": 108, "pitch": 40, "instrument": 33, "track": 1, "qtime": 30, "isDrum": false}, {"time": 273, "velocity": 0, "pitch": 40, "instrument": 33, "track": 1, "qtime": 33, "isDrum": false}, {"time": 276, "velocity": 108, "pitch": 43, "instrument": 33, "track": 1, "qtime": 36, "isDrum": false}, {"time": 276, "velocity": 108, "pitch": 45, "instrument": 33, "track": 1, "qtime": 36, "isDrum": false}, {"time": 277, "velocity": 0, "pitch": 43, "instrument": 33, "track": 1, "qtime": 37, "isDrum": false}, {"time": 285, "velocity": 0, "pitch": 45, "instrument": 33, "track": 1, "qtime": 45, "isDrum": false}, {"time": 288, "velocity": 108, "pitch": 36, "instrument": 33, "track": 1, "qtime": 0, "isDrum": false}, {"time": 303, "velocity": 0, "pitch": 36, "instrument": 33, "track": 1, "qtime": 15, "isDrum": false}, {"time": 306, "velocity": 108, "pitch": 36, "instrument": 33, "track": 1, "qtime": 18, "isDrum": false}, {"time": 315, "velocity": 0, "pitch": 36, "instrument": 33, "track": 1, "qtime": 27, "isDrum": false}, {"time": 324, "velocity": 108, "pitch": 36, "instrument": 33, "track": 1, "qtime": 36, "isDrum": false}, {"time": 339, "velocity": 0, "pitch": 36, "instrument": 33, "track": 1, "qtime": 3, "isDrum": false}, {"time": 342, "velocity": 108, "pitch": 36, "instrument": 33, "track": 1, "qtime": 6, "isDrum": false}, {"time": 353, "velocity": 0, "pitch": 36, "instrument": 33, "track": 1, "qtime": 17, "isDrum": false}, {"time": 360, "velocity": 108, "pitch": 36, "instrument": 33, "track": 1, "qtime": 24, "isDrum": false}, {"time": 371, "velocity": 0, "pitch": 36, "instrument": 33, "track": 1, "qtime": 35, "isDrum": false}, {"time": 372, "velocity": 108, "pitch": 31, "instrument": 33, "track": 1, "qtime": 36, "isDrum": false}, {"time": 378, "velocity": 0, "pitch": 31, "instrument": 33, "track": 1, "qtime": 42, "isDrum": false}, {"time": 378, "velocity": 108, "pitch": 32, "instrument": 33, "track": 1, "qtime": 42, "isDrum": false}, {"time": 384, "velocity": 0, "pitch": 32, "instrument": 33, "track": 1, "qtime": 48, "isDrum": false}, {"time": 0, "velocity": 108, "pitch": 45, "instrument": 24, "track": 2, "qtime": 0, "isDrum": false}, {"time": 6, "velocity": 108, "pitch": 57, "instrument": 24, "track": 2, "qtime": 6, "isDrum": false}, {"time": 12, "velocity": 108, "pitch": 60, "instrument": 24, "track": 2, "qtime": 12, "isDrum": false}, {"time": 18, "velocity": 108, "pitch": 62, "instrument": 24, "track": 2, "qtime": 18, "isDrum": false}, {"time": 18, "velocity": 108, "pitch": 67, "instrument": 24, "track": 2, "qtime": 18, "isDrum": false}, {"time": 26, "velocity": 0, "pitch": 57, "instrument": 24, "track": 2, "qtime": 26, "isDrum": false}, {"time": 30, "velocity": 0, "pitch": 60, "instrument": 24, "track": 2, "qtime": 30, "isDrum": false}, {"time": 30, "velocity": 108, "pitch": 57, "instrument": 24, "track": 2, "qtime": 30, "isDrum": false}, {"time": 36, "velocity": 108, "pitch": 60, "instrument": 24, "track": 2, "qtime": 36, "isDrum": false}, {"time": 38, "velocity": 0, "pitch": 67, "instrument": 24, "track": 2, "qtime": 38, "isDrum": false}, {"time": 42, "velocity": 108, "pitch": 67, "instrument": 24, "track": 2, "qtime": 42, "isDrum": false}, {"time": 45, "velocity": 0, "pitch": 45, "instrument": 24, "track": 2, "qtime": 45, "isDrum": false}, {"time": 48, "velocity": 108, "pitch": 45, "instrument": 24, "track": 2, "qtime": 0, "isDrum": false}, {"time": 49, "velocity": 0, "pitch": 57, "instrument": 24, "track": 2, "qtime": 1, "isDrum": false}, {"time": 54, "velocity": 108, "pitch": 57, "instrument": 24, "track": 2, "qtime": 6, "isDrum": false}, {"time": 55, "velocity": 0, "pitch": 60, "instrument": 24, "track": 2, "qtime": 7, "isDrum": false}, {"time": 60, "velocity": 108, "pitch": 60, "instrument": 24, "track": 2, "qtime": 12, "isDrum": false}, {"time": 62, "velocity": 0, "pitch": 67, "instrument": 24, "track": 2, "qtime": 14, "isDrum": false}, {"time": 65, "velocity": 0, "pitch": 62, "instrument": 24, "track": 2, "qtime": 17, "isDrum": false}, {"time": 66, "velocity": 108, "pitch": 62, "instrument": 24, "track": 2, "qtime": 18, "isDrum": false}, {"time": 66, "velocity": 108, "pitch": 67, "instrument": 24, "track": 2, "qtime": 18, "isDrum": false}, {"time": 70, "velocity": 0, "pitch": 45, "instrument": 24, "track": 2, "qtime": 22, "isDrum": false}, {"time": 72, "velocity": 108, "pitch": 45, "instrument": 24, "track": 2, "qtime": 24, "isDrum": false}, {"time": 74, "velocity": 0, "pitch": 57, "instrument": 24, "track": 2, "qtime": 26, "isDrum": false}, {"time": 75, "velocity": 0, "pitch": 62, "instrument": 24, "track": 2, "qtime": 27, "isDrum": false}, {"time": 78, "velocity": 0, "pitch": 60, "instrument": 24, "track": 2, "qtime": 30, "isDrum": false}, {"time": 78, "velocity": 108, "pitch": 57, "instrument": 24, "track": 2, "qtime": 30, "isDrum": false}, {"time": 78, "velocity": 108, "pitch": 64, "instrument": 24, "track": 2, "qtime": 30, "isDrum": false}, {"time": 84, "velocity": 108, "pitch": 62, "instrument": 24, "track": 2, "qtime": 36, "isDrum": false}, {"time": 90, "velocity": 108, "pitch": 60, "instrument": 24, "track": 2, "qtime": 42, "isDrum": false}, {"time": 95, "velocity": 0, "pitch": 45, "instrument": 24, "track": 2, "qtime": 47, "isDrum": false}, {"time": 96, "velocity": 108, "pitch": 48, "instrument": 24, "track": 2, "qtime": 0, "isDrum": false}, {"time": 97, "velocity": 0, "pitch": 57, "instrument": 24, "track": 2, "qtime": 1, "isDrum": false}, {"time": 100, "velocity": 0, "pitch": 62, "instrument": 24, "track": 2, "qtime": 4, "isDrum": false}, {"time": 102, "velocity": 108, "pitch": 55, "instrument": 24, "track": 2, "qtime": 6, "isDrum": false}, {"time": 104, "velocity": 0, "pitch": 60, "instrument": 24, "track": 2, "qtime": 8, "isDrum": false}, {"time": 108, "velocity": 108, "pitch": 60, "instrument": 24, "track": 2, "qtime": 12, "isDrum": false}, {"time": 110, "velocity": 0, "pitch": 55, "instrument": 24, "track": 2, "qtime": 14, "isDrum": false}, {"time": 112, "velocity": 0, "pitch": 67, "instrument": 24, "track": 2, "qtime": 16, "isDrum": false}, {"time": 113, "velocity": 0, "pitch": 60, "instrument": 24, "track": 2, "qtime": 17, "isDrum": false}, {"time": 113, "velocity": 0, "pitch": 64, "instrument": 24, "track": 2, "qtime": 17, "isDrum": false}, {"time": 114, "velocity": 108, "pitch": 55, "instrument": 24, "track": 2, "qtime": 18, "isDrum": false}, {"time": 114, "velocity": 108, "pitch": 62, "instrument": 24, "track": 2, "qtime": 18, "isDrum": false}, {"time": 114, "velocity": 108, "pitch": 64, "instrument": 24, "track": 2, "qtime": 18, "isDrum": false}, {"time": 114, "velocity": 108, "pitch": 67, "instrument": 24, "track": 2, "qtime": 18, "isDrum": false}, {"time": 126, "velocity": 108, "pitch": 60, "instrument": 24, "track": 2, "qtime": 30, "isDrum": false}, {"time": 129, "velocity": 0, "pitch": 67, "instrument": 24, "track": 2, "qtime": 33, "isDrum": false}, {"time": 131, "velocity": 0, "pitch": 64, "instrument": 24, "track": 2, "qtime": 35, "isDrum": false}, {"time": 132, "velocity": 108, "pitch": 64, "instrument": 24, "track": 2, "qtime": 36, "isDrum": false}, {"time": 135, "velocity": 0, "pitch": 64, "instrument": 24, "track": 2, "qtime": 39, "isDrum": false}, {"time": 138, "velocity": 0, "pitch": 62, "instrument": 24, "track": 2, "qtime": 42, "isDrum": false}, {"time": 138, "velocity": 108, "pitch": 62, "instrument": 24, "track": 2, "qtime": 42, "isDrum": false}, {"time": 138, "velocity": 108, "pitch": 64, "instrument": 24, "track": 2, "qtime": 42, "isDrum": false}, {"time": 138, "velocity": 108, "pitch": 67, "instrument": 24, "track": 2, "qtime": 42, "isDrum": false}, {"time": 141, "velocity": 0, "pitch": 48, "instrument": 24, "track": 2, "qtime": 45, "isDrum": false}, {"time": 144, "velocity": 108, "pitch": 48, "instrument": 24, "track": 2, "qtime": 0, "isDrum": false}, {"time": 148, "velocity": 0, "pitch": 55, "instrument": 24, "track": 2, "qtime": 4, "isDrum": false}, {"time": 149, "velocity": 0, "pitch": 62, "instrument": 24, "track": 2, "qtime": 5, "isDrum": false}, {"time": 150, "velocity": 108, "pitch": 55, "instrument": 24, "track": 2, "qtime": 6, "isDrum": false}, {"time": 152, "velocity": 0, "pitch": 60, "instrument": 24, "track": 2, "qtime": 8, "isDrum": false}, {"time": 156, "velocity": 108, "pitch": 60, "instrument": 24, "track": 2, "qtime": 12, "isDrum": false}, {"time": 159, "velocity": 0, "pitch": 55, "instrument": 24, "track": 2, "qtime": 15, "isDrum": false}, {"time": 162, "velocity": 108, "pitch": 55, "instrument": 24, "track": 2, "qtime": 18, "isDrum": false}, {"time": 167, "velocity": 0, "pitch": 48, "instrument": 24, "track": 2, "qtime": 23, "isDrum": false}, {"time": 168, "velocity": 108, "pitch": 48, "instrument": 24, "track": 2, "qtime": 24, "isDrum": false}, {"time": 169, "velocity": 0, "pitch": 67, "instrument": 24, "track": 2, "qtime": 25, "isDrum": false}, {"time": 174, "velocity": 108, "pitch": 67, "instrument": 24, "track": 2, "qtime": 30, "isDrum": false}, {"time": 181, "velocity": 0, "pitch": 60, "instrument": 24, "track": 2, "qtime": 37, "isDrum": false}, {"time": 183, "velocity": 108, "pitch": 62, "instrument": 24, "track": 2, "qtime": 39, "isDrum": false}, {"time": 191, "velocity": 0, "pitch": 48, "instrument": 24, "track": 2, "qtime": 47, "isDrum": false}, {"time": 192, "velocity": 108, "pitch": 45, "instrument": 24, "track": 2, "qtime": 0, "isDrum": false}, {"time": 194, "velocity": 0, "pitch": 55, "instrument": 24, "track": 2, "qtime": 2, "isDrum": false}, {"time": 198, "velocity": 108, "pitch": 57, "instrument": 24, "track": 2, "qtime": 6, "isDrum": false}, {"time": 204, "velocity": 108, "pitch": 60, "instrument": 24, "track": 2, "qtime": 12, "isDrum": false}, {"time": 205, "velocity": 0, "pitch": 62, "instrument": 24, "track": 2, "qtime": 13, "isDrum": false}, {"time": 210, "velocity": 108, "pitch": 62, "instrument": 24, "track": 2, "qtime": 18, "isDrum": false}, {"time": 211, "velocity": 0, "pitch": 60, "instrument": 24, "track": 2, "qtime": 19, "isDrum": false}, {"time": 218, "velocity": 0, "pitch": 57, "instrument": 24, "track": 2, "qtime": 26, "isDrum": false}, {"time": 222, "velocity": 108, "pitch": 57, "instrument": 24, "track": 2, "qtime": 30, "isDrum": false}, {"time": 228, "velocity": 108, "pitch": 60, "instrument": 24, "track": 2, "qtime": 36, "isDrum": false}, {"time": 232, "velocity": 0, "pitch": 67, "instrument": 24, "track": 2, "qtime": 40, "isDrum": false}, {"time": 233, "velocity": 0, "pitch": 64, "instrument": 24, "track": 2, "qtime": 41, "isDrum": false}, {"time": 234, "velocity": 108, "pitch": 64, "instrument": 24, "track": 2, "qtime": 42, "isDrum": false}, {"time": 234, "velocity": 108, "pitch": 67, "instrument": 24, "track": 2, "qtime": 42, "isDrum": false}, {"time": 237, "velocity": 0, "pitch": 45, "instrument": 24, "track": 2, "qtime": 45, "isDrum": false}, {"time": 240, "velocity": 108, "pitch": 45, "instrument": 24, "track": 2, "qtime": 0, "isDrum": false}, {"time": 243, "velocity": 0, "pitch": 57, "instrument": 24, "track": 2, "qtime": 3, "isDrum": false}, {"time": 246, "velocity": 0, "pitch": 60, "instrument": 24, "track": 2, "qtime": 6, "isDrum": false}, {"time": 246, "velocity": 108, "pitch": 57, "instrument": 24, "track": 2, "qtime": 6, "isDrum": false}, {"time": 248, "velocity": 0, "pitch": 62, "instrument": 24, "track": 2, "qtime": 8, "isDrum": false}, {"time": 248, "velocity": 0, "pitch": 67, "instrument": 24, "track": 2, "qtime": 8, "isDrum": false}, {"time": 249, "velocity": 0, "pitch": 64, "instrument": 24, "track": 2, "qtime": 9, "isDrum": false}, {"time": 249, "velocity": 108, "pitch": 60, "instrument": 24, "track": 2, "qtime": 9, "isDrum": false}, {"time": 252, "velocity": 108, "pitch": 67, "instrument": 24, "track": 2, "qtime": 12, "isDrum": false}, {"time": 258, "velocity": 108, "pitch": 64, "instrument": 24, "track": 2, "qtime": 18, "isDrum": false}, {"time": 259, "velocity": 0, "pitch": 60, "instrument": 24, "track": 2, "qtime": 19, "isDrum": false}, {"time": 264, "velocity": 0, "pitch": 45, "instrument": 24, "track": 2, "qtime": 24, "isDrum": false}, {"time": 264, "velocity": 108, "pitch": 62, "instrument": 24, "track": 2, "qtime": 24, "isDrum": false}, {"time": 268, "velocity": 0, "pitch": 57, "instrument": 24, "track": 2, "qtime": 28, "isDrum": false}, {"time": 270, "velocity": 108, "pitch": 60, "instrument": 24, "track": 2, "qtime": 30, "isDrum": false}, {"time": 276, "velocity": 108, "pitch": 45, "instrument": 24, "track": 2, "qtime": 36, "isDrum": false}, {"time": 282, "velocity": 108, "pitch": 55, "instrument": 24, "track": 2, "qtime": 42, "isDrum": false}, {"time": 283, "velocity": 0, "pitch": 45, "instrument": 24, "track": 2, "qtime": 43, "isDrum": false}, {"time": 287, "velocity": 0, "pitch": 67, "instrument": 24, "track": 2, "qtime": 47, "isDrum": false}, {"time": 288, "velocity": 0, "pitch": 55, "instrument": 24, "track": 2, "qtime": 48, "isDrum": false}, {"time": 288, "velocity": 0, "pitch": 60, "instrument": 24, "track": 2, "qtime": 48, "isDrum": false}, {"time": 288, "velocity": 0, "pitch": 64, "instrument": 24, "track": 2, "qtime": 48, "isDrum": false}, {"time": 288, "velocity": 108, "pitch": 48, "instrument": 24, "track": 2, "qtime": 0, "isDrum": false}, {"time": 289, "velocity": 0, "pitch": 62, "instrument": 24, "track": 2, "qtime": 1, "isDrum": false}, {"time": 300, "velocity": 108, "pitch": 55, "instrument": 24, "track": 2, "qtime": 12, "isDrum": false}, {"time": 300, "velocity": 108, "pitch": 60, "instrument": 24, "track": 2, "qtime": 12, "isDrum": false}, {"time": 300, "velocity": 108, "pitch": 64, "instrument": 24, "track": 2, "qtime": 12, "isDrum": false}, {"time": 300, "velocity": 108, "pitch": 67, "instrument": 24, "track": 2, "qtime": 12, "isDrum": false}, {"time": 309, "velocity": 0, "pitch": 55, "instrument": 24, "track": 2, "qtime": 21, "isDrum": false}, {"time": 309, "velocity": 0, "pitch": 60, "instrument": 24, "track": 2, "qtime": 21, "isDrum": false}, {"time": 309, "velocity": 0, "pitch": 64, "instrument": 24, "track": 2, "qtime": 21, "isDrum": false}, {"time": 309, "velocity": 0, "pitch": 67, "instrument": 24, "track": 2, "qtime": 21, "isDrum": false}, {"time": 318, "velocity": 108, "pitch": 55, "instrument": 24, "track": 2, "qtime": 30, "isDrum": false}, {"time": 318, "velocity": 108, "pitch": 60, "instrument": 24, "track": 2, "qtime": 30, "isDrum": false}, {"time": 318, "velocity": 108, "pitch": 64, "instrument": 24, "track": 2, "qtime": 30, "isDrum": false}, {"time": 318, "velocity": 108, "pitch": 67, "instrument": 24, "track": 2, "qtime": 30, "isDrum": false}, {"time": 323, "velocity": 0, "pitch": 60, "instrument": 24, "track": 2, "qtime": 35, "isDrum": false}, {"time": 323, "velocity": 0, "pitch": 64, "instrument": 24, "track": 2, "qtime": 35, "isDrum": false}, {"time": 323, "velocity": 0, "pitch": 67, "instrument": 24, "track": 2, "qtime": 35, "isDrum": false}, {"time": 324, "velocity": 0, "pitch": 55, "instrument": 24, "track": 2, "qtime": 36, "isDrum": false}, {"time": 330, "velocity": 108, "pitch": 55, "instrument": 24, "track": 2, "qtime": 42, "isDrum": false}, {"time": 330, "velocity": 108, "pitch": 62, "instrument": 24, "track": 2, "qtime": 42, "isDrum": false}, {"time": 330, "velocity": 108, "pitch": 64, "instrument": 24, "track": 2, "qtime": 42, "isDrum": false}, {"time": 330, "velocity": 108, "pitch": 67, "instrument": 24, "track": 2, "qtime": 42, "isDrum": false}, {"time": 348, "velocity": 0, "pitch": 62, "instrument": 24, "track": 2, "qtime": 12, "isDrum": false}, {"time": 348, "velocity": 0, "pitch": 67, "instrument": 24, "track": 2, "qtime": 12, "isDrum": false}, {"time": 349, "velocity": 0, "pitch": 55, "instrument": 24, "track": 2, "qtime": 13, "isDrum": false}, {"time": 349, "velocity": 0, "pitch": 64, "instrument": 24, "track": 2, "qtime": 13, "isDrum": false}, {"time": 354, "velocity": 108, "pitch": 60, "instrument": 24, "track": 2, "qtime": 18, "isDrum": false}, {"time": 354, "velocity": 108, "pitch": 67, "instrument": 24, "track": 2, "qtime": 18, "isDrum": false}, {"time": 363, "velocity": 0, "pitch": 67, "instrument": 24, "track": 2, "qtime": 27, "isDrum": false}, {"time": 366, "velocity": 0, "pitch": 60, "instrument": 24, "track": 2, "qtime": 30, "isDrum": false}, {"time": 383, "velocity": 0, "pitch": 48, "instrument": 24, "track": 2, "qtime": 47, "isDrum": false}, {"time": 0, "velocity": 120, "pitch": 36, "instrument": 0, "track": 9, "qtime": 0, "isDrum": true}, {"time": 0, "velocity": 120, "pitch": 42, "instrument": 0, "track": 9, "qtime": 0, "isDrum": true}, {"time": 2, "velocity": 0, "pitch": 42, "instrument": 0, "track": 9, "qtime": 2, "isDrum": true}, {"time": 3, "velocity": 0, "pitch": 36, "instrument": 0, "track": 9, "qtime": 3, "isDrum": true}, {"time": 6, "velocity": 120, "pitch": 42, "instrument": 0, "track": 9, "qtime": 6, "isDrum": true}, {"time": 8, "velocity": 0, "pitch": 42, "instrument": 0, "track": 9, "qtime": 8, "isDrum": true}, {"time": 9, "velocity": 120, "pitch": 42, "instrument": 0, "track": 9, "qtime": 9, "isDrum": true}, {"time": 11, "velocity": 0, "pitch": 42, "instrument": 0, "track": 9, "qtime": 11, "isDrum": true}, {"time": 12, "velocity": 120, "pitch": 31, "instrument": 0, "track": 9, "qtime": 12, "isDrum": true}, {"time": 12, "velocity": 120, "pitch": 37, "instrument": 0, "track": 9, "qtime": 12, "isDrum": true}, {"time": 12, "velocity": 120, "pitch": 42, "instrument": 0, "track": 9, "qtime": 12, "isDrum": true}, {"time": 14, "velocity": 0, "pitch": 42, "instrument": 0, "track": 9, "qtime": 14, "isDrum": true}, {"time": 15, "velocity": 0, "pitch": 31, "instrument": 0, "track": 9, "qtime": 15, "isDrum": true}, {"time": 15, "velocity": 0, "pitch": 37, "instrument": 0, "track": 9, "qtime": 15, "isDrum": true}, {"time": 18, "velocity": 120, "pitch": 36, "instrument": 0, "track": 9, "qtime": 18, "isDrum": true}, {"time": 18, "velocity": 120, "pitch": 42, "instrument": 0, "track": 9, "qtime": 18, "isDrum": true}, {"time": 20, "velocity": 0, "pitch": 42, "instrument": 0, "track": 9, "qtime": 20, "isDrum": true}, {"time": 21, "velocity": 0, "pitch": 36, "instrument": 0, "track": 9, "qtime": 21, "isDrum": true}, {"time": 24, "velocity": 120, "pitch": 42, "instrument": 0, "track": 9, "qtime": 24, "isDrum": true}, {"time": 26, "velocity": 0, "pitch": 42, "instrument": 0, "track": 9, "qtime": 26, "isDrum": true}, {"time": 30, "velocity": 120, "pitch": 42, "instrument": 0, "track": 9, "qtime": 30, "isDrum": true}, {"time": 32, "velocity": 0, "pitch": 42, "instrument": 0, "track": 9, "qtime": 32, "isDrum": true}, {"time": 36, "velocity": 120, "pitch": 31, "instrument": 0, "track": 9, "qtime": 36, "isDrum": true}, {"time": 36, "velocity": 120, "pitch": 37, "instrument": 0, "track": 9, "qtime": 36, "isDrum": true}, {"time": 36, "velocity": 120, "pitch": 42, "instrument": 0, "track": 9, "qtime": 36, "isDrum": true}, {"time": 38, "velocity": 0, "pitch": 42, "instrument": 0, "track": 9, "qtime": 38, "isDrum": true}, {"time": 39, "velocity": 0, "pitch": 31, "instrument": 0, "track": 9, "qtime": 39, "isDrum": true}, {"time": 39, "velocity": 0, "pitch": 37, "instrument": 0, "track": 9, "qtime": 39, "isDrum": true}, {"time": 42, "velocity": 120, "pitch": 42, "instrument": 0, "track": 9, "qtime": 42, "isDrum": true}, {"time": 44, "velocity": 0, "pitch": 42, "instrument": 0, "track": 9, "qtime": 44, "isDrum": true}, {"time": 48, "velocity": 120, "pitch": 36, "instrument": 0, "track": 9, "qtime": 0, "isDrum": true}, {"time": 48, "velocity": 120, "pitch": 42, "instrument": 0, "track": 9, "qtime": 0, "isDrum": true}, {"time": 50, "velocity": 0, "pitch": 42, "instrument": 0, "track": 9, "qtime": 2, "isDrum": true}, {"time": 51, "velocity": 0, "pitch": 36, "instrument": 0, "track": 9, "qtime": 3, "isDrum": true}, {"time": 54, "velocity": 120, "pitch": 42, "instrument": 0, "track": 9, "qtime": 6, "isDrum": true}, {"time": 56, "velocity": 0, "pitch": 42, "instrument": 0, "track": 9, "qtime": 8, "isDrum": true}, {"time": 60, "velocity": 120, "pitch": 31, "instrument": 0, "track": 9, "qtime": 12, "isDrum": true}, {"time": 60, "velocity": 120, "pitch": 37, "instrument": 0, "track": 9, "qtime": 12, "isDrum": true}, {"time": 60, "velocity": 120, "pitch": 42, "instrument": 0, "track": 9, "qtime": 12, "isDrum": true}, {"time": 62, "velocity": 0, "pitch": 42, "instrument": 0, "track": 9, "qtime": 14, "isDrum": true}, {"time": 63, "velocity": 0, "pitch": 31, "instrument": 0, "track": 9, "qtime": 15, "isDrum": true}, {"time": 63, "velocity": 0, "pitch": 37, "instrument": 0, "track": 9, "qtime": 15, "isDrum": true}, {"time": 66, "velocity": 120, "pitch": 36, "instrument": 0, "track": 9, "qtime": 18, "isDrum": true}, {"time": 66, "velocity": 120, "pitch": 42, "instrument": 0, "track": 9, "qtime": 18, "isDrum": true}, {"time": 68, "velocity": 0, "pitch": 42, "instrument": 0, "track": 9, "qtime": 20, "isDrum": true}, {"time": 69, "velocity": 0, "pitch": 36, "instrument": 0, "track": 9, "qtime": 21, "isDrum": true}, {"time": 72, "velocity": 120, "pitch": 42, "instrument": 0, "track": 9, "qtime": 24, "isDrum": true}, {"time": 74, "velocity": 0, "pitch": 42, "instrument": 0, "track": 9, "qtime": 26, "isDrum": true}, {"time": 78, "velocity": 120, "pitch": 42, "instrument": 0, "track": 9, "qtime": 30, "isDrum": true}, {"time": 80, "velocity": 0, "pitch": 42, "instrument": 0, "track": 9, "qtime": 32, "isDrum": true}, {"time": 84, "velocity": 120, "pitch": 31, "instrument": 0, "track": 9, "qtime": 36, "isDrum": true}, {"time": 84, "velocity": 120, "pitch": 37, "instrument": 0, "track": 9, "qtime": 36, "isDrum": true}, {"time": 84, "velocity": 120, "pitch": 42, "instrument": 0, "track": 9, "qtime": 36, "isDrum": true}, {"time": 86, "velocity": 0, "pitch": 42, "instrument": 0, "track": 9, "qtime": 38, "isDrum": true}, {"time": 87, "velocity": 0, "pitch": 31, "instrument": 0, "track": 9, "qtime": 39, "isDrum": true}, {"time": 87, "velocity": 0, "pitch": 37, "instrument": 0, "track": 9, "qtime": 39, "isDrum": true}, {"time": 90, "velocity": 120, "pitch": 42, "instrument": 0, "track": 9, "qtime": 42, "isDrum": true}, {"time": 92, "velocity": 0, "pitch": 42, "instrument": 0, "track": 9, "qtime": 44, "isDrum": true}, {"time": 96, "velocity": 120, "pitch": 36, "instrument": 0, "track": 9, "qtime": 0, "isDrum": true}, {"time": 96, "velocity": 120, "pitch": 42, "instrument": 0, "track": 9, "qtime": 0, "isDrum": true}, {"time": 98, "velocity": 0, "pitch": 42, "instrument": 0, "track": 9, "qtime": 2, "isDrum": true}, {"time": 99, "velocity": 0, "pitch": 36, "instrument": 0, "track": 9, "qtime": 3, "isDrum": true}, {"time": 102, "velocity": 120, "pitch": 42, "instrument": 0, "track": 9, "qtime": 6, "isDrum": true}, {"time": 104, "velocity": 0, "pitch": 42, "instrument": 0, "track": 9, "qtime": 8, "isDrum": true}, {"time": 105, "velocity": 120, "pitch": 42, "instrument": 0, "track": 9, "qtime": 9, "isDrum": true}, {"time": 107, "velocity": 0, "pitch": 42, "instrument": 0, "track": 9, "qtime": 11, "isDrum": true}, {"time": 108, "velocity": 120, "pitch": 31, "instrument": 0, "track": 9, "qtime": 12, "isDrum": true}, {"time": 108, "velocity": 120, "pitch": 37, "instrument": 0, "track": 9, "qtime": 12, "isDrum": true}, {"time": 108, "velocity": 120, "pitch": 42, "instrument": 0, "track": 9, "qtime": 12, "isDrum": true}, {"time": 110, "velocity": 0, "pitch": 42, "instrument": 0, "track": 9, "qtime": 14, "isDrum": true}, {"time": 111, "velocity": 0, "pitch": 31, "instrument": 0, "track": 9, "qtime": 15, "isDrum": true}, {"time": 111, "velocity": 0, "pitch": 37, "instrument": 0, "track": 9, "qtime": 15, "isDrum": true}, {"time": 114, "velocity": 120, "pitch": 36, "instrument": 0, "track": 9, "qtime": 18, "isDrum": true}, {"time": 114, "velocity": 120, "pitch": 42, "instrument": 0, "track": 9, "qtime": 18, "isDrum": true}, {"time": 116, "velocity": 0, "pitch": 42, "instrument": 0, "track": 9, "qtime": 20, "isDrum": true}, {"time": 117, "velocity": 0, "pitch": 36, "instrument": 0, "track": 9, "qtime": 21, "isDrum": true}, {"time": 120, "velocity": 120, "pitch": 42, "instrument": 0, "track": 9, "qtime": 24, "isDrum": true}, {"time": 122, "velocity": 0, "pitch": 42, "instrument": 0, "track": 9, "qtime": 26, "isDrum": true}, {"time": 126, "velocity": 120, "pitch": 42, "instrument": 0, "track": 9, "qtime": 30, "isDrum": true}, {"time": 128, "velocity": 0, "pitch": 42, "instrument": 0, "track": 9, "qtime": 32, "isDrum": true}, {"time": 132, "velocity": 120, "pitch": 31, "instrument": 0, "track": 9, "qtime": 36, "isDrum": true}, {"time": 132, "velocity": 120, "pitch": 37, "instrument": 0, "track": 9, "qtime": 36, "isDrum": true}, {"time": 132, "velocity": 120, "pitch": 42, "instrument": 0, "track": 9, "qtime": 36, "isDrum": true}, {"time": 134, "velocity": 0, "pitch": 42, "instrument": 0, "track": 9, "qtime": 38, "isDrum": true}, {"time": 135, "velocity": 0, "pitch": 31, "instrument": 0, "track": 9, "qtime": 39, "isDrum": true}, {"time": 135, "velocity": 0, "pitch": 37, "instrument": 0, "track": 9, "qtime": 39, "isDrum": true}, {"time": 138, "velocity": 120, "pitch": 42, "instrument": 0, "track": 9, "qtime": 42, "isDrum": true}, {"time": 140, "velocity": 0, "pitch": 42, "instrument": 0, "track": 9, "qtime": 44, "isDrum": true}, {"time": 144, "velocity": 120, "pitch": 36, "instrument": 0, "track": 9, "qtime": 0, "isDrum": true}, {"time": 144, "velocity": 120, "pitch": 42, "instrument": 0, "track": 9, "qtime": 0, "isDrum": true}, {"time": 146, "velocity": 0, "pitch": 42, "instrument": 0, "track": 9, "qtime": 2, "isDrum": true}, {"time": 147, "velocity": 0, "pitch": 36, "instrument": 0, "track": 9, "qtime": 3, "isDrum": true}, {"time": 150, "velocity": 120, "pitch": 42, "instrument": 0, "track": 9, "qtime": 6, "isDrum": true}, {"time": 152, "velocity": 0, "pitch": 42, "instrument": 0, "track": 9, "qtime": 8, "isDrum": true}, {"time": 156, "velocity": 120, "pitch": 31, "instrument": 0, "track": 9, "qtime": 12, "isDrum": true}, {"time": 156, "velocity": 120, "pitch": 37, "instrument": 0, "track": 9, "qtime": 12, "isDrum": true}, {"time": 156, "velocity": 120, "pitch": 42, "instrument": 0, "track": 9, "qtime": 12, "isDrum": true}, {"time": 158, "velocity": 0, "pitch": 42, "instrument": 0, "track": 9, "qtime": 14, "isDrum": true}, {"time": 159, "velocity": 0, "pitch": 31, "instrument": 0, "track": 9, "qtime": 15, "isDrum": true}, {"time": 159, "velocity": 0, "pitch": 37, "instrument": 0, "track": 9, "qtime": 15, "isDrum": true}, {"time": 162, "velocity": 120, "pitch": 36, "instrument": 0, "track": 9, "qtime": 18, "isDrum": true}, {"time": 162, "velocity": 120, "pitch": 42, "instrument": 0, "track": 9, "qtime": 18, "isDrum": true}, {"time": 164, "velocity": 0, "pitch": 42, "instrument": 0, "track": 9, "qtime": 20, "isDrum": true}, {"time": 165, "velocity": 0, "pitch": 36, "instrument": 0, "track": 9, "qtime": 21, "isDrum": true}, {"time": 168, "velocity": 120, "pitch": 42, "instrument": 0, "track": 9, "qtime": 24, "isDrum": true}, {"time": 170, "velocity": 0, "pitch": 42, "instrument": 0, "track": 9, "qtime": 26, "isDrum": true}, {"time": 174, "velocity": 120, "pitch": 42, "instrument": 0, "track": 9, "qtime": 30, "isDrum": true}, {"time": 176, "velocity": 0, "pitch": 42, "instrument": 0, "track": 9, "qtime": 32, "isDrum": true}, {"time": 180, "velocity": 120, "pitch": 31, "instrument": 0, "track": 9, "qtime": 36, "isDrum": true}, {"time": 180, "velocity": 120, "pitch": 37, "instrument": 0, "track": 9, "qtime": 36, "isDrum": true}, {"time": 180, "velocity": 120, "pitch": 42, "instrument": 0, "track": 9, "qtime": 36, "isDrum": true}, {"time": 182, "velocity": 0, "pitch": 42, "instrument": 0, "track": 9, "qtime": 38, "isDrum": true}, {"time": 183, "velocity": 0, "pitch": 31, "instrument": 0, "track": 9, "qtime": 39, "isDrum": true}, {"time": 183, "velocity": 0, "pitch": 37, "instrument": 0, "track": 9, "qtime": 39, "isDrum": true}, {"time": 186, "velocity": 120, "pitch": 42, "instrument": 0, "track": 9, "qtime": 42, "isDrum": true}, {"time": 188, "velocity": 0, "pitch": 42, "instrument": 0, "track": 9, "qtime": 44, "isDrum": true}, {"time": 192, "velocity": 120, "pitch": 36, "instrument": 0, "track": 9, "qtime": 0, "isDrum": true}, {"time": 192, "velocity": 120, "pitch": 42, "instrument": 0, "track": 9, "qtime": 0, "isDrum": true}, {"time": 194, "velocity": 0, "pitch": 42, "instrument": 0, "track": 9, "qtime": 2, "isDrum": true}, {"time": 195, "velocity": 0, "pitch": 36, "instrument": 0, "track": 9, "qtime": 3, "isDrum": true}, {"time": 198, "velocity": 120, "pitch": 42, "instrument": 0, "track": 9, "qtime": 6, "isDrum": true}, {"time": 200, "velocity": 0, "pitch": 42, "instrument": 0, "track": 9, "qtime": 8, "isDrum": true}, {"time": 204, "velocity": 120, "pitch": 31, "instrument": 0, "track": 9, "qtime": 12, "isDrum": true}, {"time": 204, "velocity": 120, "pitch": 37, "instrument": 0, "track": 9, "qtime": 12, "isDrum": true}, {"time": 204, "velocity": 120, "pitch": 42, "instrument": 0, "track": 9, "qtime": 12, "isDrum": true}, {"time": 206, "velocity": 0, "pitch": 42, "instrument": 0, "track": 9, "qtime": 14, "isDrum": true}, {"time": 207, "velocity": 0, "pitch": 31, "instrument": 0, "track": 9, "qtime": 15, "isDrum": true}, {"time": 207, "velocity": 0, "pitch": 37, "instrument": 0, "track": 9, "qtime": 15, "isDrum": true}, {"time": 210, "velocity": 120, "pitch": 36, "instrument": 0, "track": 9, "qtime": 18, "isDrum": true}, {"time": 210, "velocity": 120, "pitch": 42, "instrument": 0, "track": 9, "qtime": 18, "isDrum": true}, {"time": 212, "velocity": 0, "pitch": 42, "instrument": 0, "track": 9, "qtime": 20, "isDrum": true}, {"time": 213, "velocity": 0, "pitch": 36, "instrument": 0, "track": 9, "qtime": 21, "isDrum": true}, {"time": 216, "velocity": 120, "pitch": 42, "instrument": 0, "track": 9, "qtime": 24, "isDrum": true}, {"time": 218, "velocity": 0, "pitch": 42, "instrument": 0, "track": 9, "qtime": 26, "isDrum": true}, {"time": 222, "velocity": 120, "pitch": 42, "instrument": 0, "track": 9, "qtime": 30, "isDrum": true}, {"time": 224, "velocity": 0, "pitch": 42, "instrument": 0, "track": 9, "qtime": 32, "isDrum": true}, {"time": 228, "velocity": 120, "pitch": 31, "instrument": 0, "track": 9, "qtime": 36, "isDrum": true}, {"time": 228, "velocity": 120, "pitch": 37, "instrument": 0, "track": 9, "qtime": 36, "isDrum": true}, {"time": 228, "velocity": 120, "pitch": 42, "instrument": 0, "track": 9, "qtime": 36, "isDrum": true}, {"time": 230, "velocity": 0, "pitch": 42, "instrument": 0, "track": 9, "qtime": 38, "isDrum": true}, {"time": 231, "velocity": 0, "pitch": 31, "instrument": 0, "track": 9, "qtime": 39, "isDrum": true}, {"time": 231, "velocity": 0, "pitch": 37, "instrument": 0, "track": 9, "qtime": 39, "isDrum": true}, {"time": 234, "velocity": 120, "pitch": 42, "instrument": 0, "track": 9, "qtime": 42, "isDrum": true}, {"time": 236, "velocity": 0, "pitch": 42, "instrument": 0, "track": 9, "qtime": 44, "isDrum": true}, {"time": 240, "velocity": 120, "pitch": 36, "instrument": 0, "track": 9, "qtime": 0, "isDrum": true}, {"time": 240, "velocity": 120, "pitch": 42, "instrument": 0, "track": 9, "qtime": 0, "isDrum": true}, {"time": 242, "velocity": 0, "pitch": 42, "instrument": 0, "track": 9, "qtime": 2, "isDrum": true}, {"time": 243, "velocity": 0, "pitch": 36, "instrument": 0, "track": 9, "qtime": 3, "isDrum": true}, {"time": 246, "velocity": 120, "pitch": 42, "instrument": 0, "track": 9, "qtime": 6, "isDrum": true}, {"time": 248, "velocity": 0, "pitch": 42, "instrument": 0, "track": 9, "qtime": 8, "isDrum": true}, {"time": 252, "velocity": 120, "pitch": 31, "instrument": 0, "track": 9, "qtime": 12, "isDrum": true}, {"time": 252, "velocity": 120, "pitch": 37, "instrument": 0, "track": 9, "qtime": 12, "isDrum": true}, {"time": 252, "velocity": 120, "pitch": 42, "instrument": 0, "track": 9, "qtime": 12, "isDrum": true}, {"time": 254, "velocity": 0, "pitch": 42, "instrument": 0, "track": 9, "qtime": 14, "isDrum": true}, {"time": 255, "velocity": 0, "pitch": 31, "instrument": 0, "track": 9, "qtime": 15, "isDrum": true}, {"time": 255, "velocity": 0, "pitch": 37, "instrument": 0, "track": 9, "qtime": 15, "isDrum": true}, {"time": 258, "velocity": 120, "pitch": 36, "instrument": 0, "track": 9, "qtime": 18, "isDrum": true}, {"time": 258, "velocity": 120, "pitch": 42, "instrument": 0, "track": 9, "qtime": 18, "isDrum": true}, {"time": 260, "velocity": 0, "pitch": 42, "instrument": 0, "track": 9, "qtime": 20, "isDrum": true}, {"time": 261, "velocity": 0, "pitch": 36, "instrument": 0, "track": 9, "qtime": 21, "isDrum": true}, {"time": 264, "velocity": 120, "pitch": 42, "instrument": 0, "track": 9, "qtime": 24, "isDrum": true}, {"time": 266, "velocity": 0, "pitch": 42, "instrument": 0, "track": 9, "qtime": 26, "isDrum": true}, {"time": 270, "velocity": 120, "pitch": 42, "instrument": 0, "track": 9, "qtime": 30, "isDrum": true}, {"time": 272, "velocity": 0, "pitch": 42, "instrument": 0, "track": 9, "qtime": 32, "isDrum": true}, {"time": 276, "velocity": 120, "pitch": 31, "instrument": 0, "track": 9, "qtime": 36, "isDrum": true}, {"time": 276, "velocity": 120, "pitch": 37, "instrument": 0, "track": 9, "qtime": 36, "isDrum": true}, {"time": 276, "velocity": 120, "pitch": 42, "instrument": 0, "track": 9, "qtime": 36, "isDrum": true}, {"time": 278, "velocity": 0, "pitch": 42, "instrument": 0, "track": 9, "qtime": 38, "isDrum": true}, {"time": 279, "velocity": 0, "pitch": 31, "instrument": 0, "track": 9, "qtime": 39, "isDrum": true}, {"time": 279, "velocity": 0, "pitch": 37, "instrument": 0, "track": 9, "qtime": 39, "isDrum": true}, {"time": 282, "velocity": 120, "pitch": 42, "instrument": 0, "track": 9, "qtime": 42, "isDrum": true}, {"time": 284, "velocity": 0, "pitch": 42, "instrument": 0, "track": 9, "qtime": 44, "isDrum": true}, {"time": 288, "velocity": 120, "pitch": 36, "instrument": 0, "track": 9, "qtime": 0, "isDrum": true}, {"time": 288, "velocity": 120, "pitch": 42, "instrument": 0, "track": 9, "qtime": 0, "isDrum": true}, {"time": 288, "velocity": 120, "pitch": 49, "instrument": 0, "track": 9, "qtime": 0, "isDrum": true}, {"time": 290, "velocity": 0, "pitch": 42, "instrument": 0, "track": 9, "qtime": 2, "isDrum": true}, {"time": 291, "velocity": 0, "pitch": 36, "instrument": 0, "track": 9, "qtime": 3, "isDrum": true}, {"time": 294, "velocity": 120, "pitch": 42, "instrument": 0, "track": 9, "qtime": 6, "isDrum": true}, {"time": 296, "velocity": 0, "pitch": 42, "instrument": 0, "track": 9, "qtime": 8, "isDrum": true}, {"time": 300, "velocity": 120, "pitch": 31, "instrument": 0, "track": 9, "qtime": 12, "isDrum": true}, {"time": 300, "velocity": 120, "pitch": 37, "instrument": 0, "track": 9, "qtime": 12, "isDrum": true}, {"time": 300, "velocity": 120, "pitch": 42, "instrument": 0, "track": 9, "qtime": 12, "isDrum": true}, {"time": 302, "velocity": 0, "pitch": 42, "instrument": 0, "track": 9, "qtime": 14, "isDrum": true}, {"time": 303, "velocity": 0, "pitch": 31, "instrument": 0, "track": 9, "qtime": 15, "isDrum": true}, {"time": 303, "velocity": 0, "pitch": 37, "instrument": 0, "track": 9, "qtime": 15, "isDrum": true}, {"time": 306, "velocity": 120, "pitch": 36, "instrument": 0, "track": 9, "qtime": 18, "isDrum": true}, {"time": 306, "velocity": 120, "pitch": 42, "instrument": 0, "track": 9, "qtime": 18, "isDrum": true}, {"time": 308, "velocity": 0, "pitch": 42, "instrument": 0, "track": 9, "qtime": 20, "isDrum": true}, {"time": 309, "velocity": 0, "pitch": 36, "instrument": 0, "track": 9, "qtime": 21, "isDrum": true}, {"time": 312, "velocity": 120, "pitch": 42, "instrument": 0, "track": 9, "qtime": 24, "isDrum": true}, {"time": 314, "velocity": 0, "pitch": 42, "instrument": 0, "track": 9, "qtime": 26, "isDrum": true}, {"time": 318, "velocity": 120, "pitch": 42, "instrument": 0, "track": 9, "qtime": 30, "isDrum": true}, {"time": 320, "velocity": 0, "pitch": 42, "instrument": 0, "track": 9, "qtime": 32, "isDrum": true}, {"time": 324, "velocity": 120, "pitch": 31, "instrument": 0, "track": 9, "qtime": 36, "isDrum": true}, {"time": 324, "velocity": 120, "pitch": 37, "instrument": 0, "track": 9, "qtime": 36, "isDrum": true}, {"time": 324, "velocity": 120, "pitch": 42, "instrument": 0, "track": 9, "qtime": 36, "isDrum": true}, {"time": 326, "velocity": 0, "pitch": 42, "instrument": 0, "track": 9, "qtime": 38, "isDrum": true}, {"time": 327, "velocity": 0, "pitch": 31, "instrument": 0, "track": 9, "qtime": 39, "isDrum": true}, {"time": 327, "velocity": 0, "pitch": 37, "instrument": 0, "track": 9, "qtime": 39, "isDrum": true}, {"time": 330, "velocity": 120, "pitch": 42, "instrument": 0, "track": 9, "qtime": 42, "isDrum": true}, {"time": 332, "velocity": 0, "pitch": 42, "instrument": 0, "track": 9, "qtime": 44, "isDrum": true}, {"time": 336, "velocity": 120, "pitch": 36, "instrument": 0, "track": 9, "qtime": 0, "isDrum": true}, {"time": 336, "velocity": 120, "pitch": 42, "instrument": 0, "track": 9, "qtime": 0, "isDrum": true}, {"time": 338, "velocity": 0, "pitch": 42, "instrument": 0, "track": 9, "qtime": 2, "isDrum": true}, {"time": 339, "velocity": 0, "pitch": 36, "instrument": 0, "track": 9, "qtime": 3, "isDrum": true}, {"time": 342, "velocity": 120, "pitch": 42, "instrument": 0, "track": 9, "qtime": 6, "isDrum": true}, {"time": 344, "velocity": 0, "pitch": 42, "instrument": 0, "track": 9, "qtime": 8, "isDrum": true}, {"time": 348, "velocity": 120, "pitch": 31, "instrument": 0, "track": 9, "qtime": 12, "isDrum": true}, {"time": 348, "velocity": 120, "pitch": 37, "instrument": 0, "track": 9, "qtime": 12, "isDrum": true}, {"time": 348, "velocity": 120, "pitch": 42, "instrument": 0, "track": 9, "qtime": 12, "isDrum": true}, {"time": 348, "velocity": 120, "pitch": 54, "instrument": 0, "track": 9, "qtime": 12, "isDrum": true}, {"time": 350, "velocity": 0, "pitch": 42, "instrument": 0, "track": 9, "qtime": 14, "isDrum": true}, {"time": 351, "velocity": 0, "pitch": 31, "instrument": 0, "track": 9, "qtime": 15, "isDrum": true}, {"time": 351, "velocity": 0, "pitch": 37, "instrument": 0, "track": 9, "qtime": 15, "isDrum": true}, {"time": 354, "velocity": 120, "pitch": 36, "instrument": 0, "track": 9, "qtime": 18, "isDrum": true}, {"time": 354, "velocity": 120, "pitch": 42, "instrument": 0, "track": 9, "qtime": 18, "isDrum": true}, {"time": 356, "velocity": 0, "pitch": 42, "instrument": 0, "track": 9, "qtime": 20, "isDrum": true}, {"time": 357, "velocity": 0, "pitch": 36, "instrument": 0, "track": 9, "qtime": 21, "isDrum": true}, {"time": 360, "velocity": 120, "pitch": 42, "instrument": 0, "track": 9, "qtime": 24, "isDrum": true}, {"time": 362, "velocity": 0, "pitch": 42, "instrument": 0, "track": 9, "qtime": 26, "isDrum": true}, {"time": 366, "velocity": 120, "pitch": 31, "instrument": 0, "track": 9, "qtime": 30, "isDrum": true}, {"time": 366, "velocity": 120, "pitch": 37, "instrument": 0, "track": 9, "qtime": 30, "isDrum": true}, {"time": 366, "velocity": 120, "pitch": 42, "instrument": 0, "track": 9, "qtime": 30, "isDrum": true}, {"time": 368, "velocity": 0, "pitch": 42, "instrument": 0, "track": 9, "qtime": 32, "isDrum": true}, {"time": 369, "velocity": 0, "pitch": 31, "instrument": 0, "track": 9, "qtime": 33, "isDrum": true}, {"time": 369, "velocity": 0, "pitch": 37, "instrument": 0, "track": 9, "qtime": 33, "isDrum": true}, {"time": 372, "velocity": 120, "pitch": 31, "instrument": 0, "track": 9, "qtime": 36, "isDrum": true}, {"time": 372, "velocity": 120, "pitch": 37, "instrument": 0, "track": 9, "qtime": 36, "isDrum": true}, {"time": 372, "velocity": 120, "pitch": 42, "instrument": 0, "track": 9, "qtime": 36, "isDrum": true}, {"time": 374, "velocity": 0, "pitch": 42, "instrument": 0, "track": 9, "qtime": 38, "isDrum": true}, {"time": 374, "velocity": 0, "pitch": 54, "instrument": 0, "track": 9, "qtime": 38, "isDrum": true}, {"time": 375, "velocity": 0, "pitch": 31, "instrument": 0, "track": 9, "qtime": 39, "isDrum": true}, {"time": 375, "velocity": 0, "pitch": 37, "instrument": 0, "track": 9, "qtime": 39, "isDrum": true}, {"time": 378, "velocity": 120, "pitch": 42, "instrument": 0, "track": 9, "qtime": 42, "isDrum": true}, {"time": 380, "velocity": 0, "pitch": 42, "instrument": 0, "track": 9, "qtime": 44, "isDrum": true}, {"time": 383, "velocity": 0, "pitch": 49, "instrument": 0, "track": 9, "qtime": 47, "isDrum": true}], "resolution": 12, "tempo": 144, "minPitch": 31, "maxPitch": 67, "validSegments": [0], "validTracks": [15]}, "audio": "https://www.sfu.ca/~jeffe/examples/8b_ex8_density_medium_high.mp3"}, {"src": "gen/8b_ex8_density_high.json", "highlights": [[], [], [], [0, 1, 2, 3, 4, 5, 6, 7]], "caption": "Resample the drum track in 19a with high density.", "sample_id": "19e", "mixer": [8, 8, 8, 9], "json": {"tracks": [{"bars": [{"events": [0, 1, 2, 3, 4, 5, 6, 7, 8], "isFourFour": true, "hasNotes": true, "time": 0}, {"events": [9, 10, 11, 12, 13, 14, 15, 16, 17, 18, 19, 20, 21, 22, 23, 24, 25, 26, 27, 28, 29], "isFourFour": true, "hasNotes": true, "time": 48}, {"events": [30, 31, 32, 33, 34, 35, 36, 37, 38, 39, 40, 41, 42, 43, 44, 45, 46], "isFourFour": true, "hasNotes": true, "time": 96}, {"events": [47, 48, 49, 50, 51, 52, 53, 54, 55, 56], "isFourFour": true, "hasNotes": true, "time": 144}, {"events": [57, 58, 59, 60, 61, 62, 63, 64, 65, 66, 67, 68, 69, 70, 71, 72, 73, 74], "isFourFour": true, "hasNotes": true, "time": 192}, {"events": [75, 76, 77, 78, 79, 80, 81, 82, 83, 84, 85, 86, 87, 88, 89, 90, 91, 92, 93], "isFourFour": true, "hasNotes": true, "time": 240}, {"events": [94, 95, 96, 97, 98, 99, 100, 101, 102], "isFourFour": true, "hasNotes": true, "time": 288}, {"events": [103, 104, 105, 106, 107, 108, 109, 110, 111, 112, 113, 114, 115, 116, 117, 118, 119], "isFourFour": true, "hasNotes": true, "time": 336}], "isDrum": false, "minPitch": 36, "maxPitch": 64, "instrument": 4, "avPolyphony": 3.66576076, "noteDensity": 9, "noteDensityV2": 5}, {"bars": [{"events": [120, 121, 122, 123, 124], "isFourFour": true, "hasNotes": true, "time": 0}, {"events": [125, 126, 127, 128, 129, 130, 131, 132, 133, 134], "isFourFour": true, "hasNotes": true, "time": 48}, {"events": [135, 136, 137, 138, 139, 140], "isFourFour": true, "hasNotes": true, "time": 96}, {"events": [141, 142, 143, 144, 145, 146, 147, 148, 149], "isFourFour": true, "hasNotes": true, "time": 144}, {"events": [150, 151, 152, 153, 154], "isFourFour": true, "hasNotes": true, "time": 192}, {"events": [155, 156, 157, 158, 159, 160, 161, 162, 163, 164, 165, 166, 167], "isFourFour": true, "hasNotes": true, "time": 240}, {"events": [168, 169, 170, 171, 172], "isFourFour": true, "hasNotes": true, "time": 288}, {"events": [173, 174, 175, 176, 177, 178, 179, 180, 181], "isFourFour": true, "hasNotes": true, "time": 336}], "isDrum": false, "minPitch": 31, "maxPitch": 45, "instrument": 33, "avPolyphony": 1.00677967, "noteDensity": 8, "noteDensityV2": 3}, {"bars": [{"events": [182, 183, 184, 185, 186, 187, 188, 189, 190, 191, 192, 193], "isFourFour": true, "hasNotes": true, "time": 0}, {"events": [194, 195, 196, 197, 198, 199, 200, 201, 202, 203, 204, 205, 206, 207, 208, 209, 210, 211, 212], "isFourFour": true, "hasNotes": true, "time": 48}, {"events": [213, 214, 215, 216, 217, 218, 219, 220, 221, 222, 223, 224, 225, 226, 227, 228, 229, 230, 231, 232, 233, 234, 235, 236], "isFourFour": true, "hasNotes": true, "time": 96}, {"events": [237, 238, 239, 240, 241, 242, 243, 244, 245, 246, 247, 248, 249, 250, 251], "isFourFour": true, "hasNotes": true, "time": 144}, {"events": [252, 253, 254, 255, 256, 257, 258, 259, 260, 261, 262, 263, 264, 265, 266], "isFourFour": true, "hasNotes": true, "time": 192}, {"events": [267, 268, 269, 270, 271, 272, 273, 274, 275, 276, 277, 278, 279, 280, 281, 282, 283, 284, 285, 286, 287, 288], "isFourFour": true, "hasNotes": true, "time": 240}, {"events": [289, 290, 291, 292, 293, 294, 295, 296, 297, 298, 299, 300, 301, 302, 303, 304, 305, 306, 307, 308, 309, 310], "isFourFour": true, "hasNotes": true, "time": 288}, {"events": [311, 312, 313, 314, 315, 316, 317, 318, 319], "isFourFour": true, "hasNotes": true, "time": 336}], "isDrum": false, "minPitch": 45, "maxPitch": 67, "instrument": 24, "avPolyphony": 4.01566601, "noteDensity": 9, "noteDensityV2": 5}, {"bars": [{"events": [320, 321, 322, 323, 324, 325, 326, 327, 328, 329, 330, 331, 332, 333, 334, 335, 336, 337, 338, 339, 340, 341, 342, 343, 344, 345, 346, 347, 348, 349, 350, 351, 352, 353, 354, 355, 356, 357, 358, 359], "isFourFour": true, "hasNotes": true, "time": 0}, {"events": [360, 361, 362, 363, 364, 365, 366, 367, 368, 369, 370, 371, 372, 373, 374, 375, 376, 377, 378, 379, 380, 381, 382, 383, 384, 385, 386, 387, 388, 389, 390, 391, 392, 393, 394, 395, 396, 397], "isFourFour": true, "hasNotes": true, "time": 48}, {"events": [398, 399, 400, 401, 402, 403, 404, 405, 406, 407, 408, 409, 410, 411, 412, 413, 414, 415, 416, 417, 418, 419, 420, 421, 422, 423, 424, 425, 426, 427, 428, 429, 430, 431, 432, 433, 434, 435, 436, 437], "isFourFour": true, "hasNotes": true, "time": 96}, {"events": [438, 439, 440, 441, 442, 443, 444, 445, 446, 447, 448, 449, 450, 451, 452, 453, 454, 455, 456, 457, 458, 459, 460, 461, 462, 463, 464, 465, 466, 467, 468, 469, 470, 471, 472, 473, 474, 475], "isFourFour": true, "hasNotes": true, "time": 144}, {"events": [476, 477, 478, 479, 480, 481, 482, 483, 484, 485, 486, 487, 488, 489, 490, 491, 492, 493, 494, 495, 496, 497, 498, 499, 500, 501, 502, 503, 504, 505, 506, 507, 508, 509, 510, 511, 512, 513, 514, 515], "isFourFour": true, "hasNotes": true, "time": 192}, {"events": [516, 517, 518, 519, 520, 521, 522, 523, 524, 525, 526, 527, 528, 529, 530, 531, 532, 533, 534, 535, 536, 537, 538, 539, 540, 541, 542, 543, 544, 545, 546, 547, 548, 549, 550, 551, 552, 553], "isFourFour": true, "hasNotes": true, "time": 240}, {"events": [554, 555, 556, 557, 558, 559, 560, 561, 562, 563, 564, 565, 566, 567, 568, 569, 570, 571, 572, 573, 574, 575, 576, 577, 578, 579, 580, 581, 582, 583, 584, 585, 586, 587, 588, 589, 590, 591, 592, 593, 594, 595], "isFourFour": true, "hasNotes": true, "time": 288}, {"events": [596, 597, 598, 599, 600, 601, 602, 603, 604, 605, 606, 607, 608, 609, 610, 611, 612, 613, 614, 615, 616, 617, 618, 619, 620, 621, 622, 623, 624, 625, 626, 627, 628, 629, 630, 631, 632, 633], "isFourFour": true, "hasNotes": true, "time": 336}], "isDrum": true, "minPitch": 36, "maxPitch": 82, "instrument": 0, "avPolyphony": 2.453125, "noteDensity": 9, "noteDensityV2": 8}], "events": [{"time": 0, "velocity": 108, "pitch": 45, "instrument": 4, "track": 0, "qtime": 0, "isDrum": false}, {"time": 0, "velocity": 108, "pitch": 55, "instrument": 4, "track": 0, "qtime": 0, "isDrum": false}, {"time": 0, "velocity": 108, "pitch": 59, "instrument": 4, "track": 0, "qtime": 0, "isDrum": false}, {"time": 0, "velocity": 108, "pitch": 60, "instrument": 4, "track": 0, "qtime": 0, "isDrum": false}, {"time": 0, "velocity": 108, "pitch": 64, "instrument": 4, "track": 0, "qtime": 0, "isDrum": false}, {"time": 44, "velocity": 0, "pitch": 55, "instrument": 4, "track": 0, "qtime": 44, "isDrum": false}, {"time": 44, "velocity": 0, "pitch": 59, "instrument": 4, "track": 0, "qtime": 44, "isDrum": false}, {"time": 44, "velocity": 0, "pitch": 60, "instrument": 4, "track": 0, "qtime": 44, "isDrum": false}, {"time": 44, "velocity": 0, "pitch": 64, "instrument": 4, "track": 0, "qtime": 44, "isDrum": false}, {"time": 48, "velocity": 108, "pitch": 55, "instrument": 4, "track": 0, "qtime": 0, "isDrum": false}, {"time": 48, "velocity": 108, "pitch": 59, "instrument": 4, "track": 0, "qtime": 0, "isDrum": false}, {"time": 48, "velocity": 108, "pitch": 60, "instrument": 4, "track": 0, "qtime": 0, "isDrum": false}, {"time": 48, "velocity": 108, "pitch": 64, "instrument": 4, "track": 0, "qtime": 0, "isDrum": false}, {"time": 49, "velocity": 0, "pitch": 59, "instrument": 4, "track": 0, "qtime": 1, "isDrum": false}, {"time": 49, "velocity": 0, "pitch": 60, "instrument": 4, "track": 0, "qtime": 1, "isDrum": false}, {"time": 50, "velocity": 0, "pitch": 55, "instrument": 4, "track": 0, "qtime": 2, "isDrum": false}, {"time": 50, "velocity": 0, "pitch": 64, "instrument": 4, "track": 0, "qtime": 2, "isDrum": false}, {"time": 66, "velocity": 108, "pitch": 55, "instrument": 4, "track": 0, "qtime": 18, "isDrum": false}, {"time": 66, "velocity": 108, "pitch": 59, "instrument": 4, "track": 0, "qtime": 18, "isDrum": false}, {"time": 66, "velocity": 108, "pitch": 60, "instrument": 4, "track": 0, "qtime": 18, "isDrum": false}, {"time": 66, "velocity": 108, "pitch": 64, "instrument": 4, "track": 0, "qtime": 18, "isDrum": false}, {"time": 78, "velocity": 0, "pitch": 59, "instrument": 4, "track": 0, "qtime": 30, "isDrum": false}, {"time": 78, "velocity": 108, "pitch": 57, "instrument": 4, "track": 0, "qtime": 30, "isDrum": false}, {"time": 79, "velocity": 0, "pitch": 55, "instrument": 4, "track": 0, "qtime": 31, "isDrum": false}, {"time": 79, "velocity": 0, "pitch": 60, "instrument": 4, "track": 0, "qtime": 31, "isDrum": false}, {"time": 79, "velocity": 0, "pitch": 64, "instrument": 4, "track": 0, "qtime": 31, "isDrum": false}, {"time": 80, "velocity": 0, "pitch": 57, "instrument": 4, "track": 0, "qtime": 32, "isDrum": false}, {"time": 84, "velocity": 108, "pitch": 43, "instrument": 4, "track": 0, "qtime": 36, "isDrum": false}, {"time": 85, "velocity": 0, "pitch": 45, "instrument": 4, "track": 0, "qtime": 37, "isDrum": false}, {"time": 96, "velocity": 0, "pitch": 43, "instrument": 4, "track": 0, "qtime": 48, "isDrum": false}, {"time": 96, "velocity": 108, "pitch": 36, "instrument": 4, "track": 0, "qtime": 0, "isDrum": false}, {"time": 96, "velocity": 108, "pitch": 52, "instrument": 4, "track": 0, "qtime": 0, "isDrum": false}, {"time": 96, "velocity": 108, "pitch": 55, "instrument": 4, "track": 0, "qtime": 0, "isDrum": false}, {"time": 96, "velocity": 108, "pitch": 59, "instrument": 4, "track": 0, "qtime": 0, "isDrum": false}, {"time": 96, "velocity": 108, "pitch": 62, "instrument": 4, "track": 0, "qtime": 0, "isDrum": false}, {"time": 131, "velocity": 0, "pitch": 62, "instrument": 4, "track": 0, "qtime": 35, "isDrum": false}, {"time": 132, "velocity": 0, "pitch": 59, "instrument": 4, "track": 0, "qtime": 36, "isDrum": false}, {"time": 133, "velocity": 0, "pitch": 52, "instrument": 4, "track": 0, "qtime": 37, "isDrum": false}, {"time": 133, "velocity": 0, "pitch": 55, "instrument": 4, "track": 0, "qtime": 37, "isDrum": false}, {"time": 138, "velocity": 108, "pitch": 52, "instrument": 4, "track": 0, "qtime": 42, "isDrum": false}, {"time": 138, "velocity": 108, "pitch": 55, "instrument": 4, "track": 0, "qtime": 42, "isDrum": false}, {"time": 138, "velocity": 108, "pitch": 59, "instrument": 4, "track": 0, "qtime": 42, "isDrum": false}, {"time": 138, "velocity": 108, "pitch": 60, "instrument": 4, "track": 0, "qtime": 42, "isDrum": false}, {"time": 139, "velocity": 0, "pitch": 52, "instrument": 4, "track": 0, "qtime": 43, "isDrum": false}, {"time": 139, "velocity": 0, "pitch": 55, "instrument": 4, "track": 0, "qtime": 43, "isDrum": false}, {"time": 139, "velocity": 0, "pitch": 59, "instrument": 4, "track": 0, "qtime": 43, "isDrum": false}, {"time": 140, "velocity": 0, "pitch": 60, "instrument": 4, "track": 0, "qtime": 44, "isDrum": false}, {"time": 153, "velocity": 108, "pitch": 52, "instrument": 4, "track": 0, "qtime": 9, "isDrum": false}, {"time": 162, "velocity": 108, "pitch": 55, "instrument": 4, "track": 0, "qtime": 18, "isDrum": false}, {"time": 162, "velocity": 108, "pitch": 60, "instrument": 4, "track": 0, "qtime": 18, "isDrum": false}, {"time": 172, "velocity": 0, "pitch": 52, "instrument": 4, "track": 0, "qtime": 28, "isDrum": false}, {"time": 174, "velocity": 108, "pitch": 52, "instrument": 4, "track": 0, "qtime": 30, "isDrum": false}, {"time": 180, "velocity": 0, "pitch": 55, "instrument": 4, "track": 0, "qtime": 36, "isDrum": false}, {"time": 180, "velocity": 108, "pitch": 43, "instrument": 4, "track": 0, "qtime": 36, "isDrum": false}, {"time": 181, "velocity": 0, "pitch": 52, "instrument": 4, "track": 0, "qtime": 37, "isDrum": false}, {"time": 181, "velocity": 0, "pitch": 60, "instrument": 4, "track": 0, "qtime": 37, "isDrum": false}, {"time": 182, "velocity": 0, "pitch": 36, "instrument": 4, "track": 0, "qtime": 38, "isDrum": false}, {"time": 192, "velocity": 108, "pitch": 45, "instrument": 4, "track": 0, "qtime": 0, "isDrum": false}, {"time": 192, "velocity": 108, "pitch": 55, "instrument": 4, "track": 0, "qtime": 0, "isDrum": false}, {"time": 192, "velocity": 108, "pitch": 57, "instrument": 4, "track": 0, "qtime": 0, "isDrum": false}, {"time": 192, "velocity": 108, "pitch": 60, "instrument": 4, "track": 0, "qtime": 0, "isDrum": false}, {"time": 192, "velocity": 108, "pitch": 64, "instrument": 4, "track": 0, "qtime": 0, "isDrum": false}, {"time": 193, "velocity": 0, "pitch": 43, "instrument": 4, "track": 0, "qtime": 1, "isDrum": false}, {"time": 230, "velocity": 0, "pitch": 55, "instrument": 4, "track": 0, "qtime": 38, "isDrum": false}, {"time": 230, "velocity": 0, "pitch": 57, "instrument": 4, "track": 0, "qtime": 38, "isDrum": false}, {"time": 230, "velocity": 0, "pitch": 60, "instrument": 4, "track": 0, "qtime": 38, "isDrum": false}, {"time": 230, "velocity": 0, "pitch": 64, "instrument": 4, "track": 0, "qtime": 38, "isDrum": false}, {"time": 234, "velocity": 108, "pitch": 55, "instrument": 4, "track": 0, "qtime": 42, "isDrum": false}, {"time": 234, "velocity": 108, "pitch": 57, "instrument": 4, "track": 0, "qtime": 42, "isDrum": false}, {"time": 234, "velocity": 108, "pitch": 60, "instrument": 4, "track": 0, "qtime": 42, "isDrum": false}, {"time": 234, "velocity": 108, "pitch": 64, "instrument": 4, "track": 0, "qtime": 42, "isDrum": false}, {"time": 235, "velocity": 0, "pitch": 57, "instrument": 4, "track": 0, "qtime": 43, "isDrum": false}, {"time": 235, "velocity": 0, "pitch": 60, "instrument": 4, "track": 0, "qtime": 43, "isDrum": false}, {"time": 235, "velocity": 0, "pitch": 64, "instrument": 4, "track": 0, "qtime": 43, "isDrum": false}, {"time": 236, "velocity": 0, "pitch": 55, "instrument": 4, "track": 0, "qtime": 44, "isDrum": false}, {"time": 246, "velocity": 108, "pitch": 55, "instrument": 4, "track": 0, "qtime": 6, "isDrum": false}, {"time": 246, "velocity": 108, "pitch": 57, "instrument": 4, "track": 0, "qtime": 6, "isDrum": false}, {"time": 246, "velocity": 108, "pitch": 60, "instrument": 4, "track": 0, "qtime": 6, "isDrum": false}, {"time": 246, "velocity": 108, "pitch": 64, "instrument": 4, "track": 0, "qtime": 6, "isDrum": false}, {"time": 256, "velocity": 0, "pitch": 64, "instrument": 4, "track": 0, "qtime": 16, "isDrum": false}, {"time": 257, "velocity": 0, "pitch": 55, "instrument": 4, "track": 0, "qtime": 17, "isDrum": false}, {"time": 257, "velocity": 0, "pitch": 57, "instrument": 4, "track": 0, "qtime": 17, "isDrum": false}, {"time": 257, "velocity": 0, "pitch": 60, "instrument": 4, "track": 0, "qtime": 17, "isDrum": false}, {"time": 258, "velocity": 108, "pitch": 55, "instrument": 4, "track": 0, "qtime": 18, "isDrum": false}, {"time": 258, "velocity": 108, "pitch": 59, "instrument": 4, "track": 0, "qtime": 18, "isDrum": false}, {"time": 258, "velocity": 108, "pitch": 60, "instrument": 4, "track": 0, "qtime": 18, "isDrum": false}, {"time": 258, "velocity": 108, "pitch": 64, "instrument": 4, "track": 0, "qtime": 18, "isDrum": false}, {"time": 276, "velocity": 0, "pitch": 59, "instrument": 4, "track": 0, "qtime": 36, "isDrum": false}, {"time": 276, "velocity": 108, "pitch": 57, "instrument": 4, "track": 0, "qtime": 36, "isDrum": false}, {"time": 277, "velocity": 0, "pitch": 64, "instrument": 4, "track": 0, "qtime": 37, "isDrum": false}, {"time": 278, "velocity": 0, "pitch": 55, "instrument": 4, "track": 0, "qtime": 38, "isDrum": false}, {"time": 278, "velocity": 0, "pitch": 60, "instrument": 4, "track": 0, "qtime": 38, "isDrum": false}, {"time": 279, "velocity": 0, "pitch": 57, "instrument": 4, "track": 0, "qtime": 39, "isDrum": false}, {"time": 282, "velocity": 0, "pitch": 45, "instrument": 4, "track": 0, "qtime": 42, "isDrum": false}, {"time": 288, "velocity": 108, "pitch": 36, "instrument": 4, "track": 0, "qtime": 0, "isDrum": false}, {"time": 288, "velocity": 108, "pitch": 52, "instrument": 4, "track": 0, "qtime": 0, "isDrum": false}, {"time": 288, "velocity": 108, "pitch": 55, "instrument": 4, "track": 0, "qtime": 0, "isDrum": false}, {"time": 288, "velocity": 108, "pitch": 57, "instrument": 4, "track": 0, "qtime": 0, "isDrum": false}, {"time": 288, "velocity": 108, "pitch": 60, "instrument": 4, "track": 0, "qtime": 0, "isDrum": false}, {"time": 333, "velocity": 0, "pitch": 52, "instrument": 4, "track": 0, "qtime": 45, "isDrum": false}, {"time": 333, "velocity": 0, "pitch": 57, "instrument": 4, "track": 0, "qtime": 45, "isDrum": false}, {"time": 333, "velocity": 0, "pitch": 60, "instrument": 4, "track": 0, "qtime": 45, "isDrum": false}, {"time": 334, "velocity": 0, "pitch": 55, "instrument": 4, "track": 0, "qtime": 46, "isDrum": false}, {"time": 336, "velocity": 108, "pitch": 52, "instrument": 4, "track": 0, "qtime": 0, "isDrum": false}, {"time": 336, "velocity": 108, "pitch": 55, "instrument": 4, "track": 0, "qtime": 0, "isDrum": false}, {"time": 336, "velocity": 108, "pitch": 57, "instrument": 4, "track": 0, "qtime": 0, "isDrum": false}, {"time": 336, "velocity": 108, "pitch": 60, "instrument": 4, "track": 0, "qtime": 0, "isDrum": false}, {"time": 337, "velocity": 0, "pitch": 52, "instrument": 4, "track": 0, "qtime": 1, "isDrum": false}, {"time": 337, "velocity": 0, "pitch": 55, "instrument": 4, "track": 0, "qtime": 1, "isDrum": false}, {"time": 337, "velocity": 0, "pitch": 57, "instrument": 4, "track": 0, "qtime": 1, "isDrum": false}, {"time": 337, "velocity": 0, "pitch": 60, "instrument": 4, "track": 0, "qtime": 1, "isDrum": false}, {"time": 354, "velocity": 108, "pitch": 52, "instrument": 4, "track": 0, "qtime": 18, "isDrum": false}, {"time": 354, "velocity": 108, "pitch": 57, "instrument": 4, "track": 0, "qtime": 18, "isDrum": false}, {"time": 354, "velocity": 108, "pitch": 60, "instrument": 4, "track": 0, "qtime": 18, "isDrum": false}, {"time": 366, "velocity": 108, "pitch": 55, "instrument": 4, "track": 0, "qtime": 30, "isDrum": false}, {"time": 372, "velocity": 0, "pitch": 36, "instrument": 4, "track": 0, "qtime": 36, "isDrum": false}, {"time": 372, "velocity": 0, "pitch": 52, "instrument": 4, "track": 0, "qtime": 36, "isDrum": false}, {"time": 374, "velocity": 0, "pitch": 55, "instrument": 4, "track": 0, "qtime": 38, "isDrum": false}, {"time": 374, "velocity": 0, "pitch": 57, "instrument": 4, "track": 0, "qtime": 38, "isDrum": false}, {"time": 374, "velocity": 0, "pitch": 60, "instrument": 4, "track": 0, "qtime": 38, "isDrum": false}, {"time": 0, "velocity": 108, "pitch": 33, "instrument": 33, "track": 1, "qtime": 0, "isDrum": false}, {"time": 16, "velocity": 0, "pitch": 33, "instrument": 33, "track": 1, "qtime": 16, "isDrum": false}, {"time": 18, "velocity": 108, "pitch": 33, "instrument": 33, "track": 1, "qtime": 18, "isDrum": false}, {"time": 28, "velocity": 0, "pitch": 33, "instrument": 33, "track": 1, "qtime": 28, "isDrum": false}, {"time": 36, "velocity": 108, "pitch": 33, "instrument": 33, "track": 1, "qtime": 36, "isDrum": false}, {"time": 50, "velocity": 0, "pitch": 33, "instrument": 33, "track": 1, "qtime": 2, "isDrum": false}, {"time": 54, "velocity": 108, "pitch": 33, "instrument": 33, "track": 1, "qtime": 6, "isDrum": false}, {"time": 65, "velocity": 0, "pitch": 33, "instrument": 33, "track": 1, "qtime": 17, "isDrum": false}, {"time": 66, "velocity": 108, "pitch": 33, "instrument": 33, "track": 1, "qtime": 18, "isDrum": false}, {"time": 68, "velocity": 0, "pitch": 33, "instrument": 33, "track": 1, "qtime": 20, "isDrum": false}, {"time": 72, "velocity": 108, "pitch": 33, "instrument": 33, "track": 1, "qtime": 24, "isDrum": false}, {"time": 82, "velocity": 0, "pitch": 33, "instrument": 33, "track": 1, "qtime": 34, "isDrum": false}, {"time": 84, "velocity": 108, "pitch": 33, "instrument": 33, "track": 1, "qtime": 36, "isDrum": false}, {"time": 90, "velocity": 0, "pitch": 33, "instrument": 33, "track": 1, "qtime": 42, "isDrum": false}, {"time": 90, "velocity": 108, "pitch": 31, "instrument": 33, "track": 1, "qtime": 42, "isDrum": false}, {"time": 96, "velocity": 108, "pitch": 36, "instrument": 33, "track": 1, "qtime": 0, "isDrum": false}, {"time": 97, "velocity": 0, "pitch": 31, "instrument": 33, "track": 1, "qtime": 1, "isDrum": false}, {"time": 110, "velocity": 0, "pitch": 36, "instrument": 33, "track": 1, "qtime": 14, "isDrum": false}, {"time": 114, "velocity": 108, "pitch": 36, "instrument": 33, "track": 1, "qtime": 18, "isDrum": false}, {"time": 124, "velocity": 0, "pitch": 36, "instrument": 33, "track": 1, "qtime": 28, "isDrum": false}, {"time": 132, "velocity": 108, "pitch": 36, "instrument": 33, "track": 1, "qtime": 36, "isDrum": false}, {"time": 147, "velocity": 0, "pitch": 36, "instrument": 33, "track": 1, "qtime": 3, "isDrum": false}, {"time": 150, "velocity": 108, "pitch": 36, "instrument": 33, "track": 1, "qtime": 6, "isDrum": false}, {"time": 161, "velocity": 0, "pitch": 36, "instrument": 33, "track": 1, "qtime": 17, "isDrum": false}, {"time": 168, "velocity": 108, "pitch": 36, "instrument": 33, "track": 1, "qtime": 24, "isDrum": false}, {"time": 180, "velocity": 0, "pitch": 36, "instrument": 33, "track": 1, "qtime": 36, "isDrum": false}, {"time": 180, "velocity": 108, "pitch": 31, "instrument": 33, "track": 1, "qtime": 36, "isDrum": false}, {"time": 186, "velocity": 0, "pitch": 31, "instrument": 33, "track": 1, "qtime": 42, "isDrum": false}, {"time": 186, "velocity": 108, "pitch": 32, "instrument": 33, "track": 1, "qtime": 42, "isDrum": false}, {"time": 192, "velocity": 0, "pitch": 32, "instrument": 33, "track": 1, "qtime": 48, "isDrum": false}, {"time": 192, "velocity": 108, "pitch": 33, "instrument": 33, "track": 1, "qtime": 0, "isDrum": false}, {"time": 208, "velocity": 0, "pitch": 33, "instrument": 33, "track": 1, "qtime": 16, "isDrum": false}, {"time": 210, "velocity": 108, "pitch": 33, "instrument": 33, "track": 1, "qtime": 18, "isDrum": false}, {"time": 218, "velocity": 0, "pitch": 33, "instrument": 33, "track": 1, "qtime": 26, "isDrum": false}, {"time": 228, "velocity": 108, "pitch": 33, "instrument": 33, "track": 1, "qtime": 36, "isDrum": false}, {"time": 245, "velocity": 0, "pitch": 33, "instrument": 33, "track": 1, "qtime": 5, "isDrum": false}, {"time": 246, "velocity": 108, "pitch": 33, "instrument": 33, "track": 1, "qtime": 6, "isDrum": false}, {"time": 256, "velocity": 0, "pitch": 33, "instrument": 33, "track": 1, "qtime": 16, "isDrum": false}, {"time": 258, "velocity": 108, "pitch": 33, "instrument": 33, "track": 1, "qtime": 18, "isDrum": false}, {"time": 262, "velocity": 0, "pitch": 33, "instrument": 33, "track": 1, "qtime": 22, "isDrum": false}, {"time": 264, "velocity": 108, "pitch": 33, "instrument": 33, "track": 1, "qtime": 24, "isDrum": false}, {"time": 270, "velocity": 0, "pitch": 33, "instrument": 33, "track": 1, "qtime": 30, "isDrum": false}, {"time": 270, "velocity": 108, "pitch": 40, "instrument": 33, "track": 1, "qtime": 30, "isDrum": false}, {"time": 273, "velocity": 0, "pitch": 40, "instrument": 33, "track": 1, "qtime": 33, "isDrum": false}, {"time": 276, "velocity": 108, "pitch": 43, "instrument": 33, "track": 1, "qtime": 36, "isDrum": false}, {"time": 276, "velocity": 108, "pitch": 45, "instrument": 33, "track": 1, "qtime": 36, "isDrum": false}, {"time": 277, "velocity": 0, "pitch": 43, "instrument": 33, "track": 1, "qtime": 37, "isDrum": false}, {"time": 285, "velocity": 0, "pitch": 45, "instrument": 33, "track": 1, "qtime": 45, "isDrum": false}, {"time": 288, "velocity": 108, "pitch": 36, "instrument": 33, "track": 1, "qtime": 0, "isDrum": false}, {"time": 303, "velocity": 0, "pitch": 36, "instrument": 33, "track": 1, "qtime": 15, "isDrum": false}, {"time": 306, "velocity": 108, "pitch": 36, "instrument": 33, "track": 1, "qtime": 18, "isDrum": false}, {"time": 315, "velocity": 0, "pitch": 36, "instrument": 33, "track": 1, "qtime": 27, "isDrum": false}, {"time": 324, "velocity": 108, "pitch": 36, "instrument": 33, "track": 1, "qtime": 36, "isDrum": false}, {"time": 339, "velocity": 0, "pitch": 36, "instrument": 33, "track": 1, "qtime": 3, "isDrum": false}, {"time": 342, "velocity": 108, "pitch": 36, "instrument": 33, "track": 1, "qtime": 6, "isDrum": false}, {"time": 353, "velocity": 0, "pitch": 36, "instrument": 33, "track": 1, "qtime": 17, "isDrum": false}, {"time": 360, "velocity": 108, "pitch": 36, "instrument": 33, "track": 1, "qtime": 24, "isDrum": false}, {"time": 371, "velocity": 0, "pitch": 36, "instrument": 33, "track": 1, "qtime": 35, "isDrum": false}, {"time": 372, "velocity": 108, "pitch": 31, "instrument": 33, "track": 1, "qtime": 36, "isDrum": false}, {"time": 378, "velocity": 0, "pitch": 31, "instrument": 33, "track": 1, "qtime": 42, "isDrum": false}, {"time": 378, "velocity": 108, "pitch": 32, "instrument": 33, "track": 1, "qtime": 42, "isDrum": false}, {"time": 384, "velocity": 0, "pitch": 32, "instrument": 33, "track": 1, "qtime": 48, "isDrum": false}, {"time": 0, "velocity": 108, "pitch": 45, "instrument": 24, "track": 2, "qtime": 0, "isDrum": false}, {"time": 6, "velocity": 108, "pitch": 57, "instrument": 24, "track": 2, "qtime": 6, "isDrum": false}, {"time": 12, "velocity": 108, "pitch": 60, "instrument": 24, "track": 2, "qtime": 12, "isDrum": false}, {"time": 18, "velocity": 108, "pitch": 62, "instrument": 24, "track": 2, "qtime": 18, "isDrum": false}, {"time": 18, "velocity": 108, "pitch": 67, "instrument": 24, "track": 2, "qtime": 18, "isDrum": false}, {"time": 26, "velocity": 0, "pitch": 57, "instrument": 24, "track": 2, "qtime": 26, "isDrum": false}, {"time": 30, "velocity": 0, "pitch": 60, "instrument": 24, "track": 2, "qtime": 30, "isDrum": false}, {"time": 30, "velocity": 108, "pitch": 57, "instrument": 24, "track": 2, "qtime": 30, "isDrum": false}, {"time": 36, "velocity": 108, "pitch": 60, "instrument": 24, "track": 2, "qtime": 36, "isDrum": false}, {"time": 38, "velocity": 0, "pitch": 67, "instrument": 24, "track": 2, "qtime": 38, "isDrum": false}, {"time": 42, "velocity": 108, "pitch": 67, "instrument": 24, "track": 2, "qtime": 42, "isDrum": false}, {"time": 45, "velocity": 0, "pitch": 45, "instrument": 24, "track": 2, "qtime": 45, "isDrum": false}, {"time": 48, "velocity": 108, "pitch": 45, "instrument": 24, "track": 2, "qtime": 0, "isDrum": false}, {"time": 49, "velocity": 0, "pitch": 57, "instrument": 24, "track": 2, "qtime": 1, "isDrum": false}, {"time": 54, "velocity": 108, "pitch": 57, "instrument": 24, "track": 2, "qtime": 6, "isDrum": false}, {"time": 55, "velocity": 0, "pitch": 60, "instrument": 24, "track": 2, "qtime": 7, "isDrum": false}, {"time": 60, "velocity": 108, "pitch": 60, "instrument": 24, "track": 2, "qtime": 12, "isDrum": false}, {"time": 62, "velocity": 0, "pitch": 67, "instrument": 24, "track": 2, "qtime": 14, "isDrum": false}, {"time": 65, "velocity": 0, "pitch": 62, "instrument": 24, "track": 2, "qtime": 17, "isDrum": false}, {"time": 66, "velocity": 108, "pitch": 62, "instrument": 24, "track": 2, "qtime": 18, "isDrum": false}, {"time": 66, "velocity": 108, "pitch": 67, "instrument": 24, "track": 2, "qtime": 18, "isDrum": false}, {"time": 70, "velocity": 0, "pitch": 45, "instrument": 24, "track": 2, "qtime": 22, "isDrum": false}, {"time": 72, "velocity": 108, "pitch": 45, "instrument": 24, "track": 2, "qtime": 24, "isDrum": false}, {"time": 74, "velocity": 0, "pitch": 57, "instrument": 24, "track": 2, "qtime": 26, "isDrum": false}, {"time": 75, "velocity": 0, "pitch": 62, "instrument": 24, "track": 2, "qtime": 27, "isDrum": false}, {"time": 78, "velocity": 0, "pitch": 60, "instrument": 24, "track": 2, "qtime": 30, "isDrum": false}, {"time": 78, "velocity": 108, "pitch": 57, "instrument": 24, "track": 2, "qtime": 30, "isDrum": false}, {"time": 78, "velocity": 108, "pitch": 64, "instrument": 24, "track": 2, "qtime": 30, "isDrum": false}, {"time": 84, "velocity": 108, "pitch": 62, "instrument": 24, "track": 2, "qtime": 36, "isDrum": false}, {"time": 90, "velocity": 108, "pitch": 60, "instrument": 24, "track": 2, "qtime": 42, "isDrum": false}, {"time": 95, "velocity": 0, "pitch": 45, "instrument": 24, "track": 2, "qtime": 47, "isDrum": false}, {"time": 96, "velocity": 108, "pitch": 48, "instrument": 24, "track": 2, "qtime": 0, "isDrum": false}, {"time": 97, "velocity": 0, "pitch": 57, "instrument": 24, "track": 2, "qtime": 1, "isDrum": false}, {"time": 100, "velocity": 0, "pitch": 62, "instrument": 24, "track": 2, "qtime": 4, "isDrum": false}, {"time": 102, "velocity": 108, "pitch": 55, "instrument": 24, "track": 2, "qtime": 6, "isDrum": false}, {"time": 104, "velocity": 0, "pitch": 60, "instrument": 24, "track": 2, "qtime": 8, "isDrum": false}, {"time": 108, "velocity": 108, "pitch": 60, "instrument": 24, "track": 2, "qtime": 12, "isDrum": false}, {"time": 110, "velocity": 0, "pitch": 55, "instrument": 24, "track": 2, "qtime": 14, "isDrum": false}, {"time": 112, "velocity": 0, "pitch": 67, "instrument": 24, "track": 2, "qtime": 16, "isDrum": false}, {"time": 113, "velocity": 0, "pitch": 60, "instrument": 24, "track": 2, "qtime": 17, "isDrum": false}, {"time": 113, "velocity": 0, "pitch": 64, "instrument": 24, "track": 2, "qtime": 17, "isDrum": false}, {"time": 114, "velocity": 108, "pitch": 55, "instrument": 24, "track": 2, "qtime": 18, "isDrum": false}, {"time": 114, "velocity": 108, "pitch": 62, "instrument": 24, "track": 2, "qtime": 18, "isDrum": false}, {"time": 114, "velocity": 108, "pitch": 64, "instrument": 24, "track": 2, "qtime": 18, "isDrum": false}, {"time": 114, "velocity": 108, "pitch": 67, "instrument": 24, "track": 2, "qtime": 18, "isDrum": false}, {"time": 126, "velocity": 108, "pitch": 60, "instrument": 24, "track": 2, "qtime": 30, "isDrum": false}, {"time": 129, "velocity": 0, "pitch": 67, "instrument": 24, "track": 2, "qtime": 33, "isDrum": false}, {"time": 131, "velocity": 0, "pitch": 64, "instrument": 24, "track": 2, "qtime": 35, "isDrum": false}, {"time": 132, "velocity": 108, "pitch": 64, "instrument": 24, "track": 2, "qtime": 36, "isDrum": false}, {"time": 135, "velocity": 0, "pitch": 64, "instrument": 24, "track": 2, "qtime": 39, "isDrum": false}, {"time": 138, "velocity": 0, "pitch": 62, "instrument": 24, "track": 2, "qtime": 42, "isDrum": false}, {"time": 138, "velocity": 108, "pitch": 62, "instrument": 24, "track": 2, "qtime": 42, "isDrum": false}, {"time": 138, "velocity": 108, "pitch": 64, "instrument": 24, "track": 2, "qtime": 42, "isDrum": false}, {"time": 138, "velocity": 108, "pitch": 67, "instrument": 24, "track": 2, "qtime": 42, "isDrum": false}, {"time": 141, "velocity": 0, "pitch": 48, "instrument": 24, "track": 2, "qtime": 45, "isDrum": false}, {"time": 144, "velocity": 108, "pitch": 48, "instrument": 24, "track": 2, "qtime": 0, "isDrum": false}, {"time": 148, "velocity": 0, "pitch": 55, "instrument": 24, "track": 2, "qtime": 4, "isDrum": false}, {"time": 149, "velocity": 0, "pitch": 62, "instrument": 24, "track": 2, "qtime": 5, "isDrum": false}, {"time": 150, "velocity": 108, "pitch": 55, "instrument": 24, "track": 2, "qtime": 6, "isDrum": false}, {"time": 152, "velocity": 0, "pitch": 60, "instrument": 24, "track": 2, "qtime": 8, "isDrum": false}, {"time": 156, "velocity": 108, "pitch": 60, "instrument": 24, "track": 2, "qtime": 12, "isDrum": false}, {"time": 159, "velocity": 0, "pitch": 55, "instrument": 24, "track": 2, "qtime": 15, "isDrum": false}, {"time": 162, "velocity": 108, "pitch": 55, "instrument": 24, "track": 2, "qtime": 18, "isDrum": false}, {"time": 167, "velocity": 0, "pitch": 48, "instrument": 24, "track": 2, "qtime": 23, "isDrum": false}, {"time": 168, "velocity": 108, "pitch": 48, "instrument": 24, "track": 2, "qtime": 24, "isDrum": false}, {"time": 169, "velocity": 0, "pitch": 67, "instrument": 24, "track": 2, "qtime": 25, "isDrum": false}, {"time": 174, "velocity": 108, "pitch": 67, "instrument": 24, "track": 2, "qtime": 30, "isDrum": false}, {"time": 181, "velocity": 0, "pitch": 60, "instrument": 24, "track": 2, "qtime": 37, "isDrum": false}, {"time": 183, "velocity": 108, "pitch": 62, "instrument": 24, "track": 2, "qtime": 39, "isDrum": false}, {"time": 191, "velocity": 0, "pitch": 48, "instrument": 24, "track": 2, "qtime": 47, "isDrum": false}, {"time": 192, "velocity": 108, "pitch": 45, "instrument": 24, "track": 2, "qtime": 0, "isDrum": false}, {"time": 194, "velocity": 0, "pitch": 55, "instrument": 24, "track": 2, "qtime": 2, "isDrum": false}, {"time": 198, "velocity": 108, "pitch": 57, "instrument": 24, "track": 2, "qtime": 6, "isDrum": false}, {"time": 204, "velocity": 108, "pitch": 60, "instrument": 24, "track": 2, "qtime": 12, "isDrum": false}, {"time": 205, "velocity": 0, "pitch": 62, "instrument": 24, "track": 2, "qtime": 13, "isDrum": false}, {"time": 210, "velocity": 108, "pitch": 62, "instrument": 24, "track": 2, "qtime": 18, "isDrum": false}, {"time": 211, "velocity": 0, "pitch": 60, "instrument": 24, "track": 2, "qtime": 19, "isDrum": false}, {"time": 218, "velocity": 0, "pitch": 57, "instrument": 24, "track": 2, "qtime": 26, "isDrum": false}, {"time": 222, "velocity": 108, "pitch": 57, "instrument": 24, "track": 2, "qtime": 30, "isDrum": false}, {"time": 228, "velocity": 108, "pitch": 60, "instrument": 24, "track": 2, "qtime": 36, "isDrum": false}, {"time": 232, "velocity": 0, "pitch": 67, "instrument": 24, "track": 2, "qtime": 40, "isDrum": false}, {"time": 233, "velocity": 0, "pitch": 64, "instrument": 24, "track": 2, "qtime": 41, "isDrum": false}, {"time": 234, "velocity": 108, "pitch": 64, "instrument": 24, "track": 2, "qtime": 42, "isDrum": false}, {"time": 234, "velocity": 108, "pitch": 67, "instrument": 24, "track": 2, "qtime": 42, "isDrum": false}, {"time": 237, "velocity": 0, "pitch": 45, "instrument": 24, "track": 2, "qtime": 45, "isDrum": false}, {"time": 240, "velocity": 108, "pitch": 45, "instrument": 24, "track": 2, "qtime": 0, "isDrum": false}, {"time": 243, "velocity": 0, "pitch": 57, "instrument": 24, "track": 2, "qtime": 3, "isDrum": false}, {"time": 246, "velocity": 0, "pitch": 60, "instrument": 24, "track": 2, "qtime": 6, "isDrum": false}, {"time": 246, "velocity": 108, "pitch": 57, "instrument": 24, "track": 2, "qtime": 6, "isDrum": false}, {"time": 248, "velocity": 0, "pitch": 62, "instrument": 24, "track": 2, "qtime": 8, "isDrum": false}, {"time": 248, "velocity": 0, "pitch": 67, "instrument": 24, "track": 2, "qtime": 8, "isDrum": false}, {"time": 249, "velocity": 0, "pitch": 64, "instrument": 24, "track": 2, "qtime": 9, "isDrum": false}, {"time": 249, "velocity": 108, "pitch": 60, "instrument": 24, "track": 2, "qtime": 9, "isDrum": false}, {"time": 252, "velocity": 108, "pitch": 67, "instrument": 24, "track": 2, "qtime": 12, "isDrum": false}, {"time": 258, "velocity": 108, "pitch": 64, "instrument": 24, "track": 2, "qtime": 18, "isDrum": false}, {"time": 259, "velocity": 0, "pitch": 60, "instrument": 24, "track": 2, "qtime": 19, "isDrum": false}, {"time": 264, "velocity": 0, "pitch": 45, "instrument": 24, "track": 2, "qtime": 24, "isDrum": false}, {"time": 264, "velocity": 108, "pitch": 62, "instrument": 24, "track": 2, "qtime": 24, "isDrum": false}, {"time": 268, "velocity": 0, "pitch": 57, "instrument": 24, "track": 2, "qtime": 28, "isDrum": false}, {"time": 270, "velocity": 108, "pitch": 60, "instrument": 24, "track": 2, "qtime": 30, "isDrum": false}, {"time": 276, "velocity": 108, "pitch": 45, "instrument": 24, "track": 2, "qtime": 36, "isDrum": false}, {"time": 282, "velocity": 108, "pitch": 55, "instrument": 24, "track": 2, "qtime": 42, "isDrum": false}, {"time": 283, "velocity": 0, "pitch": 45, "instrument": 24, "track": 2, "qtime": 43, "isDrum": false}, {"time": 287, "velocity": 0, "pitch": 67, "instrument": 24, "track": 2, "qtime": 47, "isDrum": false}, {"time": 288, "velocity": 0, "pitch": 55, "instrument": 24, "track": 2, "qtime": 48, "isDrum": false}, {"time": 288, "velocity": 0, "pitch": 60, "instrument": 24, "track": 2, "qtime": 48, "isDrum": false}, {"time": 288, "velocity": 0, "pitch": 64, "instrument": 24, "track": 2, "qtime": 48, "isDrum": false}, {"time": 288, "velocity": 108, "pitch": 48, "instrument": 24, "track": 2, "qtime": 0, "isDrum": false}, {"time": 289, "velocity": 0, "pitch": 62, "instrument": 24, "track": 2, "qtime": 1, "isDrum": false}, {"time": 300, "velocity": 108, "pitch": 55, "instrument": 24, "track": 2, "qtime": 12, "isDrum": false}, {"time": 300, "velocity": 108, "pitch": 60, "instrument": 24, "track": 2, "qtime": 12, "isDrum": false}, {"time": 300, "velocity": 108, "pitch": 64, "instrument": 24, "track": 2, "qtime": 12, "isDrum": false}, {"time": 300, "velocity": 108, "pitch": 67, "instrument": 24, "track": 2, "qtime": 12, "isDrum": false}, {"time": 309, "velocity": 0, "pitch": 55, "instrument": 24, "track": 2, "qtime": 21, "isDrum": false}, {"time": 309, "velocity": 0, "pitch": 60, "instrument": 24, "track": 2, "qtime": 21, "isDrum": false}, {"time": 309, "velocity": 0, "pitch": 64, "instrument": 24, "track": 2, "qtime": 21, "isDrum": false}, {"time": 309, "velocity": 0, "pitch": 67, "instrument": 24, "track": 2, "qtime": 21, "isDrum": false}, {"time": 318, "velocity": 108, "pitch": 55, "instrument": 24, "track": 2, "qtime": 30, "isDrum": false}, {"time": 318, "velocity": 108, "pitch": 60, "instrument": 24, "track": 2, "qtime": 30, "isDrum": false}, {"time": 318, "velocity": 108, "pitch": 64, "instrument": 24, "track": 2, "qtime": 30, "isDrum": false}, {"time": 318, "velocity": 108, "pitch": 67, "instrument": 24, "track": 2, "qtime": 30, "isDrum": false}, {"time": 323, "velocity": 0, "pitch": 60, "instrument": 24, "track": 2, "qtime": 35, "isDrum": false}, {"time": 323, "velocity": 0, "pitch": 64, "instrument": 24, "track": 2, "qtime": 35, "isDrum": false}, {"time": 323, "velocity": 0, "pitch": 67, "instrument": 24, "track": 2, "qtime": 35, "isDrum": false}, {"time": 324, "velocity": 0, "pitch": 55, "instrument": 24, "track": 2, "qtime": 36, "isDrum": false}, {"time": 330, "velocity": 108, "pitch": 55, "instrument": 24, "track": 2, "qtime": 42, "isDrum": false}, {"time": 330, "velocity": 108, "pitch": 62, "instrument": 24, "track": 2, "qtime": 42, "isDrum": false}, {"time": 330, "velocity": 108, "pitch": 64, "instrument": 24, "track": 2, "qtime": 42, "isDrum": false}, {"time": 330, "velocity": 108, "pitch": 67, "instrument": 24, "track": 2, "qtime": 42, "isDrum": false}, {"time": 348, "velocity": 0, "pitch": 62, "instrument": 24, "track": 2, "qtime": 12, "isDrum": false}, {"time": 348, "velocity": 0, "pitch": 67, "instrument": 24, "track": 2, "qtime": 12, "isDrum": false}, {"time": 349, "velocity": 0, "pitch": 55, "instrument": 24, "track": 2, "qtime": 13, "isDrum": false}, {"time": 349, "velocity": 0, "pitch": 64, "instrument": 24, "track": 2, "qtime": 13, "isDrum": false}, {"time": 354, "velocity": 108, "pitch": 60, "instrument": 24, "track": 2, "qtime": 18, "isDrum": false}, {"time": 354, "velocity": 108, "pitch": 67, "instrument": 24, "track": 2, "qtime": 18, "isDrum": false}, {"time": 363, "velocity": 0, "pitch": 67, "instrument": 24, "track": 2, "qtime": 27, "isDrum": false}, {"time": 366, "velocity": 0, "pitch": 60, "instrument": 24, "track": 2, "qtime": 30, "isDrum": false}, {"time": 383, "velocity": 0, "pitch": 48, "instrument": 24, "track": 2, "qtime": 47, "isDrum": false}, {"time": 0, "velocity": 120, "pitch": 36, "instrument": 0, "track": 9, "qtime": 0, "isDrum": true}, {"time": 0, "velocity": 120, "pitch": 42, "instrument": 0, "track": 9, "qtime": 0, "isDrum": true}, {"time": 0, "velocity": 120, "pitch": 70, "instrument": 0, "track": 9, "qtime": 0, "isDrum": true}, {"time": 0, "velocity": 120, "pitch": 82, "instrument": 0, "track": 9, "qtime": 0, "isDrum": true}, {"time": 1, "velocity": 0, "pitch": 36, "instrument": 0, "track": 9, "qtime": 1, "isDrum": true}, {"time": 1, "velocity": 0, "pitch": 42, "instrument": 0, "track": 9, "qtime": 1, "isDrum": true}, {"time": 1, "velocity": 0, "pitch": 70, "instrument": 0, "track": 9, "qtime": 1, "isDrum": true}, {"time": 1, "velocity": 0, "pitch": 82, "instrument": 0, "track": 9, "qtime": 1, "isDrum": true}, {"time": 6, "velocity": 120, "pitch": 42, "instrument": 0, "track": 9, "qtime": 6, "isDrum": true}, {"time": 6, "velocity": 120, "pitch": 82, "instrument": 0, "track": 9, "qtime": 6, "isDrum": true}, {"time": 7, "velocity": 0, "pitch": 42, "instrument": 0, "track": 9, "qtime": 7, "isDrum": true}, {"time": 7, "velocity": 0, "pitch": 82, "instrument": 0, "track": 9, "qtime": 7, "isDrum": true}, {"time": 12, "velocity": 120, "pitch": 70, "instrument": 0, "track": 9, "qtime": 12, "isDrum": true}, {"time": 12, "velocity": 120, "pitch": 82, "instrument": 0, "track": 9, "qtime": 12, "isDrum": true}, {"time": 13, "velocity": 0, "pitch": 70, "instrument": 0, "track": 9, "qtime": 13, "isDrum": true}, {"time": 13, "velocity": 0, "pitch": 82, "instrument": 0, "track": 9, "qtime": 13, "isDrum": true}, {"time": 18, "velocity": 120, "pitch": 36, "instrument": 0, "track": 9, "qtime": 18, "isDrum": true}, {"time": 18, "velocity": 120, "pitch": 42, "instrument": 0, "track": 9, "qtime": 18, "isDrum": true}, {"time": 18, "velocity": 120, "pitch": 82, "instrument": 0, "track": 9, "qtime": 18, "isDrum": true}, {"time": 19, "velocity": 0, "pitch": 36, "instrument": 0, "track": 9, "qtime": 19, "isDrum": true}, {"time": 19, "velocity": 0, "pitch": 42, "instrument": 0, "track": 9, "qtime": 19, "isDrum": true}, {"time": 19, "velocity": 0, "pitch": 82, "instrument": 0, "track": 9, "qtime": 19, "isDrum": true}, {"time": 24, "velocity": 120, "pitch": 70, "instrument": 0, "track": 9, "qtime": 24, "isDrum": true}, {"time": 24, "velocity": 120, "pitch": 82, "instrument": 0, "track": 9, "qtime": 24, "isDrum": true}, {"time": 25, "velocity": 0, "pitch": 70, "instrument": 0, "track": 9, "qtime": 25, "isDrum": true}, {"time": 25, "velocity": 0, "pitch": 82, "instrument": 0, "track": 9, "qtime": 25, "isDrum": true}, {"time": 30, "velocity": 120, "pitch": 42, "instrument": 0, "track": 9, "qtime": 30, "isDrum": true}, {"time": 30, "velocity": 120, "pitch": 82, "instrument": 0, "track": 9, "qtime": 30, "isDrum": true}, {"time": 31, "velocity": 0, "pitch": 42, "instrument": 0, "track": 9, "qtime": 31, "isDrum": true}, {"time": 31, "velocity": 0, "pitch": 82, "instrument": 0, "track": 9, "qtime": 31, "isDrum": true}, {"time": 36, "velocity": 120, "pitch": 36, "instrument": 0, "track": 9, "qtime": 36, "isDrum": true}, {"time": 36, "velocity": 120, "pitch": 70, "instrument": 0, "track": 9, "qtime": 36, "isDrum": true}, {"time": 36, "velocity": 120, "pitch": 82, "instrument": 0, "track": 9, "qtime": 36, "isDrum": true}, {"time": 37, "velocity": 0, "pitch": 36, "instrument": 0, "track": 9, "qtime": 37, "isDrum": true}, {"time": 37, "velocity": 0, "pitch": 70, "instrument": 0, "track": 9, "qtime": 37, "isDrum": true}, {"time": 37, "velocity": 0, "pitch": 82, "instrument": 0, "track": 9, "qtime": 37, "isDrum": true}, {"time": 42, "velocity": 120, "pitch": 42, "instrument": 0, "track": 9, "qtime": 42, "isDrum": true}, {"time": 42, "velocity": 120, "pitch": 82, "instrument": 0, "track": 9, "qtime": 42, "isDrum": true}, {"time": 43, "velocity": 0, "pitch": 42, "instrument": 0, "track": 9, "qtime": 43, "isDrum": true}, {"time": 43, "velocity": 0, "pitch": 82, "instrument": 0, "track": 9, "qtime": 43, "isDrum": true}, {"time": 48, "velocity": 120, "pitch": 70, "instrument": 0, "track": 9, "qtime": 0, "isDrum": true}, {"time": 48, "velocity": 120, "pitch": 82, "instrument": 0, "track": 9, "qtime": 0, "isDrum": true}, {"time": 49, "velocity": 0, "pitch": 70, "instrument": 0, "track": 9, "qtime": 1, "isDrum": true}, {"time": 49, "velocity": 0, "pitch": 82, "instrument": 0, "track": 9, "qtime": 1, "isDrum": true}, {"time": 54, "velocity": 120, "pitch": 36, "instrument": 0, "track": 9, "qtime": 6, "isDrum": true}, {"time": 54, "velocity": 120, "pitch": 42, "instrument": 0, "track": 9, "qtime": 6, "isDrum": true}, {"time": 54, "velocity": 120, "pitch": 82, "instrument": 0, "track": 9, "qtime": 6, "isDrum": true}, {"time": 55, "velocity": 0, "pitch": 36, "instrument": 0, "track": 9, "qtime": 7, "isDrum": true}, {"time": 55, "velocity": 0, "pitch": 42, "instrument": 0, "track": 9, "qtime": 7, "isDrum": true}, {"time": 55, "velocity": 0, "pitch": 82, "instrument": 0, "track": 9, "qtime": 7, "isDrum": true}, {"time": 60, "velocity": 120, "pitch": 36, "instrument": 0, "track": 9, "qtime": 12, "isDrum": true}, {"time": 60, "velocity": 120, "pitch": 70, "instrument": 0, "track": 9, "qtime": 12, "isDrum": true}, {"time": 60, "velocity": 120, "pitch": 82, "instrument": 0, "track": 9, "qtime": 12, "isDrum": true}, {"time": 61, "velocity": 0, "pitch": 36, "instrument": 0, "track": 9, "qtime": 13, "isDrum": true}, {"time": 61, "velocity": 0, "pitch": 70, "instrument": 0, "track": 9, "qtime": 13, "isDrum": true}, {"time": 61, "velocity": 0, "pitch": 82, "instrument": 0, "track": 9, "qtime": 13, "isDrum": true}, {"time": 66, "velocity": 120, "pitch": 42, "instrument": 0, "track": 9, "qtime": 18, "isDrum": true}, {"time": 66, "velocity": 120, "pitch": 82, "instrument": 0, "track": 9, "qtime": 18, "isDrum": true}, {"time": 67, "velocity": 0, "pitch": 42, "instrument": 0, "track": 9, "qtime": 19, "isDrum": true}, {"time": 67, "velocity": 0, "pitch": 82, "instrument": 0, "track": 9, "qtime": 19, "isDrum": true}, {"time": 72, "velocity": 120, "pitch": 70, "instrument": 0, "track": 9, "qtime": 24, "isDrum": true}, {"time": 72, "velocity": 120, "pitch": 82, "instrument": 0, "track": 9, "qtime": 24, "isDrum": true}, {"time": 73, "velocity": 0, "pitch": 70, "instrument": 0, "track": 9, "qtime": 25, "isDrum": true}, {"time": 73, "velocity": 0, "pitch": 82, "instrument": 0, "track": 9, "qtime": 25, "isDrum": true}, {"time": 78, "velocity": 120, "pitch": 42, "instrument": 0, "track": 9, "qtime": 30, "isDrum": true}, {"time": 78, "velocity": 120, "pitch": 82, "instrument": 0, "track": 9, "qtime": 30, "isDrum": true}, {"time": 79, "velocity": 0, "pitch": 42, "instrument": 0, "track": 9, "qtime": 31, "isDrum": true}, {"time": 79, "velocity": 0, "pitch": 82, "instrument": 0, "track": 9, "qtime": 31, "isDrum": true}, {"time": 84, "velocity": 120, "pitch": 36, "instrument": 0, "track": 9, "qtime": 36, "isDrum": true}, {"time": 84, "velocity": 120, "pitch": 70, "instrument": 0, "track": 9, "qtime": 36, "isDrum": true}, {"time": 84, "velocity": 120, "pitch": 82, "instrument": 0, "track": 9, "qtime": 36, "isDrum": true}, {"time": 85, "velocity": 0, "pitch": 36, "instrument": 0, "track": 9, "qtime": 37, "isDrum": true}, {"time": 85, "velocity": 0, "pitch": 70, "instrument": 0, "track": 9, "qtime": 37, "isDrum": true}, {"time": 85, "velocity": 0, "pitch": 82, "instrument": 0, "track": 9, "qtime": 37, "isDrum": true}, {"time": 90, "velocity": 120, "pitch": 42, "instrument": 0, "track": 9, "qtime": 42, "isDrum": true}, {"time": 90, "velocity": 120, "pitch": 82, "instrument": 0, "track": 9, "qtime": 42, "isDrum": true}, {"time": 91, "velocity": 0, "pitch": 42, "instrument": 0, "track": 9, "qtime": 43, "isDrum": true}, {"time": 91, "velocity": 0, "pitch": 82, "instrument": 0, "track": 9, "qtime": 43, "isDrum": true}, {"time": 96, "velocity": 120, "pitch": 36, "instrument": 0, "track": 9, "qtime": 0, "isDrum": true}, {"time": 96, "velocity": 120, "pitch": 42, "instrument": 0, "track": 9, "qtime": 0, "isDrum": true}, {"time": 96, "velocity": 120, "pitch": 70, "instrument": 0, "track": 9, "qtime": 0, "isDrum": true}, {"time": 96, "velocity": 120, "pitch": 82, "instrument": 0, "track": 9, "qtime": 0, "isDrum": true}, {"time": 97, "velocity": 0, "pitch": 36, "instrument": 0, "track": 9, "qtime": 1, "isDrum": true}, {"time": 97, "velocity": 0, "pitch": 42, "instrument": 0, "track": 9, "qtime": 1, "isDrum": true}, {"time": 97, "velocity": 0, "pitch": 70, "instrument": 0, "track": 9, "qtime": 1, "isDrum": true}, {"time": 97, "velocity": 0, "pitch": 82, "instrument": 0, "track": 9, "qtime": 1, "isDrum": true}, {"time": 102, "velocity": 120, "pitch": 42, "instrument": 0, "track": 9, "qtime": 6, "isDrum": true}, {"time": 102, "velocity": 120, "pitch": 82, "instrument": 0, "track": 9, "qtime": 6, "isDrum": true}, {"time": 103, "velocity": 0, "pitch": 42, "instrument": 0, "track": 9, "qtime": 7, "isDrum": true}, {"time": 103, "velocity": 0, "pitch": 82, "instrument": 0, "track": 9, "qtime": 7, "isDrum": true}, {"time": 108, "velocity": 120, "pitch": 70, "instrument": 0, "track": 9, "qtime": 12, "isDrum": true}, {"time": 108, "velocity": 120, "pitch": 82, "instrument": 0, "track": 9, "qtime": 12, "isDrum": true}, {"time": 109, "velocity": 0, "pitch": 70, "instrument": 0, "track": 9, "qtime": 13, "isDrum": true}, {"time": 109, "velocity": 0, "pitch": 82, "instrument": 0, "track": 9, "qtime": 13, "isDrum": true}, {"time": 114, "velocity": 120, "pitch": 36, "instrument": 0, "track": 9, "qtime": 18, "isDrum": true}, {"time": 114, "velocity": 120, "pitch": 42, "instrument": 0, "track": 9, "qtime": 18, "isDrum": true}, {"time": 114, "velocity": 120, "pitch": 82, "instrument": 0, "track": 9, "qtime": 18, "isDrum": true}, {"time": 115, "velocity": 0, "pitch": 36, "instrument": 0, "track": 9, "qtime": 19, "isDrum": true}, {"time": 115, "velocity": 0, "pitch": 42, "instrument": 0, "track": 9, "qtime": 19, "isDrum": true}, {"time": 115, "velocity": 0, "pitch": 82, "instrument": 0, "track": 9, "qtime": 19, "isDrum": true}, {"time": 120, "velocity": 120, "pitch": 70, "instrument": 0, "track": 9, "qtime": 24, "isDrum": true}, {"time": 120, "velocity": 120, "pitch": 82, "instrument": 0, "track": 9, "qtime": 24, "isDrum": true}, {"time": 121, "velocity": 0, "pitch": 70, "instrument": 0, "track": 9, "qtime": 25, "isDrum": true}, {"time": 121, "velocity": 0, "pitch": 82, "instrument": 0, "track": 9, "qtime": 25, "isDrum": true}, {"time": 126, "velocity": 120, "pitch": 42, "instrument": 0, "track": 9, "qtime": 30, "isDrum": true}, {"time": 126, "velocity": 120, "pitch": 82, "instrument": 0, "track": 9, "qtime": 30, "isDrum": true}, {"time": 127, "velocity": 0, "pitch": 42, "instrument": 0, "track": 9, "qtime": 31, "isDrum": true}, {"time": 127, "velocity": 0, "pitch": 82, "instrument": 0, "track": 9, "qtime": 31, "isDrum": true}, {"time": 132, "velocity": 120, "pitch": 36, "instrument": 0, "track": 9, "qtime": 36, "isDrum": true}, {"time": 132, "velocity": 120, "pitch": 70, "instrument": 0, "track": 9, "qtime": 36, "isDrum": true}, {"time": 132, "velocity": 120, "pitch": 82, "instrument": 0, "track": 9, "qtime": 36, "isDrum": true}, {"time": 133, "velocity": 0, "pitch": 36, "instrument": 0, "track": 9, "qtime": 37, "isDrum": true}, {"time": 133, "velocity": 0, "pitch": 70, "instrument": 0, "track": 9, "qtime": 37, "isDrum": true}, {"time": 133, "velocity": 0, "pitch": 82, "instrument": 0, "track": 9, "qtime": 37, "isDrum": true}, {"time": 138, "velocity": 120, "pitch": 42, "instrument": 0, "track": 9, "qtime": 42, "isDrum": true}, {"time": 138, "velocity": 120, "pitch": 82, "instrument": 0, "track": 9, "qtime": 42, "isDrum": true}, {"time": 139, "velocity": 0, "pitch": 42, "instrument": 0, "track": 9, "qtime": 43, "isDrum": true}, {"time": 139, "velocity": 0, "pitch": 82, "instrument": 0, "track": 9, "qtime": 43, "isDrum": true}, {"time": 144, "velocity": 120, "pitch": 70, "instrument": 0, "track": 9, "qtime": 0, "isDrum": true}, {"time": 144, "velocity": 120, "pitch": 82, "instrument": 0, "track": 9, "qtime": 0, "isDrum": true}, {"time": 145, "velocity": 0, "pitch": 70, "instrument": 0, "track": 9, "qtime": 1, "isDrum": true}, {"time": 145, "velocity": 0, "pitch": 82, "instrument": 0, "track": 9, "qtime": 1, "isDrum": true}, {"time": 150, "velocity": 120, "pitch": 36, "instrument": 0, "track": 9, "qtime": 6, "isDrum": true}, {"time": 150, "velocity": 120, "pitch": 42, "instrument": 0, "track": 9, "qtime": 6, "isDrum": true}, {"time": 150, "velocity": 120, "pitch": 82, "instrument": 0, "track": 9, "qtime": 6, "isDrum": true}, {"time": 151, "velocity": 0, "pitch": 36, "instrument": 0, "track": 9, "qtime": 7, "isDrum": true}, {"time": 151, "velocity": 0, "pitch": 42, "instrument": 0, "track": 9, "qtime": 7, "isDrum": true}, {"time": 151, "velocity": 0, "pitch": 82, "instrument": 0, "track": 9, "qtime": 7, "isDrum": true}, {"time": 156, "velocity": 120, "pitch": 36, "instrument": 0, "track": 9, "qtime": 12, "isDrum": true}, {"time": 156, "velocity": 120, "pitch": 70, "instrument": 0, "track": 9, "qtime": 12, "isDrum": true}, {"time": 156, "velocity": 120, "pitch": 82, "instrument": 0, "track": 9, "qtime": 12, "isDrum": true}, {"time": 157, "velocity": 0, "pitch": 36, "instrument": 0, "track": 9, "qtime": 13, "isDrum": true}, {"time": 157, "velocity": 0, "pitch": 70, "instrument": 0, "track": 9, "qtime": 13, "isDrum": true}, {"time": 157, "velocity": 0, "pitch": 82, "instrument": 0, "track": 9, "qtime": 13, "isDrum": true}, {"time": 162, "velocity": 120, "pitch": 42, "instrument": 0, "track": 9, "qtime": 18, "isDrum": true}, {"time": 162, "velocity": 120, "pitch": 82, "instrument": 0, "track": 9, "qtime": 18, "isDrum": true}, {"time": 163, "velocity": 0, "pitch": 42, "instrument": 0, "track": 9, "qtime": 19, "isDrum": true}, {"time": 163, "velocity": 0, "pitch": 82, "instrument": 0, "track": 9, "qtime": 19, "isDrum": true}, {"time": 168, "velocity": 120, "pitch": 70, "instrument": 0, "track": 9, "qtime": 24, "isDrum": true}, {"time": 168, "velocity": 120, "pitch": 82, "instrument": 0, "track": 9, "qtime": 24, "isDrum": true}, {"time": 169, "velocity": 0, "pitch": 70, "instrument": 0, "track": 9, "qtime": 25, "isDrum": true}, {"time": 169, "velocity": 0, "pitch": 82, "instrument": 0, "track": 9, "qtime": 25, "isDrum": true}, {"time": 174, "velocity": 120, "pitch": 42, "instrument": 0, "track": 9, "qtime": 30, "isDrum": true}, {"time": 174, "velocity": 120, "pitch": 82, "instrument": 0, "track": 9, "qtime": 30, "isDrum": true}, {"time": 175, "velocity": 0, "pitch": 42, "instrument": 0, "track": 9, "qtime": 31, "isDrum": true}, {"time": 175, "velocity": 0, "pitch": 82, "instrument": 0, "track": 9, "qtime": 31, "isDrum": true}, {"time": 180, "velocity": 120, "pitch": 36, "instrument": 0, "track": 9, "qtime": 36, "isDrum": true}, {"time": 180, "velocity": 120, "pitch": 70, "instrument": 0, "track": 9, "qtime": 36, "isDrum": true}, {"time": 180, "velocity": 120, "pitch": 82, "instrument": 0, "track": 9, "qtime": 36, "isDrum": true}, {"time": 181, "velocity": 0, "pitch": 36, "instrument": 0, "track": 9, "qtime": 37, "isDrum": true}, {"time": 181, "velocity": 0, "pitch": 70, "instrument": 0, "track": 9, "qtime": 37, "isDrum": true}, {"time": 181, "velocity": 0, "pitch": 82, "instrument": 0, "track": 9, "qtime": 37, "isDrum": true}, {"time": 186, "velocity": 120, "pitch": 42, "instrument": 0, "track": 9, "qtime": 42, "isDrum": true}, {"time": 186, "velocity": 120, "pitch": 82, "instrument": 0, "track": 9, "qtime": 42, "isDrum": true}, {"time": 187, "velocity": 0, "pitch": 42, "instrument": 0, "track": 9, "qtime": 43, "isDrum": true}, {"time": 187, "velocity": 0, "pitch": 82, "instrument": 0, "track": 9, "qtime": 43, "isDrum": true}, {"time": 192, "velocity": 120, "pitch": 36, "instrument": 0, "track": 9, "qtime": 0, "isDrum": true}, {"time": 192, "velocity": 120, "pitch": 42, "instrument": 0, "track": 9, "qtime": 0, "isDrum": true}, {"time": 192, "velocity": 120, "pitch": 70, "instrument": 0, "track": 9, "qtime": 0, "isDrum": true}, {"time": 192, "velocity": 120, "pitch": 82, "instrument": 0, "track": 9, "qtime": 0, "isDrum": true}, {"time": 193, "velocity": 0, "pitch": 36, "instrument": 0, "track": 9, "qtime": 1, "isDrum": true}, {"time": 193, "velocity": 0, "pitch": 42, "instrument": 0, "track": 9, "qtime": 1, "isDrum": true}, {"time": 193, "velocity": 0, "pitch": 70, "instrument": 0, "track": 9, "qtime": 1, "isDrum": true}, {"time": 193, "velocity": 0, "pitch": 82, "instrument": 0, "track": 9, "qtime": 1, "isDrum": true}, {"time": 198, "velocity": 120, "pitch": 42, "instrument": 0, "track": 9, "qtime": 6, "isDrum": true}, {"time": 198, "velocity": 120, "pitch": 82, "instrument": 0, "track": 9, "qtime": 6, "isDrum": true}, {"time": 199, "velocity": 0, "pitch": 42, "instrument": 0, "track": 9, "qtime": 7, "isDrum": true}, {"time": 199, "velocity": 0, "pitch": 82, "instrument": 0, "track": 9, "qtime": 7, "isDrum": true}, {"time": 204, "velocity": 120, "pitch": 70, "instrument": 0, "track": 9, "qtime": 12, "isDrum": true}, {"time": 204, "velocity": 120, "pitch": 82, "instrument": 0, "track": 9, "qtime": 12, "isDrum": true}, {"time": 205, "velocity": 0, "pitch": 70, "instrument": 0, "track": 9, "qtime": 13, "isDrum": true}, {"time": 205, "velocity": 0, "pitch": 82, "instrument": 0, "track": 9, "qtime": 13, "isDrum": true}, {"time": 210, "velocity": 120, "pitch": 36, "instrument": 0, "track": 9, "qtime": 18, "isDrum": true}, {"time": 210, "velocity": 120, "pitch": 42, "instrument": 0, "track": 9, "qtime": 18, "isDrum": true}, {"time": 210, "velocity": 120, "pitch": 82, "instrument": 0, "track": 9, "qtime": 18, "isDrum": true}, {"time": 211, "velocity": 0, "pitch": 36, "instrument": 0, "track": 9, "qtime": 19, "isDrum": true}, {"time": 211, "velocity": 0, "pitch": 42, "instrument": 0, "track": 9, "qtime": 19, "isDrum": true}, {"time": 211, "velocity": 0, "pitch": 82, "instrument": 0, "track": 9, "qtime": 19, "isDrum": true}, {"time": 216, "velocity": 120, "pitch": 70, "instrument": 0, "track": 9, "qtime": 24, "isDrum": true}, {"time": 216, "velocity": 120, "pitch": 82, "instrument": 0, "track": 9, "qtime": 24, "isDrum": true}, {"time": 217, "velocity": 0, "pitch": 70, "instrument": 0, "track": 9, "qtime": 25, "isDrum": true}, {"time": 217, "velocity": 0, "pitch": 82, "instrument": 0, "track": 9, "qtime": 25, "isDrum": true}, {"time": 222, "velocity": 120, "pitch": 42, "instrument": 0, "track": 9, "qtime": 30, "isDrum": true}, {"time": 222, "velocity": 120, "pitch": 82, "instrument": 0, "track": 9, "qtime": 30, "isDrum": true}, {"time": 223, "velocity": 0, "pitch": 42, "instrument": 0, "track": 9, "qtime": 31, "isDrum": true}, {"time": 223, "velocity": 0, "pitch": 82, "instrument": 0, "track": 9, "qtime": 31, "isDrum": true}, {"time": 228, "velocity": 120, "pitch": 36, "instrument": 0, "track": 9, "qtime": 36, "isDrum": true}, {"time": 228, "velocity": 120, "pitch": 70, "instrument": 0, "track": 9, "qtime": 36, "isDrum": true}, {"time": 228, "velocity": 120, "pitch": 82, "instrument": 0, "track": 9, "qtime": 36, "isDrum": true}, {"time": 229, "velocity": 0, "pitch": 36, "instrument": 0, "track": 9, "qtime": 37, "isDrum": true}, {"time": 229, "velocity": 0, "pitch": 70, "instrument": 0, "track": 9, "qtime": 37, "isDrum": true}, {"time": 229, "velocity": 0, "pitch": 82, "instrument": 0, "track": 9, "qtime": 37, "isDrum": true}, {"time": 234, "velocity": 120, "pitch": 42, "instrument": 0, "track": 9, "qtime": 42, "isDrum": true}, {"time": 234, "velocity": 120, "pitch": 82, "instrument": 0, "track": 9, "qtime": 42, "isDrum": true}, {"time": 235, "velocity": 0, "pitch": 42, "instrument": 0, "track": 9, "qtime": 43, "isDrum": true}, {"time": 235, "velocity": 0, "pitch": 82, "instrument": 0, "track": 9, "qtime": 43, "isDrum": true}, {"time": 240, "velocity": 120, "pitch": 70, "instrument": 0, "track": 9, "qtime": 0, "isDrum": true}, {"time": 240, "velocity": 120, "pitch": 82, "instrument": 0, "track": 9, "qtime": 0, "isDrum": true}, {"time": 241, "velocity": 0, "pitch": 70, "instrument": 0, "track": 9, "qtime": 1, "isDrum": true}, {"time": 241, "velocity": 0, "pitch": 82, "instrument": 0, "track": 9, "qtime": 1, "isDrum": true}, {"time": 246, "velocity": 120, "pitch": 36, "instrument": 0, "track": 9, "qtime": 6, "isDrum": true}, {"time": 246, "velocity": 120, "pitch": 42, "instrument": 0, "track": 9, "qtime": 6, "isDrum": true}, {"time": 246, "velocity": 120, "pitch": 82, "instrument": 0, "track": 9, "qtime": 6, "isDrum": true}, {"time": 247, "velocity": 0, "pitch": 36, "instrument": 0, "track": 9, "qtime": 7, "isDrum": true}, {"time": 247, "velocity": 0, "pitch": 42, "instrument": 0, "track": 9, "qtime": 7, "isDrum": true}, {"time": 247, "velocity": 0, "pitch": 82, "instrument": 0, "track": 9, "qtime": 7, "isDrum": true}, {"time": 252, "velocity": 120, "pitch": 36, "instrument": 0, "track": 9, "qtime": 12, "isDrum": true}, {"time": 252, "velocity": 120, "pitch": 70, "instrument": 0, "track": 9, "qtime": 12, "isDrum": true}, {"time": 252, "velocity": 120, "pitch": 82, "instrument": 0, "track": 9, "qtime": 12, "isDrum": true}, {"time": 253, "velocity": 0, "pitch": 36, "instrument": 0, "track": 9, "qtime": 13, "isDrum": true}, {"time": 253, "velocity": 0, "pitch": 70, "instrument": 0, "track": 9, "qtime": 13, "isDrum": true}, {"time": 253, "velocity": 0, "pitch": 82, "instrument": 0, "track": 9, "qtime": 13, "isDrum": true}, {"time": 258, "velocity": 120, "pitch": 42, "instrument": 0, "track": 9, "qtime": 18, "isDrum": true}, {"time": 258, "velocity": 120, "pitch": 82, "instrument": 0, "track": 9, "qtime": 18, "isDrum": true}, {"time": 259, "velocity": 0, "pitch": 42, "instrument": 0, "track": 9, "qtime": 19, "isDrum": true}, {"time": 259, "velocity": 0, "pitch": 82, "instrument": 0, "track": 9, "qtime": 19, "isDrum": true}, {"time": 264, "velocity": 120, "pitch": 70, "instrument": 0, "track": 9, "qtime": 24, "isDrum": true}, {"time": 264, "velocity": 120, "pitch": 82, "instrument": 0, "track": 9, "qtime": 24, "isDrum": true}, {"time": 265, "velocity": 0, "pitch": 70, "instrument": 0, "track": 9, "qtime": 25, "isDrum": true}, {"time": 265, "velocity": 0, "pitch": 82, "instrument": 0, "track": 9, "qtime": 25, "isDrum": true}, {"time": 270, "velocity": 120, "pitch": 42, "instrument": 0, "track": 9, "qtime": 30, "isDrum": true}, {"time": 270, "velocity": 120, "pitch": 82, "instrument": 0, "track": 9, "qtime": 30, "isDrum": true}, {"time": 271, "velocity": 0, "pitch": 42, "instrument": 0, "track": 9, "qtime": 31, "isDrum": true}, {"time": 271, "velocity": 0, "pitch": 82, "instrument": 0, "track": 9, "qtime": 31, "isDrum": true}, {"time": 276, "velocity": 120, "pitch": 36, "instrument": 0, "track": 9, "qtime": 36, "isDrum": true}, {"time": 276, "velocity": 120, "pitch": 70, "instrument": 0, "track": 9, "qtime": 36, "isDrum": true}, {"time": 276, "velocity": 120, "pitch": 82, "instrument": 0, "track": 9, "qtime": 36, "isDrum": true}, {"time": 277, "velocity": 0, "pitch": 36, "instrument": 0, "track": 9, "qtime": 37, "isDrum": true}, {"time": 277, "velocity": 0, "pitch": 70, "instrument": 0, "track": 9, "qtime": 37, "isDrum": true}, {"time": 277, "velocity": 0, "pitch": 82, "instrument": 0, "track": 9, "qtime": 37, "isDrum": true}, {"time": 282, "velocity": 120, "pitch": 42, "instrument": 0, "track": 9, "qtime": 42, "isDrum": true}, {"time": 282, "velocity": 120, "pitch": 82, "instrument": 0, "track": 9, "qtime": 42, "isDrum": true}, {"time": 283, "velocity": 0, "pitch": 42, "instrument": 0, "track": 9, "qtime": 43, "isDrum": true}, {"time": 283, "velocity": 0, "pitch": 82, "instrument": 0, "track": 9, "qtime": 43, "isDrum": true}, {"time": 288, "velocity": 120, "pitch": 36, "instrument": 0, "track": 9, "qtime": 0, "isDrum": true}, {"time": 288, "velocity": 120, "pitch": 42, "instrument": 0, "track": 9, "qtime": 0, "isDrum": true}, {"time": 288, "velocity": 120, "pitch": 58, "instrument": 0, "track": 9, "qtime": 0, "isDrum": true}, {"time": 288, "velocity": 120, "pitch": 70, "instrument": 0, "track": 9, "qtime": 0, "isDrum": true}, {"time": 288, "velocity": 120, "pitch": 82, "instrument": 0, "track": 9, "qtime": 0, "isDrum": true}, {"time": 289, "velocity": 0, "pitch": 36, "instrument": 0, "track": 9, "qtime": 1, "isDrum": true}, {"time": 289, "velocity": 0, "pitch": 42, "instrument": 0, "track": 9, "qtime": 1, "isDrum": true}, {"time": 289, "velocity": 0, "pitch": 58, "instrument": 0, "track": 9, "qtime": 1, "isDrum": true}, {"time": 289, "velocity": 0, "pitch": 70, "instrument": 0, "track": 9, "qtime": 1, "isDrum": true}, {"time": 289, "velocity": 0, "pitch": 82, "instrument": 0, "track": 9, "qtime": 1, "isDrum": true}, {"time": 294, "velocity": 120, "pitch": 42, "instrument": 0, "track": 9, "qtime": 6, "isDrum": true}, {"time": 294, "velocity": 120, "pitch": 82, "instrument": 0, "track": 9, "qtime": 6, "isDrum": true}, {"time": 295, "velocity": 0, "pitch": 42, "instrument": 0, "track": 9, "qtime": 7, "isDrum": true}, {"time": 295, "velocity": 0, "pitch": 82, "instrument": 0, "track": 9, "qtime": 7, "isDrum": true}, {"time": 300, "velocity": 120, "pitch": 70, "instrument": 0, "track": 9, "qtime": 12, "isDrum": true}, {"time": 300, "velocity": 120, "pitch": 82, "instrument": 0, "track": 9, "qtime": 12, "isDrum": true}, {"time": 301, "velocity": 0, "pitch": 70, "instrument": 0, "track": 9, "qtime": 13, "isDrum": true}, {"time": 301, "velocity": 0, "pitch": 82, "instrument": 0, "track": 9, "qtime": 13, "isDrum": true}, {"time": 306, "velocity": 120, "pitch": 36, "instrument": 0, "track": 9, "qtime": 18, "isDrum": true}, {"time": 306, "velocity": 120, "pitch": 42, "instrument": 0, "track": 9, "qtime": 18, "isDrum": true}, {"time": 306, "velocity": 120, "pitch": 82, "instrument": 0, "track": 9, "qtime": 18, "isDrum": true}, {"time": 307, "velocity": 0, "pitch": 36, "instrument": 0, "track": 9, "qtime": 19, "isDrum": true}, {"time": 307, "velocity": 0, "pitch": 42, "instrument": 0, "track": 9, "qtime": 19, "isDrum": true}, {"time": 307, "velocity": 0, "pitch": 82, "instrument": 0, "track": 9, "qtime": 19, "isDrum": true}, {"time": 312, "velocity": 120, "pitch": 70, "instrument": 0, "track": 9, "qtime": 24, "isDrum": true}, {"time": 312, "velocity": 120, "pitch": 82, "instrument": 0, "track": 9, "qtime": 24, "isDrum": true}, {"time": 313, "velocity": 0, "pitch": 70, "instrument": 0, "track": 9, "qtime": 25, "isDrum": true}, {"time": 313, "velocity": 0, "pitch": 82, "instrument": 0, "track": 9, "qtime": 25, "isDrum": true}, {"time": 318, "velocity": 120, "pitch": 42, "instrument": 0, "track": 9, "qtime": 30, "isDrum": true}, {"time": 318, "velocity": 120, "pitch": 82, "instrument": 0, "track": 9, "qtime": 30, "isDrum": true}, {"time": 319, "velocity": 0, "pitch": 42, "instrument": 0, "track": 9, "qtime": 31, "isDrum": true}, {"time": 319, "velocity": 0, "pitch": 82, "instrument": 0, "track": 9, "qtime": 31, "isDrum": true}, {"time": 324, "velocity": 120, "pitch": 36, "instrument": 0, "track": 9, "qtime": 36, "isDrum": true}, {"time": 324, "velocity": 120, "pitch": 70, "instrument": 0, "track": 9, "qtime": 36, "isDrum": true}, {"time": 324, "velocity": 120, "pitch": 82, "instrument": 0, "track": 9, "qtime": 36, "isDrum": true}, {"time": 325, "velocity": 0, "pitch": 36, "instrument": 0, "track": 9, "qtime": 37, "isDrum": true}, {"time": 325, "velocity": 0, "pitch": 70, "instrument": 0, "track": 9, "qtime": 37, "isDrum": true}, {"time": 325, "velocity": 0, "pitch": 82, "instrument": 0, "track": 9, "qtime": 37, "isDrum": true}, {"time": 330, "velocity": 120, "pitch": 42, "instrument": 0, "track": 9, "qtime": 42, "isDrum": true}, {"time": 330, "velocity": 120, "pitch": 82, "instrument": 0, "track": 9, "qtime": 42, "isDrum": true}, {"time": 331, "velocity": 0, "pitch": 42, "instrument": 0, "track": 9, "qtime": 43, "isDrum": true}, {"time": 331, "velocity": 0, "pitch": 82, "instrument": 0, "track": 9, "qtime": 43, "isDrum": true}, {"time": 336, "velocity": 120, "pitch": 70, "instrument": 0, "track": 9, "qtime": 0, "isDrum": true}, {"time": 336, "velocity": 120, "pitch": 82, "instrument": 0, "track": 9, "qtime": 0, "isDrum": true}, {"time": 337, "velocity": 0, "pitch": 70, "instrument": 0, "track": 9, "qtime": 1, "isDrum": true}, {"time": 337, "velocity": 0, "pitch": 82, "instrument": 0, "track": 9, "qtime": 1, "isDrum": true}, {"time": 342, "velocity": 120, "pitch": 36, "instrument": 0, "track": 9, "qtime": 6, "isDrum": true}, {"time": 342, "velocity": 120, "pitch": 42, "instrument": 0, "track": 9, "qtime": 6, "isDrum": true}, {"time": 342, "velocity": 120, "pitch": 82, "instrument": 0, "track": 9, "qtime": 6, "isDrum": true}, {"time": 343, "velocity": 0, "pitch": 36, "instrument": 0, "track": 9, "qtime": 7, "isDrum": true}, {"time": 343, "velocity": 0, "pitch": 42, "instrument": 0, "track": 9, "qtime": 7, "isDrum": true}, {"time": 343, "velocity": 0, "pitch": 82, "instrument": 0, "track": 9, "qtime": 7, "isDrum": true}, {"time": 348, "velocity": 120, "pitch": 36, "instrument": 0, "track": 9, "qtime": 12, "isDrum": true}, {"time": 348, "velocity": 120, "pitch": 70, "instrument": 0, "track": 9, "qtime": 12, "isDrum": true}, {"time": 348, "velocity": 120, "pitch": 82, "instrument": 0, "track": 9, "qtime": 12, "isDrum": true}, {"time": 349, "velocity": 0, "pitch": 36, "instrument": 0, "track": 9, "qtime": 13, "isDrum": true}, {"time": 349, "velocity": 0, "pitch": 70, "instrument": 0, "track": 9, "qtime": 13, "isDrum": true}, {"time": 349, "velocity": 0, "pitch": 82, "instrument": 0, "track": 9, "qtime": 13, "isDrum": true}, {"time": 354, "velocity": 120, "pitch": 42, "instrument": 0, "track": 9, "qtime": 18, "isDrum": true}, {"time": 354, "velocity": 120, "pitch": 82, "instrument": 0, "track": 9, "qtime": 18, "isDrum": true}, {"time": 355, "velocity": 0, "pitch": 42, "instrument": 0, "track": 9, "qtime": 19, "isDrum": true}, {"time": 355, "velocity": 0, "pitch": 82, "instrument": 0, "track": 9, "qtime": 19, "isDrum": true}, {"time": 360, "velocity": 120, "pitch": 70, "instrument": 0, "track": 9, "qtime": 24, "isDrum": true}, {"time": 360, "velocity": 120, "pitch": 82, "instrument": 0, "track": 9, "qtime": 24, "isDrum": true}, {"time": 361, "velocity": 0, "pitch": 70, "instrument": 0, "track": 9, "qtime": 25, "isDrum": true}, {"time": 361, "velocity": 0, "pitch": 82, "instrument": 0, "track": 9, "qtime": 25, "isDrum": true}, {"time": 366, "velocity": 120, "pitch": 42, "instrument": 0, "track": 9, "qtime": 30, "isDrum": true}, {"time": 366, "velocity": 120, "pitch": 82, "instrument": 0, "track": 9, "qtime": 30, "isDrum": true}, {"time": 367, "velocity": 0, "pitch": 42, "instrument": 0, "track": 9, "qtime": 31, "isDrum": true}, {"time": 367, "velocity": 0, "pitch": 82, "instrument": 0, "track": 9, "qtime": 31, "isDrum": true}, {"time": 372, "velocity": 120, "pitch": 36, "instrument": 0, "track": 9, "qtime": 36, "isDrum": true}, {"time": 372, "velocity": 120, "pitch": 70, "instrument": 0, "track": 9, "qtime": 36, "isDrum": true}, {"time": 372, "velocity": 120, "pitch": 82, "instrument": 0, "track": 9, "qtime": 36, "isDrum": true}, {"time": 373, "velocity": 0, "pitch": 36, "instrument": 0, "track": 9, "qtime": 37, "isDrum": true}, {"time": 373, "velocity": 0, "pitch": 70, "instrument": 0, "track": 9, "qtime": 37, "isDrum": true}, {"time": 373, "velocity": 0, "pitch": 82, "instrument": 0, "track": 9, "qtime": 37, "isDrum": true}, {"time": 378, "velocity": 120, "pitch": 42, "instrument": 0, "track": 9, "qtime": 42, "isDrum": true}, {"time": 378, "velocity": 120, "pitch": 82, "instrument": 0, "track": 9, "qtime": 42, "isDrum": true}, {"time": 379, "velocity": 0, "pitch": 42, "instrument": 0, "track": 9, "qtime": 43, "isDrum": true}, {"time": 379, "velocity": 0, "pitch": 82, "instrument": 0, "track": 9, "qtime": 43, "isDrum": true}], "resolution": 12, "tempo": 144, "minPitch": 31, "maxPitch": 82, "validSegments": [0], "validTracks": [15]}, "audio": "https://www.sfu.ca/~jeffe/examples/8b_ex8_density_high.mp3"}, {"src": "gen/8b_ex6_orig.json", "highlights": [[], [], [], [], []], "caption": "Original sample from dataset.", "sample_id": "20a", "mixer": [8, 8, 8, 8, 8], "json": {"tracks": [{"bars": [{"events": [0, 1, 2, 3, 4, 5, 6, 7, 8, 9], "isFourFour": true, "hasNotes": true, "time": 0, "beatLength": 4}, {"events": [10, 11, 12, 13, 14, 15, 16, 17, 18, 19], "isFourFour": true, "hasNotes": true, "time": 48, "beatLength": 4}, {"events": [20, 21, 22, 23, 24, 25, 26, 27], "isFourFour": true, "hasNotes": true, "time": 96, "beatLength": 4}, {"events": [28, 29, 30, 31, 32, 33, 34, 35, 36, 37], "isFourFour": true, "hasNotes": true, "time": 144, "beatLength": 4}, {"events": [38, 39, 40, 41, 42, 43, 44, 45], "isFourFour": true, "hasNotes": true, "time": 192, "beatLength": 4}, {"events": [46, 47, 48, 49, 50, 51, 52, 53, 54, 55], "isFourFour": true, "hasNotes": true, "time": 240, "beatLength": 4}, {"events": [56, 57, 58, 59, 60, 61, 62, 63], "isFourFour": true, "hasNotes": true, "time": 288, "beatLength": 4}, {"events": [64, 65, 66, 67, 68, 69, 70, 71], "isFourFour": true, "hasNotes": true, "time": 336, "beatLength": 4}], "isDrum": false, "minPitch": 28, "maxPitch": 40, "instrument": 0, "avPolyphony": 1.00295854, "noteDensity": 9, "noteDensityV2": 3}, {"bars": [{"events": [72, 73, 74, 75, 76, 77, 78, 79, 80, 81, 82, 83, 84, 85, 86, 87], "isFourFour": true, "hasNotes": true, "time": 0, "beatLength": 4}, {"events": [88, 89, 90, 91, 92, 93, 94, 95, 96, 97, 98, 99, 100, 101, 102, 103, 104, 105, 106, 107, 108, 109], "isFourFour": true, "hasNotes": true, "time": 48, "beatLength": 4}, {"events": [110, 111, 112, 113, 114, 115, 116, 117, 118, 119, 120, 121, 122, 123, 124, 125, 126, 127, 128, 129, 130, 131, 132, 133, 134, 135], "isFourFour": true, "hasNotes": true, "time": 96, "beatLength": 4}, {"events": [136, 137, 138, 139, 140, 141, 142, 143, 144, 145, 146, 147, 148, 149, 150, 151, 152, 153, 154, 155, 156, 157, 158, 159, 160, 161, 162, 163, 164, 165, 166, 167, 168, 169], "isFourFour": true, "hasNotes": true, "time": 144, "beatLength": 4}, {"events": [170, 171, 172, 173, 174, 175, 176, 177, 178, 179, 180, 181, 182, 183, 184, 185, 186, 187, 188, 189, 190, 191, 192, 193], "isFourFour": true, "hasNotes": true, "time": 192, "beatLength": 4}, {"events": [194, 195, 196, 197, 198, 199, 200, 201, 202, 203, 204, 205, 206, 207, 208, 209, 210, 211, 212, 213, 214, 215, 216, 217, 218, 219, 220, 221], "isFourFour": true, "hasNotes": true, "time": 240, "beatLength": 4}, {"events": [222, 223, 224, 225, 226, 227, 228, 229, 230, 231, 232, 233, 234, 235, 236, 237, 238, 239, 240, 241, 242, 243, 244, 245], "isFourFour": true, "hasNotes": true, "time": 288, "beatLength": 4}, {"events": [246, 247, 248, 249, 250, 251, 252, 253, 254, 255, 256, 257, 258, 259, 260, 261, 262, 263, 264, 265, 266, 267, 268, 269, 270, 271, 272, 273], "isFourFour": true, "hasNotes": true, "time": 336, "beatLength": 4}], "isDrum": false, "minPitch": 38, "maxPitch": 79, "instrument": 0, "avPolyphony": 4.89626551, "noteDensity": 9, "noteDensityV2": 8}, {"bars": [{"events": [274, 275, 276, 277], "isFourFour": true, "hasNotes": true, "time": 0, "beatLength": 4}, {"events": [278, 279, 280, 281], "isFourFour": true, "hasNotes": true, "time": 48, "beatLength": 4}, {"events": [282, 283, 284, 285], "isFourFour": true, "hasNotes": true, "time": 96, "beatLength": 4}, {"events": [286, 287, 288, 289], "isFourFour": true, "hasNotes": true, "time": 144, "beatLength": 4}, {"events": [290, 291, 292, 293, 294, 295], "isFourFour": true, "hasNotes": true, "time": 192, "beatLength": 4}, {"events": [296, 297, 298, 299], "isFourFour": true, "hasNotes": true, "time": 240, "beatLength": 4}, {"events": [300, 301, 302, 303], "isFourFour": true, "hasNotes": true, "time": 288, "beatLength": 4}, {"events": [304, 305, 306, 307], "isFourFour": true, "hasNotes": true, "time": 336, "beatLength": 4}], "isDrum": true, "minPitch": 42, "maxPitch": 46, "instrument": 0, "avPolyphony": 1, "noteDensity": 5, "noteDensityV2": 0}, {"bars": [{"events": [308, 309, 310, 311, 312, 313, 314, 315, 316, 317, 318, 319, 320, 321, 322, 323, 324, 325, 326, 327], "isFourFour": true, "hasNotes": true, "time": 0, "beatLength": 4}, {"events": [328, 329, 330, 331, 332, 333, 334, 335, 336, 337, 338, 339, 340, 341, 342, 343, 344, 345, 346, 347], "isFourFour": true, "hasNotes": true, "time": 48, "beatLength": 4}, {"events": [348, 349, 350, 351, 352, 353, 354, 355, 356, 357, 358, 359, 360, 361, 362, 363, 364, 365, 366, 367], "isFourFour": true, "hasNotes": true, "time": 96, "beatLength": 4}, {"events": [368, 369, 370, 371, 372, 373, 374, 375, 376, 377, 378, 379, 380, 381, 382, 383, 384, 385, 386, 387], "isFourFour": true, "hasNotes": true, "time": 144, "beatLength": 4}, {"events": [388, 389, 390, 391, 392, 393, 394, 395, 396, 397, 398, 399, 400, 401, 402, 403, 404, 405, 406, 407], "isFourFour": true, "hasNotes": true, "time": 192, "beatLength": 4}, {"events": [408, 409, 410, 411, 412, 413, 414, 415, 416, 417, 418, 419, 420, 421, 422, 423, 424, 425, 426, 427], "isFourFour": true, "hasNotes": true, "time": 240, "beatLength": 4}, {"events": [428, 429, 430, 431, 432, 433, 434, 435, 436, 437, 438, 439, 440, 441, 442, 443, 444, 445, 446, 447], "isFourFour": true, "hasNotes": true, "time": 288, "beatLength": 4}, {"events": [448, 449, 450, 451, 452, 453, 454, 455, 456, 457, 458, 459, 460, 461, 462, 463, 464, 465, 466, 467], "isFourFour": true, "hasNotes": true, "time": 336, "beatLength": 4}], "isDrum": true, "minPitch": 69, "maxPitch": 69, "instrument": 0, "avPolyphony": 1, "noteDensity": 9, "noteDensityV2": 4}, {"bars": [{"events": [468, 469, 470, 471, 472, 473, 474, 475, 476, 477, 478, 479, 480, 481, 482, 483], "isFourFour": true, "hasNotes": true, "time": 0, "beatLength": 4}, {"events": [484, 485, 486, 487, 488, 489, 490, 491, 492, 493, 494, 495, 496, 497, 498, 499], "isFourFour": true, "hasNotes": true, "time": 48, "beatLength": 4}, {"events": [500, 501, 502, 503, 504, 505, 506, 507, 508, 509, 510, 511, 512, 513, 514, 515], "isFourFour": true, "hasNotes": true, "time": 96, "beatLength": 4}, {"events": [516, 517, 518, 519, 520, 521, 522, 523, 524, 525, 526, 527, 528, 529, 530, 531], "isFourFour": true, "hasNotes": true, "time": 144, "beatLength": 4}, {"events": [532, 533, 534, 535, 536, 537, 538, 539, 540, 541, 542, 543], "isFourFour": true, "hasNotes": true, "time": 192, "beatLength": 4}, {"events": [544, 545, 546, 547, 548, 549, 550, 551, 552, 553, 554, 555, 556, 557, 558, 559], "isFourFour": true, "hasNotes": true, "time": 240, "beatLength": 4}, {"events": [560, 561, 562, 563, 564, 565, 566, 567, 568, 569, 570, 571, 572, 573, 574, 575], "isFourFour": true, "hasNotes": true, "time": 288, "beatLength": 4}, {"events": [576, 577, 578, 579, 580, 581, 582, 583, 584, 585, 586, 587, 588, 589, 590, 591], "isFourFour": true, "hasNotes": true, "time": 336, "beatLength": 4}], "isDrum": true, "minPitch": 62, "maxPitch": 64, "instrument": 0, "avPolyphony": 1, "noteDensity": 9, "noteDensityV2": 3}], "events": [{"time": 0, "velocity": 108, "pitch": 28, "instrument": 0, "track": 0, "qtime": 0, "bar": 0, "isDrum": false}, {"time": 11, "velocity": 0, "pitch": 28, "instrument": 0, "track": 0, "qtime": 11, "bar": 0, "isDrum": false}, {"time": 12, "velocity": 108, "pitch": 35, "instrument": 0, "track": 0, "qtime": 12, "bar": 0, "isDrum": false}, {"time": 23, "velocity": 0, "pitch": 35, "instrument": 0, "track": 0, "qtime": 23, "bar": 0, "isDrum": false}, {"time": 24, "velocity": 108, "pitch": 40, "instrument": 0, "track": 0, "qtime": 24, "bar": 0, "isDrum": false}, {"time": 32, "velocity": 0, "pitch": 40, "instrument": 0, "track": 0, "qtime": 32, "bar": 0, "isDrum": false}, {"time": 32, "velocity": 108, "pitch": 28, "instrument": 0, "track": 0, "qtime": 32, "bar": 0, "isDrum": false}, {"time": 39, "velocity": 0, "pitch": 28, "instrument": 0, "track": 0, "qtime": 39, "bar": 0, "isDrum": false}, {"time": 40, "velocity": 108, "pitch": 32, "instrument": 0, "track": 0, "qtime": 40, "bar": 0, "isDrum": false}, {"time": 48, "velocity": 0, "pitch": 32, "instrument": 0, "track": 0, "qtime": 48, "bar": 0, "isDrum": false}, {"time": 48, "velocity": 108, "pitch": 33, "instrument": 0, "track": 0, "qtime": 0, "bar": 1, "isDrum": false}, {"time": 63, "velocity": 0, "pitch": 33, "instrument": 0, "track": 0, "qtime": 15, "bar": 1, "isDrum": false}, {"time": 66, "velocity": 108, "pitch": 33, "instrument": 0, "track": 0, "qtime": 18, "bar": 1, "isDrum": false}, {"time": 70, "velocity": 0, "pitch": 33, "instrument": 0, "track": 0, "qtime": 22, "bar": 1, "isDrum": false}, {"time": 72, "velocity": 108, "pitch": 33, "instrument": 0, "track": 0, "qtime": 24, "bar": 1, "isDrum": false}, {"time": 79, "velocity": 0, "pitch": 33, "instrument": 0, "track": 0, "qtime": 31, "bar": 1, "isDrum": false}, {"time": 80, "velocity": 108, "pitch": 35, "instrument": 0, "track": 0, "qtime": 32, "bar": 1, "isDrum": false}, {"time": 88, "velocity": 0, "pitch": 35, "instrument": 0, "track": 0, "qtime": 40, "bar": 1, "isDrum": false}, {"time": 88, "velocity": 108, "pitch": 36, "instrument": 0, "track": 0, "qtime": 40, "bar": 1, "isDrum": false}, {"time": 95, "velocity": 0, "pitch": 36, "instrument": 0, "track": 0, "qtime": 47, "bar": 1, "isDrum": false}, {"time": 96, "velocity": 108, "pitch": 38, "instrument": 0, "track": 0, "qtime": 0, "bar": 2, "isDrum": false}, {"time": 106, "velocity": 0, "pitch": 38, "instrument": 0, "track": 0, "qtime": 10, "bar": 2, "isDrum": false}, {"time": 108, "velocity": 108, "pitch": 38, "instrument": 0, "track": 0, "qtime": 12, "bar": 2, "isDrum": false}, {"time": 119, "velocity": 0, "pitch": 38, "instrument": 0, "track": 0, "qtime": 23, "bar": 2, "isDrum": false}, {"time": 120, "velocity": 108, "pitch": 36, "instrument": 0, "track": 0, "qtime": 24, "bar": 2, "isDrum": false}, {"time": 130, "velocity": 0, "pitch": 36, "instrument": 0, "track": 0, "qtime": 34, "bar": 2, "isDrum": false}, {"time": 132, "velocity": 108, "pitch": 36, "instrument": 0, "track": 0, "qtime": 36, "bar": 2, "isDrum": false}, {"time": 142, "velocity": 0, "pitch": 36, "instrument": 0, "track": 0, "qtime": 46, "bar": 2, "isDrum": false}, {"time": 144, "velocity": 108, "pitch": 35, "instrument": 0, "track": 0, "qtime": 0, "bar": 3, "isDrum": false}, {"time": 160, "velocity": 0, "pitch": 35, "instrument": 0, "track": 0, "qtime": 16, "bar": 3, "isDrum": false}, {"time": 162, "velocity": 108, "pitch": 35, "instrument": 0, "track": 0, "qtime": 18, "bar": 3, "isDrum": false}, {"time": 167, "velocity": 0, "pitch": 35, "instrument": 0, "track": 0, "qtime": 23, "bar": 3, "isDrum": false}, {"time": 168, "velocity": 108, "pitch": 35, "instrument": 0, "track": 0, "qtime": 24, "bar": 3, "isDrum": false}, {"time": 176, "velocity": 0, "pitch": 35, "instrument": 0, "track": 0, "qtime": 32, "bar": 3, "isDrum": false}, {"time": 176, "velocity": 108, "pitch": 36, "instrument": 0, "track": 0, "qtime": 32, "bar": 3, "isDrum": false}, {"time": 183, "velocity": 0, "pitch": 36, "instrument": 0, "track": 0, "qtime": 39, "bar": 3, "isDrum": false}, {"time": 184, "velocity": 108, "pitch": 38, "instrument": 0, "track": 0, "qtime": 40, "bar": 3, "isDrum": false}, {"time": 192, "velocity": 0, "pitch": 38, "instrument": 0, "track": 0, "qtime": 48, "bar": 3, "isDrum": false}, {"time": 192, "velocity": 108, "pitch": 40, "instrument": 0, "track": 0, "qtime": 0, "bar": 4, "isDrum": false}, {"time": 203, "velocity": 0, "pitch": 40, "instrument": 0, "track": 0, "qtime": 11, "bar": 4, "isDrum": false}, {"time": 204, "velocity": 108, "pitch": 35, "instrument": 0, "track": 0, "qtime": 12, "bar": 4, "isDrum": false}, {"time": 216, "velocity": 0, "pitch": 35, "instrument": 0, "track": 0, "qtime": 24, "bar": 4, "isDrum": false}, {"time": 216, "velocity": 108, "pitch": 28, "instrument": 0, "track": 0, "qtime": 24, "bar": 4, "isDrum": false}, {"time": 228, "velocity": 0, "pitch": 28, "instrument": 0, "track": 0, "qtime": 36, "bar": 4, "isDrum": false}, {"time": 228, "velocity": 108, "pitch": 32, "instrument": 0, "track": 0, "qtime": 36, "bar": 4, "isDrum": false}, {"time": 240, "velocity": 0, "pitch": 32, "instrument": 0, "track": 0, "qtime": 48, "bar": 4, "isDrum": false}, {"time": 240, "velocity": 108, "pitch": 33, "instrument": 0, "track": 0, "qtime": 0, "bar": 5, "isDrum": false}, {"time": 255, "velocity": 0, "pitch": 33, "instrument": 0, "track": 0, "qtime": 15, "bar": 5, "isDrum": false}, {"time": 258, "velocity": 108, "pitch": 33, "instrument": 0, "track": 0, "qtime": 18, "bar": 5, "isDrum": false}, {"time": 262, "velocity": 0, "pitch": 33, "instrument": 0, "track": 0, "qtime": 22, "bar": 5, "isDrum": false}, {"time": 264, "velocity": 108, "pitch": 33, "instrument": 0, "track": 0, "qtime": 24, "bar": 5, "isDrum": false}, {"time": 272, "velocity": 0, "pitch": 33, "instrument": 0, "track": 0, "qtime": 32, "bar": 5, "isDrum": false}, {"time": 272, "velocity": 108, "pitch": 35, "instrument": 0, "track": 0, "qtime": 32, "bar": 5, "isDrum": false}, {"time": 280, "velocity": 0, "pitch": 35, "instrument": 0, "track": 0, "qtime": 40, "bar": 5, "isDrum": false}, {"time": 280, "velocity": 108, "pitch": 36, "instrument": 0, "track": 0, "qtime": 40, "bar": 5, "isDrum": false}, {"time": 287, "velocity": 0, "pitch": 36, "instrument": 0, "track": 0, "qtime": 47, "bar": 5, "isDrum": false}, {"time": 288, "velocity": 108, "pitch": 38, "instrument": 0, "track": 0, "qtime": 0, "bar": 6, "isDrum": false}, {"time": 299, "velocity": 0, "pitch": 38, "instrument": 0, "track": 0, "qtime": 11, "bar": 6, "isDrum": false}, {"time": 300, "velocity": 108, "pitch": 38, "instrument": 0, "track": 0, "qtime": 12, "bar": 6, "isDrum": false}, {"time": 312, "velocity": 0, "pitch": 38, "instrument": 0, "track": 0, "qtime": 24, "bar": 6, "isDrum": false}, {"time": 312, "velocity": 108, "pitch": 30, "instrument": 0, "track": 0, "qtime": 24, "bar": 6, "isDrum": false}, {"time": 323, "velocity": 0, "pitch": 30, "instrument": 0, "track": 0, "qtime": 35, "bar": 6, "isDrum": false}, {"time": 324, "velocity": 108, "pitch": 30, "instrument": 0, "track": 0, "qtime": 36, "bar": 6, "isDrum": false}, {"time": 335, "velocity": 0, "pitch": 30, "instrument": 0, "track": 0, "qtime": 47, "bar": 6, "isDrum": false}, {"time": 336, "velocity": 108, "pitch": 31, "instrument": 0, "track": 0, "qtime": 0, "bar": 7, "isDrum": false}, {"time": 350, "velocity": 0, "pitch": 31, "instrument": 0, "track": 0, "qtime": 14, "bar": 7, "isDrum": false}, {"time": 354, "velocity": 108, "pitch": 31, "instrument": 0, "track": 0, "qtime": 18, "bar": 7, "isDrum": false}, {"time": 355, "velocity": 0, "pitch": 31, "instrument": 0, "track": 0, "qtime": 19, "bar": 7, "isDrum": false}, {"time": 360, "velocity": 108, "pitch": 31, "instrument": 0, "track": 0, "qtime": 24, "bar": 7, "isDrum": false}, {"time": 372, "velocity": 108, "pitch": 29, "instrument": 0, "track": 0, "qtime": 36, "bar": 7, "isDrum": false}, {"time": 373, "velocity": 0, "pitch": 31, "instrument": 0, "track": 0, "qtime": 37, "bar": 7, "isDrum": false}, {"time": 378, "velocity": 0, "pitch": 29, "instrument": 0, "track": 0, "qtime": 42, "bar": 7, "isDrum": false}, {"time": 0, "velocity": 108, "pitch": 52, "instrument": 0, "track": 1, "qtime": 0, "bar": 0, "isDrum": false}, {"time": 0, "velocity": 108, "pitch": 56, "instrument": 0, "track": 1, "qtime": 0, "bar": 0, "isDrum": false}, {"time": 0, "velocity": 108, "pitch": 62, "instrument": 0, "track": 1, "qtime": 0, "bar": 0, "isDrum": false}, {"time": 0, "velocity": 108, "pitch": 67, "instrument": 0, "track": 1, "qtime": 0, "bar": 0, "isDrum": false}, {"time": 0, "velocity": 108, "pitch": 72, "instrument": 0, "track": 1, "qtime": 0, "bar": 0, "isDrum": false}, {"time": 14, "velocity": 0, "pitch": 62, "instrument": 0, "track": 1, "qtime": 14, "bar": 0, "isDrum": false}, {"time": 14, "velocity": 0, "pitch": 67, "instrument": 0, "track": 1, "qtime": 14, "bar": 0, "isDrum": false}, {"time": 14, "velocity": 0, "pitch": 72, "instrument": 0, "track": 1, "qtime": 14, "bar": 0, "isDrum": false}, {"time": 24, "velocity": 108, "pitch": 62, "instrument": 0, "track": 1, "qtime": 24, "bar": 0, "isDrum": false}, {"time": 24, "velocity": 108, "pitch": 65, "instrument": 0, "track": 1, "qtime": 24, "bar": 0, "isDrum": false}, {"time": 24, "velocity": 108, "pitch": 71, "instrument": 0, "track": 1, "qtime": 24, "bar": 0, "isDrum": false}, {"time": 33, "velocity": 0, "pitch": 52, "instrument": 0, "track": 1, "qtime": 33, "bar": 0, "isDrum": false}, {"time": 33, "velocity": 0, "pitch": 56, "instrument": 0, "track": 1, "qtime": 33, "bar": 0, "isDrum": false}, {"time": 34, "velocity": 0, "pitch": 62, "instrument": 0, "track": 1, "qtime": 34, "bar": 0, "isDrum": false}, {"time": 34, "velocity": 0, "pitch": 65, "instrument": 0, "track": 1, "qtime": 34, "bar": 0, "isDrum": false}, {"time": 34, "velocity": 0, "pitch": 71, "instrument": 0, "track": 1, "qtime": 34, "bar": 0, "isDrum": false}, {"time": 48, "velocity": 108, "pitch": 45, "instrument": 0, "track": 1, "qtime": 0, "bar": 1, "isDrum": false}, {"time": 48, "velocity": 108, "pitch": 55, "instrument": 0, "track": 1, "qtime": 0, "bar": 1, "isDrum": false}, {"time": 48, "velocity": 108, "pitch": 59, "instrument": 0, "track": 1, "qtime": 0, "bar": 1, "isDrum": false}, {"time": 48, "velocity": 108, "pitch": 60, "instrument": 0, "track": 1, "qtime": 0, "bar": 1, "isDrum": false}, {"time": 48, "velocity": 108, "pitch": 64, "instrument": 0, "track": 1, "qtime": 0, "bar": 1, "isDrum": false}, {"time": 58, "velocity": 0, "pitch": 45, "instrument": 0, "track": 1, "qtime": 10, "bar": 1, "isDrum": false}, {"time": 58, "velocity": 0, "pitch": 59, "instrument": 0, "track": 1, "qtime": 10, "bar": 1, "isDrum": false}, {"time": 58, "velocity": 0, "pitch": 60, "instrument": 0, "track": 1, "qtime": 10, "bar": 1, "isDrum": false}, {"time": 59, "velocity": 0, "pitch": 55, "instrument": 0, "track": 1, "qtime": 11, "bar": 1, "isDrum": false}, {"time": 60, "velocity": 0, "pitch": 64, "instrument": 0, "track": 1, "qtime": 12, "bar": 1, "isDrum": false}, {"time": 72, "velocity": 108, "pitch": 45, "instrument": 0, "track": 1, "qtime": 24, "bar": 1, "isDrum": false}, {"time": 72, "velocity": 108, "pitch": 55, "instrument": 0, "track": 1, "qtime": 24, "bar": 1, "isDrum": false}, {"time": 72, "velocity": 108, "pitch": 59, "instrument": 0, "track": 1, "qtime": 24, "bar": 1, "isDrum": false}, {"time": 72, "velocity": 108, "pitch": 60, "instrument": 0, "track": 1, "qtime": 24, "bar": 1, "isDrum": false}, {"time": 72, "velocity": 108, "pitch": 64, "instrument": 0, "track": 1, "qtime": 24, "bar": 1, "isDrum": false}, {"time": 72, "velocity": 108, "pitch": 67, "instrument": 0, "track": 1, "qtime": 24, "bar": 1, "isDrum": false}, {"time": 79, "velocity": 0, "pitch": 45, "instrument": 0, "track": 1, "qtime": 31, "bar": 1, "isDrum": false}, {"time": 79, "velocity": 0, "pitch": 55, "instrument": 0, "track": 1, "qtime": 31, "bar": 1, "isDrum": false}, {"time": 79, "velocity": 0, "pitch": 59, "instrument": 0, "track": 1, "qtime": 31, "bar": 1, "isDrum": false}, {"time": 79, "velocity": 0, "pitch": 60, "instrument": 0, "track": 1, "qtime": 31, "bar": 1, "isDrum": false}, {"time": 79, "velocity": 0, "pitch": 64, "instrument": 0, "track": 1, "qtime": 31, "bar": 1, "isDrum": false}, {"time": 81, "velocity": 0, "pitch": 67, "instrument": 0, "track": 1, "qtime": 33, "bar": 1, "isDrum": false}, {"time": 96, "velocity": 108, "pitch": 50, "instrument": 0, "track": 1, "qtime": 0, "bar": 2, "isDrum": false}, {"time": 96, "velocity": 108, "pitch": 60, "instrument": 0, "track": 1, "qtime": 0, "bar": 2, "isDrum": false}, {"time": 96, "velocity": 108, "pitch": 64, "instrument": 0, "track": 1, "qtime": 0, "bar": 2, "isDrum": false}, {"time": 96, "velocity": 108, "pitch": 67, "instrument": 0, "track": 1, "qtime": 0, "bar": 2, "isDrum": false}, {"time": 96, "velocity": 108, "pitch": 71, "instrument": 0, "track": 1, "qtime": 0, "bar": 2, "isDrum": false}, {"time": 101, "velocity": 0, "pitch": 67, "instrument": 0, "track": 1, "qtime": 5, "bar": 2, "isDrum": false}, {"time": 102, "velocity": 0, "pitch": 60, "instrument": 0, "track": 1, "qtime": 6, "bar": 2, "isDrum": false}, {"time": 102, "velocity": 0, "pitch": 64, "instrument": 0, "track": 1, "qtime": 6, "bar": 2, "isDrum": false}, {"time": 103, "velocity": 0, "pitch": 71, "instrument": 0, "track": 1, "qtime": 7, "bar": 2, "isDrum": false}, {"time": 108, "velocity": 108, "pitch": 64, "instrument": 0, "track": 1, "qtime": 12, "bar": 2, "isDrum": false}, {"time": 108, "velocity": 108, "pitch": 67, "instrument": 0, "track": 1, "qtime": 12, "bar": 2, "isDrum": false}, {"time": 110, "velocity": 0, "pitch": 50, "instrument": 0, "track": 1, "qtime": 14, "bar": 2, "isDrum": false}, {"time": 111, "velocity": 0, "pitch": 64, "instrument": 0, "track": 1, "qtime": 15, "bar": 2, "isDrum": false}, {"time": 112, "velocity": 0, "pitch": 67, "instrument": 0, "track": 1, "qtime": 16, "bar": 2, "isDrum": false}, {"time": 120, "velocity": 108, "pitch": 38, "instrument": 0, "track": 1, "qtime": 24, "bar": 2, "isDrum": false}, {"time": 120, "velocity": 108, "pitch": 60, "instrument": 0, "track": 1, "qtime": 24, "bar": 2, "isDrum": false}, {"time": 120, "velocity": 108, "pitch": 63, "instrument": 0, "track": 1, "qtime": 24, "bar": 2, "isDrum": false}, {"time": 120, "velocity": 108, "pitch": 66, "instrument": 0, "track": 1, "qtime": 24, "bar": 2, "isDrum": false}, {"time": 121, "velocity": 108, "pitch": 50, "instrument": 0, "track": 1, "qtime": 25, "bar": 2, "isDrum": false}, {"time": 128, "velocity": 0, "pitch": 60, "instrument": 0, "track": 1, "qtime": 32, "bar": 2, "isDrum": false}, {"time": 129, "velocity": 0, "pitch": 38, "instrument": 0, "track": 1, "qtime": 33, "bar": 2, "isDrum": false}, {"time": 129, "velocity": 0, "pitch": 66, "instrument": 0, "track": 1, "qtime": 33, "bar": 2, "isDrum": false}, {"time": 130, "velocity": 0, "pitch": 63, "instrument": 0, "track": 1, "qtime": 34, "bar": 2, "isDrum": false}, {"time": 131, "velocity": 0, "pitch": 50, "instrument": 0, "track": 1, "qtime": 35, "bar": 2, "isDrum": false}, {"time": 132, "velocity": 108, "pitch": 71, "instrument": 0, "track": 1, "qtime": 36, "bar": 2, "isDrum": false}, {"time": 135, "velocity": 0, "pitch": 71, "instrument": 0, "track": 1, "qtime": 39, "bar": 2, "isDrum": false}, {"time": 144, "velocity": 108, "pitch": 47, "instrument": 0, "track": 1, "qtime": 0, "bar": 3, "isDrum": false}, {"time": 144, "velocity": 108, "pitch": 57, "instrument": 0, "track": 1, "qtime": 0, "bar": 3, "isDrum": false}, {"time": 144, "velocity": 108, "pitch": 62, "instrument": 0, "track": 1, "qtime": 0, "bar": 3, "isDrum": false}, {"time": 144, "velocity": 108, "pitch": 65, "instrument": 0, "track": 1, "qtime": 0, "bar": 3, "isDrum": false}, {"time": 144, "velocity": 108, "pitch": 69, "instrument": 0, "track": 1, "qtime": 0, "bar": 3, "isDrum": false}, {"time": 144, "velocity": 108, "pitch": 74, "instrument": 0, "track": 1, "qtime": 0, "bar": 3, "isDrum": false}, {"time": 155, "velocity": 0, "pitch": 47, "instrument": 0, "track": 1, "qtime": 11, "bar": 3, "isDrum": false}, {"time": 156, "velocity": 0, "pitch": 57, "instrument": 0, "track": 1, "qtime": 12, "bar": 3, "isDrum": false}, {"time": 156, "velocity": 0, "pitch": 74, "instrument": 0, "track": 1, "qtime": 12, "bar": 3, "isDrum": false}, {"time": 157, "velocity": 0, "pitch": 62, "instrument": 0, "track": 1, "qtime": 13, "bar": 3, "isDrum": false}, {"time": 157, "velocity": 0, "pitch": 65, "instrument": 0, "track": 1, "qtime": 13, "bar": 3, "isDrum": false}, {"time": 157, "velocity": 0, "pitch": 69, "instrument": 0, "track": 1, "qtime": 13, "bar": 3, "isDrum": false}, {"time": 168, "velocity": 108, "pitch": 57, "instrument": 0, "track": 1, "qtime": 24, "bar": 3, "isDrum": false}, {"time": 168, "velocity": 108, "pitch": 62, "instrument": 0, "track": 1, "qtime": 24, "bar": 3, "isDrum": false}, {"time": 168, "velocity": 108, "pitch": 65, "instrument": 0, "track": 1, "qtime": 24, "bar": 3, "isDrum": false}, {"time": 168, "velocity": 108, "pitch": 69, "instrument": 0, "track": 1, "qtime": 24, "bar": 3, "isDrum": false}, {"time": 168, "velocity": 108, "pitch": 71, "instrument": 0, "track": 1, "qtime": 24, "bar": 3, "isDrum": false}, {"time": 169, "velocity": 108, "pitch": 47, "instrument": 0, "track": 1, "qtime": 25, "bar": 3, "isDrum": false}, {"time": 177, "velocity": 0, "pitch": 62, "instrument": 0, "track": 1, "qtime": 33, "bar": 3, "isDrum": false}, {"time": 178, "velocity": 0, "pitch": 65, "instrument": 0, "track": 1, "qtime": 34, "bar": 3, "isDrum": false}, {"time": 178, "velocity": 0, "pitch": 69, "instrument": 0, "track": 1, "qtime": 34, "bar": 3, "isDrum": false}, {"time": 179, "velocity": 0, "pitch": 71, "instrument": 0, "track": 1, "qtime": 35, "bar": 3, "isDrum": false}, {"time": 180, "velocity": 108, "pitch": 62, "instrument": 0, "track": 1, "qtime": 36, "bar": 3, "isDrum": false}, {"time": 180, "velocity": 108, "pitch": 65, "instrument": 0, "track": 1, "qtime": 36, "bar": 3, "isDrum": false}, {"time": 180, "velocity": 108, "pitch": 69, "instrument": 0, "track": 1, "qtime": 36, "bar": 3, "isDrum": false}, {"time": 180, "velocity": 108, "pitch": 71, "instrument": 0, "track": 1, "qtime": 36, "bar": 3, "isDrum": false}, {"time": 180, "velocity": 108, "pitch": 74, "instrument": 0, "track": 1, "qtime": 36, "bar": 3, "isDrum": false}, {"time": 182, "velocity": 0, "pitch": 47, "instrument": 0, "track": 1, "qtime": 38, "bar": 3, "isDrum": false}, {"time": 182, "velocity": 0, "pitch": 57, "instrument": 0, "track": 1, "qtime": 38, "bar": 3, "isDrum": false}, {"time": 184, "velocity": 0, "pitch": 62, "instrument": 0, "track": 1, "qtime": 40, "bar": 3, "isDrum": false}, {"time": 184, "velocity": 0, "pitch": 65, "instrument": 0, "track": 1, "qtime": 40, "bar": 3, "isDrum": false}, {"time": 184, "velocity": 0, "pitch": 69, "instrument": 0, "track": 1, "qtime": 40, "bar": 3, "isDrum": false}, {"time": 184, "velocity": 0, "pitch": 71, "instrument": 0, "track": 1, "qtime": 40, "bar": 3, "isDrum": false}, {"time": 184, "velocity": 0, "pitch": 74, "instrument": 0, "track": 1, "qtime": 40, "bar": 3, "isDrum": false}, {"time": 192, "velocity": 108, "pitch": 52, "instrument": 0, "track": 1, "qtime": 0, "bar": 4, "isDrum": false}, {"time": 192, "velocity": 108, "pitch": 56, "instrument": 0, "track": 1, "qtime": 0, "bar": 4, "isDrum": false}, {"time": 192, "velocity": 108, "pitch": 67, "instrument": 0, "track": 1, "qtime": 0, "bar": 4, "isDrum": false}, {"time": 192, "velocity": 108, "pitch": 72, "instrument": 0, "track": 1, "qtime": 0, "bar": 4, "isDrum": false}, {"time": 192, "velocity": 108, "pitch": 79, "instrument": 0, "track": 1, "qtime": 0, "bar": 4, "isDrum": false}, {"time": 193, "velocity": 108, "pitch": 62, "instrument": 0, "track": 1, "qtime": 1, "bar": 4, "isDrum": false}, {"time": 208, "velocity": 0, "pitch": 52, "instrument": 0, "track": 1, "qtime": 16, "bar": 4, "isDrum": false}, {"time": 208, "velocity": 0, "pitch": 56, "instrument": 0, "track": 1, "qtime": 16, "bar": 4, "isDrum": false}, {"time": 208, "velocity": 0, "pitch": 62, "instrument": 0, "track": 1, "qtime": 16, "bar": 4, "isDrum": false}, {"time": 208, "velocity": 0, "pitch": 67, "instrument": 0, "track": 1, "qtime": 16, "bar": 4, "isDrum": false}, {"time": 208, "velocity": 0, "pitch": 72, "instrument": 0, "track": 1, "qtime": 16, "bar": 4, "isDrum": false}, {"time": 208, "velocity": 0, "pitch": 79, "instrument": 0, "track": 1, "qtime": 16, "bar": 4, "isDrum": false}, {"time": 216, "velocity": 108, "pitch": 52, "instrument": 0, "track": 1, "qtime": 24, "bar": 4, "isDrum": false}, {"time": 216, "velocity": 108, "pitch": 56, "instrument": 0, "track": 1, "qtime": 24, "bar": 4, "isDrum": false}, {"time": 216, "velocity": 108, "pitch": 62, "instrument": 0, "track": 1, "qtime": 24, "bar": 4, "isDrum": false}, {"time": 216, "velocity": 108, "pitch": 67, "instrument": 0, "track": 1, "qtime": 24, "bar": 4, "isDrum": false}, {"time": 216, "velocity": 108, "pitch": 72, "instrument": 0, "track": 1, "qtime": 24, "bar": 4, "isDrum": false}, {"time": 216, "velocity": 108, "pitch": 76, "instrument": 0, "track": 1, "qtime": 24, "bar": 4, "isDrum": false}, {"time": 231, "velocity": 0, "pitch": 56, "instrument": 0, "track": 1, "qtime": 39, "bar": 4, "isDrum": false}, {"time": 232, "velocity": 0, "pitch": 52, "instrument": 0, "track": 1, "qtime": 40, "bar": 4, "isDrum": false}, {"time": 232, "velocity": 0, "pitch": 62, "instrument": 0, "track": 1, "qtime": 40, "bar": 4, "isDrum": false}, {"time": 232, "velocity": 0, "pitch": 67, "instrument": 0, "track": 1, "qtime": 40, "bar": 4, "isDrum": false}, {"time": 232, "velocity": 0, "pitch": 72, "instrument": 0, "track": 1, "qtime": 40, "bar": 4, "isDrum": false}, {"time": 233, "velocity": 0, "pitch": 76, "instrument": 0, "track": 1, "qtime": 41, "bar": 4, "isDrum": false}, {"time": 240, "velocity": 108, "pitch": 45, "instrument": 0, "track": 1, "qtime": 0, "bar": 5, "isDrum": false}, {"time": 240, "velocity": 108, "pitch": 52, "instrument": 0, "track": 1, "qtime": 0, "bar": 5, "isDrum": false}, {"time": 240, "velocity": 108, "pitch": 60, "instrument": 0, "track": 1, "qtime": 0, "bar": 5, "isDrum": false}, {"time": 240, "velocity": 108, "pitch": 64, "instrument": 0, "track": 1, "qtime": 0, "bar": 5, "isDrum": false}, {"time": 240, "velocity": 108, "pitch": 67, "instrument": 0, "track": 1, "qtime": 0, "bar": 5, "isDrum": false}, {"time": 240, "velocity": 108, "pitch": 71, "instrument": 0, "track": 1, "qtime": 0, "bar": 5, "isDrum": false}, {"time": 241, "velocity": 108, "pitch": 74, "instrument": 0, "track": 1, "qtime": 1, "bar": 5, "isDrum": false}, {"time": 256, "velocity": 0, "pitch": 52, "instrument": 0, "track": 1, "qtime": 16, "bar": 5, "isDrum": false}, {"time": 256, "velocity": 0, "pitch": 60, "instrument": 0, "track": 1, "qtime": 16, "bar": 5, "isDrum": false}, {"time": 256, "velocity": 0, "pitch": 67, "instrument": 0, "track": 1, "qtime": 16, "bar": 5, "isDrum": false}, {"time": 257, "velocity": 0, "pitch": 64, "instrument": 0, "track": 1, "qtime": 17, "bar": 5, "isDrum": false}, {"time": 257, "velocity": 0, "pitch": 71, "instrument": 0, "track": 1, "qtime": 17, "bar": 5, "isDrum": false}, {"time": 260, "velocity": 0, "pitch": 45, "instrument": 0, "track": 1, "qtime": 20, "bar": 5, "isDrum": false}, {"time": 263, "velocity": 108, "pitch": 45, "instrument": 0, "track": 1, "qtime": 23, "bar": 5, "isDrum": false}, {"time": 263, "velocity": 108, "pitch": 52, "instrument": 0, "track": 1, "qtime": 23, "bar": 5, "isDrum": false}, {"time": 263, "velocity": 108, "pitch": 60, "instrument": 0, "track": 1, "qtime": 23, "bar": 5, "isDrum": false}, {"time": 263, "velocity": 108, "pitch": 64, "instrument": 0, "track": 1, "qtime": 23, "bar": 5, "isDrum": false}, {"time": 264, "velocity": 108, "pitch": 67, "instrument": 0, "track": 1, "qtime": 24, "bar": 5, "isDrum": false}, {"time": 265, "velocity": 108, "pitch": 71, "instrument": 0, "track": 1, "qtime": 25, "bar": 5, "isDrum": false}, {"time": 267, "velocity": 0, "pitch": 67, "instrument": 0, "track": 1, "qtime": 27, "bar": 5, "isDrum": false}, {"time": 269, "velocity": 0, "pitch": 71, "instrument": 0, "track": 1, "qtime": 29, "bar": 5, "isDrum": false}, {"time": 276, "velocity": 108, "pitch": 67, "instrument": 0, "track": 1, "qtime": 36, "bar": 5, "isDrum": false}, {"time": 277, "velocity": 0, "pitch": 64, "instrument": 0, "track": 1, "qtime": 37, "bar": 5, "isDrum": false}, {"time": 278, "velocity": 0, "pitch": 74, "instrument": 0, "track": 1, "qtime": 38, "bar": 5, "isDrum": false}, {"time": 279, "velocity": 0, "pitch": 52, "instrument": 0, "track": 1, "qtime": 39, "bar": 5, "isDrum": false}, {"time": 279, "velocity": 0, "pitch": 60, "instrument": 0, "track": 1, "qtime": 39, "bar": 5, "isDrum": false}, {"time": 280, "velocity": 0, "pitch": 45, "instrument": 0, "track": 1, "qtime": 40, "bar": 5, "isDrum": false}, {"time": 280, "velocity": 0, "pitch": 67, "instrument": 0, "track": 1, "qtime": 40, "bar": 5, "isDrum": false}, {"time": 288, "velocity": 108, "pitch": 38, "instrument": 0, "track": 1, "qtime": 0, "bar": 6, "isDrum": false}, {"time": 288, "velocity": 108, "pitch": 50, "instrument": 0, "track": 1, "qtime": 0, "bar": 6, "isDrum": false}, {"time": 288, "velocity": 108, "pitch": 55, "instrument": 0, "track": 1, "qtime": 0, "bar": 6, "isDrum": false}, {"time": 288, "velocity": 108, "pitch": 60, "instrument": 0, "track": 1, "qtime": 0, "bar": 6, "isDrum": false}, {"time": 288, "velocity": 108, "pitch": 64, "instrument": 0, "track": 1, "qtime": 0, "bar": 6, "isDrum": false}, {"time": 297, "velocity": 0, "pitch": 55, "instrument": 0, "track": 1, "qtime": 9, "bar": 6, "isDrum": false}, {"time": 299, "velocity": 0, "pitch": 64, "instrument": 0, "track": 1, "qtime": 11, "bar": 6, "isDrum": false}, {"time": 300, "velocity": 0, "pitch": 60, "instrument": 0, "track": 1, "qtime": 12, "bar": 6, "isDrum": false}, {"time": 300, "velocity": 108, "pitch": 67, "instrument": 0, "track": 1, "qtime": 12, "bar": 6, "isDrum": false}, {"time": 301, "velocity": 0, "pitch": 38, "instrument": 0, "track": 1, "qtime": 13, "bar": 6, "isDrum": false}, {"time": 301, "velocity": 0, "pitch": 50, "instrument": 0, "track": 1, "qtime": 13, "bar": 6, "isDrum": false}, {"time": 303, "velocity": 0, "pitch": 67, "instrument": 0, "track": 1, "qtime": 15, "bar": 6, "isDrum": false}, {"time": 312, "velocity": 108, "pitch": 38, "instrument": 0, "track": 1, "qtime": 24, "bar": 6, "isDrum": false}, {"time": 312, "velocity": 108, "pitch": 63, "instrument": 0, "track": 1, "qtime": 24, "bar": 6, "isDrum": false}, {"time": 312, "velocity": 108, "pitch": 66, "instrument": 0, "track": 1, "qtime": 24, "bar": 6, "isDrum": false}, {"time": 313, "velocity": 108, "pitch": 50, "instrument": 0, "track": 1, "qtime": 25, "bar": 6, "isDrum": false}, {"time": 313, "velocity": 108, "pitch": 60, "instrument": 0, "track": 1, "qtime": 25, "bar": 6, "isDrum": false}, {"time": 324, "velocity": 108, "pitch": 71, "instrument": 0, "track": 1, "qtime": 36, "bar": 6, "isDrum": false}, {"time": 328, "velocity": 0, "pitch": 66, "instrument": 0, "track": 1, "qtime": 40, "bar": 6, "isDrum": false}, {"time": 329, "velocity": 0, "pitch": 50, "instrument": 0, "track": 1, "qtime": 41, "bar": 6, "isDrum": false}, {"time": 329, "velocity": 0, "pitch": 60, "instrument": 0, "track": 1, "qtime": 41, "bar": 6, "isDrum": false}, {"time": 329, "velocity": 0, "pitch": 63, "instrument": 0, "track": 1, "qtime": 41, "bar": 6, "isDrum": false}, {"time": 329, "velocity": 0, "pitch": 71, "instrument": 0, "track": 1, "qtime": 41, "bar": 6, "isDrum": false}, {"time": 330, "velocity": 0, "pitch": 38, "instrument": 0, "track": 1, "qtime": 42, "bar": 6, "isDrum": false}, {"time": 336, "velocity": 108, "pitch": 43, "instrument": 0, "track": 1, "qtime": 0, "bar": 7, "isDrum": false}, {"time": 336, "velocity": 108, "pitch": 54, "instrument": 0, "track": 1, "qtime": 0, "bar": 7, "isDrum": false}, {"time": 336, "velocity": 108, "pitch": 57, "instrument": 0, "track": 1, "qtime": 0, "bar": 7, "isDrum": false}, {"time": 336, "velocity": 108, "pitch": 59, "instrument": 0, "track": 1, "qtime": 0, "bar": 7, "isDrum": false}, {"time": 336, "velocity": 108, "pitch": 66, "instrument": 0, "track": 1, "qtime": 0, "bar": 7, "isDrum": false}, {"time": 336, "velocity": 108, "pitch": 69, "instrument": 0, "track": 1, "qtime": 0, "bar": 7, "isDrum": false}, {"time": 337, "velocity": 108, "pitch": 62, "instrument": 0, "track": 1, "qtime": 1, "bar": 7, "isDrum": false}, {"time": 345, "velocity": 0, "pitch": 43, "instrument": 0, "track": 1, "qtime": 9, "bar": 7, "isDrum": false}, {"time": 345, "velocity": 0, "pitch": 57, "instrument": 0, "track": 1, "qtime": 9, "bar": 7, "isDrum": false}, {"time": 345, "velocity": 0, "pitch": 59, "instrument": 0, "track": 1, "qtime": 9, "bar": 7, "isDrum": false}, {"time": 345, "velocity": 0, "pitch": 62, "instrument": 0, "track": 1, "qtime": 9, "bar": 7, "isDrum": false}, {"time": 346, "velocity": 0, "pitch": 54, "instrument": 0, "track": 1, "qtime": 10, "bar": 7, "isDrum": false}, {"time": 346, "velocity": 0, "pitch": 66, "instrument": 0, "track": 1, "qtime": 10, "bar": 7, "isDrum": false}, {"time": 346, "velocity": 0, "pitch": 69, "instrument": 0, "track": 1, "qtime": 10, "bar": 7, "isDrum": false}, {"time": 354, "velocity": 108, "pitch": 43, "instrument": 0, "track": 1, "qtime": 18, "bar": 7, "isDrum": false}, {"time": 354, "velocity": 108, "pitch": 54, "instrument": 0, "track": 1, "qtime": 18, "bar": 7, "isDrum": false}, {"time": 354, "velocity": 108, "pitch": 57, "instrument": 0, "track": 1, "qtime": 18, "bar": 7, "isDrum": false}, {"time": 354, "velocity": 108, "pitch": 59, "instrument": 0, "track": 1, "qtime": 18, "bar": 7, "isDrum": false}, {"time": 354, "velocity": 108, "pitch": 62, "instrument": 0, "track": 1, "qtime": 18, "bar": 7, "isDrum": false}, {"time": 354, "velocity": 108, "pitch": 66, "instrument": 0, "track": 1, "qtime": 18, "bar": 7, "isDrum": false}, {"time": 354, "velocity": 108, "pitch": 69, "instrument": 0, "track": 1, "qtime": 18, "bar": 7, "isDrum": false}, {"time": 364, "velocity": 0, "pitch": 43, "instrument": 0, "track": 1, "qtime": 28, "bar": 7, "isDrum": false}, {"time": 364, "velocity": 0, "pitch": 54, "instrument": 0, "track": 1, "qtime": 28, "bar": 7, "isDrum": false}, {"time": 364, "velocity": 0, "pitch": 57, "instrument": 0, "track": 1, "qtime": 28, "bar": 7, "isDrum": false}, {"time": 364, "velocity": 0, "pitch": 59, "instrument": 0, "track": 1, "qtime": 28, "bar": 7, "isDrum": false}, {"time": 364, "velocity": 0, "pitch": 62, "instrument": 0, "track": 1, "qtime": 28, "bar": 7, "isDrum": false}, {"time": 365, "velocity": 0, "pitch": 66, "instrument": 0, "track": 1, "qtime": 29, "bar": 7, "isDrum": false}, {"time": 365, "velocity": 0, "pitch": 69, "instrument": 0, "track": 1, "qtime": 29, "bar": 7, "isDrum": false}, {"time": 12, "velocity": 108, "pitch": 42, "instrument": 0, "track": 3, "qtime": 12, "bar": 0, "isDrum": true}, {"time": 13, "velocity": 0, "pitch": 42, "instrument": 0, "track": 3, "qtime": 13, "bar": 0, "isDrum": true}, {"time": 36, "velocity": 108, "pitch": 46, "instrument": 0, "track": 3, "qtime": 36, "bar": 0, "isDrum": true}, {"time": 37, "velocity": 0, "pitch": 46, "instrument": 0, "track": 3, "qtime": 37, "bar": 0, "isDrum": true}, {"time": 60, "velocity": 108, "pitch": 42, "instrument": 0, "track": 3, "qtime": 12, "bar": 1, "isDrum": true}, {"time": 61, "velocity": 0, "pitch": 42, "instrument": 0, "track": 3, "qtime": 13, "bar": 1, "isDrum": true}, {"time": 84, "velocity": 108, "pitch": 42, "instrument": 0, "track": 3, "qtime": 36, "bar": 1, "isDrum": true}, {"time": 85, "velocity": 0, "pitch": 42, "instrument": 0, "track": 3, "qtime": 37, "bar": 1, "isDrum": true}, {"time": 108, "velocity": 108, "pitch": 42, "instrument": 0, "track": 3, "qtime": 12, "bar": 2, "isDrum": true}, {"time": 109, "velocity": 0, "pitch": 42, "instrument": 0, "track": 3, "qtime": 13, "bar": 2, "isDrum": true}, {"time": 132, "velocity": 108, "pitch": 46, "instrument": 0, "track": 3, "qtime": 36, "bar": 2, "isDrum": true}, {"time": 133, "velocity": 0, "pitch": 46, "instrument": 0, "track": 3, "qtime": 37, "bar": 2, "isDrum": true}, {"time": 156, "velocity": 108, "pitch": 42, "instrument": 0, "track": 3, "qtime": 12, "bar": 3, "isDrum": true}, {"time": 157, "velocity": 0, "pitch": 42, "instrument": 0, "track": 3, "qtime": 13, "bar": 3, "isDrum": true}, {"time": 180, "velocity": 108, "pitch": 42, "instrument": 0, "track": 3, "qtime": 36, "bar": 3, "isDrum": true}, {"time": 181, "velocity": 0, "pitch": 42, "instrument": 0, "track": 3, "qtime": 37, "bar": 3, "isDrum": true}, {"time": 204, "velocity": 108, "pitch": 42, "instrument": 0, "track": 3, "qtime": 12, "bar": 4, "isDrum": true}, {"time": 205, "velocity": 0, "pitch": 42, "instrument": 0, "track": 3, "qtime": 13, "bar": 4, "isDrum": true}, {"time": 216, "velocity": 108, "pitch": 46, "instrument": 0, "track": 3, "qtime": 24, "bar": 4, "isDrum": true}, {"time": 217, "velocity": 0, "pitch": 46, "instrument": 0, "track": 3, "qtime": 25, "bar": 4, "isDrum": true}, {"time": 228, "velocity": 108, "pitch": 46, "instrument": 0, "track": 3, "qtime": 36, "bar": 4, "isDrum": true}, {"time": 230, "velocity": 0, "pitch": 46, "instrument": 0, "track": 3, "qtime": 38, "bar": 4, "isDrum": true}, {"time": 252, "velocity": 108, "pitch": 42, "instrument": 0, "track": 3, "qtime": 12, "bar": 5, "isDrum": true}, {"time": 253, "velocity": 0, "pitch": 42, "instrument": 0, "track": 3, "qtime": 13, "bar": 5, "isDrum": true}, {"time": 276, "velocity": 108, "pitch": 42, "instrument": 0, "track": 3, "qtime": 36, "bar": 5, "isDrum": true}, {"time": 277, "velocity": 0, "pitch": 42, "instrument": 0, "track": 3, "qtime": 37, "bar": 5, "isDrum": true}, {"time": 300, "velocity": 108, "pitch": 42, "instrument": 0, "track": 3, "qtime": 12, "bar": 6, "isDrum": true}, {"time": 301, "velocity": 0, "pitch": 42, "instrument": 0, "track": 3, "qtime": 13, "bar": 6, "isDrum": true}, {"time": 324, "velocity": 108, "pitch": 42, "instrument": 0, "track": 3, "qtime": 36, "bar": 6, "isDrum": true}, {"time": 325, "velocity": 0, "pitch": 42, "instrument": 0, "track": 3, "qtime": 37, "bar": 6, "isDrum": true}, {"time": 348, "velocity": 108, "pitch": 42, "instrument": 0, "track": 3, "qtime": 12, "bar": 7, "isDrum": true}, {"time": 349, "velocity": 0, "pitch": 42, "instrument": 0, "track": 3, "qtime": 13, "bar": 7, "isDrum": true}, {"time": 372, "velocity": 108, "pitch": 42, "instrument": 0, "track": 3, "qtime": 36, "bar": 7, "isDrum": true}, {"time": 373, "velocity": 0, "pitch": 42, "instrument": 0, "track": 3, "qtime": 37, "bar": 7, "isDrum": true}, {"time": 0, "velocity": 108, "pitch": 69, "instrument": 0, "track": 4, "qtime": 0, "bar": 0, "isDrum": true}, {"time": 1, "velocity": 0, "pitch": 69, "instrument": 0, "track": 4, "qtime": 1, "bar": 0, "isDrum": true}, {"time": 6, "velocity": 108, "pitch": 69, "instrument": 0, "track": 4, "qtime": 6, "bar": 0, "isDrum": true}, {"time": 7, "velocity": 0, "pitch": 69, "instrument": 0, "track": 4, "qtime": 7, "bar": 0, "isDrum": true}, {"time": 8, "velocity": 108, "pitch": 69, "instrument": 0, "track": 4, "qtime": 8, "bar": 0, "isDrum": true}, {"time": 9, "velocity": 0, "pitch": 69, "instrument": 0, "track": 4, "qtime": 9, "bar": 0, "isDrum": true}, {"time": 10, "velocity": 108, "pitch": 69, "instrument": 0, "track": 4, "qtime": 10, "bar": 0, "isDrum": true}, {"time": 11, "velocity": 0, "pitch": 69, "instrument": 0, "track": 4, "qtime": 11, "bar": 0, "isDrum": true}, {"time": 12, "velocity": 108, "pitch": 69, "instrument": 0, "track": 4, "qtime": 12, "bar": 0, "isDrum": true}, {"time": 13, "velocity": 0, "pitch": 69, "instrument": 0, "track": 4, "qtime": 13, "bar": 0, "isDrum": true}, {"time": 18, "velocity": 108, "pitch": 69, "instrument": 0, "track": 4, "qtime": 18, "bar": 0, "isDrum": true}, {"time": 19, "velocity": 0, "pitch": 69, "instrument": 0, "track": 4, "qtime": 19, "bar": 0, "isDrum": true}, {"time": 24, "velocity": 108, "pitch": 69, "instrument": 0, "track": 4, "qtime": 24, "bar": 0, "isDrum": true}, {"time": 25, "velocity": 0, "pitch": 69, "instrument": 0, "track": 4, "qtime": 25, "bar": 0, "isDrum": true}, {"time": 30, "velocity": 108, "pitch": 69, "instrument": 0, "track": 4, "qtime": 30, "bar": 0, "isDrum": true}, {"time": 31, "velocity": 0, "pitch": 69, "instrument": 0, "track": 4, "qtime": 31, "bar": 0, "isDrum": true}, {"time": 36, "velocity": 108, "pitch": 69, "instrument": 0, "track": 4, "qtime": 36, "bar": 0, "isDrum": true}, {"time": 37, "velocity": 0, "pitch": 69, "instrument": 0, "track": 4, "qtime": 37, "bar": 0, "isDrum": true}, {"time": 42, "velocity": 108, "pitch": 69, "instrument": 0, "track": 4, "qtime": 42, "bar": 0, "isDrum": true}, {"time": 43, "velocity": 0, "pitch": 69, "instrument": 0, "track": 4, "qtime": 43, "bar": 0, "isDrum": true}, {"time": 48, "velocity": 108, "pitch": 69, "instrument": 0, "track": 4, "qtime": 0, "bar": 1, "isDrum": true}, {"time": 49, "velocity": 0, "pitch": 69, "instrument": 0, "track": 4, "qtime": 1, "bar": 1, "isDrum": true}, {"time": 54, "velocity": 108, "pitch": 69, "instrument": 0, "track": 4, "qtime": 6, "bar": 1, "isDrum": true}, {"time": 55, "velocity": 0, "pitch": 69, "instrument": 0, "track": 4, "qtime": 7, "bar": 1, "isDrum": true}, {"time": 56, "velocity": 108, "pitch": 69, "instrument": 0, "track": 4, "qtime": 8, "bar": 1, "isDrum": true}, {"time": 57, "velocity": 0, "pitch": 69, "instrument": 0, "track": 4, "qtime": 9, "bar": 1, "isDrum": true}, {"time": 58, "velocity": 108, "pitch": 69, "instrument": 0, "track": 4, "qtime": 10, "bar": 1, "isDrum": true}, {"time": 59, "velocity": 0, "pitch": 69, "instrument": 0, "track": 4, "qtime": 11, "bar": 1, "isDrum": true}, {"time": 60, "velocity": 108, "pitch": 69, "instrument": 0, "track": 4, "qtime": 12, "bar": 1, "isDrum": true}, {"time": 61, "velocity": 0, "pitch": 69, "instrument": 0, "track": 4, "qtime": 13, "bar": 1, "isDrum": true}, {"time": 66, "velocity": 108, "pitch": 69, "instrument": 0, "track": 4, "qtime": 18, "bar": 1, "isDrum": true}, {"time": 67, "velocity": 0, "pitch": 69, "instrument": 0, "track": 4, "qtime": 19, "bar": 1, "isDrum": true}, {"time": 72, "velocity": 108, "pitch": 69, "instrument": 0, "track": 4, "qtime": 24, "bar": 1, "isDrum": true}, {"time": 73, "velocity": 0, "pitch": 69, "instrument": 0, "track": 4, "qtime": 25, "bar": 1, "isDrum": true}, {"time": 78, "velocity": 108, "pitch": 69, "instrument": 0, "track": 4, "qtime": 30, "bar": 1, "isDrum": true}, {"time": 79, "velocity": 0, "pitch": 69, "instrument": 0, "track": 4, "qtime": 31, "bar": 1, "isDrum": true}, {"time": 84, "velocity": 108, "pitch": 69, "instrument": 0, "track": 4, "qtime": 36, "bar": 1, "isDrum": true}, {"time": 85, "velocity": 0, "pitch": 69, "instrument": 0, "track": 4, "qtime": 37, "bar": 1, "isDrum": true}, {"time": 90, "velocity": 108, "pitch": 69, "instrument": 0, "track": 4, "qtime": 42, "bar": 1, "isDrum": true}, {"time": 91, "velocity": 0, "pitch": 69, "instrument": 0, "track": 4, "qtime": 43, "bar": 1, "isDrum": true}, {"time": 96, "velocity": 108, "pitch": 69, "instrument": 0, "track": 4, "qtime": 0, "bar": 2, "isDrum": true}, {"time": 97, "velocity": 0, "pitch": 69, "instrument": 0, "track": 4, "qtime": 1, "bar": 2, "isDrum": true}, {"time": 102, "velocity": 108, "pitch": 69, "instrument": 0, "track": 4, "qtime": 6, "bar": 2, "isDrum": true}, {"time": 103, "velocity": 0, "pitch": 69, "instrument": 0, "track": 4, "qtime": 7, "bar": 2, "isDrum": true}, {"time": 104, "velocity": 108, "pitch": 69, "instrument": 0, "track": 4, "qtime": 8, "bar": 2, "isDrum": true}, {"time": 105, "velocity": 0, "pitch": 69, "instrument": 0, "track": 4, "qtime": 9, "bar": 2, "isDrum": true}, {"time": 106, "velocity": 108, "pitch": 69, "instrument": 0, "track": 4, "qtime": 10, "bar": 2, "isDrum": true}, {"time": 107, "velocity": 0, "pitch": 69, "instrument": 0, "track": 4, "qtime": 11, "bar": 2, "isDrum": true}, {"time": 108, "velocity": 108, "pitch": 69, "instrument": 0, "track": 4, "qtime": 12, "bar": 2, "isDrum": true}, {"time": 109, "velocity": 0, "pitch": 69, "instrument": 0, "track": 4, "qtime": 13, "bar": 2, "isDrum": true}, {"time": 114, "velocity": 108, "pitch": 69, "instrument": 0, "track": 4, "qtime": 18, "bar": 2, "isDrum": true}, {"time": 115, "velocity": 0, "pitch": 69, "instrument": 0, "track": 4, "qtime": 19, "bar": 2, "isDrum": true}, {"time": 120, "velocity": 108, "pitch": 69, "instrument": 0, "track": 4, "qtime": 24, "bar": 2, "isDrum": true}, {"time": 121, "velocity": 0, "pitch": 69, "instrument": 0, "track": 4, "qtime": 25, "bar": 2, "isDrum": true}, {"time": 126, "velocity": 108, "pitch": 69, "instrument": 0, "track": 4, "qtime": 30, "bar": 2, "isDrum": true}, {"time": 127, "velocity": 0, "pitch": 69, "instrument": 0, "track": 4, "qtime": 31, "bar": 2, "isDrum": true}, {"time": 132, "velocity": 108, "pitch": 69, "instrument": 0, "track": 4, "qtime": 36, "bar": 2, "isDrum": true}, {"time": 133, "velocity": 0, "pitch": 69, "instrument": 0, "track": 4, "qtime": 37, "bar": 2, "isDrum": true}, {"time": 138, "velocity": 108, "pitch": 69, "instrument": 0, "track": 4, "qtime": 42, "bar": 2, "isDrum": true}, {"time": 139, "velocity": 0, "pitch": 69, "instrument": 0, "track": 4, "qtime": 43, "bar": 2, "isDrum": true}, {"time": 144, "velocity": 108, "pitch": 69, "instrument": 0, "track": 4, "qtime": 0, "bar": 3, "isDrum": true}, {"time": 145, "velocity": 0, "pitch": 69, "instrument": 0, "track": 4, "qtime": 1, "bar": 3, "isDrum": true}, {"time": 150, "velocity": 108, "pitch": 69, "instrument": 0, "track": 4, "qtime": 6, "bar": 3, "isDrum": true}, {"time": 151, "velocity": 0, "pitch": 69, "instrument": 0, "track": 4, "qtime": 7, "bar": 3, "isDrum": true}, {"time": 152, "velocity": 108, "pitch": 69, "instrument": 0, "track": 4, "qtime": 8, "bar": 3, "isDrum": true}, {"time": 153, "velocity": 0, "pitch": 69, "instrument": 0, "track": 4, "qtime": 9, "bar": 3, "isDrum": true}, {"time": 154, "velocity": 108, "pitch": 69, "instrument": 0, "track": 4, "qtime": 10, "bar": 3, "isDrum": true}, {"time": 155, "velocity": 0, "pitch": 69, "instrument": 0, "track": 4, "qtime": 11, "bar": 3, "isDrum": true}, {"time": 156, "velocity": 108, "pitch": 69, "instrument": 0, "track": 4, "qtime": 12, "bar": 3, "isDrum": true}, {"time": 157, "velocity": 0, "pitch": 69, "instrument": 0, "track": 4, "qtime": 13, "bar": 3, "isDrum": true}, {"time": 162, "velocity": 108, "pitch": 69, "instrument": 0, "track": 4, "qtime": 18, "bar": 3, "isDrum": true}, {"time": 163, "velocity": 0, "pitch": 69, "instrument": 0, "track": 4, "qtime": 19, "bar": 3, "isDrum": true}, {"time": 168, "velocity": 108, "pitch": 69, "instrument": 0, "track": 4, "qtime": 24, "bar": 3, "isDrum": true}, {"time": 169, "velocity": 0, "pitch": 69, "instrument": 0, "track": 4, "qtime": 25, "bar": 3, "isDrum": true}, {"time": 174, "velocity": 108, "pitch": 69, "instrument": 0, "track": 4, "qtime": 30, "bar": 3, "isDrum": true}, {"time": 175, "velocity": 0, "pitch": 69, "instrument": 0, "track": 4, "qtime": 31, "bar": 3, "isDrum": true}, {"time": 180, "velocity": 108, "pitch": 69, "instrument": 0, "track": 4, "qtime": 36, "bar": 3, "isDrum": true}, {"time": 181, "velocity": 0, "pitch": 69, "instrument": 0, "track": 4, "qtime": 37, "bar": 3, "isDrum": true}, {"time": 186, "velocity": 108, "pitch": 69, "instrument": 0, "track": 4, "qtime": 42, "bar": 3, "isDrum": true}, {"time": 187, "velocity": 0, "pitch": 69, "instrument": 0, "track": 4, "qtime": 43, "bar": 3, "isDrum": true}, {"time": 192, "velocity": 108, "pitch": 69, "instrument": 0, "track": 4, "qtime": 0, "bar": 4, "isDrum": true}, {"time": 193, "velocity": 0, "pitch": 69, "instrument": 0, "track": 4, "qtime": 1, "bar": 4, "isDrum": true}, {"time": 198, "velocity": 108, "pitch": 69, "instrument": 0, "track": 4, "qtime": 6, "bar": 4, "isDrum": true}, {"time": 199, "velocity": 0, "pitch": 69, "instrument": 0, "track": 4, "qtime": 7, "bar": 4, "isDrum": true}, {"time": 200, "velocity": 108, "pitch": 69, "instrument": 0, "track": 4, "qtime": 8, "bar": 4, "isDrum": true}, {"time": 201, "velocity": 0, "pitch": 69, "instrument": 0, "track": 4, "qtime": 9, "bar": 4, "isDrum": true}, {"time": 202, "velocity": 108, "pitch": 69, "instrument": 0, "track": 4, "qtime": 10, "bar": 4, "isDrum": true}, {"time": 203, "velocity": 0, "pitch": 69, "instrument": 0, "track": 4, "qtime": 11, "bar": 4, "isDrum": true}, {"time": 204, "velocity": 108, "pitch": 69, "instrument": 0, "track": 4, "qtime": 12, "bar": 4, "isDrum": true}, {"time": 205, "velocity": 0, "pitch": 69, "instrument": 0, "track": 4, "qtime": 13, "bar": 4, "isDrum": true}, {"time": 210, "velocity": 108, "pitch": 69, "instrument": 0, "track": 4, "qtime": 18, "bar": 4, "isDrum": true}, {"time": 211, "velocity": 0, "pitch": 69, "instrument": 0, "track": 4, "qtime": 19, "bar": 4, "isDrum": true}, {"time": 216, "velocity": 108, "pitch": 69, "instrument": 0, "track": 4, "qtime": 24, "bar": 4, "isDrum": true}, {"time": 217, "velocity": 0, "pitch": 69, "instrument": 0, "track": 4, "qtime": 25, "bar": 4, "isDrum": true}, {"time": 222, "velocity": 108, "pitch": 69, "instrument": 0, "track": 4, "qtime": 30, "bar": 4, "isDrum": true}, {"time": 223, "velocity": 0, "pitch": 69, "instrument": 0, "track": 4, "qtime": 31, "bar": 4, "isDrum": true}, {"time": 228, "velocity": 108, "pitch": 69, "instrument": 0, "track": 4, "qtime": 36, "bar": 4, "isDrum": true}, {"time": 229, "velocity": 0, "pitch": 69, "instrument": 0, "track": 4, "qtime": 37, "bar": 4, "isDrum": true}, {"time": 234, "velocity": 108, "pitch": 69, "instrument": 0, "track": 4, "qtime": 42, "bar": 4, "isDrum": true}, {"time": 235, "velocity": 0, "pitch": 69, "instrument": 0, "track": 4, "qtime": 43, "bar": 4, "isDrum": true}, {"time": 240, "velocity": 108, "pitch": 69, "instrument": 0, "track": 4, "qtime": 0, "bar": 5, "isDrum": true}, {"time": 241, "velocity": 0, "pitch": 69, "instrument": 0, "track": 4, "qtime": 1, "bar": 5, "isDrum": true}, {"time": 246, "velocity": 108, "pitch": 69, "instrument": 0, "track": 4, "qtime": 6, "bar": 5, "isDrum": true}, {"time": 247, "velocity": 0, "pitch": 69, "instrument": 0, "track": 4, "qtime": 7, "bar": 5, "isDrum": true}, {"time": 248, "velocity": 108, "pitch": 69, "instrument": 0, "track": 4, "qtime": 8, "bar": 5, "isDrum": true}, {"time": 249, "velocity": 0, "pitch": 69, "instrument": 0, "track": 4, "qtime": 9, "bar": 5, "isDrum": true}, {"time": 250, "velocity": 108, "pitch": 69, "instrument": 0, "track": 4, "qtime": 10, "bar": 5, "isDrum": true}, {"time": 251, "velocity": 0, "pitch": 69, "instrument": 0, "track": 4, "qtime": 11, "bar": 5, "isDrum": true}, {"time": 252, "velocity": 108, "pitch": 69, "instrument": 0, "track": 4, "qtime": 12, "bar": 5, "isDrum": true}, {"time": 253, "velocity": 0, "pitch": 69, "instrument": 0, "track": 4, "qtime": 13, "bar": 5, "isDrum": true}, {"time": 258, "velocity": 108, "pitch": 69, "instrument": 0, "track": 4, "qtime": 18, "bar": 5, "isDrum": true}, {"time": 259, "velocity": 0, "pitch": 69, "instrument": 0, "track": 4, "qtime": 19, "bar": 5, "isDrum": true}, {"time": 264, "velocity": 108, "pitch": 69, "instrument": 0, "track": 4, "qtime": 24, "bar": 5, "isDrum": true}, {"time": 265, "velocity": 0, "pitch": 69, "instrument": 0, "track": 4, "qtime": 25, "bar": 5, "isDrum": true}, {"time": 270, "velocity": 108, "pitch": 69, "instrument": 0, "track": 4, "qtime": 30, "bar": 5, "isDrum": true}, {"time": 271, "velocity": 0, "pitch": 69, "instrument": 0, "track": 4, "qtime": 31, "bar": 5, "isDrum": true}, {"time": 276, "velocity": 108, "pitch": 69, "instrument": 0, "track": 4, "qtime": 36, "bar": 5, "isDrum": true}, {"time": 277, "velocity": 0, "pitch": 69, "instrument": 0, "track": 4, "qtime": 37, "bar": 5, "isDrum": true}, {"time": 282, "velocity": 108, "pitch": 69, "instrument": 0, "track": 4, "qtime": 42, "bar": 5, "isDrum": true}, {"time": 283, "velocity": 0, "pitch": 69, "instrument": 0, "track": 4, "qtime": 43, "bar": 5, "isDrum": true}, {"time": 288, "velocity": 108, "pitch": 69, "instrument": 0, "track": 4, "qtime": 0, "bar": 6, "isDrum": true}, {"time": 289, "velocity": 0, "pitch": 69, "instrument": 0, "track": 4, "qtime": 1, "bar": 6, "isDrum": true}, {"time": 294, "velocity": 108, "pitch": 69, "instrument": 0, "track": 4, "qtime": 6, "bar": 6, "isDrum": true}, {"time": 295, "velocity": 0, "pitch": 69, "instrument": 0, "track": 4, "qtime": 7, "bar": 6, "isDrum": true}, {"time": 296, "velocity": 108, "pitch": 69, "instrument": 0, "track": 4, "qtime": 8, "bar": 6, "isDrum": true}, {"time": 297, "velocity": 0, "pitch": 69, "instrument": 0, "track": 4, "qtime": 9, "bar": 6, "isDrum": true}, {"time": 298, "velocity": 108, "pitch": 69, "instrument": 0, "track": 4, "qtime": 10, "bar": 6, "isDrum": true}, {"time": 299, "velocity": 0, "pitch": 69, "instrument": 0, "track": 4, "qtime": 11, "bar": 6, "isDrum": true}, {"time": 300, "velocity": 108, "pitch": 69, "instrument": 0, "track": 4, "qtime": 12, "bar": 6, "isDrum": true}, {"time": 301, "velocity": 0, "pitch": 69, "instrument": 0, "track": 4, "qtime": 13, "bar": 6, "isDrum": true}, {"time": 306, "velocity": 108, "pitch": 69, "instrument": 0, "track": 4, "qtime": 18, "bar": 6, "isDrum": true}, {"time": 307, "velocity": 0, "pitch": 69, "instrument": 0, "track": 4, "qtime": 19, "bar": 6, "isDrum": true}, {"time": 312, "velocity": 108, "pitch": 69, "instrument": 0, "track": 4, "qtime": 24, "bar": 6, "isDrum": true}, {"time": 313, "velocity": 0, "pitch": 69, "instrument": 0, "track": 4, "qtime": 25, "bar": 6, "isDrum": true}, {"time": 318, "velocity": 108, "pitch": 69, "instrument": 0, "track": 4, "qtime": 30, "bar": 6, "isDrum": true}, {"time": 319, "velocity": 0, "pitch": 69, "instrument": 0, "track": 4, "qtime": 31, "bar": 6, "isDrum": true}, {"time": 324, "velocity": 108, "pitch": 69, "instrument": 0, "track": 4, "qtime": 36, "bar": 6, "isDrum": true}, {"time": 325, "velocity": 0, "pitch": 69, "instrument": 0, "track": 4, "qtime": 37, "bar": 6, "isDrum": true}, {"time": 330, "velocity": 108, "pitch": 69, "instrument": 0, "track": 4, "qtime": 42, "bar": 6, "isDrum": true}, {"time": 331, "velocity": 0, "pitch": 69, "instrument": 0, "track": 4, "qtime": 43, "bar": 6, "isDrum": true}, {"time": 336, "velocity": 108, "pitch": 69, "instrument": 0, "track": 4, "qtime": 0, "bar": 7, "isDrum": true}, {"time": 337, "velocity": 0, "pitch": 69, "instrument": 0, "track": 4, "qtime": 1, "bar": 7, "isDrum": true}, {"time": 342, "velocity": 108, "pitch": 69, "instrument": 0, "track": 4, "qtime": 6, "bar": 7, "isDrum": true}, {"time": 343, "velocity": 0, "pitch": 69, "instrument": 0, "track": 4, "qtime": 7, "bar": 7, "isDrum": true}, {"time": 344, "velocity": 108, "pitch": 69, "instrument": 0, "track": 4, "qtime": 8, "bar": 7, "isDrum": true}, {"time": 345, "velocity": 0, "pitch": 69, "instrument": 0, "track": 4, "qtime": 9, "bar": 7, "isDrum": true}, {"time": 346, "velocity": 108, "pitch": 69, "instrument": 0, "track": 4, "qtime": 10, "bar": 7, "isDrum": true}, {"time": 347, "velocity": 0, "pitch": 69, "instrument": 0, "track": 4, "qtime": 11, "bar": 7, "isDrum": true}, {"time": 348, "velocity": 108, "pitch": 69, "instrument": 0, "track": 4, "qtime": 12, "bar": 7, "isDrum": true}, {"time": 349, "velocity": 0, "pitch": 69, "instrument": 0, "track": 4, "qtime": 13, "bar": 7, "isDrum": true}, {"time": 354, "velocity": 108, "pitch": 69, "instrument": 0, "track": 4, "qtime": 18, "bar": 7, "isDrum": true}, {"time": 355, "velocity": 0, "pitch": 69, "instrument": 0, "track": 4, "qtime": 19, "bar": 7, "isDrum": true}, {"time": 360, "velocity": 108, "pitch": 69, "instrument": 0, "track": 4, "qtime": 24, "bar": 7, "isDrum": true}, {"time": 361, "velocity": 0, "pitch": 69, "instrument": 0, "track": 4, "qtime": 25, "bar": 7, "isDrum": true}, {"time": 366, "velocity": 108, "pitch": 69, "instrument": 0, "track": 4, "qtime": 30, "bar": 7, "isDrum": true}, {"time": 367, "velocity": 0, "pitch": 69, "instrument": 0, "track": 4, "qtime": 31, "bar": 7, "isDrum": true}, {"time": 372, "velocity": 108, "pitch": 69, "instrument": 0, "track": 4, "qtime": 36, "bar": 7, "isDrum": true}, {"time": 373, "velocity": 0, "pitch": 69, "instrument": 0, "track": 4, "qtime": 37, "bar": 7, "isDrum": true}, {"time": 378, "velocity": 108, "pitch": 69, "instrument": 0, "track": 4, "qtime": 42, "bar": 7, "isDrum": true}, {"time": 379, "velocity": 0, "pitch": 69, "instrument": 0, "track": 4, "qtime": 43, "bar": 7, "isDrum": true}, {"time": 0, "velocity": 108, "pitch": 64, "instrument": 0, "track": 5, "qtime": 0, "bar": 0, "isDrum": true}, {"time": 2, "velocity": 0, "pitch": 64, "instrument": 0, "track": 5, "qtime": 2, "bar": 0, "isDrum": true}, {"time": 6, "velocity": 108, "pitch": 63, "instrument": 0, "track": 5, "qtime": 6, "bar": 0, "isDrum": true}, {"time": 7, "velocity": 0, "pitch": 63, "instrument": 0, "track": 5, "qtime": 7, "bar": 0, "isDrum": true}, {"time": 12, "velocity": 108, "pitch": 62, "instrument": 0, "track": 5, "qtime": 12, "bar": 0, "isDrum": true}, {"time": 14, "velocity": 0, "pitch": 62, "instrument": 0, "track": 5, "qtime": 14, "bar": 0, "isDrum": true}, {"time": 18, "velocity": 108, "pitch": 64, "instrument": 0, "track": 5, "qtime": 18, "bar": 0, "isDrum": true}, {"time": 19, "velocity": 0, "pitch": 64, "instrument": 0, "track": 5, "qtime": 19, "bar": 0, "isDrum": true}, {"time": 24, "velocity": 108, "pitch": 64, "instrument": 0, "track": 5, "qtime": 24, "bar": 0, "isDrum": true}, {"time": 25, "velocity": 0, "pitch": 64, "instrument": 0, "track": 5, "qtime": 25, "bar": 0, "isDrum": true}, {"time": 30, "velocity": 108, "pitch": 62, "instrument": 0, "track": 5, "qtime": 30, "bar": 0, "isDrum": true}, {"time": 32, "velocity": 0, "pitch": 62, "instrument": 0, "track": 5, "qtime": 32, "bar": 0, "isDrum": true}, {"time": 36, "velocity": 108, "pitch": 63, "instrument": 0, "track": 5, "qtime": 36, "bar": 0, "isDrum": true}, {"time": 37, "velocity": 0, "pitch": 63, "instrument": 0, "track": 5, "qtime": 37, "bar": 0, "isDrum": true}, {"time": 42, "velocity": 108, "pitch": 64, "instrument": 0, "track": 5, "qtime": 42, "bar": 0, "isDrum": true}, {"time": 43, "velocity": 0, "pitch": 64, "instrument": 0, "track": 5, "qtime": 43, "bar": 0, "isDrum": true}, {"time": 48, "velocity": 108, "pitch": 64, "instrument": 0, "track": 5, "qtime": 0, "bar": 1, "isDrum": true}, {"time": 50, "velocity": 0, "pitch": 64, "instrument": 0, "track": 5, "qtime": 2, "bar": 1, "isDrum": true}, {"time": 54, "velocity": 108, "pitch": 63, "instrument": 0, "track": 5, "qtime": 6, "bar": 1, "isDrum": true}, {"time": 55, "velocity": 0, "pitch": 63, "instrument": 0, "track": 5, "qtime": 7, "bar": 1, "isDrum": true}, {"time": 60, "velocity": 108, "pitch": 62, "instrument": 0, "track": 5, "qtime": 12, "bar": 1, "isDrum": true}, {"time": 62, "velocity": 0, "pitch": 62, "instrument": 0, "track": 5, "qtime": 14, "bar": 1, "isDrum": true}, {"time": 66, "velocity": 108, "pitch": 64, "instrument": 0, "track": 5, "qtime": 18, "bar": 1, "isDrum": true}, {"time": 67, "velocity": 0, "pitch": 64, "instrument": 0, "track": 5, "qtime": 19, "bar": 1, "isDrum": true}, {"time": 72, "velocity": 108, "pitch": 64, "instrument": 0, "track": 5, "qtime": 24, "bar": 1, "isDrum": true}, {"time": 73, "velocity": 0, "pitch": 64, "instrument": 0, "track": 5, "qtime": 25, "bar": 1, "isDrum": true}, {"time": 78, "velocity": 108, "pitch": 62, "instrument": 0, "track": 5, "qtime": 30, "bar": 1, "isDrum": true}, {"time": 80, "velocity": 0, "pitch": 62, "instrument": 0, "track": 5, "qtime": 32, "bar": 1, "isDrum": true}, {"time": 84, "velocity": 108, "pitch": 63, "instrument": 0, "track": 5, "qtime": 36, "bar": 1, "isDrum": true}, {"time": 85, "velocity": 0, "pitch": 63, "instrument": 0, "track": 5, "qtime": 37, "bar": 1, "isDrum": true}, {"time": 90, "velocity": 108, "pitch": 64, "instrument": 0, "track": 5, "qtime": 42, "bar": 1, "isDrum": true}, {"time": 91, "velocity": 0, "pitch": 64, "instrument": 0, "track": 5, "qtime": 43, "bar": 1, "isDrum": true}, {"time": 96, "velocity": 108, "pitch": 64, "instrument": 0, "track": 5, "qtime": 0, "bar": 2, "isDrum": true}, {"time": 98, "velocity": 0, "pitch": 64, "instrument": 0, "track": 5, "qtime": 2, "bar": 2, "isDrum": true}, {"time": 102, "velocity": 108, "pitch": 63, "instrument": 0, "track": 5, "qtime": 6, "bar": 2, "isDrum": true}, {"time": 103, "velocity": 0, "pitch": 63, "instrument": 0, "track": 5, "qtime": 7, "bar": 2, "isDrum": true}, {"time": 108, "velocity": 108, "pitch": 62, "instrument": 0, "track": 5, "qtime": 12, "bar": 2, "isDrum": true}, {"time": 110, "velocity": 0, "pitch": 62, "instrument": 0, "track": 5, "qtime": 14, "bar": 2, "isDrum": true}, {"time": 114, "velocity": 108, "pitch": 64, "instrument": 0, "track": 5, "qtime": 18, "bar": 2, "isDrum": true}, {"time": 115, "velocity": 0, "pitch": 64, "instrument": 0, "track": 5, "qtime": 19, "bar": 2, "isDrum": true}, {"time": 120, "velocity": 108, "pitch": 64, "instrument": 0, "track": 5, "qtime": 24, "bar": 2, "isDrum": true}, {"time": 121, "velocity": 0, "pitch": 64, "instrument": 0, "track": 5, "qtime": 25, "bar": 2, "isDrum": true}, {"time": 126, "velocity": 108, "pitch": 62, "instrument": 0, "track": 5, "qtime": 30, "bar": 2, "isDrum": true}, {"time": 128, "velocity": 0, "pitch": 62, "instrument": 0, "track": 5, "qtime": 32, "bar": 2, "isDrum": true}, {"time": 132, "velocity": 108, "pitch": 63, "instrument": 0, "track": 5, "qtime": 36, "bar": 2, "isDrum": true}, {"time": 133, "velocity": 0, "pitch": 63, "instrument": 0, "track": 5, "qtime": 37, "bar": 2, "isDrum": true}, {"time": 138, "velocity": 108, "pitch": 64, "instrument": 0, "track": 5, "qtime": 42, "bar": 2, "isDrum": true}, {"time": 139, "velocity": 0, "pitch": 64, "instrument": 0, "track": 5, "qtime": 43, "bar": 2, "isDrum": true}, {"time": 144, "velocity": 108, "pitch": 64, "instrument": 0, "track": 5, "qtime": 0, "bar": 3, "isDrum": true}, {"time": 146, "velocity": 0, "pitch": 64, "instrument": 0, "track": 5, "qtime": 2, "bar": 3, "isDrum": true}, {"time": 150, "velocity": 108, "pitch": 63, "instrument": 0, "track": 5, "qtime": 6, "bar": 3, "isDrum": true}, {"time": 151, "velocity": 0, "pitch": 63, "instrument": 0, "track": 5, "qtime": 7, "bar": 3, "isDrum": true}, {"time": 156, "velocity": 108, "pitch": 62, "instrument": 0, "track": 5, "qtime": 12, "bar": 3, "isDrum": true}, {"time": 158, "velocity": 0, "pitch": 62, "instrument": 0, "track": 5, "qtime": 14, "bar": 3, "isDrum": true}, {"time": 162, "velocity": 108, "pitch": 64, "instrument": 0, "track": 5, "qtime": 18, "bar": 3, "isDrum": true}, {"time": 163, "velocity": 0, "pitch": 64, "instrument": 0, "track": 5, "qtime": 19, "bar": 3, "isDrum": true}, {"time": 168, "velocity": 108, "pitch": 64, "instrument": 0, "track": 5, "qtime": 24, "bar": 3, "isDrum": true}, {"time": 169, "velocity": 0, "pitch": 64, "instrument": 0, "track": 5, "qtime": 25, "bar": 3, "isDrum": true}, {"time": 174, "velocity": 108, "pitch": 62, "instrument": 0, "track": 5, "qtime": 30, "bar": 3, "isDrum": true}, {"time": 176, "velocity": 0, "pitch": 62, "instrument": 0, "track": 5, "qtime": 32, "bar": 3, "isDrum": true}, {"time": 180, "velocity": 108, "pitch": 63, "instrument": 0, "track": 5, "qtime": 36, "bar": 3, "isDrum": true}, {"time": 181, "velocity": 0, "pitch": 63, "instrument": 0, "track": 5, "qtime": 37, "bar": 3, "isDrum": true}, {"time": 186, "velocity": 108, "pitch": 64, "instrument": 0, "track": 5, "qtime": 42, "bar": 3, "isDrum": true}, {"time": 187, "velocity": 0, "pitch": 64, "instrument": 0, "track": 5, "qtime": 43, "bar": 3, "isDrum": true}, {"time": 192, "velocity": 108, "pitch": 64, "instrument": 0, "track": 5, "qtime": 0, "bar": 4, "isDrum": true}, {"time": 194, "velocity": 0, "pitch": 64, "instrument": 0, "track": 5, "qtime": 2, "bar": 4, "isDrum": true}, {"time": 198, "velocity": 108, "pitch": 63, "instrument": 0, "track": 5, "qtime": 6, "bar": 4, "isDrum": true}, {"time": 199, "velocity": 0, "pitch": 63, "instrument": 0, "track": 5, "qtime": 7, "bar": 4, "isDrum": true}, {"time": 204, "velocity": 108, "pitch": 62, "instrument": 0, "track": 5, "qtime": 12, "bar": 4, "isDrum": true}, {"time": 206, "velocity": 0, "pitch": 62, "instrument": 0, "track": 5, "qtime": 14, "bar": 4, "isDrum": true}, {"time": 210, "velocity": 108, "pitch": 63, "instrument": 0, "track": 5, "qtime": 18, "bar": 4, "isDrum": true}, {"time": 211, "velocity": 0, "pitch": 63, "instrument": 0, "track": 5, "qtime": 19, "bar": 4, "isDrum": true}, {"time": 216, "velocity": 108, "pitch": 62, "instrument": 0, "track": 5, "qtime": 24, "bar": 4, "isDrum": true}, {"time": 218, "velocity": 0, "pitch": 62, "instrument": 0, "track": 5, "qtime": 26, "bar": 4, "isDrum": true}, {"time": 228, "velocity": 108, "pitch": 62, "instrument": 0, "track": 5, "qtime": 36, "bar": 4, "isDrum": true}, {"time": 230, "velocity": 0, "pitch": 62, "instrument": 0, "track": 5, "qtime": 38, "bar": 4, "isDrum": true}, {"time": 240, "velocity": 108, "pitch": 64, "instrument": 0, "track": 5, "qtime": 0, "bar": 5, "isDrum": true}, {"time": 242, "velocity": 0, "pitch": 64, "instrument": 0, "track": 5, "qtime": 2, "bar": 5, "isDrum": true}, {"time": 246, "velocity": 108, "pitch": 63, "instrument": 0, "track": 5, "qtime": 6, "bar": 5, "isDrum": true}, {"time": 247, "velocity": 0, "pitch": 63, "instrument": 0, "track": 5, "qtime": 7, "bar": 5, "isDrum": true}, {"time": 252, "velocity": 108, "pitch": 62, "instrument": 0, "track": 5, "qtime": 12, "bar": 5, "isDrum": true}, {"time": 254, "velocity": 0, "pitch": 62, "instrument": 0, "track": 5, "qtime": 14, "bar": 5, "isDrum": true}, {"time": 258, "velocity": 108, "pitch": 64, "instrument": 0, "track": 5, "qtime": 18, "bar": 5, "isDrum": true}, {"time": 259, "velocity": 0, "pitch": 64, "instrument": 0, "track": 5, "qtime": 19, "bar": 5, "isDrum": true}, {"time": 264, "velocity": 108, "pitch": 64, "instrument": 0, "track": 5, "qtime": 24, "bar": 5, "isDrum": true}, {"time": 265, "velocity": 0, "pitch": 64, "instrument": 0, "track": 5, "qtime": 25, "bar": 5, "isDrum": true}, {"time": 270, "velocity": 108, "pitch": 62, "instrument": 0, "track": 5, "qtime": 30, "bar": 5, "isDrum": true}, {"time": 272, "velocity": 0, "pitch": 62, "instrument": 0, "track": 5, "qtime": 32, "bar": 5, "isDrum": true}, {"time": 276, "velocity": 108, "pitch": 63, "instrument": 0, "track": 5, "qtime": 36, "bar": 5, "isDrum": true}, {"time": 277, "velocity": 0, "pitch": 63, "instrument": 0, "track": 5, "qtime": 37, "bar": 5, "isDrum": true}, {"time": 282, "velocity": 108, "pitch": 64, "instrument": 0, "track": 5, "qtime": 42, "bar": 5, "isDrum": true}, {"time": 283, "velocity": 0, "pitch": 64, "instrument": 0, "track": 5, "qtime": 43, "bar": 5, "isDrum": true}, {"time": 288, "velocity": 108, "pitch": 64, "instrument": 0, "track": 5, "qtime": 0, "bar": 6, "isDrum": true}, {"time": 290, "velocity": 0, "pitch": 64, "instrument": 0, "track": 5, "qtime": 2, "bar": 6, "isDrum": true}, {"time": 294, "velocity": 108, "pitch": 63, "instrument": 0, "track": 5, "qtime": 6, "bar": 6, "isDrum": true}, {"time": 295, "velocity": 0, "pitch": 63, "instrument": 0, "track": 5, "qtime": 7, "bar": 6, "isDrum": true}, {"time": 300, "velocity": 108, "pitch": 62, "instrument": 0, "track": 5, "qtime": 12, "bar": 6, "isDrum": true}, {"time": 302, "velocity": 0, "pitch": 62, "instrument": 0, "track": 5, "qtime": 14, "bar": 6, "isDrum": true}, {"time": 306, "velocity": 108, "pitch": 64, "instrument": 0, "track": 5, "qtime": 18, "bar": 6, "isDrum": true}, {"time": 307, "velocity": 0, "pitch": 64, "instrument": 0, "track": 5, "qtime": 19, "bar": 6, "isDrum": true}, {"time": 312, "velocity": 108, "pitch": 64, "instrument": 0, "track": 5, "qtime": 24, "bar": 6, "isDrum": true}, {"time": 313, "velocity": 0, "pitch": 64, "instrument": 0, "track": 5, "qtime": 25, "bar": 6, "isDrum": true}, {"time": 318, "velocity": 108, "pitch": 62, "instrument": 0, "track": 5, "qtime": 30, "bar": 6, "isDrum": true}, {"time": 320, "velocity": 0, "pitch": 62, "instrument": 0, "track": 5, "qtime": 32, "bar": 6, "isDrum": true}, {"time": 324, "velocity": 108, "pitch": 63, "instrument": 0, "track": 5, "qtime": 36, "bar": 6, "isDrum": true}, {"time": 325, "velocity": 0, "pitch": 63, "instrument": 0, "track": 5, "qtime": 37, "bar": 6, "isDrum": true}, {"time": 330, "velocity": 108, "pitch": 64, "instrument": 0, "track": 5, "qtime": 42, "bar": 6, "isDrum": true}, {"time": 331, "velocity": 0, "pitch": 64, "instrument": 0, "track": 5, "qtime": 43, "bar": 6, "isDrum": true}, {"time": 336, "velocity": 108, "pitch": 64, "instrument": 0, "track": 5, "qtime": 0, "bar": 7, "isDrum": true}, {"time": 338, "velocity": 0, "pitch": 64, "instrument": 0, "track": 5, "qtime": 2, "bar": 7, "isDrum": true}, {"time": 342, "velocity": 108, "pitch": 63, "instrument": 0, "track": 5, "qtime": 6, "bar": 7, "isDrum": true}, {"time": 343, "velocity": 0, "pitch": 63, "instrument": 0, "track": 5, "qtime": 7, "bar": 7, "isDrum": true}, {"time": 348, "velocity": 108, "pitch": 62, "instrument": 0, "track": 5, "qtime": 12, "bar": 7, "isDrum": true}, {"time": 350, "velocity": 0, "pitch": 62, "instrument": 0, "track": 5, "qtime": 14, "bar": 7, "isDrum": true}, {"time": 354, "velocity": 108, "pitch": 64, "instrument": 0, "track": 5, "qtime": 18, "bar": 7, "isDrum": true}, {"time": 355, "velocity": 0, "pitch": 64, "instrument": 0, "track": 5, "qtime": 19, "bar": 7, "isDrum": true}, {"time": 360, "velocity": 108, "pitch": 64, "instrument": 0, "track": 5, "qtime": 24, "bar": 7, "isDrum": true}, {"time": 361, "velocity": 0, "pitch": 64, "instrument": 0, "track": 5, "qtime": 25, "bar": 7, "isDrum": true}, {"time": 366, "velocity": 108, "pitch": 62, "instrument": 0, "track": 5, "qtime": 30, "bar": 7, "isDrum": true}, {"time": 368, "velocity": 0, "pitch": 62, "instrument": 0, "track": 5, "qtime": 32, "bar": 7, "isDrum": true}, {"time": 372, "velocity": 108, "pitch": 63, "instrument": 0, "track": 5, "qtime": 36, "bar": 7, "isDrum": true}, {"time": 373, "velocity": 0, "pitch": 63, "instrument": 0, "track": 5, "qtime": 37, "bar": 7, "isDrum": true}, {"time": 378, "velocity": 108, "pitch": 64, "instrument": 0, "track": 5, "qtime": 42, "bar": 7, "isDrum": true}, {"time": 379, "velocity": 0, "pitch": 64, "instrument": 0, "track": 5, "qtime": 43, "bar": 7, "isDrum": true}], "resolution": 12, "tempo": 88, "minPitch": 28, "maxPitch": 79, "validSegments": [0], "validTracks": [31], "segmentLength": 8}, "audio": "https://www.sfu.ca/~jeffe/examples/8b_ex6_orig.mp3"}, {"src": "gen/8b_ex6_density_0.json", "highlights": [[], [0, 1, 2, 3, 4, 5, 6, 7], []], "caption": "Resample the piano track in 20a with low density.", "sample_id": "20b", "mixer": [8, 8, 8, 8, 8], "json": {"tracks": [{"bars": [{"events": [0, 1, 2, 3, 4, 5, 6, 7, 8, 9], "isFourFour": true, "hasNotes": true, "time": 0}, {"events": [10, 11, 12, 13, 14, 15, 16, 17, 18, 19], "isFourFour": true, "hasNotes": true, "time": 48}, {"events": [20, 21, 22, 23, 24, 25, 26, 27], "isFourFour": true, "hasNotes": true, "time": 96}, {"events": [28, 29, 30, 31, 32, 33, 34, 35, 36, 37], "isFourFour": true, "hasNotes": true, "time": 144}, {"events": [38, 39, 40, 41, 42, 43, 44, 45], "isFourFour": true, "hasNotes": true, "time": 192}, {"events": [46, 47, 48, 49, 50, 51, 52, 53, 54, 55], "isFourFour": true, "hasNotes": true, "time": 240}, {"events": [56, 57, 58, 59, 60, 61, 62, 63], "isFourFour": true, "hasNotes": true, "time": 288}, {"events": [64, 65, 66, 67, 68, 69, 70, 71], "isFourFour": true, "hasNotes": true, "time": 336}], "isDrum": false, "minPitch": 28, "maxPitch": 40, "instrument": 0, "avPolyphony": 1.00295854, "noteDensity": 9, "noteDensityV2": 3}, {"bars": [{"events": [390, 391], "isFourFour": true, "hasNotes": true, "time": 0}, {"events": [392, 393], "isFourFour": true, "hasNotes": true, "time": 48}, {"events": [394, 395, 396, 397], "isFourFour": true, "hasNotes": true, "time": 96}, {"events": [398, 399], "isFourFour": true, "hasNotes": true, "time": 144}, {"events": [400, 401, 402, 403], "isFourFour": true, "hasNotes": true, "time": 192}, {"events": [404, 405], "isFourFour": true, "hasNotes": true, "time": 240}, {"events": [406, 407, 408, 409], "isFourFour": true, "hasNotes": true, "time": 288}, {"events": [410, 411], "isFourFour": true, "hasNotes": true, "time": 336}], "isDrum": false, "minPitch": 59, "maxPitch": 65, "instrument": 0, "avPolyphony": 1, "noteDensity": 2, "noteDensityV2": 0}, {"bars": [{"events": [72, 73, 74, 75], "isFourFour": true, "hasNotes": true, "time": 0}, {"events": [76, 77, 78, 79], "isFourFour": true, "hasNotes": true, "time": 48}, {"events": [80, 81, 82, 83], "isFourFour": true, "hasNotes": true, "time": 96}, {"events": [84, 85, 86, 87], "isFourFour": true, "hasNotes": true, "time": 144}, {"events": [88, 89, 90, 91, 92, 93], "isFourFour": true, "hasNotes": true, "time": 192}, {"events": [94, 95, 96, 97], "isFourFour": true, "hasNotes": true, "time": 240}, {"events": [98, 99, 100, 101], "isFourFour": true, "hasNotes": true, "time": 288}, {"events": [102, 103, 104, 105], "isFourFour": true, "hasNotes": true, "time": 336}], "isDrum": true, "minPitch": 42, "maxPitch": 46, "instrument": 0, "avPolyphony": 1, "noteDensity": 5, "noteDensityV2": 0}, {"bars": [{"events": [106, 107, 108, 109, 110, 111, 112, 113, 114, 115, 116, 117, 118, 119, 120, 121, 122, 123, 124, 125], "isFourFour": true, "hasNotes": true, "time": 0}, {"events": [126, 127, 128, 129, 130, 131, 132, 133, 134, 135, 136, 137, 138, 139, 140, 141, 142, 143, 144, 145], "isFourFour": true, "hasNotes": true, "time": 48}, {"events": [146, 147, 148, 149, 150, 151, 152, 153, 154, 155, 156, 157, 158, 159, 160, 161, 162, 163, 164, 165], "isFourFour": true, "hasNotes": true, "time": 96}, {"events": [166, 167, 168, 169, 170, 171, 172, 173, 174, 175, 176, 177, 178, 179, 180, 181, 182, 183, 184, 185], "isFourFour": true, "hasNotes": true, "time": 144}, {"events": [186, 187, 188, 189, 190, 191, 192, 193, 194, 195, 196, 197, 198, 199, 200, 201, 202, 203, 204, 205], "isFourFour": true, "hasNotes": true, "time": 192}, {"events": [206, 207, 208, 209, 210, 211, 212, 213, 214, 215, 216, 217, 218, 219, 220, 221, 222, 223, 224, 225], "isFourFour": true, "hasNotes": true, "time": 240}, {"events": [226, 227, 228, 229, 230, 231, 232, 233, 234, 235, 236, 237, 238, 239, 240, 241, 242, 243, 244, 245], "isFourFour": true, "hasNotes": true, "time": 288}, {"events": [246, 247, 248, 249, 250, 251, 252, 253, 254, 255, 256, 257, 258, 259, 260, 261, 262, 263, 264, 265], "isFourFour": true, "hasNotes": true, "time": 336}], "isDrum": true, "minPitch": 69, "maxPitch": 69, "instrument": 0, "avPolyphony": 1, "noteDensity": 9, "noteDensityV2": 4}, {"bars": [{"events": [266, 267, 268, 269, 270, 271, 272, 273, 274, 275, 276, 277, 278, 279, 280, 281], "isFourFour": true, "hasNotes": true, "time": 0}, {"events": [282, 283, 284, 285, 286, 287, 288, 289, 290, 291, 292, 293, 294, 295, 296, 297], "isFourFour": true, "hasNotes": true, "time": 48}, {"events": [298, 299, 300, 301, 302, 303, 304, 305, 306, 307, 308, 309, 310, 311, 312, 313], "isFourFour": true, "hasNotes": true, "time": 96}, {"events": [314, 315, 316, 317, 318, 319, 320, 321, 322, 323, 324, 325, 326, 327, 328, 329], "isFourFour": true, "hasNotes": true, "time": 144}, {"events": [330, 331, 332, 333, 334, 335, 336, 337, 338, 339, 340, 341], "isFourFour": true, "hasNotes": true, "time": 192}, {"events": [342, 343, 344, 345, 346, 347, 348, 349, 350, 351, 352, 353, 354, 355, 356, 357], "isFourFour": true, "hasNotes": true, "time": 240}, {"events": [358, 359, 360, 361, 362, 363, 364, 365, 366, 367, 368, 369, 370, 371, 372, 373], "isFourFour": true, "hasNotes": true, "time": 288}, {"events": [374, 375, 376, 377, 378, 379, 380, 381, 382, 383, 384, 385, 386, 387, 388, 389], "isFourFour": true, "hasNotes": true, "time": 336}], "isDrum": true, "minPitch": 62, "maxPitch": 64, "instrument": 0, "avPolyphony": 1, "noteDensity": 9, "noteDensityV2": 3}], "events": [{"time": 0, "velocity": 108, "pitch": 28, "instrument": 0, "track": 0, "qtime": 0, "isDrum": false}, {"time": 11, "velocity": 0, "pitch": 28, "instrument": 0, "track": 0, "qtime": 11, "isDrum": false}, {"time": 12, "velocity": 108, "pitch": 35, "instrument": 0, "track": 0, "qtime": 12, "isDrum": false}, {"time": 23, "velocity": 0, "pitch": 35, "instrument": 0, "track": 0, "qtime": 23, "isDrum": false}, {"time": 24, "velocity": 108, "pitch": 40, "instrument": 0, "track": 0, "qtime": 24, "isDrum": false}, {"time": 32, "velocity": 0, "pitch": 40, "instrument": 0, "track": 0, "qtime": 32, "isDrum": false}, {"time": 32, "velocity": 108, "pitch": 28, "instrument": 0, "track": 0, "qtime": 32, "isDrum": false}, {"time": 39, "velocity": 0, "pitch": 28, "instrument": 0, "track": 0, "qtime": 39, "isDrum": false}, {"time": 40, "velocity": 108, "pitch": 32, "instrument": 0, "track": 0, "qtime": 40, "isDrum": false}, {"time": 48, "velocity": 0, "pitch": 32, "instrument": 0, "track": 0, "qtime": 48, "isDrum": false}, {"time": 48, "velocity": 108, "pitch": 33, "instrument": 0, "track": 0, "qtime": 0, "isDrum": false}, {"time": 63, "velocity": 0, "pitch": 33, "instrument": 0, "track": 0, "qtime": 15, "isDrum": false}, {"time": 66, "velocity": 108, "pitch": 33, "instrument": 0, "track": 0, "qtime": 18, "isDrum": false}, {"time": 70, "velocity": 0, "pitch": 33, "instrument": 0, "track": 0, "qtime": 22, "isDrum": false}, {"time": 72, "velocity": 108, "pitch": 33, "instrument": 0, "track": 0, "qtime": 24, "isDrum": false}, {"time": 79, "velocity": 0, "pitch": 33, "instrument": 0, "track": 0, "qtime": 31, "isDrum": false}, {"time": 80, "velocity": 108, "pitch": 35, "instrument": 0, "track": 0, "qtime": 32, "isDrum": false}, {"time": 88, "velocity": 0, "pitch": 35, "instrument": 0, "track": 0, "qtime": 40, "isDrum": false}, {"time": 88, "velocity": 108, "pitch": 36, "instrument": 0, "track": 0, "qtime": 40, "isDrum": false}, {"time": 95, "velocity": 0, "pitch": 36, "instrument": 0, "track": 0, "qtime": 47, "isDrum": false}, {"time": 96, "velocity": 108, "pitch": 38, "instrument": 0, "track": 0, "qtime": 0, "isDrum": false}, {"time": 106, "velocity": 0, "pitch": 38, "instrument": 0, "track": 0, "qtime": 10, "isDrum": false}, {"time": 108, "velocity": 108, "pitch": 38, "instrument": 0, "track": 0, "qtime": 12, "isDrum": false}, {"time": 119, "velocity": 0, "pitch": 38, "instrument": 0, "track": 0, "qtime": 23, "isDrum": false}, {"time": 120, "velocity": 108, "pitch": 36, "instrument": 0, "track": 0, "qtime": 24, "isDrum": false}, {"time": 130, "velocity": 0, "pitch": 36, "instrument": 0, "track": 0, "qtime": 34, "isDrum": false}, {"time": 132, "velocity": 108, "pitch": 36, "instrument": 0, "track": 0, "qtime": 36, "isDrum": false}, {"time": 142, "velocity": 0, "pitch": 36, "instrument": 0, "track": 0, "qtime": 46, "isDrum": false}, {"time": 144, "velocity": 108, "pitch": 35, "instrument": 0, "track": 0, "qtime": 0, "isDrum": false}, {"time": 160, "velocity": 0, "pitch": 35, "instrument": 0, "track": 0, "qtime": 16, "isDrum": false}, {"time": 162, "velocity": 108, "pitch": 35, "instrument": 0, "track": 0, "qtime": 18, "isDrum": false}, {"time": 167, "velocity": 0, "pitch": 35, "instrument": 0, "track": 0, "qtime": 23, "isDrum": false}, {"time": 168, "velocity": 108, "pitch": 35, "instrument": 0, "track": 0, "qtime": 24, "isDrum": false}, {"time": 176, "velocity": 0, "pitch": 35, "instrument": 0, "track": 0, "qtime": 32, "isDrum": false}, {"time": 176, "velocity": 108, "pitch": 36, "instrument": 0, "track": 0, "qtime": 32, "isDrum": false}, {"time": 183, "velocity": 0, "pitch": 36, "instrument": 0, "track": 0, "qtime": 39, "isDrum": false}, {"time": 184, "velocity": 108, "pitch": 38, "instrument": 0, "track": 0, "qtime": 40, "isDrum": false}, {"time": 192, "velocity": 0, "pitch": 38, "instrument": 0, "track": 0, "qtime": 48, "isDrum": false}, {"time": 192, "velocity": 108, "pitch": 40, "instrument": 0, "track": 0, "qtime": 0, "isDrum": false}, {"time": 203, "velocity": 0, "pitch": 40, "instrument": 0, "track": 0, "qtime": 11, "isDrum": false}, {"time": 204, "velocity": 108, "pitch": 35, "instrument": 0, "track": 0, "qtime": 12, "isDrum": false}, {"time": 216, "velocity": 0, "pitch": 35, "instrument": 0, "track": 0, "qtime": 24, "isDrum": false}, {"time": 216, "velocity": 108, "pitch": 28, "instrument": 0, "track": 0, "qtime": 24, "isDrum": false}, {"time": 228, "velocity": 0, "pitch": 28, "instrument": 0, "track": 0, "qtime": 36, "isDrum": false}, {"time": 228, "velocity": 108, "pitch": 32, "instrument": 0, "track": 0, "qtime": 36, "isDrum": false}, {"time": 240, "velocity": 0, "pitch": 32, "instrument": 0, "track": 0, "qtime": 48, "isDrum": false}, {"time": 240, "velocity": 108, "pitch": 33, "instrument": 0, "track": 0, "qtime": 0, "isDrum": false}, {"time": 255, "velocity": 0, "pitch": 33, "instrument": 0, "track": 0, "qtime": 15, "isDrum": false}, {"time": 258, "velocity": 108, "pitch": 33, "instrument": 0, "track": 0, "qtime": 18, "isDrum": false}, {"time": 262, "velocity": 0, "pitch": 33, "instrument": 0, "track": 0, "qtime": 22, "isDrum": false}, {"time": 264, "velocity": 108, "pitch": 33, "instrument": 0, "track": 0, "qtime": 24, "isDrum": false}, {"time": 272, "velocity": 0, "pitch": 33, "instrument": 0, "track": 0, "qtime": 32, "isDrum": false}, {"time": 272, "velocity": 108, "pitch": 35, "instrument": 0, "track": 0, "qtime": 32, "isDrum": false}, {"time": 280, "velocity": 0, "pitch": 35, "instrument": 0, "track": 0, "qtime": 40, "isDrum": false}, {"time": 280, "velocity": 108, "pitch": 36, "instrument": 0, "track": 0, "qtime": 40, "isDrum": false}, {"time": 287, "velocity": 0, "pitch": 36, "instrument": 0, "track": 0, "qtime": 47, "isDrum": false}, {"time": 288, "velocity": 108, "pitch": 38, "instrument": 0, "track": 0, "qtime": 0, "isDrum": false}, {"time": 299, "velocity": 0, "pitch": 38, "instrument": 0, "track": 0, "qtime": 11, "isDrum": false}, {"time": 300, "velocity": 108, "pitch": 38, "instrument": 0, "track": 0, "qtime": 12, "isDrum": false}, {"time": 312, "velocity": 0, "pitch": 38, "instrument": 0, "track": 0, "qtime": 24, "isDrum": false}, {"time": 312, "velocity": 108, "pitch": 30, "instrument": 0, "track": 0, "qtime": 24, "isDrum": false}, {"time": 323, "velocity": 0, "pitch": 30, "instrument": 0, "track": 0, "qtime": 35, "isDrum": false}, {"time": 324, "velocity": 108, "pitch": 30, "instrument": 0, "track": 0, "qtime": 36, "isDrum": false}, {"time": 335, "velocity": 0, "pitch": 30, "instrument": 0, "track": 0, "qtime": 47, "isDrum": false}, {"time": 336, "velocity": 108, "pitch": 31, "instrument": 0, "track": 0, "qtime": 0, "isDrum": false}, {"time": 350, "velocity": 0, "pitch": 31, "instrument": 0, "track": 0, "qtime": 14, "isDrum": false}, {"time": 354, "velocity": 108, "pitch": 31, "instrument": 0, "track": 0, "qtime": 18, "isDrum": false}, {"time": 355, "velocity": 0, "pitch": 31, "instrument": 0, "track": 0, "qtime": 19, "isDrum": false}, {"time": 360, "velocity": 108, "pitch": 31, "instrument": 0, "track": 0, "qtime": 24, "isDrum": false}, {"time": 372, "velocity": 108, "pitch": 29, "instrument": 0, "track": 0, "qtime": 36, "isDrum": false}, {"time": 373, "velocity": 0, "pitch": 31, "instrument": 0, "track": 0, "qtime": 37, "isDrum": false}, {"time": 378, "velocity": 0, "pitch": 29, "instrument": 0, "track": 0, "qtime": 42, "isDrum": false}, {"time": 12, "velocity": 108, "pitch": 42, "instrument": 0, "track": 9, "qtime": 12, "isDrum": true}, {"time": 13, "velocity": 0, "pitch": 42, "instrument": 0, "track": 9, "qtime": 13, "isDrum": true}, {"time": 36, "velocity": 108, "pitch": 46, "instrument": 0, "track": 9, "qtime": 36, "isDrum": true}, {"time": 37, "velocity": 0, "pitch": 46, "instrument": 0, "track": 9, "qtime": 37, "isDrum": true}, {"time": 60, "velocity": 108, "pitch": 42, "instrument": 0, "track": 9, "qtime": 12, "isDrum": true}, {"time": 61, "velocity": 0, "pitch": 42, "instrument": 0, "track": 9, "qtime": 13, "isDrum": true}, {"time": 84, "velocity": 108, "pitch": 42, "instrument": 0, "track": 9, "qtime": 36, "isDrum": true}, {"time": 85, "velocity": 0, "pitch": 42, "instrument": 0, "track": 9, "qtime": 37, "isDrum": true}, {"time": 108, "velocity": 108, "pitch": 42, "instrument": 0, "track": 9, "qtime": 12, "isDrum": true}, {"time": 109, "velocity": 0, "pitch": 42, "instrument": 0, "track": 9, "qtime": 13, "isDrum": true}, {"time": 132, "velocity": 108, "pitch": 46, "instrument": 0, "track": 9, "qtime": 36, "isDrum": true}, {"time": 133, "velocity": 0, "pitch": 46, "instrument": 0, "track": 9, "qtime": 37, "isDrum": true}, {"time": 156, "velocity": 108, "pitch": 42, "instrument": 0, "track": 9, "qtime": 12, "isDrum": true}, {"time": 157, "velocity": 0, "pitch": 42, "instrument": 0, "track": 9, "qtime": 13, "isDrum": true}, {"time": 180, "velocity": 108, "pitch": 42, "instrument": 0, "track": 9, "qtime": 36, "isDrum": true}, {"time": 181, "velocity": 0, "pitch": 42, "instrument": 0, "track": 9, "qtime": 37, "isDrum": true}, {"time": 204, "velocity": 108, "pitch": 42, "instrument": 0, "track": 9, "qtime": 12, "isDrum": true}, {"time": 205, "velocity": 0, "pitch": 42, "instrument": 0, "track": 9, "qtime": 13, "isDrum": true}, {"time": 216, "velocity": 108, "pitch": 46, "instrument": 0, "track": 9, "qtime": 24, "isDrum": true}, {"time": 217, "velocity": 0, "pitch": 46, "instrument": 0, "track": 9, "qtime": 25, "isDrum": true}, {"time": 228, "velocity": 108, "pitch": 46, "instrument": 0, "track": 9, "qtime": 36, "isDrum": true}, {"time": 230, "velocity": 0, "pitch": 46, "instrument": 0, "track": 9, "qtime": 38, "isDrum": true}, {"time": 252, "velocity": 108, "pitch": 42, "instrument": 0, "track": 9, "qtime": 12, "isDrum": true}, {"time": 253, "velocity": 0, "pitch": 42, "instrument": 0, "track": 9, "qtime": 13, "isDrum": true}, {"time": 276, "velocity": 108, "pitch": 42, "instrument": 0, "track": 9, "qtime": 36, "isDrum": true}, {"time": 277, "velocity": 0, "pitch": 42, "instrument": 0, "track": 9, "qtime": 37, "isDrum": true}, {"time": 300, "velocity": 108, "pitch": 42, "instrument": 0, "track": 9, "qtime": 12, "isDrum": true}, {"time": 301, "velocity": 0, "pitch": 42, "instrument": 0, "track": 9, "qtime": 13, "isDrum": true}, {"time": 324, "velocity": 108, "pitch": 42, "instrument": 0, "track": 9, "qtime": 36, "isDrum": true}, {"time": 325, "velocity": 0, "pitch": 42, "instrument": 0, "track": 9, "qtime": 37, "isDrum": true}, {"time": 348, "velocity": 108, "pitch": 42, "instrument": 0, "track": 9, "qtime": 12, "isDrum": true}, {"time": 349, "velocity": 0, "pitch": 42, "instrument": 0, "track": 9, "qtime": 13, "isDrum": true}, {"time": 372, "velocity": 108, "pitch": 42, "instrument": 0, "track": 9, "qtime": 36, "isDrum": true}, {"time": 373, "velocity": 0, "pitch": 42, "instrument": 0, "track": 9, "qtime": 37, "isDrum": true}, {"time": 0, "velocity": 108, "pitch": 69, "instrument": 0, "track": 9, "qtime": 0, "isDrum": true}, {"time": 1, "velocity": 0, "pitch": 69, "instrument": 0, "track": 9, "qtime": 1, "isDrum": true}, {"time": 6, "velocity": 108, "pitch": 69, "instrument": 0, "track": 9, "qtime": 6, "isDrum": true}, {"time": 7, "velocity": 0, "pitch": 69, "instrument": 0, "track": 9, "qtime": 7, "isDrum": true}, {"time": 8, "velocity": 108, "pitch": 69, "instrument": 0, "track": 9, "qtime": 8, "isDrum": true}, {"time": 9, "velocity": 0, "pitch": 69, "instrument": 0, "track": 9, "qtime": 9, "isDrum": true}, {"time": 10, "velocity": 108, "pitch": 69, "instrument": 0, "track": 9, "qtime": 10, "isDrum": true}, {"time": 11, "velocity": 0, "pitch": 69, "instrument": 0, "track": 9, "qtime": 11, "isDrum": true}, {"time": 12, "velocity": 108, "pitch": 69, "instrument": 0, "track": 9, "qtime": 12, "isDrum": true}, {"time": 13, "velocity": 0, "pitch": 69, "instrument": 0, "track": 9, "qtime": 13, "isDrum": true}, {"time": 18, "velocity": 108, "pitch": 69, "instrument": 0, "track": 9, "qtime": 18, "isDrum": true}, {"time": 19, "velocity": 0, "pitch": 69, "instrument": 0, "track": 9, "qtime": 19, "isDrum": true}, {"time": 24, "velocity": 108, "pitch": 69, "instrument": 0, "track": 9, "qtime": 24, "isDrum": true}, {"time": 25, "velocity": 0, "pitch": 69, "instrument": 0, "track": 9, "qtime": 25, "isDrum": true}, {"time": 30, "velocity": 108, "pitch": 69, "instrument": 0, "track": 9, "qtime": 30, "isDrum": true}, {"time": 31, "velocity": 0, "pitch": 69, "instrument": 0, "track": 9, "qtime": 31, "isDrum": true}, {"time": 36, "velocity": 108, "pitch": 69, "instrument": 0, "track": 9, "qtime": 36, "isDrum": true}, {"time": 37, "velocity": 0, "pitch": 69, "instrument": 0, "track": 9, "qtime": 37, "isDrum": true}, {"time": 42, "velocity": 108, "pitch": 69, "instrument": 0, "track": 9, "qtime": 42, "isDrum": true}, {"time": 43, "velocity": 0, "pitch": 69, "instrument": 0, "track": 9, "qtime": 43, "isDrum": true}, {"time": 48, "velocity": 108, "pitch": 69, "instrument": 0, "track": 9, "qtime": 0, "isDrum": true}, {"time": 49, "velocity": 0, "pitch": 69, "instrument": 0, "track": 9, "qtime": 1, "isDrum": true}, {"time": 54, "velocity": 108, "pitch": 69, "instrument": 0, "track": 9, "qtime": 6, "isDrum": true}, {"time": 55, "velocity": 0, "pitch": 69, "instrument": 0, "track": 9, "qtime": 7, "isDrum": true}, {"time": 56, "velocity": 108, "pitch": 69, "instrument": 0, "track": 9, "qtime": 8, "isDrum": true}, {"time": 57, "velocity": 0, "pitch": 69, "instrument": 0, "track": 9, "qtime": 9, "isDrum": true}, {"time": 58, "velocity": 108, "pitch": 69, "instrument": 0, "track": 9, "qtime": 10, "isDrum": true}, {"time": 59, "velocity": 0, "pitch": 69, "instrument": 0, "track": 9, "qtime": 11, "isDrum": true}, {"time": 60, "velocity": 108, "pitch": 69, "instrument": 0, "track": 9, "qtime": 12, "isDrum": true}, {"time": 61, "velocity": 0, "pitch": 69, "instrument": 0, "track": 9, "qtime": 13, "isDrum": true}, {"time": 66, "velocity": 108, "pitch": 69, "instrument": 0, "track": 9, "qtime": 18, "isDrum": true}, {"time": 67, "velocity": 0, "pitch": 69, "instrument": 0, "track": 9, "qtime": 19, "isDrum": true}, {"time": 72, "velocity": 108, "pitch": 69, "instrument": 0, "track": 9, "qtime": 24, "isDrum": true}, {"time": 73, "velocity": 0, "pitch": 69, "instrument": 0, "track": 9, "qtime": 25, "isDrum": true}, {"time": 78, "velocity": 108, "pitch": 69, "instrument": 0, "track": 9, "qtime": 30, "isDrum": true}, {"time": 79, "velocity": 0, "pitch": 69, "instrument": 0, "track": 9, "qtime": 31, "isDrum": true}, {"time": 84, "velocity": 108, "pitch": 69, "instrument": 0, "track": 9, "qtime": 36, "isDrum": true}, {"time": 85, "velocity": 0, "pitch": 69, "instrument": 0, "track": 9, "qtime": 37, "isDrum": true}, {"time": 90, "velocity": 108, "pitch": 69, "instrument": 0, "track": 9, "qtime": 42, "isDrum": true}, {"time": 91, "velocity": 0, "pitch": 69, "instrument": 0, "track": 9, "qtime": 43, "isDrum": true}, {"time": 96, "velocity": 108, "pitch": 69, "instrument": 0, "track": 9, "qtime": 0, "isDrum": true}, {"time": 97, "velocity": 0, "pitch": 69, "instrument": 0, "track": 9, "qtime": 1, "isDrum": true}, {"time": 102, "velocity": 108, "pitch": 69, "instrument": 0, "track": 9, "qtime": 6, "isDrum": true}, {"time": 103, "velocity": 0, "pitch": 69, "instrument": 0, "track": 9, "qtime": 7, "isDrum": true}, {"time": 104, "velocity": 108, "pitch": 69, "instrument": 0, "track": 9, "qtime": 8, "isDrum": true}, {"time": 105, "velocity": 0, "pitch": 69, "instrument": 0, "track": 9, "qtime": 9, "isDrum": true}, {"time": 106, "velocity": 108, "pitch": 69, "instrument": 0, "track": 9, "qtime": 10, "isDrum": true}, {"time": 107, "velocity": 0, "pitch": 69, "instrument": 0, "track": 9, "qtime": 11, "isDrum": true}, {"time": 108, "velocity": 108, "pitch": 69, "instrument": 0, "track": 9, "qtime": 12, "isDrum": true}, {"time": 109, "velocity": 0, "pitch": 69, "instrument": 0, "track": 9, "qtime": 13, "isDrum": true}, {"time": 114, "velocity": 108, "pitch": 69, "instrument": 0, "track": 9, "qtime": 18, "isDrum": true}, {"time": 115, "velocity": 0, "pitch": 69, "instrument": 0, "track": 9, "qtime": 19, "isDrum": true}, {"time": 120, "velocity": 108, "pitch": 69, "instrument": 0, "track": 9, "qtime": 24, "isDrum": true}, {"time": 121, "velocity": 0, "pitch": 69, "instrument": 0, "track": 9, "qtime": 25, "isDrum": true}, {"time": 126, "velocity": 108, "pitch": 69, "instrument": 0, "track": 9, "qtime": 30, "isDrum": true}, {"time": 127, "velocity": 0, "pitch": 69, "instrument": 0, "track": 9, "qtime": 31, "isDrum": true}, {"time": 132, "velocity": 108, "pitch": 69, "instrument": 0, "track": 9, "qtime": 36, "isDrum": true}, {"time": 133, "velocity": 0, "pitch": 69, "instrument": 0, "track": 9, "qtime": 37, "isDrum": true}, {"time": 138, "velocity": 108, "pitch": 69, "instrument": 0, "track": 9, "qtime": 42, "isDrum": true}, {"time": 139, "velocity": 0, "pitch": 69, "instrument": 0, "track": 9, "qtime": 43, "isDrum": true}, {"time": 144, "velocity": 108, "pitch": 69, "instrument": 0, "track": 9, "qtime": 0, "isDrum": true}, {"time": 145, "velocity": 0, "pitch": 69, "instrument": 0, "track": 9, "qtime": 1, "isDrum": true}, {"time": 150, "velocity": 108, "pitch": 69, "instrument": 0, "track": 9, "qtime": 6, "isDrum": true}, {"time": 151, "velocity": 0, "pitch": 69, "instrument": 0, "track": 9, "qtime": 7, "isDrum": true}, {"time": 152, "velocity": 108, "pitch": 69, "instrument": 0, "track": 9, "qtime": 8, "isDrum": true}, {"time": 153, "velocity": 0, "pitch": 69, "instrument": 0, "track": 9, "qtime": 9, "isDrum": true}, {"time": 154, "velocity": 108, "pitch": 69, "instrument": 0, "track": 9, "qtime": 10, "isDrum": true}, {"time": 155, "velocity": 0, "pitch": 69, "instrument": 0, "track": 9, "qtime": 11, "isDrum": true}, {"time": 156, "velocity": 108, "pitch": 69, "instrument": 0, "track": 9, "qtime": 12, "isDrum": true}, {"time": 157, "velocity": 0, "pitch": 69, "instrument": 0, "track": 9, "qtime": 13, "isDrum": true}, {"time": 162, "velocity": 108, "pitch": 69, "instrument": 0, "track": 9, "qtime": 18, "isDrum": true}, {"time": 163, "velocity": 0, "pitch": 69, "instrument": 0, "track": 9, "qtime": 19, "isDrum": true}, {"time": 168, "velocity": 108, "pitch": 69, "instrument": 0, "track": 9, "qtime": 24, "isDrum": true}, {"time": 169, "velocity": 0, "pitch": 69, "instrument": 0, "track": 9, "qtime": 25, "isDrum": true}, {"time": 174, "velocity": 108, "pitch": 69, "instrument": 0, "track": 9, "qtime": 30, "isDrum": true}, {"time": 175, "velocity": 0, "pitch": 69, "instrument": 0, "track": 9, "qtime": 31, "isDrum": true}, {"time": 180, "velocity": 108, "pitch": 69, "instrument": 0, "track": 9, "qtime": 36, "isDrum": true}, {"time": 181, "velocity": 0, "pitch": 69, "instrument": 0, "track": 9, "qtime": 37, "isDrum": true}, {"time": 186, "velocity": 108, "pitch": 69, "instrument": 0, "track": 9, "qtime": 42, "isDrum": true}, {"time": 187, "velocity": 0, "pitch": 69, "instrument": 0, "track": 9, "qtime": 43, "isDrum": true}, {"time": 192, "velocity": 108, "pitch": 69, "instrument": 0, "track": 9, "qtime": 0, "isDrum": true}, {"time": 193, "velocity": 0, "pitch": 69, "instrument": 0, "track": 9, "qtime": 1, "isDrum": true}, {"time": 198, "velocity": 108, "pitch": 69, "instrument": 0, "track": 9, "qtime": 6, "isDrum": true}, {"time": 199, "velocity": 0, "pitch": 69, "instrument": 0, "track": 9, "qtime": 7, "isDrum": true}, {"time": 200, "velocity": 108, "pitch": 69, "instrument": 0, "track": 9, "qtime": 8, "isDrum": true}, {"time": 201, "velocity": 0, "pitch": 69, "instrument": 0, "track": 9, "qtime": 9, "isDrum": true}, {"time": 202, "velocity": 108, "pitch": 69, "instrument": 0, "track": 9, "qtime": 10, "isDrum": true}, {"time": 203, "velocity": 0, "pitch": 69, "instrument": 0, "track": 9, "qtime": 11, "isDrum": true}, {"time": 204, "velocity": 108, "pitch": 69, "instrument": 0, "track": 9, "qtime": 12, "isDrum": true}, {"time": 205, "velocity": 0, "pitch": 69, "instrument": 0, "track": 9, "qtime": 13, "isDrum": true}, {"time": 210, "velocity": 108, "pitch": 69, "instrument": 0, "track": 9, "qtime": 18, "isDrum": true}, {"time": 211, "velocity": 0, "pitch": 69, "instrument": 0, "track": 9, "qtime": 19, "isDrum": true}, {"time": 216, "velocity": 108, "pitch": 69, "instrument": 0, "track": 9, "qtime": 24, "isDrum": true}, {"time": 217, "velocity": 0, "pitch": 69, "instrument": 0, "track": 9, "qtime": 25, "isDrum": true}, {"time": 222, "velocity": 108, "pitch": 69, "instrument": 0, "track": 9, "qtime": 30, "isDrum": true}, {"time": 223, "velocity": 0, "pitch": 69, "instrument": 0, "track": 9, "qtime": 31, "isDrum": true}, {"time": 228, "velocity": 108, "pitch": 69, "instrument": 0, "track": 9, "qtime": 36, "isDrum": true}, {"time": 229, "velocity": 0, "pitch": 69, "instrument": 0, "track": 9, "qtime": 37, "isDrum": true}, {"time": 234, "velocity": 108, "pitch": 69, "instrument": 0, "track": 9, "qtime": 42, "isDrum": true}, {"time": 235, "velocity": 0, "pitch": 69, "instrument": 0, "track": 9, "qtime": 43, "isDrum": true}, {"time": 240, "velocity": 108, "pitch": 69, "instrument": 0, "track": 9, "qtime": 0, "isDrum": true}, {"time": 241, "velocity": 0, "pitch": 69, "instrument": 0, "track": 9, "qtime": 1, "isDrum": true}, {"time": 246, "velocity": 108, "pitch": 69, "instrument": 0, "track": 9, "qtime": 6, "isDrum": true}, {"time": 247, "velocity": 0, "pitch": 69, "instrument": 0, "track": 9, "qtime": 7, "isDrum": true}, {"time": 248, "velocity": 108, "pitch": 69, "instrument": 0, "track": 9, "qtime": 8, "isDrum": true}, {"time": 249, "velocity": 0, "pitch": 69, "instrument": 0, "track": 9, "qtime": 9, "isDrum": true}, {"time": 250, "velocity": 108, "pitch": 69, "instrument": 0, "track": 9, "qtime": 10, "isDrum": true}, {"time": 251, "velocity": 0, "pitch": 69, "instrument": 0, "track": 9, "qtime": 11, "isDrum": true}, {"time": 252, "velocity": 108, "pitch": 69, "instrument": 0, "track": 9, "qtime": 12, "isDrum": true}, {"time": 253, "velocity": 0, "pitch": 69, "instrument": 0, "track": 9, "qtime": 13, "isDrum": true}, {"time": 258, "velocity": 108, "pitch": 69, "instrument": 0, "track": 9, "qtime": 18, "isDrum": true}, {"time": 259, "velocity": 0, "pitch": 69, "instrument": 0, "track": 9, "qtime": 19, "isDrum": true}, {"time": 264, "velocity": 108, "pitch": 69, "instrument": 0, "track": 9, "qtime": 24, "isDrum": true}, {"time": 265, "velocity": 0, "pitch": 69, "instrument": 0, "track": 9, "qtime": 25, "isDrum": true}, {"time": 270, "velocity": 108, "pitch": 69, "instrument": 0, "track": 9, "qtime": 30, "isDrum": true}, {"time": 271, "velocity": 0, "pitch": 69, "instrument": 0, "track": 9, "qtime": 31, "isDrum": true}, {"time": 276, "velocity": 108, "pitch": 69, "instrument": 0, "track": 9, "qtime": 36, "isDrum": true}, {"time": 277, "velocity": 0, "pitch": 69, "instrument": 0, "track": 9, "qtime": 37, "isDrum": true}, {"time": 282, "velocity": 108, "pitch": 69, "instrument": 0, "track": 9, "qtime": 42, "isDrum": true}, {"time": 283, "velocity": 0, "pitch": 69, "instrument": 0, "track": 9, "qtime": 43, "isDrum": true}, {"time": 288, "velocity": 108, "pitch": 69, "instrument": 0, "track": 9, "qtime": 0, "isDrum": true}, {"time": 289, "velocity": 0, "pitch": 69, "instrument": 0, "track": 9, "qtime": 1, "isDrum": true}, {"time": 294, "velocity": 108, "pitch": 69, "instrument": 0, "track": 9, "qtime": 6, "isDrum": true}, {"time": 295, "velocity": 0, "pitch": 69, "instrument": 0, "track": 9, "qtime": 7, "isDrum": true}, {"time": 296, "velocity": 108, "pitch": 69, "instrument": 0, "track": 9, "qtime": 8, "isDrum": true}, {"time": 297, "velocity": 0, "pitch": 69, "instrument": 0, "track": 9, "qtime": 9, "isDrum": true}, {"time": 298, "velocity": 108, "pitch": 69, "instrument": 0, "track": 9, "qtime": 10, "isDrum": true}, {"time": 299, "velocity": 0, "pitch": 69, "instrument": 0, "track": 9, "qtime": 11, "isDrum": true}, {"time": 300, "velocity": 108, "pitch": 69, "instrument": 0, "track": 9, "qtime": 12, "isDrum": true}, {"time": 301, "velocity": 0, "pitch": 69, "instrument": 0, "track": 9, "qtime": 13, "isDrum": true}, {"time": 306, "velocity": 108, "pitch": 69, "instrument": 0, "track": 9, "qtime": 18, "isDrum": true}, {"time": 307, "velocity": 0, "pitch": 69, "instrument": 0, "track": 9, "qtime": 19, "isDrum": true}, {"time": 312, "velocity": 108, "pitch": 69, "instrument": 0, "track": 9, "qtime": 24, "isDrum": true}, {"time": 313, "velocity": 0, "pitch": 69, "instrument": 0, "track": 9, "qtime": 25, "isDrum": true}, {"time": 318, "velocity": 108, "pitch": 69, "instrument": 0, "track": 9, "qtime": 30, "isDrum": true}, {"time": 319, "velocity": 0, "pitch": 69, "instrument": 0, "track": 9, "qtime": 31, "isDrum": true}, {"time": 324, "velocity": 108, "pitch": 69, "instrument": 0, "track": 9, "qtime": 36, "isDrum": true}, {"time": 325, "velocity": 0, "pitch": 69, "instrument": 0, "track": 9, "qtime": 37, "isDrum": true}, {"time": 330, "velocity": 108, "pitch": 69, "instrument": 0, "track": 9, "qtime": 42, "isDrum": true}, {"time": 331, "velocity": 0, "pitch": 69, "instrument": 0, "track": 9, "qtime": 43, "isDrum": true}, {"time": 336, "velocity": 108, "pitch": 69, "instrument": 0, "track": 9, "qtime": 0, "isDrum": true}, {"time": 337, "velocity": 0, "pitch": 69, "instrument": 0, "track": 9, "qtime": 1, "isDrum": true}, {"time": 342, "velocity": 108, "pitch": 69, "instrument": 0, "track": 9, "qtime": 6, "isDrum": true}, {"time": 343, "velocity": 0, "pitch": 69, "instrument": 0, "track": 9, "qtime": 7, "isDrum": true}, {"time": 344, "velocity": 108, "pitch": 69, "instrument": 0, "track": 9, "qtime": 8, "isDrum": true}, {"time": 345, "velocity": 0, "pitch": 69, "instrument": 0, "track": 9, "qtime": 9, "isDrum": true}, {"time": 346, "velocity": 108, "pitch": 69, "instrument": 0, "track": 9, "qtime": 10, "isDrum": true}, {"time": 347, "velocity": 0, "pitch": 69, "instrument": 0, "track": 9, "qtime": 11, "isDrum": true}, {"time": 348, "velocity": 108, "pitch": 69, "instrument": 0, "track": 9, "qtime": 12, "isDrum": true}, {"time": 349, "velocity": 0, "pitch": 69, "instrument": 0, "track": 9, "qtime": 13, "isDrum": true}, {"time": 354, "velocity": 108, "pitch": 69, "instrument": 0, "track": 9, "qtime": 18, "isDrum": true}, {"time": 355, "velocity": 0, "pitch": 69, "instrument": 0, "track": 9, "qtime": 19, "isDrum": true}, {"time": 360, "velocity": 108, "pitch": 69, "instrument": 0, "track": 9, "qtime": 24, "isDrum": true}, {"time": 361, "velocity": 0, "pitch": 69, "instrument": 0, "track": 9, "qtime": 25, "isDrum": true}, {"time": 366, "velocity": 108, "pitch": 69, "instrument": 0, "track": 9, "qtime": 30, "isDrum": true}, {"time": 367, "velocity": 0, "pitch": 69, "instrument": 0, "track": 9, "qtime": 31, "isDrum": true}, {"time": 372, "velocity": 108, "pitch": 69, "instrument": 0, "track": 9, "qtime": 36, "isDrum": true}, {"time": 373, "velocity": 0, "pitch": 69, "instrument": 0, "track": 9, "qtime": 37, "isDrum": true}, {"time": 378, "velocity": 108, "pitch": 69, "instrument": 0, "track": 9, "qtime": 42, "isDrum": true}, {"time": 379, "velocity": 0, "pitch": 69, "instrument": 0, "track": 9, "qtime": 43, "isDrum": true}, {"time": 0, "velocity": 108, "pitch": 64, "instrument": 0, "track": 9, "qtime": 0, "isDrum": true}, {"time": 2, "velocity": 0, "pitch": 64, "instrument": 0, "track": 9, "qtime": 2, "isDrum": true}, {"time": 6, "velocity": 108, "pitch": 63, "instrument": 0, "track": 9, "qtime": 6, "isDrum": true}, {"time": 7, "velocity": 0, "pitch": 63, "instrument": 0, "track": 9, "qtime": 7, "isDrum": true}, {"time": 12, "velocity": 108, "pitch": 62, "instrument": 0, "track": 9, "qtime": 12, "isDrum": true}, {"time": 14, "velocity": 0, "pitch": 62, "instrument": 0, "track": 9, "qtime": 14, "isDrum": true}, {"time": 18, "velocity": 108, "pitch": 64, "instrument": 0, "track": 9, "qtime": 18, "isDrum": true}, {"time": 19, "velocity": 0, "pitch": 64, "instrument": 0, "track": 9, "qtime": 19, "isDrum": true}, {"time": 24, "velocity": 108, "pitch": 64, "instrument": 0, "track": 9, "qtime": 24, "isDrum": true}, {"time": 25, "velocity": 0, "pitch": 64, "instrument": 0, "track": 9, "qtime": 25, "isDrum": true}, {"time": 30, "velocity": 108, "pitch": 62, "instrument": 0, "track": 9, "qtime": 30, "isDrum": true}, {"time": 32, "velocity": 0, "pitch": 62, "instrument": 0, "track": 9, "qtime": 32, "isDrum": true}, {"time": 36, "velocity": 108, "pitch": 63, "instrument": 0, "track": 9, "qtime": 36, "isDrum": true}, {"time": 37, "velocity": 0, "pitch": 63, "instrument": 0, "track": 9, "qtime": 37, "isDrum": true}, {"time": 42, "velocity": 108, "pitch": 64, "instrument": 0, "track": 9, "qtime": 42, "isDrum": true}, {"time": 43, "velocity": 0, "pitch": 64, "instrument": 0, "track": 9, "qtime": 43, "isDrum": true}, {"time": 48, "velocity": 108, "pitch": 64, "instrument": 0, "track": 9, "qtime": 0, "isDrum": true}, {"time": 50, "velocity": 0, "pitch": 64, "instrument": 0, "track": 9, "qtime": 2, "isDrum": true}, {"time": 54, "velocity": 108, "pitch": 63, "instrument": 0, "track": 9, "qtime": 6, "isDrum": true}, {"time": 55, "velocity": 0, "pitch": 63, "instrument": 0, "track": 9, "qtime": 7, "isDrum": true}, {"time": 60, "velocity": 108, "pitch": 62, "instrument": 0, "track": 9, "qtime": 12, "isDrum": true}, {"time": 62, "velocity": 0, "pitch": 62, "instrument": 0, "track": 9, "qtime": 14, "isDrum": true}, {"time": 66, "velocity": 108, "pitch": 64, "instrument": 0, "track": 9, "qtime": 18, "isDrum": true}, {"time": 67, "velocity": 0, "pitch": 64, "instrument": 0, "track": 9, "qtime": 19, "isDrum": true}, {"time": 72, "velocity": 108, "pitch": 64, "instrument": 0, "track": 9, "qtime": 24, "isDrum": true}, {"time": 73, "velocity": 0, "pitch": 64, "instrument": 0, "track": 9, "qtime": 25, "isDrum": true}, {"time": 78, "velocity": 108, "pitch": 62, "instrument": 0, "track": 9, "qtime": 30, "isDrum": true}, {"time": 80, "velocity": 0, "pitch": 62, "instrument": 0, "track": 9, "qtime": 32, "isDrum": true}, {"time": 84, "velocity": 108, "pitch": 63, "instrument": 0, "track": 9, "qtime": 36, "isDrum": true}, {"time": 85, "velocity": 0, "pitch": 63, "instrument": 0, "track": 9, "qtime": 37, "isDrum": true}, {"time": 90, "velocity": 108, "pitch": 64, "instrument": 0, "track": 9, "qtime": 42, "isDrum": true}, {"time": 91, "velocity": 0, "pitch": 64, "instrument": 0, "track": 9, "qtime": 43, "isDrum": true}, {"time": 96, "velocity": 108, "pitch": 64, "instrument": 0, "track": 9, "qtime": 0, "isDrum": true}, {"time": 98, "velocity": 0, "pitch": 64, "instrument": 0, "track": 9, "qtime": 2, "isDrum": true}, {"time": 102, "velocity": 108, "pitch": 63, "instrument": 0, "track": 9, "qtime": 6, "isDrum": true}, {"time": 103, "velocity": 0, "pitch": 63, "instrument": 0, "track": 9, "qtime": 7, "isDrum": true}, {"time": 108, "velocity": 108, "pitch": 62, "instrument": 0, "track": 9, "qtime": 12, "isDrum": true}, {"time": 110, "velocity": 0, "pitch": 62, "instrument": 0, "track": 9, "qtime": 14, "isDrum": true}, {"time": 114, "velocity": 108, "pitch": 64, "instrument": 0, "track": 9, "qtime": 18, "isDrum": true}, {"time": 115, "velocity": 0, "pitch": 64, "instrument": 0, "track": 9, "qtime": 19, "isDrum": true}, {"time": 120, "velocity": 108, "pitch": 64, "instrument": 0, "track": 9, "qtime": 24, "isDrum": true}, {"time": 121, "velocity": 0, "pitch": 64, "instrument": 0, "track": 9, "qtime": 25, "isDrum": true}, {"time": 126, "velocity": 108, "pitch": 62, "instrument": 0, "track": 9, "qtime": 30, "isDrum": true}, {"time": 128, "velocity": 0, "pitch": 62, "instrument": 0, "track": 9, "qtime": 32, "isDrum": true}, {"time": 132, "velocity": 108, "pitch": 63, "instrument": 0, "track": 9, "qtime": 36, "isDrum": true}, {"time": 133, "velocity": 0, "pitch": 63, "instrument": 0, "track": 9, "qtime": 37, "isDrum": true}, {"time": 138, "velocity": 108, "pitch": 64, "instrument": 0, "track": 9, "qtime": 42, "isDrum": true}, {"time": 139, "velocity": 0, "pitch": 64, "instrument": 0, "track": 9, "qtime": 43, "isDrum": true}, {"time": 144, "velocity": 108, "pitch": 64, "instrument": 0, "track": 9, "qtime": 0, "isDrum": true}, {"time": 146, "velocity": 0, "pitch": 64, "instrument": 0, "track": 9, "qtime": 2, "isDrum": true}, {"time": 150, "velocity": 108, "pitch": 63, "instrument": 0, "track": 9, "qtime": 6, "isDrum": true}, {"time": 151, "velocity": 0, "pitch": 63, "instrument": 0, "track": 9, "qtime": 7, "isDrum": true}, {"time": 156, "velocity": 108, "pitch": 62, "instrument": 0, "track": 9, "qtime": 12, "isDrum": true}, {"time": 158, "velocity": 0, "pitch": 62, "instrument": 0, "track": 9, "qtime": 14, "isDrum": true}, {"time": 162, "velocity": 108, "pitch": 64, "instrument": 0, "track": 9, "qtime": 18, "isDrum": true}, {"time": 163, "velocity": 0, "pitch": 64, "instrument": 0, "track": 9, "qtime": 19, "isDrum": true}, {"time": 168, "velocity": 108, "pitch": 64, "instrument": 0, "track": 9, "qtime": 24, "isDrum": true}, {"time": 169, "velocity": 0, "pitch": 64, "instrument": 0, "track": 9, "qtime": 25, "isDrum": true}, {"time": 174, "velocity": 108, "pitch": 62, "instrument": 0, "track": 9, "qtime": 30, "isDrum": true}, {"time": 176, "velocity": 0, "pitch": 62, "instrument": 0, "track": 9, "qtime": 32, "isDrum": true}, {"time": 180, "velocity": 108, "pitch": 63, "instrument": 0, "track": 9, "qtime": 36, "isDrum": true}, {"time": 181, "velocity": 0, "pitch": 63, "instrument": 0, "track": 9, "qtime": 37, "isDrum": true}, {"time": 186, "velocity": 108, "pitch": 64, "instrument": 0, "track": 9, "qtime": 42, "isDrum": true}, {"time": 187, "velocity": 0, "pitch": 64, "instrument": 0, "track": 9, "qtime": 43, "isDrum": true}, {"time": 192, "velocity": 108, "pitch": 64, "instrument": 0, "track": 9, "qtime": 0, "isDrum": true}, {"time": 194, "velocity": 0, "pitch": 64, "instrument": 0, "track": 9, "qtime": 2, "isDrum": true}, {"time": 198, "velocity": 108, "pitch": 63, "instrument": 0, "track": 9, "qtime": 6, "isDrum": true}, {"time": 199, "velocity": 0, "pitch": 63, "instrument": 0, "track": 9, "qtime": 7, "isDrum": true}, {"time": 204, "velocity": 108, "pitch": 62, "instrument": 0, "track": 9, "qtime": 12, "isDrum": true}, {"time": 206, "velocity": 0, "pitch": 62, "instrument": 0, "track": 9, "qtime": 14, "isDrum": true}, {"time": 210, "velocity": 108, "pitch": 63, "instrument": 0, "track": 9, "qtime": 18, "isDrum": true}, {"time": 211, "velocity": 0, "pitch": 63, "instrument": 0, "track": 9, "qtime": 19, "isDrum": true}, {"time": 216, "velocity": 108, "pitch": 62, "instrument": 0, "track": 9, "qtime": 24, "isDrum": true}, {"time": 218, "velocity": 0, "pitch": 62, "instrument": 0, "track": 9, "qtime": 26, "isDrum": true}, {"time": 228, "velocity": 108, "pitch": 62, "instrument": 0, "track": 9, "qtime": 36, "isDrum": true}, {"time": 230, "velocity": 0, "pitch": 62, "instrument": 0, "track": 9, "qtime": 38, "isDrum": true}, {"time": 240, "velocity": 108, "pitch": 64, "instrument": 0, "track": 9, "qtime": 0, "isDrum": true}, {"time": 242, "velocity": 0, "pitch": 64, "instrument": 0, "track": 9, "qtime": 2, "isDrum": true}, {"time": 246, "velocity": 108, "pitch": 63, "instrument": 0, "track": 9, "qtime": 6, "isDrum": true}, {"time": 247, "velocity": 0, "pitch": 63, "instrument": 0, "track": 9, "qtime": 7, "isDrum": true}, {"time": 252, "velocity": 108, "pitch": 62, "instrument": 0, "track": 9, "qtime": 12, "isDrum": true}, {"time": 254, "velocity": 0, "pitch": 62, "instrument": 0, "track": 9, "qtime": 14, "isDrum": true}, {"time": 258, "velocity": 108, "pitch": 64, "instrument": 0, "track": 9, "qtime": 18, "isDrum": true}, {"time": 259, "velocity": 0, "pitch": 64, "instrument": 0, "track": 9, "qtime": 19, "isDrum": true}, {"time": 264, "velocity": 108, "pitch": 64, "instrument": 0, "track": 9, "qtime": 24, "isDrum": true}, {"time": 265, "velocity": 0, "pitch": 64, "instrument": 0, "track": 9, "qtime": 25, "isDrum": true}, {"time": 270, "velocity": 108, "pitch": 62, "instrument": 0, "track": 9, "qtime": 30, "isDrum": true}, {"time": 272, "velocity": 0, "pitch": 62, "instrument": 0, "track": 9, "qtime": 32, "isDrum": true}, {"time": 276, "velocity": 108, "pitch": 63, "instrument": 0, "track": 9, "qtime": 36, "isDrum": true}, {"time": 277, "velocity": 0, "pitch": 63, "instrument": 0, "track": 9, "qtime": 37, "isDrum": true}, {"time": 282, "velocity": 108, "pitch": 64, "instrument": 0, "track": 9, "qtime": 42, "isDrum": true}, {"time": 283, "velocity": 0, "pitch": 64, "instrument": 0, "track": 9, "qtime": 43, "isDrum": true}, {"time": 288, "velocity": 108, "pitch": 64, "instrument": 0, "track": 9, "qtime": 0, "isDrum": true}, {"time": 290, "velocity": 0, "pitch": 64, "instrument": 0, "track": 9, "qtime": 2, "isDrum": true}, {"time": 294, "velocity": 108, "pitch": 63, "instrument": 0, "track": 9, "qtime": 6, "isDrum": true}, {"time": 295, "velocity": 0, "pitch": 63, "instrument": 0, "track": 9, "qtime": 7, "isDrum": true}, {"time": 300, "velocity": 108, "pitch": 62, "instrument": 0, "track": 9, "qtime": 12, "isDrum": true}, {"time": 302, "velocity": 0, "pitch": 62, "instrument": 0, "track": 9, "qtime": 14, "isDrum": true}, {"time": 306, "velocity": 108, "pitch": 64, "instrument": 0, "track": 9, "qtime": 18, "isDrum": true}, {"time": 307, "velocity": 0, "pitch": 64, "instrument": 0, "track": 9, "qtime": 19, "isDrum": true}, {"time": 312, "velocity": 108, "pitch": 64, "instrument": 0, "track": 9, "qtime": 24, "isDrum": true}, {"time": 313, "velocity": 0, "pitch": 64, "instrument": 0, "track": 9, "qtime": 25, "isDrum": true}, {"time": 318, "velocity": 108, "pitch": 62, "instrument": 0, "track": 9, "qtime": 30, "isDrum": true}, {"time": 320, "velocity": 0, "pitch": 62, "instrument": 0, "track": 9, "qtime": 32, "isDrum": true}, {"time": 324, "velocity": 108, "pitch": 63, "instrument": 0, "track": 9, "qtime": 36, "isDrum": true}, {"time": 325, "velocity": 0, "pitch": 63, "instrument": 0, "track": 9, "qtime": 37, "isDrum": true}, {"time": 330, "velocity": 108, "pitch": 64, "instrument": 0, "track": 9, "qtime": 42, "isDrum": true}, {"time": 331, "velocity": 0, "pitch": 64, "instrument": 0, "track": 9, "qtime": 43, "isDrum": true}, {"time": 336, "velocity": 108, "pitch": 64, "instrument": 0, "track": 9, "qtime": 0, "isDrum": true}, {"time": 338, "velocity": 0, "pitch": 64, "instrument": 0, "track": 9, "qtime": 2, "isDrum": true}, {"time": 342, "velocity": 108, "pitch": 63, "instrument": 0, "track": 9, "qtime": 6, "isDrum": true}, {"time": 343, "velocity": 0, "pitch": 63, "instrument": 0, "track": 9, "qtime": 7, "isDrum": true}, {"time": 348, "velocity": 108, "pitch": 62, "instrument": 0, "track": 9, "qtime": 12, "isDrum": true}, {"time": 350, "velocity": 0, "pitch": 62, "instrument": 0, "track": 9, "qtime": 14, "isDrum": true}, {"time": 354, "velocity": 108, "pitch": 64, "instrument": 0, "track": 9, "qtime": 18, "isDrum": true}, {"time": 355, "velocity": 0, "pitch": 64, "instrument": 0, "track": 9, "qtime": 19, "isDrum": true}, {"time": 360, "velocity": 108, "pitch": 64, "instrument": 0, "track": 9, "qtime": 24, "isDrum": true}, {"time": 361, "velocity": 0, "pitch": 64, "instrument": 0, "track": 9, "qtime": 25, "isDrum": true}, {"time": 366, "velocity": 108, "pitch": 62, "instrument": 0, "track": 9, "qtime": 30, "isDrum": true}, {"time": 368, "velocity": 0, "pitch": 62, "instrument": 0, "track": 9, "qtime": 32, "isDrum": true}, {"time": 372, "velocity": 108, "pitch": 63, "instrument": 0, "track": 9, "qtime": 36, "isDrum": true}, {"time": 373, "velocity": 0, "pitch": 63, "instrument": 0, "track": 9, "qtime": 37, "isDrum": true}, {"time": 378, "velocity": 108, "pitch": 64, "instrument": 0, "track": 9, "qtime": 42, "isDrum": true}, {"time": 379, "velocity": 0, "pitch": 64, "instrument": 0, "track": 9, "qtime": 43, "isDrum": true}, {"time": 0, "velocity": 108, "pitch": 62, "instrument": 0, "track": 4, "qtime": 0, "isDrum": false}, {"time": 48, "velocity": 0, "pitch": 62, "instrument": 0, "track": 4, "qtime": 48, "isDrum": false}, {"time": 48, "velocity": 108, "pitch": 64, "instrument": 0, "track": 4, "qtime": 0, "isDrum": false}, {"time": 96, "velocity": 0, "pitch": 64, "instrument": 0, "track": 4, "qtime": 48, "isDrum": false}, {"time": 96, "velocity": 108, "pitch": 65, "instrument": 0, "track": 4, "qtime": 0, "isDrum": false}, {"time": 120, "velocity": 0, "pitch": 65, "instrument": 0, "track": 4, "qtime": 24, "isDrum": false}, {"time": 120, "velocity": 108, "pitch": 64, "instrument": 0, "track": 4, "qtime": 24, "isDrum": false}, {"time": 144, "velocity": 0, "pitch": 64, "instrument": 0, "track": 4, "qtime": 48, "isDrum": false}, {"time": 144, "velocity": 108, "pitch": 63, "instrument": 0, "track": 4, "qtime": 0, "isDrum": false}, {"time": 192, "velocity": 0, "pitch": 63, "instrument": 0, "track": 4, "qtime": 48, "isDrum": false}, {"time": 192, "velocity": 108, "pitch": 59, "instrument": 0, "track": 4, "qtime": 0, "isDrum": false}, {"time": 228, "velocity": 0, "pitch": 59, "instrument": 0, "track": 4, "qtime": 36, "isDrum": false}, {"time": 228, "velocity": 108, "pitch": 62, "instrument": 0, "track": 4, "qtime": 36, "isDrum": false}, {"time": 240, "velocity": 0, "pitch": 62, "instrument": 0, "track": 4, "qtime": 48, "isDrum": false}, {"time": 240, "velocity": 108, "pitch": 64, "instrument": 0, "track": 4, "qtime": 0, "isDrum": false}, {"time": 288, "velocity": 0, "pitch": 64, "instrument": 0, "track": 4, "qtime": 48, "isDrum": false}, {"time": 288, "velocity": 108, "pitch": 65, "instrument": 0, "track": 4, "qtime": 0, "isDrum": false}, {"time": 312, "velocity": 0, "pitch": 65, "instrument": 0, "track": 4, "qtime": 24, "isDrum": false}, {"time": 312, "velocity": 108, "pitch": 64, "instrument": 0, "track": 4, "qtime": 24, "isDrum": false}, {"time": 336, "velocity": 0, "pitch": 64, "instrument": 0, "track": 4, "qtime": 48, "isDrum": false}, {"time": 336, "velocity": 108, "pitch": 62, "instrument": 0, "track": 4, "qtime": 0, "isDrum": false}, {"time": 384, "velocity": 0, "pitch": 62, "instrument": 0, "track": 4, "qtime": 48, "isDrum": false}], "resolution": 12, "tempo": 88, "minPitch": 28, "maxPitch": 69, "validSegments": [0], "validTracks": [31]}, "audio": "https://www.sfu.ca/~jeffe/examples/8b_ex6_density_0.mp3"}, {"src": "gen/8b_ex6_density_3.json", "highlights": [[], [0, 1, 2, 3, 4, 5, 6, 7], []], "caption": "Resample the piano track in 20a with medium-low density.", "sample_id": "20c", "mixer": [8, 8, 8, 8, 8], "json": {"tracks": [{"bars": [{"events": [0, 1, 2, 3, 4, 5, 6, 7, 8, 9], "isFourFour": true, "hasNotes": true, "time": 0}, {"events": [10, 11, 12, 13, 14, 15, 16, 17, 18, 19], "isFourFour": true, "hasNotes": true, "time": 48}, {"events": [20, 21, 22, 23, 24, 25, 26, 27], "isFourFour": true, "hasNotes": true, "time": 96}, {"events": [28, 29, 30, 31, 32, 33, 34, 35, 36, 37], "isFourFour": true, "hasNotes": true, "time": 144}, {"events": [38, 39, 40, 41, 42, 43, 44, 45], "isFourFour": true, "hasNotes": true, "time": 192}, {"events": [46, 47, 48, 49, 50, 51, 52, 53, 54, 55], "isFourFour": true, "hasNotes": true, "time": 240}, {"events": [56, 57, 58, 59, 60, 61, 62, 63], "isFourFour": true, "hasNotes": true, "time": 288}, {"events": [64, 65, 66, 67, 68, 69, 70, 71], "isFourFour": true, "hasNotes": true, "time": 336}], "isDrum": false, "minPitch": 28, "maxPitch": 40, "instrument": 0, "avPolyphony": 1.00295854, "noteDensity": 9, "noteDensityV2": 3}, {"bars": [{"events": [390, 391, 392, 393, 394, 395], "isFourFour": true, "hasNotes": true, "time": 0}, {"events": [396, 397, 398, 399, 400, 401], "isFourFour": true, "hasNotes": true, "time": 48}, {"events": [402, 403, 404, 405, 406, 407, 408, 409, 410, 411, 412, 413], "isFourFour": true, "hasNotes": true, "time": 96}, {"events": [414, 415, 416, 417, 418, 419], "isFourFour": true, "hasNotes": true, "time": 144}, {"events": [420, 421, 422, 423, 424, 425], "isFourFour": true, "hasNotes": true, "time": 192}, {"events": [426, 427, 428, 429, 430, 431], "isFourFour": true, "hasNotes": true, "time": 240}, {"events": [432, 433, 434, 435, 436, 437, 438, 439, 440, 441, 442, 443], "isFourFour": true, "hasNotes": true, "time": 288}, {"events": [444, 445, 446, 447, 448], "isFourFour": true, "hasNotes": true, "time": 336}], "isDrum": false, "minPitch": 60, "maxPitch": 76, "instrument": 0, "avPolyphony": 2.92459, "noteDensity": 8, "noteDensityV2": 2}, {"bars": [{"events": [72, 73, 74, 75], "isFourFour": true, "hasNotes": true, "time": 0}, {"events": [76, 77, 78, 79], "isFourFour": true, "hasNotes": true, "time": 48}, {"events": [80, 81, 82, 83], "isFourFour": true, "hasNotes": true, "time": 96}, {"events": [84, 85, 86, 87], "isFourFour": true, "hasNotes": true, "time": 144}, {"events": [88, 89, 90, 91, 92, 93], "isFourFour": true, "hasNotes": true, "time": 192}, {"events": [94, 95, 96, 97], "isFourFour": true, "hasNotes": true, "time": 240}, {"events": [98, 99, 100, 101], "isFourFour": true, "hasNotes": true, "time": 288}, {"events": [102, 103, 104, 105], "isFourFour": true, "hasNotes": true, "time": 336}], "isDrum": true, "minPitch": 42, "maxPitch": 46, "instrument": 0, "avPolyphony": 1, "noteDensity": 5, "noteDensityV2": 0}, {"bars": [{"events": [106, 107, 108, 109, 110, 111, 112, 113, 114, 115, 116, 117, 118, 119, 120, 121, 122, 123, 124, 125], "isFourFour": true, "hasNotes": true, "time": 0}, {"events": [126, 127, 128, 129, 130, 131, 132, 133, 134, 135, 136, 137, 138, 139, 140, 141, 142, 143, 144, 145], "isFourFour": true, "hasNotes": true, "time": 48}, {"events": [146, 147, 148, 149, 150, 151, 152, 153, 154, 155, 156, 157, 158, 159, 160, 161, 162, 163, 164, 165], "isFourFour": true, "hasNotes": true, "time": 96}, {"events": [166, 167, 168, 169, 170, 171, 172, 173, 174, 175, 176, 177, 178, 179, 180, 181, 182, 183, 184, 185], "isFourFour": true, "hasNotes": true, "time": 144}, {"events": [186, 187, 188, 189, 190, 191, 192, 193, 194, 195, 196, 197, 198, 199, 200, 201, 202, 203, 204, 205], "isFourFour": true, "hasNotes": true, "time": 192}, {"events": [206, 207, 208, 209, 210, 211, 212, 213, 214, 215, 216, 217, 218, 219, 220, 221, 222, 223, 224, 225], "isFourFour": true, "hasNotes": true, "time": 240}, {"events": [226, 227, 228, 229, 230, 231, 232, 233, 234, 235, 236, 237, 238, 239, 240, 241, 242, 243, 244, 245], "isFourFour": true, "hasNotes": true, "time": 288}, {"events": [246, 247, 248, 249, 250, 251, 252, 253, 254, 255, 256, 257, 258, 259, 260, 261, 262, 263, 264, 265], "isFourFour": true, "hasNotes": true, "time": 336}], "isDrum": true, "minPitch": 69, "maxPitch": 69, "instrument": 0, "avPolyphony": 1, "noteDensity": 9, "noteDensityV2": 4}, {"bars": [{"events": [266, 267, 268, 269, 270, 271, 272, 273, 274, 275, 276, 277, 278, 279, 280, 281], "isFourFour": true, "hasNotes": true, "time": 0}, {"events": [282, 283, 284, 285, 286, 287, 288, 289, 290, 291, 292, 293, 294, 295, 296, 297], "isFourFour": true, "hasNotes": true, "time": 48}, {"events": [298, 299, 300, 301, 302, 303, 304, 305, 306, 307, 308, 309, 310, 311, 312, 313], "isFourFour": true, "hasNotes": true, "time": 96}, {"events": [314, 315, 316, 317, 318, 319, 320, 321, 322, 323, 324, 325, 326, 327, 328, 329], "isFourFour": true, "hasNotes": true, "time": 144}, {"events": [330, 331, 332, 333, 334, 335, 336, 337, 338, 339, 340, 341], "isFourFour": true, "hasNotes": true, "time": 192}, {"events": [342, 343, 344, 345, 346, 347, 348, 349, 350, 351, 352, 353, 354, 355, 356, 357], "isFourFour": true, "hasNotes": true, "time": 240}, {"events": [358, 359, 360, 361, 362, 363, 364, 365, 366, 367, 368, 369, 370, 371, 372, 373], "isFourFour": true, "hasNotes": true, "time": 288}, {"events": [374, 375, 376, 377, 378, 379, 380, 381, 382, 383, 384, 385, 386, 387, 388, 389], "isFourFour": true, "hasNotes": true, "time": 336}], "isDrum": true, "minPitch": 62, "maxPitch": 64, "instrument": 0, "avPolyphony": 1, "noteDensity": 9, "noteDensityV2": 3}], "events": [{"time": 0, "velocity": 108, "pitch": 28, "instrument": 0, "track": 0, "qtime": 0, "isDrum": false}, {"time": 11, "velocity": 0, "pitch": 28, "instrument": 0, "track": 0, "qtime": 11, "isDrum": false}, {"time": 12, "velocity": 108, "pitch": 35, "instrument": 0, "track": 0, "qtime": 12, "isDrum": false}, {"time": 23, "velocity": 0, "pitch": 35, "instrument": 0, "track": 0, "qtime": 23, "isDrum": false}, {"time": 24, "velocity": 108, "pitch": 40, "instrument": 0, "track": 0, "qtime": 24, "isDrum": false}, {"time": 32, "velocity": 0, "pitch": 40, "instrument": 0, "track": 0, "qtime": 32, "isDrum": false}, {"time": 32, "velocity": 108, "pitch": 28, "instrument": 0, "track": 0, "qtime": 32, "isDrum": false}, {"time": 39, "velocity": 0, "pitch": 28, "instrument": 0, "track": 0, "qtime": 39, "isDrum": false}, {"time": 40, "velocity": 108, "pitch": 32, "instrument": 0, "track": 0, "qtime": 40, "isDrum": false}, {"time": 48, "velocity": 0, "pitch": 32, "instrument": 0, "track": 0, "qtime": 48, "isDrum": false}, {"time": 48, "velocity": 108, "pitch": 33, "instrument": 0, "track": 0, "qtime": 0, "isDrum": false}, {"time": 63, "velocity": 0, "pitch": 33, "instrument": 0, "track": 0, "qtime": 15, "isDrum": false}, {"time": 66, "velocity": 108, "pitch": 33, "instrument": 0, "track": 0, "qtime": 18, "isDrum": false}, {"time": 70, "velocity": 0, "pitch": 33, "instrument": 0, "track": 0, "qtime": 22, "isDrum": false}, {"time": 72, "velocity": 108, "pitch": 33, "instrument": 0, "track": 0, "qtime": 24, "isDrum": false}, {"time": 79, "velocity": 0, "pitch": 33, "instrument": 0, "track": 0, "qtime": 31, "isDrum": false}, {"time": 80, "velocity": 108, "pitch": 35, "instrument": 0, "track": 0, "qtime": 32, "isDrum": false}, {"time": 88, "velocity": 0, "pitch": 35, "instrument": 0, "track": 0, "qtime": 40, "isDrum": false}, {"time": 88, "velocity": 108, "pitch": 36, "instrument": 0, "track": 0, "qtime": 40, "isDrum": false}, {"time": 95, "velocity": 0, "pitch": 36, "instrument": 0, "track": 0, "qtime": 47, "isDrum": false}, {"time": 96, "velocity": 108, "pitch": 38, "instrument": 0, "track": 0, "qtime": 0, "isDrum": false}, {"time": 106, "velocity": 0, "pitch": 38, "instrument": 0, "track": 0, "qtime": 10, "isDrum": false}, {"time": 108, "velocity": 108, "pitch": 38, "instrument": 0, "track": 0, "qtime": 12, "isDrum": false}, {"time": 119, "velocity": 0, "pitch": 38, "instrument": 0, "track": 0, "qtime": 23, "isDrum": false}, {"time": 120, "velocity": 108, "pitch": 36, "instrument": 0, "track": 0, "qtime": 24, "isDrum": false}, {"time": 130, "velocity": 0, "pitch": 36, "instrument": 0, "track": 0, "qtime": 34, "isDrum": false}, {"time": 132, "velocity": 108, "pitch": 36, "instrument": 0, "track": 0, "qtime": 36, "isDrum": false}, {"time": 142, "velocity": 0, "pitch": 36, "instrument": 0, "track": 0, "qtime": 46, "isDrum": false}, {"time": 144, "velocity": 108, "pitch": 35, "instrument": 0, "track": 0, "qtime": 0, "isDrum": false}, {"time": 160, "velocity": 0, "pitch": 35, "instrument": 0, "track": 0, "qtime": 16, "isDrum": false}, {"time": 162, "velocity": 108, "pitch": 35, "instrument": 0, "track": 0, "qtime": 18, "isDrum": false}, {"time": 167, "velocity": 0, "pitch": 35, "instrument": 0, "track": 0, "qtime": 23, "isDrum": false}, {"time": 168, "velocity": 108, "pitch": 35, "instrument": 0, "track": 0, "qtime": 24, "isDrum": false}, {"time": 176, "velocity": 0, "pitch": 35, "instrument": 0, "track": 0, "qtime": 32, "isDrum": false}, {"time": 176, "velocity": 108, "pitch": 36, "instrument": 0, "track": 0, "qtime": 32, "isDrum": false}, {"time": 183, "velocity": 0, "pitch": 36, "instrument": 0, "track": 0, "qtime": 39, "isDrum": false}, {"time": 184, "velocity": 108, "pitch": 38, "instrument": 0, "track": 0, "qtime": 40, "isDrum": false}, {"time": 192, "velocity": 0, "pitch": 38, "instrument": 0, "track": 0, "qtime": 48, "isDrum": false}, {"time": 192, "velocity": 108, "pitch": 40, "instrument": 0, "track": 0, "qtime": 0, "isDrum": false}, {"time": 203, "velocity": 0, "pitch": 40, "instrument": 0, "track": 0, "qtime": 11, "isDrum": false}, {"time": 204, "velocity": 108, "pitch": 35, "instrument": 0, "track": 0, "qtime": 12, "isDrum": false}, {"time": 216, "velocity": 0, "pitch": 35, "instrument": 0, "track": 0, "qtime": 24, "isDrum": false}, {"time": 216, "velocity": 108, "pitch": 28, "instrument": 0, "track": 0, "qtime": 24, "isDrum": false}, {"time": 228, "velocity": 0, "pitch": 28, "instrument": 0, "track": 0, "qtime": 36, "isDrum": false}, {"time": 228, "velocity": 108, "pitch": 32, "instrument": 0, "track": 0, "qtime": 36, "isDrum": false}, {"time": 240, "velocity": 0, "pitch": 32, "instrument": 0, "track": 0, "qtime": 48, "isDrum": false}, {"time": 240, "velocity": 108, "pitch": 33, "instrument": 0, "track": 0, "qtime": 0, "isDrum": false}, {"time": 255, "velocity": 0, "pitch": 33, "instrument": 0, "track": 0, "qtime": 15, "isDrum": false}, {"time": 258, "velocity": 108, "pitch": 33, "instrument": 0, "track": 0, "qtime": 18, "isDrum": false}, {"time": 262, "velocity": 0, "pitch": 33, "instrument": 0, "track": 0, "qtime": 22, "isDrum": false}, {"time": 264, "velocity": 108, "pitch": 33, "instrument": 0, "track": 0, "qtime": 24, "isDrum": false}, {"time": 272, "velocity": 0, "pitch": 33, "instrument": 0, "track": 0, "qtime": 32, "isDrum": false}, {"time": 272, "velocity": 108, "pitch": 35, "instrument": 0, "track": 0, "qtime": 32, "isDrum": false}, {"time": 280, "velocity": 0, "pitch": 35, "instrument": 0, "track": 0, "qtime": 40, "isDrum": false}, {"time": 280, "velocity": 108, "pitch": 36, "instrument": 0, "track": 0, "qtime": 40, "isDrum": false}, {"time": 287, "velocity": 0, "pitch": 36, "instrument": 0, "track": 0, "qtime": 47, "isDrum": false}, {"time": 288, "velocity": 108, "pitch": 38, "instrument": 0, "track": 0, "qtime": 0, "isDrum": false}, {"time": 299, "velocity": 0, "pitch": 38, "instrument": 0, "track": 0, "qtime": 11, "isDrum": false}, {"time": 300, "velocity": 108, "pitch": 38, "instrument": 0, "track": 0, "qtime": 12, "isDrum": false}, {"time": 312, "velocity": 0, "pitch": 38, "instrument": 0, "track": 0, "qtime": 24, "isDrum": false}, {"time": 312, "velocity": 108, "pitch": 30, "instrument": 0, "track": 0, "qtime": 24, "isDrum": false}, {"time": 323, "velocity": 0, "pitch": 30, "instrument": 0, "track": 0, "qtime": 35, "isDrum": false}, {"time": 324, "velocity": 108, "pitch": 30, "instrument": 0, "track": 0, "qtime": 36, "isDrum": false}, {"time": 335, "velocity": 0, "pitch": 30, "instrument": 0, "track": 0, "qtime": 47, "isDrum": false}, {"time": 336, "velocity": 108, "pitch": 31, "instrument": 0, "track": 0, "qtime": 0, "isDrum": false}, {"time": 350, "velocity": 0, "pitch": 31, "instrument": 0, "track": 0, "qtime": 14, "isDrum": false}, {"time": 354, "velocity": 108, "pitch": 31, "instrument": 0, "track": 0, "qtime": 18, "isDrum": false}, {"time": 355, "velocity": 0, "pitch": 31, "instrument": 0, "track": 0, "qtime": 19, "isDrum": false}, {"time": 360, "velocity": 108, "pitch": 31, "instrument": 0, "track": 0, "qtime": 24, "isDrum": false}, {"time": 372, "velocity": 108, "pitch": 29, "instrument": 0, "track": 0, "qtime": 36, "isDrum": false}, {"time": 373, "velocity": 0, "pitch": 31, "instrument": 0, "track": 0, "qtime": 37, "isDrum": false}, {"time": 378, "velocity": 0, "pitch": 29, "instrument": 0, "track": 0, "qtime": 42, "isDrum": false}, {"time": 12, "velocity": 108, "pitch": 42, "instrument": 0, "track": 9, "qtime": 12, "isDrum": true}, {"time": 13, "velocity": 0, "pitch": 42, "instrument": 0, "track": 9, "qtime": 13, "isDrum": true}, {"time": 36, "velocity": 108, "pitch": 46, "instrument": 0, "track": 9, "qtime": 36, "isDrum": true}, {"time": 37, "velocity": 0, "pitch": 46, "instrument": 0, "track": 9, "qtime": 37, "isDrum": true}, {"time": 60, "velocity": 108, "pitch": 42, "instrument": 0, "track": 9, "qtime": 12, "isDrum": true}, {"time": 61, "velocity": 0, "pitch": 42, "instrument": 0, "track": 9, "qtime": 13, "isDrum": true}, {"time": 84, "velocity": 108, "pitch": 42, "instrument": 0, "track": 9, "qtime": 36, "isDrum": true}, {"time": 85, "velocity": 0, "pitch": 42, "instrument": 0, "track": 9, "qtime": 37, "isDrum": true}, {"time": 108, "velocity": 108, "pitch": 42, "instrument": 0, "track": 9, "qtime": 12, "isDrum": true}, {"time": 109, "velocity": 0, "pitch": 42, "instrument": 0, "track": 9, "qtime": 13, "isDrum": true}, {"time": 132, "velocity": 108, "pitch": 46, "instrument": 0, "track": 9, "qtime": 36, "isDrum": true}, {"time": 133, "velocity": 0, "pitch": 46, "instrument": 0, "track": 9, "qtime": 37, "isDrum": true}, {"time": 156, "velocity": 108, "pitch": 42, "instrument": 0, "track": 9, "qtime": 12, "isDrum": true}, {"time": 157, "velocity": 0, "pitch": 42, "instrument": 0, "track": 9, "qtime": 13, "isDrum": true}, {"time": 180, "velocity": 108, "pitch": 42, "instrument": 0, "track": 9, "qtime": 36, "isDrum": true}, {"time": 181, "velocity": 0, "pitch": 42, "instrument": 0, "track": 9, "qtime": 37, "isDrum": true}, {"time": 204, "velocity": 108, "pitch": 42, "instrument": 0, "track": 9, "qtime": 12, "isDrum": true}, {"time": 205, "velocity": 0, "pitch": 42, "instrument": 0, "track": 9, "qtime": 13, "isDrum": true}, {"time": 216, "velocity": 108, "pitch": 46, "instrument": 0, "track": 9, "qtime": 24, "isDrum": true}, {"time": 217, "velocity": 0, "pitch": 46, "instrument": 0, "track": 9, "qtime": 25, "isDrum": true}, {"time": 228, "velocity": 108, "pitch": 46, "instrument": 0, "track": 9, "qtime": 36, "isDrum": true}, {"time": 230, "velocity": 0, "pitch": 46, "instrument": 0, "track": 9, "qtime": 38, "isDrum": true}, {"time": 252, "velocity": 108, "pitch": 42, "instrument": 0, "track": 9, "qtime": 12, "isDrum": true}, {"time": 253, "velocity": 0, "pitch": 42, "instrument": 0, "track": 9, "qtime": 13, "isDrum": true}, {"time": 276, "velocity": 108, "pitch": 42, "instrument": 0, "track": 9, "qtime": 36, "isDrum": true}, {"time": 277, "velocity": 0, "pitch": 42, "instrument": 0, "track": 9, "qtime": 37, "isDrum": true}, {"time": 300, "velocity": 108, "pitch": 42, "instrument": 0, "track": 9, "qtime": 12, "isDrum": true}, {"time": 301, "velocity": 0, "pitch": 42, "instrument": 0, "track": 9, "qtime": 13, "isDrum": true}, {"time": 324, "velocity": 108, "pitch": 42, "instrument": 0, "track": 9, "qtime": 36, "isDrum": true}, {"time": 325, "velocity": 0, "pitch": 42, "instrument": 0, "track": 9, "qtime": 37, "isDrum": true}, {"time": 348, "velocity": 108, "pitch": 42, "instrument": 0, "track": 9, "qtime": 12, "isDrum": true}, {"time": 349, "velocity": 0, "pitch": 42, "instrument": 0, "track": 9, "qtime": 13, "isDrum": true}, {"time": 372, "velocity": 108, "pitch": 42, "instrument": 0, "track": 9, "qtime": 36, "isDrum": true}, {"time": 373, "velocity": 0, "pitch": 42, "instrument": 0, "track": 9, "qtime": 37, "isDrum": true}, {"time": 0, "velocity": 108, "pitch": 69, "instrument": 0, "track": 9, "qtime": 0, "isDrum": true}, {"time": 1, "velocity": 0, "pitch": 69, "instrument": 0, "track": 9, "qtime": 1, "isDrum": true}, {"time": 6, "velocity": 108, "pitch": 69, "instrument": 0, "track": 9, "qtime": 6, "isDrum": true}, {"time": 7, "velocity": 0, "pitch": 69, "instrument": 0, "track": 9, "qtime": 7, "isDrum": true}, {"time": 8, "velocity": 108, "pitch": 69, "instrument": 0, "track": 9, "qtime": 8, "isDrum": true}, {"time": 9, "velocity": 0, "pitch": 69, "instrument": 0, "track": 9, "qtime": 9, "isDrum": true}, {"time": 10, "velocity": 108, "pitch": 69, "instrument": 0, "track": 9, "qtime": 10, "isDrum": true}, {"time": 11, "velocity": 0, "pitch": 69, "instrument": 0, "track": 9, "qtime": 11, "isDrum": true}, {"time": 12, "velocity": 108, "pitch": 69, "instrument": 0, "track": 9, "qtime": 12, "isDrum": true}, {"time": 13, "velocity": 0, "pitch": 69, "instrument": 0, "track": 9, "qtime": 13, "isDrum": true}, {"time": 18, "velocity": 108, "pitch": 69, "instrument": 0, "track": 9, "qtime": 18, "isDrum": true}, {"time": 19, "velocity": 0, "pitch": 69, "instrument": 0, "track": 9, "qtime": 19, "isDrum": true}, {"time": 24, "velocity": 108, "pitch": 69, "instrument": 0, "track": 9, "qtime": 24, "isDrum": true}, {"time": 25, "velocity": 0, "pitch": 69, "instrument": 0, "track": 9, "qtime": 25, "isDrum": true}, {"time": 30, "velocity": 108, "pitch": 69, "instrument": 0, "track": 9, "qtime": 30, "isDrum": true}, {"time": 31, "velocity": 0, "pitch": 69, "instrument": 0, "track": 9, "qtime": 31, "isDrum": true}, {"time": 36, "velocity": 108, "pitch": 69, "instrument": 0, "track": 9, "qtime": 36, "isDrum": true}, {"time": 37, "velocity": 0, "pitch": 69, "instrument": 0, "track": 9, "qtime": 37, "isDrum": true}, {"time": 42, "velocity": 108, "pitch": 69, "instrument": 0, "track": 9, "qtime": 42, "isDrum": true}, {"time": 43, "velocity": 0, "pitch": 69, "instrument": 0, "track": 9, "qtime": 43, "isDrum": true}, {"time": 48, "velocity": 108, "pitch": 69, "instrument": 0, "track": 9, "qtime": 0, "isDrum": true}, {"time": 49, "velocity": 0, "pitch": 69, "instrument": 0, "track": 9, "qtime": 1, "isDrum": true}, {"time": 54, "velocity": 108, "pitch": 69, "instrument": 0, "track": 9, "qtime": 6, "isDrum": true}, {"time": 55, "velocity": 0, "pitch": 69, "instrument": 0, "track": 9, "qtime": 7, "isDrum": true}, {"time": 56, "velocity": 108, "pitch": 69, "instrument": 0, "track": 9, "qtime": 8, "isDrum": true}, {"time": 57, "velocity": 0, "pitch": 69, "instrument": 0, "track": 9, "qtime": 9, "isDrum": true}, {"time": 58, "velocity": 108, "pitch": 69, "instrument": 0, "track": 9, "qtime": 10, "isDrum": true}, {"time": 59, "velocity": 0, "pitch": 69, "instrument": 0, "track": 9, "qtime": 11, "isDrum": true}, {"time": 60, "velocity": 108, "pitch": 69, "instrument": 0, "track": 9, "qtime": 12, "isDrum": true}, {"time": 61, "velocity": 0, "pitch": 69, "instrument": 0, "track": 9, "qtime": 13, "isDrum": true}, {"time": 66, "velocity": 108, "pitch": 69, "instrument": 0, "track": 9, "qtime": 18, "isDrum": true}, {"time": 67, "velocity": 0, "pitch": 69, "instrument": 0, "track": 9, "qtime": 19, "isDrum": true}, {"time": 72, "velocity": 108, "pitch": 69, "instrument": 0, "track": 9, "qtime": 24, "isDrum": true}, {"time": 73, "velocity": 0, "pitch": 69, "instrument": 0, "track": 9, "qtime": 25, "isDrum": true}, {"time": 78, "velocity": 108, "pitch": 69, "instrument": 0, "track": 9, "qtime": 30, "isDrum": true}, {"time": 79, "velocity": 0, "pitch": 69, "instrument": 0, "track": 9, "qtime": 31, "isDrum": true}, {"time": 84, "velocity": 108, "pitch": 69, "instrument": 0, "track": 9, "qtime": 36, "isDrum": true}, {"time": 85, "velocity": 0, "pitch": 69, "instrument": 0, "track": 9, "qtime": 37, "isDrum": true}, {"time": 90, "velocity": 108, "pitch": 69, "instrument": 0, "track": 9, "qtime": 42, "isDrum": true}, {"time": 91, "velocity": 0, "pitch": 69, "instrument": 0, "track": 9, "qtime": 43, "isDrum": true}, {"time": 96, "velocity": 108, "pitch": 69, "instrument": 0, "track": 9, "qtime": 0, "isDrum": true}, {"time": 97, "velocity": 0, "pitch": 69, "instrument": 0, "track": 9, "qtime": 1, "isDrum": true}, {"time": 102, "velocity": 108, "pitch": 69, "instrument": 0, "track": 9, "qtime": 6, "isDrum": true}, {"time": 103, "velocity": 0, "pitch": 69, "instrument": 0, "track": 9, "qtime": 7, "isDrum": true}, {"time": 104, "velocity": 108, "pitch": 69, "instrument": 0, "track": 9, "qtime": 8, "isDrum": true}, {"time": 105, "velocity": 0, "pitch": 69, "instrument": 0, "track": 9, "qtime": 9, "isDrum": true}, {"time": 106, "velocity": 108, "pitch": 69, "instrument": 0, "track": 9, "qtime": 10, "isDrum": true}, {"time": 107, "velocity": 0, "pitch": 69, "instrument": 0, "track": 9, "qtime": 11, "isDrum": true}, {"time": 108, "velocity": 108, "pitch": 69, "instrument": 0, "track": 9, "qtime": 12, "isDrum": true}, {"time": 109, "velocity": 0, "pitch": 69, "instrument": 0, "track": 9, "qtime": 13, "isDrum": true}, {"time": 114, "velocity": 108, "pitch": 69, "instrument": 0, "track": 9, "qtime": 18, "isDrum": true}, {"time": 115, "velocity": 0, "pitch": 69, "instrument": 0, "track": 9, "qtime": 19, "isDrum": true}, {"time": 120, "velocity": 108, "pitch": 69, "instrument": 0, "track": 9, "qtime": 24, "isDrum": true}, {"time": 121, "velocity": 0, "pitch": 69, "instrument": 0, "track": 9, "qtime": 25, "isDrum": true}, {"time": 126, "velocity": 108, "pitch": 69, "instrument": 0, "track": 9, "qtime": 30, "isDrum": true}, {"time": 127, "velocity": 0, "pitch": 69, "instrument": 0, "track": 9, "qtime": 31, "isDrum": true}, {"time": 132, "velocity": 108, "pitch": 69, "instrument": 0, "track": 9, "qtime": 36, "isDrum": true}, {"time": 133, "velocity": 0, "pitch": 69, "instrument": 0, "track": 9, "qtime": 37, "isDrum": true}, {"time": 138, "velocity": 108, "pitch": 69, "instrument": 0, "track": 9, "qtime": 42, "isDrum": true}, {"time": 139, "velocity": 0, "pitch": 69, "instrument": 0, "track": 9, "qtime": 43, "isDrum": true}, {"time": 144, "velocity": 108, "pitch": 69, "instrument": 0, "track": 9, "qtime": 0, "isDrum": true}, {"time": 145, "velocity": 0, "pitch": 69, "instrument": 0, "track": 9, "qtime": 1, "isDrum": true}, {"time": 150, "velocity": 108, "pitch": 69, "instrument": 0, "track": 9, "qtime": 6, "isDrum": true}, {"time": 151, "velocity": 0, "pitch": 69, "instrument": 0, "track": 9, "qtime": 7, "isDrum": true}, {"time": 152, "velocity": 108, "pitch": 69, "instrument": 0, "track": 9, "qtime": 8, "isDrum": true}, {"time": 153, "velocity": 0, "pitch": 69, "instrument": 0, "track": 9, "qtime": 9, "isDrum": true}, {"time": 154, "velocity": 108, "pitch": 69, "instrument": 0, "track": 9, "qtime": 10, "isDrum": true}, {"time": 155, "velocity": 0, "pitch": 69, "instrument": 0, "track": 9, "qtime": 11, "isDrum": true}, {"time": 156, "velocity": 108, "pitch": 69, "instrument": 0, "track": 9, "qtime": 12, "isDrum": true}, {"time": 157, "velocity": 0, "pitch": 69, "instrument": 0, "track": 9, "qtime": 13, "isDrum": true}, {"time": 162, "velocity": 108, "pitch": 69, "instrument": 0, "track": 9, "qtime": 18, "isDrum": true}, {"time": 163, "velocity": 0, "pitch": 69, "instrument": 0, "track": 9, "qtime": 19, "isDrum": true}, {"time": 168, "velocity": 108, "pitch": 69, "instrument": 0, "track": 9, "qtime": 24, "isDrum": true}, {"time": 169, "velocity": 0, "pitch": 69, "instrument": 0, "track": 9, "qtime": 25, "isDrum": true}, {"time": 174, "velocity": 108, "pitch": 69, "instrument": 0, "track": 9, "qtime": 30, "isDrum": true}, {"time": 175, "velocity": 0, "pitch": 69, "instrument": 0, "track": 9, "qtime": 31, "isDrum": true}, {"time": 180, "velocity": 108, "pitch": 69, "instrument": 0, "track": 9, "qtime": 36, "isDrum": true}, {"time": 181, "velocity": 0, "pitch": 69, "instrument": 0, "track": 9, "qtime": 37, "isDrum": true}, {"time": 186, "velocity": 108, "pitch": 69, "instrument": 0, "track": 9, "qtime": 42, "isDrum": true}, {"time": 187, "velocity": 0, "pitch": 69, "instrument": 0, "track": 9, "qtime": 43, "isDrum": true}, {"time": 192, "velocity": 108, "pitch": 69, "instrument": 0, "track": 9, "qtime": 0, "isDrum": true}, {"time": 193, "velocity": 0, "pitch": 69, "instrument": 0, "track": 9, "qtime": 1, "isDrum": true}, {"time": 198, "velocity": 108, "pitch": 69, "instrument": 0, "track": 9, "qtime": 6, "isDrum": true}, {"time": 199, "velocity": 0, "pitch": 69, "instrument": 0, "track": 9, "qtime": 7, "isDrum": true}, {"time": 200, "velocity": 108, "pitch": 69, "instrument": 0, "track": 9, "qtime": 8, "isDrum": true}, {"time": 201, "velocity": 0, "pitch": 69, "instrument": 0, "track": 9, "qtime": 9, "isDrum": true}, {"time": 202, "velocity": 108, "pitch": 69, "instrument": 0, "track": 9, "qtime": 10, "isDrum": true}, {"time": 203, "velocity": 0, "pitch": 69, "instrument": 0, "track": 9, "qtime": 11, "isDrum": true}, {"time": 204, "velocity": 108, "pitch": 69, "instrument": 0, "track": 9, "qtime": 12, "isDrum": true}, {"time": 205, "velocity": 0, "pitch": 69, "instrument": 0, "track": 9, "qtime": 13, "isDrum": true}, {"time": 210, "velocity": 108, "pitch": 69, "instrument": 0, "track": 9, "qtime": 18, "isDrum": true}, {"time": 211, "velocity": 0, "pitch": 69, "instrument": 0, "track": 9, "qtime": 19, "isDrum": true}, {"time": 216, "velocity": 108, "pitch": 69, "instrument": 0, "track": 9, "qtime": 24, "isDrum": true}, {"time": 217, "velocity": 0, "pitch": 69, "instrument": 0, "track": 9, "qtime": 25, "isDrum": true}, {"time": 222, "velocity": 108, "pitch": 69, "instrument": 0, "track": 9, "qtime": 30, "isDrum": true}, {"time": 223, "velocity": 0, "pitch": 69, "instrument": 0, "track": 9, "qtime": 31, "isDrum": true}, {"time": 228, "velocity": 108, "pitch": 69, "instrument": 0, "track": 9, "qtime": 36, "isDrum": true}, {"time": 229, "velocity": 0, "pitch": 69, "instrument": 0, "track": 9, "qtime": 37, "isDrum": true}, {"time": 234, "velocity": 108, "pitch": 69, "instrument": 0, "track": 9, "qtime": 42, "isDrum": true}, {"time": 235, "velocity": 0, "pitch": 69, "instrument": 0, "track": 9, "qtime": 43, "isDrum": true}, {"time": 240, "velocity": 108, "pitch": 69, "instrument": 0, "track": 9, "qtime": 0, "isDrum": true}, {"time": 241, "velocity": 0, "pitch": 69, "instrument": 0, "track": 9, "qtime": 1, "isDrum": true}, {"time": 246, "velocity": 108, "pitch": 69, "instrument": 0, "track": 9, "qtime": 6, "isDrum": true}, {"time": 247, "velocity": 0, "pitch": 69, "instrument": 0, "track": 9, "qtime": 7, "isDrum": true}, {"time": 248, "velocity": 108, "pitch": 69, "instrument": 0, "track": 9, "qtime": 8, "isDrum": true}, {"time": 249, "velocity": 0, "pitch": 69, "instrument": 0, "track": 9, "qtime": 9, "isDrum": true}, {"time": 250, "velocity": 108, "pitch": 69, "instrument": 0, "track": 9, "qtime": 10, "isDrum": true}, {"time": 251, "velocity": 0, "pitch": 69, "instrument": 0, "track": 9, "qtime": 11, "isDrum": true}, {"time": 252, "velocity": 108, "pitch": 69, "instrument": 0, "track": 9, "qtime": 12, "isDrum": true}, {"time": 253, "velocity": 0, "pitch": 69, "instrument": 0, "track": 9, "qtime": 13, "isDrum": true}, {"time": 258, "velocity": 108, "pitch": 69, "instrument": 0, "track": 9, "qtime": 18, "isDrum": true}, {"time": 259, "velocity": 0, "pitch": 69, "instrument": 0, "track": 9, "qtime": 19, "isDrum": true}, {"time": 264, "velocity": 108, "pitch": 69, "instrument": 0, "track": 9, "qtime": 24, "isDrum": true}, {"time": 265, "velocity": 0, "pitch": 69, "instrument": 0, "track": 9, "qtime": 25, "isDrum": true}, {"time": 270, "velocity": 108, "pitch": 69, "instrument": 0, "track": 9, "qtime": 30, "isDrum": true}, {"time": 271, "velocity": 0, "pitch": 69, "instrument": 0, "track": 9, "qtime": 31, "isDrum": true}, {"time": 276, "velocity": 108, "pitch": 69, "instrument": 0, "track": 9, "qtime": 36, "isDrum": true}, {"time": 277, "velocity": 0, "pitch": 69, "instrument": 0, "track": 9, "qtime": 37, "isDrum": true}, {"time": 282, "velocity": 108, "pitch": 69, "instrument": 0, "track": 9, "qtime": 42, "isDrum": true}, {"time": 283, "velocity": 0, "pitch": 69, "instrument": 0, "track": 9, "qtime": 43, "isDrum": true}, {"time": 288, "velocity": 108, "pitch": 69, "instrument": 0, "track": 9, "qtime": 0, "isDrum": true}, {"time": 289, "velocity": 0, "pitch": 69, "instrument": 0, "track": 9, "qtime": 1, "isDrum": true}, {"time": 294, "velocity": 108, "pitch": 69, "instrument": 0, "track": 9, "qtime": 6, "isDrum": true}, {"time": 295, "velocity": 0, "pitch": 69, "instrument": 0, "track": 9, "qtime": 7, "isDrum": true}, {"time": 296, "velocity": 108, "pitch": 69, "instrument": 0, "track": 9, "qtime": 8, "isDrum": true}, {"time": 297, "velocity": 0, "pitch": 69, "instrument": 0, "track": 9, "qtime": 9, "isDrum": true}, {"time": 298, "velocity": 108, "pitch": 69, "instrument": 0, "track": 9, "qtime": 10, "isDrum": true}, {"time": 299, "velocity": 0, "pitch": 69, "instrument": 0, "track": 9, "qtime": 11, "isDrum": true}, {"time": 300, "velocity": 108, "pitch": 69, "instrument": 0, "track": 9, "qtime": 12, "isDrum": true}, {"time": 301, "velocity": 0, "pitch": 69, "instrument": 0, "track": 9, "qtime": 13, "isDrum": true}, {"time": 306, "velocity": 108, "pitch": 69, "instrument": 0, "track": 9, "qtime": 18, "isDrum": true}, {"time": 307, "velocity": 0, "pitch": 69, "instrument": 0, "track": 9, "qtime": 19, "isDrum": true}, {"time": 312, "velocity": 108, "pitch": 69, "instrument": 0, "track": 9, "qtime": 24, "isDrum": true}, {"time": 313, "velocity": 0, "pitch": 69, "instrument": 0, "track": 9, "qtime": 25, "isDrum": true}, {"time": 318, "velocity": 108, "pitch": 69, "instrument": 0, "track": 9, "qtime": 30, "isDrum": true}, {"time": 319, "velocity": 0, "pitch": 69, "instrument": 0, "track": 9, "qtime": 31, "isDrum": true}, {"time": 324, "velocity": 108, "pitch": 69, "instrument": 0, "track": 9, "qtime": 36, "isDrum": true}, {"time": 325, "velocity": 0, "pitch": 69, "instrument": 0, "track": 9, "qtime": 37, "isDrum": true}, {"time": 330, "velocity": 108, "pitch": 69, "instrument": 0, "track": 9, "qtime": 42, "isDrum": true}, {"time": 331, "velocity": 0, "pitch": 69, "instrument": 0, "track": 9, "qtime": 43, "isDrum": true}, {"time": 336, "velocity": 108, "pitch": 69, "instrument": 0, "track": 9, "qtime": 0, "isDrum": true}, {"time": 337, "velocity": 0, "pitch": 69, "instrument": 0, "track": 9, "qtime": 1, "isDrum": true}, {"time": 342, "velocity": 108, "pitch": 69, "instrument": 0, "track": 9, "qtime": 6, "isDrum": true}, {"time": 343, "velocity": 0, "pitch": 69, "instrument": 0, "track": 9, "qtime": 7, "isDrum": true}, {"time": 344, "velocity": 108, "pitch": 69, "instrument": 0, "track": 9, "qtime": 8, "isDrum": true}, {"time": 345, "velocity": 0, "pitch": 69, "instrument": 0, "track": 9, "qtime": 9, "isDrum": true}, {"time": 346, "velocity": 108, "pitch": 69, "instrument": 0, "track": 9, "qtime": 10, "isDrum": true}, {"time": 347, "velocity": 0, "pitch": 69, "instrument": 0, "track": 9, "qtime": 11, "isDrum": true}, {"time": 348, "velocity": 108, "pitch": 69, "instrument": 0, "track": 9, "qtime": 12, "isDrum": true}, {"time": 349, "velocity": 0, "pitch": 69, "instrument": 0, "track": 9, "qtime": 13, "isDrum": true}, {"time": 354, "velocity": 108, "pitch": 69, "instrument": 0, "track": 9, "qtime": 18, "isDrum": true}, {"time": 355, "velocity": 0, "pitch": 69, "instrument": 0, "track": 9, "qtime": 19, "isDrum": true}, {"time": 360, "velocity": 108, "pitch": 69, "instrument": 0, "track": 9, "qtime": 24, "isDrum": true}, {"time": 361, "velocity": 0, "pitch": 69, "instrument": 0, "track": 9, "qtime": 25, "isDrum": true}, {"time": 366, "velocity": 108, "pitch": 69, "instrument": 0, "track": 9, "qtime": 30, "isDrum": true}, {"time": 367, "velocity": 0, "pitch": 69, "instrument": 0, "track": 9, "qtime": 31, "isDrum": true}, {"time": 372, "velocity": 108, "pitch": 69, "instrument": 0, "track": 9, "qtime": 36, "isDrum": true}, {"time": 373, "velocity": 0, "pitch": 69, "instrument": 0, "track": 9, "qtime": 37, "isDrum": true}, {"time": 378, "velocity": 108, "pitch": 69, "instrument": 0, "track": 9, "qtime": 42, "isDrum": true}, {"time": 379, "velocity": 0, "pitch": 69, "instrument": 0, "track": 9, "qtime": 43, "isDrum": true}, {"time": 0, "velocity": 108, "pitch": 64, "instrument": 0, "track": 9, "qtime": 0, "isDrum": true}, {"time": 2, "velocity": 0, "pitch": 64, "instrument": 0, "track": 9, "qtime": 2, "isDrum": true}, {"time": 6, "velocity": 108, "pitch": 63, "instrument": 0, "track": 9, "qtime": 6, "isDrum": true}, {"time": 7, "velocity": 0, "pitch": 63, "instrument": 0, "track": 9, "qtime": 7, "isDrum": true}, {"time": 12, "velocity": 108, "pitch": 62, "instrument": 0, "track": 9, "qtime": 12, "isDrum": true}, {"time": 14, "velocity": 0, "pitch": 62, "instrument": 0, "track": 9, "qtime": 14, "isDrum": true}, {"time": 18, "velocity": 108, "pitch": 64, "instrument": 0, "track": 9, "qtime": 18, "isDrum": true}, {"time": 19, "velocity": 0, "pitch": 64, "instrument": 0, "track": 9, "qtime": 19, "isDrum": true}, {"time": 24, "velocity": 108, "pitch": 64, "instrument": 0, "track": 9, "qtime": 24, "isDrum": true}, {"time": 25, "velocity": 0, "pitch": 64, "instrument": 0, "track": 9, "qtime": 25, "isDrum": true}, {"time": 30, "velocity": 108, "pitch": 62, "instrument": 0, "track": 9, "qtime": 30, "isDrum": true}, {"time": 32, "velocity": 0, "pitch": 62, "instrument": 0, "track": 9, "qtime": 32, "isDrum": true}, {"time": 36, "velocity": 108, "pitch": 63, "instrument": 0, "track": 9, "qtime": 36, "isDrum": true}, {"time": 37, "velocity": 0, "pitch": 63, "instrument": 0, "track": 9, "qtime": 37, "isDrum": true}, {"time": 42, "velocity": 108, "pitch": 64, "instrument": 0, "track": 9, "qtime": 42, "isDrum": true}, {"time": 43, "velocity": 0, "pitch": 64, "instrument": 0, "track": 9, "qtime": 43, "isDrum": true}, {"time": 48, "velocity": 108, "pitch": 64, "instrument": 0, "track": 9, "qtime": 0, "isDrum": true}, {"time": 50, "velocity": 0, "pitch": 64, "instrument": 0, "track": 9, "qtime": 2, "isDrum": true}, {"time": 54, "velocity": 108, "pitch": 63, "instrument": 0, "track": 9, "qtime": 6, "isDrum": true}, {"time": 55, "velocity": 0, "pitch": 63, "instrument": 0, "track": 9, "qtime": 7, "isDrum": true}, {"time": 60, "velocity": 108, "pitch": 62, "instrument": 0, "track": 9, "qtime": 12, "isDrum": true}, {"time": 62, "velocity": 0, "pitch": 62, "instrument": 0, "track": 9, "qtime": 14, "isDrum": true}, {"time": 66, "velocity": 108, "pitch": 64, "instrument": 0, "track": 9, "qtime": 18, "isDrum": true}, {"time": 67, "velocity": 0, "pitch": 64, "instrument": 0, "track": 9, "qtime": 19, "isDrum": true}, {"time": 72, "velocity": 108, "pitch": 64, "instrument": 0, "track": 9, "qtime": 24, "isDrum": true}, {"time": 73, "velocity": 0, "pitch": 64, "instrument": 0, "track": 9, "qtime": 25, "isDrum": true}, {"time": 78, "velocity": 108, "pitch": 62, "instrument": 0, "track": 9, "qtime": 30, "isDrum": true}, {"time": 80, "velocity": 0, "pitch": 62, "instrument": 0, "track": 9, "qtime": 32, "isDrum": true}, {"time": 84, "velocity": 108, "pitch": 63, "instrument": 0, "track": 9, "qtime": 36, "isDrum": true}, {"time": 85, "velocity": 0, "pitch": 63, "instrument": 0, "track": 9, "qtime": 37, "isDrum": true}, {"time": 90, "velocity": 108, "pitch": 64, "instrument": 0, "track": 9, "qtime": 42, "isDrum": true}, {"time": 91, "velocity": 0, "pitch": 64, "instrument": 0, "track": 9, "qtime": 43, "isDrum": true}, {"time": 96, "velocity": 108, "pitch": 64, "instrument": 0, "track": 9, "qtime": 0, "isDrum": true}, {"time": 98, "velocity": 0, "pitch": 64, "instrument": 0, "track": 9, "qtime": 2, "isDrum": true}, {"time": 102, "velocity": 108, "pitch": 63, "instrument": 0, "track": 9, "qtime": 6, "isDrum": true}, {"time": 103, "velocity": 0, "pitch": 63, "instrument": 0, "track": 9, "qtime": 7, "isDrum": true}, {"time": 108, "velocity": 108, "pitch": 62, "instrument": 0, "track": 9, "qtime": 12, "isDrum": true}, {"time": 110, "velocity": 0, "pitch": 62, "instrument": 0, "track": 9, "qtime": 14, "isDrum": true}, {"time": 114, "velocity": 108, "pitch": 64, "instrument": 0, "track": 9, "qtime": 18, "isDrum": true}, {"time": 115, "velocity": 0, "pitch": 64, "instrument": 0, "track": 9, "qtime": 19, "isDrum": true}, {"time": 120, "velocity": 108, "pitch": 64, "instrument": 0, "track": 9, "qtime": 24, "isDrum": true}, {"time": 121, "velocity": 0, "pitch": 64, "instrument": 0, "track": 9, "qtime": 25, "isDrum": true}, {"time": 126, "velocity": 108, "pitch": 62, "instrument": 0, "track": 9, "qtime": 30, "isDrum": true}, {"time": 128, "velocity": 0, "pitch": 62, "instrument": 0, "track": 9, "qtime": 32, "isDrum": true}, {"time": 132, "velocity": 108, "pitch": 63, "instrument": 0, "track": 9, "qtime": 36, "isDrum": true}, {"time": 133, "velocity": 0, "pitch": 63, "instrument": 0, "track": 9, "qtime": 37, "isDrum": true}, {"time": 138, "velocity": 108, "pitch": 64, "instrument": 0, "track": 9, "qtime": 42, "isDrum": true}, {"time": 139, "velocity": 0, "pitch": 64, "instrument": 0, "track": 9, "qtime": 43, "isDrum": true}, {"time": 144, "velocity": 108, "pitch": 64, "instrument": 0, "track": 9, "qtime": 0, "isDrum": true}, {"time": 146, "velocity": 0, "pitch": 64, "instrument": 0, "track": 9, "qtime": 2, "isDrum": true}, {"time": 150, "velocity": 108, "pitch": 63, "instrument": 0, "track": 9, "qtime": 6, "isDrum": true}, {"time": 151, "velocity": 0, "pitch": 63, "instrument": 0, "track": 9, "qtime": 7, "isDrum": true}, {"time": 156, "velocity": 108, "pitch": 62, "instrument": 0, "track": 9, "qtime": 12, "isDrum": true}, {"time": 158, "velocity": 0, "pitch": 62, "instrument": 0, "track": 9, "qtime": 14, "isDrum": true}, {"time": 162, "velocity": 108, "pitch": 64, "instrument": 0, "track": 9, "qtime": 18, "isDrum": true}, {"time": 163, "velocity": 0, "pitch": 64, "instrument": 0, "track": 9, "qtime": 19, "isDrum": true}, {"time": 168, "velocity": 108, "pitch": 64, "instrument": 0, "track": 9, "qtime": 24, "isDrum": true}, {"time": 169, "velocity": 0, "pitch": 64, "instrument": 0, "track": 9, "qtime": 25, "isDrum": true}, {"time": 174, "velocity": 108, "pitch": 62, "instrument": 0, "track": 9, "qtime": 30, "isDrum": true}, {"time": 176, "velocity": 0, "pitch": 62, "instrument": 0, "track": 9, "qtime": 32, "isDrum": true}, {"time": 180, "velocity": 108, "pitch": 63, "instrument": 0, "track": 9, "qtime": 36, "isDrum": true}, {"time": 181, "velocity": 0, "pitch": 63, "instrument": 0, "track": 9, "qtime": 37, "isDrum": true}, {"time": 186, "velocity": 108, "pitch": 64, "instrument": 0, "track": 9, "qtime": 42, "isDrum": true}, {"time": 187, "velocity": 0, "pitch": 64, "instrument": 0, "track": 9, "qtime": 43, "isDrum": true}, {"time": 192, "velocity": 108, "pitch": 64, "instrument": 0, "track": 9, "qtime": 0, "isDrum": true}, {"time": 194, "velocity": 0, "pitch": 64, "instrument": 0, "track": 9, "qtime": 2, "isDrum": true}, {"time": 198, "velocity": 108, "pitch": 63, "instrument": 0, "track": 9, "qtime": 6, "isDrum": true}, {"time": 199, "velocity": 0, "pitch": 63, "instrument": 0, "track": 9, "qtime": 7, "isDrum": true}, {"time": 204, "velocity": 108, "pitch": 62, "instrument": 0, "track": 9, "qtime": 12, "isDrum": true}, {"time": 206, "velocity": 0, "pitch": 62, "instrument": 0, "track": 9, "qtime": 14, "isDrum": true}, {"time": 210, "velocity": 108, "pitch": 63, "instrument": 0, "track": 9, "qtime": 18, "isDrum": true}, {"time": 211, "velocity": 0, "pitch": 63, "instrument": 0, "track": 9, "qtime": 19, "isDrum": true}, {"time": 216, "velocity": 108, "pitch": 62, "instrument": 0, "track": 9, "qtime": 24, "isDrum": true}, {"time": 218, "velocity": 0, "pitch": 62, "instrument": 0, "track": 9, "qtime": 26, "isDrum": true}, {"time": 228, "velocity": 108, "pitch": 62, "instrument": 0, "track": 9, "qtime": 36, "isDrum": true}, {"time": 230, "velocity": 0, "pitch": 62, "instrument": 0, "track": 9, "qtime": 38, "isDrum": true}, {"time": 240, "velocity": 108, "pitch": 64, "instrument": 0, "track": 9, "qtime": 0, "isDrum": true}, {"time": 242, "velocity": 0, "pitch": 64, "instrument": 0, "track": 9, "qtime": 2, "isDrum": true}, {"time": 246, "velocity": 108, "pitch": 63, "instrument": 0, "track": 9, "qtime": 6, "isDrum": true}, {"time": 247, "velocity": 0, "pitch": 63, "instrument": 0, "track": 9, "qtime": 7, "isDrum": true}, {"time": 252, "velocity": 108, "pitch": 62, "instrument": 0, "track": 9, "qtime": 12, "isDrum": true}, {"time": 254, "velocity": 0, "pitch": 62, "instrument": 0, "track": 9, "qtime": 14, "isDrum": true}, {"time": 258, "velocity": 108, "pitch": 64, "instrument": 0, "track": 9, "qtime": 18, "isDrum": true}, {"time": 259, "velocity": 0, "pitch": 64, "instrument": 0, "track": 9, "qtime": 19, "isDrum": true}, {"time": 264, "velocity": 108, "pitch": 64, "instrument": 0, "track": 9, "qtime": 24, "isDrum": true}, {"time": 265, "velocity": 0, "pitch": 64, "instrument": 0, "track": 9, "qtime": 25, "isDrum": true}, {"time": 270, "velocity": 108, "pitch": 62, "instrument": 0, "track": 9, "qtime": 30, "isDrum": true}, {"time": 272, "velocity": 0, "pitch": 62, "instrument": 0, "track": 9, "qtime": 32, "isDrum": true}, {"time": 276, "velocity": 108, "pitch": 63, "instrument": 0, "track": 9, "qtime": 36, "isDrum": true}, {"time": 277, "velocity": 0, "pitch": 63, "instrument": 0, "track": 9, "qtime": 37, "isDrum": true}, {"time": 282, "velocity": 108, "pitch": 64, "instrument": 0, "track": 9, "qtime": 42, "isDrum": true}, {"time": 283, "velocity": 0, "pitch": 64, "instrument": 0, "track": 9, "qtime": 43, "isDrum": true}, {"time": 288, "velocity": 108, "pitch": 64, "instrument": 0, "track": 9, "qtime": 0, "isDrum": true}, {"time": 290, "velocity": 0, "pitch": 64, "instrument": 0, "track": 9, "qtime": 2, "isDrum": true}, {"time": 294, "velocity": 108, "pitch": 63, "instrument": 0, "track": 9, "qtime": 6, "isDrum": true}, {"time": 295, "velocity": 0, "pitch": 63, "instrument": 0, "track": 9, "qtime": 7, "isDrum": true}, {"time": 300, "velocity": 108, "pitch": 62, "instrument": 0, "track": 9, "qtime": 12, "isDrum": true}, {"time": 302, "velocity": 0, "pitch": 62, "instrument": 0, "track": 9, "qtime": 14, "isDrum": true}, {"time": 306, "velocity": 108, "pitch": 64, "instrument": 0, "track": 9, "qtime": 18, "isDrum": true}, {"time": 307, "velocity": 0, "pitch": 64, "instrument": 0, "track": 9, "qtime": 19, "isDrum": true}, {"time": 312, "velocity": 108, "pitch": 64, "instrument": 0, "track": 9, "qtime": 24, "isDrum": true}, {"time": 313, "velocity": 0, "pitch": 64, "instrument": 0, "track": 9, "qtime": 25, "isDrum": true}, {"time": 318, "velocity": 108, "pitch": 62, "instrument": 0, "track": 9, "qtime": 30, "isDrum": true}, {"time": 320, "velocity": 0, "pitch": 62, "instrument": 0, "track": 9, "qtime": 32, "isDrum": true}, {"time": 324, "velocity": 108, "pitch": 63, "instrument": 0, "track": 9, "qtime": 36, "isDrum": true}, {"time": 325, "velocity": 0, "pitch": 63, "instrument": 0, "track": 9, "qtime": 37, "isDrum": true}, {"time": 330, "velocity": 108, "pitch": 64, "instrument": 0, "track": 9, "qtime": 42, "isDrum": true}, {"time": 331, "velocity": 0, "pitch": 64, "instrument": 0, "track": 9, "qtime": 43, "isDrum": true}, {"time": 336, "velocity": 108, "pitch": 64, "instrument": 0, "track": 9, "qtime": 0, "isDrum": true}, {"time": 338, "velocity": 0, "pitch": 64, "instrument": 0, "track": 9, "qtime": 2, "isDrum": true}, {"time": 342, "velocity": 108, "pitch": 63, "instrument": 0, "track": 9, "qtime": 6, "isDrum": true}, {"time": 343, "velocity": 0, "pitch": 63, "instrument": 0, "track": 9, "qtime": 7, "isDrum": true}, {"time": 348, "velocity": 108, "pitch": 62, "instrument": 0, "track": 9, "qtime": 12, "isDrum": true}, {"time": 350, "velocity": 0, "pitch": 62, "instrument": 0, "track": 9, "qtime": 14, "isDrum": true}, {"time": 354, "velocity": 108, "pitch": 64, "instrument": 0, "track": 9, "qtime": 18, "isDrum": true}, {"time": 355, "velocity": 0, "pitch": 64, "instrument": 0, "track": 9, "qtime": 19, "isDrum": true}, {"time": 360, "velocity": 108, "pitch": 64, "instrument": 0, "track": 9, "qtime": 24, "isDrum": true}, {"time": 361, "velocity": 0, "pitch": 64, "instrument": 0, "track": 9, "qtime": 25, "isDrum": true}, {"time": 366, "velocity": 108, "pitch": 62, "instrument": 0, "track": 9, "qtime": 30, "isDrum": true}, {"time": 368, "velocity": 0, "pitch": 62, "instrument": 0, "track": 9, "qtime": 32, "isDrum": true}, {"time": 372, "velocity": 108, "pitch": 63, "instrument": 0, "track": 9, "qtime": 36, "isDrum": true}, {"time": 373, "velocity": 0, "pitch": 63, "instrument": 0, "track": 9, "qtime": 37, "isDrum": true}, {"time": 378, "velocity": 108, "pitch": 64, "instrument": 0, "track": 9, "qtime": 42, "isDrum": true}, {"time": 379, "velocity": 0, "pitch": 64, "instrument": 0, "track": 9, "qtime": 43, "isDrum": true}, {"time": 0, "velocity": 108, "pitch": 64, "instrument": 0, "track": 4, "qtime": 0, "isDrum": false}, {"time": 0, "velocity": 108, "pitch": 68, "instrument": 0, "track": 4, "qtime": 0, "isDrum": false}, {"time": 0, "velocity": 108, "pitch": 71, "instrument": 0, "track": 4, "qtime": 0, "isDrum": false}, {"time": 41, "velocity": 0, "pitch": 68, "instrument": 0, "track": 4, "qtime": 41, "isDrum": false}, {"time": 41, "velocity": 0, "pitch": 71, "instrument": 0, "track": 4, "qtime": 41, "isDrum": false}, {"time": 42, "velocity": 0, "pitch": 64, "instrument": 0, "track": 4, "qtime": 42, "isDrum": false}, {"time": 48, "velocity": 108, "pitch": 64, "instrument": 0, "track": 4, "qtime": 0, "isDrum": false}, {"time": 48, "velocity": 108, "pitch": 69, "instrument": 0, "track": 4, "qtime": 0, "isDrum": false}, {"time": 48, "velocity": 108, "pitch": 72, "instrument": 0, "track": 4, "qtime": 0, "isDrum": false}, {"time": 90, "velocity": 0, "pitch": 72, "instrument": 0, "track": 4, "qtime": 42, "isDrum": false}, {"time": 91, "velocity": 0, "pitch": 69, "instrument": 0, "track": 4, "qtime": 43, "isDrum": false}, {"time": 92, "velocity": 0, "pitch": 64, "instrument": 0, "track": 4, "qtime": 44, "isDrum": false}, {"time": 96, "velocity": 108, "pitch": 62, "instrument": 0, "track": 4, "qtime": 0, "isDrum": false}, {"time": 96, "velocity": 108, "pitch": 66, "instrument": 0, "track": 4, "qtime": 0, "isDrum": false}, {"time": 96, "velocity": 108, "pitch": 69, "instrument": 0, "track": 4, "qtime": 0, "isDrum": false}, {"time": 116, "velocity": 0, "pitch": 69, "instrument": 0, "track": 4, "qtime": 20, "isDrum": false}, {"time": 119, "velocity": 0, "pitch": 62, "instrument": 0, "track": 4, "qtime": 23, "isDrum": false}, {"time": 119, "velocity": 0, "pitch": 66, "instrument": 0, "track": 4, "qtime": 23, "isDrum": false}, {"time": 120, "velocity": 108, "pitch": 60, "instrument": 0, "track": 4, "qtime": 24, "isDrum": false}, {"time": 120, "velocity": 108, "pitch": 66, "instrument": 0, "track": 4, "qtime": 24, "isDrum": false}, {"time": 120, "velocity": 108, "pitch": 69, "instrument": 0, "track": 4, "qtime": 24, "isDrum": false}, {"time": 133, "velocity": 0, "pitch": 69, "instrument": 0, "track": 4, "qtime": 37, "isDrum": false}, {"time": 135, "velocity": 0, "pitch": 60, "instrument": 0, "track": 4, "qtime": 39, "isDrum": false}, {"time": 135, "velocity": 0, "pitch": 66, "instrument": 0, "track": 4, "qtime": 39, "isDrum": false}, {"time": 144, "velocity": 108, "pitch": 62, "instrument": 0, "track": 4, "qtime": 0, "isDrum": false}, {"time": 144, "velocity": 108, "pitch": 67, "instrument": 0, "track": 4, "qtime": 0, "isDrum": false}, {"time": 144, "velocity": 108, "pitch": 71, "instrument": 0, "track": 4, "qtime": 0, "isDrum": false}, {"time": 188, "velocity": 0, "pitch": 62, "instrument": 0, "track": 4, "qtime": 44, "isDrum": false}, {"time": 189, "velocity": 0, "pitch": 67, "instrument": 0, "track": 4, "qtime": 45, "isDrum": false}, {"time": 189, "velocity": 0, "pitch": 71, "instrument": 0, "track": 4, "qtime": 45, "isDrum": false}, {"time": 192, "velocity": 108, "pitch": 68, "instrument": 0, "track": 4, "qtime": 0, "isDrum": false}, {"time": 192, "velocity": 108, "pitch": 71, "instrument": 0, "track": 4, "qtime": 0, "isDrum": false}, {"time": 192, "velocity": 108, "pitch": 76, "instrument": 0, "track": 4, "qtime": 0, "isDrum": false}, {"time": 240, "velocity": 0, "pitch": 68, "instrument": 0, "track": 4, "qtime": 48, "isDrum": false}, {"time": 240, "velocity": 0, "pitch": 71, "instrument": 0, "track": 4, "qtime": 48, "isDrum": false}, {"time": 240, "velocity": 0, "pitch": 76, "instrument": 0, "track": 4, "qtime": 48, "isDrum": false}, {"time": 240, "velocity": 108, "pitch": 69, "instrument": 0, "track": 4, "qtime": 0, "isDrum": false}, {"time": 240, "velocity": 108, "pitch": 72, "instrument": 0, "track": 4, "qtime": 0, "isDrum": false}, {"time": 240, "velocity": 108, "pitch": 76, "instrument": 0, "track": 4, "qtime": 0, "isDrum": false}, {"time": 284, "velocity": 0, "pitch": 76, "instrument": 0, "track": 4, "qtime": 44, "isDrum": false}, {"time": 285, "velocity": 0, "pitch": 72, "instrument": 0, "track": 4, "qtime": 45, "isDrum": false}, {"time": 286, "velocity": 0, "pitch": 69, "instrument": 0, "track": 4, "qtime": 46, "isDrum": false}, {"time": 288, "velocity": 108, "pitch": 66, "instrument": 0, "track": 4, "qtime": 0, "isDrum": false}, {"time": 288, "velocity": 108, "pitch": 69, "instrument": 0, "track": 4, "qtime": 0, "isDrum": false}, {"time": 288, "velocity": 108, "pitch": 74, "instrument": 0, "track": 4, "qtime": 0, "isDrum": false}, {"time": 310, "velocity": 0, "pitch": 69, "instrument": 0, "track": 4, "qtime": 22, "isDrum": false}, {"time": 310, "velocity": 0, "pitch": 74, "instrument": 0, "track": 4, "qtime": 22, "isDrum": false}, {"time": 311, "velocity": 0, "pitch": 66, "instrument": 0, "track": 4, "qtime": 23, "isDrum": false}, {"time": 312, "velocity": 108, "pitch": 66, "instrument": 0, "track": 4, "qtime": 24, "isDrum": false}, {"time": 312, "velocity": 108, "pitch": 69, "instrument": 0, "track": 4, "qtime": 24, "isDrum": false}, {"time": 312, "velocity": 108, "pitch": 72, "instrument": 0, "track": 4, "qtime": 24, "isDrum": false}, {"time": 327, "velocity": 0, "pitch": 72, "instrument": 0, "track": 4, "qtime": 39, "isDrum": false}, {"time": 328, "velocity": 0, "pitch": 66, "instrument": 0, "track": 4, "qtime": 40, "isDrum": false}, {"time": 328, "velocity": 0, "pitch": 69, "instrument": 0, "track": 4, "qtime": 40, "isDrum": false}, {"time": 336, "velocity": 108, "pitch": 65, "instrument": 0, "track": 4, "qtime": 0, "isDrum": false}, {"time": 336, "velocity": 108, "pitch": 69, "instrument": 0, "track": 4, "qtime": 0, "isDrum": false}, {"time": 336, "velocity": 108, "pitch": 71, "instrument": 0, "track": 4, "qtime": 0, "isDrum": false}, {"time": 336, "velocity": 108, "pitch": 72, "instrument": 0, "track": 4, "qtime": 0, "isDrum": false}, {"time": 339, "velocity": 0, "pitch": 72, "instrument": 0, "track": 4, "qtime": 3, "isDrum": false}], "resolution": 12, "tempo": 88, "minPitch": 28, "maxPitch": 76, "validSegments": [0], "validTracks": [31]}, "audio": "https://www.sfu.ca/~jeffe/examples/8b_ex6_density_3.mp3"}, {"src": "gen/8b_ex6_density_6.json", "highlights": [[], [0, 1, 2, 3, 4, 5, 6, 7], []], "caption": "Resample the piano track in 20a with medium-high density.", "sample_id": "20d", "mixer": [8, 8, 8, 8, 8], "json": {"tracks": [{"bars": [{"events": [0, 1, 2, 3, 4, 5, 6, 7, 8, 9], "isFourFour": true, "hasNotes": true, "time": 0}, {"events": [10, 11, 12, 13, 14, 15, 16, 17, 18, 19], "isFourFour": true, "hasNotes": true, "time": 48}, {"events": [20, 21, 22, 23, 24, 25, 26, 27], "isFourFour": true, "hasNotes": true, "time": 96}, {"events": [28, 29, 30, 31, 32, 33, 34, 35, 36, 37], "isFourFour": true, "hasNotes": true, "time": 144}, {"events": [38, 39, 40, 41, 42, 43, 44, 45], "isFourFour": true, "hasNotes": true, "time": 192}, {"events": [46, 47, 48, 49, 50, 51, 52, 53, 54, 55], "isFourFour": true, "hasNotes": true, "time": 240}, {"events": [56, 57, 58, 59, 60, 61, 62, 63], "isFourFour": true, "hasNotes": true, "time": 288}, {"events": [64, 65, 66, 67, 68, 69, 70, 71], "isFourFour": true, "hasNotes": true, "time": 336}], "isDrum": false, "minPitch": 28, "maxPitch": 40, "instrument": 0, "avPolyphony": 1.00295854, "noteDensity": 9, "noteDensityV2": 3}, {"bars": [{"events": [390, 391, 392, 393, 394, 395, 396, 397, 398, 399, 400, 401, 402, 403, 404, 405, 406, 407, 408, 409, 410, 411], "isFourFour": true, "hasNotes": true, "time": 0}, {"events": [412, 413, 414, 415, 416, 417, 418, 419, 420, 421, 422], "isFourFour": true, "hasNotes": true, "time": 48}, {"events": [423, 424, 425, 426, 427, 428, 429, 430, 431, 432, 433, 434, 435, 436, 437, 438, 439, 440, 441, 442, 443], "isFourFour": true, "hasNotes": true, "time": 96}, {"events": [444, 445, 446, 447, 448, 449, 450, 451, 452, 453, 454, 455, 456, 457, 458, 459], "isFourFour": true, "hasNotes": true, "time": 144}, {"events": [460, 461, 462, 463, 464, 465, 466, 467, 468, 469, 470, 471, 472, 473, 474, 475, 476, 477, 478, 479, 480, 481, 482, 483, 484, 485], "isFourFour": true, "hasNotes": true, "time": 192}, {"events": [486, 487, 488, 489, 490, 491, 492, 493, 494, 495], "isFourFour": true, "hasNotes": true, "time": 240}, {"events": [496, 497, 498, 499, 500, 501, 502, 503, 504, 505, 506, 507, 508, 509, 510, 511, 512, 513, 514, 515, 516, 517, 518, 519, 520, 521], "isFourFour": true, "hasNotes": true, "time": 288}, {"events": [522, 523, 524, 525, 526, 527, 528, 529, 530, 531, 532, 533, 534, 535], "isFourFour": true, "hasNotes": true, "time": 336}], "isDrum": false, "minPitch": 50, "maxPitch": 64, "instrument": 0, "avPolyphony": 3.13119531, "noteDensity": 9, "noteDensityV2": 6}, {"bars": [{"events": [72, 73, 74, 75], "isFourFour": true, "hasNotes": true, "time": 0}, {"events": [76, 77, 78, 79], "isFourFour": true, "hasNotes": true, "time": 48}, {"events": [80, 81, 82, 83], "isFourFour": true, "hasNotes": true, "time": 96}, {"events": [84, 85, 86, 87], "isFourFour": true, "hasNotes": true, "time": 144}, {"events": [88, 89, 90, 91, 92, 93], "isFourFour": true, "hasNotes": true, "time": 192}, {"events": [94, 95, 96, 97], "isFourFour": true, "hasNotes": true, "time": 240}, {"events": [98, 99, 100, 101], "isFourFour": true, "hasNotes": true, "time": 288}, {"events": [102, 103, 104, 105], "isFourFour": true, "hasNotes": true, "time": 336}], "isDrum": true, "minPitch": 42, "maxPitch": 46, "instrument": 0, "avPolyphony": 1, "noteDensity": 5, "noteDensityV2": 0}, {"bars": [{"events": [106, 107, 108, 109, 110, 111, 112, 113, 114, 115, 116, 117, 118, 119, 120, 121, 122, 123, 124, 125], "isFourFour": true, "hasNotes": true, "time": 0}, {"events": [126, 127, 128, 129, 130, 131, 132, 133, 134, 135, 136, 137, 138, 139, 140, 141, 142, 143, 144, 145], "isFourFour": true, "hasNotes": true, "time": 48}, {"events": [146, 147, 148, 149, 150, 151, 152, 153, 154, 155, 156, 157, 158, 159, 160, 161, 162, 163, 164, 165], "isFourFour": true, "hasNotes": true, "time": 96}, {"events": [166, 167, 168, 169, 170, 171, 172, 173, 174, 175, 176, 177, 178, 179, 180, 181, 182, 183, 184, 185], "isFourFour": true, "hasNotes": true, "time": 144}, {"events": [186, 187, 188, 189, 190, 191, 192, 193, 194, 195, 196, 197, 198, 199, 200, 201, 202, 203, 204, 205], "isFourFour": true, "hasNotes": true, "time": 192}, {"events": [206, 207, 208, 209, 210, 211, 212, 213, 214, 215, 216, 217, 218, 219, 220, 221, 222, 223, 224, 225], "isFourFour": true, "hasNotes": true, "time": 240}, {"events": [226, 227, 228, 229, 230, 231, 232, 233, 234, 235, 236, 237, 238, 239, 240, 241, 242, 243, 244, 245], "isFourFour": true, "hasNotes": true, "time": 288}, {"events": [246, 247, 248, 249, 250, 251, 252, 253, 254, 255, 256, 257, 258, 259, 260, 261, 262, 263, 264, 265], "isFourFour": true, "hasNotes": true, "time": 336}], "isDrum": true, "minPitch": 69, "maxPitch": 69, "instrument": 0, "avPolyphony": 1, "noteDensity": 9, "noteDensityV2": 4}, {"bars": [{"events": [266, 267, 268, 269, 270, 271, 272, 273, 274, 275, 276, 277, 278, 279, 280, 281], "isFourFour": true, "hasNotes": true, "time": 0}, {"events": [282, 283, 284, 285, 286, 287, 288, 289, 290, 291, 292, 293, 294, 295, 296, 297], "isFourFour": true, "hasNotes": true, "time": 48}, {"events": [298, 299, 300, 301, 302, 303, 304, 305, 306, 307, 308, 309, 310, 311, 312, 313], "isFourFour": true, "hasNotes": true, "time": 96}, {"events": [314, 315, 316, 317, 318, 319, 320, 321, 322, 323, 324, 325, 326, 327, 328, 329], "isFourFour": true, "hasNotes": true, "time": 144}, {"events": [330, 331, 332, 333, 334, 335, 336, 337, 338, 339, 340, 341], "isFourFour": true, "hasNotes": true, "time": 192}, {"events": [342, 343, 344, 345, 346, 347, 348, 349, 350, 351, 352, 353, 354, 355, 356, 357], "isFourFour": true, "hasNotes": true, "time": 240}, {"events": [358, 359, 360, 361, 362, 363, 364, 365, 366, 367, 368, 369, 370, 371, 372, 373], "isFourFour": true, "hasNotes": true, "time": 288}, {"events": [374, 375, 376, 377, 378, 379, 380, 381, 382, 383, 384, 385, 386, 387, 388, 389], "isFourFour": true, "hasNotes": true, "time": 336}], "isDrum": true, "minPitch": 62, "maxPitch": 64, "instrument": 0, "avPolyphony": 1, "noteDensity": 9, "noteDensityV2": 3}], "events": [{"time": 0, "velocity": 108, "pitch": 28, "instrument": 0, "track": 0, "qtime": 0, "isDrum": false}, {"time": 11, "velocity": 0, "pitch": 28, "instrument": 0, "track": 0, "qtime": 11, "isDrum": false}, {"time": 12, "velocity": 108, "pitch": 35, "instrument": 0, "track": 0, "qtime": 12, "isDrum": false}, {"time": 23, "velocity": 0, "pitch": 35, "instrument": 0, "track": 0, "qtime": 23, "isDrum": false}, {"time": 24, "velocity": 108, "pitch": 40, "instrument": 0, "track": 0, "qtime": 24, "isDrum": false}, {"time": 32, "velocity": 0, "pitch": 40, "instrument": 0, "track": 0, "qtime": 32, "isDrum": false}, {"time": 32, "velocity": 108, "pitch": 28, "instrument": 0, "track": 0, "qtime": 32, "isDrum": false}, {"time": 39, "velocity": 0, "pitch": 28, "instrument": 0, "track": 0, "qtime": 39, "isDrum": false}, {"time": 40, "velocity": 108, "pitch": 32, "instrument": 0, "track": 0, "qtime": 40, "isDrum": false}, {"time": 48, "velocity": 0, "pitch": 32, "instrument": 0, "track": 0, "qtime": 48, "isDrum": false}, {"time": 48, "velocity": 108, "pitch": 33, "instrument": 0, "track": 0, "qtime": 0, "isDrum": false}, {"time": 63, "velocity": 0, "pitch": 33, "instrument": 0, "track": 0, "qtime": 15, "isDrum": false}, {"time": 66, "velocity": 108, "pitch": 33, "instrument": 0, "track": 0, "qtime": 18, "isDrum": false}, {"time": 70, "velocity": 0, "pitch": 33, "instrument": 0, "track": 0, "qtime": 22, "isDrum": false}, {"time": 72, "velocity": 108, "pitch": 33, "instrument": 0, "track": 0, "qtime": 24, "isDrum": false}, {"time": 79, "velocity": 0, "pitch": 33, "instrument": 0, "track": 0, "qtime": 31, "isDrum": false}, {"time": 80, "velocity": 108, "pitch": 35, "instrument": 0, "track": 0, "qtime": 32, "isDrum": false}, {"time": 88, "velocity": 0, "pitch": 35, "instrument": 0, "track": 0, "qtime": 40, "isDrum": false}, {"time": 88, "velocity": 108, "pitch": 36, "instrument": 0, "track": 0, "qtime": 40, "isDrum": false}, {"time": 95, "velocity": 0, "pitch": 36, "instrument": 0, "track": 0, "qtime": 47, "isDrum": false}, {"time": 96, "velocity": 108, "pitch": 38, "instrument": 0, "track": 0, "qtime": 0, "isDrum": false}, {"time": 106, "velocity": 0, "pitch": 38, "instrument": 0, "track": 0, "qtime": 10, "isDrum": false}, {"time": 108, "velocity": 108, "pitch": 38, "instrument": 0, "track": 0, "qtime": 12, "isDrum": false}, {"time": 119, "velocity": 0, "pitch": 38, "instrument": 0, "track": 0, "qtime": 23, "isDrum": false}, {"time": 120, "velocity": 108, "pitch": 36, "instrument": 0, "track": 0, "qtime": 24, "isDrum": false}, {"time": 130, "velocity": 0, "pitch": 36, "instrument": 0, "track": 0, "qtime": 34, "isDrum": false}, {"time": 132, "velocity": 108, "pitch": 36, "instrument": 0, "track": 0, "qtime": 36, "isDrum": false}, {"time": 142, "velocity": 0, "pitch": 36, "instrument": 0, "track": 0, "qtime": 46, "isDrum": false}, {"time": 144, "velocity": 108, "pitch": 35, "instrument": 0, "track": 0, "qtime": 0, "isDrum": false}, {"time": 160, "velocity": 0, "pitch": 35, "instrument": 0, "track": 0, "qtime": 16, "isDrum": false}, {"time": 162, "velocity": 108, "pitch": 35, "instrument": 0, "track": 0, "qtime": 18, "isDrum": false}, {"time": 167, "velocity": 0, "pitch": 35, "instrument": 0, "track": 0, "qtime": 23, "isDrum": false}, {"time": 168, "velocity": 108, "pitch": 35, "instrument": 0, "track": 0, "qtime": 24, "isDrum": false}, {"time": 176, "velocity": 0, "pitch": 35, "instrument": 0, "track": 0, "qtime": 32, "isDrum": false}, {"time": 176, "velocity": 108, "pitch": 36, "instrument": 0, "track": 0, "qtime": 32, "isDrum": false}, {"time": 183, "velocity": 0, "pitch": 36, "instrument": 0, "track": 0, "qtime": 39, "isDrum": false}, {"time": 184, "velocity": 108, "pitch": 38, "instrument": 0, "track": 0, "qtime": 40, "isDrum": false}, {"time": 192, "velocity": 0, "pitch": 38, "instrument": 0, "track": 0, "qtime": 48, "isDrum": false}, {"time": 192, "velocity": 108, "pitch": 40, "instrument": 0, "track": 0, "qtime": 0, "isDrum": false}, {"time": 203, "velocity": 0, "pitch": 40, "instrument": 0, "track": 0, "qtime": 11, "isDrum": false}, {"time": 204, "velocity": 108, "pitch": 35, "instrument": 0, "track": 0, "qtime": 12, "isDrum": false}, {"time": 216, "velocity": 0, "pitch": 35, "instrument": 0, "track": 0, "qtime": 24, "isDrum": false}, {"time": 216, "velocity": 108, "pitch": 28, "instrument": 0, "track": 0, "qtime": 24, "isDrum": false}, {"time": 228, "velocity": 0, "pitch": 28, "instrument": 0, "track": 0, "qtime": 36, "isDrum": false}, {"time": 228, "velocity": 108, "pitch": 32, "instrument": 0, "track": 0, "qtime": 36, "isDrum": false}, {"time": 240, "velocity": 0, "pitch": 32, "instrument": 0, "track": 0, "qtime": 48, "isDrum": false}, {"time": 240, "velocity": 108, "pitch": 33, "instrument": 0, "track": 0, "qtime": 0, "isDrum": false}, {"time": 255, "velocity": 0, "pitch": 33, "instrument": 0, "track": 0, "qtime": 15, "isDrum": false}, {"time": 258, "velocity": 108, "pitch": 33, "instrument": 0, "track": 0, "qtime": 18, "isDrum": false}, {"time": 262, "velocity": 0, "pitch": 33, "instrument": 0, "track": 0, "qtime": 22, "isDrum": false}, {"time": 264, "velocity": 108, "pitch": 33, "instrument": 0, "track": 0, "qtime": 24, "isDrum": false}, {"time": 272, "velocity": 0, "pitch": 33, "instrument": 0, "track": 0, "qtime": 32, "isDrum": false}, {"time": 272, "velocity": 108, "pitch": 35, "instrument": 0, "track": 0, "qtime": 32, "isDrum": false}, {"time": 280, "velocity": 0, "pitch": 35, "instrument": 0, "track": 0, "qtime": 40, "isDrum": false}, {"time": 280, "velocity": 108, "pitch": 36, "instrument": 0, "track": 0, "qtime": 40, "isDrum": false}, {"time": 287, "velocity": 0, "pitch": 36, "instrument": 0, "track": 0, "qtime": 47, "isDrum": false}, {"time": 288, "velocity": 108, "pitch": 38, "instrument": 0, "track": 0, "qtime": 0, "isDrum": false}, {"time": 299, "velocity": 0, "pitch": 38, "instrument": 0, "track": 0, "qtime": 11, "isDrum": false}, {"time": 300, "velocity": 108, "pitch": 38, "instrument": 0, "track": 0, "qtime": 12, "isDrum": false}, {"time": 312, "velocity": 0, "pitch": 38, "instrument": 0, "track": 0, "qtime": 24, "isDrum": false}, {"time": 312, "velocity": 108, "pitch": 30, "instrument": 0, "track": 0, "qtime": 24, "isDrum": false}, {"time": 323, "velocity": 0, "pitch": 30, "instrument": 0, "track": 0, "qtime": 35, "isDrum": false}, {"time": 324, "velocity": 108, "pitch": 30, "instrument": 0, "track": 0, "qtime": 36, "isDrum": false}, {"time": 335, "velocity": 0, "pitch": 30, "instrument": 0, "track": 0, "qtime": 47, "isDrum": false}, {"time": 336, "velocity": 108, "pitch": 31, "instrument": 0, "track": 0, "qtime": 0, "isDrum": false}, {"time": 350, "velocity": 0, "pitch": 31, "instrument": 0, "track": 0, "qtime": 14, "isDrum": false}, {"time": 354, "velocity": 108, "pitch": 31, "instrument": 0, "track": 0, "qtime": 18, "isDrum": false}, {"time": 355, "velocity": 0, "pitch": 31, "instrument": 0, "track": 0, "qtime": 19, "isDrum": false}, {"time": 360, "velocity": 108, "pitch": 31, "instrument": 0, "track": 0, "qtime": 24, "isDrum": false}, {"time": 372, "velocity": 108, "pitch": 29, "instrument": 0, "track": 0, "qtime": 36, "isDrum": false}, {"time": 373, "velocity": 0, "pitch": 31, "instrument": 0, "track": 0, "qtime": 37, "isDrum": false}, {"time": 378, "velocity": 0, "pitch": 29, "instrument": 0, "track": 0, "qtime": 42, "isDrum": false}, {"time": 12, "velocity": 108, "pitch": 42, "instrument": 0, "track": 9, "qtime": 12, "isDrum": true}, {"time": 13, "velocity": 0, "pitch": 42, "instrument": 0, "track": 9, "qtime": 13, "isDrum": true}, {"time": 36, "velocity": 108, "pitch": 46, "instrument": 0, "track": 9, "qtime": 36, "isDrum": true}, {"time": 37, "velocity": 0, "pitch": 46, "instrument": 0, "track": 9, "qtime": 37, "isDrum": true}, {"time": 60, "velocity": 108, "pitch": 42, "instrument": 0, "track": 9, "qtime": 12, "isDrum": true}, {"time": 61, "velocity": 0, "pitch": 42, "instrument": 0, "track": 9, "qtime": 13, "isDrum": true}, {"time": 84, "velocity": 108, "pitch": 42, "instrument": 0, "track": 9, "qtime": 36, "isDrum": true}, {"time": 85, "velocity": 0, "pitch": 42, "instrument": 0, "track": 9, "qtime": 37, "isDrum": true}, {"time": 108, "velocity": 108, "pitch": 42, "instrument": 0, "track": 9, "qtime": 12, "isDrum": true}, {"time": 109, "velocity": 0, "pitch": 42, "instrument": 0, "track": 9, "qtime": 13, "isDrum": true}, {"time": 132, "velocity": 108, "pitch": 46, "instrument": 0, "track": 9, "qtime": 36, "isDrum": true}, {"time": 133, "velocity": 0, "pitch": 46, "instrument": 0, "track": 9, "qtime": 37, "isDrum": true}, {"time": 156, "velocity": 108, "pitch": 42, "instrument": 0, "track": 9, "qtime": 12, "isDrum": true}, {"time": 157, "velocity": 0, "pitch": 42, "instrument": 0, "track": 9, "qtime": 13, "isDrum": true}, {"time": 180, "velocity": 108, "pitch": 42, "instrument": 0, "track": 9, "qtime": 36, "isDrum": true}, {"time": 181, "velocity": 0, "pitch": 42, "instrument": 0, "track": 9, "qtime": 37, "isDrum": true}, {"time": 204, "velocity": 108, "pitch": 42, "instrument": 0, "track": 9, "qtime": 12, "isDrum": true}, {"time": 205, "velocity": 0, "pitch": 42, "instrument": 0, "track": 9, "qtime": 13, "isDrum": true}, {"time": 216, "velocity": 108, "pitch": 46, "instrument": 0, "track": 9, "qtime": 24, "isDrum": true}, {"time": 217, "velocity": 0, "pitch": 46, "instrument": 0, "track": 9, "qtime": 25, "isDrum": true}, {"time": 228, "velocity": 108, "pitch": 46, "instrument": 0, "track": 9, "qtime": 36, "isDrum": true}, {"time": 230, "velocity": 0, "pitch": 46, "instrument": 0, "track": 9, "qtime": 38, "isDrum": true}, {"time": 252, "velocity": 108, "pitch": 42, "instrument": 0, "track": 9, "qtime": 12, "isDrum": true}, {"time": 253, "velocity": 0, "pitch": 42, "instrument": 0, "track": 9, "qtime": 13, "isDrum": true}, {"time": 276, "velocity": 108, "pitch": 42, "instrument": 0, "track": 9, "qtime": 36, "isDrum": true}, {"time": 277, "velocity": 0, "pitch": 42, "instrument": 0, "track": 9, "qtime": 37, "isDrum": true}, {"time": 300, "velocity": 108, "pitch": 42, "instrument": 0, "track": 9, "qtime": 12, "isDrum": true}, {"time": 301, "velocity": 0, "pitch": 42, "instrument": 0, "track": 9, "qtime": 13, "isDrum": true}, {"time": 324, "velocity": 108, "pitch": 42, "instrument": 0, "track": 9, "qtime": 36, "isDrum": true}, {"time": 325, "velocity": 0, "pitch": 42, "instrument": 0, "track": 9, "qtime": 37, "isDrum": true}, {"time": 348, "velocity": 108, "pitch": 42, "instrument": 0, "track": 9, "qtime": 12, "isDrum": true}, {"time": 349, "velocity": 0, "pitch": 42, "instrument": 0, "track": 9, "qtime": 13, "isDrum": true}, {"time": 372, "velocity": 108, "pitch": 42, "instrument": 0, "track": 9, "qtime": 36, "isDrum": true}, {"time": 373, "velocity": 0, "pitch": 42, "instrument": 0, "track": 9, "qtime": 37, "isDrum": true}, {"time": 0, "velocity": 108, "pitch": 69, "instrument": 0, "track": 9, "qtime": 0, "isDrum": true}, {"time": 1, "velocity": 0, "pitch": 69, "instrument": 0, "track": 9, "qtime": 1, "isDrum": true}, {"time": 6, "velocity": 108, "pitch": 69, "instrument": 0, "track": 9, "qtime": 6, "isDrum": true}, {"time": 7, "velocity": 0, "pitch": 69, "instrument": 0, "track": 9, "qtime": 7, "isDrum": true}, {"time": 8, "velocity": 108, "pitch": 69, "instrument": 0, "track": 9, "qtime": 8, "isDrum": true}, {"time": 9, "velocity": 0, "pitch": 69, "instrument": 0, "track": 9, "qtime": 9, "isDrum": true}, {"time": 10, "velocity": 108, "pitch": 69, "instrument": 0, "track": 9, "qtime": 10, "isDrum": true}, {"time": 11, "velocity": 0, "pitch": 69, "instrument": 0, "track": 9, "qtime": 11, "isDrum": true}, {"time": 12, "velocity": 108, "pitch": 69, "instrument": 0, "track": 9, "qtime": 12, "isDrum": true}, {"time": 13, "velocity": 0, "pitch": 69, "instrument": 0, "track": 9, "qtime": 13, "isDrum": true}, {"time": 18, "velocity": 108, "pitch": 69, "instrument": 0, "track": 9, "qtime": 18, "isDrum": true}, {"time": 19, "velocity": 0, "pitch": 69, "instrument": 0, "track": 9, "qtime": 19, "isDrum": true}, {"time": 24, "velocity": 108, "pitch": 69, "instrument": 0, "track": 9, "qtime": 24, "isDrum": true}, {"time": 25, "velocity": 0, "pitch": 69, "instrument": 0, "track": 9, "qtime": 25, "isDrum": true}, {"time": 30, "velocity": 108, "pitch": 69, "instrument": 0, "track": 9, "qtime": 30, "isDrum": true}, {"time": 31, "velocity": 0, "pitch": 69, "instrument": 0, "track": 9, "qtime": 31, "isDrum": true}, {"time": 36, "velocity": 108, "pitch": 69, "instrument": 0, "track": 9, "qtime": 36, "isDrum": true}, {"time": 37, "velocity": 0, "pitch": 69, "instrument": 0, "track": 9, "qtime": 37, "isDrum": true}, {"time": 42, "velocity": 108, "pitch": 69, "instrument": 0, "track": 9, "qtime": 42, "isDrum": true}, {"time": 43, "velocity": 0, "pitch": 69, "instrument": 0, "track": 9, "qtime": 43, "isDrum": true}, {"time": 48, "velocity": 108, "pitch": 69, "instrument": 0, "track": 9, "qtime": 0, "isDrum": true}, {"time": 49, "velocity": 0, "pitch": 69, "instrument": 0, "track": 9, "qtime": 1, "isDrum": true}, {"time": 54, "velocity": 108, "pitch": 69, "instrument": 0, "track": 9, "qtime": 6, "isDrum": true}, {"time": 55, "velocity": 0, "pitch": 69, "instrument": 0, "track": 9, "qtime": 7, "isDrum": true}, {"time": 56, "velocity": 108, "pitch": 69, "instrument": 0, "track": 9, "qtime": 8, "isDrum": true}, {"time": 57, "velocity": 0, "pitch": 69, "instrument": 0, "track": 9, "qtime": 9, "isDrum": true}, {"time": 58, "velocity": 108, "pitch": 69, "instrument": 0, "track": 9, "qtime": 10, "isDrum": true}, {"time": 59, "velocity": 0, "pitch": 69, "instrument": 0, "track": 9, "qtime": 11, "isDrum": true}, {"time": 60, "velocity": 108, "pitch": 69, "instrument": 0, "track": 9, "qtime": 12, "isDrum": true}, {"time": 61, "velocity": 0, "pitch": 69, "instrument": 0, "track": 9, "qtime": 13, "isDrum": true}, {"time": 66, "velocity": 108, "pitch": 69, "instrument": 0, "track": 9, "qtime": 18, "isDrum": true}, {"time": 67, "velocity": 0, "pitch": 69, "instrument": 0, "track": 9, "qtime": 19, "isDrum": true}, {"time": 72, "velocity": 108, "pitch": 69, "instrument": 0, "track": 9, "qtime": 24, "isDrum": true}, {"time": 73, "velocity": 0, "pitch": 69, "instrument": 0, "track": 9, "qtime": 25, "isDrum": true}, {"time": 78, "velocity": 108, "pitch": 69, "instrument": 0, "track": 9, "qtime": 30, "isDrum": true}, {"time": 79, "velocity": 0, "pitch": 69, "instrument": 0, "track": 9, "qtime": 31, "isDrum": true}, {"time": 84, "velocity": 108, "pitch": 69, "instrument": 0, "track": 9, "qtime": 36, "isDrum": true}, {"time": 85, "velocity": 0, "pitch": 69, "instrument": 0, "track": 9, "qtime": 37, "isDrum": true}, {"time": 90, "velocity": 108, "pitch": 69, "instrument": 0, "track": 9, "qtime": 42, "isDrum": true}, {"time": 91, "velocity": 0, "pitch": 69, "instrument": 0, "track": 9, "qtime": 43, "isDrum": true}, {"time": 96, "velocity": 108, "pitch": 69, "instrument": 0, "track": 9, "qtime": 0, "isDrum": true}, {"time": 97, "velocity": 0, "pitch": 69, "instrument": 0, "track": 9, "qtime": 1, "isDrum": true}, {"time": 102, "velocity": 108, "pitch": 69, "instrument": 0, "track": 9, "qtime": 6, "isDrum": true}, {"time": 103, "velocity": 0, "pitch": 69, "instrument": 0, "track": 9, "qtime": 7, "isDrum": true}, {"time": 104, "velocity": 108, "pitch": 69, "instrument": 0, "track": 9, "qtime": 8, "isDrum": true}, {"time": 105, "velocity": 0, "pitch": 69, "instrument": 0, "track": 9, "qtime": 9, "isDrum": true}, {"time": 106, "velocity": 108, "pitch": 69, "instrument": 0, "track": 9, "qtime": 10, "isDrum": true}, {"time": 107, "velocity": 0, "pitch": 69, "instrument": 0, "track": 9, "qtime": 11, "isDrum": true}, {"time": 108, "velocity": 108, "pitch": 69, "instrument": 0, "track": 9, "qtime": 12, "isDrum": true}, {"time": 109, "velocity": 0, "pitch": 69, "instrument": 0, "track": 9, "qtime": 13, "isDrum": true}, {"time": 114, "velocity": 108, "pitch": 69, "instrument": 0, "track": 9, "qtime": 18, "isDrum": true}, {"time": 115, "velocity": 0, "pitch": 69, "instrument": 0, "track": 9, "qtime": 19, "isDrum": true}, {"time": 120, "velocity": 108, "pitch": 69, "instrument": 0, "track": 9, "qtime": 24, "isDrum": true}, {"time": 121, "velocity": 0, "pitch": 69, "instrument": 0, "track": 9, "qtime": 25, "isDrum": true}, {"time": 126, "velocity": 108, "pitch": 69, "instrument": 0, "track": 9, "qtime": 30, "isDrum": true}, {"time": 127, "velocity": 0, "pitch": 69, "instrument": 0, "track": 9, "qtime": 31, "isDrum": true}, {"time": 132, "velocity": 108, "pitch": 69, "instrument": 0, "track": 9, "qtime": 36, "isDrum": true}, {"time": 133, "velocity": 0, "pitch": 69, "instrument": 0, "track": 9, "qtime": 37, "isDrum": true}, {"time": 138, "velocity": 108, "pitch": 69, "instrument": 0, "track": 9, "qtime": 42, "isDrum": true}, {"time": 139, "velocity": 0, "pitch": 69, "instrument": 0, "track": 9, "qtime": 43, "isDrum": true}, {"time": 144, "velocity": 108, "pitch": 69, "instrument": 0, "track": 9, "qtime": 0, "isDrum": true}, {"time": 145, "velocity": 0, "pitch": 69, "instrument": 0, "track": 9, "qtime": 1, "isDrum": true}, {"time": 150, "velocity": 108, "pitch": 69, "instrument": 0, "track": 9, "qtime": 6, "isDrum": true}, {"time": 151, "velocity": 0, "pitch": 69, "instrument": 0, "track": 9, "qtime": 7, "isDrum": true}, {"time": 152, "velocity": 108, "pitch": 69, "instrument": 0, "track": 9, "qtime": 8, "isDrum": true}, {"time": 153, "velocity": 0, "pitch": 69, "instrument": 0, "track": 9, "qtime": 9, "isDrum": true}, {"time": 154, "velocity": 108, "pitch": 69, "instrument": 0, "track": 9, "qtime": 10, "isDrum": true}, {"time": 155, "velocity": 0, "pitch": 69, "instrument": 0, "track": 9, "qtime": 11, "isDrum": true}, {"time": 156, "velocity": 108, "pitch": 69, "instrument": 0, "track": 9, "qtime": 12, "isDrum": true}, {"time": 157, "velocity": 0, "pitch": 69, "instrument": 0, "track": 9, "qtime": 13, "isDrum": true}, {"time": 162, "velocity": 108, "pitch": 69, "instrument": 0, "track": 9, "qtime": 18, "isDrum": true}, {"time": 163, "velocity": 0, "pitch": 69, "instrument": 0, "track": 9, "qtime": 19, "isDrum": true}, {"time": 168, "velocity": 108, "pitch": 69, "instrument": 0, "track": 9, "qtime": 24, "isDrum": true}, {"time": 169, "velocity": 0, "pitch": 69, "instrument": 0, "track": 9, "qtime": 25, "isDrum": true}, {"time": 174, "velocity": 108, "pitch": 69, "instrument": 0, "track": 9, "qtime": 30, "isDrum": true}, {"time": 175, "velocity": 0, "pitch": 69, "instrument": 0, "track": 9, "qtime": 31, "isDrum": true}, {"time": 180, "velocity": 108, "pitch": 69, "instrument": 0, "track": 9, "qtime": 36, "isDrum": true}, {"time": 181, "velocity": 0, "pitch": 69, "instrument": 0, "track": 9, "qtime": 37, "isDrum": true}, {"time": 186, "velocity": 108, "pitch": 69, "instrument": 0, "track": 9, "qtime": 42, "isDrum": true}, {"time": 187, "velocity": 0, "pitch": 69, "instrument": 0, "track": 9, "qtime": 43, "isDrum": true}, {"time": 192, "velocity": 108, "pitch": 69, "instrument": 0, "track": 9, "qtime": 0, "isDrum": true}, {"time": 193, "velocity": 0, "pitch": 69, "instrument": 0, "track": 9, "qtime": 1, "isDrum": true}, {"time": 198, "velocity": 108, "pitch": 69, "instrument": 0, "track": 9, "qtime": 6, "isDrum": true}, {"time": 199, "velocity": 0, "pitch": 69, "instrument": 0, "track": 9, "qtime": 7, "isDrum": true}, {"time": 200, "velocity": 108, "pitch": 69, "instrument": 0, "track": 9, "qtime": 8, "isDrum": true}, {"time": 201, "velocity": 0, "pitch": 69, "instrument": 0, "track": 9, "qtime": 9, "isDrum": true}, {"time": 202, "velocity": 108, "pitch": 69, "instrument": 0, "track": 9, "qtime": 10, "isDrum": true}, {"time": 203, "velocity": 0, "pitch": 69, "instrument": 0, "track": 9, "qtime": 11, "isDrum": true}, {"time": 204, "velocity": 108, "pitch": 69, "instrument": 0, "track": 9, "qtime": 12, "isDrum": true}, {"time": 205, "velocity": 0, "pitch": 69, "instrument": 0, "track": 9, "qtime": 13, "isDrum": true}, {"time": 210, "velocity": 108, "pitch": 69, "instrument": 0, "track": 9, "qtime": 18, "isDrum": true}, {"time": 211, "velocity": 0, "pitch": 69, "instrument": 0, "track": 9, "qtime": 19, "isDrum": true}, {"time": 216, "velocity": 108, "pitch": 69, "instrument": 0, "track": 9, "qtime": 24, "isDrum": true}, {"time": 217, "velocity": 0, "pitch": 69, "instrument": 0, "track": 9, "qtime": 25, "isDrum": true}, {"time": 222, "velocity": 108, "pitch": 69, "instrument": 0, "track": 9, "qtime": 30, "isDrum": true}, {"time": 223, "velocity": 0, "pitch": 69, "instrument": 0, "track": 9, "qtime": 31, "isDrum": true}, {"time": 228, "velocity": 108, "pitch": 69, "instrument": 0, "track": 9, "qtime": 36, "isDrum": true}, {"time": 229, "velocity": 0, "pitch": 69, "instrument": 0, "track": 9, "qtime": 37, "isDrum": true}, {"time": 234, "velocity": 108, "pitch": 69, "instrument": 0, "track": 9, "qtime": 42, "isDrum": true}, {"time": 235, "velocity": 0, "pitch": 69, "instrument": 0, "track": 9, "qtime": 43, "isDrum": true}, {"time": 240, "velocity": 108, "pitch": 69, "instrument": 0, "track": 9, "qtime": 0, "isDrum": true}, {"time": 241, "velocity": 0, "pitch": 69, "instrument": 0, "track": 9, "qtime": 1, "isDrum": true}, {"time": 246, "velocity": 108, "pitch": 69, "instrument": 0, "track": 9, "qtime": 6, "isDrum": true}, {"time": 247, "velocity": 0, "pitch": 69, "instrument": 0, "track": 9, "qtime": 7, "isDrum": true}, {"time": 248, "velocity": 108, "pitch": 69, "instrument": 0, "track": 9, "qtime": 8, "isDrum": true}, {"time": 249, "velocity": 0, "pitch": 69, "instrument": 0, "track": 9, "qtime": 9, "isDrum": true}, {"time": 250, "velocity": 108, "pitch": 69, "instrument": 0, "track": 9, "qtime": 10, "isDrum": true}, {"time": 251, "velocity": 0, "pitch": 69, "instrument": 0, "track": 9, "qtime": 11, "isDrum": true}, {"time": 252, "velocity": 108, "pitch": 69, "instrument": 0, "track": 9, "qtime": 12, "isDrum": true}, {"time": 253, "velocity": 0, "pitch": 69, "instrument": 0, "track": 9, "qtime": 13, "isDrum": true}, {"time": 258, "velocity": 108, "pitch": 69, "instrument": 0, "track": 9, "qtime": 18, "isDrum": true}, {"time": 259, "velocity": 0, "pitch": 69, "instrument": 0, "track": 9, "qtime": 19, "isDrum": true}, {"time": 264, "velocity": 108, "pitch": 69, "instrument": 0, "track": 9, "qtime": 24, "isDrum": true}, {"time": 265, "velocity": 0, "pitch": 69, "instrument": 0, "track": 9, "qtime": 25, "isDrum": true}, {"time": 270, "velocity": 108, "pitch": 69, "instrument": 0, "track": 9, "qtime": 30, "isDrum": true}, {"time": 271, "velocity": 0, "pitch": 69, "instrument": 0, "track": 9, "qtime": 31, "isDrum": true}, {"time": 276, "velocity": 108, "pitch": 69, "instrument": 0, "track": 9, "qtime": 36, "isDrum": true}, {"time": 277, "velocity": 0, "pitch": 69, "instrument": 0, "track": 9, "qtime": 37, "isDrum": true}, {"time": 282, "velocity": 108, "pitch": 69, "instrument": 0, "track": 9, "qtime": 42, "isDrum": true}, {"time": 283, "velocity": 0, "pitch": 69, "instrument": 0, "track": 9, "qtime": 43, "isDrum": true}, {"time": 288, "velocity": 108, "pitch": 69, "instrument": 0, "track": 9, "qtime": 0, "isDrum": true}, {"time": 289, "velocity": 0, "pitch": 69, "instrument": 0, "track": 9, "qtime": 1, "isDrum": true}, {"time": 294, "velocity": 108, "pitch": 69, "instrument": 0, "track": 9, "qtime": 6, "isDrum": true}, {"time": 295, "velocity": 0, "pitch": 69, "instrument": 0, "track": 9, "qtime": 7, "isDrum": true}, {"time": 296, "velocity": 108, "pitch": 69, "instrument": 0, "track": 9, "qtime": 8, "isDrum": true}, {"time": 297, "velocity": 0, "pitch": 69, "instrument": 0, "track": 9, "qtime": 9, "isDrum": true}, {"time": 298, "velocity": 108, "pitch": 69, "instrument": 0, "track": 9, "qtime": 10, "isDrum": true}, {"time": 299, "velocity": 0, "pitch": 69, "instrument": 0, "track": 9, "qtime": 11, "isDrum": true}, {"time": 300, "velocity": 108, "pitch": 69, "instrument": 0, "track": 9, "qtime": 12, "isDrum": true}, {"time": 301, "velocity": 0, "pitch": 69, "instrument": 0, "track": 9, "qtime": 13, "isDrum": true}, {"time": 306, "velocity": 108, "pitch": 69, "instrument": 0, "track": 9, "qtime": 18, "isDrum": true}, {"time": 307, "velocity": 0, "pitch": 69, "instrument": 0, "track": 9, "qtime": 19, "isDrum": true}, {"time": 312, "velocity": 108, "pitch": 69, "instrument": 0, "track": 9, "qtime": 24, "isDrum": true}, {"time": 313, "velocity": 0, "pitch": 69, "instrument": 0, "track": 9, "qtime": 25, "isDrum": true}, {"time": 318, "velocity": 108, "pitch": 69, "instrument": 0, "track": 9, "qtime": 30, "isDrum": true}, {"time": 319, "velocity": 0, "pitch": 69, "instrument": 0, "track": 9, "qtime": 31, "isDrum": true}, {"time": 324, "velocity": 108, "pitch": 69, "instrument": 0, "track": 9, "qtime": 36, "isDrum": true}, {"time": 325, "velocity": 0, "pitch": 69, "instrument": 0, "track": 9, "qtime": 37, "isDrum": true}, {"time": 330, "velocity": 108, "pitch": 69, "instrument": 0, "track": 9, "qtime": 42, "isDrum": true}, {"time": 331, "velocity": 0, "pitch": 69, "instrument": 0, "track": 9, "qtime": 43, "isDrum": true}, {"time": 336, "velocity": 108, "pitch": 69, "instrument": 0, "track": 9, "qtime": 0, "isDrum": true}, {"time": 337, "velocity": 0, "pitch": 69, "instrument": 0, "track": 9, "qtime": 1, "isDrum": true}, {"time": 342, "velocity": 108, "pitch": 69, "instrument": 0, "track": 9, "qtime": 6, "isDrum": true}, {"time": 343, "velocity": 0, "pitch": 69, "instrument": 0, "track": 9, "qtime": 7, "isDrum": true}, {"time": 344, "velocity": 108, "pitch": 69, "instrument": 0, "track": 9, "qtime": 8, "isDrum": true}, {"time": 345, "velocity": 0, "pitch": 69, "instrument": 0, "track": 9, "qtime": 9, "isDrum": true}, {"time": 346, "velocity": 108, "pitch": 69, "instrument": 0, "track": 9, "qtime": 10, "isDrum": true}, {"time": 347, "velocity": 0, "pitch": 69, "instrument": 0, "track": 9, "qtime": 11, "isDrum": true}, {"time": 348, "velocity": 108, "pitch": 69, "instrument": 0, "track": 9, "qtime": 12, "isDrum": true}, {"time": 349, "velocity": 0, "pitch": 69, "instrument": 0, "track": 9, "qtime": 13, "isDrum": true}, {"time": 354, "velocity": 108, "pitch": 69, "instrument": 0, "track": 9, "qtime": 18, "isDrum": true}, {"time": 355, "velocity": 0, "pitch": 69, "instrument": 0, "track": 9, "qtime": 19, "isDrum": true}, {"time": 360, "velocity": 108, "pitch": 69, "instrument": 0, "track": 9, "qtime": 24, "isDrum": true}, {"time": 361, "velocity": 0, "pitch": 69, "instrument": 0, "track": 9, "qtime": 25, "isDrum": true}, {"time": 366, "velocity": 108, "pitch": 69, "instrument": 0, "track": 9, "qtime": 30, "isDrum": true}, {"time": 367, "velocity": 0, "pitch": 69, "instrument": 0, "track": 9, "qtime": 31, "isDrum": true}, {"time": 372, "velocity": 108, "pitch": 69, "instrument": 0, "track": 9, "qtime": 36, "isDrum": true}, {"time": 373, "velocity": 0, "pitch": 69, "instrument": 0, "track": 9, "qtime": 37, "isDrum": true}, {"time": 378, "velocity": 108, "pitch": 69, "instrument": 0, "track": 9, "qtime": 42, "isDrum": true}, {"time": 379, "velocity": 0, "pitch": 69, "instrument": 0, "track": 9, "qtime": 43, "isDrum": true}, {"time": 0, "velocity": 108, "pitch": 64, "instrument": 0, "track": 9, "qtime": 0, "isDrum": true}, {"time": 2, "velocity": 0, "pitch": 64, "instrument": 0, "track": 9, "qtime": 2, "isDrum": true}, {"time": 6, "velocity": 108, "pitch": 63, "instrument": 0, "track": 9, "qtime": 6, "isDrum": true}, {"time": 7, "velocity": 0, "pitch": 63, "instrument": 0, "track": 9, "qtime": 7, "isDrum": true}, {"time": 12, "velocity": 108, "pitch": 62, "instrument": 0, "track": 9, "qtime": 12, "isDrum": true}, {"time": 14, "velocity": 0, "pitch": 62, "instrument": 0, "track": 9, "qtime": 14, "isDrum": true}, {"time": 18, "velocity": 108, "pitch": 64, "instrument": 0, "track": 9, "qtime": 18, "isDrum": true}, {"time": 19, "velocity": 0, "pitch": 64, "instrument": 0, "track": 9, "qtime": 19, "isDrum": true}, {"time": 24, "velocity": 108, "pitch": 64, "instrument": 0, "track": 9, "qtime": 24, "isDrum": true}, {"time": 25, "velocity": 0, "pitch": 64, "instrument": 0, "track": 9, "qtime": 25, "isDrum": true}, {"time": 30, "velocity": 108, "pitch": 62, "instrument": 0, "track": 9, "qtime": 30, "isDrum": true}, {"time": 32, "velocity": 0, "pitch": 62, "instrument": 0, "track": 9, "qtime": 32, "isDrum": true}, {"time": 36, "velocity": 108, "pitch": 63, "instrument": 0, "track": 9, "qtime": 36, "isDrum": true}, {"time": 37, "velocity": 0, "pitch": 63, "instrument": 0, "track": 9, "qtime": 37, "isDrum": true}, {"time": 42, "velocity": 108, "pitch": 64, "instrument": 0, "track": 9, "qtime": 42, "isDrum": true}, {"time": 43, "velocity": 0, "pitch": 64, "instrument": 0, "track": 9, "qtime": 43, "isDrum": true}, {"time": 48, "velocity": 108, "pitch": 64, "instrument": 0, "track": 9, "qtime": 0, "isDrum": true}, {"time": 50, "velocity": 0, "pitch": 64, "instrument": 0, "track": 9, "qtime": 2, "isDrum": true}, {"time": 54, "velocity": 108, "pitch": 63, "instrument": 0, "track": 9, "qtime": 6, "isDrum": true}, {"time": 55, "velocity": 0, "pitch": 63, "instrument": 0, "track": 9, "qtime": 7, "isDrum": true}, {"time": 60, "velocity": 108, "pitch": 62, "instrument": 0, "track": 9, "qtime": 12, "isDrum": true}, {"time": 62, "velocity": 0, "pitch": 62, "instrument": 0, "track": 9, "qtime": 14, "isDrum": true}, {"time": 66, "velocity": 108, "pitch": 64, "instrument": 0, "track": 9, "qtime": 18, "isDrum": true}, {"time": 67, "velocity": 0, "pitch": 64, "instrument": 0, "track": 9, "qtime": 19, "isDrum": true}, {"time": 72, "velocity": 108, "pitch": 64, "instrument": 0, "track": 9, "qtime": 24, "isDrum": true}, {"time": 73, "velocity": 0, "pitch": 64, "instrument": 0, "track": 9, "qtime": 25, "isDrum": true}, {"time": 78, "velocity": 108, "pitch": 62, "instrument": 0, "track": 9, "qtime": 30, "isDrum": true}, {"time": 80, "velocity": 0, "pitch": 62, "instrument": 0, "track": 9, "qtime": 32, "isDrum": true}, {"time": 84, "velocity": 108, "pitch": 63, "instrument": 0, "track": 9, "qtime": 36, "isDrum": true}, {"time": 85, "velocity": 0, "pitch": 63, "instrument": 0, "track": 9, "qtime": 37, "isDrum": true}, {"time": 90, "velocity": 108, "pitch": 64, "instrument": 0, "track": 9, "qtime": 42, "isDrum": true}, {"time": 91, "velocity": 0, "pitch": 64, "instrument": 0, "track": 9, "qtime": 43, "isDrum": true}, {"time": 96, "velocity": 108, "pitch": 64, "instrument": 0, "track": 9, "qtime": 0, "isDrum": true}, {"time": 98, "velocity": 0, "pitch": 64, "instrument": 0, "track": 9, "qtime": 2, "isDrum": true}, {"time": 102, "velocity": 108, "pitch": 63, "instrument": 0, "track": 9, "qtime": 6, "isDrum": true}, {"time": 103, "velocity": 0, "pitch": 63, "instrument": 0, "track": 9, "qtime": 7, "isDrum": true}, {"time": 108, "velocity": 108, "pitch": 62, "instrument": 0, "track": 9, "qtime": 12, "isDrum": true}, {"time": 110, "velocity": 0, "pitch": 62, "instrument": 0, "track": 9, "qtime": 14, "isDrum": true}, {"time": 114, "velocity": 108, "pitch": 64, "instrument": 0, "track": 9, "qtime": 18, "isDrum": true}, {"time": 115, "velocity": 0, "pitch": 64, "instrument": 0, "track": 9, "qtime": 19, "isDrum": true}, {"time": 120, "velocity": 108, "pitch": 64, "instrument": 0, "track": 9, "qtime": 24, "isDrum": true}, {"time": 121, "velocity": 0, "pitch": 64, "instrument": 0, "track": 9, "qtime": 25, "isDrum": true}, {"time": 126, "velocity": 108, "pitch": 62, "instrument": 0, "track": 9, "qtime": 30, "isDrum": true}, {"time": 128, "velocity": 0, "pitch": 62, "instrument": 0, "track": 9, "qtime": 32, "isDrum": true}, {"time": 132, "velocity": 108, "pitch": 63, "instrument": 0, "track": 9, "qtime": 36, "isDrum": true}, {"time": 133, "velocity": 0, "pitch": 63, "instrument": 0, "track": 9, "qtime": 37, "isDrum": true}, {"time": 138, "velocity": 108, "pitch": 64, "instrument": 0, "track": 9, "qtime": 42, "isDrum": true}, {"time": 139, "velocity": 0, "pitch": 64, "instrument": 0, "track": 9, "qtime": 43, "isDrum": true}, {"time": 144, "velocity": 108, "pitch": 64, "instrument": 0, "track": 9, "qtime": 0, "isDrum": true}, {"time": 146, "velocity": 0, "pitch": 64, "instrument": 0, "track": 9, "qtime": 2, "isDrum": true}, {"time": 150, "velocity": 108, "pitch": 63, "instrument": 0, "track": 9, "qtime": 6, "isDrum": true}, {"time": 151, "velocity": 0, "pitch": 63, "instrument": 0, "track": 9, "qtime": 7, "isDrum": true}, {"time": 156, "velocity": 108, "pitch": 62, "instrument": 0, "track": 9, "qtime": 12, "isDrum": true}, {"time": 158, "velocity": 0, "pitch": 62, "instrument": 0, "track": 9, "qtime": 14, "isDrum": true}, {"time": 162, "velocity": 108, "pitch": 64, "instrument": 0, "track": 9, "qtime": 18, "isDrum": true}, {"time": 163, "velocity": 0, "pitch": 64, "instrument": 0, "track": 9, "qtime": 19, "isDrum": true}, {"time": 168, "velocity": 108, "pitch": 64, "instrument": 0, "track": 9, "qtime": 24, "isDrum": true}, {"time": 169, "velocity": 0, "pitch": 64, "instrument": 0, "track": 9, "qtime": 25, "isDrum": true}, {"time": 174, "velocity": 108, "pitch": 62, "instrument": 0, "track": 9, "qtime": 30, "isDrum": true}, {"time": 176, "velocity": 0, "pitch": 62, "instrument": 0, "track": 9, "qtime": 32, "isDrum": true}, {"time": 180, "velocity": 108, "pitch": 63, "instrument": 0, "track": 9, "qtime": 36, "isDrum": true}, {"time": 181, "velocity": 0, "pitch": 63, "instrument": 0, "track": 9, "qtime": 37, "isDrum": true}, {"time": 186, "velocity": 108, "pitch": 64, "instrument": 0, "track": 9, "qtime": 42, "isDrum": true}, {"time": 187, "velocity": 0, "pitch": 64, "instrument": 0, "track": 9, "qtime": 43, "isDrum": true}, {"time": 192, "velocity": 108, "pitch": 64, "instrument": 0, "track": 9, "qtime": 0, "isDrum": true}, {"time": 194, "velocity": 0, "pitch": 64, "instrument": 0, "track": 9, "qtime": 2, "isDrum": true}, {"time": 198, "velocity": 108, "pitch": 63, "instrument": 0, "track": 9, "qtime": 6, "isDrum": true}, {"time": 199, "velocity": 0, "pitch": 63, "instrument": 0, "track": 9, "qtime": 7, "isDrum": true}, {"time": 204, "velocity": 108, "pitch": 62, "instrument": 0, "track": 9, "qtime": 12, "isDrum": true}, {"time": 206, "velocity": 0, "pitch": 62, "instrument": 0, "track": 9, "qtime": 14, "isDrum": true}, {"time": 210, "velocity": 108, "pitch": 63, "instrument": 0, "track": 9, "qtime": 18, "isDrum": true}, {"time": 211, "velocity": 0, "pitch": 63, "instrument": 0, "track": 9, "qtime": 19, "isDrum": true}, {"time": 216, "velocity": 108, "pitch": 62, "instrument": 0, "track": 9, "qtime": 24, "isDrum": true}, {"time": 218, "velocity": 0, "pitch": 62, "instrument": 0, "track": 9, "qtime": 26, "isDrum": true}, {"time": 228, "velocity": 108, "pitch": 62, "instrument": 0, "track": 9, "qtime": 36, "isDrum": true}, {"time": 230, "velocity": 0, "pitch": 62, "instrument": 0, "track": 9, "qtime": 38, "isDrum": true}, {"time": 240, "velocity": 108, "pitch": 64, "instrument": 0, "track": 9, "qtime": 0, "isDrum": true}, {"time": 242, "velocity": 0, "pitch": 64, "instrument": 0, "track": 9, "qtime": 2, "isDrum": true}, {"time": 246, "velocity": 108, "pitch": 63, "instrument": 0, "track": 9, "qtime": 6, "isDrum": true}, {"time": 247, "velocity": 0, "pitch": 63, "instrument": 0, "track": 9, "qtime": 7, "isDrum": true}, {"time": 252, "velocity": 108, "pitch": 62, "instrument": 0, "track": 9, "qtime": 12, "isDrum": true}, {"time": 254, "velocity": 0, "pitch": 62, "instrument": 0, "track": 9, "qtime": 14, "isDrum": true}, {"time": 258, "velocity": 108, "pitch": 64, "instrument": 0, "track": 9, "qtime": 18, "isDrum": true}, {"time": 259, "velocity": 0, "pitch": 64, "instrument": 0, "track": 9, "qtime": 19, "isDrum": true}, {"time": 264, "velocity": 108, "pitch": 64, "instrument": 0, "track": 9, "qtime": 24, "isDrum": true}, {"time": 265, "velocity": 0, "pitch": 64, "instrument": 0, "track": 9, "qtime": 25, "isDrum": true}, {"time": 270, "velocity": 108, "pitch": 62, "instrument": 0, "track": 9, "qtime": 30, "isDrum": true}, {"time": 272, "velocity": 0, "pitch": 62, "instrument": 0, "track": 9, "qtime": 32, "isDrum": true}, {"time": 276, "velocity": 108, "pitch": 63, "instrument": 0, "track": 9, "qtime": 36, "isDrum": true}, {"time": 277, "velocity": 0, "pitch": 63, "instrument": 0, "track": 9, "qtime": 37, "isDrum": true}, {"time": 282, "velocity": 108, "pitch": 64, "instrument": 0, "track": 9, "qtime": 42, "isDrum": true}, {"time": 283, "velocity": 0, "pitch": 64, "instrument": 0, "track": 9, "qtime": 43, "isDrum": true}, {"time": 288, "velocity": 108, "pitch": 64, "instrument": 0, "track": 9, "qtime": 0, "isDrum": true}, {"time": 290, "velocity": 0, "pitch": 64, "instrument": 0, "track": 9, "qtime": 2, "isDrum": true}, {"time": 294, "velocity": 108, "pitch": 63, "instrument": 0, "track": 9, "qtime": 6, "isDrum": true}, {"time": 295, "velocity": 0, "pitch": 63, "instrument": 0, "track": 9, "qtime": 7, "isDrum": true}, {"time": 300, "velocity": 108, "pitch": 62, "instrument": 0, "track": 9, "qtime": 12, "isDrum": true}, {"time": 302, "velocity": 0, "pitch": 62, "instrument": 0, "track": 9, "qtime": 14, "isDrum": true}, {"time": 306, "velocity": 108, "pitch": 64, "instrument": 0, "track": 9, "qtime": 18, "isDrum": true}, {"time": 307, "velocity": 0, "pitch": 64, "instrument": 0, "track": 9, "qtime": 19, "isDrum": true}, {"time": 312, "velocity": 108, "pitch": 64, "instrument": 0, "track": 9, "qtime": 24, "isDrum": true}, {"time": 313, "velocity": 0, "pitch": 64, "instrument": 0, "track": 9, "qtime": 25, "isDrum": true}, {"time": 318, "velocity": 108, "pitch": 62, "instrument": 0, "track": 9, "qtime": 30, "isDrum": true}, {"time": 320, "velocity": 0, "pitch": 62, "instrument": 0, "track": 9, "qtime": 32, "isDrum": true}, {"time": 324, "velocity": 108, "pitch": 63, "instrument": 0, "track": 9, "qtime": 36, "isDrum": true}, {"time": 325, "velocity": 0, "pitch": 63, "instrument": 0, "track": 9, "qtime": 37, "isDrum": true}, {"time": 330, "velocity": 108, "pitch": 64, "instrument": 0, "track": 9, "qtime": 42, "isDrum": true}, {"time": 331, "velocity": 0, "pitch": 64, "instrument": 0, "track": 9, "qtime": 43, "isDrum": true}, {"time": 336, "velocity": 108, "pitch": 64, "instrument": 0, "track": 9, "qtime": 0, "isDrum": true}, {"time": 338, "velocity": 0, "pitch": 64, "instrument": 0, "track": 9, "qtime": 2, "isDrum": true}, {"time": 342, "velocity": 108, "pitch": 63, "instrument": 0, "track": 9, "qtime": 6, "isDrum": true}, {"time": 343, "velocity": 0, "pitch": 63, "instrument": 0, "track": 9, "qtime": 7, "isDrum": true}, {"time": 348, "velocity": 108, "pitch": 62, "instrument": 0, "track": 9, "qtime": 12, "isDrum": true}, {"time": 350, "velocity": 0, "pitch": 62, "instrument": 0, "track": 9, "qtime": 14, "isDrum": true}, {"time": 354, "velocity": 108, "pitch": 64, "instrument": 0, "track": 9, "qtime": 18, "isDrum": true}, {"time": 355, "velocity": 0, "pitch": 64, "instrument": 0, "track": 9, "qtime": 19, "isDrum": true}, {"time": 360, "velocity": 108, "pitch": 64, "instrument": 0, "track": 9, "qtime": 24, "isDrum": true}, {"time": 361, "velocity": 0, "pitch": 64, "instrument": 0, "track": 9, "qtime": 25, "isDrum": true}, {"time": 366, "velocity": 108, "pitch": 62, "instrument": 0, "track": 9, "qtime": 30, "isDrum": true}, {"time": 368, "velocity": 0, "pitch": 62, "instrument": 0, "track": 9, "qtime": 32, "isDrum": true}, {"time": 372, "velocity": 108, "pitch": 63, "instrument": 0, "track": 9, "qtime": 36, "isDrum": true}, {"time": 373, "velocity": 0, "pitch": 63, "instrument": 0, "track": 9, "qtime": 37, "isDrum": true}, {"time": 378, "velocity": 108, "pitch": 64, "instrument": 0, "track": 9, "qtime": 42, "isDrum": true}, {"time": 379, "velocity": 0, "pitch": 64, "instrument": 0, "track": 9, "qtime": 43, "isDrum": true}, {"time": 0, "velocity": 108, "pitch": 52, "instrument": 0, "track": 4, "qtime": 0, "isDrum": false}, {"time": 0, "velocity": 108, "pitch": 56, "instrument": 0, "track": 4, "qtime": 0, "isDrum": false}, {"time": 0, "velocity": 108, "pitch": 62, "instrument": 0, "track": 4, "qtime": 0, "isDrum": false}, {"time": 19, "velocity": 0, "pitch": 62, "instrument": 0, "track": 4, "qtime": 19, "isDrum": false}, {"time": 20, "velocity": 0, "pitch": 56, "instrument": 0, "track": 4, "qtime": 20, "isDrum": false}, {"time": 21, "velocity": 0, "pitch": 52, "instrument": 0, "track": 4, "qtime": 21, "isDrum": false}, {"time": 24, "velocity": 108, "pitch": 52, "instrument": 0, "track": 4, "qtime": 24, "isDrum": false}, {"time": 24, "velocity": 108, "pitch": 56, "instrument": 0, "track": 4, "qtime": 24, "isDrum": false}, {"time": 24, "velocity": 108, "pitch": 62, "instrument": 0, "track": 4, "qtime": 24, "isDrum": false}, {"time": 28, "velocity": 0, "pitch": 52, "instrument": 0, "track": 4, "qtime": 28, "isDrum": false}, {"time": 28, "velocity": 0, "pitch": 56, "instrument": 0, "track": 4, "qtime": 28, "isDrum": false}, {"time": 29, "velocity": 0, "pitch": 62, "instrument": 0, "track": 4, "qtime": 29, "isDrum": false}, {"time": 32, "velocity": 108, "pitch": 54, "instrument": 0, "track": 4, "qtime": 32, "isDrum": false}, {"time": 32, "velocity": 108, "pitch": 59, "instrument": 0, "track": 4, "qtime": 32, "isDrum": false}, {"time": 32, "velocity": 108, "pitch": 62, "instrument": 0, "track": 4, "qtime": 32, "isDrum": false}, {"time": 39, "velocity": 0, "pitch": 62, "instrument": 0, "track": 4, "qtime": 39, "isDrum": false}, {"time": 40, "velocity": 0, "pitch": 54, "instrument": 0, "track": 4, "qtime": 40, "isDrum": false}, {"time": 40, "velocity": 0, "pitch": 59, "instrument": 0, "track": 4, "qtime": 40, "isDrum": false}, {"time": 40, "velocity": 108, "pitch": 56, "instrument": 0, "track": 4, "qtime": 40, "isDrum": false}, {"time": 40, "velocity": 108, "pitch": 62, "instrument": 0, "track": 4, "qtime": 40, "isDrum": false}, {"time": 48, "velocity": 0, "pitch": 56, "instrument": 0, "track": 4, "qtime": 48, "isDrum": false}, {"time": 48, "velocity": 0, "pitch": 62, "instrument": 0, "track": 4, "qtime": 48, "isDrum": false}, {"time": 48, "velocity": 108, "pitch": 52, "instrument": 0, "track": 4, "qtime": 0, "isDrum": false}, {"time": 48, "velocity": 108, "pitch": 55, "instrument": 0, "track": 4, "qtime": 0, "isDrum": false}, {"time": 48, "velocity": 108, "pitch": 61, "instrument": 0, "track": 4, "qtime": 0, "isDrum": false}, {"time": 87, "velocity": 0, "pitch": 52, "instrument": 0, "track": 4, "qtime": 39, "isDrum": false}, {"time": 88, "velocity": 0, "pitch": 61, "instrument": 0, "track": 4, "qtime": 40, "isDrum": false}, {"time": 89, "velocity": 0, "pitch": 55, "instrument": 0, "track": 4, "qtime": 41, "isDrum": false}, {"time": 92, "velocity": 108, "pitch": 53, "instrument": 0, "track": 4, "qtime": 44, "isDrum": false}, {"time": 92, "velocity": 108, "pitch": 55, "instrument": 0, "track": 4, "qtime": 44, "isDrum": false}, {"time": 92, "velocity": 108, "pitch": 59, "instrument": 0, "track": 4, "qtime": 44, "isDrum": false}, {"time": 92, "velocity": 108, "pitch": 60, "instrument": 0, "track": 4, "qtime": 44, "isDrum": false}, {"time": 94, "velocity": 0, "pitch": 59, "instrument": 0, "track": 4, "qtime": 46, "isDrum": false}, {"time": 113, "velocity": 0, "pitch": 53, "instrument": 0, "track": 4, "qtime": 17, "isDrum": false}, {"time": 114, "velocity": 0, "pitch": 55, "instrument": 0, "track": 4, "qtime": 18, "isDrum": false}, {"time": 114, "velocity": 0, "pitch": 60, "instrument": 0, "track": 4, "qtime": 18, "isDrum": false}, {"time": 116, "velocity": 108, "pitch": 53, "instrument": 0, "track": 4, "qtime": 20, "isDrum": false}, {"time": 116, "velocity": 108, "pitch": 55, "instrument": 0, "track": 4, "qtime": 20, "isDrum": false}, {"time": 116, "velocity": 108, "pitch": 59, "instrument": 0, "track": 4, "qtime": 20, "isDrum": false}, {"time": 116, "velocity": 108, "pitch": 60, "instrument": 0, "track": 4, "qtime": 20, "isDrum": false}, {"time": 117, "velocity": 0, "pitch": 59, "instrument": 0, "track": 4, "qtime": 21, "isDrum": false}, {"time": 117, "velocity": 108, "pitch": 52, "instrument": 0, "track": 4, "qtime": 21, "isDrum": false}, {"time": 118, "velocity": 0, "pitch": 53, "instrument": 0, "track": 4, "qtime": 22, "isDrum": false}, {"time": 118, "velocity": 0, "pitch": 55, "instrument": 0, "track": 4, "qtime": 22, "isDrum": false}, {"time": 118, "velocity": 0, "pitch": 60, "instrument": 0, "track": 4, "qtime": 22, "isDrum": false}, {"time": 119, "velocity": 0, "pitch": 52, "instrument": 0, "track": 4, "qtime": 23, "isDrum": false}, {"time": 121, "velocity": 108, "pitch": 53, "instrument": 0, "track": 4, "qtime": 25, "isDrum": false}, {"time": 121, "velocity": 108, "pitch": 55, "instrument": 0, "track": 4, "qtime": 25, "isDrum": false}, {"time": 121, "velocity": 108, "pitch": 60, "instrument": 0, "track": 4, "qtime": 25, "isDrum": false}, {"time": 133, "velocity": 0, "pitch": 53, "instrument": 0, "track": 4, "qtime": 37, "isDrum": false}, {"time": 133, "velocity": 108, "pitch": 52, "instrument": 0, "track": 4, "qtime": 37, "isDrum": false}, {"time": 141, "velocity": 0, "pitch": 60, "instrument": 0, "track": 4, "qtime": 45, "isDrum": false}, {"time": 142, "velocity": 0, "pitch": 52, "instrument": 0, "track": 4, "qtime": 46, "isDrum": false}, {"time": 143, "velocity": 0, "pitch": 55, "instrument": 0, "track": 4, "qtime": 47, "isDrum": false}, {"time": 144, "velocity": 108, "pitch": 50, "instrument": 0, "track": 4, "qtime": 0, "isDrum": false}, {"time": 144, "velocity": 108, "pitch": 54, "instrument": 0, "track": 4, "qtime": 0, "isDrum": false}, {"time": 144, "velocity": 108, "pitch": 59, "instrument": 0, "track": 4, "qtime": 0, "isDrum": false}, {"time": 183, "velocity": 0, "pitch": 50, "instrument": 0, "track": 4, "qtime": 39, "isDrum": false}, {"time": 183, "velocity": 0, "pitch": 59, "instrument": 0, "track": 4, "qtime": 39, "isDrum": false}, {"time": 184, "velocity": 0, "pitch": 54, "instrument": 0, "track": 4, "qtime": 40, "isDrum": false}, {"time": 188, "velocity": 108, "pitch": 50, "instrument": 0, "track": 4, "qtime": 44, "isDrum": false}, {"time": 188, "velocity": 108, "pitch": 54, "instrument": 0, "track": 4, "qtime": 44, "isDrum": false}, {"time": 188, "velocity": 108, "pitch": 57, "instrument": 0, "track": 4, "qtime": 44, "isDrum": false}, {"time": 188, "velocity": 108, "pitch": 59, "instrument": 0, "track": 4, "qtime": 44, "isDrum": false}, {"time": 188, "velocity": 108, "pitch": 60, "instrument": 0, "track": 4, "qtime": 44, "isDrum": false}, {"time": 189, "velocity": 0, "pitch": 59, "instrument": 0, "track": 4, "qtime": 45, "isDrum": false}, {"time": 191, "velocity": 0, "pitch": 50, "instrument": 0, "track": 4, "qtime": 47, "isDrum": false}, {"time": 191, "velocity": 0, "pitch": 54, "instrument": 0, "track": 4, "qtime": 47, "isDrum": false}, {"time": 191, "velocity": 0, "pitch": 57, "instrument": 0, "track": 4, "qtime": 47, "isDrum": false}, {"time": 192, "velocity": 0, "pitch": 60, "instrument": 0, "track": 4, "qtime": 48, "isDrum": false}, {"time": 192, "velocity": 108, "pitch": 52, "instrument": 0, "track": 4, "qtime": 0, "isDrum": false}, {"time": 192, "velocity": 108, "pitch": 56, "instrument": 0, "track": 4, "qtime": 0, "isDrum": false}, {"time": 192, "velocity": 108, "pitch": 59, "instrument": 0, "track": 4, "qtime": 0, "isDrum": false}, {"time": 192, "velocity": 108, "pitch": 62, "instrument": 0, "track": 4, "qtime": 0, "isDrum": false}, {"time": 210, "velocity": 0, "pitch": 62, "instrument": 0, "track": 4, "qtime": 18, "isDrum": false}, {"time": 211, "velocity": 0, "pitch": 56, "instrument": 0, "track": 4, "qtime": 19, "isDrum": false}, {"time": 211, "velocity": 0, "pitch": 59, "instrument": 0, "track": 4, "qtime": 19, "isDrum": false}, {"time": 212, "velocity": 0, "pitch": 52, "instrument": 0, "track": 4, "qtime": 20, "isDrum": false}, {"time": 216, "velocity": 108, "pitch": 52, "instrument": 0, "track": 4, "qtime": 24, "isDrum": false}, {"time": 216, "velocity": 108, "pitch": 56, "instrument": 0, "track": 4, "qtime": 24, "isDrum": false}, {"time": 216, "velocity": 108, "pitch": 59, "instrument": 0, "track": 4, "qtime": 24, "isDrum": false}, {"time": 216, "velocity": 108, "pitch": 62, "instrument": 0, "track": 4, "qtime": 24, "isDrum": false}, {"time": 221, "velocity": 0, "pitch": 62, "instrument": 0, "track": 4, "qtime": 29, "isDrum": false}, {"time": 222, "velocity": 0, "pitch": 52, "instrument": 0, "track": 4, "qtime": 30, "isDrum": false}, {"time": 222, "velocity": 0, "pitch": 56, "instrument": 0, "track": 4, "qtime": 30, "isDrum": false}, {"time": 222, "velocity": 0, "pitch": 59, "instrument": 0, "track": 4, "qtime": 30, "isDrum": false}, {"time": 224, "velocity": 108, "pitch": 54, "instrument": 0, "track": 4, "qtime": 32, "isDrum": false}, {"time": 224, "velocity": 108, "pitch": 59, "instrument": 0, "track": 4, "qtime": 32, "isDrum": false}, {"time": 224, "velocity": 108, "pitch": 62, "instrument": 0, "track": 4, "qtime": 32, "isDrum": false}, {"time": 231, "velocity": 0, "pitch": 62, "instrument": 0, "track": 4, "qtime": 39, "isDrum": false}, {"time": 232, "velocity": 0, "pitch": 54, "instrument": 0, "track": 4, "qtime": 40, "isDrum": false}, {"time": 232, "velocity": 0, "pitch": 59, "instrument": 0, "track": 4, "qtime": 40, "isDrum": false}, {"time": 232, "velocity": 108, "pitch": 56, "instrument": 0, "track": 4, "qtime": 40, "isDrum": false}, {"time": 232, "velocity": 108, "pitch": 62, "instrument": 0, "track": 4, "qtime": 40, "isDrum": false}, {"time": 236, "velocity": 0, "pitch": 56, "instrument": 0, "track": 4, "qtime": 44, "isDrum": false}, {"time": 236, "velocity": 0, "pitch": 62, "instrument": 0, "track": 4, "qtime": 44, "isDrum": false}, {"time": 240, "velocity": 108, "pitch": 52, "instrument": 0, "track": 4, "qtime": 0, "isDrum": false}, {"time": 240, "velocity": 108, "pitch": 55, "instrument": 0, "track": 4, "qtime": 0, "isDrum": false}, {"time": 240, "velocity": 108, "pitch": 61, "instrument": 0, "track": 4, "qtime": 0, "isDrum": false}, {"time": 281, "velocity": 0, "pitch": 55, "instrument": 0, "track": 4, "qtime": 41, "isDrum": false}, {"time": 281, "velocity": 0, "pitch": 61, "instrument": 0, "track": 4, "qtime": 41, "isDrum": false}, {"time": 282, "velocity": 0, "pitch": 52, "instrument": 0, "track": 4, "qtime": 42, "isDrum": false}, {"time": 284, "velocity": 108, "pitch": 53, "instrument": 0, "track": 4, "qtime": 44, "isDrum": false}, {"time": 284, "velocity": 108, "pitch": 55, "instrument": 0, "track": 4, "qtime": 44, "isDrum": false}, {"time": 284, "velocity": 108, "pitch": 57, "instrument": 0, "track": 4, "qtime": 44, "isDrum": false}, {"time": 284, "velocity": 108, "pitch": 60, "instrument": 0, "track": 4, "qtime": 44, "isDrum": false}, {"time": 309, "velocity": 0, "pitch": 55, "instrument": 0, "track": 4, "qtime": 21, "isDrum": false}, {"time": 309, "velocity": 0, "pitch": 57, "instrument": 0, "track": 4, "qtime": 21, "isDrum": false}, {"time": 309, "velocity": 0, "pitch": 60, "instrument": 0, "track": 4, "qtime": 21, "isDrum": false}, {"time": 310, "velocity": 0, "pitch": 53, "instrument": 0, "track": 4, "qtime": 22, "isDrum": false}, {"time": 312, "velocity": 108, "pitch": 54, "instrument": 0, "track": 4, "qtime": 24, "isDrum": false}, {"time": 312, "velocity": 108, "pitch": 57, "instrument": 0, "track": 4, "qtime": 24, "isDrum": false}, {"time": 312, "velocity": 108, "pitch": 59, "instrument": 0, "track": 4, "qtime": 24, "isDrum": false}, {"time": 312, "velocity": 108, "pitch": 62, "instrument": 0, "track": 4, "qtime": 24, "isDrum": false}, {"time": 318, "velocity": 0, "pitch": 54, "instrument": 0, "track": 4, "qtime": 30, "isDrum": false}, {"time": 318, "velocity": 0, "pitch": 57, "instrument": 0, "track": 4, "qtime": 30, "isDrum": false}, {"time": 318, "velocity": 0, "pitch": 59, "instrument": 0, "track": 4, "qtime": 30, "isDrum": false}, {"time": 318, "velocity": 0, "pitch": 62, "instrument": 0, "track": 4, "qtime": 30, "isDrum": false}, {"time": 320, "velocity": 108, "pitch": 55, "instrument": 0, "track": 4, "qtime": 32, "isDrum": false}, {"time": 320, "velocity": 108, "pitch": 58, "instrument": 0, "track": 4, "qtime": 32, "isDrum": false}, {"time": 320, "velocity": 108, "pitch": 60, "instrument": 0, "track": 4, "qtime": 32, "isDrum": false}, {"time": 320, "velocity": 108, "pitch": 64, "instrument": 0, "track": 4, "qtime": 32, "isDrum": false}, {"time": 327, "velocity": 0, "pitch": 58, "instrument": 0, "track": 4, "qtime": 39, "isDrum": false}, {"time": 328, "velocity": 0, "pitch": 55, "instrument": 0, "track": 4, "qtime": 40, "isDrum": false}, {"time": 328, "velocity": 108, "pitch": 54, "instrument": 0, "track": 4, "qtime": 40, "isDrum": false}, {"time": 328, "velocity": 108, "pitch": 57, "instrument": 0, "track": 4, "qtime": 40, "isDrum": false}, {"time": 328, "velocity": 108, "pitch": 62, "instrument": 0, "track": 4, "qtime": 40, "isDrum": false}, {"time": 329, "velocity": 0, "pitch": 60, "instrument": 0, "track": 4, "qtime": 41, "isDrum": false}, {"time": 329, "velocity": 0, "pitch": 64, "instrument": 0, "track": 4, "qtime": 41, "isDrum": false}, {"time": 333, "velocity": 0, "pitch": 54, "instrument": 0, "track": 4, "qtime": 45, "isDrum": false}, {"time": 333, "velocity": 0, "pitch": 57, "instrument": 0, "track": 4, "qtime": 45, "isDrum": false}, {"time": 333, "velocity": 0, "pitch": 62, "instrument": 0, "track": 4, "qtime": 45, "isDrum": false}, {"time": 336, "velocity": 108, "pitch": 53, "instrument": 0, "track": 4, "qtime": 0, "isDrum": false}, {"time": 336, "velocity": 108, "pitch": 57, "instrument": 0, "track": 4, "qtime": 0, "isDrum": false}, {"time": 336, "velocity": 108, "pitch": 60, "instrument": 0, "track": 4, "qtime": 0, "isDrum": false}, {"time": 356, "velocity": 0, "pitch": 57, "instrument": 0, "track": 4, "qtime": 20, "isDrum": false}, {"time": 356, "velocity": 0, "pitch": 60, "instrument": 0, "track": 4, "qtime": 20, "isDrum": false}, {"time": 358, "velocity": 0, "pitch": 53, "instrument": 0, "track": 4, "qtime": 22, "isDrum": false}, {"time": 360, "velocity": 108, "pitch": 53, "instrument": 0, "track": 4, "qtime": 24, "isDrum": false}, {"time": 360, "velocity": 108, "pitch": 57, "instrument": 0, "track": 4, "qtime": 24, "isDrum": false}, {"time": 360, "velocity": 108, "pitch": 59, "instrument": 0, "track": 4, "qtime": 24, "isDrum": false}, {"time": 360, "velocity": 108, "pitch": 62, "instrument": 0, "track": 4, "qtime": 24, "isDrum": false}, {"time": 380, "velocity": 0, "pitch": 53, "instrument": 0, "track": 4, "qtime": 44, "isDrum": false}, {"time": 380, "velocity": 0, "pitch": 59, "instrument": 0, "track": 4, "qtime": 44, "isDrum": false}, {"time": 380, "velocity": 0, "pitch": 62, "instrument": 0, "track": 4, "qtime": 44, "isDrum": false}, {"time": 382, "velocity": 0, "pitch": 57, "instrument": 0, "track": 4, "qtime": 46, "isDrum": false}], "resolution": 12, "tempo": 88, "minPitch": 28, "maxPitch": 69, "validSegments": [0], "validTracks": [31]}, "audio": "https://www.sfu.ca/~jeffe/examples/8b_ex6_density_6.mp3"}, {"src": "gen/8b_ex6_density_9c.json", "highlights": [[], [0, 1, 2, 3, 4, 5, 6, 7], []], "caption": "Resample the piano track in 20a with high density.", "sample_id": "20e", "mixer": [8, 8, 8, 8, 8], "json": {"tracks": [{"bars": [{"events": [0, 1, 2, 3, 4, 5, 6, 7, 8, 9], "isFourFour": true, "hasNotes": true, "time": 0}, {"events": [10, 11, 12, 13, 14, 15, 16, 17, 18, 19], "isFourFour": true, "hasNotes": true, "time": 48}, {"events": [20, 21, 22, 23, 24, 25, 26, 27], "isFourFour": true, "hasNotes": true, "time": 96}, {"events": [28, 29, 30, 31, 32, 33, 34, 35, 36, 37], "isFourFour": true, "hasNotes": true, "time": 144}, {"events": [38, 39, 40, 41, 42, 43, 44, 45], "isFourFour": true, "hasNotes": true, "time": 192}, {"events": [46, 47, 48, 49, 50, 51, 52, 53, 54, 55], "isFourFour": true, "hasNotes": true, "time": 240}, {"events": [56, 57, 58, 59, 60, 61, 62, 63], "isFourFour": true, "hasNotes": true, "time": 288}, {"events": [64, 65, 66, 67, 68, 69, 70, 71], "isFourFour": true, "hasNotes": true, "time": 336}], "isDrum": false, "minPitch": 28, "maxPitch": 40, "instrument": 0, "avPolyphony": 1.00295854, "noteDensity": 9, "noteDensityV2": 3}, {"bars": [{"events": [390, 391, 392, 393, 394, 395, 396, 397, 398, 399, 400, 401, 402, 403, 404, 405, 406, 407, 408, 409, 410, 411, 412, 413], "isFourFour": true, "hasNotes": true, "time": 0}, {"events": [414, 415, 416, 417, 418, 419, 420, 421, 422, 423, 424, 425, 426, 427, 428, 429, 430, 431, 432, 433, 434, 435, 436, 437, 438, 439, 440, 441], "isFourFour": true, "hasNotes": true, "time": 48}, {"events": [442, 443, 444, 445, 446, 447, 448, 449, 450, 451, 452, 453, 454, 455, 456, 457, 458, 459, 460, 461, 462, 463, 464, 465], "isFourFour": true, "hasNotes": true, "time": 96}, {"events": [466, 467, 468, 469, 470, 471, 472, 473, 474, 475, 476, 477, 478, 479, 480, 481, 482, 483, 484, 485, 486, 487, 488, 489], "isFourFour": true, "hasNotes": true, "time": 144}, {"events": [490, 491, 492, 493, 494, 495, 496, 497, 498, 499, 500, 501, 502, 503, 504, 505, 506, 507], "isFourFour": true, "hasNotes": true, "time": 192}, {"events": [508, 509, 510, 511, 512, 513, 514, 515, 516, 517, 518, 519, 520, 521, 522, 523, 524, 525, 526, 527, 528, 529, 530, 531, 532, 533, 534], "isFourFour": true, "hasNotes": true, "time": 240}, {"events": [535, 536, 537, 538, 539, 540, 541, 542, 543, 544, 545, 546, 547, 548, 549, 550, 551, 552, 553, 554, 555, 556, 557, 558, 559], "isFourFour": true, "hasNotes": true, "time": 288}, {"events": [560, 561, 562, 563, 564, 565, 566, 567, 568, 569, 570, 571, 572, 573, 574, 575, 576, 577, 578, 579, 580, 581, 582, 583], "isFourFour": true, "hasNotes": true, "time": 336}], "isDrum": false, "minPitch": 57, "maxPitch": 74, "instrument": 0, "avPolyphony": 3.03264093, "noteDensity": 9, "noteDensityV2": 7}, {"bars": [{"events": [72, 73, 74, 75], "isFourFour": true, "hasNotes": true, "time": 0}, {"events": [76, 77, 78, 79], "isFourFour": true, "hasNotes": true, "time": 48}, {"events": [80, 81, 82, 83], "isFourFour": true, "hasNotes": true, "time": 96}, {"events": [84, 85, 86, 87], "isFourFour": true, "hasNotes": true, "time": 144}, {"events": [88, 89, 90, 91, 92, 93], "isFourFour": true, "hasNotes": true, "time": 192}, {"events": [94, 95, 96, 97], "isFourFour": true, "hasNotes": true, "time": 240}, {"events": [98, 99, 100, 101], "isFourFour": true, "hasNotes": true, "time": 288}, {"events": [102, 103, 104, 105], "isFourFour": true, "hasNotes": true, "time": 336}], "isDrum": true, "minPitch": 42, "maxPitch": 46, "instrument": 0, "avPolyphony": 1, "noteDensity": 5, "noteDensityV2": 0}, {"bars": [{"events": [106, 107, 108, 109, 110, 111, 112, 113, 114, 115, 116, 117, 118, 119, 120, 121, 122, 123, 124, 125], "isFourFour": true, "hasNotes": true, "time": 0}, {"events": [126, 127, 128, 129, 130, 131, 132, 133, 134, 135, 136, 137, 138, 139, 140, 141, 142, 143, 144, 145], "isFourFour": true, "hasNotes": true, "time": 48}, {"events": [146, 147, 148, 149, 150, 151, 152, 153, 154, 155, 156, 157, 158, 159, 160, 161, 162, 163, 164, 165], "isFourFour": true, "hasNotes": true, "time": 96}, {"events": [166, 167, 168, 169, 170, 171, 172, 173, 174, 175, 176, 177, 178, 179, 180, 181, 182, 183, 184, 185], "isFourFour": true, "hasNotes": true, "time": 144}, {"events": [186, 187, 188, 189, 190, 191, 192, 193, 194, 195, 196, 197, 198, 199, 200, 201, 202, 203, 204, 205], "isFourFour": true, "hasNotes": true, "time": 192}, {"events": [206, 207, 208, 209, 210, 211, 212, 213, 214, 215, 216, 217, 218, 219, 220, 221, 222, 223, 224, 225], "isFourFour": true, "hasNotes": true, "time": 240}, {"events": [226, 227, 228, 229, 230, 231, 232, 233, 234, 235, 236, 237, 238, 239, 240, 241, 242, 243, 244, 245], "isFourFour": true, "hasNotes": true, "time": 288}, {"events": [246, 247, 248, 249, 250, 251, 252, 253, 254, 255, 256, 257, 258, 259, 260, 261, 262, 263, 264, 265], "isFourFour": true, "hasNotes": true, "time": 336}], "isDrum": true, "minPitch": 69, "maxPitch": 69, "instrument": 0, "avPolyphony": 1, "noteDensity": 9, "noteDensityV2": 4}, {"bars": [{"events": [266, 267, 268, 269, 270, 271, 272, 273, 274, 275, 276, 277, 278, 279, 280, 281], "isFourFour": true, "hasNotes": true, "time": 0}, {"events": [282, 283, 284, 285, 286, 287, 288, 289, 290, 291, 292, 293, 294, 295, 296, 297], "isFourFour": true, "hasNotes": true, "time": 48}, {"events": [298, 299, 300, 301, 302, 303, 304, 305, 306, 307, 308, 309, 310, 311, 312, 313], "isFourFour": true, "hasNotes": true, "time": 96}, {"events": [314, 315, 316, 317, 318, 319, 320, 321, 322, 323, 324, 325, 326, 327, 328, 329], "isFourFour": true, "hasNotes": true, "time": 144}, {"events": [330, 331, 332, 333, 334, 335, 336, 337, 338, 339, 340, 341], "isFourFour": true, "hasNotes": true, "time": 192}, {"events": [342, 343, 344, 345, 346, 347, 348, 349, 350, 351, 352, 353, 354, 355, 356, 357], "isFourFour": true, "hasNotes": true, "time": 240}, {"events": [358, 359, 360, 361, 362, 363, 364, 365, 366, 367, 368, 369, 370, 371, 372, 373], "isFourFour": true, "hasNotes": true, "time": 288}, {"events": [374, 375, 376, 377, 378, 379, 380, 381, 382, 383, 384, 385, 386, 387, 388, 389], "isFourFour": true, "hasNotes": true, "time": 336}], "isDrum": true, "minPitch": 62, "maxPitch": 64, "instrument": 0, "avPolyphony": 1, "noteDensity": 9, "noteDensityV2": 3}], "events": [{"time": 0, "velocity": 108, "pitch": 28, "instrument": 0, "track": 0, "qtime": 0, "isDrum": false}, {"time": 11, "velocity": 0, "pitch": 28, "instrument": 0, "track": 0, "qtime": 11, "isDrum": false}, {"time": 12, "velocity": 108, "pitch": 35, "instrument": 0, "track": 0, "qtime": 12, "isDrum": false}, {"time": 23, "velocity": 0, "pitch": 35, "instrument": 0, "track": 0, "qtime": 23, "isDrum": false}, {"time": 24, "velocity": 108, "pitch": 40, "instrument": 0, "track": 0, "qtime": 24, "isDrum": false}, {"time": 32, "velocity": 0, "pitch": 40, "instrument": 0, "track": 0, "qtime": 32, "isDrum": false}, {"time": 32, "velocity": 108, "pitch": 28, "instrument": 0, "track": 0, "qtime": 32, "isDrum": false}, {"time": 39, "velocity": 0, "pitch": 28, "instrument": 0, "track": 0, "qtime": 39, "isDrum": false}, {"time": 40, "velocity": 108, "pitch": 32, "instrument": 0, "track": 0, "qtime": 40, "isDrum": false}, {"time": 48, "velocity": 0, "pitch": 32, "instrument": 0, "track": 0, "qtime": 48, "isDrum": false}, {"time": 48, "velocity": 108, "pitch": 33, "instrument": 0, "track": 0, "qtime": 0, "isDrum": false}, {"time": 63, "velocity": 0, "pitch": 33, "instrument": 0, "track": 0, "qtime": 15, "isDrum": false}, {"time": 66, "velocity": 108, "pitch": 33, "instrument": 0, "track": 0, "qtime": 18, "isDrum": false}, {"time": 70, "velocity": 0, "pitch": 33, "instrument": 0, "track": 0, "qtime": 22, "isDrum": false}, {"time": 72, "velocity": 108, "pitch": 33, "instrument": 0, "track": 0, "qtime": 24, "isDrum": false}, {"time": 79, "velocity": 0, "pitch": 33, "instrument": 0, "track": 0, "qtime": 31, "isDrum": false}, {"time": 80, "velocity": 108, "pitch": 35, "instrument": 0, "track": 0, "qtime": 32, "isDrum": false}, {"time": 88, "velocity": 0, "pitch": 35, "instrument": 0, "track": 0, "qtime": 40, "isDrum": false}, {"time": 88, "velocity": 108, "pitch": 36, "instrument": 0, "track": 0, "qtime": 40, "isDrum": false}, {"time": 95, "velocity": 0, "pitch": 36, "instrument": 0, "track": 0, "qtime": 47, "isDrum": false}, {"time": 96, "velocity": 108, "pitch": 38, "instrument": 0, "track": 0, "qtime": 0, "isDrum": false}, {"time": 106, "velocity": 0, "pitch": 38, "instrument": 0, "track": 0, "qtime": 10, "isDrum": false}, {"time": 108, "velocity": 108, "pitch": 38, "instrument": 0, "track": 0, "qtime": 12, "isDrum": false}, {"time": 119, "velocity": 0, "pitch": 38, "instrument": 0, "track": 0, "qtime": 23, "isDrum": false}, {"time": 120, "velocity": 108, "pitch": 36, "instrument": 0, "track": 0, "qtime": 24, "isDrum": false}, {"time": 130, "velocity": 0, "pitch": 36, "instrument": 0, "track": 0, "qtime": 34, "isDrum": false}, {"time": 132, "velocity": 108, "pitch": 36, "instrument": 0, "track": 0, "qtime": 36, "isDrum": false}, {"time": 142, "velocity": 0, "pitch": 36, "instrument": 0, "track": 0, "qtime": 46, "isDrum": false}, {"time": 144, "velocity": 108, "pitch": 35, "instrument": 0, "track": 0, "qtime": 0, "isDrum": false}, {"time": 160, "velocity": 0, "pitch": 35, "instrument": 0, "track": 0, "qtime": 16, "isDrum": false}, {"time": 162, "velocity": 108, "pitch": 35, "instrument": 0, "track": 0, "qtime": 18, "isDrum": false}, {"time": 167, "velocity": 0, "pitch": 35, "instrument": 0, "track": 0, "qtime": 23, "isDrum": false}, {"time": 168, "velocity": 108, "pitch": 35, "instrument": 0, "track": 0, "qtime": 24, "isDrum": false}, {"time": 176, "velocity": 0, "pitch": 35, "instrument": 0, "track": 0, "qtime": 32, "isDrum": false}, {"time": 176, "velocity": 108, "pitch": 36, "instrument": 0, "track": 0, "qtime": 32, "isDrum": false}, {"time": 183, "velocity": 0, "pitch": 36, "instrument": 0, "track": 0, "qtime": 39, "isDrum": false}, {"time": 184, "velocity": 108, "pitch": 38, "instrument": 0, "track": 0, "qtime": 40, "isDrum": false}, {"time": 192, "velocity": 0, "pitch": 38, "instrument": 0, "track": 0, "qtime": 48, "isDrum": false}, {"time": 192, "velocity": 108, "pitch": 40, "instrument": 0, "track": 0, "qtime": 0, "isDrum": false}, {"time": 203, "velocity": 0, "pitch": 40, "instrument": 0, "track": 0, "qtime": 11, "isDrum": false}, {"time": 204, "velocity": 108, "pitch": 35, "instrument": 0, "track": 0, "qtime": 12, "isDrum": false}, {"time": 216, "velocity": 0, "pitch": 35, "instrument": 0, "track": 0, "qtime": 24, "isDrum": false}, {"time": 216, "velocity": 108, "pitch": 28, "instrument": 0, "track": 0, "qtime": 24, "isDrum": false}, {"time": 228, "velocity": 0, "pitch": 28, "instrument": 0, "track": 0, "qtime": 36, "isDrum": false}, {"time": 228, "velocity": 108, "pitch": 32, "instrument": 0, "track": 0, "qtime": 36, "isDrum": false}, {"time": 240, "velocity": 0, "pitch": 32, "instrument": 0, "track": 0, "qtime": 48, "isDrum": false}, {"time": 240, "velocity": 108, "pitch": 33, "instrument": 0, "track": 0, "qtime": 0, "isDrum": false}, {"time": 255, "velocity": 0, "pitch": 33, "instrument": 0, "track": 0, "qtime": 15, "isDrum": false}, {"time": 258, "velocity": 108, "pitch": 33, "instrument": 0, "track": 0, "qtime": 18, "isDrum": false}, {"time": 262, "velocity": 0, "pitch": 33, "instrument": 0, "track": 0, "qtime": 22, "isDrum": false}, {"time": 264, "velocity": 108, "pitch": 33, "instrument": 0, "track": 0, "qtime": 24, "isDrum": false}, {"time": 272, "velocity": 0, "pitch": 33, "instrument": 0, "track": 0, "qtime": 32, "isDrum": false}, {"time": 272, "velocity": 108, "pitch": 35, "instrument": 0, "track": 0, "qtime": 32, "isDrum": false}, {"time": 280, "velocity": 0, "pitch": 35, "instrument": 0, "track": 0, "qtime": 40, "isDrum": false}, {"time": 280, "velocity": 108, "pitch": 36, "instrument": 0, "track": 0, "qtime": 40, "isDrum": false}, {"time": 287, "velocity": 0, "pitch": 36, "instrument": 0, "track": 0, "qtime": 47, "isDrum": false}, {"time": 288, "velocity": 108, "pitch": 38, "instrument": 0, "track": 0, "qtime": 0, "isDrum": false}, {"time": 299, "velocity": 0, "pitch": 38, "instrument": 0, "track": 0, "qtime": 11, "isDrum": false}, {"time": 300, "velocity": 108, "pitch": 38, "instrument": 0, "track": 0, "qtime": 12, "isDrum": false}, {"time": 312, "velocity": 0, "pitch": 38, "instrument": 0, "track": 0, "qtime": 24, "isDrum": false}, {"time": 312, "velocity": 108, "pitch": 30, "instrument": 0, "track": 0, "qtime": 24, "isDrum": false}, {"time": 323, "velocity": 0, "pitch": 30, "instrument": 0, "track": 0, "qtime": 35, "isDrum": false}, {"time": 324, "velocity": 108, "pitch": 30, "instrument": 0, "track": 0, "qtime": 36, "isDrum": false}, {"time": 335, "velocity": 0, "pitch": 30, "instrument": 0, "track": 0, "qtime": 47, "isDrum": false}, {"time": 336, "velocity": 108, "pitch": 31, "instrument": 0, "track": 0, "qtime": 0, "isDrum": false}, {"time": 350, "velocity": 0, "pitch": 31, "instrument": 0, "track": 0, "qtime": 14, "isDrum": false}, {"time": 354, "velocity": 108, "pitch": 31, "instrument": 0, "track": 0, "qtime": 18, "isDrum": false}, {"time": 355, "velocity": 0, "pitch": 31, "instrument": 0, "track": 0, "qtime": 19, "isDrum": false}, {"time": 360, "velocity": 108, "pitch": 31, "instrument": 0, "track": 0, "qtime": 24, "isDrum": false}, {"time": 372, "velocity": 108, "pitch": 29, "instrument": 0, "track": 0, "qtime": 36, "isDrum": false}, {"time": 373, "velocity": 0, "pitch": 31, "instrument": 0, "track": 0, "qtime": 37, "isDrum": false}, {"time": 378, "velocity": 0, "pitch": 29, "instrument": 0, "track": 0, "qtime": 42, "isDrum": false}, {"time": 12, "velocity": 108, "pitch": 42, "instrument": 0, "track": 9, "qtime": 12, "isDrum": true}, {"time": 13, "velocity": 0, "pitch": 42, "instrument": 0, "track": 9, "qtime": 13, "isDrum": true}, {"time": 36, "velocity": 108, "pitch": 46, "instrument": 0, "track": 9, "qtime": 36, "isDrum": true}, {"time": 37, "velocity": 0, "pitch": 46, "instrument": 0, "track": 9, "qtime": 37, "isDrum": true}, {"time": 60, "velocity": 108, "pitch": 42, "instrument": 0, "track": 9, "qtime": 12, "isDrum": true}, {"time": 61, "velocity": 0, "pitch": 42, "instrument": 0, "track": 9, "qtime": 13, "isDrum": true}, {"time": 84, "velocity": 108, "pitch": 42, "instrument": 0, "track": 9, "qtime": 36, "isDrum": true}, {"time": 85, "velocity": 0, "pitch": 42, "instrument": 0, "track": 9, "qtime": 37, "isDrum": true}, {"time": 108, "velocity": 108, "pitch": 42, "instrument": 0, "track": 9, "qtime": 12, "isDrum": true}, {"time": 109, "velocity": 0, "pitch": 42, "instrument": 0, "track": 9, "qtime": 13, "isDrum": true}, {"time": 132, "velocity": 108, "pitch": 46, "instrument": 0, "track": 9, "qtime": 36, "isDrum": true}, {"time": 133, "velocity": 0, "pitch": 46, "instrument": 0, "track": 9, "qtime": 37, "isDrum": true}, {"time": 156, "velocity": 108, "pitch": 42, "instrument": 0, "track": 9, "qtime": 12, "isDrum": true}, {"time": 157, "velocity": 0, "pitch": 42, "instrument": 0, "track": 9, "qtime": 13, "isDrum": true}, {"time": 180, "velocity": 108, "pitch": 42, "instrument": 0, "track": 9, "qtime": 36, "isDrum": true}, {"time": 181, "velocity": 0, "pitch": 42, "instrument": 0, "track": 9, "qtime": 37, "isDrum": true}, {"time": 204, "velocity": 108, "pitch": 42, "instrument": 0, "track": 9, "qtime": 12, "isDrum": true}, {"time": 205, "velocity": 0, "pitch": 42, "instrument": 0, "track": 9, "qtime": 13, "isDrum": true}, {"time": 216, "velocity": 108, "pitch": 46, "instrument": 0, "track": 9, "qtime": 24, "isDrum": true}, {"time": 217, "velocity": 0, "pitch": 46, "instrument": 0, "track": 9, "qtime": 25, "isDrum": true}, {"time": 228, "velocity": 108, "pitch": 46, "instrument": 0, "track": 9, "qtime": 36, "isDrum": true}, {"time": 230, "velocity": 0, "pitch": 46, "instrument": 0, "track": 9, "qtime": 38, "isDrum": true}, {"time": 252, "velocity": 108, "pitch": 42, "instrument": 0, "track": 9, "qtime": 12, "isDrum": true}, {"time": 253, "velocity": 0, "pitch": 42, "instrument": 0, "track": 9, "qtime": 13, "isDrum": true}, {"time": 276, "velocity": 108, "pitch": 42, "instrument": 0, "track": 9, "qtime": 36, "isDrum": true}, {"time": 277, "velocity": 0, "pitch": 42, "instrument": 0, "track": 9, "qtime": 37, "isDrum": true}, {"time": 300, "velocity": 108, "pitch": 42, "instrument": 0, "track": 9, "qtime": 12, "isDrum": true}, {"time": 301, "velocity": 0, "pitch": 42, "instrument": 0, "track": 9, "qtime": 13, "isDrum": true}, {"time": 324, "velocity": 108, "pitch": 42, "instrument": 0, "track": 9, "qtime": 36, "isDrum": true}, {"time": 325, "velocity": 0, "pitch": 42, "instrument": 0, "track": 9, "qtime": 37, "isDrum": true}, {"time": 348, "velocity": 108, "pitch": 42, "instrument": 0, "track": 9, "qtime": 12, "isDrum": true}, {"time": 349, "velocity": 0, "pitch": 42, "instrument": 0, "track": 9, "qtime": 13, "isDrum": true}, {"time": 372, "velocity": 108, "pitch": 42, "instrument": 0, "track": 9, "qtime": 36, "isDrum": true}, {"time": 373, "velocity": 0, "pitch": 42, "instrument": 0, "track": 9, "qtime": 37, "isDrum": true}, {"time": 0, "velocity": 108, "pitch": 69, "instrument": 0, "track": 9, "qtime": 0, "isDrum": true}, {"time": 1, "velocity": 0, "pitch": 69, "instrument": 0, "track": 9, "qtime": 1, "isDrum": true}, {"time": 6, "velocity": 108, "pitch": 69, "instrument": 0, "track": 9, "qtime": 6, "isDrum": true}, {"time": 7, "velocity": 0, "pitch": 69, "instrument": 0, "track": 9, "qtime": 7, "isDrum": true}, {"time": 8, "velocity": 108, "pitch": 69, "instrument": 0, "track": 9, "qtime": 8, "isDrum": true}, {"time": 9, "velocity": 0, "pitch": 69, "instrument": 0, "track": 9, "qtime": 9, "isDrum": true}, {"time": 10, "velocity": 108, "pitch": 69, "instrument": 0, "track": 9, "qtime": 10, "isDrum": true}, {"time": 11, "velocity": 0, "pitch": 69, "instrument": 0, "track": 9, "qtime": 11, "isDrum": true}, {"time": 12, "velocity": 108, "pitch": 69, "instrument": 0, "track": 9, "qtime": 12, "isDrum": true}, {"time": 13, "velocity": 0, "pitch": 69, "instrument": 0, "track": 9, "qtime": 13, "isDrum": true}, {"time": 18, "velocity": 108, "pitch": 69, "instrument": 0, "track": 9, "qtime": 18, "isDrum": true}, {"time": 19, "velocity": 0, "pitch": 69, "instrument": 0, "track": 9, "qtime": 19, "isDrum": true}, {"time": 24, "velocity": 108, "pitch": 69, "instrument": 0, "track": 9, "qtime": 24, "isDrum": true}, {"time": 25, "velocity": 0, "pitch": 69, "instrument": 0, "track": 9, "qtime": 25, "isDrum": true}, {"time": 30, "velocity": 108, "pitch": 69, "instrument": 0, "track": 9, "qtime": 30, "isDrum": true}, {"time": 31, "velocity": 0, "pitch": 69, "instrument": 0, "track": 9, "qtime": 31, "isDrum": true}, {"time": 36, "velocity": 108, "pitch": 69, "instrument": 0, "track": 9, "qtime": 36, "isDrum": true}, {"time": 37, "velocity": 0, "pitch": 69, "instrument": 0, "track": 9, "qtime": 37, "isDrum": true}, {"time": 42, "velocity": 108, "pitch": 69, "instrument": 0, "track": 9, "qtime": 42, "isDrum": true}, {"time": 43, "velocity": 0, "pitch": 69, "instrument": 0, "track": 9, "qtime": 43, "isDrum": true}, {"time": 48, "velocity": 108, "pitch": 69, "instrument": 0, "track": 9, "qtime": 0, "isDrum": true}, {"time": 49, "velocity": 0, "pitch": 69, "instrument": 0, "track": 9, "qtime": 1, "isDrum": true}, {"time": 54, "velocity": 108, "pitch": 69, "instrument": 0, "track": 9, "qtime": 6, "isDrum": true}, {"time": 55, "velocity": 0, "pitch": 69, "instrument": 0, "track": 9, "qtime": 7, "isDrum": true}, {"time": 56, "velocity": 108, "pitch": 69, "instrument": 0, "track": 9, "qtime": 8, "isDrum": true}, {"time": 57, "velocity": 0, "pitch": 69, "instrument": 0, "track": 9, "qtime": 9, "isDrum": true}, {"time": 58, "velocity": 108, "pitch": 69, "instrument": 0, "track": 9, "qtime": 10, "isDrum": true}, {"time": 59, "velocity": 0, "pitch": 69, "instrument": 0, "track": 9, "qtime": 11, "isDrum": true}, {"time": 60, "velocity": 108, "pitch": 69, "instrument": 0, "track": 9, "qtime": 12, "isDrum": true}, {"time": 61, "velocity": 0, "pitch": 69, "instrument": 0, "track": 9, "qtime": 13, "isDrum": true}, {"time": 66, "velocity": 108, "pitch": 69, "instrument": 0, "track": 9, "qtime": 18, "isDrum": true}, {"time": 67, "velocity": 0, "pitch": 69, "instrument": 0, "track": 9, "qtime": 19, "isDrum": true}, {"time": 72, "velocity": 108, "pitch": 69, "instrument": 0, "track": 9, "qtime": 24, "isDrum": true}, {"time": 73, "velocity": 0, "pitch": 69, "instrument": 0, "track": 9, "qtime": 25, "isDrum": true}, {"time": 78, "velocity": 108, "pitch": 69, "instrument": 0, "track": 9, "qtime": 30, "isDrum": true}, {"time": 79, "velocity": 0, "pitch": 69, "instrument": 0, "track": 9, "qtime": 31, "isDrum": true}, {"time": 84, "velocity": 108, "pitch": 69, "instrument": 0, "track": 9, "qtime": 36, "isDrum": true}, {"time": 85, "velocity": 0, "pitch": 69, "instrument": 0, "track": 9, "qtime": 37, "isDrum": true}, {"time": 90, "velocity": 108, "pitch": 69, "instrument": 0, "track": 9, "qtime": 42, "isDrum": true}, {"time": 91, "velocity": 0, "pitch": 69, "instrument": 0, "track": 9, "qtime": 43, "isDrum": true}, {"time": 96, "velocity": 108, "pitch": 69, "instrument": 0, "track": 9, "qtime": 0, "isDrum": true}, {"time": 97, "velocity": 0, "pitch": 69, "instrument": 0, "track": 9, "qtime": 1, "isDrum": true}, {"time": 102, "velocity": 108, "pitch": 69, "instrument": 0, "track": 9, "qtime": 6, "isDrum": true}, {"time": 103, "velocity": 0, "pitch": 69, "instrument": 0, "track": 9, "qtime": 7, "isDrum": true}, {"time": 104, "velocity": 108, "pitch": 69, "instrument": 0, "track": 9, "qtime": 8, "isDrum": true}, {"time": 105, "velocity": 0, "pitch": 69, "instrument": 0, "track": 9, "qtime": 9, "isDrum": true}, {"time": 106, "velocity": 108, "pitch": 69, "instrument": 0, "track": 9, "qtime": 10, "isDrum": true}, {"time": 107, "velocity": 0, "pitch": 69, "instrument": 0, "track": 9, "qtime": 11, "isDrum": true}, {"time": 108, "velocity": 108, "pitch": 69, "instrument": 0, "track": 9, "qtime": 12, "isDrum": true}, {"time": 109, "velocity": 0, "pitch": 69, "instrument": 0, "track": 9, "qtime": 13, "isDrum": true}, {"time": 114, "velocity": 108, "pitch": 69, "instrument": 0, "track": 9, "qtime": 18, "isDrum": true}, {"time": 115, "velocity": 0, "pitch": 69, "instrument": 0, "track": 9, "qtime": 19, "isDrum": true}, {"time": 120, "velocity": 108, "pitch": 69, "instrument": 0, "track": 9, "qtime": 24, "isDrum": true}, {"time": 121, "velocity": 0, "pitch": 69, "instrument": 0, "track": 9, "qtime": 25, "isDrum": true}, {"time": 126, "velocity": 108, "pitch": 69, "instrument": 0, "track": 9, "qtime": 30, "isDrum": true}, {"time": 127, "velocity": 0, "pitch": 69, "instrument": 0, "track": 9, "qtime": 31, "isDrum": true}, {"time": 132, "velocity": 108, "pitch": 69, "instrument": 0, "track": 9, "qtime": 36, "isDrum": true}, {"time": 133, "velocity": 0, "pitch": 69, "instrument": 0, "track": 9, "qtime": 37, "isDrum": true}, {"time": 138, "velocity": 108, "pitch": 69, "instrument": 0, "track": 9, "qtime": 42, "isDrum": true}, {"time": 139, "velocity": 0, "pitch": 69, "instrument": 0, "track": 9, "qtime": 43, "isDrum": true}, {"time": 144, "velocity": 108, "pitch": 69, "instrument": 0, "track": 9, "qtime": 0, "isDrum": true}, {"time": 145, "velocity": 0, "pitch": 69, "instrument": 0, "track": 9, "qtime": 1, "isDrum": true}, {"time": 150, "velocity": 108, "pitch": 69, "instrument": 0, "track": 9, "qtime": 6, "isDrum": true}, {"time": 151, "velocity": 0, "pitch": 69, "instrument": 0, "track": 9, "qtime": 7, "isDrum": true}, {"time": 152, "velocity": 108, "pitch": 69, "instrument": 0, "track": 9, "qtime": 8, "isDrum": true}, {"time": 153, "velocity": 0, "pitch": 69, "instrument": 0, "track": 9, "qtime": 9, "isDrum": true}, {"time": 154, "velocity": 108, "pitch": 69, "instrument": 0, "track": 9, "qtime": 10, "isDrum": true}, {"time": 155, "velocity": 0, "pitch": 69, "instrument": 0, "track": 9, "qtime": 11, "isDrum": true}, {"time": 156, "velocity": 108, "pitch": 69, "instrument": 0, "track": 9, "qtime": 12, "isDrum": true}, {"time": 157, "velocity": 0, "pitch": 69, "instrument": 0, "track": 9, "qtime": 13, "isDrum": true}, {"time": 162, "velocity": 108, "pitch": 69, "instrument": 0, "track": 9, "qtime": 18, "isDrum": true}, {"time": 163, "velocity": 0, "pitch": 69, "instrument": 0, "track": 9, "qtime": 19, "isDrum": true}, {"time": 168, "velocity": 108, "pitch": 69, "instrument": 0, "track": 9, "qtime": 24, "isDrum": true}, {"time": 169, "velocity": 0, "pitch": 69, "instrument": 0, "track": 9, "qtime": 25, "isDrum": true}, {"time": 174, "velocity": 108, "pitch": 69, "instrument": 0, "track": 9, "qtime": 30, "isDrum": true}, {"time": 175, "velocity": 0, "pitch": 69, "instrument": 0, "track": 9, "qtime": 31, "isDrum": true}, {"time": 180, "velocity": 108, "pitch": 69, "instrument": 0, "track": 9, "qtime": 36, "isDrum": true}, {"time": 181, "velocity": 0, "pitch": 69, "instrument": 0, "track": 9, "qtime": 37, "isDrum": true}, {"time": 186, "velocity": 108, "pitch": 69, "instrument": 0, "track": 9, "qtime": 42, "isDrum": true}, {"time": 187, "velocity": 0, "pitch": 69, "instrument": 0, "track": 9, "qtime": 43, "isDrum": true}, {"time": 192, "velocity": 108, "pitch": 69, "instrument": 0, "track": 9, "qtime": 0, "isDrum": true}, {"time": 193, "velocity": 0, "pitch": 69, "instrument": 0, "track": 9, "qtime": 1, "isDrum": true}, {"time": 198, "velocity": 108, "pitch": 69, "instrument": 0, "track": 9, "qtime": 6, "isDrum": true}, {"time": 199, "velocity": 0, "pitch": 69, "instrument": 0, "track": 9, "qtime": 7, "isDrum": true}, {"time": 200, "velocity": 108, "pitch": 69, "instrument": 0, "track": 9, "qtime": 8, "isDrum": true}, {"time": 201, "velocity": 0, "pitch": 69, "instrument": 0, "track": 9, "qtime": 9, "isDrum": true}, {"time": 202, "velocity": 108, "pitch": 69, "instrument": 0, "track": 9, "qtime": 10, "isDrum": true}, {"time": 203, "velocity": 0, "pitch": 69, "instrument": 0, "track": 9, "qtime": 11, "isDrum": true}, {"time": 204, "velocity": 108, "pitch": 69, "instrument": 0, "track": 9, "qtime": 12, "isDrum": true}, {"time": 205, "velocity": 0, "pitch": 69, "instrument": 0, "track": 9, "qtime": 13, "isDrum": true}, {"time": 210, "velocity": 108, "pitch": 69, "instrument": 0, "track": 9, "qtime": 18, "isDrum": true}, {"time": 211, "velocity": 0, "pitch": 69, "instrument": 0, "track": 9, "qtime": 19, "isDrum": true}, {"time": 216, "velocity": 108, "pitch": 69, "instrument": 0, "track": 9, "qtime": 24, "isDrum": true}, {"time": 217, "velocity": 0, "pitch": 69, "instrument": 0, "track": 9, "qtime": 25, "isDrum": true}, {"time": 222, "velocity": 108, "pitch": 69, "instrument": 0, "track": 9, "qtime": 30, "isDrum": true}, {"time": 223, "velocity": 0, "pitch": 69, "instrument": 0, "track": 9, "qtime": 31, "isDrum": true}, {"time": 228, "velocity": 108, "pitch": 69, "instrument": 0, "track": 9, "qtime": 36, "isDrum": true}, {"time": 229, "velocity": 0, "pitch": 69, "instrument": 0, "track": 9, "qtime": 37, "isDrum": true}, {"time": 234, "velocity": 108, "pitch": 69, "instrument": 0, "track": 9, "qtime": 42, "isDrum": true}, {"time": 235, "velocity": 0, "pitch": 69, "instrument": 0, "track": 9, "qtime": 43, "isDrum": true}, {"time": 240, "velocity": 108, "pitch": 69, "instrument": 0, "track": 9, "qtime": 0, "isDrum": true}, {"time": 241, "velocity": 0, "pitch": 69, "instrument": 0, "track": 9, "qtime": 1, "isDrum": true}, {"time": 246, "velocity": 108, "pitch": 69, "instrument": 0, "track": 9, "qtime": 6, "isDrum": true}, {"time": 247, "velocity": 0, "pitch": 69, "instrument": 0, "track": 9, "qtime": 7, "isDrum": true}, {"time": 248, "velocity": 108, "pitch": 69, "instrument": 0, "track": 9, "qtime": 8, "isDrum": true}, {"time": 249, "velocity": 0, "pitch": 69, "instrument": 0, "track": 9, "qtime": 9, "isDrum": true}, {"time": 250, "velocity": 108, "pitch": 69, "instrument": 0, "track": 9, "qtime": 10, "isDrum": true}, {"time": 251, "velocity": 0, "pitch": 69, "instrument": 0, "track": 9, "qtime": 11, "isDrum": true}, {"time": 252, "velocity": 108, "pitch": 69, "instrument": 0, "track": 9, "qtime": 12, "isDrum": true}, {"time": 253, "velocity": 0, "pitch": 69, "instrument": 0, "track": 9, "qtime": 13, "isDrum": true}, {"time": 258, "velocity": 108, "pitch": 69, "instrument": 0, "track": 9, "qtime": 18, "isDrum": true}, {"time": 259, "velocity": 0, "pitch": 69, "instrument": 0, "track": 9, "qtime": 19, "isDrum": true}, {"time": 264, "velocity": 108, "pitch": 69, "instrument": 0, "track": 9, "qtime": 24, "isDrum": true}, {"time": 265, "velocity": 0, "pitch": 69, "instrument": 0, "track": 9, "qtime": 25, "isDrum": true}, {"time": 270, "velocity": 108, "pitch": 69, "instrument": 0, "track": 9, "qtime": 30, "isDrum": true}, {"time": 271, "velocity": 0, "pitch": 69, "instrument": 0, "track": 9, "qtime": 31, "isDrum": true}, {"time": 276, "velocity": 108, "pitch": 69, "instrument": 0, "track": 9, "qtime": 36, "isDrum": true}, {"time": 277, "velocity": 0, "pitch": 69, "instrument": 0, "track": 9, "qtime": 37, "isDrum": true}, {"time": 282, "velocity": 108, "pitch": 69, "instrument": 0, "track": 9, "qtime": 42, "isDrum": true}, {"time": 283, "velocity": 0, "pitch": 69, "instrument": 0, "track": 9, "qtime": 43, "isDrum": true}, {"time": 288, "velocity": 108, "pitch": 69, "instrument": 0, "track": 9, "qtime": 0, "isDrum": true}, {"time": 289, "velocity": 0, "pitch": 69, "instrument": 0, "track": 9, "qtime": 1, "isDrum": true}, {"time": 294, "velocity": 108, "pitch": 69, "instrument": 0, "track": 9, "qtime": 6, "isDrum": true}, {"time": 295, "velocity": 0, "pitch": 69, "instrument": 0, "track": 9, "qtime": 7, "isDrum": true}, {"time": 296, "velocity": 108, "pitch": 69, "instrument": 0, "track": 9, "qtime": 8, "isDrum": true}, {"time": 297, "velocity": 0, "pitch": 69, "instrument": 0, "track": 9, "qtime": 9, "isDrum": true}, {"time": 298, "velocity": 108, "pitch": 69, "instrument": 0, "track": 9, "qtime": 10, "isDrum": true}, {"time": 299, "velocity": 0, "pitch": 69, "instrument": 0, "track": 9, "qtime": 11, "isDrum": true}, {"time": 300, "velocity": 108, "pitch": 69, "instrument": 0, "track": 9, "qtime": 12, "isDrum": true}, {"time": 301, "velocity": 0, "pitch": 69, "instrument": 0, "track": 9, "qtime": 13, "isDrum": true}, {"time": 306, "velocity": 108, "pitch": 69, "instrument": 0, "track": 9, "qtime": 18, "isDrum": true}, {"time": 307, "velocity": 0, "pitch": 69, "instrument": 0, "track": 9, "qtime": 19, "isDrum": true}, {"time": 312, "velocity": 108, "pitch": 69, "instrument": 0, "track": 9, "qtime": 24, "isDrum": true}, {"time": 313, "velocity": 0, "pitch": 69, "instrument": 0, "track": 9, "qtime": 25, "isDrum": true}, {"time": 318, "velocity": 108, "pitch": 69, "instrument": 0, "track": 9, "qtime": 30, "isDrum": true}, {"time": 319, "velocity": 0, "pitch": 69, "instrument": 0, "track": 9, "qtime": 31, "isDrum": true}, {"time": 324, "velocity": 108, "pitch": 69, "instrument": 0, "track": 9, "qtime": 36, "isDrum": true}, {"time": 325, "velocity": 0, "pitch": 69, "instrument": 0, "track": 9, "qtime": 37, "isDrum": true}, {"time": 330, "velocity": 108, "pitch": 69, "instrument": 0, "track": 9, "qtime": 42, "isDrum": true}, {"time": 331, "velocity": 0, "pitch": 69, "instrument": 0, "track": 9, "qtime": 43, "isDrum": true}, {"time": 336, "velocity": 108, "pitch": 69, "instrument": 0, "track": 9, "qtime": 0, "isDrum": true}, {"time": 337, "velocity": 0, "pitch": 69, "instrument": 0, "track": 9, "qtime": 1, "isDrum": true}, {"time": 342, "velocity": 108, "pitch": 69, "instrument": 0, "track": 9, "qtime": 6, "isDrum": true}, {"time": 343, "velocity": 0, "pitch": 69, "instrument": 0, "track": 9, "qtime": 7, "isDrum": true}, {"time": 344, "velocity": 108, "pitch": 69, "instrument": 0, "track": 9, "qtime": 8, "isDrum": true}, {"time": 345, "velocity": 0, "pitch": 69, "instrument": 0, "track": 9, "qtime": 9, "isDrum": true}, {"time": 346, "velocity": 108, "pitch": 69, "instrument": 0, "track": 9, "qtime": 10, "isDrum": true}, {"time": 347, "velocity": 0, "pitch": 69, "instrument": 0, "track": 9, "qtime": 11, "isDrum": true}, {"time": 348, "velocity": 108, "pitch": 69, "instrument": 0, "track": 9, "qtime": 12, "isDrum": true}, {"time": 349, "velocity": 0, "pitch": 69, "instrument": 0, "track": 9, "qtime": 13, "isDrum": true}, {"time": 354, "velocity": 108, "pitch": 69, "instrument": 0, "track": 9, "qtime": 18, "isDrum": true}, {"time": 355, "velocity": 0, "pitch": 69, "instrument": 0, "track": 9, "qtime": 19, "isDrum": true}, {"time": 360, "velocity": 108, "pitch": 69, "instrument": 0, "track": 9, "qtime": 24, "isDrum": true}, {"time": 361, "velocity": 0, "pitch": 69, "instrument": 0, "track": 9, "qtime": 25, "isDrum": true}, {"time": 366, "velocity": 108, "pitch": 69, "instrument": 0, "track": 9, "qtime": 30, "isDrum": true}, {"time": 367, "velocity": 0, "pitch": 69, "instrument": 0, "track": 9, "qtime": 31, "isDrum": true}, {"time": 372, "velocity": 108, "pitch": 69, "instrument": 0, "track": 9, "qtime": 36, "isDrum": true}, {"time": 373, "velocity": 0, "pitch": 69, "instrument": 0, "track": 9, "qtime": 37, "isDrum": true}, {"time": 378, "velocity": 108, "pitch": 69, "instrument": 0, "track": 9, "qtime": 42, "isDrum": true}, {"time": 379, "velocity": 0, "pitch": 69, "instrument": 0, "track": 9, "qtime": 43, "isDrum": true}, {"time": 0, "velocity": 108, "pitch": 64, "instrument": 0, "track": 9, "qtime": 0, "isDrum": true}, {"time": 2, "velocity": 0, "pitch": 64, "instrument": 0, "track": 9, "qtime": 2, "isDrum": true}, {"time": 6, "velocity": 108, "pitch": 63, "instrument": 0, "track": 9, "qtime": 6, "isDrum": true}, {"time": 7, "velocity": 0, "pitch": 63, "instrument": 0, "track": 9, "qtime": 7, "isDrum": true}, {"time": 12, "velocity": 108, "pitch": 62, "instrument": 0, "track": 9, "qtime": 12, "isDrum": true}, {"time": 14, "velocity": 0, "pitch": 62, "instrument": 0, "track": 9, "qtime": 14, "isDrum": true}, {"time": 18, "velocity": 108, "pitch": 64, "instrument": 0, "track": 9, "qtime": 18, "isDrum": true}, {"time": 19, "velocity": 0, "pitch": 64, "instrument": 0, "track": 9, "qtime": 19, "isDrum": true}, {"time": 24, "velocity": 108, "pitch": 64, "instrument": 0, "track": 9, "qtime": 24, "isDrum": true}, {"time": 25, "velocity": 0, "pitch": 64, "instrument": 0, "track": 9, "qtime": 25, "isDrum": true}, {"time": 30, "velocity": 108, "pitch": 62, "instrument": 0, "track": 9, "qtime": 30, "isDrum": true}, {"time": 32, "velocity": 0, "pitch": 62, "instrument": 0, "track": 9, "qtime": 32, "isDrum": true}, {"time": 36, "velocity": 108, "pitch": 63, "instrument": 0, "track": 9, "qtime": 36, "isDrum": true}, {"time": 37, "velocity": 0, "pitch": 63, "instrument": 0, "track": 9, "qtime": 37, "isDrum": true}, {"time": 42, "velocity": 108, "pitch": 64, "instrument": 0, "track": 9, "qtime": 42, "isDrum": true}, {"time": 43, "velocity": 0, "pitch": 64, "instrument": 0, "track": 9, "qtime": 43, "isDrum": true}, {"time": 48, "velocity": 108, "pitch": 64, "instrument": 0, "track": 9, "qtime": 0, "isDrum": true}, {"time": 50, "velocity": 0, "pitch": 64, "instrument": 0, "track": 9, "qtime": 2, "isDrum": true}, {"time": 54, "velocity": 108, "pitch": 63, "instrument": 0, "track": 9, "qtime": 6, "isDrum": true}, {"time": 55, "velocity": 0, "pitch": 63, "instrument": 0, "track": 9, "qtime": 7, "isDrum": true}, {"time": 60, "velocity": 108, "pitch": 62, "instrument": 0, "track": 9, "qtime": 12, "isDrum": true}, {"time": 62, "velocity": 0, "pitch": 62, "instrument": 0, "track": 9, "qtime": 14, "isDrum": true}, {"time": 66, "velocity": 108, "pitch": 64, "instrument": 0, "track": 9, "qtime": 18, "isDrum": true}, {"time": 67, "velocity": 0, "pitch": 64, "instrument": 0, "track": 9, "qtime": 19, "isDrum": true}, {"time": 72, "velocity": 108, "pitch": 64, "instrument": 0, "track": 9, "qtime": 24, "isDrum": true}, {"time": 73, "velocity": 0, "pitch": 64, "instrument": 0, "track": 9, "qtime": 25, "isDrum": true}, {"time": 78, "velocity": 108, "pitch": 62, "instrument": 0, "track": 9, "qtime": 30, "isDrum": true}, {"time": 80, "velocity": 0, "pitch": 62, "instrument": 0, "track": 9, "qtime": 32, "isDrum": true}, {"time": 84, "velocity": 108, "pitch": 63, "instrument": 0, "track": 9, "qtime": 36, "isDrum": true}, {"time": 85, "velocity": 0, "pitch": 63, "instrument": 0, "track": 9, "qtime": 37, "isDrum": true}, {"time": 90, "velocity": 108, "pitch": 64, "instrument": 0, "track": 9, "qtime": 42, "isDrum": true}, {"time": 91, "velocity": 0, "pitch": 64, "instrument": 0, "track": 9, "qtime": 43, "isDrum": true}, {"time": 96, "velocity": 108, "pitch": 64, "instrument": 0, "track": 9, "qtime": 0, "isDrum": true}, {"time": 98, "velocity": 0, "pitch": 64, "instrument": 0, "track": 9, "qtime": 2, "isDrum": true}, {"time": 102, "velocity": 108, "pitch": 63, "instrument": 0, "track": 9, "qtime": 6, "isDrum": true}, {"time": 103, "velocity": 0, "pitch": 63, "instrument": 0, "track": 9, "qtime": 7, "isDrum": true}, {"time": 108, "velocity": 108, "pitch": 62, "instrument": 0, "track": 9, "qtime": 12, "isDrum": true}, {"time": 110, "velocity": 0, "pitch": 62, "instrument": 0, "track": 9, "qtime": 14, "isDrum": true}, {"time": 114, "velocity": 108, "pitch": 64, "instrument": 0, "track": 9, "qtime": 18, "isDrum": true}, {"time": 115, "velocity": 0, "pitch": 64, "instrument": 0, "track": 9, "qtime": 19, "isDrum": true}, {"time": 120, "velocity": 108, "pitch": 64, "instrument": 0, "track": 9, "qtime": 24, "isDrum": true}, {"time": 121, "velocity": 0, "pitch": 64, "instrument": 0, "track": 9, "qtime": 25, "isDrum": true}, {"time": 126, "velocity": 108, "pitch": 62, "instrument": 0, "track": 9, "qtime": 30, "isDrum": true}, {"time": 128, "velocity": 0, "pitch": 62, "instrument": 0, "track": 9, "qtime": 32, "isDrum": true}, {"time": 132, "velocity": 108, "pitch": 63, "instrument": 0, "track": 9, "qtime": 36, "isDrum": true}, {"time": 133, "velocity": 0, "pitch": 63, "instrument": 0, "track": 9, "qtime": 37, "isDrum": true}, {"time": 138, "velocity": 108, "pitch": 64, "instrument": 0, "track": 9, "qtime": 42, "isDrum": true}, {"time": 139, "velocity": 0, "pitch": 64, "instrument": 0, "track": 9, "qtime": 43, "isDrum": true}, {"time": 144, "velocity": 108, "pitch": 64, "instrument": 0, "track": 9, "qtime": 0, "isDrum": true}, {"time": 146, "velocity": 0, "pitch": 64, "instrument": 0, "track": 9, "qtime": 2, "isDrum": true}, {"time": 150, "velocity": 108, "pitch": 63, "instrument": 0, "track": 9, "qtime": 6, "isDrum": true}, {"time": 151, "velocity": 0, "pitch": 63, "instrument": 0, "track": 9, "qtime": 7, "isDrum": true}, {"time": 156, "velocity": 108, "pitch": 62, "instrument": 0, "track": 9, "qtime": 12, "isDrum": true}, {"time": 158, "velocity": 0, "pitch": 62, "instrument": 0, "track": 9, "qtime": 14, "isDrum": true}, {"time": 162, "velocity": 108, "pitch": 64, "instrument": 0, "track": 9, "qtime": 18, "isDrum": true}, {"time": 163, "velocity": 0, "pitch": 64, "instrument": 0, "track": 9, "qtime": 19, "isDrum": true}, {"time": 168, "velocity": 108, "pitch": 64, "instrument": 0, "track": 9, "qtime": 24, "isDrum": true}, {"time": 169, "velocity": 0, "pitch": 64, "instrument": 0, "track": 9, "qtime": 25, "isDrum": true}, {"time": 174, "velocity": 108, "pitch": 62, "instrument": 0, "track": 9, "qtime": 30, "isDrum": true}, {"time": 176, "velocity": 0, "pitch": 62, "instrument": 0, "track": 9, "qtime": 32, "isDrum": true}, {"time": 180, "velocity": 108, "pitch": 63, "instrument": 0, "track": 9, "qtime": 36, "isDrum": true}, {"time": 181, "velocity": 0, "pitch": 63, "instrument": 0, "track": 9, "qtime": 37, "isDrum": true}, {"time": 186, "velocity": 108, "pitch": 64, "instrument": 0, "track": 9, "qtime": 42, "isDrum": true}, {"time": 187, "velocity": 0, "pitch": 64, "instrument": 0, "track": 9, "qtime": 43, "isDrum": true}, {"time": 192, "velocity": 108, "pitch": 64, "instrument": 0, "track": 9, "qtime": 0, "isDrum": true}, {"time": 194, "velocity": 0, "pitch": 64, "instrument": 0, "track": 9, "qtime": 2, "isDrum": true}, {"time": 198, "velocity": 108, "pitch": 63, "instrument": 0, "track": 9, "qtime": 6, "isDrum": true}, {"time": 199, "velocity": 0, "pitch": 63, "instrument": 0, "track": 9, "qtime": 7, "isDrum": true}, {"time": 204, "velocity": 108, "pitch": 62, "instrument": 0, "track": 9, "qtime": 12, "isDrum": true}, {"time": 206, "velocity": 0, "pitch": 62, "instrument": 0, "track": 9, "qtime": 14, "isDrum": true}, {"time": 210, "velocity": 108, "pitch": 63, "instrument": 0, "track": 9, "qtime": 18, "isDrum": true}, {"time": 211, "velocity": 0, "pitch": 63, "instrument": 0, "track": 9, "qtime": 19, "isDrum": true}, {"time": 216, "velocity": 108, "pitch": 62, "instrument": 0, "track": 9, "qtime": 24, "isDrum": true}, {"time": 218, "velocity": 0, "pitch": 62, "instrument": 0, "track": 9, "qtime": 26, "isDrum": true}, {"time": 228, "velocity": 108, "pitch": 62, "instrument": 0, "track": 9, "qtime": 36, "isDrum": true}, {"time": 230, "velocity": 0, "pitch": 62, "instrument": 0, "track": 9, "qtime": 38, "isDrum": true}, {"time": 240, "velocity": 108, "pitch": 64, "instrument": 0, "track": 9, "qtime": 0, "isDrum": true}, {"time": 242, "velocity": 0, "pitch": 64, "instrument": 0, "track": 9, "qtime": 2, "isDrum": true}, {"time": 246, "velocity": 108, "pitch": 63, "instrument": 0, "track": 9, "qtime": 6, "isDrum": true}, {"time": 247, "velocity": 0, "pitch": 63, "instrument": 0, "track": 9, "qtime": 7, "isDrum": true}, {"time": 252, "velocity": 108, "pitch": 62, "instrument": 0, "track": 9, "qtime": 12, "isDrum": true}, {"time": 254, "velocity": 0, "pitch": 62, "instrument": 0, "track": 9, "qtime": 14, "isDrum": true}, {"time": 258, "velocity": 108, "pitch": 64, "instrument": 0, "track": 9, "qtime": 18, "isDrum": true}, {"time": 259, "velocity": 0, "pitch": 64, "instrument": 0, "track": 9, "qtime": 19, "isDrum": true}, {"time": 264, "velocity": 108, "pitch": 64, "instrument": 0, "track": 9, "qtime": 24, "isDrum": true}, {"time": 265, "velocity": 0, "pitch": 64, "instrument": 0, "track": 9, "qtime": 25, "isDrum": true}, {"time": 270, "velocity": 108, "pitch": 62, "instrument": 0, "track": 9, "qtime": 30, "isDrum": true}, {"time": 272, "velocity": 0, "pitch": 62, "instrument": 0, "track": 9, "qtime": 32, "isDrum": true}, {"time": 276, "velocity": 108, "pitch": 63, "instrument": 0, "track": 9, "qtime": 36, "isDrum": true}, {"time": 277, "velocity": 0, "pitch": 63, "instrument": 0, "track": 9, "qtime": 37, "isDrum": true}, {"time": 282, "velocity": 108, "pitch": 64, "instrument": 0, "track": 9, "qtime": 42, "isDrum": true}, {"time": 283, "velocity": 0, "pitch": 64, "instrument": 0, "track": 9, "qtime": 43, "isDrum": true}, {"time": 288, "velocity": 108, "pitch": 64, "instrument": 0, "track": 9, "qtime": 0, "isDrum": true}, {"time": 290, "velocity": 0, "pitch": 64, "instrument": 0, "track": 9, "qtime": 2, "isDrum": true}, {"time": 294, "velocity": 108, "pitch": 63, "instrument": 0, "track": 9, "qtime": 6, "isDrum": true}, {"time": 295, "velocity": 0, "pitch": 63, "instrument": 0, "track": 9, "qtime": 7, "isDrum": true}, {"time": 300, "velocity": 108, "pitch": 62, "instrument": 0, "track": 9, "qtime": 12, "isDrum": true}, {"time": 302, "velocity": 0, "pitch": 62, "instrument": 0, "track": 9, "qtime": 14, "isDrum": true}, {"time": 306, "velocity": 108, "pitch": 64, "instrument": 0, "track": 9, "qtime": 18, "isDrum": true}, {"time": 307, "velocity": 0, "pitch": 64, "instrument": 0, "track": 9, "qtime": 19, "isDrum": true}, {"time": 312, "velocity": 108, "pitch": 64, "instrument": 0, "track": 9, "qtime": 24, "isDrum": true}, {"time": 313, "velocity": 0, "pitch": 64, "instrument": 0, "track": 9, "qtime": 25, "isDrum": true}, {"time": 318, "velocity": 108, "pitch": 62, "instrument": 0, "track": 9, "qtime": 30, "isDrum": true}, {"time": 320, "velocity": 0, "pitch": 62, "instrument": 0, "track": 9, "qtime": 32, "isDrum": true}, {"time": 324, "velocity": 108, "pitch": 63, "instrument": 0, "track": 9, "qtime": 36, "isDrum": true}, {"time": 325, "velocity": 0, "pitch": 63, "instrument": 0, "track": 9, "qtime": 37, "isDrum": true}, {"time": 330, "velocity": 108, "pitch": 64, "instrument": 0, "track": 9, "qtime": 42, "isDrum": true}, {"time": 331, "velocity": 0, "pitch": 64, "instrument": 0, "track": 9, "qtime": 43, "isDrum": true}, {"time": 336, "velocity": 108, "pitch": 64, "instrument": 0, "track": 9, "qtime": 0, "isDrum": true}, {"time": 338, "velocity": 0, "pitch": 64, "instrument": 0, "track": 9, "qtime": 2, "isDrum": true}, {"time": 342, "velocity": 108, "pitch": 63, "instrument": 0, "track": 9, "qtime": 6, "isDrum": true}, {"time": 343, "velocity": 0, "pitch": 63, "instrument": 0, "track": 9, "qtime": 7, "isDrum": true}, {"time": 348, "velocity": 108, "pitch": 62, "instrument": 0, "track": 9, "qtime": 12, "isDrum": true}, {"time": 350, "velocity": 0, "pitch": 62, "instrument": 0, "track": 9, "qtime": 14, "isDrum": true}, {"time": 354, "velocity": 108, "pitch": 64, "instrument": 0, "track": 9, "qtime": 18, "isDrum": true}, {"time": 355, "velocity": 0, "pitch": 64, "instrument": 0, "track": 9, "qtime": 19, "isDrum": true}, {"time": 360, "velocity": 108, "pitch": 64, "instrument": 0, "track": 9, "qtime": 24, "isDrum": true}, {"time": 361, "velocity": 0, "pitch": 64, "instrument": 0, "track": 9, "qtime": 25, "isDrum": true}, {"time": 366, "velocity": 108, "pitch": 62, "instrument": 0, "track": 9, "qtime": 30, "isDrum": true}, {"time": 368, "velocity": 0, "pitch": 62, "instrument": 0, "track": 9, "qtime": 32, "isDrum": true}, {"time": 372, "velocity": 108, "pitch": 63, "instrument": 0, "track": 9, "qtime": 36, "isDrum": true}, {"time": 373, "velocity": 0, "pitch": 63, "instrument": 0, "track": 9, "qtime": 37, "isDrum": true}, {"time": 378, "velocity": 108, "pitch": 64, "instrument": 0, "track": 9, "qtime": 42, "isDrum": true}, {"time": 379, "velocity": 0, "pitch": 64, "instrument": 0, "track": 9, "qtime": 43, "isDrum": true}, {"time": 0, "velocity": 108, "pitch": 59, "instrument": 0, "track": 4, "qtime": 0, "isDrum": false}, {"time": 0, "velocity": 108, "pitch": 64, "instrument": 0, "track": 4, "qtime": 0, "isDrum": false}, {"time": 0, "velocity": 108, "pitch": 67, "instrument": 0, "track": 4, "qtime": 0, "isDrum": false}, {"time": 7, "velocity": 0, "pitch": 59, "instrument": 0, "track": 4, "qtime": 7, "isDrum": false}, {"time": 8, "velocity": 0, "pitch": 64, "instrument": 0, "track": 4, "qtime": 8, "isDrum": false}, {"time": 8, "velocity": 0, "pitch": 67, "instrument": 0, "track": 4, "qtime": 8, "isDrum": false}, {"time": 12, "velocity": 108, "pitch": 59, "instrument": 0, "track": 4, "qtime": 12, "isDrum": false}, {"time": 12, "velocity": 108, "pitch": 64, "instrument": 0, "track": 4, "qtime": 12, "isDrum": false}, {"time": 12, "velocity": 108, "pitch": 67, "instrument": 0, "track": 4, "qtime": 12, "isDrum": false}, {"time": 20, "velocity": 0, "pitch": 59, "instrument": 0, "track": 4, "qtime": 20, "isDrum": false}, {"time": 20, "velocity": 0, "pitch": 64, "instrument": 0, "track": 4, "qtime": 20, "isDrum": false}, {"time": 20, "velocity": 0, "pitch": 67, "instrument": 0, "track": 4, "qtime": 20, "isDrum": false}, {"time": 24, "velocity": 108, "pitch": 64, "instrument": 0, "track": 4, "qtime": 24, "isDrum": false}, {"time": 24, "velocity": 108, "pitch": 67, "instrument": 0, "track": 4, "qtime": 24, "isDrum": false}, {"time": 24, "velocity": 108, "pitch": 71, "instrument": 0, "track": 4, "qtime": 24, "isDrum": false}, {"time": 33, "velocity": 0, "pitch": 64, "instrument": 0, "track": 4, "qtime": 33, "isDrum": false}, {"time": 34, "velocity": 0, "pitch": 67, "instrument": 0, "track": 4, "qtime": 34, "isDrum": false}, {"time": 34, "velocity": 0, "pitch": 71, "instrument": 0, "track": 4, "qtime": 34, "isDrum": false}, {"time": 36, "velocity": 108, "pitch": 64, "instrument": 0, "track": 4, "qtime": 36, "isDrum": false}, {"time": 36, "velocity": 108, "pitch": 68, "instrument": 0, "track": 4, "qtime": 36, "isDrum": false}, {"time": 36, "velocity": 108, "pitch": 74, "instrument": 0, "track": 4, "qtime": 36, "isDrum": false}, {"time": 46, "velocity": 0, "pitch": 64, "instrument": 0, "track": 4, "qtime": 46, "isDrum": false}, {"time": 46, "velocity": 0, "pitch": 68, "instrument": 0, "track": 4, "qtime": 46, "isDrum": false}, {"time": 46, "velocity": 0, "pitch": 74, "instrument": 0, "track": 4, "qtime": 46, "isDrum": false}, {"time": 48, "velocity": 108, "pitch": 60, "instrument": 0, "track": 4, "qtime": 0, "isDrum": false}, {"time": 48, "velocity": 108, "pitch": 64, "instrument": 0, "track": 4, "qtime": 0, "isDrum": false}, {"time": 48, "velocity": 108, "pitch": 69, "instrument": 0, "track": 4, "qtime": 0, "isDrum": false}, {"time": 63, "velocity": 0, "pitch": 60, "instrument": 0, "track": 4, "qtime": 15, "isDrum": false}, {"time": 63, "velocity": 0, "pitch": 64, "instrument": 0, "track": 4, "qtime": 15, "isDrum": false}, {"time": 63, "velocity": 0, "pitch": 69, "instrument": 0, "track": 4, "qtime": 15, "isDrum": false}, {"time": 66, "velocity": 108, "pitch": 60, "instrument": 0, "track": 4, "qtime": 18, "isDrum": false}, {"time": 66, "velocity": 108, "pitch": 64, "instrument": 0, "track": 4, "qtime": 18, "isDrum": false}, {"time": 66, "velocity": 108, "pitch": 69, "instrument": 0, "track": 4, "qtime": 18, "isDrum": false}, {"time": 70, "velocity": 0, "pitch": 64, "instrument": 0, "track": 4, "qtime": 22, "isDrum": false}, {"time": 71, "velocity": 0, "pitch": 60, "instrument": 0, "track": 4, "qtime": 23, "isDrum": false}, {"time": 71, "velocity": 0, "pitch": 69, "instrument": 0, "track": 4, "qtime": 23, "isDrum": false}, {"time": 72, "velocity": 108, "pitch": 60, "instrument": 0, "track": 4, "qtime": 24, "isDrum": false}, {"time": 72, "velocity": 108, "pitch": 64, "instrument": 0, "track": 4, "qtime": 24, "isDrum": false}, {"time": 72, "velocity": 108, "pitch": 69, "instrument": 0, "track": 4, "qtime": 24, "isDrum": false}, {"time": 79, "velocity": 0, "pitch": 60, "instrument": 0, "track": 4, "qtime": 31, "isDrum": false}, {"time": 80, "velocity": 0, "pitch": 64, "instrument": 0, "track": 4, "qtime": 32, "isDrum": false}, {"time": 80, "velocity": 0, "pitch": 69, "instrument": 0, "track": 4, "qtime": 32, "isDrum": false}, {"time": 80, "velocity": 108, "pitch": 62, "instrument": 0, "track": 4, "qtime": 32, "isDrum": false}, {"time": 80, "velocity": 108, "pitch": 67, "instrument": 0, "track": 4, "qtime": 32, "isDrum": false}, {"time": 80, "velocity": 108, "pitch": 71, "instrument": 0, "track": 4, "qtime": 32, "isDrum": false}, {"time": 88, "velocity": 0, "pitch": 62, "instrument": 0, "track": 4, "qtime": 40, "isDrum": false}, {"time": 88, "velocity": 0, "pitch": 71, "instrument": 0, "track": 4, "qtime": 40, "isDrum": false}, {"time": 88, "velocity": 108, "pitch": 64, "instrument": 0, "track": 4, "qtime": 40, "isDrum": false}, {"time": 88, "velocity": 108, "pitch": 72, "instrument": 0, "track": 4, "qtime": 40, "isDrum": false}, {"time": 95, "velocity": 0, "pitch": 64, "instrument": 0, "track": 4, "qtime": 47, "isDrum": false}, {"time": 95, "velocity": 0, "pitch": 67, "instrument": 0, "track": 4, "qtime": 47, "isDrum": false}, {"time": 95, "velocity": 0, "pitch": 72, "instrument": 0, "track": 4, "qtime": 47, "isDrum": false}, {"time": 96, "velocity": 108, "pitch": 62, "instrument": 0, "track": 4, "qtime": 0, "isDrum": false}, {"time": 96, "velocity": 108, "pitch": 65, "instrument": 0, "track": 4, "qtime": 0, "isDrum": false}, {"time": 96, "velocity": 108, "pitch": 69, "instrument": 0, "track": 4, "qtime": 0, "isDrum": false}, {"time": 112, "velocity": 0, "pitch": 62, "instrument": 0, "track": 4, "qtime": 16, "isDrum": false}, {"time": 112, "velocity": 0, "pitch": 65, "instrument": 0, "track": 4, "qtime": 16, "isDrum": false}, {"time": 113, "velocity": 0, "pitch": 69, "instrument": 0, "track": 4, "qtime": 17, "isDrum": false}, {"time": 114, "velocity": 108, "pitch": 62, "instrument": 0, "track": 4, "qtime": 18, "isDrum": false}, {"time": 114, "velocity": 108, "pitch": 65, "instrument": 0, "track": 4, "qtime": 18, "isDrum": false}, {"time": 114, "velocity": 108, "pitch": 69, "instrument": 0, "track": 4, "qtime": 18, "isDrum": false}, {"time": 120, "velocity": 0, "pitch": 62, "instrument": 0, "track": 4, "qtime": 24, "isDrum": false}, {"time": 120, "velocity": 0, "pitch": 65, "instrument": 0, "track": 4, "qtime": 24, "isDrum": false}, {"time": 120, "velocity": 0, "pitch": 69, "instrument": 0, "track": 4, "qtime": 24, "isDrum": false}, {"time": 120, "velocity": 108, "pitch": 60, "instrument": 0, "track": 4, "qtime": 24, "isDrum": false}, {"time": 120, "velocity": 108, "pitch": 62, "instrument": 0, "track": 4, "qtime": 24, "isDrum": false}, {"time": 120, "velocity": 108, "pitch": 66, "instrument": 0, "track": 4, "qtime": 24, "isDrum": false}, {"time": 120, "velocity": 108, "pitch": 69, "instrument": 0, "track": 4, "qtime": 24, "isDrum": false}, {"time": 132, "velocity": 0, "pitch": 66, "instrument": 0, "track": 4, "qtime": 36, "isDrum": false}, {"time": 132, "velocity": 0, "pitch": 69, "instrument": 0, "track": 4, "qtime": 36, "isDrum": false}, {"time": 132, "velocity": 108, "pitch": 64, "instrument": 0, "track": 4, "qtime": 36, "isDrum": false}, {"time": 132, "velocity": 108, "pitch": 67, "instrument": 0, "track": 4, "qtime": 36, "isDrum": false}, {"time": 133, "velocity": 0, "pitch": 62, "instrument": 0, "track": 4, "qtime": 37, "isDrum": false}, {"time": 141, "velocity": 0, "pitch": 60, "instrument": 0, "track": 4, "qtime": 45, "isDrum": false}, {"time": 143, "velocity": 0, "pitch": 67, "instrument": 0, "track": 4, "qtime": 47, "isDrum": false}, {"time": 144, "velocity": 0, "pitch": 64, "instrument": 0, "track": 4, "qtime": 48, "isDrum": false}, {"time": 144, "velocity": 108, "pitch": 59, "instrument": 0, "track": 4, "qtime": 0, "isDrum": false}, {"time": 144, "velocity": 108, "pitch": 62, "instrument": 0, "track": 4, "qtime": 0, "isDrum": false}, {"time": 144, "velocity": 108, "pitch": 64, "instrument": 0, "track": 4, "qtime": 0, "isDrum": false}, {"time": 144, "velocity": 108, "pitch": 67, "instrument": 0, "track": 4, "qtime": 0, "isDrum": false}, {"time": 152, "velocity": 0, "pitch": 59, "instrument": 0, "track": 4, "qtime": 8, "isDrum": false}, {"time": 154, "velocity": 0, "pitch": 62, "instrument": 0, "track": 4, "qtime": 10, "isDrum": false}, {"time": 154, "velocity": 0, "pitch": 64, "instrument": 0, "track": 4, "qtime": 10, "isDrum": false}, {"time": 154, "velocity": 0, "pitch": 67, "instrument": 0, "track": 4, "qtime": 10, "isDrum": false}, {"time": 156, "velocity": 108, "pitch": 59, "instrument": 0, "track": 4, "qtime": 12, "isDrum": false}, {"time": 156, "velocity": 108, "pitch": 62, "instrument": 0, "track": 4, "qtime": 12, "isDrum": false}, {"time": 156, "velocity": 108, "pitch": 64, "instrument": 0, "track": 4, "qtime": 12, "isDrum": false}, {"time": 156, "velocity": 108, "pitch": 67, "instrument": 0, "track": 4, "qtime": 12, "isDrum": false}, {"time": 160, "velocity": 0, "pitch": 59, "instrument": 0, "track": 4, "qtime": 16, "isDrum": false}, {"time": 160, "velocity": 0, "pitch": 62, "instrument": 0, "track": 4, "qtime": 16, "isDrum": false}, {"time": 160, "velocity": 0, "pitch": 64, "instrument": 0, "track": 4, "qtime": 16, "isDrum": false}, {"time": 160, "velocity": 0, "pitch": 67, "instrument": 0, "track": 4, "qtime": 16, "isDrum": false}, {"time": 162, "velocity": 108, "pitch": 59, "instrument": 0, "track": 4, "qtime": 18, "isDrum": false}, {"time": 162, "velocity": 108, "pitch": 62, "instrument": 0, "track": 4, "qtime": 18, "isDrum": false}, {"time": 162, "velocity": 108, "pitch": 64, "instrument": 0, "track": 4, "qtime": 18, "isDrum": false}, {"time": 162, "velocity": 108, "pitch": 67, "instrument": 0, "track": 4, "qtime": 18, "isDrum": false}, {"time": 182, "velocity": 0, "pitch": 59, "instrument": 0, "track": 4, "qtime": 38, "isDrum": false}, {"time": 182, "velocity": 0, "pitch": 62, "instrument": 0, "track": 4, "qtime": 38, "isDrum": false}, {"time": 184, "velocity": 0, "pitch": 64, "instrument": 0, "track": 4, "qtime": 40, "isDrum": false}, {"time": 184, "velocity": 0, "pitch": 67, "instrument": 0, "track": 4, "qtime": 40, "isDrum": false}, {"time": 192, "velocity": 108, "pitch": 59, "instrument": 0, "track": 4, "qtime": 0, "isDrum": false}, {"time": 192, "velocity": 108, "pitch": 64, "instrument": 0, "track": 4, "qtime": 0, "isDrum": false}, {"time": 192, "velocity": 108, "pitch": 67, "instrument": 0, "track": 4, "qtime": 0, "isDrum": false}, {"time": 221, "velocity": 0, "pitch": 59, "instrument": 0, "track": 4, "qtime": 29, "isDrum": false}, {"time": 221, "velocity": 0, "pitch": 64, "instrument": 0, "track": 4, "qtime": 29, "isDrum": false}, {"time": 221, "velocity": 0, "pitch": 67, "instrument": 0, "track": 4, "qtime": 29, "isDrum": false}, {"time": 228, "velocity": 108, "pitch": 64, "instrument": 0, "track": 4, "qtime": 36, "isDrum": false}, {"time": 228, "velocity": 108, "pitch": 68, "instrument": 0, "track": 4, "qtime": 36, "isDrum": false}, {"time": 228, "velocity": 108, "pitch": 71, "instrument": 0, "track": 4, "qtime": 36, "isDrum": false}, {"time": 233, "velocity": 0, "pitch": 64, "instrument": 0, "track": 4, "qtime": 41, "isDrum": false}, {"time": 233, "velocity": 0, "pitch": 68, "instrument": 0, "track": 4, "qtime": 41, "isDrum": false}, {"time": 233, "velocity": 0, "pitch": 71, "instrument": 0, "track": 4, "qtime": 41, "isDrum": false}, {"time": 234, "velocity": 108, "pitch": 64, "instrument": 0, "track": 4, "qtime": 42, "isDrum": false}, {"time": 234, "velocity": 108, "pitch": 68, "instrument": 0, "track": 4, "qtime": 42, "isDrum": false}, {"time": 234, "velocity": 108, "pitch": 74, "instrument": 0, "track": 4, "qtime": 42, "isDrum": false}, {"time": 239, "velocity": 0, "pitch": 64, "instrument": 0, "track": 4, "qtime": 47, "isDrum": false}, {"time": 239, "velocity": 0, "pitch": 68, "instrument": 0, "track": 4, "qtime": 47, "isDrum": false}, {"time": 239, "velocity": 0, "pitch": 74, "instrument": 0, "track": 4, "qtime": 47, "isDrum": false}, {"time": 240, "velocity": 108, "pitch": 64, "instrument": 0, "track": 4, "qtime": 0, "isDrum": false}, {"time": 240, "velocity": 108, "pitch": 69, "instrument": 0, "track": 4, "qtime": 0, "isDrum": false}, {"time": 240, "velocity": 108, "pitch": 72, "instrument": 0, "track": 4, "qtime": 0, "isDrum": false}, {"time": 255, "velocity": 0, "pitch": 64, "instrument": 0, "track": 4, "qtime": 15, "isDrum": false}, {"time": 255, "velocity": 0, "pitch": 72, "instrument": 0, "track": 4, "qtime": 15, "isDrum": false}, {"time": 256, "velocity": 0, "pitch": 69, "instrument": 0, "track": 4, "qtime": 16, "isDrum": false}, {"time": 258, "velocity": 108, "pitch": 64, "instrument": 0, "track": 4, "qtime": 18, "isDrum": false}, {"time": 258, "velocity": 108, "pitch": 69, "instrument": 0, "track": 4, "qtime": 18, "isDrum": false}, {"time": 258, "velocity": 108, "pitch": 72, "instrument": 0, "track": 4, "qtime": 18, "isDrum": false}, {"time": 264, "velocity": 0, "pitch": 64, "instrument": 0, "track": 4, "qtime": 24, "isDrum": false}, {"time": 264, "velocity": 0, "pitch": 69, "instrument": 0, "track": 4, "qtime": 24, "isDrum": false}, {"time": 264, "velocity": 0, "pitch": 72, "instrument": 0, "track": 4, "qtime": 24, "isDrum": false}, {"time": 264, "velocity": 108, "pitch": 64, "instrument": 0, "track": 4, "qtime": 24, "isDrum": false}, {"time": 264, "velocity": 108, "pitch": 69, "instrument": 0, "track": 4, "qtime": 24, "isDrum": false}, {"time": 264, "velocity": 108, "pitch": 72, "instrument": 0, "track": 4, "qtime": 24, "isDrum": false}, {"time": 272, "velocity": 0, "pitch": 64, "instrument": 0, "track": 4, "qtime": 32, "isDrum": false}, {"time": 272, "velocity": 0, "pitch": 69, "instrument": 0, "track": 4, "qtime": 32, "isDrum": false}, {"time": 272, "velocity": 0, "pitch": 72, "instrument": 0, "track": 4, "qtime": 32, "isDrum": false}, {"time": 272, "velocity": 108, "pitch": 62, "instrument": 0, "track": 4, "qtime": 32, "isDrum": false}, {"time": 272, "velocity": 108, "pitch": 67, "instrument": 0, "track": 4, "qtime": 32, "isDrum": false}, {"time": 272, "velocity": 108, "pitch": 71, "instrument": 0, "track": 4, "qtime": 32, "isDrum": false}, {"time": 280, "velocity": 0, "pitch": 71, "instrument": 0, "track": 4, "qtime": 40, "isDrum": false}, {"time": 280, "velocity": 108, "pitch": 60, "instrument": 0, "track": 4, "qtime": 40, "isDrum": false}, {"time": 280, "velocity": 108, "pitch": 69, "instrument": 0, "track": 4, "qtime": 40, "isDrum": false}, {"time": 281, "velocity": 0, "pitch": 62, "instrument": 0, "track": 4, "qtime": 41, "isDrum": false}, {"time": 281, "velocity": 0, "pitch": 67, "instrument": 0, "track": 4, "qtime": 41, "isDrum": false}, {"time": 288, "velocity": 0, "pitch": 60, "instrument": 0, "track": 4, "qtime": 48, "isDrum": false}, {"time": 288, "velocity": 108, "pitch": 57, "instrument": 0, "track": 4, "qtime": 0, "isDrum": false}, {"time": 288, "velocity": 108, "pitch": 62, "instrument": 0, "track": 4, "qtime": 0, "isDrum": false}, {"time": 288, "velocity": 108, "pitch": 65, "instrument": 0, "track": 4, "qtime": 0, "isDrum": false}, {"time": 289, "velocity": 0, "pitch": 69, "instrument": 0, "track": 4, "qtime": 1, "isDrum": false}, {"time": 302, "velocity": 0, "pitch": 62, "instrument": 0, "track": 4, "qtime": 14, "isDrum": false}, {"time": 303, "velocity": 0, "pitch": 65, "instrument": 0, "track": 4, "qtime": 15, "isDrum": false}, {"time": 304, "velocity": 0, "pitch": 57, "instrument": 0, "track": 4, "qtime": 16, "isDrum": false}, {"time": 306, "velocity": 108, "pitch": 57, "instrument": 0, "track": 4, "qtime": 18, "isDrum": false}, {"time": 306, "velocity": 108, "pitch": 62, "instrument": 0, "track": 4, "qtime": 18, "isDrum": false}, {"time": 306, "velocity": 108, "pitch": 65, "instrument": 0, "track": 4, "qtime": 18, "isDrum": false}, {"time": 311, "velocity": 0, "pitch": 57, "instrument": 0, "track": 4, "qtime": 23, "isDrum": false}, {"time": 312, "velocity": 0, "pitch": 62, "instrument": 0, "track": 4, "qtime": 24, "isDrum": false}, {"time": 312, "velocity": 0, "pitch": 65, "instrument": 0, "track": 4, "qtime": 24, "isDrum": false}, {"time": 312, "velocity": 108, "pitch": 57, "instrument": 0, "track": 4, "qtime": 24, "isDrum": false}, {"time": 312, "velocity": 108, "pitch": 60, "instrument": 0, "track": 4, "qtime": 24, "isDrum": false}, {"time": 312, "velocity": 108, "pitch": 66, "instrument": 0, "track": 4, "qtime": 24, "isDrum": false}, {"time": 322, "velocity": 0, "pitch": 60, "instrument": 0, "track": 4, "qtime": 34, "isDrum": false}, {"time": 323, "velocity": 0, "pitch": 57, "instrument": 0, "track": 4, "qtime": 35, "isDrum": false}, {"time": 324, "velocity": 0, "pitch": 66, "instrument": 0, "track": 4, "qtime": 36, "isDrum": false}, {"time": 324, "velocity": 108, "pitch": 60, "instrument": 0, "track": 4, "qtime": 36, "isDrum": false}, {"time": 324, "velocity": 108, "pitch": 64, "instrument": 0, "track": 4, "qtime": 36, "isDrum": false}, {"time": 324, "velocity": 108, "pitch": 67, "instrument": 0, "track": 4, "qtime": 36, "isDrum": false}, {"time": 334, "velocity": 0, "pitch": 60, "instrument": 0, "track": 4, "qtime": 46, "isDrum": false}, {"time": 334, "velocity": 0, "pitch": 67, "instrument": 0, "track": 4, "qtime": 46, "isDrum": false}, {"time": 336, "velocity": 0, "pitch": 64, "instrument": 0, "track": 4, "qtime": 48, "isDrum": false}, {"time": 336, "velocity": 108, "pitch": 59, "instrument": 0, "track": 4, "qtime": 0, "isDrum": false}, {"time": 336, "velocity": 108, "pitch": 62, "instrument": 0, "track": 4, "qtime": 0, "isDrum": false}, {"time": 336, "velocity": 108, "pitch": 67, "instrument": 0, "track": 4, "qtime": 0, "isDrum": false}, {"time": 352, "velocity": 0, "pitch": 59, "instrument": 0, "track": 4, "qtime": 16, "isDrum": false}, {"time": 352, "velocity": 0, "pitch": 62, "instrument": 0, "track": 4, "qtime": 16, "isDrum": false}, {"time": 352, "velocity": 0, "pitch": 67, "instrument": 0, "track": 4, "qtime": 16, "isDrum": false}, {"time": 354, "velocity": 108, "pitch": 59, "instrument": 0, "track": 4, "qtime": 18, "isDrum": false}, {"time": 354, "velocity": 108, "pitch": 62, "instrument": 0, "track": 4, "qtime": 18, "isDrum": false}, {"time": 354, "velocity": 108, "pitch": 67, "instrument": 0, "track": 4, "qtime": 18, "isDrum": false}, {"time": 357, "velocity": 0, "pitch": 59, "instrument": 0, "track": 4, "qtime": 21, "isDrum": false}, {"time": 358, "velocity": 0, "pitch": 62, "instrument": 0, "track": 4, "qtime": 22, "isDrum": false}, {"time": 358, "velocity": 0, "pitch": 67, "instrument": 0, "track": 4, "qtime": 22, "isDrum": false}, {"time": 360, "velocity": 108, "pitch": 59, "instrument": 0, "track": 4, "qtime": 24, "isDrum": false}, {"time": 360, "velocity": 108, "pitch": 62, "instrument": 0, "track": 4, "qtime": 24, "isDrum": false}, {"time": 360, "velocity": 108, "pitch": 67, "instrument": 0, "track": 4, "qtime": 24, "isDrum": false}, {"time": 370, "velocity": 0, "pitch": 59, "instrument": 0, "track": 4, "qtime": 34, "isDrum": false}, {"time": 371, "velocity": 0, "pitch": 67, "instrument": 0, "track": 4, "qtime": 35, "isDrum": false}, {"time": 372, "velocity": 0, "pitch": 62, "instrument": 0, "track": 4, "qtime": 36, "isDrum": false}, {"time": 372, "velocity": 108, "pitch": 60, "instrument": 0, "track": 4, "qtime": 36, "isDrum": false}, {"time": 372, "velocity": 108, "pitch": 65, "instrument": 0, "track": 4, "qtime": 36, "isDrum": false}, {"time": 372, "velocity": 108, "pitch": 69, "instrument": 0, "track": 4, "qtime": 36, "isDrum": false}, {"time": 384, "velocity": 0, "pitch": 60, "instrument": 0, "track": 4, "qtime": 48, "isDrum": false}, {"time": 384, "velocity": 0, "pitch": 65, "instrument": 0, "track": 4, "qtime": 48, "isDrum": false}, {"time": 384, "velocity": 0, "pitch": 69, "instrument": 0, "track": 4, "qtime": 48, "isDrum": false}], "resolution": 12, "tempo": 88, "minPitch": 28, "maxPitch": 74, "validSegments": [0], "validTracks": [31]}, "audio": "https://www.sfu.ca/~jeffe/examples/8b_ex6_density_9c.mp3"}, {"src": "gen/stem_0.json", "highlights": [[], [], [], []], "caption": "We start with a Jazz piece from the dataset.", "sample_id": "21a", "mixer": [8, 8, 8, 8], "tempo": 252, "json": {"tracks": [{"bars": [{"events": [0, 1, 2, 3, 4, 5, 6, 7, 8, 9, 10, 11, 12, 13, 14, 15, 16, 17, 18, 19, 20, 21, 22, 23, 24], "isFourFour": true, "hasNotes": true, "time": 0, "beatLength": 4}, {"events": [25, 26, 27, 28, 29, 30, 31, 32, 33, 34, 35, 36, 37, 38, 39, 40, 41, 42, 43, 44, 45, 46, 47, 48, 49, 50, 51, 52, 53, 54], "isFourFour": true, "hasNotes": true, "time": 48, "beatLength": 4}, {"events": [55, 56, 57, 58, 59, 60, 61, 62, 63, 64, 65, 66, 67, 68, 69, 70, 71, 72, 73, 74, 75, 76, 77, 78, 79, 80, 81, 82, 83, 84], "isFourFour": true, "hasNotes": true, "time": 96, "beatLength": 4}, {"events": [85, 86, 87, 88, 89, 90, 91, 92, 93, 94, 95, 96, 97, 98, 99, 100, 101, 102, 103, 104, 105, 106, 107, 108, 109, 110, 111, 112, 113, 114, 115, 116, 117, 118, 119], "isFourFour": true, "hasNotes": true, "time": 144, "beatLength": 4}], "isDrum": true, "minPitch": 35, "maxPitch": 57, "instrument": 32, "avPolyphony": 2.13294029, "noteDensity": 9, "noteDensityV2": 6}, {"bars": [{"events": [120, 121, 122, 123, 124, 125, 126, 127, 128, 129, 130, 131, 132, 133], "isFourFour": true, "hasNotes": true, "time": 0, "beatLength": 4}, {"events": [134, 135, 136, 137, 138, 139, 140, 141, 142, 143, 144, 145, 146, 147], "isFourFour": true, "hasNotes": true, "time": 48, "beatLength": 4}, {"events": [148, 149, 150, 151, 152, 153, 154, 155, 156, 157, 158, 159, 160, 161], "isFourFour": true, "hasNotes": true, "time": 96, "beatLength": 4}, {"events": [162, 163, 164, 165, 166, 167, 168, 169, 170, 171, 172, 173], "isFourFour": true, "hasNotes": true, "time": 144, "beatLength": 4}], "isDrum": false, "minPitch": 17, "maxPitch": 60, "instrument": 32, "avPolyphony": 1.01565158, "noteDensity": 9, "noteDensityV2": 8}, {"bars": [{"events": [258, 259, 260, 261, 262, 263, 264], "isFourFour": true, "hasNotes": true, "time": 0, "beatLength": 4}, {"events": [265, 266, 267], "isFourFour": true, "hasNotes": true, "time": 48, "beatLength": 4}, {"events": [268, 269, 270, 271, 272, 273], "isFourFour": true, "hasNotes": true, "time": 96, "beatLength": 4}, {"events": [274, 275], "isFourFour": true, "hasNotes": true, "time": 144, "beatLength": 4}], "isDrum": false, "minPitch": 55, "maxPitch": 79, "instrument": 65, "avPolyphony": 1.01153684, "noteDensity": 9, "noteDensityV2": 4}, {"bars": [{"events": [174, 175, 176, 177, 178, 179, 180, 181, 182, 183, 184, 185, 186, 187, 188, 189], "isFourFour": true, "hasNotes": true, "time": 0, "beatLength": 4}, {"events": [190, 191, 192, 193, 194, 195, 196, 197, 198, 199, 200, 201, 202, 203, 204, 205, 206, 207, 208, 209, 210, 211, 212, 213, 214, 215, 216, 217], "isFourFour": true, "hasNotes": true, "time": 48, "beatLength": 4}, {"events": [218, 219, 220, 221, 222, 223, 224, 225, 226, 227, 228, 229, 230, 231, 232, 233, 234, 235, 236, 237, 238, 239, 240, 241, 242, 243, 244, 245], "isFourFour": true, "hasNotes": true, "time": 96, "beatLength": 4}, {"events": [246, 247, 248, 249, 250, 251, 252, 253, 254, 255, 256, 257], "isFourFour": true, "hasNotes": true, "time": 144, "beatLength": 4}], "isDrum": false, "minPitch": 36, "maxPitch": 87, "instrument": 0, "avPolyphony": 4.87088966, "noteDensity": 9, "noteDensityV2": 5}], "events": [{"time": 0, "velocity": 108, "pitch": 38, "instrument": 32, "track": 0, "qtime": 0, "bar": 0, "isDrum": true}, {"time": 0, "velocity": 108, "pitch": 42, "instrument": 32, "track": 0, "qtime": 0, "bar": 0, "isDrum": true}, {"time": 0, "velocity": 108, "pitch": 51, "instrument": 32, "track": 0, "qtime": 0, "bar": 0, "isDrum": true}, {"time": 3, "velocity": 0, "pitch": 38, "instrument": 32, "track": 0, "qtime": 3, "bar": 0, "isDrum": true}, {"time": 3, "velocity": 0, "pitch": 42, "instrument": 32, "track": 0, "qtime": 3, "bar": 0, "isDrum": true}, {"time": 3, "velocity": 0, "pitch": 51, "instrument": 32, "track": 0, "qtime": 3, "bar": 0, "isDrum": true}, {"time": 12, "velocity": 108, "pitch": 42, "instrument": 32, "track": 0, "qtime": 12, "bar": 0, "isDrum": true}, {"time": 12, "velocity": 108, "pitch": 51, "instrument": 32, "track": 0, "qtime": 12, "bar": 0, "isDrum": true}, {"time": 15, "velocity": 0, "pitch": 42, "instrument": 32, "track": 0, "qtime": 15, "bar": 0, "isDrum": true}, {"time": 15, "velocity": 0, "pitch": 51, "instrument": 32, "track": 0, "qtime": 15, "bar": 0, "isDrum": true}, {"time": 21, "velocity": 108, "pitch": 51, "instrument": 32, "track": 0, "qtime": 21, "bar": 0, "isDrum": true}, {"time": 23, "velocity": 0, "pitch": 51, "instrument": 32, "track": 0, "qtime": 23, "bar": 0, "isDrum": true}, {"time": 24, "velocity": 108, "pitch": 42, "instrument": 32, "track": 0, "qtime": 24, "bar": 0, "isDrum": true}, {"time": 24, "velocity": 108, "pitch": 51, "instrument": 32, "track": 0, "qtime": 24, "bar": 0, "isDrum": true}, {"time": 27, "velocity": 0, "pitch": 42, "instrument": 32, "track": 0, "qtime": 27, "bar": 0, "isDrum": true}, {"time": 27, "velocity": 0, "pitch": 51, "instrument": 32, "track": 0, "qtime": 27, "bar": 0, "isDrum": true}, {"time": 36, "velocity": 108, "pitch": 38, "instrument": 32, "track": 0, "qtime": 36, "bar": 0, "isDrum": true}, {"time": 36, "velocity": 108, "pitch": 42, "instrument": 32, "track": 0, "qtime": 36, "bar": 0, "isDrum": true}, {"time": 36, "velocity": 108, "pitch": 51, "instrument": 32, "track": 0, "qtime": 36, "bar": 0, "isDrum": true}, {"time": 39, "velocity": 0, "pitch": 38, "instrument": 32, "track": 0, "qtime": 39, "bar": 0, "isDrum": true}, {"time": 39, "velocity": 0, "pitch": 42, "instrument": 32, "track": 0, "qtime": 39, "bar": 0, "isDrum": true}, {"time": 39, "velocity": 0, "pitch": 51, "instrument": 32, "track": 0, "qtime": 39, "bar": 0, "isDrum": true}, {"time": 45, "velocity": 108, "pitch": 51, "instrument": 32, "track": 0, "qtime": 45, "bar": 0, "isDrum": true}, {"time": 47, "velocity": 0, "pitch": 49, "instrument": 32, "track": 0, "qtime": 47, "bar": 0, "isDrum": true}, {"time": 47, "velocity": 0, "pitch": 51, "instrument": 32, "track": 0, "qtime": 47, "bar": 0, "isDrum": true}, {"time": 48, "velocity": 108, "pitch": 35, "instrument": 32, "track": 0, "qtime": 0, "bar": 1, "isDrum": true}, {"time": 48, "velocity": 108, "pitch": 42, "instrument": 32, "track": 0, "qtime": 0, "bar": 1, "isDrum": true}, {"time": 48, "velocity": 108, "pitch": 51, "instrument": 32, "track": 0, "qtime": 0, "bar": 1, "isDrum": true}, {"time": 51, "velocity": 0, "pitch": 35, "instrument": 32, "track": 0, "qtime": 3, "bar": 1, "isDrum": true}, {"time": 51, "velocity": 0, "pitch": 42, "instrument": 32, "track": 0, "qtime": 3, "bar": 1, "isDrum": true}, {"time": 51, "velocity": 0, "pitch": 51, "instrument": 32, "track": 0, "qtime": 3, "bar": 1, "isDrum": true}, {"time": 60, "velocity": 108, "pitch": 35, "instrument": 32, "track": 0, "qtime": 12, "bar": 1, "isDrum": true}, {"time": 60, "velocity": 108, "pitch": 38, "instrument": 32, "track": 0, "qtime": 12, "bar": 1, "isDrum": true}, {"time": 60, "velocity": 108, "pitch": 42, "instrument": 32, "track": 0, "qtime": 12, "bar": 1, "isDrum": true}, {"time": 60, "velocity": 108, "pitch": 51, "instrument": 32, "track": 0, "qtime": 12, "bar": 1, "isDrum": true}, {"time": 63, "velocity": 0, "pitch": 35, "instrument": 32, "track": 0, "qtime": 15, "bar": 1, "isDrum": true}, {"time": 63, "velocity": 0, "pitch": 38, "instrument": 32, "track": 0, "qtime": 15, "bar": 1, "isDrum": true}, {"time": 63, "velocity": 0, "pitch": 42, "instrument": 32, "track": 0, "qtime": 15, "bar": 1, "isDrum": true}, {"time": 63, "velocity": 0, "pitch": 51, "instrument": 32, "track": 0, "qtime": 15, "bar": 1, "isDrum": true}, {"time": 68, "velocity": 108, "pitch": 51, "instrument": 32, "track": 0, "qtime": 20, "bar": 1, "isDrum": true}, {"time": 71, "velocity": 0, "pitch": 51, "instrument": 32, "track": 0, "qtime": 23, "bar": 1, "isDrum": true}, {"time": 72, "velocity": 108, "pitch": 42, "instrument": 32, "track": 0, "qtime": 24, "bar": 1, "isDrum": true}, {"time": 72, "velocity": 108, "pitch": 51, "instrument": 32, "track": 0, "qtime": 24, "bar": 1, "isDrum": true}, {"time": 75, "velocity": 0, "pitch": 42, "instrument": 32, "track": 0, "qtime": 27, "bar": 1, "isDrum": true}, {"time": 75, "velocity": 0, "pitch": 51, "instrument": 32, "track": 0, "qtime": 27, "bar": 1, "isDrum": true}, {"time": 84, "velocity": 108, "pitch": 35, "instrument": 32, "track": 0, "qtime": 36, "bar": 1, "isDrum": true}, {"time": 84, "velocity": 108, "pitch": 38, "instrument": 32, "track": 0, "qtime": 36, "bar": 1, "isDrum": true}, {"time": 84, "velocity": 108, "pitch": 42, "instrument": 32, "track": 0, "qtime": 36, "bar": 1, "isDrum": true}, {"time": 84, "velocity": 108, "pitch": 51, "instrument": 32, "track": 0, "qtime": 36, "bar": 1, "isDrum": true}, {"time": 87, "velocity": 0, "pitch": 35, "instrument": 32, "track": 0, "qtime": 39, "bar": 1, "isDrum": true}, {"time": 87, "velocity": 0, "pitch": 38, "instrument": 32, "track": 0, "qtime": 39, "bar": 1, "isDrum": true}, {"time": 87, "velocity": 0, "pitch": 42, "instrument": 32, "track": 0, "qtime": 39, "bar": 1, "isDrum": true}, {"time": 87, "velocity": 0, "pitch": 51, "instrument": 32, "track": 0, "qtime": 39, "bar": 1, "isDrum": true}, {"time": 92, "velocity": 108, "pitch": 51, "instrument": 32, "track": 0, "qtime": 44, "bar": 1, "isDrum": true}, {"time": 95, "velocity": 0, "pitch": 51, "instrument": 32, "track": 0, "qtime": 47, "bar": 1, "isDrum": true}, {"time": 96, "velocity": 108, "pitch": 38, "instrument": 32, "track": 0, "qtime": 0, "bar": 2, "isDrum": true}, {"time": 96, "velocity": 108, "pitch": 42, "instrument": 32, "track": 0, "qtime": 0, "bar": 2, "isDrum": true}, {"time": 96, "velocity": 108, "pitch": 51, "instrument": 32, "track": 0, "qtime": 0, "bar": 2, "isDrum": true}, {"time": 99, "velocity": 0, "pitch": 38, "instrument": 32, "track": 0, "qtime": 3, "bar": 2, "isDrum": true}, {"time": 99, "velocity": 0, "pitch": 42, "instrument": 32, "track": 0, "qtime": 3, "bar": 2, "isDrum": true}, {"time": 99, "velocity": 0, "pitch": 51, "instrument": 32, "track": 0, "qtime": 3, "bar": 2, "isDrum": true}, {"time": 104, "velocity": 108, "pitch": 35, "instrument": 32, "track": 0, "qtime": 8, "bar": 2, "isDrum": true}, {"time": 104, "velocity": 108, "pitch": 51, "instrument": 32, "track": 0, "qtime": 8, "bar": 2, "isDrum": true}, {"time": 107, "velocity": 0, "pitch": 35, "instrument": 32, "track": 0, "qtime": 11, "bar": 2, "isDrum": true}, {"time": 107, "velocity": 0, "pitch": 51, "instrument": 32, "track": 0, "qtime": 11, "bar": 2, "isDrum": true}, {"time": 108, "velocity": 108, "pitch": 35, "instrument": 32, "track": 0, "qtime": 12, "bar": 2, "isDrum": true}, {"time": 108, "velocity": 108, "pitch": 42, "instrument": 32, "track": 0, "qtime": 12, "bar": 2, "isDrum": true}, {"time": 108, "velocity": 108, "pitch": 51, "instrument": 32, "track": 0, "qtime": 12, "bar": 2, "isDrum": true}, {"time": 111, "velocity": 0, "pitch": 35, "instrument": 32, "track": 0, "qtime": 15, "bar": 2, "isDrum": true}, {"time": 111, "velocity": 0, "pitch": 42, "instrument": 32, "track": 0, "qtime": 15, "bar": 2, "isDrum": true}, {"time": 111, "velocity": 0, "pitch": 51, "instrument": 32, "track": 0, "qtime": 15, "bar": 2, "isDrum": true}, {"time": 116, "velocity": 108, "pitch": 38, "instrument": 32, "track": 0, "qtime": 20, "bar": 2, "isDrum": true}, {"time": 119, "velocity": 0, "pitch": 38, "instrument": 32, "track": 0, "qtime": 23, "bar": 2, "isDrum": true}, {"time": 120, "velocity": 108, "pitch": 42, "instrument": 32, "track": 0, "qtime": 24, "bar": 2, "isDrum": true}, {"time": 120, "velocity": 108, "pitch": 51, "instrument": 32, "track": 0, "qtime": 24, "bar": 2, "isDrum": true}, {"time": 123, "velocity": 0, "pitch": 42, "instrument": 32, "track": 0, "qtime": 27, "bar": 2, "isDrum": true}, {"time": 123, "velocity": 0, "pitch": 51, "instrument": 32, "track": 0, "qtime": 27, "bar": 2, "isDrum": true}, {"time": 132, "velocity": 108, "pitch": 38, "instrument": 32, "track": 0, "qtime": 36, "bar": 2, "isDrum": true}, {"time": 132, "velocity": 108, "pitch": 42, "instrument": 32, "track": 0, "qtime": 36, "bar": 2, "isDrum": true}, {"time": 132, "velocity": 108, "pitch": 51, "instrument": 32, "track": 0, "qtime": 36, "bar": 2, "isDrum": true}, {"time": 135, "velocity": 0, "pitch": 38, "instrument": 32, "track": 0, "qtime": 39, "bar": 2, "isDrum": true}, {"time": 135, "velocity": 0, "pitch": 42, "instrument": 32, "track": 0, "qtime": 39, "bar": 2, "isDrum": true}, {"time": 135, "velocity": 0, "pitch": 51, "instrument": 32, "track": 0, "qtime": 39, "bar": 2, "isDrum": true}, {"time": 140, "velocity": 108, "pitch": 51, "instrument": 32, "track": 0, "qtime": 44, "bar": 2, "isDrum": true}, {"time": 143, "velocity": 0, "pitch": 51, "instrument": 32, "track": 0, "qtime": 47, "bar": 2, "isDrum": true}, {"time": 144, "velocity": 108, "pitch": 42, "instrument": 32, "track": 0, "qtime": 0, "bar": 3, "isDrum": true}, {"time": 144, "velocity": 108, "pitch": 51, "instrument": 32, "track": 0, "qtime": 0, "bar": 3, "isDrum": true}, {"time": 147, "velocity": 0, "pitch": 42, "instrument": 32, "track": 0, "qtime": 3, "bar": 3, "isDrum": true}, {"time": 147, "velocity": 0, "pitch": 51, "instrument": 32, "track": 0, "qtime": 3, "bar": 3, "isDrum": true}, {"time": 152, "velocity": 108, "pitch": 38, "instrument": 32, "track": 0, "qtime": 8, "bar": 3, "isDrum": true}, {"time": 155, "velocity": 0, "pitch": 38, "instrument": 32, "track": 0, "qtime": 11, "bar": 3, "isDrum": true}, {"time": 156, "velocity": 108, "pitch": 42, "instrument": 32, "track": 0, "qtime": 12, "bar": 3, "isDrum": true}, {"time": 156, "velocity": 108, "pitch": 51, "instrument": 32, "track": 0, "qtime": 12, "bar": 3, "isDrum": true}, {"time": 159, "velocity": 0, "pitch": 42, "instrument": 32, "track": 0, "qtime": 15, "bar": 3, "isDrum": true}, {"time": 159, "velocity": 0, "pitch": 51, "instrument": 32, "track": 0, "qtime": 15, "bar": 3, "isDrum": true}, {"time": 164, "velocity": 108, "pitch": 38, "instrument": 32, "track": 0, "qtime": 20, "bar": 3, "isDrum": true}, {"time": 164, "velocity": 108, "pitch": 51, "instrument": 32, "track": 0, "qtime": 20, "bar": 3, "isDrum": true}, {"time": 167, "velocity": 0, "pitch": 38, "instrument": 32, "track": 0, "qtime": 23, "bar": 3, "isDrum": true}, {"time": 167, "velocity": 0, "pitch": 51, "instrument": 32, "track": 0, "qtime": 23, "bar": 3, "isDrum": true}, {"time": 168, "velocity": 108, "pitch": 35, "instrument": 32, "track": 0, "qtime": 24, "bar": 3, "isDrum": true}, {"time": 168, "velocity": 108, "pitch": 38, "instrument": 32, "track": 0, "qtime": 24, "bar": 3, "isDrum": true}, {"time": 168, "velocity": 108, "pitch": 42, "instrument": 32, "track": 0, "qtime": 24, "bar": 3, "isDrum": true}, {"time": 168, "velocity": 108, "pitch": 51, "instrument": 32, "track": 0, "qtime": 24, "bar": 3, "isDrum": true}, {"time": 171, "velocity": 0, "pitch": 35, "instrument": 32, "track": 0, "qtime": 27, "bar": 3, "isDrum": true}, {"time": 171, "velocity": 0, "pitch": 38, "instrument": 32, "track": 0, "qtime": 27, "bar": 3, "isDrum": true}, {"time": 171, "velocity": 0, "pitch": 42, "instrument": 32, "track": 0, "qtime": 27, "bar": 3, "isDrum": true}, {"time": 171, "velocity": 0, "pitch": 51, "instrument": 32, "track": 0, "qtime": 27, "bar": 3, "isDrum": true}, {"time": 176, "velocity": 108, "pitch": 38, "instrument": 32, "track": 0, "qtime": 32, "bar": 3, "isDrum": true}, {"time": 179, "velocity": 0, "pitch": 38, "instrument": 32, "track": 0, "qtime": 35, "bar": 3, "isDrum": true}, {"time": 180, "velocity": 108, "pitch": 42, "instrument": 32, "track": 0, "qtime": 36, "bar": 3, "isDrum": true}, {"time": 180, "velocity": 108, "pitch": 51, "instrument": 32, "track": 0, "qtime": 36, "bar": 3, "isDrum": true}, {"time": 183, "velocity": 0, "pitch": 42, "instrument": 32, "track": 0, "qtime": 39, "bar": 3, "isDrum": true}, {"time": 183, "velocity": 0, "pitch": 51, "instrument": 32, "track": 0, "qtime": 39, "bar": 3, "isDrum": true}, {"time": 188, "velocity": 108, "pitch": 35, "instrument": 32, "track": 0, "qtime": 44, "bar": 3, "isDrum": true}, {"time": 188, "velocity": 108, "pitch": 38, "instrument": 32, "track": 0, "qtime": 44, "bar": 3, "isDrum": true}, {"time": 188, "velocity": 108, "pitch": 51, "instrument": 32, "track": 0, "qtime": 44, "bar": 3, "isDrum": true}, {"time": 188, "velocity": 108, "pitch": 57, "instrument": 32, "track": 0, "qtime": 44, "bar": 3, "isDrum": true}, {"time": 191, "velocity": 0, "pitch": 35, "instrument": 32, "track": 0, "qtime": 47, "bar": 3, "isDrum": true}, {"time": 191, "velocity": 0, "pitch": 38, "instrument": 32, "track": 0, "qtime": 47, "bar": 3, "isDrum": true}, {"time": 191, "velocity": 0, "pitch": 51, "instrument": 32, "track": 0, "qtime": 47, "bar": 3, "isDrum": true}, {"time": 0, "velocity": 108, "pitch": 44, "instrument": 32, "track": 1, "qtime": 0, "bar": 0, "isDrum": false}, {"time": 8, "velocity": 108, "pitch": 32, "instrument": 32, "track": 1, "qtime": 8, "bar": 0, "isDrum": false}, {"time": 10, "velocity": 0, "pitch": 32, "instrument": 32, "track": 1, "qtime": 10, "bar": 0, "isDrum": false}, {"time": 10, "velocity": 0, "pitch": 44, "instrument": 32, "track": 1, "qtime": 10, "bar": 0, "isDrum": false}, {"time": 12, "velocity": 108, "pitch": 51, "instrument": 32, "track": 1, "qtime": 12, "bar": 0, "isDrum": false}, {"time": 24, "velocity": 0, "pitch": 51, "instrument": 32, "track": 1, "qtime": 24, "bar": 0, "isDrum": false}, {"time": 24, "velocity": 108, "pitch": 48, "instrument": 32, "track": 1, "qtime": 24, "bar": 0, "isDrum": false}, {"time": 32, "velocity": 0, "pitch": 48, "instrument": 32, "track": 1, "qtime": 32, "bar": 0, "isDrum": false}, {"time": 32, "velocity": 108, "pitch": 32, "instrument": 32, "track": 1, "qtime": 32, "bar": 0, "isDrum": false}, {"time": 34, "velocity": 0, "pitch": 32, "instrument": 32, "track": 1, "qtime": 34, "bar": 0, "isDrum": false}, {"time": 36, "velocity": 108, "pitch": 44, "instrument": 32, "track": 1, "qtime": 36, "bar": 0, "isDrum": false}, {"time": 44, "velocity": 0, "pitch": 44, "instrument": 32, "track": 1, "qtime": 44, "bar": 0, "isDrum": false}, {"time": 44, "velocity": 108, "pitch": 32, "instrument": 32, "track": 1, "qtime": 44, "bar": 0, "isDrum": false}, {"time": 45, "velocity": 0, "pitch": 32, "instrument": 32, "track": 1, "qtime": 45, "bar": 0, "isDrum": false}, {"time": 48, "velocity": 108, "pitch": 43, "instrument": 32, "track": 1, "qtime": 0, "bar": 1, "isDrum": false}, {"time": 56, "velocity": 0, "pitch": 43, "instrument": 32, "track": 1, "qtime": 8, "bar": 1, "isDrum": false}, {"time": 56, "velocity": 108, "pitch": 31, "instrument": 32, "track": 1, "qtime": 8, "bar": 1, "isDrum": false}, {"time": 57, "velocity": 0, "pitch": 31, "instrument": 32, "track": 1, "qtime": 9, "bar": 1, "isDrum": false}, {"time": 60, "velocity": 108, "pitch": 38, "instrument": 32, "track": 1, "qtime": 12, "bar": 1, "isDrum": false}, {"time": 72, "velocity": 0, "pitch": 38, "instrument": 32, "track": 1, "qtime": 24, "bar": 1, "isDrum": false}, {"time": 72, "velocity": 108, "pitch": 43, "instrument": 32, "track": 1, "qtime": 24, "bar": 1, "isDrum": false}, {"time": 80, "velocity": 0, "pitch": 43, "instrument": 32, "track": 1, "qtime": 32, "bar": 1, "isDrum": false}, {"time": 80, "velocity": 108, "pitch": 43, "instrument": 32, "track": 1, "qtime": 32, "bar": 1, "isDrum": false}, {"time": 84, "velocity": 0, "pitch": 43, "instrument": 32, "track": 1, "qtime": 36, "bar": 1, "isDrum": false}, {"time": 84, "velocity": 108, "pitch": 37, "instrument": 32, "track": 1, "qtime": 36, "bar": 1, "isDrum": false}, {"time": 92, "velocity": 0, "pitch": 37, "instrument": 32, "track": 1, "qtime": 44, "bar": 1, "isDrum": false}, {"time": 92, "velocity": 108, "pitch": 25, "instrument": 32, "track": 1, "qtime": 44, "bar": 1, "isDrum": false}, {"time": 93, "velocity": 0, "pitch": 25, "instrument": 32, "track": 1, "qtime": 45, "bar": 1, "isDrum": false}, {"time": 96, "velocity": 108, "pitch": 36, "instrument": 32, "track": 1, "qtime": 0, "bar": 2, "isDrum": false}, {"time": 108, "velocity": 0, "pitch": 36, "instrument": 32, "track": 1, "qtime": 12, "bar": 2, "isDrum": false}, {"time": 108, "velocity": 108, "pitch": 50, "instrument": 32, "track": 1, "qtime": 12, "bar": 2, "isDrum": false}, {"time": 116, "velocity": 0, "pitch": 50, "instrument": 32, "track": 1, "qtime": 20, "bar": 2, "isDrum": false}, {"time": 116, "velocity": 108, "pitch": 24, "instrument": 32, "track": 1, "qtime": 20, "bar": 2, "isDrum": false}, {"time": 118, "velocity": 0, "pitch": 24, "instrument": 32, "track": 1, "qtime": 22, "bar": 2, "isDrum": false}, {"time": 120, "velocity": 108, "pitch": 36, "instrument": 32, "track": 1, "qtime": 24, "bar": 2, "isDrum": false}, {"time": 128, "velocity": 0, "pitch": 36, "instrument": 32, "track": 1, "qtime": 32, "bar": 2, "isDrum": false}, {"time": 128, "velocity": 108, "pitch": 36, "instrument": 32, "track": 1, "qtime": 32, "bar": 2, "isDrum": false}, {"time": 132, "velocity": 0, "pitch": 36, "instrument": 32, "track": 1, "qtime": 36, "bar": 2, "isDrum": false}, {"time": 132, "velocity": 108, "pitch": 36, "instrument": 32, "track": 1, "qtime": 36, "bar": 2, "isDrum": false}, {"time": 140, "velocity": 0, "pitch": 36, "instrument": 32, "track": 1, "qtime": 44, "bar": 2, "isDrum": false}, {"time": 140, "velocity": 108, "pitch": 24, "instrument": 32, "track": 1, "qtime": 44, "bar": 2, "isDrum": false}, {"time": 141, "velocity": 0, "pitch": 24, "instrument": 32, "track": 1, "qtime": 45, "bar": 2, "isDrum": false}, {"time": 144, "velocity": 108, "pitch": 41, "instrument": 32, "track": 1, "qtime": 0, "bar": 3, "isDrum": false}, {"time": 152, "velocity": 0, "pitch": 41, "instrument": 32, "track": 1, "qtime": 8, "bar": 3, "isDrum": false}, {"time": 152, "velocity": 108, "pitch": 29, "instrument": 32, "track": 1, "qtime": 8, "bar": 3, "isDrum": false}, {"time": 154, "velocity": 0, "pitch": 29, "instrument": 32, "track": 1, "qtime": 10, "bar": 3, "isDrum": false}, {"time": 156, "velocity": 108, "pitch": 33, "instrument": 32, "track": 1, "qtime": 12, "bar": 3, "isDrum": false}, {"time": 168, "velocity": 0, "pitch": 33, "instrument": 32, "track": 1, "qtime": 24, "bar": 3, "isDrum": false}, {"time": 168, "velocity": 108, "pitch": 36, "instrument": 32, "track": 1, "qtime": 24, "bar": 3, "isDrum": false}, {"time": 180, "velocity": 0, "pitch": 36, "instrument": 32, "track": 1, "qtime": 36, "bar": 3, "isDrum": false}, {"time": 180, "velocity": 108, "pitch": 41, "instrument": 32, "track": 1, "qtime": 36, "bar": 3, "isDrum": false}, {"time": 188, "velocity": 0, "pitch": 41, "instrument": 32, "track": 1, "qtime": 44, "bar": 3, "isDrum": false}, {"time": 188, "velocity": 108, "pitch": 29, "instrument": 32, "track": 1, "qtime": 44, "bar": 3, "isDrum": false}, {"time": 189, "velocity": 0, "pitch": 29, "instrument": 32, "track": 1, "qtime": 45, "bar": 3, "isDrum": false}, {"time": 1, "velocity": 108, "pitch": 54, "instrument": 0, "track": 2, "qtime": 1, "bar": 0, "isDrum": false}, {"time": 1, "velocity": 108, "pitch": 62, "instrument": 0, "track": 2, "qtime": 1, "bar": 0, "isDrum": false}, {"time": 1, "velocity": 108, "pitch": 65, "instrument": 0, "track": 2, "qtime": 1, "bar": 0, "isDrum": false}, {"time": 1, "velocity": 108, "pitch": 70, "instrument": 0, "track": 2, "qtime": 1, "bar": 0, "isDrum": false}, {"time": 3, "velocity": 0, "pitch": 54, "instrument": 0, "track": 2, "qtime": 3, "bar": 0, "isDrum": false}, {"time": 3, "velocity": 0, "pitch": 62, "instrument": 0, "track": 2, "qtime": 3, "bar": 0, "isDrum": false}, {"time": 3, "velocity": 0, "pitch": 65, "instrument": 0, "track": 2, "qtime": 3, "bar": 0, "isDrum": false}, {"time": 3, "velocity": 0, "pitch": 70, "instrument": 0, "track": 2, "qtime": 3, "bar": 0, "isDrum": false}, {"time": 21, "velocity": 108, "pitch": 54, "instrument": 0, "track": 2, "qtime": 21, "bar": 0, "isDrum": false}, {"time": 21, "velocity": 108, "pitch": 62, "instrument": 0, "track": 2, "qtime": 21, "bar": 0, "isDrum": false}, {"time": 21, "velocity": 108, "pitch": 65, "instrument": 0, "track": 2, "qtime": 21, "bar": 0, "isDrum": false}, {"time": 21, "velocity": 108, "pitch": 70, "instrument": 0, "track": 2, "qtime": 21, "bar": 0, "isDrum": false}, {"time": 48, "velocity": 0, "pitch": 54, "instrument": 0, "track": 2, "qtime": 48, "bar": 0, "isDrum": false}, {"time": 48, "velocity": 0, "pitch": 62, "instrument": 0, "track": 2, "qtime": 48, "bar": 0, "isDrum": false}, {"time": 48, "velocity": 0, "pitch": 65, "instrument": 0, "track": 2, "qtime": 48, "bar": 0, "isDrum": false}, {"time": 48, "velocity": 0, "pitch": 70, "instrument": 0, "track": 2, "qtime": 48, "bar": 0, "isDrum": false}, {"time": 48, "velocity": 108, "pitch": 43, "instrument": 0, "track": 2, "qtime": 0, "bar": 1, "isDrum": false}, {"time": 48, "velocity": 108, "pitch": 57, "instrument": 0, "track": 2, "qtime": 0, "bar": 1, "isDrum": false}, {"time": 48, "velocity": 108, "pitch": 60, "instrument": 0, "track": 2, "qtime": 0, "bar": 1, "isDrum": false}, {"time": 48, "velocity": 108, "pitch": 65, "instrument": 0, "track": 2, "qtime": 0, "bar": 1, "isDrum": false}, {"time": 48, "velocity": 108, "pitch": 69, "instrument": 0, "track": 2, "qtime": 0, "bar": 1, "isDrum": false}, {"time": 48, "velocity": 108, "pitch": 74, "instrument": 0, "track": 2, "qtime": 0, "bar": 1, "isDrum": false}, {"time": 72, "velocity": 0, "pitch": 43, "instrument": 0, "track": 2, "qtime": 24, "bar": 1, "isDrum": false}, {"time": 72, "velocity": 0, "pitch": 57, "instrument": 0, "track": 2, "qtime": 24, "bar": 1, "isDrum": false}, {"time": 72, "velocity": 0, "pitch": 60, "instrument": 0, "track": 2, "qtime": 24, "bar": 1, "isDrum": false}, {"time": 72, "velocity": 0, "pitch": 65, "instrument": 0, "track": 2, "qtime": 24, "bar": 1, "isDrum": false}, {"time": 72, "velocity": 0, "pitch": 69, "instrument": 0, "track": 2, "qtime": 24, "bar": 1, "isDrum": false}, {"time": 72, "velocity": 0, "pitch": 74, "instrument": 0, "track": 2, "qtime": 24, "bar": 1, "isDrum": false}, {"time": 72, "velocity": 108, "pitch": 53, "instrument": 0, "track": 2, "qtime": 24, "bar": 1, "isDrum": false}, {"time": 72, "velocity": 108, "pitch": 60, "instrument": 0, "track": 2, "qtime": 24, "bar": 1, "isDrum": false}, {"time": 72, "velocity": 108, "pitch": 62, "instrument": 0, "track": 2, "qtime": 24, "bar": 1, "isDrum": false}, {"time": 72, "velocity": 108, "pitch": 69, "instrument": 0, "track": 2, "qtime": 24, "bar": 1, "isDrum": false}, {"time": 84, "velocity": 0, "pitch": 53, "instrument": 0, "track": 2, "qtime": 36, "bar": 1, "isDrum": false}, {"time": 84, "velocity": 0, "pitch": 60, "instrument": 0, "track": 2, "qtime": 36, "bar": 1, "isDrum": false}, {"time": 84, "velocity": 0, "pitch": 62, "instrument": 0, "track": 2, "qtime": 36, "bar": 1, "isDrum": false}, {"time": 84, "velocity": 0, "pitch": 69, "instrument": 0, "track": 2, "qtime": 36, "bar": 1, "isDrum": false}, {"time": 84, "velocity": 108, "pitch": 54, "instrument": 0, "track": 2, "qtime": 36, "bar": 1, "isDrum": false}, {"time": 84, "velocity": 108, "pitch": 56, "instrument": 0, "track": 2, "qtime": 36, "bar": 1, "isDrum": false}, {"time": 84, "velocity": 108, "pitch": 59, "instrument": 0, "track": 2, "qtime": 36, "bar": 1, "isDrum": false}, {"time": 84, "velocity": 108, "pitch": 63, "instrument": 0, "track": 2, "qtime": 36, "bar": 1, "isDrum": false}, {"time": 96, "velocity": 0, "pitch": 54, "instrument": 0, "track": 2, "qtime": 48, "bar": 1, "isDrum": false}, {"time": 96, "velocity": 0, "pitch": 56, "instrument": 0, "track": 2, "qtime": 48, "bar": 1, "isDrum": false}, {"time": 96, "velocity": 0, "pitch": 59, "instrument": 0, "track": 2, "qtime": 48, "bar": 1, "isDrum": false}, {"time": 96, "velocity": 0, "pitch": 63, "instrument": 0, "track": 2, "qtime": 48, "bar": 1, "isDrum": false}, {"time": 96, "velocity": 108, "pitch": 36, "instrument": 0, "track": 2, "qtime": 0, "bar": 2, "isDrum": false}, {"time": 96, "velocity": 108, "pitch": 57, "instrument": 0, "track": 2, "qtime": 0, "bar": 2, "isDrum": false}, {"time": 96, "velocity": 108, "pitch": 58, "instrument": 0, "track": 2, "qtime": 0, "bar": 2, "isDrum": false}, {"time": 96, "velocity": 108, "pitch": 65, "instrument": 0, "track": 2, "qtime": 0, "bar": 2, "isDrum": false}, {"time": 96, "velocity": 108, "pitch": 67, "instrument": 0, "track": 2, "qtime": 0, "bar": 2, "isDrum": false}, {"time": 96, "velocity": 108, "pitch": 74, "instrument": 0, "track": 2, "qtime": 0, "bar": 2, "isDrum": false}, {"time": 120, "velocity": 0, "pitch": 36, "instrument": 0, "track": 2, "qtime": 24, "bar": 2, "isDrum": false}, {"time": 120, "velocity": 0, "pitch": 57, "instrument": 0, "track": 2, "qtime": 24, "bar": 2, "isDrum": false}, {"time": 120, "velocity": 0, "pitch": 58, "instrument": 0, "track": 2, "qtime": 24, "bar": 2, "isDrum": false}, {"time": 120, "velocity": 0, "pitch": 65, "instrument": 0, "track": 2, "qtime": 24, "bar": 2, "isDrum": false}, {"time": 120, "velocity": 0, "pitch": 67, "instrument": 0, "track": 2, "qtime": 24, "bar": 2, "isDrum": false}, {"time": 120, "velocity": 0, "pitch": 74, "instrument": 0, "track": 2, "qtime": 24, "bar": 2, "isDrum": false}, {"time": 120, "velocity": 108, "pitch": 53, "instrument": 0, "track": 2, "qtime": 24, "bar": 2, "isDrum": false}, {"time": 120, "velocity": 108, "pitch": 55, "instrument": 0, "track": 2, "qtime": 24, "bar": 2, "isDrum": false}, {"time": 120, "velocity": 108, "pitch": 58, "instrument": 0, "track": 2, "qtime": 24, "bar": 2, "isDrum": false}, {"time": 120, "velocity": 108, "pitch": 62, "instrument": 0, "track": 2, "qtime": 24, "bar": 2, "isDrum": false}, {"time": 132, "velocity": 0, "pitch": 53, "instrument": 0, "track": 2, "qtime": 36, "bar": 2, "isDrum": false}, {"time": 132, "velocity": 0, "pitch": 55, "instrument": 0, "track": 2, "qtime": 36, "bar": 2, "isDrum": false}, {"time": 132, "velocity": 0, "pitch": 58, "instrument": 0, "track": 2, "qtime": 36, "bar": 2, "isDrum": false}, {"time": 132, "velocity": 0, "pitch": 62, "instrument": 0, "track": 2, "qtime": 36, "bar": 2, "isDrum": false}, {"time": 132, "velocity": 108, "pitch": 55, "instrument": 0, "track": 2, "qtime": 36, "bar": 2, "isDrum": false}, {"time": 132, "velocity": 108, "pitch": 61, "instrument": 0, "track": 2, "qtime": 36, "bar": 2, "isDrum": false}, {"time": 132, "velocity": 108, "pitch": 64, "instrument": 0, "track": 2, "qtime": 36, "bar": 2, "isDrum": false}, {"time": 133, "velocity": 108, "pitch": 58, "instrument": 0, "track": 2, "qtime": 37, "bar": 2, "isDrum": false}, {"time": 144, "velocity": 0, "pitch": 55, "instrument": 0, "track": 2, "qtime": 48, "bar": 2, "isDrum": false}, {"time": 144, "velocity": 0, "pitch": 58, "instrument": 0, "track": 2, "qtime": 48, "bar": 2, "isDrum": false}, {"time": 144, "velocity": 0, "pitch": 61, "instrument": 0, "track": 2, "qtime": 48, "bar": 2, "isDrum": false}, {"time": 144, "velocity": 0, "pitch": 64, "instrument": 0, "track": 2, "qtime": 48, "bar": 2, "isDrum": false}, {"time": 144, "velocity": 108, "pitch": 67, "instrument": 0, "track": 2, "qtime": 0, "bar": 3, "isDrum": false}, {"time": 144, "velocity": 108, "pitch": 72, "instrument": 0, "track": 2, "qtime": 0, "bar": 3, "isDrum": false}, {"time": 145, "velocity": 108, "pitch": 41, "instrument": 0, "track": 2, "qtime": 1, "bar": 3, "isDrum": false}, {"time": 145, "velocity": 108, "pitch": 53, "instrument": 0, "track": 2, "qtime": 1, "bar": 3, "isDrum": false}, {"time": 145, "velocity": 108, "pitch": 57, "instrument": 0, "track": 2, "qtime": 1, "bar": 3, "isDrum": false}, {"time": 145, "velocity": 108, "pitch": 62, "instrument": 0, "track": 2, "qtime": 1, "bar": 3, "isDrum": false}, {"time": 186, "velocity": 0, "pitch": 41, "instrument": 0, "track": 2, "qtime": 42, "bar": 3, "isDrum": false}, {"time": 186, "velocity": 0, "pitch": 53, "instrument": 0, "track": 2, "qtime": 42, "bar": 3, "isDrum": false}, {"time": 186, "velocity": 0, "pitch": 57, "instrument": 0, "track": 2, "qtime": 42, "bar": 3, "isDrum": false}, {"time": 186, "velocity": 0, "pitch": 62, "instrument": 0, "track": 2, "qtime": 42, "bar": 3, "isDrum": false}, {"time": 186, "velocity": 0, "pitch": 67, "instrument": 0, "track": 2, "qtime": 42, "bar": 3, "isDrum": false}, {"time": 187, "velocity": 0, "pitch": 72, "instrument": 0, "track": 2, "qtime": 43, "bar": 3, "isDrum": false}, {"time": 20, "velocity": 108, "pitch": 62, "instrument": 65, "track": 3, "qtime": 20, "bar": 0, "isDrum": false}, {"time": 24, "velocity": 0, "pitch": 62, "instrument": 65, "track": 3, "qtime": 24, "bar": 0, "isDrum": false}, {"time": 24, "velocity": 108, "pitch": 61, "instrument": 65, "track": 3, "qtime": 24, "bar": 0, "isDrum": false}, {"time": 31, "velocity": 0, "pitch": 61, "instrument": 65, "track": 3, "qtime": 31, "bar": 0, "isDrum": false}, {"time": 32, "velocity": 108, "pitch": 62, "instrument": 65, "track": 3, "qtime": 32, "bar": 0, "isDrum": false}, {"time": 35, "velocity": 0, "pitch": 62, "instrument": 65, "track": 3, "qtime": 35, "bar": 0, "isDrum": false}, {"time": 44, "velocity": 108, "pitch": 72, "instrument": 65, "track": 3, "qtime": 44, "bar": 0, "isDrum": false}, {"time": 83, "velocity": 0, "pitch": 72, "instrument": 65, "track": 3, "qtime": 35, "bar": 1, "isDrum": false}, {"time": 84, "velocity": 108, "pitch": 71, "instrument": 65, "track": 3, "qtime": 36, "bar": 1, "isDrum": false}, {"time": 89, "velocity": 0, "pitch": 71, "instrument": 65, "track": 3, "qtime": 41, "bar": 1, "isDrum": false}, {"time": 96, "velocity": 108, "pitch": 70, "instrument": 65, "track": 3, "qtime": 0, "bar": 2, "isDrum": false}, {"time": 115, "velocity": 0, "pitch": 70, "instrument": 65, "track": 3, "qtime": 19, "bar": 2, "isDrum": false}, {"time": 116, "velocity": 108, "pitch": 67, "instrument": 65, "track": 3, "qtime": 20, "bar": 2, "isDrum": false}, {"time": 131, "velocity": 0, "pitch": 67, "instrument": 65, "track": 3, "qtime": 35, "bar": 2, "isDrum": false}, {"time": 132, "velocity": 108, "pitch": 69, "instrument": 65, "track": 3, "qtime": 36, "bar": 2, "isDrum": false}, {"time": 137, "velocity": 0, "pitch": 69, "instrument": 65, "track": 3, "qtime": 41, "bar": 2, "isDrum": false}, {"time": 144, "velocity": 108, "pitch": 65, "instrument": 65, "track": 3, "qtime": 0, "bar": 3, "isDrum": false}, {"time": 191, "velocity": 0, "pitch": 65, "instrument": 65, "track": 3, "qtime": 47, "bar": 3, "isDrum": false}], "resolution": 12, "tempo": 252, "minPitch": 17, "maxPitch": 87, "validSegments": [0], "validTracks": [15], "segmentLength": 4}, "audio": "https://www.sfu.ca/~jeffe/examples/stem_0.mp3"}, {"src": "gen/stem_0_sparse.json", "highlights": [[], [], [], [0, 1, 2, 3]], "caption": "Resample the piano track in 21a with low density.", "sample_id": "21b", "mixer": [8, 8, 8, 8], "tempo": 252, "json": {"tracks": [{"bars": [{"events": [0, 1, 2, 3, 4, 5, 6, 7, 8, 9, 10, 11, 12, 13, 14, 15, 16, 17, 18, 19, 20, 21, 22, 23, 24], "isFourFour": true, "hasNotes": true, "time": 0}, {"events": [25, 26, 27, 28, 29, 30, 31, 32, 33, 34, 35, 36, 37, 38, 39, 40, 41, 42, 43, 44, 45, 46, 47, 48, 49, 50, 51, 52, 53, 54], "isFourFour": true, "hasNotes": true, "time": 48}, {"events": [55, 56, 57, 58, 59, 60, 61, 62, 63, 64, 65, 66, 67, 68, 69, 70, 71, 72, 73, 74, 75, 76, 77, 78, 79, 80, 81, 82, 83, 84], "isFourFour": true, "hasNotes": true, "time": 96}, {"events": [85, 86, 87, 88, 89, 90, 91, 92, 93, 94, 95, 96, 97, 98, 99, 100, 101, 102, 103, 104, 105, 106, 107, 108, 109, 110, 111, 112, 113, 114, 115, 116, 117, 118, 119], "isFourFour": true, "hasNotes": true, "time": 144}], "isDrum": true, "minPitch": 35, "maxPitch": 57, "instrument": 32, "avPolyphony": 2.21519, "noteDensity": 9, "noteDensityV2": 6}, {"bars": [{"events": [120, 121, 122, 123, 124, 125, 126, 127, 128, 129, 130, 131, 132, 133], "isFourFour": true, "hasNotes": true, "time": 0}, {"events": [134, 135, 136, 137, 138, 139, 140, 141, 142, 143, 144, 145, 146, 147], "isFourFour": true, "hasNotes": true, "time": 48}, {"events": [148, 149, 150, 151, 152, 153, 154, 155, 156, 157, 158, 159, 160, 161], "isFourFour": true, "hasNotes": true, "time": 96}, {"events": [162, 163, 164, 165, 166, 167, 168, 169, 170, 171, 172, 173], "isFourFour": true, "hasNotes": true, "time": 144}], "isDrum": false, "minPitch": 24, "maxPitch": 51, "instrument": 32, "avPolyphony": 1.0118343, "noteDensity": 8, "noteDensityV2": 8}, {"bars": [{"events": [174, 175, 176, 177, 178, 179, 180], "isFourFour": true, "hasNotes": true, "time": 0}, {"events": [181, 182, 183], "isFourFour": true, "hasNotes": true, "time": 48}, {"events": [184, 185, 186, 187, 188, 189], "isFourFour": true, "hasNotes": true, "time": 96}, {"events": [190, 191], "isFourFour": true, "hasNotes": true, "time": 144}], "isDrum": false, "minPitch": 61, "maxPitch": 72, "instrument": 65, "avPolyphony": 1, "noteDensity": 1, "noteDensityV2": 1}, {"bars": [{"events": [192, 193, 194, 195, 196, 197, 198, 199], "isFourFour": true, "hasNotes": true, "time": 0}, {"events": [200, 201, 202, 203], "isFourFour": true, "hasNotes": true, "time": 48}, {"events": [204, 205, 206, 207], "isFourFour": true, "hasNotes": true, "time": 96}, {"events": [208, 209, 210, 211, 212, 213, 214, 215], "isFourFour": true, "hasNotes": true, "time": 144}], "isDrum": false, "minPitch": 65, "maxPitch": 72, "instrument": 0, "avPolyphony": 1.9655173, "noteDensity": 2, "noteDensityV2": 1}], "events": [{"time": 0, "velocity": 108, "pitch": 38, "instrument": 32, "track": 9, "qtime": 0, "isDrum": true}, {"time": 0, "velocity": 108, "pitch": 42, "instrument": 32, "track": 9, "qtime": 0, "isDrum": true}, {"time": 0, "velocity": 108, "pitch": 51, "instrument": 32, "track": 9, "qtime": 0, "isDrum": true}, {"time": 3, "velocity": 0, "pitch": 38, "instrument": 32, "track": 9, "qtime": 3, "isDrum": true}, {"time": 3, "velocity": 0, "pitch": 42, "instrument": 32, "track": 9, "qtime": 3, "isDrum": true}, {"time": 3, "velocity": 0, "pitch": 51, "instrument": 32, "track": 9, "qtime": 3, "isDrum": true}, {"time": 12, "velocity": 108, "pitch": 42, "instrument": 32, "track": 9, "qtime": 12, "isDrum": true}, {"time": 12, "velocity": 108, "pitch": 51, "instrument": 32, "track": 9, "qtime": 12, "isDrum": true}, {"time": 15, "velocity": 0, "pitch": 42, "instrument": 32, "track": 9, "qtime": 15, "isDrum": true}, {"time": 15, "velocity": 0, "pitch": 51, "instrument": 32, "track": 9, "qtime": 15, "isDrum": true}, {"time": 21, "velocity": 108, "pitch": 51, "instrument": 32, "track": 9, "qtime": 21, "isDrum": true}, {"time": 23, "velocity": 0, "pitch": 51, "instrument": 32, "track": 9, "qtime": 23, "isDrum": true}, {"time": 24, "velocity": 108, "pitch": 42, "instrument": 32, "track": 9, "qtime": 24, "isDrum": true}, {"time": 24, "velocity": 108, "pitch": 51, "instrument": 32, "track": 9, "qtime": 24, "isDrum": true}, {"time": 27, "velocity": 0, "pitch": 42, "instrument": 32, "track": 9, "qtime": 27, "isDrum": true}, {"time": 27, "velocity": 0, "pitch": 51, "instrument": 32, "track": 9, "qtime": 27, "isDrum": true}, {"time": 36, "velocity": 108, "pitch": 38, "instrument": 32, "track": 9, "qtime": 36, "isDrum": true}, {"time": 36, "velocity": 108, "pitch": 42, "instrument": 32, "track": 9, "qtime": 36, "isDrum": true}, {"time": 36, "velocity": 108, "pitch": 51, "instrument": 32, "track": 9, "qtime": 36, "isDrum": true}, {"time": 39, "velocity": 0, "pitch": 38, "instrument": 32, "track": 9, "qtime": 39, "isDrum": true}, {"time": 39, "velocity": 0, "pitch": 42, "instrument": 32, "track": 9, "qtime": 39, "isDrum": true}, {"time": 39, "velocity": 0, "pitch": 51, "instrument": 32, "track": 9, "qtime": 39, "isDrum": true}, {"time": 45, "velocity": 108, "pitch": 51, "instrument": 32, "track": 9, "qtime": 45, "isDrum": true}, {"time": 47, "velocity": 0, "pitch": 49, "instrument": 32, "track": 9, "qtime": 47, "isDrum": true}, {"time": 47, "velocity": 0, "pitch": 51, "instrument": 32, "track": 9, "qtime": 47, "isDrum": true}, {"time": 48, "velocity": 108, "pitch": 35, "instrument": 32, "track": 9, "qtime": 0, "isDrum": true}, {"time": 48, "velocity": 108, "pitch": 42, "instrument": 32, "track": 9, "qtime": 0, "isDrum": true}, {"time": 48, "velocity": 108, "pitch": 51, "instrument": 32, "track": 9, "qtime": 0, "isDrum": true}, {"time": 51, "velocity": 0, "pitch": 35, "instrument": 32, "track": 9, "qtime": 3, "isDrum": true}, {"time": 51, "velocity": 0, "pitch": 42, "instrument": 32, "track": 9, "qtime": 3, "isDrum": true}, {"time": 51, "velocity": 0, "pitch": 51, "instrument": 32, "track": 9, "qtime": 3, "isDrum": true}, {"time": 60, "velocity": 108, "pitch": 35, "instrument": 32, "track": 9, "qtime": 12, "isDrum": true}, {"time": 60, "velocity": 108, "pitch": 38, "instrument": 32, "track": 9, "qtime": 12, "isDrum": true}, {"time": 60, "velocity": 108, "pitch": 42, "instrument": 32, "track": 9, "qtime": 12, "isDrum": true}, {"time": 60, "velocity": 108, "pitch": 51, "instrument": 32, "track": 9, "qtime": 12, "isDrum": true}, {"time": 63, "velocity": 0, "pitch": 35, "instrument": 32, "track": 9, "qtime": 15, "isDrum": true}, {"time": 63, "velocity": 0, "pitch": 38, "instrument": 32, "track": 9, "qtime": 15, "isDrum": true}, {"time": 63, "velocity": 0, "pitch": 42, "instrument": 32, "track": 9, "qtime": 15, "isDrum": true}, {"time": 63, "velocity": 0, "pitch": 51, "instrument": 32, "track": 9, "qtime": 15, "isDrum": true}, {"time": 68, "velocity": 108, "pitch": 51, "instrument": 32, "track": 9, "qtime": 20, "isDrum": true}, {"time": 71, "velocity": 0, "pitch": 51, "instrument": 32, "track": 9, "qtime": 23, "isDrum": true}, {"time": 72, "velocity": 108, "pitch": 42, "instrument": 32, "track": 9, "qtime": 24, "isDrum": true}, {"time": 72, "velocity": 108, "pitch": 51, "instrument": 32, "track": 9, "qtime": 24, "isDrum": true}, {"time": 75, "velocity": 0, "pitch": 42, "instrument": 32, "track": 9, "qtime": 27, "isDrum": true}, {"time": 75, "velocity": 0, "pitch": 51, "instrument": 32, "track": 9, "qtime": 27, "isDrum": true}, {"time": 84, "velocity": 108, "pitch": 35, "instrument": 32, "track": 9, "qtime": 36, "isDrum": true}, {"time": 84, "velocity": 108, "pitch": 38, "instrument": 32, "track": 9, "qtime": 36, "isDrum": true}, {"time": 84, "velocity": 108, "pitch": 42, "instrument": 32, "track": 9, "qtime": 36, "isDrum": true}, {"time": 84, "velocity": 108, "pitch": 51, "instrument": 32, "track": 9, "qtime": 36, "isDrum": true}, {"time": 87, "velocity": 0, "pitch": 35, "instrument": 32, "track": 9, "qtime": 39, "isDrum": true}, {"time": 87, "velocity": 0, "pitch": 38, "instrument": 32, "track": 9, "qtime": 39, "isDrum": true}, {"time": 87, "velocity": 0, "pitch": 42, "instrument": 32, "track": 9, "qtime": 39, "isDrum": true}, {"time": 87, "velocity": 0, "pitch": 51, "instrument": 32, "track": 9, "qtime": 39, "isDrum": true}, {"time": 92, "velocity": 108, "pitch": 51, "instrument": 32, "track": 9, "qtime": 44, "isDrum": true}, {"time": 95, "velocity": 0, "pitch": 51, "instrument": 32, "track": 9, "qtime": 47, "isDrum": true}, {"time": 96, "velocity": 108, "pitch": 38, "instrument": 32, "track": 9, "qtime": 0, "isDrum": true}, {"time": 96, "velocity": 108, "pitch": 42, "instrument": 32, "track": 9, "qtime": 0, "isDrum": true}, {"time": 96, "velocity": 108, "pitch": 51, "instrument": 32, "track": 9, "qtime": 0, "isDrum": true}, {"time": 99, "velocity": 0, "pitch": 38, "instrument": 32, "track": 9, "qtime": 3, "isDrum": true}, {"time": 99, "velocity": 0, "pitch": 42, "instrument": 32, "track": 9, "qtime": 3, "isDrum": true}, {"time": 99, "velocity": 0, "pitch": 51, "instrument": 32, "track": 9, "qtime": 3, "isDrum": true}, {"time": 104, "velocity": 108, "pitch": 35, "instrument": 32, "track": 9, "qtime": 8, "isDrum": true}, {"time": 104, "velocity": 108, "pitch": 51, "instrument": 32, "track": 9, "qtime": 8, "isDrum": true}, {"time": 107, "velocity": 0, "pitch": 35, "instrument": 32, "track": 9, "qtime": 11, "isDrum": true}, {"time": 107, "velocity": 0, "pitch": 51, "instrument": 32, "track": 9, "qtime": 11, "isDrum": true}, {"time": 108, "velocity": 108, "pitch": 35, "instrument": 32, "track": 9, "qtime": 12, "isDrum": true}, {"time": 108, "velocity": 108, "pitch": 42, "instrument": 32, "track": 9, "qtime": 12, "isDrum": true}, {"time": 108, "velocity": 108, "pitch": 51, "instrument": 32, "track": 9, "qtime": 12, "isDrum": true}, {"time": 111, "velocity": 0, "pitch": 35, "instrument": 32, "track": 9, "qtime": 15, "isDrum": true}, {"time": 111, "velocity": 0, "pitch": 42, "instrument": 32, "track": 9, "qtime": 15, "isDrum": true}, {"time": 111, "velocity": 0, "pitch": 51, "instrument": 32, "track": 9, "qtime": 15, "isDrum": true}, {"time": 116, "velocity": 108, "pitch": 38, "instrument": 32, "track": 9, "qtime": 20, "isDrum": true}, {"time": 119, "velocity": 0, "pitch": 38, "instrument": 32, "track": 9, "qtime": 23, "isDrum": true}, {"time": 120, "velocity": 108, "pitch": 42, "instrument": 32, "track": 9, "qtime": 24, "isDrum": true}, {"time": 120, "velocity": 108, "pitch": 51, "instrument": 32, "track": 9, "qtime": 24, "isDrum": true}, {"time": 123, "velocity": 0, "pitch": 42, "instrument": 32, "track": 9, "qtime": 27, "isDrum": true}, {"time": 123, "velocity": 0, "pitch": 51, "instrument": 32, "track": 9, "qtime": 27, "isDrum": true}, {"time": 132, "velocity": 108, "pitch": 38, "instrument": 32, "track": 9, "qtime": 36, "isDrum": true}, {"time": 132, "velocity": 108, "pitch": 42, "instrument": 32, "track": 9, "qtime": 36, "isDrum": true}, {"time": 132, "velocity": 108, "pitch": 51, "instrument": 32, "track": 9, "qtime": 36, "isDrum": true}, {"time": 135, "velocity": 0, "pitch": 38, "instrument": 32, "track": 9, "qtime": 39, "isDrum": true}, {"time": 135, "velocity": 0, "pitch": 42, "instrument": 32, "track": 9, "qtime": 39, "isDrum": true}, {"time": 135, "velocity": 0, "pitch": 51, "instrument": 32, "track": 9, "qtime": 39, "isDrum": true}, {"time": 140, "velocity": 108, "pitch": 51, "instrument": 32, "track": 9, "qtime": 44, "isDrum": true}, {"time": 143, "velocity": 0, "pitch": 51, "instrument": 32, "track": 9, "qtime": 47, "isDrum": true}, {"time": 144, "velocity": 108, "pitch": 42, "instrument": 32, "track": 9, "qtime": 0, "isDrum": true}, {"time": 144, "velocity": 108, "pitch": 51, "instrument": 32, "track": 9, "qtime": 0, "isDrum": true}, {"time": 147, "velocity": 0, "pitch": 42, "instrument": 32, "track": 9, "qtime": 3, "isDrum": true}, {"time": 147, "velocity": 0, "pitch": 51, "instrument": 32, "track": 9, "qtime": 3, "isDrum": true}, {"time": 152, "velocity": 108, "pitch": 38, "instrument": 32, "track": 9, "qtime": 8, "isDrum": true}, {"time": 155, "velocity": 0, "pitch": 38, "instrument": 32, "track": 9, "qtime": 11, "isDrum": true}, {"time": 156, "velocity": 108, "pitch": 42, "instrument": 32, "track": 9, "qtime": 12, "isDrum": true}, {"time": 156, "velocity": 108, "pitch": 51, "instrument": 32, "track": 9, "qtime": 12, "isDrum": true}, {"time": 159, "velocity": 0, "pitch": 42, "instrument": 32, "track": 9, "qtime": 15, "isDrum": true}, {"time": 159, "velocity": 0, "pitch": 51, "instrument": 32, "track": 9, "qtime": 15, "isDrum": true}, {"time": 164, "velocity": 108, "pitch": 38, "instrument": 32, "track": 9, "qtime": 20, "isDrum": true}, {"time": 164, "velocity": 108, "pitch": 51, "instrument": 32, "track": 9, "qtime": 20, "isDrum": true}, {"time": 167, "velocity": 0, "pitch": 38, "instrument": 32, "track": 9, "qtime": 23, "isDrum": true}, {"time": 167, "velocity": 0, "pitch": 51, "instrument": 32, "track": 9, "qtime": 23, "isDrum": true}, {"time": 168, "velocity": 108, "pitch": 35, "instrument": 32, "track": 9, "qtime": 24, "isDrum": true}, {"time": 168, "velocity": 108, "pitch": 38, "instrument": 32, "track": 9, "qtime": 24, "isDrum": true}, {"time": 168, "velocity": 108, "pitch": 42, "instrument": 32, "track": 9, "qtime": 24, "isDrum": true}, {"time": 168, "velocity": 108, "pitch": 51, "instrument": 32, "track": 9, "qtime": 24, "isDrum": true}, {"time": 171, "velocity": 0, "pitch": 35, "instrument": 32, "track": 9, "qtime": 27, "isDrum": true}, {"time": 171, "velocity": 0, "pitch": 38, "instrument": 32, "track": 9, "qtime": 27, "isDrum": true}, {"time": 171, "velocity": 0, "pitch": 42, "instrument": 32, "track": 9, "qtime": 27, "isDrum": true}, {"time": 171, "velocity": 0, "pitch": 51, "instrument": 32, "track": 9, "qtime": 27, "isDrum": true}, {"time": 176, "velocity": 108, "pitch": 38, "instrument": 32, "track": 9, "qtime": 32, "isDrum": true}, {"time": 179, "velocity": 0, "pitch": 38, "instrument": 32, "track": 9, "qtime": 35, "isDrum": true}, {"time": 180, "velocity": 108, "pitch": 42, "instrument": 32, "track": 9, "qtime": 36, "isDrum": true}, {"time": 180, "velocity": 108, "pitch": 51, "instrument": 32, "track": 9, "qtime": 36, "isDrum": true}, {"time": 183, "velocity": 0, "pitch": 42, "instrument": 32, "track": 9, "qtime": 39, "isDrum": true}, {"time": 183, "velocity": 0, "pitch": 51, "instrument": 32, "track": 9, "qtime": 39, "isDrum": true}, {"time": 188, "velocity": 108, "pitch": 35, "instrument": 32, "track": 9, "qtime": 44, "isDrum": true}, {"time": 188, "velocity": 108, "pitch": 38, "instrument": 32, "track": 9, "qtime": 44, "isDrum": true}, {"time": 188, "velocity": 108, "pitch": 51, "instrument": 32, "track": 9, "qtime": 44, "isDrum": true}, {"time": 188, "velocity": 108, "pitch": 57, "instrument": 32, "track": 9, "qtime": 44, "isDrum": true}, {"time": 191, "velocity": 0, "pitch": 35, "instrument": 32, "track": 9, "qtime": 47, "isDrum": true}, {"time": 191, "velocity": 0, "pitch": 38, "instrument": 32, "track": 9, "qtime": 47, "isDrum": true}, {"time": 191, "velocity": 0, "pitch": 51, "instrument": 32, "track": 9, "qtime": 47, "isDrum": true}, {"time": 0, "velocity": 108, "pitch": 44, "instrument": 32, "track": 1, "qtime": 0, "isDrum": false}, {"time": 8, "velocity": 108, "pitch": 32, "instrument": 32, "track": 1, "qtime": 8, "isDrum": false}, {"time": 10, "velocity": 0, "pitch": 32, "instrument": 32, "track": 1, "qtime": 10, "isDrum": false}, {"time": 10, "velocity": 0, "pitch": 44, "instrument": 32, "track": 1, "qtime": 10, "isDrum": false}, {"time": 12, "velocity": 108, "pitch": 51, "instrument": 32, "track": 1, "qtime": 12, "isDrum": false}, {"time": 24, "velocity": 0, "pitch": 51, "instrument": 32, "track": 1, "qtime": 24, "isDrum": false}, {"time": 24, "velocity": 108, "pitch": 48, "instrument": 32, "track": 1, "qtime": 24, "isDrum": false}, {"time": 32, "velocity": 0, "pitch": 48, "instrument": 32, "track": 1, "qtime": 32, "isDrum": false}, {"time": 32, "velocity": 108, "pitch": 32, "instrument": 32, "track": 1, "qtime": 32, "isDrum": false}, {"time": 34, "velocity": 0, "pitch": 32, "instrument": 32, "track": 1, "qtime": 34, "isDrum": false}, {"time": 36, "velocity": 108, "pitch": 44, "instrument": 32, "track": 1, "qtime": 36, "isDrum": false}, {"time": 44, "velocity": 0, "pitch": 44, "instrument": 32, "track": 1, "qtime": 44, "isDrum": false}, {"time": 44, "velocity": 108, "pitch": 32, "instrument": 32, "track": 1, "qtime": 44, "isDrum": false}, {"time": 45, "velocity": 0, "pitch": 32, "instrument": 32, "track": 1, "qtime": 45, "isDrum": false}, {"time": 48, "velocity": 108, "pitch": 43, "instrument": 32, "track": 1, "qtime": 0, "isDrum": false}, {"time": 56, "velocity": 0, "pitch": 43, "instrument": 32, "track": 1, "qtime": 8, "isDrum": false}, {"time": 56, "velocity": 108, "pitch": 31, "instrument": 32, "track": 1, "qtime": 8, "isDrum": false}, {"time": 57, "velocity": 0, "pitch": 31, "instrument": 32, "track": 1, "qtime": 9, "isDrum": false}, {"time": 60, "velocity": 108, "pitch": 38, "instrument": 32, "track": 1, "qtime": 12, "isDrum": false}, {"time": 72, "velocity": 0, "pitch": 38, "instrument": 32, "track": 1, "qtime": 24, "isDrum": false}, {"time": 72, "velocity": 108, "pitch": 43, "instrument": 32, "track": 1, "qtime": 24, "isDrum": false}, {"time": 80, "velocity": 0, "pitch": 43, "instrument": 32, "track": 1, "qtime": 32, "isDrum": false}, {"time": 80, "velocity": 108, "pitch": 43, "instrument": 32, "track": 1, "qtime": 32, "isDrum": false}, {"time": 84, "velocity": 0, "pitch": 43, "instrument": 32, "track": 1, "qtime": 36, "isDrum": false}, {"time": 84, "velocity": 108, "pitch": 37, "instrument": 32, "track": 1, "qtime": 36, "isDrum": false}, {"time": 92, "velocity": 0, "pitch": 37, "instrument": 32, "track": 1, "qtime": 44, "isDrum": false}, {"time": 92, "velocity": 108, "pitch": 25, "instrument": 32, "track": 1, "qtime": 44, "isDrum": false}, {"time": 93, "velocity": 0, "pitch": 25, "instrument": 32, "track": 1, "qtime": 45, "isDrum": false}, {"time": 96, "velocity": 108, "pitch": 36, "instrument": 32, "track": 1, "qtime": 0, "isDrum": false}, {"time": 108, "velocity": 0, "pitch": 36, "instrument": 32, "track": 1, "qtime": 12, "isDrum": false}, {"time": 108, "velocity": 108, "pitch": 50, "instrument": 32, "track": 1, "qtime": 12, "isDrum": false}, {"time": 116, "velocity": 0, "pitch": 50, "instrument": 32, "track": 1, "qtime": 20, "isDrum": false}, {"time": 116, "velocity": 108, "pitch": 24, "instrument": 32, "track": 1, "qtime": 20, "isDrum": false}, {"time": 118, "velocity": 0, "pitch": 24, "instrument": 32, "track": 1, "qtime": 22, "isDrum": false}, {"time": 120, "velocity": 108, "pitch": 36, "instrument": 32, "track": 1, "qtime": 24, "isDrum": false}, {"time": 128, "velocity": 0, "pitch": 36, "instrument": 32, "track": 1, "qtime": 32, "isDrum": false}, {"time": 128, "velocity": 108, "pitch": 36, "instrument": 32, "track": 1, "qtime": 32, "isDrum": false}, {"time": 132, "velocity": 0, "pitch": 36, "instrument": 32, "track": 1, "qtime": 36, "isDrum": false}, {"time": 132, "velocity": 108, "pitch": 36, "instrument": 32, "track": 1, "qtime": 36, "isDrum": false}, {"time": 140, "velocity": 0, "pitch": 36, "instrument": 32, "track": 1, "qtime": 44, "isDrum": false}, {"time": 140, "velocity": 108, "pitch": 24, "instrument": 32, "track": 1, "qtime": 44, "isDrum": false}, {"time": 141, "velocity": 0, "pitch": 24, "instrument": 32, "track": 1, "qtime": 45, "isDrum": false}, {"time": 144, "velocity": 108, "pitch": 41, "instrument": 32, "track": 1, "qtime": 0, "isDrum": false}, {"time": 152, "velocity": 0, "pitch": 41, "instrument": 32, "track": 1, "qtime": 8, "isDrum": false}, {"time": 152, "velocity": 108, "pitch": 29, "instrument": 32, "track": 1, "qtime": 8, "isDrum": false}, {"time": 154, "velocity": 0, "pitch": 29, "instrument": 32, "track": 1, "qtime": 10, "isDrum": false}, {"time": 156, "velocity": 108, "pitch": 33, "instrument": 32, "track": 1, "qtime": 12, "isDrum": false}, {"time": 168, "velocity": 0, "pitch": 33, "instrument": 32, "track": 1, "qtime": 24, "isDrum": false}, {"time": 168, "velocity": 108, "pitch": 36, "instrument": 32, "track": 1, "qtime": 24, "isDrum": false}, {"time": 180, "velocity": 0, "pitch": 36, "instrument": 32, "track": 1, "qtime": 36, "isDrum": false}, {"time": 180, "velocity": 108, "pitch": 41, "instrument": 32, "track": 1, "qtime": 36, "isDrum": false}, {"time": 188, "velocity": 0, "pitch": 41, "instrument": 32, "track": 1, "qtime": 44, "isDrum": false}, {"time": 188, "velocity": 108, "pitch": 29, "instrument": 32, "track": 1, "qtime": 44, "isDrum": false}, {"time": 189, "velocity": 0, "pitch": 29, "instrument": 32, "track": 1, "qtime": 45, "isDrum": false}, {"time": 20, "velocity": 108, "pitch": 62, "instrument": 65, "track": 2, "qtime": 20, "isDrum": false}, {"time": 24, "velocity": 0, "pitch": 62, "instrument": 65, "track": 2, "qtime": 24, "isDrum": false}, {"time": 24, "velocity": 108, "pitch": 61, "instrument": 65, "track": 2, "qtime": 24, "isDrum": false}, {"time": 31, "velocity": 0, "pitch": 61, "instrument": 65, "track": 2, "qtime": 31, "isDrum": false}, {"time": 32, "velocity": 108, "pitch": 62, "instrument": 65, "track": 2, "qtime": 32, "isDrum": false}, {"time": 35, "velocity": 0, "pitch": 62, "instrument": 65, "track": 2, "qtime": 35, "isDrum": false}, {"time": 44, "velocity": 108, "pitch": 72, "instrument": 65, "track": 2, "qtime": 44, "isDrum": false}, {"time": 83, "velocity": 0, "pitch": 72, "instrument": 65, "track": 2, "qtime": 35, "isDrum": false}, {"time": 84, "velocity": 108, "pitch": 71, "instrument": 65, "track": 2, "qtime": 36, "isDrum": false}, {"time": 89, "velocity": 0, "pitch": 71, "instrument": 65, "track": 2, "qtime": 41, "isDrum": false}, {"time": 96, "velocity": 108, "pitch": 70, "instrument": 65, "track": 2, "qtime": 0, "isDrum": false}, {"time": 115, "velocity": 0, "pitch": 70, "instrument": 65, "track": 2, "qtime": 19, "isDrum": false}, {"time": 116, "velocity": 108, "pitch": 67, "instrument": 65, "track": 2, "qtime": 20, "isDrum": false}, {"time": 131, "velocity": 0, "pitch": 67, "instrument": 65, "track": 2, "qtime": 35, "isDrum": false}, {"time": 132, "velocity": 108, "pitch": 69, "instrument": 65, "track": 2, "qtime": 36, "isDrum": false}, {"time": 137, "velocity": 0, "pitch": 69, "instrument": 65, "track": 2, "qtime": 41, "isDrum": false}, {"time": 144, "velocity": 108, "pitch": 65, "instrument": 65, "track": 2, "qtime": 0, "isDrum": false}, {"time": 191, "velocity": 0, "pitch": 65, "instrument": 65, "track": 2, "qtime": 47, "isDrum": false}, {"time": 20, "velocity": 108, "pitch": 67, "instrument": 0, "track": 3, "qtime": 20, "isDrum": false}, {"time": 20, "velocity": 108, "pitch": 72, "instrument": 0, "track": 3, "qtime": 20, "isDrum": false}, {"time": 35, "velocity": 0, "pitch": 72, "instrument": 0, "track": 3, "qtime": 35, "isDrum": false}, {"time": 36, "velocity": 0, "pitch": 67, "instrument": 0, "track": 3, "qtime": 36, "isDrum": false}, {"time": 36, "velocity": 108, "pitch": 67, "instrument": 0, "track": 3, "qtime": 36, "isDrum": false}, {"time": 36, "velocity": 108, "pitch": 70, "instrument": 0, "track": 3, "qtime": 36, "isDrum": false}, {"time": 41, "velocity": 0, "pitch": 67, "instrument": 0, "track": 3, "qtime": 41, "isDrum": false}, {"time": 41, "velocity": 0, "pitch": 70, "instrument": 0, "track": 3, "qtime": 41, "isDrum": false}, {"time": 72, "velocity": 108, "pitch": 65, "instrument": 0, "track": 3, "qtime": 24, "isDrum": false}, {"time": 72, "velocity": 108, "pitch": 69, "instrument": 0, "track": 3, "qtime": 24, "isDrum": false}, {"time": 75, "velocity": 0, "pitch": 65, "instrument": 0, "track": 3, "qtime": 27, "isDrum": false}, {"time": 75, "velocity": 0, "pitch": 69, "instrument": 0, "track": 3, "qtime": 27, "isDrum": false}, {"time": 120, "velocity": 108, "pitch": 67, "instrument": 0, "track": 3, "qtime": 24, "isDrum": false}, {"time": 120, "velocity": 108, "pitch": 70, "instrument": 0, "track": 3, "qtime": 24, "isDrum": false}, {"time": 141, "velocity": 0, "pitch": 67, "instrument": 0, "track": 3, "qtime": 45, "isDrum": false}, {"time": 142, "velocity": 0, "pitch": 70, "instrument": 0, "track": 3, "qtime": 46, "isDrum": false}, {"time": 144, "velocity": 108, "pitch": 65, "instrument": 0, "track": 3, "qtime": 0, "isDrum": false}, {"time": 144, "velocity": 108, "pitch": 69, "instrument": 0, "track": 3, "qtime": 0, "isDrum": false}, {"time": 179, "velocity": 0, "pitch": 65, "instrument": 0, "track": 3, "qtime": 35, "isDrum": false}, {"time": 180, "velocity": 0, "pitch": 69, "instrument": 0, "track": 3, "qtime": 36, "isDrum": false}, {"time": 180, "velocity": 108, "pitch": 65, "instrument": 0, "track": 3, "qtime": 36, "isDrum": false}, {"time": 180, "velocity": 108, "pitch": 69, "instrument": 0, "track": 3, "qtime": 36, "isDrum": false}, {"time": 185, "velocity": 0, "pitch": 65, "instrument": 0, "track": 3, "qtime": 41, "isDrum": false}, {"time": 185, "velocity": 0, "pitch": 69, "instrument": 0, "track": 3, "qtime": 41, "isDrum": false}], "resolution": 12, "tempo": 252, "minPitch": 24, "maxPitch": 72, "validSegments": [0], "validTracks": [15]}, "audio": "https://www.sfu.ca/~jeffe/examples/stem_0_sparse.mp3"}, {"src": "gen/stem_0_medium_low.json", "highlights": [[], [], [], [0, 1, 2, 3]], "caption": "Resample the piano track in 21a with medium-low density.", "sample_id": "21c", "mixer": [8, 8, 8, 8], "tempo": 252, "json": {"tracks": [{"bars": [{"events": [0, 1, 2, 3, 4, 5, 6, 7, 8, 9, 10, 11, 12, 13, 14, 15, 16, 17, 18, 19, 20, 21, 22, 23, 24], "isFourFour": true, "hasNotes": true, "time": 0}, {"events": [25, 26, 27, 28, 29, 30, 31, 32, 33, 34, 35, 36, 37, 38, 39, 40, 41, 42, 43, 44, 45, 46, 47, 48, 49, 50, 51, 52, 53, 54], "isFourFour": true, "hasNotes": true, "time": 48}, {"events": [55, 56, 57, 58, 59, 60, 61, 62, 63, 64, 65, 66, 67, 68, 69, 70, 71, 72, 73, 74, 75, 76, 77, 78, 79, 80, 81, 82, 83, 84], "isFourFour": true, "hasNotes": true, "time": 96}, {"events": [85, 86, 87, 88, 89, 90, 91, 92, 93, 94, 95, 96, 97, 98, 99, 100, 101, 102, 103, 104, 105, 106, 107, 108, 109, 110, 111, 112, 113, 114, 115, 116, 117, 118, 119], "isFourFour": true, "hasNotes": true, "time": 144}], "isDrum": true, "minPitch": 35, "maxPitch": 57, "instrument": 32, "avPolyphony": 2.21519, "noteDensity": 9, "noteDensityV2": 6}, {"bars": [{"events": [120, 121, 122, 123, 124, 125, 126, 127, 128, 129, 130, 131, 132, 133], "isFourFour": true, "hasNotes": true, "time": 0}, {"events": [134, 135, 136, 137, 138, 139, 140, 141, 142, 143, 144, 145, 146, 147], "isFourFour": true, "hasNotes": true, "time": 48}, {"events": [148, 149, 150, 151, 152, 153, 154, 155, 156, 157, 158, 159, 160, 161], "isFourFour": true, "hasNotes": true, "time": 96}, {"events": [162, 163, 164, 165, 166, 167, 168, 169, 170, 171, 172, 173], "isFourFour": true, "hasNotes": true, "time": 144}], "isDrum": false, "minPitch": 24, "maxPitch": 51, "instrument": 32, "avPolyphony": 1.0118343, "noteDensity": 8, "noteDensityV2": 8}, {"bars": [{"events": [174, 175, 176, 177, 178, 179, 180], "isFourFour": true, "hasNotes": true, "time": 0}, {"events": [181, 182, 183], "isFourFour": true, "hasNotes": true, "time": 48}, {"events": [184, 185, 186, 187, 188, 189], "isFourFour": true, "hasNotes": true, "time": 96}, {"events": [190, 191], "isFourFour": true, "hasNotes": true, "time": 144}], "isDrum": false, "minPitch": 61, "maxPitch": 72, "instrument": 65, "avPolyphony": 1, "noteDensity": 1, "noteDensityV2": 1}, {"bars": [{"events": [192, 193, 194, 195, 196, 197, 198, 199], "isFourFour": true, "hasNotes": true, "time": 0}, {"events": [200, 201, 202, 203, 204, 205, 206, 207, 208, 209, 210, 211, 212, 213, 214, 215], "isFourFour": true, "hasNotes": true, "time": 48}, {"events": [216, 217, 218, 219, 220, 221, 222, 223, 224, 225, 226, 227, 228, 229, 230, 231], "isFourFour": true, "hasNotes": true, "time": 96}, {"events": [232, 233, 234, 235, 236, 237, 238, 239], "isFourFour": true, "hasNotes": true, "time": 144}], "isDrum": false, "minPitch": 57, "maxPitch": 74, "instrument": 0, "avPolyphony": 4, "noteDensity": 7, "noteDensityV2": 4}], "events": [{"time": 0, "velocity": 108, "pitch": 38, "instrument": 32, "track": 9, "qtime": 0, "isDrum": true}, {"time": 0, "velocity": 108, "pitch": 42, "instrument": 32, "track": 9, "qtime": 0, "isDrum": true}, {"time": 0, "velocity": 108, "pitch": 51, "instrument": 32, "track": 9, "qtime": 0, "isDrum": true}, {"time": 3, "velocity": 0, "pitch": 38, "instrument": 32, "track": 9, "qtime": 3, "isDrum": true}, {"time": 3, "velocity": 0, "pitch": 42, "instrument": 32, "track": 9, "qtime": 3, "isDrum": true}, {"time": 3, "velocity": 0, "pitch": 51, "instrument": 32, "track": 9, "qtime": 3, "isDrum": true}, {"time": 12, "velocity": 108, "pitch": 42, "instrument": 32, "track": 9, "qtime": 12, "isDrum": true}, {"time": 12, "velocity": 108, "pitch": 51, "instrument": 32, "track": 9, "qtime": 12, "isDrum": true}, {"time": 15, "velocity": 0, "pitch": 42, "instrument": 32, "track": 9, "qtime": 15, "isDrum": true}, {"time": 15, "velocity": 0, "pitch": 51, "instrument": 32, "track": 9, "qtime": 15, "isDrum": true}, {"time": 21, "velocity": 108, "pitch": 51, "instrument": 32, "track": 9, "qtime": 21, "isDrum": true}, {"time": 23, "velocity": 0, "pitch": 51, "instrument": 32, "track": 9, "qtime": 23, "isDrum": true}, {"time": 24, "velocity": 108, "pitch": 42, "instrument": 32, "track": 9, "qtime": 24, "isDrum": true}, {"time": 24, "velocity": 108, "pitch": 51, "instrument": 32, "track": 9, "qtime": 24, "isDrum": true}, {"time": 27, "velocity": 0, "pitch": 42, "instrument": 32, "track": 9, "qtime": 27, "isDrum": true}, {"time": 27, "velocity": 0, "pitch": 51, "instrument": 32, "track": 9, "qtime": 27, "isDrum": true}, {"time": 36, "velocity": 108, "pitch": 38, "instrument": 32, "track": 9, "qtime": 36, "isDrum": true}, {"time": 36, "velocity": 108, "pitch": 42, "instrument": 32, "track": 9, "qtime": 36, "isDrum": true}, {"time": 36, "velocity": 108, "pitch": 51, "instrument": 32, "track": 9, "qtime": 36, "isDrum": true}, {"time": 39, "velocity": 0, "pitch": 38, "instrument": 32, "track": 9, "qtime": 39, "isDrum": true}, {"time": 39, "velocity": 0, "pitch": 42, "instrument": 32, "track": 9, "qtime": 39, "isDrum": true}, {"time": 39, "velocity": 0, "pitch": 51, "instrument": 32, "track": 9, "qtime": 39, "isDrum": true}, {"time": 45, "velocity": 108, "pitch": 51, "instrument": 32, "track": 9, "qtime": 45, "isDrum": true}, {"time": 47, "velocity": 0, "pitch": 49, "instrument": 32, "track": 9, "qtime": 47, "isDrum": true}, {"time": 47, "velocity": 0, "pitch": 51, "instrument": 32, "track": 9, "qtime": 47, "isDrum": true}, {"time": 48, "velocity": 108, "pitch": 35, "instrument": 32, "track": 9, "qtime": 0, "isDrum": true}, {"time": 48, "velocity": 108, "pitch": 42, "instrument": 32, "track": 9, "qtime": 0, "isDrum": true}, {"time": 48, "velocity": 108, "pitch": 51, "instrument": 32, "track": 9, "qtime": 0, "isDrum": true}, {"time": 51, "velocity": 0, "pitch": 35, "instrument": 32, "track": 9, "qtime": 3, "isDrum": true}, {"time": 51, "velocity": 0, "pitch": 42, "instrument": 32, "track": 9, "qtime": 3, "isDrum": true}, {"time": 51, "velocity": 0, "pitch": 51, "instrument": 32, "track": 9, "qtime": 3, "isDrum": true}, {"time": 60, "velocity": 108, "pitch": 35, "instrument": 32, "track": 9, "qtime": 12, "isDrum": true}, {"time": 60, "velocity": 108, "pitch": 38, "instrument": 32, "track": 9, "qtime": 12, "isDrum": true}, {"time": 60, "velocity": 108, "pitch": 42, "instrument": 32, "track": 9, "qtime": 12, "isDrum": true}, {"time": 60, "velocity": 108, "pitch": 51, "instrument": 32, "track": 9, "qtime": 12, "isDrum": true}, {"time": 63, "velocity": 0, "pitch": 35, "instrument": 32, "track": 9, "qtime": 15, "isDrum": true}, {"time": 63, "velocity": 0, "pitch": 38, "instrument": 32, "track": 9, "qtime": 15, "isDrum": true}, {"time": 63, "velocity": 0, "pitch": 42, "instrument": 32, "track": 9, "qtime": 15, "isDrum": true}, {"time": 63, "velocity": 0, "pitch": 51, "instrument": 32, "track": 9, "qtime": 15, "isDrum": true}, {"time": 68, "velocity": 108, "pitch": 51, "instrument": 32, "track": 9, "qtime": 20, "isDrum": true}, {"time": 71, "velocity": 0, "pitch": 51, "instrument": 32, "track": 9, "qtime": 23, "isDrum": true}, {"time": 72, "velocity": 108, "pitch": 42, "instrument": 32, "track": 9, "qtime": 24, "isDrum": true}, {"time": 72, "velocity": 108, "pitch": 51, "instrument": 32, "track": 9, "qtime": 24, "isDrum": true}, {"time": 75, "velocity": 0, "pitch": 42, "instrument": 32, "track": 9, "qtime": 27, "isDrum": true}, {"time": 75, "velocity": 0, "pitch": 51, "instrument": 32, "track": 9, "qtime": 27, "isDrum": true}, {"time": 84, "velocity": 108, "pitch": 35, "instrument": 32, "track": 9, "qtime": 36, "isDrum": true}, {"time": 84, "velocity": 108, "pitch": 38, "instrument": 32, "track": 9, "qtime": 36, "isDrum": true}, {"time": 84, "velocity": 108, "pitch": 42, "instrument": 32, "track": 9, "qtime": 36, "isDrum": true}, {"time": 84, "velocity": 108, "pitch": 51, "instrument": 32, "track": 9, "qtime": 36, "isDrum": true}, {"time": 87, "velocity": 0, "pitch": 35, "instrument": 32, "track": 9, "qtime": 39, "isDrum": true}, {"time": 87, "velocity": 0, "pitch": 38, "instrument": 32, "track": 9, "qtime": 39, "isDrum": true}, {"time": 87, "velocity": 0, "pitch": 42, "instrument": 32, "track": 9, "qtime": 39, "isDrum": true}, {"time": 87, "velocity": 0, "pitch": 51, "instrument": 32, "track": 9, "qtime": 39, "isDrum": true}, {"time": 92, "velocity": 108, "pitch": 51, "instrument": 32, "track": 9, "qtime": 44, "isDrum": true}, {"time": 95, "velocity": 0, "pitch": 51, "instrument": 32, "track": 9, "qtime": 47, "isDrum": true}, {"time": 96, "velocity": 108, "pitch": 38, "instrument": 32, "track": 9, "qtime": 0, "isDrum": true}, {"time": 96, "velocity": 108, "pitch": 42, "instrument": 32, "track": 9, "qtime": 0, "isDrum": true}, {"time": 96, "velocity": 108, "pitch": 51, "instrument": 32, "track": 9, "qtime": 0, "isDrum": true}, {"time": 99, "velocity": 0, "pitch": 38, "instrument": 32, "track": 9, "qtime": 3, "isDrum": true}, {"time": 99, "velocity": 0, "pitch": 42, "instrument": 32, "track": 9, "qtime": 3, "isDrum": true}, {"time": 99, "velocity": 0, "pitch": 51, "instrument": 32, "track": 9, "qtime": 3, "isDrum": true}, {"time": 104, "velocity": 108, "pitch": 35, "instrument": 32, "track": 9, "qtime": 8, "isDrum": true}, {"time": 104, "velocity": 108, "pitch": 51, "instrument": 32, "track": 9, "qtime": 8, "isDrum": true}, {"time": 107, "velocity": 0, "pitch": 35, "instrument": 32, "track": 9, "qtime": 11, "isDrum": true}, {"time": 107, "velocity": 0, "pitch": 51, "instrument": 32, "track": 9, "qtime": 11, "isDrum": true}, {"time": 108, "velocity": 108, "pitch": 35, "instrument": 32, "track": 9, "qtime": 12, "isDrum": true}, {"time": 108, "velocity": 108, "pitch": 42, "instrument": 32, "track": 9, "qtime": 12, "isDrum": true}, {"time": 108, "velocity": 108, "pitch": 51, "instrument": 32, "track": 9, "qtime": 12, "isDrum": true}, {"time": 111, "velocity": 0, "pitch": 35, "instrument": 32, "track": 9, "qtime": 15, "isDrum": true}, {"time": 111, "velocity": 0, "pitch": 42, "instrument": 32, "track": 9, "qtime": 15, "isDrum": true}, {"time": 111, "velocity": 0, "pitch": 51, "instrument": 32, "track": 9, "qtime": 15, "isDrum": true}, {"time": 116, "velocity": 108, "pitch": 38, "instrument": 32, "track": 9, "qtime": 20, "isDrum": true}, {"time": 119, "velocity": 0, "pitch": 38, "instrument": 32, "track": 9, "qtime": 23, "isDrum": true}, {"time": 120, "velocity": 108, "pitch": 42, "instrument": 32, "track": 9, "qtime": 24, "isDrum": true}, {"time": 120, "velocity": 108, "pitch": 51, "instrument": 32, "track": 9, "qtime": 24, "isDrum": true}, {"time": 123, "velocity": 0, "pitch": 42, "instrument": 32, "track": 9, "qtime": 27, "isDrum": true}, {"time": 123, "velocity": 0, "pitch": 51, "instrument": 32, "track": 9, "qtime": 27, "isDrum": true}, {"time": 132, "velocity": 108, "pitch": 38, "instrument": 32, "track": 9, "qtime": 36, "isDrum": true}, {"time": 132, "velocity": 108, "pitch": 42, "instrument": 32, "track": 9, "qtime": 36, "isDrum": true}, {"time": 132, "velocity": 108, "pitch": 51, "instrument": 32, "track": 9, "qtime": 36, "isDrum": true}, {"time": 135, "velocity": 0, "pitch": 38, "instrument": 32, "track": 9, "qtime": 39, "isDrum": true}, {"time": 135, "velocity": 0, "pitch": 42, "instrument": 32, "track": 9, "qtime": 39, "isDrum": true}, {"time": 135, "velocity": 0, "pitch": 51, "instrument": 32, "track": 9, "qtime": 39, "isDrum": true}, {"time": 140, "velocity": 108, "pitch": 51, "instrument": 32, "track": 9, "qtime": 44, "isDrum": true}, {"time": 143, "velocity": 0, "pitch": 51, "instrument": 32, "track": 9, "qtime": 47, "isDrum": true}, {"time": 144, "velocity": 108, "pitch": 42, "instrument": 32, "track": 9, "qtime": 0, "isDrum": true}, {"time": 144, "velocity": 108, "pitch": 51, "instrument": 32, "track": 9, "qtime": 0, "isDrum": true}, {"time": 147, "velocity": 0, "pitch": 42, "instrument": 32, "track": 9, "qtime": 3, "isDrum": true}, {"time": 147, "velocity": 0, "pitch": 51, "instrument": 32, "track": 9, "qtime": 3, "isDrum": true}, {"time": 152, "velocity": 108, "pitch": 38, "instrument": 32, "track": 9, "qtime": 8, "isDrum": true}, {"time": 155, "velocity": 0, "pitch": 38, "instrument": 32, "track": 9, "qtime": 11, "isDrum": true}, {"time": 156, "velocity": 108, "pitch": 42, "instrument": 32, "track": 9, "qtime": 12, "isDrum": true}, {"time": 156, "velocity": 108, "pitch": 51, "instrument": 32, "track": 9, "qtime": 12, "isDrum": true}, {"time": 159, "velocity": 0, "pitch": 42, "instrument": 32, "track": 9, "qtime": 15, "isDrum": true}, {"time": 159, "velocity": 0, "pitch": 51, "instrument": 32, "track": 9, "qtime": 15, "isDrum": true}, {"time": 164, "velocity": 108, "pitch": 38, "instrument": 32, "track": 9, "qtime": 20, "isDrum": true}, {"time": 164, "velocity": 108, "pitch": 51, "instrument": 32, "track": 9, "qtime": 20, "isDrum": true}, {"time": 167, "velocity": 0, "pitch": 38, "instrument": 32, "track": 9, "qtime": 23, "isDrum": true}, {"time": 167, "velocity": 0, "pitch": 51, "instrument": 32, "track": 9, "qtime": 23, "isDrum": true}, {"time": 168, "velocity": 108, "pitch": 35, "instrument": 32, "track": 9, "qtime": 24, "isDrum": true}, {"time": 168, "velocity": 108, "pitch": 38, "instrument": 32, "track": 9, "qtime": 24, "isDrum": true}, {"time": 168, "velocity": 108, "pitch": 42, "instrument": 32, "track": 9, "qtime": 24, "isDrum": true}, {"time": 168, "velocity": 108, "pitch": 51, "instrument": 32, "track": 9, "qtime": 24, "isDrum": true}, {"time": 171, "velocity": 0, "pitch": 35, "instrument": 32, "track": 9, "qtime": 27, "isDrum": true}, {"time": 171, "velocity": 0, "pitch": 38, "instrument": 32, "track": 9, "qtime": 27, "isDrum": true}, {"time": 171, "velocity": 0, "pitch": 42, "instrument": 32, "track": 9, "qtime": 27, "isDrum": true}, {"time": 171, "velocity": 0, "pitch": 51, "instrument": 32, "track": 9, "qtime": 27, "isDrum": true}, {"time": 176, "velocity": 108, "pitch": 38, "instrument": 32, "track": 9, "qtime": 32, "isDrum": true}, {"time": 179, "velocity": 0, "pitch": 38, "instrument": 32, "track": 9, "qtime": 35, "isDrum": true}, {"time": 180, "velocity": 108, "pitch": 42, "instrument": 32, "track": 9, "qtime": 36, "isDrum": true}, {"time": 180, "velocity": 108, "pitch": 51, "instrument": 32, "track": 9, "qtime": 36, "isDrum": true}, {"time": 183, "velocity": 0, "pitch": 42, "instrument": 32, "track": 9, "qtime": 39, "isDrum": true}, {"time": 183, "velocity": 0, "pitch": 51, "instrument": 32, "track": 9, "qtime": 39, "isDrum": true}, {"time": 188, "velocity": 108, "pitch": 35, "instrument": 32, "track": 9, "qtime": 44, "isDrum": true}, {"time": 188, "velocity": 108, "pitch": 38, "instrument": 32, "track": 9, "qtime": 44, "isDrum": true}, {"time": 188, "velocity": 108, "pitch": 51, "instrument": 32, "track": 9, "qtime": 44, "isDrum": true}, {"time": 188, "velocity": 108, "pitch": 57, "instrument": 32, "track": 9, "qtime": 44, "isDrum": true}, {"time": 191, "velocity": 0, "pitch": 35, "instrument": 32, "track": 9, "qtime": 47, "isDrum": true}, {"time": 191, "velocity": 0, "pitch": 38, "instrument": 32, "track": 9, "qtime": 47, "isDrum": true}, {"time": 191, "velocity": 0, "pitch": 51, "instrument": 32, "track": 9, "qtime": 47, "isDrum": true}, {"time": 0, "velocity": 108, "pitch": 44, "instrument": 32, "track": 1, "qtime": 0, "isDrum": false}, {"time": 8, "velocity": 108, "pitch": 32, "instrument": 32, "track": 1, "qtime": 8, "isDrum": false}, {"time": 10, "velocity": 0, "pitch": 32, "instrument": 32, "track": 1, "qtime": 10, "isDrum": false}, {"time": 10, "velocity": 0, "pitch": 44, "instrument": 32, "track": 1, "qtime": 10, "isDrum": false}, {"time": 12, "velocity": 108, "pitch": 51, "instrument": 32, "track": 1, "qtime": 12, "isDrum": false}, {"time": 24, "velocity": 0, "pitch": 51, "instrument": 32, "track": 1, "qtime": 24, "isDrum": false}, {"time": 24, "velocity": 108, "pitch": 48, "instrument": 32, "track": 1, "qtime": 24, "isDrum": false}, {"time": 32, "velocity": 0, "pitch": 48, "instrument": 32, "track": 1, "qtime": 32, "isDrum": false}, {"time": 32, "velocity": 108, "pitch": 32, "instrument": 32, "track": 1, "qtime": 32, "isDrum": false}, {"time": 34, "velocity": 0, "pitch": 32, "instrument": 32, "track": 1, "qtime": 34, "isDrum": false}, {"time": 36, "velocity": 108, "pitch": 44, "instrument": 32, "track": 1, "qtime": 36, "isDrum": false}, {"time": 44, "velocity": 0, "pitch": 44, "instrument": 32, "track": 1, "qtime": 44, "isDrum": false}, {"time": 44, "velocity": 108, "pitch": 32, "instrument": 32, "track": 1, "qtime": 44, "isDrum": false}, {"time": 45, "velocity": 0, "pitch": 32, "instrument": 32, "track": 1, "qtime": 45, "isDrum": false}, {"time": 48, "velocity": 108, "pitch": 43, "instrument": 32, "track": 1, "qtime": 0, "isDrum": false}, {"time": 56, "velocity": 0, "pitch": 43, "instrument": 32, "track": 1, "qtime": 8, "isDrum": false}, {"time": 56, "velocity": 108, "pitch": 31, "instrument": 32, "track": 1, "qtime": 8, "isDrum": false}, {"time": 57, "velocity": 0, "pitch": 31, "instrument": 32, "track": 1, "qtime": 9, "isDrum": false}, {"time": 60, "velocity": 108, "pitch": 38, "instrument": 32, "track": 1, "qtime": 12, "isDrum": false}, {"time": 72, "velocity": 0, "pitch": 38, "instrument": 32, "track": 1, "qtime": 24, "isDrum": false}, {"time": 72, "velocity": 108, "pitch": 43, "instrument": 32, "track": 1, "qtime": 24, "isDrum": false}, {"time": 80, "velocity": 0, "pitch": 43, "instrument": 32, "track": 1, "qtime": 32, "isDrum": false}, {"time": 80, "velocity": 108, "pitch": 43, "instrument": 32, "track": 1, "qtime": 32, "isDrum": false}, {"time": 84, "velocity": 0, "pitch": 43, "instrument": 32, "track": 1, "qtime": 36, "isDrum": false}, {"time": 84, "velocity": 108, "pitch": 37, "instrument": 32, "track": 1, "qtime": 36, "isDrum": false}, {"time": 92, "velocity": 0, "pitch": 37, "instrument": 32, "track": 1, "qtime": 44, "isDrum": false}, {"time": 92, "velocity": 108, "pitch": 25, "instrument": 32, "track": 1, "qtime": 44, "isDrum": false}, {"time": 93, "velocity": 0, "pitch": 25, "instrument": 32, "track": 1, "qtime": 45, "isDrum": false}, {"time": 96, "velocity": 108, "pitch": 36, "instrument": 32, "track": 1, "qtime": 0, "isDrum": false}, {"time": 108, "velocity": 0, "pitch": 36, "instrument": 32, "track": 1, "qtime": 12, "isDrum": false}, {"time": 108, "velocity": 108, "pitch": 50, "instrument": 32, "track": 1, "qtime": 12, "isDrum": false}, {"time": 116, "velocity": 0, "pitch": 50, "instrument": 32, "track": 1, "qtime": 20, "isDrum": false}, {"time": 116, "velocity": 108, "pitch": 24, "instrument": 32, "track": 1, "qtime": 20, "isDrum": false}, {"time": 118, "velocity": 0, "pitch": 24, "instrument": 32, "track": 1, "qtime": 22, "isDrum": false}, {"time": 120, "velocity": 108, "pitch": 36, "instrument": 32, "track": 1, "qtime": 24, "isDrum": false}, {"time": 128, "velocity": 0, "pitch": 36, "instrument": 32, "track": 1, "qtime": 32, "isDrum": false}, {"time": 128, "velocity": 108, "pitch": 36, "instrument": 32, "track": 1, "qtime": 32, "isDrum": false}, {"time": 132, "velocity": 0, "pitch": 36, "instrument": 32, "track": 1, "qtime": 36, "isDrum": false}, {"time": 132, "velocity": 108, "pitch": 36, "instrument": 32, "track": 1, "qtime": 36, "isDrum": false}, {"time": 140, "velocity": 0, "pitch": 36, "instrument": 32, "track": 1, "qtime": 44, "isDrum": false}, {"time": 140, "velocity": 108, "pitch": 24, "instrument": 32, "track": 1, "qtime": 44, "isDrum": false}, {"time": 141, "velocity": 0, "pitch": 24, "instrument": 32, "track": 1, "qtime": 45, "isDrum": false}, {"time": 144, "velocity": 108, "pitch": 41, "instrument": 32, "track": 1, "qtime": 0, "isDrum": false}, {"time": 152, "velocity": 0, "pitch": 41, "instrument": 32, "track": 1, "qtime": 8, "isDrum": false}, {"time": 152, "velocity": 108, "pitch": 29, "instrument": 32, "track": 1, "qtime": 8, "isDrum": false}, {"time": 154, "velocity": 0, "pitch": 29, "instrument": 32, "track": 1, "qtime": 10, "isDrum": false}, {"time": 156, "velocity": 108, "pitch": 33, "instrument": 32, "track": 1, "qtime": 12, "isDrum": false}, {"time": 168, "velocity": 0, "pitch": 33, "instrument": 32, "track": 1, "qtime": 24, "isDrum": false}, {"time": 168, "velocity": 108, "pitch": 36, "instrument": 32, "track": 1, "qtime": 24, "isDrum": false}, {"time": 180, "velocity": 0, "pitch": 36, "instrument": 32, "track": 1, "qtime": 36, "isDrum": false}, {"time": 180, "velocity": 108, "pitch": 41, "instrument": 32, "track": 1, "qtime": 36, "isDrum": false}, {"time": 188, "velocity": 0, "pitch": 41, "instrument": 32, "track": 1, "qtime": 44, "isDrum": false}, {"time": 188, "velocity": 108, "pitch": 29, "instrument": 32, "track": 1, "qtime": 44, "isDrum": false}, {"time": 189, "velocity": 0, "pitch": 29, "instrument": 32, "track": 1, "qtime": 45, "isDrum": false}, {"time": 20, "velocity": 108, "pitch": 62, "instrument": 65, "track": 2, "qtime": 20, "isDrum": false}, {"time": 24, "velocity": 0, "pitch": 62, "instrument": 65, "track": 2, "qtime": 24, "isDrum": false}, {"time": 24, "velocity": 108, "pitch": 61, "instrument": 65, "track": 2, "qtime": 24, "isDrum": false}, {"time": 31, "velocity": 0, "pitch": 61, "instrument": 65, "track": 2, "qtime": 31, "isDrum": false}, {"time": 32, "velocity": 108, "pitch": 62, "instrument": 65, "track": 2, "qtime": 32, "isDrum": false}, {"time": 35, "velocity": 0, "pitch": 62, "instrument": 65, "track": 2, "qtime": 35, "isDrum": false}, {"time": 44, "velocity": 108, "pitch": 72, "instrument": 65, "track": 2, "qtime": 44, "isDrum": false}, {"time": 83, "velocity": 0, "pitch": 72, "instrument": 65, "track": 2, "qtime": 35, "isDrum": false}, {"time": 84, "velocity": 108, "pitch": 71, "instrument": 65, "track": 2, "qtime": 36, "isDrum": false}, {"time": 89, "velocity": 0, "pitch": 71, "instrument": 65, "track": 2, "qtime": 41, "isDrum": false}, {"time": 96, "velocity": 108, "pitch": 70, "instrument": 65, "track": 2, "qtime": 0, "isDrum": false}, {"time": 115, "velocity": 0, "pitch": 70, "instrument": 65, "track": 2, "qtime": 19, "isDrum": false}, {"time": 116, "velocity": 108, "pitch": 67, "instrument": 65, "track": 2, "qtime": 20, "isDrum": false}, {"time": 131, "velocity": 0, "pitch": 67, "instrument": 65, "track": 2, "qtime": 35, "isDrum": false}, {"time": 132, "velocity": 108, "pitch": 69, "instrument": 65, "track": 2, "qtime": 36, "isDrum": false}, {"time": 137, "velocity": 0, "pitch": 69, "instrument": 65, "track": 2, "qtime": 41, "isDrum": false}, {"time": 144, "velocity": 108, "pitch": 65, "instrument": 65, "track": 2, "qtime": 0, "isDrum": false}, {"time": 191, "velocity": 0, "pitch": 65, "instrument": 65, "track": 2, "qtime": 47, "isDrum": false}, {"time": 0, "velocity": 108, "pitch": 60, "instrument": 0, "track": 3, "qtime": 0, "isDrum": false}, {"time": 0, "velocity": 108, "pitch": 63, "instrument": 0, "track": 3, "qtime": 0, "isDrum": false}, {"time": 0, "velocity": 108, "pitch": 68, "instrument": 0, "track": 3, "qtime": 0, "isDrum": false}, {"time": 0, "velocity": 108, "pitch": 72, "instrument": 0, "track": 3, "qtime": 0, "isDrum": false}, {"time": 41, "velocity": 0, "pitch": 60, "instrument": 0, "track": 3, "qtime": 41, "isDrum": false}, {"time": 41, "velocity": 0, "pitch": 63, "instrument": 0, "track": 3, "qtime": 41, "isDrum": false}, {"time": 41, "velocity": 0, "pitch": 68, "instrument": 0, "track": 3, "qtime": 41, "isDrum": false}, {"time": 41, "velocity": 0, "pitch": 72, "instrument": 0, "track": 3, "qtime": 41, "isDrum": false}, {"time": 48, "velocity": 108, "pitch": 59, "instrument": 0, "track": 3, "qtime": 0, "isDrum": false}, {"time": 48, "velocity": 108, "pitch": 65, "instrument": 0, "track": 3, "qtime": 0, "isDrum": false}, {"time": 48, "velocity": 108, "pitch": 67, "instrument": 0, "track": 3, "qtime": 0, "isDrum": false}, {"time": 48, "velocity": 108, "pitch": 74, "instrument": 0, "track": 3, "qtime": 0, "isDrum": false}, {"time": 70, "velocity": 0, "pitch": 59, "instrument": 0, "track": 3, "qtime": 22, "isDrum": false}, {"time": 70, "velocity": 0, "pitch": 65, "instrument": 0, "track": 3, "qtime": 22, "isDrum": false}, {"time": 70, "velocity": 0, "pitch": 67, "instrument": 0, "track": 3, "qtime": 22, "isDrum": false}, {"time": 70, "velocity": 0, "pitch": 74, "instrument": 0, "track": 3, "qtime": 22, "isDrum": false}, {"time": 72, "velocity": 108, "pitch": 59, "instrument": 0, "track": 3, "qtime": 24, "isDrum": false}, {"time": 72, "velocity": 108, "pitch": 65, "instrument": 0, "track": 3, "qtime": 24, "isDrum": false}, {"time": 72, "velocity": 108, "pitch": 67, "instrument": 0, "track": 3, "qtime": 24, "isDrum": false}, {"time": 72, "velocity": 108, "pitch": 74, "instrument": 0, "track": 3, "qtime": 24, "isDrum": false}, {"time": 84, "velocity": 0, "pitch": 59, "instrument": 0, "track": 3, "qtime": 36, "isDrum": false}, {"time": 84, "velocity": 0, "pitch": 65, "instrument": 0, "track": 3, "qtime": 36, "isDrum": false}, {"time": 84, "velocity": 0, "pitch": 67, "instrument": 0, "track": 3, "qtime": 36, "isDrum": false}, {"time": 84, "velocity": 0, "pitch": 74, "instrument": 0, "track": 3, "qtime": 36, "isDrum": false}, {"time": 96, "velocity": 108, "pitch": 58, "instrument": 0, "track": 3, "qtime": 0, "isDrum": false}, {"time": 96, "velocity": 108, "pitch": 63, "instrument": 0, "track": 3, "qtime": 0, "isDrum": false}, {"time": 96, "velocity": 108, "pitch": 67, "instrument": 0, "track": 3, "qtime": 0, "isDrum": false}, {"time": 96, "velocity": 108, "pitch": 72, "instrument": 0, "track": 3, "qtime": 0, "isDrum": false}, {"time": 120, "velocity": 0, "pitch": 58, "instrument": 0, "track": 3, "qtime": 24, "isDrum": false}, {"time": 120, "velocity": 0, "pitch": 63, "instrument": 0, "track": 3, "qtime": 24, "isDrum": false}, {"time": 120, "velocity": 0, "pitch": 67, "instrument": 0, "track": 3, "qtime": 24, "isDrum": false}, {"time": 120, "velocity": 0, "pitch": 72, "instrument": 0, "track": 3, "qtime": 24, "isDrum": false}, {"time": 120, "velocity": 108, "pitch": 58, "instrument": 0, "track": 3, "qtime": 24, "isDrum": false}, {"time": 120, "velocity": 108, "pitch": 64, "instrument": 0, "track": 3, "qtime": 24, "isDrum": false}, {"time": 120, "velocity": 108, "pitch": 67, "instrument": 0, "track": 3, "qtime": 24, "isDrum": false}, {"time": 120, "velocity": 108, "pitch": 72, "instrument": 0, "track": 3, "qtime": 24, "isDrum": false}, {"time": 132, "velocity": 0, "pitch": 58, "instrument": 0, "track": 3, "qtime": 36, "isDrum": false}, {"time": 132, "velocity": 0, "pitch": 64, "instrument": 0, "track": 3, "qtime": 36, "isDrum": false}, {"time": 132, "velocity": 0, "pitch": 67, "instrument": 0, "track": 3, "qtime": 36, "isDrum": false}, {"time": 132, "velocity": 0, "pitch": 72, "instrument": 0, "track": 3, "qtime": 36, "isDrum": false}, {"time": 144, "velocity": 108, "pitch": 57, "instrument": 0, "track": 3, "qtime": 0, "isDrum": false}, {"time": 144, "velocity": 108, "pitch": 65, "instrument": 0, "track": 3, "qtime": 0, "isDrum": false}, {"time": 144, "velocity": 108, "pitch": 69, "instrument": 0, "track": 3, "qtime": 0, "isDrum": false}, {"time": 144, "velocity": 108, "pitch": 72, "instrument": 0, "track": 3, "qtime": 0, "isDrum": false}, {"time": 177, "velocity": 0, "pitch": 57, "instrument": 0, "track": 3, "qtime": 33, "isDrum": false}, {"time": 177, "velocity": 0, "pitch": 65, "instrument": 0, "track": 3, "qtime": 33, "isDrum": false}, {"time": 177, "velocity": 0, "pitch": 69, "instrument": 0, "track": 3, "qtime": 33, "isDrum": false}, {"time": 177, "velocity": 0, "pitch": 72, "instrument": 0, "track": 3, "qtime": 33, "isDrum": false}], "resolution": 12, "tempo": 252, "minPitch": 24, "maxPitch": 74, "validSegments": [0], "validTracks": [15]}, "audio": "https://www.sfu.ca/~jeffe/examples/stem_0_medium_low.mp3"}, {"src": "gen/stem_0_medium.json", "highlights": [[], [], [], [0, 1, 2, 3]], "caption": "Resample the piano track in 21a with medium density.", "sample_id": "21d", "mixer": [8, 8, 8, 8], "tempo": 252, "json": {"tracks": [{"bars": [{"events": [0, 1, 2, 3, 4, 5, 6, 7, 8, 9, 10, 11, 12, 13, 14, 15, 16, 17, 18, 19, 20, 21, 22, 23, 24], "isFourFour": true, "hasNotes": true, "time": 0}, {"events": [25, 26, 27, 28, 29, 30, 31, 32, 33, 34, 35, 36, 37, 38, 39, 40, 41, 42, 43, 44, 45, 46, 47, 48, 49, 50, 51, 52, 53, 54], "isFourFour": true, "hasNotes": true, "time": 48}, {"events": [55, 56, 57, 58, 59, 60, 61, 62, 63, 64, 65, 66, 67, 68, 69, 70, 71, 72, 73, 74, 75, 76, 77, 78, 79, 80, 81, 82, 83, 84], "isFourFour": true, "hasNotes": true, "time": 96}, {"events": [85, 86, 87, 88, 89, 90, 91, 92, 93, 94, 95, 96, 97, 98, 99, 100, 101, 102, 103, 104, 105, 106, 107, 108, 109, 110, 111, 112, 113, 114, 115, 116, 117, 118, 119], "isFourFour": true, "hasNotes": true, "time": 144}], "isDrum": true, "minPitch": 35, "maxPitch": 57, "instrument": 32, "avPolyphony": 2.21519, "noteDensity": 9, "noteDensityV2": 6}, {"bars": [{"events": [120, 121, 122, 123, 124, 125, 126, 127, 128, 129, 130, 131, 132, 133], "isFourFour": true, "hasNotes": true, "time": 0}, {"events": [134, 135, 136, 137, 138, 139, 140, 141, 142, 143, 144, 145, 146, 147], "isFourFour": true, "hasNotes": true, "time": 48}, {"events": [148, 149, 150, 151, 152, 153, 154, 155, 156, 157, 158, 159, 160, 161], "isFourFour": true, "hasNotes": true, "time": 96}, {"events": [162, 163, 164, 165, 166, 167, 168, 169, 170, 171, 172, 173], "isFourFour": true, "hasNotes": true, "time": 144}], "isDrum": false, "minPitch": 24, "maxPitch": 51, "instrument": 32, "avPolyphony": 1.0118343, "noteDensity": 8, "noteDensityV2": 8}, {"bars": [{"events": [174, 175, 176, 177, 178, 179, 180], "isFourFour": true, "hasNotes": true, "time": 0}, {"events": [181, 182, 183], "isFourFour": true, "hasNotes": true, "time": 48}, {"events": [184, 185, 186, 187, 188, 189], "isFourFour": true, "hasNotes": true, "time": 96}, {"events": [190, 191], "isFourFour": true, "hasNotes": true, "time": 144}], "isDrum": false, "minPitch": 61, "maxPitch": 72, "instrument": 65, "avPolyphony": 1, "noteDensity": 1, "noteDensityV2": 1}, {"bars": [{"events": [192, 193, 194, 195, 196, 197, 198, 199, 200], "isFourFour": true, "hasNotes": true, "time": 0}, {"events": [201, 202, 203, 204, 205, 206, 207, 208, 209, 210, 211, 212, 213, 214, 215, 216], "isFourFour": true, "hasNotes": true, "time": 48}, {"events": [217, 218, 219, 220, 221, 222, 223, 224, 225, 226], "isFourFour": true, "hasNotes": true, "time": 96}, {"events": [227, 228, 229, 230, 231, 232, 233, 234, 235, 236, 237, 238, 239, 240, 241, 242, 243, 244, 245, 246, 247, 248], "isFourFour": true, "hasNotes": true, "time": 144}], "isDrum": false, "minPitch": 48, "maxPitch": 74, "instrument": 0, "avPolyphony": 4.0449438, "noteDensity": 8, "noteDensityV2": 5}], "events": [{"time": 0, "velocity": 108, "pitch": 38, "instrument": 32, "track": 9, "qtime": 0, "isDrum": true}, {"time": 0, "velocity": 108, "pitch": 42, "instrument": 32, "track": 9, "qtime": 0, "isDrum": true}, {"time": 0, "velocity": 108, "pitch": 51, "instrument": 32, "track": 9, "qtime": 0, "isDrum": true}, {"time": 3, "velocity": 0, "pitch": 38, "instrument": 32, "track": 9, "qtime": 3, "isDrum": true}, {"time": 3, "velocity": 0, "pitch": 42, "instrument": 32, "track": 9, "qtime": 3, "isDrum": true}, {"time": 3, "velocity": 0, "pitch": 51, "instrument": 32, "track": 9, "qtime": 3, "isDrum": true}, {"time": 12, "velocity": 108, "pitch": 42, "instrument": 32, "track": 9, "qtime": 12, "isDrum": true}, {"time": 12, "velocity": 108, "pitch": 51, "instrument": 32, "track": 9, "qtime": 12, "isDrum": true}, {"time": 15, "velocity": 0, "pitch": 42, "instrument": 32, "track": 9, "qtime": 15, "isDrum": true}, {"time": 15, "velocity": 0, "pitch": 51, "instrument": 32, "track": 9, "qtime": 15, "isDrum": true}, {"time": 21, "velocity": 108, "pitch": 51, "instrument": 32, "track": 9, "qtime": 21, "isDrum": true}, {"time": 23, "velocity": 0, "pitch": 51, "instrument": 32, "track": 9, "qtime": 23, "isDrum": true}, {"time": 24, "velocity": 108, "pitch": 42, "instrument": 32, "track": 9, "qtime": 24, "isDrum": true}, {"time": 24, "velocity": 108, "pitch": 51, "instrument": 32, "track": 9, "qtime": 24, "isDrum": true}, {"time": 27, "velocity": 0, "pitch": 42, "instrument": 32, "track": 9, "qtime": 27, "isDrum": true}, {"time": 27, "velocity": 0, "pitch": 51, "instrument": 32, "track": 9, "qtime": 27, "isDrum": true}, {"time": 36, "velocity": 108, "pitch": 38, "instrument": 32, "track": 9, "qtime": 36, "isDrum": true}, {"time": 36, "velocity": 108, "pitch": 42, "instrument": 32, "track": 9, "qtime": 36, "isDrum": true}, {"time": 36, "velocity": 108, "pitch": 51, "instrument": 32, "track": 9, "qtime": 36, "isDrum": true}, {"time": 39, "velocity": 0, "pitch": 38, "instrument": 32, "track": 9, "qtime": 39, "isDrum": true}, {"time": 39, "velocity": 0, "pitch": 42, "instrument": 32, "track": 9, "qtime": 39, "isDrum": true}, {"time": 39, "velocity": 0, "pitch": 51, "instrument": 32, "track": 9, "qtime": 39, "isDrum": true}, {"time": 45, "velocity": 108, "pitch": 51, "instrument": 32, "track": 9, "qtime": 45, "isDrum": true}, {"time": 47, "velocity": 0, "pitch": 49, "instrument": 32, "track": 9, "qtime": 47, "isDrum": true}, {"time": 47, "velocity": 0, "pitch": 51, "instrument": 32, "track": 9, "qtime": 47, "isDrum": true}, {"time": 48, "velocity": 108, "pitch": 35, "instrument": 32, "track": 9, "qtime": 0, "isDrum": true}, {"time": 48, "velocity": 108, "pitch": 42, "instrument": 32, "track": 9, "qtime": 0, "isDrum": true}, {"time": 48, "velocity": 108, "pitch": 51, "instrument": 32, "track": 9, "qtime": 0, "isDrum": true}, {"time": 51, "velocity": 0, "pitch": 35, "instrument": 32, "track": 9, "qtime": 3, "isDrum": true}, {"time": 51, "velocity": 0, "pitch": 42, "instrument": 32, "track": 9, "qtime": 3, "isDrum": true}, {"time": 51, "velocity": 0, "pitch": 51, "instrument": 32, "track": 9, "qtime": 3, "isDrum": true}, {"time": 60, "velocity": 108, "pitch": 35, "instrument": 32, "track": 9, "qtime": 12, "isDrum": true}, {"time": 60, "velocity": 108, "pitch": 38, "instrument": 32, "track": 9, "qtime": 12, "isDrum": true}, {"time": 60, "velocity": 108, "pitch": 42, "instrument": 32, "track": 9, "qtime": 12, "isDrum": true}, {"time": 60, "velocity": 108, "pitch": 51, "instrument": 32, "track": 9, "qtime": 12, "isDrum": true}, {"time": 63, "velocity": 0, "pitch": 35, "instrument": 32, "track": 9, "qtime": 15, "isDrum": true}, {"time": 63, "velocity": 0, "pitch": 38, "instrument": 32, "track": 9, "qtime": 15, "isDrum": true}, {"time": 63, "velocity": 0, "pitch": 42, "instrument": 32, "track": 9, "qtime": 15, "isDrum": true}, {"time": 63, "velocity": 0, "pitch": 51, "instrument": 32, "track": 9, "qtime": 15, "isDrum": true}, {"time": 68, "velocity": 108, "pitch": 51, "instrument": 32, "track": 9, "qtime": 20, "isDrum": true}, {"time": 71, "velocity": 0, "pitch": 51, "instrument": 32, "track": 9, "qtime": 23, "isDrum": true}, {"time": 72, "velocity": 108, "pitch": 42, "instrument": 32, "track": 9, "qtime": 24, "isDrum": true}, {"time": 72, "velocity": 108, "pitch": 51, "instrument": 32, "track": 9, "qtime": 24, "isDrum": true}, {"time": 75, "velocity": 0, "pitch": 42, "instrument": 32, "track": 9, "qtime": 27, "isDrum": true}, {"time": 75, "velocity": 0, "pitch": 51, "instrument": 32, "track": 9, "qtime": 27, "isDrum": true}, {"time": 84, "velocity": 108, "pitch": 35, "instrument": 32, "track": 9, "qtime": 36, "isDrum": true}, {"time": 84, "velocity": 108, "pitch": 38, "instrument": 32, "track": 9, "qtime": 36, "isDrum": true}, {"time": 84, "velocity": 108, "pitch": 42, "instrument": 32, "track": 9, "qtime": 36, "isDrum": true}, {"time": 84, "velocity": 108, "pitch": 51, "instrument": 32, "track": 9, "qtime": 36, "isDrum": true}, {"time": 87, "velocity": 0, "pitch": 35, "instrument": 32, "track": 9, "qtime": 39, "isDrum": true}, {"time": 87, "velocity": 0, "pitch": 38, "instrument": 32, "track": 9, "qtime": 39, "isDrum": true}, {"time": 87, "velocity": 0, "pitch": 42, "instrument": 32, "track": 9, "qtime": 39, "isDrum": true}, {"time": 87, "velocity": 0, "pitch": 51, "instrument": 32, "track": 9, "qtime": 39, "isDrum": true}, {"time": 92, "velocity": 108, "pitch": 51, "instrument": 32, "track": 9, "qtime": 44, "isDrum": true}, {"time": 95, "velocity": 0, "pitch": 51, "instrument": 32, "track": 9, "qtime": 47, "isDrum": true}, {"time": 96, "velocity": 108, "pitch": 38, "instrument": 32, "track": 9, "qtime": 0, "isDrum": true}, {"time": 96, "velocity": 108, "pitch": 42, "instrument": 32, "track": 9, "qtime": 0, "isDrum": true}, {"time": 96, "velocity": 108, "pitch": 51, "instrument": 32, "track": 9, "qtime": 0, "isDrum": true}, {"time": 99, "velocity": 0, "pitch": 38, "instrument": 32, "track": 9, "qtime": 3, "isDrum": true}, {"time": 99, "velocity": 0, "pitch": 42, "instrument": 32, "track": 9, "qtime": 3, "isDrum": true}, {"time": 99, "velocity": 0, "pitch": 51, "instrument": 32, "track": 9, "qtime": 3, "isDrum": true}, {"time": 104, "velocity": 108, "pitch": 35, "instrument": 32, "track": 9, "qtime": 8, "isDrum": true}, {"time": 104, "velocity": 108, "pitch": 51, "instrument": 32, "track": 9, "qtime": 8, "isDrum": true}, {"time": 107, "velocity": 0, "pitch": 35, "instrument": 32, "track": 9, "qtime": 11, "isDrum": true}, {"time": 107, "velocity": 0, "pitch": 51, "instrument": 32, "track": 9, "qtime": 11, "isDrum": true}, {"time": 108, "velocity": 108, "pitch": 35, "instrument": 32, "track": 9, "qtime": 12, "isDrum": true}, {"time": 108, "velocity": 108, "pitch": 42, "instrument": 32, "track": 9, "qtime": 12, "isDrum": true}, {"time": 108, "velocity": 108, "pitch": 51, "instrument": 32, "track": 9, "qtime": 12, "isDrum": true}, {"time": 111, "velocity": 0, "pitch": 35, "instrument": 32, "track": 9, "qtime": 15, "isDrum": true}, {"time": 111, "velocity": 0, "pitch": 42, "instrument": 32, "track": 9, "qtime": 15, "isDrum": true}, {"time": 111, "velocity": 0, "pitch": 51, "instrument": 32, "track": 9, "qtime": 15, "isDrum": true}, {"time": 116, "velocity": 108, "pitch": 38, "instrument": 32, "track": 9, "qtime": 20, "isDrum": true}, {"time": 119, "velocity": 0, "pitch": 38, "instrument": 32, "track": 9, "qtime": 23, "isDrum": true}, {"time": 120, "velocity": 108, "pitch": 42, "instrument": 32, "track": 9, "qtime": 24, "isDrum": true}, {"time": 120, "velocity": 108, "pitch": 51, "instrument": 32, "track": 9, "qtime": 24, "isDrum": true}, {"time": 123, "velocity": 0, "pitch": 42, "instrument": 32, "track": 9, "qtime": 27, "isDrum": true}, {"time": 123, "velocity": 0, "pitch": 51, "instrument": 32, "track": 9, "qtime": 27, "isDrum": true}, {"time": 132, "velocity": 108, "pitch": 38, "instrument": 32, "track": 9, "qtime": 36, "isDrum": true}, {"time": 132, "velocity": 108, "pitch": 42, "instrument": 32, "track": 9, "qtime": 36, "isDrum": true}, {"time": 132, "velocity": 108, "pitch": 51, "instrument": 32, "track": 9, "qtime": 36, "isDrum": true}, {"time": 135, "velocity": 0, "pitch": 38, "instrument": 32, "track": 9, "qtime": 39, "isDrum": true}, {"time": 135, "velocity": 0, "pitch": 42, "instrument": 32, "track": 9, "qtime": 39, "isDrum": true}, {"time": 135, "velocity": 0, "pitch": 51, "instrument": 32, "track": 9, "qtime": 39, "isDrum": true}, {"time": 140, "velocity": 108, "pitch": 51, "instrument": 32, "track": 9, "qtime": 44, "isDrum": true}, {"time": 143, "velocity": 0, "pitch": 51, "instrument": 32, "track": 9, "qtime": 47, "isDrum": true}, {"time": 144, "velocity": 108, "pitch": 42, "instrument": 32, "track": 9, "qtime": 0, "isDrum": true}, {"time": 144, "velocity": 108, "pitch": 51, "instrument": 32, "track": 9, "qtime": 0, "isDrum": true}, {"time": 147, "velocity": 0, "pitch": 42, "instrument": 32, "track": 9, "qtime": 3, "isDrum": true}, {"time": 147, "velocity": 0, "pitch": 51, "instrument": 32, "track": 9, "qtime": 3, "isDrum": true}, {"time": 152, "velocity": 108, "pitch": 38, "instrument": 32, "track": 9, "qtime": 8, "isDrum": true}, {"time": 155, "velocity": 0, "pitch": 38, "instrument": 32, "track": 9, "qtime": 11, "isDrum": true}, {"time": 156, "velocity": 108, "pitch": 42, "instrument": 32, "track": 9, "qtime": 12, "isDrum": true}, {"time": 156, "velocity": 108, "pitch": 51, "instrument": 32, "track": 9, "qtime": 12, "isDrum": true}, {"time": 159, "velocity": 0, "pitch": 42, "instrument": 32, "track": 9, "qtime": 15, "isDrum": true}, {"time": 159, "velocity": 0, "pitch": 51, "instrument": 32, "track": 9, "qtime": 15, "isDrum": true}, {"time": 164, "velocity": 108, "pitch": 38, "instrument": 32, "track": 9, "qtime": 20, "isDrum": true}, {"time": 164, "velocity": 108, "pitch": 51, "instrument": 32, "track": 9, "qtime": 20, "isDrum": true}, {"time": 167, "velocity": 0, "pitch": 38, "instrument": 32, "track": 9, "qtime": 23, "isDrum": true}, {"time": 167, "velocity": 0, "pitch": 51, "instrument": 32, "track": 9, "qtime": 23, "isDrum": true}, {"time": 168, "velocity": 108, "pitch": 35, "instrument": 32, "track": 9, "qtime": 24, "isDrum": true}, {"time": 168, "velocity": 108, "pitch": 38, "instrument": 32, "track": 9, "qtime": 24, "isDrum": true}, {"time": 168, "velocity": 108, "pitch": 42, "instrument": 32, "track": 9, "qtime": 24, "isDrum": true}, {"time": 168, "velocity": 108, "pitch": 51, "instrument": 32, "track": 9, "qtime": 24, "isDrum": true}, {"time": 171, "velocity": 0, "pitch": 35, "instrument": 32, "track": 9, "qtime": 27, "isDrum": true}, {"time": 171, "velocity": 0, "pitch": 38, "instrument": 32, "track": 9, "qtime": 27, "isDrum": true}, {"time": 171, "velocity": 0, "pitch": 42, "instrument": 32, "track": 9, "qtime": 27, "isDrum": true}, {"time": 171, "velocity": 0, "pitch": 51, "instrument": 32, "track": 9, "qtime": 27, "isDrum": true}, {"time": 176, "velocity": 108, "pitch": 38, "instrument": 32, "track": 9, "qtime": 32, "isDrum": true}, {"time": 179, "velocity": 0, "pitch": 38, "instrument": 32, "track": 9, "qtime": 35, "isDrum": true}, {"time": 180, "velocity": 108, "pitch": 42, "instrument": 32, "track": 9, "qtime": 36, "isDrum": true}, {"time": 180, "velocity": 108, "pitch": 51, "instrument": 32, "track": 9, "qtime": 36, "isDrum": true}, {"time": 183, "velocity": 0, "pitch": 42, "instrument": 32, "track": 9, "qtime": 39, "isDrum": true}, {"time": 183, "velocity": 0, "pitch": 51, "instrument": 32, "track": 9, "qtime": 39, "isDrum": true}, {"time": 188, "velocity": 108, "pitch": 35, "instrument": 32, "track": 9, "qtime": 44, "isDrum": true}, {"time": 188, "velocity": 108, "pitch": 38, "instrument": 32, "track": 9, "qtime": 44, "isDrum": true}, {"time": 188, "velocity": 108, "pitch": 51, "instrument": 32, "track": 9, "qtime": 44, "isDrum": true}, {"time": 188, "velocity": 108, "pitch": 57, "instrument": 32, "track": 9, "qtime": 44, "isDrum": true}, {"time": 191, "velocity": 0, "pitch": 35, "instrument": 32, "track": 9, "qtime": 47, "isDrum": true}, {"time": 191, "velocity": 0, "pitch": 38, "instrument": 32, "track": 9, "qtime": 47, "isDrum": true}, {"time": 191, "velocity": 0, "pitch": 51, "instrument": 32, "track": 9, "qtime": 47, "isDrum": true}, {"time": 0, "velocity": 108, "pitch": 44, "instrument": 32, "track": 1, "qtime": 0, "isDrum": false}, {"time": 8, "velocity": 108, "pitch": 32, "instrument": 32, "track": 1, "qtime": 8, "isDrum": false}, {"time": 10, "velocity": 0, "pitch": 32, "instrument": 32, "track": 1, "qtime": 10, "isDrum": false}, {"time": 10, "velocity": 0, "pitch": 44, "instrument": 32, "track": 1, "qtime": 10, "isDrum": false}, {"time": 12, "velocity": 108, "pitch": 51, "instrument": 32, "track": 1, "qtime": 12, "isDrum": false}, {"time": 24, "velocity": 0, "pitch": 51, "instrument": 32, "track": 1, "qtime": 24, "isDrum": false}, {"time": 24, "velocity": 108, "pitch": 48, "instrument": 32, "track": 1, "qtime": 24, "isDrum": false}, {"time": 32, "velocity": 0, "pitch": 48, "instrument": 32, "track": 1, "qtime": 32, "isDrum": false}, {"time": 32, "velocity": 108, "pitch": 32, "instrument": 32, "track": 1, "qtime": 32, "isDrum": false}, {"time": 34, "velocity": 0, "pitch": 32, "instrument": 32, "track": 1, "qtime": 34, "isDrum": false}, {"time": 36, "velocity": 108, "pitch": 44, "instrument": 32, "track": 1, "qtime": 36, "isDrum": false}, {"time": 44, "velocity": 0, "pitch": 44, "instrument": 32, "track": 1, "qtime": 44, "isDrum": false}, {"time": 44, "velocity": 108, "pitch": 32, "instrument": 32, "track": 1, "qtime": 44, "isDrum": false}, {"time": 45, "velocity": 0, "pitch": 32, "instrument": 32, "track": 1, "qtime": 45, "isDrum": false}, {"time": 48, "velocity": 108, "pitch": 43, "instrument": 32, "track": 1, "qtime": 0, "isDrum": false}, {"time": 56, "velocity": 0, "pitch": 43, "instrument": 32, "track": 1, "qtime": 8, "isDrum": false}, {"time": 56, "velocity": 108, "pitch": 31, "instrument": 32, "track": 1, "qtime": 8, "isDrum": false}, {"time": 57, "velocity": 0, "pitch": 31, "instrument": 32, "track": 1, "qtime": 9, "isDrum": false}, {"time": 60, "velocity": 108, "pitch": 38, "instrument": 32, "track": 1, "qtime": 12, "isDrum": false}, {"time": 72, "velocity": 0, "pitch": 38, "instrument": 32, "track": 1, "qtime": 24, "isDrum": false}, {"time": 72, "velocity": 108, "pitch": 43, "instrument": 32, "track": 1, "qtime": 24, "isDrum": false}, {"time": 80, "velocity": 0, "pitch": 43, "instrument": 32, "track": 1, "qtime": 32, "isDrum": false}, {"time": 80, "velocity": 108, "pitch": 43, "instrument": 32, "track": 1, "qtime": 32, "isDrum": false}, {"time": 84, "velocity": 0, "pitch": 43, "instrument": 32, "track": 1, "qtime": 36, "isDrum": false}, {"time": 84, "velocity": 108, "pitch": 37, "instrument": 32, "track": 1, "qtime": 36, "isDrum": false}, {"time": 92, "velocity": 0, "pitch": 37, "instrument": 32, "track": 1, "qtime": 44, "isDrum": false}, {"time": 92, "velocity": 108, "pitch": 25, "instrument": 32, "track": 1, "qtime": 44, "isDrum": false}, {"time": 93, "velocity": 0, "pitch": 25, "instrument": 32, "track": 1, "qtime": 45, "isDrum": false}, {"time": 96, "velocity": 108, "pitch": 36, "instrument": 32, "track": 1, "qtime": 0, "isDrum": false}, {"time": 108, "velocity": 0, "pitch": 36, "instrument": 32, "track": 1, "qtime": 12, "isDrum": false}, {"time": 108, "velocity": 108, "pitch": 50, "instrument": 32, "track": 1, "qtime": 12, "isDrum": false}, {"time": 116, "velocity": 0, "pitch": 50, "instrument": 32, "track": 1, "qtime": 20, "isDrum": false}, {"time": 116, "velocity": 108, "pitch": 24, "instrument": 32, "track": 1, "qtime": 20, "isDrum": false}, {"time": 118, "velocity": 0, "pitch": 24, "instrument": 32, "track": 1, "qtime": 22, "isDrum": false}, {"time": 120, "velocity": 108, "pitch": 36, "instrument": 32, "track": 1, "qtime": 24, "isDrum": false}, {"time": 128, "velocity": 0, "pitch": 36, "instrument": 32, "track": 1, "qtime": 32, "isDrum": false}, {"time": 128, "velocity": 108, "pitch": 36, "instrument": 32, "track": 1, "qtime": 32, "isDrum": false}, {"time": 132, "velocity": 0, "pitch": 36, "instrument": 32, "track": 1, "qtime": 36, "isDrum": false}, {"time": 132, "velocity": 108, "pitch": 36, "instrument": 32, "track": 1, "qtime": 36, "isDrum": false}, {"time": 140, "velocity": 0, "pitch": 36, "instrument": 32, "track": 1, "qtime": 44, "isDrum": false}, {"time": 140, "velocity": 108, "pitch": 24, "instrument": 32, "track": 1, "qtime": 44, "isDrum": false}, {"time": 141, "velocity": 0, "pitch": 24, "instrument": 32, "track": 1, "qtime": 45, "isDrum": false}, {"time": 144, "velocity": 108, "pitch": 41, "instrument": 32, "track": 1, "qtime": 0, "isDrum": false}, {"time": 152, "velocity": 0, "pitch": 41, "instrument": 32, "track": 1, "qtime": 8, "isDrum": false}, {"time": 152, "velocity": 108, "pitch": 29, "instrument": 32, "track": 1, "qtime": 8, "isDrum": false}, {"time": 154, "velocity": 0, "pitch": 29, "instrument": 32, "track": 1, "qtime": 10, "isDrum": false}, {"time": 156, "velocity": 108, "pitch": 33, "instrument": 32, "track": 1, "qtime": 12, "isDrum": false}, {"time": 168, "velocity": 0, "pitch": 33, "instrument": 32, "track": 1, "qtime": 24, "isDrum": false}, {"time": 168, "velocity": 108, "pitch": 36, "instrument": 32, "track": 1, "qtime": 24, "isDrum": false}, {"time": 180, "velocity": 0, "pitch": 36, "instrument": 32, "track": 1, "qtime": 36, "isDrum": false}, {"time": 180, "velocity": 108, "pitch": 41, "instrument": 32, "track": 1, "qtime": 36, "isDrum": false}, {"time": 188, "velocity": 0, "pitch": 41, "instrument": 32, "track": 1, "qtime": 44, "isDrum": false}, {"time": 188, "velocity": 108, "pitch": 29, "instrument": 32, "track": 1, "qtime": 44, "isDrum": false}, {"time": 189, "velocity": 0, "pitch": 29, "instrument": 32, "track": 1, "qtime": 45, "isDrum": false}, {"time": 20, "velocity": 108, "pitch": 62, "instrument": 65, "track": 2, "qtime": 20, "isDrum": false}, {"time": 24, "velocity": 0, "pitch": 62, "instrument": 65, "track": 2, "qtime": 24, "isDrum": false}, {"time": 24, "velocity": 108, "pitch": 61, "instrument": 65, "track": 2, "qtime": 24, "isDrum": false}, {"time": 31, "velocity": 0, "pitch": 61, "instrument": 65, "track": 2, "qtime": 31, "isDrum": false}, {"time": 32, "velocity": 108, "pitch": 62, "instrument": 65, "track": 2, "qtime": 32, "isDrum": false}, {"time": 35, "velocity": 0, "pitch": 62, "instrument": 65, "track": 2, "qtime": 35, "isDrum": false}, {"time": 44, "velocity": 108, "pitch": 72, "instrument": 65, "track": 2, "qtime": 44, "isDrum": false}, {"time": 83, "velocity": 0, "pitch": 72, "instrument": 65, "track": 2, "qtime": 35, "isDrum": false}, {"time": 84, "velocity": 108, "pitch": 71, "instrument": 65, "track": 2, "qtime": 36, "isDrum": false}, {"time": 89, "velocity": 0, "pitch": 71, "instrument": 65, "track": 2, "qtime": 41, "isDrum": false}, {"time": 96, "velocity": 108, "pitch": 70, "instrument": 65, "track": 2, "qtime": 0, "isDrum": false}, {"time": 115, "velocity": 0, "pitch": 70, "instrument": 65, "track": 2, "qtime": 19, "isDrum": false}, {"time": 116, "velocity": 108, "pitch": 67, "instrument": 65, "track": 2, "qtime": 20, "isDrum": false}, {"time": 131, "velocity": 0, "pitch": 67, "instrument": 65, "track": 2, "qtime": 35, "isDrum": false}, {"time": 132, "velocity": 108, "pitch": 69, "instrument": 65, "track": 2, "qtime": 36, "isDrum": false}, {"time": 137, "velocity": 0, "pitch": 69, "instrument": 65, "track": 2, "qtime": 41, "isDrum": false}, {"time": 144, "velocity": 108, "pitch": 65, "instrument": 65, "track": 2, "qtime": 0, "isDrum": false}, {"time": 191, "velocity": 0, "pitch": 65, "instrument": 65, "track": 2, "qtime": 47, "isDrum": false}, {"time": 0, "velocity": 108, "pitch": 56, "instrument": 0, "track": 3, "qtime": 0, "isDrum": false}, {"time": 0, "velocity": 108, "pitch": 74, "instrument": 0, "track": 3, "qtime": 0, "isDrum": false}, {"time": 1, "velocity": 108, "pitch": 62, "instrument": 0, "track": 3, "qtime": 1, "isDrum": false}, {"time": 1, "velocity": 108, "pitch": 68, "instrument": 0, "track": 3, "qtime": 1, "isDrum": false}, {"time": 36, "velocity": 0, "pitch": 56, "instrument": 0, "track": 3, "qtime": 36, "isDrum": false}, {"time": 37, "velocity": 0, "pitch": 65, "instrument": 0, "track": 3, "qtime": 37, "isDrum": false}, {"time": 37, "velocity": 0, "pitch": 68, "instrument": 0, "track": 3, "qtime": 37, "isDrum": false}, {"time": 37, "velocity": 0, "pitch": 74, "instrument": 0, "track": 3, "qtime": 37, "isDrum": false}, {"time": 38, "velocity": 0, "pitch": 62, "instrument": 0, "track": 3, "qtime": 38, "isDrum": false}, {"time": 57, "velocity": 108, "pitch": 53, "instrument": 0, "track": 3, "qtime": 9, "isDrum": false}, {"time": 57, "velocity": 108, "pitch": 59, "instrument": 0, "track": 3, "qtime": 9, "isDrum": false}, {"time": 57, "velocity": 108, "pitch": 65, "instrument": 0, "track": 3, "qtime": 9, "isDrum": false}, {"time": 57, "velocity": 108, "pitch": 70, "instrument": 0, "track": 3, "qtime": 9, "isDrum": false}, {"time": 66, "velocity": 0, "pitch": 53, "instrument": 0, "track": 3, "qtime": 18, "isDrum": false}, {"time": 66, "velocity": 0, "pitch": 59, "instrument": 0, "track": 3, "qtime": 18, "isDrum": false}, {"time": 66, "velocity": 0, "pitch": 65, "instrument": 0, "track": 3, "qtime": 18, "isDrum": false}, {"time": 66, "velocity": 0, "pitch": 70, "instrument": 0, "track": 3, "qtime": 18, "isDrum": false}, {"time": 72, "velocity": 108, "pitch": 53, "instrument": 0, "track": 3, "qtime": 24, "isDrum": false}, {"time": 72, "velocity": 108, "pitch": 59, "instrument": 0, "track": 3, "qtime": 24, "isDrum": false}, {"time": 72, "velocity": 108, "pitch": 64, "instrument": 0, "track": 3, "qtime": 24, "isDrum": false}, {"time": 72, "velocity": 108, "pitch": 69, "instrument": 0, "track": 3, "qtime": 24, "isDrum": false}, {"time": 95, "velocity": 0, "pitch": 53, "instrument": 0, "track": 3, "qtime": 47, "isDrum": false}, {"time": 95, "velocity": 0, "pitch": 59, "instrument": 0, "track": 3, "qtime": 47, "isDrum": false}, {"time": 95, "velocity": 0, "pitch": 64, "instrument": 0, "track": 3, "qtime": 47, "isDrum": false}, {"time": 95, "velocity": 0, "pitch": 69, "instrument": 0, "track": 3, "qtime": 47, "isDrum": false}, {"time": 120, "velocity": 108, "pitch": 52, "instrument": 0, "track": 3, "qtime": 24, "isDrum": false}, {"time": 120, "velocity": 108, "pitch": 58, "instrument": 0, "track": 3, "qtime": 24, "isDrum": false}, {"time": 120, "velocity": 108, "pitch": 63, "instrument": 0, "track": 3, "qtime": 24, "isDrum": false}, {"time": 120, "velocity": 108, "pitch": 67, "instrument": 0, "track": 3, "qtime": 24, "isDrum": false}, {"time": 120, "velocity": 108, "pitch": 72, "instrument": 0, "track": 3, "qtime": 24, "isDrum": false}, {"time": 126, "velocity": 0, "pitch": 52, "instrument": 0, "track": 3, "qtime": 30, "isDrum": false}, {"time": 126, "velocity": 0, "pitch": 58, "instrument": 0, "track": 3, "qtime": 30, "isDrum": false}, {"time": 126, "velocity": 0, "pitch": 63, "instrument": 0, "track": 3, "qtime": 30, "isDrum": false}, {"time": 126, "velocity": 0, "pitch": 67, "instrument": 0, "track": 3, "qtime": 30, "isDrum": false}, {"time": 126, "velocity": 0, "pitch": 72, "instrument": 0, "track": 3, "qtime": 30, "isDrum": false}, {"time": 168, "velocity": 108, "pitch": 55, "instrument": 0, "track": 3, "qtime": 24, "isDrum": false}, {"time": 168, "velocity": 108, "pitch": 58, "instrument": 0, "track": 3, "qtime": 24, "isDrum": false}, {"time": 168, "velocity": 108, "pitch": 63, "instrument": 0, "track": 3, "qtime": 24, "isDrum": false}, {"time": 168, "velocity": 108, "pitch": 67, "instrument": 0, "track": 3, "qtime": 24, "isDrum": false}, {"time": 168, "velocity": 108, "pitch": 72, "instrument": 0, "track": 3, "qtime": 24, "isDrum": false}, {"time": 174, "velocity": 0, "pitch": 55, "instrument": 0, "track": 3, "qtime": 30, "isDrum": false}, {"time": 174, "velocity": 0, "pitch": 58, "instrument": 0, "track": 3, "qtime": 30, "isDrum": false}, {"time": 174, "velocity": 0, "pitch": 67, "instrument": 0, "track": 3, "qtime": 30, "isDrum": false}, {"time": 175, "velocity": 0, "pitch": 63, "instrument": 0, "track": 3, "qtime": 31, "isDrum": false}, {"time": 175, "velocity": 0, "pitch": 72, "instrument": 0, "track": 3, "qtime": 31, "isDrum": false}, {"time": 176, "velocity": 108, "pitch": 48, "instrument": 0, "track": 3, "qtime": 32, "isDrum": false}, {"time": 177, "velocity": 0, "pitch": 48, "instrument": 0, "track": 3, "qtime": 33, "isDrum": false}, {"time": 180, "velocity": 108, "pitch": 55, "instrument": 0, "track": 3, "qtime": 36, "isDrum": false}, {"time": 180, "velocity": 108, "pitch": 58, "instrument": 0, "track": 3, "qtime": 36, "isDrum": false}, {"time": 180, "velocity": 108, "pitch": 63, "instrument": 0, "track": 3, "qtime": 36, "isDrum": false}, {"time": 180, "velocity": 108, "pitch": 67, "instrument": 0, "track": 3, "qtime": 36, "isDrum": false}, {"time": 180, "velocity": 108, "pitch": 72, "instrument": 0, "track": 3, "qtime": 36, "isDrum": false}, {"time": 184, "velocity": 0, "pitch": 55, "instrument": 0, "track": 3, "qtime": 40, "isDrum": false}, {"time": 184, "velocity": 0, "pitch": 67, "instrument": 0, "track": 3, "qtime": 40, "isDrum": false}, {"time": 185, "velocity": 0, "pitch": 58, "instrument": 0, "track": 3, "qtime": 41, "isDrum": false}, {"time": 185, "velocity": 0, "pitch": 63, "instrument": 0, "track": 3, "qtime": 41, "isDrum": false}, {"time": 185, "velocity": 0, "pitch": 72, "instrument": 0, "track": 3, "qtime": 41, "isDrum": false}], "resolution": 12, "tempo": 252, "minPitch": 24, "maxPitch": 74, "validSegments": [0], "validTracks": [15]}, "audio": "https://www.sfu.ca/~jeffe/examples/stem_0_medium.mp3"}, {"src": "gen/stem_0_medium_high.json", "highlights": [[], [], [], [0, 1, 2, 3]], "caption": "Resample the piano track in 21a with medium-high density.", "sample_id": "21e", "mixer": [8, 8, 8, 8], "tempo": 252, "json": {"tracks": [{"bars": [{"events": [0, 1, 2, 3, 4, 5, 6, 7, 8, 9, 10, 11, 12, 13, 14, 15, 16, 17, 18, 19, 20, 21, 22, 23, 24], "isFourFour": true, "hasNotes": true, "time": 0}, {"events": [25, 26, 27, 28, 29, 30, 31, 32, 33, 34, 35, 36, 37, 38, 39, 40, 41, 42, 43, 44, 45, 46, 47, 48, 49, 50, 51, 52, 53, 54], "isFourFour": true, "hasNotes": true, "time": 48}, {"events": [55, 56, 57, 58, 59, 60, 61, 62, 63, 64, 65, 66, 67, 68, 69, 70, 71, 72, 73, 74, 75, 76, 77, 78, 79, 80, 81, 82, 83, 84], "isFourFour": true, "hasNotes": true, "time": 96}, {"events": [85, 86, 87, 88, 89, 90, 91, 92, 93, 94, 95, 96, 97, 98, 99, 100, 101, 102, 103, 104, 105, 106, 107, 108, 109, 110, 111, 112, 113, 114, 115, 116, 117, 118, 119], "isFourFour": true, "hasNotes": true, "time": 144}], "isDrum": true, "minPitch": 35, "maxPitch": 57, "instrument": 32, "avPolyphony": 2.21519, "noteDensity": 9, "noteDensityV2": 6}, {"bars": [{"events": [120, 121, 122, 123, 124, 125, 126, 127, 128, 129, 130, 131, 132, 133], "isFourFour": true, "hasNotes": true, "time": 0}, {"events": [134, 135, 136, 137, 138, 139, 140, 141, 142, 143, 144, 145, 146, 147], "isFourFour": true, "hasNotes": true, "time": 48}, {"events": [148, 149, 150, 151, 152, 153, 154, 155, 156, 157, 158, 159, 160, 161], "isFourFour": true, "hasNotes": true, "time": 96}, {"events": [162, 163, 164, 165, 166, 167, 168, 169, 170, 171, 172, 173], "isFourFour": true, "hasNotes": true, "time": 144}], "isDrum": false, "minPitch": 24, "maxPitch": 51, "instrument": 32, "avPolyphony": 1.0118343, "noteDensity": 8, "noteDensityV2": 8}, {"bars": [{"events": [174, 175, 176, 177, 178, 179, 180], "isFourFour": true, "hasNotes": true, "time": 0}, {"events": [181, 182, 183], "isFourFour": true, "hasNotes": true, "time": 48}, {"events": [184, 185, 186, 187, 188, 189], "isFourFour": true, "hasNotes": true, "time": 96}, {"events": [190, 191], "isFourFour": true, "hasNotes": true, "time": 144}], "isDrum": false, "minPitch": 61, "maxPitch": 72, "instrument": 65, "avPolyphony": 1, "noteDensity": 1, "noteDensityV2": 1}, {"bars": [{"events": [192, 193, 194, 195, 196, 197, 198, 199, 200, 201, 202, 203, 204, 205, 206, 207, 208, 209, 210, 211, 212, 213, 214, 215, 216, 217, 218, 219, 220, 221], "isFourFour": true, "hasNotes": true, "time": 0}, {"events": [222, 223, 224, 225, 226, 227, 228, 229, 230, 231, 232, 233, 234, 235, 236, 237, 238, 239, 240, 241, 242, 243, 244, 245], "isFourFour": true, "hasNotes": true, "time": 48}, {"events": [246, 247, 248, 249, 250, 251, 252, 253, 254, 255, 256, 257, 258, 259, 260, 261, 262, 263, 264, 265], "isFourFour": true, "hasNotes": true, "time": 96}, {"events": [266, 267, 268, 269, 270, 271, 272, 273, 274, 275, 276, 277, 278, 279, 280, 281, 282, 283, 284, 285, 286, 287, 288, 289, 290, 291, 292, 293, 294, 295, 296, 297], "isFourFour": true, "hasNotes": true, "time": 144}], "isDrum": false, "minPitch": 17, "maxPitch": 77, "instrument": 0, "avPolyphony": 4.0493827, "noteDensity": 9, "noteDensityV2": 8}], "events": [{"time": 0, "velocity": 108, "pitch": 38, "instrument": 32, "track": 9, "qtime": 0, "isDrum": true}, {"time": 0, "velocity": 108, "pitch": 42, "instrument": 32, "track": 9, "qtime": 0, "isDrum": true}, {"time": 0, "velocity": 108, "pitch": 51, "instrument": 32, "track": 9, "qtime": 0, "isDrum": true}, {"time": 3, "velocity": 0, "pitch": 38, "instrument": 32, "track": 9, "qtime": 3, "isDrum": true}, {"time": 3, "velocity": 0, "pitch": 42, "instrument": 32, "track": 9, "qtime": 3, "isDrum": true}, {"time": 3, "velocity": 0, "pitch": 51, "instrument": 32, "track": 9, "qtime": 3, "isDrum": true}, {"time": 12, "velocity": 108, "pitch": 42, "instrument": 32, "track": 9, "qtime": 12, "isDrum": true}, {"time": 12, "velocity": 108, "pitch": 51, "instrument": 32, "track": 9, "qtime": 12, "isDrum": true}, {"time": 15, "velocity": 0, "pitch": 42, "instrument": 32, "track": 9, "qtime": 15, "isDrum": true}, {"time": 15, "velocity": 0, "pitch": 51, "instrument": 32, "track": 9, "qtime": 15, "isDrum": true}, {"time": 21, "velocity": 108, "pitch": 51, "instrument": 32, "track": 9, "qtime": 21, "isDrum": true}, {"time": 23, "velocity": 0, "pitch": 51, "instrument": 32, "track": 9, "qtime": 23, "isDrum": true}, {"time": 24, "velocity": 108, "pitch": 42, "instrument": 32, "track": 9, "qtime": 24, "isDrum": true}, {"time": 24, "velocity": 108, "pitch": 51, "instrument": 32, "track": 9, "qtime": 24, "isDrum": true}, {"time": 27, "velocity": 0, "pitch": 42, "instrument": 32, "track": 9, "qtime": 27, "isDrum": true}, {"time": 27, "velocity": 0, "pitch": 51, "instrument": 32, "track": 9, "qtime": 27, "isDrum": true}, {"time": 36, "velocity": 108, "pitch": 38, "instrument": 32, "track": 9, "qtime": 36, "isDrum": true}, {"time": 36, "velocity": 108, "pitch": 42, "instrument": 32, "track": 9, "qtime": 36, "isDrum": true}, {"time": 36, "velocity": 108, "pitch": 51, "instrument": 32, "track": 9, "qtime": 36, "isDrum": true}, {"time": 39, "velocity": 0, "pitch": 38, "instrument": 32, "track": 9, "qtime": 39, "isDrum": true}, {"time": 39, "velocity": 0, "pitch": 42, "instrument": 32, "track": 9, "qtime": 39, "isDrum": true}, {"time": 39, "velocity": 0, "pitch": 51, "instrument": 32, "track": 9, "qtime": 39, "isDrum": true}, {"time": 45, "velocity": 108, "pitch": 51, "instrument": 32, "track": 9, "qtime": 45, "isDrum": true}, {"time": 47, "velocity": 0, "pitch": 49, "instrument": 32, "track": 9, "qtime": 47, "isDrum": true}, {"time": 47, "velocity": 0, "pitch": 51, "instrument": 32, "track": 9, "qtime": 47, "isDrum": true}, {"time": 48, "velocity": 108, "pitch": 35, "instrument": 32, "track": 9, "qtime": 0, "isDrum": true}, {"time": 48, "velocity": 108, "pitch": 42, "instrument": 32, "track": 9, "qtime": 0, "isDrum": true}, {"time": 48, "velocity": 108, "pitch": 51, "instrument": 32, "track": 9, "qtime": 0, "isDrum": true}, {"time": 51, "velocity": 0, "pitch": 35, "instrument": 32, "track": 9, "qtime": 3, "isDrum": true}, {"time": 51, "velocity": 0, "pitch": 42, "instrument": 32, "track": 9, "qtime": 3, "isDrum": true}, {"time": 51, "velocity": 0, "pitch": 51, "instrument": 32, "track": 9, "qtime": 3, "isDrum": true}, {"time": 60, "velocity": 108, "pitch": 35, "instrument": 32, "track": 9, "qtime": 12, "isDrum": true}, {"time": 60, "velocity": 108, "pitch": 38, "instrument": 32, "track": 9, "qtime": 12, "isDrum": true}, {"time": 60, "velocity": 108, "pitch": 42, "instrument": 32, "track": 9, "qtime": 12, "isDrum": true}, {"time": 60, "velocity": 108, "pitch": 51, "instrument": 32, "track": 9, "qtime": 12, "isDrum": true}, {"time": 63, "velocity": 0, "pitch": 35, "instrument": 32, "track": 9, "qtime": 15, "isDrum": true}, {"time": 63, "velocity": 0, "pitch": 38, "instrument": 32, "track": 9, "qtime": 15, "isDrum": true}, {"time": 63, "velocity": 0, "pitch": 42, "instrument": 32, "track": 9, "qtime": 15, "isDrum": true}, {"time": 63, "velocity": 0, "pitch": 51, "instrument": 32, "track": 9, "qtime": 15, "isDrum": true}, {"time": 68, "velocity": 108, "pitch": 51, "instrument": 32, "track": 9, "qtime": 20, "isDrum": true}, {"time": 71, "velocity": 0, "pitch": 51, "instrument": 32, "track": 9, "qtime": 23, "isDrum": true}, {"time": 72, "velocity": 108, "pitch": 42, "instrument": 32, "track": 9, "qtime": 24, "isDrum": true}, {"time": 72, "velocity": 108, "pitch": 51, "instrument": 32, "track": 9, "qtime": 24, "isDrum": true}, {"time": 75, "velocity": 0, "pitch": 42, "instrument": 32, "track": 9, "qtime": 27, "isDrum": true}, {"time": 75, "velocity": 0, "pitch": 51, "instrument": 32, "track": 9, "qtime": 27, "isDrum": true}, {"time": 84, "velocity": 108, "pitch": 35, "instrument": 32, "track": 9, "qtime": 36, "isDrum": true}, {"time": 84, "velocity": 108, "pitch": 38, "instrument": 32, "track": 9, "qtime": 36, "isDrum": true}, {"time": 84, "velocity": 108, "pitch": 42, "instrument": 32, "track": 9, "qtime": 36, "isDrum": true}, {"time": 84, "velocity": 108, "pitch": 51, "instrument": 32, "track": 9, "qtime": 36, "isDrum": true}, {"time": 87, "velocity": 0, "pitch": 35, "instrument": 32, "track": 9, "qtime": 39, "isDrum": true}, {"time": 87, "velocity": 0, "pitch": 38, "instrument": 32, "track": 9, "qtime": 39, "isDrum": true}, {"time": 87, "velocity": 0, "pitch": 42, "instrument": 32, "track": 9, "qtime": 39, "isDrum": true}, {"time": 87, "velocity": 0, "pitch": 51, "instrument": 32, "track": 9, "qtime": 39, "isDrum": true}, {"time": 92, "velocity": 108, "pitch": 51, "instrument": 32, "track": 9, "qtime": 44, "isDrum": true}, {"time": 95, "velocity": 0, "pitch": 51, "instrument": 32, "track": 9, "qtime": 47, "isDrum": true}, {"time": 96, "velocity": 108, "pitch": 38, "instrument": 32, "track": 9, "qtime": 0, "isDrum": true}, {"time": 96, "velocity": 108, "pitch": 42, "instrument": 32, "track": 9, "qtime": 0, "isDrum": true}, {"time": 96, "velocity": 108, "pitch": 51, "instrument": 32, "track": 9, "qtime": 0, "isDrum": true}, {"time": 99, "velocity": 0, "pitch": 38, "instrument": 32, "track": 9, "qtime": 3, "isDrum": true}, {"time": 99, "velocity": 0, "pitch": 42, "instrument": 32, "track": 9, "qtime": 3, "isDrum": true}, {"time": 99, "velocity": 0, "pitch": 51, "instrument": 32, "track": 9, "qtime": 3, "isDrum": true}, {"time": 104, "velocity": 108, "pitch": 35, "instrument": 32, "track": 9, "qtime": 8, "isDrum": true}, {"time": 104, "velocity": 108, "pitch": 51, "instrument": 32, "track": 9, "qtime": 8, "isDrum": true}, {"time": 107, "velocity": 0, "pitch": 35, "instrument": 32, "track": 9, "qtime": 11, "isDrum": true}, {"time": 107, "velocity": 0, "pitch": 51, "instrument": 32, "track": 9, "qtime": 11, "isDrum": true}, {"time": 108, "velocity": 108, "pitch": 35, "instrument": 32, "track": 9, "qtime": 12, "isDrum": true}, {"time": 108, "velocity": 108, "pitch": 42, "instrument": 32, "track": 9, "qtime": 12, "isDrum": true}, {"time": 108, "velocity": 108, "pitch": 51, "instrument": 32, "track": 9, "qtime": 12, "isDrum": true}, {"time": 111, "velocity": 0, "pitch": 35, "instrument": 32, "track": 9, "qtime": 15, "isDrum": true}, {"time": 111, "velocity": 0, "pitch": 42, "instrument": 32, "track": 9, "qtime": 15, "isDrum": true}, {"time": 111, "velocity": 0, "pitch": 51, "instrument": 32, "track": 9, "qtime": 15, "isDrum": true}, {"time": 116, "velocity": 108, "pitch": 38, "instrument": 32, "track": 9, "qtime": 20, "isDrum": true}, {"time": 119, "velocity": 0, "pitch": 38, "instrument": 32, "track": 9, "qtime": 23, "isDrum": true}, {"time": 120, "velocity": 108, "pitch": 42, "instrument": 32, "track": 9, "qtime": 24, "isDrum": true}, {"time": 120, "velocity": 108, "pitch": 51, "instrument": 32, "track": 9, "qtime": 24, "isDrum": true}, {"time": 123, "velocity": 0, "pitch": 42, "instrument": 32, "track": 9, "qtime": 27, "isDrum": true}, {"time": 123, "velocity": 0, "pitch": 51, "instrument": 32, "track": 9, "qtime": 27, "isDrum": true}, {"time": 132, "velocity": 108, "pitch": 38, "instrument": 32, "track": 9, "qtime": 36, "isDrum": true}, {"time": 132, "velocity": 108, "pitch": 42, "instrument": 32, "track": 9, "qtime": 36, "isDrum": true}, {"time": 132, "velocity": 108, "pitch": 51, "instrument": 32, "track": 9, "qtime": 36, "isDrum": true}, {"time": 135, "velocity": 0, "pitch": 38, "instrument": 32, "track": 9, "qtime": 39, "isDrum": true}, {"time": 135, "velocity": 0, "pitch": 42, "instrument": 32, "track": 9, "qtime": 39, "isDrum": true}, {"time": 135, "velocity": 0, "pitch": 51, "instrument": 32, "track": 9, "qtime": 39, "isDrum": true}, {"time": 140, "velocity": 108, "pitch": 51, "instrument": 32, "track": 9, "qtime": 44, "isDrum": true}, {"time": 143, "velocity": 0, "pitch": 51, "instrument": 32, "track": 9, "qtime": 47, "isDrum": true}, {"time": 144, "velocity": 108, "pitch": 42, "instrument": 32, "track": 9, "qtime": 0, "isDrum": true}, {"time": 144, "velocity": 108, "pitch": 51, "instrument": 32, "track": 9, "qtime": 0, "isDrum": true}, {"time": 147, "velocity": 0, "pitch": 42, "instrument": 32, "track": 9, "qtime": 3, "isDrum": true}, {"time": 147, "velocity": 0, "pitch": 51, "instrument": 32, "track": 9, "qtime": 3, "isDrum": true}, {"time": 152, "velocity": 108, "pitch": 38, "instrument": 32, "track": 9, "qtime": 8, "isDrum": true}, {"time": 155, "velocity": 0, "pitch": 38, "instrument": 32, "track": 9, "qtime": 11, "isDrum": true}, {"time": 156, "velocity": 108, "pitch": 42, "instrument": 32, "track": 9, "qtime": 12, "isDrum": true}, {"time": 156, "velocity": 108, "pitch": 51, "instrument": 32, "track": 9, "qtime": 12, "isDrum": true}, {"time": 159, "velocity": 0, "pitch": 42, "instrument": 32, "track": 9, "qtime": 15, "isDrum": true}, {"time": 159, "velocity": 0, "pitch": 51, "instrument": 32, "track": 9, "qtime": 15, "isDrum": true}, {"time": 164, "velocity": 108, "pitch": 38, "instrument": 32, "track": 9, "qtime": 20, "isDrum": true}, {"time": 164, "velocity": 108, "pitch": 51, "instrument": 32, "track": 9, "qtime": 20, "isDrum": true}, {"time": 167, "velocity": 0, "pitch": 38, "instrument": 32, "track": 9, "qtime": 23, "isDrum": true}, {"time": 167, "velocity": 0, "pitch": 51, "instrument": 32, "track": 9, "qtime": 23, "isDrum": true}, {"time": 168, "velocity": 108, "pitch": 35, "instrument": 32, "track": 9, "qtime": 24, "isDrum": true}, {"time": 168, "velocity": 108, "pitch": 38, "instrument": 32, "track": 9, "qtime": 24, "isDrum": true}, {"time": 168, "velocity": 108, "pitch": 42, "instrument": 32, "track": 9, "qtime": 24, "isDrum": true}, {"time": 168, "velocity": 108, "pitch": 51, "instrument": 32, "track": 9, "qtime": 24, "isDrum": true}, {"time": 171, "velocity": 0, "pitch": 35, "instrument": 32, "track": 9, "qtime": 27, "isDrum": true}, {"time": 171, "velocity": 0, "pitch": 38, "instrument": 32, "track": 9, "qtime": 27, "isDrum": true}, {"time": 171, "velocity": 0, "pitch": 42, "instrument": 32, "track": 9, "qtime": 27, "isDrum": true}, {"time": 171, "velocity": 0, "pitch": 51, "instrument": 32, "track": 9, "qtime": 27, "isDrum": true}, {"time": 176, "velocity": 108, "pitch": 38, "instrument": 32, "track": 9, "qtime": 32, "isDrum": true}, {"time": 179, "velocity": 0, "pitch": 38, "instrument": 32, "track": 9, "qtime": 35, "isDrum": true}, {"time": 180, "velocity": 108, "pitch": 42, "instrument": 32, "track": 9, "qtime": 36, "isDrum": true}, {"time": 180, "velocity": 108, "pitch": 51, "instrument": 32, "track": 9, "qtime": 36, "isDrum": true}, {"time": 183, "velocity": 0, "pitch": 42, "instrument": 32, "track": 9, "qtime": 39, "isDrum": true}, {"time": 183, "velocity": 0, "pitch": 51, "instrument": 32, "track": 9, "qtime": 39, "isDrum": true}, {"time": 188, "velocity": 108, "pitch": 35, "instrument": 32, "track": 9, "qtime": 44, "isDrum": true}, {"time": 188, "velocity": 108, "pitch": 38, "instrument": 32, "track": 9, "qtime": 44, "isDrum": true}, {"time": 188, "velocity": 108, "pitch": 51, "instrument": 32, "track": 9, "qtime": 44, "isDrum": true}, {"time": 188, "velocity": 108, "pitch": 57, "instrument": 32, "track": 9, "qtime": 44, "isDrum": true}, {"time": 191, "velocity": 0, "pitch": 35, "instrument": 32, "track": 9, "qtime": 47, "isDrum": true}, {"time": 191, "velocity": 0, "pitch": 38, "instrument": 32, "track": 9, "qtime": 47, "isDrum": true}, {"time": 191, "velocity": 0, "pitch": 51, "instrument": 32, "track": 9, "qtime": 47, "isDrum": true}, {"time": 0, "velocity": 108, "pitch": 44, "instrument": 32, "track": 1, "qtime": 0, "isDrum": false}, {"time": 8, "velocity": 108, "pitch": 32, "instrument": 32, "track": 1, "qtime": 8, "isDrum": false}, {"time": 10, "velocity": 0, "pitch": 32, "instrument": 32, "track": 1, "qtime": 10, "isDrum": false}, {"time": 10, "velocity": 0, "pitch": 44, "instrument": 32, "track": 1, "qtime": 10, "isDrum": false}, {"time": 12, "velocity": 108, "pitch": 51, "instrument": 32, "track": 1, "qtime": 12, "isDrum": false}, {"time": 24, "velocity": 0, "pitch": 51, "instrument": 32, "track": 1, "qtime": 24, "isDrum": false}, {"time": 24, "velocity": 108, "pitch": 48, "instrument": 32, "track": 1, "qtime": 24, "isDrum": false}, {"time": 32, "velocity": 0, "pitch": 48, "instrument": 32, "track": 1, "qtime": 32, "isDrum": false}, {"time": 32, "velocity": 108, "pitch": 32, "instrument": 32, "track": 1, "qtime": 32, "isDrum": false}, {"time": 34, "velocity": 0, "pitch": 32, "instrument": 32, "track": 1, "qtime": 34, "isDrum": false}, {"time": 36, "velocity": 108, "pitch": 44, "instrument": 32, "track": 1, "qtime": 36, "isDrum": false}, {"time": 44, "velocity": 0, "pitch": 44, "instrument": 32, "track": 1, "qtime": 44, "isDrum": false}, {"time": 44, "velocity": 108, "pitch": 32, "instrument": 32, "track": 1, "qtime": 44, "isDrum": false}, {"time": 45, "velocity": 0, "pitch": 32, "instrument": 32, "track": 1, "qtime": 45, "isDrum": false}, {"time": 48, "velocity": 108, "pitch": 43, "instrument": 32, "track": 1, "qtime": 0, "isDrum": false}, {"time": 56, "velocity": 0, "pitch": 43, "instrument": 32, "track": 1, "qtime": 8, "isDrum": false}, {"time": 56, "velocity": 108, "pitch": 31, "instrument": 32, "track": 1, "qtime": 8, "isDrum": false}, {"time": 57, "velocity": 0, "pitch": 31, "instrument": 32, "track": 1, "qtime": 9, "isDrum": false}, {"time": 60, "velocity": 108, "pitch": 38, "instrument": 32, "track": 1, "qtime": 12, "isDrum": false}, {"time": 72, "velocity": 0, "pitch": 38, "instrument": 32, "track": 1, "qtime": 24, "isDrum": false}, {"time": 72, "velocity": 108, "pitch": 43, "instrument": 32, "track": 1, "qtime": 24, "isDrum": false}, {"time": 80, "velocity": 0, "pitch": 43, "instrument": 32, "track": 1, "qtime": 32, "isDrum": false}, {"time": 80, "velocity": 108, "pitch": 43, "instrument": 32, "track": 1, "qtime": 32, "isDrum": false}, {"time": 84, "velocity": 0, "pitch": 43, "instrument": 32, "track": 1, "qtime": 36, "isDrum": false}, {"time": 84, "velocity": 108, "pitch": 37, "instrument": 32, "track": 1, "qtime": 36, "isDrum": false}, {"time": 92, "velocity": 0, "pitch": 37, "instrument": 32, "track": 1, "qtime": 44, "isDrum": false}, {"time": 92, "velocity": 108, "pitch": 25, "instrument": 32, "track": 1, "qtime": 44, "isDrum": false}, {"time": 93, "velocity": 0, "pitch": 25, "instrument": 32, "track": 1, "qtime": 45, "isDrum": false}, {"time": 96, "velocity": 108, "pitch": 36, "instrument": 32, "track": 1, "qtime": 0, "isDrum": false}, {"time": 108, "velocity": 0, "pitch": 36, "instrument": 32, "track": 1, "qtime": 12, "isDrum": false}, {"time": 108, "velocity": 108, "pitch": 50, "instrument": 32, "track": 1, "qtime": 12, "isDrum": false}, {"time": 116, "velocity": 0, "pitch": 50, "instrument": 32, "track": 1, "qtime": 20, "isDrum": false}, {"time": 116, "velocity": 108, "pitch": 24, "instrument": 32, "track": 1, "qtime": 20, "isDrum": false}, {"time": 118, "velocity": 0, "pitch": 24, "instrument": 32, "track": 1, "qtime": 22, "isDrum": false}, {"time": 120, "velocity": 108, "pitch": 36, "instrument": 32, "track": 1, "qtime": 24, "isDrum": false}, {"time": 128, "velocity": 0, "pitch": 36, "instrument": 32, "track": 1, "qtime": 32, "isDrum": false}, {"time": 128, "velocity": 108, "pitch": 36, "instrument": 32, "track": 1, "qtime": 32, "isDrum": false}, {"time": 132, "velocity": 0, "pitch": 36, "instrument": 32, "track": 1, "qtime": 36, "isDrum": false}, {"time": 132, "velocity": 108, "pitch": 36, "instrument": 32, "track": 1, "qtime": 36, "isDrum": false}, {"time": 140, "velocity": 0, "pitch": 36, "instrument": 32, "track": 1, "qtime": 44, "isDrum": false}, {"time": 140, "velocity": 108, "pitch": 24, "instrument": 32, "track": 1, "qtime": 44, "isDrum": false}, {"time": 141, "velocity": 0, "pitch": 24, "instrument": 32, "track": 1, "qtime": 45, "isDrum": false}, {"time": 144, "velocity": 108, "pitch": 41, "instrument": 32, "track": 1, "qtime": 0, "isDrum": false}, {"time": 152, "velocity": 0, "pitch": 41, "instrument": 32, "track": 1, "qtime": 8, "isDrum": false}, {"time": 152, "velocity": 108, "pitch": 29, "instrument": 32, "track": 1, "qtime": 8, "isDrum": false}, {"time": 154, "velocity": 0, "pitch": 29, "instrument": 32, "track": 1, "qtime": 10, "isDrum": false}, {"time": 156, "velocity": 108, "pitch": 33, "instrument": 32, "track": 1, "qtime": 12, "isDrum": false}, {"time": 168, "velocity": 0, "pitch": 33, "instrument": 32, "track": 1, "qtime": 24, "isDrum": false}, {"time": 168, "velocity": 108, "pitch": 36, "instrument": 32, "track": 1, "qtime": 24, "isDrum": false}, {"time": 180, "velocity": 0, "pitch": 36, "instrument": 32, "track": 1, "qtime": 36, "isDrum": false}, {"time": 180, "velocity": 108, "pitch": 41, "instrument": 32, "track": 1, "qtime": 36, "isDrum": false}, {"time": 188, "velocity": 0, "pitch": 41, "instrument": 32, "track": 1, "qtime": 44, "isDrum": false}, {"time": 188, "velocity": 108, "pitch": 29, "instrument": 32, "track": 1, "qtime": 44, "isDrum": false}, {"time": 189, "velocity": 0, "pitch": 29, "instrument": 32, "track": 1, "qtime": 45, "isDrum": false}, {"time": 20, "velocity": 108, "pitch": 62, "instrument": 65, "track": 2, "qtime": 20, "isDrum": false}, {"time": 24, "velocity": 0, "pitch": 62, "instrument": 65, "track": 2, "qtime": 24, "isDrum": false}, {"time": 24, "velocity": 108, "pitch": 61, "instrument": 65, "track": 2, "qtime": 24, "isDrum": false}, {"time": 31, "velocity": 0, "pitch": 61, "instrument": 65, "track": 2, "qtime": 31, "isDrum": false}, {"time": 32, "velocity": 108, "pitch": 62, "instrument": 65, "track": 2, "qtime": 32, "isDrum": false}, {"time": 35, "velocity": 0, "pitch": 62, "instrument": 65, "track": 2, "qtime": 35, "isDrum": false}, {"time": 44, "velocity": 108, "pitch": 72, "instrument": 65, "track": 2, "qtime": 44, "isDrum": false}, {"time": 83, "velocity": 0, "pitch": 72, "instrument": 65, "track": 2, "qtime": 35, "isDrum": false}, {"time": 84, "velocity": 108, "pitch": 71, "instrument": 65, "track": 2, "qtime": 36, "isDrum": false}, {"time": 89, "velocity": 0, "pitch": 71, "instrument": 65, "track": 2, "qtime": 41, "isDrum": false}, {"time": 96, "velocity": 108, "pitch": 70, "instrument": 65, "track": 2, "qtime": 0, "isDrum": false}, {"time": 115, "velocity": 0, "pitch": 70, "instrument": 65, "track": 2, "qtime": 19, "isDrum": false}, {"time": 116, "velocity": 108, "pitch": 67, "instrument": 65, "track": 2, "qtime": 20, "isDrum": false}, {"time": 131, "velocity": 0, "pitch": 67, "instrument": 65, "track": 2, "qtime": 35, "isDrum": false}, {"time": 132, "velocity": 108, "pitch": 69, "instrument": 65, "track": 2, "qtime": 36, "isDrum": false}, {"time": 137, "velocity": 0, "pitch": 69, "instrument": 65, "track": 2, "qtime": 41, "isDrum": false}, {"time": 144, "velocity": 108, "pitch": 65, "instrument": 65, "track": 2, "qtime": 0, "isDrum": false}, {"time": 191, "velocity": 0, "pitch": 65, "instrument": 65, "track": 2, "qtime": 47, "isDrum": false}, {"time": 8, "velocity": 108, "pitch": 41, "instrument": 0, "track": 3, "qtime": 8, "isDrum": false}, {"time": 8, "velocity": 108, "pitch": 65, "instrument": 0, "track": 3, "qtime": 8, "isDrum": false}, {"time": 8, "velocity": 108, "pitch": 77, "instrument": 0, "track": 3, "qtime": 8, "isDrum": false}, {"time": 14, "velocity": 0, "pitch": 41, "instrument": 0, "track": 3, "qtime": 14, "isDrum": false}, {"time": 14, "velocity": 0, "pitch": 65, "instrument": 0, "track": 3, "qtime": 14, "isDrum": false}, {"time": 14, "velocity": 0, "pitch": 77, "instrument": 0, "track": 3, "qtime": 14, "isDrum": false}, {"time": 20, "velocity": 108, "pitch": 39, "instrument": 0, "track": 3, "qtime": 20, "isDrum": false}, {"time": 20, "velocity": 108, "pitch": 63, "instrument": 0, "track": 3, "qtime": 20, "isDrum": false}, {"time": 20, "velocity": 108, "pitch": 75, "instrument": 0, "track": 3, "qtime": 20, "isDrum": false}, {"time": 26, "velocity": 0, "pitch": 39, "instrument": 0, "track": 3, "qtime": 26, "isDrum": false}, {"time": 26, "velocity": 0, "pitch": 63, "instrument": 0, "track": 3, "qtime": 26, "isDrum": false}, {"time": 26, "velocity": 0, "pitch": 75, "instrument": 0, "track": 3, "qtime": 26, "isDrum": false}, {"time": 32, "velocity": 108, "pitch": 36, "instrument": 0, "track": 3, "qtime": 32, "isDrum": false}, {"time": 32, "velocity": 108, "pitch": 60, "instrument": 0, "track": 3, "qtime": 32, "isDrum": false}, {"time": 32, "velocity": 108, "pitch": 72, "instrument": 0, "track": 3, "qtime": 32, "isDrum": false}, {"time": 38, "velocity": 0, "pitch": 36, "instrument": 0, "track": 3, "qtime": 38, "isDrum": false}, {"time": 38, "velocity": 0, "pitch": 60, "instrument": 0, "track": 3, "qtime": 38, "isDrum": false}, {"time": 38, "velocity": 0, "pitch": 72, "instrument": 0, "track": 3, "qtime": 38, "isDrum": false}, {"time": 44, "velocity": 108, "pitch": 34, "instrument": 0, "track": 3, "qtime": 44, "isDrum": false}, {"time": 44, "velocity": 108, "pitch": 46, "instrument": 0, "track": 3, "qtime": 44, "isDrum": false}, {"time": 44, "velocity": 108, "pitch": 58, "instrument": 0, "track": 3, "qtime": 44, "isDrum": false}, {"time": 44, "velocity": 108, "pitch": 65, "instrument": 0, "track": 3, "qtime": 44, "isDrum": false}, {"time": 44, "velocity": 108, "pitch": 67, "instrument": 0, "track": 3, "qtime": 44, "isDrum": false}, {"time": 44, "velocity": 108, "pitch": 70, "instrument": 0, "track": 3, "qtime": 44, "isDrum": false}, {"time": 46, "velocity": 0, "pitch": 34, "instrument": 0, "track": 3, "qtime": 46, "isDrum": false}, {"time": 46, "velocity": 0, "pitch": 46, "instrument": 0, "track": 3, "qtime": 46, "isDrum": false}, {"time": 46, "velocity": 0, "pitch": 58, "instrument": 0, "track": 3, "qtime": 46, "isDrum": false}, {"time": 46, "velocity": 0, "pitch": 65, "instrument": 0, "track": 3, "qtime": 46, "isDrum": false}, {"time": 46, "velocity": 0, "pitch": 67, "instrument": 0, "track": 3, "qtime": 46, "isDrum": false}, {"time": 46, "velocity": 0, "pitch": 70, "instrument": 0, "track": 3, "qtime": 46, "isDrum": false}, {"time": 60, "velocity": 108, "pitch": 59, "instrument": 0, "track": 3, "qtime": 12, "isDrum": false}, {"time": 60, "velocity": 108, "pitch": 62, "instrument": 0, "track": 3, "qtime": 12, "isDrum": false}, {"time": 60, "velocity": 108, "pitch": 65, "instrument": 0, "track": 3, "qtime": 12, "isDrum": false}, {"time": 60, "velocity": 108, "pitch": 67, "instrument": 0, "track": 3, "qtime": 12, "isDrum": false}, {"time": 65, "velocity": 0, "pitch": 59, "instrument": 0, "track": 3, "qtime": 17, "isDrum": false}, {"time": 65, "velocity": 0, "pitch": 62, "instrument": 0, "track": 3, "qtime": 17, "isDrum": false}, {"time": 65, "velocity": 0, "pitch": 65, "instrument": 0, "track": 3, "qtime": 17, "isDrum": false}, {"time": 65, "velocity": 0, "pitch": 67, "instrument": 0, "track": 3, "qtime": 17, "isDrum": false}, {"time": 84, "velocity": 108, "pitch": 65, "instrument": 0, "track": 3, "qtime": 36, "isDrum": false}, {"time": 84, "velocity": 108, "pitch": 65, "instrument": 0, "track": 3, "qtime": 36, "isDrum": false}, {"time": 84, "velocity": 108, "pitch": 67, "instrument": 0, "track": 3, "qtime": 36, "isDrum": false}, {"time": 84, "velocity": 108, "pitch": 67, "instrument": 0, "track": 3, "qtime": 36, "isDrum": false}, {"time": 84, "velocity": 108, "pitch": 71, "instrument": 0, "track": 3, "qtime": 36, "isDrum": false}, {"time": 84, "velocity": 108, "pitch": 71, "instrument": 0, "track": 3, "qtime": 36, "isDrum": false}, {"time": 84, "velocity": 108, "pitch": 74, "instrument": 0, "track": 3, "qtime": 36, "isDrum": false}, {"time": 84, "velocity": 108, "pitch": 74, "instrument": 0, "track": 3, "qtime": 36, "isDrum": false}, {"time": 96, "velocity": 0, "pitch": 65, "instrument": 0, "track": 3, "qtime": 48, "isDrum": false}, {"time": 96, "velocity": 0, "pitch": 65, "instrument": 0, "track": 3, "qtime": 48, "isDrum": false}, {"time": 96, "velocity": 0, "pitch": 67, "instrument": 0, "track": 3, "qtime": 48, "isDrum": false}, {"time": 96, "velocity": 0, "pitch": 67, "instrument": 0, "track": 3, "qtime": 48, "isDrum": false}, {"time": 96, "velocity": 0, "pitch": 71, "instrument": 0, "track": 3, "qtime": 48, "isDrum": false}, {"time": 96, "velocity": 0, "pitch": 71, "instrument": 0, "track": 3, "qtime": 48, "isDrum": false}, {"time": 96, "velocity": 0, "pitch": 74, "instrument": 0, "track": 3, "qtime": 48, "isDrum": false}, {"time": 96, "velocity": 0, "pitch": 74, "instrument": 0, "track": 3, "qtime": 48, "isDrum": false}, {"time": 108, "velocity": 108, "pitch": 58, "instrument": 0, "track": 3, "qtime": 12, "isDrum": false}, {"time": 108, "velocity": 108, "pitch": 60, "instrument": 0, "track": 3, "qtime": 12, "isDrum": false}, {"time": 108, "velocity": 108, "pitch": 64, "instrument": 0, "track": 3, "qtime": 12, "isDrum": false}, {"time": 108, "velocity": 108, "pitch": 67, "instrument": 0, "track": 3, "qtime": 12, "isDrum": false}, {"time": 114, "velocity": 0, "pitch": 58, "instrument": 0, "track": 3, "qtime": 18, "isDrum": false}, {"time": 114, "velocity": 0, "pitch": 60, "instrument": 0, "track": 3, "qtime": 18, "isDrum": false}, {"time": 114, "velocity": 0, "pitch": 64, "instrument": 0, "track": 3, "qtime": 18, "isDrum": false}, {"time": 114, "velocity": 0, "pitch": 67, "instrument": 0, "track": 3, "qtime": 18, "isDrum": false}, {"time": 128, "velocity": 108, "pitch": 36, "instrument": 0, "track": 3, "qtime": 32, "isDrum": false}, {"time": 128, "velocity": 108, "pitch": 48, "instrument": 0, "track": 3, "qtime": 32, "isDrum": false}, {"time": 128, "velocity": 108, "pitch": 58, "instrument": 0, "track": 3, "qtime": 32, "isDrum": false}, {"time": 131, "velocity": 0, "pitch": 36, "instrument": 0, "track": 3, "qtime": 35, "isDrum": false}, {"time": 131, "velocity": 0, "pitch": 48, "instrument": 0, "track": 3, "qtime": 35, "isDrum": false}, {"time": 131, "velocity": 0, "pitch": 58, "instrument": 0, "track": 3, "qtime": 35, "isDrum": false}, {"time": 132, "velocity": 108, "pitch": 36, "instrument": 0, "track": 3, "qtime": 36, "isDrum": false}, {"time": 132, "velocity": 108, "pitch": 48, "instrument": 0, "track": 3, "qtime": 36, "isDrum": false}, {"time": 132, "velocity": 108, "pitch": 58, "instrument": 0, "track": 3, "qtime": 36, "isDrum": false}, {"time": 135, "velocity": 0, "pitch": 36, "instrument": 0, "track": 3, "qtime": 39, "isDrum": false}, {"time": 135, "velocity": 0, "pitch": 48, "instrument": 0, "track": 3, "qtime": 39, "isDrum": false}, {"time": 135, "velocity": 0, "pitch": 58, "instrument": 0, "track": 3, "qtime": 39, "isDrum": false}, {"time": 144, "velocity": 108, "pitch": 41, "instrument": 0, "track": 3, "qtime": 0, "isDrum": false}, {"time": 144, "velocity": 108, "pitch": 53, "instrument": 0, "track": 3, "qtime": 0, "isDrum": false}, {"time": 144, "velocity": 108, "pitch": 57, "instrument": 0, "track": 3, "qtime": 0, "isDrum": false}, {"time": 144, "velocity": 108, "pitch": 60, "instrument": 0, "track": 3, "qtime": 0, "isDrum": false}, {"time": 144, "velocity": 108, "pitch": 63, "instrument": 0, "track": 3, "qtime": 0, "isDrum": false}, {"time": 147, "velocity": 0, "pitch": 57, "instrument": 0, "track": 3, "qtime": 3, "isDrum": false}, {"time": 147, "velocity": 0, "pitch": 60, "instrument": 0, "track": 3, "qtime": 3, "isDrum": false}, {"time": 147, "velocity": 0, "pitch": 63, "instrument": 0, "track": 3, "qtime": 3, "isDrum": false}, {"time": 148, "velocity": 0, "pitch": 41, "instrument": 0, "track": 3, "qtime": 4, "isDrum": false}, {"time": 148, "velocity": 0, "pitch": 53, "instrument": 0, "track": 3, "qtime": 4, "isDrum": false}, {"time": 156, "velocity": 108, "pitch": 41, "instrument": 0, "track": 3, "qtime": 12, "isDrum": false}, {"time": 156, "velocity": 108, "pitch": 53, "instrument": 0, "track": 3, "qtime": 12, "isDrum": false}, {"time": 156, "velocity": 108, "pitch": 57, "instrument": 0, "track": 3, "qtime": 12, "isDrum": false}, {"time": 156, "velocity": 108, "pitch": 60, "instrument": 0, "track": 3, "qtime": 12, "isDrum": false}, {"time": 156, "velocity": 108, "pitch": 63, "instrument": 0, "track": 3, "qtime": 12, "isDrum": false}, {"time": 175, "velocity": 0, "pitch": 57, "instrument": 0, "track": 3, "qtime": 31, "isDrum": false}, {"time": 176, "velocity": 0, "pitch": 60, "instrument": 0, "track": 3, "qtime": 32, "isDrum": false}, {"time": 177, "velocity": 108, "pitch": 17, "instrument": 0, "track": 3, "qtime": 33, "isDrum": false}, {"time": 178, "velocity": 0, "pitch": 29, "instrument": 0, "track": 3, "qtime": 34, "isDrum": false}, {"time": 178, "velocity": 0, "pitch": 41, "instrument": 0, "track": 3, "qtime": 34, "isDrum": false}, {"time": 178, "velocity": 0, "pitch": 53, "instrument": 0, "track": 3, "qtime": 34, "isDrum": false}, {"time": 178, "velocity": 0, "pitch": 63, "instrument": 0, "track": 3, "qtime": 34, "isDrum": false}, {"time": 179, "velocity": 108, "pitch": 41, "instrument": 0, "track": 3, "qtime": 35, "isDrum": false}, {"time": 179, "velocity": 108, "pitch": 53, "instrument": 0, "track": 3, "qtime": 35, "isDrum": false}, {"time": 179, "velocity": 108, "pitch": 57, "instrument": 0, "track": 3, "qtime": 35, "isDrum": false}, {"time": 179, "velocity": 108, "pitch": 60, "instrument": 0, "track": 3, "qtime": 35, "isDrum": false}, {"time": 179, "velocity": 108, "pitch": 63, "instrument": 0, "track": 3, "qtime": 35, "isDrum": false}, {"time": 185, "velocity": 0, "pitch": 41, "instrument": 0, "track": 3, "qtime": 41, "isDrum": false}, {"time": 185, "velocity": 0, "pitch": 53, "instrument": 0, "track": 3, "qtime": 41, "isDrum": false}, {"time": 185, "velocity": 0, "pitch": 57, "instrument": 0, "track": 3, "qtime": 41, "isDrum": false}, {"time": 185, "velocity": 0, "pitch": 60, "instrument": 0, "track": 3, "qtime": 41, "isDrum": false}, {"time": 185, "velocity": 0, "pitch": 63, "instrument": 0, "track": 3, "qtime": 41, "isDrum": false}], "resolution": 12, "tempo": 252, "minPitch": 17, "maxPitch": 77, "validSegments": [0], "validTracks": [15]}, "audio": "https://www.sfu.ca/~jeffe/examples/stem_0_medium_high.mp3"}, {"src": "gen/stem_0_dense.json", "highlights": [[], [], [], [0, 1, 2, 3]], "caption": "Resample the piano track in 21a with high density.", "sample_id": "21f", "mixer": [8, 8, 8, 8], "tempo": 252, "json": {"tracks": [{"bars": [{"events": [0, 1, 2, 3, 4, 5, 6, 7, 8, 9, 10, 11, 12, 13, 14, 15, 16, 17, 18, 19, 20, 21, 22, 23, 24], "isFourFour": true, "hasNotes": true, "time": 0}, {"events": [25, 26, 27, 28, 29, 30, 31, 32, 33, 34, 35, 36, 37, 38, 39, 40, 41, 42, 43, 44, 45, 46, 47, 48, 49, 50, 51, 52, 53, 54], "isFourFour": true, "hasNotes": true, "time": 48}, {"events": [55, 56, 57, 58, 59, 60, 61, 62, 63, 64, 65, 66, 67, 68, 69, 70, 71, 72, 73, 74, 75, 76, 77, 78, 79, 80, 81, 82, 83, 84], "isFourFour": true, "hasNotes": true, "time": 96}, {"events": [85, 86, 87, 88, 89, 90, 91, 92, 93, 94, 95, 96, 97, 98, 99, 100, 101, 102, 103, 104, 105, 106, 107, 108, 109, 110, 111, 112, 113, 114, 115, 116, 117, 118, 119], "isFourFour": true, "hasNotes": true, "time": 144}], "isDrum": true, "minPitch": 35, "maxPitch": 57, "instrument": 32, "avPolyphony": 2.21519, "noteDensity": 9, "noteDensityV2": 6}, {"bars": [{"events": [120, 121, 122, 123, 124, 125, 126, 127, 128, 129, 130, 131, 132, 133], "isFourFour": true, "hasNotes": true, "time": 0}, {"events": [134, 135, 136, 137, 138, 139, 140, 141, 142, 143, 144, 145, 146, 147], "isFourFour": true, "hasNotes": true, "time": 48}, {"events": [148, 149, 150, 151, 152, 153, 154, 155, 156, 157, 158, 159, 160, 161], "isFourFour": true, "hasNotes": true, "time": 96}, {"events": [162, 163, 164, 165, 166, 167, 168, 169, 170, 171, 172, 173], "isFourFour": true, "hasNotes": true, "time": 144}], "isDrum": false, "minPitch": 24, "maxPitch": 51, "instrument": 32, "avPolyphony": 1.0118343, "noteDensity": 8, "noteDensityV2": 8}, {"bars": [{"events": [174, 175, 176, 177, 178, 179, 180], "isFourFour": true, "hasNotes": true, "time": 0}, {"events": [181, 182, 183], "isFourFour": true, "hasNotes": true, "time": 48}, {"events": [184, 185, 186, 187, 188, 189], "isFourFour": true, "hasNotes": true, "time": 96}, {"events": [190, 191], "isFourFour": true, "hasNotes": true, "time": 144}], "isDrum": false, "minPitch": 61, "maxPitch": 72, "instrument": 65, "avPolyphony": 1, "noteDensity": 1, "noteDensityV2": 1}, {"bars": [{"events": [192, 193, 194, 195, 196, 197, 198, 199, 200, 201, 202, 203, 204, 205, 206, 207, 208, 209, 210, 211, 212, 213, 214, 215, 216, 217, 218, 219, 220, 221, 222, 223, 224, 225, 226, 227], "isFourFour": true, "hasNotes": true, "time": 0}, {"events": [228, 229, 230, 231, 232, 233, 234, 235, 236, 237, 238, 239, 240, 241, 242, 243, 244, 245, 246, 247, 248, 249, 250, 251, 252, 253, 254, 255, 256, 257, 258, 259, 260, 261, 262, 263, 264, 265, 266, 267, 268, 269, 270, 271, 272, 273, 274, 275], "isFourFour": true, "hasNotes": true, "time": 48}, {"events": [276, 277, 278, 279, 280, 281, 282, 283, 284, 285, 286, 287, 288, 289, 290, 291, 292, 293, 294, 295, 296, 297, 298, 299, 300, 301, 302, 303, 304, 305, 306, 307, 308, 309, 310, 311, 312, 313, 314, 315], "isFourFour": true, "hasNotes": true, "time": 96}, {"events": [316, 317, 318, 319, 320, 321, 322, 323, 324, 325, 326, 327, 328, 329, 330, 331, 332, 333, 334, 335, 336, 337, 338, 339, 340, 341, 342, 343, 344, 345, 346, 347, 348, 349, 350, 351, 352, 353, 354, 355, 356, 357], "isFourFour": true, "hasNotes": true, "time": 144}], "isDrum": false, "minPitch": 31, "maxPitch": 67, "instrument": 0, "avPolyphony": 3.4552846, "noteDensity": 9, "noteDensityV2": 9}], "events": [{"time": 0, "velocity": 108, "pitch": 38, "instrument": 32, "track": 9, "qtime": 0, "isDrum": true}, {"time": 0, "velocity": 108, "pitch": 42, "instrument": 32, "track": 9, "qtime": 0, "isDrum": true}, {"time": 0, "velocity": 108, "pitch": 51, "instrument": 32, "track": 9, "qtime": 0, "isDrum": true}, {"time": 3, "velocity": 0, "pitch": 38, "instrument": 32, "track": 9, "qtime": 3, "isDrum": true}, {"time": 3, "velocity": 0, "pitch": 42, "instrument": 32, "track": 9, "qtime": 3, "isDrum": true}, {"time": 3, "velocity": 0, "pitch": 51, "instrument": 32, "track": 9, "qtime": 3, "isDrum": true}, {"time": 12, "velocity": 108, "pitch": 42, "instrument": 32, "track": 9, "qtime": 12, "isDrum": true}, {"time": 12, "velocity": 108, "pitch": 51, "instrument": 32, "track": 9, "qtime": 12, "isDrum": true}, {"time": 15, "velocity": 0, "pitch": 42, "instrument": 32, "track": 9, "qtime": 15, "isDrum": true}, {"time": 15, "velocity": 0, "pitch": 51, "instrument": 32, "track": 9, "qtime": 15, "isDrum": true}, {"time": 21, "velocity": 108, "pitch": 51, "instrument": 32, "track": 9, "qtime": 21, "isDrum": true}, {"time": 23, "velocity": 0, "pitch": 51, "instrument": 32, "track": 9, "qtime": 23, "isDrum": true}, {"time": 24, "velocity": 108, "pitch": 42, "instrument": 32, "track": 9, "qtime": 24, "isDrum": true}, {"time": 24, "velocity": 108, "pitch": 51, "instrument": 32, "track": 9, "qtime": 24, "isDrum": true}, {"time": 27, "velocity": 0, "pitch": 42, "instrument": 32, "track": 9, "qtime": 27, "isDrum": true}, {"time": 27, "velocity": 0, "pitch": 51, "instrument": 32, "track": 9, "qtime": 27, "isDrum": true}, {"time": 36, "velocity": 108, "pitch": 38, "instrument": 32, "track": 9, "qtime": 36, "isDrum": true}, {"time": 36, "velocity": 108, "pitch": 42, "instrument": 32, "track": 9, "qtime": 36, "isDrum": true}, {"time": 36, "velocity": 108, "pitch": 51, "instrument": 32, "track": 9, "qtime": 36, "isDrum": true}, {"time": 39, "velocity": 0, "pitch": 38, "instrument": 32, "track": 9, "qtime": 39, "isDrum": true}, {"time": 39, "velocity": 0, "pitch": 42, "instrument": 32, "track": 9, "qtime": 39, "isDrum": true}, {"time": 39, "velocity": 0, "pitch": 51, "instrument": 32, "track": 9, "qtime": 39, "isDrum": true}, {"time": 45, "velocity": 108, "pitch": 51, "instrument": 32, "track": 9, "qtime": 45, "isDrum": true}, {"time": 47, "velocity": 0, "pitch": 49, "instrument": 32, "track": 9, "qtime": 47, "isDrum": true}, {"time": 47, "velocity": 0, "pitch": 51, "instrument": 32, "track": 9, "qtime": 47, "isDrum": true}, {"time": 48, "velocity": 108, "pitch": 35, "instrument": 32, "track": 9, "qtime": 0, "isDrum": true}, {"time": 48, "velocity": 108, "pitch": 42, "instrument": 32, "track": 9, "qtime": 0, "isDrum": true}, {"time": 48, "velocity": 108, "pitch": 51, "instrument": 32, "track": 9, "qtime": 0, "isDrum": true}, {"time": 51, "velocity": 0, "pitch": 35, "instrument": 32, "track": 9, "qtime": 3, "isDrum": true}, {"time": 51, "velocity": 0, "pitch": 42, "instrument": 32, "track": 9, "qtime": 3, "isDrum": true}, {"time": 51, "velocity": 0, "pitch": 51, "instrument": 32, "track": 9, "qtime": 3, "isDrum": true}, {"time": 60, "velocity": 108, "pitch": 35, "instrument": 32, "track": 9, "qtime": 12, "isDrum": true}, {"time": 60, "velocity": 108, "pitch": 38, "instrument": 32, "track": 9, "qtime": 12, "isDrum": true}, {"time": 60, "velocity": 108, "pitch": 42, "instrument": 32, "track": 9, "qtime": 12, "isDrum": true}, {"time": 60, "velocity": 108, "pitch": 51, "instrument": 32, "track": 9, "qtime": 12, "isDrum": true}, {"time": 63, "velocity": 0, "pitch": 35, "instrument": 32, "track": 9, "qtime": 15, "isDrum": true}, {"time": 63, "velocity": 0, "pitch": 38, "instrument": 32, "track": 9, "qtime": 15, "isDrum": true}, {"time": 63, "velocity": 0, "pitch": 42, "instrument": 32, "track": 9, "qtime": 15, "isDrum": true}, {"time": 63, "velocity": 0, "pitch": 51, "instrument": 32, "track": 9, "qtime": 15, "isDrum": true}, {"time": 68, "velocity": 108, "pitch": 51, "instrument": 32, "track": 9, "qtime": 20, "isDrum": true}, {"time": 71, "velocity": 0, "pitch": 51, "instrument": 32, "track": 9, "qtime": 23, "isDrum": true}, {"time": 72, "velocity": 108, "pitch": 42, "instrument": 32, "track": 9, "qtime": 24, "isDrum": true}, {"time": 72, "velocity": 108, "pitch": 51, "instrument": 32, "track": 9, "qtime": 24, "isDrum": true}, {"time": 75, "velocity": 0, "pitch": 42, "instrument": 32, "track": 9, "qtime": 27, "isDrum": true}, {"time": 75, "velocity": 0, "pitch": 51, "instrument": 32, "track": 9, "qtime": 27, "isDrum": true}, {"time": 84, "velocity": 108, "pitch": 35, "instrument": 32, "track": 9, "qtime": 36, "isDrum": true}, {"time": 84, "velocity": 108, "pitch": 38, "instrument": 32, "track": 9, "qtime": 36, "isDrum": true}, {"time": 84, "velocity": 108, "pitch": 42, "instrument": 32, "track": 9, "qtime": 36, "isDrum": true}, {"time": 84, "velocity": 108, "pitch": 51, "instrument": 32, "track": 9, "qtime": 36, "isDrum": true}, {"time": 87, "velocity": 0, "pitch": 35, "instrument": 32, "track": 9, "qtime": 39, "isDrum": true}, {"time": 87, "velocity": 0, "pitch": 38, "instrument": 32, "track": 9, "qtime": 39, "isDrum": true}, {"time": 87, "velocity": 0, "pitch": 42, "instrument": 32, "track": 9, "qtime": 39, "isDrum": true}, {"time": 87, "velocity": 0, "pitch": 51, "instrument": 32, "track": 9, "qtime": 39, "isDrum": true}, {"time": 92, "velocity": 108, "pitch": 51, "instrument": 32, "track": 9, "qtime": 44, "isDrum": true}, {"time": 95, "velocity": 0, "pitch": 51, "instrument": 32, "track": 9, "qtime": 47, "isDrum": true}, {"time": 96, "velocity": 108, "pitch": 38, "instrument": 32, "track": 9, "qtime": 0, "isDrum": true}, {"time": 96, "velocity": 108, "pitch": 42, "instrument": 32, "track": 9, "qtime": 0, "isDrum": true}, {"time": 96, "velocity": 108, "pitch": 51, "instrument": 32, "track": 9, "qtime": 0, "isDrum": true}, {"time": 99, "velocity": 0, "pitch": 38, "instrument": 32, "track": 9, "qtime": 3, "isDrum": true}, {"time": 99, "velocity": 0, "pitch": 42, "instrument": 32, "track": 9, "qtime": 3, "isDrum": true}, {"time": 99, "velocity": 0, "pitch": 51, "instrument": 32, "track": 9, "qtime": 3, "isDrum": true}, {"time": 104, "velocity": 108, "pitch": 35, "instrument": 32, "track": 9, "qtime": 8, "isDrum": true}, {"time": 104, "velocity": 108, "pitch": 51, "instrument": 32, "track": 9, "qtime": 8, "isDrum": true}, {"time": 107, "velocity": 0, "pitch": 35, "instrument": 32, "track": 9, "qtime": 11, "isDrum": true}, {"time": 107, "velocity": 0, "pitch": 51, "instrument": 32, "track": 9, "qtime": 11, "isDrum": true}, {"time": 108, "velocity": 108, "pitch": 35, "instrument": 32, "track": 9, "qtime": 12, "isDrum": true}, {"time": 108, "velocity": 108, "pitch": 42, "instrument": 32, "track": 9, "qtime": 12, "isDrum": true}, {"time": 108, "velocity": 108, "pitch": 51, "instrument": 32, "track": 9, "qtime": 12, "isDrum": true}, {"time": 111, "velocity": 0, "pitch": 35, "instrument": 32, "track": 9, "qtime": 15, "isDrum": true}, {"time": 111, "velocity": 0, "pitch": 42, "instrument": 32, "track": 9, "qtime": 15, "isDrum": true}, {"time": 111, "velocity": 0, "pitch": 51, "instrument": 32, "track": 9, "qtime": 15, "isDrum": true}, {"time": 116, "velocity": 108, "pitch": 38, "instrument": 32, "track": 9, "qtime": 20, "isDrum": true}, {"time": 119, "velocity": 0, "pitch": 38, "instrument": 32, "track": 9, "qtime": 23, "isDrum": true}, {"time": 120, "velocity": 108, "pitch": 42, "instrument": 32, "track": 9, "qtime": 24, "isDrum": true}, {"time": 120, "velocity": 108, "pitch": 51, "instrument": 32, "track": 9, "qtime": 24, "isDrum": true}, {"time": 123, "velocity": 0, "pitch": 42, "instrument": 32, "track": 9, "qtime": 27, "isDrum": true}, {"time": 123, "velocity": 0, "pitch": 51, "instrument": 32, "track": 9, "qtime": 27, "isDrum": true}, {"time": 132, "velocity": 108, "pitch": 38, "instrument": 32, "track": 9, "qtime": 36, "isDrum": true}, {"time": 132, "velocity": 108, "pitch": 42, "instrument": 32, "track": 9, "qtime": 36, "isDrum": true}, {"time": 132, "velocity": 108, "pitch": 51, "instrument": 32, "track": 9, "qtime": 36, "isDrum": true}, {"time": 135, "velocity": 0, "pitch": 38, "instrument": 32, "track": 9, "qtime": 39, "isDrum": true}, {"time": 135, "velocity": 0, "pitch": 42, "instrument": 32, "track": 9, "qtime": 39, "isDrum": true}, {"time": 135, "velocity": 0, "pitch": 51, "instrument": 32, "track": 9, "qtime": 39, "isDrum": true}, {"time": 140, "velocity": 108, "pitch": 51, "instrument": 32, "track": 9, "qtime": 44, "isDrum": true}, {"time": 143, "velocity": 0, "pitch": 51, "instrument": 32, "track": 9, "qtime": 47, "isDrum": true}, {"time": 144, "velocity": 108, "pitch": 42, "instrument": 32, "track": 9, "qtime": 0, "isDrum": true}, {"time": 144, "velocity": 108, "pitch": 51, "instrument": 32, "track": 9, "qtime": 0, "isDrum": true}, {"time": 147, "velocity": 0, "pitch": 42, "instrument": 32, "track": 9, "qtime": 3, "isDrum": true}, {"time": 147, "velocity": 0, "pitch": 51, "instrument": 32, "track": 9, "qtime": 3, "isDrum": true}, {"time": 152, "velocity": 108, "pitch": 38, "instrument": 32, "track": 9, "qtime": 8, "isDrum": true}, {"time": 155, "velocity": 0, "pitch": 38, "instrument": 32, "track": 9, "qtime": 11, "isDrum": true}, {"time": 156, "velocity": 108, "pitch": 42, "instrument": 32, "track": 9, "qtime": 12, "isDrum": true}, {"time": 156, "velocity": 108, "pitch": 51, "instrument": 32, "track": 9, "qtime": 12, "isDrum": true}, {"time": 159, "velocity": 0, "pitch": 42, "instrument": 32, "track": 9, "qtime": 15, "isDrum": true}, {"time": 159, "velocity": 0, "pitch": 51, "instrument": 32, "track": 9, "qtime": 15, "isDrum": true}, {"time": 164, "velocity": 108, "pitch": 38, "instrument": 32, "track": 9, "qtime": 20, "isDrum": true}, {"time": 164, "velocity": 108, "pitch": 51, "instrument": 32, "track": 9, "qtime": 20, "isDrum": true}, {"time": 167, "velocity": 0, "pitch": 38, "instrument": 32, "track": 9, "qtime": 23, "isDrum": true}, {"time": 167, "velocity": 0, "pitch": 51, "instrument": 32, "track": 9, "qtime": 23, "isDrum": true}, {"time": 168, "velocity": 108, "pitch": 35, "instrument": 32, "track": 9, "qtime": 24, "isDrum": true}, {"time": 168, "velocity": 108, "pitch": 38, "instrument": 32, "track": 9, "qtime": 24, "isDrum": true}, {"time": 168, "velocity": 108, "pitch": 42, "instrument": 32, "track": 9, "qtime": 24, "isDrum": true}, {"time": 168, "velocity": 108, "pitch": 51, "instrument": 32, "track": 9, "qtime": 24, "isDrum": true}, {"time": 171, "velocity": 0, "pitch": 35, "instrument": 32, "track": 9, "qtime": 27, "isDrum": true}, {"time": 171, "velocity": 0, "pitch": 38, "instrument": 32, "track": 9, "qtime": 27, "isDrum": true}, {"time": 171, "velocity": 0, "pitch": 42, "instrument": 32, "track": 9, "qtime": 27, "isDrum": true}, {"time": 171, "velocity": 0, "pitch": 51, "instrument": 32, "track": 9, "qtime": 27, "isDrum": true}, {"time": 176, "velocity": 108, "pitch": 38, "instrument": 32, "track": 9, "qtime": 32, "isDrum": true}, {"time": 179, "velocity": 0, "pitch": 38, "instrument": 32, "track": 9, "qtime": 35, "isDrum": true}, {"time": 180, "velocity": 108, "pitch": 42, "instrument": 32, "track": 9, "qtime": 36, "isDrum": true}, {"time": 180, "velocity": 108, "pitch": 51, "instrument": 32, "track": 9, "qtime": 36, "isDrum": true}, {"time": 183, "velocity": 0, "pitch": 42, "instrument": 32, "track": 9, "qtime": 39, "isDrum": true}, {"time": 183, "velocity": 0, "pitch": 51, "instrument": 32, "track": 9, "qtime": 39, "isDrum": true}, {"time": 188, "velocity": 108, "pitch": 35, "instrument": 32, "track": 9, "qtime": 44, "isDrum": true}, {"time": 188, "velocity": 108, "pitch": 38, "instrument": 32, "track": 9, "qtime": 44, "isDrum": true}, {"time": 188, "velocity": 108, "pitch": 51, "instrument": 32, "track": 9, "qtime": 44, "isDrum": true}, {"time": 188, "velocity": 108, "pitch": 57, "instrument": 32, "track": 9, "qtime": 44, "isDrum": true}, {"time": 191, "velocity": 0, "pitch": 35, "instrument": 32, "track": 9, "qtime": 47, "isDrum": true}, {"time": 191, "velocity": 0, "pitch": 38, "instrument": 32, "track": 9, "qtime": 47, "isDrum": true}, {"time": 191, "velocity": 0, "pitch": 51, "instrument": 32, "track": 9, "qtime": 47, "isDrum": true}, {"time": 0, "velocity": 108, "pitch": 44, "instrument": 32, "track": 1, "qtime": 0, "isDrum": false}, {"time": 8, "velocity": 108, "pitch": 32, "instrument": 32, "track": 1, "qtime": 8, "isDrum": false}, {"time": 10, "velocity": 0, "pitch": 32, "instrument": 32, "track": 1, "qtime": 10, "isDrum": false}, {"time": 10, "velocity": 0, "pitch": 44, "instrument": 32, "track": 1, "qtime": 10, "isDrum": false}, {"time": 12, "velocity": 108, "pitch": 51, "instrument": 32, "track": 1, "qtime": 12, "isDrum": false}, {"time": 24, "velocity": 0, "pitch": 51, "instrument": 32, "track": 1, "qtime": 24, "isDrum": false}, {"time": 24, "velocity": 108, "pitch": 48, "instrument": 32, "track": 1, "qtime": 24, "isDrum": false}, {"time": 32, "velocity": 0, "pitch": 48, "instrument": 32, "track": 1, "qtime": 32, "isDrum": false}, {"time": 32, "velocity": 108, "pitch": 32, "instrument": 32, "track": 1, "qtime": 32, "isDrum": false}, {"time": 34, "velocity": 0, "pitch": 32, "instrument": 32, "track": 1, "qtime": 34, "isDrum": false}, {"time": 36, "velocity": 108, "pitch": 44, "instrument": 32, "track": 1, "qtime": 36, "isDrum": false}, {"time": 44, "velocity": 0, "pitch": 44, "instrument": 32, "track": 1, "qtime": 44, "isDrum": false}, {"time": 44, "velocity": 108, "pitch": 32, "instrument": 32, "track": 1, "qtime": 44, "isDrum": false}, {"time": 45, "velocity": 0, "pitch": 32, "instrument": 32, "track": 1, "qtime": 45, "isDrum": false}, {"time": 48, "velocity": 108, "pitch": 43, "instrument": 32, "track": 1, "qtime": 0, "isDrum": false}, {"time": 56, "velocity": 0, "pitch": 43, "instrument": 32, "track": 1, "qtime": 8, "isDrum": false}, {"time": 56, "velocity": 108, "pitch": 31, "instrument": 32, "track": 1, "qtime": 8, "isDrum": false}, {"time": 57, "velocity": 0, "pitch": 31, "instrument": 32, "track": 1, "qtime": 9, "isDrum": false}, {"time": 60, "velocity": 108, "pitch": 38, "instrument": 32, "track": 1, "qtime": 12, "isDrum": false}, {"time": 72, "velocity": 0, "pitch": 38, "instrument": 32, "track": 1, "qtime": 24, "isDrum": false}, {"time": 72, "velocity": 108, "pitch": 43, "instrument": 32, "track": 1, "qtime": 24, "isDrum": false}, {"time": 80, "velocity": 0, "pitch": 43, "instrument": 32, "track": 1, "qtime": 32, "isDrum": false}, {"time": 80, "velocity": 108, "pitch": 43, "instrument": 32, "track": 1, "qtime": 32, "isDrum": false}, {"time": 84, "velocity": 0, "pitch": 43, "instrument": 32, "track": 1, "qtime": 36, "isDrum": false}, {"time": 84, "velocity": 108, "pitch": 37, "instrument": 32, "track": 1, "qtime": 36, "isDrum": false}, {"time": 92, "velocity": 0, "pitch": 37, "instrument": 32, "track": 1, "qtime": 44, "isDrum": false}, {"time": 92, "velocity": 108, "pitch": 25, "instrument": 32, "track": 1, "qtime": 44, "isDrum": false}, {"time": 93, "velocity": 0, "pitch": 25, "instrument": 32, "track": 1, "qtime": 45, "isDrum": false}, {"time": 96, "velocity": 108, "pitch": 36, "instrument": 32, "track": 1, "qtime": 0, "isDrum": false}, {"time": 108, "velocity": 0, "pitch": 36, "instrument": 32, "track": 1, "qtime": 12, "isDrum": false}, {"time": 108, "velocity": 108, "pitch": 50, "instrument": 32, "track": 1, "qtime": 12, "isDrum": false}, {"time": 116, "velocity": 0, "pitch": 50, "instrument": 32, "track": 1, "qtime": 20, "isDrum": false}, {"time": 116, "velocity": 108, "pitch": 24, "instrument": 32, "track": 1, "qtime": 20, "isDrum": false}, {"time": 118, "velocity": 0, "pitch": 24, "instrument": 32, "track": 1, "qtime": 22, "isDrum": false}, {"time": 120, "velocity": 108, "pitch": 36, "instrument": 32, "track": 1, "qtime": 24, "isDrum": false}, {"time": 128, "velocity": 0, "pitch": 36, "instrument": 32, "track": 1, "qtime": 32, "isDrum": false}, {"time": 128, "velocity": 108, "pitch": 36, "instrument": 32, "track": 1, "qtime": 32, "isDrum": false}, {"time": 132, "velocity": 0, "pitch": 36, "instrument": 32, "track": 1, "qtime": 36, "isDrum": false}, {"time": 132, "velocity": 108, "pitch": 36, "instrument": 32, "track": 1, "qtime": 36, "isDrum": false}, {"time": 140, "velocity": 0, "pitch": 36, "instrument": 32, "track": 1, "qtime": 44, "isDrum": false}, {"time": 140, "velocity": 108, "pitch": 24, "instrument": 32, "track": 1, "qtime": 44, "isDrum": false}, {"time": 141, "velocity": 0, "pitch": 24, "instrument": 32, "track": 1, "qtime": 45, "isDrum": false}, {"time": 144, "velocity": 108, "pitch": 41, "instrument": 32, "track": 1, "qtime": 0, "isDrum": false}, {"time": 152, "velocity": 0, "pitch": 41, "instrument": 32, "track": 1, "qtime": 8, "isDrum": false}, {"time": 152, "velocity": 108, "pitch": 29, "instrument": 32, "track": 1, "qtime": 8, "isDrum": false}, {"time": 154, "velocity": 0, "pitch": 29, "instrument": 32, "track": 1, "qtime": 10, "isDrum": false}, {"time": 156, "velocity": 108, "pitch": 33, "instrument": 32, "track": 1, "qtime": 12, "isDrum": false}, {"time": 168, "velocity": 0, "pitch": 33, "instrument": 32, "track": 1, "qtime": 24, "isDrum": false}, {"time": 168, "velocity": 108, "pitch": 36, "instrument": 32, "track": 1, "qtime": 24, "isDrum": false}, {"time": 180, "velocity": 0, "pitch": 36, "instrument": 32, "track": 1, "qtime": 36, "isDrum": false}, {"time": 180, "velocity": 108, "pitch": 41, "instrument": 32, "track": 1, "qtime": 36, "isDrum": false}, {"time": 188, "velocity": 0, "pitch": 41, "instrument": 32, "track": 1, "qtime": 44, "isDrum": false}, {"time": 188, "velocity": 108, "pitch": 29, "instrument": 32, "track": 1, "qtime": 44, "isDrum": false}, {"time": 189, "velocity": 0, "pitch": 29, "instrument": 32, "track": 1, "qtime": 45, "isDrum": false}, {"time": 20, "velocity": 108, "pitch": 62, "instrument": 65, "track": 2, "qtime": 20, "isDrum": false}, {"time": 24, "velocity": 0, "pitch": 62, "instrument": 65, "track": 2, "qtime": 24, "isDrum": false}, {"time": 24, "velocity": 108, "pitch": 61, "instrument": 65, "track": 2, "qtime": 24, "isDrum": false}, {"time": 31, "velocity": 0, "pitch": 61, "instrument": 65, "track": 2, "qtime": 31, "isDrum": false}, {"time": 32, "velocity": 108, "pitch": 62, "instrument": 65, "track": 2, "qtime": 32, "isDrum": false}, {"time": 35, "velocity": 0, "pitch": 62, "instrument": 65, "track": 2, "qtime": 35, "isDrum": false}, {"time": 44, "velocity": 108, "pitch": 72, "instrument": 65, "track": 2, "qtime": 44, "isDrum": false}, {"time": 83, "velocity": 0, "pitch": 72, "instrument": 65, "track": 2, "qtime": 35, "isDrum": false}, {"time": 84, "velocity": 108, "pitch": 71, "instrument": 65, "track": 2, "qtime": 36, "isDrum": false}, {"time": 89, "velocity": 0, "pitch": 71, "instrument": 65, "track": 2, "qtime": 41, "isDrum": false}, {"time": 96, "velocity": 108, "pitch": 70, "instrument": 65, "track": 2, "qtime": 0, "isDrum": false}, {"time": 115, "velocity": 0, "pitch": 70, "instrument": 65, "track": 2, "qtime": 19, "isDrum": false}, {"time": 116, "velocity": 108, "pitch": 67, "instrument": 65, "track": 2, "qtime": 20, "isDrum": false}, {"time": 131, "velocity": 0, "pitch": 67, "instrument": 65, "track": 2, "qtime": 35, "isDrum": false}, {"time": 132, "velocity": 108, "pitch": 69, "instrument": 65, "track": 2, "qtime": 36, "isDrum": false}, {"time": 137, "velocity": 0, "pitch": 69, "instrument": 65, "track": 2, "qtime": 41, "isDrum": false}, {"time": 144, "velocity": 108, "pitch": 65, "instrument": 65, "track": 2, "qtime": 0, "isDrum": false}, {"time": 191, "velocity": 0, "pitch": 65, "instrument": 65, "track": 2, "qtime": 47, "isDrum": false}, {"time": 0, "velocity": 108, "pitch": 56, "instrument": 0, "track": 3, "qtime": 0, "isDrum": false}, {"time": 0, "velocity": 108, "pitch": 60, "instrument": 0, "track": 3, "qtime": 0, "isDrum": false}, {"time": 0, "velocity": 108, "pitch": 63, "instrument": 0, "track": 3, "qtime": 0, "isDrum": false}, {"time": 1, "velocity": 108, "pitch": 32, "instrument": 0, "track": 3, "qtime": 1, "isDrum": false}, {"time": 9, "velocity": 0, "pitch": 56, "instrument": 0, "track": 3, "qtime": 9, "isDrum": false}, {"time": 9, "velocity": 0, "pitch": 60, "instrument": 0, "track": 3, "qtime": 9, "isDrum": false}, {"time": 9, "velocity": 0, "pitch": 63, "instrument": 0, "track": 3, "qtime": 9, "isDrum": false}, {"time": 10, "velocity": 0, "pitch": 32, "instrument": 0, "track": 3, "qtime": 10, "isDrum": false}, {"time": 12, "velocity": 108, "pitch": 32, "instrument": 0, "track": 3, "qtime": 12, "isDrum": false}, {"time": 12, "velocity": 108, "pitch": 56, "instrument": 0, "track": 3, "qtime": 12, "isDrum": false}, {"time": 12, "velocity": 108, "pitch": 60, "instrument": 0, "track": 3, "qtime": 12, "isDrum": false}, {"time": 12, "velocity": 108, "pitch": 63, "instrument": 0, "track": 3, "qtime": 12, "isDrum": false}, {"time": 15, "velocity": 0, "pitch": 32, "instrument": 0, "track": 3, "qtime": 15, "isDrum": false}, {"time": 15, "velocity": 0, "pitch": 60, "instrument": 0, "track": 3, "qtime": 15, "isDrum": false}, {"time": 16, "velocity": 0, "pitch": 56, "instrument": 0, "track": 3, "qtime": 16, "isDrum": false}, {"time": 16, "velocity": 0, "pitch": 63, "instrument": 0, "track": 3, "qtime": 16, "isDrum": false}, {"time": 21, "velocity": 108, "pitch": 32, "instrument": 0, "track": 3, "qtime": 21, "isDrum": false}, {"time": 24, "velocity": 0, "pitch": 32, "instrument": 0, "track": 3, "qtime": 24, "isDrum": false}, {"time": 24, "velocity": 108, "pitch": 56, "instrument": 0, "track": 3, "qtime": 24, "isDrum": false}, {"time": 24, "velocity": 108, "pitch": 60, "instrument": 0, "track": 3, "qtime": 24, "isDrum": false}, {"time": 24, "velocity": 108, "pitch": 63, "instrument": 0, "track": 3, "qtime": 24, "isDrum": false}, {"time": 25, "velocity": 108, "pitch": 32, "instrument": 0, "track": 3, "qtime": 25, "isDrum": false}, {"time": 32, "velocity": 0, "pitch": 56, "instrument": 0, "track": 3, "qtime": 32, "isDrum": false}, {"time": 32, "velocity": 0, "pitch": 60, "instrument": 0, "track": 3, "qtime": 32, "isDrum": false}, {"time": 32, "velocity": 0, "pitch": 63, "instrument": 0, "track": 3, "qtime": 32, "isDrum": false}, {"time": 33, "velocity": 0, "pitch": 32, "instrument": 0, "track": 3, "qtime": 33, "isDrum": false}, {"time": 36, "velocity": 108, "pitch": 60, "instrument": 0, "track": 3, "qtime": 36, "isDrum": false}, {"time": 36, "velocity": 108, "pitch": 63, "instrument": 0, "track": 3, "qtime": 36, "isDrum": false}, {"time": 37, "velocity": 108, "pitch": 32, "instrument": 0, "track": 3, "qtime": 37, "isDrum": false}, {"time": 37, "velocity": 108, "pitch": 56, "instrument": 0, "track": 3, "qtime": 37, "isDrum": false}, {"time": 39, "velocity": 0, "pitch": 60, "instrument": 0, "track": 3, "qtime": 39, "isDrum": false}, {"time": 40, "velocity": 0, "pitch": 32, "instrument": 0, "track": 3, "qtime": 40, "isDrum": false}, {"time": 40, "velocity": 0, "pitch": 56, "instrument": 0, "track": 3, "qtime": 40, "isDrum": false}, {"time": 40, "velocity": 0, "pitch": 63, "instrument": 0, "track": 3, "qtime": 40, "isDrum": false}, {"time": 45, "velocity": 108, "pitch": 32, "instrument": 0, "track": 3, "qtime": 45, "isDrum": false}, {"time": 47, "velocity": 0, "pitch": 32, "instrument": 0, "track": 3, "qtime": 47, "isDrum": false}, {"time": 48, "velocity": 108, "pitch": 31, "instrument": 0, "track": 3, "qtime": 0, "isDrum": false}, {"time": 48, "velocity": 108, "pitch": 58, "instrument": 0, "track": 3, "qtime": 0, "isDrum": false}, {"time": 48, "velocity": 108, "pitch": 62, "instrument": 0, "track": 3, "qtime": 0, "isDrum": false}, {"time": 48, "velocity": 108, "pitch": 65, "instrument": 0, "track": 3, "qtime": 0, "isDrum": false}, {"time": 49, "velocity": 108, "pitch": 60, "instrument": 0, "track": 3, "qtime": 1, "isDrum": false}, {"time": 55, "velocity": 0, "pitch": 31, "instrument": 0, "track": 3, "qtime": 7, "isDrum": false}, {"time": 56, "velocity": 0, "pitch": 58, "instrument": 0, "track": 3, "qtime": 8, "isDrum": false}, {"time": 56, "velocity": 0, "pitch": 60, "instrument": 0, "track": 3, "qtime": 8, "isDrum": false}, {"time": 56, "velocity": 0, "pitch": 62, "instrument": 0, "track": 3, "qtime": 8, "isDrum": false}, {"time": 56, "velocity": 0, "pitch": 65, "instrument": 0, "track": 3, "qtime": 8, "isDrum": false}, {"time": 60, "velocity": 108, "pitch": 58, "instrument": 0, "track": 3, "qtime": 12, "isDrum": false}, {"time": 60, "velocity": 108, "pitch": 62, "instrument": 0, "track": 3, "qtime": 12, "isDrum": false}, {"time": 60, "velocity": 108, "pitch": 65, "instrument": 0, "track": 3, "qtime": 12, "isDrum": false}, {"time": 61, "velocity": 108, "pitch": 31, "instrument": 0, "track": 3, "qtime": 13, "isDrum": false}, {"time": 61, "velocity": 108, "pitch": 60, "instrument": 0, "track": 3, "qtime": 13, "isDrum": false}, {"time": 63, "velocity": 0, "pitch": 31, "instrument": 0, "track": 3, "qtime": 15, "isDrum": false}, {"time": 63, "velocity": 0, "pitch": 58, "instrument": 0, "track": 3, "qtime": 15, "isDrum": false}, {"time": 63, "velocity": 0, "pitch": 62, "instrument": 0, "track": 3, "qtime": 15, "isDrum": false}, {"time": 64, "velocity": 0, "pitch": 60, "instrument": 0, "track": 3, "qtime": 16, "isDrum": false}, {"time": 64, "velocity": 0, "pitch": 65, "instrument": 0, "track": 3, "qtime": 16, "isDrum": false}, {"time": 69, "velocity": 108, "pitch": 31, "instrument": 0, "track": 3, "qtime": 21, "isDrum": false}, {"time": 69, "velocity": 108, "pitch": 58, "instrument": 0, "track": 3, "qtime": 21, "isDrum": false}, {"time": 69, "velocity": 108, "pitch": 60, "instrument": 0, "track": 3, "qtime": 21, "isDrum": false}, {"time": 71, "velocity": 0, "pitch": 31, "instrument": 0, "track": 3, "qtime": 23, "isDrum": false}, {"time": 71, "velocity": 0, "pitch": 60, "instrument": 0, "track": 3, "qtime": 23, "isDrum": false}, {"time": 72, "velocity": 0, "pitch": 58, "instrument": 0, "track": 3, "qtime": 24, "isDrum": false}, {"time": 72, "velocity": 108, "pitch": 31, "instrument": 0, "track": 3, "qtime": 24, "isDrum": false}, {"time": 73, "velocity": 108, "pitch": 58, "instrument": 0, "track": 3, "qtime": 25, "isDrum": false}, {"time": 73, "velocity": 108, "pitch": 60, "instrument": 0, "track": 3, "qtime": 25, "isDrum": false}, {"time": 73, "velocity": 108, "pitch": 62, "instrument": 0, "track": 3, "qtime": 25, "isDrum": false}, {"time": 73, "velocity": 108, "pitch": 65, "instrument": 0, "track": 3, "qtime": 25, "isDrum": false}, {"time": 79, "velocity": 0, "pitch": 60, "instrument": 0, "track": 3, "qtime": 31, "isDrum": false}, {"time": 79, "velocity": 0, "pitch": 62, "instrument": 0, "track": 3, "qtime": 31, "isDrum": false}, {"time": 80, "velocity": 0, "pitch": 31, "instrument": 0, "track": 3, "qtime": 32, "isDrum": false}, {"time": 80, "velocity": 0, "pitch": 58, "instrument": 0, "track": 3, "qtime": 32, "isDrum": false}, {"time": 80, "velocity": 0, "pitch": 65, "instrument": 0, "track": 3, "qtime": 32, "isDrum": false}, {"time": 84, "velocity": 108, "pitch": 58, "instrument": 0, "track": 3, "qtime": 36, "isDrum": false}, {"time": 84, "velocity": 108, "pitch": 60, "instrument": 0, "track": 3, "qtime": 36, "isDrum": false}, {"time": 84, "velocity": 108, "pitch": 62, "instrument": 0, "track": 3, "qtime": 36, "isDrum": false}, {"time": 84, "velocity": 108, "pitch": 65, "instrument": 0, "track": 3, "qtime": 36, "isDrum": false}, {"time": 85, "velocity": 108, "pitch": 31, "instrument": 0, "track": 3, "qtime": 37, "isDrum": false}, {"time": 87, "velocity": 0, "pitch": 58, "instrument": 0, "track": 3, "qtime": 39, "isDrum": false}, {"time": 87, "velocity": 0, "pitch": 62, "instrument": 0, "track": 3, "qtime": 39, "isDrum": false}, {"time": 87, "velocity": 0, "pitch": 65, "instrument": 0, "track": 3, "qtime": 39, "isDrum": false}, {"time": 88, "velocity": 0, "pitch": 31, "instrument": 0, "track": 3, "qtime": 40, "isDrum": false}, {"time": 88, "velocity": 0, "pitch": 60, "instrument": 0, "track": 3, "qtime": 40, "isDrum": false}, {"time": 94, "velocity": 108, "pitch": 31, "instrument": 0, "track": 3, "qtime": 46, "isDrum": false}, {"time": 96, "velocity": 0, "pitch": 31, "instrument": 0, "track": 3, "qtime": 48, "isDrum": false}, {"time": 96, "velocity": 108, "pitch": 55, "instrument": 0, "track": 3, "qtime": 0, "isDrum": false}, {"time": 96, "velocity": 108, "pitch": 58, "instrument": 0, "track": 3, "qtime": 0, "isDrum": false}, {"time": 96, "velocity": 108, "pitch": 62, "instrument": 0, "track": 3, "qtime": 0, "isDrum": false}, {"time": 96, "velocity": 108, "pitch": 65, "instrument": 0, "track": 3, "qtime": 0, "isDrum": false}, {"time": 97, "velocity": 108, "pitch": 36, "instrument": 0, "track": 3, "qtime": 1, "isDrum": false}, {"time": 102, "velocity": 0, "pitch": 55, "instrument": 0, "track": 3, "qtime": 6, "isDrum": false}, {"time": 102, "velocity": 0, "pitch": 58, "instrument": 0, "track": 3, "qtime": 6, "isDrum": false}, {"time": 102, "velocity": 0, "pitch": 62, "instrument": 0, "track": 3, "qtime": 6, "isDrum": false}, {"time": 102, "velocity": 0, "pitch": 65, "instrument": 0, "track": 3, "qtime": 6, "isDrum": false}, {"time": 108, "velocity": 0, "pitch": 36, "instrument": 0, "track": 3, "qtime": 12, "isDrum": false}, {"time": 108, "velocity": 108, "pitch": 31, "instrument": 0, "track": 3, "qtime": 12, "isDrum": false}, {"time": 109, "velocity": 108, "pitch": 55, "instrument": 0, "track": 3, "qtime": 13, "isDrum": false}, {"time": 109, "velocity": 108, "pitch": 58, "instrument": 0, "track": 3, "qtime": 13, "isDrum": false}, {"time": 109, "velocity": 108, "pitch": 62, "instrument": 0, "track": 3, "qtime": 13, "isDrum": false}, {"time": 109, "velocity": 108, "pitch": 65, "instrument": 0, "track": 3, "qtime": 13, "isDrum": false}, {"time": 112, "velocity": 0, "pitch": 31, "instrument": 0, "track": 3, "qtime": 16, "isDrum": false}, {"time": 113, "velocity": 0, "pitch": 55, "instrument": 0, "track": 3, "qtime": 17, "isDrum": false}, {"time": 113, "velocity": 0, "pitch": 58, "instrument": 0, "track": 3, "qtime": 17, "isDrum": false}, {"time": 113, "velocity": 0, "pitch": 62, "instrument": 0, "track": 3, "qtime": 17, "isDrum": false}, {"time": 113, "velocity": 0, "pitch": 65, "instrument": 0, "track": 3, "qtime": 17, "isDrum": false}, {"time": 118, "velocity": 108, "pitch": 36, "instrument": 0, "track": 3, "qtime": 22, "isDrum": false}, {"time": 120, "velocity": 0, "pitch": 36, "instrument": 0, "track": 3, "qtime": 24, "isDrum": false}, {"time": 121, "velocity": 108, "pitch": 55, "instrument": 0, "track": 3, "qtime": 25, "isDrum": false}, {"time": 121, "velocity": 108, "pitch": 58, "instrument": 0, "track": 3, "qtime": 25, "isDrum": false}, {"time": 121, "velocity": 108, "pitch": 63, "instrument": 0, "track": 3, "qtime": 25, "isDrum": false}, {"time": 122, "velocity": 108, "pitch": 36, "instrument": 0, "track": 3, "qtime": 26, "isDrum": false}, {"time": 128, "velocity": 0, "pitch": 55, "instrument": 0, "track": 3, "qtime": 32, "isDrum": false}, {"time": 128, "velocity": 0, "pitch": 58, "instrument": 0, "track": 3, "qtime": 32, "isDrum": false}, {"time": 128, "velocity": 0, "pitch": 63, "instrument": 0, "track": 3, "qtime": 32, "isDrum": false}, {"time": 130, "velocity": 0, "pitch": 36, "instrument": 0, "track": 3, "qtime": 34, "isDrum": false}, {"time": 133, "velocity": 108, "pitch": 48, "instrument": 0, "track": 3, "qtime": 37, "isDrum": false}, {"time": 133, "velocity": 108, "pitch": 55, "instrument": 0, "track": 3, "qtime": 37, "isDrum": false}, {"time": 133, "velocity": 108, "pitch": 58, "instrument": 0, "track": 3, "qtime": 37, "isDrum": false}, {"time": 133, "velocity": 108, "pitch": 63, "instrument": 0, "track": 3, "qtime": 37, "isDrum": false}, {"time": 134, "velocity": 108, "pitch": 36, "instrument": 0, "track": 3, "qtime": 38, "isDrum": false}, {"time": 137, "velocity": 0, "pitch": 48, "instrument": 0, "track": 3, "qtime": 41, "isDrum": false}, {"time": 137, "velocity": 0, "pitch": 55, "instrument": 0, "track": 3, "qtime": 41, "isDrum": false}, {"time": 137, "velocity": 0, "pitch": 58, "instrument": 0, "track": 3, "qtime": 41, "isDrum": false}, {"time": 138, "velocity": 0, "pitch": 36, "instrument": 0, "track": 3, "qtime": 42, "isDrum": false}, {"time": 138, "velocity": 0, "pitch": 63, "instrument": 0, "track": 3, "qtime": 42, "isDrum": false}, {"time": 144, "velocity": 108, "pitch": 41, "instrument": 0, "track": 3, "qtime": 0, "isDrum": false}, {"time": 144, "velocity": 108, "pitch": 51, "instrument": 0, "track": 3, "qtime": 0, "isDrum": false}, {"time": 144, "velocity": 108, "pitch": 57, "instrument": 0, "track": 3, "qtime": 0, "isDrum": false}, {"time": 144, "velocity": 108, "pitch": 67, "instrument": 0, "track": 3, "qtime": 0, "isDrum": false}, {"time": 145, "velocity": 108, "pitch": 62, "instrument": 0, "track": 3, "qtime": 1, "isDrum": false}, {"time": 148, "velocity": 0, "pitch": 41, "instrument": 0, "track": 3, "qtime": 4, "isDrum": false}, {"time": 149, "velocity": 0, "pitch": 51, "instrument": 0, "track": 3, "qtime": 5, "isDrum": false}, {"time": 150, "velocity": 0, "pitch": 57, "instrument": 0, "track": 3, "qtime": 6, "isDrum": false}, {"time": 150, "velocity": 0, "pitch": 62, "instrument": 0, "track": 3, "qtime": 6, "isDrum": false}, {"time": 150, "velocity": 0, "pitch": 67, "instrument": 0, "track": 3, "qtime": 6, "isDrum": false}, {"time": 156, "velocity": 108, "pitch": 41, "instrument": 0, "track": 3, "qtime": 12, "isDrum": false}, {"time": 156, "velocity": 108, "pitch": 51, "instrument": 0, "track": 3, "qtime": 12, "isDrum": false}, {"time": 156, "velocity": 108, "pitch": 57, "instrument": 0, "track": 3, "qtime": 12, "isDrum": false}, {"time": 156, "velocity": 108, "pitch": 62, "instrument": 0, "track": 3, "qtime": 12, "isDrum": false}, {"time": 156, "velocity": 108, "pitch": 67, "instrument": 0, "track": 3, "qtime": 12, "isDrum": false}, {"time": 159, "velocity": 0, "pitch": 41, "instrument": 0, "track": 3, "qtime": 15, "isDrum": false}, {"time": 160, "velocity": 0, "pitch": 51, "instrument": 0, "track": 3, "qtime": 16, "isDrum": false}, {"time": 160, "velocity": 0, "pitch": 57, "instrument": 0, "track": 3, "qtime": 16, "isDrum": false}, {"time": 160, "velocity": 0, "pitch": 62, "instrument": 0, "track": 3, "qtime": 16, "isDrum": false}, {"time": 160, "velocity": 0, "pitch": 67, "instrument": 0, "track": 3, "qtime": 16, "isDrum": false}, {"time": 164, "velocity": 108, "pitch": 51, "instrument": 0, "track": 3, "qtime": 20, "isDrum": false}, {"time": 164, "velocity": 108, "pitch": 57, "instrument": 0, "track": 3, "qtime": 20, "isDrum": false}, {"time": 164, "velocity": 108, "pitch": 62, "instrument": 0, "track": 3, "qtime": 20, "isDrum": false}, {"time": 164, "velocity": 108, "pitch": 67, "instrument": 0, "track": 3, "qtime": 20, "isDrum": false}, {"time": 165, "velocity": 108, "pitch": 41, "instrument": 0, "track": 3, "qtime": 21, "isDrum": false}, {"time": 166, "velocity": 0, "pitch": 41, "instrument": 0, "track": 3, "qtime": 22, "isDrum": false}, {"time": 168, "velocity": 108, "pitch": 41, "instrument": 0, "track": 3, "qtime": 24, "isDrum": false}, {"time": 169, "velocity": 0, "pitch": 51, "instrument": 0, "track": 3, "qtime": 25, "isDrum": false}, {"time": 169, "velocity": 0, "pitch": 57, "instrument": 0, "track": 3, "qtime": 25, "isDrum": false}, {"time": 169, "velocity": 0, "pitch": 62, "instrument": 0, "track": 3, "qtime": 25, "isDrum": false}, {"time": 169, "velocity": 0, "pitch": 67, "instrument": 0, "track": 3, "qtime": 25, "isDrum": false}, {"time": 176, "velocity": 0, "pitch": 41, "instrument": 0, "track": 3, "qtime": 32, "isDrum": false}, {"time": 176, "velocity": 108, "pitch": 51, "instrument": 0, "track": 3, "qtime": 32, "isDrum": false}, {"time": 176, "velocity": 108, "pitch": 57, "instrument": 0, "track": 3, "qtime": 32, "isDrum": false}, {"time": 176, "velocity": 108, "pitch": 60, "instrument": 0, "track": 3, "qtime": 32, "isDrum": false}, {"time": 176, "velocity": 108, "pitch": 67, "instrument": 0, "track": 3, "qtime": 32, "isDrum": false}, {"time": 177, "velocity": 108, "pitch": 41, "instrument": 0, "track": 3, "qtime": 33, "isDrum": false}, {"time": 181, "velocity": 0, "pitch": 41, "instrument": 0, "track": 3, "qtime": 37, "isDrum": false}, {"time": 183, "velocity": 0, "pitch": 51, "instrument": 0, "track": 3, "qtime": 39, "isDrum": false}, {"time": 183, "velocity": 0, "pitch": 57, "instrument": 0, "track": 3, "qtime": 39, "isDrum": false}, {"time": 183, "velocity": 0, "pitch": 60, "instrument": 0, "track": 3, "qtime": 39, "isDrum": false}, {"time": 183, "velocity": 0, "pitch": 67, "instrument": 0, "track": 3, "qtime": 39, "isDrum": false}], "resolution": 12, "tempo": 252, "minPitch": 24, "maxPitch": 72, "validSegments": [0], "validTracks": [15]}, "audio": "https://www.sfu.ca/~jeffe/examples/stem_0_dense.mp3"}]}, {"title": "Bar-Level Inpainting", "description": "Here we explore some of the possibilities that Bar-Level inpainting can offer. [Redacted] allows for a set of bars to be selected and resampled, affording the user a fine-degree of control.", "examples": [{"src": "gen/stem_50.json", "highlights": [[], [], [], []], "caption": "We start with a piece from the dataset.", "sample_id": "22a", "mixer": [8, 3, 8, 6], "json": {"tracks": [{"bars": [{"events": [0, 8, 10, 11, 12, 13, 17, 18, 20, 26, 28, 29, 30, 31, 32, 33], "isFourFour": true, "hasNotes": true, "time": 0, "beatLength": 4}, {"events": [39, 46, 47, 49, 50, 51, 55, 56, 59, 66, 68, 69, 70, 71, 72, 73], "isFourFour": true, "hasNotes": true, "time": 48, "beatLength": 4}, {"events": [80, 88, 90, 91, 92, 93, 95, 97, 100, 106, 108, 109, 110, 111, 112, 113, 114, 115, 119, 120], "isFourFour": true, "hasNotes": true, "time": 96, "beatLength": 4}, {"events": [123, 130, 132, 133, 134, 135, 139, 140, 141, 146, 152, 153, 154, 155, 156, 157], "isFourFour": true, "hasNotes": true, "time": 144, "beatLength": 4}, {"isFourFour": true, "hasNotes": false, "time": 192, "beatLength": 4}, {"isFourFour": true, "hasNotes": false, "time": 252, "beatLength": 4}], "isDrum": false, "minPitch": 30, "maxPitch": 37, "instrument": 38, "avPolyphony": 1, "noteDensity": 9, "noteDensityV2": 6}, {"bars": [{"events": [1, 3, 5, 19, 23, 37, 38], "isFourFour": true, "hasNotes": true, "time": 0, "beatLength": 4}, {"events": [40, 42, 57, 58, 61, 63, 77, 78, 79], "isFourFour": true, "hasNotes": true, "time": 48, "beatLength": 4}, {"events": [81, 83, 85, 99, 103, 121, 122], "isFourFour": true, "hasNotes": true, "time": 96, "beatLength": 4}, {"events": [124, 127, 147, 148, 149, 150, 161, 162, 163], "isFourFour": true, "hasNotes": true, "time": 144, "beatLength": 4}, {"isFourFour": true, "hasNotes": false, "time": 192, "beatLength": 4}, {"isFourFour": true, "hasNotes": false, "time": 252, "beatLength": 4}], "isDrum": false, "minPitch": 56, "maxPitch": 66, "instrument": 50, "avPolyphony": 2.984375, "noteDensity": 4, "noteDensityV2": 5}, {"bars": [{"events": [2, 4, 6, 14, 15, 16, 21, 22, 24, 34, 35, 36], "isFourFour": true, "hasNotes": true, "time": 0, "beatLength": 4}, {"events": [41, 43, 45, 52, 53, 54, 60, 62, 64, 74, 75, 76], "isFourFour": true, "hasNotes": true, "time": 48, "beatLength": 4}, {"events": [82, 84, 86, 94, 96, 98, 101, 102, 104, 116, 117, 118], "isFourFour": true, "hasNotes": true, "time": 96, "beatLength": 4}, {"events": [125, 126, 128, 136, 137, 138, 142, 143, 144, 158, 159, 160], "isFourFour": true, "hasNotes": true, "time": 144, "beatLength": 4}, {"isFourFour": true, "hasNotes": false, "time": 192, "beatLength": 4}, {"isFourFour": true, "hasNotes": false, "time": 252, "beatLength": 4}], "isDrum": false, "minPitch": 56, "maxPitch": 66, "instrument": 0, "avPolyphony": 2.9285715, "noteDensity": 7, "noteDensityV2": 4}, {"bars": [{"events": [7, 9, 25, 27], "isFourFour": true, "hasNotes": true, "time": 0, "beatLength": 4}, {"events": [44, 48, 65, 67], "isFourFour": true, "hasNotes": true, "time": 48, "beatLength": 4}, {"events": [87, 89, 105, 107], "isFourFour": true, "hasNotes": true, "time": 96, "beatLength": 4}, {"events": [129, 131, 145, 151], "isFourFour": true, "hasNotes": true, "time": 144, "beatLength": 4}, {"isFourFour": true, "hasNotes": false, "time": 192, "beatLength": 4}, {"isFourFour": true, "hasNotes": false, "time": 252, "beatLength": 4}], "isDrum": false, "minPitch": 68, "maxPitch": 72, "instrument": 9, "avPolyphony": 1, "noteDensity": 1, "noteDensityV2": 1}], "events": [{"time": 0, "velocity": 108, "pitch": 34, "instrument": 38, "track": 0, "qtime": 0, "bar": 0, "isDrum": false}, {"time": 0, "velocity": 48, "pitch": 58, "instrument": 50, "track": 1, "qtime": 0, "bar": 0, "isDrum": false}, {"time": 0, "velocity": 108, "pitch": 58, "instrument": 0, "track": 2, "qtime": 0, "bar": 0, "isDrum": false}, {"time": 0, "velocity": 48, "pitch": 61, "instrument": 50, "track": 1, "qtime": 0, "bar": 0, "isDrum": false}, {"time": 0, "velocity": 108, "pitch": 61, "instrument": 0, "track": 2, "qtime": 0, "bar": 0, "isDrum": false}, {"time": 0, "velocity": 48, "pitch": 65, "instrument": 50, "track": 1, "qtime": 0, "bar": 0, "isDrum": false}, {"time": 0, "velocity": 108, "pitch": 65, "instrument": 0, "track": 2, "qtime": 0, "bar": 0, "isDrum": false}, {"time": 0, "velocity": 84, "pitch": 72, "instrument": 9, "track": 3, "qtime": 0, "bar": 0, "isDrum": false}, {"time": 3, "velocity": 0, "pitch": 34, "instrument": 38, "track": 0, "qtime": 3, "bar": 0, "isDrum": false}, {"time": 6, "velocity": 0, "pitch": 72, "instrument": 9, "track": 3, "qtime": 6, "bar": 0, "isDrum": false}, {"time": 6, "velocity": 108, "pitch": 34, "instrument": 38, "track": 0, "qtime": 6, "bar": 0, "isDrum": false}, {"time": 8, "velocity": 0, "pitch": 34, "instrument": 38, "track": 0, "qtime": 8, "bar": 0, "isDrum": false}, {"time": 9, "velocity": 108, "pitch": 34, "instrument": 38, "track": 0, "qtime": 9, "bar": 0, "isDrum": false}, {"time": 12, "velocity": 0, "pitch": 34, "instrument": 38, "track": 0, "qtime": 12, "bar": 0, "isDrum": false}, {"time": 15, "velocity": 0, "pitch": 58, "instrument": 0, "track": 2, "qtime": 15, "bar": 0, "isDrum": false}, {"time": 15, "velocity": 0, "pitch": 61, "instrument": 0, "track": 2, "qtime": 15, "bar": 0, "isDrum": false}, {"time": 15, "velocity": 0, "pitch": 65, "instrument": 0, "track": 2, "qtime": 15, "bar": 0, "isDrum": false}, {"time": 15, "velocity": 108, "pitch": 34, "instrument": 38, "track": 0, "qtime": 15, "bar": 0, "isDrum": false}, {"time": 17, "velocity": 0, "pitch": 34, "instrument": 38, "track": 0, "qtime": 17, "bar": 0, "isDrum": false}, {"time": 18, "velocity": 0, "pitch": 65, "instrument": 50, "track": 1, "qtime": 18, "bar": 0, "isDrum": false}, {"time": 18, "velocity": 108, "pitch": 34, "instrument": 38, "track": 0, "qtime": 18, "bar": 0, "isDrum": false}, {"time": 18, "velocity": 108, "pitch": 58, "instrument": 0, "track": 2, "qtime": 18, "bar": 0, "isDrum": false}, {"time": 18, "velocity": 108, "pitch": 61, "instrument": 0, "track": 2, "qtime": 18, "bar": 0, "isDrum": false}, {"time": 18, "velocity": 48, "pitch": 66, "instrument": 50, "track": 1, "qtime": 18, "bar": 0, "isDrum": false}, {"time": 18, "velocity": 108, "pitch": 66, "instrument": 0, "track": 2, "qtime": 18, "bar": 0, "isDrum": false}, {"time": 18, "velocity": 84, "pitch": 68, "instrument": 9, "track": 3, "qtime": 18, "bar": 0, "isDrum": false}, {"time": 21, "velocity": 0, "pitch": 34, "instrument": 38, "track": 0, "qtime": 21, "bar": 0, "isDrum": false}, {"time": 25, "velocity": 0, "pitch": 68, "instrument": 9, "track": 3, "qtime": 25, "bar": 0, "isDrum": false}, {"time": 27, "velocity": 108, "pitch": 30, "instrument": 38, "track": 0, "qtime": 27, "bar": 0, "isDrum": false}, {"time": 29, "velocity": 0, "pitch": 30, "instrument": 38, "track": 0, "qtime": 29, "bar": 0, "isDrum": false}, {"time": 30, "velocity": 108, "pitch": 30, "instrument": 38, "track": 0, "qtime": 30, "bar": 0, "isDrum": false}, {"time": 33, "velocity": 0, "pitch": 30, "instrument": 38, "track": 0, "qtime": 33, "bar": 0, "isDrum": false}, {"time": 36, "velocity": 108, "pitch": 30, "instrument": 38, "track": 0, "qtime": 36, "bar": 0, "isDrum": false}, {"time": 39, "velocity": 0, "pitch": 30, "instrument": 38, "track": 0, "qtime": 39, "bar": 0, "isDrum": false}, {"time": 43, "velocity": 0, "pitch": 66, "instrument": 0, "track": 2, "qtime": 43, "bar": 0, "isDrum": false}, {"time": 45, "velocity": 0, "pitch": 58, "instrument": 0, "track": 2, "qtime": 45, "bar": 0, "isDrum": false}, {"time": 45, "velocity": 0, "pitch": 61, "instrument": 0, "track": 2, "qtime": 45, "bar": 0, "isDrum": false}, {"time": 47, "velocity": 0, "pitch": 66, "instrument": 50, "track": 1, "qtime": 47, "bar": 0, "isDrum": false}, {"time": 48, "velocity": 0, "pitch": 58, "instrument": 50, "track": 1, "qtime": 48, "bar": 0, "isDrum": false}, {"time": 48, "velocity": 108, "pitch": 37, "instrument": 38, "track": 0, "qtime": 0, "bar": 1, "isDrum": false}, {"time": 48, "velocity": 48, "pitch": 56, "instrument": 50, "track": 1, "qtime": 0, "bar": 1, "isDrum": false}, {"time": 48, "velocity": 108, "pitch": 61, "instrument": 0, "track": 2, "qtime": 0, "bar": 1, "isDrum": false}, {"time": 48, "velocity": 48, "pitch": 65, "instrument": 50, "track": 1, "qtime": 0, "bar": 1, "isDrum": false}, {"time": 48, "velocity": 108, "pitch": 65, "instrument": 0, "track": 2, "qtime": 0, "bar": 1, "isDrum": false}, {"time": 48, "velocity": 84, "pitch": 68, "instrument": 9, "track": 3, "qtime": 0, "bar": 1, "isDrum": false}, {"time": 49, "velocity": 108, "pitch": 56, "instrument": 0, "track": 2, "qtime": 1, "bar": 1, "isDrum": false}, {"time": 51, "velocity": 0, "pitch": 37, "instrument": 38, "track": 0, "qtime": 3, "bar": 1, "isDrum": false}, {"time": 54, "velocity": 108, "pitch": 37, "instrument": 38, "track": 0, "qtime": 6, "bar": 1, "isDrum": false}, {"time": 55, "velocity": 0, "pitch": 68, "instrument": 9, "track": 3, "qtime": 7, "bar": 1, "isDrum": false}, {"time": 56, "velocity": 0, "pitch": 37, "instrument": 38, "track": 0, "qtime": 8, "bar": 1, "isDrum": false}, {"time": 57, "velocity": 108, "pitch": 37, "instrument": 38, "track": 0, "qtime": 9, "bar": 1, "isDrum": false}, {"time": 60, "velocity": 0, "pitch": 37, "instrument": 38, "track": 0, "qtime": 12, "bar": 1, "isDrum": false}, {"time": 62, "velocity": 0, "pitch": 61, "instrument": 0, "track": 2, "qtime": 14, "bar": 1, "isDrum": false}, {"time": 62, "velocity": 0, "pitch": 65, "instrument": 0, "track": 2, "qtime": 14, "bar": 1, "isDrum": false}, {"time": 63, "velocity": 0, "pitch": 56, "instrument": 0, "track": 2, "qtime": 15, "bar": 1, "isDrum": false}, {"time": 63, "velocity": 108, "pitch": 37, "instrument": 38, "track": 0, "qtime": 15, "bar": 1, "isDrum": false}, {"time": 65, "velocity": 0, "pitch": 37, "instrument": 38, "track": 0, "qtime": 17, "bar": 1, "isDrum": false}, {"time": 65, "velocity": 0, "pitch": 61, "instrument": 50, "track": 1, "qtime": 17, "bar": 1, "isDrum": false}, {"time": 66, "velocity": 0, "pitch": 65, "instrument": 50, "track": 1, "qtime": 18, "bar": 1, "isDrum": false}, {"time": 66, "velocity": 108, "pitch": 37, "instrument": 38, "track": 0, "qtime": 18, "bar": 1, "isDrum": false}, {"time": 66, "velocity": 108, "pitch": 56, "instrument": 0, "track": 2, "qtime": 18, "bar": 1, "isDrum": false}, {"time": 66, "velocity": 48, "pitch": 60, "instrument": 50, "track": 1, "qtime": 18, "bar": 1, "isDrum": false}, {"time": 66, "velocity": 108, "pitch": 60, "instrument": 0, "track": 2, "qtime": 18, "bar": 1, "isDrum": false}, {"time": 66, "velocity": 48, "pitch": 63, "instrument": 50, "track": 1, "qtime": 18, "bar": 1, "isDrum": false}, {"time": 66, "velocity": 108, "pitch": 63, "instrument": 0, "track": 2, "qtime": 18, "bar": 1, "isDrum": false}, {"time": 66, "velocity": 84, "pitch": 70, "instrument": 9, "track": 3, "qtime": 18, "bar": 1, "isDrum": false}, {"time": 69, "velocity": 0, "pitch": 37, "instrument": 38, "track": 0, "qtime": 21, "bar": 1, "isDrum": false}, {"time": 72, "velocity": 0, "pitch": 70, "instrument": 9, "track": 3, "qtime": 24, "bar": 1, "isDrum": false}, {"time": 75, "velocity": 108, "pitch": 32, "instrument": 38, "track": 0, "qtime": 27, "bar": 1, "isDrum": false}, {"time": 77, "velocity": 0, "pitch": 32, "instrument": 38, "track": 0, "qtime": 29, "bar": 1, "isDrum": false}, {"time": 78, "velocity": 108, "pitch": 32, "instrument": 38, "track": 0, "qtime": 30, "bar": 1, "isDrum": false}, {"time": 81, "velocity": 0, "pitch": 32, "instrument": 38, "track": 0, "qtime": 33, "bar": 1, "isDrum": false}, {"time": 84, "velocity": 108, "pitch": 32, "instrument": 38, "track": 0, "qtime": 36, "bar": 1, "isDrum": false}, {"time": 87, "velocity": 0, "pitch": 32, "instrument": 38, "track": 0, "qtime": 39, "bar": 1, "isDrum": false}, {"time": 92, "velocity": 0, "pitch": 56, "instrument": 0, "track": 2, "qtime": 44, "bar": 1, "isDrum": false}, {"time": 92, "velocity": 0, "pitch": 60, "instrument": 0, "track": 2, "qtime": 44, "bar": 1, "isDrum": false}, {"time": 93, "velocity": 0, "pitch": 63, "instrument": 0, "track": 2, "qtime": 45, "bar": 1, "isDrum": false}, {"time": 95, "velocity": 0, "pitch": 63, "instrument": 50, "track": 1, "qtime": 47, "bar": 1, "isDrum": false}, {"time": 96, "velocity": 0, "pitch": 56, "instrument": 50, "track": 1, "qtime": 48, "bar": 1, "isDrum": false}, {"time": 96, "velocity": 0, "pitch": 60, "instrument": 50, "track": 1, "qtime": 48, "bar": 1, "isDrum": false}, {"time": 96, "velocity": 108, "pitch": 34, "instrument": 38, "track": 0, "qtime": 0, "bar": 2, "isDrum": false}, {"time": 96, "velocity": 48, "pitch": 58, "instrument": 50, "track": 1, "qtime": 0, "bar": 2, "isDrum": false}, {"time": 96, "velocity": 108, "pitch": 58, "instrument": 0, "track": 2, "qtime": 0, "bar": 2, "isDrum": false}, {"time": 96, "velocity": 48, "pitch": 61, "instrument": 50, "track": 1, "qtime": 0, "bar": 2, "isDrum": false}, {"time": 96, "velocity": 108, "pitch": 61, "instrument": 0, "track": 2, "qtime": 0, "bar": 2, "isDrum": false}, {"time": 96, "velocity": 48, "pitch": 65, "instrument": 50, "track": 1, "qtime": 0, "bar": 2, "isDrum": false}, {"time": 96, "velocity": 108, "pitch": 65, "instrument": 0, "track": 2, "qtime": 0, "bar": 2, "isDrum": false}, {"time": 96, "velocity": 84, "pitch": 72, "instrument": 9, "track": 3, "qtime": 0, "bar": 2, "isDrum": false}, {"time": 99, "velocity": 0, "pitch": 34, "instrument": 38, "track": 0, "qtime": 3, "bar": 2, "isDrum": false}, {"time": 102, "velocity": 0, "pitch": 72, "instrument": 9, "track": 3, "qtime": 6, "bar": 2, "isDrum": false}, {"time": 102, "velocity": 108, "pitch": 34, "instrument": 38, "track": 0, "qtime": 6, "bar": 2, "isDrum": false}, {"time": 104, "velocity": 0, "pitch": 34, "instrument": 38, "track": 0, "qtime": 8, "bar": 2, "isDrum": false}, {"time": 105, "velocity": 108, "pitch": 34, "instrument": 38, "track": 0, "qtime": 9, "bar": 2, "isDrum": false}, {"time": 108, "velocity": 0, "pitch": 34, "instrument": 38, "track": 0, "qtime": 12, "bar": 2, "isDrum": false}, {"time": 111, "velocity": 0, "pitch": 65, "instrument": 0, "track": 2, "qtime": 15, "bar": 2, "isDrum": false}, {"time": 111, "velocity": 108, "pitch": 34, "instrument": 38, "track": 0, "qtime": 15, "bar": 2, "isDrum": false}, {"time": 112, "velocity": 0, "pitch": 61, "instrument": 0, "track": 2, "qtime": 16, "bar": 2, "isDrum": false}, {"time": 113, "velocity": 0, "pitch": 34, "instrument": 38, "track": 0, "qtime": 17, "bar": 2, "isDrum": false}, {"time": 113, "velocity": 0, "pitch": 58, "instrument": 0, "track": 2, "qtime": 17, "bar": 2, "isDrum": false}, {"time": 114, "velocity": 0, "pitch": 65, "instrument": 50, "track": 1, "qtime": 18, "bar": 2, "isDrum": false}, {"time": 114, "velocity": 108, "pitch": 34, "instrument": 38, "track": 0, "qtime": 18, "bar": 2, "isDrum": false}, {"time": 114, "velocity": 108, "pitch": 58, "instrument": 0, "track": 2, "qtime": 18, "bar": 2, "isDrum": false}, {"time": 114, "velocity": 108, "pitch": 61, "instrument": 0, "track": 2, "qtime": 18, "bar": 2, "isDrum": false}, {"time": 114, "velocity": 48, "pitch": 66, "instrument": 50, "track": 1, "qtime": 18, "bar": 2, "isDrum": false}, {"time": 114, "velocity": 108, "pitch": 66, "instrument": 0, "track": 2, "qtime": 18, "bar": 2, "isDrum": false}, {"time": 114, "velocity": 84, "pitch": 68, "instrument": 9, "track": 3, "qtime": 18, "bar": 2, "isDrum": false}, {"time": 117, "velocity": 0, "pitch": 34, "instrument": 38, "track": 0, "qtime": 21, "bar": 2, "isDrum": false}, {"time": 121, "velocity": 0, "pitch": 68, "instrument": 9, "track": 3, "qtime": 25, "bar": 2, "isDrum": false}, {"time": 123, "velocity": 108, "pitch": 30, "instrument": 38, "track": 0, "qtime": 27, "bar": 2, "isDrum": false}, {"time": 125, "velocity": 0, "pitch": 30, "instrument": 38, "track": 0, "qtime": 29, "bar": 2, "isDrum": false}, {"time": 126, "velocity": 108, "pitch": 30, "instrument": 38, "track": 0, "qtime": 30, "bar": 2, "isDrum": false}, {"time": 129, "velocity": 0, "pitch": 30, "instrument": 38, "track": 0, "qtime": 33, "bar": 2, "isDrum": false}, {"time": 132, "velocity": 108, "pitch": 30, "instrument": 38, "track": 0, "qtime": 36, "bar": 2, "isDrum": false}, {"time": 135, "velocity": 0, "pitch": 30, "instrument": 38, "track": 0, "qtime": 39, "bar": 2, "isDrum": false}, {"time": 138, "velocity": 108, "pitch": 30, "instrument": 38, "track": 0, "qtime": 42, "bar": 2, "isDrum": false}, {"time": 140, "velocity": 0, "pitch": 30, "instrument": 38, "track": 0, "qtime": 44, "bar": 2, "isDrum": false}, {"time": 140, "velocity": 0, "pitch": 58, "instrument": 0, "track": 2, "qtime": 44, "bar": 2, "isDrum": false}, {"time": 140, "velocity": 0, "pitch": 61, "instrument": 0, "track": 2, "qtime": 44, "bar": 2, "isDrum": false}, {"time": 140, "velocity": 0, "pitch": 66, "instrument": 0, "track": 2, "qtime": 44, "bar": 2, "isDrum": false}, {"time": 141, "velocity": 108, "pitch": 32, "instrument": 38, "track": 0, "qtime": 45, "bar": 2, "isDrum": false}, {"time": 143, "velocity": 0, "pitch": 32, "instrument": 38, "track": 0, "qtime": 47, "bar": 2, "isDrum": false}, {"time": 144, "velocity": 0, "pitch": 58, "instrument": 50, "track": 1, "qtime": 48, "bar": 2, "isDrum": false}, {"time": 144, "velocity": 0, "pitch": 66, "instrument": 50, "track": 1, "qtime": 48, "bar": 2, "isDrum": false}, {"time": 144, "velocity": 108, "pitch": 37, "instrument": 38, "track": 0, "qtime": 0, "bar": 3, "isDrum": false}, {"time": 144, "velocity": 48, "pitch": 56, "instrument": 50, "track": 1, "qtime": 0, "bar": 3, "isDrum": false}, {"time": 144, "velocity": 108, "pitch": 56, "instrument": 0, "track": 2, "qtime": 0, "bar": 3, "isDrum": false}, {"time": 144, "velocity": 108, "pitch": 61, "instrument": 0, "track": 2, "qtime": 0, "bar": 3, "isDrum": false}, {"time": 144, "velocity": 48, "pitch": 65, "instrument": 50, "track": 1, "qtime": 0, "bar": 3, "isDrum": false}, {"time": 144, "velocity": 108, "pitch": 65, "instrument": 0, "track": 2, "qtime": 0, "bar": 3, "isDrum": false}, {"time": 144, "velocity": 84, "pitch": 68, "instrument": 9, "track": 3, "qtime": 0, "bar": 3, "isDrum": false}, {"time": 147, "velocity": 0, "pitch": 37, "instrument": 38, "track": 0, "qtime": 3, "bar": 3, "isDrum": false}, {"time": 150, "velocity": 0, "pitch": 68, "instrument": 9, "track": 3, "qtime": 6, "bar": 3, "isDrum": false}, {"time": 150, "velocity": 108, "pitch": 37, "instrument": 38, "track": 0, "qtime": 6, "bar": 3, "isDrum": false}, {"time": 152, "velocity": 0, "pitch": 37, "instrument": 38, "track": 0, "qtime": 8, "bar": 3, "isDrum": false}, {"time": 153, "velocity": 108, "pitch": 37, "instrument": 38, "track": 0, "qtime": 9, "bar": 3, "isDrum": false}, {"time": 156, "velocity": 0, "pitch": 37, "instrument": 38, "track": 0, "qtime": 12, "bar": 3, "isDrum": false}, {"time": 158, "velocity": 0, "pitch": 61, "instrument": 0, "track": 2, "qtime": 14, "bar": 3, "isDrum": false}, {"time": 158, "velocity": 0, "pitch": 65, "instrument": 0, "track": 2, "qtime": 14, "bar": 3, "isDrum": false}, {"time": 159, "velocity": 0, "pitch": 56, "instrument": 0, "track": 2, "qtime": 15, "bar": 3, "isDrum": false}, {"time": 159, "velocity": 108, "pitch": 37, "instrument": 38, "track": 0, "qtime": 15, "bar": 3, "isDrum": false}, {"time": 161, "velocity": 0, "pitch": 37, "instrument": 38, "track": 0, "qtime": 17, "bar": 3, "isDrum": false}, {"time": 162, "velocity": 108, "pitch": 37, "instrument": 38, "track": 0, "qtime": 18, "bar": 3, "isDrum": false}, {"time": 162, "velocity": 108, "pitch": 56, "instrument": 0, "track": 2, "qtime": 18, "bar": 3, "isDrum": false}, {"time": 162, "velocity": 108, "pitch": 60, "instrument": 0, "track": 2, "qtime": 18, "bar": 3, "isDrum": false}, {"time": 162, "velocity": 108, "pitch": 63, "instrument": 0, "track": 2, "qtime": 18, "bar": 3, "isDrum": false}, {"time": 162, "velocity": 84, "pitch": 70, "instrument": 9, "track": 3, "qtime": 18, "bar": 3, "isDrum": false}, {"time": 165, "velocity": 0, "pitch": 37, "instrument": 38, "track": 0, "qtime": 21, "bar": 3, "isDrum": false}, {"time": 165, "velocity": 0, "pitch": 61, "instrument": 50, "track": 1, "qtime": 21, "bar": 3, "isDrum": false}, {"time": 165, "velocity": 0, "pitch": 65, "instrument": 50, "track": 1, "qtime": 21, "bar": 3, "isDrum": false}, {"time": 165, "velocity": 48, "pitch": 60, "instrument": 50, "track": 1, "qtime": 21, "bar": 3, "isDrum": false}, {"time": 165, "velocity": 48, "pitch": 63, "instrument": 50, "track": 1, "qtime": 21, "bar": 3, "isDrum": false}, {"time": 170, "velocity": 0, "pitch": 70, "instrument": 9, "track": 3, "qtime": 26, "bar": 3, "isDrum": false}, {"time": 171, "velocity": 108, "pitch": 32, "instrument": 38, "track": 0, "qtime": 27, "bar": 3, "isDrum": false}, {"time": 173, "velocity": 0, "pitch": 32, "instrument": 38, "track": 0, "qtime": 29, "bar": 3, "isDrum": false}, {"time": 174, "velocity": 108, "pitch": 32, "instrument": 38, "track": 0, "qtime": 30, "bar": 3, "isDrum": false}, {"time": 177, "velocity": 0, "pitch": 32, "instrument": 38, "track": 0, "qtime": 33, "bar": 3, "isDrum": false}, {"time": 180, "velocity": 108, "pitch": 32, "instrument": 38, "track": 0, "qtime": 36, "bar": 3, "isDrum": false}, {"time": 183, "velocity": 0, "pitch": 32, "instrument": 38, "track": 0, "qtime": 39, "bar": 3, "isDrum": false}, {"time": 188, "velocity": 0, "pitch": 56, "instrument": 0, "track": 2, "qtime": 44, "bar": 3, "isDrum": false}, {"time": 188, "velocity": 0, "pitch": 60, "instrument": 0, "track": 2, "qtime": 44, "bar": 3, "isDrum": false}, {"time": 188, "velocity": 0, "pitch": 63, "instrument": 0, "track": 2, "qtime": 44, "bar": 3, "isDrum": false}, {"time": 192, "velocity": 0, "pitch": 56, "instrument": 50, "track": 1, "qtime": 48, "bar": 3, "isDrum": false}, {"time": 192, "velocity": 0, "pitch": 60, "instrument": 50, "track": 1, "qtime": 48, "bar": 3, "isDrum": false}, {"time": 192, "velocity": 0, "pitch": 63, "instrument": 50, "track": 1, "qtime": 48, "bar": 3, "isDrum": false}], "resolution": 12, "tempo": 100, "minPitch": 30, "maxPitch": 72, "validSegments": [0, 1], "validTracks": [15, 15], "segmentLength": 4}, "audio": "https://www.sfu.ca/~jeffe/examples/stem_50.mp3"}, {"src": "gen/stem_50_bass_bar.json", "highlights": [[0, 2], [], [], []], "caption": "We replace the first and third bars of the bass track in 22a.", "sample_id": "22b", "mixer": [8, 3, 8, 6], "json": {"tracks": [{"bars": [{"events": [0, 1, 2, 3, 4, 5, 6, 7, 8, 9, 10, 11, 12, 13, 14, 15], "isFourFour": true, "hasNotes": true, "time": 0}, {"events": [16, 17, 18, 19, 20, 21, 22, 23, 24, 25, 26, 27, 28, 29, 30, 31], "isFourFour": true, "hasNotes": true, "time": 48}, {"events": [32, 33, 34, 35, 36, 37, 38, 39, 40, 41, 42, 43, 44, 45, 46, 47], "isFourFour": true, "hasNotes": true, "time": 96}, {"events": [48, 49, 50, 51, 52, 53, 54, 55, 56, 57, 58, 59, 60, 61, 62, 63], "isFourFour": true, "hasNotes": true, "time": 144}], "isDrum": false, "minPitch": 32, "maxPitch": 39, "instrument": 38, "avPolyphony": 1, "noteDensity": 8, "noteDensityV2": 4}, {"bars": [{"events": [64, 65, 66, 67, 68, 69, 70], "isFourFour": true, "hasNotes": true, "time": 0}, {"events": [71, 72, 73, 74, 75, 76, 77, 78, 79], "isFourFour": true, "hasNotes": true, "time": 48}, {"events": [80, 81, 82, 83, 84, 85, 86], "isFourFour": true, "hasNotes": true, "time": 96}, {"events": [87, 88, 89, 90, 91, 92, 93, 94, 95], "isFourFour": true, "hasNotes": true, "time": 144}], "isDrum": false, "minPitch": 56, "maxPitch": 66, "instrument": 50, "avPolyphony": 2.984375, "noteDensity": 4, "noteDensityV2": 5}, {"bars": [{"events": [96, 97, 98, 99, 100, 101, 102, 103, 104, 105, 106, 107], "isFourFour": true, "hasNotes": true, "time": 0}, {"events": [108, 109, 110, 111, 112, 113, 114, 115, 116, 117, 118, 119], "isFourFour": true, "hasNotes": true, "time": 48}, {"events": [120, 121, 122, 123, 124, 125, 126, 127, 128, 129, 130, 131], "isFourFour": true, "hasNotes": true, "time": 96}, {"events": [132, 133, 134, 135, 136, 137, 138, 139, 140, 141, 142, 143], "isFourFour": true, "hasNotes": true, "time": 144}], "isDrum": false, "minPitch": 56, "maxPitch": 66, "instrument": 0, "avPolyphony": 2.9285715, "noteDensity": 7, "noteDensityV2": 4}, {"bars": [{"events": [144, 145, 146, 147], "isFourFour": true, "hasNotes": true, "time": 0}, {"events": [148, 149, 150, 151], "isFourFour": true, "hasNotes": true, "time": 48}, {"events": [152, 153, 154, 155], "isFourFour": true, "hasNotes": true, "time": 96}, {"events": [156, 157, 158, 159], "isFourFour": true, "hasNotes": true, "time": 144}], "isDrum": false, "minPitch": 68, "maxPitch": 72, "instrument": 9, "avPolyphony": 1, "noteDensity": 1, "noteDensityV2": 1}], "events": [{"time": 0, "velocity": 108, "pitch": 34, "instrument": 38, "track": 0, "qtime": 0, "isDrum": false}, {"time": 3, "velocity": 0, "pitch": 34, "instrument": 38, "track": 0, "qtime": 3, "isDrum": false}, {"time": 6, "velocity": 108, "pitch": 34, "instrument": 38, "track": 0, "qtime": 6, "isDrum": false}, {"time": 8, "velocity": 0, "pitch": 34, "instrument": 38, "track": 0, "qtime": 8, "isDrum": false}, {"time": 9, "velocity": 108, "pitch": 34, "instrument": 38, "track": 0, "qtime": 9, "isDrum": false}, {"time": 12, "velocity": 0, "pitch": 34, "instrument": 38, "track": 0, "qtime": 12, "isDrum": false}, {"time": 15, "velocity": 108, "pitch": 34, "instrument": 38, "track": 0, "qtime": 15, "isDrum": false}, {"time": 17, "velocity": 0, "pitch": 34, "instrument": 38, "track": 0, "qtime": 17, "isDrum": false}, {"time": 18, "velocity": 108, "pitch": 34, "instrument": 38, "track": 0, "qtime": 18, "isDrum": false}, {"time": 21, "velocity": 0, "pitch": 34, "instrument": 38, "track": 0, "qtime": 21, "isDrum": false}, {"time": 27, "velocity": 108, "pitch": 37, "instrument": 38, "track": 0, "qtime": 27, "isDrum": false}, {"time": 29, "velocity": 0, "pitch": 37, "instrument": 38, "track": 0, "qtime": 29, "isDrum": false}, {"time": 30, "velocity": 108, "pitch": 37, "instrument": 38, "track": 0, "qtime": 30, "isDrum": false}, {"time": 33, "velocity": 0, "pitch": 37, "instrument": 38, "track": 0, "qtime": 33, "isDrum": false}, {"time": 36, "velocity": 108, "pitch": 37, "instrument": 38, "track": 0, "qtime": 36, "isDrum": false}, {"time": 39, "velocity": 0, "pitch": 37, "instrument": 38, "track": 0, "qtime": 39, "isDrum": false}, {"time": 48, "velocity": 108, "pitch": 37, "instrument": 38, "track": 0, "qtime": 0, "isDrum": false}, {"time": 51, "velocity": 0, "pitch": 37, "instrument": 38, "track": 0, "qtime": 3, "isDrum": false}, {"time": 54, "velocity": 108, "pitch": 37, "instrument": 38, "track": 0, "qtime": 6, "isDrum": false}, {"time": 56, "velocity": 0, "pitch": 37, "instrument": 38, "track": 0, "qtime": 8, "isDrum": false}, {"time": 57, "velocity": 108, "pitch": 37, "instrument": 38, "track": 0, "qtime": 9, "isDrum": false}, {"time": 60, "velocity": 0, "pitch": 37, "instrument": 38, "track": 0, "qtime": 12, "isDrum": false}, {"time": 63, "velocity": 108, "pitch": 37, "instrument": 38, "track": 0, "qtime": 15, "isDrum": false}, {"time": 65, "velocity": 0, "pitch": 37, "instrument": 38, "track": 0, "qtime": 17, "isDrum": false}, {"time": 66, "velocity": 108, "pitch": 37, "instrument": 38, "track": 0, "qtime": 18, "isDrum": false}, {"time": 69, "velocity": 0, "pitch": 37, "instrument": 38, "track": 0, "qtime": 21, "isDrum": false}, {"time": 75, "velocity": 108, "pitch": 32, "instrument": 38, "track": 0, "qtime": 27, "isDrum": false}, {"time": 77, "velocity": 0, "pitch": 32, "instrument": 38, "track": 0, "qtime": 29, "isDrum": false}, {"time": 78, "velocity": 108, "pitch": 32, "instrument": 38, "track": 0, "qtime": 30, "isDrum": false}, {"time": 81, "velocity": 0, "pitch": 32, "instrument": 38, "track": 0, "qtime": 33, "isDrum": false}, {"time": 84, "velocity": 108, "pitch": 32, "instrument": 38, "track": 0, "qtime": 36, "isDrum": false}, {"time": 87, "velocity": 0, "pitch": 32, "instrument": 38, "track": 0, "qtime": 39, "isDrum": false}, {"time": 96, "velocity": 108, "pitch": 34, "instrument": 38, "track": 0, "qtime": 0, "isDrum": false}, {"time": 99, "velocity": 0, "pitch": 34, "instrument": 38, "track": 0, "qtime": 3, "isDrum": false}, {"time": 102, "velocity": 108, "pitch": 34, "instrument": 38, "track": 0, "qtime": 6, "isDrum": false}, {"time": 104, "velocity": 0, "pitch": 34, "instrument": 38, "track": 0, "qtime": 8, "isDrum": false}, {"time": 105, "velocity": 108, "pitch": 34, "instrument": 38, "track": 0, "qtime": 9, "isDrum": false}, {"time": 108, "velocity": 0, "pitch": 34, "instrument": 38, "track": 0, "qtime": 12, "isDrum": false}, {"time": 111, "velocity": 108, "pitch": 34, "instrument": 38, "track": 0, "qtime": 15, "isDrum": false}, {"time": 113, "velocity": 0, "pitch": 34, "instrument": 38, "track": 0, "qtime": 17, "isDrum": false}, {"time": 114, "velocity": 108, "pitch": 34, "instrument": 38, "track": 0, "qtime": 18, "isDrum": false}, {"time": 117, "velocity": 0, "pitch": 34, "instrument": 38, "track": 0, "qtime": 21, "isDrum": false}, {"time": 123, "velocity": 108, "pitch": 39, "instrument": 38, "track": 0, "qtime": 27, "isDrum": false}, {"time": 125, "velocity": 0, "pitch": 39, "instrument": 38, "track": 0, "qtime": 29, "isDrum": false}, {"time": 126, "velocity": 108, "pitch": 39, "instrument": 38, "track": 0, "qtime": 30, "isDrum": false}, {"time": 129, "velocity": 0, "pitch": 39, "instrument": 38, "track": 0, "qtime": 33, "isDrum": false}, {"time": 132, "velocity": 108, "pitch": 39, "instrument": 38, "track": 0, "qtime": 36, "isDrum": false}, {"time": 135, "velocity": 0, "pitch": 39, "instrument": 38, "track": 0, "qtime": 39, "isDrum": false}, {"time": 144, "velocity": 108, "pitch": 37, "instrument": 38, "track": 0, "qtime": 0, "isDrum": false}, {"time": 147, "velocity": 0, "pitch": 37, "instrument": 38, "track": 0, "qtime": 3, "isDrum": false}, {"time": 150, "velocity": 108, "pitch": 37, "instrument": 38, "track": 0, "qtime": 6, "isDrum": false}, {"time": 152, "velocity": 0, "pitch": 37, "instrument": 38, "track": 0, "qtime": 8, "isDrum": false}, {"time": 153, "velocity": 108, "pitch": 37, "instrument": 38, "track": 0, "qtime": 9, "isDrum": false}, {"time": 156, "velocity": 0, "pitch": 37, "instrument": 38, "track": 0, "qtime": 12, "isDrum": false}, {"time": 159, "velocity": 108, "pitch": 37, "instrument": 38, "track": 0, "qtime": 15, "isDrum": false}, {"time": 161, "velocity": 0, "pitch": 37, "instrument": 38, "track": 0, "qtime": 17, "isDrum": false}, {"time": 162, "velocity": 108, "pitch": 37, "instrument": 38, "track": 0, "qtime": 18, "isDrum": false}, {"time": 165, "velocity": 0, "pitch": 37, "instrument": 38, "track": 0, "qtime": 21, "isDrum": false}, {"time": 171, "velocity": 108, "pitch": 32, "instrument": 38, "track": 0, "qtime": 27, "isDrum": false}, {"time": 173, "velocity": 0, "pitch": 32, "instrument": 38, "track": 0, "qtime": 29, "isDrum": false}, {"time": 174, "velocity": 108, "pitch": 32, "instrument": 38, "track": 0, "qtime": 30, "isDrum": false}, {"time": 177, "velocity": 0, "pitch": 32, "instrument": 38, "track": 0, "qtime": 33, "isDrum": false}, {"time": 180, "velocity": 108, "pitch": 32, "instrument": 38, "track": 0, "qtime": 36, "isDrum": false}, {"time": 183, "velocity": 0, "pitch": 32, "instrument": 38, "track": 0, "qtime": 39, "isDrum": false}, {"time": 0, "velocity": 48, "pitch": 58, "instrument": 50, "track": 1, "qtime": 0, "isDrum": false}, {"time": 0, "velocity": 48, "pitch": 61, "instrument": 50, "track": 1, "qtime": 0, "isDrum": false}, {"time": 0, "velocity": 48, "pitch": 65, "instrument": 50, "track": 1, "qtime": 0, "isDrum": false}, {"time": 18, "velocity": 0, "pitch": 65, "instrument": 50, "track": 1, "qtime": 18, "isDrum": false}, {"time": 18, "velocity": 48, "pitch": 66, "instrument": 50, "track": 1, "qtime": 18, "isDrum": false}, {"time": 47, "velocity": 0, "pitch": 66, "instrument": 50, "track": 1, "qtime": 47, "isDrum": false}, {"time": 48, "velocity": 0, "pitch": 58, "instrument": 50, "track": 1, "qtime": 48, "isDrum": false}, {"time": 48, "velocity": 48, "pitch": 56, "instrument": 50, "track": 1, "qtime": 0, "isDrum": false}, {"time": 48, "velocity": 48, "pitch": 65, "instrument": 50, "track": 1, "qtime": 0, "isDrum": false}, {"time": 65, "velocity": 0, "pitch": 61, "instrument": 50, "track": 1, "qtime": 17, "isDrum": false}, {"time": 66, "velocity": 0, "pitch": 65, "instrument": 50, "track": 1, "qtime": 18, "isDrum": false}, {"time": 66, "velocity": 48, "pitch": 60, "instrument": 50, "track": 1, "qtime": 18, "isDrum": false}, {"time": 66, "velocity": 48, "pitch": 63, "instrument": 50, "track": 1, "qtime": 18, "isDrum": false}, {"time": 95, "velocity": 0, "pitch": 63, "instrument": 50, "track": 1, "qtime": 47, "isDrum": false}, {"time": 96, "velocity": 0, "pitch": 56, "instrument": 50, "track": 1, "qtime": 48, "isDrum": false}, {"time": 96, "velocity": 0, "pitch": 60, "instrument": 50, "track": 1, "qtime": 48, "isDrum": false}, {"time": 96, "velocity": 48, "pitch": 58, "instrument": 50, "track": 1, "qtime": 0, "isDrum": false}, {"time": 96, "velocity": 48, "pitch": 61, "instrument": 50, "track": 1, "qtime": 0, "isDrum": false}, {"time": 96, "velocity": 48, "pitch": 65, "instrument": 50, "track": 1, "qtime": 0, "isDrum": false}, {"time": 114, "velocity": 0, "pitch": 65, "instrument": 50, "track": 1, "qtime": 18, "isDrum": false}, {"time": 114, "velocity": 48, "pitch": 66, "instrument": 50, "track": 1, "qtime": 18, "isDrum": false}, {"time": 144, "velocity": 0, "pitch": 58, "instrument": 50, "track": 1, "qtime": 48, "isDrum": false}, {"time": 144, "velocity": 0, "pitch": 66, "instrument": 50, "track": 1, "qtime": 48, "isDrum": false}, {"time": 144, "velocity": 48, "pitch": 56, "instrument": 50, "track": 1, "qtime": 0, "isDrum": false}, {"time": 144, "velocity": 48, "pitch": 65, "instrument": 50, "track": 1, "qtime": 0, "isDrum": false}, {"time": 165, "velocity": 0, "pitch": 61, "instrument": 50, "track": 1, "qtime": 21, "isDrum": false}, {"time": 165, "velocity": 0, "pitch": 65, "instrument": 50, "track": 1, "qtime": 21, "isDrum": false}, {"time": 165, "velocity": 48, "pitch": 60, "instrument": 50, "track": 1, "qtime": 21, "isDrum": false}, {"time": 165, "velocity": 48, "pitch": 63, "instrument": 50, "track": 1, "qtime": 21, "isDrum": false}, {"time": 192, "velocity": 0, "pitch": 56, "instrument": 50, "track": 1, "qtime": 48, "isDrum": false}, {"time": 192, "velocity": 0, "pitch": 60, "instrument": 50, "track": 1, "qtime": 48, "isDrum": false}, {"time": 192, "velocity": 0, "pitch": 63, "instrument": 50, "track": 1, "qtime": 48, "isDrum": false}, {"time": 0, "velocity": 108, "pitch": 58, "instrument": 0, "track": 2, "qtime": 0, "isDrum": false}, {"time": 0, "velocity": 108, "pitch": 61, "instrument": 0, "track": 2, "qtime": 0, "isDrum": false}, {"time": 0, "velocity": 108, "pitch": 65, "instrument": 0, "track": 2, "qtime": 0, "isDrum": false}, {"time": 15, "velocity": 0, "pitch": 58, "instrument": 0, "track": 2, "qtime": 15, "isDrum": false}, {"time": 15, "velocity": 0, "pitch": 61, "instrument": 0, "track": 2, "qtime": 15, "isDrum": false}, {"time": 15, "velocity": 0, "pitch": 65, "instrument": 0, "track": 2, "qtime": 15, "isDrum": false}, {"time": 18, "velocity": 108, "pitch": 58, "instrument": 0, "track": 2, "qtime": 18, "isDrum": false}, {"time": 18, "velocity": 108, "pitch": 61, "instrument": 0, "track": 2, "qtime": 18, "isDrum": false}, {"time": 18, "velocity": 108, "pitch": 66, "instrument": 0, "track": 2, "qtime": 18, "isDrum": false}, {"time": 43, "velocity": 0, "pitch": 66, "instrument": 0, "track": 2, "qtime": 43, "isDrum": false}, {"time": 45, "velocity": 0, "pitch": 58, "instrument": 0, "track": 2, "qtime": 45, "isDrum": false}, {"time": 45, "velocity": 0, "pitch": 61, "instrument": 0, "track": 2, "qtime": 45, "isDrum": false}, {"time": 48, "velocity": 108, "pitch": 61, "instrument": 0, "track": 2, "qtime": 0, "isDrum": false}, {"time": 48, "velocity": 108, "pitch": 65, "instrument": 0, "track": 2, "qtime": 0, "isDrum": false}, {"time": 49, "velocity": 108, "pitch": 56, "instrument": 0, "track": 2, "qtime": 1, "isDrum": false}, {"time": 62, "velocity": 0, "pitch": 61, "instrument": 0, "track": 2, "qtime": 14, "isDrum": false}, {"time": 62, "velocity": 0, "pitch": 65, "instrument": 0, "track": 2, "qtime": 14, "isDrum": false}, {"time": 63, "velocity": 0, "pitch": 56, "instrument": 0, "track": 2, "qtime": 15, "isDrum": false}, {"time": 66, "velocity": 108, "pitch": 56, "instrument": 0, "track": 2, "qtime": 18, "isDrum": false}, {"time": 66, "velocity": 108, "pitch": 60, "instrument": 0, "track": 2, "qtime": 18, "isDrum": false}, {"time": 66, "velocity": 108, "pitch": 63, "instrument": 0, "track": 2, "qtime": 18, "isDrum": false}, {"time": 92, "velocity": 0, "pitch": 56, "instrument": 0, "track": 2, "qtime": 44, "isDrum": false}, {"time": 92, "velocity": 0, "pitch": 60, "instrument": 0, "track": 2, "qtime": 44, "isDrum": false}, {"time": 93, "velocity": 0, "pitch": 63, "instrument": 0, "track": 2, "qtime": 45, "isDrum": false}, {"time": 96, "velocity": 108, "pitch": 58, "instrument": 0, "track": 2, "qtime": 0, "isDrum": false}, {"time": 96, "velocity": 108, "pitch": 61, "instrument": 0, "track": 2, "qtime": 0, "isDrum": false}, {"time": 96, "velocity": 108, "pitch": 65, "instrument": 0, "track": 2, "qtime": 0, "isDrum": false}, {"time": 111, "velocity": 0, "pitch": 65, "instrument": 0, "track": 2, "qtime": 15, "isDrum": false}, {"time": 112, "velocity": 0, "pitch": 61, "instrument": 0, "track": 2, "qtime": 16, "isDrum": false}, {"time": 113, "velocity": 0, "pitch": 58, "instrument": 0, "track": 2, "qtime": 17, "isDrum": false}, {"time": 114, "velocity": 108, "pitch": 58, "instrument": 0, "track": 2, "qtime": 18, "isDrum": false}, {"time": 114, "velocity": 108, "pitch": 61, "instrument": 0, "track": 2, "qtime": 18, "isDrum": false}, {"time": 114, "velocity": 108, "pitch": 66, "instrument": 0, "track": 2, "qtime": 18, "isDrum": false}, {"time": 140, "velocity": 0, "pitch": 58, "instrument": 0, "track": 2, "qtime": 44, "isDrum": false}, {"time": 140, "velocity": 0, "pitch": 61, "instrument": 0, "track": 2, "qtime": 44, "isDrum": false}, {"time": 140, "velocity": 0, "pitch": 66, "instrument": 0, "track": 2, "qtime": 44, "isDrum": false}, {"time": 144, "velocity": 108, "pitch": 56, "instrument": 0, "track": 2, "qtime": 0, "isDrum": false}, {"time": 144, "velocity": 108, "pitch": 61, "instrument": 0, "track": 2, "qtime": 0, "isDrum": false}, {"time": 144, "velocity": 108, "pitch": 65, "instrument": 0, "track": 2, "qtime": 0, "isDrum": false}, {"time": 158, "velocity": 0, "pitch": 61, "instrument": 0, "track": 2, "qtime": 14, "isDrum": false}, {"time": 158, "velocity": 0, "pitch": 65, "instrument": 0, "track": 2, "qtime": 14, "isDrum": false}, {"time": 159, "velocity": 0, "pitch": 56, "instrument": 0, "track": 2, "qtime": 15, "isDrum": false}, {"time": 162, "velocity": 108, "pitch": 56, "instrument": 0, "track": 2, "qtime": 18, "isDrum": false}, {"time": 162, "velocity": 108, "pitch": 60, "instrument": 0, "track": 2, "qtime": 18, "isDrum": false}, {"time": 162, "velocity": 108, "pitch": 63, "instrument": 0, "track": 2, "qtime": 18, "isDrum": false}, {"time": 188, "velocity": 0, "pitch": 56, "instrument": 0, "track": 2, "qtime": 44, "isDrum": false}, {"time": 188, "velocity": 0, "pitch": 60, "instrument": 0, "track": 2, "qtime": 44, "isDrum": false}, {"time": 188, "velocity": 0, "pitch": 63, "instrument": 0, "track": 2, "qtime": 44, "isDrum": false}, {"time": 0, "velocity": 84, "pitch": 72, "instrument": 9, "track": 3, "qtime": 0, "isDrum": false}, {"time": 6, "velocity": 0, "pitch": 72, "instrument": 9, "track": 3, "qtime": 6, "isDrum": false}, {"time": 18, "velocity": 84, "pitch": 68, "instrument": 9, "track": 3, "qtime": 18, "isDrum": false}, {"time": 25, "velocity": 0, "pitch": 68, "instrument": 9, "track": 3, "qtime": 25, "isDrum": false}, {"time": 48, "velocity": 84, "pitch": 68, "instrument": 9, "track": 3, "qtime": 0, "isDrum": false}, {"time": 55, "velocity": 0, "pitch": 68, "instrument": 9, "track": 3, "qtime": 7, "isDrum": false}, {"time": 66, "velocity": 84, "pitch": 70, "instrument": 9, "track": 3, "qtime": 18, "isDrum": false}, {"time": 72, "velocity": 0, "pitch": 70, "instrument": 9, "track": 3, "qtime": 24, "isDrum": false}, {"time": 96, "velocity": 84, "pitch": 72, "instrument": 9, "track": 3, "qtime": 0, "isDrum": false}, {"time": 102, "velocity": 0, "pitch": 72, "instrument": 9, "track": 3, "qtime": 6, "isDrum": false}, {"time": 114, "velocity": 84, "pitch": 68, "instrument": 9, "track": 3, "qtime": 18, "isDrum": false}, {"time": 121, "velocity": 0, "pitch": 68, "instrument": 9, "track": 3, "qtime": 25, "isDrum": false}, {"time": 144, "velocity": 84, "pitch": 68, "instrument": 9, "track": 3, "qtime": 0, "isDrum": false}, {"time": 150, "velocity": 0, "pitch": 68, "instrument": 9, "track": 3, "qtime": 6, "isDrum": false}, {"time": 162, "velocity": 84, "pitch": 70, "instrument": 9, "track": 3, "qtime": 18, "isDrum": false}, {"time": 170, "velocity": 0, "pitch": 70, "instrument": 9, "track": 3, "qtime": 26, "isDrum": false}], "resolution": 12, "tempo": 100, "minPitch": 32, "maxPitch": 72, "validSegments": [0], "validTracks": [15]}, "audio": "https://www.sfu.ca/~jeffe/examples/stem_50_bass_bar.mp3"}, {"src": "gen/stem_50_2_bar.json", "highlights": [[1, 3], [1, 3], [1, 3], [1, 3]], "caption": "We replace the second and fourth bars on each track in 22a.", "sample_id": "22c", "mixer": [8, 3, 8, 6], "json": {"tracks": [{"bars": [{"events": [0, 1, 2, 3, 4, 5, 6, 7, 8, 9, 10, 11, 12, 13, 14, 15], "isFourFour": true, "hasNotes": true, "time": 0}, {"events": [16, 17, 18, 19, 20, 21, 22, 23, 24, 25, 26, 27, 28, 29, 30, 31, 32, 33], "isFourFour": true, "hasNotes": true, "time": 48}, {"events": [34, 35, 36, 37, 38, 39, 40, 41, 42, 43, 44, 45, 46, 47, 48, 49], "isFourFour": true, "hasNotes": true, "time": 96}, {"events": [50, 51, 52, 53, 54, 55, 56, 57, 58, 59, 60, 61, 62, 63, 64, 65, 66, 67], "isFourFour": true, "hasNotes": true, "time": 144}], "isDrum": false, "minPitch": 29, "maxPitch": 34, "instrument": 38, "avPolyphony": 1, "noteDensity": 9, "noteDensityV2": 6}, {"bars": [{"events": [68, 69, 70, 71, 72, 73, 74], "isFourFour": true, "hasNotes": true, "time": 0}, {"events": [75, 76, 77, 78, 79, 80, 81], "isFourFour": true, "hasNotes": true, "time": 48}, {"events": [82, 83, 84, 85, 86, 87, 88], "isFourFour": true, "hasNotes": true, "time": 96}, {"events": [89, 90, 91, 92, 93, 94, 95], "isFourFour": true, "hasNotes": true, "time": 144}], "isDrum": false, "minPitch": 58, "maxPitch": 68, "instrument": 50, "avPolyphony": 2.99479175, "noteDensity": 3, "noteDensityV2": 5}, {"bars": [{"events": [96, 97, 98, 99, 100, 101, 102, 103, 104, 105, 106, 107], "isFourFour": true, "hasNotes": true, "time": 0}, {"events": [108, 109, 110, 111, 112, 113], "isFourFour": true, "hasNotes": true, "time": 48}, {"events": [114, 115, 116, 117, 118, 119, 120, 121, 122, 123, 124, 125], "isFourFour": true, "hasNotes": true, "time": 96}, {"events": [126, 127, 128, 129, 130, 131], "isFourFour": true, "hasNotes": true, "time": 144}], "isDrum": false, "minPitch": 56, "maxPitch": 66, "instrument": 0, "avPolyphony": 2.9552238, "noteDensity": 5, "noteDensityV2": 3}, {"bars": [{"events": [132, 133, 134, 135], "isFourFour": true, "hasNotes": true, "time": 0}, {"events": [136, 137, 138, 139], "isFourFour": true, "hasNotes": true, "time": 48}, {"events": [140, 141, 142, 143], "isFourFour": true, "hasNotes": true, "time": 96}, {"events": [144, 145, 146, 147, 148, 149], "isFourFour": true, "hasNotes": true, "time": 144}], "isDrum": false, "minPitch": 68, "maxPitch": 73, "instrument": 9, "avPolyphony": 1, "noteDensity": 1, "noteDensityV2": 1}], "events": [{"time": 0, "velocity": 108, "pitch": 34, "instrument": 38, "track": 0, "qtime": 0, "isDrum": false}, {"time": 3, "velocity": 0, "pitch": 34, "instrument": 38, "track": 0, "qtime": 3, "isDrum": false}, {"time": 6, "velocity": 108, "pitch": 34, "instrument": 38, "track": 0, "qtime": 6, "isDrum": false}, {"time": 8, "velocity": 0, "pitch": 34, "instrument": 38, "track": 0, "qtime": 8, "isDrum": false}, {"time": 9, "velocity": 108, "pitch": 34, "instrument": 38, "track": 0, "qtime": 9, "isDrum": false}, {"time": 12, "velocity": 0, "pitch": 34, "instrument": 38, "track": 0, "qtime": 12, "isDrum": false}, {"time": 15, "velocity": 108, "pitch": 34, "instrument": 38, "track": 0, "qtime": 15, "isDrum": false}, {"time": 17, "velocity": 0, "pitch": 34, "instrument": 38, "track": 0, "qtime": 17, "isDrum": false}, {"time": 18, "velocity": 108, "pitch": 34, "instrument": 38, "track": 0, "qtime": 18, "isDrum": false}, {"time": 21, "velocity": 0, "pitch": 34, "instrument": 38, "track": 0, "qtime": 21, "isDrum": false}, {"time": 27, "velocity": 108, "pitch": 30, "instrument": 38, "track": 0, "qtime": 27, "isDrum": false}, {"time": 29, "velocity": 0, "pitch": 30, "instrument": 38, "track": 0, "qtime": 29, "isDrum": false}, {"time": 30, "velocity": 108, "pitch": 30, "instrument": 38, "track": 0, "qtime": 30, "isDrum": false}, {"time": 33, "velocity": 0, "pitch": 30, "instrument": 38, "track": 0, "qtime": 33, "isDrum": false}, {"time": 36, "velocity": 108, "pitch": 30, "instrument": 38, "track": 0, "qtime": 36, "isDrum": false}, {"time": 39, "velocity": 0, "pitch": 30, "instrument": 38, "track": 0, "qtime": 39, "isDrum": false}, {"time": 48, "velocity": 108, "pitch": 32, "instrument": 38, "track": 0, "qtime": 0, "isDrum": false}, {"time": 51, "velocity": 0, "pitch": 32, "instrument": 38, "track": 0, "qtime": 3, "isDrum": false}, {"time": 54, "velocity": 108, "pitch": 32, "instrument": 38, "track": 0, "qtime": 6, "isDrum": false}, {"time": 56, "velocity": 0, "pitch": 32, "instrument": 38, "track": 0, "qtime": 8, "isDrum": false}, {"time": 57, "velocity": 108, "pitch": 32, "instrument": 38, "track": 0, "qtime": 9, "isDrum": false}, {"time": 60, "velocity": 0, "pitch": 32, "instrument": 38, "track": 0, "qtime": 12, "isDrum": false}, {"time": 63, "velocity": 108, "pitch": 32, "instrument": 38, "track": 0, "qtime": 15, "isDrum": false}, {"time": 65, "velocity": 0, "pitch": 32, "instrument": 38, "track": 0, "qtime": 17, "isDrum": false}, {"time": 66, "velocity": 108, "pitch": 32, "instrument": 38, "track": 0, "qtime": 18, "isDrum": false}, {"time": 69, "velocity": 0, "pitch": 32, "instrument": 38, "track": 0, "qtime": 21, "isDrum": false}, {"time": 75, "velocity": 108, "pitch": 32, "instrument": 38, "track": 0, "qtime": 27, "isDrum": false}, {"time": 78, "velocity": 0, "pitch": 32, "instrument": 38, "track": 0, "qtime": 30, "isDrum": false}, {"time": 78, "velocity": 108, "pitch": 30, "instrument": 38, "track": 0, "qtime": 30, "isDrum": false}, {"time": 81, "velocity": 0, "pitch": 30, "instrument": 38, "track": 0, "qtime": 33, "isDrum": false}, {"time": 84, "velocity": 108, "pitch": 29, "instrument": 38, "track": 0, "qtime": 36, "isDrum": false}, {"time": 87, "velocity": 0, "pitch": 29, "instrument": 38, "track": 0, "qtime": 39, "isDrum": false}, {"time": 90, "velocity": 108, "pitch": 32, "instrument": 38, "track": 0, "qtime": 42, "isDrum": false}, {"time": 95, "velocity": 0, "pitch": 32, "instrument": 38, "track": 0, "qtime": 47, "isDrum": false}, {"time": 96, "velocity": 108, "pitch": 34, "instrument": 38, "track": 0, "qtime": 0, "isDrum": false}, {"time": 99, "velocity": 0, "pitch": 34, "instrument": 38, "track": 0, "qtime": 3, "isDrum": false}, {"time": 102, "velocity": 108, "pitch": 34, "instrument": 38, "track": 0, "qtime": 6, "isDrum": false}, {"time": 104, "velocity": 0, "pitch": 34, "instrument": 38, "track": 0, "qtime": 8, "isDrum": false}, {"time": 105, "velocity": 108, "pitch": 34, "instrument": 38, "track": 0, "qtime": 9, "isDrum": false}, {"time": 108, "velocity": 0, "pitch": 34, "instrument": 38, "track": 0, "qtime": 12, "isDrum": false}, {"time": 111, "velocity": 108, "pitch": 34, "instrument": 38, "track": 0, "qtime": 15, "isDrum": false}, {"time": 113, "velocity": 0, "pitch": 34, "instrument": 38, "track": 0, "qtime": 17, "isDrum": false}, {"time": 114, "velocity": 108, "pitch": 34, "instrument": 38, "track": 0, "qtime": 18, "isDrum": false}, {"time": 117, "velocity": 0, "pitch": 34, "instrument": 38, "track": 0, "qtime": 21, "isDrum": false}, {"time": 123, "velocity": 108, "pitch": 30, "instrument": 38, "track": 0, "qtime": 27, "isDrum": false}, {"time": 125, "velocity": 0, "pitch": 30, "instrument": 38, "track": 0, "qtime": 29, "isDrum": false}, {"time": 126, "velocity": 108, "pitch": 30, "instrument": 38, "track": 0, "qtime": 30, "isDrum": false}, {"time": 129, "velocity": 0, "pitch": 30, "instrument": 38, "track": 0, "qtime": 33, "isDrum": false}, {"time": 132, "velocity": 108, "pitch": 30, "instrument": 38, "track": 0, "qtime": 36, "isDrum": false}, {"time": 135, "velocity": 0, "pitch": 30, "instrument": 38, "track": 0, "qtime": 39, "isDrum": false}, {"time": 144, "velocity": 108, "pitch": 32, "instrument": 38, "track": 0, "qtime": 0, "isDrum": false}, {"time": 147, "velocity": 0, "pitch": 32, "instrument": 38, "track": 0, "qtime": 3, "isDrum": false}, {"time": 150, "velocity": 108, "pitch": 32, "instrument": 38, "track": 0, "qtime": 6, "isDrum": false}, {"time": 152, "velocity": 0, "pitch": 32, "instrument": 38, "track": 0, "qtime": 8, "isDrum": false}, {"time": 153, "velocity": 108, "pitch": 32, "instrument": 38, "track": 0, "qtime": 9, "isDrum": false}, {"time": 156, "velocity": 0, "pitch": 32, "instrument": 38, "track": 0, "qtime": 12, "isDrum": false}, {"time": 159, "velocity": 108, "pitch": 32, "instrument": 38, "track": 0, "qtime": 15, "isDrum": false}, {"time": 161, "velocity": 0, "pitch": 32, "instrument": 38, "track": 0, "qtime": 17, "isDrum": false}, {"time": 162, "velocity": 108, "pitch": 32, "instrument": 38, "track": 0, "qtime": 18, "isDrum": false}, {"time": 165, "velocity": 0, "pitch": 32, "instrument": 38, "track": 0, "qtime": 21, "isDrum": false}, {"time": 171, "velocity": 108, "pitch": 32, "instrument": 38, "track": 0, "qtime": 27, "isDrum": false}, {"time": 174, "velocity": 0, "pitch": 32, "instrument": 38, "track": 0, "qtime": 30, "isDrum": false}, {"time": 174, "velocity": 108, "pitch": 30, "instrument": 38, "track": 0, "qtime": 30, "isDrum": false}, {"time": 177, "velocity": 0, "pitch": 30, "instrument": 38, "track": 0, "qtime": 33, "isDrum": false}, {"time": 180, "velocity": 108, "pitch": 29, "instrument": 38, "track": 0, "qtime": 36, "isDrum": false}, {"time": 183, "velocity": 0, "pitch": 29, "instrument": 38, "track": 0, "qtime": 39, "isDrum": false}, {"time": 186, "velocity": 108, "pitch": 32, "instrument": 38, "track": 0, "qtime": 42, "isDrum": false}, {"time": 191, "velocity": 0, "pitch": 32, "instrument": 38, "track": 0, "qtime": 47, "isDrum": false}, {"time": 0, "velocity": 48, "pitch": 58, "instrument": 50, "track": 1, "qtime": 0, "isDrum": false}, {"time": 0, "velocity": 48, "pitch": 61, "instrument": 50, "track": 1, "qtime": 0, "isDrum": false}, {"time": 0, "velocity": 48, "pitch": 65, "instrument": 50, "track": 1, "qtime": 0, "isDrum": false}, {"time": 18, "velocity": 0, "pitch": 65, "instrument": 50, "track": 1, "qtime": 18, "isDrum": false}, {"time": 18, "velocity": 48, "pitch": 66, "instrument": 50, "track": 1, "qtime": 18, "isDrum": false}, {"time": 47, "velocity": 0, "pitch": 66, "instrument": 50, "track": 1, "qtime": 47, "isDrum": false}, {"time": 48, "velocity": 0, "pitch": 58, "instrument": 50, "track": 1, "qtime": 48, "isDrum": false}, {"time": 48, "velocity": 48, "pitch": 60, "instrument": 50, "track": 1, "qtime": 0, "isDrum": false}, {"time": 48, "velocity": 48, "pitch": 63, "instrument": 50, "track": 1, "qtime": 0, "isDrum": false}, {"time": 48, "velocity": 48, "pitch": 68, "instrument": 50, "track": 1, "qtime": 0, "isDrum": false}, {"time": 49, "velocity": 0, "pitch": 61, "instrument": 50, "track": 1, "qtime": 1, "isDrum": false}, {"time": 96, "velocity": 0, "pitch": 60, "instrument": 50, "track": 1, "qtime": 48, "isDrum": false}, {"time": 96, "velocity": 0, "pitch": 63, "instrument": 50, "track": 1, "qtime": 48, "isDrum": false}, {"time": 96, "velocity": 0, "pitch": 68, "instrument": 50, "track": 1, "qtime": 48, "isDrum": false}, {"time": 96, "velocity": 48, "pitch": 58, "instrument": 50, "track": 1, "qtime": 0, "isDrum": false}, {"time": 96, "velocity": 48, "pitch": 61, "instrument": 50, "track": 1, "qtime": 0, "isDrum": false}, {"time": 96, "velocity": 48, "pitch": 65, "instrument": 50, "track": 1, "qtime": 0, "isDrum": false}, {"time": 114, "velocity": 0, "pitch": 65, "instrument": 50, "track": 1, "qtime": 18, "isDrum": false}, {"time": 114, "velocity": 48, "pitch": 66, "instrument": 50, "track": 1, "qtime": 18, "isDrum": false}, {"time": 143, "velocity": 0, "pitch": 66, "instrument": 50, "track": 1, "qtime": 47, "isDrum": false}, {"time": 144, "velocity": 0, "pitch": 58, "instrument": 50, "track": 1, "qtime": 48, "isDrum": false}, {"time": 144, "velocity": 48, "pitch": 60, "instrument": 50, "track": 1, "qtime": 0, "isDrum": false}, {"time": 144, "velocity": 48, "pitch": 63, "instrument": 50, "track": 1, "qtime": 0, "isDrum": false}, {"time": 144, "velocity": 48, "pitch": 68, "instrument": 50, "track": 1, "qtime": 0, "isDrum": false}, {"time": 145, "velocity": 0, "pitch": 61, "instrument": 50, "track": 1, "qtime": 1, "isDrum": false}, {"time": 191, "velocity": 0, "pitch": 60, "instrument": 50, "track": 1, "qtime": 47, "isDrum": false}, {"time": 192, "velocity": 0, "pitch": 63, "instrument": 50, "track": 1, "qtime": 48, "isDrum": false}, {"time": 192, "velocity": 0, "pitch": 68, "instrument": 50, "track": 1, "qtime": 48, "isDrum": false}, {"time": 0, "velocity": 108, "pitch": 58, "instrument": 0, "track": 2, "qtime": 0, "isDrum": false}, {"time": 0, "velocity": 108, "pitch": 61, "instrument": 0, "track": 2, "qtime": 0, "isDrum": false}, {"time": 0, "velocity": 108, "pitch": 65, "instrument": 0, "track": 2, "qtime": 0, "isDrum": false}, {"time": 15, "velocity": 0, "pitch": 58, "instrument": 0, "track": 2, "qtime": 15, "isDrum": false}, {"time": 15, "velocity": 0, "pitch": 61, "instrument": 0, "track": 2, "qtime": 15, "isDrum": false}, {"time": 15, "velocity": 0, "pitch": 65, "instrument": 0, "track": 2, "qtime": 15, "isDrum": false}, {"time": 18, "velocity": 108, "pitch": 58, "instrument": 0, "track": 2, "qtime": 18, "isDrum": false}, {"time": 18, "velocity": 108, "pitch": 61, "instrument": 0, "track": 2, "qtime": 18, "isDrum": false}, {"time": 18, "velocity": 108, "pitch": 66, "instrument": 0, "track": 2, "qtime": 18, "isDrum": false}, {"time": 43, "velocity": 0, "pitch": 66, "instrument": 0, "track": 2, "qtime": 43, "isDrum": false}, {"time": 45, "velocity": 0, "pitch": 58, "instrument": 0, "track": 2, "qtime": 45, "isDrum": false}, {"time": 45, "velocity": 0, "pitch": 61, "instrument": 0, "track": 2, "qtime": 45, "isDrum": false}, {"time": 48, "velocity": 108, "pitch": 56, "instrument": 0, "track": 2, "qtime": 0, "isDrum": false}, {"time": 48, "velocity": 108, "pitch": 60, "instrument": 0, "track": 2, "qtime": 0, "isDrum": false}, {"time": 48, "velocity": 108, "pitch": 63, "instrument": 0, "track": 2, "qtime": 0, "isDrum": false}, {"time": 74, "velocity": 0, "pitch": 56, "instrument": 0, "track": 2, "qtime": 26, "isDrum": false}, {"time": 74, "velocity": 0, "pitch": 60, "instrument": 0, "track": 2, "qtime": 26, "isDrum": false}, {"time": 74, "velocity": 0, "pitch": 63, "instrument": 0, "track": 2, "qtime": 26, "isDrum": false}, {"time": 96, "velocity": 108, "pitch": 58, "instrument": 0, "track": 2, "qtime": 0, "isDrum": false}, {"time": 96, "velocity": 108, "pitch": 61, "instrument": 0, "track": 2, "qtime": 0, "isDrum": false}, {"time": 96, "velocity": 108, "pitch": 65, "instrument": 0, "track": 2, "qtime": 0, "isDrum": false}, {"time": 110, "velocity": 0, "pitch": 58, "instrument": 0, "track": 2, "qtime": 14, "isDrum": false}, {"time": 111, "velocity": 0, "pitch": 61, "instrument": 0, "track": 2, "qtime": 15, "isDrum": false}, {"time": 111, "velocity": 0, "pitch": 65, "instrument": 0, "track": 2, "qtime": 15, "isDrum": false}, {"time": 114, "velocity": 108, "pitch": 58, "instrument": 0, "track": 2, "qtime": 18, "isDrum": false}, {"time": 114, "velocity": 108, "pitch": 61, "instrument": 0, "track": 2, "qtime": 18, "isDrum": false}, {"time": 114, "velocity": 108, "pitch": 66, "instrument": 0, "track": 2, "qtime": 18, "isDrum": false}, {"time": 138, "velocity": 0, "pitch": 66, "instrument": 0, "track": 2, "qtime": 42, "isDrum": false}, {"time": 139, "velocity": 0, "pitch": 58, "instrument": 0, "track": 2, "qtime": 43, "isDrum": false}, {"time": 139, "velocity": 0, "pitch": 61, "instrument": 0, "track": 2, "qtime": 43, "isDrum": false}, {"time": 144, "velocity": 108, "pitch": 56, "instrument": 0, "track": 2, "qtime": 0, "isDrum": false}, {"time": 144, "velocity": 108, "pitch": 60, "instrument": 0, "track": 2, "qtime": 0, "isDrum": false}, {"time": 144, "velocity": 108, "pitch": 63, "instrument": 0, "track": 2, "qtime": 0, "isDrum": false}, {"time": 169, "velocity": 0, "pitch": 56, "instrument": 0, "track": 2, "qtime": 25, "isDrum": false}, {"time": 169, "velocity": 0, "pitch": 63, "instrument": 0, "track": 2, "qtime": 25, "isDrum": false}, {"time": 170, "velocity": 0, "pitch": 60, "instrument": 0, "track": 2, "qtime": 26, "isDrum": false}, {"time": 0, "velocity": 84, "pitch": 72, "instrument": 9, "track": 3, "qtime": 0, "isDrum": false}, {"time": 6, "velocity": 0, "pitch": 72, "instrument": 9, "track": 3, "qtime": 6, "isDrum": false}, {"time": 18, "velocity": 84, "pitch": 68, "instrument": 9, "track": 3, "qtime": 18, "isDrum": false}, {"time": 25, "velocity": 0, "pitch": 68, "instrument": 9, "track": 3, "qtime": 25, "isDrum": false}, {"time": 48, "velocity": 84, "pitch": 68, "instrument": 9, "track": 3, "qtime": 0, "isDrum": false}, {"time": 54, "velocity": 0, "pitch": 68, "instrument": 9, "track": 3, "qtime": 6, "isDrum": false}, {"time": 90, "velocity": 84, "pitch": 68, "instrument": 9, "track": 3, "qtime": 42, "isDrum": false}, {"time": 93, "velocity": 0, "pitch": 68, "instrument": 9, "track": 3, "qtime": 45, "isDrum": false}, {"time": 96, "velocity": 84, "pitch": 70, "instrument": 9, "track": 3, "qtime": 0, "isDrum": false}, {"time": 102, "velocity": 0, "pitch": 70, "instrument": 9, "track": 3, "qtime": 6, "isDrum": false}, {"time": 114, "velocity": 84, "pitch": 73, "instrument": 9, "track": 3, "qtime": 18, "isDrum": false}, {"time": 120, "velocity": 0, "pitch": 73, "instrument": 9, "track": 3, "qtime": 24, "isDrum": false}, {"time": 144, "velocity": 84, "pitch": 68, "instrument": 9, "track": 3, "qtime": 0, "isDrum": false}, {"time": 149, "velocity": 0, "pitch": 68, "instrument": 9, "track": 3, "qtime": 5, "isDrum": false}, {"time": 180, "velocity": 84, "pitch": 68, "instrument": 9, "track": 3, "qtime": 36, "isDrum": false}, {"time": 184, "velocity": 0, "pitch": 68, "instrument": 9, "track": 3, "qtime": 40, "isDrum": false}, {"time": 186, "velocity": 84, "pitch": 68, "instrument": 9, "track": 3, "qtime": 42, "isDrum": false}, {"time": 190, "velocity": 0, "pitch": 68, "instrument": 9, "track": 3, "qtime": 46, "isDrum": false}], "resolution": 12, "tempo": 100, "minPitch": 29, "maxPitch": 73, "validSegments": [0], "validTracks": [15]}, "audio": "https://www.sfu.ca/~jeffe/examples/stem_50_2_bar.mp3"}, {"src": "gen/stem_50_2b_bar.json", "highlights": [[0, 2], [0, 2], [0, 2], [0, 2]], "caption": "Now we replace the first and third bars on each track in 22c.", "sample_id": "22d", "mixer": [8, 3, 8, 6], "json": {"tracks": [{"bars": [{"events": [0, 1, 2, 3, 4, 5, 6, 7, 8, 9, 10, 11, 12, 13, 14, 15, 16, 17], "isFourFour": true, "hasNotes": true, "time": 0}, {"events": [18, 19, 20, 21, 22, 23, 24, 25, 26, 27, 28, 29, 30, 31, 32, 33, 34, 35], "isFourFour": true, "hasNotes": true, "time": 48}, {"events": [36, 37, 38, 39, 40, 41, 42, 43, 44, 45, 46, 47, 48, 49, 50, 51, 52, 53], "isFourFour": true, "hasNotes": true, "time": 96}, {"events": [54, 55, 56, 57, 58, 59, 60, 61, 62, 63, 64, 65, 66, 67, 68, 69, 70, 71], "isFourFour": true, "hasNotes": true, "time": 144}], "isDrum": false, "minPitch": 27, "maxPitch": 34, "instrument": 38, "avPolyphony": 1, "noteDensity": 9, "noteDensityV2": 6}, {"bars": [{"events": [72, 73, 74, 75, 76], "isFourFour": true, "hasNotes": true, "time": 0}, {"events": [77, 78, 79, 80, 81, 82, 83], "isFourFour": true, "hasNotes": true, "time": 48}, {"events": [84, 85, 86, 87, 88], "isFourFour": true, "hasNotes": true, "time": 96}, {"events": [89, 90, 91, 92, 93, 94, 95], "isFourFour": true, "hasNotes": true, "time": 144}], "isDrum": false, "minPitch": 58, "maxPitch": 68, "instrument": 50, "avPolyphony": 3.00520825, "noteDensity": 2, "noteDensityV2": 2}, {"bars": [{"events": [96, 97, 98, 99, 100, 101], "isFourFour": true, "hasNotes": true, "time": 0}, {"events": [102, 103, 104, 105, 106, 107], "isFourFour": true, "hasNotes": true, "time": 48}, {"events": [108, 109, 110, 111, 112, 113], "isFourFour": true, "hasNotes": true, "time": 96}, {"events": [114, 115, 116, 117, 118, 119], "isFourFour": true, "hasNotes": true, "time": 144}], "isDrum": false, "minPitch": 56, "maxPitch": 66, "instrument": 0, "avPolyphony": 2.97727275, "noteDensity": 2, "noteDensityV2": 1}, {"bars": [{"events": [120, 121, 122, 123, 124, 125, 126, 127], "isFourFour": true, "hasNotes": true, "time": 0}, {"events": [128, 129, 130, 131], "isFourFour": true, "hasNotes": true, "time": 48}, {"events": [132, 133, 134, 135, 136, 137, 138, 139], "isFourFour": true, "hasNotes": true, "time": 96}, {"events": [140, 141, 142, 143, 144, 145], "isFourFour": true, "hasNotes": true, "time": 144}], "isDrum": false, "minPitch": 68, "maxPitch": 70, "instrument": 9, "avPolyphony": 1, "noteDensity": 3, "noteDensityV2": 3}], "events": [{"time": 0, "velocity": 108, "pitch": 30, "instrument": 38, "track": 0, "qtime": 0, "isDrum": false}, {"time": 3, "velocity": 0, "pitch": 30, "instrument": 38, "track": 0, "qtime": 3, "isDrum": false}, {"time": 6, "velocity": 108, "pitch": 30, "instrument": 38, "track": 0, "qtime": 6, "isDrum": false}, {"time": 8, "velocity": 0, "pitch": 30, "instrument": 38, "track": 0, "qtime": 8, "isDrum": false}, {"time": 9, "velocity": 108, "pitch": 30, "instrument": 38, "track": 0, "qtime": 9, "isDrum": false}, {"time": 12, "velocity": 0, "pitch": 30, "instrument": 38, "track": 0, "qtime": 12, "isDrum": false}, {"time": 15, "velocity": 108, "pitch": 30, "instrument": 38, "track": 0, "qtime": 15, "isDrum": false}, {"time": 17, "velocity": 0, "pitch": 30, "instrument": 38, "track": 0, "qtime": 17, "isDrum": false}, {"time": 18, "velocity": 108, "pitch": 30, "instrument": 38, "track": 0, "qtime": 18, "isDrum": false}, {"time": 21, "velocity": 0, "pitch": 30, "instrument": 38, "track": 0, "qtime": 21, "isDrum": false}, {"time": 27, "velocity": 108, "pitch": 30, "instrument": 38, "track": 0, "qtime": 27, "isDrum": false}, {"time": 30, "velocity": 0, "pitch": 30, "instrument": 38, "track": 0, "qtime": 30, "isDrum": false}, {"time": 30, "velocity": 108, "pitch": 32, "instrument": 38, "track": 0, "qtime": 30, "isDrum": false}, {"time": 33, "velocity": 0, "pitch": 32, "instrument": 38, "track": 0, "qtime": 33, "isDrum": false}, {"time": 36, "velocity": 108, "pitch": 34, "instrument": 38, "track": 0, "qtime": 36, "isDrum": false}, {"time": 38, "velocity": 0, "pitch": 34, "instrument": 38, "track": 0, "qtime": 38, "isDrum": false}, {"time": 42, "velocity": 108, "pitch": 27, "instrument": 38, "track": 0, "qtime": 42, "isDrum": false}, {"time": 46, "velocity": 0, "pitch": 27, "instrument": 38, "track": 0, "qtime": 46, "isDrum": false}, {"time": 48, "velocity": 108, "pitch": 32, "instrument": 38, "track": 0, "qtime": 0, "isDrum": false}, {"time": 51, "velocity": 0, "pitch": 32, "instrument": 38, "track": 0, "qtime": 3, "isDrum": false}, {"time": 54, "velocity": 108, "pitch": 32, "instrument": 38, "track": 0, "qtime": 6, "isDrum": false}, {"time": 56, "velocity": 0, "pitch": 32, "instrument": 38, "track": 0, "qtime": 8, "isDrum": false}, {"time": 57, "velocity": 108, "pitch": 32, "instrument": 38, "track": 0, "qtime": 9, "isDrum": false}, {"time": 60, "velocity": 0, "pitch": 32, "instrument": 38, "track": 0, "qtime": 12, "isDrum": false}, {"time": 63, "velocity": 108, "pitch": 32, "instrument": 38, "track": 0, "qtime": 15, "isDrum": false}, {"time": 65, "velocity": 0, "pitch": 32, "instrument": 38, "track": 0, "qtime": 17, "isDrum": false}, {"time": 66, "velocity": 108, "pitch": 32, "instrument": 38, "track": 0, "qtime": 18, "isDrum": false}, {"time": 69, "velocity": 0, "pitch": 32, "instrument": 38, "track": 0, "qtime": 21, "isDrum": false}, {"time": 75, "velocity": 108, "pitch": 32, "instrument": 38, "track": 0, "qtime": 27, "isDrum": false}, {"time": 78, "velocity": 0, "pitch": 32, "instrument": 38, "track": 0, "qtime": 30, "isDrum": false}, {"time": 78, "velocity": 108, "pitch": 30, "instrument": 38, "track": 0, "qtime": 30, "isDrum": false}, {"time": 81, "velocity": 0, "pitch": 30, "instrument": 38, "track": 0, "qtime": 33, "isDrum": false}, {"time": 84, "velocity": 108, "pitch": 29, "instrument": 38, "track": 0, "qtime": 36, "isDrum": false}, {"time": 87, "velocity": 0, "pitch": 29, "instrument": 38, "track": 0, "qtime": 39, "isDrum": false}, {"time": 90, "velocity": 108, "pitch": 32, "instrument": 38, "track": 0, "qtime": 42, "isDrum": false}, {"time": 95, "velocity": 0, "pitch": 32, "instrument": 38, "track": 0, "qtime": 47, "isDrum": false}, {"time": 96, "velocity": 108, "pitch": 30, "instrument": 38, "track": 0, "qtime": 0, "isDrum": false}, {"time": 99, "velocity": 0, "pitch": 30, "instrument": 38, "track": 0, "qtime": 3, "isDrum": false}, {"time": 102, "velocity": 108, "pitch": 30, "instrument": 38, "track": 0, "qtime": 6, "isDrum": false}, {"time": 104, "velocity": 0, "pitch": 30, "instrument": 38, "track": 0, "qtime": 8, "isDrum": false}, {"time": 105, "velocity": 108, "pitch": 30, "instrument": 38, "track": 0, "qtime": 9, "isDrum": false}, {"time": 108, "velocity": 0, "pitch": 30, "instrument": 38, "track": 0, "qtime": 12, "isDrum": false}, {"time": 111, "velocity": 108, "pitch": 30, "instrument": 38, "track": 0, "qtime": 15, "isDrum": false}, {"time": 113, "velocity": 0, "pitch": 30, "instrument": 38, "track": 0, "qtime": 17, "isDrum": false}, {"time": 114, "velocity": 108, "pitch": 30, "instrument": 38, "track": 0, "qtime": 18, "isDrum": false}, {"time": 117, "velocity": 0, "pitch": 30, "instrument": 38, "track": 0, "qtime": 21, "isDrum": false}, {"time": 123, "velocity": 108, "pitch": 30, "instrument": 38, "track": 0, "qtime": 27, "isDrum": false}, {"time": 126, "velocity": 0, "pitch": 30, "instrument": 38, "track": 0, "qtime": 30, "isDrum": false}, {"time": 126, "velocity": 108, "pitch": 32, "instrument": 38, "track": 0, "qtime": 30, "isDrum": false}, {"time": 129, "velocity": 0, "pitch": 32, "instrument": 38, "track": 0, "qtime": 33, "isDrum": false}, {"time": 132, "velocity": 108, "pitch": 34, "instrument": 38, "track": 0, "qtime": 36, "isDrum": false}, {"time": 134, "velocity": 0, "pitch": 34, "instrument": 38, "track": 0, "qtime": 38, "isDrum": false}, {"time": 138, "velocity": 108, "pitch": 27, "instrument": 38, "track": 0, "qtime": 42, "isDrum": false}, {"time": 142, "velocity": 0, "pitch": 27, "instrument": 38, "track": 0, "qtime": 46, "isDrum": false}, {"time": 144, "velocity": 108, "pitch": 32, "instrument": 38, "track": 0, "qtime": 0, "isDrum": false}, {"time": 147, "velocity": 0, "pitch": 32, "instrument": 38, "track": 0, "qtime": 3, "isDrum": false}, {"time": 150, "velocity": 108, "pitch": 32, "instrument": 38, "track": 0, "qtime": 6, "isDrum": false}, {"time": 152, "velocity": 0, "pitch": 32, "instrument": 38, "track": 0, "qtime": 8, "isDrum": false}, {"time": 153, "velocity": 108, "pitch": 32, "instrument": 38, "track": 0, "qtime": 9, "isDrum": false}, {"time": 156, "velocity": 0, "pitch": 32, "instrument": 38, "track": 0, "qtime": 12, "isDrum": false}, {"time": 159, "velocity": 108, "pitch": 32, "instrument": 38, "track": 0, "qtime": 15, "isDrum": false}, {"time": 161, "velocity": 0, "pitch": 32, "instrument": 38, "track": 0, "qtime": 17, "isDrum": false}, {"time": 162, "velocity": 108, "pitch": 32, "instrument": 38, "track": 0, "qtime": 18, "isDrum": false}, {"time": 165, "velocity": 0, "pitch": 32, "instrument": 38, "track": 0, "qtime": 21, "isDrum": false}, {"time": 171, "velocity": 108, "pitch": 32, "instrument": 38, "track": 0, "qtime": 27, "isDrum": false}, {"time": 174, "velocity": 0, "pitch": 32, "instrument": 38, "track": 0, "qtime": 30, "isDrum": false}, {"time": 174, "velocity": 108, "pitch": 30, "instrument": 38, "track": 0, "qtime": 30, "isDrum": false}, {"time": 177, "velocity": 0, "pitch": 30, "instrument": 38, "track": 0, "qtime": 33, "isDrum": false}, {"time": 180, "velocity": 108, "pitch": 29, "instrument": 38, "track": 0, "qtime": 36, "isDrum": false}, {"time": 183, "velocity": 0, "pitch": 29, "instrument": 38, "track": 0, "qtime": 39, "isDrum": false}, {"time": 186, "velocity": 108, "pitch": 32, "instrument": 38, "track": 0, "qtime": 42, "isDrum": false}, {"time": 191, "velocity": 0, "pitch": 32, "instrument": 38, "track": 0, "qtime": 47, "isDrum": false}, {"time": 0, "velocity": 48, "pitch": 58, "instrument": 50, "track": 1, "qtime": 0, "isDrum": false}, {"time": 0, "velocity": 48, "pitch": 61, "instrument": 50, "track": 1, "qtime": 0, "isDrum": false}, {"time": 0, "velocity": 48, "pitch": 66, "instrument": 50, "track": 1, "qtime": 0, "isDrum": false}, {"time": 48, "velocity": 0, "pitch": 58, "instrument": 50, "track": 1, "qtime": 48, "isDrum": false}, {"time": 48, "velocity": 0, "pitch": 66, "instrument": 50, "track": 1, "qtime": 48, "isDrum": false}, {"time": 48, "velocity": 48, "pitch": 60, "instrument": 50, "track": 1, "qtime": 0, "isDrum": false}, {"time": 48, "velocity": 48, "pitch": 63, "instrument": 50, "track": 1, "qtime": 0, "isDrum": false}, {"time": 48, "velocity": 48, "pitch": 68, "instrument": 50, "track": 1, "qtime": 0, "isDrum": false}, {"time": 49, "velocity": 0, "pitch": 61, "instrument": 50, "track": 1, "qtime": 1, "isDrum": false}, {"time": 96, "velocity": 0, "pitch": 60, "instrument": 50, "track": 1, "qtime": 48, "isDrum": false}, {"time": 96, "velocity": 0, "pitch": 63, "instrument": 50, "track": 1, "qtime": 48, "isDrum": false}, {"time": 96, "velocity": 0, "pitch": 68, "instrument": 50, "track": 1, "qtime": 48, "isDrum": false}, {"time": 96, "velocity": 48, "pitch": 58, "instrument": 50, "track": 1, "qtime": 0, "isDrum": false}, {"time": 96, "velocity": 48, "pitch": 61, "instrument": 50, "track": 1, "qtime": 0, "isDrum": false}, {"time": 96, "velocity": 48, "pitch": 66, "instrument": 50, "track": 1, "qtime": 0, "isDrum": false}, {"time": 144, "velocity": 0, "pitch": 58, "instrument": 50, "track": 1, "qtime": 48, "isDrum": false}, {"time": 144, "velocity": 0, "pitch": 66, "instrument": 50, "track": 1, "qtime": 48, "isDrum": false}, {"time": 144, "velocity": 48, "pitch": 60, "instrument": 50, "track": 1, "qtime": 0, "isDrum": false}, {"time": 144, "velocity": 48, "pitch": 63, "instrument": 50, "track": 1, "qtime": 0, "isDrum": false}, {"time": 144, "velocity": 48, "pitch": 68, "instrument": 50, "track": 1, "qtime": 0, "isDrum": false}, {"time": 145, "velocity": 0, "pitch": 61, "instrument": 50, "track": 1, "qtime": 1, "isDrum": false}, {"time": 191, "velocity": 0, "pitch": 60, "instrument": 50, "track": 1, "qtime": 47, "isDrum": false}, {"time": 192, "velocity": 0, "pitch": 63, "instrument": 50, "track": 1, "qtime": 48, "isDrum": false}, {"time": 192, "velocity": 0, "pitch": 68, "instrument": 50, "track": 1, "qtime": 48, "isDrum": false}, {"time": 0, "velocity": 108, "pitch": 58, "instrument": 0, "track": 2, "qtime": 0, "isDrum": false}, {"time": 0, "velocity": 108, "pitch": 61, "instrument": 0, "track": 2, "qtime": 0, "isDrum": false}, {"time": 0, "velocity": 108, "pitch": 66, "instrument": 0, "track": 2, "qtime": 0, "isDrum": false}, {"time": 18, "velocity": 0, "pitch": 58, "instrument": 0, "track": 2, "qtime": 18, "isDrum": false}, {"time": 18, "velocity": 0, "pitch": 61, "instrument": 0, "track": 2, "qtime": 18, "isDrum": false}, {"time": 18, "velocity": 0, "pitch": 66, "instrument": 0, "track": 2, "qtime": 18, "isDrum": false}, {"time": 48, "velocity": 108, "pitch": 56, "instrument": 0, "track": 2, "qtime": 0, "isDrum": false}, {"time": 48, "velocity": 108, "pitch": 60, "instrument": 0, "track": 2, "qtime": 0, "isDrum": false}, {"time": 48, "velocity": 108, "pitch": 63, "instrument": 0, "track": 2, "qtime": 0, "isDrum": false}, {"time": 74, "velocity": 0, "pitch": 56, "instrument": 0, "track": 2, "qtime": 26, "isDrum": false}, {"time": 74, "velocity": 0, "pitch": 60, "instrument": 0, "track": 2, "qtime": 26, "isDrum": false}, {"time": 74, "velocity": 0, "pitch": 63, "instrument": 0, "track": 2, "qtime": 26, "isDrum": false}, {"time": 96, "velocity": 108, "pitch": 58, "instrument": 0, "track": 2, "qtime": 0, "isDrum": false}, {"time": 96, "velocity": 108, "pitch": 61, "instrument": 0, "track": 2, "qtime": 0, "isDrum": false}, {"time": 96, "velocity": 108, "pitch": 66, "instrument": 0, "track": 2, "qtime": 0, "isDrum": false}, {"time": 114, "velocity": 0, "pitch": 58, "instrument": 0, "track": 2, "qtime": 18, "isDrum": false}, {"time": 114, "velocity": 0, "pitch": 61, "instrument": 0, "track": 2, "qtime": 18, "isDrum": false}, {"time": 114, "velocity": 0, "pitch": 66, "instrument": 0, "track": 2, "qtime": 18, "isDrum": false}, {"time": 144, "velocity": 108, "pitch": 56, "instrument": 0, "track": 2, "qtime": 0, "isDrum": false}, {"time": 144, "velocity": 108, "pitch": 60, "instrument": 0, "track": 2, "qtime": 0, "isDrum": false}, {"time": 144, "velocity": 108, "pitch": 63, "instrument": 0, "track": 2, "qtime": 0, "isDrum": false}, {"time": 169, "velocity": 0, "pitch": 56, "instrument": 0, "track": 2, "qtime": 25, "isDrum": false}, {"time": 169, "velocity": 0, "pitch": 63, "instrument": 0, "track": 2, "qtime": 25, "isDrum": false}, {"time": 170, "velocity": 0, "pitch": 60, "instrument": 0, "track": 2, "qtime": 26, "isDrum": false}, {"time": 0, "velocity": 84, "pitch": 70, "instrument": 9, "track": 3, "qtime": 0, "isDrum": false}, {"time": 6, "velocity": 0, "pitch": 70, "instrument": 9, "track": 3, "qtime": 6, "isDrum": false}, {"time": 18, "velocity": 84, "pitch": 70, "instrument": 9, "track": 3, "qtime": 18, "isDrum": false}, {"time": 21, "velocity": 0, "pitch": 70, "instrument": 9, "track": 3, "qtime": 21, "isDrum": false}, {"time": 24, "velocity": 84, "pitch": 70, "instrument": 9, "track": 3, "qtime": 24, "isDrum": false}, {"time": 29, "velocity": 0, "pitch": 70, "instrument": 9, "track": 3, "qtime": 29, "isDrum": false}, {"time": 42, "velocity": 84, "pitch": 68, "instrument": 9, "track": 3, "qtime": 42, "isDrum": false}, {"time": 45, "velocity": 0, "pitch": 68, "instrument": 9, "track": 3, "qtime": 45, "isDrum": false}, {"time": 48, "velocity": 84, "pitch": 68, "instrument": 9, "track": 3, "qtime": 0, "isDrum": false}, {"time": 54, "velocity": 0, "pitch": 68, "instrument": 9, "track": 3, "qtime": 6, "isDrum": false}, {"time": 90, "velocity": 84, "pitch": 68, "instrument": 9, "track": 3, "qtime": 42, "isDrum": false}, {"time": 93, "velocity": 0, "pitch": 68, "instrument": 9, "track": 3, "qtime": 45, "isDrum": false}, {"time": 96, "velocity": 84, "pitch": 70, "instrument": 9, "track": 3, "qtime": 0, "isDrum": false}, {"time": 101, "velocity": 0, "pitch": 70, "instrument": 9, "track": 3, "qtime": 5, "isDrum": false}, {"time": 114, "velocity": 84, "pitch": 70, "instrument": 9, "track": 3, "qtime": 18, "isDrum": false}, {"time": 117, "velocity": 0, "pitch": 70, "instrument": 9, "track": 3, "qtime": 21, "isDrum": false}, {"time": 120, "velocity": 84, "pitch": 70, "instrument": 9, "track": 3, "qtime": 24, "isDrum": false}, {"time": 124, "velocity": 0, "pitch": 70, "instrument": 9, "track": 3, "qtime": 28, "isDrum": false}, {"time": 138, "velocity": 84, "pitch": 68, "instrument": 9, "track": 3, "qtime": 42, "isDrum": false}, {"time": 141, "velocity": 0, "pitch": 68, "instrument": 9, "track": 3, "qtime": 45, "isDrum": false}, {"time": 144, "velocity": 84, "pitch": 68, "instrument": 9, "track": 3, "qtime": 0, "isDrum": false}, {"time": 149, "velocity": 0, "pitch": 68, "instrument": 9, "track": 3, "qtime": 5, "isDrum": false}, {"time": 180, "velocity": 84, "pitch": 68, "instrument": 9, "track": 3, "qtime": 36, "isDrum": false}, {"time": 184, "velocity": 0, "pitch": 68, "instrument": 9, "track": 3, "qtime": 40, "isDrum": false}, {"time": 186, "velocity": 84, "pitch": 68, "instrument": 9, "track": 3, "qtime": 42, "isDrum": false}, {"time": 190, "velocity": 0, "pitch": 68, "instrument": 9, "track": 3, "qtime": 46, "isDrum": false}], "resolution": 12, "tempo": 100, "minPitch": 27, "maxPitch": 70, "validSegments": [0], "validTracks": [15]}, "audio": "https://www.sfu.ca/~jeffe/examples/stem_50_2b_bar.mp3"}]}, {"title": "Bach", "description": "Here we experiment with Bach Chorales, exploring the interesting possibilities of iterative generation.", "examples": [{"src": "gen/8b_bach_101_7.json", "highlights": [[], [], [], []], "caption": "The first 8 bars of a Bach chorale (BWV 101.7).", "sample_id": "23a", "mixer": [8, 8, 8, 8], "json": {"tracks": [{"bars": [{"events": [0, 1, 2, 3, 4, 5, 6, 7], "isFourFour": true, "hasNotes": true, "time": 0, "beatLength": 4}, {"events": [8, 9, 10, 11, 12, 13, 14, 15], "isFourFour": true, "hasNotes": true, "time": 48, "beatLength": 4}, {"events": [16, 17, 18, 19, 20, 21, 22, 23], "isFourFour": true, "hasNotes": true, "time": 96, "beatLength": 4}, {"events": [24, 25, 26, 27, 28, 29, 30, 31], "isFourFour": true, "hasNotes": true, "time": 144, "beatLength": 4}, {"events": [32, 33, 34, 35, 36, 37, 38, 39, 40, 41], "isFourFour": true, "hasNotes": true, "time": 192, "beatLength": 4}, {"events": [42, 43, 44, 45, 46, 47, 48, 49], "isFourFour": true, "hasNotes": true, "time": 240, "beatLength": 4}, {"events": [50, 51, 52, 53, 54, 55, 56, 57], "isFourFour": true, "hasNotes": true, "time": 288, "beatLength": 4}, {"events": [58, 59, 60, 61, 62, 63, 64, 65], "isFourFour": true, "hasNotes": true, "time": 336, "beatLength": 4}], "isDrum": false, "minPitch": 62, "maxPitch": 77, "instrument": 0, "avPolyphony": 1, "noteDensity": 9, "noteDensityV2": 2}, {"bars": [{"events": [66, 67, 68, 69, 70, 71, 72, 73], "isFourFour": true, "hasNotes": true, "time": 0, "beatLength": 4}, {"events": [74, 75, 76, 77, 78, 79, 80, 81], "isFourFour": true, "hasNotes": true, "time": 48, "beatLength": 4}, {"events": [82, 83, 84, 85, 86, 87, 88, 89, 90, 91], "isFourFour": true, "hasNotes": true, "time": 96, "beatLength": 4}, {"events": [92, 93, 94, 95, 96, 97, 98, 99], "isFourFour": true, "hasNotes": true, "time": 144, "beatLength": 4}, {"events": [100, 101, 102, 103, 104, 105, 106, 107], "isFourFour": true, "hasNotes": true, "time": 192, "beatLength": 4}, {"events": [108, 109, 110, 111, 112, 113, 114, 115, 116, 117], "isFourFour": true, "hasNotes": true, "time": 240, "beatLength": 4}, {"events": [118, 119, 120, 121, 122, 123, 124, 125, 126, 127], "isFourFour": true, "hasNotes": true, "time": 288, "beatLength": 4}, {"events": [128, 129, 130, 131, 132, 133, 134, 135, 136, 137, 138, 139], "isFourFour": true, "hasNotes": true, "time": 336, "beatLength": 4}], "isDrum": false, "minPitch": 57, "maxPitch": 69, "instrument": 0, "avPolyphony": 1, "noteDensity": 9, "noteDensityV2": 3}, {"bars": [{"events": [140, 141, 142, 143, 144, 145, 146, 147], "isFourFour": true, "hasNotes": true, "time": 0, "beatLength": 4}, {"events": [148, 149, 150, 151, 152, 153, 154, 155], "isFourFour": true, "hasNotes": true, "time": 48, "beatLength": 4}, {"events": [156, 157, 158, 159, 160, 161, 162, 163], "isFourFour": true, "hasNotes": true, "time": 96, "beatLength": 4}, {"events": [164, 165, 166, 167, 168, 169, 170, 171], "isFourFour": true, "hasNotes": true, "time": 144, "beatLength": 4}, {"events": [172, 173, 174, 175, 176, 177, 178, 179], "isFourFour": true, "hasNotes": true, "time": 192, "beatLength": 4}, {"events": [180, 181, 182, 183, 184, 185, 186, 187, 188, 189], "isFourFour": true, "hasNotes": true, "time": 240, "beatLength": 4}, {"events": [190, 191, 192, 193, 194, 195, 196, 197, 198, 199], "isFourFour": true, "hasNotes": true, "time": 288, "beatLength": 4}, {"events": [200, 201, 202, 203, 204, 205, 206, 207], "isFourFour": true, "hasNotes": true, "time": 336, "beatLength": 4}], "isDrum": false, "minPitch": 50, "maxPitch": 65, "instrument": 0, "avPolyphony": 1, "noteDensity": 9, "noteDensityV2": 2}, {"bars": [{"events": [208, 209, 210, 211, 212, 213, 214, 215], "isFourFour": true, "hasNotes": true, "time": 0, "beatLength": 4}, {"events": [216, 217, 218, 219, 220, 221, 222, 223], "isFourFour": true, "hasNotes": true, "time": 48, "beatLength": 4}, {"events": [224, 225, 226, 227, 228, 229, 230, 231, 232, 233], "isFourFour": true, "hasNotes": true, "time": 96, "beatLength": 4}, {"events": [234, 235, 236, 237, 238, 239, 240, 241], "isFourFour": true, "hasNotes": true, "time": 144, "beatLength": 4}, {"events": [242, 243, 244, 245, 246, 247, 248, 249], "isFourFour": true, "hasNotes": true, "time": 192, "beatLength": 4}, {"events": [250, 251, 252, 253, 254, 255, 256, 257, 258, 259], "isFourFour": true, "hasNotes": true, "time": 240, "beatLength": 4}, {"events": [260, 261, 262, 263, 264, 265, 266, 267, 268, 269], "isFourFour": true, "hasNotes": true, "time": 288, "beatLength": 4}, {"events": [270, 271, 272, 273, 274, 275, 276, 277], "isFourFour": true, "hasNotes": true, "time": 336, "beatLength": 4}], "isDrum": false, "minPitch": 41, "maxPitch": 58, "instrument": 0, "avPolyphony": 1, "noteDensity": 9, "noteDensityV2": 2}], "events": [{"time": 0, "velocity": 108, "pitch": 69, "instrument": 0, "track": 0, "qtime": 0, "bar": 0, "isDrum": false}, {"time": 12, "velocity": 0, "pitch": 69, "instrument": 0, "track": 0, "qtime": 12, "bar": 0, "isDrum": false}, {"time": 12, "velocity": 108, "pitch": 69, "instrument": 0, "track": 0, "qtime": 12, "bar": 0, "isDrum": false}, {"time": 24, "velocity": 0, "pitch": 69, "instrument": 0, "track": 0, "qtime": 24, "bar": 0, "isDrum": false}, {"time": 24, "velocity": 108, "pitch": 65, "instrument": 0, "track": 0, "qtime": 24, "bar": 0, "isDrum": false}, {"time": 36, "velocity": 0, "pitch": 65, "instrument": 0, "track": 0, "qtime": 36, "bar": 0, "isDrum": false}, {"time": 36, "velocity": 108, "pitch": 67, "instrument": 0, "track": 0, "qtime": 36, "bar": 0, "isDrum": false}, {"time": 48, "velocity": 0, "pitch": 67, "instrument": 0, "track": 0, "qtime": 48, "bar": 0, "isDrum": false}, {"time": 48, "velocity": 108, "pitch": 69, "instrument": 0, "track": 0, "qtime": 0, "bar": 1, "isDrum": false}, {"time": 60, "velocity": 0, "pitch": 69, "instrument": 0, "track": 0, "qtime": 12, "bar": 1, "isDrum": false}, {"time": 60, "velocity": 108, "pitch": 65, "instrument": 0, "track": 0, "qtime": 12, "bar": 1, "isDrum": false}, {"time": 72, "velocity": 0, "pitch": 65, "instrument": 0, "track": 0, "qtime": 24, "bar": 1, "isDrum": false}, {"time": 72, "velocity": 108, "pitch": 64, "instrument": 0, "track": 0, "qtime": 24, "bar": 1, "isDrum": false}, {"time": 84, "velocity": 0, "pitch": 64, "instrument": 0, "track": 0, "qtime": 36, "bar": 1, "isDrum": false}, {"time": 84, "velocity": 108, "pitch": 62, "instrument": 0, "track": 0, "qtime": 36, "bar": 1, "isDrum": false}, {"time": 96, "velocity": 0, "pitch": 62, "instrument": 0, "track": 0, "qtime": 48, "bar": 1, "isDrum": false}, {"time": 96, "velocity": 108, "pitch": 69, "instrument": 0, "track": 0, "qtime": 0, "bar": 2, "isDrum": false}, {"time": 108, "velocity": 0, "pitch": 69, "instrument": 0, "track": 0, "qtime": 12, "bar": 2, "isDrum": false}, {"time": 108, "velocity": 108, "pitch": 69, "instrument": 0, "track": 0, "qtime": 12, "bar": 2, "isDrum": false}, {"time": 120, "velocity": 0, "pitch": 69, "instrument": 0, "track": 0, "qtime": 24, "bar": 2, "isDrum": false}, {"time": 120, "velocity": 108, "pitch": 67, "instrument": 0, "track": 0, "qtime": 24, "bar": 2, "isDrum": false}, {"time": 132, "velocity": 0, "pitch": 67, "instrument": 0, "track": 0, "qtime": 36, "bar": 2, "isDrum": false}, {"time": 132, "velocity": 108, "pitch": 72, "instrument": 0, "track": 0, "qtime": 36, "bar": 2, "isDrum": false}, {"time": 144, "velocity": 0, "pitch": 72, "instrument": 0, "track": 0, "qtime": 48, "bar": 2, "isDrum": false}, {"time": 144, "velocity": 108, "pitch": 69, "instrument": 0, "track": 0, "qtime": 0, "bar": 3, "isDrum": false}, {"time": 156, "velocity": 0, "pitch": 69, "instrument": 0, "track": 0, "qtime": 12, "bar": 3, "isDrum": false}, {"time": 156, "velocity": 108, "pitch": 65, "instrument": 0, "track": 0, "qtime": 12, "bar": 3, "isDrum": false}, {"time": 168, "velocity": 0, "pitch": 65, "instrument": 0, "track": 0, "qtime": 24, "bar": 3, "isDrum": false}, {"time": 168, "velocity": 108, "pitch": 67, "instrument": 0, "track": 0, "qtime": 24, "bar": 3, "isDrum": false}, {"time": 180, "velocity": 0, "pitch": 67, "instrument": 0, "track": 0, "qtime": 36, "bar": 3, "isDrum": false}, {"time": 180, "velocity": 108, "pitch": 69, "instrument": 0, "track": 0, "qtime": 36, "bar": 3, "isDrum": false}, {"time": 192, "velocity": 0, "pitch": 69, "instrument": 0, "track": 0, "qtime": 48, "bar": 3, "isDrum": false}, {"time": 192, "velocity": 108, "pitch": 69, "instrument": 0, "track": 0, "qtime": 0, "bar": 4, "isDrum": false}, {"time": 204, "velocity": 0, "pitch": 69, "instrument": 0, "track": 0, "qtime": 12, "bar": 4, "isDrum": false}, {"time": 204, "velocity": 108, "pitch": 72, "instrument": 0, "track": 0, "qtime": 12, "bar": 4, "isDrum": false}, {"time": 216, "velocity": 0, "pitch": 72, "instrument": 0, "track": 0, "qtime": 24, "bar": 4, "isDrum": false}, {"time": 216, "velocity": 108, "pitch": 74, "instrument": 0, "track": 0, "qtime": 24, "bar": 4, "isDrum": false}, {"time": 222, "velocity": 0, "pitch": 74, "instrument": 0, "track": 0, "qtime": 30, "bar": 4, "isDrum": false}, {"time": 222, "velocity": 108, "pitch": 76, "instrument": 0, "track": 0, "qtime": 30, "bar": 4, "isDrum": false}, {"time": 228, "velocity": 0, "pitch": 76, "instrument": 0, "track": 0, "qtime": 36, "bar": 4, "isDrum": false}, {"time": 228, "velocity": 108, "pitch": 77, "instrument": 0, "track": 0, "qtime": 36, "bar": 4, "isDrum": false}, {"time": 240, "velocity": 0, "pitch": 77, "instrument": 0, "track": 0, "qtime": 48, "bar": 4, "isDrum": false}, {"time": 240, "velocity": 108, "pitch": 76, "instrument": 0, "track": 0, "qtime": 0, "bar": 5, "isDrum": false}, {"time": 252, "velocity": 0, "pitch": 76, "instrument": 0, "track": 0, "qtime": 12, "bar": 5, "isDrum": false}, {"time": 252, "velocity": 108, "pitch": 74, "instrument": 0, "track": 0, "qtime": 12, "bar": 5, "isDrum": false}, {"time": 264, "velocity": 0, "pitch": 74, "instrument": 0, "track": 0, "qtime": 24, "bar": 5, "isDrum": false}, {"time": 264, "velocity": 108, "pitch": 73, "instrument": 0, "track": 0, "qtime": 24, "bar": 5, "isDrum": false}, {"time": 276, "velocity": 0, "pitch": 73, "instrument": 0, "track": 0, "qtime": 36, "bar": 5, "isDrum": false}, {"time": 276, "velocity": 108, "pitch": 74, "instrument": 0, "track": 0, "qtime": 36, "bar": 5, "isDrum": false}, {"time": 288, "velocity": 0, "pitch": 74, "instrument": 0, "track": 0, "qtime": 48, "bar": 5, "isDrum": false}, {"time": 288, "velocity": 108, "pitch": 74, "instrument": 0, "track": 0, "qtime": 0, "bar": 6, "isDrum": false}, {"time": 300, "velocity": 0, "pitch": 74, "instrument": 0, "track": 0, "qtime": 12, "bar": 6, "isDrum": false}, {"time": 300, "velocity": 108, "pitch": 76, "instrument": 0, "track": 0, "qtime": 12, "bar": 6, "isDrum": false}, {"time": 312, "velocity": 0, "pitch": 76, "instrument": 0, "track": 0, "qtime": 24, "bar": 6, "isDrum": false}, {"time": 312, "velocity": 108, "pitch": 74, "instrument": 0, "track": 0, "qtime": 24, "bar": 6, "isDrum": false}, {"time": 324, "velocity": 0, "pitch": 74, "instrument": 0, "track": 0, "qtime": 36, "bar": 6, "isDrum": false}, {"time": 324, "velocity": 108, "pitch": 72, "instrument": 0, "track": 0, "qtime": 36, "bar": 6, "isDrum": false}, {"time": 336, "velocity": 0, "pitch": 72, "instrument": 0, "track": 0, "qtime": 48, "bar": 6, "isDrum": false}, {"time": 336, "velocity": 108, "pitch": 71, "instrument": 0, "track": 0, "qtime": 0, "bar": 7, "isDrum": false}, {"time": 348, "velocity": 0, "pitch": 71, "instrument": 0, "track": 0, "qtime": 12, "bar": 7, "isDrum": false}, {"time": 348, "velocity": 108, "pitch": 69, "instrument": 0, "track": 0, "qtime": 12, "bar": 7, "isDrum": false}, {"time": 360, "velocity": 0, "pitch": 69, "instrument": 0, "track": 0, "qtime": 24, "bar": 7, "isDrum": false}, {"time": 360, "velocity": 108, "pitch": 71, "instrument": 0, "track": 0, "qtime": 24, "bar": 7, "isDrum": false}, {"time": 372, "velocity": 0, "pitch": 71, "instrument": 0, "track": 0, "qtime": 36, "bar": 7, "isDrum": false}, {"time": 372, "velocity": 108, "pitch": 69, "instrument": 0, "track": 0, "qtime": 36, "bar": 7, "isDrum": false}, {"time": 384, "velocity": 0, "pitch": 69, "instrument": 0, "track": 0, "qtime": 48, "bar": 7, "isDrum": false}, {"time": 0, "velocity": 108, "pitch": 65, "instrument": 0, "track": 1, "qtime": 0, "bar": 0, "isDrum": false}, {"time": 12, "velocity": 0, "pitch": 65, "instrument": 0, "track": 1, "qtime": 12, "bar": 0, "isDrum": false}, {"time": 12, "velocity": 108, "pitch": 64, "instrument": 0, "track": 1, "qtime": 12, "bar": 0, "isDrum": false}, {"time": 24, "velocity": 0, "pitch": 64, "instrument": 0, "track": 1, "qtime": 24, "bar": 0, "isDrum": false}, {"time": 24, "velocity": 108, "pitch": 62, "instrument": 0, "track": 1, "qtime": 24, "bar": 0, "isDrum": false}, {"time": 36, "velocity": 0, "pitch": 62, "instrument": 0, "track": 1, "qtime": 36, "bar": 0, "isDrum": false}, {"time": 36, "velocity": 108, "pitch": 62, "instrument": 0, "track": 1, "qtime": 36, "bar": 0, "isDrum": false}, {"time": 48, "velocity": 0, "pitch": 62, "instrument": 0, "track": 1, "qtime": 48, "bar": 0, "isDrum": false}, {"time": 48, "velocity": 108, "pitch": 62, "instrument": 0, "track": 1, "qtime": 0, "bar": 1, "isDrum": false}, {"time": 60, "velocity": 0, "pitch": 62, "instrument": 0, "track": 1, "qtime": 12, "bar": 1, "isDrum": false}, {"time": 60, "velocity": 108, "pitch": 62, "instrument": 0, "track": 1, "qtime": 12, "bar": 1, "isDrum": false}, {"time": 72, "velocity": 0, "pitch": 62, "instrument": 0, "track": 1, "qtime": 24, "bar": 1, "isDrum": false}, {"time": 72, "velocity": 108, "pitch": 61, "instrument": 0, "track": 1, "qtime": 24, "bar": 1, "isDrum": false}, {"time": 84, "velocity": 0, "pitch": 61, "instrument": 0, "track": 1, "qtime": 36, "bar": 1, "isDrum": false}, {"time": 84, "velocity": 108, "pitch": 57, "instrument": 0, "track": 1, "qtime": 36, "bar": 1, "isDrum": false}, {"time": 96, "velocity": 0, "pitch": 57, "instrument": 0, "track": 1, "qtime": 48, "bar": 1, "isDrum": false}, {"time": 96, "velocity": 108, "pitch": 65, "instrument": 0, "track": 1, "qtime": 0, "bar": 2, "isDrum": false}, {"time": 108, "velocity": 0, "pitch": 65, "instrument": 0, "track": 1, "qtime": 12, "bar": 2, "isDrum": false}, {"time": 108, "velocity": 108, "pitch": 65, "instrument": 0, "track": 1, "qtime": 12, "bar": 2, "isDrum": false}, {"time": 120, "velocity": 0, "pitch": 65, "instrument": 0, "track": 1, "qtime": 24, "bar": 2, "isDrum": false}, {"time": 120, "velocity": 108, "pitch": 67, "instrument": 0, "track": 1, "qtime": 24, "bar": 2, "isDrum": false}, {"time": 126, "velocity": 0, "pitch": 67, "instrument": 0, "track": 1, "qtime": 30, "bar": 2, "isDrum": false}, {"time": 126, "velocity": 108, "pitch": 65, "instrument": 0, "track": 1, "qtime": 30, "bar": 2, "isDrum": false}, {"time": 132, "velocity": 0, "pitch": 65, "instrument": 0, "track": 1, "qtime": 36, "bar": 2, "isDrum": false}, {"time": 132, "velocity": 108, "pitch": 64, "instrument": 0, "track": 1, "qtime": 36, "bar": 2, "isDrum": false}, {"time": 144, "velocity": 0, "pitch": 64, "instrument": 0, "track": 1, "qtime": 48, "bar": 2, "isDrum": false}, {"time": 144, "velocity": 108, "pitch": 65, "instrument": 0, "track": 1, "qtime": 0, "bar": 3, "isDrum": false}, {"time": 156, "velocity": 0, "pitch": 65, "instrument": 0, "track": 1, "qtime": 12, "bar": 3, "isDrum": false}, {"time": 156, "velocity": 108, "pitch": 62, "instrument": 0, "track": 1, "qtime": 12, "bar": 3, "isDrum": false}, {"time": 168, "velocity": 0, "pitch": 62, "instrument": 0, "track": 1, "qtime": 24, "bar": 3, "isDrum": false}, {"time": 168, "velocity": 108, "pitch": 62, "instrument": 0, "track": 1, "qtime": 24, "bar": 3, "isDrum": false}, {"time": 180, "velocity": 0, "pitch": 62, "instrument": 0, "track": 1, "qtime": 36, "bar": 3, "isDrum": false}, {"time": 180, "velocity": 108, "pitch": 61, "instrument": 0, "track": 1, "qtime": 36, "bar": 3, "isDrum": false}, {"time": 192, "velocity": 0, "pitch": 61, "instrument": 0, "track": 1, "qtime": 48, "bar": 3, "isDrum": false}, {"time": 192, "velocity": 108, "pitch": 62, "instrument": 0, "track": 1, "qtime": 0, "bar": 4, "isDrum": false}, {"time": 204, "velocity": 0, "pitch": 62, "instrument": 0, "track": 1, "qtime": 12, "bar": 4, "isDrum": false}, {"time": 204, "velocity": 108, "pitch": 64, "instrument": 0, "track": 1, "qtime": 12, "bar": 4, "isDrum": false}, {"time": 216, "velocity": 0, "pitch": 64, "instrument": 0, "track": 1, "qtime": 24, "bar": 4, "isDrum": false}, {"time": 216, "velocity": 108, "pitch": 67, "instrument": 0, "track": 1, "qtime": 24, "bar": 4, "isDrum": false}, {"time": 228, "velocity": 0, "pitch": 67, "instrument": 0, "track": 1, "qtime": 36, "bar": 4, "isDrum": false}, {"time": 228, "velocity": 108, "pitch": 69, "instrument": 0, "track": 1, "qtime": 36, "bar": 4, "isDrum": false}, {"time": 240, "velocity": 0, "pitch": 69, "instrument": 0, "track": 1, "qtime": 48, "bar": 4, "isDrum": false}, {"time": 240, "velocity": 108, "pitch": 67, "instrument": 0, "track": 1, "qtime": 0, "bar": 5, "isDrum": false}, {"time": 252, "velocity": 0, "pitch": 67, "instrument": 0, "track": 1, "qtime": 12, "bar": 5, "isDrum": false}, {"time": 252, "velocity": 108, "pitch": 65, "instrument": 0, "track": 1, "qtime": 12, "bar": 5, "isDrum": false}, {"time": 258, "velocity": 0, "pitch": 65, "instrument": 0, "track": 1, "qtime": 18, "bar": 5, "isDrum": false}, {"time": 258, "velocity": 108, "pitch": 67, "instrument": 0, "track": 1, "qtime": 18, "bar": 5, "isDrum": false}, {"time": 264, "velocity": 0, "pitch": 67, "instrument": 0, "track": 1, "qtime": 24, "bar": 5, "isDrum": false}, {"time": 264, "velocity": 108, "pitch": 69, "instrument": 0, "track": 1, "qtime": 24, "bar": 5, "isDrum": false}, {"time": 276, "velocity": 0, "pitch": 69, "instrument": 0, "track": 1, "qtime": 36, "bar": 5, "isDrum": false}, {"time": 276, "velocity": 108, "pitch": 69, "instrument": 0, "track": 1, "qtime": 36, "bar": 5, "isDrum": false}, {"time": 288, "velocity": 0, "pitch": 69, "instrument": 0, "track": 1, "qtime": 48, "bar": 5, "isDrum": false}, {"time": 288, "velocity": 108, "pitch": 67, "instrument": 0, "track": 1, "qtime": 0, "bar": 6, "isDrum": false}, {"time": 300, "velocity": 0, "pitch": 67, "instrument": 0, "track": 1, "qtime": 12, "bar": 6, "isDrum": false}, {"time": 300, "velocity": 108, "pitch": 67, "instrument": 0, "track": 1, "qtime": 12, "bar": 6, "isDrum": false}, {"time": 312, "velocity": 0, "pitch": 67, "instrument": 0, "track": 1, "qtime": 24, "bar": 6, "isDrum": false}, {"time": 312, "velocity": 108, "pitch": 66, "instrument": 0, "track": 1, "qtime": 24, "bar": 6, "isDrum": false}, {"time": 318, "velocity": 0, "pitch": 66, "instrument": 0, "track": 1, "qtime": 30, "bar": 6, "isDrum": false}, {"time": 318, "velocity": 108, "pitch": 68, "instrument": 0, "track": 1, "qtime": 30, "bar": 6, "isDrum": false}, {"time": 324, "velocity": 0, "pitch": 68, "instrument": 0, "track": 1, "qtime": 36, "bar": 6, "isDrum": false}, {"time": 324, "velocity": 108, "pitch": 69, "instrument": 0, "track": 1, "qtime": 36, "bar": 6, "isDrum": false}, {"time": 336, "velocity": 0, "pitch": 69, "instrument": 0, "track": 1, "qtime": 48, "bar": 6, "isDrum": false}, {"time": 336, "velocity": 108, "pitch": 64, "instrument": 0, "track": 1, "qtime": 0, "bar": 7, "isDrum": false}, {"time": 348, "velocity": 0, "pitch": 64, "instrument": 0, "track": 1, "qtime": 12, "bar": 7, "isDrum": false}, {"time": 348, "velocity": 108, "pitch": 64, "instrument": 0, "track": 1, "qtime": 12, "bar": 7, "isDrum": false}, {"time": 354, "velocity": 0, "pitch": 64, "instrument": 0, "track": 1, "qtime": 18, "bar": 7, "isDrum": false}, {"time": 354, "velocity": 108, "pitch": 69, "instrument": 0, "track": 1, "qtime": 18, "bar": 7, "isDrum": false}, {"time": 360, "velocity": 0, "pitch": 69, "instrument": 0, "track": 1, "qtime": 24, "bar": 7, "isDrum": false}, {"time": 360, "velocity": 108, "pitch": 69, "instrument": 0, "track": 1, "qtime": 24, "bar": 7, "isDrum": false}, {"time": 366, "velocity": 0, "pitch": 69, "instrument": 0, "track": 1, "qtime": 30, "bar": 7, "isDrum": false}, {"time": 366, "velocity": 108, "pitch": 68, "instrument": 0, "track": 1, "qtime": 30, "bar": 7, "isDrum": false}, {"time": 372, "velocity": 0, "pitch": 68, "instrument": 0, "track": 1, "qtime": 36, "bar": 7, "isDrum": false}, {"time": 372, "velocity": 108, "pitch": 64, "instrument": 0, "track": 1, "qtime": 36, "bar": 7, "isDrum": false}, {"time": 384, "velocity": 0, "pitch": 64, "instrument": 0, "track": 1, "qtime": 48, "bar": 7, "isDrum": false}, {"time": 0, "velocity": 108, "pitch": 62, "instrument": 0, "track": 2, "qtime": 0, "bar": 0, "isDrum": false}, {"time": 12, "velocity": 0, "pitch": 62, "instrument": 0, "track": 2, "qtime": 12, "bar": 0, "isDrum": false}, {"time": 12, "velocity": 108, "pitch": 57, "instrument": 0, "track": 2, "qtime": 12, "bar": 0, "isDrum": false}, {"time": 24, "velocity": 0, "pitch": 57, "instrument": 0, "track": 2, "qtime": 24, "bar": 0, "isDrum": false}, {"time": 24, "velocity": 108, "pitch": 57, "instrument": 0, "track": 2, "qtime": 24, "bar": 0, "isDrum": false}, {"time": 36, "velocity": 0, "pitch": 57, "instrument": 0, "track": 2, "qtime": 36, "bar": 0, "isDrum": false}, {"time": 36, "velocity": 108, "pitch": 58, "instrument": 0, "track": 2, "qtime": 36, "bar": 0, "isDrum": false}, {"time": 48, "velocity": 0, "pitch": 58, "instrument": 0, "track": 2, "qtime": 48, "bar": 0, "isDrum": false}, {"time": 48, "velocity": 108, "pitch": 57, "instrument": 0, "track": 2, "qtime": 0, "bar": 1, "isDrum": false}, {"time": 60, "velocity": 0, "pitch": 57, "instrument": 0, "track": 2, "qtime": 12, "bar": 1, "isDrum": false}, {"time": 60, "velocity": 108, "pitch": 58, "instrument": 0, "track": 2, "qtime": 12, "bar": 1, "isDrum": false}, {"time": 72, "velocity": 0, "pitch": 58, "instrument": 0, "track": 2, "qtime": 24, "bar": 1, "isDrum": false}, {"time": 72, "velocity": 108, "pitch": 52, "instrument": 0, "track": 2, "qtime": 24, "bar": 1, "isDrum": false}, {"time": 84, "velocity": 0, "pitch": 52, "instrument": 0, "track": 2, "qtime": 36, "bar": 1, "isDrum": false}, {"time": 84, "velocity": 108, "pitch": 53, "instrument": 0, "track": 2, "qtime": 36, "bar": 1, "isDrum": false}, {"time": 96, "velocity": 0, "pitch": 53, "instrument": 0, "track": 2, "qtime": 48, "bar": 1, "isDrum": false}, {"time": 96, "velocity": 108, "pitch": 62, "instrument": 0, "track": 2, "qtime": 0, "bar": 2, "isDrum": false}, {"time": 108, "velocity": 0, "pitch": 62, "instrument": 0, "track": 2, "qtime": 12, "bar": 2, "isDrum": false}, {"time": 108, "velocity": 108, "pitch": 60, "instrument": 0, "track": 2, "qtime": 12, "bar": 2, "isDrum": false}, {"time": 120, "velocity": 0, "pitch": 60, "instrument": 0, "track": 2, "qtime": 24, "bar": 2, "isDrum": false}, {"time": 120, "velocity": 108, "pitch": 60, "instrument": 0, "track": 2, "qtime": 24, "bar": 2, "isDrum": false}, {"time": 132, "velocity": 0, "pitch": 60, "instrument": 0, "track": 2, "qtime": 36, "bar": 2, "isDrum": false}, {"time": 132, "velocity": 108, "pitch": 60, "instrument": 0, "track": 2, "qtime": 36, "bar": 2, "isDrum": false}, {"time": 144, "velocity": 0, "pitch": 60, "instrument": 0, "track": 2, "qtime": 48, "bar": 2, "isDrum": false}, {"time": 144, "velocity": 108, "pitch": 60, "instrument": 0, "track": 2, "qtime": 0, "bar": 3, "isDrum": false}, {"time": 156, "velocity": 0, "pitch": 60, "instrument": 0, "track": 2, "qtime": 12, "bar": 3, "isDrum": false}, {"time": 156, "velocity": 108, "pitch": 58, "instrument": 0, "track": 2, "qtime": 12, "bar": 3, "isDrum": false}, {"time": 168, "velocity": 0, "pitch": 58, "instrument": 0, "track": 2, "qtime": 24, "bar": 3, "isDrum": false}, {"time": 168, "velocity": 108, "pitch": 50, "instrument": 0, "track": 2, "qtime": 24, "bar": 3, "isDrum": false}, {"time": 180, "velocity": 0, "pitch": 50, "instrument": 0, "track": 2, "qtime": 36, "bar": 3, "isDrum": false}, {"time": 180, "velocity": 108, "pitch": 52, "instrument": 0, "track": 2, "qtime": 36, "bar": 3, "isDrum": false}, {"time": 192, "velocity": 0, "pitch": 52, "instrument": 0, "track": 2, "qtime": 48, "bar": 3, "isDrum": false}, {"time": 192, "velocity": 108, "pitch": 53, "instrument": 0, "track": 2, "qtime": 0, "bar": 4, "isDrum": false}, {"time": 204, "velocity": 0, "pitch": 53, "instrument": 0, "track": 2, "qtime": 12, "bar": 4, "isDrum": false}, {"time": 204, "velocity": 108, "pitch": 57, "instrument": 0, "track": 2, "qtime": 12, "bar": 4, "isDrum": false}, {"time": 216, "velocity": 0, "pitch": 57, "instrument": 0, "track": 2, "qtime": 24, "bar": 4, "isDrum": false}, {"time": 216, "velocity": 108, "pitch": 58, "instrument": 0, "track": 2, "qtime": 24, "bar": 4, "isDrum": false}, {"time": 228, "velocity": 0, "pitch": 58, "instrument": 0, "track": 2, "qtime": 36, "bar": 4, "isDrum": false}, {"time": 228, "velocity": 108, "pitch": 60, "instrument": 0, "track": 2, "qtime": 36, "bar": 4, "isDrum": false}, {"time": 240, "velocity": 0, "pitch": 60, "instrument": 0, "track": 2, "qtime": 48, "bar": 4, "isDrum": false}, {"time": 240, "velocity": 108, "pitch": 58, "instrument": 0, "track": 2, "qtime": 0, "bar": 5, "isDrum": false}, {"time": 246, "velocity": 0, "pitch": 58, "instrument": 0, "track": 2, "qtime": 6, "bar": 5, "isDrum": false}, {"time": 246, "velocity": 108, "pitch": 60, "instrument": 0, "track": 2, "qtime": 6, "bar": 5, "isDrum": false}, {"time": 252, "velocity": 0, "pitch": 60, "instrument": 0, "track": 2, "qtime": 12, "bar": 5, "isDrum": false}, {"time": 252, "velocity": 108, "pitch": 62, "instrument": 0, "track": 2, "qtime": 12, "bar": 5, "isDrum": false}, {"time": 264, "velocity": 0, "pitch": 62, "instrument": 0, "track": 2, "qtime": 24, "bar": 5, "isDrum": false}, {"time": 264, "velocity": 108, "pitch": 64, "instrument": 0, "track": 2, "qtime": 24, "bar": 5, "isDrum": false}, {"time": 276, "velocity": 0, "pitch": 64, "instrument": 0, "track": 2, "qtime": 36, "bar": 5, "isDrum": false}, {"time": 276, "velocity": 108, "pitch": 65, "instrument": 0, "track": 2, "qtime": 36, "bar": 5, "isDrum": false}, {"time": 288, "velocity": 0, "pitch": 65, "instrument": 0, "track": 2, "qtime": 48, "bar": 5, "isDrum": false}, {"time": 288, "velocity": 108, "pitch": 59, "instrument": 0, "track": 2, "qtime": 0, "bar": 6, "isDrum": false}, {"time": 300, "velocity": 0, "pitch": 59, "instrument": 0, "track": 2, "qtime": 12, "bar": 6, "isDrum": false}, {"time": 300, "velocity": 108, "pitch": 60, "instrument": 0, "track": 2, "qtime": 12, "bar": 6, "isDrum": false}, {"time": 306, "velocity": 0, "pitch": 60, "instrument": 0, "track": 2, "qtime": 18, "bar": 6, "isDrum": false}, {"time": 306, "velocity": 108, "pitch": 59, "instrument": 0, "track": 2, "qtime": 18, "bar": 6, "isDrum": false}, {"time": 312, "velocity": 0, "pitch": 59, "instrument": 0, "track": 2, "qtime": 24, "bar": 6, "isDrum": false}, {"time": 312, "velocity": 108, "pitch": 57, "instrument": 0, "track": 2, "qtime": 24, "bar": 6, "isDrum": false}, {"time": 324, "velocity": 0, "pitch": 57, "instrument": 0, "track": 2, "qtime": 36, "bar": 6, "isDrum": false}, {"time": 324, "velocity": 108, "pitch": 62, "instrument": 0, "track": 2, "qtime": 36, "bar": 6, "isDrum": false}, {"time": 336, "velocity": 0, "pitch": 62, "instrument": 0, "track": 2, "qtime": 48, "bar": 6, "isDrum": false}, {"time": 336, "velocity": 108, "pitch": 62, "instrument": 0, "track": 2, "qtime": 0, "bar": 7, "isDrum": false}, {"time": 348, "velocity": 0, "pitch": 62, "instrument": 0, "track": 2, "qtime": 12, "bar": 7, "isDrum": false}, {"time": 348, "velocity": 108, "pitch": 60, "instrument": 0, "track": 2, "qtime": 12, "bar": 7, "isDrum": false}, {"time": 360, "velocity": 0, "pitch": 60, "instrument": 0, "track": 2, "qtime": 24, "bar": 7, "isDrum": false}, {"time": 360, "velocity": 108, "pitch": 62, "instrument": 0, "track": 2, "qtime": 24, "bar": 7, "isDrum": false}, {"time": 372, "velocity": 0, "pitch": 62, "instrument": 0, "track": 2, "qtime": 36, "bar": 7, "isDrum": false}, {"time": 372, "velocity": 108, "pitch": 60, "instrument": 0, "track": 2, "qtime": 36, "bar": 7, "isDrum": false}, {"time": 384, "velocity": 0, "pitch": 60, "instrument": 0, "track": 2, "qtime": 48, "bar": 7, "isDrum": false}, {"time": 0, "velocity": 108, "pitch": 50, "instrument": 0, "track": 3, "qtime": 0, "bar": 0, "isDrum": false}, {"time": 12, "velocity": 0, "pitch": 50, "instrument": 0, "track": 3, "qtime": 12, "bar": 0, "isDrum": false}, {"time": 12, "velocity": 108, "pitch": 49, "instrument": 0, "track": 3, "qtime": 12, "bar": 0, "isDrum": false}, {"time": 24, "velocity": 0, "pitch": 49, "instrument": 0, "track": 3, "qtime": 24, "bar": 0, "isDrum": false}, {"time": 24, "velocity": 108, "pitch": 50, "instrument": 0, "track": 3, "qtime": 24, "bar": 0, "isDrum": false}, {"time": 36, "velocity": 0, "pitch": 50, "instrument": 0, "track": 3, "qtime": 36, "bar": 0, "isDrum": false}, {"time": 36, "velocity": 108, "pitch": 58, "instrument": 0, "track": 3, "qtime": 36, "bar": 0, "isDrum": false}, {"time": 48, "velocity": 0, "pitch": 58, "instrument": 0, "track": 3, "qtime": 48, "bar": 0, "isDrum": false}, {"time": 48, "velocity": 108, "pitch": 53, "instrument": 0, "track": 3, "qtime": 0, "bar": 1, "isDrum": false}, {"time": 60, "velocity": 0, "pitch": 53, "instrument": 0, "track": 3, "qtime": 12, "bar": 1, "isDrum": false}, {"time": 60, "velocity": 108, "pitch": 55, "instrument": 0, "track": 3, "qtime": 12, "bar": 1, "isDrum": false}, {"time": 72, "velocity": 0, "pitch": 55, "instrument": 0, "track": 3, "qtime": 24, "bar": 1, "isDrum": false}, {"time": 72, "velocity": 108, "pitch": 57, "instrument": 0, "track": 3, "qtime": 24, "bar": 1, "isDrum": false}, {"time": 84, "velocity": 0, "pitch": 57, "instrument": 0, "track": 3, "qtime": 36, "bar": 1, "isDrum": false}, {"time": 84, "velocity": 108, "pitch": 50, "instrument": 0, "track": 3, "qtime": 36, "bar": 1, "isDrum": false}, {"time": 96, "velocity": 0, "pitch": 50, "instrument": 0, "track": 3, "qtime": 48, "bar": 1, "isDrum": false}, {"time": 96, "velocity": 108, "pitch": 50, "instrument": 0, "track": 3, "qtime": 0, "bar": 2, "isDrum": false}, {"time": 102, "velocity": 0, "pitch": 50, "instrument": 0, "track": 3, "qtime": 6, "bar": 2, "isDrum": false}, {"time": 102, "velocity": 108, "pitch": 52, "instrument": 0, "track": 3, "qtime": 6, "bar": 2, "isDrum": false}, {"time": 108, "velocity": 0, "pitch": 52, "instrument": 0, "track": 3, "qtime": 12, "bar": 2, "isDrum": false}, {"time": 108, "velocity": 108, "pitch": 53, "instrument": 0, "track": 3, "qtime": 12, "bar": 2, "isDrum": false}, {"time": 120, "velocity": 0, "pitch": 53, "instrument": 0, "track": 3, "qtime": 24, "bar": 2, "isDrum": false}, {"time": 120, "velocity": 108, "pitch": 52, "instrument": 0, "track": 3, "qtime": 24, "bar": 2, "isDrum": false}, {"time": 132, "velocity": 0, "pitch": 52, "instrument": 0, "track": 3, "qtime": 36, "bar": 2, "isDrum": false}, {"time": 132, "velocity": 108, "pitch": 57, "instrument": 0, "track": 3, "qtime": 36, "bar": 2, "isDrum": false}, {"time": 144, "velocity": 0, "pitch": 57, "instrument": 0, "track": 3, "qtime": 48, "bar": 2, "isDrum": false}, {"time": 144, "velocity": 108, "pitch": 53, "instrument": 0, "track": 3, "qtime": 0, "bar": 3, "isDrum": false}, {"time": 156, "velocity": 0, "pitch": 53, "instrument": 0, "track": 3, "qtime": 12, "bar": 3, "isDrum": false}, {"time": 156, "velocity": 108, "pitch": 58, "instrument": 0, "track": 3, "qtime": 12, "bar": 3, "isDrum": false}, {"time": 168, "velocity": 0, "pitch": 58, "instrument": 0, "track": 3, "qtime": 24, "bar": 3, "isDrum": false}, {"time": 168, "velocity": 108, "pitch": 46, "instrument": 0, "track": 3, "qtime": 24, "bar": 3, "isDrum": false}, {"time": 180, "velocity": 0, "pitch": 46, "instrument": 0, "track": 3, "qtime": 36, "bar": 3, "isDrum": false}, {"time": 180, "velocity": 108, "pitch": 45, "instrument": 0, "track": 3, "qtime": 36, "bar": 3, "isDrum": false}, {"time": 192, "velocity": 0, "pitch": 45, "instrument": 0, "track": 3, "qtime": 48, "bar": 3, "isDrum": false}, {"time": 192, "velocity": 108, "pitch": 50, "instrument": 0, "track": 3, "qtime": 0, "bar": 4, "isDrum": false}, {"time": 204, "velocity": 0, "pitch": 50, "instrument": 0, "track": 3, "qtime": 12, "bar": 4, "isDrum": false}, {"time": 204, "velocity": 108, "pitch": 57, "instrument": 0, "track": 3, "qtime": 12, "bar": 4, "isDrum": false}, {"time": 216, "velocity": 0, "pitch": 57, "instrument": 0, "track": 3, "qtime": 24, "bar": 4, "isDrum": false}, {"time": 216, "velocity": 108, "pitch": 55, "instrument": 0, "track": 3, "qtime": 24, "bar": 4, "isDrum": false}, {"time": 228, "velocity": 0, "pitch": 55, "instrument": 0, "track": 3, "qtime": 36, "bar": 4, "isDrum": false}, {"time": 228, "velocity": 108, "pitch": 53, "instrument": 0, "track": 3, "qtime": 36, "bar": 4, "isDrum": false}, {"time": 240, "velocity": 0, "pitch": 53, "instrument": 0, "track": 3, "qtime": 48, "bar": 4, "isDrum": false}, {"time": 240, "velocity": 108, "pitch": 55, "instrument": 0, "track": 3, "qtime": 0, "bar": 5, "isDrum": false}, {"time": 246, "velocity": 0, "pitch": 55, "instrument": 0, "track": 3, "qtime": 6, "bar": 5, "isDrum": false}, {"time": 246, "velocity": 108, "pitch": 57, "instrument": 0, "track": 3, "qtime": 6, "bar": 5, "isDrum": false}, {"time": 252, "velocity": 0, "pitch": 57, "instrument": 0, "track": 3, "qtime": 12, "bar": 5, "isDrum": false}, {"time": 252, "velocity": 108, "pitch": 58, "instrument": 0, "track": 3, "qtime": 12, "bar": 5, "isDrum": false}, {"time": 264, "velocity": 0, "pitch": 58, "instrument": 0, "track": 3, "qtime": 24, "bar": 5, "isDrum": false}, {"time": 264, "velocity": 108, "pitch": 57, "instrument": 0, "track": 3, "qtime": 24, "bar": 5, "isDrum": false}, {"time": 276, "velocity": 0, "pitch": 57, "instrument": 0, "track": 3, "qtime": 36, "bar": 5, "isDrum": false}, {"time": 276, "velocity": 108, "pitch": 50, "instrument": 0, "track": 3, "qtime": 36, "bar": 5, "isDrum": false}, {"time": 288, "velocity": 0, "pitch": 50, "instrument": 0, "track": 3, "qtime": 48, "bar": 5, "isDrum": false}, {"time": 288, "velocity": 108, "pitch": 55, "instrument": 0, "track": 3, "qtime": 0, "bar": 6, "isDrum": false}, {"time": 300, "velocity": 0, "pitch": 55, "instrument": 0, "track": 3, "qtime": 12, "bar": 6, "isDrum": false}, {"time": 300, "velocity": 108, "pitch": 48, "instrument": 0, "track": 3, "qtime": 12, "bar": 6, "isDrum": false}, {"time": 312, "velocity": 0, "pitch": 48, "instrument": 0, "track": 3, "qtime": 24, "bar": 6, "isDrum": false}, {"time": 312, "velocity": 108, "pitch": 50, "instrument": 0, "track": 3, "qtime": 24, "bar": 6, "isDrum": false}, {"time": 318, "velocity": 0, "pitch": 50, "instrument": 0, "track": 3, "qtime": 30, "bar": 6, "isDrum": false}, {"time": 318, "velocity": 108, "pitch": 52, "instrument": 0, "track": 3, "qtime": 30, "bar": 6, "isDrum": false}, {"time": 324, "velocity": 0, "pitch": 52, "instrument": 0, "track": 3, "qtime": 36, "bar": 6, "isDrum": false}, {"time": 324, "velocity": 108, "pitch": 54, "instrument": 0, "track": 3, "qtime": 36, "bar": 6, "isDrum": false}, {"time": 336, "velocity": 0, "pitch": 54, "instrument": 0, "track": 3, "qtime": 48, "bar": 6, "isDrum": false}, {"time": 336, "velocity": 108, "pitch": 56, "instrument": 0, "track": 3, "qtime": 0, "bar": 7, "isDrum": false}, {"time": 348, "velocity": 0, "pitch": 56, "instrument": 0, "track": 3, "qtime": 12, "bar": 7, "isDrum": false}, {"time": 348, "velocity": 108, "pitch": 57, "instrument": 0, "track": 3, "qtime": 12, "bar": 7, "isDrum": false}, {"time": 360, "velocity": 0, "pitch": 57, "instrument": 0, "track": 3, "qtime": 24, "bar": 7, "isDrum": false}, {"time": 360, "velocity": 108, "pitch": 52, "instrument": 0, "track": 3, "qtime": 24, "bar": 7, "isDrum": false}, {"time": 372, "velocity": 0, "pitch": 52, "instrument": 0, "track": 3, "qtime": 36, "bar": 7, "isDrum": false}, {"time": 372, "velocity": 108, "pitch": 45, "instrument": 0, "track": 3, "qtime": 36, "bar": 7, "isDrum": false}, {"time": 384, "velocity": 0, "pitch": 45, "instrument": 0, "track": 3, "qtime": 48, "bar": 7, "isDrum": false}], "resolution": 12, "minPitch": 41, "maxPitch": 77, "validSegments": [0], "validTracks": [15], "segmentLength": 4, "tempo": 120}, "audio": "https://www.sfu.ca/~jeffe/examples/8b_bach_101_7.mp3"}, {"src": "gen/8b_bach_101_7_bass_sub.json", "highlights": [[], [], [], [2, 3, 4, 5]], "caption": "Resample the some bars in the bass part from 23a.", "sample_id": "23b", "mixer": [8, 8, 8, 8], "json": {"tracks": [{"bars": [{"events": [0, 1, 2, 3, 4, 5, 6, 7], "isFourFour": true, "hasNotes": true, "time": 0}, {"events": [8, 9, 10, 11, 12, 13, 14, 15], "isFourFour": true, "hasNotes": true, "time": 48}, {"events": [16, 17, 18, 19, 20, 21, 22, 23], "isFourFour": true, "hasNotes": true, "time": 96}, {"events": [24, 25, 26, 27, 28, 29, 30, 31], "isFourFour": true, "hasNotes": true, "time": 144}, {"events": [32, 33, 34, 35, 36, 37, 38, 39, 40, 41], "isFourFour": true, "hasNotes": true, "time": 192}, {"events": [42, 43, 44, 45, 46, 47, 48, 49], "isFourFour": true, "hasNotes": true, "time": 240}, {"events": [50, 51, 52, 53, 54, 55, 56, 57], "isFourFour": true, "hasNotes": true, "time": 288}, {"events": [58, 59, 60, 61, 62, 63, 64, 65], "isFourFour": true, "hasNotes": true, "time": 336}], "isDrum": false, "minPitch": 62, "maxPitch": 77, "instrument": 0, "avPolyphony": 1, "noteDensity": 9, "noteDensityV2": 2}, {"bars": [{"events": [66, 67, 68, 69, 70, 71, 72, 73], "isFourFour": true, "hasNotes": true, "time": 0}, {"events": [74, 75, 76, 77, 78, 79, 80, 81], "isFourFour": true, "hasNotes": true, "time": 48}, {"events": [82, 83, 84, 85, 86, 87, 88, 89, 90, 91], "isFourFour": true, "hasNotes": true, "time": 96}, {"events": [92, 93, 94, 95, 96, 97, 98, 99], "isFourFour": true, "hasNotes": true, "time": 144}, {"events": [100, 101, 102, 103, 104, 105, 106, 107], "isFourFour": true, "hasNotes": true, "time": 192}, {"events": [108, 109, 110, 111, 112, 113, 114, 115, 116, 117], "isFourFour": true, "hasNotes": true, "time": 240}, {"events": [118, 119, 120, 121, 122, 123, 124, 125, 126, 127], "isFourFour": true, "hasNotes": true, "time": 288}, {"events": [128, 129, 130, 131, 132, 133, 134, 135, 136, 137, 138, 139], "isFourFour": true, "hasNotes": true, "time": 336}], "isDrum": false, "minPitch": 57, "maxPitch": 69, "instrument": 0, "avPolyphony": 1, "noteDensity": 9, "noteDensityV2": 3}, {"bars": [{"events": [140, 141, 142, 143, 144, 145, 146, 147], "isFourFour": true, "hasNotes": true, "time": 0}, {"events": [148, 149, 150, 151, 152, 153, 154, 155], "isFourFour": true, "hasNotes": true, "time": 48}, {"events": [156, 157, 158, 159, 160, 161, 162, 163], "isFourFour": true, "hasNotes": true, "time": 96}, {"events": [164, 165, 166, 167, 168, 169, 170, 171], "isFourFour": true, "hasNotes": true, "time": 144}, {"events": [172, 173, 174, 175, 176, 177, 178, 179], "isFourFour": true, "hasNotes": true, "time": 192}, {"events": [180, 181, 182, 183, 184, 185, 186, 187, 188, 189], "isFourFour": true, "hasNotes": true, "time": 240}, {"events": [190, 191, 192, 193, 194, 195, 196, 197, 198, 199], "isFourFour": true, "hasNotes": true, "time": 288}, {"events": [200, 201, 202, 203, 204, 205, 206, 207], "isFourFour": true, "hasNotes": true, "time": 336}], "isDrum": false, "minPitch": 50, "maxPitch": 65, "instrument": 0, "avPolyphony": 1, "noteDensity": 9, "noteDensityV2": 2}, {"bars": [{"events": [208, 209, 210, 211, 212, 213, 214, 215], "isFourFour": true, "hasNotes": true, "time": 0}, {"events": [216, 217, 218, 219, 220, 221, 222, 223], "isFourFour": true, "hasNotes": true, "time": 48}, {"events": [224, 225, 226, 227, 228, 229, 230, 231, 232, 233], "isFourFour": true, "hasNotes": true, "time": 96}, {"events": [234, 235, 236, 237, 238, 239, 240, 241], "isFourFour": true, "hasNotes": true, "time": 144}, {"events": [242, 243, 244, 245, 246, 247, 248, 249], "isFourFour": true, "hasNotes": true, "time": 192}, {"events": [250, 251, 252, 253, 254, 255, 256, 257, 258, 259], "isFourFour": true, "hasNotes": true, "time": 240}, {"events": [260, 261, 262, 263, 264, 265, 266, 267, 268, 269], "isFourFour": true, "hasNotes": true, "time": 288}, {"events": [270, 271, 272, 273, 274, 275, 276, 277], "isFourFour": true, "hasNotes": true, "time": 336}], "isDrum": false, "minPitch": 43, "maxPitch": 58, "instrument": 0, "avPolyphony": 1, "noteDensity": 9, "noteDensityV2": 2}], "events": [{"time": 0, "velocity": 108, "pitch": 69, "instrument": 0, "track": 0, "qtime": 0, "isDrum": false}, {"time": 12, "velocity": 0, "pitch": 69, "instrument": 0, "track": 0, "qtime": 12, "isDrum": false}, {"time": 12, "velocity": 108, "pitch": 69, "instrument": 0, "track": 0, "qtime": 12, "isDrum": false}, {"time": 24, "velocity": 0, "pitch": 69, "instrument": 0, "track": 0, "qtime": 24, "isDrum": false}, {"time": 24, "velocity": 108, "pitch": 65, "instrument": 0, "track": 0, "qtime": 24, "isDrum": false}, {"time": 36, "velocity": 0, "pitch": 65, "instrument": 0, "track": 0, "qtime": 36, "isDrum": false}, {"time": 36, "velocity": 108, "pitch": 67, "instrument": 0, "track": 0, "qtime": 36, "isDrum": false}, {"time": 48, "velocity": 0, "pitch": 67, "instrument": 0, "track": 0, "qtime": 48, "isDrum": false}, {"time": 48, "velocity": 108, "pitch": 69, "instrument": 0, "track": 0, "qtime": 0, "isDrum": false}, {"time": 60, "velocity": 0, "pitch": 69, "instrument": 0, "track": 0, "qtime": 12, "isDrum": false}, {"time": 60, "velocity": 108, "pitch": 65, "instrument": 0, "track": 0, "qtime": 12, "isDrum": false}, {"time": 72, "velocity": 0, "pitch": 65, "instrument": 0, "track": 0, "qtime": 24, "isDrum": false}, {"time": 72, "velocity": 108, "pitch": 64, "instrument": 0, "track": 0, "qtime": 24, "isDrum": false}, {"time": 84, "velocity": 0, "pitch": 64, "instrument": 0, "track": 0, "qtime": 36, "isDrum": false}, {"time": 84, "velocity": 108, "pitch": 62, "instrument": 0, "track": 0, "qtime": 36, "isDrum": false}, {"time": 96, "velocity": 0, "pitch": 62, "instrument": 0, "track": 0, "qtime": 48, "isDrum": false}, {"time": 96, "velocity": 108, "pitch": 69, "instrument": 0, "track": 0, "qtime": 0, "isDrum": false}, {"time": 108, "velocity": 0, "pitch": 69, "instrument": 0, "track": 0, "qtime": 12, "isDrum": false}, {"time": 108, "velocity": 108, "pitch": 69, "instrument": 0, "track": 0, "qtime": 12, "isDrum": false}, {"time": 120, "velocity": 0, "pitch": 69, "instrument": 0, "track": 0, "qtime": 24, "isDrum": false}, {"time": 120, "velocity": 108, "pitch": 67, "instrument": 0, "track": 0, "qtime": 24, "isDrum": false}, {"time": 132, "velocity": 0, "pitch": 67, "instrument": 0, "track": 0, "qtime": 36, "isDrum": false}, {"time": 132, "velocity": 108, "pitch": 72, "instrument": 0, "track": 0, "qtime": 36, "isDrum": false}, {"time": 144, "velocity": 0, "pitch": 72, "instrument": 0, "track": 0, "qtime": 48, "isDrum": false}, {"time": 144, "velocity": 108, "pitch": 69, "instrument": 0, "track": 0, "qtime": 0, "isDrum": false}, {"time": 156, "velocity": 0, "pitch": 69, "instrument": 0, "track": 0, "qtime": 12, "isDrum": false}, {"time": 156, "velocity": 108, "pitch": 65, "instrument": 0, "track": 0, "qtime": 12, "isDrum": false}, {"time": 168, "velocity": 0, "pitch": 65, "instrument": 0, "track": 0, "qtime": 24, "isDrum": false}, {"time": 168, "velocity": 108, "pitch": 67, "instrument": 0, "track": 0, "qtime": 24, "isDrum": false}, {"time": 180, "velocity": 0, "pitch": 67, "instrument": 0, "track": 0, "qtime": 36, "isDrum": false}, {"time": 180, "velocity": 108, "pitch": 69, "instrument": 0, "track": 0, "qtime": 36, "isDrum": false}, {"time": 192, "velocity": 0, "pitch": 69, "instrument": 0, "track": 0, "qtime": 48, "isDrum": false}, {"time": 192, "velocity": 108, "pitch": 69, "instrument": 0, "track": 0, "qtime": 0, "isDrum": false}, {"time": 204, "velocity": 0, "pitch": 69, "instrument": 0, "track": 0, "qtime": 12, "isDrum": false}, {"time": 204, "velocity": 108, "pitch": 72, "instrument": 0, "track": 0, "qtime": 12, "isDrum": false}, {"time": 216, "velocity": 0, "pitch": 72, "instrument": 0, "track": 0, "qtime": 24, "isDrum": false}, {"time": 216, "velocity": 108, "pitch": 74, "instrument": 0, "track": 0, "qtime": 24, "isDrum": false}, {"time": 222, "velocity": 0, "pitch": 74, "instrument": 0, "track": 0, "qtime": 30, "isDrum": false}, {"time": 222, "velocity": 108, "pitch": 76, "instrument": 0, "track": 0, "qtime": 30, "isDrum": false}, {"time": 228, "velocity": 0, "pitch": 76, "instrument": 0, "track": 0, "qtime": 36, "isDrum": false}, {"time": 228, "velocity": 108, "pitch": 77, "instrument": 0, "track": 0, "qtime": 36, "isDrum": false}, {"time": 240, "velocity": 0, "pitch": 77, "instrument": 0, "track": 0, "qtime": 48, "isDrum": false}, {"time": 240, "velocity": 108, "pitch": 76, "instrument": 0, "track": 0, "qtime": 0, "isDrum": false}, {"time": 252, "velocity": 0, "pitch": 76, "instrument": 0, "track": 0, "qtime": 12, "isDrum": false}, {"time": 252, "velocity": 108, "pitch": 74, "instrument": 0, "track": 0, "qtime": 12, "isDrum": false}, {"time": 264, "velocity": 0, "pitch": 74, "instrument": 0, "track": 0, "qtime": 24, "isDrum": false}, {"time": 264, "velocity": 108, "pitch": 73, "instrument": 0, "track": 0, "qtime": 24, "isDrum": false}, {"time": 276, "velocity": 0, "pitch": 73, "instrument": 0, "track": 0, "qtime": 36, "isDrum": false}, {"time": 276, "velocity": 108, "pitch": 74, "instrument": 0, "track": 0, "qtime": 36, "isDrum": false}, {"time": 288, "velocity": 0, "pitch": 74, "instrument": 0, "track": 0, "qtime": 48, "isDrum": false}, {"time": 288, "velocity": 108, "pitch": 74, "instrument": 0, "track": 0, "qtime": 0, "isDrum": false}, {"time": 300, "velocity": 0, "pitch": 74, "instrument": 0, "track": 0, "qtime": 12, "isDrum": false}, {"time": 300, "velocity": 108, "pitch": 76, "instrument": 0, "track": 0, "qtime": 12, "isDrum": false}, {"time": 312, "velocity": 0, "pitch": 76, "instrument": 0, "track": 0, "qtime": 24, "isDrum": false}, {"time": 312, "velocity": 108, "pitch": 74, "instrument": 0, "track": 0, "qtime": 24, "isDrum": false}, {"time": 324, "velocity": 0, "pitch": 74, "instrument": 0, "track": 0, "qtime": 36, "isDrum": false}, {"time": 324, "velocity": 108, "pitch": 72, "instrument": 0, "track": 0, "qtime": 36, "isDrum": false}, {"time": 336, "velocity": 0, "pitch": 72, "instrument": 0, "track": 0, "qtime": 48, "isDrum": false}, {"time": 336, "velocity": 108, "pitch": 71, "instrument": 0, "track": 0, "qtime": 0, "isDrum": false}, {"time": 348, "velocity": 0, "pitch": 71, "instrument": 0, "track": 0, "qtime": 12, "isDrum": false}, {"time": 348, "velocity": 108, "pitch": 69, "instrument": 0, "track": 0, "qtime": 12, "isDrum": false}, {"time": 360, "velocity": 0, "pitch": 69, "instrument": 0, "track": 0, "qtime": 24, "isDrum": false}, {"time": 360, "velocity": 108, "pitch": 71, "instrument": 0, "track": 0, "qtime": 24, "isDrum": false}, {"time": 372, "velocity": 0, "pitch": 71, "instrument": 0, "track": 0, "qtime": 36, "isDrum": false}, {"time": 372, "velocity": 108, "pitch": 69, "instrument": 0, "track": 0, "qtime": 36, "isDrum": false}, {"time": 384, "velocity": 0, "pitch": 69, "instrument": 0, "track": 0, "qtime": 48, "isDrum": false}, {"time": 0, "velocity": 108, "pitch": 65, "instrument": 0, "track": 1, "qtime": 0, "isDrum": false}, {"time": 12, "velocity": 0, "pitch": 65, "instrument": 0, "track": 1, "qtime": 12, "isDrum": false}, {"time": 12, "velocity": 108, "pitch": 64, "instrument": 0, "track": 1, "qtime": 12, "isDrum": false}, {"time": 24, "velocity": 0, "pitch": 64, "instrument": 0, "track": 1, "qtime": 24, "isDrum": false}, {"time": 24, "velocity": 108, "pitch": 62, "instrument": 0, "track": 1, "qtime": 24, "isDrum": false}, {"time": 36, "velocity": 0, "pitch": 62, "instrument": 0, "track": 1, "qtime": 36, "isDrum": false}, {"time": 36, "velocity": 108, "pitch": 62, "instrument": 0, "track": 1, "qtime": 36, "isDrum": false}, {"time": 48, "velocity": 0, "pitch": 62, "instrument": 0, "track": 1, "qtime": 48, "isDrum": false}, {"time": 48, "velocity": 108, "pitch": 62, "instrument": 0, "track": 1, "qtime": 0, "isDrum": false}, {"time": 60, "velocity": 0, "pitch": 62, "instrument": 0, "track": 1, "qtime": 12, "isDrum": false}, {"time": 60, "velocity": 108, "pitch": 62, "instrument": 0, "track": 1, "qtime": 12, "isDrum": false}, {"time": 72, "velocity": 0, "pitch": 62, "instrument": 0, "track": 1, "qtime": 24, "isDrum": false}, {"time": 72, "velocity": 108, "pitch": 61, "instrument": 0, "track": 1, "qtime": 24, "isDrum": false}, {"time": 84, "velocity": 0, "pitch": 61, "instrument": 0, "track": 1, "qtime": 36, "isDrum": false}, {"time": 84, "velocity": 108, "pitch": 57, "instrument": 0, "track": 1, "qtime": 36, "isDrum": false}, {"time": 96, "velocity": 0, "pitch": 57, "instrument": 0, "track": 1, "qtime": 48, "isDrum": false}, {"time": 96, "velocity": 108, "pitch": 65, "instrument": 0, "track": 1, "qtime": 0, "isDrum": false}, {"time": 108, "velocity": 0, "pitch": 65, "instrument": 0, "track": 1, "qtime": 12, "isDrum": false}, {"time": 108, "velocity": 108, "pitch": 65, "instrument": 0, "track": 1, "qtime": 12, "isDrum": false}, {"time": 120, "velocity": 0, "pitch": 65, "instrument": 0, "track": 1, "qtime": 24, "isDrum": false}, {"time": 120, "velocity": 108, "pitch": 67, "instrument": 0, "track": 1, "qtime": 24, "isDrum": false}, {"time": 126, "velocity": 0, "pitch": 67, "instrument": 0, "track": 1, "qtime": 30, "isDrum": false}, {"time": 126, "velocity": 108, "pitch": 65, "instrument": 0, "track": 1, "qtime": 30, "isDrum": false}, {"time": 132, "velocity": 0, "pitch": 65, "instrument": 0, "track": 1, "qtime": 36, "isDrum": false}, {"time": 132, "velocity": 108, "pitch": 64, "instrument": 0, "track": 1, "qtime": 36, "isDrum": false}, {"time": 144, "velocity": 0, "pitch": 64, "instrument": 0, "track": 1, "qtime": 48, "isDrum": false}, {"time": 144, "velocity": 108, "pitch": 65, "instrument": 0, "track": 1, "qtime": 0, "isDrum": false}, {"time": 156, "velocity": 0, "pitch": 65, "instrument": 0, "track": 1, "qtime": 12, "isDrum": false}, {"time": 156, "velocity": 108, "pitch": 62, "instrument": 0, "track": 1, "qtime": 12, "isDrum": false}, {"time": 168, "velocity": 0, "pitch": 62, "instrument": 0, "track": 1, "qtime": 24, "isDrum": false}, {"time": 168, "velocity": 108, "pitch": 62, "instrument": 0, "track": 1, "qtime": 24, "isDrum": false}, {"time": 180, "velocity": 0, "pitch": 62, "instrument": 0, "track": 1, "qtime": 36, "isDrum": false}, {"time": 180, "velocity": 108, "pitch": 61, "instrument": 0, "track": 1, "qtime": 36, "isDrum": false}, {"time": 192, "velocity": 0, "pitch": 61, "instrument": 0, "track": 1, "qtime": 48, "isDrum": false}, {"time": 192, "velocity": 108, "pitch": 62, "instrument": 0, "track": 1, "qtime": 0, "isDrum": false}, {"time": 204, "velocity": 0, "pitch": 62, "instrument": 0, "track": 1, "qtime": 12, "isDrum": false}, {"time": 204, "velocity": 108, "pitch": 64, "instrument": 0, "track": 1, "qtime": 12, "isDrum": false}, {"time": 216, "velocity": 0, "pitch": 64, "instrument": 0, "track": 1, "qtime": 24, "isDrum": false}, {"time": 216, "velocity": 108, "pitch": 67, "instrument": 0, "track": 1, "qtime": 24, "isDrum": false}, {"time": 228, "velocity": 0, "pitch": 67, "instrument": 0, "track": 1, "qtime": 36, "isDrum": false}, {"time": 228, "velocity": 108, "pitch": 69, "instrument": 0, "track": 1, "qtime": 36, "isDrum": false}, {"time": 240, "velocity": 0, "pitch": 69, "instrument": 0, "track": 1, "qtime": 48, "isDrum": false}, {"time": 240, "velocity": 108, "pitch": 67, "instrument": 0, "track": 1, "qtime": 0, "isDrum": false}, {"time": 252, "velocity": 0, "pitch": 67, "instrument": 0, "track": 1, "qtime": 12, "isDrum": false}, {"time": 252, "velocity": 108, "pitch": 65, "instrument": 0, "track": 1, "qtime": 12, "isDrum": false}, {"time": 258, "velocity": 0, "pitch": 65, "instrument": 0, "track": 1, "qtime": 18, "isDrum": false}, {"time": 258, "velocity": 108, "pitch": 67, "instrument": 0, "track": 1, "qtime": 18, "isDrum": false}, {"time": 264, "velocity": 0, "pitch": 67, "instrument": 0, "track": 1, "qtime": 24, "isDrum": false}, {"time": 264, "velocity": 108, "pitch": 69, "instrument": 0, "track": 1, "qtime": 24, "isDrum": false}, {"time": 276, "velocity": 0, "pitch": 69, "instrument": 0, "track": 1, "qtime": 36, "isDrum": false}, {"time": 276, "velocity": 108, "pitch": 69, "instrument": 0, "track": 1, "qtime": 36, "isDrum": false}, {"time": 288, "velocity": 0, "pitch": 69, "instrument": 0, "track": 1, "qtime": 48, "isDrum": false}, {"time": 288, "velocity": 108, "pitch": 67, "instrument": 0, "track": 1, "qtime": 0, "isDrum": false}, {"time": 300, "velocity": 0, "pitch": 67, "instrument": 0, "track": 1, "qtime": 12, "isDrum": false}, {"time": 300, "velocity": 108, "pitch": 67, "instrument": 0, "track": 1, "qtime": 12, "isDrum": false}, {"time": 312, "velocity": 0, "pitch": 67, "instrument": 0, "track": 1, "qtime": 24, "isDrum": false}, {"time": 312, "velocity": 108, "pitch": 66, "instrument": 0, "track": 1, "qtime": 24, "isDrum": false}, {"time": 318, "velocity": 0, "pitch": 66, "instrument": 0, "track": 1, "qtime": 30, "isDrum": false}, {"time": 318, "velocity": 108, "pitch": 68, "instrument": 0, "track": 1, "qtime": 30, "isDrum": false}, {"time": 324, "velocity": 0, "pitch": 68, "instrument": 0, "track": 1, "qtime": 36, "isDrum": false}, {"time": 324, "velocity": 108, "pitch": 69, "instrument": 0, "track": 1, "qtime": 36, "isDrum": false}, {"time": 336, "velocity": 0, "pitch": 69, "instrument": 0, "track": 1, "qtime": 48, "isDrum": false}, {"time": 336, "velocity": 108, "pitch": 64, "instrument": 0, "track": 1, "qtime": 0, "isDrum": false}, {"time": 348, "velocity": 0, "pitch": 64, "instrument": 0, "track": 1, "qtime": 12, "isDrum": false}, {"time": 348, "velocity": 108, "pitch": 64, "instrument": 0, "track": 1, "qtime": 12, "isDrum": false}, {"time": 354, "velocity": 0, "pitch": 64, "instrument": 0, "track": 1, "qtime": 18, "isDrum": false}, {"time": 354, "velocity": 108, "pitch": 69, "instrument": 0, "track": 1, "qtime": 18, "isDrum": false}, {"time": 360, "velocity": 0, "pitch": 69, "instrument": 0, "track": 1, "qtime": 24, "isDrum": false}, {"time": 360, "velocity": 108, "pitch": 69, "instrument": 0, "track": 1, "qtime": 24, "isDrum": false}, {"time": 366, "velocity": 0, "pitch": 69, "instrument": 0, "track": 1, "qtime": 30, "isDrum": false}, {"time": 366, "velocity": 108, "pitch": 68, "instrument": 0, "track": 1, "qtime": 30, "isDrum": false}, {"time": 372, "velocity": 0, "pitch": 68, "instrument": 0, "track": 1, "qtime": 36, "isDrum": false}, {"time": 372, "velocity": 108, "pitch": 64, "instrument": 0, "track": 1, "qtime": 36, "isDrum": false}, {"time": 384, "velocity": 0, "pitch": 64, "instrument": 0, "track": 1, "qtime": 48, "isDrum": false}, {"time": 0, "velocity": 108, "pitch": 62, "instrument": 0, "track": 2, "qtime": 0, "isDrum": false}, {"time": 12, "velocity": 0, "pitch": 62, "instrument": 0, "track": 2, "qtime": 12, "isDrum": false}, {"time": 12, "velocity": 108, "pitch": 57, "instrument": 0, "track": 2, "qtime": 12, "isDrum": false}, {"time": 24, "velocity": 0, "pitch": 57, "instrument": 0, "track": 2, "qtime": 24, "isDrum": false}, {"time": 24, "velocity": 108, "pitch": 57, "instrument": 0, "track": 2, "qtime": 24, "isDrum": false}, {"time": 36, "velocity": 0, "pitch": 57, "instrument": 0, "track": 2, "qtime": 36, "isDrum": false}, {"time": 36, "velocity": 108, "pitch": 58, "instrument": 0, "track": 2, "qtime": 36, "isDrum": false}, {"time": 48, "velocity": 0, "pitch": 58, "instrument": 0, "track": 2, "qtime": 48, "isDrum": false}, {"time": 48, "velocity": 108, "pitch": 57, "instrument": 0, "track": 2, "qtime": 0, "isDrum": false}, {"time": 60, "velocity": 0, "pitch": 57, "instrument": 0, "track": 2, "qtime": 12, "isDrum": false}, {"time": 60, "velocity": 108, "pitch": 58, "instrument": 0, "track": 2, "qtime": 12, "isDrum": false}, {"time": 72, "velocity": 0, "pitch": 58, "instrument": 0, "track": 2, "qtime": 24, "isDrum": false}, {"time": 72, "velocity": 108, "pitch": 52, "instrument": 0, "track": 2, "qtime": 24, "isDrum": false}, {"time": 84, "velocity": 0, "pitch": 52, "instrument": 0, "track": 2, "qtime": 36, "isDrum": false}, {"time": 84, "velocity": 108, "pitch": 53, "instrument": 0, "track": 2, "qtime": 36, "isDrum": false}, {"time": 96, "velocity": 0, "pitch": 53, "instrument": 0, "track": 2, "qtime": 48, "isDrum": false}, {"time": 96, "velocity": 108, "pitch": 62, "instrument": 0, "track": 2, "qtime": 0, "isDrum": false}, {"time": 108, "velocity": 0, "pitch": 62, "instrument": 0, "track": 2, "qtime": 12, "isDrum": false}, {"time": 108, "velocity": 108, "pitch": 60, "instrument": 0, "track": 2, "qtime": 12, "isDrum": false}, {"time": 120, "velocity": 0, "pitch": 60, "instrument": 0, "track": 2, "qtime": 24, "isDrum": false}, {"time": 120, "velocity": 108, "pitch": 60, "instrument": 0, "track": 2, "qtime": 24, "isDrum": false}, {"time": 132, "velocity": 0, "pitch": 60, "instrument": 0, "track": 2, "qtime": 36, "isDrum": false}, {"time": 132, "velocity": 108, "pitch": 60, "instrument": 0, "track": 2, "qtime": 36, "isDrum": false}, {"time": 144, "velocity": 0, "pitch": 60, "instrument": 0, "track": 2, "qtime": 48, "isDrum": false}, {"time": 144, "velocity": 108, "pitch": 60, "instrument": 0, "track": 2, "qtime": 0, "isDrum": false}, {"time": 156, "velocity": 0, "pitch": 60, "instrument": 0, "track": 2, "qtime": 12, "isDrum": false}, {"time": 156, "velocity": 108, "pitch": 58, "instrument": 0, "track": 2, "qtime": 12, "isDrum": false}, {"time": 168, "velocity": 0, "pitch": 58, "instrument": 0, "track": 2, "qtime": 24, "isDrum": false}, {"time": 168, "velocity": 108, "pitch": 50, "instrument": 0, "track": 2, "qtime": 24, "isDrum": false}, {"time": 180, "velocity": 0, "pitch": 50, "instrument": 0, "track": 2, "qtime": 36, "isDrum": false}, {"time": 180, "velocity": 108, "pitch": 52, "instrument": 0, "track": 2, "qtime": 36, "isDrum": false}, {"time": 192, "velocity": 0, "pitch": 52, "instrument": 0, "track": 2, "qtime": 48, "isDrum": false}, {"time": 192, "velocity": 108, "pitch": 53, "instrument": 0, "track": 2, "qtime": 0, "isDrum": false}, {"time": 204, "velocity": 0, "pitch": 53, "instrument": 0, "track": 2, "qtime": 12, "isDrum": false}, {"time": 204, "velocity": 108, "pitch": 57, "instrument": 0, "track": 2, "qtime": 12, "isDrum": false}, {"time": 216, "velocity": 0, "pitch": 57, "instrument": 0, "track": 2, "qtime": 24, "isDrum": false}, {"time": 216, "velocity": 108, "pitch": 58, "instrument": 0, "track": 2, "qtime": 24, "isDrum": false}, {"time": 228, "velocity": 0, "pitch": 58, "instrument": 0, "track": 2, "qtime": 36, "isDrum": false}, {"time": 228, "velocity": 108, "pitch": 60, "instrument": 0, "track": 2, "qtime": 36, "isDrum": false}, {"time": 240, "velocity": 0, "pitch": 60, "instrument": 0, "track": 2, "qtime": 48, "isDrum": false}, {"time": 240, "velocity": 108, "pitch": 58, "instrument": 0, "track": 2, "qtime": 0, "isDrum": false}, {"time": 246, "velocity": 0, "pitch": 58, "instrument": 0, "track": 2, "qtime": 6, "isDrum": false}, {"time": 246, "velocity": 108, "pitch": 60, "instrument": 0, "track": 2, "qtime": 6, "isDrum": false}, {"time": 252, "velocity": 0, "pitch": 60, "instrument": 0, "track": 2, "qtime": 12, "isDrum": false}, {"time": 252, "velocity": 108, "pitch": 62, "instrument": 0, "track": 2, "qtime": 12, "isDrum": false}, {"time": 264, "velocity": 0, "pitch": 62, "instrument": 0, "track": 2, "qtime": 24, "isDrum": false}, {"time": 264, "velocity": 108, "pitch": 64, "instrument": 0, "track": 2, "qtime": 24, "isDrum": false}, {"time": 276, "velocity": 0, "pitch": 64, "instrument": 0, "track": 2, "qtime": 36, "isDrum": false}, {"time": 276, "velocity": 108, "pitch": 65, "instrument": 0, "track": 2, "qtime": 36, "isDrum": false}, {"time": 288, "velocity": 0, "pitch": 65, "instrument": 0, "track": 2, "qtime": 48, "isDrum": false}, {"time": 288, "velocity": 108, "pitch": 59, "instrument": 0, "track": 2, "qtime": 0, "isDrum": false}, {"time": 300, "velocity": 0, "pitch": 59, "instrument": 0, "track": 2, "qtime": 12, "isDrum": false}, {"time": 300, "velocity": 108, "pitch": 60, "instrument": 0, "track": 2, "qtime": 12, "isDrum": false}, {"time": 306, "velocity": 0, "pitch": 60, "instrument": 0, "track": 2, "qtime": 18, "isDrum": false}, {"time": 306, "velocity": 108, "pitch": 59, "instrument": 0, "track": 2, "qtime": 18, "isDrum": false}, {"time": 312, "velocity": 0, "pitch": 59, "instrument": 0, "track": 2, "qtime": 24, "isDrum": false}, {"time": 312, "velocity": 108, "pitch": 57, "instrument": 0, "track": 2, "qtime": 24, "isDrum": false}, {"time": 324, "velocity": 0, "pitch": 57, "instrument": 0, "track": 2, "qtime": 36, "isDrum": false}, {"time": 324, "velocity": 108, "pitch": 62, "instrument": 0, "track": 2, "qtime": 36, "isDrum": false}, {"time": 336, "velocity": 0, "pitch": 62, "instrument": 0, "track": 2, "qtime": 48, "isDrum": false}, {"time": 336, "velocity": 108, "pitch": 62, "instrument": 0, "track": 2, "qtime": 0, "isDrum": false}, {"time": 348, "velocity": 0, "pitch": 62, "instrument": 0, "track": 2, "qtime": 12, "isDrum": false}, {"time": 348, "velocity": 108, "pitch": 60, "instrument": 0, "track": 2, "qtime": 12, "isDrum": false}, {"time": 360, "velocity": 0, "pitch": 60, "instrument": 0, "track": 2, "qtime": 24, "isDrum": false}, {"time": 360, "velocity": 108, "pitch": 62, "instrument": 0, "track": 2, "qtime": 24, "isDrum": false}, {"time": 372, "velocity": 0, "pitch": 62, "instrument": 0, "track": 2, "qtime": 36, "isDrum": false}, {"time": 372, "velocity": 108, "pitch": 60, "instrument": 0, "track": 2, "qtime": 36, "isDrum": false}, {"time": 384, "velocity": 0, "pitch": 60, "instrument": 0, "track": 2, "qtime": 48, "isDrum": false}, {"time": 0, "velocity": 108, "pitch": 50, "instrument": 0, "track": 3, "qtime": 0, "isDrum": false}, {"time": 12, "velocity": 0, "pitch": 50, "instrument": 0, "track": 3, "qtime": 12, "isDrum": false}, {"time": 12, "velocity": 108, "pitch": 49, "instrument": 0, "track": 3, "qtime": 12, "isDrum": false}, {"time": 24, "velocity": 0, "pitch": 49, "instrument": 0, "track": 3, "qtime": 24, "isDrum": false}, {"time": 24, "velocity": 108, "pitch": 50, "instrument": 0, "track": 3, "qtime": 24, "isDrum": false}, {"time": 36, "velocity": 0, "pitch": 50, "instrument": 0, "track": 3, "qtime": 36, "isDrum": false}, {"time": 36, "velocity": 108, "pitch": 58, "instrument": 0, "track": 3, "qtime": 36, "isDrum": false}, {"time": 48, "velocity": 0, "pitch": 58, "instrument": 0, "track": 3, "qtime": 48, "isDrum": false}, {"time": 48, "velocity": 108, "pitch": 53, "instrument": 0, "track": 3, "qtime": 0, "isDrum": false}, {"time": 60, "velocity": 0, "pitch": 53, "instrument": 0, "track": 3, "qtime": 12, "isDrum": false}, {"time": 60, "velocity": 108, "pitch": 55, "instrument": 0, "track": 3, "qtime": 12, "isDrum": false}, {"time": 72, "velocity": 0, "pitch": 55, "instrument": 0, "track": 3, "qtime": 24, "isDrum": false}, {"time": 72, "velocity": 108, "pitch": 57, "instrument": 0, "track": 3, "qtime": 24, "isDrum": false}, {"time": 84, "velocity": 0, "pitch": 57, "instrument": 0, "track": 3, "qtime": 36, "isDrum": false}, {"time": 84, "velocity": 108, "pitch": 50, "instrument": 0, "track": 3, "qtime": 36, "isDrum": false}, {"time": 96, "velocity": 0, "pitch": 50, "instrument": 0, "track": 3, "qtime": 48, "isDrum": false}, {"time": 96, "velocity": 108, "pitch": 50, "instrument": 0, "track": 3, "qtime": 0, "isDrum": false}, {"time": 108, "velocity": 0, "pitch": 50, "instrument": 0, "track": 3, "qtime": 12, "isDrum": false}, {"time": 108, "velocity": 108, "pitch": 52, "instrument": 0, "track": 3, "qtime": 12, "isDrum": false}, {"time": 114, "velocity": 0, "pitch": 52, "instrument": 0, "track": 3, "qtime": 18, "isDrum": false}, {"time": 114, "velocity": 108, "pitch": 50, "instrument": 0, "track": 3, "qtime": 18, "isDrum": false}, {"time": 120, "velocity": 0, "pitch": 50, "instrument": 0, "track": 3, "qtime": 24, "isDrum": false}, {"time": 120, "velocity": 108, "pitch": 48, "instrument": 0, "track": 3, "qtime": 24, "isDrum": false}, {"time": 132, "velocity": 0, "pitch": 48, "instrument": 0, "track": 3, "qtime": 36, "isDrum": false}, {"time": 132, "velocity": 108, "pitch": 48, "instrument": 0, "track": 3, "qtime": 36, "isDrum": false}, {"time": 144, "velocity": 0, "pitch": 48, "instrument": 0, "track": 3, "qtime": 48, "isDrum": false}, {"time": 144, "velocity": 108, "pitch": 45, "instrument": 0, "track": 3, "qtime": 0, "isDrum": false}, {"time": 156, "velocity": 0, "pitch": 45, "instrument": 0, "track": 3, "qtime": 12, "isDrum": false}, {"time": 156, "velocity": 108, "pitch": 46, "instrument": 0, "track": 3, "qtime": 12, "isDrum": false}, {"time": 168, "velocity": 0, "pitch": 46, "instrument": 0, "track": 3, "qtime": 24, "isDrum": false}, {"time": 168, "velocity": 108, "pitch": 43, "instrument": 0, "track": 3, "qtime": 24, "isDrum": false}, {"time": 180, "velocity": 0, "pitch": 43, "instrument": 0, "track": 3, "qtime": 36, "isDrum": false}, {"time": 180, "velocity": 108, "pitch": 45, "instrument": 0, "track": 3, "qtime": 36, "isDrum": false}, {"time": 192, "velocity": 0, "pitch": 45, "instrument": 0, "track": 3, "qtime": 48, "isDrum": false}, {"time": 192, "velocity": 108, "pitch": 50, "instrument": 0, "track": 3, "qtime": 0, "isDrum": false}, {"time": 204, "velocity": 0, "pitch": 50, "instrument": 0, "track": 3, "qtime": 12, "isDrum": false}, {"time": 204, "velocity": 108, "pitch": 48, "instrument": 0, "track": 3, "qtime": 12, "isDrum": false}, {"time": 216, "velocity": 0, "pitch": 48, "instrument": 0, "track": 3, "qtime": 24, "isDrum": false}, {"time": 216, "velocity": 108, "pitch": 46, "instrument": 0, "track": 3, "qtime": 24, "isDrum": false}, {"time": 228, "velocity": 0, "pitch": 46, "instrument": 0, "track": 3, "qtime": 36, "isDrum": false}, {"time": 228, "velocity": 108, "pitch": 45, "instrument": 0, "track": 3, "qtime": 36, "isDrum": false}, {"time": 240, "velocity": 0, "pitch": 45, "instrument": 0, "track": 3, "qtime": 48, "isDrum": false}, {"time": 240, "velocity": 108, "pitch": 43, "instrument": 0, "track": 3, "qtime": 0, "isDrum": false}, {"time": 252, "velocity": 0, "pitch": 43, "instrument": 0, "track": 3, "qtime": 12, "isDrum": false}, {"time": 252, "velocity": 108, "pitch": 43, "instrument": 0, "track": 3, "qtime": 12, "isDrum": false}, {"time": 258, "velocity": 0, "pitch": 43, "instrument": 0, "track": 3, "qtime": 18, "isDrum": false}, {"time": 258, "velocity": 108, "pitch": 47, "instrument": 0, "track": 3, "qtime": 18, "isDrum": false}, {"time": 264, "velocity": 0, "pitch": 47, "instrument": 0, "track": 3, "qtime": 24, "isDrum": false}, {"time": 264, "velocity": 108, "pitch": 45, "instrument": 0, "track": 3, "qtime": 24, "isDrum": false}, {"time": 276, "velocity": 0, "pitch": 45, "instrument": 0, "track": 3, "qtime": 36, "isDrum": false}, {"time": 276, "velocity": 108, "pitch": 50, "instrument": 0, "track": 3, "qtime": 36, "isDrum": false}, {"time": 288, "velocity": 0, "pitch": 50, "instrument": 0, "track": 3, "qtime": 48, "isDrum": false}, {"time": 288, "velocity": 108, "pitch": 55, "instrument": 0, "track": 3, "qtime": 0, "isDrum": false}, {"time": 300, "velocity": 0, "pitch": 55, "instrument": 0, "track": 3, "qtime": 12, "isDrum": false}, {"time": 300, "velocity": 108, "pitch": 48, "instrument": 0, "track": 3, "qtime": 12, "isDrum": false}, {"time": 312, "velocity": 0, "pitch": 48, "instrument": 0, "track": 3, "qtime": 24, "isDrum": false}, {"time": 312, "velocity": 108, "pitch": 50, "instrument": 0, "track": 3, "qtime": 24, "isDrum": false}, {"time": 318, "velocity": 0, "pitch": 50, "instrument": 0, "track": 3, "qtime": 30, "isDrum": false}, {"time": 318, "velocity": 108, "pitch": 52, "instrument": 0, "track": 3, "qtime": 30, "isDrum": false}, {"time": 324, "velocity": 0, "pitch": 52, "instrument": 0, "track": 3, "qtime": 36, "isDrum": false}, {"time": 324, "velocity": 108, "pitch": 54, "instrument": 0, "track": 3, "qtime": 36, "isDrum": false}, {"time": 336, "velocity": 0, "pitch": 54, "instrument": 0, "track": 3, "qtime": 48, "isDrum": false}, {"time": 336, "velocity": 108, "pitch": 56, "instrument": 0, "track": 3, "qtime": 0, "isDrum": false}, {"time": 348, "velocity": 0, "pitch": 56, "instrument": 0, "track": 3, "qtime": 12, "isDrum": false}, {"time": 348, "velocity": 108, "pitch": 57, "instrument": 0, "track": 3, "qtime": 12, "isDrum": false}, {"time": 360, "velocity": 0, "pitch": 57, "instrument": 0, "track": 3, "qtime": 24, "isDrum": false}, {"time": 360, "velocity": 108, "pitch": 52, "instrument": 0, "track": 3, "qtime": 24, "isDrum": false}, {"time": 372, "velocity": 0, "pitch": 52, "instrument": 0, "track": 3, "qtime": 36, "isDrum": false}, {"time": 372, "velocity": 108, "pitch": 45, "instrument": 0, "track": 3, "qtime": 36, "isDrum": false}, {"time": 384, "velocity": 0, "pitch": 45, "instrument": 0, "track": 3, "qtime": 48, "isDrum": false}], "resolution": 12, "tempo": 120, "minPitch": 43, "maxPitch": 77, "validSegments": [0], "validTracks": [15]}, "audio": "https://www.sfu.ca/~jeffe/examples/8b_bach_101_7_bass_sub.mp3"}, {"src": "gen/8b_bach_101_7_all_sub.json", "highlights": [[0, 1], [4, 5], [2, 3], [6, 7]], "caption": "Resample a subset of the bars from 23b.", "sample_id": "23c", "mixer": [8, 8, 8, 8], "json": {"tracks": [{"bars": [{"events": [0, 1, 2, 3, 4, 5, 6, 7], "isFourFour": true, "hasNotes": true, "time": 0}, {"events": [8, 9, 10, 11, 12, 13, 14, 15], "isFourFour": true, "hasNotes": true, "time": 48}, {"events": [16, 17, 18, 19, 20, 21, 22, 23], "isFourFour": true, "hasNotes": true, "time": 96}, {"events": [24, 25, 26, 27, 28, 29, 30, 31], "isFourFour": true, "hasNotes": true, "time": 144}, {"events": [32, 33, 34, 35, 36, 37, 38, 39, 40, 41], "isFourFour": true, "hasNotes": true, "time": 192}, {"events": [42, 43, 44, 45, 46, 47, 48, 49], "isFourFour": true, "hasNotes": true, "time": 240}, {"events": [50, 51, 52, 53, 54, 55, 56, 57], "isFourFour": true, "hasNotes": true, "time": 288}, {"events": [58, 59, 60, 61, 62, 63, 64, 65], "isFourFour": true, "hasNotes": true, "time": 336}], "isDrum": false, "minPitch": 65, "maxPitch": 77, "instrument": 0, "avPolyphony": 1, "noteDensity": 9, "noteDensityV2": 2}, {"bars": [{"events": [66, 67, 68, 69, 70, 71, 72, 73], "isFourFour": true, "hasNotes": true, "time": 0}, {"events": [74, 75, 76, 77, 78, 79, 80, 81], "isFourFour": true, "hasNotes": true, "time": 48}, {"events": [82, 83, 84, 85, 86, 87, 88, 89, 90, 91], "isFourFour": true, "hasNotes": true, "time": 96}, {"events": [92, 93, 94, 95, 96, 97, 98, 99], "isFourFour": true, "hasNotes": true, "time": 144}, {"events": [100, 101, 102, 103, 104, 105, 106, 107, 108, 109, 110, 111], "isFourFour": true, "hasNotes": true, "time": 192}, {"events": [112, 113, 114, 115, 116, 117, 118, 119, 120, 121], "isFourFour": true, "hasNotes": true, "time": 240}, {"events": [122, 123, 124, 125, 126, 127, 128, 129, 130, 131], "isFourFour": true, "hasNotes": true, "time": 288}, {"events": [132, 133, 134, 135, 136, 137, 138, 139, 140, 141, 142, 143], "isFourFour": true, "hasNotes": true, "time": 336}], "isDrum": false, "minPitch": 57, "maxPitch": 69, "instrument": 0, "avPolyphony": 1, "noteDensity": 9, "noteDensityV2": 3}, {"bars": [{"events": [144, 145, 146, 147, 148, 149, 150, 151], "isFourFour": true, "hasNotes": true, "time": 0}, {"events": [152, 153, 154, 155, 156, 157, 158, 159], "isFourFour": true, "hasNotes": true, "time": 48}, {"events": [160, 161, 162, 163, 164, 165, 166, 167], "isFourFour": true, "hasNotes": true, "time": 96}, {"events": [168, 169, 170, 171, 172, 173, 174, 175, 176, 177], "isFourFour": true, "hasNotes": true, "time": 144}, {"events": [178, 179, 180, 181, 182, 183, 184, 185], "isFourFour": true, "hasNotes": true, "time": 192}, {"events": [186, 187, 188, 189, 190, 191, 192, 193, 194, 195], "isFourFour": true, "hasNotes": true, "time": 240}, {"events": [196, 197, 198, 199, 200, 201, 202, 203, 204, 205], "isFourFour": true, "hasNotes": true, "time": 288}, {"events": [206, 207, 208, 209, 210, 211, 212, 213], "isFourFour": true, "hasNotes": true, "time": 336}], "isDrum": false, "minPitch": 52, "maxPitch": 65, "instrument": 0, "avPolyphony": 1, "noteDensity": 9, "noteDensityV2": 2}, {"bars": [{"events": [214, 215, 216, 217, 218, 219, 220, 221], "isFourFour": true, "hasNotes": true, "time": 0}, {"events": [222, 223, 224, 225, 226, 227, 228, 229], "isFourFour": true, "hasNotes": true, "time": 48}, {"events": [230, 231, 232, 233, 234, 235, 236, 237, 238, 239], "isFourFour": true, "hasNotes": true, "time": 96}, {"events": [240, 241, 242, 243, 244, 245, 246, 247], "isFourFour": true, "hasNotes": true, "time": 144}, {"events": [248, 249, 250, 251, 252, 253, 254, 255], "isFourFour": true, "hasNotes": true, "time": 192}, {"events": [256, 257, 258, 259, 260, 261, 262, 263, 264, 265], "isFourFour": true, "hasNotes": true, "time": 240}, {"events": [266, 267, 268, 269, 270, 271, 272, 273, 274, 275], "isFourFour": true, "hasNotes": true, "time": 288}, {"events": [276, 277, 278, 279, 280, 281, 282, 283], "isFourFour": true, "hasNotes": true, "time": 336}], "isDrum": false, "minPitch": 43, "maxPitch": 60, "instrument": 0, "avPolyphony": 1, "noteDensity": 9, "noteDensityV2": 2}], "events": [{"time": 0, "velocity": 108, "pitch": 69, "instrument": 0, "track": 0, "qtime": 0, "isDrum": false}, {"time": 12, "velocity": 0, "pitch": 69, "instrument": 0, "track": 0, "qtime": 12, "isDrum": false}, {"time": 12, "velocity": 108, "pitch": 69, "instrument": 0, "track": 0, "qtime": 12, "isDrum": false}, {"time": 24, "velocity": 0, "pitch": 69, "instrument": 0, "track": 0, "qtime": 24, "isDrum": false}, {"time": 24, "velocity": 108, "pitch": 67, "instrument": 0, "track": 0, "qtime": 24, "isDrum": false}, {"time": 36, "velocity": 0, "pitch": 67, "instrument": 0, "track": 0, "qtime": 36, "isDrum": false}, {"time": 36, "velocity": 108, "pitch": 65, "instrument": 0, "track": 0, "qtime": 36, "isDrum": false}, {"time": 48, "velocity": 0, "pitch": 65, "instrument": 0, "track": 0, "qtime": 48, "isDrum": false}, {"time": 48, "velocity": 108, "pitch": 69, "instrument": 0, "track": 0, "qtime": 0, "isDrum": false}, {"time": 60, "velocity": 0, "pitch": 69, "instrument": 0, "track": 0, "qtime": 12, "isDrum": false}, {"time": 60, "velocity": 108, "pitch": 67, "instrument": 0, "track": 0, "qtime": 12, "isDrum": false}, {"time": 72, "velocity": 0, "pitch": 67, "instrument": 0, "track": 0, "qtime": 24, "isDrum": false}, {"time": 72, "velocity": 108, "pitch": 69, "instrument": 0, "track": 0, "qtime": 24, "isDrum": false}, {"time": 84, "velocity": 0, "pitch": 69, "instrument": 0, "track": 0, "qtime": 36, "isDrum": false}, {"time": 84, "velocity": 108, "pitch": 65, "instrument": 0, "track": 0, "qtime": 36, "isDrum": false}, {"time": 96, "velocity": 0, "pitch": 65, "instrument": 0, "track": 0, "qtime": 48, "isDrum": false}, {"time": 96, "velocity": 108, "pitch": 69, "instrument": 0, "track": 0, "qtime": 0, "isDrum": false}, {"time": 108, "velocity": 0, "pitch": 69, "instrument": 0, "track": 0, "qtime": 12, "isDrum": false}, {"time": 108, "velocity": 108, "pitch": 69, "instrument": 0, "track": 0, "qtime": 12, "isDrum": false}, {"time": 120, "velocity": 0, "pitch": 69, "instrument": 0, "track": 0, "qtime": 24, "isDrum": false}, {"time": 120, "velocity": 108, "pitch": 67, "instrument": 0, "track": 0, "qtime": 24, "isDrum": false}, {"time": 132, "velocity": 0, "pitch": 67, "instrument": 0, "track": 0, "qtime": 36, "isDrum": false}, {"time": 132, "velocity": 108, "pitch": 72, "instrument": 0, "track": 0, "qtime": 36, "isDrum": false}, {"time": 144, "velocity": 0, "pitch": 72, "instrument": 0, "track": 0, "qtime": 48, "isDrum": false}, {"time": 144, "velocity": 108, "pitch": 69, "instrument": 0, "track": 0, "qtime": 0, "isDrum": false}, {"time": 156, "velocity": 0, "pitch": 69, "instrument": 0, "track": 0, "qtime": 12, "isDrum": false}, {"time": 156, "velocity": 108, "pitch": 65, "instrument": 0, "track": 0, "qtime": 12, "isDrum": false}, {"time": 168, "velocity": 0, "pitch": 65, "instrument": 0, "track": 0, "qtime": 24, "isDrum": false}, {"time": 168, "velocity": 108, "pitch": 67, "instrument": 0, "track": 0, "qtime": 24, "isDrum": false}, {"time": 180, "velocity": 0, "pitch": 67, "instrument": 0, "track": 0, "qtime": 36, "isDrum": false}, {"time": 180, "velocity": 108, "pitch": 69, "instrument": 0, "track": 0, "qtime": 36, "isDrum": false}, {"time": 192, "velocity": 0, "pitch": 69, "instrument": 0, "track": 0, "qtime": 48, "isDrum": false}, {"time": 192, "velocity": 108, "pitch": 69, "instrument": 0, "track": 0, "qtime": 0, "isDrum": false}, {"time": 204, "velocity": 0, "pitch": 69, "instrument": 0, "track": 0, "qtime": 12, "isDrum": false}, {"time": 204, "velocity": 108, "pitch": 72, "instrument": 0, "track": 0, "qtime": 12, "isDrum": false}, {"time": 216, "velocity": 0, "pitch": 72, "instrument": 0, "track": 0, "qtime": 24, "isDrum": false}, {"time": 216, "velocity": 108, "pitch": 74, "instrument": 0, "track": 0, "qtime": 24, "isDrum": false}, {"time": 222, "velocity": 0, "pitch": 74, "instrument": 0, "track": 0, "qtime": 30, "isDrum": false}, {"time": 222, "velocity": 108, "pitch": 76, "instrument": 0, "track": 0, "qtime": 30, "isDrum": false}, {"time": 228, "velocity": 0, "pitch": 76, "instrument": 0, "track": 0, "qtime": 36, "isDrum": false}, {"time": 228, "velocity": 108, "pitch": 77, "instrument": 0, "track": 0, "qtime": 36, "isDrum": false}, {"time": 240, "velocity": 0, "pitch": 77, "instrument": 0, "track": 0, "qtime": 48, "isDrum": false}, {"time": 240, "velocity": 108, "pitch": 76, "instrument": 0, "track": 0, "qtime": 0, "isDrum": false}, {"time": 252, "velocity": 0, "pitch": 76, "instrument": 0, "track": 0, "qtime": 12, "isDrum": false}, {"time": 252, "velocity": 108, "pitch": 74, "instrument": 0, "track": 0, "qtime": 12, "isDrum": false}, {"time": 264, "velocity": 0, "pitch": 74, "instrument": 0, "track": 0, "qtime": 24, "isDrum": false}, {"time": 264, "velocity": 108, "pitch": 73, "instrument": 0, "track": 0, "qtime": 24, "isDrum": false}, {"time": 276, "velocity": 0, "pitch": 73, "instrument": 0, "track": 0, "qtime": 36, "isDrum": false}, {"time": 276, "velocity": 108, "pitch": 74, "instrument": 0, "track": 0, "qtime": 36, "isDrum": false}, {"time": 288, "velocity": 0, "pitch": 74, "instrument": 0, "track": 0, "qtime": 48, "isDrum": false}, {"time": 288, "velocity": 108, "pitch": 74, "instrument": 0, "track": 0, "qtime": 0, "isDrum": false}, {"time": 300, "velocity": 0, "pitch": 74, "instrument": 0, "track": 0, "qtime": 12, "isDrum": false}, {"time": 300, "velocity": 108, "pitch": 76, "instrument": 0, "track": 0, "qtime": 12, "isDrum": false}, {"time": 312, "velocity": 0, "pitch": 76, "instrument": 0, "track": 0, "qtime": 24, "isDrum": false}, {"time": 312, "velocity": 108, "pitch": 74, "instrument": 0, "track": 0, "qtime": 24, "isDrum": false}, {"time": 324, "velocity": 0, "pitch": 74, "instrument": 0, "track": 0, "qtime": 36, "isDrum": false}, {"time": 324, "velocity": 108, "pitch": 72, "instrument": 0, "track": 0, "qtime": 36, "isDrum": false}, {"time": 336, "velocity": 0, "pitch": 72, "instrument": 0, "track": 0, "qtime": 48, "isDrum": false}, {"time": 336, "velocity": 108, "pitch": 71, "instrument": 0, "track": 0, "qtime": 0, "isDrum": false}, {"time": 348, "velocity": 0, "pitch": 71, "instrument": 0, "track": 0, "qtime": 12, "isDrum": false}, {"time": 348, "velocity": 108, "pitch": 69, "instrument": 0, "track": 0, "qtime": 12, "isDrum": false}, {"time": 360, "velocity": 0, "pitch": 69, "instrument": 0, "track": 0, "qtime": 24, "isDrum": false}, {"time": 360, "velocity": 108, "pitch": 71, "instrument": 0, "track": 0, "qtime": 24, "isDrum": false}, {"time": 372, "velocity": 0, "pitch": 71, "instrument": 0, "track": 0, "qtime": 36, "isDrum": false}, {"time": 372, "velocity": 108, "pitch": 69, "instrument": 0, "track": 0, "qtime": 36, "isDrum": false}, {"time": 384, "velocity": 0, "pitch": 69, "instrument": 0, "track": 0, "qtime": 48, "isDrum": false}, {"time": 0, "velocity": 108, "pitch": 65, "instrument": 0, "track": 1, "qtime": 0, "isDrum": false}, {"time": 12, "velocity": 0, "pitch": 65, "instrument": 0, "track": 1, "qtime": 12, "isDrum": false}, {"time": 12, "velocity": 108, "pitch": 64, "instrument": 0, "track": 1, "qtime": 12, "isDrum": false}, {"time": 24, "velocity": 0, "pitch": 64, "instrument": 0, "track": 1, "qtime": 24, "isDrum": false}, {"time": 24, "velocity": 108, "pitch": 62, "instrument": 0, "track": 1, "qtime": 24, "isDrum": false}, {"time": 36, "velocity": 0, "pitch": 62, "instrument": 0, "track": 1, "qtime": 36, "isDrum": false}, {"time": 36, "velocity": 108, "pitch": 62, "instrument": 0, "track": 1, "qtime": 36, "isDrum": false}, {"time": 48, "velocity": 0, "pitch": 62, "instrument": 0, "track": 1, "qtime": 48, "isDrum": false}, {"time": 48, "velocity": 108, "pitch": 62, "instrument": 0, "track": 1, "qtime": 0, "isDrum": false}, {"time": 60, "velocity": 0, "pitch": 62, "instrument": 0, "track": 1, "qtime": 12, "isDrum": false}, {"time": 60, "velocity": 108, "pitch": 62, "instrument": 0, "track": 1, "qtime": 12, "isDrum": false}, {"time": 72, "velocity": 0, "pitch": 62, "instrument": 0, "track": 1, "qtime": 24, "isDrum": false}, {"time": 72, "velocity": 108, "pitch": 61, "instrument": 0, "track": 1, "qtime": 24, "isDrum": false}, {"time": 84, "velocity": 0, "pitch": 61, "instrument": 0, "track": 1, "qtime": 36, "isDrum": false}, {"time": 84, "velocity": 108, "pitch": 57, "instrument": 0, "track": 1, "qtime": 36, "isDrum": false}, {"time": 96, "velocity": 0, "pitch": 57, "instrument": 0, "track": 1, "qtime": 48, "isDrum": false}, {"time": 96, "velocity": 108, "pitch": 65, "instrument": 0, "track": 1, "qtime": 0, "isDrum": false}, {"time": 108, "velocity": 0, "pitch": 65, "instrument": 0, "track": 1, "qtime": 12, "isDrum": false}, {"time": 108, "velocity": 108, "pitch": 65, "instrument": 0, "track": 1, "qtime": 12, "isDrum": false}, {"time": 120, "velocity": 0, "pitch": 65, "instrument": 0, "track": 1, "qtime": 24, "isDrum": false}, {"time": 120, "velocity": 108, "pitch": 67, "instrument": 0, "track": 1, "qtime": 24, "isDrum": false}, {"time": 126, "velocity": 0, "pitch": 67, "instrument": 0, "track": 1, "qtime": 30, "isDrum": false}, {"time": 126, "velocity": 108, "pitch": 65, "instrument": 0, "track": 1, "qtime": 30, "isDrum": false}, {"time": 132, "velocity": 0, "pitch": 65, "instrument": 0, "track": 1, "qtime": 36, "isDrum": false}, {"time": 132, "velocity": 108, "pitch": 64, "instrument": 0, "track": 1, "qtime": 36, "isDrum": false}, {"time": 144, "velocity": 0, "pitch": 64, "instrument": 0, "track": 1, "qtime": 48, "isDrum": false}, {"time": 144, "velocity": 108, "pitch": 65, "instrument": 0, "track": 1, "qtime": 0, "isDrum": false}, {"time": 156, "velocity": 0, "pitch": 65, "instrument": 0, "track": 1, "qtime": 12, "isDrum": false}, {"time": 156, "velocity": 108, "pitch": 62, "instrument": 0, "track": 1, "qtime": 12, "isDrum": false}, {"time": 168, "velocity": 0, "pitch": 62, "instrument": 0, "track": 1, "qtime": 24, "isDrum": false}, {"time": 168, "velocity": 108, "pitch": 62, "instrument": 0, "track": 1, "qtime": 24, "isDrum": false}, {"time": 180, "velocity": 0, "pitch": 62, "instrument": 0, "track": 1, "qtime": 36, "isDrum": false}, {"time": 180, "velocity": 108, "pitch": 61, "instrument": 0, "track": 1, "qtime": 36, "isDrum": false}, {"time": 192, "velocity": 0, "pitch": 61, "instrument": 0, "track": 1, "qtime": 48, "isDrum": false}, {"time": 192, "velocity": 108, "pitch": 62, "instrument": 0, "track": 1, "qtime": 0, "isDrum": false}, {"time": 204, "velocity": 0, "pitch": 62, "instrument": 0, "track": 1, "qtime": 12, "isDrum": false}, {"time": 204, "velocity": 108, "pitch": 64, "instrument": 0, "track": 1, "qtime": 12, "isDrum": false}, {"time": 210, "velocity": 0, "pitch": 64, "instrument": 0, "track": 1, "qtime": 18, "isDrum": false}, {"time": 210, "velocity": 108, "pitch": 65, "instrument": 0, "track": 1, "qtime": 18, "isDrum": false}, {"time": 216, "velocity": 0, "pitch": 65, "instrument": 0, "track": 1, "qtime": 24, "isDrum": false}, {"time": 216, "velocity": 108, "pitch": 65, "instrument": 0, "track": 1, "qtime": 24, "isDrum": false}, {"time": 228, "velocity": 0, "pitch": 65, "instrument": 0, "track": 1, "qtime": 36, "isDrum": false}, {"time": 228, "velocity": 108, "pitch": 64, "instrument": 0, "track": 1, "qtime": 36, "isDrum": false}, {"time": 234, "velocity": 0, "pitch": 64, "instrument": 0, "track": 1, "qtime": 42, "isDrum": false}, {"time": 234, "velocity": 108, "pitch": 65, "instrument": 0, "track": 1, "qtime": 42, "isDrum": false}, {"time": 240, "velocity": 0, "pitch": 65, "instrument": 0, "track": 1, "qtime": 48, "isDrum": false}, {"time": 240, "velocity": 108, "pitch": 67, "instrument": 0, "track": 1, "qtime": 0, "isDrum": false}, {"time": 252, "velocity": 0, "pitch": 67, "instrument": 0, "track": 1, "qtime": 12, "isDrum": false}, {"time": 252, "velocity": 108, "pitch": 67, "instrument": 0, "track": 1, "qtime": 12, "isDrum": false}, {"time": 258, "velocity": 0, "pitch": 67, "instrument": 0, "track": 1, "qtime": 18, "isDrum": false}, {"time": 258, "velocity": 108, "pitch": 66, "instrument": 0, "track": 1, "qtime": 18, "isDrum": false}, {"time": 264, "velocity": 0, "pitch": 66, "instrument": 0, "track": 1, "qtime": 24, "isDrum": false}, {"time": 264, "velocity": 108, "pitch": 64, "instrument": 0, "track": 1, "qtime": 24, "isDrum": false}, {"time": 276, "velocity": 0, "pitch": 64, "instrument": 0, "track": 1, "qtime": 36, "isDrum": false}, {"time": 276, "velocity": 108, "pitch": 65, "instrument": 0, "track": 1, "qtime": 36, "isDrum": false}, {"time": 288, "velocity": 0, "pitch": 65, "instrument": 0, "track": 1, "qtime": 48, "isDrum": false}, {"time": 288, "velocity": 108, "pitch": 67, "instrument": 0, "track": 1, "qtime": 0, "isDrum": false}, {"time": 300, "velocity": 0, "pitch": 67, "instrument": 0, "track": 1, "qtime": 12, "isDrum": false}, {"time": 300, "velocity": 108, "pitch": 67, "instrument": 0, "track": 1, "qtime": 12, "isDrum": false}, {"time": 312, "velocity": 0, "pitch": 67, "instrument": 0, "track": 1, "qtime": 24, "isDrum": false}, {"time": 312, "velocity": 108, "pitch": 66, "instrument": 0, "track": 1, "qtime": 24, "isDrum": false}, {"time": 318, "velocity": 0, "pitch": 66, "instrument": 0, "track": 1, "qtime": 30, "isDrum": false}, {"time": 318, "velocity": 108, "pitch": 68, "instrument": 0, "track": 1, "qtime": 30, "isDrum": false}, {"time": 324, "velocity": 0, "pitch": 68, "instrument": 0, "track": 1, "qtime": 36, "isDrum": false}, {"time": 324, "velocity": 108, "pitch": 69, "instrument": 0, "track": 1, "qtime": 36, "isDrum": false}, {"time": 336, "velocity": 0, "pitch": 69, "instrument": 0, "track": 1, "qtime": 48, "isDrum": false}, {"time": 336, "velocity": 108, "pitch": 64, "instrument": 0, "track": 1, "qtime": 0, "isDrum": false}, {"time": 348, "velocity": 0, "pitch": 64, "instrument": 0, "track": 1, "qtime": 12, "isDrum": false}, {"time": 348, "velocity": 108, "pitch": 64, "instrument": 0, "track": 1, "qtime": 12, "isDrum": false}, {"time": 354, "velocity": 0, "pitch": 64, "instrument": 0, "track": 1, "qtime": 18, "isDrum": false}, {"time": 354, "velocity": 108, "pitch": 69, "instrument": 0, "track": 1, "qtime": 18, "isDrum": false}, {"time": 360, "velocity": 0, "pitch": 69, "instrument": 0, "track": 1, "qtime": 24, "isDrum": false}, {"time": 360, "velocity": 108, "pitch": 69, "instrument": 0, "track": 1, "qtime": 24, "isDrum": false}, {"time": 366, "velocity": 0, "pitch": 69, "instrument": 0, "track": 1, "qtime": 30, "isDrum": false}, {"time": 366, "velocity": 108, "pitch": 68, "instrument": 0, "track": 1, "qtime": 30, "isDrum": false}, {"time": 372, "velocity": 0, "pitch": 68, "instrument": 0, "track": 1, "qtime": 36, "isDrum": false}, {"time": 372, "velocity": 108, "pitch": 64, "instrument": 0, "track": 1, "qtime": 36, "isDrum": false}, {"time": 384, "velocity": 0, "pitch": 64, "instrument": 0, "track": 1, "qtime": 48, "isDrum": false}, {"time": 0, "velocity": 108, "pitch": 62, "instrument": 0, "track": 2, "qtime": 0, "isDrum": false}, {"time": 12, "velocity": 0, "pitch": 62, "instrument": 0, "track": 2, "qtime": 12, "isDrum": false}, {"time": 12, "velocity": 108, "pitch": 57, "instrument": 0, "track": 2, "qtime": 12, "isDrum": false}, {"time": 24, "velocity": 0, "pitch": 57, "instrument": 0, "track": 2, "qtime": 24, "isDrum": false}, {"time": 24, "velocity": 108, "pitch": 57, "instrument": 0, "track": 2, "qtime": 24, "isDrum": false}, {"time": 36, "velocity": 0, "pitch": 57, "instrument": 0, "track": 2, "qtime": 36, "isDrum": false}, {"time": 36, "velocity": 108, "pitch": 58, "instrument": 0, "track": 2, "qtime": 36, "isDrum": false}, {"time": 48, "velocity": 0, "pitch": 58, "instrument": 0, "track": 2, "qtime": 48, "isDrum": false}, {"time": 48, "velocity": 108, "pitch": 57, "instrument": 0, "track": 2, "qtime": 0, "isDrum": false}, {"time": 60, "velocity": 0, "pitch": 57, "instrument": 0, "track": 2, "qtime": 12, "isDrum": false}, {"time": 60, "velocity": 108, "pitch": 58, "instrument": 0, "track": 2, "qtime": 12, "isDrum": false}, {"time": 72, "velocity": 0, "pitch": 58, "instrument": 0, "track": 2, "qtime": 24, "isDrum": false}, {"time": 72, "velocity": 108, "pitch": 52, "instrument": 0, "track": 2, "qtime": 24, "isDrum": false}, {"time": 84, "velocity": 0, "pitch": 52, "instrument": 0, "track": 2, "qtime": 36, "isDrum": false}, {"time": 84, "velocity": 108, "pitch": 53, "instrument": 0, "track": 2, "qtime": 36, "isDrum": false}, {"time": 96, "velocity": 0, "pitch": 53, "instrument": 0, "track": 2, "qtime": 48, "isDrum": false}, {"time": 96, "velocity": 108, "pitch": 57, "instrument": 0, "track": 2, "qtime": 0, "isDrum": false}, {"time": 108, "velocity": 0, "pitch": 57, "instrument": 0, "track": 2, "qtime": 12, "isDrum": false}, {"time": 108, "velocity": 108, "pitch": 60, "instrument": 0, "track": 2, "qtime": 12, "isDrum": false}, {"time": 120, "velocity": 0, "pitch": 60, "instrument": 0, "track": 2, "qtime": 24, "isDrum": false}, {"time": 120, "velocity": 108, "pitch": 60, "instrument": 0, "track": 2, "qtime": 24, "isDrum": false}, {"time": 132, "velocity": 0, "pitch": 60, "instrument": 0, "track": 2, "qtime": 36, "isDrum": false}, {"time": 132, "velocity": 108, "pitch": 60, "instrument": 0, "track": 2, "qtime": 36, "isDrum": false}, {"time": 144, "velocity": 0, "pitch": 60, "instrument": 0, "track": 2, "qtime": 48, "isDrum": false}, {"time": 144, "velocity": 108, "pitch": 60, "instrument": 0, "track": 2, "qtime": 0, "isDrum": false}, {"time": 156, "velocity": 0, "pitch": 60, "instrument": 0, "track": 2, "qtime": 12, "isDrum": false}, {"time": 156, "velocity": 108, "pitch": 62, "instrument": 0, "track": 2, "qtime": 12, "isDrum": false}, {"time": 168, "velocity": 0, "pitch": 62, "instrument": 0, "track": 2, "qtime": 24, "isDrum": false}, {"time": 168, "velocity": 108, "pitch": 62, "instrument": 0, "track": 2, "qtime": 24, "isDrum": false}, {"time": 180, "velocity": 0, "pitch": 62, "instrument": 0, "track": 2, "qtime": 36, "isDrum": false}, {"time": 180, "velocity": 108, "pitch": 57, "instrument": 0, "track": 2, "qtime": 36, "isDrum": false}, {"time": 186, "velocity": 0, "pitch": 57, "instrument": 0, "track": 2, "qtime": 42, "isDrum": false}, {"time": 186, "velocity": 108, "pitch": 55, "instrument": 0, "track": 2, "qtime": 42, "isDrum": false}, {"time": 192, "velocity": 0, "pitch": 55, "instrument": 0, "track": 2, "qtime": 48, "isDrum": false}, {"time": 192, "velocity": 108, "pitch": 53, "instrument": 0, "track": 2, "qtime": 0, "isDrum": false}, {"time": 204, "velocity": 0, "pitch": 53, "instrument": 0, "track": 2, "qtime": 12, "isDrum": false}, {"time": 204, "velocity": 108, "pitch": 57, "instrument": 0, "track": 2, "qtime": 12, "isDrum": false}, {"time": 216, "velocity": 0, "pitch": 57, "instrument": 0, "track": 2, "qtime": 24, "isDrum": false}, {"time": 216, "velocity": 108, "pitch": 58, "instrument": 0, "track": 2, "qtime": 24, "isDrum": false}, {"time": 228, "velocity": 0, "pitch": 58, "instrument": 0, "track": 2, "qtime": 36, "isDrum": false}, {"time": 228, "velocity": 108, "pitch": 60, "instrument": 0, "track": 2, "qtime": 36, "isDrum": false}, {"time": 240, "velocity": 0, "pitch": 60, "instrument": 0, "track": 2, "qtime": 48, "isDrum": false}, {"time": 240, "velocity": 108, "pitch": 58, "instrument": 0, "track": 2, "qtime": 0, "isDrum": false}, {"time": 246, "velocity": 0, "pitch": 58, "instrument": 0, "track": 2, "qtime": 6, "isDrum": false}, {"time": 246, "velocity": 108, "pitch": 60, "instrument": 0, "track": 2, "qtime": 6, "isDrum": false}, {"time": 252, "velocity": 0, "pitch": 60, "instrument": 0, "track": 2, "qtime": 12, "isDrum": false}, {"time": 252, "velocity": 108, "pitch": 62, "instrument": 0, "track": 2, "qtime": 12, "isDrum": false}, {"time": 264, "velocity": 0, "pitch": 62, "instrument": 0, "track": 2, "qtime": 24, "isDrum": false}, {"time": 264, "velocity": 108, "pitch": 64, "instrument": 0, "track": 2, "qtime": 24, "isDrum": false}, {"time": 276, "velocity": 0, "pitch": 64, "instrument": 0, "track": 2, "qtime": 36, "isDrum": false}, {"time": 276, "velocity": 108, "pitch": 65, "instrument": 0, "track": 2, "qtime": 36, "isDrum": false}, {"time": 288, "velocity": 0, "pitch": 65, "instrument": 0, "track": 2, "qtime": 48, "isDrum": false}, {"time": 288, "velocity": 108, "pitch": 59, "instrument": 0, "track": 2, "qtime": 0, "isDrum": false}, {"time": 300, "velocity": 0, "pitch": 59, "instrument": 0, "track": 2, "qtime": 12, "isDrum": false}, {"time": 300, "velocity": 108, "pitch": 60, "instrument": 0, "track": 2, "qtime": 12, "isDrum": false}, {"time": 306, "velocity": 0, "pitch": 60, "instrument": 0, "track": 2, "qtime": 18, "isDrum": false}, {"time": 306, "velocity": 108, "pitch": 59, "instrument": 0, "track": 2, "qtime": 18, "isDrum": false}, {"time": 312, "velocity": 0, "pitch": 59, "instrument": 0, "track": 2, "qtime": 24, "isDrum": false}, {"time": 312, "velocity": 108, "pitch": 57, "instrument": 0, "track": 2, "qtime": 24, "isDrum": false}, {"time": 324, "velocity": 0, "pitch": 57, "instrument": 0, "track": 2, "qtime": 36, "isDrum": false}, {"time": 324, "velocity": 108, "pitch": 62, "instrument": 0, "track": 2, "qtime": 36, "isDrum": false}, {"time": 336, "velocity": 0, "pitch": 62, "instrument": 0, "track": 2, "qtime": 48, "isDrum": false}, {"time": 336, "velocity": 108, "pitch": 62, "instrument": 0, "track": 2, "qtime": 0, "isDrum": false}, {"time": 348, "velocity": 0, "pitch": 62, "instrument": 0, "track": 2, "qtime": 12, "isDrum": false}, {"time": 348, "velocity": 108, "pitch": 60, "instrument": 0, "track": 2, "qtime": 12, "isDrum": false}, {"time": 360, "velocity": 0, "pitch": 60, "instrument": 0, "track": 2, "qtime": 24, "isDrum": false}, {"time": 360, "velocity": 108, "pitch": 62, "instrument": 0, "track": 2, "qtime": 24, "isDrum": false}, {"time": 372, "velocity": 0, "pitch": 62, "instrument": 0, "track": 2, "qtime": 36, "isDrum": false}, {"time": 372, "velocity": 108, "pitch": 60, "instrument": 0, "track": 2, "qtime": 36, "isDrum": false}, {"time": 384, "velocity": 0, "pitch": 60, "instrument": 0, "track": 2, "qtime": 48, "isDrum": false}, {"time": 0, "velocity": 108, "pitch": 50, "instrument": 0, "track": 3, "qtime": 0, "isDrum": false}, {"time": 12, "velocity": 0, "pitch": 50, "instrument": 0, "track": 3, "qtime": 12, "isDrum": false}, {"time": 12, "velocity": 108, "pitch": 49, "instrument": 0, "track": 3, "qtime": 12, "isDrum": false}, {"time": 24, "velocity": 0, "pitch": 49, "instrument": 0, "track": 3, "qtime": 24, "isDrum": false}, {"time": 24, "velocity": 108, "pitch": 50, "instrument": 0, "track": 3, "qtime": 24, "isDrum": false}, {"time": 36, "velocity": 0, "pitch": 50, "instrument": 0, "track": 3, "qtime": 36, "isDrum": false}, {"time": 36, "velocity": 108, "pitch": 58, "instrument": 0, "track": 3, "qtime": 36, "isDrum": false}, {"time": 48, "velocity": 0, "pitch": 58, "instrument": 0, "track": 3, "qtime": 48, "isDrum": false}, {"time": 48, "velocity": 108, "pitch": 53, "instrument": 0, "track": 3, "qtime": 0, "isDrum": false}, {"time": 60, "velocity": 0, "pitch": 53, "instrument": 0, "track": 3, "qtime": 12, "isDrum": false}, {"time": 60, "velocity": 108, "pitch": 55, "instrument": 0, "track": 3, "qtime": 12, "isDrum": false}, {"time": 72, "velocity": 0, "pitch": 55, "instrument": 0, "track": 3, "qtime": 24, "isDrum": false}, {"time": 72, "velocity": 108, "pitch": 57, "instrument": 0, "track": 3, "qtime": 24, "isDrum": false}, {"time": 84, "velocity": 0, "pitch": 57, "instrument": 0, "track": 3, "qtime": 36, "isDrum": false}, {"time": 84, "velocity": 108, "pitch": 50, "instrument": 0, "track": 3, "qtime": 36, "isDrum": false}, {"time": 96, "velocity": 0, "pitch": 50, "instrument": 0, "track": 3, "qtime": 48, "isDrum": false}, {"time": 96, "velocity": 108, "pitch": 50, "instrument": 0, "track": 3, "qtime": 0, "isDrum": false}, {"time": 108, "velocity": 0, "pitch": 50, "instrument": 0, "track": 3, "qtime": 12, "isDrum": false}, {"time": 108, "velocity": 108, "pitch": 52, "instrument": 0, "track": 3, "qtime": 12, "isDrum": false}, {"time": 114, "velocity": 0, "pitch": 52, "instrument": 0, "track": 3, "qtime": 18, "isDrum": false}, {"time": 114, "velocity": 108, "pitch": 50, "instrument": 0, "track": 3, "qtime": 18, "isDrum": false}, {"time": 120, "velocity": 0, "pitch": 50, "instrument": 0, "track": 3, "qtime": 24, "isDrum": false}, {"time": 120, "velocity": 108, "pitch": 48, "instrument": 0, "track": 3, "qtime": 24, "isDrum": false}, {"time": 132, "velocity": 0, "pitch": 48, "instrument": 0, "track": 3, "qtime": 36, "isDrum": false}, {"time": 132, "velocity": 108, "pitch": 48, "instrument": 0, "track": 3, "qtime": 36, "isDrum": false}, {"time": 144, "velocity": 0, "pitch": 48, "instrument": 0, "track": 3, "qtime": 48, "isDrum": false}, {"time": 144, "velocity": 108, "pitch": 45, "instrument": 0, "track": 3, "qtime": 0, "isDrum": false}, {"time": 156, "velocity": 0, "pitch": 45, "instrument": 0, "track": 3, "qtime": 12, "isDrum": false}, {"time": 156, "velocity": 108, "pitch": 46, "instrument": 0, "track": 3, "qtime": 12, "isDrum": false}, {"time": 168, "velocity": 0, "pitch": 46, "instrument": 0, "track": 3, "qtime": 24, "isDrum": false}, {"time": 168, "velocity": 108, "pitch": 43, "instrument": 0, "track": 3, "qtime": 24, "isDrum": false}, {"time": 180, "velocity": 0, "pitch": 43, "instrument": 0, "track": 3, "qtime": 36, "isDrum": false}, {"time": 180, "velocity": 108, "pitch": 45, "instrument": 0, "track": 3, "qtime": 36, "isDrum": false}, {"time": 192, "velocity": 0, "pitch": 45, "instrument": 0, "track": 3, "qtime": 48, "isDrum": false}, {"time": 192, "velocity": 108, "pitch": 50, "instrument": 0, "track": 3, "qtime": 0, "isDrum": false}, {"time": 204, "velocity": 0, "pitch": 50, "instrument": 0, "track": 3, "qtime": 12, "isDrum": false}, {"time": 204, "velocity": 108, "pitch": 48, "instrument": 0, "track": 3, "qtime": 12, "isDrum": false}, {"time": 216, "velocity": 0, "pitch": 48, "instrument": 0, "track": 3, "qtime": 24, "isDrum": false}, {"time": 216, "velocity": 108, "pitch": 46, "instrument": 0, "track": 3, "qtime": 24, "isDrum": false}, {"time": 228, "velocity": 0, "pitch": 46, "instrument": 0, "track": 3, "qtime": 36, "isDrum": false}, {"time": 228, "velocity": 108, "pitch": 45, "instrument": 0, "track": 3, "qtime": 36, "isDrum": false}, {"time": 240, "velocity": 0, "pitch": 45, "instrument": 0, "track": 3, "qtime": 48, "isDrum": false}, {"time": 240, "velocity": 108, "pitch": 43, "instrument": 0, "track": 3, "qtime": 0, "isDrum": false}, {"time": 252, "velocity": 0, "pitch": 43, "instrument": 0, "track": 3, "qtime": 12, "isDrum": false}, {"time": 252, "velocity": 108, "pitch": 43, "instrument": 0, "track": 3, "qtime": 12, "isDrum": false}, {"time": 258, "velocity": 0, "pitch": 43, "instrument": 0, "track": 3, "qtime": 18, "isDrum": false}, {"time": 258, "velocity": 108, "pitch": 47, "instrument": 0, "track": 3, "qtime": 18, "isDrum": false}, {"time": 264, "velocity": 0, "pitch": 47, "instrument": 0, "track": 3, "qtime": 24, "isDrum": false}, {"time": 264, "velocity": 108, "pitch": 45, "instrument": 0, "track": 3, "qtime": 24, "isDrum": false}, {"time": 276, "velocity": 0, "pitch": 45, "instrument": 0, "track": 3, "qtime": 36, "isDrum": false}, {"time": 276, "velocity": 108, "pitch": 50, "instrument": 0, "track": 3, "qtime": 36, "isDrum": false}, {"time": 288, "velocity": 0, "pitch": 50, "instrument": 0, "track": 3, "qtime": 48, "isDrum": false}, {"time": 288, "velocity": 108, "pitch": 55, "instrument": 0, "track": 3, "qtime": 0, "isDrum": false}, {"time": 300, "velocity": 0, "pitch": 55, "instrument": 0, "track": 3, "qtime": 12, "isDrum": false}, {"time": 300, "velocity": 108, "pitch": 60, "instrument": 0, "track": 3, "qtime": 12, "isDrum": false}, {"time": 312, "velocity": 0, "pitch": 60, "instrument": 0, "track": 3, "qtime": 24, "isDrum": false}, {"time": 312, "velocity": 108, "pitch": 60, "instrument": 0, "track": 3, "qtime": 24, "isDrum": false}, {"time": 324, "velocity": 0, "pitch": 60, "instrument": 0, "track": 3, "qtime": 36, "isDrum": false}, {"time": 324, "velocity": 108, "pitch": 57, "instrument": 0, "track": 3, "qtime": 36, "isDrum": false}, {"time": 330, "velocity": 0, "pitch": 57, "instrument": 0, "track": 3, "qtime": 42, "isDrum": false}, {"time": 330, "velocity": 108, "pitch": 53, "instrument": 0, "track": 3, "qtime": 42, "isDrum": false}, {"time": 336, "velocity": 0, "pitch": 53, "instrument": 0, "track": 3, "qtime": 48, "isDrum": false}, {"time": 336, "velocity": 108, "pitch": 43, "instrument": 0, "track": 3, "qtime": 0, "isDrum": false}, {"time": 348, "velocity": 0, "pitch": 43, "instrument": 0, "track": 3, "qtime": 12, "isDrum": false}, {"time": 348, "velocity": 108, "pitch": 45, "instrument": 0, "track": 3, "qtime": 12, "isDrum": false}, {"time": 360, "velocity": 0, "pitch": 45, "instrument": 0, "track": 3, "qtime": 24, "isDrum": false}, {"time": 360, "velocity": 108, "pitch": 47, "instrument": 0, "track": 3, "qtime": 24, "isDrum": false}, {"time": 372, "velocity": 0, "pitch": 47, "instrument": 0, "track": 3, "qtime": 36, "isDrum": false}, {"time": 372, "velocity": 108, "pitch": 48, "instrument": 0, "track": 3, "qtime": 36, "isDrum": false}, {"time": 384, "velocity": 0, "pitch": 48, "instrument": 0, "track": 3, "qtime": 48, "isDrum": false}], "resolution": 12, "tempo": 120, "minPitch": 43, "maxPitch": 77, "validSegments": [0], "validTracks": [15]}, "audio": "https://www.sfu.ca/~jeffe/examples/8b_bach_101_7_all_sub.mp3"}, {"src": "gen/8b_bach_101_7_w_drums.json", "highlights": [[], [], [], [], [0, 1, 2, 3, 4, 5, 6, 7]], "caption": "Add a drum track to 23c.", "sample_id": "23d", "mixer": [8, 8, 8, 8, 8], "json": {"tracks": [{"bars": [{"events": [0, 1, 2, 3, 4, 5, 6, 7], "isFourFour": true, "hasNotes": true, "time": 0}, {"events": [8, 9, 10, 11, 12, 13, 14, 15], "isFourFour": true, "hasNotes": true, "time": 48}, {"events": [16, 17, 18, 19, 20, 21, 22, 23], "isFourFour": true, "hasNotes": true, "time": 96}, {"events": [24, 25, 26, 27, 28, 29, 30, 31], "isFourFour": true, "hasNotes": true, "time": 144}, {"events": [32, 33, 34, 35, 36, 37, 38, 39, 40, 41], "isFourFour": true, "hasNotes": true, "time": 192}, {"events": [42, 43, 44, 45, 46, 47, 48, 49], "isFourFour": true, "hasNotes": true, "time": 240}, {"events": [50, 51, 52, 53, 54, 55, 56, 57], "isFourFour": true, "hasNotes": true, "time": 288}, {"events": [58, 59, 60, 61, 62, 63, 64, 65], "isFourFour": true, "hasNotes": true, "time": 336}], "isDrum": false, "minPitch": 65, "maxPitch": 77, "instrument": 0, "avPolyphony": 1, "noteDensity": 9, "noteDensityV2": 2}, {"bars": [{"events": [66, 67, 68, 69, 70, 71, 72, 73], "isFourFour": true, "hasNotes": true, "time": 0}, {"events": [74, 75, 76, 77, 78, 79, 80, 81], "isFourFour": true, "hasNotes": true, "time": 48}, {"events": [82, 83, 84, 85, 86, 87, 88, 89, 90, 91], "isFourFour": true, "hasNotes": true, "time": 96}, {"events": [92, 93, 94, 95, 96, 97, 98, 99], "isFourFour": true, "hasNotes": true, "time": 144}, {"events": [100, 101, 102, 103, 104, 105, 106, 107, 108, 109, 110, 111], "isFourFour": true, "hasNotes": true, "time": 192}, {"events": [112, 113, 114, 115, 116, 117, 118, 119, 120, 121], "isFourFour": true, "hasNotes": true, "time": 240}, {"events": [122, 123, 124, 125, 126, 127, 128, 129, 130, 131], "isFourFour": true, "hasNotes": true, "time": 288}, {"events": [132, 133, 134, 135, 136, 137, 138, 139, 140, 141, 142, 143], "isFourFour": true, "hasNotes": true, "time": 336}], "isDrum": false, "minPitch": 57, "maxPitch": 69, "instrument": 0, "avPolyphony": 1, "noteDensity": 9, "noteDensityV2": 3}, {"bars": [{"events": [144, 145, 146, 147, 148, 149, 150, 151], "isFourFour": true, "hasNotes": true, "time": 0}, {"events": [152, 153, 154, 155, 156, 157, 158, 159], "isFourFour": true, "hasNotes": true, "time": 48}, {"events": [160, 161, 162, 163, 164, 165, 166, 167], "isFourFour": true, "hasNotes": true, "time": 96}, {"events": [168, 169, 170, 171, 172, 173, 174, 175, 176, 177], "isFourFour": true, "hasNotes": true, "time": 144}, {"events": [178, 179, 180, 181, 182, 183, 184, 185], "isFourFour": true, "hasNotes": true, "time": 192}, {"events": [186, 187, 188, 189, 190, 191, 192, 193, 194, 195], "isFourFour": true, "hasNotes": true, "time": 240}, {"events": [196, 197, 198, 199, 200, 201, 202, 203, 204, 205], "isFourFour": true, "hasNotes": true, "time": 288}, {"events": [206, 207, 208, 209, 210, 211, 212, 213], "isFourFour": true, "hasNotes": true, "time": 336}], "isDrum": false, "minPitch": 52, "maxPitch": 65, "instrument": 0, "avPolyphony": 1, "noteDensity": 9, "noteDensityV2": 2}, {"bars": [{"events": [214, 215, 216, 217, 218, 219, 220, 221], "isFourFour": true, "hasNotes": true, "time": 0}, {"events": [222, 223, 224, 225, 226, 227, 228, 229], "isFourFour": true, "hasNotes": true, "time": 48}, {"events": [230, 231, 232, 233, 234, 235, 236, 237, 238, 239], "isFourFour": true, "hasNotes": true, "time": 96}, {"events": [240, 241, 242, 243, 244, 245, 246, 247], "isFourFour": true, "hasNotes": true, "time": 144}, {"events": [248, 249, 250, 251, 252, 253, 254, 255], "isFourFour": true, "hasNotes": true, "time": 192}, {"events": [256, 257, 258, 259, 260, 261, 262, 263, 264, 265], "isFourFour": true, "hasNotes": true, "time": 240}, {"events": [266, 267, 268, 269, 270, 271, 272, 273, 274, 275], "isFourFour": true, "hasNotes": true, "time": 288}, {"events": [276, 277, 278, 279, 280, 281, 282, 283], "isFourFour": true, "hasNotes": true, "time": 336}], "isDrum": false, "minPitch": 43, "maxPitch": 60, "instrument": 0, "avPolyphony": 1, "noteDensity": 9, "noteDensityV2": 2}, {"bars": [{"events": [284, 285, 286, 287, 288, 289, 290, 291, 292, 293, 294, 295, 296, 297, 298, 299, 300, 301, 302, 303, 304, 305, 306, 307, 308, 309], "isFourFour": true, "hasNotes": true, "time": 0}, {"events": [310, 311, 312, 313, 314, 315, 316, 317, 318, 319, 320, 321, 322, 323, 324, 325, 326, 327, 328, 329, 330, 331, 332, 333, 334, 335], "isFourFour": true, "hasNotes": true, "time": 48}, {"events": [336, 337, 338, 339, 340, 341, 342, 343, 344, 345, 346, 347, 348, 349, 350, 351, 352, 353, 354, 355, 356, 357, 358, 359, 360, 361], "isFourFour": true, "hasNotes": true, "time": 96}, {"events": [362, 363, 364, 365, 366, 367, 368, 369, 370, 371, 372, 373, 374, 375, 376, 377, 378, 379, 380, 381, 382, 383, 384, 385, 386, 387], "isFourFour": true, "hasNotes": true, "time": 144}, {"events": [388, 389, 390, 391, 392, 393, 394, 395, 396, 397, 398, 399, 400, 401, 402, 403, 404, 405, 406, 407, 408, 409, 410, 411, 412, 413], "isFourFour": true, "hasNotes": true, "time": 192}, {"events": [414, 415, 416, 417, 418, 419, 420, 421, 422, 423, 424, 425, 426, 427, 428, 429, 430, 431, 432, 433, 434, 435, 436, 437, 438, 439], "isFourFour": true, "hasNotes": true, "time": 240}, {"events": [440, 441, 442, 443, 444, 445, 446, 447, 448, 449, 450, 451, 452, 453, 454, 455, 456, 457, 458, 459, 460, 461, 462, 463, 464, 465], "isFourFour": true, "hasNotes": true, "time": 288}, {"events": [466, 467, 468, 469, 470, 471, 472, 473, 474, 475, 476, 477, 478, 479, 480, 481, 482, 483, 484, 485, 486, 487, 488, 489, 490, 491], "isFourFour": true, "hasNotes": true, "time": 336}], "isDrum": true, "minPitch": 36, "maxPitch": 46, "instrument": 0, "avPolyphony": 1.625, "noteDensity": 9, "noteDensityV2": 6}], "events": [{"time": 0, "velocity": 108, "pitch": 69, "instrument": 0, "track": 0, "qtime": 0, "isDrum": false}, {"time": 12, "velocity": 0, "pitch": 69, "instrument": 0, "track": 0, "qtime": 12, "isDrum": false}, {"time": 12, "velocity": 108, "pitch": 69, "instrument": 0, "track": 0, "qtime": 12, "isDrum": false}, {"time": 24, "velocity": 0, "pitch": 69, "instrument": 0, "track": 0, "qtime": 24, "isDrum": false}, {"time": 24, "velocity": 108, "pitch": 67, "instrument": 0, "track": 0, "qtime": 24, "isDrum": false}, {"time": 36, "velocity": 0, "pitch": 67, "instrument": 0, "track": 0, "qtime": 36, "isDrum": false}, {"time": 36, "velocity": 108, "pitch": 65, "instrument": 0, "track": 0, "qtime": 36, "isDrum": false}, {"time": 48, "velocity": 0, "pitch": 65, "instrument": 0, "track": 0, "qtime": 48, "isDrum": false}, {"time": 48, "velocity": 108, "pitch": 69, "instrument": 0, "track": 0, "qtime": 0, "isDrum": false}, {"time": 60, "velocity": 0, "pitch": 69, "instrument": 0, "track": 0, "qtime": 12, "isDrum": false}, {"time": 60, "velocity": 108, "pitch": 67, "instrument": 0, "track": 0, "qtime": 12, "isDrum": false}, {"time": 72, "velocity": 0, "pitch": 67, "instrument": 0, "track": 0, "qtime": 24, "isDrum": false}, {"time": 72, "velocity": 108, "pitch": 69, "instrument": 0, "track": 0, "qtime": 24, "isDrum": false}, {"time": 84, "velocity": 0, "pitch": 69, "instrument": 0, "track": 0, "qtime": 36, "isDrum": false}, {"time": 84, "velocity": 108, "pitch": 65, "instrument": 0, "track": 0, "qtime": 36, "isDrum": false}, {"time": 96, "velocity": 0, "pitch": 65, "instrument": 0, "track": 0, "qtime": 48, "isDrum": false}, {"time": 96, "velocity": 108, "pitch": 69, "instrument": 0, "track": 0, "qtime": 0, "isDrum": false}, {"time": 108, "velocity": 0, "pitch": 69, "instrument": 0, "track": 0, "qtime": 12, "isDrum": false}, {"time": 108, "velocity": 108, "pitch": 69, "instrument": 0, "track": 0, "qtime": 12, "isDrum": false}, {"time": 120, "velocity": 0, "pitch": 69, "instrument": 0, "track": 0, "qtime": 24, "isDrum": false}, {"time": 120, "velocity": 108, "pitch": 67, "instrument": 0, "track": 0, "qtime": 24, "isDrum": false}, {"time": 132, "velocity": 0, "pitch": 67, "instrument": 0, "track": 0, "qtime": 36, "isDrum": false}, {"time": 132, "velocity": 108, "pitch": 72, "instrument": 0, "track": 0, "qtime": 36, "isDrum": false}, {"time": 144, "velocity": 0, "pitch": 72, "instrument": 0, "track": 0, "qtime": 48, "isDrum": false}, {"time": 144, "velocity": 108, "pitch": 69, "instrument": 0, "track": 0, "qtime": 0, "isDrum": false}, {"time": 156, "velocity": 0, "pitch": 69, "instrument": 0, "track": 0, "qtime": 12, "isDrum": false}, {"time": 156, "velocity": 108, "pitch": 65, "instrument": 0, "track": 0, "qtime": 12, "isDrum": false}, {"time": 168, "velocity": 0, "pitch": 65, "instrument": 0, "track": 0, "qtime": 24, "isDrum": false}, {"time": 168, "velocity": 108, "pitch": 67, "instrument": 0, "track": 0, "qtime": 24, "isDrum": false}, {"time": 180, "velocity": 0, "pitch": 67, "instrument": 0, "track": 0, "qtime": 36, "isDrum": false}, {"time": 180, "velocity": 108, "pitch": 69, "instrument": 0, "track": 0, "qtime": 36, "isDrum": false}, {"time": 192, "velocity": 0, "pitch": 69, "instrument": 0, "track": 0, "qtime": 48, "isDrum": false}, {"time": 192, "velocity": 108, "pitch": 69, "instrument": 0, "track": 0, "qtime": 0, "isDrum": false}, {"time": 204, "velocity": 0, "pitch": 69, "instrument": 0, "track": 0, "qtime": 12, "isDrum": false}, {"time": 204, "velocity": 108, "pitch": 72, "instrument": 0, "track": 0, "qtime": 12, "isDrum": false}, {"time": 216, "velocity": 0, "pitch": 72, "instrument": 0, "track": 0, "qtime": 24, "isDrum": false}, {"time": 216, "velocity": 108, "pitch": 74, "instrument": 0, "track": 0, "qtime": 24, "isDrum": false}, {"time": 222, "velocity": 0, "pitch": 74, "instrument": 0, "track": 0, "qtime": 30, "isDrum": false}, {"time": 222, "velocity": 108, "pitch": 76, "instrument": 0, "track": 0, "qtime": 30, "isDrum": false}, {"time": 228, "velocity": 0, "pitch": 76, "instrument": 0, "track": 0, "qtime": 36, "isDrum": false}, {"time": 228, "velocity": 108, "pitch": 77, "instrument": 0, "track": 0, "qtime": 36, "isDrum": false}, {"time": 240, "velocity": 0, "pitch": 77, "instrument": 0, "track": 0, "qtime": 48, "isDrum": false}, {"time": 240, "velocity": 108, "pitch": 76, "instrument": 0, "track": 0, "qtime": 0, "isDrum": false}, {"time": 252, "velocity": 0, "pitch": 76, "instrument": 0, "track": 0, "qtime": 12, "isDrum": false}, {"time": 252, "velocity": 108, "pitch": 74, "instrument": 0, "track": 0, "qtime": 12, "isDrum": false}, {"time": 264, "velocity": 0, "pitch": 74, "instrument": 0, "track": 0, "qtime": 24, "isDrum": false}, {"time": 264, "velocity": 108, "pitch": 73, "instrument": 0, "track": 0, "qtime": 24, "isDrum": false}, {"time": 276, "velocity": 0, "pitch": 73, "instrument": 0, "track": 0, "qtime": 36, "isDrum": false}, {"time": 276, "velocity": 108, "pitch": 74, "instrument": 0, "track": 0, "qtime": 36, "isDrum": false}, {"time": 288, "velocity": 0, "pitch": 74, "instrument": 0, "track": 0, "qtime": 48, "isDrum": false}, {"time": 288, "velocity": 108, "pitch": 74, "instrument": 0, "track": 0, "qtime": 0, "isDrum": false}, {"time": 300, "velocity": 0, "pitch": 74, "instrument": 0, "track": 0, "qtime": 12, "isDrum": false}, {"time": 300, "velocity": 108, "pitch": 76, "instrument": 0, "track": 0, "qtime": 12, "isDrum": false}, {"time": 312, "velocity": 0, "pitch": 76, "instrument": 0, "track": 0, "qtime": 24, "isDrum": false}, {"time": 312, "velocity": 108, "pitch": 74, "instrument": 0, "track": 0, "qtime": 24, "isDrum": false}, {"time": 324, "velocity": 0, "pitch": 74, "instrument": 0, "track": 0, "qtime": 36, "isDrum": false}, {"time": 324, "velocity": 108, "pitch": 72, "instrument": 0, "track": 0, "qtime": 36, "isDrum": false}, {"time": 336, "velocity": 0, "pitch": 72, "instrument": 0, "track": 0, "qtime": 48, "isDrum": false}, {"time": 336, "velocity": 108, "pitch": 71, "instrument": 0, "track": 0, "qtime": 0, "isDrum": false}, {"time": 348, "velocity": 0, "pitch": 71, "instrument": 0, "track": 0, "qtime": 12, "isDrum": false}, {"time": 348, "velocity": 108, "pitch": 69, "instrument": 0, "track": 0, "qtime": 12, "isDrum": false}, {"time": 360, "velocity": 0, "pitch": 69, "instrument": 0, "track": 0, "qtime": 24, "isDrum": false}, {"time": 360, "velocity": 108, "pitch": 71, "instrument": 0, "track": 0, "qtime": 24, "isDrum": false}, {"time": 372, "velocity": 0, "pitch": 71, "instrument": 0, "track": 0, "qtime": 36, "isDrum": false}, {"time": 372, "velocity": 108, "pitch": 69, "instrument": 0, "track": 0, "qtime": 36, "isDrum": false}, {"time": 384, "velocity": 0, "pitch": 69, "instrument": 0, "track": 0, "qtime": 48, "isDrum": false}, {"time": 0, "velocity": 108, "pitch": 65, "instrument": 0, "track": 1, "qtime": 0, "isDrum": false}, {"time": 12, "velocity": 0, "pitch": 65, "instrument": 0, "track": 1, "qtime": 12, "isDrum": false}, {"time": 12, "velocity": 108, "pitch": 64, "instrument": 0, "track": 1, "qtime": 12, "isDrum": false}, {"time": 24, "velocity": 0, "pitch": 64, "instrument": 0, "track": 1, "qtime": 24, "isDrum": false}, {"time": 24, "velocity": 108, "pitch": 62, "instrument": 0, "track": 1, "qtime": 24, "isDrum": false}, {"time": 36, "velocity": 0, "pitch": 62, "instrument": 0, "track": 1, "qtime": 36, "isDrum": false}, {"time": 36, "velocity": 108, "pitch": 62, "instrument": 0, "track": 1, "qtime": 36, "isDrum": false}, {"time": 48, "velocity": 0, "pitch": 62, "instrument": 0, "track": 1, "qtime": 48, "isDrum": false}, {"time": 48, "velocity": 108, "pitch": 62, "instrument": 0, "track": 1, "qtime": 0, "isDrum": false}, {"time": 60, "velocity": 0, "pitch": 62, "instrument": 0, "track": 1, "qtime": 12, "isDrum": false}, {"time": 60, "velocity": 108, "pitch": 62, "instrument": 0, "track": 1, "qtime": 12, "isDrum": false}, {"time": 72, "velocity": 0, "pitch": 62, "instrument": 0, "track": 1, "qtime": 24, "isDrum": false}, {"time": 72, "velocity": 108, "pitch": 61, "instrument": 0, "track": 1, "qtime": 24, "isDrum": false}, {"time": 84, "velocity": 0, "pitch": 61, "instrument": 0, "track": 1, "qtime": 36, "isDrum": false}, {"time": 84, "velocity": 108, "pitch": 57, "instrument": 0, "track": 1, "qtime": 36, "isDrum": false}, {"time": 96, "velocity": 0, "pitch": 57, "instrument": 0, "track": 1, "qtime": 48, "isDrum": false}, {"time": 96, "velocity": 108, "pitch": 65, "instrument": 0, "track": 1, "qtime": 0, "isDrum": false}, {"time": 108, "velocity": 0, "pitch": 65, "instrument": 0, "track": 1, "qtime": 12, "isDrum": false}, {"time": 108, "velocity": 108, "pitch": 65, "instrument": 0, "track": 1, "qtime": 12, "isDrum": false}, {"time": 120, "velocity": 0, "pitch": 65, "instrument": 0, "track": 1, "qtime": 24, "isDrum": false}, {"time": 120, "velocity": 108, "pitch": 67, "instrument": 0, "track": 1, "qtime": 24, "isDrum": false}, {"time": 126, "velocity": 0, "pitch": 67, "instrument": 0, "track": 1, "qtime": 30, "isDrum": false}, {"time": 126, "velocity": 108, "pitch": 65, "instrument": 0, "track": 1, "qtime": 30, "isDrum": false}, {"time": 132, "velocity": 0, "pitch": 65, "instrument": 0, "track": 1, "qtime": 36, "isDrum": false}, {"time": 132, "velocity": 108, "pitch": 64, "instrument": 0, "track": 1, "qtime": 36, "isDrum": false}, {"time": 144, "velocity": 0, "pitch": 64, "instrument": 0, "track": 1, "qtime": 48, "isDrum": false}, {"time": 144, "velocity": 108, "pitch": 65, "instrument": 0, "track": 1, "qtime": 0, "isDrum": false}, {"time": 156, "velocity": 0, "pitch": 65, "instrument": 0, "track": 1, "qtime": 12, "isDrum": false}, {"time": 156, "velocity": 108, "pitch": 62, "instrument": 0, "track": 1, "qtime": 12, "isDrum": false}, {"time": 168, "velocity": 0, "pitch": 62, "instrument": 0, "track": 1, "qtime": 24, "isDrum": false}, {"time": 168, "velocity": 108, "pitch": 62, "instrument": 0, "track": 1, "qtime": 24, "isDrum": false}, {"time": 180, "velocity": 0, "pitch": 62, "instrument": 0, "track": 1, "qtime": 36, "isDrum": false}, {"time": 180, "velocity": 108, "pitch": 61, "instrument": 0, "track": 1, "qtime": 36, "isDrum": false}, {"time": 192, "velocity": 0, "pitch": 61, "instrument": 0, "track": 1, "qtime": 48, "isDrum": false}, {"time": 192, "velocity": 108, "pitch": 62, "instrument": 0, "track": 1, "qtime": 0, "isDrum": false}, {"time": 204, "velocity": 0, "pitch": 62, "instrument": 0, "track": 1, "qtime": 12, "isDrum": false}, {"time": 204, "velocity": 108, "pitch": 64, "instrument": 0, "track": 1, "qtime": 12, "isDrum": false}, {"time": 210, "velocity": 0, "pitch": 64, "instrument": 0, "track": 1, "qtime": 18, "isDrum": false}, {"time": 210, "velocity": 108, "pitch": 65, "instrument": 0, "track": 1, "qtime": 18, "isDrum": false}, {"time": 216, "velocity": 0, "pitch": 65, "instrument": 0, "track": 1, "qtime": 24, "isDrum": false}, {"time": 216, "velocity": 108, "pitch": 65, "instrument": 0, "track": 1, "qtime": 24, "isDrum": false}, {"time": 228, "velocity": 0, "pitch": 65, "instrument": 0, "track": 1, "qtime": 36, "isDrum": false}, {"time": 228, "velocity": 108, "pitch": 64, "instrument": 0, "track": 1, "qtime": 36, "isDrum": false}, {"time": 234, "velocity": 0, "pitch": 64, "instrument": 0, "track": 1, "qtime": 42, "isDrum": false}, {"time": 234, "velocity": 108, "pitch": 65, "instrument": 0, "track": 1, "qtime": 42, "isDrum": false}, {"time": 240, "velocity": 0, "pitch": 65, "instrument": 0, "track": 1, "qtime": 48, "isDrum": false}, {"time": 240, "velocity": 108, "pitch": 67, "instrument": 0, "track": 1, "qtime": 0, "isDrum": false}, {"time": 252, "velocity": 0, "pitch": 67, "instrument": 0, "track": 1, "qtime": 12, "isDrum": false}, {"time": 252, "velocity": 108, "pitch": 67, "instrument": 0, "track": 1, "qtime": 12, "isDrum": false}, {"time": 258, "velocity": 0, "pitch": 67, "instrument": 0, "track": 1, "qtime": 18, "isDrum": false}, {"time": 258, "velocity": 108, "pitch": 66, "instrument": 0, "track": 1, "qtime": 18, "isDrum": false}, {"time": 264, "velocity": 0, "pitch": 66, "instrument": 0, "track": 1, "qtime": 24, "isDrum": false}, {"time": 264, "velocity": 108, "pitch": 64, "instrument": 0, "track": 1, "qtime": 24, "isDrum": false}, {"time": 276, "velocity": 0, "pitch": 64, "instrument": 0, "track": 1, "qtime": 36, "isDrum": false}, {"time": 276, "velocity": 108, "pitch": 65, "instrument": 0, "track": 1, "qtime": 36, "isDrum": false}, {"time": 288, "velocity": 0, "pitch": 65, "instrument": 0, "track": 1, "qtime": 48, "isDrum": false}, {"time": 288, "velocity": 108, "pitch": 67, "instrument": 0, "track": 1, "qtime": 0, "isDrum": false}, {"time": 300, "velocity": 0, "pitch": 67, "instrument": 0, "track": 1, "qtime": 12, "isDrum": false}, {"time": 300, "velocity": 108, "pitch": 67, "instrument": 0, "track": 1, "qtime": 12, "isDrum": false}, {"time": 312, "velocity": 0, "pitch": 67, "instrument": 0, "track": 1, "qtime": 24, "isDrum": false}, {"time": 312, "velocity": 108, "pitch": 66, "instrument": 0, "track": 1, "qtime": 24, "isDrum": false}, {"time": 318, "velocity": 0, "pitch": 66, "instrument": 0, "track": 1, "qtime": 30, "isDrum": false}, {"time": 318, "velocity": 108, "pitch": 68, "instrument": 0, "track": 1, "qtime": 30, "isDrum": false}, {"time": 324, "velocity": 0, "pitch": 68, "instrument": 0, "track": 1, "qtime": 36, "isDrum": false}, {"time": 324, "velocity": 108, "pitch": 69, "instrument": 0, "track": 1, "qtime": 36, "isDrum": false}, {"time": 336, "velocity": 0, "pitch": 69, "instrument": 0, "track": 1, "qtime": 48, "isDrum": false}, {"time": 336, "velocity": 108, "pitch": 64, "instrument": 0, "track": 1, "qtime": 0, "isDrum": false}, {"time": 348, "velocity": 0, "pitch": 64, "instrument": 0, "track": 1, "qtime": 12, "isDrum": false}, {"time": 348, "velocity": 108, "pitch": 64, "instrument": 0, "track": 1, "qtime": 12, "isDrum": false}, {"time": 354, "velocity": 0, "pitch": 64, "instrument": 0, "track": 1, "qtime": 18, "isDrum": false}, {"time": 354, "velocity": 108, "pitch": 69, "instrument": 0, "track": 1, "qtime": 18, "isDrum": false}, {"time": 360, "velocity": 0, "pitch": 69, "instrument": 0, "track": 1, "qtime": 24, "isDrum": false}, {"time": 360, "velocity": 108, "pitch": 69, "instrument": 0, "track": 1, "qtime": 24, "isDrum": false}, {"time": 366, "velocity": 0, "pitch": 69, "instrument": 0, "track": 1, "qtime": 30, "isDrum": false}, {"time": 366, "velocity": 108, "pitch": 68, "instrument": 0, "track": 1, "qtime": 30, "isDrum": false}, {"time": 372, "velocity": 0, "pitch": 68, "instrument": 0, "track": 1, "qtime": 36, "isDrum": false}, {"time": 372, "velocity": 108, "pitch": 64, "instrument": 0, "track": 1, "qtime": 36, "isDrum": false}, {"time": 384, "velocity": 0, "pitch": 64, "instrument": 0, "track": 1, "qtime": 48, "isDrum": false}, {"time": 0, "velocity": 108, "pitch": 62, "instrument": 0, "track": 2, "qtime": 0, "isDrum": false}, {"time": 12, "velocity": 0, "pitch": 62, "instrument": 0, "track": 2, "qtime": 12, "isDrum": false}, {"time": 12, "velocity": 108, "pitch": 57, "instrument": 0, "track": 2, "qtime": 12, "isDrum": false}, {"time": 24, "velocity": 0, "pitch": 57, "instrument": 0, "track": 2, "qtime": 24, "isDrum": false}, {"time": 24, "velocity": 108, "pitch": 57, "instrument": 0, "track": 2, "qtime": 24, "isDrum": false}, {"time": 36, "velocity": 0, "pitch": 57, "instrument": 0, "track": 2, "qtime": 36, "isDrum": false}, {"time": 36, "velocity": 108, "pitch": 58, "instrument": 0, "track": 2, "qtime": 36, "isDrum": false}, {"time": 48, "velocity": 0, "pitch": 58, "instrument": 0, "track": 2, "qtime": 48, "isDrum": false}, {"time": 48, "velocity": 108, "pitch": 57, "instrument": 0, "track": 2, "qtime": 0, "isDrum": false}, {"time": 60, "velocity": 0, "pitch": 57, "instrument": 0, "track": 2, "qtime": 12, "isDrum": false}, {"time": 60, "velocity": 108, "pitch": 58, "instrument": 0, "track": 2, "qtime": 12, "isDrum": false}, {"time": 72, "velocity": 0, "pitch": 58, "instrument": 0, "track": 2, "qtime": 24, "isDrum": false}, {"time": 72, "velocity": 108, "pitch": 52, "instrument": 0, "track": 2, "qtime": 24, "isDrum": false}, {"time": 84, "velocity": 0, "pitch": 52, "instrument": 0, "track": 2, "qtime": 36, "isDrum": false}, {"time": 84, "velocity": 108, "pitch": 53, "instrument": 0, "track": 2, "qtime": 36, "isDrum": false}, {"time": 96, "velocity": 0, "pitch": 53, "instrument": 0, "track": 2, "qtime": 48, "isDrum": false}, {"time": 96, "velocity": 108, "pitch": 57, "instrument": 0, "track": 2, "qtime": 0, "isDrum": false}, {"time": 108, "velocity": 0, "pitch": 57, "instrument": 0, "track": 2, "qtime": 12, "isDrum": false}, {"time": 108, "velocity": 108, "pitch": 60, "instrument": 0, "track": 2, "qtime": 12, "isDrum": false}, {"time": 120, "velocity": 0, "pitch": 60, "instrument": 0, "track": 2, "qtime": 24, "isDrum": false}, {"time": 120, "velocity": 108, "pitch": 60, "instrument": 0, "track": 2, "qtime": 24, "isDrum": false}, {"time": 132, "velocity": 0, "pitch": 60, "instrument": 0, "track": 2, "qtime": 36, "isDrum": false}, {"time": 132, "velocity": 108, "pitch": 60, "instrument": 0, "track": 2, "qtime": 36, "isDrum": false}, {"time": 144, "velocity": 0, "pitch": 60, "instrument": 0, "track": 2, "qtime": 48, "isDrum": false}, {"time": 144, "velocity": 108, "pitch": 60, "instrument": 0, "track": 2, "qtime": 0, "isDrum": false}, {"time": 156, "velocity": 0, "pitch": 60, "instrument": 0, "track": 2, "qtime": 12, "isDrum": false}, {"time": 156, "velocity": 108, "pitch": 62, "instrument": 0, "track": 2, "qtime": 12, "isDrum": false}, {"time": 168, "velocity": 0, "pitch": 62, "instrument": 0, "track": 2, "qtime": 24, "isDrum": false}, {"time": 168, "velocity": 108, "pitch": 62, "instrument": 0, "track": 2, "qtime": 24, "isDrum": false}, {"time": 180, "velocity": 0, "pitch": 62, "instrument": 0, "track": 2, "qtime": 36, "isDrum": false}, {"time": 180, "velocity": 108, "pitch": 57, "instrument": 0, "track": 2, "qtime": 36, "isDrum": false}, {"time": 186, "velocity": 0, "pitch": 57, "instrument": 0, "track": 2, "qtime": 42, "isDrum": false}, {"time": 186, "velocity": 108, "pitch": 55, "instrument": 0, "track": 2, "qtime": 42, "isDrum": false}, {"time": 192, "velocity": 0, "pitch": 55, "instrument": 0, "track": 2, "qtime": 48, "isDrum": false}, {"time": 192, "velocity": 108, "pitch": 53, "instrument": 0, "track": 2, "qtime": 0, "isDrum": false}, {"time": 204, "velocity": 0, "pitch": 53, "instrument": 0, "track": 2, "qtime": 12, "isDrum": false}, {"time": 204, "velocity": 108, "pitch": 57, "instrument": 0, "track": 2, "qtime": 12, "isDrum": false}, {"time": 216, "velocity": 0, "pitch": 57, "instrument": 0, "track": 2, "qtime": 24, "isDrum": false}, {"time": 216, "velocity": 108, "pitch": 58, "instrument": 0, "track": 2, "qtime": 24, "isDrum": false}, {"time": 228, "velocity": 0, "pitch": 58, "instrument": 0, "track": 2, "qtime": 36, "isDrum": false}, {"time": 228, "velocity": 108, "pitch": 60, "instrument": 0, "track": 2, "qtime": 36, "isDrum": false}, {"time": 240, "velocity": 0, "pitch": 60, "instrument": 0, "track": 2, "qtime": 48, "isDrum": false}, {"time": 240, "velocity": 108, "pitch": 58, "instrument": 0, "track": 2, "qtime": 0, "isDrum": false}, {"time": 246, "velocity": 0, "pitch": 58, "instrument": 0, "track": 2, "qtime": 6, "isDrum": false}, {"time": 246, "velocity": 108, "pitch": 60, "instrument": 0, "track": 2, "qtime": 6, "isDrum": false}, {"time": 252, "velocity": 0, "pitch": 60, "instrument": 0, "track": 2, "qtime": 12, "isDrum": false}, {"time": 252, "velocity": 108, "pitch": 62, "instrument": 0, "track": 2, "qtime": 12, "isDrum": false}, {"time": 264, "velocity": 0, "pitch": 62, "instrument": 0, "track": 2, "qtime": 24, "isDrum": false}, {"time": 264, "velocity": 108, "pitch": 64, "instrument": 0, "track": 2, "qtime": 24, "isDrum": false}, {"time": 276, "velocity": 0, "pitch": 64, "instrument": 0, "track": 2, "qtime": 36, "isDrum": false}, {"time": 276, "velocity": 108, "pitch": 65, "instrument": 0, "track": 2, "qtime": 36, "isDrum": false}, {"time": 288, "velocity": 0, "pitch": 65, "instrument": 0, "track": 2, "qtime": 48, "isDrum": false}, {"time": 288, "velocity": 108, "pitch": 59, "instrument": 0, "track": 2, "qtime": 0, "isDrum": false}, {"time": 300, "velocity": 0, "pitch": 59, "instrument": 0, "track": 2, "qtime": 12, "isDrum": false}, {"time": 300, "velocity": 108, "pitch": 60, "instrument": 0, "track": 2, "qtime": 12, "isDrum": false}, {"time": 306, "velocity": 0, "pitch": 60, "instrument": 0, "track": 2, "qtime": 18, "isDrum": false}, {"time": 306, "velocity": 108, "pitch": 59, "instrument": 0, "track": 2, "qtime": 18, "isDrum": false}, {"time": 312, "velocity": 0, "pitch": 59, "instrument": 0, "track": 2, "qtime": 24, "isDrum": false}, {"time": 312, "velocity": 108, "pitch": 57, "instrument": 0, "track": 2, "qtime": 24, "isDrum": false}, {"time": 324, "velocity": 0, "pitch": 57, "instrument": 0, "track": 2, "qtime": 36, "isDrum": false}, {"time": 324, "velocity": 108, "pitch": 62, "instrument": 0, "track": 2, "qtime": 36, "isDrum": false}, {"time": 336, "velocity": 0, "pitch": 62, "instrument": 0, "track": 2, "qtime": 48, "isDrum": false}, {"time": 336, "velocity": 108, "pitch": 62, "instrument": 0, "track": 2, "qtime": 0, "isDrum": false}, {"time": 348, "velocity": 0, "pitch": 62, "instrument": 0, "track": 2, "qtime": 12, "isDrum": false}, {"time": 348, "velocity": 108, "pitch": 60, "instrument": 0, "track": 2, "qtime": 12, "isDrum": false}, {"time": 360, "velocity": 0, "pitch": 60, "instrument": 0, "track": 2, "qtime": 24, "isDrum": false}, {"time": 360, "velocity": 108, "pitch": 62, "instrument": 0, "track": 2, "qtime": 24, "isDrum": false}, {"time": 372, "velocity": 0, "pitch": 62, "instrument": 0, "track": 2, "qtime": 36, "isDrum": false}, {"time": 372, "velocity": 108, "pitch": 60, "instrument": 0, "track": 2, "qtime": 36, "isDrum": false}, {"time": 384, "velocity": 0, "pitch": 60, "instrument": 0, "track": 2, "qtime": 48, "isDrum": false}, {"time": 0, "velocity": 108, "pitch": 50, "instrument": 0, "track": 3, "qtime": 0, "isDrum": false}, {"time": 12, "velocity": 0, "pitch": 50, "instrument": 0, "track": 3, "qtime": 12, "isDrum": false}, {"time": 12, "velocity": 108, "pitch": 49, "instrument": 0, "track": 3, "qtime": 12, "isDrum": false}, {"time": 24, "velocity": 0, "pitch": 49, "instrument": 0, "track": 3, "qtime": 24, "isDrum": false}, {"time": 24, "velocity": 108, "pitch": 50, "instrument": 0, "track": 3, "qtime": 24, "isDrum": false}, {"time": 36, "velocity": 0, "pitch": 50, "instrument": 0, "track": 3, "qtime": 36, "isDrum": false}, {"time": 36, "velocity": 108, "pitch": 58, "instrument": 0, "track": 3, "qtime": 36, "isDrum": false}, {"time": 48, "velocity": 0, "pitch": 58, "instrument": 0, "track": 3, "qtime": 48, "isDrum": false}, {"time": 48, "velocity": 108, "pitch": 53, "instrument": 0, "track": 3, "qtime": 0, "isDrum": false}, {"time": 60, "velocity": 0, "pitch": 53, "instrument": 0, "track": 3, "qtime": 12, "isDrum": false}, {"time": 60, "velocity": 108, "pitch": 55, "instrument": 0, "track": 3, "qtime": 12, "isDrum": false}, {"time": 72, "velocity": 0, "pitch": 55, "instrument": 0, "track": 3, "qtime": 24, "isDrum": false}, {"time": 72, "velocity": 108, "pitch": 57, "instrument": 0, "track": 3, "qtime": 24, "isDrum": false}, {"time": 84, "velocity": 0, "pitch": 57, "instrument": 0, "track": 3, "qtime": 36, "isDrum": false}, {"time": 84, "velocity": 108, "pitch": 50, "instrument": 0, "track": 3, "qtime": 36, "isDrum": false}, {"time": 96, "velocity": 0, "pitch": 50, "instrument": 0, "track": 3, "qtime": 48, "isDrum": false}, {"time": 96, "velocity": 108, "pitch": 50, "instrument": 0, "track": 3, "qtime": 0, "isDrum": false}, {"time": 108, "velocity": 0, "pitch": 50, "instrument": 0, "track": 3, "qtime": 12, "isDrum": false}, {"time": 108, "velocity": 108, "pitch": 52, "instrument": 0, "track": 3, "qtime": 12, "isDrum": false}, {"time": 114, "velocity": 0, "pitch": 52, "instrument": 0, "track": 3, "qtime": 18, "isDrum": false}, {"time": 114, "velocity": 108, "pitch": 50, "instrument": 0, "track": 3, "qtime": 18, "isDrum": false}, {"time": 120, "velocity": 0, "pitch": 50, "instrument": 0, "track": 3, "qtime": 24, "isDrum": false}, {"time": 120, "velocity": 108, "pitch": 48, "instrument": 0, "track": 3, "qtime": 24, "isDrum": false}, {"time": 132, "velocity": 0, "pitch": 48, "instrument": 0, "track": 3, "qtime": 36, "isDrum": false}, {"time": 132, "velocity": 108, "pitch": 48, "instrument": 0, "track": 3, "qtime": 36, "isDrum": false}, {"time": 144, "velocity": 0, "pitch": 48, "instrument": 0, "track": 3, "qtime": 48, "isDrum": false}, {"time": 144, "velocity": 108, "pitch": 45, "instrument": 0, "track": 3, "qtime": 0, "isDrum": false}, {"time": 156, "velocity": 0, "pitch": 45, "instrument": 0, "track": 3, "qtime": 12, "isDrum": false}, {"time": 156, "velocity": 108, "pitch": 46, "instrument": 0, "track": 3, "qtime": 12, "isDrum": false}, {"time": 168, "velocity": 0, "pitch": 46, "instrument": 0, "track": 3, "qtime": 24, "isDrum": false}, {"time": 168, "velocity": 108, "pitch": 43, "instrument": 0, "track": 3, "qtime": 24, "isDrum": false}, {"time": 180, "velocity": 0, "pitch": 43, "instrument": 0, "track": 3, "qtime": 36, "isDrum": false}, {"time": 180, "velocity": 108, "pitch": 45, "instrument": 0, "track": 3, "qtime": 36, "isDrum": false}, {"time": 192, "velocity": 0, "pitch": 45, "instrument": 0, "track": 3, "qtime": 48, "isDrum": false}, {"time": 192, "velocity": 108, "pitch": 50, "instrument": 0, "track": 3, "qtime": 0, "isDrum": false}, {"time": 204, "velocity": 0, "pitch": 50, "instrument": 0, "track": 3, "qtime": 12, "isDrum": false}, {"time": 204, "velocity": 108, "pitch": 48, "instrument": 0, "track": 3, "qtime": 12, "isDrum": false}, {"time": 216, "velocity": 0, "pitch": 48, "instrument": 0, "track": 3, "qtime": 24, "isDrum": false}, {"time": 216, "velocity": 108, "pitch": 46, "instrument": 0, "track": 3, "qtime": 24, "isDrum": false}, {"time": 228, "velocity": 0, "pitch": 46, "instrument": 0, "track": 3, "qtime": 36, "isDrum": false}, {"time": 228, "velocity": 108, "pitch": 45, "instrument": 0, "track": 3, "qtime": 36, "isDrum": false}, {"time": 240, "velocity": 0, "pitch": 45, "instrument": 0, "track": 3, "qtime": 48, "isDrum": false}, {"time": 240, "velocity": 108, "pitch": 43, "instrument": 0, "track": 3, "qtime": 0, "isDrum": false}, {"time": 252, "velocity": 0, "pitch": 43, "instrument": 0, "track": 3, "qtime": 12, "isDrum": false}, {"time": 252, "velocity": 108, "pitch": 43, "instrument": 0, "track": 3, "qtime": 12, "isDrum": false}, {"time": 258, "velocity": 0, "pitch": 43, "instrument": 0, "track": 3, "qtime": 18, "isDrum": false}, {"time": 258, "velocity": 108, "pitch": 47, "instrument": 0, "track": 3, "qtime": 18, "isDrum": false}, {"time": 264, "velocity": 0, "pitch": 47, "instrument": 0, "track": 3, "qtime": 24, "isDrum": false}, {"time": 264, "velocity": 108, "pitch": 45, "instrument": 0, "track": 3, "qtime": 24, "isDrum": false}, {"time": 276, "velocity": 0, "pitch": 45, "instrument": 0, "track": 3, "qtime": 36, "isDrum": false}, {"time": 276, "velocity": 108, "pitch": 50, "instrument": 0, "track": 3, "qtime": 36, "isDrum": false}, {"time": 288, "velocity": 0, "pitch": 50, "instrument": 0, "track": 3, "qtime": 48, "isDrum": false}, {"time": 288, "velocity": 108, "pitch": 55, "instrument": 0, "track": 3, "qtime": 0, "isDrum": false}, {"time": 300, "velocity": 0, "pitch": 55, "instrument": 0, "track": 3, "qtime": 12, "isDrum": false}, {"time": 300, "velocity": 108, "pitch": 60, "instrument": 0, "track": 3, "qtime": 12, "isDrum": false}, {"time": 312, "velocity": 0, "pitch": 60, "instrument": 0, "track": 3, "qtime": 24, "isDrum": false}, {"time": 312, "velocity": 108, "pitch": 60, "instrument": 0, "track": 3, "qtime": 24, "isDrum": false}, {"time": 324, "velocity": 0, "pitch": 60, "instrument": 0, "track": 3, "qtime": 36, "isDrum": false}, {"time": 324, "velocity": 108, "pitch": 57, "instrument": 0, "track": 3, "qtime": 36, "isDrum": false}, {"time": 330, "velocity": 0, "pitch": 57, "instrument": 0, "track": 3, "qtime": 42, "isDrum": false}, {"time": 330, "velocity": 108, "pitch": 53, "instrument": 0, "track": 3, "qtime": 42, "isDrum": false}, {"time": 336, "velocity": 0, "pitch": 53, "instrument": 0, "track": 3, "qtime": 48, "isDrum": false}, {"time": 336, "velocity": 108, "pitch": 43, "instrument": 0, "track": 3, "qtime": 0, "isDrum": false}, {"time": 348, "velocity": 0, "pitch": 43, "instrument": 0, "track": 3, "qtime": 12, "isDrum": false}, {"time": 348, "velocity": 108, "pitch": 45, "instrument": 0, "track": 3, "qtime": 12, "isDrum": false}, {"time": 360, "velocity": 0, "pitch": 45, "instrument": 0, "track": 3, "qtime": 24, "isDrum": false}, {"time": 360, "velocity": 108, "pitch": 47, "instrument": 0, "track": 3, "qtime": 24, "isDrum": false}, {"time": 372, "velocity": 0, "pitch": 47, "instrument": 0, "track": 3, "qtime": 36, "isDrum": false}, {"time": 372, "velocity": 108, "pitch": 48, "instrument": 0, "track": 3, "qtime": 36, "isDrum": false}, {"time": 384, "velocity": 0, "pitch": 48, "instrument": 0, "track": 3, "qtime": 48, "isDrum": false}, {"time": 0, "velocity": 108, "pitch": 36, "instrument": 0, "track": 9, "qtime": 0, "isDrum": true}, {"time": 0, "velocity": 108, "pitch": 42, "instrument": 0, "track": 9, "qtime": 0, "isDrum": true}, {"time": 6, "velocity": 0, "pitch": 36, "instrument": 0, "track": 9, "qtime": 6, "isDrum": true}, {"time": 6, "velocity": 0, "pitch": 42, "instrument": 0, "track": 9, "qtime": 6, "isDrum": true}, {"time": 6, "velocity": 108, "pitch": 46, "instrument": 0, "track": 9, "qtime": 6, "isDrum": true}, {"time": 12, "velocity": 0, "pitch": 46, "instrument": 0, "track": 9, "qtime": 12, "isDrum": true}, {"time": 12, "velocity": 108, "pitch": 38, "instrument": 0, "track": 9, "qtime": 12, "isDrum": true}, {"time": 12, "velocity": 108, "pitch": 42, "instrument": 0, "track": 9, "qtime": 12, "isDrum": true}, {"time": 18, "velocity": 0, "pitch": 38, "instrument": 0, "track": 9, "qtime": 18, "isDrum": true}, {"time": 18, "velocity": 0, "pitch": 42, "instrument": 0, "track": 9, "qtime": 18, "isDrum": true}, {"time": 18, "velocity": 108, "pitch": 36, "instrument": 0, "track": 9, "qtime": 18, "isDrum": true}, {"time": 18, "velocity": 108, "pitch": 46, "instrument": 0, "track": 9, "qtime": 18, "isDrum": true}, {"time": 24, "velocity": 0, "pitch": 36, "instrument": 0, "track": 9, "qtime": 24, "isDrum": true}, {"time": 24, "velocity": 0, "pitch": 46, "instrument": 0, "track": 9, "qtime": 24, "isDrum": true}, {"time": 24, "velocity": 108, "pitch": 36, "instrument": 0, "track": 9, "qtime": 24, "isDrum": true}, {"time": 24, "velocity": 108, "pitch": 42, "instrument": 0, "track": 9, "qtime": 24, "isDrum": true}, {"time": 30, "velocity": 0, "pitch": 36, "instrument": 0, "track": 9, "qtime": 30, "isDrum": true}, {"time": 30, "velocity": 0, "pitch": 42, "instrument": 0, "track": 9, "qtime": 30, "isDrum": true}, {"time": 30, "velocity": 108, "pitch": 46, "instrument": 0, "track": 9, "qtime": 30, "isDrum": true}, {"time": 36, "velocity": 0, "pitch": 46, "instrument": 0, "track": 9, "qtime": 36, "isDrum": true}, {"time": 36, "velocity": 108, "pitch": 38, "instrument": 0, "track": 9, "qtime": 36, "isDrum": true}, {"time": 36, "velocity": 108, "pitch": 42, "instrument": 0, "track": 9, "qtime": 36, "isDrum": true}, {"time": 42, "velocity": 0, "pitch": 38, "instrument": 0, "track": 9, "qtime": 42, "isDrum": true}, {"time": 42, "velocity": 0, "pitch": 42, "instrument": 0, "track": 9, "qtime": 42, "isDrum": true}, {"time": 42, "velocity": 108, "pitch": 46, "instrument": 0, "track": 9, "qtime": 42, "isDrum": true}, {"time": 48, "velocity": 0, "pitch": 46, "instrument": 0, "track": 9, "qtime": 48, "isDrum": true}, {"time": 48, "velocity": 108, "pitch": 36, "instrument": 0, "track": 9, "qtime": 0, "isDrum": true}, {"time": 48, "velocity": 108, "pitch": 42, "instrument": 0, "track": 9, "qtime": 0, "isDrum": true}, {"time": 54, "velocity": 0, "pitch": 36, "instrument": 0, "track": 9, "qtime": 6, "isDrum": true}, {"time": 54, "velocity": 0, "pitch": 42, "instrument": 0, "track": 9, "qtime": 6, "isDrum": true}, {"time": 54, "velocity": 108, "pitch": 46, "instrument": 0, "track": 9, "qtime": 6, "isDrum": true}, {"time": 60, "velocity": 0, "pitch": 46, "instrument": 0, "track": 9, "qtime": 12, "isDrum": true}, {"time": 60, "velocity": 108, "pitch": 38, "instrument": 0, "track": 9, "qtime": 12, "isDrum": true}, {"time": 60, "velocity": 108, "pitch": 42, "instrument": 0, "track": 9, "qtime": 12, "isDrum": true}, {"time": 66, "velocity": 0, "pitch": 38, "instrument": 0, "track": 9, "qtime": 18, "isDrum": true}, {"time": 66, "velocity": 0, "pitch": 42, "instrument": 0, "track": 9, "qtime": 18, "isDrum": true}, {"time": 66, "velocity": 108, "pitch": 36, "instrument": 0, "track": 9, "qtime": 18, "isDrum": true}, {"time": 66, "velocity": 108, "pitch": 46, "instrument": 0, "track": 9, "qtime": 18, "isDrum": true}, {"time": 72, "velocity": 0, "pitch": 36, "instrument": 0, "track": 9, "qtime": 24, "isDrum": true}, {"time": 72, "velocity": 0, "pitch": 46, "instrument": 0, "track": 9, "qtime": 24, "isDrum": true}, {"time": 72, "velocity": 108, "pitch": 36, "instrument": 0, "track": 9, "qtime": 24, "isDrum": true}, {"time": 72, "velocity": 108, "pitch": 42, "instrument": 0, "track": 9, "qtime": 24, "isDrum": true}, {"time": 78, "velocity": 0, "pitch": 36, "instrument": 0, "track": 9, "qtime": 30, "isDrum": true}, {"time": 78, "velocity": 0, "pitch": 42, "instrument": 0, "track": 9, "qtime": 30, "isDrum": true}, {"time": 78, "velocity": 108, "pitch": 46, "instrument": 0, "track": 9, "qtime": 30, "isDrum": true}, {"time": 84, "velocity": 0, "pitch": 46, "instrument": 0, "track": 9, "qtime": 36, "isDrum": true}, {"time": 84, "velocity": 108, "pitch": 38, "instrument": 0, "track": 9, "qtime": 36, "isDrum": true}, {"time": 84, "velocity": 108, "pitch": 42, "instrument": 0, "track": 9, "qtime": 36, "isDrum": true}, {"time": 90, "velocity": 0, "pitch": 38, "instrument": 0, "track": 9, "qtime": 42, "isDrum": true}, {"time": 90, "velocity": 0, "pitch": 42, "instrument": 0, "track": 9, "qtime": 42, "isDrum": true}, {"time": 90, "velocity": 108, "pitch": 46, "instrument": 0, "track": 9, "qtime": 42, "isDrum": true}, {"time": 96, "velocity": 0, "pitch": 46, "instrument": 0, "track": 9, "qtime": 48, "isDrum": true}, {"time": 96, "velocity": 108, "pitch": 36, "instrument": 0, "track": 9, "qtime": 0, "isDrum": true}, {"time": 96, "velocity": 108, "pitch": 42, "instrument": 0, "track": 9, "qtime": 0, "isDrum": true}, {"time": 102, "velocity": 0, "pitch": 36, "instrument": 0, "track": 9, "qtime": 6, "isDrum": true}, {"time": 102, "velocity": 0, "pitch": 42, "instrument": 0, "track": 9, "qtime": 6, "isDrum": true}, {"time": 102, "velocity": 108, "pitch": 46, "instrument": 0, "track": 9, "qtime": 6, "isDrum": true}, {"time": 108, "velocity": 0, "pitch": 46, "instrument": 0, "track": 9, "qtime": 12, "isDrum": true}, {"time": 108, "velocity": 108, "pitch": 38, "instrument": 0, "track": 9, "qtime": 12, "isDrum": true}, {"time": 108, "velocity": 108, "pitch": 42, "instrument": 0, "track": 9, "qtime": 12, "isDrum": true}, {"time": 114, "velocity": 0, "pitch": 38, "instrument": 0, "track": 9, "qtime": 18, "isDrum": true}, {"time": 114, "velocity": 0, "pitch": 42, "instrument": 0, "track": 9, "qtime": 18, "isDrum": true}, {"time": 114, "velocity": 108, "pitch": 36, "instrument": 0, "track": 9, "qtime": 18, "isDrum": true}, {"time": 114, "velocity": 108, "pitch": 46, "instrument": 0, "track": 9, "qtime": 18, "isDrum": true}, {"time": 120, "velocity": 0, "pitch": 36, "instrument": 0, "track": 9, "qtime": 24, "isDrum": true}, {"time": 120, "velocity": 0, "pitch": 46, "instrument": 0, "track": 9, "qtime": 24, "isDrum": true}, {"time": 120, "velocity": 108, "pitch": 36, "instrument": 0, "track": 9, "qtime": 24, "isDrum": true}, {"time": 120, "velocity": 108, "pitch": 42, "instrument": 0, "track": 9, "qtime": 24, "isDrum": true}, {"time": 126, "velocity": 0, "pitch": 36, "instrument": 0, "track": 9, "qtime": 30, "isDrum": true}, {"time": 126, "velocity": 0, "pitch": 42, "instrument": 0, "track": 9, "qtime": 30, "isDrum": true}, {"time": 126, "velocity": 108, "pitch": 46, "instrument": 0, "track": 9, "qtime": 30, "isDrum": true}, {"time": 132, "velocity": 0, "pitch": 46, "instrument": 0, "track": 9, "qtime": 36, "isDrum": true}, {"time": 132, "velocity": 108, "pitch": 38, "instrument": 0, "track": 9, "qtime": 36, "isDrum": true}, {"time": 132, "velocity": 108, "pitch": 42, "instrument": 0, "track": 9, "qtime": 36, "isDrum": true}, {"time": 138, "velocity": 0, "pitch": 38, "instrument": 0, "track": 9, "qtime": 42, "isDrum": true}, {"time": 138, "velocity": 0, "pitch": 42, "instrument": 0, "track": 9, "qtime": 42, "isDrum": true}, {"time": 138, "velocity": 108, "pitch": 46, "instrument": 0, "track": 9, "qtime": 42, "isDrum": true}, {"time": 144, "velocity": 0, "pitch": 46, "instrument": 0, "track": 9, "qtime": 48, "isDrum": true}, {"time": 144, "velocity": 108, "pitch": 36, "instrument": 0, "track": 9, "qtime": 0, "isDrum": true}, {"time": 144, "velocity": 108, "pitch": 42, "instrument": 0, "track": 9, "qtime": 0, "isDrum": true}, {"time": 150, "velocity": 0, "pitch": 36, "instrument": 0, "track": 9, "qtime": 6, "isDrum": true}, {"time": 150, "velocity": 0, "pitch": 42, "instrument": 0, "track": 9, "qtime": 6, "isDrum": true}, {"time": 150, "velocity": 108, "pitch": 46, "instrument": 0, "track": 9, "qtime": 6, "isDrum": true}, {"time": 156, "velocity": 0, "pitch": 46, "instrument": 0, "track": 9, "qtime": 12, "isDrum": true}, {"time": 156, "velocity": 108, "pitch": 38, "instrument": 0, "track": 9, "qtime": 12, "isDrum": true}, {"time": 156, "velocity": 108, "pitch": 42, "instrument": 0, "track": 9, "qtime": 12, "isDrum": true}, {"time": 162, "velocity": 0, "pitch": 38, "instrument": 0, "track": 9, "qtime": 18, "isDrum": true}, {"time": 162, "velocity": 0, "pitch": 42, "instrument": 0, "track": 9, "qtime": 18, "isDrum": true}, {"time": 162, "velocity": 108, "pitch": 36, "instrument": 0, "track": 9, "qtime": 18, "isDrum": true}, {"time": 162, "velocity": 108, "pitch": 46, "instrument": 0, "track": 9, "qtime": 18, "isDrum": true}, {"time": 168, "velocity": 0, "pitch": 36, "instrument": 0, "track": 9, "qtime": 24, "isDrum": true}, {"time": 168, "velocity": 0, "pitch": 46, "instrument": 0, "track": 9, "qtime": 24, "isDrum": true}, {"time": 168, "velocity": 108, "pitch": 36, "instrument": 0, "track": 9, "qtime": 24, "isDrum": true}, {"time": 168, "velocity": 108, "pitch": 42, "instrument": 0, "track": 9, "qtime": 24, "isDrum": true}, {"time": 174, "velocity": 0, "pitch": 36, "instrument": 0, "track": 9, "qtime": 30, "isDrum": true}, {"time": 174, "velocity": 0, "pitch": 42, "instrument": 0, "track": 9, "qtime": 30, "isDrum": true}, {"time": 174, "velocity": 108, "pitch": 46, "instrument": 0, "track": 9, "qtime": 30, "isDrum": true}, {"time": 180, "velocity": 0, "pitch": 46, "instrument": 0, "track": 9, "qtime": 36, "isDrum": true}, {"time": 180, "velocity": 108, "pitch": 38, "instrument": 0, "track": 9, "qtime": 36, "isDrum": true}, {"time": 180, "velocity": 108, "pitch": 42, "instrument": 0, "track": 9, "qtime": 36, "isDrum": true}, {"time": 186, "velocity": 0, "pitch": 38, "instrument": 0, "track": 9, "qtime": 42, "isDrum": true}, {"time": 186, "velocity": 0, "pitch": 42, "instrument": 0, "track": 9, "qtime": 42, "isDrum": true}, {"time": 186, "velocity": 108, "pitch": 46, "instrument": 0, "track": 9, "qtime": 42, "isDrum": true}, {"time": 192, "velocity": 0, "pitch": 46, "instrument": 0, "track": 9, "qtime": 48, "isDrum": true}, {"time": 192, "velocity": 108, "pitch": 36, "instrument": 0, "track": 9, "qtime": 0, "isDrum": true}, {"time": 192, "velocity": 108, "pitch": 42, "instrument": 0, "track": 9, "qtime": 0, "isDrum": true}, {"time": 198, "velocity": 0, "pitch": 36, "instrument": 0, "track": 9, "qtime": 6, "isDrum": true}, {"time": 198, "velocity": 0, "pitch": 42, "instrument": 0, "track": 9, "qtime": 6, "isDrum": true}, {"time": 198, "velocity": 108, "pitch": 46, "instrument": 0, "track": 9, "qtime": 6, "isDrum": true}, {"time": 204, "velocity": 0, "pitch": 46, "instrument": 0, "track": 9, "qtime": 12, "isDrum": true}, {"time": 204, "velocity": 108, "pitch": 38, "instrument": 0, "track": 9, "qtime": 12, "isDrum": true}, {"time": 204, "velocity": 108, "pitch": 42, "instrument": 0, "track": 9, "qtime": 12, "isDrum": true}, {"time": 210, "velocity": 0, "pitch": 38, "instrument": 0, "track": 9, "qtime": 18, "isDrum": true}, {"time": 210, "velocity": 0, "pitch": 42, "instrument": 0, "track": 9, "qtime": 18, "isDrum": true}, {"time": 210, "velocity": 108, "pitch": 36, "instrument": 0, "track": 9, "qtime": 18, "isDrum": true}, {"time": 210, "velocity": 108, "pitch": 46, "instrument": 0, "track": 9, "qtime": 18, "isDrum": true}, {"time": 216, "velocity": 0, "pitch": 36, "instrument": 0, "track": 9, "qtime": 24, "isDrum": true}, {"time": 216, "velocity": 0, "pitch": 46, "instrument": 0, "track": 9, "qtime": 24, "isDrum": true}, {"time": 216, "velocity": 108, "pitch": 36, "instrument": 0, "track": 9, "qtime": 24, "isDrum": true}, {"time": 216, "velocity": 108, "pitch": 42, "instrument": 0, "track": 9, "qtime": 24, "isDrum": true}, {"time": 222, "velocity": 0, "pitch": 36, "instrument": 0, "track": 9, "qtime": 30, "isDrum": true}, {"time": 222, "velocity": 0, "pitch": 42, "instrument": 0, "track": 9, "qtime": 30, "isDrum": true}, {"time": 222, "velocity": 108, "pitch": 46, "instrument": 0, "track": 9, "qtime": 30, "isDrum": true}, {"time": 228, "velocity": 0, "pitch": 46, "instrument": 0, "track": 9, "qtime": 36, "isDrum": true}, {"time": 228, "velocity": 108, "pitch": 38, "instrument": 0, "track": 9, "qtime": 36, "isDrum": true}, {"time": 228, "velocity": 108, "pitch": 42, "instrument": 0, "track": 9, "qtime": 36, "isDrum": true}, {"time": 234, "velocity": 0, "pitch": 38, "instrument": 0, "track": 9, "qtime": 42, "isDrum": true}, {"time": 234, "velocity": 0, "pitch": 42, "instrument": 0, "track": 9, "qtime": 42, "isDrum": true}, {"time": 234, "velocity": 108, "pitch": 46, "instrument": 0, "track": 9, "qtime": 42, "isDrum": true}, {"time": 240, "velocity": 0, "pitch": 46, "instrument": 0, "track": 9, "qtime": 48, "isDrum": true}, {"time": 240, "velocity": 108, "pitch": 36, "instrument": 0, "track": 9, "qtime": 0, "isDrum": true}, {"time": 240, "velocity": 108, "pitch": 42, "instrument": 0, "track": 9, "qtime": 0, "isDrum": true}, {"time": 246, "velocity": 0, "pitch": 36, "instrument": 0, "track": 9, "qtime": 6, "isDrum": true}, {"time": 246, "velocity": 0, "pitch": 42, "instrument": 0, "track": 9, "qtime": 6, "isDrum": true}, {"time": 246, "velocity": 108, "pitch": 46, "instrument": 0, "track": 9, "qtime": 6, "isDrum": true}, {"time": 252, "velocity": 0, "pitch": 46, "instrument": 0, "track": 9, "qtime": 12, "isDrum": true}, {"time": 252, "velocity": 108, "pitch": 38, "instrument": 0, "track": 9, "qtime": 12, "isDrum": true}, {"time": 252, "velocity": 108, "pitch": 42, "instrument": 0, "track": 9, "qtime": 12, "isDrum": true}, {"time": 258, "velocity": 0, "pitch": 38, "instrument": 0, "track": 9, "qtime": 18, "isDrum": true}, {"time": 258, "velocity": 0, "pitch": 42, "instrument": 0, "track": 9, "qtime": 18, "isDrum": true}, {"time": 258, "velocity": 108, "pitch": 36, "instrument": 0, "track": 9, "qtime": 18, "isDrum": true}, {"time": 258, "velocity": 108, "pitch": 46, "instrument": 0, "track": 9, "qtime": 18, "isDrum": true}, {"time": 264, "velocity": 0, "pitch": 36, "instrument": 0, "track": 9, "qtime": 24, "isDrum": true}, {"time": 264, "velocity": 0, "pitch": 46, "instrument": 0, "track": 9, "qtime": 24, "isDrum": true}, {"time": 264, "velocity": 108, "pitch": 36, "instrument": 0, "track": 9, "qtime": 24, "isDrum": true}, {"time": 264, "velocity": 108, "pitch": 42, "instrument": 0, "track": 9, "qtime": 24, "isDrum": true}, {"time": 270, "velocity": 0, "pitch": 36, "instrument": 0, "track": 9, "qtime": 30, "isDrum": true}, {"time": 270, "velocity": 0, "pitch": 42, "instrument": 0, "track": 9, "qtime": 30, "isDrum": true}, {"time": 270, "velocity": 108, "pitch": 46, "instrument": 0, "track": 9, "qtime": 30, "isDrum": true}, {"time": 276, "velocity": 0, "pitch": 46, "instrument": 0, "track": 9, "qtime": 36, "isDrum": true}, {"time": 276, "velocity": 108, "pitch": 38, "instrument": 0, "track": 9, "qtime": 36, "isDrum": true}, {"time": 276, "velocity": 108, "pitch": 42, "instrument": 0, "track": 9, "qtime": 36, "isDrum": true}, {"time": 282, "velocity": 0, "pitch": 38, "instrument": 0, "track": 9, "qtime": 42, "isDrum": true}, {"time": 282, "velocity": 0, "pitch": 42, "instrument": 0, "track": 9, "qtime": 42, "isDrum": true}, {"time": 282, "velocity": 108, "pitch": 46, "instrument": 0, "track": 9, "qtime": 42, "isDrum": true}, {"time": 288, "velocity": 0, "pitch": 46, "instrument": 0, "track": 9, "qtime": 48, "isDrum": true}, {"time": 288, "velocity": 108, "pitch": 36, "instrument": 0, "track": 9, "qtime": 0, "isDrum": true}, {"time": 288, "velocity": 108, "pitch": 42, "instrument": 0, "track": 9, "qtime": 0, "isDrum": true}, {"time": 294, "velocity": 0, "pitch": 36, "instrument": 0, "track": 9, "qtime": 6, "isDrum": true}, {"time": 294, "velocity": 0, "pitch": 42, "instrument": 0, "track": 9, "qtime": 6, "isDrum": true}, {"time": 294, "velocity": 108, "pitch": 46, "instrument": 0, "track": 9, "qtime": 6, "isDrum": true}, {"time": 300, "velocity": 0, "pitch": 46, "instrument": 0, "track": 9, "qtime": 12, "isDrum": true}, {"time": 300, "velocity": 108, "pitch": 38, "instrument": 0, "track": 9, "qtime": 12, "isDrum": true}, {"time": 300, "velocity": 108, "pitch": 42, "instrument": 0, "track": 9, "qtime": 12, "isDrum": true}, {"time": 306, "velocity": 0, "pitch": 38, "instrument": 0, "track": 9, "qtime": 18, "isDrum": true}, {"time": 306, "velocity": 0, "pitch": 42, "instrument": 0, "track": 9, "qtime": 18, "isDrum": true}, {"time": 306, "velocity": 108, "pitch": 36, "instrument": 0, "track": 9, "qtime": 18, "isDrum": true}, {"time": 306, "velocity": 108, "pitch": 46, "instrument": 0, "track": 9, "qtime": 18, "isDrum": true}, {"time": 312, "velocity": 0, "pitch": 36, "instrument": 0, "track": 9, "qtime": 24, "isDrum": true}, {"time": 312, "velocity": 0, "pitch": 46, "instrument": 0, "track": 9, "qtime": 24, "isDrum": true}, {"time": 312, "velocity": 108, "pitch": 36, "instrument": 0, "track": 9, "qtime": 24, "isDrum": true}, {"time": 312, "velocity": 108, "pitch": 42, "instrument": 0, "track": 9, "qtime": 24, "isDrum": true}, {"time": 318, "velocity": 0, "pitch": 36, "instrument": 0, "track": 9, "qtime": 30, "isDrum": true}, {"time": 318, "velocity": 0, "pitch": 42, "instrument": 0, "track": 9, "qtime": 30, "isDrum": true}, {"time": 318, "velocity": 108, "pitch": 46, "instrument": 0, "track": 9, "qtime": 30, "isDrum": true}, {"time": 324, "velocity": 0, "pitch": 46, "instrument": 0, "track": 9, "qtime": 36, "isDrum": true}, {"time": 324, "velocity": 108, "pitch": 38, "instrument": 0, "track": 9, "qtime": 36, "isDrum": true}, {"time": 324, "velocity": 108, "pitch": 42, "instrument": 0, "track": 9, "qtime": 36, "isDrum": true}, {"time": 330, "velocity": 0, "pitch": 38, "instrument": 0, "track": 9, "qtime": 42, "isDrum": true}, {"time": 330, "velocity": 0, "pitch": 42, "instrument": 0, "track": 9, "qtime": 42, "isDrum": true}, {"time": 330, "velocity": 108, "pitch": 46, "instrument": 0, "track": 9, "qtime": 42, "isDrum": true}, {"time": 336, "velocity": 0, "pitch": 46, "instrument": 0, "track": 9, "qtime": 48, "isDrum": true}, {"time": 336, "velocity": 108, "pitch": 36, "instrument": 0, "track": 9, "qtime": 0, "isDrum": true}, {"time": 336, "velocity": 108, "pitch": 42, "instrument": 0, "track": 9, "qtime": 0, "isDrum": true}, {"time": 342, "velocity": 0, "pitch": 36, "instrument": 0, "track": 9, "qtime": 6, "isDrum": true}, {"time": 342, "velocity": 0, "pitch": 42, "instrument": 0, "track": 9, "qtime": 6, "isDrum": true}, {"time": 342, "velocity": 108, "pitch": 46, "instrument": 0, "track": 9, "qtime": 6, "isDrum": true}, {"time": 348, "velocity": 0, "pitch": 46, "instrument": 0, "track": 9, "qtime": 12, "isDrum": true}, {"time": 348, "velocity": 108, "pitch": 38, "instrument": 0, "track": 9, "qtime": 12, "isDrum": true}, {"time": 348, "velocity": 108, "pitch": 42, "instrument": 0, "track": 9, "qtime": 12, "isDrum": true}, {"time": 354, "velocity": 0, "pitch": 38, "instrument": 0, "track": 9, "qtime": 18, "isDrum": true}, {"time": 354, "velocity": 0, "pitch": 42, "instrument": 0, "track": 9, "qtime": 18, "isDrum": true}, {"time": 354, "velocity": 108, "pitch": 36, "instrument": 0, "track": 9, "qtime": 18, "isDrum": true}, {"time": 354, "velocity": 108, "pitch": 46, "instrument": 0, "track": 9, "qtime": 18, "isDrum": true}, {"time": 360, "velocity": 0, "pitch": 36, "instrument": 0, "track": 9, "qtime": 24, "isDrum": true}, {"time": 360, "velocity": 0, "pitch": 46, "instrument": 0, "track": 9, "qtime": 24, "isDrum": true}, {"time": 360, "velocity": 108, "pitch": 36, "instrument": 0, "track": 9, "qtime": 24, "isDrum": true}, {"time": 360, "velocity": 108, "pitch": 42, "instrument": 0, "track": 9, "qtime": 24, "isDrum": true}, {"time": 366, "velocity": 0, "pitch": 36, "instrument": 0, "track": 9, "qtime": 30, "isDrum": true}, {"time": 366, "velocity": 0, "pitch": 42, "instrument": 0, "track": 9, "qtime": 30, "isDrum": true}, {"time": 366, "velocity": 108, "pitch": 46, "instrument": 0, "track": 9, "qtime": 30, "isDrum": true}, {"time": 372, "velocity": 0, "pitch": 46, "instrument": 0, "track": 9, "qtime": 36, "isDrum": true}, {"time": 372, "velocity": 108, "pitch": 38, "instrument": 0, "track": 9, "qtime": 36, "isDrum": true}, {"time": 372, "velocity": 108, "pitch": 42, "instrument": 0, "track": 9, "qtime": 36, "isDrum": true}, {"time": 378, "velocity": 0, "pitch": 38, "instrument": 0, "track": 9, "qtime": 42, "isDrum": true}, {"time": 378, "velocity": 0, "pitch": 42, "instrument": 0, "track": 9, "qtime": 42, "isDrum": true}, {"time": 378, "velocity": 108, "pitch": 46, "instrument": 0, "track": 9, "qtime": 42, "isDrum": true}, {"time": 384, "velocity": 0, "pitch": 46, "instrument": 0, "track": 9, "qtime": 48, "isDrum": true}], "resolution": 12, "tempo": 120, "minPitch": 36, "maxPitch": 77, "validSegments": [0], "validTracks": [31]}, "audio": "https://www.sfu.ca/~jeffe/examples/8b_bach_101_7_w_drums.mp3"}, {"src": "gen/8b_bach_101_7_w_drums_guitar.json", "highlights": [[], [], [], [], [], [0, 1, 2, 3, 4, 5, 6, 7]], "caption": "Add a guitar track to 23d.", "sample_id": "23e", "mixer": [8, 8, 8, 8, 8, 8], "json": {"tracks": [{"bars": [{"events": [0, 1, 2, 3, 4, 5, 6, 7], "isFourFour": true, "hasNotes": true, "time": 0}, {"events": [8, 9, 10, 11, 12, 13, 14, 15], "isFourFour": true, "hasNotes": true, "time": 48}, {"events": [16, 17, 18, 19, 20, 21, 22, 23], "isFourFour": true, "hasNotes": true, "time": 96}, {"events": [24, 25, 26, 27, 28, 29, 30, 31], "isFourFour": true, "hasNotes": true, "time": 144}, {"events": [32, 33, 34, 35, 36, 37, 38, 39, 40, 41], "isFourFour": true, "hasNotes": true, "time": 192}, {"events": [42, 43, 44, 45, 46, 47, 48, 49], "isFourFour": true, "hasNotes": true, "time": 240}, {"events": [50, 51, 52, 53, 54, 55, 56, 57], "isFourFour": true, "hasNotes": true, "time": 288}, {"events": [58, 59, 60, 61, 62, 63, 64, 65], "isFourFour": true, "hasNotes": true, "time": 336}], "isDrum": false, "minPitch": 65, "maxPitch": 77, "instrument": 0, "avPolyphony": 1, "noteDensity": 9, "noteDensityV2": 2}, {"bars": [{"events": [66, 67, 68, 69, 70, 71, 72, 73], "isFourFour": true, "hasNotes": true, "time": 0}, {"events": [74, 75, 76, 77, 78, 79, 80, 81], "isFourFour": true, "hasNotes": true, "time": 48}, {"events": [82, 83, 84, 85, 86, 87, 88, 89, 90, 91], "isFourFour": true, "hasNotes": true, "time": 96}, {"events": [92, 93, 94, 95, 96, 97, 98, 99], "isFourFour": true, "hasNotes": true, "time": 144}, {"events": [100, 101, 102, 103, 104, 105, 106, 107, 108, 109, 110, 111], "isFourFour": true, "hasNotes": true, "time": 192}, {"events": [112, 113, 114, 115, 116, 117, 118, 119, 120, 121], "isFourFour": true, "hasNotes": true, "time": 240}, {"events": [122, 123, 124, 125, 126, 127, 128, 129, 130, 131], "isFourFour": true, "hasNotes": true, "time": 288}, {"events": [132, 133, 134, 135, 136, 137, 138, 139, 140, 141, 142, 143], "isFourFour": true, "hasNotes": true, "time": 336}], "isDrum": false, "minPitch": 57, "maxPitch": 69, "instrument": 0, "avPolyphony": 1, "noteDensity": 9, "noteDensityV2": 3}, {"bars": [{"events": [144, 145, 146, 147, 148, 149, 150, 151], "isFourFour": true, "hasNotes": true, "time": 0}, {"events": [152, 153, 154, 155, 156, 157, 158, 159], "isFourFour": true, "hasNotes": true, "time": 48}, {"events": [160, 161, 162, 163, 164, 165, 166, 167], "isFourFour": true, "hasNotes": true, "time": 96}, {"events": [168, 169, 170, 171, 172, 173, 174, 175, 176, 177], "isFourFour": true, "hasNotes": true, "time": 144}, {"events": [178, 179, 180, 181, 182, 183, 184, 185], "isFourFour": true, "hasNotes": true, "time": 192}, {"events": [186, 187, 188, 189, 190, 191, 192, 193, 194, 195], "isFourFour": true, "hasNotes": true, "time": 240}, {"events": [196, 197, 198, 199, 200, 201, 202, 203, 204, 205], "isFourFour": true, "hasNotes": true, "time": 288}, {"events": [206, 207, 208, 209, 210, 211, 212, 213], "isFourFour": true, "hasNotes": true, "time": 336}], "isDrum": false, "minPitch": 52, "maxPitch": 65, "instrument": 0, "avPolyphony": 1, "noteDensity": 9, "noteDensityV2": 2}, {"bars": [{"events": [214, 215, 216, 217, 218, 219, 220, 221], "isFourFour": true, "hasNotes": true, "time": 0}, {"events": [222, 223, 224, 225, 226, 227, 228, 229], "isFourFour": true, "hasNotes": true, "time": 48}, {"events": [230, 231, 232, 233, 234, 235, 236, 237, 238, 239], "isFourFour": true, "hasNotes": true, "time": 96}, {"events": [240, 241, 242, 243, 244, 245, 246, 247], "isFourFour": true, "hasNotes": true, "time": 144}, {"events": [248, 249, 250, 251, 252, 253, 254, 255], "isFourFour": true, "hasNotes": true, "time": 192}, {"events": [256, 257, 258, 259, 260, 261, 262, 263, 264, 265], "isFourFour": true, "hasNotes": true, "time": 240}, {"events": [266, 267, 268, 269, 270, 271, 272, 273, 274, 275], "isFourFour": true, "hasNotes": true, "time": 288}, {"events": [276, 277, 278, 279, 280, 281, 282, 283], "isFourFour": true, "hasNotes": true, "time": 336}], "isDrum": false, "minPitch": 43, "maxPitch": 60, "instrument": 0, "avPolyphony": 1, "noteDensity": 9, "noteDensityV2": 2}, {"bars": [{"events": [284, 285, 286, 287, 288, 289, 290, 291, 292, 293, 294, 295, 296, 297, 298, 299, 300, 301, 302, 303, 304, 305, 306, 307, 308, 309], "isFourFour": true, "hasNotes": true, "time": 0}, {"events": [310, 311, 312, 313, 314, 315, 316, 317, 318, 319, 320, 321, 322, 323, 324, 325, 326, 327, 328, 329, 330, 331, 332, 333, 334, 335], "isFourFour": true, "hasNotes": true, "time": 48}, {"events": [336, 337, 338, 339, 340, 341, 342, 343, 344, 345, 346, 347, 348, 349, 350, 351, 352, 353, 354, 355, 356, 357, 358, 359, 360, 361], "isFourFour": true, "hasNotes": true, "time": 96}, {"events": [362, 363, 364, 365, 366, 367, 368, 369, 370, 371, 372, 373, 374, 375, 376, 377, 378, 379, 380, 381, 382, 383, 384, 385, 386, 387], "isFourFour": true, "hasNotes": true, "time": 144}, {"events": [388, 389, 390, 391, 392, 393, 394, 395, 396, 397, 398, 399, 400, 401, 402, 403, 404, 405, 406, 407, 408, 409, 410, 411, 412, 413], "isFourFour": true, "hasNotes": true, "time": 192}, {"events": [414, 415, 416, 417, 418, 419, 420, 421, 422, 423, 424, 425, 426, 427, 428, 429, 430, 431, 432, 433, 434, 435, 436, 437, 438, 439], "isFourFour": true, "hasNotes": true, "time": 240}, {"events": [440, 441, 442, 443, 444, 445, 446, 447, 448, 449, 450, 451, 452, 453, 454, 455, 456, 457, 458, 459, 460, 461, 462, 463, 464, 465], "isFourFour": true, "hasNotes": true, "time": 288}, {"events": [466, 467, 468, 469, 470, 471, 472, 473, 474, 475, 476, 477, 478, 479, 480, 481, 482, 483, 484, 485, 486, 487, 488, 489, 490, 491], "isFourFour": true, "hasNotes": true, "time": 336}], "isDrum": true, "minPitch": 36, "maxPitch": 46, "instrument": 0, "avPolyphony": 1.625, "noteDensity": 9, "noteDensityV2": 6}, {"bars": [{"events": [492, 493, 494, 495, 496, 497, 498, 499, 500, 501, 502, 503, 504, 505, 506, 507], "isFourFour": true, "hasNotes": true, "time": 0}, {"events": [508, 509, 510, 511, 512, 513, 514, 515], "isFourFour": true, "hasNotes": true, "time": 48}, {"events": [516, 517, 518, 519, 520, 521, 522, 523, 524, 525, 526, 527], "isFourFour": true, "hasNotes": true, "time": 96}, {"events": [528, 529, 530, 531, 532, 533, 534, 535], "isFourFour": true, "hasNotes": true, "time": 144}, {"events": [536, 537, 538, 539, 540, 541, 542, 543], "isFourFour": true, "hasNotes": true, "time": 192}, {"events": [544, 545, 546, 547, 548, 549, 550, 551], "isFourFour": true, "hasNotes": true, "time": 240}, {"events": [552, 553, 554, 555, 556, 557, 558, 559, 560, 561, 562, 563, 564, 565], "isFourFour": true, "hasNotes": true, "time": 288}, {"events": [566, 567], "isFourFour": true, "hasNotes": true, "time": 336}], "isDrum": false, "minPitch": 62, "maxPitch": 81, "instrument": 26, "avPolyphony": 1, "noteDensity": 9, "noteDensityV2": 3}], "events": [{"time": 0, "velocity": 108, "pitch": 69, "instrument": 0, "track": 0, "qtime": 0, "isDrum": false}, {"time": 12, "velocity": 0, "pitch": 69, "instrument": 0, "track": 0, "qtime": 12, "isDrum": false}, {"time": 12, "velocity": 108, "pitch": 69, "instrument": 0, "track": 0, "qtime": 12, "isDrum": false}, {"time": 24, "velocity": 0, "pitch": 69, "instrument": 0, "track": 0, "qtime": 24, "isDrum": false}, {"time": 24, "velocity": 108, "pitch": 67, "instrument": 0, "track": 0, "qtime": 24, "isDrum": false}, {"time": 36, "velocity": 0, "pitch": 67, "instrument": 0, "track": 0, "qtime": 36, "isDrum": false}, {"time": 36, "velocity": 108, "pitch": 65, "instrument": 0, "track": 0, "qtime": 36, "isDrum": false}, {"time": 48, "velocity": 0, "pitch": 65, "instrument": 0, "track": 0, "qtime": 48, "isDrum": false}, {"time": 48, "velocity": 108, "pitch": 69, "instrument": 0, "track": 0, "qtime": 0, "isDrum": false}, {"time": 60, "velocity": 0, "pitch": 69, "instrument": 0, "track": 0, "qtime": 12, "isDrum": false}, {"time": 60, "velocity": 108, "pitch": 67, "instrument": 0, "track": 0, "qtime": 12, "isDrum": false}, {"time": 72, "velocity": 0, "pitch": 67, "instrument": 0, "track": 0, "qtime": 24, "isDrum": false}, {"time": 72, "velocity": 108, "pitch": 69, "instrument": 0, "track": 0, "qtime": 24, "isDrum": false}, {"time": 84, "velocity": 0, "pitch": 69, "instrument": 0, "track": 0, "qtime": 36, "isDrum": false}, {"time": 84, "velocity": 108, "pitch": 65, "instrument": 0, "track": 0, "qtime": 36, "isDrum": false}, {"time": 96, "velocity": 0, "pitch": 65, "instrument": 0, "track": 0, "qtime": 48, "isDrum": false}, {"time": 96, "velocity": 108, "pitch": 69, "instrument": 0, "track": 0, "qtime": 0, "isDrum": false}, {"time": 108, "velocity": 0, "pitch": 69, "instrument": 0, "track": 0, "qtime": 12, "isDrum": false}, {"time": 108, "velocity": 108, "pitch": 69, "instrument": 0, "track": 0, "qtime": 12, "isDrum": false}, {"time": 120, "velocity": 0, "pitch": 69, "instrument": 0, "track": 0, "qtime": 24, "isDrum": false}, {"time": 120, "velocity": 108, "pitch": 67, "instrument": 0, "track": 0, "qtime": 24, "isDrum": false}, {"time": 132, "velocity": 0, "pitch": 67, "instrument": 0, "track": 0, "qtime": 36, "isDrum": false}, {"time": 132, "velocity": 108, "pitch": 72, "instrument": 0, "track": 0, "qtime": 36, "isDrum": false}, {"time": 144, "velocity": 0, "pitch": 72, "instrument": 0, "track": 0, "qtime": 48, "isDrum": false}, {"time": 144, "velocity": 108, "pitch": 69, "instrument": 0, "track": 0, "qtime": 0, "isDrum": false}, {"time": 156, "velocity": 0, "pitch": 69, "instrument": 0, "track": 0, "qtime": 12, "isDrum": false}, {"time": 156, "velocity": 108, "pitch": 65, "instrument": 0, "track": 0, "qtime": 12, "isDrum": false}, {"time": 168, "velocity": 0, "pitch": 65, "instrument": 0, "track": 0, "qtime": 24, "isDrum": false}, {"time": 168, "velocity": 108, "pitch": 67, "instrument": 0, "track": 0, "qtime": 24, "isDrum": false}, {"time": 180, "velocity": 0, "pitch": 67, "instrument": 0, "track": 0, "qtime": 36, "isDrum": false}, {"time": 180, "velocity": 108, "pitch": 69, "instrument": 0, "track": 0, "qtime": 36, "isDrum": false}, {"time": 192, "velocity": 0, "pitch": 69, "instrument": 0, "track": 0, "qtime": 48, "isDrum": false}, {"time": 192, "velocity": 108, "pitch": 69, "instrument": 0, "track": 0, "qtime": 0, "isDrum": false}, {"time": 204, "velocity": 0, "pitch": 69, "instrument": 0, "track": 0, "qtime": 12, "isDrum": false}, {"time": 204, "velocity": 108, "pitch": 72, "instrument": 0, "track": 0, "qtime": 12, "isDrum": false}, {"time": 216, "velocity": 0, "pitch": 72, "instrument": 0, "track": 0, "qtime": 24, "isDrum": false}, {"time": 216, "velocity": 108, "pitch": 74, "instrument": 0, "track": 0, "qtime": 24, "isDrum": false}, {"time": 222, "velocity": 0, "pitch": 74, "instrument": 0, "track": 0, "qtime": 30, "isDrum": false}, {"time": 222, "velocity": 108, "pitch": 76, "instrument": 0, "track": 0, "qtime": 30, "isDrum": false}, {"time": 228, "velocity": 0, "pitch": 76, "instrument": 0, "track": 0, "qtime": 36, "isDrum": false}, {"time": 228, "velocity": 108, "pitch": 77, "instrument": 0, "track": 0, "qtime": 36, "isDrum": false}, {"time": 240, "velocity": 0, "pitch": 77, "instrument": 0, "track": 0, "qtime": 48, "isDrum": false}, {"time": 240, "velocity": 108, "pitch": 76, "instrument": 0, "track": 0, "qtime": 0, "isDrum": false}, {"time": 252, "velocity": 0, "pitch": 76, "instrument": 0, "track": 0, "qtime": 12, "isDrum": false}, {"time": 252, "velocity": 108, "pitch": 74, "instrument": 0, "track": 0, "qtime": 12, "isDrum": false}, {"time": 264, "velocity": 0, "pitch": 74, "instrument": 0, "track": 0, "qtime": 24, "isDrum": false}, {"time": 264, "velocity": 108, "pitch": 73, "instrument": 0, "track": 0, "qtime": 24, "isDrum": false}, {"time": 276, "velocity": 0, "pitch": 73, "instrument": 0, "track": 0, "qtime": 36, "isDrum": false}, {"time": 276, "velocity": 108, "pitch": 74, "instrument": 0, "track": 0, "qtime": 36, "isDrum": false}, {"time": 288, "velocity": 0, "pitch": 74, "instrument": 0, "track": 0, "qtime": 48, "isDrum": false}, {"time": 288, "velocity": 108, "pitch": 74, "instrument": 0, "track": 0, "qtime": 0, "isDrum": false}, {"time": 300, "velocity": 0, "pitch": 74, "instrument": 0, "track": 0, "qtime": 12, "isDrum": false}, {"time": 300, "velocity": 108, "pitch": 76, "instrument": 0, "track": 0, "qtime": 12, "isDrum": false}, {"time": 312, "velocity": 0, "pitch": 76, "instrument": 0, "track": 0, "qtime": 24, "isDrum": false}, {"time": 312, "velocity": 108, "pitch": 74, "instrument": 0, "track": 0, "qtime": 24, "isDrum": false}, {"time": 324, "velocity": 0, "pitch": 74, "instrument": 0, "track": 0, "qtime": 36, "isDrum": false}, {"time": 324, "velocity": 108, "pitch": 72, "instrument": 0, "track": 0, "qtime": 36, "isDrum": false}, {"time": 336, "velocity": 0, "pitch": 72, "instrument": 0, "track": 0, "qtime": 48, "isDrum": false}, {"time": 336, "velocity": 108, "pitch": 71, "instrument": 0, "track": 0, "qtime": 0, "isDrum": false}, {"time": 348, "velocity": 0, "pitch": 71, "instrument": 0, "track": 0, "qtime": 12, "isDrum": false}, {"time": 348, "velocity": 108, "pitch": 69, "instrument": 0, "track": 0, "qtime": 12, "isDrum": false}, {"time": 360, "velocity": 0, "pitch": 69, "instrument": 0, "track": 0, "qtime": 24, "isDrum": false}, {"time": 360, "velocity": 108, "pitch": 71, "instrument": 0, "track": 0, "qtime": 24, "isDrum": false}, {"time": 372, "velocity": 0, "pitch": 71, "instrument": 0, "track": 0, "qtime": 36, "isDrum": false}, {"time": 372, "velocity": 108, "pitch": 69, "instrument": 0, "track": 0, "qtime": 36, "isDrum": false}, {"time": 384, "velocity": 0, "pitch": 69, "instrument": 0, "track": 0, "qtime": 48, "isDrum": false}, {"time": 0, "velocity": 108, "pitch": 65, "instrument": 0, "track": 1, "qtime": 0, "isDrum": false}, {"time": 12, "velocity": 0, "pitch": 65, "instrument": 0, "track": 1, "qtime": 12, "isDrum": false}, {"time": 12, "velocity": 108, "pitch": 64, "instrument": 0, "track": 1, "qtime": 12, "isDrum": false}, {"time": 24, "velocity": 0, "pitch": 64, "instrument": 0, "track": 1, "qtime": 24, "isDrum": false}, {"time": 24, "velocity": 108, "pitch": 62, "instrument": 0, "track": 1, "qtime": 24, "isDrum": false}, {"time": 36, "velocity": 0, "pitch": 62, "instrument": 0, "track": 1, "qtime": 36, "isDrum": false}, {"time": 36, "velocity": 108, "pitch": 62, "instrument": 0, "track": 1, "qtime": 36, "isDrum": false}, {"time": 48, "velocity": 0, "pitch": 62, "instrument": 0, "track": 1, "qtime": 48, "isDrum": false}, {"time": 48, "velocity": 108, "pitch": 62, "instrument": 0, "track": 1, "qtime": 0, "isDrum": false}, {"time": 60, "velocity": 0, "pitch": 62, "instrument": 0, "track": 1, "qtime": 12, "isDrum": false}, {"time": 60, "velocity": 108, "pitch": 62, "instrument": 0, "track": 1, "qtime": 12, "isDrum": false}, {"time": 72, "velocity": 0, "pitch": 62, "instrument": 0, "track": 1, "qtime": 24, "isDrum": false}, {"time": 72, "velocity": 108, "pitch": 61, "instrument": 0, "track": 1, "qtime": 24, "isDrum": false}, {"time": 84, "velocity": 0, "pitch": 61, "instrument": 0, "track": 1, "qtime": 36, "isDrum": false}, {"time": 84, "velocity": 108, "pitch": 57, "instrument": 0, "track": 1, "qtime": 36, "isDrum": false}, {"time": 96, "velocity": 0, "pitch": 57, "instrument": 0, "track": 1, "qtime": 48, "isDrum": false}, {"time": 96, "velocity": 108, "pitch": 65, "instrument": 0, "track": 1, "qtime": 0, "isDrum": false}, {"time": 108, "velocity": 0, "pitch": 65, "instrument": 0, "track": 1, "qtime": 12, "isDrum": false}, {"time": 108, "velocity": 108, "pitch": 65, "instrument": 0, "track": 1, "qtime": 12, "isDrum": false}, {"time": 120, "velocity": 0, "pitch": 65, "instrument": 0, "track": 1, "qtime": 24, "isDrum": false}, {"time": 120, "velocity": 108, "pitch": 67, "instrument": 0, "track": 1, "qtime": 24, "isDrum": false}, {"time": 126, "velocity": 0, "pitch": 67, "instrument": 0, "track": 1, "qtime": 30, "isDrum": false}, {"time": 126, "velocity": 108, "pitch": 65, "instrument": 0, "track": 1, "qtime": 30, "isDrum": false}, {"time": 132, "velocity": 0, "pitch": 65, "instrument": 0, "track": 1, "qtime": 36, "isDrum": false}, {"time": 132, "velocity": 108, "pitch": 64, "instrument": 0, "track": 1, "qtime": 36, "isDrum": false}, {"time": 144, "velocity": 0, "pitch": 64, "instrument": 0, "track": 1, "qtime": 48, "isDrum": false}, {"time": 144, "velocity": 108, "pitch": 65, "instrument": 0, "track": 1, "qtime": 0, "isDrum": false}, {"time": 156, "velocity": 0, "pitch": 65, "instrument": 0, "track": 1, "qtime": 12, "isDrum": false}, {"time": 156, "velocity": 108, "pitch": 62, "instrument": 0, "track": 1, "qtime": 12, "isDrum": false}, {"time": 168, "velocity": 0, "pitch": 62, "instrument": 0, "track": 1, "qtime": 24, "isDrum": false}, {"time": 168, "velocity": 108, "pitch": 62, "instrument": 0, "track": 1, "qtime": 24, "isDrum": false}, {"time": 180, "velocity": 0, "pitch": 62, "instrument": 0, "track": 1, "qtime": 36, "isDrum": false}, {"time": 180, "velocity": 108, "pitch": 61, "instrument": 0, "track": 1, "qtime": 36, "isDrum": false}, {"time": 192, "velocity": 0, "pitch": 61, "instrument": 0, "track": 1, "qtime": 48, "isDrum": false}, {"time": 192, "velocity": 108, "pitch": 62, "instrument": 0, "track": 1, "qtime": 0, "isDrum": false}, {"time": 204, "velocity": 0, "pitch": 62, "instrument": 0, "track": 1, "qtime": 12, "isDrum": false}, {"time": 204, "velocity": 108, "pitch": 64, "instrument": 0, "track": 1, "qtime": 12, "isDrum": false}, {"time": 210, "velocity": 0, "pitch": 64, "instrument": 0, "track": 1, "qtime": 18, "isDrum": false}, {"time": 210, "velocity": 108, "pitch": 65, "instrument": 0, "track": 1, "qtime": 18, "isDrum": false}, {"time": 216, "velocity": 0, "pitch": 65, "instrument": 0, "track": 1, "qtime": 24, "isDrum": false}, {"time": 216, "velocity": 108, "pitch": 65, "instrument": 0, "track": 1, "qtime": 24, "isDrum": false}, {"time": 228, "velocity": 0, "pitch": 65, "instrument": 0, "track": 1, "qtime": 36, "isDrum": false}, {"time": 228, "velocity": 108, "pitch": 64, "instrument": 0, "track": 1, "qtime": 36, "isDrum": false}, {"time": 234, "velocity": 0, "pitch": 64, "instrument": 0, "track": 1, "qtime": 42, "isDrum": false}, {"time": 234, "velocity": 108, "pitch": 65, "instrument": 0, "track": 1, "qtime": 42, "isDrum": false}, {"time": 240, "velocity": 0, "pitch": 65, "instrument": 0, "track": 1, "qtime": 48, "isDrum": false}, {"time": 240, "velocity": 108, "pitch": 67, "instrument": 0, "track": 1, "qtime": 0, "isDrum": false}, {"time": 252, "velocity": 0, "pitch": 67, "instrument": 0, "track": 1, "qtime": 12, "isDrum": false}, {"time": 252, "velocity": 108, "pitch": 67, "instrument": 0, "track": 1, "qtime": 12, "isDrum": false}, {"time": 258, "velocity": 0, "pitch": 67, "instrument": 0, "track": 1, "qtime": 18, "isDrum": false}, {"time": 258, "velocity": 108, "pitch": 66, "instrument": 0, "track": 1, "qtime": 18, "isDrum": false}, {"time": 264, "velocity": 0, "pitch": 66, "instrument": 0, "track": 1, "qtime": 24, "isDrum": false}, {"time": 264, "velocity": 108, "pitch": 64, "instrument": 0, "track": 1, "qtime": 24, "isDrum": false}, {"time": 276, "velocity": 0, "pitch": 64, "instrument": 0, "track": 1, "qtime": 36, "isDrum": false}, {"time": 276, "velocity": 108, "pitch": 65, "instrument": 0, "track": 1, "qtime": 36, "isDrum": false}, {"time": 288, "velocity": 0, "pitch": 65, "instrument": 0, "track": 1, "qtime": 48, "isDrum": false}, {"time": 288, "velocity": 108, "pitch": 67, "instrument": 0, "track": 1, "qtime": 0, "isDrum": false}, {"time": 300, "velocity": 0, "pitch": 67, "instrument": 0, "track": 1, "qtime": 12, "isDrum": false}, {"time": 300, "velocity": 108, "pitch": 67, "instrument": 0, "track": 1, "qtime": 12, "isDrum": false}, {"time": 312, "velocity": 0, "pitch": 67, "instrument": 0, "track": 1, "qtime": 24, "isDrum": false}, {"time": 312, "velocity": 108, "pitch": 66, "instrument": 0, "track": 1, "qtime": 24, "isDrum": false}, {"time": 318, "velocity": 0, "pitch": 66, "instrument": 0, "track": 1, "qtime": 30, "isDrum": false}, {"time": 318, "velocity": 108, "pitch": 68, "instrument": 0, "track": 1, "qtime": 30, "isDrum": false}, {"time": 324, "velocity": 0, "pitch": 68, "instrument": 0, "track": 1, "qtime": 36, "isDrum": false}, {"time": 324, "velocity": 108, "pitch": 69, "instrument": 0, "track": 1, "qtime": 36, "isDrum": false}, {"time": 336, "velocity": 0, "pitch": 69, "instrument": 0, "track": 1, "qtime": 48, "isDrum": false}, {"time": 336, "velocity": 108, "pitch": 64, "instrument": 0, "track": 1, "qtime": 0, "isDrum": false}, {"time": 348, "velocity": 0, "pitch": 64, "instrument": 0, "track": 1, "qtime": 12, "isDrum": false}, {"time": 348, "velocity": 108, "pitch": 64, "instrument": 0, "track": 1, "qtime": 12, "isDrum": false}, {"time": 354, "velocity": 0, "pitch": 64, "instrument": 0, "track": 1, "qtime": 18, "isDrum": false}, {"time": 354, "velocity": 108, "pitch": 69, "instrument": 0, "track": 1, "qtime": 18, "isDrum": false}, {"time": 360, "velocity": 0, "pitch": 69, "instrument": 0, "track": 1, "qtime": 24, "isDrum": false}, {"time": 360, "velocity": 108, "pitch": 69, "instrument": 0, "track": 1, "qtime": 24, "isDrum": false}, {"time": 366, "velocity": 0, "pitch": 69, "instrument": 0, "track": 1, "qtime": 30, "isDrum": false}, {"time": 366, "velocity": 108, "pitch": 68, "instrument": 0, "track": 1, "qtime": 30, "isDrum": false}, {"time": 372, "velocity": 0, "pitch": 68, "instrument": 0, "track": 1, "qtime": 36, "isDrum": false}, {"time": 372, "velocity": 108, "pitch": 64, "instrument": 0, "track": 1, "qtime": 36, "isDrum": false}, {"time": 384, "velocity": 0, "pitch": 64, "instrument": 0, "track": 1, "qtime": 48, "isDrum": false}, {"time": 0, "velocity": 108, "pitch": 62, "instrument": 0, "track": 2, "qtime": 0, "isDrum": false}, {"time": 12, "velocity": 0, "pitch": 62, "instrument": 0, "track": 2, "qtime": 12, "isDrum": false}, {"time": 12, "velocity": 108, "pitch": 57, "instrument": 0, "track": 2, "qtime": 12, "isDrum": false}, {"time": 24, "velocity": 0, "pitch": 57, "instrument": 0, "track": 2, "qtime": 24, "isDrum": false}, {"time": 24, "velocity": 108, "pitch": 57, "instrument": 0, "track": 2, "qtime": 24, "isDrum": false}, {"time": 36, "velocity": 0, "pitch": 57, "instrument": 0, "track": 2, "qtime": 36, "isDrum": false}, {"time": 36, "velocity": 108, "pitch": 58, "instrument": 0, "track": 2, "qtime": 36, "isDrum": false}, {"time": 48, "velocity": 0, "pitch": 58, "instrument": 0, "track": 2, "qtime": 48, "isDrum": false}, {"time": 48, "velocity": 108, "pitch": 57, "instrument": 0, "track": 2, "qtime": 0, "isDrum": false}, {"time": 60, "velocity": 0, "pitch": 57, "instrument": 0, "track": 2, "qtime": 12, "isDrum": false}, {"time": 60, "velocity": 108, "pitch": 58, "instrument": 0, "track": 2, "qtime": 12, "isDrum": false}, {"time": 72, "velocity": 0, "pitch": 58, "instrument": 0, "track": 2, "qtime": 24, "isDrum": false}, {"time": 72, "velocity": 108, "pitch": 52, "instrument": 0, "track": 2, "qtime": 24, "isDrum": false}, {"time": 84, "velocity": 0, "pitch": 52, "instrument": 0, "track": 2, "qtime": 36, "isDrum": false}, {"time": 84, "velocity": 108, "pitch": 53, "instrument": 0, "track": 2, "qtime": 36, "isDrum": false}, {"time": 96, "velocity": 0, "pitch": 53, "instrument": 0, "track": 2, "qtime": 48, "isDrum": false}, {"time": 96, "velocity": 108, "pitch": 57, "instrument": 0, "track": 2, "qtime": 0, "isDrum": false}, {"time": 108, "velocity": 0, "pitch": 57, "instrument": 0, "track": 2, "qtime": 12, "isDrum": false}, {"time": 108, "velocity": 108, "pitch": 60, "instrument": 0, "track": 2, "qtime": 12, "isDrum": false}, {"time": 120, "velocity": 0, "pitch": 60, "instrument": 0, "track": 2, "qtime": 24, "isDrum": false}, {"time": 120, "velocity": 108, "pitch": 60, "instrument": 0, "track": 2, "qtime": 24, "isDrum": false}, {"time": 132, "velocity": 0, "pitch": 60, "instrument": 0, "track": 2, "qtime": 36, "isDrum": false}, {"time": 132, "velocity": 108, "pitch": 60, "instrument": 0, "track": 2, "qtime": 36, "isDrum": false}, {"time": 144, "velocity": 0, "pitch": 60, "instrument": 0, "track": 2, "qtime": 48, "isDrum": false}, {"time": 144, "velocity": 108, "pitch": 60, "instrument": 0, "track": 2, "qtime": 0, "isDrum": false}, {"time": 156, "velocity": 0, "pitch": 60, "instrument": 0, "track": 2, "qtime": 12, "isDrum": false}, {"time": 156, "velocity": 108, "pitch": 62, "instrument": 0, "track": 2, "qtime": 12, "isDrum": false}, {"time": 168, "velocity": 0, "pitch": 62, "instrument": 0, "track": 2, "qtime": 24, "isDrum": false}, {"time": 168, "velocity": 108, "pitch": 62, "instrument": 0, "track": 2, "qtime": 24, "isDrum": false}, {"time": 180, "velocity": 0, "pitch": 62, "instrument": 0, "track": 2, "qtime": 36, "isDrum": false}, {"time": 180, "velocity": 108, "pitch": 57, "instrument": 0, "track": 2, "qtime": 36, "isDrum": false}, {"time": 186, "velocity": 0, "pitch": 57, "instrument": 0, "track": 2, "qtime": 42, "isDrum": false}, {"time": 186, "velocity": 108, "pitch": 55, "instrument": 0, "track": 2, "qtime": 42, "isDrum": false}, {"time": 192, "velocity": 0, "pitch": 55, "instrument": 0, "track": 2, "qtime": 48, "isDrum": false}, {"time": 192, "velocity": 108, "pitch": 53, "instrument": 0, "track": 2, "qtime": 0, "isDrum": false}, {"time": 204, "velocity": 0, "pitch": 53, "instrument": 0, "track": 2, "qtime": 12, "isDrum": false}, {"time": 204, "velocity": 108, "pitch": 57, "instrument": 0, "track": 2, "qtime": 12, "isDrum": false}, {"time": 216, "velocity": 0, "pitch": 57, "instrument": 0, "track": 2, "qtime": 24, "isDrum": false}, {"time": 216, "velocity": 108, "pitch": 58, "instrument": 0, "track": 2, "qtime": 24, "isDrum": false}, {"time": 228, "velocity": 0, "pitch": 58, "instrument": 0, "track": 2, "qtime": 36, "isDrum": false}, {"time": 228, "velocity": 108, "pitch": 60, "instrument": 0, "track": 2, "qtime": 36, "isDrum": false}, {"time": 240, "velocity": 0, "pitch": 60, "instrument": 0, "track": 2, "qtime": 48, "isDrum": false}, {"time": 240, "velocity": 108, "pitch": 58, "instrument": 0, "track": 2, "qtime": 0, "isDrum": false}, {"time": 246, "velocity": 0, "pitch": 58, "instrument": 0, "track": 2, "qtime": 6, "isDrum": false}, {"time": 246, "velocity": 108, "pitch": 60, "instrument": 0, "track": 2, "qtime": 6, "isDrum": false}, {"time": 252, "velocity": 0, "pitch": 60, "instrument": 0, "track": 2, "qtime": 12, "isDrum": false}, {"time": 252, "velocity": 108, "pitch": 62, "instrument": 0, "track": 2, "qtime": 12, "isDrum": false}, {"time": 264, "velocity": 0, "pitch": 62, "instrument": 0, "track": 2, "qtime": 24, "isDrum": false}, {"time": 264, "velocity": 108, "pitch": 64, "instrument": 0, "track": 2, "qtime": 24, "isDrum": false}, {"time": 276, "velocity": 0, "pitch": 64, "instrument": 0, "track": 2, "qtime": 36, "isDrum": false}, {"time": 276, "velocity": 108, "pitch": 65, "instrument": 0, "track": 2, "qtime": 36, "isDrum": false}, {"time": 288, "velocity": 0, "pitch": 65, "instrument": 0, "track": 2, "qtime": 48, "isDrum": false}, {"time": 288, "velocity": 108, "pitch": 59, "instrument": 0, "track": 2, "qtime": 0, "isDrum": false}, {"time": 300, "velocity": 0, "pitch": 59, "instrument": 0, "track": 2, "qtime": 12, "isDrum": false}, {"time": 300, "velocity": 108, "pitch": 60, "instrument": 0, "track": 2, "qtime": 12, "isDrum": false}, {"time": 306, "velocity": 0, "pitch": 60, "instrument": 0, "track": 2, "qtime": 18, "isDrum": false}, {"time": 306, "velocity": 108, "pitch": 59, "instrument": 0, "track": 2, "qtime": 18, "isDrum": false}, {"time": 312, "velocity": 0, "pitch": 59, "instrument": 0, "track": 2, "qtime": 24, "isDrum": false}, {"time": 312, "velocity": 108, "pitch": 57, "instrument": 0, "track": 2, "qtime": 24, "isDrum": false}, {"time": 324, "velocity": 0, "pitch": 57, "instrument": 0, "track": 2, "qtime": 36, "isDrum": false}, {"time": 324, "velocity": 108, "pitch": 62, "instrument": 0, "track": 2, "qtime": 36, "isDrum": false}, {"time": 336, "velocity": 0, "pitch": 62, "instrument": 0, "track": 2, "qtime": 48, "isDrum": false}, {"time": 336, "velocity": 108, "pitch": 62, "instrument": 0, "track": 2, "qtime": 0, "isDrum": false}, {"time": 348, "velocity": 0, "pitch": 62, "instrument": 0, "track": 2, "qtime": 12, "isDrum": false}, {"time": 348, "velocity": 108, "pitch": 60, "instrument": 0, "track": 2, "qtime": 12, "isDrum": false}, {"time": 360, "velocity": 0, "pitch": 60, "instrument": 0, "track": 2, "qtime": 24, "isDrum": false}, {"time": 360, "velocity": 108, "pitch": 62, "instrument": 0, "track": 2, "qtime": 24, "isDrum": false}, {"time": 372, "velocity": 0, "pitch": 62, "instrument": 0, "track": 2, "qtime": 36, "isDrum": false}, {"time": 372, "velocity": 108, "pitch": 60, "instrument": 0, "track": 2, "qtime": 36, "isDrum": false}, {"time": 384, "velocity": 0, "pitch": 60, "instrument": 0, "track": 2, "qtime": 48, "isDrum": false}, {"time": 0, "velocity": 108, "pitch": 50, "instrument": 0, "track": 3, "qtime": 0, "isDrum": false}, {"time": 12, "velocity": 0, "pitch": 50, "instrument": 0, "track": 3, "qtime": 12, "isDrum": false}, {"time": 12, "velocity": 108, "pitch": 49, "instrument": 0, "track": 3, "qtime": 12, "isDrum": false}, {"time": 24, "velocity": 0, "pitch": 49, "instrument": 0, "track": 3, "qtime": 24, "isDrum": false}, {"time": 24, "velocity": 108, "pitch": 50, "instrument": 0, "track": 3, "qtime": 24, "isDrum": false}, {"time": 36, "velocity": 0, "pitch": 50, "instrument": 0, "track": 3, "qtime": 36, "isDrum": false}, {"time": 36, "velocity": 108, "pitch": 58, "instrument": 0, "track": 3, "qtime": 36, "isDrum": false}, {"time": 48, "velocity": 0, "pitch": 58, "instrument": 0, "track": 3, "qtime": 48, "isDrum": false}, {"time": 48, "velocity": 108, "pitch": 53, "instrument": 0, "track": 3, "qtime": 0, "isDrum": false}, {"time": 60, "velocity": 0, "pitch": 53, "instrument": 0, "track": 3, "qtime": 12, "isDrum": false}, {"time": 60, "velocity": 108, "pitch": 55, "instrument": 0, "track": 3, "qtime": 12, "isDrum": false}, {"time": 72, "velocity": 0, "pitch": 55, "instrument": 0, "track": 3, "qtime": 24, "isDrum": false}, {"time": 72, "velocity": 108, "pitch": 57, "instrument": 0, "track": 3, "qtime": 24, "isDrum": false}, {"time": 84, "velocity": 0, "pitch": 57, "instrument": 0, "track": 3, "qtime": 36, "isDrum": false}, {"time": 84, "velocity": 108, "pitch": 50, "instrument": 0, "track": 3, "qtime": 36, "isDrum": false}, {"time": 96, "velocity": 0, "pitch": 50, "instrument": 0, "track": 3, "qtime": 48, "isDrum": false}, {"time": 96, "velocity": 108, "pitch": 50, "instrument": 0, "track": 3, "qtime": 0, "isDrum": false}, {"time": 108, "velocity": 0, "pitch": 50, "instrument": 0, "track": 3, "qtime": 12, "isDrum": false}, {"time": 108, "velocity": 108, "pitch": 52, "instrument": 0, "track": 3, "qtime": 12, "isDrum": false}, {"time": 114, "velocity": 0, "pitch": 52, "instrument": 0, "track": 3, "qtime": 18, "isDrum": false}, {"time": 114, "velocity": 108, "pitch": 50, "instrument": 0, "track": 3, "qtime": 18, "isDrum": false}, {"time": 120, "velocity": 0, "pitch": 50, "instrument": 0, "track": 3, "qtime": 24, "isDrum": false}, {"time": 120, "velocity": 108, "pitch": 48, "instrument": 0, "track": 3, "qtime": 24, "isDrum": false}, {"time": 132, "velocity": 0, "pitch": 48, "instrument": 0, "track": 3, "qtime": 36, "isDrum": false}, {"time": 132, "velocity": 108, "pitch": 48, "instrument": 0, "track": 3, "qtime": 36, "isDrum": false}, {"time": 144, "velocity": 0, "pitch": 48, "instrument": 0, "track": 3, "qtime": 48, "isDrum": false}, {"time": 144, "velocity": 108, "pitch": 45, "instrument": 0, "track": 3, "qtime": 0, "isDrum": false}, {"time": 156, "velocity": 0, "pitch": 45, "instrument": 0, "track": 3, "qtime": 12, "isDrum": false}, {"time": 156, "velocity": 108, "pitch": 46, "instrument": 0, "track": 3, "qtime": 12, "isDrum": false}, {"time": 168, "velocity": 0, "pitch": 46, "instrument": 0, "track": 3, "qtime": 24, "isDrum": false}, {"time": 168, "velocity": 108, "pitch": 43, "instrument": 0, "track": 3, "qtime": 24, "isDrum": false}, {"time": 180, "velocity": 0, "pitch": 43, "instrument": 0, "track": 3, "qtime": 36, "isDrum": false}, {"time": 180, "velocity": 108, "pitch": 45, "instrument": 0, "track": 3, "qtime": 36, "isDrum": false}, {"time": 192, "velocity": 0, "pitch": 45, "instrument": 0, "track": 3, "qtime": 48, "isDrum": false}, {"time": 192, "velocity": 108, "pitch": 50, "instrument": 0, "track": 3, "qtime": 0, "isDrum": false}, {"time": 204, "velocity": 0, "pitch": 50, "instrument": 0, "track": 3, "qtime": 12, "isDrum": false}, {"time": 204, "velocity": 108, "pitch": 48, "instrument": 0, "track": 3, "qtime": 12, "isDrum": false}, {"time": 216, "velocity": 0, "pitch": 48, "instrument": 0, "track": 3, "qtime": 24, "isDrum": false}, {"time": 216, "velocity": 108, "pitch": 46, "instrument": 0, "track": 3, "qtime": 24, "isDrum": false}, {"time": 228, "velocity": 0, "pitch": 46, "instrument": 0, "track": 3, "qtime": 36, "isDrum": false}, {"time": 228, "velocity": 108, "pitch": 45, "instrument": 0, "track": 3, "qtime": 36, "isDrum": false}, {"time": 240, "velocity": 0, "pitch": 45, "instrument": 0, "track": 3, "qtime": 48, "isDrum": false}, {"time": 240, "velocity": 108, "pitch": 43, "instrument": 0, "track": 3, "qtime": 0, "isDrum": false}, {"time": 252, "velocity": 0, "pitch": 43, "instrument": 0, "track": 3, "qtime": 12, "isDrum": false}, {"time": 252, "velocity": 108, "pitch": 43, "instrument": 0, "track": 3, "qtime": 12, "isDrum": false}, {"time": 258, "velocity": 0, "pitch": 43, "instrument": 0, "track": 3, "qtime": 18, "isDrum": false}, {"time": 258, "velocity": 108, "pitch": 47, "instrument": 0, "track": 3, "qtime": 18, "isDrum": false}, {"time": 264, "velocity": 0, "pitch": 47, "instrument": 0, "track": 3, "qtime": 24, "isDrum": false}, {"time": 264, "velocity": 108, "pitch": 45, "instrument": 0, "track": 3, "qtime": 24, "isDrum": false}, {"time": 276, "velocity": 0, "pitch": 45, "instrument": 0, "track": 3, "qtime": 36, "isDrum": false}, {"time": 276, "velocity": 108, "pitch": 50, "instrument": 0, "track": 3, "qtime": 36, "isDrum": false}, {"time": 288, "velocity": 0, "pitch": 50, "instrument": 0, "track": 3, "qtime": 48, "isDrum": false}, {"time": 288, "velocity": 108, "pitch": 55, "instrument": 0, "track": 3, "qtime": 0, "isDrum": false}, {"time": 300, "velocity": 0, "pitch": 55, "instrument": 0, "track": 3, "qtime": 12, "isDrum": false}, {"time": 300, "velocity": 108, "pitch": 60, "instrument": 0, "track": 3, "qtime": 12, "isDrum": false}, {"time": 312, "velocity": 0, "pitch": 60, "instrument": 0, "track": 3, "qtime": 24, "isDrum": false}, {"time": 312, "velocity": 108, "pitch": 60, "instrument": 0, "track": 3, "qtime": 24, "isDrum": false}, {"time": 324, "velocity": 0, "pitch": 60, "instrument": 0, "track": 3, "qtime": 36, "isDrum": false}, {"time": 324, "velocity": 108, "pitch": 57, "instrument": 0, "track": 3, "qtime": 36, "isDrum": false}, {"time": 330, "velocity": 0, "pitch": 57, "instrument": 0, "track": 3, "qtime": 42, "isDrum": false}, {"time": 330, "velocity": 108, "pitch": 53, "instrument": 0, "track": 3, "qtime": 42, "isDrum": false}, {"time": 336, "velocity": 0, "pitch": 53, "instrument": 0, "track": 3, "qtime": 48, "isDrum": false}, {"time": 336, "velocity": 108, "pitch": 43, "instrument": 0, "track": 3, "qtime": 0, "isDrum": false}, {"time": 348, "velocity": 0, "pitch": 43, "instrument": 0, "track": 3, "qtime": 12, "isDrum": false}, {"time": 348, "velocity": 108, "pitch": 45, "instrument": 0, "track": 3, "qtime": 12, "isDrum": false}, {"time": 360, "velocity": 0, "pitch": 45, "instrument": 0, "track": 3, "qtime": 24, "isDrum": false}, {"time": 360, "velocity": 108, "pitch": 47, "instrument": 0, "track": 3, "qtime": 24, "isDrum": false}, {"time": 372, "velocity": 0, "pitch": 47, "instrument": 0, "track": 3, "qtime": 36, "isDrum": false}, {"time": 372, "velocity": 108, "pitch": 48, "instrument": 0, "track": 3, "qtime": 36, "isDrum": false}, {"time": 384, "velocity": 0, "pitch": 48, "instrument": 0, "track": 3, "qtime": 48, "isDrum": false}, {"time": 0, "velocity": 108, "pitch": 36, "instrument": 0, "track": 9, "qtime": 0, "isDrum": true}, {"time": 0, "velocity": 108, "pitch": 42, "instrument": 0, "track": 9, "qtime": 0, "isDrum": true}, {"time": 6, "velocity": 0, "pitch": 36, "instrument": 0, "track": 9, "qtime": 6, "isDrum": true}, {"time": 6, "velocity": 0, "pitch": 42, "instrument": 0, "track": 9, "qtime": 6, "isDrum": true}, {"time": 6, "velocity": 108, "pitch": 46, "instrument": 0, "track": 9, "qtime": 6, "isDrum": true}, {"time": 12, "velocity": 0, "pitch": 46, "instrument": 0, "track": 9, "qtime": 12, "isDrum": true}, {"time": 12, "velocity": 108, "pitch": 38, "instrument": 0, "track": 9, "qtime": 12, "isDrum": true}, {"time": 12, "velocity": 108, "pitch": 42, "instrument": 0, "track": 9, "qtime": 12, "isDrum": true}, {"time": 18, "velocity": 0, "pitch": 38, "instrument": 0, "track": 9, "qtime": 18, "isDrum": true}, {"time": 18, "velocity": 0, "pitch": 42, "instrument": 0, "track": 9, "qtime": 18, "isDrum": true}, {"time": 18, "velocity": 108, "pitch": 36, "instrument": 0, "track": 9, "qtime": 18, "isDrum": true}, {"time": 18, "velocity": 108, "pitch": 46, "instrument": 0, "track": 9, "qtime": 18, "isDrum": true}, {"time": 24, "velocity": 0, "pitch": 36, "instrument": 0, "track": 9, "qtime": 24, "isDrum": true}, {"time": 24, "velocity": 0, "pitch": 46, "instrument": 0, "track": 9, "qtime": 24, "isDrum": true}, {"time": 24, "velocity": 108, "pitch": 36, "instrument": 0, "track": 9, "qtime": 24, "isDrum": true}, {"time": 24, "velocity": 108, "pitch": 42, "instrument": 0, "track": 9, "qtime": 24, "isDrum": true}, {"time": 30, "velocity": 0, "pitch": 36, "instrument": 0, "track": 9, "qtime": 30, "isDrum": true}, {"time": 30, "velocity": 0, "pitch": 42, "instrument": 0, "track": 9, "qtime": 30, "isDrum": true}, {"time": 30, "velocity": 108, "pitch": 46, "instrument": 0, "track": 9, "qtime": 30, "isDrum": true}, {"time": 36, "velocity": 0, "pitch": 46, "instrument": 0, "track": 9, "qtime": 36, "isDrum": true}, {"time": 36, "velocity": 108, "pitch": 38, "instrument": 0, "track": 9, "qtime": 36, "isDrum": true}, {"time": 36, "velocity": 108, "pitch": 42, "instrument": 0, "track": 9, "qtime": 36, "isDrum": true}, {"time": 42, "velocity": 0, "pitch": 38, "instrument": 0, "track": 9, "qtime": 42, "isDrum": true}, {"time": 42, "velocity": 0, "pitch": 42, "instrument": 0, "track": 9, "qtime": 42, "isDrum": true}, {"time": 42, "velocity": 108, "pitch": 46, "instrument": 0, "track": 9, "qtime": 42, "isDrum": true}, {"time": 48, "velocity": 0, "pitch": 46, "instrument": 0, "track": 9, "qtime": 48, "isDrum": true}, {"time": 48, "velocity": 108, "pitch": 36, "instrument": 0, "track": 9, "qtime": 0, "isDrum": true}, {"time": 48, "velocity": 108, "pitch": 42, "instrument": 0, "track": 9, "qtime": 0, "isDrum": true}, {"time": 54, "velocity": 0, "pitch": 36, "instrument": 0, "track": 9, "qtime": 6, "isDrum": true}, {"time": 54, "velocity": 0, "pitch": 42, "instrument": 0, "track": 9, "qtime": 6, "isDrum": true}, {"time": 54, "velocity": 108, "pitch": 46, "instrument": 0, "track": 9, "qtime": 6, "isDrum": true}, {"time": 60, "velocity": 0, "pitch": 46, "instrument": 0, "track": 9, "qtime": 12, "isDrum": true}, {"time": 60, "velocity": 108, "pitch": 38, "instrument": 0, "track": 9, "qtime": 12, "isDrum": true}, {"time": 60, "velocity": 108, "pitch": 42, "instrument": 0, "track": 9, "qtime": 12, "isDrum": true}, {"time": 66, "velocity": 0, "pitch": 38, "instrument": 0, "track": 9, "qtime": 18, "isDrum": true}, {"time": 66, "velocity": 0, "pitch": 42, "instrument": 0, "track": 9, "qtime": 18, "isDrum": true}, {"time": 66, "velocity": 108, "pitch": 36, "instrument": 0, "track": 9, "qtime": 18, "isDrum": true}, {"time": 66, "velocity": 108, "pitch": 46, "instrument": 0, "track": 9, "qtime": 18, "isDrum": true}, {"time": 72, "velocity": 0, "pitch": 36, "instrument": 0, "track": 9, "qtime": 24, "isDrum": true}, {"time": 72, "velocity": 0, "pitch": 46, "instrument": 0, "track": 9, "qtime": 24, "isDrum": true}, {"time": 72, "velocity": 108, "pitch": 36, "instrument": 0, "track": 9, "qtime": 24, "isDrum": true}, {"time": 72, "velocity": 108, "pitch": 42, "instrument": 0, "track": 9, "qtime": 24, "isDrum": true}, {"time": 78, "velocity": 0, "pitch": 36, "instrument": 0, "track": 9, "qtime": 30, "isDrum": true}, {"time": 78, "velocity": 0, "pitch": 42, "instrument": 0, "track": 9, "qtime": 30, "isDrum": true}, {"time": 78, "velocity": 108, "pitch": 46, "instrument": 0, "track": 9, "qtime": 30, "isDrum": true}, {"time": 84, "velocity": 0, "pitch": 46, "instrument": 0, "track": 9, "qtime": 36, "isDrum": true}, {"time": 84, "velocity": 108, "pitch": 38, "instrument": 0, "track": 9, "qtime": 36, "isDrum": true}, {"time": 84, "velocity": 108, "pitch": 42, "instrument": 0, "track": 9, "qtime": 36, "isDrum": true}, {"time": 90, "velocity": 0, "pitch": 38, "instrument": 0, "track": 9, "qtime": 42, "isDrum": true}, {"time": 90, "velocity": 0, "pitch": 42, "instrument": 0, "track": 9, "qtime": 42, "isDrum": true}, {"time": 90, "velocity": 108, "pitch": 46, "instrument": 0, "track": 9, "qtime": 42, "isDrum": true}, {"time": 96, "velocity": 0, "pitch": 46, "instrument": 0, "track": 9, "qtime": 48, "isDrum": true}, {"time": 96, "velocity": 108, "pitch": 36, "instrument": 0, "track": 9, "qtime": 0, "isDrum": true}, {"time": 96, "velocity": 108, "pitch": 42, "instrument": 0, "track": 9, "qtime": 0, "isDrum": true}, {"time": 102, "velocity": 0, "pitch": 36, "instrument": 0, "track": 9, "qtime": 6, "isDrum": true}, {"time": 102, "velocity": 0, "pitch": 42, "instrument": 0, "track": 9, "qtime": 6, "isDrum": true}, {"time": 102, "velocity": 108, "pitch": 46, "instrument": 0, "track": 9, "qtime": 6, "isDrum": true}, {"time": 108, "velocity": 0, "pitch": 46, "instrument": 0, "track": 9, "qtime": 12, "isDrum": true}, {"time": 108, "velocity": 108, "pitch": 38, "instrument": 0, "track": 9, "qtime": 12, "isDrum": true}, {"time": 108, "velocity": 108, "pitch": 42, "instrument": 0, "track": 9, "qtime": 12, "isDrum": true}, {"time": 114, "velocity": 0, "pitch": 38, "instrument": 0, "track": 9, "qtime": 18, "isDrum": true}, {"time": 114, "velocity": 0, "pitch": 42, "instrument": 0, "track": 9, "qtime": 18, "isDrum": true}, {"time": 114, "velocity": 108, "pitch": 36, "instrument": 0, "track": 9, "qtime": 18, "isDrum": true}, {"time": 114, "velocity": 108, "pitch": 46, "instrument": 0, "track": 9, "qtime": 18, "isDrum": true}, {"time": 120, "velocity": 0, "pitch": 36, "instrument": 0, "track": 9, "qtime": 24, "isDrum": true}, {"time": 120, "velocity": 0, "pitch": 46, "instrument": 0, "track": 9, "qtime": 24, "isDrum": true}, {"time": 120, "velocity": 108, "pitch": 36, "instrument": 0, "track": 9, "qtime": 24, "isDrum": true}, {"time": 120, "velocity": 108, "pitch": 42, "instrument": 0, "track": 9, "qtime": 24, "isDrum": true}, {"time": 126, "velocity": 0, "pitch": 36, "instrument": 0, "track": 9, "qtime": 30, "isDrum": true}, {"time": 126, "velocity": 0, "pitch": 42, "instrument": 0, "track": 9, "qtime": 30, "isDrum": true}, {"time": 126, "velocity": 108, "pitch": 46, "instrument": 0, "track": 9, "qtime": 30, "isDrum": true}, {"time": 132, "velocity": 0, "pitch": 46, "instrument": 0, "track": 9, "qtime": 36, "isDrum": true}, {"time": 132, "velocity": 108, "pitch": 38, "instrument": 0, "track": 9, "qtime": 36, "isDrum": true}, {"time": 132, "velocity": 108, "pitch": 42, "instrument": 0, "track": 9, "qtime": 36, "isDrum": true}, {"time": 138, "velocity": 0, "pitch": 38, "instrument": 0, "track": 9, "qtime": 42, "isDrum": true}, {"time": 138, "velocity": 0, "pitch": 42, "instrument": 0, "track": 9, "qtime": 42, "isDrum": true}, {"time": 138, "velocity": 108, "pitch": 46, "instrument": 0, "track": 9, "qtime": 42, "isDrum": true}, {"time": 144, "velocity": 0, "pitch": 46, "instrument": 0, "track": 9, "qtime": 48, "isDrum": true}, {"time": 144, "velocity": 108, "pitch": 36, "instrument": 0, "track": 9, "qtime": 0, "isDrum": true}, {"time": 144, "velocity": 108, "pitch": 42, "instrument": 0, "track": 9, "qtime": 0, "isDrum": true}, {"time": 150, "velocity": 0, "pitch": 36, "instrument": 0, "track": 9, "qtime": 6, "isDrum": true}, {"time": 150, "velocity": 0, "pitch": 42, "instrument": 0, "track": 9, "qtime": 6, "isDrum": true}, {"time": 150, "velocity": 108, "pitch": 46, "instrument": 0, "track": 9, "qtime": 6, "isDrum": true}, {"time": 156, "velocity": 0, "pitch": 46, "instrument": 0, "track": 9, "qtime": 12, "isDrum": true}, {"time": 156, "velocity": 108, "pitch": 38, "instrument": 0, "track": 9, "qtime": 12, "isDrum": true}, {"time": 156, "velocity": 108, "pitch": 42, "instrument": 0, "track": 9, "qtime": 12, "isDrum": true}, {"time": 162, "velocity": 0, "pitch": 38, "instrument": 0, "track": 9, "qtime": 18, "isDrum": true}, {"time": 162, "velocity": 0, "pitch": 42, "instrument": 0, "track": 9, "qtime": 18, "isDrum": true}, {"time": 162, "velocity": 108, "pitch": 36, "instrument": 0, "track": 9, "qtime": 18, "isDrum": true}, {"time": 162, "velocity": 108, "pitch": 46, "instrument": 0, "track": 9, "qtime": 18, "isDrum": true}, {"time": 168, "velocity": 0, "pitch": 36, "instrument": 0, "track": 9, "qtime": 24, "isDrum": true}, {"time": 168, "velocity": 0, "pitch": 46, "instrument": 0, "track": 9, "qtime": 24, "isDrum": true}, {"time": 168, "velocity": 108, "pitch": 36, "instrument": 0, "track": 9, "qtime": 24, "isDrum": true}, {"time": 168, "velocity": 108, "pitch": 42, "instrument": 0, "track": 9, "qtime": 24, "isDrum": true}, {"time": 174, "velocity": 0, "pitch": 36, "instrument": 0, "track": 9, "qtime": 30, "isDrum": true}, {"time": 174, "velocity": 0, "pitch": 42, "instrument": 0, "track": 9, "qtime": 30, "isDrum": true}, {"time": 174, "velocity": 108, "pitch": 46, "instrument": 0, "track": 9, "qtime": 30, "isDrum": true}, {"time": 180, "velocity": 0, "pitch": 46, "instrument": 0, "track": 9, "qtime": 36, "isDrum": true}, {"time": 180, "velocity": 108, "pitch": 38, "instrument": 0, "track": 9, "qtime": 36, "isDrum": true}, {"time": 180, "velocity": 108, "pitch": 42, "instrument": 0, "track": 9, "qtime": 36, "isDrum": true}, {"time": 186, "velocity": 0, "pitch": 38, "instrument": 0, "track": 9, "qtime": 42, "isDrum": true}, {"time": 186, "velocity": 0, "pitch": 42, "instrument": 0, "track": 9, "qtime": 42, "isDrum": true}, {"time": 186, "velocity": 108, "pitch": 46, "instrument": 0, "track": 9, "qtime": 42, "isDrum": true}, {"time": 192, "velocity": 0, "pitch": 46, "instrument": 0, "track": 9, "qtime": 48, "isDrum": true}, {"time": 192, "velocity": 108, "pitch": 36, "instrument": 0, "track": 9, "qtime": 0, "isDrum": true}, {"time": 192, "velocity": 108, "pitch": 42, "instrument": 0, "track": 9, "qtime": 0, "isDrum": true}, {"time": 198, "velocity": 0, "pitch": 36, "instrument": 0, "track": 9, "qtime": 6, "isDrum": true}, {"time": 198, "velocity": 0, "pitch": 42, "instrument": 0, "track": 9, "qtime": 6, "isDrum": true}, {"time": 198, "velocity": 108, "pitch": 46, "instrument": 0, "track": 9, "qtime": 6, "isDrum": true}, {"time": 204, "velocity": 0, "pitch": 46, "instrument": 0, "track": 9, "qtime": 12, "isDrum": true}, {"time": 204, "velocity": 108, "pitch": 38, "instrument": 0, "track": 9, "qtime": 12, "isDrum": true}, {"time": 204, "velocity": 108, "pitch": 42, "instrument": 0, "track": 9, "qtime": 12, "isDrum": true}, {"time": 210, "velocity": 0, "pitch": 38, "instrument": 0, "track": 9, "qtime": 18, "isDrum": true}, {"time": 210, "velocity": 0, "pitch": 42, "instrument": 0, "track": 9, "qtime": 18, "isDrum": true}, {"time": 210, "velocity": 108, "pitch": 36, "instrument": 0, "track": 9, "qtime": 18, "isDrum": true}, {"time": 210, "velocity": 108, "pitch": 46, "instrument": 0, "track": 9, "qtime": 18, "isDrum": true}, {"time": 216, "velocity": 0, "pitch": 36, "instrument": 0, "track": 9, "qtime": 24, "isDrum": true}, {"time": 216, "velocity": 0, "pitch": 46, "instrument": 0, "track": 9, "qtime": 24, "isDrum": true}, {"time": 216, "velocity": 108, "pitch": 36, "instrument": 0, "track": 9, "qtime": 24, "isDrum": true}, {"time": 216, "velocity": 108, "pitch": 42, "instrument": 0, "track": 9, "qtime": 24, "isDrum": true}, {"time": 222, "velocity": 0, "pitch": 36, "instrument": 0, "track": 9, "qtime": 30, "isDrum": true}, {"time": 222, "velocity": 0, "pitch": 42, "instrument": 0, "track": 9, "qtime": 30, "isDrum": true}, {"time": 222, "velocity": 108, "pitch": 46, "instrument": 0, "track": 9, "qtime": 30, "isDrum": true}, {"time": 228, "velocity": 0, "pitch": 46, "instrument": 0, "track": 9, "qtime": 36, "isDrum": true}, {"time": 228, "velocity": 108, "pitch": 38, "instrument": 0, "track": 9, "qtime": 36, "isDrum": true}, {"time": 228, "velocity": 108, "pitch": 42, "instrument": 0, "track": 9, "qtime": 36, "isDrum": true}, {"time": 234, "velocity": 0, "pitch": 38, "instrument": 0, "track": 9, "qtime": 42, "isDrum": true}, {"time": 234, "velocity": 0, "pitch": 42, "instrument": 0, "track": 9, "qtime": 42, "isDrum": true}, {"time": 234, "velocity": 108, "pitch": 46, "instrument": 0, "track": 9, "qtime": 42, "isDrum": true}, {"time": 240, "velocity": 0, "pitch": 46, "instrument": 0, "track": 9, "qtime": 48, "isDrum": true}, {"time": 240, "velocity": 108, "pitch": 36, "instrument": 0, "track": 9, "qtime": 0, "isDrum": true}, {"time": 240, "velocity": 108, "pitch": 42, "instrument": 0, "track": 9, "qtime": 0, "isDrum": true}, {"time": 246, "velocity": 0, "pitch": 36, "instrument": 0, "track": 9, "qtime": 6, "isDrum": true}, {"time": 246, "velocity": 0, "pitch": 42, "instrument": 0, "track": 9, "qtime": 6, "isDrum": true}, {"time": 246, "velocity": 108, "pitch": 46, "instrument": 0, "track": 9, "qtime": 6, "isDrum": true}, {"time": 252, "velocity": 0, "pitch": 46, "instrument": 0, "track": 9, "qtime": 12, "isDrum": true}, {"time": 252, "velocity": 108, "pitch": 38, "instrument": 0, "track": 9, "qtime": 12, "isDrum": true}, {"time": 252, "velocity": 108, "pitch": 42, "instrument": 0, "track": 9, "qtime": 12, "isDrum": true}, {"time": 258, "velocity": 0, "pitch": 38, "instrument": 0, "track": 9, "qtime": 18, "isDrum": true}, {"time": 258, "velocity": 0, "pitch": 42, "instrument": 0, "track": 9, "qtime": 18, "isDrum": true}, {"time": 258, "velocity": 108, "pitch": 36, "instrument": 0, "track": 9, "qtime": 18, "isDrum": true}, {"time": 258, "velocity": 108, "pitch": 46, "instrument": 0, "track": 9, "qtime": 18, "isDrum": true}, {"time": 264, "velocity": 0, "pitch": 36, "instrument": 0, "track": 9, "qtime": 24, "isDrum": true}, {"time": 264, "velocity": 0, "pitch": 46, "instrument": 0, "track": 9, "qtime": 24, "isDrum": true}, {"time": 264, "velocity": 108, "pitch": 36, "instrument": 0, "track": 9, "qtime": 24, "isDrum": true}, {"time": 264, "velocity": 108, "pitch": 42, "instrument": 0, "track": 9, "qtime": 24, "isDrum": true}, {"time": 270, "velocity": 0, "pitch": 36, "instrument": 0, "track": 9, "qtime": 30, "isDrum": true}, {"time": 270, "velocity": 0, "pitch": 42, "instrument": 0, "track": 9, "qtime": 30, "isDrum": true}, {"time": 270, "velocity": 108, "pitch": 46, "instrument": 0, "track": 9, "qtime": 30, "isDrum": true}, {"time": 276, "velocity": 0, "pitch": 46, "instrument": 0, "track": 9, "qtime": 36, "isDrum": true}, {"time": 276, "velocity": 108, "pitch": 38, "instrument": 0, "track": 9, "qtime": 36, "isDrum": true}, {"time": 276, "velocity": 108, "pitch": 42, "instrument": 0, "track": 9, "qtime": 36, "isDrum": true}, {"time": 282, "velocity": 0, "pitch": 38, "instrument": 0, "track": 9, "qtime": 42, "isDrum": true}, {"time": 282, "velocity": 0, "pitch": 42, "instrument": 0, "track": 9, "qtime": 42, "isDrum": true}, {"time": 282, "velocity": 108, "pitch": 46, "instrument": 0, "track": 9, "qtime": 42, "isDrum": true}, {"time": 288, "velocity": 0, "pitch": 46, "instrument": 0, "track": 9, "qtime": 48, "isDrum": true}, {"time": 288, "velocity": 108, "pitch": 36, "instrument": 0, "track": 9, "qtime": 0, "isDrum": true}, {"time": 288, "velocity": 108, "pitch": 42, "instrument": 0, "track": 9, "qtime": 0, "isDrum": true}, {"time": 294, "velocity": 0, "pitch": 36, "instrument": 0, "track": 9, "qtime": 6, "isDrum": true}, {"time": 294, "velocity": 0, "pitch": 42, "instrument": 0, "track": 9, "qtime": 6, "isDrum": true}, {"time": 294, "velocity": 108, "pitch": 46, "instrument": 0, "track": 9, "qtime": 6, "isDrum": true}, {"time": 300, "velocity": 0, "pitch": 46, "instrument": 0, "track": 9, "qtime": 12, "isDrum": true}, {"time": 300, "velocity": 108, "pitch": 38, "instrument": 0, "track": 9, "qtime": 12, "isDrum": true}, {"time": 300, "velocity": 108, "pitch": 42, "instrument": 0, "track": 9, "qtime": 12, "isDrum": true}, {"time": 306, "velocity": 0, "pitch": 38, "instrument": 0, "track": 9, "qtime": 18, "isDrum": true}, {"time": 306, "velocity": 0, "pitch": 42, "instrument": 0, "track": 9, "qtime": 18, "isDrum": true}, {"time": 306, "velocity": 108, "pitch": 36, "instrument": 0, "track": 9, "qtime": 18, "isDrum": true}, {"time": 306, "velocity": 108, "pitch": 46, "instrument": 0, "track": 9, "qtime": 18, "isDrum": true}, {"time": 312, "velocity": 0, "pitch": 36, "instrument": 0, "track": 9, "qtime": 24, "isDrum": true}, {"time": 312, "velocity": 0, "pitch": 46, "instrument": 0, "track": 9, "qtime": 24, "isDrum": true}, {"time": 312, "velocity": 108, "pitch": 36, "instrument": 0, "track": 9, "qtime": 24, "isDrum": true}, {"time": 312, "velocity": 108, "pitch": 42, "instrument": 0, "track": 9, "qtime": 24, "isDrum": true}, {"time": 318, "velocity": 0, "pitch": 36, "instrument": 0, "track": 9, "qtime": 30, "isDrum": true}, {"time": 318, "velocity": 0, "pitch": 42, "instrument": 0, "track": 9, "qtime": 30, "isDrum": true}, {"time": 318, "velocity": 108, "pitch": 46, "instrument": 0, "track": 9, "qtime": 30, "isDrum": true}, {"time": 324, "velocity": 0, "pitch": 46, "instrument": 0, "track": 9, "qtime": 36, "isDrum": true}, {"time": 324, "velocity": 108, "pitch": 38, "instrument": 0, "track": 9, "qtime": 36, "isDrum": true}, {"time": 324, "velocity": 108, "pitch": 42, "instrument": 0, "track": 9, "qtime": 36, "isDrum": true}, {"time": 330, "velocity": 0, "pitch": 38, "instrument": 0, "track": 9, "qtime": 42, "isDrum": true}, {"time": 330, "velocity": 0, "pitch": 42, "instrument": 0, "track": 9, "qtime": 42, "isDrum": true}, {"time": 330, "velocity": 108, "pitch": 46, "instrument": 0, "track": 9, "qtime": 42, "isDrum": true}, {"time": 336, "velocity": 0, "pitch": 46, "instrument": 0, "track": 9, "qtime": 48, "isDrum": true}, {"time": 336, "velocity": 108, "pitch": 36, "instrument": 0, "track": 9, "qtime": 0, "isDrum": true}, {"time": 336, "velocity": 108, "pitch": 42, "instrument": 0, "track": 9, "qtime": 0, "isDrum": true}, {"time": 342, "velocity": 0, "pitch": 36, "instrument": 0, "track": 9, "qtime": 6, "isDrum": true}, {"time": 342, "velocity": 0, "pitch": 42, "instrument": 0, "track": 9, "qtime": 6, "isDrum": true}, {"time": 342, "velocity": 108, "pitch": 46, "instrument": 0, "track": 9, "qtime": 6, "isDrum": true}, {"time": 348, "velocity": 0, "pitch": 46, "instrument": 0, "track": 9, "qtime": 12, "isDrum": true}, {"time": 348, "velocity": 108, "pitch": 38, "instrument": 0, "track": 9, "qtime": 12, "isDrum": true}, {"time": 348, "velocity": 108, "pitch": 42, "instrument": 0, "track": 9, "qtime": 12, "isDrum": true}, {"time": 354, "velocity": 0, "pitch": 38, "instrument": 0, "track": 9, "qtime": 18, "isDrum": true}, {"time": 354, "velocity": 0, "pitch": 42, "instrument": 0, "track": 9, "qtime": 18, "isDrum": true}, {"time": 354, "velocity": 108, "pitch": 36, "instrument": 0, "track": 9, "qtime": 18, "isDrum": true}, {"time": 354, "velocity": 108, "pitch": 46, "instrument": 0, "track": 9, "qtime": 18, "isDrum": true}, {"time": 360, "velocity": 0, "pitch": 36, "instrument": 0, "track": 9, "qtime": 24, "isDrum": true}, {"time": 360, "velocity": 0, "pitch": 46, "instrument": 0, "track": 9, "qtime": 24, "isDrum": true}, {"time": 360, "velocity": 108, "pitch": 36, "instrument": 0, "track": 9, "qtime": 24, "isDrum": true}, {"time": 360, "velocity": 108, "pitch": 42, "instrument": 0, "track": 9, "qtime": 24, "isDrum": true}, {"time": 366, "velocity": 0, "pitch": 36, "instrument": 0, "track": 9, "qtime": 30, "isDrum": true}, {"time": 366, "velocity": 0, "pitch": 42, "instrument": 0, "track": 9, "qtime": 30, "isDrum": true}, {"time": 366, "velocity": 108, "pitch": 46, "instrument": 0, "track": 9, "qtime": 30, "isDrum": true}, {"time": 372, "velocity": 0, "pitch": 46, "instrument": 0, "track": 9, "qtime": 36, "isDrum": true}, {"time": 372, "velocity": 108, "pitch": 38, "instrument": 0, "track": 9, "qtime": 36, "isDrum": true}, {"time": 372, "velocity": 108, "pitch": 42, "instrument": 0, "track": 9, "qtime": 36, "isDrum": true}, {"time": 378, "velocity": 0, "pitch": 38, "instrument": 0, "track": 9, "qtime": 42, "isDrum": true}, {"time": 378, "velocity": 0, "pitch": 42, "instrument": 0, "track": 9, "qtime": 42, "isDrum": true}, {"time": 378, "velocity": 108, "pitch": 46, "instrument": 0, "track": 9, "qtime": 42, "isDrum": true}, {"time": 384, "velocity": 0, "pitch": 46, "instrument": 0, "track": 9, "qtime": 48, "isDrum": true}, {"time": 0, "velocity": 108, "pitch": 65, "instrument": 26, "track": 5, "qtime": 0, "isDrum": false}, {"time": 6, "velocity": 0, "pitch": 65, "instrument": 26, "track": 5, "qtime": 6, "isDrum": false}, {"time": 6, "velocity": 108, "pitch": 64, "instrument": 26, "track": 5, "qtime": 6, "isDrum": false}, {"time": 9, "velocity": 0, "pitch": 64, "instrument": 26, "track": 5, "qtime": 9, "isDrum": false}, {"time": 9, "velocity": 108, "pitch": 65, "instrument": 26, "track": 5, "qtime": 9, "isDrum": false}, {"time": 12, "velocity": 0, "pitch": 65, "instrument": 26, "track": 5, "qtime": 12, "isDrum": false}, {"time": 12, "velocity": 108, "pitch": 67, "instrument": 26, "track": 5, "qtime": 12, "isDrum": false}, {"time": 18, "velocity": 0, "pitch": 67, "instrument": 26, "track": 5, "qtime": 18, "isDrum": false}, {"time": 18, "velocity": 108, "pitch": 69, "instrument": 26, "track": 5, "qtime": 18, "isDrum": false}, {"time": 24, "velocity": 0, "pitch": 69, "instrument": 26, "track": 5, "qtime": 24, "isDrum": false}, {"time": 24, "velocity": 108, "pitch": 70, "instrument": 26, "track": 5, "qtime": 24, "isDrum": false}, {"time": 30, "velocity": 0, "pitch": 70, "instrument": 26, "track": 5, "qtime": 30, "isDrum": false}, {"time": 30, "velocity": 108, "pitch": 69, "instrument": 26, "track": 5, "qtime": 30, "isDrum": false}, {"time": 36, "velocity": 0, "pitch": 69, "instrument": 26, "track": 5, "qtime": 36, "isDrum": false}, {"time": 36, "velocity": 108, "pitch": 67, "instrument": 26, "track": 5, "qtime": 36, "isDrum": false}, {"time": 48, "velocity": 0, "pitch": 67, "instrument": 26, "track": 5, "qtime": 48, "isDrum": false}, {"time": 48, "velocity": 108, "pitch": 65, "instrument": 26, "track": 5, "qtime": 0, "isDrum": false}, {"time": 60, "velocity": 0, "pitch": 65, "instrument": 26, "track": 5, "qtime": 12, "isDrum": false}, {"time": 60, "velocity": 108, "pitch": 64, "instrument": 26, "track": 5, "qtime": 12, "isDrum": false}, {"time": 72, "velocity": 0, "pitch": 64, "instrument": 26, "track": 5, "qtime": 24, "isDrum": false}, {"time": 72, "velocity": 108, "pitch": 69, "instrument": 26, "track": 5, "qtime": 24, "isDrum": false}, {"time": 84, "velocity": 0, "pitch": 69, "instrument": 26, "track": 5, "qtime": 36, "isDrum": false}, {"time": 84, "velocity": 108, "pitch": 62, "instrument": 26, "track": 5, "qtime": 36, "isDrum": false}, {"time": 96, "velocity": 0, "pitch": 62, "instrument": 26, "track": 5, "qtime": 48, "isDrum": false}, {"time": 96, "velocity": 108, "pitch": 69, "instrument": 26, "track": 5, "qtime": 0, "isDrum": false}, {"time": 108, "velocity": 0, "pitch": 69, "instrument": 26, "track": 5, "qtime": 12, "isDrum": false}, {"time": 108, "velocity": 108, "pitch": 69, "instrument": 26, "track": 5, "qtime": 12, "isDrum": false}, {"time": 114, "velocity": 0, "pitch": 69, "instrument": 26, "track": 5, "qtime": 18, "isDrum": false}, {"time": 114, "velocity": 108, "pitch": 71, "instrument": 26, "track": 5, "qtime": 18, "isDrum": false}, {"time": 120, "velocity": 0, "pitch": 71, "instrument": 26, "track": 5, "qtime": 24, "isDrum": false}, {"time": 120, "velocity": 108, "pitch": 72, "instrument": 26, "track": 5, "qtime": 24, "isDrum": false}, {"time": 126, "velocity": 0, "pitch": 72, "instrument": 26, "track": 5, "qtime": 30, "isDrum": false}, {"time": 126, "velocity": 108, "pitch": 74, "instrument": 26, "track": 5, "qtime": 30, "isDrum": false}, {"time": 132, "velocity": 0, "pitch": 74, "instrument": 26, "track": 5, "qtime": 36, "isDrum": false}, {"time": 132, "velocity": 108, "pitch": 76, "instrument": 26, "track": 5, "qtime": 36, "isDrum": false}, {"time": 144, "velocity": 0, "pitch": 76, "instrument": 26, "track": 5, "qtime": 48, "isDrum": false}, {"time": 144, "velocity": 108, "pitch": 77, "instrument": 26, "track": 5, "qtime": 0, "isDrum": false}, {"time": 156, "velocity": 0, "pitch": 77, "instrument": 26, "track": 5, "qtime": 12, "isDrum": false}, {"time": 156, "velocity": 108, "pitch": 77, "instrument": 26, "track": 5, "qtime": 12, "isDrum": false}, {"time": 168, "velocity": 0, "pitch": 77, "instrument": 26, "track": 5, "qtime": 24, "isDrum": false}, {"time": 168, "velocity": 108, "pitch": 76, "instrument": 26, "track": 5, "qtime": 24, "isDrum": false}, {"time": 180, "velocity": 0, "pitch": 76, "instrument": 26, "track": 5, "qtime": 36, "isDrum": false}, {"time": 180, "velocity": 108, "pitch": 69, "instrument": 26, "track": 5, "qtime": 36, "isDrum": false}, {"time": 192, "velocity": 0, "pitch": 69, "instrument": 26, "track": 5, "qtime": 48, "isDrum": false}, {"time": 192, "velocity": 108, "pitch": 74, "instrument": 26, "track": 5, "qtime": 0, "isDrum": false}, {"time": 204, "velocity": 0, "pitch": 74, "instrument": 26, "track": 5, "qtime": 12, "isDrum": false}, {"time": 204, "velocity": 108, "pitch": 77, "instrument": 26, "track": 5, "qtime": 12, "isDrum": false}, {"time": 216, "velocity": 0, "pitch": 77, "instrument": 26, "track": 5, "qtime": 24, "isDrum": false}, {"time": 216, "velocity": 108, "pitch": 79, "instrument": 26, "track": 5, "qtime": 24, "isDrum": false}, {"time": 228, "velocity": 0, "pitch": 79, "instrument": 26, "track": 5, "qtime": 36, "isDrum": false}, {"time": 228, "velocity": 108, "pitch": 81, "instrument": 26, "track": 5, "qtime": 36, "isDrum": false}, {"time": 240, "velocity": 0, "pitch": 81, "instrument": 26, "track": 5, "qtime": 48, "isDrum": false}, {"time": 240, "velocity": 108, "pitch": 79, "instrument": 26, "track": 5, "qtime": 0, "isDrum": false}, {"time": 252, "velocity": 0, "pitch": 79, "instrument": 26, "track": 5, "qtime": 12, "isDrum": false}, {"time": 252, "velocity": 108, "pitch": 67, "instrument": 26, "track": 5, "qtime": 12, "isDrum": false}, {"time": 264, "velocity": 0, "pitch": 67, "instrument": 26, "track": 5, "qtime": 24, "isDrum": false}, {"time": 264, "velocity": 108, "pitch": 69, "instrument": 26, "track": 5, "qtime": 24, "isDrum": false}, {"time": 276, "velocity": 0, "pitch": 69, "instrument": 26, "track": 5, "qtime": 36, "isDrum": false}, {"time": 276, "velocity": 108, "pitch": 81, "instrument": 26, "track": 5, "qtime": 36, "isDrum": false}, {"time": 288, "velocity": 0, "pitch": 81, "instrument": 26, "track": 5, "qtime": 48, "isDrum": false}, {"time": 288, "velocity": 108, "pitch": 79, "instrument": 26, "track": 5, "qtime": 0, "isDrum": false}, {"time": 300, "velocity": 0, "pitch": 79, "instrument": 26, "track": 5, "qtime": 12, "isDrum": false}, {"time": 300, "velocity": 108, "pitch": 76, "instrument": 26, "track": 5, "qtime": 12, "isDrum": false}, {"time": 306, "velocity": 0, "pitch": 76, "instrument": 26, "track": 5, "qtime": 18, "isDrum": false}, {"time": 306, "velocity": 108, "pitch": 78, "instrument": 26, "track": 5, "qtime": 18, "isDrum": false}, {"time": 312, "velocity": 0, "pitch": 78, "instrument": 26, "track": 5, "qtime": 24, "isDrum": false}, {"time": 312, "velocity": 108, "pitch": 74, "instrument": 26, "track": 5, "qtime": 24, "isDrum": false}, {"time": 318, "velocity": 0, "pitch": 74, "instrument": 26, "track": 5, "qtime": 30, "isDrum": false}, {"time": 318, "velocity": 108, "pitch": 74, "instrument": 26, "track": 5, "qtime": 30, "isDrum": false}, {"time": 324, "velocity": 0, "pitch": 74, "instrument": 26, "track": 5, "qtime": 36, "isDrum": false}, {"time": 324, "velocity": 108, "pitch": 76, "instrument": 26, "track": 5, "qtime": 36, "isDrum": false}, {"time": 330, "velocity": 0, "pitch": 76, "instrument": 26, "track": 5, "qtime": 42, "isDrum": false}, {"time": 330, "velocity": 108, "pitch": 77, "instrument": 26, "track": 5, "qtime": 42, "isDrum": false}, {"time": 336, "velocity": 0, "pitch": 77, "instrument": 26, "track": 5, "qtime": 48, "isDrum": false}, {"time": 336, "velocity": 108, "pitch": 79, "instrument": 26, "track": 5, "qtime": 0, "isDrum": false}, {"time": 372, "velocity": 0, "pitch": 79, "instrument": 26, "track": 5, "qtime": 36, "isDrum": false}], "resolution": 12, "tempo": 120, "minPitch": 36, "maxPitch": 81, "validSegments": [0], "validTracks": [63]}, "audio": "https://www.sfu.ca/~jeffe/examples/8b_bach_101_7_w_drums_guitar.mp3"}, {"src": "gen/8b_bach_101_7_w_drums_guitar_bass.json", "highlights": [[], [], [], [], [], [], [0, 1, 2, 3, 4, 5, 6, 7]], "caption": "Add a bass track to 23e. Even though the 8-bar models were only trained on examples containing at most 6 tracks, the model is still able to generate more than 6 tracks.", "sample_id": "23f", "mixer": [8, 8, 8, 8, 8, 8, 8], "json": {"tracks": [{"bars": [{"events": [0, 1, 2, 3, 4, 5, 6, 7], "isFourFour": true, "hasNotes": true, "time": 0}, {"events": [8, 9, 10, 11, 12, 13, 14, 15], "isFourFour": true, "hasNotes": true, "time": 48}, {"events": [16, 17, 18, 19, 20, 21, 22, 23], "isFourFour": true, "hasNotes": true, "time": 96}, {"events": [24, 25, 26, 27, 28, 29, 30, 31], "isFourFour": true, "hasNotes": true, "time": 144}, {"events": [32, 33, 34, 35, 36, 37, 38, 39, 40, 41], "isFourFour": true, "hasNotes": true, "time": 192}, {"events": [42, 43, 44, 45, 46, 47, 48, 49], "isFourFour": true, "hasNotes": true, "time": 240}, {"events": [50, 51, 52, 53, 54, 55, 56, 57], "isFourFour": true, "hasNotes": true, "time": 288}, {"events": [58, 59, 60, 61, 62, 63, 64, 65], "isFourFour": true, "hasNotes": true, "time": 336}], "isDrum": false, "minPitch": 65, "maxPitch": 77, "instrument": 0, "avPolyphony": 1, "noteDensity": 9, "noteDensityV2": 2}, {"bars": [{"events": [66, 67, 68, 69, 70, 71, 72, 73], "isFourFour": true, "hasNotes": true, "time": 0}, {"events": [74, 75, 76, 77, 78, 79, 80, 81], "isFourFour": true, "hasNotes": true, "time": 48}, {"events": [82, 83, 84, 85, 86, 87, 88, 89, 90, 91], "isFourFour": true, "hasNotes": true, "time": 96}, {"events": [92, 93, 94, 95, 96, 97, 98, 99], "isFourFour": true, "hasNotes": true, "time": 144}, {"events": [100, 101, 102, 103, 104, 105, 106, 107, 108, 109, 110, 111], "isFourFour": true, "hasNotes": true, "time": 192}, {"events": [112, 113, 114, 115, 116, 117, 118, 119, 120, 121], "isFourFour": true, "hasNotes": true, "time": 240}, {"events": [122, 123, 124, 125, 126, 127, 128, 129, 130, 131], "isFourFour": true, "hasNotes": true, "time": 288}, {"events": [132, 133, 134, 135, 136, 137, 138, 139, 140, 141, 142, 143], "isFourFour": true, "hasNotes": true, "time": 336}], "isDrum": false, "minPitch": 57, "maxPitch": 69, "instrument": 0, "avPolyphony": 1, "noteDensity": 9, "noteDensityV2": 3}, {"bars": [{"events": [144, 145, 146, 147, 148, 149, 150, 151], "isFourFour": true, "hasNotes": true, "time": 0}, {"events": [152, 153, 154, 155, 156, 157, 158, 159], "isFourFour": true, "hasNotes": true, "time": 48}, {"events": [160, 161, 162, 163, 164, 165, 166, 167], "isFourFour": true, "hasNotes": true, "time": 96}, {"events": [168, 169, 170, 171, 172, 173, 174, 175, 176, 177], "isFourFour": true, "hasNotes": true, "time": 144}, {"events": [178, 179, 180, 181, 182, 183, 184, 185], "isFourFour": true, "hasNotes": true, "time": 192}, {"events": [186, 187, 188, 189, 190, 191, 192, 193, 194, 195], "isFourFour": true, "hasNotes": true, "time": 240}, {"events": [196, 197, 198, 199, 200, 201, 202, 203, 204, 205], "isFourFour": true, "hasNotes": true, "time": 288}, {"events": [206, 207, 208, 209, 210, 211, 212, 213], "isFourFour": true, "hasNotes": true, "time": 336}], "isDrum": false, "minPitch": 52, "maxPitch": 65, "instrument": 0, "avPolyphony": 1, "noteDensity": 9, "noteDensityV2": 2}, {"bars": [{"events": [214, 215, 216, 217, 218, 219, 220, 221], "isFourFour": true, "hasNotes": true, "time": 0}, {"events": [222, 223, 224, 225, 226, 227, 228, 229], "isFourFour": true, "hasNotes": true, "time": 48}, {"events": [230, 231, 232, 233, 234, 235, 236, 237, 238, 239], "isFourFour": true, "hasNotes": true, "time": 96}, {"events": [240, 241, 242, 243, 244, 245, 246, 247], "isFourFour": true, "hasNotes": true, "time": 144}, {"events": [248, 249, 250, 251, 252, 253, 254, 255], "isFourFour": true, "hasNotes": true, "time": 192}, {"events": [256, 257, 258, 259, 260, 261, 262, 263, 264, 265], "isFourFour": true, "hasNotes": true, "time": 240}, {"events": [266, 267, 268, 269, 270, 271, 272, 273, 274, 275], "isFourFour": true, "hasNotes": true, "time": 288}, {"events": [276, 277, 278, 279, 280, 281, 282, 283], "isFourFour": true, "hasNotes": true, "time": 336}], "isDrum": false, "minPitch": 43, "maxPitch": 60, "instrument": 0, "avPolyphony": 1, "noteDensity": 9, "noteDensityV2": 2}, {"bars": [{"events": [284, 285, 286, 287, 288, 289, 290, 291, 292, 293, 294, 295, 296, 297, 298, 299, 300, 301, 302, 303, 304, 305, 306, 307, 308, 309], "isFourFour": true, "hasNotes": true, "time": 0}, {"events": [310, 311, 312, 313, 314, 315, 316, 317, 318, 319, 320, 321, 322, 323, 324, 325, 326, 327, 328, 329, 330, 331, 332, 333, 334, 335], "isFourFour": true, "hasNotes": true, "time": 48}, {"events": [336, 337, 338, 339, 340, 341, 342, 343, 344, 345, 346, 347, 348, 349, 350, 351, 352, 353, 354, 355, 356, 357, 358, 359, 360, 361], "isFourFour": true, "hasNotes": true, "time": 96}, {"events": [362, 363, 364, 365, 366, 367, 368, 369, 370, 371, 372, 373, 374, 375, 376, 377, 378, 379, 380, 381, 382, 383, 384, 385, 386, 387], "isFourFour": true, "hasNotes": true, "time": 144}, {"events": [388, 389, 390, 391, 392, 393, 394, 395, 396, 397, 398, 399, 400, 401, 402, 403, 404, 405, 406, 407, 408, 409, 410, 411, 412, 413], "isFourFour": true, "hasNotes": true, "time": 192}, {"events": [414, 415, 416, 417, 418, 419, 420, 421, 422, 423, 424, 425, 426, 427, 428, 429, 430, 431, 432, 433, 434, 435, 436, 437, 438, 439], "isFourFour": true, "hasNotes": true, "time": 240}, {"events": [440, 441, 442, 443, 444, 445, 446, 447, 448, 449, 450, 451, 452, 453, 454, 455, 456, 457, 458, 459, 460, 461, 462, 463, 464, 465], "isFourFour": true, "hasNotes": true, "time": 288}, {"events": [466, 467, 468, 469, 470, 471, 472, 473, 474, 475, 476, 477, 478, 479, 480, 481, 482, 483, 484, 485, 486, 487, 488, 489, 490, 491], "isFourFour": true, "hasNotes": true, "time": 336}], "isDrum": true, "minPitch": 36, "maxPitch": 46, "instrument": 0, "avPolyphony": 1.625, "noteDensity": 9, "noteDensityV2": 6}, {"bars": [{"events": [492, 493, 494, 495, 496, 497, 498, 499, 500, 501, 502, 503, 504, 505, 506, 507], "isFourFour": true, "hasNotes": true, "time": 0}, {"events": [508, 509, 510, 511, 512, 513, 514, 515], "isFourFour": true, "hasNotes": true, "time": 48}, {"events": [516, 517, 518, 519, 520, 521, 522, 523, 524, 525, 526, 527], "isFourFour": true, "hasNotes": true, "time": 96}, {"events": [528, 529, 530, 531, 532, 533, 534, 535], "isFourFour": true, "hasNotes": true, "time": 144}, {"events": [536, 537, 538, 539, 540, 541, 542, 543], "isFourFour": true, "hasNotes": true, "time": 192}, {"events": [544, 545, 546, 547, 548, 549, 550, 551], "isFourFour": true, "hasNotes": true, "time": 240}, {"events": [552, 553, 554, 555, 556, 557, 558, 559, 560, 561, 562, 563, 564, 565], "isFourFour": true, "hasNotes": true, "time": 288}, {"events": [566, 567], "isFourFour": true, "hasNotes": true, "time": 336}], "isDrum": false, "minPitch": 62, "maxPitch": 81, "instrument": 26, "avPolyphony": 1, "noteDensity": 9, "noteDensityV2": 3}, {"bars": [{"events": [568, 569, 570, 571, 572, 573], "isFourFour": true, "hasNotes": true, "time": 0}, {"events": [574, 575, 576, 577, 578, 579, 580, 581], "isFourFour": true, "hasNotes": true, "time": 48}, {"events": [582, 583, 584, 585, 586, 587], "isFourFour": true, "hasNotes": true, "time": 96}, {"events": [588, 589, 590, 591, 592, 593], "isFourFour": true, "hasNotes": true, "time": 144}, {"events": [594, 595, 596, 597, 598, 599, 600, 601], "isFourFour": true, "hasNotes": true, "time": 192}, {"events": [602, 603, 604, 605, 606, 607, 608, 609], "isFourFour": true, "hasNotes": true, "time": 240}, {"events": [610, 611, 612, 613, 614, 615, 616, 617], "isFourFour": true, "hasNotes": true, "time": 288}, {"events": [618, 619, 620, 621, 622, 623, 624, 625, 626, 627, 628, 629, 630, 631], "isFourFour": true, "hasNotes": true, "time": 336}], "isDrum": false, "minPitch": 28, "maxPitch": 38, "instrument": 33, "avPolyphony": 1, "noteDensity": 8, "noteDensityV2": 3}], "events": [{"time": 0, "velocity": 108, "pitch": 69, "instrument": 0, "track": 0, "qtime": 0, "isDrum": false}, {"time": 12, "velocity": 0, "pitch": 69, "instrument": 0, "track": 0, "qtime": 12, "isDrum": false}, {"time": 12, "velocity": 108, "pitch": 69, "instrument": 0, "track": 0, "qtime": 12, "isDrum": false}, {"time": 24, "velocity": 0, "pitch": 69, "instrument": 0, "track": 0, "qtime": 24, "isDrum": false}, {"time": 24, "velocity": 108, "pitch": 67, "instrument": 0, "track": 0, "qtime": 24, "isDrum": false}, {"time": 36, "velocity": 0, "pitch": 67, "instrument": 0, "track": 0, "qtime": 36, "isDrum": false}, {"time": 36, "velocity": 108, "pitch": 65, "instrument": 0, "track": 0, "qtime": 36, "isDrum": false}, {"time": 48, "velocity": 0, "pitch": 65, "instrument": 0, "track": 0, "qtime": 48, "isDrum": false}, {"time": 48, "velocity": 108, "pitch": 69, "instrument": 0, "track": 0, "qtime": 0, "isDrum": false}, {"time": 60, "velocity": 0, "pitch": 69, "instrument": 0, "track": 0, "qtime": 12, "isDrum": false}, {"time": 60, "velocity": 108, "pitch": 67, "instrument": 0, "track": 0, "qtime": 12, "isDrum": false}, {"time": 72, "velocity": 0, "pitch": 67, "instrument": 0, "track": 0, "qtime": 24, "isDrum": false}, {"time": 72, "velocity": 108, "pitch": 69, "instrument": 0, "track": 0, "qtime": 24, "isDrum": false}, {"time": 84, "velocity": 0, "pitch": 69, "instrument": 0, "track": 0, "qtime": 36, "isDrum": false}, {"time": 84, "velocity": 108, "pitch": 65, "instrument": 0, "track": 0, "qtime": 36, "isDrum": false}, {"time": 96, "velocity": 0, "pitch": 65, "instrument": 0, "track": 0, "qtime": 48, "isDrum": false}, {"time": 96, "velocity": 108, "pitch": 69, "instrument": 0, "track": 0, "qtime": 0, "isDrum": false}, {"time": 108, "velocity": 0, "pitch": 69, "instrument": 0, "track": 0, "qtime": 12, "isDrum": false}, {"time": 108, "velocity": 108, "pitch": 69, "instrument": 0, "track": 0, "qtime": 12, "isDrum": false}, {"time": 120, "velocity": 0, "pitch": 69, "instrument": 0, "track": 0, "qtime": 24, "isDrum": false}, {"time": 120, "velocity": 108, "pitch": 67, "instrument": 0, "track": 0, "qtime": 24, "isDrum": false}, {"time": 132, "velocity": 0, "pitch": 67, "instrument": 0, "track": 0, "qtime": 36, "isDrum": false}, {"time": 132, "velocity": 108, "pitch": 72, "instrument": 0, "track": 0, "qtime": 36, "isDrum": false}, {"time": 144, "velocity": 0, "pitch": 72, "instrument": 0, "track": 0, "qtime": 48, "isDrum": false}, {"time": 144, "velocity": 108, "pitch": 69, "instrument": 0, "track": 0, "qtime": 0, "isDrum": false}, {"time": 156, "velocity": 0, "pitch": 69, "instrument": 0, "track": 0, "qtime": 12, "isDrum": false}, {"time": 156, "velocity": 108, "pitch": 65, "instrument": 0, "track": 0, "qtime": 12, "isDrum": false}, {"time": 168, "velocity": 0, "pitch": 65, "instrument": 0, "track": 0, "qtime": 24, "isDrum": false}, {"time": 168, "velocity": 108, "pitch": 67, "instrument": 0, "track": 0, "qtime": 24, "isDrum": false}, {"time": 180, "velocity": 0, "pitch": 67, "instrument": 0, "track": 0, "qtime": 36, "isDrum": false}, {"time": 180, "velocity": 108, "pitch": 69, "instrument": 0, "track": 0, "qtime": 36, "isDrum": false}, {"time": 192, "velocity": 0, "pitch": 69, "instrument": 0, "track": 0, "qtime": 48, "isDrum": false}, {"time": 192, "velocity": 108, "pitch": 69, "instrument": 0, "track": 0, "qtime": 0, "isDrum": false}, {"time": 204, "velocity": 0, "pitch": 69, "instrument": 0, "track": 0, "qtime": 12, "isDrum": false}, {"time": 204, "velocity": 108, "pitch": 72, "instrument": 0, "track": 0, "qtime": 12, "isDrum": false}, {"time": 216, "velocity": 0, "pitch": 72, "instrument": 0, "track": 0, "qtime": 24, "isDrum": false}, {"time": 216, "velocity": 108, "pitch": 74, "instrument": 0, "track": 0, "qtime": 24, "isDrum": false}, {"time": 222, "velocity": 0, "pitch": 74, "instrument": 0, "track": 0, "qtime": 30, "isDrum": false}, {"time": 222, "velocity": 108, "pitch": 76, "instrument": 0, "track": 0, "qtime": 30, "isDrum": false}, {"time": 228, "velocity": 0, "pitch": 76, "instrument": 0, "track": 0, "qtime": 36, "isDrum": false}, {"time": 228, "velocity": 108, "pitch": 77, "instrument": 0, "track": 0, "qtime": 36, "isDrum": false}, {"time": 240, "velocity": 0, "pitch": 77, "instrument": 0, "track": 0, "qtime": 48, "isDrum": false}, {"time": 240, "velocity": 108, "pitch": 76, "instrument": 0, "track": 0, "qtime": 0, "isDrum": false}, {"time": 252, "velocity": 0, "pitch": 76, "instrument": 0, "track": 0, "qtime": 12, "isDrum": false}, {"time": 252, "velocity": 108, "pitch": 74, "instrument": 0, "track": 0, "qtime": 12, "isDrum": false}, {"time": 264, "velocity": 0, "pitch": 74, "instrument": 0, "track": 0, "qtime": 24, "isDrum": false}, {"time": 264, "velocity": 108, "pitch": 73, "instrument": 0, "track": 0, "qtime": 24, "isDrum": false}, {"time": 276, "velocity": 0, "pitch": 73, "instrument": 0, "track": 0, "qtime": 36, "isDrum": false}, {"time": 276, "velocity": 108, "pitch": 74, "instrument": 0, "track": 0, "qtime": 36, "isDrum": false}, {"time": 288, "velocity": 0, "pitch": 74, "instrument": 0, "track": 0, "qtime": 48, "isDrum": false}, {"time": 288, "velocity": 108, "pitch": 74, "instrument": 0, "track": 0, "qtime": 0, "isDrum": false}, {"time": 300, "velocity": 0, "pitch": 74, "instrument": 0, "track": 0, "qtime": 12, "isDrum": false}, {"time": 300, "velocity": 108, "pitch": 76, "instrument": 0, "track": 0, "qtime": 12, "isDrum": false}, {"time": 312, "velocity": 0, "pitch": 76, "instrument": 0, "track": 0, "qtime": 24, "isDrum": false}, {"time": 312, "velocity": 108, "pitch": 74, "instrument": 0, "track": 0, "qtime": 24, "isDrum": false}, {"time": 324, "velocity": 0, "pitch": 74, "instrument": 0, "track": 0, "qtime": 36, "isDrum": false}, {"time": 324, "velocity": 108, "pitch": 72, "instrument": 0, "track": 0, "qtime": 36, "isDrum": false}, {"time": 336, "velocity": 0, "pitch": 72, "instrument": 0, "track": 0, "qtime": 48, "isDrum": false}, {"time": 336, "velocity": 108, "pitch": 71, "instrument": 0, "track": 0, "qtime": 0, "isDrum": false}, {"time": 348, "velocity": 0, "pitch": 71, "instrument": 0, "track": 0, "qtime": 12, "isDrum": false}, {"time": 348, "velocity": 108, "pitch": 69, "instrument": 0, "track": 0, "qtime": 12, "isDrum": false}, {"time": 360, "velocity": 0, "pitch": 69, "instrument": 0, "track": 0, "qtime": 24, "isDrum": false}, {"time": 360, "velocity": 108, "pitch": 71, "instrument": 0, "track": 0, "qtime": 24, "isDrum": false}, {"time": 372, "velocity": 0, "pitch": 71, "instrument": 0, "track": 0, "qtime": 36, "isDrum": false}, {"time": 372, "velocity": 108, "pitch": 69, "instrument": 0, "track": 0, "qtime": 36, "isDrum": false}, {"time": 384, "velocity": 0, "pitch": 69, "instrument": 0, "track": 0, "qtime": 48, "isDrum": false}, {"time": 0, "velocity": 108, "pitch": 65, "instrument": 0, "track": 1, "qtime": 0, "isDrum": false}, {"time": 12, "velocity": 0, "pitch": 65, "instrument": 0, "track": 1, "qtime": 12, "isDrum": false}, {"time": 12, "velocity": 108, "pitch": 64, "instrument": 0, "track": 1, "qtime": 12, "isDrum": false}, {"time": 24, "velocity": 0, "pitch": 64, "instrument": 0, "track": 1, "qtime": 24, "isDrum": false}, {"time": 24, "velocity": 108, "pitch": 62, "instrument": 0, "track": 1, "qtime": 24, "isDrum": false}, {"time": 36, "velocity": 0, "pitch": 62, "instrument": 0, "track": 1, "qtime": 36, "isDrum": false}, {"time": 36, "velocity": 108, "pitch": 62, "instrument": 0, "track": 1, "qtime": 36, "isDrum": false}, {"time": 48, "velocity": 0, "pitch": 62, "instrument": 0, "track": 1, "qtime": 48, "isDrum": false}, {"time": 48, "velocity": 108, "pitch": 62, "instrument": 0, "track": 1, "qtime": 0, "isDrum": false}, {"time": 60, "velocity": 0, "pitch": 62, "instrument": 0, "track": 1, "qtime": 12, "isDrum": false}, {"time": 60, "velocity": 108, "pitch": 62, "instrument": 0, "track": 1, "qtime": 12, "isDrum": false}, {"time": 72, "velocity": 0, "pitch": 62, "instrument": 0, "track": 1, "qtime": 24, "isDrum": false}, {"time": 72, "velocity": 108, "pitch": 61, "instrument": 0, "track": 1, "qtime": 24, "isDrum": false}, {"time": 84, "velocity": 0, "pitch": 61, "instrument": 0, "track": 1, "qtime": 36, "isDrum": false}, {"time": 84, "velocity": 108, "pitch": 57, "instrument": 0, "track": 1, "qtime": 36, "isDrum": false}, {"time": 96, "velocity": 0, "pitch": 57, "instrument": 0, "track": 1, "qtime": 48, "isDrum": false}, {"time": 96, "velocity": 108, "pitch": 65, "instrument": 0, "track": 1, "qtime": 0, "isDrum": false}, {"time": 108, "velocity": 0, "pitch": 65, "instrument": 0, "track": 1, "qtime": 12, "isDrum": false}, {"time": 108, "velocity": 108, "pitch": 65, "instrument": 0, "track": 1, "qtime": 12, "isDrum": false}, {"time": 120, "velocity": 0, "pitch": 65, "instrument": 0, "track": 1, "qtime": 24, "isDrum": false}, {"time": 120, "velocity": 108, "pitch": 67, "instrument": 0, "track": 1, "qtime": 24, "isDrum": false}, {"time": 126, "velocity": 0, "pitch": 67, "instrument": 0, "track": 1, "qtime": 30, "isDrum": false}, {"time": 126, "velocity": 108, "pitch": 65, "instrument": 0, "track": 1, "qtime": 30, "isDrum": false}, {"time": 132, "velocity": 0, "pitch": 65, "instrument": 0, "track": 1, "qtime": 36, "isDrum": false}, {"time": 132, "velocity": 108, "pitch": 64, "instrument": 0, "track": 1, "qtime": 36, "isDrum": false}, {"time": 144, "velocity": 0, "pitch": 64, "instrument": 0, "track": 1, "qtime": 48, "isDrum": false}, {"time": 144, "velocity": 108, "pitch": 65, "instrument": 0, "track": 1, "qtime": 0, "isDrum": false}, {"time": 156, "velocity": 0, "pitch": 65, "instrument": 0, "track": 1, "qtime": 12, "isDrum": false}, {"time": 156, "velocity": 108, "pitch": 62, "instrument": 0, "track": 1, "qtime": 12, "isDrum": false}, {"time": 168, "velocity": 0, "pitch": 62, "instrument": 0, "track": 1, "qtime": 24, "isDrum": false}, {"time": 168, "velocity": 108, "pitch": 62, "instrument": 0, "track": 1, "qtime": 24, "isDrum": false}, {"time": 180, "velocity": 0, "pitch": 62, "instrument": 0, "track": 1, "qtime": 36, "isDrum": false}, {"time": 180, "velocity": 108, "pitch": 61, "instrument": 0, "track": 1, "qtime": 36, "isDrum": false}, {"time": 192, "velocity": 0, "pitch": 61, "instrument": 0, "track": 1, "qtime": 48, "isDrum": false}, {"time": 192, "velocity": 108, "pitch": 62, "instrument": 0, "track": 1, "qtime": 0, "isDrum": false}, {"time": 204, "velocity": 0, "pitch": 62, "instrument": 0, "track": 1, "qtime": 12, "isDrum": false}, {"time": 204, "velocity": 108, "pitch": 64, "instrument": 0, "track": 1, "qtime": 12, "isDrum": false}, {"time": 210, "velocity": 0, "pitch": 64, "instrument": 0, "track": 1, "qtime": 18, "isDrum": false}, {"time": 210, "velocity": 108, "pitch": 65, "instrument": 0, "track": 1, "qtime": 18, "isDrum": false}, {"time": 216, "velocity": 0, "pitch": 65, "instrument": 0, "track": 1, "qtime": 24, "isDrum": false}, {"time": 216, "velocity": 108, "pitch": 65, "instrument": 0, "track": 1, "qtime": 24, "isDrum": false}, {"time": 228, "velocity": 0, "pitch": 65, "instrument": 0, "track": 1, "qtime": 36, "isDrum": false}, {"time": 228, "velocity": 108, "pitch": 64, "instrument": 0, "track": 1, "qtime": 36, "isDrum": false}, {"time": 234, "velocity": 0, "pitch": 64, "instrument": 0, "track": 1, "qtime": 42, "isDrum": false}, {"time": 234, "velocity": 108, "pitch": 65, "instrument": 0, "track": 1, "qtime": 42, "isDrum": false}, {"time": 240, "velocity": 0, "pitch": 65, "instrument": 0, "track": 1, "qtime": 48, "isDrum": false}, {"time": 240, "velocity": 108, "pitch": 67, "instrument": 0, "track": 1, "qtime": 0, "isDrum": false}, {"time": 252, "velocity": 0, "pitch": 67, "instrument": 0, "track": 1, "qtime": 12, "isDrum": false}, {"time": 252, "velocity": 108, "pitch": 67, "instrument": 0, "track": 1, "qtime": 12, "isDrum": false}, {"time": 258, "velocity": 0, "pitch": 67, "instrument": 0, "track": 1, "qtime": 18, "isDrum": false}, {"time": 258, "velocity": 108, "pitch": 66, "instrument": 0, "track": 1, "qtime": 18, "isDrum": false}, {"time": 264, "velocity": 0, "pitch": 66, "instrument": 0, "track": 1, "qtime": 24, "isDrum": false}, {"time": 264, "velocity": 108, "pitch": 64, "instrument": 0, "track": 1, "qtime": 24, "isDrum": false}, {"time": 276, "velocity": 0, "pitch": 64, "instrument": 0, "track": 1, "qtime": 36, "isDrum": false}, {"time": 276, "velocity": 108, "pitch": 65, "instrument": 0, "track": 1, "qtime": 36, "isDrum": false}, {"time": 288, "velocity": 0, "pitch": 65, "instrument": 0, "track": 1, "qtime": 48, "isDrum": false}, {"time": 288, "velocity": 108, "pitch": 67, "instrument": 0, "track": 1, "qtime": 0, "isDrum": false}, {"time": 300, "velocity": 0, "pitch": 67, "instrument": 0, "track": 1, "qtime": 12, "isDrum": false}, {"time": 300, "velocity": 108, "pitch": 67, "instrument": 0, "track": 1, "qtime": 12, "isDrum": false}, {"time": 312, "velocity": 0, "pitch": 67, "instrument": 0, "track": 1, "qtime": 24, "isDrum": false}, {"time": 312, "velocity": 108, "pitch": 66, "instrument": 0, "track": 1, "qtime": 24, "isDrum": false}, {"time": 318, "velocity": 0, "pitch": 66, "instrument": 0, "track": 1, "qtime": 30, "isDrum": false}, {"time": 318, "velocity": 108, "pitch": 68, "instrument": 0, "track": 1, "qtime": 30, "isDrum": false}, {"time": 324, "velocity": 0, "pitch": 68, "instrument": 0, "track": 1, "qtime": 36, "isDrum": false}, {"time": 324, "velocity": 108, "pitch": 69, "instrument": 0, "track": 1, "qtime": 36, "isDrum": false}, {"time": 336, "velocity": 0, "pitch": 69, "instrument": 0, "track": 1, "qtime": 48, "isDrum": false}, {"time": 336, "velocity": 108, "pitch": 64, "instrument": 0, "track": 1, "qtime": 0, "isDrum": false}, {"time": 348, "velocity": 0, "pitch": 64, "instrument": 0, "track": 1, "qtime": 12, "isDrum": false}, {"time": 348, "velocity": 108, "pitch": 64, "instrument": 0, "track": 1, "qtime": 12, "isDrum": false}, {"time": 354, "velocity": 0, "pitch": 64, "instrument": 0, "track": 1, "qtime": 18, "isDrum": false}, {"time": 354, "velocity": 108, "pitch": 69, "instrument": 0, "track": 1, "qtime": 18, "isDrum": false}, {"time": 360, "velocity": 0, "pitch": 69, "instrument": 0, "track": 1, "qtime": 24, "isDrum": false}, {"time": 360, "velocity": 108, "pitch": 69, "instrument": 0, "track": 1, "qtime": 24, "isDrum": false}, {"time": 366, "velocity": 0, "pitch": 69, "instrument": 0, "track": 1, "qtime": 30, "isDrum": false}, {"time": 366, "velocity": 108, "pitch": 68, "instrument": 0, "track": 1, "qtime": 30, "isDrum": false}, {"time": 372, "velocity": 0, "pitch": 68, "instrument": 0, "track": 1, "qtime": 36, "isDrum": false}, {"time": 372, "velocity": 108, "pitch": 64, "instrument": 0, "track": 1, "qtime": 36, "isDrum": false}, {"time": 384, "velocity": 0, "pitch": 64, "instrument": 0, "track": 1, "qtime": 48, "isDrum": false}, {"time": 0, "velocity": 108, "pitch": 62, "instrument": 0, "track": 2, "qtime": 0, "isDrum": false}, {"time": 12, "velocity": 0, "pitch": 62, "instrument": 0, "track": 2, "qtime": 12, "isDrum": false}, {"time": 12, "velocity": 108, "pitch": 57, "instrument": 0, "track": 2, "qtime": 12, "isDrum": false}, {"time": 24, "velocity": 0, "pitch": 57, "instrument": 0, "track": 2, "qtime": 24, "isDrum": false}, {"time": 24, "velocity": 108, "pitch": 57, "instrument": 0, "track": 2, "qtime": 24, "isDrum": false}, {"time": 36, "velocity": 0, "pitch": 57, "instrument": 0, "track": 2, "qtime": 36, "isDrum": false}, {"time": 36, "velocity": 108, "pitch": 58, "instrument": 0, "track": 2, "qtime": 36, "isDrum": false}, {"time": 48, "velocity": 0, "pitch": 58, "instrument": 0, "track": 2, "qtime": 48, "isDrum": false}, {"time": 48, "velocity": 108, "pitch": 57, "instrument": 0, "track": 2, "qtime": 0, "isDrum": false}, {"time": 60, "velocity": 0, "pitch": 57, "instrument": 0, "track": 2, "qtime": 12, "isDrum": false}, {"time": 60, "velocity": 108, "pitch": 58, "instrument": 0, "track": 2, "qtime": 12, "isDrum": false}, {"time": 72, "velocity": 0, "pitch": 58, "instrument": 0, "track": 2, "qtime": 24, "isDrum": false}, {"time": 72, "velocity": 108, "pitch": 52, "instrument": 0, "track": 2, "qtime": 24, "isDrum": false}, {"time": 84, "velocity": 0, "pitch": 52, "instrument": 0, "track": 2, "qtime": 36, "isDrum": false}, {"time": 84, "velocity": 108, "pitch": 53, "instrument": 0, "track": 2, "qtime": 36, "isDrum": false}, {"time": 96, "velocity": 0, "pitch": 53, "instrument": 0, "track": 2, "qtime": 48, "isDrum": false}, {"time": 96, "velocity": 108, "pitch": 57, "instrument": 0, "track": 2, "qtime": 0, "isDrum": false}, {"time": 108, "velocity": 0, "pitch": 57, "instrument": 0, "track": 2, "qtime": 12, "isDrum": false}, {"time": 108, "velocity": 108, "pitch": 60, "instrument": 0, "track": 2, "qtime": 12, "isDrum": false}, {"time": 120, "velocity": 0, "pitch": 60, "instrument": 0, "track": 2, "qtime": 24, "isDrum": false}, {"time": 120, "velocity": 108, "pitch": 60, "instrument": 0, "track": 2, "qtime": 24, "isDrum": false}, {"time": 132, "velocity": 0, "pitch": 60, "instrument": 0, "track": 2, "qtime": 36, "isDrum": false}, {"time": 132, "velocity": 108, "pitch": 60, "instrument": 0, "track": 2, "qtime": 36, "isDrum": false}, {"time": 144, "velocity": 0, "pitch": 60, "instrument": 0, "track": 2, "qtime": 48, "isDrum": false}, {"time": 144, "velocity": 108, "pitch": 60, "instrument": 0, "track": 2, "qtime": 0, "isDrum": false}, {"time": 156, "velocity": 0, "pitch": 60, "instrument": 0, "track": 2, "qtime": 12, "isDrum": false}, {"time": 156, "velocity": 108, "pitch": 62, "instrument": 0, "track": 2, "qtime": 12, "isDrum": false}, {"time": 168, "velocity": 0, "pitch": 62, "instrument": 0, "track": 2, "qtime": 24, "isDrum": false}, {"time": 168, "velocity": 108, "pitch": 62, "instrument": 0, "track": 2, "qtime": 24, "isDrum": false}, {"time": 180, "velocity": 0, "pitch": 62, "instrument": 0, "track": 2, "qtime": 36, "isDrum": false}, {"time": 180, "velocity": 108, "pitch": 57, "instrument": 0, "track": 2, "qtime": 36, "isDrum": false}, {"time": 186, "velocity": 0, "pitch": 57, "instrument": 0, "track": 2, "qtime": 42, "isDrum": false}, {"time": 186, "velocity": 108, "pitch": 55, "instrument": 0, "track": 2, "qtime": 42, "isDrum": false}, {"time": 192, "velocity": 0, "pitch": 55, "instrument": 0, "track": 2, "qtime": 48, "isDrum": false}, {"time": 192, "velocity": 108, "pitch": 53, "instrument": 0, "track": 2, "qtime": 0, "isDrum": false}, {"time": 204, "velocity": 0, "pitch": 53, "instrument": 0, "track": 2, "qtime": 12, "isDrum": false}, {"time": 204, "velocity": 108, "pitch": 57, "instrument": 0, "track": 2, "qtime": 12, "isDrum": false}, {"time": 216, "velocity": 0, "pitch": 57, "instrument": 0, "track": 2, "qtime": 24, "isDrum": false}, {"time": 216, "velocity": 108, "pitch": 58, "instrument": 0, "track": 2, "qtime": 24, "isDrum": false}, {"time": 228, "velocity": 0, "pitch": 58, "instrument": 0, "track": 2, "qtime": 36, "isDrum": false}, {"time": 228, "velocity": 108, "pitch": 60, "instrument": 0, "track": 2, "qtime": 36, "isDrum": false}, {"time": 240, "velocity": 0, "pitch": 60, "instrument": 0, "track": 2, "qtime": 48, "isDrum": false}, {"time": 240, "velocity": 108, "pitch": 58, "instrument": 0, "track": 2, "qtime": 0, "isDrum": false}, {"time": 246, "velocity": 0, "pitch": 58, "instrument": 0, "track": 2, "qtime": 6, "isDrum": false}, {"time": 246, "velocity": 108, "pitch": 60, "instrument": 0, "track": 2, "qtime": 6, "isDrum": false}, {"time": 252, "velocity": 0, "pitch": 60, "instrument": 0, "track": 2, "qtime": 12, "isDrum": false}, {"time": 252, "velocity": 108, "pitch": 62, "instrument": 0, "track": 2, "qtime": 12, "isDrum": false}, {"time": 264, "velocity": 0, "pitch": 62, "instrument": 0, "track": 2, "qtime": 24, "isDrum": false}, {"time": 264, "velocity": 108, "pitch": 64, "instrument": 0, "track": 2, "qtime": 24, "isDrum": false}, {"time": 276, "velocity": 0, "pitch": 64, "instrument": 0, "track": 2, "qtime": 36, "isDrum": false}, {"time": 276, "velocity": 108, "pitch": 65, "instrument": 0, "track": 2, "qtime": 36, "isDrum": false}, {"time": 288, "velocity": 0, "pitch": 65, "instrument": 0, "track": 2, "qtime": 48, "isDrum": false}, {"time": 288, "velocity": 108, "pitch": 59, "instrument": 0, "track": 2, "qtime": 0, "isDrum": false}, {"time": 300, "velocity": 0, "pitch": 59, "instrument": 0, "track": 2, "qtime": 12, "isDrum": false}, {"time": 300, "velocity": 108, "pitch": 60, "instrument": 0, "track": 2, "qtime": 12, "isDrum": false}, {"time": 306, "velocity": 0, "pitch": 60, "instrument": 0, "track": 2, "qtime": 18, "isDrum": false}, {"time": 306, "velocity": 108, "pitch": 59, "instrument": 0, "track": 2, "qtime": 18, "isDrum": false}, {"time": 312, "velocity": 0, "pitch": 59, "instrument": 0, "track": 2, "qtime": 24, "isDrum": false}, {"time": 312, "velocity": 108, "pitch": 57, "instrument": 0, "track": 2, "qtime": 24, "isDrum": false}, {"time": 324, "velocity": 0, "pitch": 57, "instrument": 0, "track": 2, "qtime": 36, "isDrum": false}, {"time": 324, "velocity": 108, "pitch": 62, "instrument": 0, "track": 2, "qtime": 36, "isDrum": false}, {"time": 336, "velocity": 0, "pitch": 62, "instrument": 0, "track": 2, "qtime": 48, "isDrum": false}, {"time": 336, "velocity": 108, "pitch": 62, "instrument": 0, "track": 2, "qtime": 0, "isDrum": false}, {"time": 348, "velocity": 0, "pitch": 62, "instrument": 0, "track": 2, "qtime": 12, "isDrum": false}, {"time": 348, "velocity": 108, "pitch": 60, "instrument": 0, "track": 2, "qtime": 12, "isDrum": false}, {"time": 360, "velocity": 0, "pitch": 60, "instrument": 0, "track": 2, "qtime": 24, "isDrum": false}, {"time": 360, "velocity": 108, "pitch": 62, "instrument": 0, "track": 2, "qtime": 24, "isDrum": false}, {"time": 372, "velocity": 0, "pitch": 62, "instrument": 0, "track": 2, "qtime": 36, "isDrum": false}, {"time": 372, "velocity": 108, "pitch": 60, "instrument": 0, "track": 2, "qtime": 36, "isDrum": false}, {"time": 384, "velocity": 0, "pitch": 60, "instrument": 0, "track": 2, "qtime": 48, "isDrum": false}, {"time": 0, "velocity": 108, "pitch": 50, "instrument": 0, "track": 3, "qtime": 0, "isDrum": false}, {"time": 12, "velocity": 0, "pitch": 50, "instrument": 0, "track": 3, "qtime": 12, "isDrum": false}, {"time": 12, "velocity": 108, "pitch": 49, "instrument": 0, "track": 3, "qtime": 12, "isDrum": false}, {"time": 24, "velocity": 0, "pitch": 49, "instrument": 0, "track": 3, "qtime": 24, "isDrum": false}, {"time": 24, "velocity": 108, "pitch": 50, "instrument": 0, "track": 3, "qtime": 24, "isDrum": false}, {"time": 36, "velocity": 0, "pitch": 50, "instrument": 0, "track": 3, "qtime": 36, "isDrum": false}, {"time": 36, "velocity": 108, "pitch": 58, "instrument": 0, "track": 3, "qtime": 36, "isDrum": false}, {"time": 48, "velocity": 0, "pitch": 58, "instrument": 0, "track": 3, "qtime": 48, "isDrum": false}, {"time": 48, "velocity": 108, "pitch": 53, "instrument": 0, "track": 3, "qtime": 0, "isDrum": false}, {"time": 60, "velocity": 0, "pitch": 53, "instrument": 0, "track": 3, "qtime": 12, "isDrum": false}, {"time": 60, "velocity": 108, "pitch": 55, "instrument": 0, "track": 3, "qtime": 12, "isDrum": false}, {"time": 72, "velocity": 0, "pitch": 55, "instrument": 0, "track": 3, "qtime": 24, "isDrum": false}, {"time": 72, "velocity": 108, "pitch": 57, "instrument": 0, "track": 3, "qtime": 24, "isDrum": false}, {"time": 84, "velocity": 0, "pitch": 57, "instrument": 0, "track": 3, "qtime": 36, "isDrum": false}, {"time": 84, "velocity": 108, "pitch": 50, "instrument": 0, "track": 3, "qtime": 36, "isDrum": false}, {"time": 96, "velocity": 0, "pitch": 50, "instrument": 0, "track": 3, "qtime": 48, "isDrum": false}, {"time": 96, "velocity": 108, "pitch": 50, "instrument": 0, "track": 3, "qtime": 0, "isDrum": false}, {"time": 108, "velocity": 0, "pitch": 50, "instrument": 0, "track": 3, "qtime": 12, "isDrum": false}, {"time": 108, "velocity": 108, "pitch": 52, "instrument": 0, "track": 3, "qtime": 12, "isDrum": false}, {"time": 114, "velocity": 0, "pitch": 52, "instrument": 0, "track": 3, "qtime": 18, "isDrum": false}, {"time": 114, "velocity": 108, "pitch": 50, "instrument": 0, "track": 3, "qtime": 18, "isDrum": false}, {"time": 120, "velocity": 0, "pitch": 50, "instrument": 0, "track": 3, "qtime": 24, "isDrum": false}, {"time": 120, "velocity": 108, "pitch": 48, "instrument": 0, "track": 3, "qtime": 24, "isDrum": false}, {"time": 132, "velocity": 0, "pitch": 48, "instrument": 0, "track": 3, "qtime": 36, "isDrum": false}, {"time": 132, "velocity": 108, "pitch": 48, "instrument": 0, "track": 3, "qtime": 36, "isDrum": false}, {"time": 144, "velocity": 0, "pitch": 48, "instrument": 0, "track": 3, "qtime": 48, "isDrum": false}, {"time": 144, "velocity": 108, "pitch": 45, "instrument": 0, "track": 3, "qtime": 0, "isDrum": false}, {"time": 156, "velocity": 0, "pitch": 45, "instrument": 0, "track": 3, "qtime": 12, "isDrum": false}, {"time": 156, "velocity": 108, "pitch": 46, "instrument": 0, "track": 3, "qtime": 12, "isDrum": false}, {"time": 168, "velocity": 0, "pitch": 46, "instrument": 0, "track": 3, "qtime": 24, "isDrum": false}, {"time": 168, "velocity": 108, "pitch": 43, "instrument": 0, "track": 3, "qtime": 24, "isDrum": false}, {"time": 180, "velocity": 0, "pitch": 43, "instrument": 0, "track": 3, "qtime": 36, "isDrum": false}, {"time": 180, "velocity": 108, "pitch": 45, "instrument": 0, "track": 3, "qtime": 36, "isDrum": false}, {"time": 192, "velocity": 0, "pitch": 45, "instrument": 0, "track": 3, "qtime": 48, "isDrum": false}, {"time": 192, "velocity": 108, "pitch": 50, "instrument": 0, "track": 3, "qtime": 0, "isDrum": false}, {"time": 204, "velocity": 0, "pitch": 50, "instrument": 0, "track": 3, "qtime": 12, "isDrum": false}, {"time": 204, "velocity": 108, "pitch": 48, "instrument": 0, "track": 3, "qtime": 12, "isDrum": false}, {"time": 216, "velocity": 0, "pitch": 48, "instrument": 0, "track": 3, "qtime": 24, "isDrum": false}, {"time": 216, "velocity": 108, "pitch": 46, "instrument": 0, "track": 3, "qtime": 24, "isDrum": false}, {"time": 228, "velocity": 0, "pitch": 46, "instrument": 0, "track": 3, "qtime": 36, "isDrum": false}, {"time": 228, "velocity": 108, "pitch": 45, "instrument": 0, "track": 3, "qtime": 36, "isDrum": false}, {"time": 240, "velocity": 0, "pitch": 45, "instrument": 0, "track": 3, "qtime": 48, "isDrum": false}, {"time": 240, "velocity": 108, "pitch": 43, "instrument": 0, "track": 3, "qtime": 0, "isDrum": false}, {"time": 252, "velocity": 0, "pitch": 43, "instrument": 0, "track": 3, "qtime": 12, "isDrum": false}, {"time": 252, "velocity": 108, "pitch": 43, "instrument": 0, "track": 3, "qtime": 12, "isDrum": false}, {"time": 258, "velocity": 0, "pitch": 43, "instrument": 0, "track": 3, "qtime": 18, "isDrum": false}, {"time": 258, "velocity": 108, "pitch": 47, "instrument": 0, "track": 3, "qtime": 18, "isDrum": false}, {"time": 264, "velocity": 0, "pitch": 47, "instrument": 0, "track": 3, "qtime": 24, "isDrum": false}, {"time": 264, "velocity": 108, "pitch": 45, "instrument": 0, "track": 3, "qtime": 24, "isDrum": false}, {"time": 276, "velocity": 0, "pitch": 45, "instrument": 0, "track": 3, "qtime": 36, "isDrum": false}, {"time": 276, "velocity": 108, "pitch": 50, "instrument": 0, "track": 3, "qtime": 36, "isDrum": false}, {"time": 288, "velocity": 0, "pitch": 50, "instrument": 0, "track": 3, "qtime": 48, "isDrum": false}, {"time": 288, "velocity": 108, "pitch": 55, "instrument": 0, "track": 3, "qtime": 0, "isDrum": false}, {"time": 300, "velocity": 0, "pitch": 55, "instrument": 0, "track": 3, "qtime": 12, "isDrum": false}, {"time": 300, "velocity": 108, "pitch": 60, "instrument": 0, "track": 3, "qtime": 12, "isDrum": false}, {"time": 312, "velocity": 0, "pitch": 60, "instrument": 0, "track": 3, "qtime": 24, "isDrum": false}, {"time": 312, "velocity": 108, "pitch": 60, "instrument": 0, "track": 3, "qtime": 24, "isDrum": false}, {"time": 324, "velocity": 0, "pitch": 60, "instrument": 0, "track": 3, "qtime": 36, "isDrum": false}, {"time": 324, "velocity": 108, "pitch": 57, "instrument": 0, "track": 3, "qtime": 36, "isDrum": false}, {"time": 330, "velocity": 0, "pitch": 57, "instrument": 0, "track": 3, "qtime": 42, "isDrum": false}, {"time": 330, "velocity": 108, "pitch": 53, "instrument": 0, "track": 3, "qtime": 42, "isDrum": false}, {"time": 336, "velocity": 0, "pitch": 53, "instrument": 0, "track": 3, "qtime": 48, "isDrum": false}, {"time": 336, "velocity": 108, "pitch": 43, "instrument": 0, "track": 3, "qtime": 0, "isDrum": false}, {"time": 348, "velocity": 0, "pitch": 43, "instrument": 0, "track": 3, "qtime": 12, "isDrum": false}, {"time": 348, "velocity": 108, "pitch": 45, "instrument": 0, "track": 3, "qtime": 12, "isDrum": false}, {"time": 360, "velocity": 0, "pitch": 45, "instrument": 0, "track": 3, "qtime": 24, "isDrum": false}, {"time": 360, "velocity": 108, "pitch": 47, "instrument": 0, "track": 3, "qtime": 24, "isDrum": false}, {"time": 372, "velocity": 0, "pitch": 47, "instrument": 0, "track": 3, "qtime": 36, "isDrum": false}, {"time": 372, "velocity": 108, "pitch": 48, "instrument": 0, "track": 3, "qtime": 36, "isDrum": false}, {"time": 384, "velocity": 0, "pitch": 48, "instrument": 0, "track": 3, "qtime": 48, "isDrum": false}, {"time": 0, "velocity": 108, "pitch": 36, "instrument": 0, "track": 9, "qtime": 0, "isDrum": true}, {"time": 0, "velocity": 108, "pitch": 42, "instrument": 0, "track": 9, "qtime": 0, "isDrum": true}, {"time": 6, "velocity": 0, "pitch": 36, "instrument": 0, "track": 9, "qtime": 6, "isDrum": true}, {"time": 6, "velocity": 0, "pitch": 42, "instrument": 0, "track": 9, "qtime": 6, "isDrum": true}, {"time": 6, "velocity": 108, "pitch": 46, "instrument": 0, "track": 9, "qtime": 6, "isDrum": true}, {"time": 12, "velocity": 0, "pitch": 46, "instrument": 0, "track": 9, "qtime": 12, "isDrum": true}, {"time": 12, "velocity": 108, "pitch": 38, "instrument": 0, "track": 9, "qtime": 12, "isDrum": true}, {"time": 12, "velocity": 108, "pitch": 42, "instrument": 0, "track": 9, "qtime": 12, "isDrum": true}, {"time": 18, "velocity": 0, "pitch": 38, "instrument": 0, "track": 9, "qtime": 18, "isDrum": true}, {"time": 18, "velocity": 0, "pitch": 42, "instrument": 0, "track": 9, "qtime": 18, "isDrum": true}, {"time": 18, "velocity": 108, "pitch": 36, "instrument": 0, "track": 9, "qtime": 18, "isDrum": true}, {"time": 18, "velocity": 108, "pitch": 46, "instrument": 0, "track": 9, "qtime": 18, "isDrum": true}, {"time": 24, "velocity": 0, "pitch": 36, "instrument": 0, "track": 9, "qtime": 24, "isDrum": true}, {"time": 24, "velocity": 0, "pitch": 46, "instrument": 0, "track": 9, "qtime": 24, "isDrum": true}, {"time": 24, "velocity": 108, "pitch": 36, "instrument": 0, "track": 9, "qtime": 24, "isDrum": true}, {"time": 24, "velocity": 108, "pitch": 42, "instrument": 0, "track": 9, "qtime": 24, "isDrum": true}, {"time": 30, "velocity": 0, "pitch": 36, "instrument": 0, "track": 9, "qtime": 30, "isDrum": true}, {"time": 30, "velocity": 0, "pitch": 42, "instrument": 0, "track": 9, "qtime": 30, "isDrum": true}, {"time": 30, "velocity": 108, "pitch": 46, "instrument": 0, "track": 9, "qtime": 30, "isDrum": true}, {"time": 36, "velocity": 0, "pitch": 46, "instrument": 0, "track": 9, "qtime": 36, "isDrum": true}, {"time": 36, "velocity": 108, "pitch": 38, "instrument": 0, "track": 9, "qtime": 36, "isDrum": true}, {"time": 36, "velocity": 108, "pitch": 42, "instrument": 0, "track": 9, "qtime": 36, "isDrum": true}, {"time": 42, "velocity": 0, "pitch": 38, "instrument": 0, "track": 9, "qtime": 42, "isDrum": true}, {"time": 42, "velocity": 0, "pitch": 42, "instrument": 0, "track": 9, "qtime": 42, "isDrum": true}, {"time": 42, "velocity": 108, "pitch": 46, "instrument": 0, "track": 9, "qtime": 42, "isDrum": true}, {"time": 48, "velocity": 0, "pitch": 46, "instrument": 0, "track": 9, "qtime": 48, "isDrum": true}, {"time": 48, "velocity": 108, "pitch": 36, "instrument": 0, "track": 9, "qtime": 0, "isDrum": true}, {"time": 48, "velocity": 108, "pitch": 42, "instrument": 0, "track": 9, "qtime": 0, "isDrum": true}, {"time": 54, "velocity": 0, "pitch": 36, "instrument": 0, "track": 9, "qtime": 6, "isDrum": true}, {"time": 54, "velocity": 0, "pitch": 42, "instrument": 0, "track": 9, "qtime": 6, "isDrum": true}, {"time": 54, "velocity": 108, "pitch": 46, "instrument": 0, "track": 9, "qtime": 6, "isDrum": true}, {"time": 60, "velocity": 0, "pitch": 46, "instrument": 0, "track": 9, "qtime": 12, "isDrum": true}, {"time": 60, "velocity": 108, "pitch": 38, "instrument": 0, "track": 9, "qtime": 12, "isDrum": true}, {"time": 60, "velocity": 108, "pitch": 42, "instrument": 0, "track": 9, "qtime": 12, "isDrum": true}, {"time": 66, "velocity": 0, "pitch": 38, "instrument": 0, "track": 9, "qtime": 18, "isDrum": true}, {"time": 66, "velocity": 0, "pitch": 42, "instrument": 0, "track": 9, "qtime": 18, "isDrum": true}, {"time": 66, "velocity": 108, "pitch": 36, "instrument": 0, "track": 9, "qtime": 18, "isDrum": true}, {"time": 66, "velocity": 108, "pitch": 46, "instrument": 0, "track": 9, "qtime": 18, "isDrum": true}, {"time": 72, "velocity": 0, "pitch": 36, "instrument": 0, "track": 9, "qtime": 24, "isDrum": true}, {"time": 72, "velocity": 0, "pitch": 46, "instrument": 0, "track": 9, "qtime": 24, "isDrum": true}, {"time": 72, "velocity": 108, "pitch": 36, "instrument": 0, "track": 9, "qtime": 24, "isDrum": true}, {"time": 72, "velocity": 108, "pitch": 42, "instrument": 0, "track": 9, "qtime": 24, "isDrum": true}, {"time": 78, "velocity": 0, "pitch": 36, "instrument": 0, "track": 9, "qtime": 30, "isDrum": true}, {"time": 78, "velocity": 0, "pitch": 42, "instrument": 0, "track": 9, "qtime": 30, "isDrum": true}, {"time": 78, "velocity": 108, "pitch": 46, "instrument": 0, "track": 9, "qtime": 30, "isDrum": true}, {"time": 84, "velocity": 0, "pitch": 46, "instrument": 0, "track": 9, "qtime": 36, "isDrum": true}, {"time": 84, "velocity": 108, "pitch": 38, "instrument": 0, "track": 9, "qtime": 36, "isDrum": true}, {"time": 84, "velocity": 108, "pitch": 42, "instrument": 0, "track": 9, "qtime": 36, "isDrum": true}, {"time": 90, "velocity": 0, "pitch": 38, "instrument": 0, "track": 9, "qtime": 42, "isDrum": true}, {"time": 90, "velocity": 0, "pitch": 42, "instrument": 0, "track": 9, "qtime": 42, "isDrum": true}, {"time": 90, "velocity": 108, "pitch": 46, "instrument": 0, "track": 9, "qtime": 42, "isDrum": true}, {"time": 96, "velocity": 0, "pitch": 46, "instrument": 0, "track": 9, "qtime": 48, "isDrum": true}, {"time": 96, "velocity": 108, "pitch": 36, "instrument": 0, "track": 9, "qtime": 0, "isDrum": true}, {"time": 96, "velocity": 108, "pitch": 42, "instrument": 0, "track": 9, "qtime": 0, "isDrum": true}, {"time": 102, "velocity": 0, "pitch": 36, "instrument": 0, "track": 9, "qtime": 6, "isDrum": true}, {"time": 102, "velocity": 0, "pitch": 42, "instrument": 0, "track": 9, "qtime": 6, "isDrum": true}, {"time": 102, "velocity": 108, "pitch": 46, "instrument": 0, "track": 9, "qtime": 6, "isDrum": true}, {"time": 108, "velocity": 0, "pitch": 46, "instrument": 0, "track": 9, "qtime": 12, "isDrum": true}, {"time": 108, "velocity": 108, "pitch": 38, "instrument": 0, "track": 9, "qtime": 12, "isDrum": true}, {"time": 108, "velocity": 108, "pitch": 42, "instrument": 0, "track": 9, "qtime": 12, "isDrum": true}, {"time": 114, "velocity": 0, "pitch": 38, "instrument": 0, "track": 9, "qtime": 18, "isDrum": true}, {"time": 114, "velocity": 0, "pitch": 42, "instrument": 0, "track": 9, "qtime": 18, "isDrum": true}, {"time": 114, "velocity": 108, "pitch": 36, "instrument": 0, "track": 9, "qtime": 18, "isDrum": true}, {"time": 114, "velocity": 108, "pitch": 46, "instrument": 0, "track": 9, "qtime": 18, "isDrum": true}, {"time": 120, "velocity": 0, "pitch": 36, "instrument": 0, "track": 9, "qtime": 24, "isDrum": true}, {"time": 120, "velocity": 0, "pitch": 46, "instrument": 0, "track": 9, "qtime": 24, "isDrum": true}, {"time": 120, "velocity": 108, "pitch": 36, "instrument": 0, "track": 9, "qtime": 24, "isDrum": true}, {"time": 120, "velocity": 108, "pitch": 42, "instrument": 0, "track": 9, "qtime": 24, "isDrum": true}, {"time": 126, "velocity": 0, "pitch": 36, "instrument": 0, "track": 9, "qtime": 30, "isDrum": true}, {"time": 126, "velocity": 0, "pitch": 42, "instrument": 0, "track": 9, "qtime": 30, "isDrum": true}, {"time": 126, "velocity": 108, "pitch": 46, "instrument": 0, "track": 9, "qtime": 30, "isDrum": true}, {"time": 132, "velocity": 0, "pitch": 46, "instrument": 0, "track": 9, "qtime": 36, "isDrum": true}, {"time": 132, "velocity": 108, "pitch": 38, "instrument": 0, "track": 9, "qtime": 36, "isDrum": true}, {"time": 132, "velocity": 108, "pitch": 42, "instrument": 0, "track": 9, "qtime": 36, "isDrum": true}, {"time": 138, "velocity": 0, "pitch": 38, "instrument": 0, "track": 9, "qtime": 42, "isDrum": true}, {"time": 138, "velocity": 0, "pitch": 42, "instrument": 0, "track": 9, "qtime": 42, "isDrum": true}, {"time": 138, "velocity": 108, "pitch": 46, "instrument": 0, "track": 9, "qtime": 42, "isDrum": true}, {"time": 144, "velocity": 0, "pitch": 46, "instrument": 0, "track": 9, "qtime": 48, "isDrum": true}, {"time": 144, "velocity": 108, "pitch": 36, "instrument": 0, "track": 9, "qtime": 0, "isDrum": true}, {"time": 144, "velocity": 108, "pitch": 42, "instrument": 0, "track": 9, "qtime": 0, "isDrum": true}, {"time": 150, "velocity": 0, "pitch": 36, "instrument": 0, "track": 9, "qtime": 6, "isDrum": true}, {"time": 150, "velocity": 0, "pitch": 42, "instrument": 0, "track": 9, "qtime": 6, "isDrum": true}, {"time": 150, "velocity": 108, "pitch": 46, "instrument": 0, "track": 9, "qtime": 6, "isDrum": true}, {"time": 156, "velocity": 0, "pitch": 46, "instrument": 0, "track": 9, "qtime": 12, "isDrum": true}, {"time": 156, "velocity": 108, "pitch": 38, "instrument": 0, "track": 9, "qtime": 12, "isDrum": true}, {"time": 156, "velocity": 108, "pitch": 42, "instrument": 0, "track": 9, "qtime": 12, "isDrum": true}, {"time": 162, "velocity": 0, "pitch": 38, "instrument": 0, "track": 9, "qtime": 18, "isDrum": true}, {"time": 162, "velocity": 0, "pitch": 42, "instrument": 0, "track": 9, "qtime": 18, "isDrum": true}, {"time": 162, "velocity": 108, "pitch": 36, "instrument": 0, "track": 9, "qtime": 18, "isDrum": true}, {"time": 162, "velocity": 108, "pitch": 46, "instrument": 0, "track": 9, "qtime": 18, "isDrum": true}, {"time": 168, "velocity": 0, "pitch": 36, "instrument": 0, "track": 9, "qtime": 24, "isDrum": true}, {"time": 168, "velocity": 0, "pitch": 46, "instrument": 0, "track": 9, "qtime": 24, "isDrum": true}, {"time": 168, "velocity": 108, "pitch": 36, "instrument": 0, "track": 9, "qtime": 24, "isDrum": true}, {"time": 168, "velocity": 108, "pitch": 42, "instrument": 0, "track": 9, "qtime": 24, "isDrum": true}, {"time": 174, "velocity": 0, "pitch": 36, "instrument": 0, "track": 9, "qtime": 30, "isDrum": true}, {"time": 174, "velocity": 0, "pitch": 42, "instrument": 0, "track": 9, "qtime": 30, "isDrum": true}, {"time": 174, "velocity": 108, "pitch": 46, "instrument": 0, "track": 9, "qtime": 30, "isDrum": true}, {"time": 180, "velocity": 0, "pitch": 46, "instrument": 0, "track": 9, "qtime": 36, "isDrum": true}, {"time": 180, "velocity": 108, "pitch": 38, "instrument": 0, "track": 9, "qtime": 36, "isDrum": true}, {"time": 180, "velocity": 108, "pitch": 42, "instrument": 0, "track": 9, "qtime": 36, "isDrum": true}, {"time": 186, "velocity": 0, "pitch": 38, "instrument": 0, "track": 9, "qtime": 42, "isDrum": true}, {"time": 186, "velocity": 0, "pitch": 42, "instrument": 0, "track": 9, "qtime": 42, "isDrum": true}, {"time": 186, "velocity": 108, "pitch": 46, "instrument": 0, "track": 9, "qtime": 42, "isDrum": true}, {"time": 192, "velocity": 0, "pitch": 46, "instrument": 0, "track": 9, "qtime": 48, "isDrum": true}, {"time": 192, "velocity": 108, "pitch": 36, "instrument": 0, "track": 9, "qtime": 0, "isDrum": true}, {"time": 192, "velocity": 108, "pitch": 42, "instrument": 0, "track": 9, "qtime": 0, "isDrum": true}, {"time": 198, "velocity": 0, "pitch": 36, "instrument": 0, "track": 9, "qtime": 6, "isDrum": true}, {"time": 198, "velocity": 0, "pitch": 42, "instrument": 0, "track": 9, "qtime": 6, "isDrum": true}, {"time": 198, "velocity": 108, "pitch": 46, "instrument": 0, "track": 9, "qtime": 6, "isDrum": true}, {"time": 204, "velocity": 0, "pitch": 46, "instrument": 0, "track": 9, "qtime": 12, "isDrum": true}, {"time": 204, "velocity": 108, "pitch": 38, "instrument": 0, "track": 9, "qtime": 12, "isDrum": true}, {"time": 204, "velocity": 108, "pitch": 42, "instrument": 0, "track": 9, "qtime": 12, "isDrum": true}, {"time": 210, "velocity": 0, "pitch": 38, "instrument": 0, "track": 9, "qtime": 18, "isDrum": true}, {"time": 210, "velocity": 0, "pitch": 42, "instrument": 0, "track": 9, "qtime": 18, "isDrum": true}, {"time": 210, "velocity": 108, "pitch": 36, "instrument": 0, "track": 9, "qtime": 18, "isDrum": true}, {"time": 210, "velocity": 108, "pitch": 46, "instrument": 0, "track": 9, "qtime": 18, "isDrum": true}, {"time": 216, "velocity": 0, "pitch": 36, "instrument": 0, "track": 9, "qtime": 24, "isDrum": true}, {"time": 216, "velocity": 0, "pitch": 46, "instrument": 0, "track": 9, "qtime": 24, "isDrum": true}, {"time": 216, "velocity": 108, "pitch": 36, "instrument": 0, "track": 9, "qtime": 24, "isDrum": true}, {"time": 216, "velocity": 108, "pitch": 42, "instrument": 0, "track": 9, "qtime": 24, "isDrum": true}, {"time": 222, "velocity": 0, "pitch": 36, "instrument": 0, "track": 9, "qtime": 30, "isDrum": true}, {"time": 222, "velocity": 0, "pitch": 42, "instrument": 0, "track": 9, "qtime": 30, "isDrum": true}, {"time": 222, "velocity": 108, "pitch": 46, "instrument": 0, "track": 9, "qtime": 30, "isDrum": true}, {"time": 228, "velocity": 0, "pitch": 46, "instrument": 0, "track": 9, "qtime": 36, "isDrum": true}, {"time": 228, "velocity": 108, "pitch": 38, "instrument": 0, "track": 9, "qtime": 36, "isDrum": true}, {"time": 228, "velocity": 108, "pitch": 42, "instrument": 0, "track": 9, "qtime": 36, "isDrum": true}, {"time": 234, "velocity": 0, "pitch": 38, "instrument": 0, "track": 9, "qtime": 42, "isDrum": true}, {"time": 234, "velocity": 0, "pitch": 42, "instrument": 0, "track": 9, "qtime": 42, "isDrum": true}, {"time": 234, "velocity": 108, "pitch": 46, "instrument": 0, "track": 9, "qtime": 42, "isDrum": true}, {"time": 240, "velocity": 0, "pitch": 46, "instrument": 0, "track": 9, "qtime": 48, "isDrum": true}, {"time": 240, "velocity": 108, "pitch": 36, "instrument": 0, "track": 9, "qtime": 0, "isDrum": true}, {"time": 240, "velocity": 108, "pitch": 42, "instrument": 0, "track": 9, "qtime": 0, "isDrum": true}, {"time": 246, "velocity": 0, "pitch": 36, "instrument": 0, "track": 9, "qtime": 6, "isDrum": true}, {"time": 246, "velocity": 0, "pitch": 42, "instrument": 0, "track": 9, "qtime": 6, "isDrum": true}, {"time": 246, "velocity": 108, "pitch": 46, "instrument": 0, "track": 9, "qtime": 6, "isDrum": true}, {"time": 252, "velocity": 0, "pitch": 46, "instrument": 0, "track": 9, "qtime": 12, "isDrum": true}, {"time": 252, "velocity": 108, "pitch": 38, "instrument": 0, "track": 9, "qtime": 12, "isDrum": true}, {"time": 252, "velocity": 108, "pitch": 42, "instrument": 0, "track": 9, "qtime": 12, "isDrum": true}, {"time": 258, "velocity": 0, "pitch": 38, "instrument": 0, "track": 9, "qtime": 18, "isDrum": true}, {"time": 258, "velocity": 0, "pitch": 42, "instrument": 0, "track": 9, "qtime": 18, "isDrum": true}, {"time": 258, "velocity": 108, "pitch": 36, "instrument": 0, "track": 9, "qtime": 18, "isDrum": true}, {"time": 258, "velocity": 108, "pitch": 46, "instrument": 0, "track": 9, "qtime": 18, "isDrum": true}, {"time": 264, "velocity": 0, "pitch": 36, "instrument": 0, "track": 9, "qtime": 24, "isDrum": true}, {"time": 264, "velocity": 0, "pitch": 46, "instrument": 0, "track": 9, "qtime": 24, "isDrum": true}, {"time": 264, "velocity": 108, "pitch": 36, "instrument": 0, "track": 9, "qtime": 24, "isDrum": true}, {"time": 264, "velocity": 108, "pitch": 42, "instrument": 0, "track": 9, "qtime": 24, "isDrum": true}, {"time": 270, "velocity": 0, "pitch": 36, "instrument": 0, "track": 9, "qtime": 30, "isDrum": true}, {"time": 270, "velocity": 0, "pitch": 42, "instrument": 0, "track": 9, "qtime": 30, "isDrum": true}, {"time": 270, "velocity": 108, "pitch": 46, "instrument": 0, "track": 9, "qtime": 30, "isDrum": true}, {"time": 276, "velocity": 0, "pitch": 46, "instrument": 0, "track": 9, "qtime": 36, "isDrum": true}, {"time": 276, "velocity": 108, "pitch": 38, "instrument": 0, "track": 9, "qtime": 36, "isDrum": true}, {"time": 276, "velocity": 108, "pitch": 42, "instrument": 0, "track": 9, "qtime": 36, "isDrum": true}, {"time": 282, "velocity": 0, "pitch": 38, "instrument": 0, "track": 9, "qtime": 42, "isDrum": true}, {"time": 282, "velocity": 0, "pitch": 42, "instrument": 0, "track": 9, "qtime": 42, "isDrum": true}, {"time": 282, "velocity": 108, "pitch": 46, "instrument": 0, "track": 9, "qtime": 42, "isDrum": true}, {"time": 288, "velocity": 0, "pitch": 46, "instrument": 0, "track": 9, "qtime": 48, "isDrum": true}, {"time": 288, "velocity": 108, "pitch": 36, "instrument": 0, "track": 9, "qtime": 0, "isDrum": true}, {"time": 288, "velocity": 108, "pitch": 42, "instrument": 0, "track": 9, "qtime": 0, "isDrum": true}, {"time": 294, "velocity": 0, "pitch": 36, "instrument": 0, "track": 9, "qtime": 6, "isDrum": true}, {"time": 294, "velocity": 0, "pitch": 42, "instrument": 0, "track": 9, "qtime": 6, "isDrum": true}, {"time": 294, "velocity": 108, "pitch": 46, "instrument": 0, "track": 9, "qtime": 6, "isDrum": true}, {"time": 300, "velocity": 0, "pitch": 46, "instrument": 0, "track": 9, "qtime": 12, "isDrum": true}, {"time": 300, "velocity": 108, "pitch": 38, "instrument": 0, "track": 9, "qtime": 12, "isDrum": true}, {"time": 300, "velocity": 108, "pitch": 42, "instrument": 0, "track": 9, "qtime": 12, "isDrum": true}, {"time": 306, "velocity": 0, "pitch": 38, "instrument": 0, "track": 9, "qtime": 18, "isDrum": true}, {"time": 306, "velocity": 0, "pitch": 42, "instrument": 0, "track": 9, "qtime": 18, "isDrum": true}, {"time": 306, "velocity": 108, "pitch": 36, "instrument": 0, "track": 9, "qtime": 18, "isDrum": true}, {"time": 306, "velocity": 108, "pitch": 46, "instrument": 0, "track": 9, "qtime": 18, "isDrum": true}, {"time": 312, "velocity": 0, "pitch": 36, "instrument": 0, "track": 9, "qtime": 24, "isDrum": true}, {"time": 312, "velocity": 0, "pitch": 46, "instrument": 0, "track": 9, "qtime": 24, "isDrum": true}, {"time": 312, "velocity": 108, "pitch": 36, "instrument": 0, "track": 9, "qtime": 24, "isDrum": true}, {"time": 312, "velocity": 108, "pitch": 42, "instrument": 0, "track": 9, "qtime": 24, "isDrum": true}, {"time": 318, "velocity": 0, "pitch": 36, "instrument": 0, "track": 9, "qtime": 30, "isDrum": true}, {"time": 318, "velocity": 0, "pitch": 42, "instrument": 0, "track": 9, "qtime": 30, "isDrum": true}, {"time": 318, "velocity": 108, "pitch": 46, "instrument": 0, "track": 9, "qtime": 30, "isDrum": true}, {"time": 324, "velocity": 0, "pitch": 46, "instrument": 0, "track": 9, "qtime": 36, "isDrum": true}, {"time": 324, "velocity": 108, "pitch": 38, "instrument": 0, "track": 9, "qtime": 36, "isDrum": true}, {"time": 324, "velocity": 108, "pitch": 42, "instrument": 0, "track": 9, "qtime": 36, "isDrum": true}, {"time": 330, "velocity": 0, "pitch": 38, "instrument": 0, "track": 9, "qtime": 42, "isDrum": true}, {"time": 330, "velocity": 0, "pitch": 42, "instrument": 0, "track": 9, "qtime": 42, "isDrum": true}, {"time": 330, "velocity": 108, "pitch": 46, "instrument": 0, "track": 9, "qtime": 42, "isDrum": true}, {"time": 336, "velocity": 0, "pitch": 46, "instrument": 0, "track": 9, "qtime": 48, "isDrum": true}, {"time": 336, "velocity": 108, "pitch": 36, "instrument": 0, "track": 9, "qtime": 0, "isDrum": true}, {"time": 336, "velocity": 108, "pitch": 42, "instrument": 0, "track": 9, "qtime": 0, "isDrum": true}, {"time": 342, "velocity": 0, "pitch": 36, "instrument": 0, "track": 9, "qtime": 6, "isDrum": true}, {"time": 342, "velocity": 0, "pitch": 42, "instrument": 0, "track": 9, "qtime": 6, "isDrum": true}, {"time": 342, "velocity": 108, "pitch": 46, "instrument": 0, "track": 9, "qtime": 6, "isDrum": true}, {"time": 348, "velocity": 0, "pitch": 46, "instrument": 0, "track": 9, "qtime": 12, "isDrum": true}, {"time": 348, "velocity": 108, "pitch": 38, "instrument": 0, "track": 9, "qtime": 12, "isDrum": true}, {"time": 348, "velocity": 108, "pitch": 42, "instrument": 0, "track": 9, "qtime": 12, "isDrum": true}, {"time": 354, "velocity": 0, "pitch": 38, "instrument": 0, "track": 9, "qtime": 18, "isDrum": true}, {"time": 354, "velocity": 0, "pitch": 42, "instrument": 0, "track": 9, "qtime": 18, "isDrum": true}, {"time": 354, "velocity": 108, "pitch": 36, "instrument": 0, "track": 9, "qtime": 18, "isDrum": true}, {"time": 354, "velocity": 108, "pitch": 46, "instrument": 0, "track": 9, "qtime": 18, "isDrum": true}, {"time": 360, "velocity": 0, "pitch": 36, "instrument": 0, "track": 9, "qtime": 24, "isDrum": true}, {"time": 360, "velocity": 0, "pitch": 46, "instrument": 0, "track": 9, "qtime": 24, "isDrum": true}, {"time": 360, "velocity": 108, "pitch": 36, "instrument": 0, "track": 9, "qtime": 24, "isDrum": true}, {"time": 360, "velocity": 108, "pitch": 42, "instrument": 0, "track": 9, "qtime": 24, "isDrum": true}, {"time": 366, "velocity": 0, "pitch": 36, "instrument": 0, "track": 9, "qtime": 30, "isDrum": true}, {"time": 366, "velocity": 0, "pitch": 42, "instrument": 0, "track": 9, "qtime": 30, "isDrum": true}, {"time": 366, "velocity": 108, "pitch": 46, "instrument": 0, "track": 9, "qtime": 30, "isDrum": true}, {"time": 372, "velocity": 0, "pitch": 46, "instrument": 0, "track": 9, "qtime": 36, "isDrum": true}, {"time": 372, "velocity": 108, "pitch": 38, "instrument": 0, "track": 9, "qtime": 36, "isDrum": true}, {"time": 372, "velocity": 108, "pitch": 42, "instrument": 0, "track": 9, "qtime": 36, "isDrum": true}, {"time": 378, "velocity": 0, "pitch": 38, "instrument": 0, "track": 9, "qtime": 42, "isDrum": true}, {"time": 378, "velocity": 0, "pitch": 42, "instrument": 0, "track": 9, "qtime": 42, "isDrum": true}, {"time": 378, "velocity": 108, "pitch": 46, "instrument": 0, "track": 9, "qtime": 42, "isDrum": true}, {"time": 384, "velocity": 0, "pitch": 46, "instrument": 0, "track": 9, "qtime": 48, "isDrum": true}, {"time": 0, "velocity": 108, "pitch": 65, "instrument": 26, "track": 5, "qtime": 0, "isDrum": false}, {"time": 6, "velocity": 0, "pitch": 65, "instrument": 26, "track": 5, "qtime": 6, "isDrum": false}, {"time": 6, "velocity": 108, "pitch": 64, "instrument": 26, "track": 5, "qtime": 6, "isDrum": false}, {"time": 9, "velocity": 0, "pitch": 64, "instrument": 26, "track": 5, "qtime": 9, "isDrum": false}, {"time": 9, "velocity": 108, "pitch": 65, "instrument": 26, "track": 5, "qtime": 9, "isDrum": false}, {"time": 12, "velocity": 0, "pitch": 65, "instrument": 26, "track": 5, "qtime": 12, "isDrum": false}, {"time": 12, "velocity": 108, "pitch": 67, "instrument": 26, "track": 5, "qtime": 12, "isDrum": false}, {"time": 18, "velocity": 0, "pitch": 67, "instrument": 26, "track": 5, "qtime": 18, "isDrum": false}, {"time": 18, "velocity": 108, "pitch": 69, "instrument": 26, "track": 5, "qtime": 18, "isDrum": false}, {"time": 24, "velocity": 0, "pitch": 69, "instrument": 26, "track": 5, "qtime": 24, "isDrum": false}, {"time": 24, "velocity": 108, "pitch": 70, "instrument": 26, "track": 5, "qtime": 24, "isDrum": false}, {"time": 30, "velocity": 0, "pitch": 70, "instrument": 26, "track": 5, "qtime": 30, "isDrum": false}, {"time": 30, "velocity": 108, "pitch": 69, "instrument": 26, "track": 5, "qtime": 30, "isDrum": false}, {"time": 36, "velocity": 0, "pitch": 69, "instrument": 26, "track": 5, "qtime": 36, "isDrum": false}, {"time": 36, "velocity": 108, "pitch": 67, "instrument": 26, "track": 5, "qtime": 36, "isDrum": false}, {"time": 48, "velocity": 0, "pitch": 67, "instrument": 26, "track": 5, "qtime": 48, "isDrum": false}, {"time": 48, "velocity": 108, "pitch": 65, "instrument": 26, "track": 5, "qtime": 0, "isDrum": false}, {"time": 60, "velocity": 0, "pitch": 65, "instrument": 26, "track": 5, "qtime": 12, "isDrum": false}, {"time": 60, "velocity": 108, "pitch": 64, "instrument": 26, "track": 5, "qtime": 12, "isDrum": false}, {"time": 72, "velocity": 0, "pitch": 64, "instrument": 26, "track": 5, "qtime": 24, "isDrum": false}, {"time": 72, "velocity": 108, "pitch": 69, "instrument": 26, "track": 5, "qtime": 24, "isDrum": false}, {"time": 84, "velocity": 0, "pitch": 69, "instrument": 26, "track": 5, "qtime": 36, "isDrum": false}, {"time": 84, "velocity": 108, "pitch": 62, "instrument": 26, "track": 5, "qtime": 36, "isDrum": false}, {"time": 96, "velocity": 0, "pitch": 62, "instrument": 26, "track": 5, "qtime": 48, "isDrum": false}, {"time": 96, "velocity": 108, "pitch": 69, "instrument": 26, "track": 5, "qtime": 0, "isDrum": false}, {"time": 108, "velocity": 0, "pitch": 69, "instrument": 26, "track": 5, "qtime": 12, "isDrum": false}, {"time": 108, "velocity": 108, "pitch": 69, "instrument": 26, "track": 5, "qtime": 12, "isDrum": false}, {"time": 114, "velocity": 0, "pitch": 69, "instrument": 26, "track": 5, "qtime": 18, "isDrum": false}, {"time": 114, "velocity": 108, "pitch": 71, "instrument": 26, "track": 5, "qtime": 18, "isDrum": false}, {"time": 120, "velocity": 0, "pitch": 71, "instrument": 26, "track": 5, "qtime": 24, "isDrum": false}, {"time": 120, "velocity": 108, "pitch": 72, "instrument": 26, "track": 5, "qtime": 24, "isDrum": false}, {"time": 126, "velocity": 0, "pitch": 72, "instrument": 26, "track": 5, "qtime": 30, "isDrum": false}, {"time": 126, "velocity": 108, "pitch": 74, "instrument": 26, "track": 5, "qtime": 30, "isDrum": false}, {"time": 132, "velocity": 0, "pitch": 74, "instrument": 26, "track": 5, "qtime": 36, "isDrum": false}, {"time": 132, "velocity": 108, "pitch": 76, "instrument": 26, "track": 5, "qtime": 36, "isDrum": false}, {"time": 144, "velocity": 0, "pitch": 76, "instrument": 26, "track": 5, "qtime": 48, "isDrum": false}, {"time": 144, "velocity": 108, "pitch": 77, "instrument": 26, "track": 5, "qtime": 0, "isDrum": false}, {"time": 156, "velocity": 0, "pitch": 77, "instrument": 26, "track": 5, "qtime": 12, "isDrum": false}, {"time": 156, "velocity": 108, "pitch": 77, "instrument": 26, "track": 5, "qtime": 12, "isDrum": false}, {"time": 168, "velocity": 0, "pitch": 77, "instrument": 26, "track": 5, "qtime": 24, "isDrum": false}, {"time": 168, "velocity": 108, "pitch": 76, "instrument": 26, "track": 5, "qtime": 24, "isDrum": false}, {"time": 180, "velocity": 0, "pitch": 76, "instrument": 26, "track": 5, "qtime": 36, "isDrum": false}, {"time": 180, "velocity": 108, "pitch": 69, "instrument": 26, "track": 5, "qtime": 36, "isDrum": false}, {"time": 192, "velocity": 0, "pitch": 69, "instrument": 26, "track": 5, "qtime": 48, "isDrum": false}, {"time": 192, "velocity": 108, "pitch": 74, "instrument": 26, "track": 5, "qtime": 0, "isDrum": false}, {"time": 204, "velocity": 0, "pitch": 74, "instrument": 26, "track": 5, "qtime": 12, "isDrum": false}, {"time": 204, "velocity": 108, "pitch": 77, "instrument": 26, "track": 5, "qtime": 12, "isDrum": false}, {"time": 216, "velocity": 0, "pitch": 77, "instrument": 26, "track": 5, "qtime": 24, "isDrum": false}, {"time": 216, "velocity": 108, "pitch": 79, "instrument": 26, "track": 5, "qtime": 24, "isDrum": false}, {"time": 228, "velocity": 0, "pitch": 79, "instrument": 26, "track": 5, "qtime": 36, "isDrum": false}, {"time": 228, "velocity": 108, "pitch": 81, "instrument": 26, "track": 5, "qtime": 36, "isDrum": false}, {"time": 240, "velocity": 0, "pitch": 81, "instrument": 26, "track": 5, "qtime": 48, "isDrum": false}, {"time": 240, "velocity": 108, "pitch": 79, "instrument": 26, "track": 5, "qtime": 0, "isDrum": false}, {"time": 252, "velocity": 0, "pitch": 79, "instrument": 26, "track": 5, "qtime": 12, "isDrum": false}, {"time": 252, "velocity": 108, "pitch": 67, "instrument": 26, "track": 5, "qtime": 12, "isDrum": false}, {"time": 264, "velocity": 0, "pitch": 67, "instrument": 26, "track": 5, "qtime": 24, "isDrum": false}, {"time": 264, "velocity": 108, "pitch": 69, "instrument": 26, "track": 5, "qtime": 24, "isDrum": false}, {"time": 276, "velocity": 0, "pitch": 69, "instrument": 26, "track": 5, "qtime": 36, "isDrum": false}, {"time": 276, "velocity": 108, "pitch": 81, "instrument": 26, "track": 5, "qtime": 36, "isDrum": false}, {"time": 288, "velocity": 0, "pitch": 81, "instrument": 26, "track": 5, "qtime": 48, "isDrum": false}, {"time": 288, "velocity": 108, "pitch": 79, "instrument": 26, "track": 5, "qtime": 0, "isDrum": false}, {"time": 300, "velocity": 0, "pitch": 79, "instrument": 26, "track": 5, "qtime": 12, "isDrum": false}, {"time": 300, "velocity": 108, "pitch": 76, "instrument": 26, "track": 5, "qtime": 12, "isDrum": false}, {"time": 306, "velocity": 0, "pitch": 76, "instrument": 26, "track": 5, "qtime": 18, "isDrum": false}, {"time": 306, "velocity": 108, "pitch": 78, "instrument": 26, "track": 5, "qtime": 18, "isDrum": false}, {"time": 312, "velocity": 0, "pitch": 78, "instrument": 26, "track": 5, "qtime": 24, "isDrum": false}, {"time": 312, "velocity": 108, "pitch": 74, "instrument": 26, "track": 5, "qtime": 24, "isDrum": false}, {"time": 318, "velocity": 0, "pitch": 74, "instrument": 26, "track": 5, "qtime": 30, "isDrum": false}, {"time": 318, "velocity": 108, "pitch": 74, "instrument": 26, "track": 5, "qtime": 30, "isDrum": false}, {"time": 324, "velocity": 0, "pitch": 74, "instrument": 26, "track": 5, "qtime": 36, "isDrum": false}, {"time": 324, "velocity": 108, "pitch": 76, "instrument": 26, "track": 5, "qtime": 36, "isDrum": false}, {"time": 330, "velocity": 0, "pitch": 76, "instrument": 26, "track": 5, "qtime": 42, "isDrum": false}, {"time": 330, "velocity": 108, "pitch": 77, "instrument": 26, "track": 5, "qtime": 42, "isDrum": false}, {"time": 336, "velocity": 0, "pitch": 77, "instrument": 26, "track": 5, "qtime": 48, "isDrum": false}, {"time": 336, "velocity": 108, "pitch": 79, "instrument": 26, "track": 5, "qtime": 0, "isDrum": false}, {"time": 372, "velocity": 0, "pitch": 79, "instrument": 26, "track": 5, "qtime": 36, "isDrum": false}, {"time": 0, "velocity": 108, "pitch": 38, "instrument": 33, "track": 6, "qtime": 0, "isDrum": false}, {"time": 18, "velocity": 0, "pitch": 38, "instrument": 33, "track": 6, "qtime": 18, "isDrum": false}, {"time": 18, "velocity": 108, "pitch": 38, "instrument": 33, "track": 6, "qtime": 18, "isDrum": false}, {"time": 24, "velocity": 0, "pitch": 38, "instrument": 33, "track": 6, "qtime": 24, "isDrum": false}, {"time": 24, "velocity": 108, "pitch": 38, "instrument": 33, "track": 6, "qtime": 24, "isDrum": false}, {"time": 48, "velocity": 0, "pitch": 38, "instrument": 33, "track": 6, "qtime": 48, "isDrum": false}, {"time": 48, "velocity": 108, "pitch": 36, "instrument": 33, "track": 6, "qtime": 0, "isDrum": false}, {"time": 66, "velocity": 0, "pitch": 36, "instrument": 33, "track": 6, "qtime": 18, "isDrum": false}, {"time": 66, "velocity": 108, "pitch": 36, "instrument": 33, "track": 6, "qtime": 18, "isDrum": false}, {"time": 72, "velocity": 0, "pitch": 36, "instrument": 33, "track": 6, "qtime": 24, "isDrum": false}, {"time": 72, "velocity": 108, "pitch": 33, "instrument": 33, "track": 6, "qtime": 24, "isDrum": false}, {"time": 84, "velocity": 0, "pitch": 33, "instrument": 33, "track": 6, "qtime": 36, "isDrum": false}, {"time": 84, "velocity": 108, "pitch": 29, "instrument": 33, "track": 6, "qtime": 36, "isDrum": false}, {"time": 96, "velocity": 0, "pitch": 29, "instrument": 33, "track": 6, "qtime": 48, "isDrum": false}, {"time": 96, "velocity": 108, "pitch": 38, "instrument": 33, "track": 6, "qtime": 0, "isDrum": false}, {"time": 114, "velocity": 0, "pitch": 38, "instrument": 33, "track": 6, "qtime": 18, "isDrum": false}, {"time": 114, "velocity": 108, "pitch": 38, "instrument": 33, "track": 6, "qtime": 18, "isDrum": false}, {"time": 120, "velocity": 0, "pitch": 38, "instrument": 33, "track": 6, "qtime": 24, "isDrum": false}, {"time": 120, "velocity": 108, "pitch": 33, "instrument": 33, "track": 6, "qtime": 24, "isDrum": false}, {"time": 144, "velocity": 0, "pitch": 33, "instrument": 33, "track": 6, "qtime": 48, "isDrum": false}, {"time": 144, "velocity": 108, "pitch": 38, "instrument": 33, "track": 6, "qtime": 0, "isDrum": false}, {"time": 162, "velocity": 0, "pitch": 38, "instrument": 33, "track": 6, "qtime": 18, "isDrum": false}, {"time": 162, "velocity": 108, "pitch": 38, "instrument": 33, "track": 6, "qtime": 18, "isDrum": false}, {"time": 168, "velocity": 0, "pitch": 38, "instrument": 33, "track": 6, "qtime": 24, "isDrum": false}, {"time": 168, "velocity": 108, "pitch": 38, "instrument": 33, "track": 6, "qtime": 24, "isDrum": false}, {"time": 192, "velocity": 0, "pitch": 38, "instrument": 33, "track": 6, "qtime": 48, "isDrum": false}, {"time": 192, "velocity": 108, "pitch": 38, "instrument": 33, "track": 6, "qtime": 0, "isDrum": false}, {"time": 210, "velocity": 0, "pitch": 38, "instrument": 33, "track": 6, "qtime": 18, "isDrum": false}, {"time": 210, "velocity": 108, "pitch": 36, "instrument": 33, "track": 6, "qtime": 18, "isDrum": false}, {"time": 216, "velocity": 0, "pitch": 36, "instrument": 33, "track": 6, "qtime": 24, "isDrum": false}, {"time": 216, "velocity": 108, "pitch": 34, "instrument": 33, "track": 6, "qtime": 24, "isDrum": false}, {"time": 228, "velocity": 0, "pitch": 34, "instrument": 33, "track": 6, "qtime": 36, "isDrum": false}, {"time": 228, "velocity": 108, "pitch": 33, "instrument": 33, "track": 6, "qtime": 36, "isDrum": false}, {"time": 240, "velocity": 0, "pitch": 33, "instrument": 33, "track": 6, "qtime": 48, "isDrum": false}, {"time": 240, "velocity": 108, "pitch": 34, "instrument": 33, "track": 6, "qtime": 0, "isDrum": false}, {"time": 258, "velocity": 0, "pitch": 34, "instrument": 33, "track": 6, "qtime": 18, "isDrum": false}, {"time": 258, "velocity": 108, "pitch": 34, "instrument": 33, "track": 6, "qtime": 18, "isDrum": false}, {"time": 264, "velocity": 0, "pitch": 34, "instrument": 33, "track": 6, "qtime": 24, "isDrum": false}, {"time": 264, "velocity": 108, "pitch": 37, "instrument": 33, "track": 6, "qtime": 24, "isDrum": false}, {"time": 276, "velocity": 0, "pitch": 37, "instrument": 33, "track": 6, "qtime": 36, "isDrum": false}, {"time": 276, "velocity": 108, "pitch": 38, "instrument": 33, "track": 6, "qtime": 36, "isDrum": false}, {"time": 288, "velocity": 0, "pitch": 38, "instrument": 33, "track": 6, "qtime": 48, "isDrum": false}, {"time": 288, "velocity": 108, "pitch": 35, "instrument": 33, "track": 6, "qtime": 0, "isDrum": false}, {"time": 306, "velocity": 0, "pitch": 35, "instrument": 33, "track": 6, "qtime": 18, "isDrum": false}, {"time": 306, "velocity": 108, "pitch": 35, "instrument": 33, "track": 6, "qtime": 18, "isDrum": false}, {"time": 312, "velocity": 0, "pitch": 35, "instrument": 33, "track": 6, "qtime": 24, "isDrum": false}, {"time": 312, "velocity": 108, "pitch": 28, "instrument": 33, "track": 6, "qtime": 24, "isDrum": false}, {"time": 324, "velocity": 0, "pitch": 28, "instrument": 33, "track": 6, "qtime": 36, "isDrum": false}, {"time": 324, "velocity": 108, "pitch": 33, "instrument": 33, "track": 6, "qtime": 36, "isDrum": false}, {"time": 336, "velocity": 0, "pitch": 33, "instrument": 33, "track": 6, "qtime": 48, "isDrum": false}, {"time": 336, "velocity": 108, "pitch": 31, "instrument": 33, "track": 6, "qtime": 0, "isDrum": false}, {"time": 342, "velocity": 0, "pitch": 31, "instrument": 33, "track": 6, "qtime": 6, "isDrum": false}, {"time": 342, "velocity": 108, "pitch": 33, "instrument": 33, "track": 6, "qtime": 6, "isDrum": false}, {"time": 348, "velocity": 0, "pitch": 33, "instrument": 33, "track": 6, "qtime": 12, "isDrum": false}, {"time": 348, "velocity": 108, "pitch": 35, "instrument": 33, "track": 6, "qtime": 12, "isDrum": false}, {"time": 354, "velocity": 0, "pitch": 35, "instrument": 33, "track": 6, "qtime": 18, "isDrum": false}, {"time": 354, "velocity": 108, "pitch": 37, "instrument": 33, "track": 6, "qtime": 18, "isDrum": false}, {"time": 360, "velocity": 0, "pitch": 37, "instrument": 33, "track": 6, "qtime": 24, "isDrum": false}, {"time": 360, "velocity": 108, "pitch": 38, "instrument": 33, "track": 6, "qtime": 24, "isDrum": false}, {"time": 366, "velocity": 0, "pitch": 38, "instrument": 33, "track": 6, "qtime": 30, "isDrum": false}, {"time": 366, "velocity": 108, "pitch": 35, "instrument": 33, "track": 6, "qtime": 30, "isDrum": false}, {"time": 372, "velocity": 0, "pitch": 35, "instrument": 33, "track": 6, "qtime": 36, "isDrum": false}, {"time": 372, "velocity": 108, "pitch": 33, "instrument": 33, "track": 6, "qtime": 36, "isDrum": false}, {"time": 384, "velocity": 0, "pitch": 33, "instrument": 33, "track": 6, "qtime": 48, "isDrum": false}], "resolution": 12, "tempo": 120, "minPitch": 28, "maxPitch": 81, "validSegments": [0], "validTracks": [127]}, "audio": "https://www.sfu.ca/~jeffe/examples/8b_bach_101_7_w_drums_guitar_bass.mp3"}, {"src": "gen/bach_14_5.json", "highlights": [[], [], [], []], "caption": "The opening four bars of Bach BWV 14.5.", "sample_id": "24a", "mixer": [8, 8, 8, 8], "json": {"tracks": [{"bars": [{"events": [0, 1, 2, 3, 4, 5, 6, 7, 8, 9], "isFourFour": true, "hasNotes": true, "time": 0, "beatLength": 4}, {"events": [10, 11, 12, 13, 14, 15, 16, 17], "isFourFour": true, "hasNotes": true, "time": 48, "beatLength": 4}, {"events": [18, 19, 20, 21, 22, 23, 24, 25, 26, 27, 28, 29, 30, 31], "isFourFour": true, "hasNotes": true, "time": 96, "beatLength": 4}, {"events": [32, 33, 34, 35, 36, 37, 38, 39, 40, 41], "isFourFour": true, "hasNotes": true, "time": 144, "beatLength": 4}], "isDrum": false, "minPitch": 65, "maxPitch": 74, "instrument": 0, "avPolyphony": 1, "noteDensity": 9, "noteDensityV2": 3}, {"bars": [{"events": [42, 43, 44, 45, 46, 47, 48, 49], "isFourFour": true, "hasNotes": true, "time": 0, "beatLength": 4}, {"events": [50, 51, 52, 53, 54, 55, 56, 57], "isFourFour": true, "hasNotes": true, "time": 48, "beatLength": 4}, {"events": [58, 59, 60, 61, 62, 63, 64, 65, 66, 67, 68, 69, 70, 71], "isFourFour": true, "hasNotes": true, "time": 96, "beatLength": 4}, {"events": [72, 73, 74, 75, 76, 77, 78, 79, 80, 81, 82, 83], "isFourFour": true, "hasNotes": true, "time": 144, "beatLength": 4}], "isDrum": false, "minPitch": 57, "maxPitch": 70, "instrument": 0, "avPolyphony": 1, "noteDensity": 9, "noteDensityV2": 3}, {"bars": [{"events": [84, 85, 86, 87, 88, 89, 90, 91, 92, 93], "isFourFour": true, "hasNotes": true, "time": 0, "beatLength": 4}, {"events": [94, 95, 96, 97, 98, 99, 100, 101, 102, 103], "isFourFour": true, "hasNotes": true, "time": 48, "beatLength": 4}, {"events": [104, 105, 106, 107, 108, 109, 110, 111, 112, 113], "isFourFour": true, "hasNotes": true, "time": 96, "beatLength": 4}, {"events": [114, 115, 116, 117, 118, 119, 120, 121, 122, 123, 124, 125, 126, 127], "isFourFour": true, "hasNotes": true, "time": 144, "beatLength": 4}], "isDrum": false, "minPitch": 53, "maxPitch": 67, "instrument": 0, "avPolyphony": 1, "noteDensity": 9, "noteDensityV2": 4}, {"bars": [{"events": [128, 129, 130, 131, 132, 133, 134, 135, 136, 137, 138, 139, 140, 141], "isFourFour": true, "hasNotes": true, "time": 0, "beatLength": 4}, {"events": [142, 143, 144, 145, 146, 147, 148, 149, 150, 151, 152, 153], "isFourFour": true, "hasNotes": true, "time": 48, "beatLength": 4}, {"events": [154, 155, 156, 157, 158, 159, 160, 161, 162, 163], "isFourFour": true, "hasNotes": true, "time": 96, "beatLength": 4}, {"events": [164, 165, 166, 167, 168, 169, 170, 171, 172, 173, 174, 175], "isFourFour": true, "hasNotes": true, "time": 144, "beatLength": 4}], "isDrum": false, "minPitch": 43, "maxPitch": 58, "instrument": 0, "avPolyphony": 1, "noteDensity": 9, "noteDensityV2": 4}], "events": [{"time": 0, "velocity": 108, "pitch": 67, "instrument": 0, "track": 0, "qtime": 0, "bar": 0, "isDrum": false}, {"time": 6, "velocity": 0, "pitch": 67, "instrument": 0, "track": 0, "qtime": 6, "bar": 0, "isDrum": false}, {"time": 6, "velocity": 108, "pitch": 69, "instrument": 0, "track": 0, "qtime": 6, "bar": 0, "isDrum": false}, {"time": 12, "velocity": 0, "pitch": 69, "instrument": 0, "track": 0, "qtime": 12, "bar": 0, "isDrum": false}, {"time": 12, "velocity": 108, "pitch": 70, "instrument": 0, "track": 0, "qtime": 12, "bar": 0, "isDrum": false}, {"time": 24, "velocity": 0, "pitch": 70, "instrument": 0, "track": 0, "qtime": 24, "bar": 0, "isDrum": false}, {"time": 24, "velocity": 108, "pitch": 71, "instrument": 0, "track": 0, "qtime": 24, "bar": 0, "isDrum": false}, {"time": 36, "velocity": 0, "pitch": 71, "instrument": 0, "track": 0, "qtime": 36, "bar": 0, "isDrum": false}, {"time": 36, "velocity": 108, "pitch": 72, "instrument": 0, "track": 0, "qtime": 36, "bar": 0, "isDrum": false}, {"time": 48, "velocity": 0, "pitch": 72, "instrument": 0, "track": 0, "qtime": 48, "bar": 0, "isDrum": false}, {"time": 48, "velocity": 108, "pitch": 74, "instrument": 0, "track": 0, "qtime": 0, "bar": 1, "isDrum": false}, {"time": 60, "velocity": 0, "pitch": 74, "instrument": 0, "track": 0, "qtime": 12, "bar": 1, "isDrum": false}, {"time": 60, "velocity": 108, "pitch": 72, "instrument": 0, "track": 0, "qtime": 12, "bar": 1, "isDrum": false}, {"time": 72, "velocity": 0, "pitch": 72, "instrument": 0, "track": 0, "qtime": 24, "bar": 1, "isDrum": false}, {"time": 72, "velocity": 108, "pitch": 71, "instrument": 0, "track": 0, "qtime": 24, "bar": 1, "isDrum": false}, {"time": 84, "velocity": 0, "pitch": 71, "instrument": 0, "track": 0, "qtime": 36, "bar": 1, "isDrum": false}, {"time": 84, "velocity": 108, "pitch": 72, "instrument": 0, "track": 0, "qtime": 36, "bar": 1, "isDrum": false}, {"time": 96, "velocity": 0, "pitch": 72, "instrument": 0, "track": 0, "qtime": 48, "bar": 1, "isDrum": false}, {"time": 96, "velocity": 108, "pitch": 72, "instrument": 0, "track": 0, "qtime": 0, "bar": 2, "isDrum": false}, {"time": 108, "velocity": 0, "pitch": 72, "instrument": 0, "track": 0, "qtime": 12, "bar": 2, "isDrum": false}, {"time": 108, "velocity": 108, "pitch": 70, "instrument": 0, "track": 0, "qtime": 12, "bar": 2, "isDrum": false}, {"time": 114, "velocity": 0, "pitch": 70, "instrument": 0, "track": 0, "qtime": 18, "bar": 2, "isDrum": false}, {"time": 114, "velocity": 108, "pitch": 69, "instrument": 0, "track": 0, "qtime": 18, "bar": 2, "isDrum": false}, {"time": 120, "velocity": 0, "pitch": 69, "instrument": 0, "track": 0, "qtime": 24, "bar": 2, "isDrum": false}, {"time": 120, "velocity": 108, "pitch": 67, "instrument": 0, "track": 0, "qtime": 24, "bar": 2, "isDrum": false}, {"time": 126, "velocity": 0, "pitch": 67, "instrument": 0, "track": 0, "qtime": 30, "bar": 2, "isDrum": false}, {"time": 126, "velocity": 108, "pitch": 69, "instrument": 0, "track": 0, "qtime": 30, "bar": 2, "isDrum": false}, {"time": 132, "velocity": 0, "pitch": 69, "instrument": 0, "track": 0, "qtime": 36, "bar": 2, "isDrum": false}, {"time": 132, "velocity": 108, "pitch": 70, "instrument": 0, "track": 0, "qtime": 36, "bar": 2, "isDrum": false}, {"time": 138, "velocity": 0, "pitch": 70, "instrument": 0, "track": 0, "qtime": 42, "bar": 2, "isDrum": false}, {"time": 138, "velocity": 108, "pitch": 72, "instrument": 0, "track": 0, "qtime": 42, "bar": 2, "isDrum": false}, {"time": 144, "velocity": 0, "pitch": 72, "instrument": 0, "track": 0, "qtime": 48, "bar": 2, "isDrum": false}, {"time": 144, "velocity": 108, "pitch": 74, "instrument": 0, "track": 0, "qtime": 0, "bar": 3, "isDrum": false}, {"time": 156, "velocity": 0, "pitch": 74, "instrument": 0, "track": 0, "qtime": 12, "bar": 3, "isDrum": false}, {"time": 156, "velocity": 108, "pitch": 72, "instrument": 0, "track": 0, "qtime": 12, "bar": 3, "isDrum": false}, {"time": 162, "velocity": 0, "pitch": 72, "instrument": 0, "track": 0, "qtime": 18, "bar": 3, "isDrum": false}, {"time": 162, "velocity": 108, "pitch": 70, "instrument": 0, "track": 0, "qtime": 18, "bar": 3, "isDrum": false}, {"time": 168, "velocity": 0, "pitch": 70, "instrument": 0, "track": 0, "qtime": 24, "bar": 3, "isDrum": false}, {"time": 168, "velocity": 108, "pitch": 72, "instrument": 0, "track": 0, "qtime": 24, "bar": 3, "isDrum": false}, {"time": 180, "velocity": 0, "pitch": 72, "instrument": 0, "track": 0, "qtime": 36, "bar": 3, "isDrum": false}, {"time": 180, "velocity": 108, "pitch": 70, "instrument": 0, "track": 0, "qtime": 36, "bar": 3, "isDrum": false}, {"time": 192, "velocity": 0, "pitch": 70, "instrument": 0, "track": 0, "qtime": 48, "bar": 3, "isDrum": false}, {"time": 0, "velocity": 108, "pitch": 62, "instrument": 0, "track": 1, "qtime": 0, "bar": 0, "isDrum": false}, {"time": 12, "velocity": 0, "pitch": 62, "instrument": 0, "track": 1, "qtime": 12, "bar": 0, "isDrum": false}, {"time": 12, "velocity": 108, "pitch": 67, "instrument": 0, "track": 1, "qtime": 12, "bar": 0, "isDrum": false}, {"time": 24, "velocity": 0, "pitch": 67, "instrument": 0, "track": 1, "qtime": 24, "bar": 0, "isDrum": false}, {"time": 24, "velocity": 108, "pitch": 67, "instrument": 0, "track": 1, "qtime": 24, "bar": 0, "isDrum": false}, {"time": 36, "velocity": 0, "pitch": 67, "instrument": 0, "track": 1, "qtime": 36, "bar": 0, "isDrum": false}, {"time": 36, "velocity": 108, "pitch": 67, "instrument": 0, "track": 1, "qtime": 36, "bar": 0, "isDrum": false}, {"time": 48, "velocity": 0, "pitch": 67, "instrument": 0, "track": 1, "qtime": 48, "bar": 0, "isDrum": false}, {"time": 48, "velocity": 108, "pitch": 67, "instrument": 0, "track": 1, "qtime": 0, "bar": 1, "isDrum": false}, {"time": 60, "velocity": 0, "pitch": 67, "instrument": 0, "track": 1, "qtime": 12, "bar": 1, "isDrum": false}, {"time": 60, "velocity": 108, "pitch": 63, "instrument": 0, "track": 1, "qtime": 12, "bar": 1, "isDrum": false}, {"time": 72, "velocity": 0, "pitch": 63, "instrument": 0, "track": 1, "qtime": 24, "bar": 1, "isDrum": false}, {"time": 72, "velocity": 108, "pitch": 62, "instrument": 0, "track": 1, "qtime": 24, "bar": 1, "isDrum": false}, {"time": 84, "velocity": 0, "pitch": 62, "instrument": 0, "track": 1, "qtime": 36, "bar": 1, "isDrum": false}, {"time": 84, "velocity": 108, "pitch": 60, "instrument": 0, "track": 1, "qtime": 36, "bar": 1, "isDrum": false}, {"time": 96, "velocity": 0, "pitch": 60, "instrument": 0, "track": 1, "qtime": 48, "bar": 1, "isDrum": false}, {"time": 96, "velocity": 108, "pitch": 67, "instrument": 0, "track": 1, "qtime": 0, "bar": 2, "isDrum": false}, {"time": 102, "velocity": 0, "pitch": 67, "instrument": 0, "track": 1, "qtime": 6, "bar": 2, "isDrum": false}, {"time": 102, "velocity": 108, "pitch": 69, "instrument": 0, "track": 1, "qtime": 6, "bar": 2, "isDrum": false}, {"time": 108, "velocity": 0, "pitch": 69, "instrument": 0, "track": 1, "qtime": 12, "bar": 2, "isDrum": false}, {"time": 108, "velocity": 108, "pitch": 70, "instrument": 0, "track": 1, "qtime": 12, "bar": 2, "isDrum": false}, {"time": 114, "velocity": 0, "pitch": 70, "instrument": 0, "track": 1, "qtime": 18, "bar": 2, "isDrum": false}, {"time": 114, "velocity": 108, "pitch": 58, "instrument": 0, "track": 1, "qtime": 18, "bar": 2, "isDrum": false}, {"time": 126, "velocity": 0, "pitch": 58, "instrument": 0, "track": 1, "qtime": 30, "bar": 2, "isDrum": false}, {"time": 126, "velocity": 108, "pitch": 60, "instrument": 0, "track": 1, "qtime": 30, "bar": 2, "isDrum": false}, {"time": 132, "velocity": 0, "pitch": 60, "instrument": 0, "track": 1, "qtime": 36, "bar": 2, "isDrum": false}, {"time": 132, "velocity": 108, "pitch": 62, "instrument": 0, "track": 1, "qtime": 36, "bar": 2, "isDrum": false}, {"time": 138, "velocity": 0, "pitch": 62, "instrument": 0, "track": 1, "qtime": 42, "bar": 2, "isDrum": false}, {"time": 138, "velocity": 108, "pitch": 63, "instrument": 0, "track": 1, "qtime": 42, "bar": 2, "isDrum": false}, {"time": 144, "velocity": 0, "pitch": 63, "instrument": 0, "track": 1, "qtime": 48, "bar": 2, "isDrum": false}, {"time": 144, "velocity": 108, "pitch": 65, "instrument": 0, "track": 1, "qtime": 0, "bar": 3, "isDrum": false}, {"time": 150, "velocity": 0, "pitch": 65, "instrument": 0, "track": 1, "qtime": 6, "bar": 3, "isDrum": false}, {"time": 150, "velocity": 108, "pitch": 67, "instrument": 0, "track": 1, "qtime": 6, "bar": 3, "isDrum": false}, {"time": 156, "velocity": 0, "pitch": 67, "instrument": 0, "track": 1, "qtime": 12, "bar": 3, "isDrum": false}, {"time": 156, "velocity": 108, "pitch": 69, "instrument": 0, "track": 1, "qtime": 12, "bar": 3, "isDrum": false}, {"time": 162, "velocity": 0, "pitch": 69, "instrument": 0, "track": 1, "qtime": 18, "bar": 3, "isDrum": false}, {"time": 162, "velocity": 108, "pitch": 70, "instrument": 0, "track": 1, "qtime": 18, "bar": 3, "isDrum": false}, {"time": 174, "velocity": 0, "pitch": 70, "instrument": 0, "track": 1, "qtime": 30, "bar": 3, "isDrum": false}, {"time": 174, "velocity": 108, "pitch": 69, "instrument": 0, "track": 1, "qtime": 30, "bar": 3, "isDrum": false}, {"time": 180, "velocity": 0, "pitch": 69, "instrument": 0, "track": 1, "qtime": 36, "bar": 3, "isDrum": false}, {"time": 180, "velocity": 108, "pitch": 65, "instrument": 0, "track": 1, "qtime": 36, "bar": 3, "isDrum": false}, {"time": 192, "velocity": 0, "pitch": 65, "instrument": 0, "track": 1, "qtime": 48, "bar": 3, "isDrum": false}, {"time": 0, "velocity": 108, "pitch": 58, "instrument": 0, "track": 2, "qtime": 0, "bar": 0, "isDrum": false}, {"time": 6, "velocity": 0, "pitch": 58, "instrument": 0, "track": 2, "qtime": 6, "bar": 0, "isDrum": false}, {"time": 6, "velocity": 108, "pitch": 60, "instrument": 0, "track": 2, "qtime": 6, "bar": 0, "isDrum": false}, {"time": 12, "velocity": 0, "pitch": 60, "instrument": 0, "track": 2, "qtime": 12, "bar": 0, "isDrum": false}, {"time": 12, "velocity": 108, "pitch": 62, "instrument": 0, "track": 2, "qtime": 12, "bar": 0, "isDrum": false}, {"time": 24, "velocity": 0, "pitch": 62, "instrument": 0, "track": 2, "qtime": 24, "bar": 0, "isDrum": false}, {"time": 24, "velocity": 108, "pitch": 62, "instrument": 0, "track": 2, "qtime": 24, "bar": 0, "isDrum": false}, {"time": 36, "velocity": 0, "pitch": 62, "instrument": 0, "track": 2, "qtime": 36, "bar": 0, "isDrum": false}, {"time": 36, "velocity": 108, "pitch": 63, "instrument": 0, "track": 2, "qtime": 36, "bar": 0, "isDrum": false}, {"time": 48, "velocity": 0, "pitch": 63, "instrument": 0, "track": 2, "qtime": 48, "bar": 0, "isDrum": false}, {"time": 48, "velocity": 108, "pitch": 62, "instrument": 0, "track": 2, "qtime": 0, "bar": 1, "isDrum": false}, {"time": 60, "velocity": 0, "pitch": 62, "instrument": 0, "track": 2, "qtime": 12, "bar": 1, "isDrum": false}, {"time": 60, "velocity": 108, "pitch": 55, "instrument": 0, "track": 2, "qtime": 12, "bar": 1, "isDrum": false}, {"time": 66, "velocity": 0, "pitch": 55, "instrument": 0, "track": 2, "qtime": 18, "bar": 1, "isDrum": false}, {"time": 66, "velocity": 108, "pitch": 67, "instrument": 0, "track": 2, "qtime": 18, "bar": 1, "isDrum": false}, {"time": 78, "velocity": 0, "pitch": 67, "instrument": 0, "track": 2, "qtime": 30, "bar": 1, "isDrum": false}, {"time": 78, "velocity": 108, "pitch": 65, "instrument": 0, "track": 2, "qtime": 30, "bar": 1, "isDrum": false}, {"time": 84, "velocity": 0, "pitch": 65, "instrument": 0, "track": 2, "qtime": 36, "bar": 1, "isDrum": false}, {"time": 84, "velocity": 108, "pitch": 63, "instrument": 0, "track": 2, "qtime": 36, "bar": 1, "isDrum": false}, {"time": 96, "velocity": 0, "pitch": 63, "instrument": 0, "track": 2, "qtime": 48, "bar": 1, "isDrum": false}, {"time": 96, "velocity": 108, "pitch": 63, "instrument": 0, "track": 2, "qtime": 0, "bar": 2, "isDrum": false}, {"time": 108, "velocity": 0, "pitch": 63, "instrument": 0, "track": 2, "qtime": 12, "bar": 2, "isDrum": false}, {"time": 108, "velocity": 108, "pitch": 65, "instrument": 0, "track": 2, "qtime": 12, "bar": 2, "isDrum": false}, {"time": 120, "velocity": 0, "pitch": 65, "instrument": 0, "track": 2, "qtime": 24, "bar": 2, "isDrum": false}, {"time": 120, "velocity": 108, "pitch": 67, "instrument": 0, "track": 2, "qtime": 24, "bar": 2, "isDrum": false}, {"time": 132, "velocity": 0, "pitch": 67, "instrument": 0, "track": 2, "qtime": 36, "bar": 2, "isDrum": false}, {"time": 132, "velocity": 108, "pitch": 65, "instrument": 0, "track": 2, "qtime": 36, "bar": 2, "isDrum": false}, {"time": 138, "velocity": 0, "pitch": 65, "instrument": 0, "track": 2, "qtime": 42, "bar": 2, "isDrum": false}, {"time": 138, "velocity": 108, "pitch": 63, "instrument": 0, "track": 2, "qtime": 42, "bar": 2, "isDrum": false}, {"time": 144, "velocity": 0, "pitch": 63, "instrument": 0, "track": 2, "qtime": 48, "bar": 2, "isDrum": false}, {"time": 144, "velocity": 108, "pitch": 62, "instrument": 0, "track": 2, "qtime": 0, "bar": 3, "isDrum": false}, {"time": 150, "velocity": 0, "pitch": 62, "instrument": 0, "track": 2, "qtime": 6, "bar": 3, "isDrum": false}, {"time": 150, "velocity": 108, "pitch": 58, "instrument": 0, "track": 2, "qtime": 6, "bar": 3, "isDrum": false}, {"time": 156, "velocity": 0, "pitch": 58, "instrument": 0, "track": 2, "qtime": 12, "bar": 3, "isDrum": false}, {"time": 156, "velocity": 108, "pitch": 65, "instrument": 0, "track": 2, "qtime": 12, "bar": 3, "isDrum": false}, {"time": 168, "velocity": 0, "pitch": 65, "instrument": 0, "track": 2, "qtime": 24, "bar": 3, "isDrum": false}, {"time": 168, "velocity": 108, "pitch": 67, "instrument": 0, "track": 2, "qtime": 24, "bar": 3, "isDrum": false}, {"time": 174, "velocity": 0, "pitch": 67, "instrument": 0, "track": 2, "qtime": 30, "bar": 3, "isDrum": false}, {"time": 174, "velocity": 108, "pitch": 65, "instrument": 0, "track": 2, "qtime": 30, "bar": 3, "isDrum": false}, {"time": 177, "velocity": 0, "pitch": 65, "instrument": 0, "track": 2, "qtime": 33, "bar": 3, "isDrum": false}, {"time": 177, "velocity": 108, "pitch": 63, "instrument": 0, "track": 2, "qtime": 33, "bar": 3, "isDrum": false}, {"time": 180, "velocity": 0, "pitch": 63, "instrument": 0, "track": 2, "qtime": 36, "bar": 3, "isDrum": false}, {"time": 180, "velocity": 108, "pitch": 62, "instrument": 0, "track": 2, "qtime": 36, "bar": 3, "isDrum": false}, {"time": 192, "velocity": 0, "pitch": 62, "instrument": 0, "track": 2, "qtime": 48, "bar": 3, "isDrum": false}, {"time": 0, "velocity": 108, "pitch": 55, "instrument": 0, "track": 3, "qtime": 0, "bar": 0, "isDrum": false}, {"time": 12, "velocity": 0, "pitch": 55, "instrument": 0, "track": 3, "qtime": 12, "bar": 0, "isDrum": false}, {"time": 12, "velocity": 108, "pitch": 55, "instrument": 0, "track": 3, "qtime": 12, "bar": 0, "isDrum": false}, {"time": 18, "velocity": 0, "pitch": 55, "instrument": 0, "track": 3, "qtime": 18, "bar": 0, "isDrum": false}, {"time": 18, "velocity": 108, "pitch": 56, "instrument": 0, "track": 3, "qtime": 18, "bar": 0, "isDrum": false}, {"time": 24, "velocity": 0, "pitch": 56, "instrument": 0, "track": 3, "qtime": 24, "bar": 0, "isDrum": false}, {"time": 24, "velocity": 108, "pitch": 55, "instrument": 0, "track": 3, "qtime": 24, "bar": 0, "isDrum": false}, {"time": 30, "velocity": 0, "pitch": 55, "instrument": 0, "track": 3, "qtime": 30, "bar": 0, "isDrum": false}, {"time": 30, "velocity": 108, "pitch": 53, "instrument": 0, "track": 3, "qtime": 30, "bar": 0, "isDrum": false}, {"time": 36, "velocity": 0, "pitch": 53, "instrument": 0, "track": 3, "qtime": 36, "bar": 0, "isDrum": false}, {"time": 36, "velocity": 108, "pitch": 51, "instrument": 0, "track": 3, "qtime": 36, "bar": 0, "isDrum": false}, {"time": 42, "velocity": 0, "pitch": 51, "instrument": 0, "track": 3, "qtime": 42, "bar": 0, "isDrum": false}, {"time": 42, "velocity": 108, "pitch": 50, "instrument": 0, "track": 3, "qtime": 42, "bar": 0, "isDrum": false}, {"time": 48, "velocity": 0, "pitch": 50, "instrument": 0, "track": 3, "qtime": 48, "bar": 0, "isDrum": false}, {"time": 48, "velocity": 108, "pitch": 48, "instrument": 0, "track": 3, "qtime": 0, "bar": 1, "isDrum": false}, {"time": 54, "velocity": 0, "pitch": 48, "instrument": 0, "track": 3, "qtime": 6, "bar": 1, "isDrum": false}, {"time": 54, "velocity": 108, "pitch": 47, "instrument": 0, "track": 3, "qtime": 6, "bar": 1, "isDrum": false}, {"time": 60, "velocity": 0, "pitch": 47, "instrument": 0, "track": 3, "qtime": 12, "bar": 1, "isDrum": false}, {"time": 60, "velocity": 108, "pitch": 48, "instrument": 0, "track": 3, "qtime": 12, "bar": 1, "isDrum": false}, {"time": 66, "velocity": 0, "pitch": 48, "instrument": 0, "track": 3, "qtime": 18, "bar": 1, "isDrum": false}, {"time": 66, "velocity": 108, "pitch": 51, "instrument": 0, "track": 3, "qtime": 18, "bar": 1, "isDrum": false}, {"time": 72, "velocity": 0, "pitch": 51, "instrument": 0, "track": 3, "qtime": 24, "bar": 1, "isDrum": false}, {"time": 72, "velocity": 108, "pitch": 55, "instrument": 0, "track": 3, "qtime": 24, "bar": 1, "isDrum": false}, {"time": 84, "velocity": 0, "pitch": 55, "instrument": 0, "track": 3, "qtime": 36, "bar": 1, "isDrum": false}, {"time": 84, "velocity": 108, "pitch": 48, "instrument": 0, "track": 3, "qtime": 36, "bar": 1, "isDrum": false}, {"time": 96, "velocity": 0, "pitch": 48, "instrument": 0, "track": 3, "qtime": 48, "bar": 1, "isDrum": false}, {"time": 96, "velocity": 108, "pitch": 48, "instrument": 0, "track": 3, "qtime": 0, "bar": 2, "isDrum": false}, {"time": 108, "velocity": 0, "pitch": 48, "instrument": 0, "track": 3, "qtime": 12, "bar": 2, "isDrum": false}, {"time": 108, "velocity": 108, "pitch": 50, "instrument": 0, "track": 3, "qtime": 12, "bar": 2, "isDrum": false}, {"time": 120, "velocity": 0, "pitch": 50, "instrument": 0, "track": 3, "qtime": 24, "bar": 2, "isDrum": false}, {"time": 120, "velocity": 108, "pitch": 51, "instrument": 0, "track": 3, "qtime": 24, "bar": 2, "isDrum": false}, {"time": 132, "velocity": 0, "pitch": 51, "instrument": 0, "track": 3, "qtime": 36, "bar": 2, "isDrum": false}, {"time": 132, "velocity": 108, "pitch": 50, "instrument": 0, "track": 3, "qtime": 36, "bar": 2, "isDrum": false}, {"time": 138, "velocity": 0, "pitch": 50, "instrument": 0, "track": 3, "qtime": 42, "bar": 2, "isDrum": false}, {"time": 138, "velocity": 108, "pitch": 48, "instrument": 0, "track": 3, "qtime": 42, "bar": 2, "isDrum": false}, {"time": 144, "velocity": 0, "pitch": 48, "instrument": 0, "track": 3, "qtime": 48, "bar": 2, "isDrum": false}, {"time": 144, "velocity": 108, "pitch": 46, "instrument": 0, "track": 3, "qtime": 0, "bar": 3, "isDrum": false}, {"time": 150, "velocity": 0, "pitch": 46, "instrument": 0, "track": 3, "qtime": 6, "bar": 3, "isDrum": false}, {"time": 150, "velocity": 108, "pitch": 51, "instrument": 0, "track": 3, "qtime": 6, "bar": 3, "isDrum": false}, {"time": 162, "velocity": 0, "pitch": 51, "instrument": 0, "track": 3, "qtime": 18, "bar": 3, "isDrum": false}, {"time": 162, "velocity": 108, "pitch": 50, "instrument": 0, "track": 3, "qtime": 18, "bar": 3, "isDrum": false}, {"time": 168, "velocity": 0, "pitch": 50, "instrument": 0, "track": 3, "qtime": 24, "bar": 3, "isDrum": false}, {"time": 168, "velocity": 108, "pitch": 51, "instrument": 0, "track": 3, "qtime": 24, "bar": 3, "isDrum": false}, {"time": 174, "velocity": 0, "pitch": 51, "instrument": 0, "track": 3, "qtime": 30, "bar": 3, "isDrum": false}, {"time": 174, "velocity": 108, "pitch": 53, "instrument": 0, "track": 3, "qtime": 30, "bar": 3, "isDrum": false}, {"time": 180, "velocity": 0, "pitch": 53, "instrument": 0, "track": 3, "qtime": 36, "bar": 3, "isDrum": false}, {"time": 180, "velocity": 108, "pitch": 46, "instrument": 0, "track": 3, "qtime": 36, "bar": 3, "isDrum": false}, {"time": 192, "velocity": 0, "pitch": 46, "instrument": 0, "track": 3, "qtime": 48, "bar": 3, "isDrum": false}], "resolution": 12, "minPitch": 43, "maxPitch": 74, "validSegments": [0], "validTracks": [15], "segmentLength": 4, "tempo": 120}, "audio": "https://www.sfu.ca/~jeffe/examples/bach_14_5.mp3"}, {"src": "gen/bach_14_5_bass.json", "highlights": [[], [], [], [0, 1, 2, 3]], "caption": "Replace the bass part in 24a.", "sample_id": "24b", "mixer": [8, 8, 8, 8], "json": {"tracks": [{"bars": [{"events": [0, 1, 2, 3, 4, 5, 6, 7, 8, 9], "isFourFour": true, "hasNotes": true, "time": 0}, {"events": [10, 11, 12, 13, 14, 15, 16, 17], "isFourFour": true, "hasNotes": true, "time": 48}, {"events": [18, 19, 20, 21, 22, 23, 24, 25, 26, 27, 28, 29, 30, 31], "isFourFour": true, "hasNotes": true, "time": 96}, {"events": [32, 33, 34, 35, 36, 37, 38, 39, 40, 41], "isFourFour": true, "hasNotes": true, "time": 144}], "isDrum": false, "minPitch": 67, "maxPitch": 74, "instrument": 0, "avPolyphony": 1, "noteDensity": 6, "noteDensityV2": 3}, {"bars": [{"events": [42, 43, 44, 45, 46, 47, 48, 49], "isFourFour": true, "hasNotes": true, "time": 0}, {"events": [50, 51, 52, 53, 54, 55, 56, 57], "isFourFour": true, "hasNotes": true, "time": 48}, {"events": [58, 59, 60, 61, 62, 63, 64, 65, 66, 67, 68, 69, 70, 71], "isFourFour": true, "hasNotes": true, "time": 96}, {"events": [72, 73, 74, 75, 76, 77, 78, 79, 80, 81, 82, 83], "isFourFour": true, "hasNotes": true, "time": 144}], "isDrum": false, "minPitch": 58, "maxPitch": 70, "instrument": 0, "avPolyphony": 1, "noteDensity": 6, "noteDensityV2": 3}, {"bars": [{"events": [84, 85, 86, 87, 88, 89, 90, 91, 92, 93], "isFourFour": true, "hasNotes": true, "time": 0}, {"events": [94, 95, 96, 97, 98, 99, 100, 101, 102, 103], "isFourFour": true, "hasNotes": true, "time": 48}, {"events": [104, 105, 106, 107, 108, 109, 110, 111, 112, 113], "isFourFour": true, "hasNotes": true, "time": 96}, {"events": [114, 115, 116, 117, 118, 119, 120, 121, 122, 123, 124, 125, 126, 127], "isFourFour": true, "hasNotes": true, "time": 144}], "isDrum": false, "minPitch": 55, "maxPitch": 67, "instrument": 0, "avPolyphony": 1, "noteDensity": 7, "noteDensityV2": 4}, {"bars": [{"events": [128, 129, 130, 131, 132, 133, 134, 135, 136, 137], "isFourFour": true, "hasNotes": true, "time": 0}, {"events": [138, 139, 140, 141, 142, 143, 144, 145, 146, 147, 148, 149, 150, 151], "isFourFour": true, "hasNotes": true, "time": 48}, {"events": [152, 153, 154, 155, 156, 157, 158, 159, 160, 161, 162, 163], "isFourFour": true, "hasNotes": true, "time": 96}, {"events": [164, 165, 166, 167, 168, 169, 170, 171, 172, 173, 174, 175], "isFourFour": true, "hasNotes": true, "time": 144}], "isDrum": false, "minPitch": 43, "maxPitch": 60, "instrument": 0, "avPolyphony": 1, "noteDensity": 7, "noteDensityV2": 4}], "events": [{"time": 0, "velocity": 108, "pitch": 67, "instrument": 0, "track": 0, "qtime": 0, "isDrum": false}, {"time": 6, "velocity": 0, "pitch": 67, "instrument": 0, "track": 0, "qtime": 6, "isDrum": false}, {"time": 6, "velocity": 108, "pitch": 69, "instrument": 0, "track": 0, "qtime": 6, "isDrum": false}, {"time": 12, "velocity": 0, "pitch": 69, "instrument": 0, "track": 0, "qtime": 12, "isDrum": false}, {"time": 12, "velocity": 108, "pitch": 70, "instrument": 0, "track": 0, "qtime": 12, "isDrum": false}, {"time": 24, "velocity": 0, "pitch": 70, "instrument": 0, "track": 0, "qtime": 24, "isDrum": false}, {"time": 24, "velocity": 108, "pitch": 71, "instrument": 0, "track": 0, "qtime": 24, "isDrum": false}, {"time": 36, "velocity": 0, "pitch": 71, "instrument": 0, "track": 0, "qtime": 36, "isDrum": false}, {"time": 36, "velocity": 108, "pitch": 72, "instrument": 0, "track": 0, "qtime": 36, "isDrum": false}, {"time": 48, "velocity": 0, "pitch": 72, "instrument": 0, "track": 0, "qtime": 48, "isDrum": false}, {"time": 48, "velocity": 108, "pitch": 74, "instrument": 0, "track": 0, "qtime": 0, "isDrum": false}, {"time": 60, "velocity": 0, "pitch": 74, "instrument": 0, "track": 0, "qtime": 12, "isDrum": false}, {"time": 60, "velocity": 108, "pitch": 72, "instrument": 0, "track": 0, "qtime": 12, "isDrum": false}, {"time": 72, "velocity": 0, "pitch": 72, "instrument": 0, "track": 0, "qtime": 24, "isDrum": false}, {"time": 72, "velocity": 108, "pitch": 71, "instrument": 0, "track": 0, "qtime": 24, "isDrum": false}, {"time": 84, "velocity": 0, "pitch": 71, "instrument": 0, "track": 0, "qtime": 36, "isDrum": false}, {"time": 84, "velocity": 108, "pitch": 72, "instrument": 0, "track": 0, "qtime": 36, "isDrum": false}, {"time": 96, "velocity": 0, "pitch": 72, "instrument": 0, "track": 0, "qtime": 48, "isDrum": false}, {"time": 96, "velocity": 108, "pitch": 72, "instrument": 0, "track": 0, "qtime": 0, "isDrum": false}, {"time": 108, "velocity": 0, "pitch": 72, "instrument": 0, "track": 0, "qtime": 12, "isDrum": false}, {"time": 108, "velocity": 108, "pitch": 70, "instrument": 0, "track": 0, "qtime": 12, "isDrum": false}, {"time": 114, "velocity": 0, "pitch": 70, "instrument": 0, "track": 0, "qtime": 18, "isDrum": false}, {"time": 114, "velocity": 108, "pitch": 69, "instrument": 0, "track": 0, "qtime": 18, "isDrum": false}, {"time": 120, "velocity": 0, "pitch": 69, "instrument": 0, "track": 0, "qtime": 24, "isDrum": false}, {"time": 120, "velocity": 108, "pitch": 67, "instrument": 0, "track": 0, "qtime": 24, "isDrum": false}, {"time": 126, "velocity": 0, "pitch": 67, "instrument": 0, "track": 0, "qtime": 30, "isDrum": false}, {"time": 126, "velocity": 108, "pitch": 69, "instrument": 0, "track": 0, "qtime": 30, "isDrum": false}, {"time": 132, "velocity": 0, "pitch": 69, "instrument": 0, "track": 0, "qtime": 36, "isDrum": false}, {"time": 132, "velocity": 108, "pitch": 70, "instrument": 0, "track": 0, "qtime": 36, "isDrum": false}, {"time": 138, "velocity": 0, "pitch": 70, "instrument": 0, "track": 0, "qtime": 42, "isDrum": false}, {"time": 138, "velocity": 108, "pitch": 72, "instrument": 0, "track": 0, "qtime": 42, "isDrum": false}, {"time": 144, "velocity": 0, "pitch": 72, "instrument": 0, "track": 0, "qtime": 48, "isDrum": false}, {"time": 144, "velocity": 108, "pitch": 74, "instrument": 0, "track": 0, "qtime": 0, "isDrum": false}, {"time": 156, "velocity": 0, "pitch": 74, "instrument": 0, "track": 0, "qtime": 12, "isDrum": false}, {"time": 156, "velocity": 108, "pitch": 72, "instrument": 0, "track": 0, "qtime": 12, "isDrum": false}, {"time": 162, "velocity": 0, "pitch": 72, "instrument": 0, "track": 0, "qtime": 18, "isDrum": false}, {"time": 162, "velocity": 108, "pitch": 70, "instrument": 0, "track": 0, "qtime": 18, "isDrum": false}, {"time": 168, "velocity": 0, "pitch": 70, "instrument": 0, "track": 0, "qtime": 24, "isDrum": false}, {"time": 168, "velocity": 108, "pitch": 72, "instrument": 0, "track": 0, "qtime": 24, "isDrum": false}, {"time": 180, "velocity": 0, "pitch": 72, "instrument": 0, "track": 0, "qtime": 36, "isDrum": false}, {"time": 180, "velocity": 108, "pitch": 70, "instrument": 0, "track": 0, "qtime": 36, "isDrum": false}, {"time": 192, "velocity": 0, "pitch": 70, "instrument": 0, "track": 0, "qtime": 48, "isDrum": false}, {"time": 0, "velocity": 108, "pitch": 62, "instrument": 0, "track": 1, "qtime": 0, "isDrum": false}, {"time": 12, "velocity": 0, "pitch": 62, "instrument": 0, "track": 1, "qtime": 12, "isDrum": false}, {"time": 12, "velocity": 108, "pitch": 67, "instrument": 0, "track": 1, "qtime": 12, "isDrum": false}, {"time": 24, "velocity": 0, "pitch": 67, "instrument": 0, "track": 1, "qtime": 24, "isDrum": false}, {"time": 24, "velocity": 108, "pitch": 67, "instrument": 0, "track": 1, "qtime": 24, "isDrum": false}, {"time": 36, "velocity": 0, "pitch": 67, "instrument": 0, "track": 1, "qtime": 36, "isDrum": false}, {"time": 36, "velocity": 108, "pitch": 67, "instrument": 0, "track": 1, "qtime": 36, "isDrum": false}, {"time": 48, "velocity": 0, "pitch": 67, "instrument": 0, "track": 1, "qtime": 48, "isDrum": false}, {"time": 48, "velocity": 108, "pitch": 67, "instrument": 0, "track": 1, "qtime": 0, "isDrum": false}, {"time": 60, "velocity": 0, "pitch": 67, "instrument": 0, "track": 1, "qtime": 12, "isDrum": false}, {"time": 60, "velocity": 108, "pitch": 63, "instrument": 0, "track": 1, "qtime": 12, "isDrum": false}, {"time": 72, "velocity": 0, "pitch": 63, "instrument": 0, "track": 1, "qtime": 24, "isDrum": false}, {"time": 72, "velocity": 108, "pitch": 62, "instrument": 0, "track": 1, "qtime": 24, "isDrum": false}, {"time": 84, "velocity": 0, "pitch": 62, "instrument": 0, "track": 1, "qtime": 36, "isDrum": false}, {"time": 84, "velocity": 108, "pitch": 60, "instrument": 0, "track": 1, "qtime": 36, "isDrum": false}, {"time": 96, "velocity": 0, "pitch": 60, "instrument": 0, "track": 1, "qtime": 48, "isDrum": false}, {"time": 96, "velocity": 108, "pitch": 67, "instrument": 0, "track": 1, "qtime": 0, "isDrum": false}, {"time": 102, "velocity": 0, "pitch": 67, "instrument": 0, "track": 1, "qtime": 6, "isDrum": false}, {"time": 102, "velocity": 108, "pitch": 69, "instrument": 0, "track": 1, "qtime": 6, "isDrum": false}, {"time": 108, "velocity": 0, "pitch": 69, "instrument": 0, "track": 1, "qtime": 12, "isDrum": false}, {"time": 108, "velocity": 108, "pitch": 70, "instrument": 0, "track": 1, "qtime": 12, "isDrum": false}, {"time": 114, "velocity": 0, "pitch": 70, "instrument": 0, "track": 1, "qtime": 18, "isDrum": false}, {"time": 114, "velocity": 108, "pitch": 58, "instrument": 0, "track": 1, "qtime": 18, "isDrum": false}, {"time": 126, "velocity": 0, "pitch": 58, "instrument": 0, "track": 1, "qtime": 30, "isDrum": false}, {"time": 126, "velocity": 108, "pitch": 60, "instrument": 0, "track": 1, "qtime": 30, "isDrum": false}, {"time": 132, "velocity": 0, "pitch": 60, "instrument": 0, "track": 1, "qtime": 36, "isDrum": false}, {"time": 132, "velocity": 108, "pitch": 62, "instrument": 0, "track": 1, "qtime": 36, "isDrum": false}, {"time": 138, "velocity": 0, "pitch": 62, "instrument": 0, "track": 1, "qtime": 42, "isDrum": false}, {"time": 138, "velocity": 108, "pitch": 63, "instrument": 0, "track": 1, "qtime": 42, "isDrum": false}, {"time": 144, "velocity": 0, "pitch": 63, "instrument": 0, "track": 1, "qtime": 48, "isDrum": false}, {"time": 144, "velocity": 108, "pitch": 65, "instrument": 0, "track": 1, "qtime": 0, "isDrum": false}, {"time": 150, "velocity": 0, "pitch": 65, "instrument": 0, "track": 1, "qtime": 6, "isDrum": false}, {"time": 150, "velocity": 108, "pitch": 67, "instrument": 0, "track": 1, "qtime": 6, "isDrum": false}, {"time": 156, "velocity": 0, "pitch": 67, "instrument": 0, "track": 1, "qtime": 12, "isDrum": false}, {"time": 156, "velocity": 108, "pitch": 69, "instrument": 0, "track": 1, "qtime": 12, "isDrum": false}, {"time": 162, "velocity": 0, "pitch": 69, "instrument": 0, "track": 1, "qtime": 18, "isDrum": false}, {"time": 162, "velocity": 108, "pitch": 70, "instrument": 0, "track": 1, "qtime": 18, "isDrum": false}, {"time": 174, "velocity": 0, "pitch": 70, "instrument": 0, "track": 1, "qtime": 30, "isDrum": false}, {"time": 174, "velocity": 108, "pitch": 69, "instrument": 0, "track": 1, "qtime": 30, "isDrum": false}, {"time": 180, "velocity": 0, "pitch": 69, "instrument": 0, "track": 1, "qtime": 36, "isDrum": false}, {"time": 180, "velocity": 108, "pitch": 65, "instrument": 0, "track": 1, "qtime": 36, "isDrum": false}, {"time": 192, "velocity": 0, "pitch": 65, "instrument": 0, "track": 1, "qtime": 48, "isDrum": false}, {"time": 0, "velocity": 108, "pitch": 58, "instrument": 0, "track": 2, "qtime": 0, "isDrum": false}, {"time": 6, "velocity": 0, "pitch": 58, "instrument": 0, "track": 2, "qtime": 6, "isDrum": false}, {"time": 6, "velocity": 108, "pitch": 60, "instrument": 0, "track": 2, "qtime": 6, "isDrum": false}, {"time": 12, "velocity": 0, "pitch": 60, "instrument": 0, "track": 2, "qtime": 12, "isDrum": false}, {"time": 12, "velocity": 108, "pitch": 62, "instrument": 0, "track": 2, "qtime": 12, "isDrum": false}, {"time": 24, "velocity": 0, "pitch": 62, "instrument": 0, "track": 2, "qtime": 24, "isDrum": false}, {"time": 24, "velocity": 108, "pitch": 62, "instrument": 0, "track": 2, "qtime": 24, "isDrum": false}, {"time": 36, "velocity": 0, "pitch": 62, "instrument": 0, "track": 2, "qtime": 36, "isDrum": false}, {"time": 36, "velocity": 108, "pitch": 63, "instrument": 0, "track": 2, "qtime": 36, "isDrum": false}, {"time": 48, "velocity": 0, "pitch": 63, "instrument": 0, "track": 2, "qtime": 48, "isDrum": false}, {"time": 48, "velocity": 108, "pitch": 62, "instrument": 0, "track": 2, "qtime": 0, "isDrum": false}, {"time": 60, "velocity": 0, "pitch": 62, "instrument": 0, "track": 2, "qtime": 12, "isDrum": false}, {"time": 60, "velocity": 108, "pitch": 55, "instrument": 0, "track": 2, "qtime": 12, "isDrum": false}, {"time": 66, "velocity": 0, "pitch": 55, "instrument": 0, "track": 2, "qtime": 18, "isDrum": false}, {"time": 66, "velocity": 108, "pitch": 67, "instrument": 0, "track": 2, "qtime": 18, "isDrum": false}, {"time": 78, "velocity": 0, "pitch": 67, "instrument": 0, "track": 2, "qtime": 30, "isDrum": false}, {"time": 78, "velocity": 108, "pitch": 65, "instrument": 0, "track": 2, "qtime": 30, "isDrum": false}, {"time": 84, "velocity": 0, "pitch": 65, "instrument": 0, "track": 2, "qtime": 36, "isDrum": false}, {"time": 84, "velocity": 108, "pitch": 63, "instrument": 0, "track": 2, "qtime": 36, "isDrum": false}, {"time": 96, "velocity": 0, "pitch": 63, "instrument": 0, "track": 2, "qtime": 48, "isDrum": false}, {"time": 96, "velocity": 108, "pitch": 63, "instrument": 0, "track": 2, "qtime": 0, "isDrum": false}, {"time": 108, "velocity": 0, "pitch": 63, "instrument": 0, "track": 2, "qtime": 12, "isDrum": false}, {"time": 108, "velocity": 108, "pitch": 65, "instrument": 0, "track": 2, "qtime": 12, "isDrum": false}, {"time": 120, "velocity": 0, "pitch": 65, "instrument": 0, "track": 2, "qtime": 24, "isDrum": false}, {"time": 120, "velocity": 108, "pitch": 67, "instrument": 0, "track": 2, "qtime": 24, "isDrum": false}, {"time": 132, "velocity": 0, "pitch": 67, "instrument": 0, "track": 2, "qtime": 36, "isDrum": false}, {"time": 132, "velocity": 108, "pitch": 65, "instrument": 0, "track": 2, "qtime": 36, "isDrum": false}, {"time": 138, "velocity": 0, "pitch": 65, "instrument": 0, "track": 2, "qtime": 42, "isDrum": false}, {"time": 138, "velocity": 108, "pitch": 63, "instrument": 0, "track": 2, "qtime": 42, "isDrum": false}, {"time": 144, "velocity": 0, "pitch": 63, "instrument": 0, "track": 2, "qtime": 48, "isDrum": false}, {"time": 144, "velocity": 108, "pitch": 62, "instrument": 0, "track": 2, "qtime": 0, "isDrum": false}, {"time": 150, "velocity": 0, "pitch": 62, "instrument": 0, "track": 2, "qtime": 6, "isDrum": false}, {"time": 150, "velocity": 108, "pitch": 58, "instrument": 0, "track": 2, "qtime": 6, "isDrum": false}, {"time": 156, "velocity": 0, "pitch": 58, "instrument": 0, "track": 2, "qtime": 12, "isDrum": false}, {"time": 156, "velocity": 108, "pitch": 65, "instrument": 0, "track": 2, "qtime": 12, "isDrum": false}, {"time": 168, "velocity": 0, "pitch": 65, "instrument": 0, "track": 2, "qtime": 24, "isDrum": false}, {"time": 168, "velocity": 108, "pitch": 67, "instrument": 0, "track": 2, "qtime": 24, "isDrum": false}, {"time": 174, "velocity": 0, "pitch": 67, "instrument": 0, "track": 2, "qtime": 30, "isDrum": false}, {"time": 174, "velocity": 108, "pitch": 65, "instrument": 0, "track": 2, "qtime": 30, "isDrum": false}, {"time": 177, "velocity": 0, "pitch": 65, "instrument": 0, "track": 2, "qtime": 33, "isDrum": false}, {"time": 177, "velocity": 108, "pitch": 63, "instrument": 0, "track": 2, "qtime": 33, "isDrum": false}, {"time": 180, "velocity": 0, "pitch": 63, "instrument": 0, "track": 2, "qtime": 36, "isDrum": false}, {"time": 180, "velocity": 108, "pitch": 62, "instrument": 0, "track": 2, "qtime": 36, "isDrum": false}, {"time": 192, "velocity": 0, "pitch": 62, "instrument": 0, "track": 2, "qtime": 48, "isDrum": false}, {"time": 0, "velocity": 108, "pitch": 46, "instrument": 0, "track": 3, "qtime": 0, "isDrum": false}, {"time": 6, "velocity": 0, "pitch": 46, "instrument": 0, "track": 3, "qtime": 6, "isDrum": false}, {"time": 6, "velocity": 108, "pitch": 45, "instrument": 0, "track": 3, "qtime": 6, "isDrum": false}, {"time": 12, "velocity": 0, "pitch": 45, "instrument": 0, "track": 3, "qtime": 12, "isDrum": false}, {"time": 12, "velocity": 108, "pitch": 43, "instrument": 0, "track": 3, "qtime": 12, "isDrum": false}, {"time": 24, "velocity": 0, "pitch": 43, "instrument": 0, "track": 3, "qtime": 24, "isDrum": false}, {"time": 24, "velocity": 108, "pitch": 43, "instrument": 0, "track": 3, "qtime": 24, "isDrum": false}, {"time": 36, "velocity": 0, "pitch": 43, "instrument": 0, "track": 3, "qtime": 36, "isDrum": false}, {"time": 36, "velocity": 108, "pitch": 48, "instrument": 0, "track": 3, "qtime": 36, "isDrum": false}, {"time": 48, "velocity": 0, "pitch": 48, "instrument": 0, "track": 3, "qtime": 48, "isDrum": false}, {"time": 48, "velocity": 108, "pitch": 58, "instrument": 0, "track": 3, "qtime": 0, "isDrum": false}, {"time": 54, "velocity": 0, "pitch": 58, "instrument": 0, "track": 3, "qtime": 6, "isDrum": false}, {"time": 54, "velocity": 108, "pitch": 53, "instrument": 0, "track": 3, "qtime": 6, "isDrum": false}, {"time": 60, "velocity": 0, "pitch": 53, "instrument": 0, "track": 3, "qtime": 12, "isDrum": false}, {"time": 60, "velocity": 108, "pitch": 55, "instrument": 0, "track": 3, "qtime": 12, "isDrum": false}, {"time": 66, "velocity": 0, "pitch": 55, "instrument": 0, "track": 3, "qtime": 18, "isDrum": false}, {"time": 66, "velocity": 108, "pitch": 57, "instrument": 0, "track": 3, "qtime": 18, "isDrum": false}, {"time": 72, "velocity": 0, "pitch": 57, "instrument": 0, "track": 3, "qtime": 24, "isDrum": false}, {"time": 72, "velocity": 108, "pitch": 59, "instrument": 0, "track": 3, "qtime": 24, "isDrum": false}, {"time": 84, "velocity": 0, "pitch": 59, "instrument": 0, "track": 3, "qtime": 36, "isDrum": false}, {"time": 84, "velocity": 108, "pitch": 60, "instrument": 0, "track": 3, "qtime": 36, "isDrum": false}, {"time": 90, "velocity": 0, "pitch": 60, "instrument": 0, "track": 3, "qtime": 42, "isDrum": false}, {"time": 90, "velocity": 108, "pitch": 55, "instrument": 0, "track": 3, "qtime": 42, "isDrum": false}, {"time": 96, "velocity": 0, "pitch": 55, "instrument": 0, "track": 3, "qtime": 48, "isDrum": false}, {"time": 96, "velocity": 108, "pitch": 60, "instrument": 0, "track": 3, "qtime": 0, "isDrum": false}, {"time": 108, "velocity": 0, "pitch": 60, "instrument": 0, "track": 3, "qtime": 12, "isDrum": false}, {"time": 108, "velocity": 108, "pitch": 50, "instrument": 0, "track": 3, "qtime": 12, "isDrum": false}, {"time": 120, "velocity": 0, "pitch": 50, "instrument": 0, "track": 3, "qtime": 24, "isDrum": false}, {"time": 120, "velocity": 108, "pitch": 51, "instrument": 0, "track": 3, "qtime": 24, "isDrum": false}, {"time": 126, "velocity": 0, "pitch": 51, "instrument": 0, "track": 3, "qtime": 30, "isDrum": false}, {"time": 126, "velocity": 108, "pitch": 53, "instrument": 0, "track": 3, "qtime": 30, "isDrum": false}, {"time": 132, "velocity": 0, "pitch": 53, "instrument": 0, "track": 3, "qtime": 36, "isDrum": false}, {"time": 132, "velocity": 108, "pitch": 55, "instrument": 0, "track": 3, "qtime": 36, "isDrum": false}, {"time": 138, "velocity": 0, "pitch": 55, "instrument": 0, "track": 3, "qtime": 42, "isDrum": false}, {"time": 138, "velocity": 108, "pitch": 57, "instrument": 0, "track": 3, "qtime": 42, "isDrum": false}, {"time": 144, "velocity": 0, "pitch": 57, "instrument": 0, "track": 3, "qtime": 48, "isDrum": false}, {"time": 144, "velocity": 108, "pitch": 58, "instrument": 0, "track": 3, "qtime": 0, "isDrum": false}, {"time": 156, "velocity": 0, "pitch": 58, "instrument": 0, "track": 3, "qtime": 12, "isDrum": false}, {"time": 156, "velocity": 108, "pitch": 53, "instrument": 0, "track": 3, "qtime": 12, "isDrum": false}, {"time": 162, "velocity": 0, "pitch": 53, "instrument": 0, "track": 3, "qtime": 18, "isDrum": false}, {"time": 162, "velocity": 108, "pitch": 50, "instrument": 0, "track": 3, "qtime": 18, "isDrum": false}, {"time": 168, "velocity": 0, "pitch": 50, "instrument": 0, "track": 3, "qtime": 24, "isDrum": false}, {"time": 168, "velocity": 108, "pitch": 51, "instrument": 0, "track": 3, "qtime": 24, "isDrum": false}, {"time": 174, "velocity": 0, "pitch": 51, "instrument": 0, "track": 3, "qtime": 30, "isDrum": false}, {"time": 174, "velocity": 108, "pitch": 53, "instrument": 0, "track": 3, "qtime": 30, "isDrum": false}, {"time": 180, "velocity": 0, "pitch": 53, "instrument": 0, "track": 3, "qtime": 36, "isDrum": false}, {"time": 180, "velocity": 108, "pitch": 46, "instrument": 0, "track": 3, "qtime": 36, "isDrum": false}, {"time": 192, "velocity": 0, "pitch": 46, "instrument": 0, "track": 3, "qtime": 48, "isDrum": false}], "resolution": 12, "tempo": 120, "minPitch": 43, "maxPitch": 74, "validSegments": [0], "validTracks": [15]}, "audio": "https://www.sfu.ca/~jeffe/examples/bach_14_5_bass.mp3"}, {"src": "gen/bach_14_5_3_bar.json", "highlights": [[2], [2], [2], [2]], "caption": "Then replace the 3rd bar in each part in 24b.", "sample_id": "24c", "mixer": [8, 8, 8, 8], "json": {"tracks": [{"bars": [{"events": [0, 1, 2, 3, 4, 5, 6, 7, 8, 9], "isFourFour": true, "hasNotes": true, "time": 0}, {"events": [10, 11, 12, 13, 14, 15, 16, 17], "isFourFour": true, "hasNotes": true, "time": 48}, {"events": [18, 19, 20, 21, 22, 23, 24, 25, 26, 27], "isFourFour": true, "hasNotes": true, "time": 96}, {"events": [28, 29, 30, 31, 32, 33, 34, 35, 36, 37], "isFourFour": true, "hasNotes": true, "time": 144}], "isDrum": false, "minPitch": 67, "maxPitch": 75, "instrument": 0, "avPolyphony": 1, "noteDensity": 6, "noteDensityV2": 3}, {"bars": [{"events": [38, 39, 40, 41, 42, 43, 44, 45], "isFourFour": true, "hasNotes": true, "time": 0}, {"events": [46, 47, 48, 49, 50, 51, 52, 53], "isFourFour": true, "hasNotes": true, "time": 48}, {"events": [54, 55, 56, 57, 58, 59, 60, 61, 62, 63, 64, 65], "isFourFour": true, "hasNotes": true, "time": 96}, {"events": [66, 67, 68, 69, 70, 71, 72, 73, 74, 75, 76, 77], "isFourFour": true, "hasNotes": true, "time": 144}], "isDrum": false, "minPitch": 60, "maxPitch": 70, "instrument": 0, "avPolyphony": 1, "noteDensity": 6, "noteDensityV2": 3}, {"bars": [{"events": [78, 79, 80, 81, 82, 83, 84, 85, 86, 87], "isFourFour": true, "hasNotes": true, "time": 0}, {"events": [88, 89, 90, 91, 92, 93, 94, 95, 96, 97], "isFourFour": true, "hasNotes": true, "time": 48}, {"events": [98, 99, 100, 101, 102, 103, 104, 105, 106, 107, 108, 109, 110, 111, 112, 113, 114, 115], "isFourFour": true, "hasNotes": true, "time": 96}, {"events": [116, 117, 118, 119, 120, 121, 122, 123, 124, 125, 126, 127, 128, 129], "isFourFour": true, "hasNotes": true, "time": 144}], "isDrum": false, "minPitch": 55, "maxPitch": 67, "instrument": 0, "avPolyphony": 1, "noteDensity": 7, "noteDensityV2": 5}, {"bars": [{"events": [130, 131, 132, 133, 134, 135, 136, 137, 138, 139], "isFourFour": true, "hasNotes": true, "time": 0}, {"events": [140, 141, 142, 143, 144, 145, 146, 147, 148, 149, 150, 151, 152, 153], "isFourFour": true, "hasNotes": true, "time": 48}, {"events": [154, 155, 156, 157, 158, 159, 160, 161, 162, 163, 164, 165, 166, 167], "isFourFour": true, "hasNotes": true, "time": 96}, {"events": [168, 169, 170, 171, 172, 173, 174, 175, 176, 177, 178, 179], "isFourFour": true, "hasNotes": true, "time": 144}], "isDrum": false, "minPitch": 43, "maxPitch": 60, "instrument": 0, "avPolyphony": 1, "noteDensity": 7, "noteDensityV2": 4}], "events": [{"time": 0, "velocity": 108, "pitch": 67, "instrument": 0, "track": 0, "qtime": 0, "isDrum": false}, {"time": 6, "velocity": 0, "pitch": 67, "instrument": 0, "track": 0, "qtime": 6, "isDrum": false}, {"time": 6, "velocity": 108, "pitch": 69, "instrument": 0, "track": 0, "qtime": 6, "isDrum": false}, {"time": 12, "velocity": 0, "pitch": 69, "instrument": 0, "track": 0, "qtime": 12, "isDrum": false}, {"time": 12, "velocity": 108, "pitch": 70, "instrument": 0, "track": 0, "qtime": 12, "isDrum": false}, {"time": 24, "velocity": 0, "pitch": 70, "instrument": 0, "track": 0, "qtime": 24, "isDrum": false}, {"time": 24, "velocity": 108, "pitch": 71, "instrument": 0, "track": 0, "qtime": 24, "isDrum": false}, {"time": 36, "velocity": 0, "pitch": 71, "instrument": 0, "track": 0, "qtime": 36, "isDrum": false}, {"time": 36, "velocity": 108, "pitch": 72, "instrument": 0, "track": 0, "qtime": 36, "isDrum": false}, {"time": 48, "velocity": 0, "pitch": 72, "instrument": 0, "track": 0, "qtime": 48, "isDrum": false}, {"time": 48, "velocity": 108, "pitch": 74, "instrument": 0, "track": 0, "qtime": 0, "isDrum": false}, {"time": 60, "velocity": 0, "pitch": 74, "instrument": 0, "track": 0, "qtime": 12, "isDrum": false}, {"time": 60, "velocity": 108, "pitch": 72, "instrument": 0, "track": 0, "qtime": 12, "isDrum": false}, {"time": 72, "velocity": 0, "pitch": 72, "instrument": 0, "track": 0, "qtime": 24, "isDrum": false}, {"time": 72, "velocity": 108, "pitch": 71, "instrument": 0, "track": 0, "qtime": 24, "isDrum": false}, {"time": 84, "velocity": 0, "pitch": 71, "instrument": 0, "track": 0, "qtime": 36, "isDrum": false}, {"time": 84, "velocity": 108, "pitch": 72, "instrument": 0, "track": 0, "qtime": 36, "isDrum": false}, {"time": 96, "velocity": 0, "pitch": 72, "instrument": 0, "track": 0, "qtime": 48, "isDrum": false}, {"time": 96, "velocity": 108, "pitch": 69, "instrument": 0, "track": 0, "qtime": 0, "isDrum": false}, {"time": 114, "velocity": 0, "pitch": 69, "instrument": 0, "track": 0, "qtime": 18, "isDrum": false}, {"time": 114, "velocity": 108, "pitch": 70, "instrument": 0, "track": 0, "qtime": 18, "isDrum": false}, {"time": 120, "velocity": 0, "pitch": 70, "instrument": 0, "track": 0, "qtime": 24, "isDrum": false}, {"time": 120, "velocity": 108, "pitch": 72, "instrument": 0, "track": 0, "qtime": 24, "isDrum": false}, {"time": 126, "velocity": 0, "pitch": 72, "instrument": 0, "track": 0, "qtime": 30, "isDrum": false}, {"time": 126, "velocity": 108, "pitch": 74, "instrument": 0, "track": 0, "qtime": 30, "isDrum": false}, {"time": 132, "velocity": 0, "pitch": 74, "instrument": 0, "track": 0, "qtime": 36, "isDrum": false}, {"time": 132, "velocity": 108, "pitch": 75, "instrument": 0, "track": 0, "qtime": 36, "isDrum": false}, {"time": 144, "velocity": 0, "pitch": 75, "instrument": 0, "track": 0, "qtime": 48, "isDrum": false}, {"time": 144, "velocity": 108, "pitch": 74, "instrument": 0, "track": 0, "qtime": 0, "isDrum": false}, {"time": 156, "velocity": 0, "pitch": 74, "instrument": 0, "track": 0, "qtime": 12, "isDrum": false}, {"time": 156, "velocity": 108, "pitch": 72, "instrument": 0, "track": 0, "qtime": 12, "isDrum": false}, {"time": 162, "velocity": 0, "pitch": 72, "instrument": 0, "track": 0, "qtime": 18, "isDrum": false}, {"time": 162, "velocity": 108, "pitch": 70, "instrument": 0, "track": 0, "qtime": 18, "isDrum": false}, {"time": 168, "velocity": 0, "pitch": 70, "instrument": 0, "track": 0, "qtime": 24, "isDrum": false}, {"time": 168, "velocity": 108, "pitch": 72, "instrument": 0, "track": 0, "qtime": 24, "isDrum": false}, {"time": 180, "velocity": 0, "pitch": 72, "instrument": 0, "track": 0, "qtime": 36, "isDrum": false}, {"time": 180, "velocity": 108, "pitch": 70, "instrument": 0, "track": 0, "qtime": 36, "isDrum": false}, {"time": 192, "velocity": 0, "pitch": 70, "instrument": 0, "track": 0, "qtime": 48, "isDrum": false}, {"time": 0, "velocity": 108, "pitch": 62, "instrument": 0, "track": 1, "qtime": 0, "isDrum": false}, {"time": 12, "velocity": 0, "pitch": 62, "instrument": 0, "track": 1, "qtime": 12, "isDrum": false}, {"time": 12, "velocity": 108, "pitch": 67, "instrument": 0, "track": 1, "qtime": 12, "isDrum": false}, {"time": 24, "velocity": 0, "pitch": 67, "instrument": 0, "track": 1, "qtime": 24, "isDrum": false}, {"time": 24, "velocity": 108, "pitch": 67, "instrument": 0, "track": 1, "qtime": 24, "isDrum": false}, {"time": 36, "velocity": 0, "pitch": 67, "instrument": 0, "track": 1, "qtime": 36, "isDrum": false}, {"time": 36, "velocity": 108, "pitch": 67, "instrument": 0, "track": 1, "qtime": 36, "isDrum": false}, {"time": 48, "velocity": 0, "pitch": 67, "instrument": 0, "track": 1, "qtime": 48, "isDrum": false}, {"time": 48, "velocity": 108, "pitch": 67, "instrument": 0, "track": 1, "qtime": 0, "isDrum": false}, {"time": 60, "velocity": 0, "pitch": 67, "instrument": 0, "track": 1, "qtime": 12, "isDrum": false}, {"time": 60, "velocity": 108, "pitch": 63, "instrument": 0, "track": 1, "qtime": 12, "isDrum": false}, {"time": 72, "velocity": 0, "pitch": 63, "instrument": 0, "track": 1, "qtime": 24, "isDrum": false}, {"time": 72, "velocity": 108, "pitch": 62, "instrument": 0, "track": 1, "qtime": 24, "isDrum": false}, {"time": 84, "velocity": 0, "pitch": 62, "instrument": 0, "track": 1, "qtime": 36, "isDrum": false}, {"time": 84, "velocity": 108, "pitch": 60, "instrument": 0, "track": 1, "qtime": 36, "isDrum": false}, {"time": 96, "velocity": 0, "pitch": 60, "instrument": 0, "track": 1, "qtime": 48, "isDrum": false}, {"time": 96, "velocity": 108, "pitch": 65, "instrument": 0, "track": 1, "qtime": 0, "isDrum": false}, {"time": 102, "velocity": 0, "pitch": 65, "instrument": 0, "track": 1, "qtime": 6, "isDrum": false}, {"time": 102, "velocity": 108, "pitch": 63, "instrument": 0, "track": 1, "qtime": 6, "isDrum": false}, {"time": 108, "velocity": 0, "pitch": 63, "instrument": 0, "track": 1, "qtime": 12, "isDrum": false}, {"time": 108, "velocity": 108, "pitch": 62, "instrument": 0, "track": 1, "qtime": 12, "isDrum": false}, {"time": 120, "velocity": 0, "pitch": 62, "instrument": 0, "track": 1, "qtime": 24, "isDrum": false}, {"time": 120, "velocity": 108, "pitch": 63, "instrument": 0, "track": 1, "qtime": 24, "isDrum": false}, {"time": 132, "velocity": 0, "pitch": 63, "instrument": 0, "track": 1, "qtime": 36, "isDrum": false}, {"time": 132, "velocity": 108, "pitch": 67, "instrument": 0, "track": 1, "qtime": 36, "isDrum": false}, {"time": 138, "velocity": 0, "pitch": 67, "instrument": 0, "track": 1, "qtime": 42, "isDrum": false}, {"time": 138, "velocity": 108, "pitch": 69, "instrument": 0, "track": 1, "qtime": 42, "isDrum": false}, {"time": 144, "velocity": 0, "pitch": 69, "instrument": 0, "track": 1, "qtime": 48, "isDrum": false}, {"time": 144, "velocity": 108, "pitch": 65, "instrument": 0, "track": 1, "qtime": 0, "isDrum": false}, {"time": 150, "velocity": 0, "pitch": 65, "instrument": 0, "track": 1, "qtime": 6, "isDrum": false}, {"time": 150, "velocity": 108, "pitch": 67, "instrument": 0, "track": 1, "qtime": 6, "isDrum": false}, {"time": 156, "velocity": 0, "pitch": 67, "instrument": 0, "track": 1, "qtime": 12, "isDrum": false}, {"time": 156, "velocity": 108, "pitch": 69, "instrument": 0, "track": 1, "qtime": 12, "isDrum": false}, {"time": 162, "velocity": 0, "pitch": 69, "instrument": 0, "track": 1, "qtime": 18, "isDrum": false}, {"time": 162, "velocity": 108, "pitch": 70, "instrument": 0, "track": 1, "qtime": 18, "isDrum": false}, {"time": 174, "velocity": 0, "pitch": 70, "instrument": 0, "track": 1, "qtime": 30, "isDrum": false}, {"time": 174, "velocity": 108, "pitch": 69, "instrument": 0, "track": 1, "qtime": 30, "isDrum": false}, {"time": 180, "velocity": 0, "pitch": 69, "instrument": 0, "track": 1, "qtime": 36, "isDrum": false}, {"time": 180, "velocity": 108, "pitch": 65, "instrument": 0, "track": 1, "qtime": 36, "isDrum": false}, {"time": 192, "velocity": 0, "pitch": 65, "instrument": 0, "track": 1, "qtime": 48, "isDrum": false}, {"time": 0, "velocity": 108, "pitch": 58, "instrument": 0, "track": 2, "qtime": 0, "isDrum": false}, {"time": 6, "velocity": 0, "pitch": 58, "instrument": 0, "track": 2, "qtime": 6, "isDrum": false}, {"time": 6, "velocity": 108, "pitch": 60, "instrument": 0, "track": 2, "qtime": 6, "isDrum": false}, {"time": 12, "velocity": 0, "pitch": 60, "instrument": 0, "track": 2, "qtime": 12, "isDrum": false}, {"time": 12, "velocity": 108, "pitch": 62, "instrument": 0, "track": 2, "qtime": 12, "isDrum": false}, {"time": 24, "velocity": 0, "pitch": 62, "instrument": 0, "track": 2, "qtime": 24, "isDrum": false}, {"time": 24, "velocity": 108, "pitch": 62, "instrument": 0, "track": 2, "qtime": 24, "isDrum": false}, {"time": 36, "velocity": 0, "pitch": 62, "instrument": 0, "track": 2, "qtime": 36, "isDrum": false}, {"time": 36, "velocity": 108, "pitch": 63, "instrument": 0, "track": 2, "qtime": 36, "isDrum": false}, {"time": 48, "velocity": 0, "pitch": 63, "instrument": 0, "track": 2, "qtime": 48, "isDrum": false}, {"time": 48, "velocity": 108, "pitch": 62, "instrument": 0, "track": 2, "qtime": 0, "isDrum": false}, {"time": 60, "velocity": 0, "pitch": 62, "instrument": 0, "track": 2, "qtime": 12, "isDrum": false}, {"time": 60, "velocity": 108, "pitch": 55, "instrument": 0, "track": 2, "qtime": 12, "isDrum": false}, {"time": 66, "velocity": 0, "pitch": 55, "instrument": 0, "track": 2, "qtime": 18, "isDrum": false}, {"time": 66, "velocity": 108, "pitch": 67, "instrument": 0, "track": 2, "qtime": 18, "isDrum": false}, {"time": 78, "velocity": 0, "pitch": 67, "instrument": 0, "track": 2, "qtime": 30, "isDrum": false}, {"time": 78, "velocity": 108, "pitch": 65, "instrument": 0, "track": 2, "qtime": 30, "isDrum": false}, {"time": 84, "velocity": 0, "pitch": 65, "instrument": 0, "track": 2, "qtime": 36, "isDrum": false}, {"time": 84, "velocity": 108, "pitch": 63, "instrument": 0, "track": 2, "qtime": 36, "isDrum": false}, {"time": 96, "velocity": 0, "pitch": 63, "instrument": 0, "track": 2, "qtime": 48, "isDrum": false}, {"time": 96, "velocity": 108, "pitch": 65, "instrument": 0, "track": 2, "qtime": 0, "isDrum": false}, {"time": 102, "velocity": 0, "pitch": 65, "instrument": 0, "track": 2, "qtime": 6, "isDrum": false}, {"time": 102, "velocity": 108, "pitch": 60, "instrument": 0, "track": 2, "qtime": 6, "isDrum": false}, {"time": 108, "velocity": 0, "pitch": 60, "instrument": 0, "track": 2, "qtime": 12, "isDrum": false}, {"time": 108, "velocity": 108, "pitch": 58, "instrument": 0, "track": 2, "qtime": 12, "isDrum": false}, {"time": 114, "velocity": 0, "pitch": 58, "instrument": 0, "track": 2, "qtime": 18, "isDrum": false}, {"time": 114, "velocity": 108, "pitch": 58, "instrument": 0, "track": 2, "qtime": 18, "isDrum": false}, {"time": 120, "velocity": 0, "pitch": 58, "instrument": 0, "track": 2, "qtime": 24, "isDrum": false}, {"time": 120, "velocity": 108, "pitch": 63, "instrument": 0, "track": 2, "qtime": 24, "isDrum": false}, {"time": 126, "velocity": 0, "pitch": 63, "instrument": 0, "track": 2, "qtime": 30, "isDrum": false}, {"time": 126, "velocity": 108, "pitch": 62, "instrument": 0, "track": 2, "qtime": 30, "isDrum": false}, {"time": 129, "velocity": 0, "pitch": 62, "instrument": 0, "track": 2, "qtime": 33, "isDrum": false}, {"time": 129, "velocity": 108, "pitch": 60, "instrument": 0, "track": 2, "qtime": 33, "isDrum": false}, {"time": 132, "velocity": 0, "pitch": 60, "instrument": 0, "track": 2, "qtime": 36, "isDrum": false}, {"time": 132, "velocity": 108, "pitch": 58, "instrument": 0, "track": 2, "qtime": 36, "isDrum": false}, {"time": 141, "velocity": 0, "pitch": 58, "instrument": 0, "track": 2, "qtime": 45, "isDrum": false}, {"time": 141, "velocity": 108, "pitch": 60, "instrument": 0, "track": 2, "qtime": 45, "isDrum": false}, {"time": 144, "velocity": 0, "pitch": 60, "instrument": 0, "track": 2, "qtime": 48, "isDrum": false}, {"time": 144, "velocity": 108, "pitch": 62, "instrument": 0, "track": 2, "qtime": 0, "isDrum": false}, {"time": 150, "velocity": 0, "pitch": 62, "instrument": 0, "track": 2, "qtime": 6, "isDrum": false}, {"time": 150, "velocity": 108, "pitch": 58, "instrument": 0, "track": 2, "qtime": 6, "isDrum": false}, {"time": 156, "velocity": 0, "pitch": 58, "instrument": 0, "track": 2, "qtime": 12, "isDrum": false}, {"time": 156, "velocity": 108, "pitch": 65, "instrument": 0, "track": 2, "qtime": 12, "isDrum": false}, {"time": 168, "velocity": 0, "pitch": 65, "instrument": 0, "track": 2, "qtime": 24, "isDrum": false}, {"time": 168, "velocity": 108, "pitch": 67, "instrument": 0, "track": 2, "qtime": 24, "isDrum": false}, {"time": 174, "velocity": 0, "pitch": 67, "instrument": 0, "track": 2, "qtime": 30, "isDrum": false}, {"time": 174, "velocity": 108, "pitch": 65, "instrument": 0, "track": 2, "qtime": 30, "isDrum": false}, {"time": 177, "velocity": 0, "pitch": 65, "instrument": 0, "track": 2, "qtime": 33, "isDrum": false}, {"time": 177, "velocity": 108, "pitch": 63, "instrument": 0, "track": 2, "qtime": 33, "isDrum": false}, {"time": 180, "velocity": 0, "pitch": 63, "instrument": 0, "track": 2, "qtime": 36, "isDrum": false}, {"time": 180, "velocity": 108, "pitch": 62, "instrument": 0, "track": 2, "qtime": 36, "isDrum": false}, {"time": 192, "velocity": 0, "pitch": 62, "instrument": 0, "track": 2, "qtime": 48, "isDrum": false}, {"time": 0, "velocity": 108, "pitch": 46, "instrument": 0, "track": 3, "qtime": 0, "isDrum": false}, {"time": 6, "velocity": 0, "pitch": 46, "instrument": 0, "track": 3, "qtime": 6, "isDrum": false}, {"time": 6, "velocity": 108, "pitch": 45, "instrument": 0, "track": 3, "qtime": 6, "isDrum": false}, {"time": 12, "velocity": 0, "pitch": 45, "instrument": 0, "track": 3, "qtime": 12, "isDrum": false}, {"time": 12, "velocity": 108, "pitch": 43, "instrument": 0, "track": 3, "qtime": 12, "isDrum": false}, {"time": 24, "velocity": 0, "pitch": 43, "instrument": 0, "track": 3, "qtime": 24, "isDrum": false}, {"time": 24, "velocity": 108, "pitch": 43, "instrument": 0, "track": 3, "qtime": 24, "isDrum": false}, {"time": 36, "velocity": 0, "pitch": 43, "instrument": 0, "track": 3, "qtime": 36, "isDrum": false}, {"time": 36, "velocity": 108, "pitch": 48, "instrument": 0, "track": 3, "qtime": 36, "isDrum": false}, {"time": 48, "velocity": 0, "pitch": 48, "instrument": 0, "track": 3, "qtime": 48, "isDrum": false}, {"time": 48, "velocity": 108, "pitch": 58, "instrument": 0, "track": 3, "qtime": 0, "isDrum": false}, {"time": 54, "velocity": 0, "pitch": 58, "instrument": 0, "track": 3, "qtime": 6, "isDrum": false}, {"time": 54, "velocity": 108, "pitch": 53, "instrument": 0, "track": 3, "qtime": 6, "isDrum": false}, {"time": 60, "velocity": 0, "pitch": 53, "instrument": 0, "track": 3, "qtime": 12, "isDrum": false}, {"time": 60, "velocity": 108, "pitch": 55, "instrument": 0, "track": 3, "qtime": 12, "isDrum": false}, {"time": 66, "velocity": 0, "pitch": 55, "instrument": 0, "track": 3, "qtime": 18, "isDrum": false}, {"time": 66, "velocity": 108, "pitch": 57, "instrument": 0, "track": 3, "qtime": 18, "isDrum": false}, {"time": 72, "velocity": 0, "pitch": 57, "instrument": 0, "track": 3, "qtime": 24, "isDrum": false}, {"time": 72, "velocity": 108, "pitch": 59, "instrument": 0, "track": 3, "qtime": 24, "isDrum": false}, {"time": 84, "velocity": 0, "pitch": 59, "instrument": 0, "track": 3, "qtime": 36, "isDrum": false}, {"time": 84, "velocity": 108, "pitch": 60, "instrument": 0, "track": 3, "qtime": 36, "isDrum": false}, {"time": 90, "velocity": 0, "pitch": 60, "instrument": 0, "track": 3, "qtime": 42, "isDrum": false}, {"time": 90, "velocity": 108, "pitch": 55, "instrument": 0, "track": 3, "qtime": 42, "isDrum": false}, {"time": 96, "velocity": 0, "pitch": 55, "instrument": 0, "track": 3, "qtime": 48, "isDrum": false}, {"time": 96, "velocity": 108, "pitch": 57, "instrument": 0, "track": 3, "qtime": 0, "isDrum": false}, {"time": 102, "velocity": 0, "pitch": 57, "instrument": 0, "track": 3, "qtime": 6, "isDrum": false}, {"time": 102, "velocity": 108, "pitch": 53, "instrument": 0, "track": 3, "qtime": 6, "isDrum": false}, {"time": 105, "velocity": 0, "pitch": 53, "instrument": 0, "track": 3, "qtime": 9, "isDrum": false}, {"time": 105, "velocity": 108, "pitch": 51, "instrument": 0, "track": 3, "qtime": 9, "isDrum": false}, {"time": 108, "velocity": 0, "pitch": 51, "instrument": 0, "track": 3, "qtime": 12, "isDrum": false}, {"time": 108, "velocity": 108, "pitch": 50, "instrument": 0, "track": 3, "qtime": 12, "isDrum": false}, {"time": 120, "velocity": 0, "pitch": 50, "instrument": 0, "track": 3, "qtime": 24, "isDrum": false}, {"time": 120, "velocity": 108, "pitch": 48, "instrument": 0, "track": 3, "qtime": 24, "isDrum": false}, {"time": 132, "velocity": 0, "pitch": 48, "instrument": 0, "track": 3, "qtime": 36, "isDrum": false}, {"time": 132, "velocity": 108, "pitch": 55, "instrument": 0, "track": 3, "qtime": 36, "isDrum": false}, {"time": 138, "velocity": 0, "pitch": 55, "instrument": 0, "track": 3, "qtime": 42, "isDrum": false}, {"time": 138, "velocity": 108, "pitch": 53, "instrument": 0, "track": 3, "qtime": 42, "isDrum": false}, {"time": 144, "velocity": 0, "pitch": 53, "instrument": 0, "track": 3, "qtime": 48, "isDrum": false}, {"time": 144, "velocity": 108, "pitch": 58, "instrument": 0, "track": 3, "qtime": 0, "isDrum": false}, {"time": 156, "velocity": 0, "pitch": 58, "instrument": 0, "track": 3, "qtime": 12, "isDrum": false}, {"time": 156, "velocity": 108, "pitch": 53, "instrument": 0, "track": 3, "qtime": 12, "isDrum": false}, {"time": 162, "velocity": 0, "pitch": 53, "instrument": 0, "track": 3, "qtime": 18, "isDrum": false}, {"time": 162, "velocity": 108, "pitch": 50, "instrument": 0, "track": 3, "qtime": 18, "isDrum": false}, {"time": 168, "velocity": 0, "pitch": 50, "instrument": 0, "track": 3, "qtime": 24, "isDrum": false}, {"time": 168, "velocity": 108, "pitch": 51, "instrument": 0, "track": 3, "qtime": 24, "isDrum": false}, {"time": 174, "velocity": 0, "pitch": 51, "instrument": 0, "track": 3, "qtime": 30, "isDrum": false}, {"time": 174, "velocity": 108, "pitch": 53, "instrument": 0, "track": 3, "qtime": 30, "isDrum": false}, {"time": 180, "velocity": 0, "pitch": 53, "instrument": 0, "track": 3, "qtime": 36, "isDrum": false}, {"time": 180, "velocity": 108, "pitch": 46, "instrument": 0, "track": 3, "qtime": 36, "isDrum": false}, {"time": 192, "velocity": 0, "pitch": 46, "instrument": 0, "track": 3, "qtime": 48, "isDrum": false}], "resolution": 12, "tempo": 120, "minPitch": 43, "maxPitch": 75, "validSegments": [0], "validTracks": [15]}, "audio": "https://www.sfu.ca/~jeffe/examples/bach_14_5_3_bar.mp3"}, {"src": "gen/bach_14_5_random_bar.json", "highlights": [[0, 2], [2], [1, 3], [3]], "caption": "Replace a random set of bars in 24c.", "sample_id": "24d", "mixer": [8, 8, 8, 8], "json": {"tracks": [{"bars": [{"events": [0, 1, 2, 3, 4, 5, 6, 7, 8, 9], "isFourFour": true, "hasNotes": true, "time": 0}, {"events": [10, 11, 12, 13, 14, 15, 16, 17], "isFourFour": true, "hasNotes": true, "time": 48}, {"events": [18, 19, 20, 21, 22, 23, 24, 25, 26, 27], "isFourFour": true, "hasNotes": true, "time": 96}, {"events": [28, 29, 30, 31, 32, 33, 34, 35, 36, 37], "isFourFour": true, "hasNotes": true, "time": 144}], "isDrum": false, "minPitch": 67, "maxPitch": 77, "instrument": 0, "avPolyphony": 1, "noteDensity": 6, "noteDensityV2": 3}, {"bars": [{"events": [38, 39, 40, 41, 42, 43, 44, 45], "isFourFour": true, "hasNotes": true, "time": 0}, {"events": [46, 47, 48, 49, 50, 51, 52, 53], "isFourFour": true, "hasNotes": true, "time": 48}, {"events": [54, 55, 56, 57, 58, 59, 60, 61, 62, 63, 64, 65, 66, 67], "isFourFour": true, "hasNotes": true, "time": 96}, {"events": [68, 69, 70, 71, 72, 73, 74, 75, 76, 77, 78, 79], "isFourFour": true, "hasNotes": true, "time": 144}], "isDrum": false, "minPitch": 60, "maxPitch": 70, "instrument": 0, "avPolyphony": 1, "noteDensity": 6, "noteDensityV2": 3}, {"bars": [{"events": [80, 81, 82, 83, 84, 85, 86, 87, 88, 89], "isFourFour": true, "hasNotes": true, "time": 0}, {"events": [90, 91, 92, 93, 94, 95, 96, 97, 98, 99, 100, 101, 102, 103], "isFourFour": true, "hasNotes": true, "time": 48}, {"events": [104, 105, 106, 107, 108, 109, 110, 111, 112, 113, 114, 115, 116, 117, 118, 119, 120, 121], "isFourFour": true, "hasNotes": true, "time": 96}, {"events": [122, 123, 124, 125, 126, 127, 128, 129, 130, 131, 132, 133, 134, 135], "isFourFour": true, "hasNotes": true, "time": 144}], "isDrum": false, "minPitch": 58, "maxPitch": 69, "instrument": 0, "avPolyphony": 1, "noteDensity": 8, "noteDensityV2": 5}, {"bars": [{"events": [136, 137, 138, 139, 140, 141, 142, 143, 144, 145], "isFourFour": true, "hasNotes": true, "time": 0}, {"events": [146, 147, 148, 149, 150, 151, 152, 153, 154, 155, 156, 157, 158, 159], "isFourFour": true, "hasNotes": true, "time": 48}, {"events": [160, 161, 162, 163, 164, 165, 166, 167, 168, 169, 170, 171, 172, 173], "isFourFour": true, "hasNotes": true, "time": 96}, {"events": [174, 175, 176, 177, 178, 179, 180, 181, 182, 183], "isFourFour": true, "hasNotes": true, "time": 144}], "isDrum": false, "minPitch": 43, "maxPitch": 60, "instrument": 0, "avPolyphony": 1, "noteDensity": 7, "noteDensityV2": 4}], "events": [{"time": 0, "velocity": 108, "pitch": 77, "instrument": 0, "track": 0, "qtime": 0, "isDrum": false}, {"time": 12, "velocity": 0, "pitch": 77, "instrument": 0, "track": 0, "qtime": 12, "isDrum": false}, {"time": 12, "velocity": 108, "pitch": 75, "instrument": 0, "track": 0, "qtime": 12, "isDrum": false}, {"time": 18, "velocity": 0, "pitch": 75, "instrument": 0, "track": 0, "qtime": 18, "isDrum": false}, {"time": 18, "velocity": 108, "pitch": 74, "instrument": 0, "track": 0, "qtime": 18, "isDrum": false}, {"time": 24, "velocity": 0, "pitch": 74, "instrument": 0, "track": 0, "qtime": 24, "isDrum": false}, {"time": 24, "velocity": 108, "pitch": 74, "instrument": 0, "track": 0, "qtime": 24, "isDrum": false}, {"time": 36, "velocity": 0, "pitch": 74, "instrument": 0, "track": 0, "qtime": 36, "isDrum": false}, {"time": 36, "velocity": 108, "pitch": 72, "instrument": 0, "track": 0, "qtime": 36, "isDrum": false}, {"time": 48, "velocity": 0, "pitch": 72, "instrument": 0, "track": 0, "qtime": 48, "isDrum": false}, {"time": 48, "velocity": 108, "pitch": 74, "instrument": 0, "track": 0, "qtime": 0, "isDrum": false}, {"time": 60, "velocity": 0, "pitch": 74, "instrument": 0, "track": 0, "qtime": 12, "isDrum": false}, {"time": 60, "velocity": 108, "pitch": 72, "instrument": 0, "track": 0, "qtime": 12, "isDrum": false}, {"time": 72, "velocity": 0, "pitch": 72, "instrument": 0, "track": 0, "qtime": 24, "isDrum": false}, {"time": 72, "velocity": 108, "pitch": 71, "instrument": 0, "track": 0, "qtime": 24, "isDrum": false}, {"time": 84, "velocity": 0, "pitch": 71, "instrument": 0, "track": 0, "qtime": 36, "isDrum": false}, {"time": 84, "velocity": 108, "pitch": 72, "instrument": 0, "track": 0, "qtime": 36, "isDrum": false}, {"time": 96, "velocity": 0, "pitch": 72, "instrument": 0, "track": 0, "qtime": 48, "isDrum": false}, {"time": 96, "velocity": 108, "pitch": 72, "instrument": 0, "track": 0, "qtime": 0, "isDrum": false}, {"time": 114, "velocity": 0, "pitch": 72, "instrument": 0, "track": 0, "qtime": 18, "isDrum": false}, {"time": 114, "velocity": 108, "pitch": 70, "instrument": 0, "track": 0, "qtime": 18, "isDrum": false}, {"time": 117, "velocity": 0, "pitch": 70, "instrument": 0, "track": 0, "qtime": 21, "isDrum": false}, {"time": 117, "velocity": 108, "pitch": 69, "instrument": 0, "track": 0, "qtime": 21, "isDrum": false}, {"time": 120, "velocity": 0, "pitch": 69, "instrument": 0, "track": 0, "qtime": 24, "isDrum": false}, {"time": 120, "velocity": 108, "pitch": 67, "instrument": 0, "track": 0, "qtime": 24, "isDrum": false}, {"time": 132, "velocity": 0, "pitch": 67, "instrument": 0, "track": 0, "qtime": 36, "isDrum": false}, {"time": 132, "velocity": 108, "pitch": 67, "instrument": 0, "track": 0, "qtime": 36, "isDrum": false}, {"time": 144, "velocity": 0, "pitch": 67, "instrument": 0, "track": 0, "qtime": 48, "isDrum": false}, {"time": 144, "velocity": 108, "pitch": 74, "instrument": 0, "track": 0, "qtime": 0, "isDrum": false}, {"time": 156, "velocity": 0, "pitch": 74, "instrument": 0, "track": 0, "qtime": 12, "isDrum": false}, {"time": 156, "velocity": 108, "pitch": 72, "instrument": 0, "track": 0, "qtime": 12, "isDrum": false}, {"time": 162, "velocity": 0, "pitch": 72, "instrument": 0, "track": 0, "qtime": 18, "isDrum": false}, {"time": 162, "velocity": 108, "pitch": 70, "instrument": 0, "track": 0, "qtime": 18, "isDrum": false}, {"time": 168, "velocity": 0, "pitch": 70, "instrument": 0, "track": 0, "qtime": 24, "isDrum": false}, {"time": 168, "velocity": 108, "pitch": 72, "instrument": 0, "track": 0, "qtime": 24, "isDrum": false}, {"time": 180, "velocity": 0, "pitch": 72, "instrument": 0, "track": 0, "qtime": 36, "isDrum": false}, {"time": 180, "velocity": 108, "pitch": 70, "instrument": 0, "track": 0, "qtime": 36, "isDrum": false}, {"time": 192, "velocity": 0, "pitch": 70, "instrument": 0, "track": 0, "qtime": 48, "isDrum": false}, {"time": 0, "velocity": 108, "pitch": 62, "instrument": 0, "track": 1, "qtime": 0, "isDrum": false}, {"time": 12, "velocity": 0, "pitch": 62, "instrument": 0, "track": 1, "qtime": 12, "isDrum": false}, {"time": 12, "velocity": 108, "pitch": 67, "instrument": 0, "track": 1, "qtime": 12, "isDrum": false}, {"time": 24, "velocity": 0, "pitch": 67, "instrument": 0, "track": 1, "qtime": 24, "isDrum": false}, {"time": 24, "velocity": 108, "pitch": 67, "instrument": 0, "track": 1, "qtime": 24, "isDrum": false}, {"time": 36, "velocity": 0, "pitch": 67, "instrument": 0, "track": 1, "qtime": 36, "isDrum": false}, {"time": 36, "velocity": 108, "pitch": 67, "instrument": 0, "track": 1, "qtime": 36, "isDrum": false}, {"time": 48, "velocity": 0, "pitch": 67, "instrument": 0, "track": 1, "qtime": 48, "isDrum": false}, {"time": 48, "velocity": 108, "pitch": 67, "instrument": 0, "track": 1, "qtime": 0, "isDrum": false}, {"time": 60, "velocity": 0, "pitch": 67, "instrument": 0, "track": 1, "qtime": 12, "isDrum": false}, {"time": 60, "velocity": 108, "pitch": 63, "instrument": 0, "track": 1, "qtime": 12, "isDrum": false}, {"time": 72, "velocity": 0, "pitch": 63, "instrument": 0, "track": 1, "qtime": 24, "isDrum": false}, {"time": 72, "velocity": 108, "pitch": 62, "instrument": 0, "track": 1, "qtime": 24, "isDrum": false}, {"time": 84, "velocity": 0, "pitch": 62, "instrument": 0, "track": 1, "qtime": 36, "isDrum": false}, {"time": 84, "velocity": 108, "pitch": 60, "instrument": 0, "track": 1, "qtime": 36, "isDrum": false}, {"time": 96, "velocity": 0, "pitch": 60, "instrument": 0, "track": 1, "qtime": 48, "isDrum": false}, {"time": 96, "velocity": 108, "pitch": 60, "instrument": 0, "track": 1, "qtime": 0, "isDrum": false}, {"time": 108, "velocity": 0, "pitch": 60, "instrument": 0, "track": 1, "qtime": 12, "isDrum": false}, {"time": 108, "velocity": 108, "pitch": 65, "instrument": 0, "track": 1, "qtime": 12, "isDrum": false}, {"time": 114, "velocity": 0, "pitch": 65, "instrument": 0, "track": 1, "qtime": 18, "isDrum": false}, {"time": 114, "velocity": 108, "pitch": 62, "instrument": 0, "track": 1, "qtime": 18, "isDrum": false}, {"time": 117, "velocity": 0, "pitch": 62, "instrument": 0, "track": 1, "qtime": 21, "isDrum": false}, {"time": 117, "velocity": 108, "pitch": 60, "instrument": 0, "track": 1, "qtime": 21, "isDrum": false}, {"time": 120, "velocity": 0, "pitch": 60, "instrument": 0, "track": 1, "qtime": 24, "isDrum": false}, {"time": 120, "velocity": 108, "pitch": 63, "instrument": 0, "track": 1, "qtime": 24, "isDrum": false}, {"time": 132, "velocity": 0, "pitch": 63, "instrument": 0, "track": 1, "qtime": 36, "isDrum": false}, {"time": 132, "velocity": 108, "pitch": 63, "instrument": 0, "track": 1, "qtime": 36, "isDrum": false}, {"time": 138, "velocity": 0, "pitch": 63, "instrument": 0, "track": 1, "qtime": 42, "isDrum": false}, {"time": 138, "velocity": 108, "pitch": 62, "instrument": 0, "track": 1, "qtime": 42, "isDrum": false}, {"time": 144, "velocity": 0, "pitch": 62, "instrument": 0, "track": 1, "qtime": 48, "isDrum": false}, {"time": 144, "velocity": 108, "pitch": 65, "instrument": 0, "track": 1, "qtime": 0, "isDrum": false}, {"time": 150, "velocity": 0, "pitch": 65, "instrument": 0, "track": 1, "qtime": 6, "isDrum": false}, {"time": 150, "velocity": 108, "pitch": 67, "instrument": 0, "track": 1, "qtime": 6, "isDrum": false}, {"time": 156, "velocity": 0, "pitch": 67, "instrument": 0, "track": 1, "qtime": 12, "isDrum": false}, {"time": 156, "velocity": 108, "pitch": 69, "instrument": 0, "track": 1, "qtime": 12, "isDrum": false}, {"time": 162, "velocity": 0, "pitch": 69, "instrument": 0, "track": 1, "qtime": 18, "isDrum": false}, {"time": 162, "velocity": 108, "pitch": 70, "instrument": 0, "track": 1, "qtime": 18, "isDrum": false}, {"time": 174, "velocity": 0, "pitch": 70, "instrument": 0, "track": 1, "qtime": 30, "isDrum": false}, {"time": 174, "velocity": 108, "pitch": 69, "instrument": 0, "track": 1, "qtime": 30, "isDrum": false}, {"time": 180, "velocity": 0, "pitch": 69, "instrument": 0, "track": 1, "qtime": 36, "isDrum": false}, {"time": 180, "velocity": 108, "pitch": 65, "instrument": 0, "track": 1, "qtime": 36, "isDrum": false}, {"time": 192, "velocity": 0, "pitch": 65, "instrument": 0, "track": 1, "qtime": 48, "isDrum": false}, {"time": 0, "velocity": 108, "pitch": 58, "instrument": 0, "track": 2, "qtime": 0, "isDrum": false}, {"time": 6, "velocity": 0, "pitch": 58, "instrument": 0, "track": 2, "qtime": 6, "isDrum": false}, {"time": 6, "velocity": 108, "pitch": 60, "instrument": 0, "track": 2, "qtime": 6, "isDrum": false}, {"time": 12, "velocity": 0, "pitch": 60, "instrument": 0, "track": 2, "qtime": 12, "isDrum": false}, {"time": 12, "velocity": 108, "pitch": 62, "instrument": 0, "track": 2, "qtime": 12, "isDrum": false}, {"time": 24, "velocity": 0, "pitch": 62, "instrument": 0, "track": 2, "qtime": 24, "isDrum": false}, {"time": 24, "velocity": 108, "pitch": 62, "instrument": 0, "track": 2, "qtime": 24, "isDrum": false}, {"time": 36, "velocity": 0, "pitch": 62, "instrument": 0, "track": 2, "qtime": 36, "isDrum": false}, {"time": 36, "velocity": 108, "pitch": 63, "instrument": 0, "track": 2, "qtime": 36, "isDrum": false}, {"time": 48, "velocity": 0, "pitch": 63, "instrument": 0, "track": 2, "qtime": 48, "isDrum": false}, {"time": 48, "velocity": 108, "pitch": 65, "instrument": 0, "track": 2, "qtime": 0, "isDrum": false}, {"time": 60, "velocity": 0, "pitch": 65, "instrument": 0, "track": 2, "qtime": 12, "isDrum": false}, {"time": 60, "velocity": 108, "pitch": 63, "instrument": 0, "track": 2, "qtime": 12, "isDrum": false}, {"time": 66, "velocity": 0, "pitch": 63, "instrument": 0, "track": 2, "qtime": 18, "isDrum": false}, {"time": 66, "velocity": 108, "pitch": 62, "instrument": 0, "track": 2, "qtime": 18, "isDrum": false}, {"time": 78, "velocity": 0, "pitch": 62, "instrument": 0, "track": 2, "qtime": 30, "isDrum": false}, {"time": 78, "velocity": 108, "pitch": 63, "instrument": 0, "track": 2, "qtime": 30, "isDrum": false}, {"time": 81, "velocity": 0, "pitch": 63, "instrument": 0, "track": 2, "qtime": 33, "isDrum": false}, {"time": 81, "velocity": 108, "pitch": 65, "instrument": 0, "track": 2, "qtime": 33, "isDrum": false}, {"time": 84, "velocity": 0, "pitch": 65, "instrument": 0, "track": 2, "qtime": 36, "isDrum": false}, {"time": 84, "velocity": 108, "pitch": 67, "instrument": 0, "track": 2, "qtime": 36, "isDrum": false}, {"time": 90, "velocity": 0, "pitch": 67, "instrument": 0, "track": 2, "qtime": 42, "isDrum": false}, {"time": 90, "velocity": 108, "pitch": 63, "instrument": 0, "track": 2, "qtime": 42, "isDrum": false}, {"time": 96, "velocity": 0, "pitch": 63, "instrument": 0, "track": 2, "qtime": 48, "isDrum": false}, {"time": 96, "velocity": 108, "pitch": 65, "instrument": 0, "track": 2, "qtime": 0, "isDrum": false}, {"time": 102, "velocity": 0, "pitch": 65, "instrument": 0, "track": 2, "qtime": 6, "isDrum": false}, {"time": 102, "velocity": 108, "pitch": 60, "instrument": 0, "track": 2, "qtime": 6, "isDrum": false}, {"time": 108, "velocity": 0, "pitch": 60, "instrument": 0, "track": 2, "qtime": 12, "isDrum": false}, {"time": 108, "velocity": 108, "pitch": 58, "instrument": 0, "track": 2, "qtime": 12, "isDrum": false}, {"time": 114, "velocity": 0, "pitch": 58, "instrument": 0, "track": 2, "qtime": 18, "isDrum": false}, {"time": 114, "velocity": 108, "pitch": 58, "instrument": 0, "track": 2, "qtime": 18, "isDrum": false}, {"time": 120, "velocity": 0, "pitch": 58, "instrument": 0, "track": 2, "qtime": 24, "isDrum": false}, {"time": 120, "velocity": 108, "pitch": 63, "instrument": 0, "track": 2, "qtime": 24, "isDrum": false}, {"time": 126, "velocity": 0, "pitch": 63, "instrument": 0, "track": 2, "qtime": 30, "isDrum": false}, {"time": 126, "velocity": 108, "pitch": 62, "instrument": 0, "track": 2, "qtime": 30, "isDrum": false}, {"time": 129, "velocity": 0, "pitch": 62, "instrument": 0, "track": 2, "qtime": 33, "isDrum": false}, {"time": 129, "velocity": 108, "pitch": 60, "instrument": 0, "track": 2, "qtime": 33, "isDrum": false}, {"time": 132, "velocity": 0, "pitch": 60, "instrument": 0, "track": 2, "qtime": 36, "isDrum": false}, {"time": 132, "velocity": 108, "pitch": 58, "instrument": 0, "track": 2, "qtime": 36, "isDrum": false}, {"time": 141, "velocity": 0, "pitch": 58, "instrument": 0, "track": 2, "qtime": 45, "isDrum": false}, {"time": 141, "velocity": 108, "pitch": 60, "instrument": 0, "track": 2, "qtime": 45, "isDrum": false}, {"time": 144, "velocity": 0, "pitch": 60, "instrument": 0, "track": 2, "qtime": 48, "isDrum": false}, {"time": 144, "velocity": 108, "pitch": 62, "instrument": 0, "track": 2, "qtime": 0, "isDrum": false}, {"time": 150, "velocity": 0, "pitch": 62, "instrument": 0, "track": 2, "qtime": 6, "isDrum": false}, {"time": 150, "velocity": 108, "pitch": 63, "instrument": 0, "track": 2, "qtime": 6, "isDrum": false}, {"time": 156, "velocity": 0, "pitch": 63, "instrument": 0, "track": 2, "qtime": 12, "isDrum": false}, {"time": 156, "velocity": 108, "pitch": 65, "instrument": 0, "track": 2, "qtime": 12, "isDrum": false}, {"time": 162, "velocity": 0, "pitch": 65, "instrument": 0, "track": 2, "qtime": 18, "isDrum": false}, {"time": 162, "velocity": 108, "pitch": 67, "instrument": 0, "track": 2, "qtime": 18, "isDrum": false}, {"time": 168, "velocity": 0, "pitch": 67, "instrument": 0, "track": 2, "qtime": 24, "isDrum": false}, {"time": 168, "velocity": 108, "pitch": 69, "instrument": 0, "track": 2, "qtime": 24, "isDrum": false}, {"time": 180, "velocity": 0, "pitch": 69, "instrument": 0, "track": 2, "qtime": 36, "isDrum": false}, {"time": 180, "velocity": 108, "pitch": 62, "instrument": 0, "track": 2, "qtime": 36, "isDrum": false}, {"time": 186, "velocity": 0, "pitch": 62, "instrument": 0, "track": 2, "qtime": 42, "isDrum": false}, {"time": 186, "velocity": 108, "pitch": 60, "instrument": 0, "track": 2, "qtime": 42, "isDrum": false}, {"time": 192, "velocity": 0, "pitch": 60, "instrument": 0, "track": 2, "qtime": 48, "isDrum": false}, {"time": 0, "velocity": 108, "pitch": 46, "instrument": 0, "track": 3, "qtime": 0, "isDrum": false}, {"time": 6, "velocity": 0, "pitch": 46, "instrument": 0, "track": 3, "qtime": 6, "isDrum": false}, {"time": 6, "velocity": 108, "pitch": 45, "instrument": 0, "track": 3, "qtime": 6, "isDrum": false}, {"time": 12, "velocity": 0, "pitch": 45, "instrument": 0, "track": 3, "qtime": 12, "isDrum": false}, {"time": 12, "velocity": 108, "pitch": 43, "instrument": 0, "track": 3, "qtime": 12, "isDrum": false}, {"time": 24, "velocity": 0, "pitch": 43, "instrument": 0, "track": 3, "qtime": 24, "isDrum": false}, {"time": 24, "velocity": 108, "pitch": 43, "instrument": 0, "track": 3, "qtime": 24, "isDrum": false}, {"time": 36, "velocity": 0, "pitch": 43, "instrument": 0, "track": 3, "qtime": 36, "isDrum": false}, {"time": 36, "velocity": 108, "pitch": 48, "instrument": 0, "track": 3, "qtime": 36, "isDrum": false}, {"time": 48, "velocity": 0, "pitch": 48, "instrument": 0, "track": 3, "qtime": 48, "isDrum": false}, {"time": 48, "velocity": 108, "pitch": 58, "instrument": 0, "track": 3, "qtime": 0, "isDrum": false}, {"time": 54, "velocity": 0, "pitch": 58, "instrument": 0, "track": 3, "qtime": 6, "isDrum": false}, {"time": 54, "velocity": 108, "pitch": 53, "instrument": 0, "track": 3, "qtime": 6, "isDrum": false}, {"time": 60, "velocity": 0, "pitch": 53, "instrument": 0, "track": 3, "qtime": 12, "isDrum": false}, {"time": 60, "velocity": 108, "pitch": 55, "instrument": 0, "track": 3, "qtime": 12, "isDrum": false}, {"time": 66, "velocity": 0, "pitch": 55, "instrument": 0, "track": 3, "qtime": 18, "isDrum": false}, {"time": 66, "velocity": 108, "pitch": 57, "instrument": 0, "track": 3, "qtime": 18, "isDrum": false}, {"time": 72, "velocity": 0, "pitch": 57, "instrument": 0, "track": 3, "qtime": 24, "isDrum": false}, {"time": 72, "velocity": 108, "pitch": 59, "instrument": 0, "track": 3, "qtime": 24, "isDrum": false}, {"time": 84, "velocity": 0, "pitch": 59, "instrument": 0, "track": 3, "qtime": 36, "isDrum": false}, {"time": 84, "velocity": 108, "pitch": 60, "instrument": 0, "track": 3, "qtime": 36, "isDrum": false}, {"time": 90, "velocity": 0, "pitch": 60, "instrument": 0, "track": 3, "qtime": 42, "isDrum": false}, {"time": 90, "velocity": 108, "pitch": 55, "instrument": 0, "track": 3, "qtime": 42, "isDrum": false}, {"time": 96, "velocity": 0, "pitch": 55, "instrument": 0, "track": 3, "qtime": 48, "isDrum": false}, {"time": 96, "velocity": 108, "pitch": 57, "instrument": 0, "track": 3, "qtime": 0, "isDrum": false}, {"time": 102, "velocity": 0, "pitch": 57, "instrument": 0, "track": 3, "qtime": 6, "isDrum": false}, {"time": 102, "velocity": 108, "pitch": 53, "instrument": 0, "track": 3, "qtime": 6, "isDrum": false}, {"time": 105, "velocity": 0, "pitch": 53, "instrument": 0, "track": 3, "qtime": 9, "isDrum": false}, {"time": 105, "velocity": 108, "pitch": 51, "instrument": 0, "track": 3, "qtime": 9, "isDrum": false}, {"time": 108, "velocity": 0, "pitch": 51, "instrument": 0, "track": 3, "qtime": 12, "isDrum": false}, {"time": 108, "velocity": 108, "pitch": 50, "instrument": 0, "track": 3, "qtime": 12, "isDrum": false}, {"time": 120, "velocity": 0, "pitch": 50, "instrument": 0, "track": 3, "qtime": 24, "isDrum": false}, {"time": 120, "velocity": 108, "pitch": 48, "instrument": 0, "track": 3, "qtime": 24, "isDrum": false}, {"time": 132, "velocity": 0, "pitch": 48, "instrument": 0, "track": 3, "qtime": 36, "isDrum": false}, {"time": 132, "velocity": 108, "pitch": 55, "instrument": 0, "track": 3, "qtime": 36, "isDrum": false}, {"time": 138, "velocity": 0, "pitch": 55, "instrument": 0, "track": 3, "qtime": 42, "isDrum": false}, {"time": 138, "velocity": 108, "pitch": 53, "instrument": 0, "track": 3, "qtime": 42, "isDrum": false}, {"time": 144, "velocity": 0, "pitch": 53, "instrument": 0, "track": 3, "qtime": 48, "isDrum": false}, {"time": 144, "velocity": 108, "pitch": 46, "instrument": 0, "track": 3, "qtime": 0, "isDrum": false}, {"time": 150, "velocity": 0, "pitch": 46, "instrument": 0, "track": 3, "qtime": 6, "isDrum": false}, {"time": 150, "velocity": 108, "pitch": 51, "instrument": 0, "track": 3, "qtime": 6, "isDrum": false}, {"time": 156, "velocity": 0, "pitch": 51, "instrument": 0, "track": 3, "qtime": 12, "isDrum": false}, {"time": 156, "velocity": 108, "pitch": 53, "instrument": 0, "track": 3, "qtime": 12, "isDrum": false}, {"time": 174, "velocity": 0, "pitch": 53, "instrument": 0, "track": 3, "qtime": 30, "isDrum": false}, {"time": 174, "velocity": 108, "pitch": 51, "instrument": 0, "track": 3, "qtime": 30, "isDrum": false}, {"time": 180, "velocity": 0, "pitch": 51, "instrument": 0, "track": 3, "qtime": 36, "isDrum": false}, {"time": 180, "velocity": 108, "pitch": 50, "instrument": 0, "track": 3, "qtime": 36, "isDrum": false}, {"time": 192, "velocity": 0, "pitch": 50, "instrument": 0, "track": 3, "qtime": 48, "isDrum": false}], "resolution": 12, "tempo": 120, "minPitch": 43, "maxPitch": 77, "validSegments": [0], "validTracks": [15]}, "audio": "https://www.sfu.ca/~jeffe/examples/bach_14_5_random_bar.mp3"}, {"src": "gen/bach_14_5_reduce_tenor_density.json", "highlights": [[], [], [0, 1, 2, 3], []], "caption": "Reduce density of the tenor part in 24d.", "sample_id": "24e", "mixer": [8, 8, 8, 8], "json": {"tracks": [{"bars": [{"events": [0, 1, 2, 3, 4, 5, 6, 7, 8, 9], "isFourFour": true, "hasNotes": true, "time": 0}, {"events": [10, 11, 12, 13, 14, 15, 16, 17], "isFourFour": true, "hasNotes": true, "time": 48}, {"events": [18, 19, 20, 21, 22, 23, 24, 25, 26, 27], "isFourFour": true, "hasNotes": true, "time": 96}, {"events": [28, 29, 30, 31, 32, 33, 34, 35, 36, 37], "isFourFour": true, "hasNotes": true, "time": 144}], "isDrum": false, "minPitch": 67, "maxPitch": 77, "instrument": 0, "avPolyphony": 1, "noteDensity": 6, "noteDensityV2": 3}, {"bars": [{"events": [38, 39, 40, 41, 42, 43, 44, 45], "isFourFour": true, "hasNotes": true, "time": 0}, {"events": [46, 47, 48, 49, 50, 51, 52, 53], "isFourFour": true, "hasNotes": true, "time": 48}, {"events": [54, 55, 56, 57, 58, 59, 60, 61, 62, 63, 64, 65, 66, 67], "isFourFour": true, "hasNotes": true, "time": 96}, {"events": [68, 69, 70, 71, 72, 73, 74, 75, 76, 77, 78, 79], "isFourFour": true, "hasNotes": true, "time": 144}], "isDrum": false, "minPitch": 60, "maxPitch": 70, "instrument": 0, "avPolyphony": 1, "noteDensity": 6, "noteDensityV2": 3}, {"bars": [{"events": [128, 129, 130, 131, 132, 133, 134, 135], "isFourFour": true, "hasNotes": true, "time": 0}, {"events": [136, 137, 138, 139, 140, 141, 142, 143, 144, 145], "isFourFour": true, "hasNotes": true, "time": 48}, {"events": [146, 147, 148, 149, 150, 151, 152, 153], "isFourFour": true, "hasNotes": true, "time": 96}, {"events": [154, 155, 156, 157, 158, 159, 160, 161, 162, 163, 164, 165], "isFourFour": true, "hasNotes": true, "time": 144}], "isDrum": false, "minPitch": 62, "maxPitch": 70, "instrument": 0, "avPolyphony": 1, "noteDensity": 6, "noteDensityV2": 3}, {"bars": [{"events": [80, 81, 82, 83, 84, 85, 86, 87, 88, 89], "isFourFour": true, "hasNotes": true, "time": 0}, {"events": [90, 91, 92, 93, 94, 95, 96, 97, 98, 99, 100, 101, 102, 103], "isFourFour": true, "hasNotes": true, "time": 48}, {"events": [104, 105, 106, 107, 108, 109, 110, 111, 112, 113, 114, 115, 116, 117], "isFourFour": true, "hasNotes": true, "time": 96}, {"events": [118, 119, 120, 121, 122, 123, 124, 125, 126, 127], "isFourFour": true, "hasNotes": true, "time": 144}], "isDrum": false, "minPitch": 43, "maxPitch": 60, "instrument": 0, "avPolyphony": 1, "noteDensity": 7, "noteDensityV2": 4}], "events": [{"time": 0, "velocity": 108, "pitch": 77, "instrument": 0, "track": 0, "qtime": 0, "isDrum": false}, {"time": 12, "velocity": 0, "pitch": 77, "instrument": 0, "track": 0, "qtime": 12, "isDrum": false}, {"time": 12, "velocity": 108, "pitch": 75, "instrument": 0, "track": 0, "qtime": 12, "isDrum": false}, {"time": 18, "velocity": 0, "pitch": 75, "instrument": 0, "track": 0, "qtime": 18, "isDrum": false}, {"time": 18, "velocity": 108, "pitch": 74, "instrument": 0, "track": 0, "qtime": 18, "isDrum": false}, {"time": 24, "velocity": 0, "pitch": 74, "instrument": 0, "track": 0, "qtime": 24, "isDrum": false}, {"time": 24, "velocity": 108, "pitch": 74, "instrument": 0, "track": 0, "qtime": 24, "isDrum": false}, {"time": 36, "velocity": 0, "pitch": 74, "instrument": 0, "track": 0, "qtime": 36, "isDrum": false}, {"time": 36, "velocity": 108, "pitch": 72, "instrument": 0, "track": 0, "qtime": 36, "isDrum": false}, {"time": 48, "velocity": 0, "pitch": 72, "instrument": 0, "track": 0, "qtime": 48, "isDrum": false}, {"time": 48, "velocity": 108, "pitch": 74, "instrument": 0, "track": 0, "qtime": 0, "isDrum": false}, {"time": 60, "velocity": 0, "pitch": 74, "instrument": 0, "track": 0, "qtime": 12, "isDrum": false}, {"time": 60, "velocity": 108, "pitch": 72, "instrument": 0, "track": 0, "qtime": 12, "isDrum": false}, {"time": 72, "velocity": 0, "pitch": 72, "instrument": 0, "track": 0, "qtime": 24, "isDrum": false}, {"time": 72, "velocity": 108, "pitch": 71, "instrument": 0, "track": 0, "qtime": 24, "isDrum": false}, {"time": 84, "velocity": 0, "pitch": 71, "instrument": 0, "track": 0, "qtime": 36, "isDrum": false}, {"time": 84, "velocity": 108, "pitch": 72, "instrument": 0, "track": 0, "qtime": 36, "isDrum": false}, {"time": 96, "velocity": 0, "pitch": 72, "instrument": 0, "track": 0, "qtime": 48, "isDrum": false}, {"time": 96, "velocity": 108, "pitch": 72, "instrument": 0, "track": 0, "qtime": 0, "isDrum": false}, {"time": 114, "velocity": 0, "pitch": 72, "instrument": 0, "track": 0, "qtime": 18, "isDrum": false}, {"time": 114, "velocity": 108, "pitch": 70, "instrument": 0, "track": 0, "qtime": 18, "isDrum": false}, {"time": 117, "velocity": 0, "pitch": 70, "instrument": 0, "track": 0, "qtime": 21, "isDrum": false}, {"time": 117, "velocity": 108, "pitch": 69, "instrument": 0, "track": 0, "qtime": 21, "isDrum": false}, {"time": 120, "velocity": 0, "pitch": 69, "instrument": 0, "track": 0, "qtime": 24, "isDrum": false}, {"time": 120, "velocity": 108, "pitch": 67, "instrument": 0, "track": 0, "qtime": 24, "isDrum": false}, {"time": 132, "velocity": 0, "pitch": 67, "instrument": 0, "track": 0, "qtime": 36, "isDrum": false}, {"time": 132, "velocity": 108, "pitch": 67, "instrument": 0, "track": 0, "qtime": 36, "isDrum": false}, {"time": 144, "velocity": 0, "pitch": 67, "instrument": 0, "track": 0, "qtime": 48, "isDrum": false}, {"time": 144, "velocity": 108, "pitch": 74, "instrument": 0, "track": 0, "qtime": 0, "isDrum": false}, {"time": 156, "velocity": 0, "pitch": 74, "instrument": 0, "track": 0, "qtime": 12, "isDrum": false}, {"time": 156, "velocity": 108, "pitch": 72, "instrument": 0, "track": 0, "qtime": 12, "isDrum": false}, {"time": 162, "velocity": 0, "pitch": 72, "instrument": 0, "track": 0, "qtime": 18, "isDrum": false}, {"time": 162, "velocity": 108, "pitch": 70, "instrument": 0, "track": 0, "qtime": 18, "isDrum": false}, {"time": 168, "velocity": 0, "pitch": 70, "instrument": 0, "track": 0, "qtime": 24, "isDrum": false}, {"time": 168, "velocity": 108, "pitch": 72, "instrument": 0, "track": 0, "qtime": 24, "isDrum": false}, {"time": 180, "velocity": 0, "pitch": 72, "instrument": 0, "track": 0, "qtime": 36, "isDrum": false}, {"time": 180, "velocity": 108, "pitch": 70, "instrument": 0, "track": 0, "qtime": 36, "isDrum": false}, {"time": 192, "velocity": 0, "pitch": 70, "instrument": 0, "track": 0, "qtime": 48, "isDrum": false}, {"time": 0, "velocity": 108, "pitch": 62, "instrument": 0, "track": 1, "qtime": 0, "isDrum": false}, {"time": 12, "velocity": 0, "pitch": 62, "instrument": 0, "track": 1, "qtime": 12, "isDrum": false}, {"time": 12, "velocity": 108, "pitch": 67, "instrument": 0, "track": 1, "qtime": 12, "isDrum": false}, {"time": 24, "velocity": 0, "pitch": 67, "instrument": 0, "track": 1, "qtime": 24, "isDrum": false}, {"time": 24, "velocity": 108, "pitch": 67, "instrument": 0, "track": 1, "qtime": 24, "isDrum": false}, {"time": 36, "velocity": 0, "pitch": 67, "instrument": 0, "track": 1, "qtime": 36, "isDrum": false}, {"time": 36, "velocity": 108, "pitch": 67, "instrument": 0, "track": 1, "qtime": 36, "isDrum": false}, {"time": 48, "velocity": 0, "pitch": 67, "instrument": 0, "track": 1, "qtime": 48, "isDrum": false}, {"time": 48, "velocity": 108, "pitch": 67, "instrument": 0, "track": 1, "qtime": 0, "isDrum": false}, {"time": 60, "velocity": 0, "pitch": 67, "instrument": 0, "track": 1, "qtime": 12, "isDrum": false}, {"time": 60, "velocity": 108, "pitch": 63, "instrument": 0, "track": 1, "qtime": 12, "isDrum": false}, {"time": 72, "velocity": 0, "pitch": 63, "instrument": 0, "track": 1, "qtime": 24, "isDrum": false}, {"time": 72, "velocity": 108, "pitch": 62, "instrument": 0, "track": 1, "qtime": 24, "isDrum": false}, {"time": 84, "velocity": 0, "pitch": 62, "instrument": 0, "track": 1, "qtime": 36, "isDrum": false}, {"time": 84, "velocity": 108, "pitch": 60, "instrument": 0, "track": 1, "qtime": 36, "isDrum": false}, {"time": 96, "velocity": 0, "pitch": 60, "instrument": 0, "track": 1, "qtime": 48, "isDrum": false}, {"time": 96, "velocity": 108, "pitch": 60, "instrument": 0, "track": 1, "qtime": 0, "isDrum": false}, {"time": 108, "velocity": 0, "pitch": 60, "instrument": 0, "track": 1, "qtime": 12, "isDrum": false}, {"time": 108, "velocity": 108, "pitch": 65, "instrument": 0, "track": 1, "qtime": 12, "isDrum": false}, {"time": 114, "velocity": 0, "pitch": 65, "instrument": 0, "track": 1, "qtime": 18, "isDrum": false}, {"time": 114, "velocity": 108, "pitch": 62, "instrument": 0, "track": 1, "qtime": 18, "isDrum": false}, {"time": 117, "velocity": 0, "pitch": 62, "instrument": 0, "track": 1, "qtime": 21, "isDrum": false}, {"time": 117, "velocity": 108, "pitch": 60, "instrument": 0, "track": 1, "qtime": 21, "isDrum": false}, {"time": 120, "velocity": 0, "pitch": 60, "instrument": 0, "track": 1, "qtime": 24, "isDrum": false}, {"time": 120, "velocity": 108, "pitch": 63, "instrument": 0, "track": 1, "qtime": 24, "isDrum": false}, {"time": 132, "velocity": 0, "pitch": 63, "instrument": 0, "track": 1, "qtime": 36, "isDrum": false}, {"time": 132, "velocity": 108, "pitch": 63, "instrument": 0, "track": 1, "qtime": 36, "isDrum": false}, {"time": 138, "velocity": 0, "pitch": 63, "instrument": 0, "track": 1, "qtime": 42, "isDrum": false}, {"time": 138, "velocity": 108, "pitch": 62, "instrument": 0, "track": 1, "qtime": 42, "isDrum": false}, {"time": 144, "velocity": 0, "pitch": 62, "instrument": 0, "track": 1, "qtime": 48, "isDrum": false}, {"time": 144, "velocity": 108, "pitch": 65, "instrument": 0, "track": 1, "qtime": 0, "isDrum": false}, {"time": 150, "velocity": 0, "pitch": 65, "instrument": 0, "track": 1, "qtime": 6, "isDrum": false}, {"time": 150, "velocity": 108, "pitch": 67, "instrument": 0, "track": 1, "qtime": 6, "isDrum": false}, {"time": 156, "velocity": 0, "pitch": 67, "instrument": 0, "track": 1, "qtime": 12, "isDrum": false}, {"time": 156, "velocity": 108, "pitch": 69, "instrument": 0, "track": 1, "qtime": 12, "isDrum": false}, {"time": 162, "velocity": 0, "pitch": 69, "instrument": 0, "track": 1, "qtime": 18, "isDrum": false}, {"time": 162, "velocity": 108, "pitch": 70, "instrument": 0, "track": 1, "qtime": 18, "isDrum": false}, {"time": 174, "velocity": 0, "pitch": 70, "instrument": 0, "track": 1, "qtime": 30, "isDrum": false}, {"time": 174, "velocity": 108, "pitch": 69, "instrument": 0, "track": 1, "qtime": 30, "isDrum": false}, {"time": 180, "velocity": 0, "pitch": 69, "instrument": 0, "track": 1, "qtime": 36, "isDrum": false}, {"time": 180, "velocity": 108, "pitch": 65, "instrument": 0, "track": 1, "qtime": 36, "isDrum": false}, {"time": 192, "velocity": 0, "pitch": 65, "instrument": 0, "track": 1, "qtime": 48, "isDrum": false}, {"time": 0, "velocity": 108, "pitch": 46, "instrument": 0, "track": 2, "qtime": 0, "isDrum": false}, {"time": 6, "velocity": 0, "pitch": 46, "instrument": 0, "track": 2, "qtime": 6, "isDrum": false}, {"time": 6, "velocity": 108, "pitch": 45, "instrument": 0, "track": 2, "qtime": 6, "isDrum": false}, {"time": 12, "velocity": 0, "pitch": 45, "instrument": 0, "track": 2, "qtime": 12, "isDrum": false}, {"time": 12, "velocity": 108, "pitch": 43, "instrument": 0, "track": 2, "qtime": 12, "isDrum": false}, {"time": 24, "velocity": 0, "pitch": 43, "instrument": 0, "track": 2, "qtime": 24, "isDrum": false}, {"time": 24, "velocity": 108, "pitch": 43, "instrument": 0, "track": 2, "qtime": 24, "isDrum": false}, {"time": 36, "velocity": 0, "pitch": 43, "instrument": 0, "track": 2, "qtime": 36, "isDrum": false}, {"time": 36, "velocity": 108, "pitch": 48, "instrument": 0, "track": 2, "qtime": 36, "isDrum": false}, {"time": 48, "velocity": 0, "pitch": 48, "instrument": 0, "track": 2, "qtime": 48, "isDrum": false}, {"time": 48, "velocity": 108, "pitch": 58, "instrument": 0, "track": 2, "qtime": 0, "isDrum": false}, {"time": 54, "velocity": 0, "pitch": 58, "instrument": 0, "track": 2, "qtime": 6, "isDrum": false}, {"time": 54, "velocity": 108, "pitch": 53, "instrument": 0, "track": 2, "qtime": 6, "isDrum": false}, {"time": 60, "velocity": 0, "pitch": 53, "instrument": 0, "track": 2, "qtime": 12, "isDrum": false}, {"time": 60, "velocity": 108, "pitch": 55, "instrument": 0, "track": 2, "qtime": 12, "isDrum": false}, {"time": 66, "velocity": 0, "pitch": 55, "instrument": 0, "track": 2, "qtime": 18, "isDrum": false}, {"time": 66, "velocity": 108, "pitch": 57, "instrument": 0, "track": 2, "qtime": 18, "isDrum": false}, {"time": 72, "velocity": 0, "pitch": 57, "instrument": 0, "track": 2, "qtime": 24, "isDrum": false}, {"time": 72, "velocity": 108, "pitch": 59, "instrument": 0, "track": 2, "qtime": 24, "isDrum": false}, {"time": 84, "velocity": 0, "pitch": 59, "instrument": 0, "track": 2, "qtime": 36, "isDrum": false}, {"time": 84, "velocity": 108, "pitch": 60, "instrument": 0, "track": 2, "qtime": 36, "isDrum": false}, {"time": 90, "velocity": 0, "pitch": 60, "instrument": 0, "track": 2, "qtime": 42, "isDrum": false}, {"time": 90, "velocity": 108, "pitch": 55, "instrument": 0, "track": 2, "qtime": 42, "isDrum": false}, {"time": 96, "velocity": 0, "pitch": 55, "instrument": 0, "track": 2, "qtime": 48, "isDrum": false}, {"time": 96, "velocity": 108, "pitch": 57, "instrument": 0, "track": 2, "qtime": 0, "isDrum": false}, {"time": 102, "velocity": 0, "pitch": 57, "instrument": 0, "track": 2, "qtime": 6, "isDrum": false}, {"time": 102, "velocity": 108, "pitch": 53, "instrument": 0, "track": 2, "qtime": 6, "isDrum": false}, {"time": 105, "velocity": 0, "pitch": 53, "instrument": 0, "track": 2, "qtime": 9, "isDrum": false}, {"time": 105, "velocity": 108, "pitch": 51, "instrument": 0, "track": 2, "qtime": 9, "isDrum": false}, {"time": 108, "velocity": 0, "pitch": 51, "instrument": 0, "track": 2, "qtime": 12, "isDrum": false}, {"time": 108, "velocity": 108, "pitch": 50, "instrument": 0, "track": 2, "qtime": 12, "isDrum": false}, {"time": 120, "velocity": 0, "pitch": 50, "instrument": 0, "track": 2, "qtime": 24, "isDrum": false}, {"time": 120, "velocity": 108, "pitch": 48, "instrument": 0, "track": 2, "qtime": 24, "isDrum": false}, {"time": 132, "velocity": 0, "pitch": 48, "instrument": 0, "track": 2, "qtime": 36, "isDrum": false}, {"time": 132, "velocity": 108, "pitch": 55, "instrument": 0, "track": 2, "qtime": 36, "isDrum": false}, {"time": 138, "velocity": 0, "pitch": 55, "instrument": 0, "track": 2, "qtime": 42, "isDrum": false}, {"time": 138, "velocity": 108, "pitch": 53, "instrument": 0, "track": 2, "qtime": 42, "isDrum": false}, {"time": 144, "velocity": 0, "pitch": 53, "instrument": 0, "track": 2, "qtime": 48, "isDrum": false}, {"time": 144, "velocity": 108, "pitch": 46, "instrument": 0, "track": 2, "qtime": 0, "isDrum": false}, {"time": 150, "velocity": 0, "pitch": 46, "instrument": 0, "track": 2, "qtime": 6, "isDrum": false}, {"time": 150, "velocity": 108, "pitch": 51, "instrument": 0, "track": 2, "qtime": 6, "isDrum": false}, {"time": 156, "velocity": 0, "pitch": 51, "instrument": 0, "track": 2, "qtime": 12, "isDrum": false}, {"time": 156, "velocity": 108, "pitch": 53, "instrument": 0, "track": 2, "qtime": 12, "isDrum": false}, {"time": 174, "velocity": 0, "pitch": 53, "instrument": 0, "track": 2, "qtime": 30, "isDrum": false}, {"time": 174, "velocity": 108, "pitch": 51, "instrument": 0, "track": 2, "qtime": 30, "isDrum": false}, {"time": 180, "velocity": 0, "pitch": 51, "instrument": 0, "track": 2, "qtime": 36, "isDrum": false}, {"time": 180, "velocity": 108, "pitch": 50, "instrument": 0, "track": 2, "qtime": 36, "isDrum": false}, {"time": 192, "velocity": 0, "pitch": 50, "instrument": 0, "track": 2, "qtime": 48, "isDrum": false}, {"time": 0, "velocity": 108, "pitch": 65, "instrument": 0, "track": 3, "qtime": 0, "isDrum": false}, {"time": 12, "velocity": 0, "pitch": 65, "instrument": 0, "track": 3, "qtime": 12, "isDrum": false}, {"time": 12, "velocity": 108, "pitch": 67, "instrument": 0, "track": 3, "qtime": 12, "isDrum": false}, {"time": 24, "velocity": 0, "pitch": 67, "instrument": 0, "track": 3, "qtime": 24, "isDrum": false}, {"time": 24, "velocity": 108, "pitch": 62, "instrument": 0, "track": 3, "qtime": 24, "isDrum": false}, {"time": 36, "velocity": 0, "pitch": 62, "instrument": 0, "track": 3, "qtime": 36, "isDrum": false}, {"time": 36, "velocity": 108, "pitch": 63, "instrument": 0, "track": 3, "qtime": 36, "isDrum": false}, {"time": 48, "velocity": 0, "pitch": 63, "instrument": 0, "track": 3, "qtime": 48, "isDrum": false}, {"time": 48, "velocity": 108, "pitch": 65, "instrument": 0, "track": 3, "qtime": 0, "isDrum": false}, {"time": 60, "velocity": 0, "pitch": 65, "instrument": 0, "track": 3, "qtime": 12, "isDrum": false}, {"time": 60, "velocity": 108, "pitch": 67, "instrument": 0, "track": 3, "qtime": 12, "isDrum": false}, {"time": 72, "velocity": 0, "pitch": 67, "instrument": 0, "track": 3, "qtime": 24, "isDrum": false}, {"time": 72, "velocity": 108, "pitch": 67, "instrument": 0, "track": 3, "qtime": 24, "isDrum": false}, {"time": 84, "velocity": 0, "pitch": 67, "instrument": 0, "track": 3, "qtime": 36, "isDrum": false}, {"time": 84, "velocity": 108, "pitch": 67, "instrument": 0, "track": 3, "qtime": 36, "isDrum": false}, {"time": 90, "velocity": 0, "pitch": 67, "instrument": 0, "track": 3, "qtime": 42, "isDrum": false}, {"time": 90, "velocity": 108, "pitch": 65, "instrument": 0, "track": 3, "qtime": 42, "isDrum": false}, {"time": 96, "velocity": 0, "pitch": 65, "instrument": 0, "track": 3, "qtime": 48, "isDrum": false}, {"time": 96, "velocity": 108, "pitch": 63, "instrument": 0, "track": 3, "qtime": 0, "isDrum": false}, {"time": 108, "velocity": 0, "pitch": 63, "instrument": 0, "track": 3, "qtime": 12, "isDrum": false}, {"time": 108, "velocity": 108, "pitch": 62, "instrument": 0, "track": 3, "qtime": 12, "isDrum": false}, {"time": 120, "velocity": 0, "pitch": 62, "instrument": 0, "track": 3, "qtime": 24, "isDrum": false}, {"time": 120, "velocity": 108, "pitch": 67, "instrument": 0, "track": 3, "qtime": 24, "isDrum": false}, {"time": 132, "velocity": 0, "pitch": 67, "instrument": 0, "track": 3, "qtime": 36, "isDrum": false}, {"time": 132, "velocity": 108, "pitch": 67, "instrument": 0, "track": 3, "qtime": 36, "isDrum": false}, {"time": 144, "velocity": 0, "pitch": 67, "instrument": 0, "track": 3, "qtime": 48, "isDrum": false}, {"time": 144, "velocity": 108, "pitch": 67, "instrument": 0, "track": 3, "qtime": 0, "isDrum": false}, {"time": 150, "velocity": 0, "pitch": 67, "instrument": 0, "track": 3, "qtime": 6, "isDrum": false}, {"time": 150, "velocity": 108, "pitch": 69, "instrument": 0, "track": 3, "qtime": 6, "isDrum": false}, {"time": 153, "velocity": 0, "pitch": 69, "instrument": 0, "track": 3, "qtime": 9, "isDrum": false}, {"time": 153, "velocity": 108, "pitch": 70, "instrument": 0, "track": 3, "qtime": 9, "isDrum": false}, {"time": 156, "velocity": 0, "pitch": 70, "instrument": 0, "track": 3, "qtime": 12, "isDrum": false}, {"time": 156, "velocity": 108, "pitch": 65, "instrument": 0, "track": 3, "qtime": 12, "isDrum": false}, {"time": 168, "velocity": 0, "pitch": 65, "instrument": 0, "track": 3, "qtime": 24, "isDrum": false}, {"time": 168, "velocity": 108, "pitch": 65, "instrument": 0, "track": 3, "qtime": 24, "isDrum": false}, {"time": 180, "velocity": 0, "pitch": 65, "instrument": 0, "track": 3, "qtime": 36, "isDrum": false}, {"time": 180, "velocity": 108, "pitch": 65, "instrument": 0, "track": 3, "qtime": 36, "isDrum": false}, {"time": 192, "velocity": 0, "pitch": 65, "instrument": 0, "track": 3, "qtime": 48, "isDrum": false}], "resolution": 12, "tempo": 120, "minPitch": 43, "maxPitch": 77, "validSegments": [0], "validTracks": [15]}, "audio": "https://www.sfu.ca/~jeffe/examples/bach_14_5_reduce_tenor_density.mp3"}, {"src": "gen/bach_14_5_7_track.json", "highlights": [[], [], [], [], [0, 1, 2, 3], [0, 1, 2, 3], [0, 1, 2, 3]], "caption": "Now we break the rules and add three more parts to 24e!", "sample_id": "24f", "mixer": [8, 8, 8, 8, 8, 8, 8], "json": {"tracks": [{"bars": [{"events": [0, 1, 2, 3, 4, 5, 6, 7, 8, 9], "isFourFour": true, "hasNotes": true, "time": 0}, {"events": [10, 11, 12, 13, 14, 15, 16, 17], "isFourFour": true, "hasNotes": true, "time": 48}, {"events": [18, 19, 20, 21, 22, 23, 24, 25, 26, 27], "isFourFour": true, "hasNotes": true, "time": 96}, {"events": [28, 29, 30, 31, 32, 33, 34, 35, 36, 37], "isFourFour": true, "hasNotes": true, "time": 144}], "isDrum": false, "minPitch": 67, "maxPitch": 77, "instrument": 0, "avPolyphony": 1, "noteDensity": 6, "noteDensityV2": 3}, {"bars": [{"events": [38, 39, 40, 41, 42, 43, 44, 45], "isFourFour": true, "hasNotes": true, "time": 0}, {"events": [46, 47, 48, 49, 50, 51, 52, 53], "isFourFour": true, "hasNotes": true, "time": 48}, {"events": [54, 55, 56, 57, 58, 59, 60, 61, 62, 63, 64, 65, 66, 67], "isFourFour": true, "hasNotes": true, "time": 96}, {"events": [68, 69, 70, 71, 72, 73, 74, 75, 76, 77, 78, 79], "isFourFour": true, "hasNotes": true, "time": 144}], "isDrum": false, "minPitch": 60, "maxPitch": 70, "instrument": 0, "avPolyphony": 1, "noteDensity": 6, "noteDensityV2": 3}, {"bars": [{"events": [80, 81, 82, 83, 84, 85, 86, 87], "isFourFour": true, "hasNotes": true, "time": 0}, {"events": [88, 89, 90, 91, 92, 93, 94, 95, 96, 97], "isFourFour": true, "hasNotes": true, "time": 48}, {"events": [98, 99, 100, 101, 102, 103, 104, 105], "isFourFour": true, "hasNotes": true, "time": 96}, {"events": [106, 107, 108, 109, 110, 111, 112, 113, 114, 115, 116, 117], "isFourFour": true, "hasNotes": true, "time": 144}], "isDrum": false, "minPitch": 62, "maxPitch": 70, "instrument": 0, "avPolyphony": 1, "noteDensity": 6, "noteDensityV2": 3}, {"bars": [{"events": [118, 119, 120, 121, 122, 123, 124, 125, 126, 127], "isFourFour": true, "hasNotes": true, "time": 0}, {"events": [128, 129, 130, 131, 132, 133, 134, 135, 136, 137, 138, 139, 140, 141], "isFourFour": true, "hasNotes": true, "time": 48}, {"events": [142, 143, 144, 145, 146, 147, 148, 149, 150, 151, 152, 153, 154, 155], "isFourFour": true, "hasNotes": true, "time": 96}, {"events": [156, 157, 158, 159, 160, 161, 162, 163, 164, 165], "isFourFour": true, "hasNotes": true, "time": 144}], "isDrum": false, "minPitch": 43, "maxPitch": 60, "instrument": 0, "avPolyphony": 1, "noteDensity": 7, "noteDensityV2": 4}, {"bars": [{"events": [166, 167, 168, 169, 170, 171, 172, 173, 174, 175, 176, 177, 178, 179], "isFourFour": true, "hasNotes": true, "time": 0}, {"events": [180, 181, 182, 183, 184, 185, 186, 187, 188, 189, 190, 191, 192, 193], "isFourFour": true, "hasNotes": true, "time": 48}, {"events": [194, 195, 196, 197, 198, 199, 200, 201, 202, 203, 204, 205], "isFourFour": true, "hasNotes": true, "time": 96}, {"events": [206, 207, 208, 209, 210, 211, 212, 213, 214, 215, 216, 217], "isFourFour": true, "hasNotes": true, "time": 144}], "isDrum": false, "minPitch": 38, "maxPitch": 53, "instrument": 0, "avPolyphony": 1, "noteDensity": 7, "noteDensityV2": 5}, {"bars": [{"events": [218, 219, 220, 221, 222, 223, 224, 225, 226, 227, 228, 229], "isFourFour": true, "hasNotes": true, "time": 0}, {"events": [230, 231, 232, 233, 234, 235, 236, 237, 238, 239, 240, 241, 242, 243], "isFourFour": true, "hasNotes": true, "time": 48}, {"events": [244, 245, 246, 247, 248, 249, 250, 251, 252, 253, 254, 255], "isFourFour": true, "hasNotes": true, "time": 96}, {"events": [256, 257, 258, 259, 260, 261, 262, 263, 264, 265, 266, 267, 268, 269], "isFourFour": true, "hasNotes": true, "time": 144}], "isDrum": false, "minPitch": 41, "maxPitch": 60, "instrument": 0, "avPolyphony": 1, "noteDensity": 7, "noteDensityV2": 5}, {"bars": [{"events": [270, 271, 272, 273, 274, 275, 276, 277, 278, 279, 280, 281, 282, 283], "isFourFour": true, "hasNotes": true, "time": 0}, {"events": [284, 285, 286, 287, 288, 289, 290, 291, 292, 293, 294, 295, 296, 297, 298, 299], "isFourFour": true, "hasNotes": true, "time": 48}, {"events": [300, 301, 302, 303, 304, 305, 306, 307], "isFourFour": true, "hasNotes": true, "time": 96}, {"events": [308, 309, 310, 311, 312, 313, 314, 315, 316, 317], "isFourFour": true, "hasNotes": true, "time": 144}], "isDrum": false, "minPitch": 49, "maxPitch": 63, "instrument": 0, "avPolyphony": 1, "noteDensity": 7, "noteDensityV2": 4}], "events": [{"time": 0, "velocity": 108, "pitch": 77, "instrument": 0, "track": 0, "qtime": 0, "isDrum": false}, {"time": 12, "velocity": 0, "pitch": 77, "instrument": 0, "track": 0, "qtime": 12, "isDrum": false}, {"time": 12, "velocity": 108, "pitch": 75, "instrument": 0, "track": 0, "qtime": 12, "isDrum": false}, {"time": 18, "velocity": 0, "pitch": 75, "instrument": 0, "track": 0, "qtime": 18, "isDrum": false}, {"time": 18, "velocity": 108, "pitch": 74, "instrument": 0, "track": 0, "qtime": 18, "isDrum": false}, {"time": 24, "velocity": 0, "pitch": 74, "instrument": 0, "track": 0, "qtime": 24, "isDrum": false}, {"time": 24, "velocity": 108, "pitch": 74, "instrument": 0, "track": 0, "qtime": 24, "isDrum": false}, {"time": 36, "velocity": 0, "pitch": 74, "instrument": 0, "track": 0, "qtime": 36, "isDrum": false}, {"time": 36, "velocity": 108, "pitch": 72, "instrument": 0, "track": 0, "qtime": 36, "isDrum": false}, {"time": 48, "velocity": 0, "pitch": 72, "instrument": 0, "track": 0, "qtime": 48, "isDrum": false}, {"time": 48, "velocity": 108, "pitch": 74, "instrument": 0, "track": 0, "qtime": 0, "isDrum": false}, {"time": 60, "velocity": 0, "pitch": 74, "instrument": 0, "track": 0, "qtime": 12, "isDrum": false}, {"time": 60, "velocity": 108, "pitch": 72, "instrument": 0, "track": 0, "qtime": 12, "isDrum": false}, {"time": 72, "velocity": 0, "pitch": 72, "instrument": 0, "track": 0, "qtime": 24, "isDrum": false}, {"time": 72, "velocity": 108, "pitch": 71, "instrument": 0, "track": 0, "qtime": 24, "isDrum": false}, {"time": 84, "velocity": 0, "pitch": 71, "instrument": 0, "track": 0, "qtime": 36, "isDrum": false}, {"time": 84, "velocity": 108, "pitch": 72, "instrument": 0, "track": 0, "qtime": 36, "isDrum": false}, {"time": 96, "velocity": 0, "pitch": 72, "instrument": 0, "track": 0, "qtime": 48, "isDrum": false}, {"time": 96, "velocity": 108, "pitch": 72, "instrument": 0, "track": 0, "qtime": 0, "isDrum": false}, {"time": 114, "velocity": 0, "pitch": 72, "instrument": 0, "track": 0, "qtime": 18, "isDrum": false}, {"time": 114, "velocity": 108, "pitch": 70, "instrument": 0, "track": 0, "qtime": 18, "isDrum": false}, {"time": 117, "velocity": 0, "pitch": 70, "instrument": 0, "track": 0, "qtime": 21, "isDrum": false}, {"time": 117, "velocity": 108, "pitch": 69, "instrument": 0, "track": 0, "qtime": 21, "isDrum": false}, {"time": 120, "velocity": 0, "pitch": 69, "instrument": 0, "track": 0, "qtime": 24, "isDrum": false}, {"time": 120, "velocity": 108, "pitch": 67, "instrument": 0, "track": 0, "qtime": 24, "isDrum": false}, {"time": 132, "velocity": 0, "pitch": 67, "instrument": 0, "track": 0, "qtime": 36, "isDrum": false}, {"time": 132, "velocity": 108, "pitch": 67, "instrument": 0, "track": 0, "qtime": 36, "isDrum": false}, {"time": 144, "velocity": 0, "pitch": 67, "instrument": 0, "track": 0, "qtime": 48, "isDrum": false}, {"time": 144, "velocity": 108, "pitch": 74, "instrument": 0, "track": 0, "qtime": 0, "isDrum": false}, {"time": 156, "velocity": 0, "pitch": 74, "instrument": 0, "track": 0, "qtime": 12, "isDrum": false}, {"time": 156, "velocity": 108, "pitch": 72, "instrument": 0, "track": 0, "qtime": 12, "isDrum": false}, {"time": 162, "velocity": 0, "pitch": 72, "instrument": 0, "track": 0, "qtime": 18, "isDrum": false}, {"time": 162, "velocity": 108, "pitch": 70, "instrument": 0, "track": 0, "qtime": 18, "isDrum": false}, {"time": 168, "velocity": 0, "pitch": 70, "instrument": 0, "track": 0, "qtime": 24, "isDrum": false}, {"time": 168, "velocity": 108, "pitch": 72, "instrument": 0, "track": 0, "qtime": 24, "isDrum": false}, {"time": 180, "velocity": 0, "pitch": 72, "instrument": 0, "track": 0, "qtime": 36, "isDrum": false}, {"time": 180, "velocity": 108, "pitch": 70, "instrument": 0, "track": 0, "qtime": 36, "isDrum": false}, {"time": 192, "velocity": 0, "pitch": 70, "instrument": 0, "track": 0, "qtime": 48, "isDrum": false}, {"time": 0, "velocity": 108, "pitch": 62, "instrument": 0, "track": 1, "qtime": 0, "isDrum": false}, {"time": 12, "velocity": 0, "pitch": 62, "instrument": 0, "track": 1, "qtime": 12, "isDrum": false}, {"time": 12, "velocity": 108, "pitch": 67, "instrument": 0, "track": 1, "qtime": 12, "isDrum": false}, {"time": 24, "velocity": 0, "pitch": 67, "instrument": 0, "track": 1, "qtime": 24, "isDrum": false}, {"time": 24, "velocity": 108, "pitch": 67, "instrument": 0, "track": 1, "qtime": 24, "isDrum": false}, {"time": 36, "velocity": 0, "pitch": 67, "instrument": 0, "track": 1, "qtime": 36, "isDrum": false}, {"time": 36, "velocity": 108, "pitch": 67, "instrument": 0, "track": 1, "qtime": 36, "isDrum": false}, {"time": 48, "velocity": 0, "pitch": 67, "instrument": 0, "track": 1, "qtime": 48, "isDrum": false}, {"time": 48, "velocity": 108, "pitch": 67, "instrument": 0, "track": 1, "qtime": 0, "isDrum": false}, {"time": 60, "velocity": 0, "pitch": 67, "instrument": 0, "track": 1, "qtime": 12, "isDrum": false}, {"time": 60, "velocity": 108, "pitch": 63, "instrument": 0, "track": 1, "qtime": 12, "isDrum": false}, {"time": 72, "velocity": 0, "pitch": 63, "instrument": 0, "track": 1, "qtime": 24, "isDrum": false}, {"time": 72, "velocity": 108, "pitch": 62, "instrument": 0, "track": 1, "qtime": 24, "isDrum": false}, {"time": 84, "velocity": 0, "pitch": 62, "instrument": 0, "track": 1, "qtime": 36, "isDrum": false}, {"time": 84, "velocity": 108, "pitch": 60, "instrument": 0, "track": 1, "qtime": 36, "isDrum": false}, {"time": 96, "velocity": 0, "pitch": 60, "instrument": 0, "track": 1, "qtime": 48, "isDrum": false}, {"time": 96, "velocity": 108, "pitch": 60, "instrument": 0, "track": 1, "qtime": 0, "isDrum": false}, {"time": 108, "velocity": 0, "pitch": 60, "instrument": 0, "track": 1, "qtime": 12, "isDrum": false}, {"time": 108, "velocity": 108, "pitch": 65, "instrument": 0, "track": 1, "qtime": 12, "isDrum": false}, {"time": 114, "velocity": 0, "pitch": 65, "instrument": 0, "track": 1, "qtime": 18, "isDrum": false}, {"time": 114, "velocity": 108, "pitch": 62, "instrument": 0, "track": 1, "qtime": 18, "isDrum": false}, {"time": 117, "velocity": 0, "pitch": 62, "instrument": 0, "track": 1, "qtime": 21, "isDrum": false}, {"time": 117, "velocity": 108, "pitch": 60, "instrument": 0, "track": 1, "qtime": 21, "isDrum": false}, {"time": 120, "velocity": 0, "pitch": 60, "instrument": 0, "track": 1, "qtime": 24, "isDrum": false}, {"time": 120, "velocity": 108, "pitch": 63, "instrument": 0, "track": 1, "qtime": 24, "isDrum": false}, {"time": 132, "velocity": 0, "pitch": 63, "instrument": 0, "track": 1, "qtime": 36, "isDrum": false}, {"time": 132, "velocity": 108, "pitch": 63, "instrument": 0, "track": 1, "qtime": 36, "isDrum": false}, {"time": 138, "velocity": 0, "pitch": 63, "instrument": 0, "track": 1, "qtime": 42, "isDrum": false}, {"time": 138, "velocity": 108, "pitch": 62, "instrument": 0, "track": 1, "qtime": 42, "isDrum": false}, {"time": 144, "velocity": 0, "pitch": 62, "instrument": 0, "track": 1, "qtime": 48, "isDrum": false}, {"time": 144, "velocity": 108, "pitch": 65, "instrument": 0, "track": 1, "qtime": 0, "isDrum": false}, {"time": 150, "velocity": 0, "pitch": 65, "instrument": 0, "track": 1, "qtime": 6, "isDrum": false}, {"time": 150, "velocity": 108, "pitch": 67, "instrument": 0, "track": 1, "qtime": 6, "isDrum": false}, {"time": 156, "velocity": 0, "pitch": 67, "instrument": 0, "track": 1, "qtime": 12, "isDrum": false}, {"time": 156, "velocity": 108, "pitch": 69, "instrument": 0, "track": 1, "qtime": 12, "isDrum": false}, {"time": 162, "velocity": 0, "pitch": 69, "instrument": 0, "track": 1, "qtime": 18, "isDrum": false}, {"time": 162, "velocity": 108, "pitch": 70, "instrument": 0, "track": 1, "qtime": 18, "isDrum": false}, {"time": 174, "velocity": 0, "pitch": 70, "instrument": 0, "track": 1, "qtime": 30, "isDrum": false}, {"time": 174, "velocity": 108, "pitch": 69, "instrument": 0, "track": 1, "qtime": 30, "isDrum": false}, {"time": 180, "velocity": 0, "pitch": 69, "instrument": 0, "track": 1, "qtime": 36, "isDrum": false}, {"time": 180, "velocity": 108, "pitch": 65, "instrument": 0, "track": 1, "qtime": 36, "isDrum": false}, {"time": 192, "velocity": 0, "pitch": 65, "instrument": 0, "track": 1, "qtime": 48, "isDrum": false}, {"time": 0, "velocity": 108, "pitch": 65, "instrument": 0, "track": 2, "qtime": 0, "isDrum": false}, {"time": 12, "velocity": 0, "pitch": 65, "instrument": 0, "track": 2, "qtime": 12, "isDrum": false}, {"time": 12, "velocity": 108, "pitch": 67, "instrument": 0, "track": 2, "qtime": 12, "isDrum": false}, {"time": 24, "velocity": 0, "pitch": 67, "instrument": 0, "track": 2, "qtime": 24, "isDrum": false}, {"time": 24, "velocity": 108, "pitch": 62, "instrument": 0, "track": 2, "qtime": 24, "isDrum": false}, {"time": 36, "velocity": 0, "pitch": 62, "instrument": 0, "track": 2, "qtime": 36, "isDrum": false}, {"time": 36, "velocity": 108, "pitch": 63, "instrument": 0, "track": 2, "qtime": 36, "isDrum": false}, {"time": 48, "velocity": 0, "pitch": 63, "instrument": 0, "track": 2, "qtime": 48, "isDrum": false}, {"time": 48, "velocity": 108, "pitch": 65, "instrument": 0, "track": 2, "qtime": 0, "isDrum": false}, {"time": 60, "velocity": 0, "pitch": 65, "instrument": 0, "track": 2, "qtime": 12, "isDrum": false}, {"time": 60, "velocity": 108, "pitch": 67, "instrument": 0, "track": 2, "qtime": 12, "isDrum": false}, {"time": 72, "velocity": 0, "pitch": 67, "instrument": 0, "track": 2, "qtime": 24, "isDrum": false}, {"time": 72, "velocity": 108, "pitch": 67, "instrument": 0, "track": 2, "qtime": 24, "isDrum": false}, {"time": 84, "velocity": 0, "pitch": 67, "instrument": 0, "track": 2, "qtime": 36, "isDrum": false}, {"time": 84, "velocity": 108, "pitch": 67, "instrument": 0, "track": 2, "qtime": 36, "isDrum": false}, {"time": 90, "velocity": 0, "pitch": 67, "instrument": 0, "track": 2, "qtime": 42, "isDrum": false}, {"time": 90, "velocity": 108, "pitch": 65, "instrument": 0, "track": 2, "qtime": 42, "isDrum": false}, {"time": 96, "velocity": 0, "pitch": 65, "instrument": 0, "track": 2, "qtime": 48, "isDrum": false}, {"time": 96, "velocity": 108, "pitch": 63, "instrument": 0, "track": 2, "qtime": 0, "isDrum": false}, {"time": 108, "velocity": 0, "pitch": 63, "instrument": 0, "track": 2, "qtime": 12, "isDrum": false}, {"time": 108, "velocity": 108, "pitch": 62, "instrument": 0, "track": 2, "qtime": 12, "isDrum": false}, {"time": 120, "velocity": 0, "pitch": 62, "instrument": 0, "track": 2, "qtime": 24, "isDrum": false}, {"time": 120, "velocity": 108, "pitch": 67, "instrument": 0, "track": 2, "qtime": 24, "isDrum": false}, {"time": 132, "velocity": 0, "pitch": 67, "instrument": 0, "track": 2, "qtime": 36, "isDrum": false}, {"time": 132, "velocity": 108, "pitch": 67, "instrument": 0, "track": 2, "qtime": 36, "isDrum": false}, {"time": 144, "velocity": 0, "pitch": 67, "instrument": 0, "track": 2, "qtime": 48, "isDrum": false}, {"time": 144, "velocity": 108, "pitch": 67, "instrument": 0, "track": 2, "qtime": 0, "isDrum": false}, {"time": 150, "velocity": 0, "pitch": 67, "instrument": 0, "track": 2, "qtime": 6, "isDrum": false}, {"time": 150, "velocity": 108, "pitch": 69, "instrument": 0, "track": 2, "qtime": 6, "isDrum": false}, {"time": 153, "velocity": 0, "pitch": 69, "instrument": 0, "track": 2, "qtime": 9, "isDrum": false}, {"time": 153, "velocity": 108, "pitch": 70, "instrument": 0, "track": 2, "qtime": 9, "isDrum": false}, {"time": 156, "velocity": 0, "pitch": 70, "instrument": 0, "track": 2, "qtime": 12, "isDrum": false}, {"time": 156, "velocity": 108, "pitch": 65, "instrument": 0, "track": 2, "qtime": 12, "isDrum": false}, {"time": 168, "velocity": 0, "pitch": 65, "instrument": 0, "track": 2, "qtime": 24, "isDrum": false}, {"time": 168, "velocity": 108, "pitch": 65, "instrument": 0, "track": 2, "qtime": 24, "isDrum": false}, {"time": 180, "velocity": 0, "pitch": 65, "instrument": 0, "track": 2, "qtime": 36, "isDrum": false}, {"time": 180, "velocity": 108, "pitch": 65, "instrument": 0, "track": 2, "qtime": 36, "isDrum": false}, {"time": 192, "velocity": 0, "pitch": 65, "instrument": 0, "track": 2, "qtime": 48, "isDrum": false}, {"time": 0, "velocity": 108, "pitch": 46, "instrument": 0, "track": 3, "qtime": 0, "isDrum": false}, {"time": 6, "velocity": 0, "pitch": 46, "instrument": 0, "track": 3, "qtime": 6, "isDrum": false}, {"time": 6, "velocity": 108, "pitch": 45, "instrument": 0, "track": 3, "qtime": 6, "isDrum": false}, {"time": 12, "velocity": 0, "pitch": 45, "instrument": 0, "track": 3, "qtime": 12, "isDrum": false}, {"time": 12, "velocity": 108, "pitch": 43, "instrument": 0, "track": 3, "qtime": 12, "isDrum": false}, {"time": 24, "velocity": 0, "pitch": 43, "instrument": 0, "track": 3, "qtime": 24, "isDrum": false}, {"time": 24, "velocity": 108, "pitch": 43, "instrument": 0, "track": 3, "qtime": 24, "isDrum": false}, {"time": 36, "velocity": 0, "pitch": 43, "instrument": 0, "track": 3, "qtime": 36, "isDrum": false}, {"time": 36, "velocity": 108, "pitch": 48, "instrument": 0, "track": 3, "qtime": 36, "isDrum": false}, {"time": 48, "velocity": 0, "pitch": 48, "instrument": 0, "track": 3, "qtime": 48, "isDrum": false}, {"time": 48, "velocity": 108, "pitch": 58, "instrument": 0, "track": 3, "qtime": 0, "isDrum": false}, {"time": 54, "velocity": 0, "pitch": 58, "instrument": 0, "track": 3, "qtime": 6, "isDrum": false}, {"time": 54, "velocity": 108, "pitch": 53, "instrument": 0, "track": 3, "qtime": 6, "isDrum": false}, {"time": 60, "velocity": 0, "pitch": 53, "instrument": 0, "track": 3, "qtime": 12, "isDrum": false}, {"time": 60, "velocity": 108, "pitch": 55, "instrument": 0, "track": 3, "qtime": 12, "isDrum": false}, {"time": 66, "velocity": 0, "pitch": 55, "instrument": 0, "track": 3, "qtime": 18, "isDrum": false}, {"time": 66, "velocity": 108, "pitch": 57, "instrument": 0, "track": 3, "qtime": 18, "isDrum": false}, {"time": 72, "velocity": 0, "pitch": 57, "instrument": 0, "track": 3, "qtime": 24, "isDrum": false}, {"time": 72, "velocity": 108, "pitch": 59, "instrument": 0, "track": 3, "qtime": 24, "isDrum": false}, {"time": 84, "velocity": 0, "pitch": 59, "instrument": 0, "track": 3, "qtime": 36, "isDrum": false}, {"time": 84, "velocity": 108, "pitch": 60, "instrument": 0, "track": 3, "qtime": 36, "isDrum": false}, {"time": 90, "velocity": 0, "pitch": 60, "instrument": 0, "track": 3, "qtime": 42, "isDrum": false}, {"time": 90, "velocity": 108, "pitch": 55, "instrument": 0, "track": 3, "qtime": 42, "isDrum": false}, {"time": 96, "velocity": 0, "pitch": 55, "instrument": 0, "track": 3, "qtime": 48, "isDrum": false}, {"time": 96, "velocity": 108, "pitch": 57, "instrument": 0, "track": 3, "qtime": 0, "isDrum": false}, {"time": 102, "velocity": 0, "pitch": 57, "instrument": 0, "track": 3, "qtime": 6, "isDrum": false}, {"time": 102, "velocity": 108, "pitch": 53, "instrument": 0, "track": 3, "qtime": 6, "isDrum": false}, {"time": 105, "velocity": 0, "pitch": 53, "instrument": 0, "track": 3, "qtime": 9, "isDrum": false}, {"time": 105, "velocity": 108, "pitch": 51, "instrument": 0, "track": 3, "qtime": 9, "isDrum": false}, {"time": 108, "velocity": 0, "pitch": 51, "instrument": 0, "track": 3, "qtime": 12, "isDrum": false}, {"time": 108, "velocity": 108, "pitch": 50, "instrument": 0, "track": 3, "qtime": 12, "isDrum": false}, {"time": 120, "velocity": 0, "pitch": 50, "instrument": 0, "track": 3, "qtime": 24, "isDrum": false}, {"time": 120, "velocity": 108, "pitch": 48, "instrument": 0, "track": 3, "qtime": 24, "isDrum": false}, {"time": 132, "velocity": 0, "pitch": 48, "instrument": 0, "track": 3, "qtime": 36, "isDrum": false}, {"time": 132, "velocity": 108, "pitch": 55, "instrument": 0, "track": 3, "qtime": 36, "isDrum": false}, {"time": 138, "velocity": 0, "pitch": 55, "instrument": 0, "track": 3, "qtime": 42, "isDrum": false}, {"time": 138, "velocity": 108, "pitch": 53, "instrument": 0, "track": 3, "qtime": 42, "isDrum": false}, {"time": 144, "velocity": 0, "pitch": 53, "instrument": 0, "track": 3, "qtime": 48, "isDrum": false}, {"time": 144, "velocity": 108, "pitch": 46, "instrument": 0, "track": 3, "qtime": 0, "isDrum": false}, {"time": 150, "velocity": 0, "pitch": 46, "instrument": 0, "track": 3, "qtime": 6, "isDrum": false}, {"time": 150, "velocity": 108, "pitch": 51, "instrument": 0, "track": 3, "qtime": 6, "isDrum": false}, {"time": 156, "velocity": 0, "pitch": 51, "instrument": 0, "track": 3, "qtime": 12, "isDrum": false}, {"time": 156, "velocity": 108, "pitch": 53, "instrument": 0, "track": 3, "qtime": 12, "isDrum": false}, {"time": 174, "velocity": 0, "pitch": 53, "instrument": 0, "track": 3, "qtime": 30, "isDrum": false}, {"time": 174, "velocity": 108, "pitch": 51, "instrument": 0, "track": 3, "qtime": 30, "isDrum": false}, {"time": 180, "velocity": 0, "pitch": 51, "instrument": 0, "track": 3, "qtime": 36, "isDrum": false}, {"time": 180, "velocity": 108, "pitch": 50, "instrument": 0, "track": 3, "qtime": 36, "isDrum": false}, {"time": 192, "velocity": 0, "pitch": 50, "instrument": 0, "track": 3, "qtime": 48, "isDrum": false}, {"time": 0, "velocity": 108, "pitch": 50, "instrument": 0, "track": 4, "qtime": 0, "isDrum": false}, {"time": 6, "velocity": 0, "pitch": 50, "instrument": 0, "track": 4, "qtime": 6, "isDrum": false}, {"time": 6, "velocity": 108, "pitch": 48, "instrument": 0, "track": 4, "qtime": 6, "isDrum": false}, {"time": 12, "velocity": 0, "pitch": 48, "instrument": 0, "track": 4, "qtime": 12, "isDrum": false}, {"time": 12, "velocity": 108, "pitch": 46, "instrument": 0, "track": 4, "qtime": 12, "isDrum": false}, {"time": 18, "velocity": 0, "pitch": 46, "instrument": 0, "track": 4, "qtime": 18, "isDrum": false}, {"time": 18, "velocity": 108, "pitch": 48, "instrument": 0, "track": 4, "qtime": 18, "isDrum": false}, {"time": 24, "velocity": 0, "pitch": 48, "instrument": 0, "track": 4, "qtime": 24, "isDrum": false}, {"time": 24, "velocity": 108, "pitch": 50, "instrument": 0, "track": 4, "qtime": 24, "isDrum": false}, {"time": 30, "velocity": 0, "pitch": 50, "instrument": 0, "track": 4, "qtime": 30, "isDrum": false}, {"time": 30, "velocity": 108, "pitch": 47, "instrument": 0, "track": 4, "qtime": 30, "isDrum": false}, {"time": 36, "velocity": 0, "pitch": 47, "instrument": 0, "track": 4, "qtime": 36, "isDrum": false}, {"time": 36, "velocity": 108, "pitch": 48, "instrument": 0, "track": 4, "qtime": 36, "isDrum": false}, {"time": 48, "velocity": 0, "pitch": 48, "instrument": 0, "track": 4, "qtime": 48, "isDrum": false}, {"time": 48, "velocity": 108, "pitch": 46, "instrument": 0, "track": 4, "qtime": 0, "isDrum": false}, {"time": 60, "velocity": 0, "pitch": 46, "instrument": 0, "track": 4, "qtime": 12, "isDrum": false}, {"time": 60, "velocity": 108, "pitch": 44, "instrument": 0, "track": 4, "qtime": 12, "isDrum": false}, {"time": 66, "velocity": 0, "pitch": 44, "instrument": 0, "track": 4, "qtime": 18, "isDrum": false}, {"time": 66, "velocity": 108, "pitch": 45, "instrument": 0, "track": 4, "qtime": 18, "isDrum": false}, {"time": 72, "velocity": 0, "pitch": 45, "instrument": 0, "track": 4, "qtime": 24, "isDrum": false}, {"time": 72, "velocity": 108, "pitch": 43, "instrument": 0, "track": 4, "qtime": 24, "isDrum": false}, {"time": 78, "velocity": 0, "pitch": 43, "instrument": 0, "track": 4, "qtime": 30, "isDrum": false}, {"time": 78, "velocity": 108, "pitch": 41, "instrument": 0, "track": 4, "qtime": 30, "isDrum": false}, {"time": 84, "velocity": 0, "pitch": 41, "instrument": 0, "track": 4, "qtime": 36, "isDrum": false}, {"time": 84, "velocity": 108, "pitch": 39, "instrument": 0, "track": 4, "qtime": 36, "isDrum": false}, {"time": 90, "velocity": 0, "pitch": 39, "instrument": 0, "track": 4, "qtime": 42, "isDrum": false}, {"time": 90, "velocity": 108, "pitch": 51, "instrument": 0, "track": 4, "qtime": 42, "isDrum": false}, {"time": 96, "velocity": 0, "pitch": 51, "instrument": 0, "track": 4, "qtime": 48, "isDrum": false}, {"time": 96, "velocity": 108, "pitch": 53, "instrument": 0, "track": 4, "qtime": 0, "isDrum": false}, {"time": 102, "velocity": 0, "pitch": 53, "instrument": 0, "track": 4, "qtime": 6, "isDrum": false}, {"time": 102, "velocity": 108, "pitch": 41, "instrument": 0, "track": 4, "qtime": 6, "isDrum": false}, {"time": 108, "velocity": 0, "pitch": 41, "instrument": 0, "track": 4, "qtime": 12, "isDrum": false}, {"time": 108, "velocity": 108, "pitch": 46, "instrument": 0, "track": 4, "qtime": 12, "isDrum": false}, {"time": 120, "velocity": 0, "pitch": 46, "instrument": 0, "track": 4, "qtime": 24, "isDrum": false}, {"time": 120, "velocity": 108, "pitch": 51, "instrument": 0, "track": 4, "qtime": 24, "isDrum": false}, {"time": 132, "velocity": 0, "pitch": 51, "instrument": 0, "track": 4, "qtime": 36, "isDrum": false}, {"time": 132, "velocity": 108, "pitch": 51, "instrument": 0, "track": 4, "qtime": 36, "isDrum": false}, {"time": 138, "velocity": 0, "pitch": 51, "instrument": 0, "track": 4, "qtime": 42, "isDrum": false}, {"time": 138, "velocity": 108, "pitch": 50, "instrument": 0, "track": 4, "qtime": 42, "isDrum": false}, {"time": 144, "velocity": 0, "pitch": 50, "instrument": 0, "track": 4, "qtime": 48, "isDrum": false}, {"time": 144, "velocity": 108, "pitch": 38, "instrument": 0, "track": 4, "qtime": 0, "isDrum": false}, {"time": 150, "velocity": 0, "pitch": 38, "instrument": 0, "track": 4, "qtime": 6, "isDrum": false}, {"time": 150, "velocity": 108, "pitch": 39, "instrument": 0, "track": 4, "qtime": 6, "isDrum": false}, {"time": 156, "velocity": 0, "pitch": 39, "instrument": 0, "track": 4, "qtime": 12, "isDrum": false}, {"time": 156, "velocity": 108, "pitch": 41, "instrument": 0, "track": 4, "qtime": 12, "isDrum": false}, {"time": 162, "velocity": 0, "pitch": 41, "instrument": 0, "track": 4, "qtime": 18, "isDrum": false}, {"time": 162, "velocity": 108, "pitch": 53, "instrument": 0, "track": 4, "qtime": 18, "isDrum": false}, {"time": 174, "velocity": 0, "pitch": 53, "instrument": 0, "track": 4, "qtime": 30, "isDrum": false}, {"time": 174, "velocity": 108, "pitch": 41, "instrument": 0, "track": 4, "qtime": 30, "isDrum": false}, {"time": 180, "velocity": 0, "pitch": 41, "instrument": 0, "track": 4, "qtime": 36, "isDrum": false}, {"time": 180, "velocity": 108, "pitch": 46, "instrument": 0, "track": 4, "qtime": 36, "isDrum": false}, {"time": 192, "velocity": 0, "pitch": 46, "instrument": 0, "track": 4, "qtime": 48, "isDrum": false}, {"time": 0, "velocity": 108, "pitch": 46, "instrument": 0, "track": 5, "qtime": 0, "isDrum": false}, {"time": 6, "velocity": 0, "pitch": 46, "instrument": 0, "track": 5, "qtime": 6, "isDrum": false}, {"time": 6, "velocity": 108, "pitch": 45, "instrument": 0, "track": 5, "qtime": 6, "isDrum": false}, {"time": 12, "velocity": 0, "pitch": 45, "instrument": 0, "track": 5, "qtime": 12, "isDrum": false}, {"time": 12, "velocity": 108, "pitch": 43, "instrument": 0, "track": 5, "qtime": 12, "isDrum": false}, {"time": 18, "velocity": 0, "pitch": 43, "instrument": 0, "track": 5, "qtime": 18, "isDrum": false}, {"time": 18, "velocity": 108, "pitch": 48, "instrument": 0, "track": 5, "qtime": 18, "isDrum": false}, {"time": 24, "velocity": 0, "pitch": 48, "instrument": 0, "track": 5, "qtime": 24, "isDrum": false}, {"time": 24, "velocity": 108, "pitch": 43, "instrument": 0, "track": 5, "qtime": 24, "isDrum": false}, {"time": 36, "velocity": 0, "pitch": 43, "instrument": 0, "track": 5, "qtime": 36, "isDrum": false}, {"time": 36, "velocity": 108, "pitch": 48, "instrument": 0, "track": 5, "qtime": 36, "isDrum": false}, {"time": 48, "velocity": 0, "pitch": 48, "instrument": 0, "track": 5, "qtime": 48, "isDrum": false}, {"time": 48, "velocity": 108, "pitch": 58, "instrument": 0, "track": 5, "qtime": 0, "isDrum": false}, {"time": 54, "velocity": 0, "pitch": 58, "instrument": 0, "track": 5, "qtime": 6, "isDrum": false}, {"time": 54, "velocity": 108, "pitch": 53, "instrument": 0, "track": 5, "qtime": 6, "isDrum": false}, {"time": 60, "velocity": 0, "pitch": 53, "instrument": 0, "track": 5, "qtime": 12, "isDrum": false}, {"time": 60, "velocity": 108, "pitch": 55, "instrument": 0, "track": 5, "qtime": 12, "isDrum": false}, {"time": 66, "velocity": 0, "pitch": 55, "instrument": 0, "track": 5, "qtime": 18, "isDrum": false}, {"time": 66, "velocity": 108, "pitch": 57, "instrument": 0, "track": 5, "qtime": 18, "isDrum": false}, {"time": 72, "velocity": 0, "pitch": 57, "instrument": 0, "track": 5, "qtime": 24, "isDrum": false}, {"time": 72, "velocity": 108, "pitch": 59, "instrument": 0, "track": 5, "qtime": 24, "isDrum": false}, {"time": 84, "velocity": 0, "pitch": 59, "instrument": 0, "track": 5, "qtime": 36, "isDrum": false}, {"time": 84, "velocity": 108, "pitch": 60, "instrument": 0, "track": 5, "qtime": 36, "isDrum": false}, {"time": 90, "velocity": 0, "pitch": 60, "instrument": 0, "track": 5, "qtime": 42, "isDrum": false}, {"time": 90, "velocity": 108, "pitch": 55, "instrument": 0, "track": 5, "qtime": 42, "isDrum": false}, {"time": 96, "velocity": 0, "pitch": 55, "instrument": 0, "track": 5, "qtime": 48, "isDrum": false}, {"time": 96, "velocity": 108, "pitch": 57, "instrument": 0, "track": 5, "qtime": 0, "isDrum": false}, {"time": 102, "velocity": 0, "pitch": 57, "instrument": 0, "track": 5, "qtime": 6, "isDrum": false}, {"time": 102, "velocity": 108, "pitch": 53, "instrument": 0, "track": 5, "qtime": 6, "isDrum": false}, {"time": 108, "velocity": 0, "pitch": 53, "instrument": 0, "track": 5, "qtime": 12, "isDrum": false}, {"time": 108, "velocity": 108, "pitch": 50, "instrument": 0, "track": 5, "qtime": 12, "isDrum": false}, {"time": 120, "velocity": 0, "pitch": 50, "instrument": 0, "track": 5, "qtime": 24, "isDrum": false}, {"time": 120, "velocity": 108, "pitch": 48, "instrument": 0, "track": 5, "qtime": 24, "isDrum": false}, {"time": 126, "velocity": 0, "pitch": 48, "instrument": 0, "track": 5, "qtime": 30, "isDrum": false}, {"time": 126, "velocity": 108, "pitch": 55, "instrument": 0, "track": 5, "qtime": 30, "isDrum": false}, {"time": 132, "velocity": 0, "pitch": 55, "instrument": 0, "track": 5, "qtime": 36, "isDrum": false}, {"time": 132, "velocity": 108, "pitch": 43, "instrument": 0, "track": 5, "qtime": 36, "isDrum": false}, {"time": 144, "velocity": 0, "pitch": 43, "instrument": 0, "track": 5, "qtime": 48, "isDrum": false}, {"time": 144, "velocity": 108, "pitch": 50, "instrument": 0, "track": 5, "qtime": 0, "isDrum": false}, {"time": 150, "velocity": 0, "pitch": 50, "instrument": 0, "track": 5, "qtime": 6, "isDrum": false}, {"time": 150, "velocity": 108, "pitch": 51, "instrument": 0, "track": 5, "qtime": 6, "isDrum": false}, {"time": 156, "velocity": 0, "pitch": 51, "instrument": 0, "track": 5, "qtime": 12, "isDrum": false}, {"time": 156, "velocity": 108, "pitch": 53, "instrument": 0, "track": 5, "qtime": 12, "isDrum": false}, {"time": 162, "velocity": 0, "pitch": 53, "instrument": 0, "track": 5, "qtime": 18, "isDrum": false}, {"time": 162, "velocity": 108, "pitch": 41, "instrument": 0, "track": 5, "qtime": 18, "isDrum": false}, {"time": 168, "velocity": 0, "pitch": 41, "instrument": 0, "track": 5, "qtime": 24, "isDrum": false}, {"time": 168, "velocity": 108, "pitch": 46, "instrument": 0, "track": 5, "qtime": 24, "isDrum": false}, {"time": 174, "velocity": 0, "pitch": 46, "instrument": 0, "track": 5, "qtime": 30, "isDrum": false}, {"time": 174, "velocity": 108, "pitch": 48, "instrument": 0, "track": 5, "qtime": 30, "isDrum": false}, {"time": 180, "velocity": 0, "pitch": 48, "instrument": 0, "track": 5, "qtime": 36, "isDrum": false}, {"time": 180, "velocity": 108, "pitch": 50, "instrument": 0, "track": 5, "qtime": 36, "isDrum": false}, {"time": 192, "velocity": 0, "pitch": 50, "instrument": 0, "track": 5, "qtime": 48, "isDrum": false}, {"time": 0, "velocity": 108, "pitch": 53, "instrument": 0, "track": 6, "qtime": 0, "isDrum": false}, {"time": 6, "velocity": 0, "pitch": 53, "instrument": 0, "track": 6, "qtime": 6, "isDrum": false}, {"time": 6, "velocity": 108, "pitch": 60, "instrument": 0, "track": 6, "qtime": 6, "isDrum": false}, {"time": 18, "velocity": 0, "pitch": 60, "instrument": 0, "track": 6, "qtime": 18, "isDrum": false}, {"time": 18, "velocity": 108, "pitch": 62, "instrument": 0, "track": 6, "qtime": 18, "isDrum": false}, {"time": 24, "velocity": 0, "pitch": 62, "instrument": 0, "track": 6, "qtime": 24, "isDrum": false}, {"time": 24, "velocity": 108, "pitch": 55, "instrument": 0, "track": 6, "qtime": 24, "isDrum": false}, {"time": 30, "velocity": 0, "pitch": 55, "instrument": 0, "track": 6, "qtime": 30, "isDrum": false}, {"time": 30, "velocity": 108, "pitch": 53, "instrument": 0, "track": 6, "qtime": 30, "isDrum": false}, {"time": 36, "velocity": 0, "pitch": 53, "instrument": 0, "track": 6, "qtime": 36, "isDrum": false}, {"time": 36, "velocity": 108, "pitch": 51, "instrument": 0, "track": 6, "qtime": 36, "isDrum": false}, {"time": 42, "velocity": 0, "pitch": 51, "instrument": 0, "track": 6, "qtime": 42, "isDrum": false}, {"time": 42, "velocity": 108, "pitch": 49, "instrument": 0, "track": 6, "qtime": 42, "isDrum": false}, {"time": 48, "velocity": 0, "pitch": 49, "instrument": 0, "track": 6, "qtime": 48, "isDrum": false}, {"time": 48, "velocity": 108, "pitch": 50, "instrument": 0, "track": 6, "qtime": 0, "isDrum": false}, {"time": 54, "velocity": 0, "pitch": 50, "instrument": 0, "track": 6, "qtime": 6, "isDrum": false}, {"time": 54, "velocity": 108, "pitch": 53, "instrument": 0, "track": 6, "qtime": 6, "isDrum": false}, {"time": 60, "velocity": 0, "pitch": 53, "instrument": 0, "track": 6, "qtime": 12, "isDrum": false}, {"time": 60, "velocity": 108, "pitch": 55, "instrument": 0, "track": 6, "qtime": 12, "isDrum": false}, {"time": 66, "velocity": 0, "pitch": 55, "instrument": 0, "track": 6, "qtime": 18, "isDrum": false}, {"time": 66, "velocity": 108, "pitch": 57, "instrument": 0, "track": 6, "qtime": 18, "isDrum": false}, {"time": 72, "velocity": 0, "pitch": 57, "instrument": 0, "track": 6, "qtime": 24, "isDrum": false}, {"time": 72, "velocity": 108, "pitch": 59, "instrument": 0, "track": 6, "qtime": 24, "isDrum": false}, {"time": 78, "velocity": 0, "pitch": 59, "instrument": 0, "track": 6, "qtime": 30, "isDrum": false}, {"time": 78, "velocity": 108, "pitch": 57, "instrument": 0, "track": 6, "qtime": 30, "isDrum": false}, {"time": 84, "velocity": 0, "pitch": 57, "instrument": 0, "track": 6, "qtime": 36, "isDrum": false}, {"time": 84, "velocity": 108, "pitch": 55, "instrument": 0, "track": 6, "qtime": 36, "isDrum": false}, {"time": 90, "velocity": 0, "pitch": 55, "instrument": 0, "track": 6, "qtime": 42, "isDrum": false}, {"time": 90, "velocity": 108, "pitch": 57, "instrument": 0, "track": 6, "qtime": 42, "isDrum": false}, {"time": 96, "velocity": 0, "pitch": 57, "instrument": 0, "track": 6, "qtime": 48, "isDrum": false}, {"time": 96, "velocity": 108, "pitch": 57, "instrument": 0, "track": 6, "qtime": 0, "isDrum": false}, {"time": 108, "velocity": 0, "pitch": 57, "instrument": 0, "track": 6, "qtime": 12, "isDrum": false}, {"time": 108, "velocity": 108, "pitch": 58, "instrument": 0, "track": 6, "qtime": 12, "isDrum": false}, {"time": 120, "velocity": 0, "pitch": 58, "instrument": 0, "track": 6, "qtime": 24, "isDrum": false}, {"time": 120, "velocity": 108, "pitch": 58, "instrument": 0, "track": 6, "qtime": 24, "isDrum": false}, {"time": 132, "velocity": 0, "pitch": 58, "instrument": 0, "track": 6, "qtime": 36, "isDrum": false}, {"time": 132, "velocity": 108, "pitch": 58, "instrument": 0, "track": 6, "qtime": 36, "isDrum": false}, {"time": 144, "velocity": 0, "pitch": 58, "instrument": 0, "track": 6, "qtime": 48, "isDrum": false}, {"time": 144, "velocity": 108, "pitch": 58, "instrument": 0, "track": 6, "qtime": 0, "isDrum": false}, {"time": 150, "velocity": 0, "pitch": 58, "instrument": 0, "track": 6, "qtime": 6, "isDrum": false}, {"time": 150, "velocity": 108, "pitch": 63, "instrument": 0, "track": 6, "qtime": 6, "isDrum": false}, {"time": 162, "velocity": 0, "pitch": 63, "instrument": 0, "track": 6, "qtime": 18, "isDrum": false}, {"time": 162, "velocity": 108, "pitch": 62, "instrument": 0, "track": 6, "qtime": 18, "isDrum": false}, {"time": 174, "velocity": 0, "pitch": 62, "instrument": 0, "track": 6, "qtime": 30, "isDrum": false}, {"time": 174, "velocity": 108, "pitch": 60, "instrument": 0, "track": 6, "qtime": 30, "isDrum": false}, {"time": 180, "velocity": 0, "pitch": 60, "instrument": 0, "track": 6, "qtime": 36, "isDrum": false}, {"time": 180, "velocity": 108, "pitch": 58, "instrument": 0, "track": 6, "qtime": 36, "isDrum": false}, {"time": 192, "velocity": 0, "pitch": 58, "instrument": 0, "track": 6, "qtime": 48, "isDrum": false}], "resolution": 12, "tempo": 120, "minPitch": 38, "maxPitch": 77, "validSegments": [0], "validTracks": [127]}, "audio": "https://www.sfu.ca/~jeffe/examples/bach_14_5_7_track.mp3"}]}]
